<?xml version="1.0" encoding="utf-8" standalone="no"?>
<!DOCTYPE svg PUBLIC "-//W3C//DTD SVG 1.1//EN"
  "http://www.w3.org/Graphics/SVG/1.1/DTD/svg11.dtd">
<svg xmlns:xlink="http://www.w3.org/1999/xlink" width="947.0875pt" height="425.738063pt" viewBox="0 0 947.0875 425.738063" xmlns="http://www.w3.org/2000/svg" version="1.1">
 <metadata>
  <rdf:RDF xmlns:dc="http://purl.org/dc/elements/1.1/" xmlns:cc="http://creativecommons.org/ns#" xmlns:rdf="http://www.w3.org/1999/02/22-rdf-syntax-ns#">
   <cc:Work>
    <dc:type rdf:resource="http://purl.org/dc/dcmitype/StillImage"/>
    <dc:date>2025-03-18T21:43:29.887288</dc:date>
    <dc:format>image/svg+xml</dc:format>
    <dc:creator>
     <cc:Agent>
      <dc:title>Matplotlib v3.10.0, https://matplotlib.org/</dc:title>
     </cc:Agent>
    </dc:creator>
   </cc:Work>
  </rdf:RDF>
 </metadata>
 <defs>
  <style type="text/css">*{stroke-linejoin: round; stroke-linecap: butt}</style>
 </defs>
 <g id="figure_1">
  <g id="patch_1">
   <path d="M 0 425.738063 
L 947.0875 425.738063 
L 947.0875 0 
L 0 0 
z
" style="fill: #ffffff"/>
  </g>
  <g id="axes_1">
   <g id="patch_2">
    <path d="M 146.40375 402.39275 
L 800.68375 402.39275 
L 800.68375 41.958 
L 146.40375 41.958 
z
" style="fill: #ffffff"/>
   </g>
   <g id="matplotlib.axis_1">
    <g id="xtick_1">
     <g id="line2d_1">
      <path d="M 176.14375 402.39275 
L 176.14375 41.958 
" clip-path="url(#p6eabe89bd7)" style="fill: none; stroke-dasharray: 2.96,1.28; stroke-dashoffset: 0; stroke: #cccccc; stroke-opacity: 0; stroke-width: 0.8"/>
     </g>
     <g id="text_1">
      <!-- 0 -->
      <g style="fill: #262626" transform="translate(173.363281 416.550563) scale(0.1 -0.1)">
       <defs>
        <path id="ArialMT-30" d="M 266 2259 
Q 266 3072 433 3567 
Q 600 4063 929 4331 
Q 1259 4600 1759 4600 
Q 2128 4600 2406 4451 
Q 2684 4303 2865 4023 
Q 3047 3744 3150 3342 
Q 3253 2941 3253 2259 
Q 3253 1453 3087 958 
Q 2922 463 2592 192 
Q 2263 -78 1759 -78 
Q 1097 -78 719 397 
Q 266 969 266 2259 
z
M 844 2259 
Q 844 1131 1108 757 
Q 1372 384 1759 384 
Q 2147 384 2411 759 
Q 2675 1134 2675 2259 
Q 2675 3391 2411 3762 
Q 2147 4134 1753 4134 
Q 1366 4134 1134 3806 
Q 844 3388 844 2259 
z
" transform="scale(0.015625)"/>
       </defs>
       <use xlink:href="#ArialMT-30"/>
      </g>
     </g>
    </g>
    <g id="xtick_2">
     <g id="line2d_2">
      <path d="M 308.321528 402.39275 
L 308.321528 41.958 
" clip-path="url(#p6eabe89bd7)" style="fill: none; stroke-dasharray: 2.96,1.28; stroke-dashoffset: 0; stroke: #cccccc; stroke-opacity: 0; stroke-width: 0.8"/>
     </g>
     <g id="text_2">
      <!-- 2 -->
      <g style="fill: #262626" transform="translate(305.541059 416.550563) scale(0.1 -0.1)">
       <defs>
        <path id="ArialMT-32" d="M 3222 541 
L 3222 0 
L 194 0 
Q 188 203 259 391 
Q 375 700 629 1000 
Q 884 1300 1366 1694 
Q 2113 2306 2375 2664 
Q 2638 3022 2638 3341 
Q 2638 3675 2398 3904 
Q 2159 4134 1775 4134 
Q 1369 4134 1125 3890 
Q 881 3647 878 3216 
L 300 3275 
Q 359 3922 746 4261 
Q 1134 4600 1788 4600 
Q 2447 4600 2831 4234 
Q 3216 3869 3216 3328 
Q 3216 3053 3103 2787 
Q 2991 2522 2730 2228 
Q 2469 1934 1863 1422 
Q 1356 997 1212 845 
Q 1069 694 975 541 
L 3222 541 
z
" transform="scale(0.015625)"/>
       </defs>
       <use xlink:href="#ArialMT-32"/>
      </g>
     </g>
    </g>
    <g id="xtick_3">
     <g id="line2d_3">
      <path d="M 440.499306 402.39275 
L 440.499306 41.958 
" clip-path="url(#p6eabe89bd7)" style="fill: none; stroke-dasharray: 2.96,1.28; stroke-dashoffset: 0; stroke: #cccccc; stroke-opacity: 0; stroke-width: 0.8"/>
     </g>
     <g id="text_3">
      <!-- 4 -->
      <g style="fill: #262626" transform="translate(437.718837 416.550563) scale(0.1 -0.1)">
       <defs>
        <path id="ArialMT-34" d="M 2069 0 
L 2069 1097 
L 81 1097 
L 81 1613 
L 2172 4581 
L 2631 4581 
L 2631 1613 
L 3250 1613 
L 3250 1097 
L 2631 1097 
L 2631 0 
L 2069 0 
z
M 2069 1613 
L 2069 3678 
L 634 1613 
L 2069 1613 
z
" transform="scale(0.015625)"/>
       </defs>
       <use xlink:href="#ArialMT-34"/>
      </g>
     </g>
    </g>
    <g id="xtick_4">
     <g id="line2d_4">
      <path d="M 572.677083 402.39275 
L 572.677083 41.958 
" clip-path="url(#p6eabe89bd7)" style="fill: none; stroke-dasharray: 2.96,1.28; stroke-dashoffset: 0; stroke: #cccccc; stroke-opacity: 0; stroke-width: 0.8"/>
     </g>
     <g id="text_4">
      <!-- 6 -->
      <g style="fill: #262626" transform="translate(569.896615 416.550563) scale(0.1 -0.1)">
       <defs>
        <path id="ArialMT-36" d="M 3184 3459 
L 2625 3416 
Q 2550 3747 2413 3897 
Q 2184 4138 1850 4138 
Q 1581 4138 1378 3988 
Q 1113 3794 959 3422 
Q 806 3050 800 2363 
Q 1003 2672 1297 2822 
Q 1591 2972 1913 2972 
Q 2475 2972 2870 2558 
Q 3266 2144 3266 1488 
Q 3266 1056 3080 686 
Q 2894 316 2569 119 
Q 2244 -78 1831 -78 
Q 1128 -78 684 439 
Q 241 956 241 2144 
Q 241 3472 731 4075 
Q 1159 4600 1884 4600 
Q 2425 4600 2770 4297 
Q 3116 3994 3184 3459 
z
M 888 1484 
Q 888 1194 1011 928 
Q 1134 663 1356 523 
Q 1578 384 1822 384 
Q 2178 384 2434 671 
Q 2691 959 2691 1453 
Q 2691 1928 2437 2201 
Q 2184 2475 1800 2475 
Q 1419 2475 1153 2201 
Q 888 1928 888 1484 
z
" transform="scale(0.015625)"/>
       </defs>
       <use xlink:href="#ArialMT-36"/>
      </g>
     </g>
    </g>
    <g id="xtick_5">
     <g id="line2d_5">
      <path d="M 704.854861 402.39275 
L 704.854861 41.958 
" clip-path="url(#p6eabe89bd7)" style="fill: none; stroke-dasharray: 2.96,1.28; stroke-dashoffset: 0; stroke: #cccccc; stroke-opacity: 0; stroke-width: 0.8"/>
     </g>
     <g id="text_5">
      <!-- 8 -->
      <g style="fill: #262626" transform="translate(702.074392 416.550563) scale(0.1 -0.1)">
       <defs>
        <path id="ArialMT-38" d="M 1131 2484 
Q 781 2613 612 2850 
Q 444 3088 444 3419 
Q 444 3919 803 4259 
Q 1163 4600 1759 4600 
Q 2359 4600 2725 4251 
Q 3091 3903 3091 3403 
Q 3091 3084 2923 2848 
Q 2756 2613 2416 2484 
Q 2838 2347 3058 2040 
Q 3278 1734 3278 1309 
Q 3278 722 2862 322 
Q 2447 -78 1769 -78 
Q 1091 -78 675 323 
Q 259 725 259 1325 
Q 259 1772 486 2073 
Q 713 2375 1131 2484 
z
M 1019 3438 
Q 1019 3113 1228 2906 
Q 1438 2700 1772 2700 
Q 2097 2700 2305 2904 
Q 2513 3109 2513 3406 
Q 2513 3716 2298 3927 
Q 2084 4138 1766 4138 
Q 1444 4138 1231 3931 
Q 1019 3725 1019 3438 
z
M 838 1322 
Q 838 1081 952 856 
Q 1066 631 1291 507 
Q 1516 384 1775 384 
Q 2178 384 2440 643 
Q 2703 903 2703 1303 
Q 2703 1709 2433 1975 
Q 2163 2241 1756 2241 
Q 1359 2241 1098 1978 
Q 838 1716 838 1322 
z
" transform="scale(0.015625)"/>
       </defs>
       <use xlink:href="#ArialMT-38"/>
      </g>
     </g>
    </g>
   </g>
   <g id="matplotlib.axis_2">
    <g id="ytick_1">
     <g id="line2d_6">
      <path d="M 146.40375 402.39275 
L 800.68375 402.39275 
" clip-path="url(#p6eabe89bd7)" style="fill: none; stroke-dasharray: 2.96,1.28; stroke-dashoffset: 0; stroke: #cccccc; stroke-opacity: 0.7; stroke-width: 0.8"/>
     </g>
     <g id="text_6">
      <!-- 0 -->
      <g style="fill: #262626" transform="translate(133.842812 405.971656) scale(0.1 -0.1)">
       <use xlink:href="#ArialMT-30"/>
      </g>
     </g>
    </g>
    <g id="ytick_2">
     <g id="line2d_7">
      <path d="M 146.40375 343.4823 
L 800.68375 343.4823 
" clip-path="url(#p6eabe89bd7)" style="fill: none; stroke-dasharray: 2.96,1.28; stroke-dashoffset: 0; stroke: #cccccc; stroke-opacity: 0.7; stroke-width: 0.8"/>
     </g>
     <g id="text_7">
      <!-- 1000 -->
      <g style="fill: #262626" transform="translate(117.16 347.061207) scale(0.1 -0.1)">
       <defs>
        <path id="ArialMT-31" d="M 2384 0 
L 1822 0 
L 1822 3584 
Q 1619 3391 1289 3197 
Q 959 3003 697 2906 
L 697 3450 
Q 1169 3672 1522 3987 
Q 1875 4303 2022 4600 
L 2384 4600 
L 2384 0 
z
" transform="scale(0.015625)"/>
       </defs>
       <use xlink:href="#ArialMT-31"/>
       <use xlink:href="#ArialMT-30" transform="translate(55.615234 0)"/>
       <use xlink:href="#ArialMT-30" transform="translate(111.230469 0)"/>
       <use xlink:href="#ArialMT-30" transform="translate(166.845703 0)"/>
      </g>
     </g>
    </g>
    <g id="ytick_3">
     <g id="line2d_8">
      <path d="M 146.40375 284.571851 
L 800.68375 284.571851 
" clip-path="url(#p6eabe89bd7)" style="fill: none; stroke-dasharray: 2.96,1.28; stroke-dashoffset: 0; stroke: #cccccc; stroke-opacity: 0.7; stroke-width: 0.8"/>
     </g>
     <g id="text_8">
      <!-- 2000 -->
      <g style="fill: #262626" transform="translate(117.16 288.150757) scale(0.1 -0.1)">
       <use xlink:href="#ArialMT-32"/>
       <use xlink:href="#ArialMT-30" transform="translate(55.615234 0)"/>
       <use xlink:href="#ArialMT-30" transform="translate(111.230469 0)"/>
       <use xlink:href="#ArialMT-30" transform="translate(166.845703 0)"/>
      </g>
     </g>
    </g>
    <g id="ytick_4">
     <g id="line2d_9">
      <path d="M 146.40375 225.661401 
L 800.68375 225.661401 
" clip-path="url(#p6eabe89bd7)" style="fill: none; stroke-dasharray: 2.96,1.28; stroke-dashoffset: 0; stroke: #cccccc; stroke-opacity: 0.7; stroke-width: 0.8"/>
     </g>
     <g id="text_9">
      <!-- 3000 -->
      <g style="fill: #262626" transform="translate(117.16 229.240307) scale(0.1 -0.1)">
       <defs>
        <path id="ArialMT-33" d="M 269 1209 
L 831 1284 
Q 928 806 1161 595 
Q 1394 384 1728 384 
Q 2125 384 2398 659 
Q 2672 934 2672 1341 
Q 2672 1728 2419 1979 
Q 2166 2231 1775 2231 
Q 1616 2231 1378 2169 
L 1441 2663 
Q 1497 2656 1531 2656 
Q 1891 2656 2178 2843 
Q 2466 3031 2466 3422 
Q 2466 3731 2256 3934 
Q 2047 4138 1716 4138 
Q 1388 4138 1169 3931 
Q 950 3725 888 3313 
L 325 3413 
Q 428 3978 793 4289 
Q 1159 4600 1703 4600 
Q 2078 4600 2393 4439 
Q 2709 4278 2876 4000 
Q 3044 3722 3044 3409 
Q 3044 3113 2884 2869 
Q 2725 2625 2413 2481 
Q 2819 2388 3044 2092 
Q 3269 1797 3269 1353 
Q 3269 753 2831 336 
Q 2394 -81 1725 -81 
Q 1122 -81 723 278 
Q 325 638 269 1209 
z
" transform="scale(0.015625)"/>
       </defs>
       <use xlink:href="#ArialMT-33"/>
       <use xlink:href="#ArialMT-30" transform="translate(55.615234 0)"/>
       <use xlink:href="#ArialMT-30" transform="translate(111.230469 0)"/>
       <use xlink:href="#ArialMT-30" transform="translate(166.845703 0)"/>
      </g>
     </g>
    </g>
    <g id="ytick_5">
     <g id="line2d_10">
      <path d="M 146.40375 166.750951 
L 800.68375 166.750951 
" clip-path="url(#p6eabe89bd7)" style="fill: none; stroke-dasharray: 2.96,1.28; stroke-dashoffset: 0; stroke: #cccccc; stroke-opacity: 0.7; stroke-width: 0.8"/>
     </g>
     <g id="text_10">
      <!-- 4000 -->
      <g style="fill: #262626" transform="translate(117.16 170.329857) scale(0.1 -0.1)">
       <use xlink:href="#ArialMT-34"/>
       <use xlink:href="#ArialMT-30" transform="translate(55.615234 0)"/>
       <use xlink:href="#ArialMT-30" transform="translate(111.230469 0)"/>
       <use xlink:href="#ArialMT-30" transform="translate(166.845703 0)"/>
      </g>
     </g>
    </g>
    <g id="ytick_6">
     <g id="line2d_11">
      <path d="M 146.40375 107.840501 
L 800.68375 107.840501 
" clip-path="url(#p6eabe89bd7)" style="fill: none; stroke-dasharray: 2.96,1.28; stroke-dashoffset: 0; stroke: #cccccc; stroke-opacity: 0.7; stroke-width: 0.8"/>
     </g>
     <g id="text_11">
      <!-- 5000 -->
      <g style="fill: #262626" transform="translate(117.16 111.419408) scale(0.1 -0.1)">
       <defs>
        <path id="ArialMT-35" d="M 266 1200 
L 856 1250 
Q 922 819 1161 601 
Q 1400 384 1738 384 
Q 2144 384 2425 690 
Q 2706 997 2706 1503 
Q 2706 1984 2436 2262 
Q 2166 2541 1728 2541 
Q 1456 2541 1237 2417 
Q 1019 2294 894 2097 
L 366 2166 
L 809 4519 
L 3088 4519 
L 3088 3981 
L 1259 3981 
L 1013 2750 
Q 1425 3038 1878 3038 
Q 2478 3038 2890 2622 
Q 3303 2206 3303 1553 
Q 3303 931 2941 478 
Q 2500 -78 1738 -78 
Q 1113 -78 717 272 
Q 322 622 266 1200 
z
" transform="scale(0.015625)"/>
       </defs>
       <use xlink:href="#ArialMT-35"/>
       <use xlink:href="#ArialMT-30" transform="translate(55.615234 0)"/>
       <use xlink:href="#ArialMT-30" transform="translate(111.230469 0)"/>
       <use xlink:href="#ArialMT-30" transform="translate(166.845703 0)"/>
      </g>
     </g>
    </g>
    <g id="ytick_7">
     <g id="line2d_12">
      <path d="M 146.40375 48.930052 
L 800.68375 48.930052 
" clip-path="url(#p6eabe89bd7)" style="fill: none; stroke-dasharray: 2.96,1.28; stroke-dashoffset: 0; stroke: #cccccc; stroke-opacity: 0.7; stroke-width: 0.8"/>
     </g>
     <g id="text_12">
      <!-- 6000 -->
      <g style="fill: #262626" transform="translate(117.16 52.508958) scale(0.1 -0.1)">
       <use xlink:href="#ArialMT-36"/>
       <use xlink:href="#ArialMT-30" transform="translate(55.615234 0)"/>
       <use xlink:href="#ArialMT-30" transform="translate(111.230469 0)"/>
       <use xlink:href="#ArialMT-30" transform="translate(166.845703 0)"/>
      </g>
     </g>
    </g>
    <g id="text_13">
     <!-- Frecuencia -->
     <g style="fill: #262626" transform="translate(110.775 251.853813) rotate(-90) scale(0.12 -0.12)">
      <defs>
       <path id="ArialMT-46" d="M 525 0 
L 525 4581 
L 3616 4581 
L 3616 4041 
L 1131 4041 
L 1131 2622 
L 3281 2622 
L 3281 2081 
L 1131 2081 
L 1131 0 
L 525 0 
z
" transform="scale(0.015625)"/>
       <path id="ArialMT-72" d="M 416 0 
L 416 3319 
L 922 3319 
L 922 2816 
Q 1116 3169 1280 3281 
Q 1444 3394 1641 3394 
Q 1925 3394 2219 3213 
L 2025 2691 
Q 1819 2813 1613 2813 
Q 1428 2813 1281 2702 
Q 1134 2591 1072 2394 
Q 978 2094 978 1738 
L 978 0 
L 416 0 
z
" transform="scale(0.015625)"/>
       <path id="ArialMT-65" d="M 2694 1069 
L 3275 997 
Q 3138 488 2766 206 
Q 2394 -75 1816 -75 
Q 1088 -75 661 373 
Q 234 822 234 1631 
Q 234 2469 665 2931 
Q 1097 3394 1784 3394 
Q 2450 3394 2872 2941 
Q 3294 2488 3294 1666 
Q 3294 1616 3291 1516 
L 816 1516 
Q 847 969 1125 678 
Q 1403 388 1819 388 
Q 2128 388 2347 550 
Q 2566 713 2694 1069 
z
M 847 1978 
L 2700 1978 
Q 2663 2397 2488 2606 
Q 2219 2931 1791 2931 
Q 1403 2931 1139 2672 
Q 875 2413 847 1978 
z
" transform="scale(0.015625)"/>
       <path id="ArialMT-63" d="M 2588 1216 
L 3141 1144 
Q 3050 572 2676 248 
Q 2303 -75 1759 -75 
Q 1078 -75 664 370 
Q 250 816 250 1647 
Q 250 2184 428 2587 
Q 606 2991 970 3192 
Q 1334 3394 1763 3394 
Q 2303 3394 2647 3120 
Q 2991 2847 3088 2344 
L 2541 2259 
Q 2463 2594 2264 2762 
Q 2066 2931 1784 2931 
Q 1359 2931 1093 2626 
Q 828 2322 828 1663 
Q 828 994 1084 691 
Q 1341 388 1753 388 
Q 2084 388 2306 591 
Q 2528 794 2588 1216 
z
" transform="scale(0.015625)"/>
       <path id="ArialMT-75" d="M 2597 0 
L 2597 488 
Q 2209 -75 1544 -75 
Q 1250 -75 995 37 
Q 741 150 617 320 
Q 494 491 444 738 
Q 409 903 409 1263 
L 409 3319 
L 972 3319 
L 972 1478 
Q 972 1038 1006 884 
Q 1059 663 1231 536 
Q 1403 409 1656 409 
Q 1909 409 2131 539 
Q 2353 669 2445 892 
Q 2538 1116 2538 1541 
L 2538 3319 
L 3100 3319 
L 3100 0 
L 2597 0 
z
" transform="scale(0.015625)"/>
       <path id="ArialMT-6e" d="M 422 0 
L 422 3319 
L 928 3319 
L 928 2847 
Q 1294 3394 1984 3394 
Q 2284 3394 2536 3286 
Q 2788 3178 2913 3003 
Q 3038 2828 3088 2588 
Q 3119 2431 3119 2041 
L 3119 0 
L 2556 0 
L 2556 2019 
Q 2556 2363 2490 2533 
Q 2425 2703 2258 2804 
Q 2091 2906 1866 2906 
Q 1506 2906 1245 2678 
Q 984 2450 984 1813 
L 984 0 
L 422 0 
z
" transform="scale(0.015625)"/>
       <path id="ArialMT-69" d="M 425 3934 
L 425 4581 
L 988 4581 
L 988 3934 
L 425 3934 
z
M 425 0 
L 425 3319 
L 988 3319 
L 988 0 
L 425 0 
z
" transform="scale(0.015625)"/>
       <path id="ArialMT-61" d="M 2588 409 
Q 2275 144 1986 34 
Q 1697 -75 1366 -75 
Q 819 -75 525 192 
Q 231 459 231 875 
Q 231 1119 342 1320 
Q 453 1522 633 1644 
Q 813 1766 1038 1828 
Q 1203 1872 1538 1913 
Q 2219 1994 2541 2106 
Q 2544 2222 2544 2253 
Q 2544 2597 2384 2738 
Q 2169 2928 1744 2928 
Q 1347 2928 1158 2789 
Q 969 2650 878 2297 
L 328 2372 
Q 403 2725 575 2942 
Q 747 3159 1072 3276 
Q 1397 3394 1825 3394 
Q 2250 3394 2515 3294 
Q 2781 3194 2906 3042 
Q 3031 2891 3081 2659 
Q 3109 2516 3109 2141 
L 3109 1391 
Q 3109 606 3145 398 
Q 3181 191 3288 0 
L 2700 0 
Q 2613 175 2588 409 
z
M 2541 1666 
Q 2234 1541 1622 1453 
Q 1275 1403 1131 1340 
Q 988 1278 909 1158 
Q 831 1038 831 891 
Q 831 666 1001 516 
Q 1172 366 1500 366 
Q 1825 366 2078 508 
Q 2331 650 2450 897 
Q 2541 1088 2541 1459 
L 2541 1666 
z
" transform="scale(0.015625)"/>
      </defs>
      <use xlink:href="#ArialMT-46"/>
      <use xlink:href="#ArialMT-72" transform="translate(61.083984 0)"/>
      <use xlink:href="#ArialMT-65" transform="translate(94.384766 0)"/>
      <use xlink:href="#ArialMT-63" transform="translate(150 0)"/>
      <use xlink:href="#ArialMT-75" transform="translate(200 0)"/>
      <use xlink:href="#ArialMT-65" transform="translate(255.615234 0)"/>
      <use xlink:href="#ArialMT-6e" transform="translate(311.230469 0)"/>
      <use xlink:href="#ArialMT-63" transform="translate(366.845703 0)"/>
      <use xlink:href="#ArialMT-69" transform="translate(416.845703 0)"/>
      <use xlink:href="#ArialMT-61" transform="translate(439.0625 0)"/>
     </g>
    </g>
   </g>
   <g id="patch_3">
    <path d="M 176.14375 402.39275 
L 188.03975 402.39275 
L 188.03975 398.151198 
L 176.14375 398.151198 
z
" clip-path="url(#p6eabe89bd7)" style="fill: #001c7f; fill-opacity: 0.6; stroke: #ffffff; stroke-linejoin: miter"/>
   </g>
   <g id="patch_4">
    <path d="M 188.03975 402.39275 
L 199.93575 402.39275 
L 199.93575 402.39275 
L 188.03975 402.39275 
z
" clip-path="url(#p6eabe89bd7)" style="fill: #001c7f; fill-opacity: 0.6; stroke: #ffffff; stroke-linejoin: miter"/>
   </g>
   <g id="patch_5">
    <path d="M 199.93575 402.39275 
L 211.83175 402.39275 
L 211.83175 402.39275 
L 199.93575 402.39275 
z
" clip-path="url(#p6eabe89bd7)" style="fill: #001c7f; fill-opacity: 0.6; stroke: #ffffff; stroke-linejoin: miter"/>
   </g>
   <g id="patch_6">
    <path d="M 211.83175 402.39275 
L 223.72775 402.39275 
L 223.72775 402.39275 
L 211.83175 402.39275 
z
" clip-path="url(#p6eabe89bd7)" style="fill: #001c7f; fill-opacity: 0.6; stroke: #ffffff; stroke-linejoin: miter"/>
   </g>
   <g id="patch_7">
    <path d="M 223.72775 402.39275 
L 235.62375 402.39275 
L 235.62375 402.39275 
L 223.72775 402.39275 
z
" clip-path="url(#p6eabe89bd7)" style="fill: #001c7f; fill-opacity: 0.6; stroke: #ffffff; stroke-linejoin: miter"/>
   </g>
   <g id="patch_8">
    <path d="M 235.62375 402.39275 
L 247.51975 402.39275 
L 247.51975 377.827092 
L 235.62375 377.827092 
z
" clip-path="url(#p6eabe89bd7)" style="fill: #001c7f; fill-opacity: 0.6; stroke: #ffffff; stroke-linejoin: miter"/>
   </g>
   <g id="patch_9">
    <path d="M 247.51975 402.39275 
L 259.41575 402.39275 
L 259.41575 402.39275 
L 247.51975 402.39275 
z
" clip-path="url(#p6eabe89bd7)" style="fill: #001c7f; fill-opacity: 0.6; stroke: #ffffff; stroke-linejoin: miter"/>
   </g>
   <g id="patch_10">
    <path d="M 259.41575 402.39275 
L 271.31175 402.39275 
L 271.31175 402.39275 
L 259.41575 402.39275 
z
" clip-path="url(#p6eabe89bd7)" style="fill: #001c7f; fill-opacity: 0.6; stroke: #ffffff; stroke-linejoin: miter"/>
   </g>
   <g id="patch_11">
    <path d="M 271.31175 402.39275 
L 283.20775 402.39275 
L 283.20775 402.39275 
L 271.31175 402.39275 
z
" clip-path="url(#p6eabe89bd7)" style="fill: #001c7f; fill-opacity: 0.6; stroke: #ffffff; stroke-linejoin: miter"/>
   </g>
   <g id="patch_12">
    <path d="M 283.20775 402.39275 
L 295.10375 402.39275 
L 295.10375 402.39275 
L 283.20775 402.39275 
z
" clip-path="url(#p6eabe89bd7)" style="fill: #001c7f; fill-opacity: 0.6; stroke: #ffffff; stroke-linejoin: miter"/>
   </g>
   <g id="patch_13">
    <path d="M 295.10375 402.39275 
L 306.99975 402.39275 
L 306.99975 402.39275 
L 295.10375 402.39275 
z
" clip-path="url(#p6eabe89bd7)" style="fill: #001c7f; fill-opacity: 0.6; stroke: #ffffff; stroke-linejoin: miter"/>
   </g>
   <g id="patch_14">
    <path d="M 306.99975 402.39275 
L 318.89575 402.39275 
L 318.89575 309.903344 
L 306.99975 309.903344 
z
" clip-path="url(#p6eabe89bd7)" style="fill: #001c7f; fill-opacity: 0.6; stroke: #ffffff; stroke-linejoin: miter"/>
   </g>
   <g id="patch_15">
    <path d="M 318.89575 402.39275 
L 330.79175 402.39275 
L 330.79175 402.39275 
L 318.89575 402.39275 
z
" clip-path="url(#p6eabe89bd7)" style="fill: #001c7f; fill-opacity: 0.6; stroke: #ffffff; stroke-linejoin: miter"/>
   </g>
   <g id="patch_16">
    <path d="M 330.79175 402.39275 
L 342.68775 402.39275 
L 342.68775 402.39275 
L 330.79175 402.39275 
z
" clip-path="url(#p6eabe89bd7)" style="fill: #001c7f; fill-opacity: 0.6; stroke: #ffffff; stroke-linejoin: miter"/>
   </g>
   <g id="patch_17">
    <path d="M 342.68775 402.39275 
L 354.58375 402.39275 
L 354.58375 402.39275 
L 342.68775 402.39275 
z
" clip-path="url(#p6eabe89bd7)" style="fill: #001c7f; fill-opacity: 0.6; stroke: #ffffff; stroke-linejoin: miter"/>
   </g>
   <g id="patch_18">
    <path d="M 354.58375 402.39275 
L 366.47975 402.39275 
L 366.47975 402.39275 
L 354.58375 402.39275 
z
" clip-path="url(#p6eabe89bd7)" style="fill: #001c7f; fill-opacity: 0.6; stroke: #ffffff; stroke-linejoin: miter"/>
   </g>
   <g id="patch_19">
    <path d="M 366.47975 402.39275 
L 378.37575 402.39275 
L 378.37575 214.704057 
L 366.47975 214.704057 
z
" clip-path="url(#p6eabe89bd7)" style="fill: #001c7f; fill-opacity: 0.6; stroke: #ffffff; stroke-linejoin: miter"/>
   </g>
   <g id="patch_20">
    <path d="M 378.37575 402.39275 
L 390.27175 402.39275 
L 390.27175 402.39275 
L 378.37575 402.39275 
z
" clip-path="url(#p6eabe89bd7)" style="fill: #001c7f; fill-opacity: 0.6; stroke: #ffffff; stroke-linejoin: miter"/>
   </g>
   <g id="patch_21">
    <path d="M 390.27175 402.39275 
L 402.16775 402.39275 
L 402.16775 402.39275 
L 390.27175 402.39275 
z
" clip-path="url(#p6eabe89bd7)" style="fill: #001c7f; fill-opacity: 0.6; stroke: #ffffff; stroke-linejoin: miter"/>
   </g>
   <g id="patch_22">
    <path d="M 402.16775 402.39275 
L 414.06375 402.39275 
L 414.06375 402.39275 
L 402.16775 402.39275 
z
" clip-path="url(#p6eabe89bd7)" style="fill: #001c7f; fill-opacity: 0.6; stroke: #ffffff; stroke-linejoin: miter"/>
   </g>
   <g id="patch_23">
    <path d="M 414.06375 402.39275 
L 425.95975 402.39275 
L 425.95975 402.39275 
L 414.06375 402.39275 
z
" clip-path="url(#p6eabe89bd7)" style="fill: #001c7f; fill-opacity: 0.6; stroke: #ffffff; stroke-linejoin: miter"/>
   </g>
   <g id="patch_24">
    <path d="M 425.95975 402.39275 
L 437.85575 402.39275 
L 437.85575 402.39275 
L 425.95975 402.39275 
z
" clip-path="url(#p6eabe89bd7)" style="fill: #001c7f; fill-opacity: 0.6; stroke: #ffffff; stroke-linejoin: miter"/>
   </g>
   <g id="patch_25">
    <path d="M 437.85575 402.39275 
L 449.75175 402.39275 
L 449.75175 127.33986 
L 437.85575 127.33986 
z
" clip-path="url(#p6eabe89bd7)" style="fill: #001c7f; fill-opacity: 0.6; stroke: #ffffff; stroke-linejoin: miter"/>
   </g>
   <g id="patch_26">
    <path d="M 449.75175 402.39275 
L 461.64775 402.39275 
L 461.64775 402.39275 
L 449.75175 402.39275 
z
" clip-path="url(#p6eabe89bd7)" style="fill: #001c7f; fill-opacity: 0.6; stroke: #ffffff; stroke-linejoin: miter"/>
   </g>
   <g id="patch_27">
    <path d="M 461.64775 402.39275 
L 473.54375 402.39275 
L 473.54375 402.39275 
L 461.64775 402.39275 
z
" clip-path="url(#p6eabe89bd7)" style="fill: #001c7f; fill-opacity: 0.6; stroke: #ffffff; stroke-linejoin: miter"/>
   </g>
   <g id="patch_28">
    <path d="M 473.54375 402.39275 
L 485.43975 402.39275 
L 485.43975 402.39275 
L 473.54375 402.39275 
z
" clip-path="url(#p6eabe89bd7)" style="fill: #001c7f; fill-opacity: 0.6; stroke: #ffffff; stroke-linejoin: miter"/>
   </g>
   <g id="patch_29">
    <path d="M 485.43975 402.39275 
L 497.33575 402.39275 
L 497.33575 402.39275 
L 485.43975 402.39275 
z
" clip-path="url(#p6eabe89bd7)" style="fill: #001c7f; fill-opacity: 0.6; stroke: #ffffff; stroke-linejoin: miter"/>
   </g>
   <g id="patch_30">
    <path d="M 497.33575 402.39275 
L 509.23175 402.39275 
L 509.23175 59.12156 
L 497.33575 59.12156 
z
" clip-path="url(#p6eabe89bd7)" style="fill: #001c7f; fill-opacity: 0.6; stroke: #ffffff; stroke-linejoin: miter"/>
   </g>
   <g id="patch_31">
    <path d="M 509.23175 402.39275 
L 521.12775 402.39275 
L 521.12775 402.39275 
L 509.23175 402.39275 
z
" clip-path="url(#p6eabe89bd7)" style="fill: #001c7f; fill-opacity: 0.6; stroke: #ffffff; stroke-linejoin: miter"/>
   </g>
   <g id="patch_32">
    <path d="M 521.12775 402.39275 
L 533.02375 402.39275 
L 533.02375 402.39275 
L 521.12775 402.39275 
z
" clip-path="url(#p6eabe89bd7)" style="fill: #001c7f; fill-opacity: 0.6; stroke: #ffffff; stroke-linejoin: miter"/>
   </g>
   <g id="patch_33">
    <path d="M 533.02375 402.39275 
L 544.91975 402.39275 
L 544.91975 402.39275 
L 533.02375 402.39275 
z
" clip-path="url(#p6eabe89bd7)" style="fill: #001c7f; fill-opacity: 0.6; stroke: #ffffff; stroke-linejoin: miter"/>
   </g>
   <g id="patch_34">
    <path d="M 544.91975 402.39275 
L 556.81575 402.39275 
L 556.81575 402.39275 
L 544.91975 402.39275 
z
" clip-path="url(#p6eabe89bd7)" style="fill: #001c7f; fill-opacity: 0.6; stroke: #ffffff; stroke-linejoin: miter"/>
   </g>
   <g id="patch_35">
    <path d="M 556.81575 402.39275 
L 568.71175 402.39275 
L 568.71175 402.39275 
L 556.81575 402.39275 
z
" clip-path="url(#p6eabe89bd7)" style="fill: #001c7f; fill-opacity: 0.6; stroke: #ffffff; stroke-linejoin: miter"/>
   </g>
   <g id="patch_36">
    <path d="M 568.71175 402.39275 
L 580.60775 402.39275 
L 580.60775 126.750756 
L 568.71175 126.750756 
z
" clip-path="url(#p6eabe89bd7)" style="fill: #001c7f; fill-opacity: 0.6; stroke: #ffffff; stroke-linejoin: miter"/>
   </g>
   <g id="patch_37">
    <path d="M 580.60775 402.39275 
L 592.50375 402.39275 
L 592.50375 402.39275 
L 580.60775 402.39275 
z
" clip-path="url(#p6eabe89bd7)" style="fill: #001c7f; fill-opacity: 0.6; stroke: #ffffff; stroke-linejoin: miter"/>
   </g>
   <g id="patch_38">
    <path d="M 592.50375 402.39275 
L 604.39975 402.39275 
L 604.39975 402.39275 
L 592.50375 402.39275 
z
" clip-path="url(#p6eabe89bd7)" style="fill: #001c7f; fill-opacity: 0.6; stroke: #ffffff; stroke-linejoin: miter"/>
   </g>
   <g id="patch_39">
    <path d="M 604.39975 402.39275 
L 616.29575 402.39275 
L 616.29575 402.39275 
L 604.39975 402.39275 
z
" clip-path="url(#p6eabe89bd7)" style="fill: #001c7f; fill-opacity: 0.6; stroke: #ffffff; stroke-linejoin: miter"/>
   </g>
   <g id="patch_40">
    <path d="M 616.29575 402.39275 
L 628.19175 402.39275 
L 628.19175 402.39275 
L 616.29575 402.39275 
z
" clip-path="url(#p6eabe89bd7)" style="fill: #001c7f; fill-opacity: 0.6; stroke: #ffffff; stroke-linejoin: miter"/>
   </g>
   <g id="patch_41">
    <path d="M 628.19175 402.39275 
L 640.08775 402.39275 
L 640.08775 258.415611 
L 628.19175 258.415611 
z
" clip-path="url(#p6eabe89bd7)" style="fill: #001c7f; fill-opacity: 0.6; stroke: #ffffff; stroke-linejoin: miter"/>
   </g>
   <g id="patch_42">
    <path d="M 640.08775 402.39275 
L 651.98375 402.39275 
L 651.98375 402.39275 
L 640.08775 402.39275 
z
" clip-path="url(#p6eabe89bd7)" style="fill: #001c7f; fill-opacity: 0.6; stroke: #ffffff; stroke-linejoin: miter"/>
   </g>
   <g id="patch_43">
    <path d="M 651.98375 402.39275 
L 663.87975 402.39275 
L 663.87975 402.39275 
L 651.98375 402.39275 
z
" clip-path="url(#p6eabe89bd7)" style="fill: #001c7f; fill-opacity: 0.6; stroke: #ffffff; stroke-linejoin: miter"/>
   </g>
   <g id="patch_44">
    <path d="M 663.87975 402.39275 
L 675.77575 402.39275 
L 675.77575 402.39275 
L 663.87975 402.39275 
z
" clip-path="url(#p6eabe89bd7)" style="fill: #001c7f; fill-opacity: 0.6; stroke: #ffffff; stroke-linejoin: miter"/>
   </g>
   <g id="patch_45">
    <path d="M 675.77575 402.39275 
L 687.67175 402.39275 
L 687.67175 402.39275 
L 675.77575 402.39275 
z
" clip-path="url(#p6eabe89bd7)" style="fill: #001c7f; fill-opacity: 0.6; stroke: #ffffff; stroke-linejoin: miter"/>
   </g>
   <g id="patch_46">
    <path d="M 687.67175 402.39275 
L 699.56775 402.39275 
L 699.56775 402.39275 
L 687.67175 402.39275 
z
" clip-path="url(#p6eabe89bd7)" style="fill: #001c7f; fill-opacity: 0.6; stroke: #ffffff; stroke-linejoin: miter"/>
   </g>
   <g id="patch_47">
    <path d="M 699.56775 402.39275 
L 711.46375 402.39275 
L 711.46375 355.323301 
L 699.56775 355.323301 
z
" clip-path="url(#p6eabe89bd7)" style="fill: #001c7f; fill-opacity: 0.6; stroke: #ffffff; stroke-linejoin: miter"/>
   </g>
   <g id="patch_48">
    <path d="M 711.46375 402.39275 
L 723.35975 402.39275 
L 723.35975 402.39275 
L 711.46375 402.39275 
z
" clip-path="url(#p6eabe89bd7)" style="fill: #001c7f; fill-opacity: 0.6; stroke: #ffffff; stroke-linejoin: miter"/>
   </g>
   <g id="patch_49">
    <path d="M 723.35975 402.39275 
L 735.25575 402.39275 
L 735.25575 402.39275 
L 723.35975 402.39275 
z
" clip-path="url(#p6eabe89bd7)" style="fill: #001c7f; fill-opacity: 0.6; stroke: #ffffff; stroke-linejoin: miter"/>
   </g>
   <g id="patch_50">
    <path d="M 735.25575 402.39275 
L 747.15175 402.39275 
L 747.15175 402.39275 
L 735.25575 402.39275 
z
" clip-path="url(#p6eabe89bd7)" style="fill: #001c7f; fill-opacity: 0.6; stroke: #ffffff; stroke-linejoin: miter"/>
   </g>
   <g id="patch_51">
    <path d="M 747.15175 402.39275 
L 759.04775 402.39275 
L 759.04775 402.39275 
L 747.15175 402.39275 
z
" clip-path="url(#p6eabe89bd7)" style="fill: #001c7f; fill-opacity: 0.6; stroke: #ffffff; stroke-linejoin: miter"/>
   </g>
   <g id="patch_52">
    <path d="M 759.04775 402.39275 
L 770.94375 402.39275 
L 770.94375 387.193854 
L 759.04775 387.193854 
z
" clip-path="url(#p6eabe89bd7)" style="fill: #001c7f; fill-opacity: 0.6; stroke: #ffffff; stroke-linejoin: miter"/>
   </g>
   <g id="line2d_13">
    <path d="M 176.14375 401.002724 
L 182.121639 401.11497 
L 203.044253 401.937974 
L 209.022142 401.706142 
L 212.011087 401.415212 
L 215.000031 400.980311 
L 217.988976 400.388116 
L 220.977921 399.638769 
L 226.95581 397.774697 
L 232.9337 395.841996 
L 235.922644 395.071912 
L 238.911589 394.551994 
L 241.900534 394.344837 
L 244.889479 394.475783 
L 247.878423 394.927415 
L 250.867368 395.642442 
L 256.845258 397.499241 
L 259.834202 398.434567 
L 262.823147 399.244329 
L 265.812092 399.845171 
L 268.801036 400.163594 
L 271.789981 400.130061 
L 274.778926 399.673511 
L 277.767871 398.720668 
L 280.756815 397.203584 
L 283.74576 395.076524 
L 286.734705 392.340016 
L 289.723649 389.066335 
L 298.690484 378.094436 
L 301.679428 375.110499 
L 304.668373 373.035203 
L 307.657318 372.117807 
L 310.646263 372.471685 
L 313.635207 374.050746 
L 316.624152 376.657689 
L 319.613097 379.981228 
L 325.590986 387.295602 
L 328.579931 390.585978 
L 331.568876 393.259969 
L 334.55782 395.121526 
L 337.546765 396.023849 
L 340.53571 395.846798 
L 343.524655 394.481509 
L 346.513599 391.832567 
L 349.502544 387.842333 
L 352.491489 382.534174 
L 355.480433 376.063164 
L 358.469378 368.756718 
L 361.458323 361.1261 
L 364.447268 353.834536 
L 367.436212 347.618767 
L 370.425157 343.175419 
L 373.414102 341.036947 
L 376.403046 341.468561 
L 379.391991 344.414255 
L 382.380936 349.506991 
L 385.369881 356.13957 
L 391.34777 371.068224 
L 394.336715 377.960538 
L 397.32566 383.73983 
L 400.314604 388.047645 
L 403.303549 390.651006 
L 406.292494 391.396432 
L 409.281438 390.170071 
L 412.270383 386.883651 
L 415.259328 381.496385 
L 418.248273 374.070008 
L 421.237217 364.840879 
L 424.226162 354.282988 
L 430.204052 332.351068 
L 433.192996 323.019516 
L 436.181941 316.177572 
L 439.170886 312.642414 
L 442.15983 312.852739 
L 445.148775 316.780671 
L 448.13772 323.936452 
L 451.126665 333.46414 
L 460.093499 365.647926 
L 463.082443 374.430333 
L 466.071388 381.179037 
L 469.060333 385.575686 
L 472.049278 387.437851 
L 475.038222 386.655132 
L 478.027167 383.156071 
L 481.016112 376.922051 
L 484.005057 368.047156 
L 486.994001 356.825266 
L 489.982946 343.831932 
L 495.960835 316.401437 
L 498.94978 304.492395 
L 501.938725 295.553393 
L 504.92767 290.647426 
L 507.916614 290.383013 
L 510.905559 294.793431 
L 513.894504 303.329995 
L 516.883448 314.971323 
L 525.850283 355.454402 
L 528.839227 366.906354 
L 531.828172 376.059435 
L 534.817117 382.591667 
L 537.806062 386.39079 
L 540.795006 387.46598 
L 543.783951 385.883806 
L 546.772896 381.748954 
L 549.76184 375.232755 
L 552.750785 366.635081 
L 555.73973 356.45193 
L 561.717619 334.478949 
L 564.706564 324.730389 
L 567.695509 317.247494 
L 570.684454 312.919782 
L 573.673398 312.285166 
L 576.662343 315.42532 
L 579.651288 321.950399 
L 582.640232 331.078098 
L 585.629177 341.784841 
L 588.618122 352.987792 
L 591.607067 363.711471 
L 594.596011 373.202671 
L 597.584956 380.976943 
L 600.573901 386.801412 
L 603.562845 390.635005 
L 606.55179 392.554271 
L 609.540735 392.690735 
L 612.52968 391.196683 
L 615.518624 388.244082 
L 618.507569 384.049563 
L 621.496514 378.909684 
L 627.474403 367.509227 
L 630.463348 362.333181 
L 633.452293 358.273894 
L 636.441237 355.815284 
L 639.430182 355.264138 
L 642.419127 356.691995 
L 645.408072 359.922183 
L 648.397016 364.566413 
L 651.385961 370.100973 
L 657.363851 381.634292 
L 660.352795 386.717995 
L 663.34174 390.956082 
L 666.330685 394.230676 
L 669.319629 396.533823 
L 672.308574 397.92807 
L 675.297519 398.509859 
L 678.286464 398.384805 
L 681.275408 397.658179 
L 684.264353 396.438567 
L 687.253298 394.848744 
L 696.220132 389.462875 
L 699.209077 388.090456 
L 702.198021 387.224025 
L 705.186966 386.972626 
L 708.175911 387.369253 
L 711.164856 388.365111 
L 714.1538 389.840017 
L 720.13169 393.539326 
L 723.120634 395.408047 
L 726.109579 397.096692 
L 729.098524 398.516051 
L 732.087469 399.62301 
L 735.076413 400.411741 
L 738.065358 400.900951 
L 741.054303 401.121627 
L 744.043247 401.108392 
L 747.032192 400.895805 
L 750.021137 400.519101 
L 755.999026 399.437995 
L 761.976916 398.2747 
L 764.965861 397.816481 
L 767.954805 397.516445 
L 770.94375 397.412229 
L 770.94375 397.412229 
" clip-path="url(#p6eabe89bd7)" style="fill: none; stroke: #001c7f; stroke-width: 1.5; stroke-linecap: round"/>
   </g>
   <g id="patch_53">
    <path d="M 146.40375 402.39275 
L 800.68375 402.39275 
" style="fill: none; stroke: #cccccc; stroke-width: 0.8; stroke-linejoin: miter; stroke-linecap: square"/>
   </g>
   <g id="text_14">
    <!-- 72 -->
    <g transform="translate(178.755187 394.702291) scale(0.06 -0.06)">
     <defs>
      <path id="ArialMT-37" d="M 303 3981 
L 303 4522 
L 3269 4522 
L 3269 4084 
Q 2831 3619 2401 2847 
Q 1972 2075 1738 1259 
Q 1569 684 1522 0 
L 944 0 
Q 953 541 1156 1306 
Q 1359 2072 1739 2783 
Q 2119 3494 2547 3981 
L 303 3981 
z
" transform="scale(0.015625)"/>
     </defs>
     <use xlink:href="#ArialMT-37"/>
     <use xlink:href="#ArialMT-32" transform="translate(55.615234 0)"/>
    </g>
   </g>
   <g id="text_15">
    <!-- 0 -->
    <g transform="translate(192.319469 398.943844) scale(0.06 -0.06)">
     <use xlink:href="#ArialMT-30"/>
    </g>
   </g>
   <g id="text_16">
    <!-- 0 -->
    <g transform="translate(204.215469 398.943844) scale(0.06 -0.06)">
     <use xlink:href="#ArialMT-30"/>
    </g>
   </g>
   <g id="text_17">
    <!-- 0 -->
    <g transform="translate(216.111469 398.943844) scale(0.06 -0.06)">
     <use xlink:href="#ArialMT-30"/>
    </g>
   </g>
   <g id="text_18">
    <!-- 0 -->
    <g transform="translate(228.007469 398.943844) scale(0.06 -0.06)">
     <use xlink:href="#ArialMT-30"/>
    </g>
   </g>
   <g id="text_19">
    <!-- 417 -->
    <g transform="translate(236.566906 374.378186) scale(0.06 -0.06)">
     <use xlink:href="#ArialMT-34"/>
     <use xlink:href="#ArialMT-31" transform="translate(55.615234 0)"/>
     <use xlink:href="#ArialMT-37" transform="translate(111.230469 0)"/>
    </g>
   </g>
   <g id="text_20">
    <!-- 0 -->
    <g transform="translate(251.799469 398.943844) scale(0.06 -0.06)">
     <use xlink:href="#ArialMT-30"/>
    </g>
   </g>
   <g id="text_21">
    <!-- 0 -->
    <g transform="translate(263.695469 398.943844) scale(0.06 -0.06)">
     <use xlink:href="#ArialMT-30"/>
    </g>
   </g>
   <g id="text_22">
    <!-- 0 -->
    <g transform="translate(275.591469 398.943844) scale(0.06 -0.06)">
     <use xlink:href="#ArialMT-30"/>
    </g>
   </g>
   <g id="text_23">
    <!-- 0 -->
    <g transform="translate(287.487469 398.943844) scale(0.06 -0.06)">
     <use xlink:href="#ArialMT-30"/>
    </g>
   </g>
   <g id="text_24">
    <!-- 0 -->
    <g transform="translate(299.383469 398.943844) scale(0.06 -0.06)">
     <use xlink:href="#ArialMT-30"/>
    </g>
   </g>
   <g id="text_25">
    <!-- 1570 -->
    <g transform="translate(306.274625 306.454438) scale(0.06 -0.06)">
     <use xlink:href="#ArialMT-31"/>
     <use xlink:href="#ArialMT-35" transform="translate(55.615234 0)"/>
     <use xlink:href="#ArialMT-37" transform="translate(111.230469 0)"/>
     <use xlink:href="#ArialMT-30" transform="translate(166.845703 0)"/>
    </g>
   </g>
   <g id="text_26">
    <!-- 0 -->
    <g transform="translate(323.175469 398.943844) scale(0.06 -0.06)">
     <use xlink:href="#ArialMT-30"/>
    </g>
   </g>
   <g id="text_27">
    <!-- 0 -->
    <g transform="translate(335.071469 398.943844) scale(0.06 -0.06)">
     <use xlink:href="#ArialMT-30"/>
    </g>
   </g>
   <g id="text_28">
    <!-- 0 -->
    <g transform="translate(346.967469 398.943844) scale(0.06 -0.06)">
     <use xlink:href="#ArialMT-30"/>
    </g>
   </g>
   <g id="text_29">
    <!-- 0 -->
    <g transform="translate(358.863469 398.943844) scale(0.06 -0.06)">
     <use xlink:href="#ArialMT-30"/>
    </g>
   </g>
   <g id="text_30">
    <!-- 3186 -->
    <g transform="translate(365.754625 211.255151) scale(0.06 -0.06)">
     <use xlink:href="#ArialMT-33"/>
     <use xlink:href="#ArialMT-31" transform="translate(55.615234 0)"/>
     <use xlink:href="#ArialMT-38" transform="translate(111.230469 0)"/>
     <use xlink:href="#ArialMT-36" transform="translate(166.845703 0)"/>
    </g>
   </g>
   <g id="text_31">
    <!-- 0 -->
    <g transform="translate(382.655469 398.943844) scale(0.06 -0.06)">
     <use xlink:href="#ArialMT-30"/>
    </g>
   </g>
   <g id="text_32">
    <!-- 0 -->
    <g transform="translate(394.551469 398.943844) scale(0.06 -0.06)">
     <use xlink:href="#ArialMT-30"/>
    </g>
   </g>
   <g id="text_33">
    <!-- 0 -->
    <g transform="translate(406.447469 398.943844) scale(0.06 -0.06)">
     <use xlink:href="#ArialMT-30"/>
    </g>
   </g>
   <g id="text_34">
    <!-- 0 -->
    <g transform="translate(418.343469 398.943844) scale(0.06 -0.06)">
     <use xlink:href="#ArialMT-30"/>
    </g>
   </g>
   <g id="text_35">
    <!-- 0 -->
    <g transform="translate(430.239469 398.943844) scale(0.06 -0.06)">
     <use xlink:href="#ArialMT-30"/>
    </g>
   </g>
   <g id="text_36">
    <!-- 4669 -->
    <g transform="translate(437.130625 123.890954) scale(0.06 -0.06)">
     <defs>
      <path id="ArialMT-39" d="M 350 1059 
L 891 1109 
Q 959 728 1153 556 
Q 1347 384 1650 384 
Q 1909 384 2104 503 
Q 2300 622 2425 820 
Q 2550 1019 2634 1356 
Q 2719 1694 2719 2044 
Q 2719 2081 2716 2156 
Q 2547 1888 2255 1720 
Q 1963 1553 1622 1553 
Q 1053 1553 659 1965 
Q 266 2378 266 3053 
Q 266 3750 677 4175 
Q 1088 4600 1706 4600 
Q 2153 4600 2523 4359 
Q 2894 4119 3086 3673 
Q 3278 3228 3278 2384 
Q 3278 1506 3087 986 
Q 2897 466 2520 194 
Q 2144 -78 1638 -78 
Q 1100 -78 759 220 
Q 419 519 350 1059 
z
M 2653 3081 
Q 2653 3566 2395 3850 
Q 2138 4134 1775 4134 
Q 1400 4134 1122 3828 
Q 844 3522 844 3034 
Q 844 2597 1108 2323 
Q 1372 2050 1759 2050 
Q 2150 2050 2401 2323 
Q 2653 2597 2653 3081 
z
" transform="scale(0.015625)"/>
     </defs>
     <use xlink:href="#ArialMT-34"/>
     <use xlink:href="#ArialMT-36" transform="translate(55.615234 0)"/>
     <use xlink:href="#ArialMT-36" transform="translate(111.230469 0)"/>
     <use xlink:href="#ArialMT-39" transform="translate(166.845703 0)"/>
    </g>
   </g>
   <g id="text_37">
    <!-- 0 -->
    <g transform="translate(454.031469 398.943844) scale(0.06 -0.06)">
     <use xlink:href="#ArialMT-30"/>
    </g>
   </g>
   <g id="text_38">
    <!-- 0 -->
    <g transform="translate(465.927469 398.943844) scale(0.06 -0.06)">
     <use xlink:href="#ArialMT-30"/>
    </g>
   </g>
   <g id="text_39">
    <!-- 0 -->
    <g transform="translate(477.823469 398.943844) scale(0.06 -0.06)">
     <use xlink:href="#ArialMT-30"/>
    </g>
   </g>
   <g id="text_40">
    <!-- 0 -->
    <g transform="translate(489.719469 398.943844) scale(0.06 -0.06)">
     <use xlink:href="#ArialMT-30"/>
    </g>
   </g>
   <g id="text_41">
    <!-- 5827 -->
    <g transform="translate(496.610625 55.672653) scale(0.06 -0.06)">
     <use xlink:href="#ArialMT-35"/>
     <use xlink:href="#ArialMT-38" transform="translate(55.615234 0)"/>
     <use xlink:href="#ArialMT-32" transform="translate(111.230469 0)"/>
     <use xlink:href="#ArialMT-37" transform="translate(166.845703 0)"/>
    </g>
   </g>
   <g id="text_42">
    <!-- 0 -->
    <g transform="translate(513.511469 398.943844) scale(0.06 -0.06)">
     <use xlink:href="#ArialMT-30"/>
    </g>
   </g>
   <g id="text_43">
    <!-- 0 -->
    <g transform="translate(525.407469 398.943844) scale(0.06 -0.06)">
     <use xlink:href="#ArialMT-30"/>
    </g>
   </g>
   <g id="text_44">
    <!-- 0 -->
    <g transform="translate(537.303469 398.943844) scale(0.06 -0.06)">
     <use xlink:href="#ArialMT-30"/>
    </g>
   </g>
   <g id="text_45">
    <!-- 0 -->
    <g transform="translate(549.199469 398.943844) scale(0.06 -0.06)">
     <use xlink:href="#ArialMT-30"/>
    </g>
   </g>
   <g id="text_46">
    <!-- 0 -->
    <g transform="translate(561.095469 398.943844) scale(0.06 -0.06)">
     <use xlink:href="#ArialMT-30"/>
    </g>
   </g>
   <g id="text_47">
    <!-- 4679 -->
    <g transform="translate(567.986625 123.30185) scale(0.06 -0.06)">
     <use xlink:href="#ArialMT-34"/>
     <use xlink:href="#ArialMT-36" transform="translate(55.615234 0)"/>
     <use xlink:href="#ArialMT-37" transform="translate(111.230469 0)"/>
     <use xlink:href="#ArialMT-39" transform="translate(166.845703 0)"/>
    </g>
   </g>
   <g id="text_48">
    <!-- 0 -->
    <g transform="translate(584.887469 398.943844) scale(0.06 -0.06)">
     <use xlink:href="#ArialMT-30"/>
    </g>
   </g>
   <g id="text_49">
    <!-- 0 -->
    <g transform="translate(596.783469 398.943844) scale(0.06 -0.06)">
     <use xlink:href="#ArialMT-30"/>
    </g>
   </g>
   <g id="text_50">
    <!-- 0 -->
    <g transform="translate(608.679469 398.943844) scale(0.06 -0.06)">
     <use xlink:href="#ArialMT-30"/>
    </g>
   </g>
   <g id="text_51">
    <!-- 0 -->
    <g transform="translate(620.575469 398.943844) scale(0.06 -0.06)">
     <use xlink:href="#ArialMT-30"/>
    </g>
   </g>
   <g id="text_52">
    <!-- 2444 -->
    <g transform="translate(627.466625 254.966705) scale(0.06 -0.06)">
     <use xlink:href="#ArialMT-32"/>
     <use xlink:href="#ArialMT-34" transform="translate(55.615234 0)"/>
     <use xlink:href="#ArialMT-34" transform="translate(111.230469 0)"/>
     <use xlink:href="#ArialMT-34" transform="translate(166.845703 0)"/>
    </g>
   </g>
   <g id="text_53">
    <!-- 0 -->
    <g transform="translate(644.367469 398.943844) scale(0.06 -0.06)">
     <use xlink:href="#ArialMT-30"/>
    </g>
   </g>
   <g id="text_54">
    <!-- 0 -->
    <g transform="translate(656.263469 398.943844) scale(0.06 -0.06)">
     <use xlink:href="#ArialMT-30"/>
    </g>
   </g>
   <g id="text_55">
    <!-- 0 -->
    <g transform="translate(668.159469 398.943844) scale(0.06 -0.06)">
     <use xlink:href="#ArialMT-30"/>
    </g>
   </g>
   <g id="text_56">
    <!-- 0 -->
    <g transform="translate(680.055469 398.943844) scale(0.06 -0.06)">
     <use xlink:href="#ArialMT-30"/>
    </g>
   </g>
   <g id="text_57">
    <!-- 0 -->
    <g transform="translate(691.951469 398.943844) scale(0.06 -0.06)">
     <use xlink:href="#ArialMT-30"/>
    </g>
   </g>
   <g id="text_58">
    <!-- 799 -->
    <g transform="translate(700.510906 351.874394) scale(0.06 -0.06)">
     <use xlink:href="#ArialMT-37"/>
     <use xlink:href="#ArialMT-39" transform="translate(55.615234 0)"/>
     <use xlink:href="#ArialMT-39" transform="translate(111.230469 0)"/>
    </g>
   </g>
   <g id="text_59">
    <!-- 0 -->
    <g transform="translate(715.743469 398.943844) scale(0.06 -0.06)">
     <use xlink:href="#ArialMT-30"/>
    </g>
   </g>
   <g id="text_60">
    <!-- 0 -->
    <g transform="translate(727.639469 398.943844) scale(0.06 -0.06)">
     <use xlink:href="#ArialMT-30"/>
    </g>
   </g>
   <g id="text_61">
    <!-- 0 -->
    <g transform="translate(739.535469 398.943844) scale(0.06 -0.06)">
     <use xlink:href="#ArialMT-30"/>
    </g>
   </g>
   <g id="text_62">
    <!-- 0 -->
    <g transform="translate(751.431469 398.943844) scale(0.06 -0.06)">
     <use xlink:href="#ArialMT-30"/>
    </g>
   </g>
   <g id="text_63">
    <!-- 258 -->
    <g transform="translate(759.990906 383.744948) scale(0.06 -0.06)">
     <use xlink:href="#ArialMT-32"/>
     <use xlink:href="#ArialMT-35" transform="translate(55.615234 0)"/>
     <use xlink:href="#ArialMT-38" transform="translate(111.230469 0)"/>
    </g>
   </g>
   <g id="text_64">
    <!-- Le voy a mostrar unas figuras corporales, por favor, dígame qué figura siente que más se parece a usted en este momento -->
    <g style="fill: #262626" transform="translate(7.2 18.8475) scale(0.16 -0.16)">
     <defs>
      <path id="Arial-BoldMT-4c" d="M 491 0 
L 491 4544 
L 1416 4544 
L 1416 772 
L 3716 772 
L 3716 0 
L 491 0 
z
" transform="scale(0.015625)"/>
      <path id="Arial-BoldMT-65" d="M 2381 1056 
L 3256 909 
Q 3088 428 2723 176 
Q 2359 -75 1813 -75 
Q 947 -75 531 491 
Q 203 944 203 1634 
Q 203 2459 634 2926 
Q 1066 3394 1725 3394 
Q 2466 3394 2894 2905 
Q 3322 2416 3303 1406 
L 1103 1406 
Q 1113 1016 1316 798 
Q 1519 581 1822 581 
Q 2028 581 2168 693 
Q 2309 806 2381 1056 
z
M 2431 1944 
Q 2422 2325 2234 2523 
Q 2047 2722 1778 2722 
Q 1491 2722 1303 2513 
Q 1116 2303 1119 1944 
L 2431 1944 
z
" transform="scale(0.015625)"/>
      <path id="Arial-BoldMT-20" transform="scale(0.015625)"/>
      <path id="Arial-BoldMT-76" d="M 1372 0 
L 34 3319 
L 956 3319 
L 1581 1625 
L 1763 1059 
Q 1834 1275 1853 1344 
Q 1897 1484 1947 1625 
L 2578 3319 
L 3481 3319 
L 2163 0 
L 1372 0 
z
" transform="scale(0.015625)"/>
      <path id="Arial-BoldMT-6f" d="M 256 1706 
Q 256 2144 472 2553 
Q 688 2963 1083 3178 
Q 1478 3394 1966 3394 
Q 2719 3394 3200 2905 
Q 3681 2416 3681 1669 
Q 3681 916 3195 420 
Q 2709 -75 1972 -75 
Q 1516 -75 1102 131 
Q 688 338 472 736 
Q 256 1134 256 1706 
z
M 1156 1659 
Q 1156 1166 1390 903 
Q 1625 641 1969 641 
Q 2313 641 2545 903 
Q 2778 1166 2778 1666 
Q 2778 2153 2545 2415 
Q 2313 2678 1969 2678 
Q 1625 2678 1390 2415 
Q 1156 2153 1156 1659 
z
" transform="scale(0.015625)"/>
      <path id="Arial-BoldMT-79" d="M 44 3319 
L 978 3319 
L 1772 963 
L 2547 3319 
L 3456 3319 
L 2284 125 
L 2075 -453 
Q 1959 -744 1854 -897 
Q 1750 -1050 1614 -1145 
Q 1478 -1241 1279 -1294 
Q 1081 -1347 831 -1347 
Q 578 -1347 334 -1294 
L 256 -606 
Q 463 -647 628 -647 
Q 934 -647 1081 -467 
Q 1228 -288 1306 -9 
L 44 3319 
z
" transform="scale(0.015625)"/>
      <path id="Arial-BoldMT-61" d="M 1116 2306 
L 319 2450 
Q 453 2931 781 3162 
Q 1109 3394 1756 3394 
Q 2344 3394 2631 3255 
Q 2919 3116 3036 2902 
Q 3153 2688 3153 2116 
L 3144 1091 
Q 3144 653 3186 445 
Q 3228 238 3344 0 
L 2475 0 
Q 2441 88 2391 259 
Q 2369 338 2359 363 
Q 2134 144 1878 34 
Q 1622 -75 1331 -75 
Q 819 -75 523 203 
Q 228 481 228 906 
Q 228 1188 362 1408 
Q 497 1628 739 1745 
Q 981 1863 1438 1950 
Q 2053 2066 2291 2166 
L 2291 2253 
Q 2291 2506 2166 2614 
Q 2041 2722 1694 2722 
Q 1459 2722 1328 2630 
Q 1197 2538 1116 2306 
z
M 2291 1594 
Q 2122 1538 1756 1459 
Q 1391 1381 1278 1306 
Q 1106 1184 1106 997 
Q 1106 813 1243 678 
Q 1381 544 1594 544 
Q 1831 544 2047 700 
Q 2206 819 2256 991 
Q 2291 1103 2291 1419 
L 2291 1594 
z
" transform="scale(0.015625)"/>
      <path id="Arial-BoldMT-6d" d="M 394 3319 
L 1203 3319 
L 1203 2866 
Q 1638 3394 2238 3394 
Q 2556 3394 2790 3262 
Q 3025 3131 3175 2866 
Q 3394 3131 3647 3262 
Q 3900 3394 4188 3394 
Q 4553 3394 4806 3245 
Q 5059 3097 5184 2809 
Q 5275 2597 5275 2122 
L 5275 0 
L 4397 0 
L 4397 1897 
Q 4397 2391 4306 2534 
Q 4184 2722 3931 2722 
Q 3747 2722 3584 2609 
Q 3422 2497 3350 2280 
Q 3278 2063 3278 1594 
L 3278 0 
L 2400 0 
L 2400 1819 
Q 2400 2303 2353 2443 
Q 2306 2584 2207 2653 
Q 2109 2722 1941 2722 
Q 1738 2722 1575 2612 
Q 1413 2503 1342 2297 
Q 1272 2091 1272 1613 
L 1272 0 
L 394 0 
L 394 3319 
z
" transform="scale(0.015625)"/>
      <path id="Arial-BoldMT-73" d="M 150 947 
L 1031 1081 
Q 1088 825 1259 692 
Q 1431 559 1741 559 
Q 2081 559 2253 684 
Q 2369 772 2369 919 
Q 2369 1019 2306 1084 
Q 2241 1147 2013 1200 
Q 950 1434 666 1628 
Q 272 1897 272 2375 
Q 272 2806 612 3100 
Q 953 3394 1669 3394 
Q 2350 3394 2681 3172 
Q 3013 2950 3138 2516 
L 2309 2363 
Q 2256 2556 2107 2659 
Q 1959 2763 1684 2763 
Q 1338 2763 1188 2666 
Q 1088 2597 1088 2488 
Q 1088 2394 1175 2328 
Q 1294 2241 1995 2081 
Q 2697 1922 2975 1691 
Q 3250 1456 3250 1038 
Q 3250 581 2869 253 
Q 2488 -75 1741 -75 
Q 1063 -75 667 200 
Q 272 475 150 947 
z
" transform="scale(0.015625)"/>
      <path id="Arial-BoldMT-74" d="M 1981 3319 
L 1981 2619 
L 1381 2619 
L 1381 1281 
Q 1381 875 1398 808 
Q 1416 741 1477 697 
Q 1538 653 1625 653 
Q 1747 653 1978 738 
L 2053 56 
Q 1747 -75 1359 -75 
Q 1122 -75 931 4 
Q 741 84 652 211 
Q 563 338 528 553 
Q 500 706 500 1172 
L 500 2619 
L 97 2619 
L 97 3319 
L 500 3319 
L 500 3978 
L 1381 4491 
L 1381 3319 
L 1981 3319 
z
" transform="scale(0.015625)"/>
      <path id="Arial-BoldMT-72" d="M 1300 0 
L 422 0 
L 422 3319 
L 1238 3319 
L 1238 2847 
Q 1447 3181 1614 3287 
Q 1781 3394 1994 3394 
Q 2294 3394 2572 3228 
L 2300 2463 
Q 2078 2606 1888 2606 
Q 1703 2606 1575 2504 
Q 1447 2403 1373 2137 
Q 1300 1872 1300 1025 
L 1300 0 
z
" transform="scale(0.015625)"/>
      <path id="Arial-BoldMT-75" d="M 2644 0 
L 2644 497 
Q 2463 231 2167 78 
Q 1872 -75 1544 -75 
Q 1209 -75 943 72 
Q 678 219 559 484 
Q 441 750 441 1219 
L 441 3319 
L 1319 3319 
L 1319 1794 
Q 1319 1094 1367 936 
Q 1416 778 1544 686 
Q 1672 594 1869 594 
Q 2094 594 2272 717 
Q 2450 841 2515 1023 
Q 2581 1206 2581 1919 
L 2581 3319 
L 3459 3319 
L 3459 0 
L 2644 0 
z
" transform="scale(0.015625)"/>
      <path id="Arial-BoldMT-6e" d="M 3478 0 
L 2600 0 
L 2600 1694 
Q 2600 2231 2544 2389 
Q 2488 2547 2361 2634 
Q 2234 2722 2056 2722 
Q 1828 2722 1647 2597 
Q 1466 2472 1398 2265 
Q 1331 2059 1331 1503 
L 1331 0 
L 453 0 
L 453 3319 
L 1269 3319 
L 1269 2831 
Q 1703 3394 2363 3394 
Q 2653 3394 2893 3289 
Q 3134 3184 3257 3021 
Q 3381 2859 3429 2653 
Q 3478 2447 3478 2063 
L 3478 0 
z
" transform="scale(0.015625)"/>
      <path id="Arial-BoldMT-66" d="M 75 3319 
L 563 3319 
L 563 3569 
Q 563 3988 652 4194 
Q 741 4400 980 4529 
Q 1219 4659 1584 4659 
Q 1959 4659 2319 4547 
L 2200 3934 
Q 1991 3984 1797 3984 
Q 1606 3984 1523 3895 
Q 1441 3806 1441 3553 
L 1441 3319 
L 2097 3319 
L 2097 2628 
L 1441 2628 
L 1441 0 
L 563 0 
L 563 2628 
L 75 2628 
L 75 3319 
z
" transform="scale(0.015625)"/>
      <path id="Arial-BoldMT-69" d="M 459 3769 
L 459 4581 
L 1338 4581 
L 1338 3769 
L 459 3769 
z
M 459 0 
L 459 3319 
L 1338 3319 
L 1338 0 
L 459 0 
z
" transform="scale(0.015625)"/>
      <path id="Arial-BoldMT-67" d="M 378 -219 
L 1381 -341 
Q 1406 -516 1497 -581 
Q 1622 -675 1891 -675 
Q 2234 -675 2406 -572 
Q 2522 -503 2581 -350 
Q 2622 -241 2622 53 
L 2622 538 
Q 2228 0 1628 0 
Q 959 0 569 566 
Q 263 1013 263 1678 
Q 263 2513 664 2953 
Q 1066 3394 1663 3394 
Q 2278 3394 2678 2853 
L 2678 3319 
L 3500 3319 
L 3500 341 
Q 3500 -247 3403 -537 
Q 3306 -828 3131 -993 
Q 2956 -1159 2664 -1253 
Q 2372 -1347 1925 -1347 
Q 1081 -1347 728 -1058 
Q 375 -769 375 -325 
Q 375 -281 378 -219 
z
M 1163 1728 
Q 1163 1200 1367 954 
Q 1572 709 1872 709 
Q 2194 709 2416 961 
Q 2638 1213 2638 1706 
Q 2638 2222 2425 2472 
Q 2213 2722 1888 2722 
Q 1572 2722 1367 2476 
Q 1163 2231 1163 1728 
z
" transform="scale(0.015625)"/>
      <path id="Arial-BoldMT-63" d="M 3353 2338 
L 2488 2181 
Q 2444 2441 2289 2572 
Q 2134 2703 1888 2703 
Q 1559 2703 1364 2476 
Q 1169 2250 1169 1719 
Q 1169 1128 1367 884 
Q 1566 641 1900 641 
Q 2150 641 2309 783 
Q 2469 925 2534 1272 
L 3397 1125 
Q 3263 531 2881 228 
Q 2500 -75 1859 -75 
Q 1131 -75 698 384 
Q 266 844 266 1656 
Q 266 2478 700 2936 
Q 1134 3394 1875 3394 
Q 2481 3394 2839 3133 
Q 3197 2872 3353 2338 
z
" transform="scale(0.015625)"/>
      <path id="Arial-BoldMT-70" d="M 434 3319 
L 1253 3319 
L 1253 2831 
Q 1413 3081 1684 3237 
Q 1956 3394 2288 3394 
Q 2866 3394 3269 2941 
Q 3672 2488 3672 1678 
Q 3672 847 3265 386 
Q 2859 -75 2281 -75 
Q 2006 -75 1782 34 
Q 1559 144 1313 409 
L 1313 -1263 
L 434 -1263 
L 434 3319 
z
M 1303 1716 
Q 1303 1156 1525 889 
Q 1747 622 2066 622 
Q 2372 622 2575 867 
Q 2778 1113 2778 1672 
Q 2778 2194 2568 2447 
Q 2359 2700 2050 2700 
Q 1728 2700 1515 2451 
Q 1303 2203 1303 1716 
z
" transform="scale(0.015625)"/>
      <path id="Arial-BoldMT-6c" d="M 459 0 
L 459 4581 
L 1338 4581 
L 1338 0 
L 459 0 
z
" transform="scale(0.015625)"/>
      <path id="Arial-BoldMT-2c" d="M 438 878 
L 1316 878 
L 1316 250 
Q 1316 -131 1250 -351 
Q 1184 -572 1001 -747 
Q 819 -922 538 -1022 
L 366 -659 
Q 631 -572 743 -419 
Q 856 -266 863 0 
L 438 0 
L 438 878 
z
" transform="scale(0.015625)"/>
      <path id="Arial-BoldMT-64" d="M 3503 0 
L 2688 0 
L 2688 488 
Q 2484 203 2207 64 
Q 1931 -75 1650 -75 
Q 1078 -75 670 386 
Q 263 847 263 1672 
Q 263 2516 659 2955 
Q 1056 3394 1663 3394 
Q 2219 3394 2625 2931 
L 2625 4581 
L 3503 4581 
L 3503 0 
z
M 1159 1731 
Q 1159 1200 1306 963 
Q 1519 619 1900 619 
Q 2203 619 2415 876 
Q 2628 1134 2628 1647 
Q 2628 2219 2422 2470 
Q 2216 2722 1894 2722 
Q 1581 2722 1370 2473 
Q 1159 2225 1159 1731 
z
" transform="scale(0.015625)"/>
      <path id="Arial-BoldMT-ed" d="M 459 0 
L 459 3319 
L 1338 3319 
L 1338 0 
L 459 0 
z
M 394 3725 
L 825 4659 
L 1809 4659 
L 950 3725 
L 394 3725 
z
" transform="scale(0.015625)"/>
      <path id="Arial-BoldMT-71" d="M 2628 -1263 
L 2628 406 
Q 2456 184 2200 54 
Q 1944 -75 1647 -75 
Q 1081 -75 716 350 
Q 284 847 284 1697 
Q 284 2497 689 2945 
Q 1094 3394 1694 3394 
Q 2025 3394 2267 3253 
Q 2509 3113 2697 2828 
L 2697 3319 
L 3506 3319 
L 3506 -1263 
L 2628 -1263 
z
M 2656 1700 
Q 2656 2209 2448 2457 
Q 2241 2706 1928 2706 
Q 1609 2706 1395 2453 
Q 1181 2200 1181 1650 
Q 1181 1103 1387 861 
Q 1594 619 1897 619 
Q 2200 619 2428 891 
Q 2656 1163 2656 1700 
z
" transform="scale(0.015625)"/>
      <path id="Arial-BoldMT-e9" d="M 2381 1056 
L 3256 909 
Q 3088 428 2723 176 
Q 2359 -75 1813 -75 
Q 947 -75 531 491 
Q 203 944 203 1634 
Q 203 2459 634 2926 
Q 1066 3394 1725 3394 
Q 2466 3394 2894 2905 
Q 3322 2416 3303 1406 
L 1103 1406 
Q 1113 1016 1316 798 
Q 1519 581 1822 581 
Q 2028 581 2168 693 
Q 2309 806 2381 1056 
z
M 2431 1944 
Q 2422 2325 2234 2523 
Q 2047 2722 1778 2722 
Q 1491 2722 1303 2513 
Q 1116 2303 1119 1944 
L 2431 1944 
z
M 1309 3725 
L 1741 4659 
L 2725 4659 
L 1866 3725 
L 1309 3725 
z
" transform="scale(0.015625)"/>
      <path id="Arial-BoldMT-e1" d="M 1116 2306 
L 319 2450 
Q 453 2931 781 3162 
Q 1109 3394 1756 3394 
Q 2344 3394 2631 3255 
Q 2919 3116 3036 2902 
Q 3153 2688 3153 2116 
L 3144 1091 
Q 3144 653 3186 445 
Q 3228 238 3344 0 
L 2475 0 
Q 2441 88 2391 259 
Q 2369 338 2359 363 
Q 2134 144 1878 34 
Q 1622 -75 1331 -75 
Q 819 -75 523 203 
Q 228 481 228 906 
Q 228 1188 362 1408 
Q 497 1628 739 1745 
Q 981 1863 1438 1950 
Q 2053 2066 2291 2166 
L 2291 2253 
Q 2291 2506 2166 2614 
Q 2041 2722 1694 2722 
Q 1459 2722 1328 2630 
Q 1197 2538 1116 2306 
z
M 2291 1594 
Q 2122 1538 1756 1459 
Q 1391 1381 1278 1306 
Q 1106 1184 1106 997 
Q 1106 813 1243 678 
Q 1381 544 1594 544 
Q 1831 544 2047 700 
Q 2206 819 2256 991 
Q 2291 1103 2291 1419 
L 2291 1594 
z
M 1341 3725 
L 1772 4659 
L 2756 4659 
L 1897 3725 
L 1341 3725 
z
" transform="scale(0.015625)"/>
     </defs>
     <use xlink:href="#Arial-BoldMT-4c"/>
     <use xlink:href="#Arial-BoldMT-65" transform="translate(61.083984 0)"/>
     <use xlink:href="#Arial-BoldMT-20" transform="translate(116.699219 0)"/>
     <use xlink:href="#Arial-BoldMT-76" transform="translate(144.482422 0)"/>
     <use xlink:href="#Arial-BoldMT-6f" transform="translate(200.097656 0)"/>
     <use xlink:href="#Arial-BoldMT-79" transform="translate(261.181641 0)"/>
     <use xlink:href="#Arial-BoldMT-20" transform="translate(316.796875 0)"/>
     <use xlink:href="#Arial-BoldMT-61" transform="translate(344.580078 0)"/>
     <use xlink:href="#Arial-BoldMT-20" transform="translate(400.195312 0)"/>
     <use xlink:href="#Arial-BoldMT-6d" transform="translate(427.978516 0)"/>
     <use xlink:href="#Arial-BoldMT-6f" transform="translate(516.894531 0)"/>
     <use xlink:href="#Arial-BoldMT-73" transform="translate(577.978516 0)"/>
     <use xlink:href="#Arial-BoldMT-74" transform="translate(633.59375 0)"/>
     <use xlink:href="#Arial-BoldMT-72" transform="translate(666.894531 0)"/>
     <use xlink:href="#Arial-BoldMT-61" transform="translate(705.810547 0)"/>
     <use xlink:href="#Arial-BoldMT-72" transform="translate(761.425781 0)"/>
     <use xlink:href="#Arial-BoldMT-20" transform="translate(800.341797 0)"/>
     <use xlink:href="#Arial-BoldMT-75" transform="translate(828.125 0)"/>
     <use xlink:href="#Arial-BoldMT-6e" transform="translate(889.208984 0)"/>
     <use xlink:href="#Arial-BoldMT-61" transform="translate(950.292969 0)"/>
     <use xlink:href="#Arial-BoldMT-73" transform="translate(1005.908203 0)"/>
     <use xlink:href="#Arial-BoldMT-20" transform="translate(1061.523438 0)"/>
     <use xlink:href="#Arial-BoldMT-66" transform="translate(1089.306641 0)"/>
     <use xlink:href="#Arial-BoldMT-69" transform="translate(1122.607422 0)"/>
     <use xlink:href="#Arial-BoldMT-67" transform="translate(1150.390625 0)"/>
     <use xlink:href="#Arial-BoldMT-75" transform="translate(1211.474609 0)"/>
     <use xlink:href="#Arial-BoldMT-72" transform="translate(1272.558594 0)"/>
     <use xlink:href="#Arial-BoldMT-61" transform="translate(1311.474609 0)"/>
     <use xlink:href="#Arial-BoldMT-73" transform="translate(1367.089844 0)"/>
     <use xlink:href="#Arial-BoldMT-20" transform="translate(1422.705078 0)"/>
     <use xlink:href="#Arial-BoldMT-63" transform="translate(1450.488281 0)"/>
     <use xlink:href="#Arial-BoldMT-6f" transform="translate(1506.103516 0)"/>
     <use xlink:href="#Arial-BoldMT-72" transform="translate(1567.1875 0)"/>
     <use xlink:href="#Arial-BoldMT-70" transform="translate(1606.103516 0)"/>
     <use xlink:href="#Arial-BoldMT-6f" transform="translate(1667.1875 0)"/>
     <use xlink:href="#Arial-BoldMT-72" transform="translate(1728.271484 0)"/>
     <use xlink:href="#Arial-BoldMT-61" transform="translate(1767.1875 0)"/>
     <use xlink:href="#Arial-BoldMT-6c" transform="translate(1822.802734 0)"/>
     <use xlink:href="#Arial-BoldMT-65" transform="translate(1850.585938 0)"/>
     <use xlink:href="#Arial-BoldMT-73" transform="translate(1906.201172 0)"/>
     <use xlink:href="#Arial-BoldMT-2c" transform="translate(1961.816406 0)"/>
     <use xlink:href="#Arial-BoldMT-20" transform="translate(1989.599609 0)"/>
     <use xlink:href="#Arial-BoldMT-70" transform="translate(2017.382812 0)"/>
     <use xlink:href="#Arial-BoldMT-6f" transform="translate(2078.466797 0)"/>
     <use xlink:href="#Arial-BoldMT-72" transform="translate(2139.550781 0)"/>
     <use xlink:href="#Arial-BoldMT-20" transform="translate(2178.466797 0)"/>
     <use xlink:href="#Arial-BoldMT-66" transform="translate(2206.25 0)"/>
     <use xlink:href="#Arial-BoldMT-61" transform="translate(2239.550781 0)"/>
     <use xlink:href="#Arial-BoldMT-76" transform="translate(2295.166016 0)"/>
     <use xlink:href="#Arial-BoldMT-6f" transform="translate(2350.78125 0)"/>
     <use xlink:href="#Arial-BoldMT-72" transform="translate(2411.865234 0)"/>
     <use xlink:href="#Arial-BoldMT-2c" transform="translate(2445.28125 0)"/>
     <use xlink:href="#Arial-BoldMT-20" transform="translate(2473.064453 0)"/>
     <use xlink:href="#Arial-BoldMT-64" transform="translate(2500.847656 0)"/>
     <use xlink:href="#Arial-BoldMT-ed" transform="translate(2561.931641 0)"/>
     <use xlink:href="#Arial-BoldMT-67" transform="translate(2589.714844 0)"/>
     <use xlink:href="#Arial-BoldMT-61" transform="translate(2650.798828 0)"/>
     <use xlink:href="#Arial-BoldMT-6d" transform="translate(2706.414062 0)"/>
     <use xlink:href="#Arial-BoldMT-65" transform="translate(2795.330078 0)"/>
     <use xlink:href="#Arial-BoldMT-20" transform="translate(2850.945312 0)"/>
     <use xlink:href="#Arial-BoldMT-71" transform="translate(2878.728516 0)"/>
     <use xlink:href="#Arial-BoldMT-75" transform="translate(2939.8125 0)"/>
     <use xlink:href="#Arial-BoldMT-e9" transform="translate(3000.896484 0)"/>
     <use xlink:href="#Arial-BoldMT-20" transform="translate(3056.511719 0)"/>
     <use xlink:href="#Arial-BoldMT-66" transform="translate(3084.294922 0)"/>
     <use xlink:href="#Arial-BoldMT-69" transform="translate(3117.595703 0)"/>
     <use xlink:href="#Arial-BoldMT-67" transform="translate(3145.378906 0)"/>
     <use xlink:href="#Arial-BoldMT-75" transform="translate(3206.462891 0)"/>
     <use xlink:href="#Arial-BoldMT-72" transform="translate(3267.546875 0)"/>
     <use xlink:href="#Arial-BoldMT-61" transform="translate(3306.462891 0)"/>
     <use xlink:href="#Arial-BoldMT-20" transform="translate(3362.078125 0)"/>
     <use xlink:href="#Arial-BoldMT-73" transform="translate(3389.861328 0)"/>
     <use xlink:href="#Arial-BoldMT-69" transform="translate(3445.476562 0)"/>
     <use xlink:href="#Arial-BoldMT-65" transform="translate(3473.259766 0)"/>
     <use xlink:href="#Arial-BoldMT-6e" transform="translate(3528.875 0)"/>
     <use xlink:href="#Arial-BoldMT-74" transform="translate(3589.958984 0)"/>
     <use xlink:href="#Arial-BoldMT-65" transform="translate(3623.259766 0)"/>
     <use xlink:href="#Arial-BoldMT-20" transform="translate(3678.875 0)"/>
     <use xlink:href="#Arial-BoldMT-71" transform="translate(3706.658203 0)"/>
     <use xlink:href="#Arial-BoldMT-75" transform="translate(3767.742188 0)"/>
     <use xlink:href="#Arial-BoldMT-65" transform="translate(3828.826172 0)"/>
     <use xlink:href="#Arial-BoldMT-20" transform="translate(3884.441406 0)"/>
     <use xlink:href="#Arial-BoldMT-6d" transform="translate(3912.224609 0)"/>
     <use xlink:href="#Arial-BoldMT-e1" transform="translate(4001.140625 0)"/>
     <use xlink:href="#Arial-BoldMT-73" transform="translate(4056.755859 0)"/>
     <use xlink:href="#Arial-BoldMT-20" transform="translate(4112.371094 0)"/>
     <use xlink:href="#Arial-BoldMT-73" transform="translate(4140.154297 0)"/>
     <use xlink:href="#Arial-BoldMT-65" transform="translate(4195.769531 0)"/>
     <use xlink:href="#Arial-BoldMT-20" transform="translate(4251.384766 0)"/>
     <use xlink:href="#Arial-BoldMT-70" transform="translate(4279.167969 0)"/>
     <use xlink:href="#Arial-BoldMT-61" transform="translate(4340.251953 0)"/>
     <use xlink:href="#Arial-BoldMT-72" transform="translate(4395.867188 0)"/>
     <use xlink:href="#Arial-BoldMT-65" transform="translate(4434.783203 0)"/>
     <use xlink:href="#Arial-BoldMT-63" transform="translate(4490.398438 0)"/>
     <use xlink:href="#Arial-BoldMT-65" transform="translate(4546.013672 0)"/>
     <use xlink:href="#Arial-BoldMT-20" transform="translate(4601.628906 0)"/>
     <use xlink:href="#Arial-BoldMT-61" transform="translate(4629.412109 0)"/>
     <use xlink:href="#Arial-BoldMT-20" transform="translate(4685.027344 0)"/>
     <use xlink:href="#Arial-BoldMT-75" transform="translate(4712.810547 0)"/>
     <use xlink:href="#Arial-BoldMT-73" transform="translate(4773.894531 0)"/>
     <use xlink:href="#Arial-BoldMT-74" transform="translate(4829.509766 0)"/>
     <use xlink:href="#Arial-BoldMT-65" transform="translate(4862.810547 0)"/>
     <use xlink:href="#Arial-BoldMT-64" transform="translate(4918.425781 0)"/>
     <use xlink:href="#Arial-BoldMT-20" transform="translate(4979.509766 0)"/>
     <use xlink:href="#Arial-BoldMT-65" transform="translate(5007.292969 0)"/>
     <use xlink:href="#Arial-BoldMT-6e" transform="translate(5062.908203 0)"/>
     <use xlink:href="#Arial-BoldMT-20" transform="translate(5123.992188 0)"/>
     <use xlink:href="#Arial-BoldMT-65" transform="translate(5151.775391 0)"/>
     <use xlink:href="#Arial-BoldMT-73" transform="translate(5207.390625 0)"/>
     <use xlink:href="#Arial-BoldMT-74" transform="translate(5263.005859 0)"/>
     <use xlink:href="#Arial-BoldMT-65" transform="translate(5296.306641 0)"/>
     <use xlink:href="#Arial-BoldMT-20" transform="translate(5351.921875 0)"/>
     <use xlink:href="#Arial-BoldMT-6d" transform="translate(5379.705078 0)"/>
     <use xlink:href="#Arial-BoldMT-6f" transform="translate(5468.621094 0)"/>
     <use xlink:href="#Arial-BoldMT-6d" transform="translate(5529.705078 0)"/>
     <use xlink:href="#Arial-BoldMT-65" transform="translate(5618.621094 0)"/>
     <use xlink:href="#Arial-BoldMT-6e" transform="translate(5674.236328 0)"/>
     <use xlink:href="#Arial-BoldMT-74" transform="translate(5735.320312 0)"/>
     <use xlink:href="#Arial-BoldMT-6f" transform="translate(5768.621094 0)"/>
    </g>
    <!--  -->
    <g style="fill: #262626" transform="translate(473.54375 35.958) scale(0.16 -0.16)"/>
   </g>
  </g>
 </g>
 <defs>
  <clipPath id="p6eabe89bd7">
   <rect x="146.40375" y="41.958" width="654.28" height="360.43475"/>
  </clipPath>
 </defs>
</svg>
