<?xml version="1.0" encoding="utf-8" standalone="no"?>
<!DOCTYPE svg PUBLIC "-//W3C//DTD SVG 1.1//EN"
  "http://www.w3.org/Graphics/SVG/1.1/DTD/svg11.dtd">
<svg xmlns:xlink="http://www.w3.org/1999/xlink" width="712.917187pt" height="425.434312pt" viewBox="0 0 712.917187 425.434312" xmlns="http://www.w3.org/2000/svg" version="1.1">
 <metadata>
  <rdf:RDF xmlns:dc="http://purl.org/dc/elements/1.1/" xmlns:cc="http://creativecommons.org/ns#" xmlns:rdf="http://www.w3.org/1999/02/22-rdf-syntax-ns#">
   <cc:Work>
    <dc:type rdf:resource="http://purl.org/dc/dcmitype/StillImage"/>
    <dc:date>2025-03-22T21:52:20.017152</dc:date>
    <dc:format>image/svg+xml</dc:format>
    <dc:creator>
     <cc:Agent>
      <dc:title>Matplotlib v3.10.0, https://matplotlib.org/</dc:title>
     </cc:Agent>
    </dc:creator>
   </cc:Work>
  </rdf:RDF>
 </metadata>
 <defs>
  <style type="text/css">*{stroke-linejoin: round; stroke-linecap: butt}</style>
 </defs>
 <g id="figure_1">
  <g id="patch_1">
   <path d="M 0 425.434312 
L 712.917187 425.434312 
L 712.917187 0 
L 0 0 
z
" style="fill: #ffffff"/>
  </g>
  <g id="axes_1">
   <g id="patch_2">
    <path d="M 45.857188 402.089 
L 705.717188 402.089 
L 705.717188 41.553 
L 45.857188 41.553 
z
" style="fill: #ffffff"/>
   </g>
   <g id="matplotlib.axis_1">
    <g id="xtick_1">
     <g id="line2d_1">
      <path d="M 75.850824 402.089 
L 75.850824 41.553 
" clip-path="url(#p2131812683)" style="fill: none; stroke-dasharray: 2.96,1.28; stroke-dashoffset: 0; stroke: #cccccc; stroke-opacity: 0; stroke-width: 0.8"/>
     </g>
     <g id="text_1">
      <!-- 0 -->
      <g style="fill: #262626" transform="translate(73.070355 416.246812) scale(0.1 -0.1)">
       <defs>
        <path id="ArialMT-30" d="M 266 2259 
Q 266 3072 433 3567 
Q 600 4063 929 4331 
Q 1259 4600 1759 4600 
Q 2128 4600 2406 4451 
Q 2684 4303 2865 4023 
Q 3047 3744 3150 3342 
Q 3253 2941 3253 2259 
Q 3253 1453 3087 958 
Q 2922 463 2592 192 
Q 2263 -78 1759 -78 
Q 1097 -78 719 397 
Q 266 969 266 2259 
z
M 844 2259 
Q 844 1131 1108 757 
Q 1372 384 1759 384 
Q 2147 384 2411 759 
Q 2675 1134 2675 2259 
Q 2675 3391 2411 3762 
Q 2147 4134 1753 4134 
Q 1366 4134 1134 3806 
Q 844 3388 844 2259 
z
" transform="scale(0.015625)"/>
       </defs>
       <use xlink:href="#ArialMT-30"/>
      </g>
     </g>
    </g>
    <g id="xtick_2">
     <g id="line2d_2">
      <path d="M 197.037233 402.089 
L 197.037233 41.553 
" clip-path="url(#p2131812683)" style="fill: none; stroke-dasharray: 2.96,1.28; stroke-dashoffset: 0; stroke: #cccccc; stroke-opacity: 0; stroke-width: 0.8"/>
     </g>
     <g id="text_2">
      <!-- 20 -->
      <g style="fill: #262626" transform="translate(191.476296 416.246812) scale(0.1 -0.1)">
       <defs>
        <path id="ArialMT-32" d="M 3222 541 
L 3222 0 
L 194 0 
Q 188 203 259 391 
Q 375 700 629 1000 
Q 884 1300 1366 1694 
Q 2113 2306 2375 2664 
Q 2638 3022 2638 3341 
Q 2638 3675 2398 3904 
Q 2159 4134 1775 4134 
Q 1369 4134 1125 3890 
Q 881 3647 878 3216 
L 300 3275 
Q 359 3922 746 4261 
Q 1134 4600 1788 4600 
Q 2447 4600 2831 4234 
Q 3216 3869 3216 3328 
Q 3216 3053 3103 2787 
Q 2991 2522 2730 2228 
Q 2469 1934 1863 1422 
Q 1356 997 1212 845 
Q 1069 694 975 541 
L 3222 541 
z
" transform="scale(0.015625)"/>
       </defs>
       <use xlink:href="#ArialMT-32"/>
       <use xlink:href="#ArialMT-30" transform="translate(55.615234 0)"/>
      </g>
     </g>
    </g>
    <g id="xtick_3">
     <g id="line2d_3">
      <path d="M 318.223643 402.089 
L 318.223643 41.553 
" clip-path="url(#p2131812683)" style="fill: none; stroke-dasharray: 2.96,1.28; stroke-dashoffset: 0; stroke: #cccccc; stroke-opacity: 0; stroke-width: 0.8"/>
     </g>
     <g id="text_3">
      <!-- 40 -->
      <g style="fill: #262626" transform="translate(312.662705 416.246812) scale(0.1 -0.1)">
       <defs>
        <path id="ArialMT-34" d="M 2069 0 
L 2069 1097 
L 81 1097 
L 81 1613 
L 2172 4581 
L 2631 4581 
L 2631 1613 
L 3250 1613 
L 3250 1097 
L 2631 1097 
L 2631 0 
L 2069 0 
z
M 2069 1613 
L 2069 3678 
L 634 1613 
L 2069 1613 
z
" transform="scale(0.015625)"/>
       </defs>
       <use xlink:href="#ArialMT-34"/>
       <use xlink:href="#ArialMT-30" transform="translate(55.615234 0)"/>
      </g>
     </g>
    </g>
    <g id="xtick_4">
     <g id="line2d_4">
      <path d="M 439.410053 402.089 
L 439.410053 41.553 
" clip-path="url(#p2131812683)" style="fill: none; stroke-dasharray: 2.96,1.28; stroke-dashoffset: 0; stroke: #cccccc; stroke-opacity: 0; stroke-width: 0.8"/>
     </g>
     <g id="text_4">
      <!-- 60 -->
      <g style="fill: #262626" transform="translate(433.849115 416.246812) scale(0.1 -0.1)">
       <defs>
        <path id="ArialMT-36" d="M 3184 3459 
L 2625 3416 
Q 2550 3747 2413 3897 
Q 2184 4138 1850 4138 
Q 1581 4138 1378 3988 
Q 1113 3794 959 3422 
Q 806 3050 800 2363 
Q 1003 2672 1297 2822 
Q 1591 2972 1913 2972 
Q 2475 2972 2870 2558 
Q 3266 2144 3266 1488 
Q 3266 1056 3080 686 
Q 2894 316 2569 119 
Q 2244 -78 1831 -78 
Q 1128 -78 684 439 
Q 241 956 241 2144 
Q 241 3472 731 4075 
Q 1159 4600 1884 4600 
Q 2425 4600 2770 4297 
Q 3116 3994 3184 3459 
z
M 888 1484 
Q 888 1194 1011 928 
Q 1134 663 1356 523 
Q 1578 384 1822 384 
Q 2178 384 2434 671 
Q 2691 959 2691 1453 
Q 2691 1928 2437 2201 
Q 2184 2475 1800 2475 
Q 1419 2475 1153 2201 
Q 888 1928 888 1484 
z
" transform="scale(0.015625)"/>
       </defs>
       <use xlink:href="#ArialMT-36"/>
       <use xlink:href="#ArialMT-30" transform="translate(55.615234 0)"/>
      </g>
     </g>
    </g>
    <g id="xtick_5">
     <g id="line2d_5">
      <path d="M 560.596462 402.089 
L 560.596462 41.553 
" clip-path="url(#p2131812683)" style="fill: none; stroke-dasharray: 2.96,1.28; stroke-dashoffset: 0; stroke: #cccccc; stroke-opacity: 0; stroke-width: 0.8"/>
     </g>
     <g id="text_5">
      <!-- 80 -->
      <g style="fill: #262626" transform="translate(555.035525 416.246812) scale(0.1 -0.1)">
       <defs>
        <path id="ArialMT-38" d="M 1131 2484 
Q 781 2613 612 2850 
Q 444 3088 444 3419 
Q 444 3919 803 4259 
Q 1163 4600 1759 4600 
Q 2359 4600 2725 4251 
Q 3091 3903 3091 3403 
Q 3091 3084 2923 2848 
Q 2756 2613 2416 2484 
Q 2838 2347 3058 2040 
Q 3278 1734 3278 1309 
Q 3278 722 2862 322 
Q 2447 -78 1769 -78 
Q 1091 -78 675 323 
Q 259 725 259 1325 
Q 259 1772 486 2073 
Q 713 2375 1131 2484 
z
M 1019 3438 
Q 1019 3113 1228 2906 
Q 1438 2700 1772 2700 
Q 2097 2700 2305 2904 
Q 2513 3109 2513 3406 
Q 2513 3716 2298 3927 
Q 2084 4138 1766 4138 
Q 1444 4138 1231 3931 
Q 1019 3725 1019 3438 
z
M 838 1322 
Q 838 1081 952 856 
Q 1066 631 1291 507 
Q 1516 384 1775 384 
Q 2178 384 2440 643 
Q 2703 903 2703 1303 
Q 2703 1709 2433 1975 
Q 2163 2241 1756 2241 
Q 1359 2241 1098 1978 
Q 838 1716 838 1322 
z
" transform="scale(0.015625)"/>
       </defs>
       <use xlink:href="#ArialMT-38"/>
       <use xlink:href="#ArialMT-30" transform="translate(55.615234 0)"/>
      </g>
     </g>
    </g>
    <g id="xtick_6">
     <g id="line2d_6">
      <path d="M 681.782872 402.089 
L 681.782872 41.553 
" clip-path="url(#p2131812683)" style="fill: none; stroke-dasharray: 2.96,1.28; stroke-dashoffset: 0; stroke: #cccccc; stroke-opacity: 0; stroke-width: 0.8"/>
     </g>
     <g id="text_6">
      <!-- 100 -->
      <g style="fill: #262626" transform="translate(673.441465 416.246812) scale(0.1 -0.1)">
       <defs>
        <path id="ArialMT-31" d="M 2384 0 
L 1822 0 
L 1822 3584 
Q 1619 3391 1289 3197 
Q 959 3003 697 2906 
L 697 3450 
Q 1169 3672 1522 3987 
Q 1875 4303 2022 4600 
L 2384 4600 
L 2384 0 
z
" transform="scale(0.015625)"/>
       </defs>
       <use xlink:href="#ArialMT-31"/>
       <use xlink:href="#ArialMT-30" transform="translate(55.615234 0)"/>
       <use xlink:href="#ArialMT-30" transform="translate(111.230469 0)"/>
      </g>
     </g>
    </g>
   </g>
   <g id="matplotlib.axis_2">
    <g id="ytick_1">
     <g id="line2d_7">
      <path d="M 45.857188 402.089 
L 705.717188 402.089 
" clip-path="url(#p2131812683)" style="fill: none; stroke-dasharray: 2.96,1.28; stroke-dashoffset: 0; stroke: #cccccc; stroke-opacity: 0.7; stroke-width: 0.8"/>
     </g>
     <g id="text_7">
      <!-- 0 -->
      <g style="fill: #262626" transform="translate(33.29625 405.667906) scale(0.1 -0.1)">
       <use xlink:href="#ArialMT-30"/>
      </g>
     </g>
    </g>
    <g id="ytick_2">
     <g id="line2d_8">
      <path d="M 45.857188 362.022767 
L 705.717188 362.022767 
" clip-path="url(#p2131812683)" style="fill: none; stroke-dasharray: 2.96,1.28; stroke-dashoffset: 0; stroke: #cccccc; stroke-opacity: 0.7; stroke-width: 0.8"/>
     </g>
     <g id="text_8">
      <!-- 100 -->
      <g style="fill: #262626" transform="translate(22.174375 365.601673) scale(0.1 -0.1)">
       <use xlink:href="#ArialMT-31"/>
       <use xlink:href="#ArialMT-30" transform="translate(55.615234 0)"/>
       <use xlink:href="#ArialMT-30" transform="translate(111.230469 0)"/>
      </g>
     </g>
    </g>
    <g id="ytick_3">
     <g id="line2d_9">
      <path d="M 45.857188 321.956533 
L 705.717188 321.956533 
" clip-path="url(#p2131812683)" style="fill: none; stroke-dasharray: 2.96,1.28; stroke-dashoffset: 0; stroke: #cccccc; stroke-opacity: 0.7; stroke-width: 0.8"/>
     </g>
     <g id="text_9">
      <!-- 200 -->
      <g style="fill: #262626" transform="translate(22.174375 325.53544) scale(0.1 -0.1)">
       <use xlink:href="#ArialMT-32"/>
       <use xlink:href="#ArialMT-30" transform="translate(55.615234 0)"/>
       <use xlink:href="#ArialMT-30" transform="translate(111.230469 0)"/>
      </g>
     </g>
    </g>
    <g id="ytick_4">
     <g id="line2d_10">
      <path d="M 45.857188 281.8903 
L 705.717188 281.8903 
" clip-path="url(#p2131812683)" style="fill: none; stroke-dasharray: 2.96,1.28; stroke-dashoffset: 0; stroke: #cccccc; stroke-opacity: 0.7; stroke-width: 0.8"/>
     </g>
     <g id="text_10">
      <!-- 300 -->
      <g style="fill: #262626" transform="translate(22.174375 285.469206) scale(0.1 -0.1)">
       <defs>
        <path id="ArialMT-33" d="M 269 1209 
L 831 1284 
Q 928 806 1161 595 
Q 1394 384 1728 384 
Q 2125 384 2398 659 
Q 2672 934 2672 1341 
Q 2672 1728 2419 1979 
Q 2166 2231 1775 2231 
Q 1616 2231 1378 2169 
L 1441 2663 
Q 1497 2656 1531 2656 
Q 1891 2656 2178 2843 
Q 2466 3031 2466 3422 
Q 2466 3731 2256 3934 
Q 2047 4138 1716 4138 
Q 1388 4138 1169 3931 
Q 950 3725 888 3313 
L 325 3413 
Q 428 3978 793 4289 
Q 1159 4600 1703 4600 
Q 2078 4600 2393 4439 
Q 2709 4278 2876 4000 
Q 3044 3722 3044 3409 
Q 3044 3113 2884 2869 
Q 2725 2625 2413 2481 
Q 2819 2388 3044 2092 
Q 3269 1797 3269 1353 
Q 3269 753 2831 336 
Q 2394 -81 1725 -81 
Q 1122 -81 723 278 
Q 325 638 269 1209 
z
" transform="scale(0.015625)"/>
       </defs>
       <use xlink:href="#ArialMT-33"/>
       <use xlink:href="#ArialMT-30" transform="translate(55.615234 0)"/>
       <use xlink:href="#ArialMT-30" transform="translate(111.230469 0)"/>
      </g>
     </g>
    </g>
    <g id="ytick_5">
     <g id="line2d_11">
      <path d="M 45.857188 241.824067 
L 705.717188 241.824067 
" clip-path="url(#p2131812683)" style="fill: none; stroke-dasharray: 2.96,1.28; stroke-dashoffset: 0; stroke: #cccccc; stroke-opacity: 0.7; stroke-width: 0.8"/>
     </g>
     <g id="text_11">
      <!-- 400 -->
      <g style="fill: #262626" transform="translate(22.174375 245.402973) scale(0.1 -0.1)">
       <use xlink:href="#ArialMT-34"/>
       <use xlink:href="#ArialMT-30" transform="translate(55.615234 0)"/>
       <use xlink:href="#ArialMT-30" transform="translate(111.230469 0)"/>
      </g>
     </g>
    </g>
    <g id="ytick_6">
     <g id="line2d_12">
      <path d="M 45.857188 201.757834 
L 705.717188 201.757834 
" clip-path="url(#p2131812683)" style="fill: none; stroke-dasharray: 2.96,1.28; stroke-dashoffset: 0; stroke: #cccccc; stroke-opacity: 0.7; stroke-width: 0.8"/>
     </g>
     <g id="text_12">
      <!-- 500 -->
      <g style="fill: #262626" transform="translate(22.174375 205.33674) scale(0.1 -0.1)">
       <defs>
        <path id="ArialMT-35" d="M 266 1200 
L 856 1250 
Q 922 819 1161 601 
Q 1400 384 1738 384 
Q 2144 384 2425 690 
Q 2706 997 2706 1503 
Q 2706 1984 2436 2262 
Q 2166 2541 1728 2541 
Q 1456 2541 1237 2417 
Q 1019 2294 894 2097 
L 366 2166 
L 809 4519 
L 3088 4519 
L 3088 3981 
L 1259 3981 
L 1013 2750 
Q 1425 3038 1878 3038 
Q 2478 3038 2890 2622 
Q 3303 2206 3303 1553 
Q 3303 931 2941 478 
Q 2500 -78 1738 -78 
Q 1113 -78 717 272 
Q 322 622 266 1200 
z
" transform="scale(0.015625)"/>
       </defs>
       <use xlink:href="#ArialMT-35"/>
       <use xlink:href="#ArialMT-30" transform="translate(55.615234 0)"/>
       <use xlink:href="#ArialMT-30" transform="translate(111.230469 0)"/>
      </g>
     </g>
    </g>
    <g id="ytick_7">
     <g id="line2d_13">
      <path d="M 45.857188 161.6916 
L 705.717188 161.6916 
" clip-path="url(#p2131812683)" style="fill: none; stroke-dasharray: 2.96,1.28; stroke-dashoffset: 0; stroke: #cccccc; stroke-opacity: 0.7; stroke-width: 0.8"/>
     </g>
     <g id="text_13">
      <!-- 600 -->
      <g style="fill: #262626" transform="translate(22.174375 165.270507) scale(0.1 -0.1)">
       <use xlink:href="#ArialMT-36"/>
       <use xlink:href="#ArialMT-30" transform="translate(55.615234 0)"/>
       <use xlink:href="#ArialMT-30" transform="translate(111.230469 0)"/>
      </g>
     </g>
    </g>
    <g id="ytick_8">
     <g id="line2d_14">
      <path d="M 45.857188 121.625367 
L 705.717188 121.625367 
" clip-path="url(#p2131812683)" style="fill: none; stroke-dasharray: 2.96,1.28; stroke-dashoffset: 0; stroke: #cccccc; stroke-opacity: 0.7; stroke-width: 0.8"/>
     </g>
     <g id="text_14">
      <!-- 700 -->
      <g style="fill: #262626" transform="translate(22.174375 125.204273) scale(0.1 -0.1)">
       <defs>
        <path id="ArialMT-37" d="M 303 3981 
L 303 4522 
L 3269 4522 
L 3269 4084 
Q 2831 3619 2401 2847 
Q 1972 2075 1738 1259 
Q 1569 684 1522 0 
L 944 0 
Q 953 541 1156 1306 
Q 1359 2072 1739 2783 
Q 2119 3494 2547 3981 
L 303 3981 
z
" transform="scale(0.015625)"/>
       </defs>
       <use xlink:href="#ArialMT-37"/>
       <use xlink:href="#ArialMT-30" transform="translate(55.615234 0)"/>
       <use xlink:href="#ArialMT-30" transform="translate(111.230469 0)"/>
      </g>
     </g>
    </g>
    <g id="ytick_9">
     <g id="line2d_15">
      <path d="M 45.857188 81.559134 
L 705.717188 81.559134 
" clip-path="url(#p2131812683)" style="fill: none; stroke-dasharray: 2.96,1.28; stroke-dashoffset: 0; stroke: #cccccc; stroke-opacity: 0.7; stroke-width: 0.8"/>
     </g>
     <g id="text_15">
      <!-- 800 -->
      <g style="fill: #262626" transform="translate(22.174375 85.13804) scale(0.1 -0.1)">
       <use xlink:href="#ArialMT-38"/>
       <use xlink:href="#ArialMT-30" transform="translate(55.615234 0)"/>
       <use xlink:href="#ArialMT-30" transform="translate(111.230469 0)"/>
      </g>
     </g>
    </g>
    <g id="text_16">
     <!-- Frecuencia -->
     <g style="fill: #262626" transform="translate(15.789375 251.499437) rotate(-90) scale(0.12 -0.12)">
      <defs>
       <path id="ArialMT-46" d="M 525 0 
L 525 4581 
L 3616 4581 
L 3616 4041 
L 1131 4041 
L 1131 2622 
L 3281 2622 
L 3281 2081 
L 1131 2081 
L 1131 0 
L 525 0 
z
" transform="scale(0.015625)"/>
       <path id="ArialMT-72" d="M 416 0 
L 416 3319 
L 922 3319 
L 922 2816 
Q 1116 3169 1280 3281 
Q 1444 3394 1641 3394 
Q 1925 3394 2219 3213 
L 2025 2691 
Q 1819 2813 1613 2813 
Q 1428 2813 1281 2702 
Q 1134 2591 1072 2394 
Q 978 2094 978 1738 
L 978 0 
L 416 0 
z
" transform="scale(0.015625)"/>
       <path id="ArialMT-65" d="M 2694 1069 
L 3275 997 
Q 3138 488 2766 206 
Q 2394 -75 1816 -75 
Q 1088 -75 661 373 
Q 234 822 234 1631 
Q 234 2469 665 2931 
Q 1097 3394 1784 3394 
Q 2450 3394 2872 2941 
Q 3294 2488 3294 1666 
Q 3294 1616 3291 1516 
L 816 1516 
Q 847 969 1125 678 
Q 1403 388 1819 388 
Q 2128 388 2347 550 
Q 2566 713 2694 1069 
z
M 847 1978 
L 2700 1978 
Q 2663 2397 2488 2606 
Q 2219 2931 1791 2931 
Q 1403 2931 1139 2672 
Q 875 2413 847 1978 
z
" transform="scale(0.015625)"/>
       <path id="ArialMT-63" d="M 2588 1216 
L 3141 1144 
Q 3050 572 2676 248 
Q 2303 -75 1759 -75 
Q 1078 -75 664 370 
Q 250 816 250 1647 
Q 250 2184 428 2587 
Q 606 2991 970 3192 
Q 1334 3394 1763 3394 
Q 2303 3394 2647 3120 
Q 2991 2847 3088 2344 
L 2541 2259 
Q 2463 2594 2264 2762 
Q 2066 2931 1784 2931 
Q 1359 2931 1093 2626 
Q 828 2322 828 1663 
Q 828 994 1084 691 
Q 1341 388 1753 388 
Q 2084 388 2306 591 
Q 2528 794 2588 1216 
z
" transform="scale(0.015625)"/>
       <path id="ArialMT-75" d="M 2597 0 
L 2597 488 
Q 2209 -75 1544 -75 
Q 1250 -75 995 37 
Q 741 150 617 320 
Q 494 491 444 738 
Q 409 903 409 1263 
L 409 3319 
L 972 3319 
L 972 1478 
Q 972 1038 1006 884 
Q 1059 663 1231 536 
Q 1403 409 1656 409 
Q 1909 409 2131 539 
Q 2353 669 2445 892 
Q 2538 1116 2538 1541 
L 2538 3319 
L 3100 3319 
L 3100 0 
L 2597 0 
z
" transform="scale(0.015625)"/>
       <path id="ArialMT-6e" d="M 422 0 
L 422 3319 
L 928 3319 
L 928 2847 
Q 1294 3394 1984 3394 
Q 2284 3394 2536 3286 
Q 2788 3178 2913 3003 
Q 3038 2828 3088 2588 
Q 3119 2431 3119 2041 
L 3119 0 
L 2556 0 
L 2556 2019 
Q 2556 2363 2490 2533 
Q 2425 2703 2258 2804 
Q 2091 2906 1866 2906 
Q 1506 2906 1245 2678 
Q 984 2450 984 1813 
L 984 0 
L 422 0 
z
" transform="scale(0.015625)"/>
       <path id="ArialMT-69" d="M 425 3934 
L 425 4581 
L 988 4581 
L 988 3934 
L 425 3934 
z
M 425 0 
L 425 3319 
L 988 3319 
L 988 0 
L 425 0 
z
" transform="scale(0.015625)"/>
       <path id="ArialMT-61" d="M 2588 409 
Q 2275 144 1986 34 
Q 1697 -75 1366 -75 
Q 819 -75 525 192 
Q 231 459 231 875 
Q 231 1119 342 1320 
Q 453 1522 633 1644 
Q 813 1766 1038 1828 
Q 1203 1872 1538 1913 
Q 2219 1994 2541 2106 
Q 2544 2222 2544 2253 
Q 2544 2597 2384 2738 
Q 2169 2928 1744 2928 
Q 1347 2928 1158 2789 
Q 969 2650 878 2297 
L 328 2372 
Q 403 2725 575 2942 
Q 747 3159 1072 3276 
Q 1397 3394 1825 3394 
Q 2250 3394 2515 3294 
Q 2781 3194 2906 3042 
Q 3031 2891 3081 2659 
Q 3109 2516 3109 2141 
L 3109 1391 
Q 3109 606 3145 398 
Q 3181 191 3288 0 
L 2700 0 
Q 2613 175 2588 409 
z
M 2541 1666 
Q 2234 1541 1622 1453 
Q 1275 1403 1131 1340 
Q 988 1278 909 1158 
Q 831 1038 831 891 
Q 831 666 1001 516 
Q 1172 366 1500 366 
Q 1825 366 2078 508 
Q 2331 650 2450 897 
Q 2541 1088 2541 1459 
L 2541 1666 
z
" transform="scale(0.015625)"/>
      </defs>
      <use xlink:href="#ArialMT-46"/>
      <use xlink:href="#ArialMT-72" transform="translate(61.083984 0)"/>
      <use xlink:href="#ArialMT-65" transform="translate(94.384766 0)"/>
      <use xlink:href="#ArialMT-63" transform="translate(150 0)"/>
      <use xlink:href="#ArialMT-75" transform="translate(200 0)"/>
      <use xlink:href="#ArialMT-65" transform="translate(255.615234 0)"/>
      <use xlink:href="#ArialMT-6e" transform="translate(311.230469 0)"/>
      <use xlink:href="#ArialMT-63" transform="translate(366.845703 0)"/>
      <use xlink:href="#ArialMT-69" transform="translate(416.845703 0)"/>
      <use xlink:href="#ArialMT-61" transform="translate(439.0625 0)"/>
     </g>
    </g>
   </g>
   <g id="patch_3">
    <path d="M 75.850824 402.089 
L 87.848278 402.089 
L 87.848278 178.920081 
L 75.850824 178.920081 
z
" clip-path="url(#p2131812683)" style="fill: #8c0800; fill-opacity: 0.6; stroke: #ffffff; stroke-linejoin: miter"/>
   </g>
   <g id="patch_4">
    <path d="M 87.848278 402.089 
L 99.845733 402.089 
L 99.845733 154.479678 
L 87.848278 154.479678 
z
" clip-path="url(#p2131812683)" style="fill: #8c0800; fill-opacity: 0.6; stroke: #ffffff; stroke-linejoin: miter"/>
   </g>
   <g id="patch_5">
    <path d="M 99.845733 402.089 
L 111.843187 402.089 
L 111.843187 112.410134 
L 99.845733 112.410134 
z
" clip-path="url(#p2131812683)" style="fill: #8c0800; fill-opacity: 0.6; stroke: #ffffff; stroke-linejoin: miter"/>
   </g>
   <g id="patch_6">
    <path d="M 111.843187 402.089 
L 123.840642 402.089 
L 123.840642 102.794238 
L 111.843187 102.794238 
z
" clip-path="url(#p2131812683)" style="fill: #8c0800; fill-opacity: 0.6; stroke: #ffffff; stroke-linejoin: miter"/>
   </g>
   <g id="patch_7">
    <path d="M 123.840642 402.089 
L 135.838097 402.089 
L 135.838097 83.161783 
L 123.840642 83.161783 
z
" clip-path="url(#p2131812683)" style="fill: #8c0800; fill-opacity: 0.6; stroke: #ffffff; stroke-linejoin: miter"/>
   </g>
   <g id="patch_8">
    <path d="M 135.838097 402.089 
L 147.835551 402.089 
L 147.835551 103.996225 
L 135.838097 103.996225 
z
" clip-path="url(#p2131812683)" style="fill: #8c0800; fill-opacity: 0.6; stroke: #ffffff; stroke-linejoin: miter"/>
   </g>
   <g id="patch_9">
    <path d="M 147.835551 402.089 
L 159.833006 402.089 
L 159.833006 69.138602 
L 147.835551 69.138602 
z
" clip-path="url(#p2131812683)" style="fill: #8c0800; fill-opacity: 0.6; stroke: #ffffff; stroke-linejoin: miter"/>
   </g>
   <g id="patch_10">
    <path d="M 159.833006 402.089 
L 171.83046 402.089 
L 171.83046 65.933303 
L 159.833006 65.933303 
z
" clip-path="url(#p2131812683)" style="fill: #8c0800; fill-opacity: 0.6; stroke: #ffffff; stroke-linejoin: miter"/>
   </g>
   <g id="patch_11">
    <path d="M 171.83046 402.089 
L 183.827915 402.089 
L 183.827915 60.724693 
L 171.83046 60.724693 
z
" clip-path="url(#p2131812683)" style="fill: #8c0800; fill-opacity: 0.6; stroke: #ffffff; stroke-linejoin: miter"/>
   </g>
   <g id="patch_12">
    <path d="M 183.827915 402.089 
L 195.825369 402.089 
L 195.825369 99.588939 
L 183.827915 99.588939 
z
" clip-path="url(#p2131812683)" style="fill: #8c0800; fill-opacity: 0.6; stroke: #ffffff; stroke-linejoin: miter"/>
   </g>
   <g id="patch_13">
    <path d="M 195.825369 402.089 
L 207.822824 402.089 
L 207.822824 58.721381 
L 195.825369 58.721381 
z
" clip-path="url(#p2131812683)" style="fill: #8c0800; fill-opacity: 0.6; stroke: #ffffff; stroke-linejoin: miter"/>
   </g>
   <g id="patch_14">
    <path d="M 207.822824 402.089 
L 219.820278 402.089 
L 219.820278 92.377017 
L 207.822824 92.377017 
z
" clip-path="url(#p2131812683)" style="fill: #8c0800; fill-opacity: 0.6; stroke: #ffffff; stroke-linejoin: miter"/>
   </g>
   <g id="patch_15">
    <path d="M 219.820278 402.089 
L 231.817733 402.089 
L 231.817733 96.784303 
L 219.820278 96.784303 
z
" clip-path="url(#p2131812683)" style="fill: #8c0800; fill-opacity: 0.6; stroke: #ffffff; stroke-linejoin: miter"/>
   </g>
   <g id="patch_16">
    <path d="M 231.817733 402.089 
L 243.815187 402.089 
L 243.815187 113.612121 
L 231.817733 113.612121 
z
" clip-path="url(#p2131812683)" style="fill: #8c0800; fill-opacity: 0.6; stroke: #ffffff; stroke-linejoin: miter"/>
   </g>
   <g id="patch_17">
    <path d="M 243.815187 402.089 
L 255.812642 402.089 
L 255.812642 133.244575 
L 243.815187 133.244575 
z
" clip-path="url(#p2131812683)" style="fill: #8c0800; fill-opacity: 0.6; stroke: #ffffff; stroke-linejoin: miter"/>
   </g>
   <g id="patch_18">
    <path d="M 255.812642 402.089 
L 267.810097 402.089 
L 267.810097 136.049211 
L 255.812642 136.049211 
z
" clip-path="url(#p2131812683)" style="fill: #8c0800; fill-opacity: 0.6; stroke: #ffffff; stroke-linejoin: miter"/>
   </g>
   <g id="patch_19">
    <path d="M 267.810097 402.089 
L 279.807551 402.089 
L 279.807551 143.261133 
L 267.810097 143.261133 
z
" clip-path="url(#p2131812683)" style="fill: #8c0800; fill-opacity: 0.6; stroke: #ffffff; stroke-linejoin: miter"/>
   </g>
   <g id="patch_20">
    <path d="M 279.807551 402.089 
L 291.805006 402.089 
L 291.805006 168.102198 
L 279.807551 168.102198 
z
" clip-path="url(#p2131812683)" style="fill: #8c0800; fill-opacity: 0.6; stroke: #ffffff; stroke-linejoin: miter"/>
   </g>
   <g id="patch_21">
    <path d="M 291.805006 402.089 
L 303.80246 402.089 
L 303.80246 187.734652 
L 291.805006 187.734652 
z
" clip-path="url(#p2131812683)" style="fill: #8c0800; fill-opacity: 0.6; stroke: #ffffff; stroke-linejoin: miter"/>
   </g>
   <g id="patch_22">
    <path d="M 303.80246 402.089 
L 315.799915 402.089 
L 315.799915 166.900211 
L 303.80246 166.900211 
z
" clip-path="url(#p2131812683)" style="fill: #8c0800; fill-opacity: 0.6; stroke: #ffffff; stroke-linejoin: miter"/>
   </g>
   <g id="patch_23">
    <path d="M 315.799915 402.089 
L 327.797369 402.089 
L 327.797369 155.281003 
L 315.799915 155.281003 
z
" clip-path="url(#p2131812683)" style="fill: #8c0800; fill-opacity: 0.6; stroke: #ffffff; stroke-linejoin: miter"/>
   </g>
   <g id="patch_24">
    <path d="M 327.797369 402.089 
L 339.794824 402.089 
L 339.794824 167.300873 
L 327.797369 167.300873 
z
" clip-path="url(#p2131812683)" style="fill: #8c0800; fill-opacity: 0.6; stroke: #ffffff; stroke-linejoin: miter"/>
   </g>
   <g id="patch_25">
    <path d="M 339.794824 402.089 
L 351.792278 402.089 
L 351.792278 162.492925 
L 339.794824 162.492925 
z
" clip-path="url(#p2131812683)" style="fill: #8c0800; fill-opacity: 0.6; stroke: #ffffff; stroke-linejoin: miter"/>
   </g>
   <g id="patch_26">
    <path d="M 351.792278 402.089 
L 363.789733 402.089 
L 363.789733 120.022718 
L 351.792278 120.022718 
z
" clip-path="url(#p2131812683)" style="fill: #8c0800; fill-opacity: 0.6; stroke: #ffffff; stroke-linejoin: miter"/>
   </g>
   <g id="patch_27">
    <path d="M 363.789733 402.089 
L 375.787188 402.089 
L 375.787188 134.847224 
L 363.789733 134.847224 
z
" clip-path="url(#p2131812683)" style="fill: #8c0800; fill-opacity: 0.6; stroke: #ffffff; stroke-linejoin: miter"/>
   </g>
   <g id="patch_28">
    <path d="M 375.787188 402.089 
L 387.784642 402.089 
L 387.784642 131.241263 
L 375.787188 131.241263 
z
" clip-path="url(#p2131812683)" style="fill: #8c0800; fill-opacity: 0.6; stroke: #ffffff; stroke-linejoin: miter"/>
   </g>
   <g id="patch_29">
    <path d="M 387.784642 402.089 
L 399.782097 402.089 
L 399.782097 144.062458 
L 387.784642 144.062458 
z
" clip-path="url(#p2131812683)" style="fill: #8c0800; fill-opacity: 0.6; stroke: #ffffff; stroke-linejoin: miter"/>
   </g>
   <g id="patch_30">
    <path d="M 399.782097 402.089 
L 411.779551 402.089 
L 411.779551 165.698224 
L 399.782097 165.698224 
z
" clip-path="url(#p2131812683)" style="fill: #8c0800; fill-opacity: 0.6; stroke: #ffffff; stroke-linejoin: miter"/>
   </g>
   <g id="patch_31">
    <path d="M 411.779551 402.089 
L 423.777006 402.089 
L 423.777006 186.933327 
L 411.779551 186.933327 
z
" clip-path="url(#p2131812683)" style="fill: #8c0800; fill-opacity: 0.6; stroke: #ffffff; stroke-linejoin: miter"/>
   </g>
   <g id="patch_32">
    <path d="M 423.777006 402.089 
L 435.77446 402.089 
L 435.77446 199.35386 
L 423.777006 199.35386 
z
" clip-path="url(#p2131812683)" style="fill: #8c0800; fill-opacity: 0.6; stroke: #ffffff; stroke-linejoin: miter"/>
   </g>
   <g id="patch_33">
    <path d="M 435.77446 402.089 
L 447.771915 402.089 
L 447.771915 216.983002 
L 435.77446 216.983002 
z
" clip-path="url(#p2131812683)" style="fill: #8c0800; fill-opacity: 0.6; stroke: #ffffff; stroke-linejoin: miter"/>
   </g>
   <g id="patch_34">
    <path d="M 447.771915 402.089 
L 459.769369 402.089 
L 459.769369 182.926704 
L 447.771915 182.926704 
z
" clip-path="url(#p2131812683)" style="fill: #8c0800; fill-opacity: 0.6; stroke: #ffffff; stroke-linejoin: miter"/>
   </g>
   <g id="patch_35">
    <path d="M 459.769369 402.089 
L 471.766824 402.089 
L 471.766824 234.612145 
L 459.769369 234.612145 
z
" clip-path="url(#p2131812683)" style="fill: #8c0800; fill-opacity: 0.6; stroke: #ffffff; stroke-linejoin: miter"/>
   </g>
   <g id="patch_36">
    <path d="M 471.766824 402.089 
L 483.764278 402.089 
L 483.764278 255.446586 
L 471.766824 255.446586 
z
" clip-path="url(#p2131812683)" style="fill: #8c0800; fill-opacity: 0.6; stroke: #ffffff; stroke-linejoin: miter"/>
   </g>
   <g id="patch_37">
    <path d="M 483.764278 402.089 
L 495.761733 402.089 
L 495.761733 283.49295 
L 483.764278 283.49295 
z
" clip-path="url(#p2131812683)" style="fill: #8c0800; fill-opacity: 0.6; stroke: #ffffff; stroke-linejoin: miter"/>
   </g>
   <g id="patch_38">
    <path d="M 495.761733 402.089 
L 507.759187 402.089 
L 507.759187 296.314144 
L 495.761733 296.314144 
z
" clip-path="url(#p2131812683)" style="fill: #8c0800; fill-opacity: 0.6; stroke: #ffffff; stroke-linejoin: miter"/>
   </g>
   <g id="patch_39">
    <path d="M 507.759188 402.089 
L 519.756642 402.089 
L 519.756642 301.923417 
L 507.759188 301.923417 
z
" clip-path="url(#p2131812683)" style="fill: #8c0800; fill-opacity: 0.6; stroke: #ffffff; stroke-linejoin: miter"/>
   </g>
   <g id="patch_40">
    <path d="M 519.756642 402.089 
L 531.754097 402.089 
L 531.754097 322.757858 
L 519.756642 322.757858 
z
" clip-path="url(#p2131812683)" style="fill: #8c0800; fill-opacity: 0.6; stroke: #ffffff; stroke-linejoin: miter"/>
   </g>
   <g id="patch_41">
    <path d="M 531.754097 402.089 
L 543.751551 402.089 
L 543.751551 331.572429 
L 531.754097 331.572429 
z
" clip-path="url(#p2131812683)" style="fill: #8c0800; fill-opacity: 0.6; stroke: #ffffff; stroke-linejoin: miter"/>
   </g>
   <g id="patch_42">
    <path d="M 543.751551 402.089 
L 555.749006 402.089 
L 555.749006 343.191637 
L 543.751551 343.191637 
z
" clip-path="url(#p2131812683)" style="fill: #8c0800; fill-opacity: 0.6; stroke: #ffffff; stroke-linejoin: miter"/>
   </g>
   <g id="patch_43">
    <path d="M 555.749006 402.089 
L 567.74646 402.089 
L 567.74646 365.228065 
L 555.749006 365.228065 
z
" clip-path="url(#p2131812683)" style="fill: #8c0800; fill-opacity: 0.6; stroke: #ffffff; stroke-linejoin: miter"/>
   </g>
   <g id="patch_44">
    <path d="M 567.74646 402.089 
L 579.743915 402.089 
L 579.743915 360.019455 
L 567.74646 360.019455 
z
" clip-path="url(#p2131812683)" style="fill: #8c0800; fill-opacity: 0.6; stroke: #ffffff; stroke-linejoin: miter"/>
   </g>
   <g id="patch_45">
    <path d="M 579.743915 402.089 
L 591.741369 402.089 
L 591.741369 374.042637 
L 579.743915 374.042637 
z
" clip-path="url(#p2131812683)" style="fill: #8c0800; fill-opacity: 0.6; stroke: #ffffff; stroke-linejoin: miter"/>
   </g>
   <g id="patch_46">
    <path d="M 591.741369 402.089 
L 603.738824 402.089 
L 603.738824 388.065818 
L 591.741369 388.065818 
z
" clip-path="url(#p2131812683)" style="fill: #8c0800; fill-opacity: 0.6; stroke: #ffffff; stroke-linejoin: miter"/>
   </g>
   <g id="patch_47">
    <path d="M 603.738824 402.089 
L 615.736278 402.089 
L 615.736278 391.671779 
L 603.738824 391.671779 
z
" clip-path="url(#p2131812683)" style="fill: #8c0800; fill-opacity: 0.6; stroke: #ffffff; stroke-linejoin: miter"/>
   </g>
   <g id="patch_48">
    <path d="M 615.736278 402.089 
L 627.733733 402.089 
L 627.733733 390.870455 
L 615.736278 390.870455 
z
" clip-path="url(#p2131812683)" style="fill: #8c0800; fill-opacity: 0.6; stroke: #ffffff; stroke-linejoin: miter"/>
   </g>
   <g id="patch_49">
    <path d="M 627.733733 402.089 
L 639.731188 402.089 
L 639.731188 393.675091 
L 627.733733 393.675091 
z
" clip-path="url(#p2131812683)" style="fill: #8c0800; fill-opacity: 0.6; stroke: #ffffff; stroke-linejoin: miter"/>
   </g>
   <g id="patch_50">
    <path d="M 639.731188 402.089 
L 651.728642 402.089 
L 651.728642 399.685026 
L 639.731188 399.685026 
z
" clip-path="url(#p2131812683)" style="fill: #8c0800; fill-opacity: 0.6; stroke: #ffffff; stroke-linejoin: miter"/>
   </g>
   <g id="patch_51">
    <path d="M 651.728642 402.089 
L 663.726097 402.089 
L 663.726097 400.486351 
L 651.728642 400.486351 
z
" clip-path="url(#p2131812683)" style="fill: #8c0800; fill-opacity: 0.6; stroke: #ffffff; stroke-linejoin: miter"/>
   </g>
   <g id="patch_52">
    <path d="M 663.726097 402.089 
L 675.723551 402.089 
L 675.723551 400.887013 
L 663.726097 400.887013 
z
" clip-path="url(#p2131812683)" style="fill: #8c0800; fill-opacity: 0.6; stroke: #ffffff; stroke-linejoin: miter"/>
   </g>
   <g id="line2d_16">
    <path d="M 75.850824 264.362052 
L 81.879695 228.521002 
L 84.894131 211.564493 
L 87.908567 195.681699 
L 90.923003 181.089586 
L 93.937439 167.914784 
L 96.951875 156.200816 
L 99.96631 145.92225 
L 102.980746 137.002246 
L 105.995182 129.330198 
L 109.009618 122.776916 
L 112.024054 117.205917 
L 115.038489 112.480569 
L 118.052925 108.467784 
L 121.067361 105.039557 
L 124.081797 102.073807 
L 127.096233 99.455765 
L 130.110669 97.0806 
L 136.13954 92.713657 
L 148.197283 84.343234 
L 151.211719 82.377787 
L 154.226155 80.56448 
L 157.240591 78.969814 
L 160.255027 77.654951 
L 163.269463 76.667139 
L 166.283898 76.033153 
L 169.298334 75.755758 
L 172.31277 75.813779 
L 175.327206 76.165863 
L 178.341642 76.757392 
L 181.356077 77.529431 
L 187.384949 79.41317 
L 193.413821 81.577156 
L 199.442692 84.087928 
L 202.457128 85.557903 
L 205.471564 87.224411 
L 208.486 89.120395 
L 211.500436 91.266707 
L 214.514871 93.669397 
L 217.529307 96.31928 
L 220.543743 99.193409 
L 226.572615 105.471422 
L 235.615922 115.563364 
L 244.65923 125.570331 
L 250.688101 131.95809 
L 259.731409 141.204218 
L 268.774716 150.220963 
L 274.803588 155.946898 
L 277.818023 158.615501 
L 280.832459 161.0881 
L 283.846895 163.313819 
L 286.861331 165.247586 
L 289.875767 166.855388 
L 292.890203 168.118346 
L 295.904638 169.034825 
L 298.919074 169.620128 
L 301.93351 169.903627 
L 304.947946 169.923719 
L 307.962382 169.72138 
L 310.976817 169.333434 
L 313.991253 168.786788 
L 317.005689 168.09472 
L 320.020125 167.255974 
L 323.034561 166.256854 
L 326.048997 165.075945 
L 329.063432 163.690582 
L 332.077868 162.083863 
L 335.092304 160.250972 
L 338.10674 158.203754 
L 344.135611 153.607572 
L 353.178919 146.407515 
L 356.193355 144.244867 
L 359.207791 142.338755 
L 362.222226 140.764288 
L 365.236662 139.58732 
L 368.251098 138.862482 
L 371.265534 138.631711 
L 374.27997 138.923076 
L 377.294405 139.749863 
L 380.308841 141.110023 
L 383.323277 142.986175 
L 386.337713 145.346371 
L 389.352149 148.145703 
L 392.366584 151.328689 
L 395.38102 154.832184 
L 398.395456 158.588462 
L 404.424328 166.582277 
L 413.467635 178.785749 
L 419.496507 186.382959 
L 422.510943 189.879162 
L 425.525378 193.131957 
L 428.539814 196.127252 
L 431.55425 198.869275 
L 434.568686 201.383775 
L 440.597558 205.948454 
L 446.626429 210.456107 
L 449.640865 212.940632 
L 452.655301 215.708967 
L 455.669737 218.837439 
L 458.684172 222.374839 
L 461.698608 226.337324 
L 464.713044 230.707492 
L 467.72748 235.437617 
L 473.756352 245.677123 
L 485.814095 266.824434 
L 491.842966 276.617254 
L 494.857402 281.192109 
L 497.871838 285.545421 
L 500.886274 289.68682 
L 506.915145 297.413688 
L 512.944017 304.575721 
L 518.972889 311.38743 
L 531.030632 324.535526 
L 543.088375 337.302591 
L 549.117247 343.430327 
L 555.146119 349.246405 
L 561.17499 354.650269 
L 567.203862 359.620303 
L 573.232733 364.242895 
L 582.276041 370.829672 
L 591.319348 377.141928 
L 597.34822 381.014317 
L 600.362656 382.78036 
L 603.377092 384.408339 
L 606.391527 385.88901 
L 609.405963 387.221969 
L 612.420399 388.415262 
L 618.449271 390.447176 
L 624.478142 392.143323 
L 633.52145 394.374482 
L 642.564757 396.417635 
L 651.608065 398.201114 
L 657.636936 399.167937 
L 663.665808 399.935327 
L 669.69468 400.52223 
L 675.723551 400.966601 
L 675.723551 400.966601 
" clip-path="url(#p2131812683)" style="fill: none; stroke: #8c0800; stroke-width: 1.5; stroke-linecap: round"/>
   </g>
   <g id="patch_53">
    <path d="M 45.857187 402.089 
L 705.717188 402.089 
" style="fill: none; stroke: #cccccc; stroke-width: 0.8; stroke-linejoin: miter; stroke-linecap: square"/>
   </g>
   <g id="text_17">
    <!-- 557 -->
    <g transform="translate(76.844707 175.471174) scale(0.06 -0.06)">
     <use xlink:href="#ArialMT-35"/>
     <use xlink:href="#ArialMT-35" transform="translate(55.615234 0)"/>
     <use xlink:href="#ArialMT-37" transform="translate(111.230469 0)"/>
    </g>
   </g>
   <g id="text_18">
    <!-- 618 -->
    <g transform="translate(88.842162 151.030772) scale(0.06 -0.06)">
     <use xlink:href="#ArialMT-36"/>
     <use xlink:href="#ArialMT-31" transform="translate(55.615234 0)"/>
     <use xlink:href="#ArialMT-38" transform="translate(111.230469 0)"/>
    </g>
   </g>
   <g id="text_19">
    <!-- 723 -->
    <g transform="translate(100.839616 108.961227) scale(0.06 -0.06)">
     <use xlink:href="#ArialMT-37"/>
     <use xlink:href="#ArialMT-32" transform="translate(55.615234 0)"/>
     <use xlink:href="#ArialMT-33" transform="translate(111.230469 0)"/>
    </g>
   </g>
   <g id="text_20">
    <!-- 747 -->
    <g transform="translate(112.837071 99.345331) scale(0.06 -0.06)">
     <use xlink:href="#ArialMT-37"/>
     <use xlink:href="#ArialMT-34" transform="translate(55.615234 0)"/>
     <use xlink:href="#ArialMT-37" transform="translate(111.230469 0)"/>
    </g>
   </g>
   <g id="text_21">
    <!-- 796 -->
    <g transform="translate(124.834526 79.712877) scale(0.06 -0.06)">
     <defs>
      <path id="ArialMT-39" d="M 350 1059 
L 891 1109 
Q 959 728 1153 556 
Q 1347 384 1650 384 
Q 1909 384 2104 503 
Q 2300 622 2425 820 
Q 2550 1019 2634 1356 
Q 2719 1694 2719 2044 
Q 2719 2081 2716 2156 
Q 2547 1888 2255 1720 
Q 1963 1553 1622 1553 
Q 1053 1553 659 1965 
Q 266 2378 266 3053 
Q 266 3750 677 4175 
Q 1088 4600 1706 4600 
Q 2153 4600 2523 4359 
Q 2894 4119 3086 3673 
Q 3278 3228 3278 2384 
Q 3278 1506 3087 986 
Q 2897 466 2520 194 
Q 2144 -78 1638 -78 
Q 1100 -78 759 220 
Q 419 519 350 1059 
z
M 2653 3081 
Q 2653 3566 2395 3850 
Q 2138 4134 1775 4134 
Q 1400 4134 1122 3828 
Q 844 3522 844 3034 
Q 844 2597 1108 2323 
Q 1372 2050 1759 2050 
Q 2150 2050 2401 2323 
Q 2653 2597 2653 3081 
z
" transform="scale(0.015625)"/>
     </defs>
     <use xlink:href="#ArialMT-37"/>
     <use xlink:href="#ArialMT-39" transform="translate(55.615234 0)"/>
     <use xlink:href="#ArialMT-36" transform="translate(111.230469 0)"/>
    </g>
   </g>
   <g id="text_22">
    <!-- 744 -->
    <g transform="translate(136.83198 100.547318) scale(0.06 -0.06)">
     <use xlink:href="#ArialMT-37"/>
     <use xlink:href="#ArialMT-34" transform="translate(55.615234 0)"/>
     <use xlink:href="#ArialMT-34" transform="translate(111.230469 0)"/>
    </g>
   </g>
   <g id="text_23">
    <!-- 831 -->
    <g transform="translate(148.829435 65.689695) scale(0.06 -0.06)">
     <use xlink:href="#ArialMT-38"/>
     <use xlink:href="#ArialMT-33" transform="translate(55.615234 0)"/>
     <use xlink:href="#ArialMT-31" transform="translate(111.230469 0)"/>
    </g>
   </g>
   <g id="text_24">
    <!-- 839 -->
    <g transform="translate(160.826889 62.484397) scale(0.06 -0.06)">
     <use xlink:href="#ArialMT-38"/>
     <use xlink:href="#ArialMT-33" transform="translate(55.615234 0)"/>
     <use xlink:href="#ArialMT-39" transform="translate(111.230469 0)"/>
    </g>
   </g>
   <g id="text_25">
    <!-- 852 -->
    <g transform="translate(172.824344 57.275786) scale(0.06 -0.06)">
     <use xlink:href="#ArialMT-38"/>
     <use xlink:href="#ArialMT-35" transform="translate(55.615234 0)"/>
     <use xlink:href="#ArialMT-32" transform="translate(111.230469 0)"/>
    </g>
   </g>
   <g id="text_26">
    <!-- 755 -->
    <g transform="translate(184.821798 96.140033) scale(0.06 -0.06)">
     <use xlink:href="#ArialMT-37"/>
     <use xlink:href="#ArialMT-35" transform="translate(55.615234 0)"/>
     <use xlink:href="#ArialMT-35" transform="translate(111.230469 0)"/>
    </g>
   </g>
   <g id="text_27">
    <!-- 857 -->
    <g transform="translate(196.819253 55.272475) scale(0.06 -0.06)">
     <use xlink:href="#ArialMT-38"/>
     <use xlink:href="#ArialMT-35" transform="translate(55.615234 0)"/>
     <use xlink:href="#ArialMT-37" transform="translate(111.230469 0)"/>
    </g>
   </g>
   <g id="text_28">
    <!-- 773 -->
    <g transform="translate(208.816707 88.928111) scale(0.06 -0.06)">
     <use xlink:href="#ArialMT-37"/>
     <use xlink:href="#ArialMT-37" transform="translate(55.615234 0)"/>
     <use xlink:href="#ArialMT-33" transform="translate(111.230469 0)"/>
    </g>
   </g>
   <g id="text_29">
    <!-- 762 -->
    <g transform="translate(220.814162 93.335396) scale(0.06 -0.06)">
     <use xlink:href="#ArialMT-37"/>
     <use xlink:href="#ArialMT-36" transform="translate(55.615234 0)"/>
     <use xlink:href="#ArialMT-32" transform="translate(111.230469 0)"/>
    </g>
   </g>
   <g id="text_30">
    <!-- 720 -->
    <g transform="translate(232.811616 110.163214) scale(0.06 -0.06)">
     <use xlink:href="#ArialMT-37"/>
     <use xlink:href="#ArialMT-32" transform="translate(55.615234 0)"/>
     <use xlink:href="#ArialMT-30" transform="translate(111.230469 0)"/>
    </g>
   </g>
   <g id="text_31">
    <!-- 671 -->
    <g transform="translate(244.809071 129.795669) scale(0.06 -0.06)">
     <use xlink:href="#ArialMT-36"/>
     <use xlink:href="#ArialMT-37" transform="translate(55.615234 0)"/>
     <use xlink:href="#ArialMT-31" transform="translate(111.230469 0)"/>
    </g>
   </g>
   <g id="text_32">
    <!-- 664 -->
    <g transform="translate(256.806526 132.600305) scale(0.06 -0.06)">
     <use xlink:href="#ArialMT-36"/>
     <use xlink:href="#ArialMT-36" transform="translate(55.615234 0)"/>
     <use xlink:href="#ArialMT-34" transform="translate(111.230469 0)"/>
    </g>
   </g>
   <g id="text_33">
    <!-- 646 -->
    <g transform="translate(268.80398 139.812227) scale(0.06 -0.06)">
     <use xlink:href="#ArialMT-36"/>
     <use xlink:href="#ArialMT-34" transform="translate(55.615234 0)"/>
     <use xlink:href="#ArialMT-36" transform="translate(111.230469 0)"/>
    </g>
   </g>
   <g id="text_34">
    <!-- 584 -->
    <g transform="translate(280.801435 164.653292) scale(0.06 -0.06)">
     <use xlink:href="#ArialMT-35"/>
     <use xlink:href="#ArialMT-38" transform="translate(55.615234 0)"/>
     <use xlink:href="#ArialMT-34" transform="translate(111.230469 0)"/>
    </g>
   </g>
   <g id="text_35">
    <!-- 535 -->
    <g transform="translate(292.798889 184.285746) scale(0.06 -0.06)">
     <use xlink:href="#ArialMT-35"/>
     <use xlink:href="#ArialMT-33" transform="translate(55.615234 0)"/>
     <use xlink:href="#ArialMT-35" transform="translate(111.230469 0)"/>
    </g>
   </g>
   <g id="text_36">
    <!-- 587 -->
    <g transform="translate(304.796344 163.451305) scale(0.06 -0.06)">
     <use xlink:href="#ArialMT-35"/>
     <use xlink:href="#ArialMT-38" transform="translate(55.615234 0)"/>
     <use xlink:href="#ArialMT-37" transform="translate(111.230469 0)"/>
    </g>
   </g>
   <g id="text_37">
    <!-- 616 -->
    <g transform="translate(316.793798 151.832097) scale(0.06 -0.06)">
     <use xlink:href="#ArialMT-36"/>
     <use xlink:href="#ArialMT-31" transform="translate(55.615234 0)"/>
     <use xlink:href="#ArialMT-36" transform="translate(111.230469 0)"/>
    </g>
   </g>
   <g id="text_38">
    <!-- 586 -->
    <g transform="translate(328.791253 163.851967) scale(0.06 -0.06)">
     <use xlink:href="#ArialMT-35"/>
     <use xlink:href="#ArialMT-38" transform="translate(55.615234 0)"/>
     <use xlink:href="#ArialMT-36" transform="translate(111.230469 0)"/>
    </g>
   </g>
   <g id="text_39">
    <!-- 598 -->
    <g transform="translate(340.788707 159.044019) scale(0.06 -0.06)">
     <use xlink:href="#ArialMT-35"/>
     <use xlink:href="#ArialMT-39" transform="translate(55.615234 0)"/>
     <use xlink:href="#ArialMT-38" transform="translate(111.230469 0)"/>
    </g>
   </g>
   <g id="text_40">
    <!-- 704 -->
    <g transform="translate(352.786162 116.573812) scale(0.06 -0.06)">
     <use xlink:href="#ArialMT-37"/>
     <use xlink:href="#ArialMT-30" transform="translate(55.615234 0)"/>
     <use xlink:href="#ArialMT-34" transform="translate(111.230469 0)"/>
    </g>
   </g>
   <g id="text_41">
    <!-- 667 -->
    <g transform="translate(364.783616 131.398318) scale(0.06 -0.06)">
     <use xlink:href="#ArialMT-36"/>
     <use xlink:href="#ArialMT-36" transform="translate(55.615234 0)"/>
     <use xlink:href="#ArialMT-37" transform="translate(111.230469 0)"/>
    </g>
   </g>
   <g id="text_42">
    <!-- 676 -->
    <g transform="translate(376.781071 127.792357) scale(0.06 -0.06)">
     <use xlink:href="#ArialMT-36"/>
     <use xlink:href="#ArialMT-37" transform="translate(55.615234 0)"/>
     <use xlink:href="#ArialMT-36" transform="translate(111.230469 0)"/>
    </g>
   </g>
   <g id="text_43">
    <!-- 644 -->
    <g transform="translate(388.778526 140.613552) scale(0.06 -0.06)">
     <use xlink:href="#ArialMT-36"/>
     <use xlink:href="#ArialMT-34" transform="translate(55.615234 0)"/>
     <use xlink:href="#ArialMT-34" transform="translate(111.230469 0)"/>
    </g>
   </g>
   <g id="text_44">
    <!-- 590 -->
    <g transform="translate(400.77598 162.249318) scale(0.06 -0.06)">
     <use xlink:href="#ArialMT-35"/>
     <use xlink:href="#ArialMT-39" transform="translate(55.615234 0)"/>
     <use xlink:href="#ArialMT-30" transform="translate(111.230469 0)"/>
    </g>
   </g>
   <g id="text_45">
    <!-- 537 -->
    <g transform="translate(412.773435 183.484421) scale(0.06 -0.06)">
     <use xlink:href="#ArialMT-35"/>
     <use xlink:href="#ArialMT-33" transform="translate(55.615234 0)"/>
     <use xlink:href="#ArialMT-37" transform="translate(111.230469 0)"/>
    </g>
   </g>
   <g id="text_46">
    <!-- 506 -->
    <g transform="translate(424.770889 195.904953) scale(0.06 -0.06)">
     <use xlink:href="#ArialMT-35"/>
     <use xlink:href="#ArialMT-30" transform="translate(55.615234 0)"/>
     <use xlink:href="#ArialMT-36" transform="translate(111.230469 0)"/>
    </g>
   </g>
   <g id="text_47">
    <!-- 462 -->
    <g transform="translate(436.768344 213.534096) scale(0.06 -0.06)">
     <use xlink:href="#ArialMT-34"/>
     <use xlink:href="#ArialMT-36" transform="translate(55.615234 0)"/>
     <use xlink:href="#ArialMT-32" transform="translate(111.230469 0)"/>
    </g>
   </g>
   <g id="text_48">
    <!-- 547 -->
    <g transform="translate(448.765798 179.477798) scale(0.06 -0.06)">
     <use xlink:href="#ArialMT-35"/>
     <use xlink:href="#ArialMT-34" transform="translate(55.615234 0)"/>
     <use xlink:href="#ArialMT-37" transform="translate(111.230469 0)"/>
    </g>
   </g>
   <g id="text_49">
    <!-- 418 -->
    <g transform="translate(460.763253 231.163239) scale(0.06 -0.06)">
     <use xlink:href="#ArialMT-34"/>
     <use xlink:href="#ArialMT-31" transform="translate(55.615234 0)"/>
     <use xlink:href="#ArialMT-38" transform="translate(111.230469 0)"/>
    </g>
   </g>
   <g id="text_50">
    <!-- 366 -->
    <g transform="translate(472.760707 251.99768) scale(0.06 -0.06)">
     <use xlink:href="#ArialMT-33"/>
     <use xlink:href="#ArialMT-36" transform="translate(55.615234 0)"/>
     <use xlink:href="#ArialMT-36" transform="translate(111.230469 0)"/>
    </g>
   </g>
   <g id="text_51">
    <!-- 296 -->
    <g transform="translate(484.758162 280.044043) scale(0.06 -0.06)">
     <use xlink:href="#ArialMT-32"/>
     <use xlink:href="#ArialMT-39" transform="translate(55.615234 0)"/>
     <use xlink:href="#ArialMT-36" transform="translate(111.230469 0)"/>
    </g>
   </g>
   <g id="text_52">
    <!-- 264 -->
    <g transform="translate(496.755616 292.865238) scale(0.06 -0.06)">
     <use xlink:href="#ArialMT-32"/>
     <use xlink:href="#ArialMT-36" transform="translate(55.615234 0)"/>
     <use xlink:href="#ArialMT-34" transform="translate(111.230469 0)"/>
    </g>
   </g>
   <g id="text_53">
    <!-- 250 -->
    <g transform="translate(508.753071 298.474511) scale(0.06 -0.06)">
     <use xlink:href="#ArialMT-32"/>
     <use xlink:href="#ArialMT-35" transform="translate(55.615234 0)"/>
     <use xlink:href="#ArialMT-30" transform="translate(111.230469 0)"/>
    </g>
   </g>
   <g id="text_54">
    <!-- 198 -->
    <g transform="translate(520.750526 319.308952) scale(0.06 -0.06)">
     <use xlink:href="#ArialMT-31"/>
     <use xlink:href="#ArialMT-39" transform="translate(55.615234 0)"/>
     <use xlink:href="#ArialMT-38" transform="translate(111.230469 0)"/>
    </g>
   </g>
   <g id="text_55">
    <!-- 176 -->
    <g transform="translate(532.74798 328.123523) scale(0.06 -0.06)">
     <use xlink:href="#ArialMT-31"/>
     <use xlink:href="#ArialMT-37" transform="translate(55.615234 0)"/>
     <use xlink:href="#ArialMT-36" transform="translate(111.230469 0)"/>
    </g>
   </g>
   <g id="text_56">
    <!-- 147 -->
    <g transform="translate(544.745435 339.742731) scale(0.06 -0.06)">
     <use xlink:href="#ArialMT-31"/>
     <use xlink:href="#ArialMT-34" transform="translate(55.615234 0)"/>
     <use xlink:href="#ArialMT-37" transform="translate(111.230469 0)"/>
    </g>
   </g>
   <g id="text_57">
    <!-- 92 -->
    <g transform="translate(558.41117 361.779159) scale(0.06 -0.06)">
     <use xlink:href="#ArialMT-39"/>
     <use xlink:href="#ArialMT-32" transform="translate(55.615234 0)"/>
    </g>
   </g>
   <g id="text_58">
    <!-- 105 -->
    <g transform="translate(568.740344 356.570549) scale(0.06 -0.06)">
     <use xlink:href="#ArialMT-31"/>
     <use xlink:href="#ArialMT-30" transform="translate(55.615234 0)"/>
     <use xlink:href="#ArialMT-35" transform="translate(111.230469 0)"/>
    </g>
   </g>
   <g id="text_59">
    <!-- 70 -->
    <g transform="translate(582.40608 370.59373) scale(0.06 -0.06)">
     <use xlink:href="#ArialMT-37"/>
     <use xlink:href="#ArialMT-30" transform="translate(55.615234 0)"/>
    </g>
   </g>
   <g id="text_60">
    <!-- 35 -->
    <g transform="translate(594.403534 384.616912) scale(0.06 -0.06)">
     <use xlink:href="#ArialMT-33"/>
     <use xlink:href="#ArialMT-35" transform="translate(55.615234 0)"/>
    </g>
   </g>
   <g id="text_61">
    <!-- 26 -->
    <g transform="translate(606.400989 388.222873) scale(0.06 -0.06)">
     <use xlink:href="#ArialMT-32"/>
     <use xlink:href="#ArialMT-36" transform="translate(55.615234 0)"/>
    </g>
   </g>
   <g id="text_62">
    <!-- 28 -->
    <g transform="translate(618.398443 387.421548) scale(0.06 -0.06)">
     <use xlink:href="#ArialMT-32"/>
     <use xlink:href="#ArialMT-38" transform="translate(55.615234 0)"/>
    </g>
   </g>
   <g id="text_63">
    <!-- 21 -->
    <g transform="translate(630.395898 390.226185) scale(0.06 -0.06)">
     <use xlink:href="#ArialMT-32"/>
     <use xlink:href="#ArialMT-31" transform="translate(55.615234 0)"/>
    </g>
   </g>
   <g id="text_64">
    <!-- 6 -->
    <g transform="translate(644.061634 396.23612) scale(0.06 -0.06)">
     <use xlink:href="#ArialMT-36"/>
    </g>
   </g>
   <g id="text_65">
    <!-- 4 -->
    <g transform="translate(656.059088 397.037444) scale(0.06 -0.06)">
     <use xlink:href="#ArialMT-34"/>
    </g>
   </g>
   <g id="text_66">
    <!-- 3 -->
    <g transform="translate(668.056543 397.438107) scale(0.06 -0.06)">
     <use xlink:href="#ArialMT-33"/>
    </g>
   </g>
   <g id="text_67">
    <!-- Edad -->
    <g style="fill: #262626" transform="translate(356.229688 18.6525) scale(0.16 -0.16)">
     <defs>
      <path id="Arial-BoldMT-45" d="M 466 0 
L 466 4581 
L 3863 4581 
L 3863 3806 
L 1391 3806 
L 1391 2791 
L 3691 2791 
L 3691 2019 
L 1391 2019 
L 1391 772 
L 3950 772 
L 3950 0 
L 466 0 
z
" transform="scale(0.015625)"/>
      <path id="Arial-BoldMT-64" d="M 3503 0 
L 2688 0 
L 2688 488 
Q 2484 203 2207 64 
Q 1931 -75 1650 -75 
Q 1078 -75 670 386 
Q 263 847 263 1672 
Q 263 2516 659 2955 
Q 1056 3394 1663 3394 
Q 2219 3394 2625 2931 
L 2625 4581 
L 3503 4581 
L 3503 0 
z
M 1159 1731 
Q 1159 1200 1306 963 
Q 1519 619 1900 619 
Q 2203 619 2415 876 
Q 2628 1134 2628 1647 
Q 2628 2219 2422 2470 
Q 2216 2722 1894 2722 
Q 1581 2722 1370 2473 
Q 1159 2225 1159 1731 
z
" transform="scale(0.015625)"/>
      <path id="Arial-BoldMT-61" d="M 1116 2306 
L 319 2450 
Q 453 2931 781 3162 
Q 1109 3394 1756 3394 
Q 2344 3394 2631 3255 
Q 2919 3116 3036 2902 
Q 3153 2688 3153 2116 
L 3144 1091 
Q 3144 653 3186 445 
Q 3228 238 3344 0 
L 2475 0 
Q 2441 88 2391 259 
Q 2369 338 2359 363 
Q 2134 144 1878 34 
Q 1622 -75 1331 -75 
Q 819 -75 523 203 
Q 228 481 228 906 
Q 228 1188 362 1408 
Q 497 1628 739 1745 
Q 981 1863 1438 1950 
Q 2053 2066 2291 2166 
L 2291 2253 
Q 2291 2506 2166 2614 
Q 2041 2722 1694 2722 
Q 1459 2722 1328 2630 
Q 1197 2538 1116 2306 
z
M 2291 1594 
Q 2122 1538 1756 1459 
Q 1391 1381 1278 1306 
Q 1106 1184 1106 997 
Q 1106 813 1243 678 
Q 1381 544 1594 544 
Q 1831 544 2047 700 
Q 2206 819 2256 991 
Q 2291 1103 2291 1419 
L 2291 1594 
z
" transform="scale(0.015625)"/>
     </defs>
     <use xlink:href="#Arial-BoldMT-45"/>
     <use xlink:href="#Arial-BoldMT-64" transform="translate(66.699219 0)"/>
     <use xlink:href="#Arial-BoldMT-61" transform="translate(127.783203 0)"/>
     <use xlink:href="#Arial-BoldMT-64" transform="translate(183.398438 0)"/>
    </g>
    <!--  -->
    <g style="fill: #262626" transform="translate(375.787188 35.553) scale(0.16 -0.16)"/>
   </g>
  </g>
 </g>
 <defs>
  <clipPath id="p2131812683">
   <rect x="45.857188" y="41.553" width="659.86" height="360.536"/>
  </clipPath>
 </defs>
</svg>
