<?xml version="1.0" encoding="utf-8" standalone="no"?>
<!DOCTYPE svg PUBLIC "-//W3C//DTD SVG 1.1//EN"
  "http://www.w3.org/Graphics/SVG/1.1/DTD/svg11.dtd">
<svg xmlns:xlink="http://www.w3.org/1999/xlink" width="712.879062pt" height="425.738063pt" viewBox="0 0 712.879062 425.738063" xmlns="http://www.w3.org/2000/svg" version="1.1">
 <metadata>
  <rdf:RDF xmlns:dc="http://purl.org/dc/elements/1.1/" xmlns:cc="http://creativecommons.org/ns#" xmlns:rdf="http://www.w3.org/1999/02/22-rdf-syntax-ns#">
   <cc:Work>
    <dc:type rdf:resource="http://purl.org/dc/dcmitype/StillImage"/>
    <dc:date>2025-03-18T21:43:31.969701</dc:date>
    <dc:format>image/svg+xml</dc:format>
    <dc:creator>
     <cc:Agent>
      <dc:title>Matplotlib v3.10.0, https://matplotlib.org/</dc:title>
     </cc:Agent>
    </dc:creator>
   </cc:Work>
  </rdf:RDF>
 </metadata>
 <defs>
  <style type="text/css">*{stroke-linejoin: round; stroke-linecap: butt}</style>
 </defs>
 <g id="figure_1">
  <g id="patch_1">
   <path d="M 0 425.738063 
L 712.879062 425.738063 
L 712.879062 0 
L 0 0 
z
" style="fill: #ffffff"/>
  </g>
  <g id="axes_1">
   <g id="patch_2">
    <path d="M 56.979063 402.39275 
L 705.679062 402.39275 
L 705.679062 41.958 
L 56.979063 41.958 
z
" style="fill: #ffffff"/>
   </g>
   <g id="matplotlib.axis_1">
    <g id="xtick_1">
     <g id="line2d_1">
      <path d="M 160.181335 402.39275 
L 160.181335 41.958 
" clip-path="url(#pd28d5f8b79)" style="fill: none; stroke-dasharray: 2.96,1.28; stroke-dashoffset: 0; stroke: #cccccc; stroke-opacity: 0; stroke-width: 0.8"/>
     </g>
     <g id="text_1">
      <!-- 2 -->
      <g style="fill: #262626" transform="translate(157.400866 416.550563) scale(0.1 -0.1)">
       <defs>
        <path id="ArialMT-32" d="M 3222 541 
L 3222 0 
L 194 0 
Q 188 203 259 391 
Q 375 700 629 1000 
Q 884 1300 1366 1694 
Q 2113 2306 2375 2664 
Q 2638 3022 2638 3341 
Q 2638 3675 2398 3904 
Q 2159 4134 1775 4134 
Q 1369 4134 1125 3890 
Q 881 3647 878 3216 
L 300 3275 
Q 359 3922 746 4261 
Q 1134 4600 1788 4600 
Q 2447 4600 2831 4234 
Q 3216 3869 3216 3328 
Q 3216 3053 3103 2787 
Q 2991 2522 2730 2228 
Q 2469 1934 1863 1422 
Q 1356 997 1212 845 
Q 1069 694 975 541 
L 3222 541 
z
" transform="scale(0.015625)"/>
       </defs>
       <use xlink:href="#ArialMT-32"/>
      </g>
     </g>
    </g>
    <g id="xtick_2">
     <g id="line2d_2">
      <path d="M 307.613153 402.39275 
L 307.613153 41.958 
" clip-path="url(#pd28d5f8b79)" style="fill: none; stroke-dasharray: 2.96,1.28; stroke-dashoffset: 0; stroke: #cccccc; stroke-opacity: 0; stroke-width: 0.8"/>
     </g>
     <g id="text_2">
      <!-- 1 -->
      <g style="fill: #262626" transform="translate(304.832685 416.550563) scale(0.1 -0.1)">
       <defs>
        <path id="ArialMT-31" d="M 2384 0 
L 1822 0 
L 1822 3584 
Q 1619 3391 1289 3197 
Q 959 3003 697 2906 
L 697 3450 
Q 1169 3672 1522 3987 
Q 1875 4303 2022 4600 
L 2384 4600 
L 2384 0 
z
" transform="scale(0.015625)"/>
       </defs>
       <use xlink:href="#ArialMT-31"/>
      </g>
     </g>
    </g>
    <g id="xtick_3">
     <g id="line2d_3">
      <path d="M 455.044972 402.39275 
L 455.044972 41.958 
" clip-path="url(#pd28d5f8b79)" style="fill: none; stroke-dasharray: 2.96,1.28; stroke-dashoffset: 0; stroke: #cccccc; stroke-opacity: 0; stroke-width: 0.8"/>
     </g>
     <g id="text_3">
      <!--   -->
      <g style="fill: #262626" transform="translate(453.655909 416.550563) scale(0.1 -0.1)">
       <defs>
        <path id="ArialMT-20" transform="scale(0.015625)"/>
       </defs>
       <use xlink:href="#ArialMT-20"/>
      </g>
     </g>
    </g>
    <g id="xtick_4">
     <g id="line2d_4">
      <path d="M 602.47679 402.39275 
L 602.47679 41.958 
" clip-path="url(#pd28d5f8b79)" style="fill: none; stroke-dasharray: 2.96,1.28; stroke-dashoffset: 0; stroke: #cccccc; stroke-opacity: 0; stroke-width: 0.8"/>
     </g>
     <g id="text_4">
      <!-- 9 -->
      <g style="fill: #262626" transform="translate(599.696321 416.550563) scale(0.1 -0.1)">
       <defs>
        <path id="ArialMT-39" d="M 350 1059 
L 891 1109 
Q 959 728 1153 556 
Q 1347 384 1650 384 
Q 1909 384 2104 503 
Q 2300 622 2425 820 
Q 2550 1019 2634 1356 
Q 2719 1694 2719 2044 
Q 2719 2081 2716 2156 
Q 2547 1888 2255 1720 
Q 1963 1553 1622 1553 
Q 1053 1553 659 1965 
Q 266 2378 266 3053 
Q 266 3750 677 4175 
Q 1088 4600 1706 4600 
Q 2153 4600 2523 4359 
Q 2894 4119 3086 3673 
Q 3278 3228 3278 2384 
Q 3278 1506 3087 986 
Q 2897 466 2520 194 
Q 2144 -78 1638 -78 
Q 1100 -78 759 220 
Q 419 519 350 1059 
z
M 2653 3081 
Q 2653 3566 2395 3850 
Q 2138 4134 1775 4134 
Q 1400 4134 1122 3828 
Q 844 3522 844 3034 
Q 844 2597 1108 2323 
Q 1372 2050 1759 2050 
Q 2150 2050 2401 2323 
Q 2653 2597 2653 3081 
z
" transform="scale(0.015625)"/>
       </defs>
       <use xlink:href="#ArialMT-39"/>
      </g>
     </g>
    </g>
   </g>
   <g id="matplotlib.axis_2">
    <g id="ytick_1">
     <g id="line2d_5">
      <path d="M 56.979063 402.39275 
L 705.679062 402.39275 
" clip-path="url(#pd28d5f8b79)" style="fill: none; stroke-dasharray: 2.96,1.28; stroke-dashoffset: 0; stroke: #cccccc; stroke-opacity: 0.7; stroke-width: 0.8"/>
     </g>
     <g id="text_5">
      <!-- 0 -->
      <g style="fill: #262626" transform="translate(44.418125 405.971656) scale(0.1 -0.1)">
       <defs>
        <path id="ArialMT-30" d="M 266 2259 
Q 266 3072 433 3567 
Q 600 4063 929 4331 
Q 1259 4600 1759 4600 
Q 2128 4600 2406 4451 
Q 2684 4303 2865 4023 
Q 3047 3744 3150 3342 
Q 3253 2941 3253 2259 
Q 3253 1453 3087 958 
Q 2922 463 2592 192 
Q 2263 -78 1759 -78 
Q 1097 -78 719 397 
Q 266 969 266 2259 
z
M 844 2259 
Q 844 1131 1108 757 
Q 1372 384 1759 384 
Q 2147 384 2411 759 
Q 2675 1134 2675 2259 
Q 2675 3391 2411 3762 
Q 2147 4134 1753 4134 
Q 1366 4134 1134 3806 
Q 844 3388 844 2259 
z
" transform="scale(0.015625)"/>
       </defs>
       <use xlink:href="#ArialMT-30"/>
      </g>
     </g>
    </g>
    <g id="ytick_2">
     <g id="line2d_6">
      <path d="M 56.979063 351.12918 
L 705.679062 351.12918 
" clip-path="url(#pd28d5f8b79)" style="fill: none; stroke-dasharray: 2.96,1.28; stroke-dashoffset: 0; stroke: #cccccc; stroke-opacity: 0.7; stroke-width: 0.8"/>
     </g>
     <g id="text_6">
      <!-- 10000 -->
      <g style="fill: #262626" transform="translate(22.174375 354.708086) scale(0.1 -0.1)">
       <use xlink:href="#ArialMT-31"/>
       <use xlink:href="#ArialMT-30" transform="translate(55.615234 0)"/>
       <use xlink:href="#ArialMT-30" transform="translate(111.230469 0)"/>
       <use xlink:href="#ArialMT-30" transform="translate(166.845703 0)"/>
       <use xlink:href="#ArialMT-30" transform="translate(222.460938 0)"/>
      </g>
     </g>
    </g>
    <g id="ytick_3">
     <g id="line2d_7">
      <path d="M 56.979063 299.86561 
L 705.679062 299.86561 
" clip-path="url(#pd28d5f8b79)" style="fill: none; stroke-dasharray: 2.96,1.28; stroke-dashoffset: 0; stroke: #cccccc; stroke-opacity: 0.7; stroke-width: 0.8"/>
     </g>
     <g id="text_7">
      <!-- 20000 -->
      <g style="fill: #262626" transform="translate(22.174375 303.444517) scale(0.1 -0.1)">
       <use xlink:href="#ArialMT-32"/>
       <use xlink:href="#ArialMT-30" transform="translate(55.615234 0)"/>
       <use xlink:href="#ArialMT-30" transform="translate(111.230469 0)"/>
       <use xlink:href="#ArialMT-30" transform="translate(166.845703 0)"/>
       <use xlink:href="#ArialMT-30" transform="translate(222.460938 0)"/>
      </g>
     </g>
    </g>
    <g id="ytick_4">
     <g id="line2d_8">
      <path d="M 56.979063 248.602041 
L 705.679062 248.602041 
" clip-path="url(#pd28d5f8b79)" style="fill: none; stroke-dasharray: 2.96,1.28; stroke-dashoffset: 0; stroke: #cccccc; stroke-opacity: 0.7; stroke-width: 0.8"/>
     </g>
     <g id="text_8">
      <!-- 30000 -->
      <g style="fill: #262626" transform="translate(22.174375 252.180947) scale(0.1 -0.1)">
       <defs>
        <path id="ArialMT-33" d="M 269 1209 
L 831 1284 
Q 928 806 1161 595 
Q 1394 384 1728 384 
Q 2125 384 2398 659 
Q 2672 934 2672 1341 
Q 2672 1728 2419 1979 
Q 2166 2231 1775 2231 
Q 1616 2231 1378 2169 
L 1441 2663 
Q 1497 2656 1531 2656 
Q 1891 2656 2178 2843 
Q 2466 3031 2466 3422 
Q 2466 3731 2256 3934 
Q 2047 4138 1716 4138 
Q 1388 4138 1169 3931 
Q 950 3725 888 3313 
L 325 3413 
Q 428 3978 793 4289 
Q 1159 4600 1703 4600 
Q 2078 4600 2393 4439 
Q 2709 4278 2876 4000 
Q 3044 3722 3044 3409 
Q 3044 3113 2884 2869 
Q 2725 2625 2413 2481 
Q 2819 2388 3044 2092 
Q 3269 1797 3269 1353 
Q 3269 753 2831 336 
Q 2394 -81 1725 -81 
Q 1122 -81 723 278 
Q 325 638 269 1209 
z
" transform="scale(0.015625)"/>
       </defs>
       <use xlink:href="#ArialMT-33"/>
       <use xlink:href="#ArialMT-30" transform="translate(55.615234 0)"/>
       <use xlink:href="#ArialMT-30" transform="translate(111.230469 0)"/>
       <use xlink:href="#ArialMT-30" transform="translate(166.845703 0)"/>
       <use xlink:href="#ArialMT-30" transform="translate(222.460938 0)"/>
      </g>
     </g>
    </g>
    <g id="ytick_5">
     <g id="line2d_9">
      <path d="M 56.979063 197.338471 
L 705.679062 197.338471 
" clip-path="url(#pd28d5f8b79)" style="fill: none; stroke-dasharray: 2.96,1.28; stroke-dashoffset: 0; stroke: #cccccc; stroke-opacity: 0.7; stroke-width: 0.8"/>
     </g>
     <g id="text_9">
      <!-- 40000 -->
      <g style="fill: #262626" transform="translate(22.174375 200.917377) scale(0.1 -0.1)">
       <defs>
        <path id="ArialMT-34" d="M 2069 0 
L 2069 1097 
L 81 1097 
L 81 1613 
L 2172 4581 
L 2631 4581 
L 2631 1613 
L 3250 1613 
L 3250 1097 
L 2631 1097 
L 2631 0 
L 2069 0 
z
M 2069 1613 
L 2069 3678 
L 634 1613 
L 2069 1613 
z
" transform="scale(0.015625)"/>
       </defs>
       <use xlink:href="#ArialMT-34"/>
       <use xlink:href="#ArialMT-30" transform="translate(55.615234 0)"/>
       <use xlink:href="#ArialMT-30" transform="translate(111.230469 0)"/>
       <use xlink:href="#ArialMT-30" transform="translate(166.845703 0)"/>
       <use xlink:href="#ArialMT-30" transform="translate(222.460938 0)"/>
      </g>
     </g>
    </g>
    <g id="ytick_6">
     <g id="line2d_10">
      <path d="M 56.979063 146.074901 
L 705.679062 146.074901 
" clip-path="url(#pd28d5f8b79)" style="fill: none; stroke-dasharray: 2.96,1.28; stroke-dashoffset: 0; stroke: #cccccc; stroke-opacity: 0.7; stroke-width: 0.8"/>
     </g>
     <g id="text_10">
      <!-- 50000 -->
      <g style="fill: #262626" transform="translate(22.174375 149.653807) scale(0.1 -0.1)">
       <defs>
        <path id="ArialMT-35" d="M 266 1200 
L 856 1250 
Q 922 819 1161 601 
Q 1400 384 1738 384 
Q 2144 384 2425 690 
Q 2706 997 2706 1503 
Q 2706 1984 2436 2262 
Q 2166 2541 1728 2541 
Q 1456 2541 1237 2417 
Q 1019 2294 894 2097 
L 366 2166 
L 809 4519 
L 3088 4519 
L 3088 3981 
L 1259 3981 
L 1013 2750 
Q 1425 3038 1878 3038 
Q 2478 3038 2890 2622 
Q 3303 2206 3303 1553 
Q 3303 931 2941 478 
Q 2500 -78 1738 -78 
Q 1113 -78 717 272 
Q 322 622 266 1200 
z
" transform="scale(0.015625)"/>
       </defs>
       <use xlink:href="#ArialMT-35"/>
       <use xlink:href="#ArialMT-30" transform="translate(55.615234 0)"/>
       <use xlink:href="#ArialMT-30" transform="translate(111.230469 0)"/>
       <use xlink:href="#ArialMT-30" transform="translate(166.845703 0)"/>
       <use xlink:href="#ArialMT-30" transform="translate(222.460938 0)"/>
      </g>
     </g>
    </g>
    <g id="ytick_7">
     <g id="line2d_11">
      <path d="M 56.979063 94.811331 
L 705.679062 94.811331 
" clip-path="url(#pd28d5f8b79)" style="fill: none; stroke-dasharray: 2.96,1.28; stroke-dashoffset: 0; stroke: #cccccc; stroke-opacity: 0.7; stroke-width: 0.8"/>
     </g>
     <g id="text_11">
      <!-- 60000 -->
      <g style="fill: #262626" transform="translate(22.174375 98.390237) scale(0.1 -0.1)">
       <defs>
        <path id="ArialMT-36" d="M 3184 3459 
L 2625 3416 
Q 2550 3747 2413 3897 
Q 2184 4138 1850 4138 
Q 1581 4138 1378 3988 
Q 1113 3794 959 3422 
Q 806 3050 800 2363 
Q 1003 2672 1297 2822 
Q 1591 2972 1913 2972 
Q 2475 2972 2870 2558 
Q 3266 2144 3266 1488 
Q 3266 1056 3080 686 
Q 2894 316 2569 119 
Q 2244 -78 1831 -78 
Q 1128 -78 684 439 
Q 241 956 241 2144 
Q 241 3472 731 4075 
Q 1159 4600 1884 4600 
Q 2425 4600 2770 4297 
Q 3116 3994 3184 3459 
z
M 888 1484 
Q 888 1194 1011 928 
Q 1134 663 1356 523 
Q 1578 384 1822 384 
Q 2178 384 2434 671 
Q 2691 959 2691 1453 
Q 2691 1928 2437 2201 
Q 2184 2475 1800 2475 
Q 1419 2475 1153 2201 
Q 888 1928 888 1484 
z
" transform="scale(0.015625)"/>
       </defs>
       <use xlink:href="#ArialMT-36"/>
       <use xlink:href="#ArialMT-30" transform="translate(55.615234 0)"/>
       <use xlink:href="#ArialMT-30" transform="translate(111.230469 0)"/>
       <use xlink:href="#ArialMT-30" transform="translate(166.845703 0)"/>
       <use xlink:href="#ArialMT-30" transform="translate(222.460938 0)"/>
      </g>
     </g>
    </g>
    <g id="ytick_8">
     <g id="line2d_12">
      <path d="M 56.979063 43.547761 
L 705.679062 43.547761 
" clip-path="url(#pd28d5f8b79)" style="fill: none; stroke-dasharray: 2.96,1.28; stroke-dashoffset: 0; stroke: #cccccc; stroke-opacity: 0.7; stroke-width: 0.8"/>
     </g>
     <g id="text_12">
      <!-- 70000 -->
      <g style="fill: #262626" transform="translate(22.174375 47.126668) scale(0.1 -0.1)">
       <defs>
        <path id="ArialMT-37" d="M 303 3981 
L 303 4522 
L 3269 4522 
L 3269 4084 
Q 2831 3619 2401 2847 
Q 1972 2075 1738 1259 
Q 1569 684 1522 0 
L 944 0 
Q 953 541 1156 1306 
Q 1359 2072 1739 2783 
Q 2119 3494 2547 3981 
L 303 3981 
z
" transform="scale(0.015625)"/>
       </defs>
       <use xlink:href="#ArialMT-37"/>
       <use xlink:href="#ArialMT-30" transform="translate(55.615234 0)"/>
       <use xlink:href="#ArialMT-30" transform="translate(111.230469 0)"/>
       <use xlink:href="#ArialMT-30" transform="translate(166.845703 0)"/>
       <use xlink:href="#ArialMT-30" transform="translate(222.460938 0)"/>
      </g>
     </g>
    </g>
    <g id="text_13">
     <!-- Frecuencia -->
     <g style="fill: #262626" transform="translate(15.789375 251.853813) rotate(-90) scale(0.12 -0.12)">
      <defs>
       <path id="ArialMT-46" d="M 525 0 
L 525 4581 
L 3616 4581 
L 3616 4041 
L 1131 4041 
L 1131 2622 
L 3281 2622 
L 3281 2081 
L 1131 2081 
L 1131 0 
L 525 0 
z
" transform="scale(0.015625)"/>
       <path id="ArialMT-72" d="M 416 0 
L 416 3319 
L 922 3319 
L 922 2816 
Q 1116 3169 1280 3281 
Q 1444 3394 1641 3394 
Q 1925 3394 2219 3213 
L 2025 2691 
Q 1819 2813 1613 2813 
Q 1428 2813 1281 2702 
Q 1134 2591 1072 2394 
Q 978 2094 978 1738 
L 978 0 
L 416 0 
z
" transform="scale(0.015625)"/>
       <path id="ArialMT-65" d="M 2694 1069 
L 3275 997 
Q 3138 488 2766 206 
Q 2394 -75 1816 -75 
Q 1088 -75 661 373 
Q 234 822 234 1631 
Q 234 2469 665 2931 
Q 1097 3394 1784 3394 
Q 2450 3394 2872 2941 
Q 3294 2488 3294 1666 
Q 3294 1616 3291 1516 
L 816 1516 
Q 847 969 1125 678 
Q 1403 388 1819 388 
Q 2128 388 2347 550 
Q 2566 713 2694 1069 
z
M 847 1978 
L 2700 1978 
Q 2663 2397 2488 2606 
Q 2219 2931 1791 2931 
Q 1403 2931 1139 2672 
Q 875 2413 847 1978 
z
" transform="scale(0.015625)"/>
       <path id="ArialMT-63" d="M 2588 1216 
L 3141 1144 
Q 3050 572 2676 248 
Q 2303 -75 1759 -75 
Q 1078 -75 664 370 
Q 250 816 250 1647 
Q 250 2184 428 2587 
Q 606 2991 970 3192 
Q 1334 3394 1763 3394 
Q 2303 3394 2647 3120 
Q 2991 2847 3088 2344 
L 2541 2259 
Q 2463 2594 2264 2762 
Q 2066 2931 1784 2931 
Q 1359 2931 1093 2626 
Q 828 2322 828 1663 
Q 828 994 1084 691 
Q 1341 388 1753 388 
Q 2084 388 2306 591 
Q 2528 794 2588 1216 
z
" transform="scale(0.015625)"/>
       <path id="ArialMT-75" d="M 2597 0 
L 2597 488 
Q 2209 -75 1544 -75 
Q 1250 -75 995 37 
Q 741 150 617 320 
Q 494 491 444 738 
Q 409 903 409 1263 
L 409 3319 
L 972 3319 
L 972 1478 
Q 972 1038 1006 884 
Q 1059 663 1231 536 
Q 1403 409 1656 409 
Q 1909 409 2131 539 
Q 2353 669 2445 892 
Q 2538 1116 2538 1541 
L 2538 3319 
L 3100 3319 
L 3100 0 
L 2597 0 
z
" transform="scale(0.015625)"/>
       <path id="ArialMT-6e" d="M 422 0 
L 422 3319 
L 928 3319 
L 928 2847 
Q 1294 3394 1984 3394 
Q 2284 3394 2536 3286 
Q 2788 3178 2913 3003 
Q 3038 2828 3088 2588 
Q 3119 2431 3119 2041 
L 3119 0 
L 2556 0 
L 2556 2019 
Q 2556 2363 2490 2533 
Q 2425 2703 2258 2804 
Q 2091 2906 1866 2906 
Q 1506 2906 1245 2678 
Q 984 2450 984 1813 
L 984 0 
L 422 0 
z
" transform="scale(0.015625)"/>
       <path id="ArialMT-69" d="M 425 3934 
L 425 4581 
L 988 4581 
L 988 3934 
L 425 3934 
z
M 425 0 
L 425 3319 
L 988 3319 
L 988 0 
L 425 0 
z
" transform="scale(0.015625)"/>
       <path id="ArialMT-61" d="M 2588 409 
Q 2275 144 1986 34 
Q 1697 -75 1366 -75 
Q 819 -75 525 192 
Q 231 459 231 875 
Q 231 1119 342 1320 
Q 453 1522 633 1644 
Q 813 1766 1038 1828 
Q 1203 1872 1538 1913 
Q 2219 1994 2541 2106 
Q 2544 2222 2544 2253 
Q 2544 2597 2384 2738 
Q 2169 2928 1744 2928 
Q 1347 2928 1158 2789 
Q 969 2650 878 2297 
L 328 2372 
Q 403 2725 575 2942 
Q 747 3159 1072 3276 
Q 1397 3394 1825 3394 
Q 2250 3394 2515 3294 
Q 2781 3194 2906 3042 
Q 3031 2891 3081 2659 
Q 3109 2516 3109 2141 
L 3109 1391 
Q 3109 606 3145 398 
Q 3181 191 3288 0 
L 2700 0 
Q 2613 175 2588 409 
z
M 2541 1666 
Q 2234 1541 1622 1453 
Q 1275 1403 1131 1340 
Q 988 1278 909 1158 
Q 831 1038 831 891 
Q 831 666 1001 516 
Q 1172 366 1500 366 
Q 1825 366 2078 508 
Q 2331 650 2450 897 
Q 2541 1088 2541 1459 
L 2541 1666 
z
" transform="scale(0.015625)"/>
      </defs>
      <use xlink:href="#ArialMT-46"/>
      <use xlink:href="#ArialMT-72" transform="translate(61.083984 0)"/>
      <use xlink:href="#ArialMT-65" transform="translate(94.384766 0)"/>
      <use xlink:href="#ArialMT-63" transform="translate(150 0)"/>
      <use xlink:href="#ArialMT-75" transform="translate(200 0)"/>
      <use xlink:href="#ArialMT-65" transform="translate(255.615234 0)"/>
      <use xlink:href="#ArialMT-6e" transform="translate(311.230469 0)"/>
      <use xlink:href="#ArialMT-63" transform="translate(366.845703 0)"/>
      <use xlink:href="#ArialMT-69" transform="translate(416.845703 0)"/>
      <use xlink:href="#ArialMT-61" transform="translate(439.0625 0)"/>
     </g>
    </g>
   </g>
   <g id="patch_3">
    <path d="M 86.465426 402.39275 
L 233.897244 402.39275 
L 233.897244 320.242879 
L 86.465426 320.242879 
z
" clip-path="url(#pd28d5f8b79)" style="fill: #001c7f; fill-opacity: 0.6; stroke: #ffffff; stroke-linejoin: miter"/>
   </g>
   <g id="patch_4">
    <path d="M 233.897244 402.39275 
L 381.329062 402.39275 
L 381.329062 375.084646 
L 233.897244 375.084646 
z
" clip-path="url(#pd28d5f8b79)" style="fill: #001c7f; fill-opacity: 0.6; stroke: #ffffff; stroke-linejoin: miter"/>
   </g>
   <g id="patch_5">
    <path d="M 381.329062 402.39275 
L 528.760881 402.39275 
L 528.760881 390.817436 
L 381.329062 390.817436 
z
" clip-path="url(#pd28d5f8b79)" style="fill: #001c7f; fill-opacity: 0.6; stroke: #ffffff; stroke-linejoin: miter"/>
   </g>
   <g id="patch_6">
    <path d="M 528.760881 402.39275 
L 676.192699 402.39275 
L 676.192699 400.798453 
L 528.760881 400.798453 
z
" clip-path="url(#pd28d5f8b79)" style="fill: #001c7f; fill-opacity: 0.6; stroke: #ffffff; stroke-linejoin: miter"/>
   </g>
   <g id="line2d_13">
    <path d="M 160.181335 59.12156 
L 162.403925 63.374411 
L 164.626516 75.819434 
L 166.849106 95.554236 
L 169.071696 121.195728 
L 171.294286 151.040237 
L 177.962057 247.82076 
L 180.184647 277.340937 
L 182.407237 303.714632 
L 184.629828 326.443517 
L 186.852418 345.376638 
L 189.075008 360.644 
L 191.297598 372.575951 
L 193.520189 381.622093 
L 195.742779 388.280017 
L 197.965369 393.039906 
L 200.187959 396.347032 
L 202.410549 398.581005 
L 204.63314 400.048676 
L 206.85573 400.986733 
L 209.07832 401.570164 
L 211.30091 401.923349 
L 215.746091 402.250915 
L 222.413861 402.373208 
L 246.862354 402.38246 
L 255.752715 402.264041 
L 260.197895 402.00076 
L 262.420486 401.73378 
L 264.643076 401.312243 
L 266.865666 400.664681 
L 269.088256 399.697083 
L 271.310846 398.291246 
L 273.533437 396.305913 
L 275.756027 393.58202 
L 277.978617 389.953225 
L 280.201207 385.262356 
L 282.423798 379.383493 
L 284.646388 372.248151 
L 286.868978 363.87259 
L 289.091568 354.382017 
L 293.536749 333.185142 
L 295.759339 322.350535 
L 297.981929 312.099346 
L 300.204519 303.043492 
L 302.42711 295.771224 
L 304.6497 290.784363 
L 306.87229 288.441146 
L 309.09488 288.913693 
L 311.31747 292.1671 
L 313.540061 297.96371 
L 315.762651 305.891803 
L 317.985241 315.413926 
L 322.430422 336.824671 
L 324.653012 347.553762 
L 326.875602 357.656655 
L 329.098192 366.796981 
L 331.320782 374.767237 
L 333.543373 381.480825 
L 335.765963 386.952678 
L 337.988553 391.273479 
L 340.211143 394.58232 
L 342.433734 397.041622 
L 344.656324 398.816834 
L 346.878914 400.061972 
L 349.101504 400.910961 
L 351.324094 401.473903 
L 353.546685 401.83701 
L 357.991865 402.204105 
L 364.659636 402.361805 
L 384.662948 402.392534 
L 404.66626 402.312788 
L 409.11144 402.157184 
L 413.556621 401.764652 
L 415.779211 401.404784 
L 418.001801 400.876997 
L 420.224391 400.124523 
L 422.446982 399.082078 
L 424.669572 397.679532 
L 426.892162 395.848038 
L 429.114752 393.528638 
L 431.337343 390.682893 
L 433.559933 387.304474 
L 435.782523 383.430088 
L 438.005113 379.14769 
L 444.672884 365.524309 
L 446.895474 361.488087 
L 449.118064 358.12754 
L 451.340655 355.670483 
L 453.563245 354.291434 
L 455.785835 354.091132 
L 458.008425 355.08437 
L 460.231015 357.198193 
L 462.453606 360.28075 
L 464.676196 364.11933 
L 466.898786 368.464587 
L 473.566557 382.042039 
L 475.789147 386.064888 
L 478.011737 389.615107 
L 480.234327 392.639624 
L 482.456918 395.131547 
L 484.679508 397.119905 
L 486.902098 398.658072 
L 489.124688 399.812672 
L 491.347279 400.654211 
L 493.569869 401.250115 
L 495.792459 401.660259 
L 500.237639 402.113427 
L 504.68282 402.296345 
L 513.573181 402.384236 
L 555.802395 402.365463 
L 564.692756 402.211238 
L 569.137936 401.98965 
L 573.583117 401.582525 
L 578.028297 400.91879 
L 582.473478 399.965847 
L 589.141248 398.139805 
L 593.586429 396.93551 
L 595.809019 396.437881 
L 598.031609 396.054884 
L 600.2542 395.813361 
L 602.47679 395.730825 
L 602.47679 395.730825 
" clip-path="url(#pd28d5f8b79)" style="fill: none; stroke: #001c7f; stroke-width: 1.5; stroke-linecap: round"/>
   </g>
   <g id="patch_7">
    <path d="M 56.979063 402.39275 
L 705.679062 402.39275 
" style="fill: none; stroke: #cccccc; stroke-width: 0.8; stroke-linejoin: miter; stroke-linecap: square"/>
   </g>
   <g id="text_14">
    <!-- 16025 -->
    <g transform="translate(151.839929 316.793973) scale(0.06 -0.06)">
     <use xlink:href="#ArialMT-31"/>
     <use xlink:href="#ArialMT-36" transform="translate(55.615234 0)"/>
     <use xlink:href="#ArialMT-30" transform="translate(111.230469 0)"/>
     <use xlink:href="#ArialMT-32" transform="translate(166.845703 0)"/>
     <use xlink:href="#ArialMT-35" transform="translate(222.460938 0)"/>
    </g>
   </g>
   <g id="text_15">
    <!-- 5327 -->
    <g transform="translate(300.940028 371.63574) scale(0.06 -0.06)">
     <use xlink:href="#ArialMT-35"/>
     <use xlink:href="#ArialMT-33" transform="translate(55.615234 0)"/>
     <use xlink:href="#ArialMT-32" transform="translate(111.230469 0)"/>
     <use xlink:href="#ArialMT-37" transform="translate(166.845703 0)"/>
    </g>
   </g>
   <g id="text_16">
    <!-- 2258 -->
    <g transform="translate(448.371847 387.36853) scale(0.06 -0.06)">
     <defs>
      <path id="ArialMT-38" d="M 1131 2484 
Q 781 2613 612 2850 
Q 444 3088 444 3419 
Q 444 3919 803 4259 
Q 1163 4600 1759 4600 
Q 2359 4600 2725 4251 
Q 3091 3903 3091 3403 
Q 3091 3084 2923 2848 
Q 2756 2613 2416 2484 
Q 2838 2347 3058 2040 
Q 3278 1734 3278 1309 
Q 3278 722 2862 322 
Q 2447 -78 1769 -78 
Q 1091 -78 675 323 
Q 259 725 259 1325 
Q 259 1772 486 2073 
Q 713 2375 1131 2484 
z
M 1019 3438 
Q 1019 3113 1228 2906 
Q 1438 2700 1772 2700 
Q 2097 2700 2305 2904 
Q 2513 3109 2513 3406 
Q 2513 3716 2298 3927 
Q 2084 4138 1766 4138 
Q 1444 4138 1231 3931 
Q 1019 3725 1019 3438 
z
M 838 1322 
Q 838 1081 952 856 
Q 1066 631 1291 507 
Q 1516 384 1775 384 
Q 2178 384 2440 643 
Q 2703 903 2703 1303 
Q 2703 1709 2433 1975 
Q 2163 2241 1756 2241 
Q 1359 2241 1098 1978 
Q 838 1716 838 1322 
z
" transform="scale(0.015625)"/>
     </defs>
     <use xlink:href="#ArialMT-32"/>
     <use xlink:href="#ArialMT-32" transform="translate(55.615234 0)"/>
     <use xlink:href="#ArialMT-35" transform="translate(111.230469 0)"/>
     <use xlink:href="#ArialMT-38" transform="translate(166.845703 0)"/>
    </g>
   </g>
   <g id="text_17">
    <!-- 311 -->
    <g transform="translate(597.693196 397.349547) scale(0.06 -0.06)">
     <use xlink:href="#ArialMT-33"/>
     <use xlink:href="#ArialMT-31" transform="translate(55.615234 0)"/>
     <use xlink:href="#ArialMT-31" transform="translate(103.855469 0)"/>
    </g>
   </g>
   <g id="text_18">
    <!-- ¿Su HERMANO(A) tiene o tuvo diabetes o azúcar alta en la sangre? -->
    <g style="fill: #262626" transform="translate(125.299062 18.8475) scale(0.16 -0.16)">
     <defs>
      <path id="Arial-BoldMT-bf" d="M 2384 3319 
L 2384 2441 
L 1506 2441 
L 1506 3319 
L 2384 3319 
z
M 1591 2138 
L 2384 2138 
Q 2391 1931 2391 1900 
Q 2391 1544 2255 1286 
Q 2119 1028 1723 706 
Q 1328 384 1250 256 
Q 1172 128 1172 -34 
Q 1172 -275 1378 -458 
Q 1584 -641 1931 -641 
Q 2266 -641 2487 -455 
Q 2709 -269 2800 131 
L 3606 28 
Q 3553 -363 3384 -622 
Q 3153 -975 2783 -1144 
Q 2413 -1313 1966 -1313 
Q 1213 -1313 764 -917 
Q 316 -522 316 -3 
Q 316 197 395 386 
Q 475 575 645 765 
Q 816 956 1188 1263 
Q 1459 1481 1526 1626 
Q 1594 1772 1591 2138 
z
" transform="scale(0.015625)"/>
      <path id="Arial-BoldMT-53" d="M 231 1491 
L 1131 1578 
Q 1213 1125 1461 912 
Q 1709 700 2131 700 
Q 2578 700 2804 889 
Q 3031 1078 3031 1331 
Q 3031 1494 2936 1608 
Q 2841 1722 2603 1806 
Q 2441 1863 1863 2006 
Q 1119 2191 819 2459 
Q 397 2838 397 3381 
Q 397 3731 595 4036 
Q 794 4341 1167 4500 
Q 1541 4659 2069 4659 
Q 2931 4659 3367 4281 
Q 3803 3903 3825 3272 
L 2900 3231 
Q 2841 3584 2645 3739 
Q 2450 3894 2059 3894 
Q 1656 3894 1428 3728 
Q 1281 3622 1281 3444 
Q 1281 3281 1419 3166 
Q 1594 3019 2269 2859 
Q 2944 2700 3267 2529 
Q 3591 2359 3773 2064 
Q 3956 1769 3956 1334 
Q 3956 941 3737 597 
Q 3519 253 3119 86 
Q 2719 -81 2122 -81 
Q 1253 -81 787 320 
Q 322 722 231 1491 
z
" transform="scale(0.015625)"/>
      <path id="Arial-BoldMT-75" d="M 2644 0 
L 2644 497 
Q 2463 231 2167 78 
Q 1872 -75 1544 -75 
Q 1209 -75 943 72 
Q 678 219 559 484 
Q 441 750 441 1219 
L 441 3319 
L 1319 3319 
L 1319 1794 
Q 1319 1094 1367 936 
Q 1416 778 1544 686 
Q 1672 594 1869 594 
Q 2094 594 2272 717 
Q 2450 841 2515 1023 
Q 2581 1206 2581 1919 
L 2581 3319 
L 3459 3319 
L 3459 0 
L 2644 0 
z
" transform="scale(0.015625)"/>
      <path id="Arial-BoldMT-20" transform="scale(0.015625)"/>
      <path id="Arial-BoldMT-48" d="M 469 0 
L 469 4581 
L 1394 4581 
L 1394 2778 
L 3206 2778 
L 3206 4581 
L 4131 4581 
L 4131 0 
L 3206 0 
L 3206 2003 
L 1394 2003 
L 1394 0 
L 469 0 
z
" transform="scale(0.015625)"/>
      <path id="Arial-BoldMT-45" d="M 466 0 
L 466 4581 
L 3863 4581 
L 3863 3806 
L 1391 3806 
L 1391 2791 
L 3691 2791 
L 3691 2019 
L 1391 2019 
L 1391 772 
L 3950 772 
L 3950 0 
L 466 0 
z
" transform="scale(0.015625)"/>
      <path id="Arial-BoldMT-52" d="M 469 0 
L 469 4581 
L 2416 4581 
Q 3150 4581 3483 4457 
Q 3816 4334 4016 4018 
Q 4216 3703 4216 3297 
Q 4216 2781 3912 2445 
Q 3609 2109 3006 2022 
Q 3306 1847 3501 1637 
Q 3697 1428 4028 894 
L 4588 0 
L 3481 0 
L 2813 997 
Q 2456 1531 2325 1670 
Q 2194 1809 2047 1861 
Q 1900 1913 1581 1913 
L 1394 1913 
L 1394 0 
L 469 0 
z
M 1394 2644 
L 2078 2644 
Q 2744 2644 2909 2700 
Q 3075 2756 3169 2893 
Q 3263 3031 3263 3238 
Q 3263 3469 3139 3611 
Q 3016 3753 2791 3791 
Q 2678 3806 2116 3806 
L 1394 3806 
L 1394 2644 
z
" transform="scale(0.015625)"/>
      <path id="Arial-BoldMT-4d" d="M 453 0 
L 453 4581 
L 1838 4581 
L 2669 1456 
L 3491 4581 
L 4878 4581 
L 4878 0 
L 4019 0 
L 4019 3606 
L 3109 0 
L 2219 0 
L 1313 3606 
L 1313 0 
L 453 0 
z
" transform="scale(0.015625)"/>
      <path id="Arial-BoldMT-41" d="M 4597 0 
L 3591 0 
L 3191 1041 
L 1359 1041 
L 981 0 
L 0 0 
L 1784 4581 
L 2763 4581 
L 4597 0 
z
M 2894 1813 
L 2263 3513 
L 1644 1813 
L 2894 1813 
z
" transform="scale(0.015625)"/>
      <path id="Arial-BoldMT-4e" d="M 475 0 
L 475 4581 
L 1375 4581 
L 3250 1522 
L 3250 4581 
L 4109 4581 
L 4109 0 
L 3181 0 
L 1334 2988 
L 1334 0 
L 475 0 
z
" transform="scale(0.015625)"/>
      <path id="Arial-BoldMT-4f" d="M 278 2263 
Q 278 2963 488 3438 
Q 644 3788 914 4066 
Q 1184 4344 1506 4478 
Q 1934 4659 2494 4659 
Q 3506 4659 4114 4031 
Q 4722 3403 4722 2284 
Q 4722 1175 4119 548 
Q 3516 -78 2506 -78 
Q 1484 -78 881 545 
Q 278 1169 278 2263 
z
M 1231 2294 
Q 1231 1516 1590 1114 
Q 1950 713 2503 713 
Q 3056 713 3411 1111 
Q 3766 1509 3766 2306 
Q 3766 3094 3420 3481 
Q 3075 3869 2503 3869 
Q 1931 3869 1581 3476 
Q 1231 3084 1231 2294 
z
" transform="scale(0.015625)"/>
      <path id="Arial-BoldMT-28" d="M 1916 -1347 
L 1313 -1347 
Q 834 -625 584 153 
Q 334 931 334 1659 
Q 334 2563 644 3369 
Q 913 4069 1325 4659 
L 1925 4659 
Q 1497 3713 1336 3048 
Q 1175 2384 1175 1641 
Q 1175 1128 1270 590 
Q 1366 53 1531 -431 
Q 1641 -750 1916 -1347 
z
" transform="scale(0.015625)"/>
      <path id="Arial-BoldMT-29" d="M 216 -1347 
Q 475 -791 581 -494 
Q 688 -197 778 190 
Q 869 578 912 926 
Q 956 1275 956 1641 
Q 956 2384 797 3048 
Q 638 3713 209 4659 
L 806 4659 
Q 1278 3988 1539 3234 
Q 1800 2481 1800 1706 
Q 1800 1053 1594 306 
Q 1359 -531 822 -1347 
L 216 -1347 
z
" transform="scale(0.015625)"/>
      <path id="Arial-BoldMT-74" d="M 1981 3319 
L 1981 2619 
L 1381 2619 
L 1381 1281 
Q 1381 875 1398 808 
Q 1416 741 1477 697 
Q 1538 653 1625 653 
Q 1747 653 1978 738 
L 2053 56 
Q 1747 -75 1359 -75 
Q 1122 -75 931 4 
Q 741 84 652 211 
Q 563 338 528 553 
Q 500 706 500 1172 
L 500 2619 
L 97 2619 
L 97 3319 
L 500 3319 
L 500 3978 
L 1381 4491 
L 1381 3319 
L 1981 3319 
z
" transform="scale(0.015625)"/>
      <path id="Arial-BoldMT-69" d="M 459 3769 
L 459 4581 
L 1338 4581 
L 1338 3769 
L 459 3769 
z
M 459 0 
L 459 3319 
L 1338 3319 
L 1338 0 
L 459 0 
z
" transform="scale(0.015625)"/>
      <path id="Arial-BoldMT-65" d="M 2381 1056 
L 3256 909 
Q 3088 428 2723 176 
Q 2359 -75 1813 -75 
Q 947 -75 531 491 
Q 203 944 203 1634 
Q 203 2459 634 2926 
Q 1066 3394 1725 3394 
Q 2466 3394 2894 2905 
Q 3322 2416 3303 1406 
L 1103 1406 
Q 1113 1016 1316 798 
Q 1519 581 1822 581 
Q 2028 581 2168 693 
Q 2309 806 2381 1056 
z
M 2431 1944 
Q 2422 2325 2234 2523 
Q 2047 2722 1778 2722 
Q 1491 2722 1303 2513 
Q 1116 2303 1119 1944 
L 2431 1944 
z
" transform="scale(0.015625)"/>
      <path id="Arial-BoldMT-6e" d="M 3478 0 
L 2600 0 
L 2600 1694 
Q 2600 2231 2544 2389 
Q 2488 2547 2361 2634 
Q 2234 2722 2056 2722 
Q 1828 2722 1647 2597 
Q 1466 2472 1398 2265 
Q 1331 2059 1331 1503 
L 1331 0 
L 453 0 
L 453 3319 
L 1269 3319 
L 1269 2831 
Q 1703 3394 2363 3394 
Q 2653 3394 2893 3289 
Q 3134 3184 3257 3021 
Q 3381 2859 3429 2653 
Q 3478 2447 3478 2063 
L 3478 0 
z
" transform="scale(0.015625)"/>
      <path id="Arial-BoldMT-6f" d="M 256 1706 
Q 256 2144 472 2553 
Q 688 2963 1083 3178 
Q 1478 3394 1966 3394 
Q 2719 3394 3200 2905 
Q 3681 2416 3681 1669 
Q 3681 916 3195 420 
Q 2709 -75 1972 -75 
Q 1516 -75 1102 131 
Q 688 338 472 736 
Q 256 1134 256 1706 
z
M 1156 1659 
Q 1156 1166 1390 903 
Q 1625 641 1969 641 
Q 2313 641 2545 903 
Q 2778 1166 2778 1666 
Q 2778 2153 2545 2415 
Q 2313 2678 1969 2678 
Q 1625 2678 1390 2415 
Q 1156 2153 1156 1659 
z
" transform="scale(0.015625)"/>
      <path id="Arial-BoldMT-76" d="M 1372 0 
L 34 3319 
L 956 3319 
L 1581 1625 
L 1763 1059 
Q 1834 1275 1853 1344 
Q 1897 1484 1947 1625 
L 2578 3319 
L 3481 3319 
L 2163 0 
L 1372 0 
z
" transform="scale(0.015625)"/>
      <path id="Arial-BoldMT-64" d="M 3503 0 
L 2688 0 
L 2688 488 
Q 2484 203 2207 64 
Q 1931 -75 1650 -75 
Q 1078 -75 670 386 
Q 263 847 263 1672 
Q 263 2516 659 2955 
Q 1056 3394 1663 3394 
Q 2219 3394 2625 2931 
L 2625 4581 
L 3503 4581 
L 3503 0 
z
M 1159 1731 
Q 1159 1200 1306 963 
Q 1519 619 1900 619 
Q 2203 619 2415 876 
Q 2628 1134 2628 1647 
Q 2628 2219 2422 2470 
Q 2216 2722 1894 2722 
Q 1581 2722 1370 2473 
Q 1159 2225 1159 1731 
z
" transform="scale(0.015625)"/>
      <path id="Arial-BoldMT-61" d="M 1116 2306 
L 319 2450 
Q 453 2931 781 3162 
Q 1109 3394 1756 3394 
Q 2344 3394 2631 3255 
Q 2919 3116 3036 2902 
Q 3153 2688 3153 2116 
L 3144 1091 
Q 3144 653 3186 445 
Q 3228 238 3344 0 
L 2475 0 
Q 2441 88 2391 259 
Q 2369 338 2359 363 
Q 2134 144 1878 34 
Q 1622 -75 1331 -75 
Q 819 -75 523 203 
Q 228 481 228 906 
Q 228 1188 362 1408 
Q 497 1628 739 1745 
Q 981 1863 1438 1950 
Q 2053 2066 2291 2166 
L 2291 2253 
Q 2291 2506 2166 2614 
Q 2041 2722 1694 2722 
Q 1459 2722 1328 2630 
Q 1197 2538 1116 2306 
z
M 2291 1594 
Q 2122 1538 1756 1459 
Q 1391 1381 1278 1306 
Q 1106 1184 1106 997 
Q 1106 813 1243 678 
Q 1381 544 1594 544 
Q 1831 544 2047 700 
Q 2206 819 2256 991 
Q 2291 1103 2291 1419 
L 2291 1594 
z
" transform="scale(0.015625)"/>
      <path id="Arial-BoldMT-62" d="M 422 0 
L 422 4581 
L 1300 4581 
L 1300 2931 
Q 1706 3394 2263 3394 
Q 2869 3394 3266 2955 
Q 3663 2516 3663 1694 
Q 3663 844 3258 384 
Q 2853 -75 2275 -75 
Q 1991 -75 1714 67 
Q 1438 209 1238 488 
L 1238 0 
L 422 0 
z
M 1294 1731 
Q 1294 1216 1456 969 
Q 1684 619 2063 619 
Q 2353 619 2558 867 
Q 2763 1116 2763 1650 
Q 2763 2219 2556 2470 
Q 2350 2722 2028 2722 
Q 1713 2722 1503 2476 
Q 1294 2231 1294 1731 
z
" transform="scale(0.015625)"/>
      <path id="Arial-BoldMT-73" d="M 150 947 
L 1031 1081 
Q 1088 825 1259 692 
Q 1431 559 1741 559 
Q 2081 559 2253 684 
Q 2369 772 2369 919 
Q 2369 1019 2306 1084 
Q 2241 1147 2013 1200 
Q 950 1434 666 1628 
Q 272 1897 272 2375 
Q 272 2806 612 3100 
Q 953 3394 1669 3394 
Q 2350 3394 2681 3172 
Q 3013 2950 3138 2516 
L 2309 2363 
Q 2256 2556 2107 2659 
Q 1959 2763 1684 2763 
Q 1338 2763 1188 2666 
Q 1088 2597 1088 2488 
Q 1088 2394 1175 2328 
Q 1294 2241 1995 2081 
Q 2697 1922 2975 1691 
Q 3250 1456 3250 1038 
Q 3250 581 2869 253 
Q 2488 -75 1741 -75 
Q 1063 -75 667 200 
Q 272 475 150 947 
z
" transform="scale(0.015625)"/>
      <path id="Arial-BoldMT-7a" d="M 106 0 
L 106 684 
L 1350 2113 
Q 1656 2463 1803 2609 
Q 1650 2600 1400 2597 
L 228 2591 
L 228 3319 
L 2972 3319 
L 2972 2697 
L 1703 1234 
L 1256 750 
Q 1622 772 1709 772 
L 3069 772 
L 3069 0 
L 106 0 
z
" transform="scale(0.015625)"/>
      <path id="Arial-BoldMT-fa" d="M 2644 0 
L 2644 497 
Q 2463 231 2167 78 
Q 1872 -75 1544 -75 
Q 1209 -75 943 72 
Q 678 219 559 484 
Q 441 750 441 1219 
L 441 3319 
L 1319 3319 
L 1319 1794 
Q 1319 1094 1367 936 
Q 1416 778 1544 686 
Q 1672 594 1869 594 
Q 2094 594 2272 717 
Q 2450 841 2515 1023 
Q 2581 1206 2581 1919 
L 2581 3319 
L 3459 3319 
L 3459 0 
L 2644 0 
z
M 1506 3725 
L 1938 4659 
L 2922 4659 
L 2063 3725 
L 1506 3725 
z
" transform="scale(0.015625)"/>
      <path id="Arial-BoldMT-63" d="M 3353 2338 
L 2488 2181 
Q 2444 2441 2289 2572 
Q 2134 2703 1888 2703 
Q 1559 2703 1364 2476 
Q 1169 2250 1169 1719 
Q 1169 1128 1367 884 
Q 1566 641 1900 641 
Q 2150 641 2309 783 
Q 2469 925 2534 1272 
L 3397 1125 
Q 3263 531 2881 228 
Q 2500 -75 1859 -75 
Q 1131 -75 698 384 
Q 266 844 266 1656 
Q 266 2478 700 2936 
Q 1134 3394 1875 3394 
Q 2481 3394 2839 3133 
Q 3197 2872 3353 2338 
z
" transform="scale(0.015625)"/>
      <path id="Arial-BoldMT-72" d="M 1300 0 
L 422 0 
L 422 3319 
L 1238 3319 
L 1238 2847 
Q 1447 3181 1614 3287 
Q 1781 3394 1994 3394 
Q 2294 3394 2572 3228 
L 2300 2463 
Q 2078 2606 1888 2606 
Q 1703 2606 1575 2504 
Q 1447 2403 1373 2137 
Q 1300 1872 1300 1025 
L 1300 0 
z
" transform="scale(0.015625)"/>
      <path id="Arial-BoldMT-6c" d="M 459 0 
L 459 4581 
L 1338 4581 
L 1338 0 
L 459 0 
z
" transform="scale(0.015625)"/>
      <path id="Arial-BoldMT-67" d="M 378 -219 
L 1381 -341 
Q 1406 -516 1497 -581 
Q 1622 -675 1891 -675 
Q 2234 -675 2406 -572 
Q 2522 -503 2581 -350 
Q 2622 -241 2622 53 
L 2622 538 
Q 2228 0 1628 0 
Q 959 0 569 566 
Q 263 1013 263 1678 
Q 263 2513 664 2953 
Q 1066 3394 1663 3394 
Q 2278 3394 2678 2853 
L 2678 3319 
L 3500 3319 
L 3500 341 
Q 3500 -247 3403 -537 
Q 3306 -828 3131 -993 
Q 2956 -1159 2664 -1253 
Q 2372 -1347 1925 -1347 
Q 1081 -1347 728 -1058 
Q 375 -769 375 -325 
Q 375 -281 378 -219 
z
M 1163 1728 
Q 1163 1200 1367 954 
Q 1572 709 1872 709 
Q 2194 709 2416 961 
Q 2638 1213 2638 1706 
Q 2638 2222 2425 2472 
Q 2213 2722 1888 2722 
Q 1572 2722 1367 2476 
Q 1163 2231 1163 1728 
z
" transform="scale(0.015625)"/>
      <path id="Arial-BoldMT-3f" d="M 2347 1181 
L 1550 1181 
Q 1547 1353 1547 1391 
Q 1547 1778 1675 2028 
Q 1803 2278 2187 2590 
Q 2572 2903 2647 3000 
Q 2763 3153 2763 3338 
Q 2763 3594 2558 3776 
Q 2353 3959 2006 3959 
Q 1672 3959 1447 3768 
Q 1222 3578 1138 3188 
L 331 3288 
Q 366 3847 808 4237 
Q 1250 4628 1969 4628 
Q 2725 4628 3172 4233 
Q 3619 3838 3619 3313 
Q 3619 3022 3455 2762 
Q 3291 2503 2753 2056 
Q 2475 1825 2408 1684 
Q 2341 1544 2347 1181 
z
M 1550 0 
L 1550 878 
L 2428 878 
L 2428 0 
L 1550 0 
z
" transform="scale(0.015625)"/>
     </defs>
     <use xlink:href="#Arial-BoldMT-bf"/>
     <use xlink:href="#Arial-BoldMT-53" transform="translate(61.083984 0)"/>
     <use xlink:href="#Arial-BoldMT-75" transform="translate(127.783203 0)"/>
     <use xlink:href="#Arial-BoldMT-20" transform="translate(188.867188 0)"/>
     <use xlink:href="#Arial-BoldMT-48" transform="translate(216.650391 0)"/>
     <use xlink:href="#Arial-BoldMT-45" transform="translate(288.867188 0)"/>
     <use xlink:href="#Arial-BoldMT-52" transform="translate(355.566406 0)"/>
     <use xlink:href="#Arial-BoldMT-4d" transform="translate(427.783203 0)"/>
     <use xlink:href="#Arial-BoldMT-41" transform="translate(511.083984 0)"/>
     <use xlink:href="#Arial-BoldMT-4e" transform="translate(583.300781 0)"/>
     <use xlink:href="#Arial-BoldMT-4f" transform="translate(655.517578 0)"/>
     <use xlink:href="#Arial-BoldMT-28" transform="translate(733.300781 0)"/>
     <use xlink:href="#Arial-BoldMT-41" transform="translate(766.601562 0)"/>
     <use xlink:href="#Arial-BoldMT-29" transform="translate(838.818359 0)"/>
     <use xlink:href="#Arial-BoldMT-20" transform="translate(872.119141 0)"/>
     <use xlink:href="#Arial-BoldMT-74" transform="translate(899.902344 0)"/>
     <use xlink:href="#Arial-BoldMT-69" transform="translate(933.203125 0)"/>
     <use xlink:href="#Arial-BoldMT-65" transform="translate(960.986328 0)"/>
     <use xlink:href="#Arial-BoldMT-6e" transform="translate(1016.601562 0)"/>
     <use xlink:href="#Arial-BoldMT-65" transform="translate(1077.685547 0)"/>
     <use xlink:href="#Arial-BoldMT-20" transform="translate(1133.300781 0)"/>
     <use xlink:href="#Arial-BoldMT-6f" transform="translate(1161.083984 0)"/>
     <use xlink:href="#Arial-BoldMT-20" transform="translate(1222.167969 0)"/>
     <use xlink:href="#Arial-BoldMT-74" transform="translate(1249.951172 0)"/>
     <use xlink:href="#Arial-BoldMT-75" transform="translate(1283.251953 0)"/>
     <use xlink:href="#Arial-BoldMT-76" transform="translate(1344.335938 0)"/>
     <use xlink:href="#Arial-BoldMT-6f" transform="translate(1399.951172 0)"/>
     <use xlink:href="#Arial-BoldMT-20" transform="translate(1461.035156 0)"/>
     <use xlink:href="#Arial-BoldMT-64" transform="translate(1488.818359 0)"/>
     <use xlink:href="#Arial-BoldMT-69" transform="translate(1549.902344 0)"/>
     <use xlink:href="#Arial-BoldMT-61" transform="translate(1577.685547 0)"/>
     <use xlink:href="#Arial-BoldMT-62" transform="translate(1633.300781 0)"/>
     <use xlink:href="#Arial-BoldMT-65" transform="translate(1694.384766 0)"/>
     <use xlink:href="#Arial-BoldMT-74" transform="translate(1750 0)"/>
     <use xlink:href="#Arial-BoldMT-65" transform="translate(1783.300781 0)"/>
     <use xlink:href="#Arial-BoldMT-73" transform="translate(1838.916016 0)"/>
     <use xlink:href="#Arial-BoldMT-20" transform="translate(1894.53125 0)"/>
     <use xlink:href="#Arial-BoldMT-6f" transform="translate(1922.314453 0)"/>
     <use xlink:href="#Arial-BoldMT-20" transform="translate(1983.398438 0)"/>
     <use xlink:href="#Arial-BoldMT-61" transform="translate(2011.181641 0)"/>
     <use xlink:href="#Arial-BoldMT-7a" transform="translate(2066.796875 0)"/>
     <use xlink:href="#Arial-BoldMT-fa" transform="translate(2116.796875 0)"/>
     <use xlink:href="#Arial-BoldMT-63" transform="translate(2177.880859 0)"/>
     <use xlink:href="#Arial-BoldMT-61" transform="translate(2233.496094 0)"/>
     <use xlink:href="#Arial-BoldMT-72" transform="translate(2289.111328 0)"/>
     <use xlink:href="#Arial-BoldMT-20" transform="translate(2328.027344 0)"/>
     <use xlink:href="#Arial-BoldMT-61" transform="translate(2355.810547 0)"/>
     <use xlink:href="#Arial-BoldMT-6c" transform="translate(2411.425781 0)"/>
     <use xlink:href="#Arial-BoldMT-74" transform="translate(2439.208984 0)"/>
     <use xlink:href="#Arial-BoldMT-61" transform="translate(2472.509766 0)"/>
     <use xlink:href="#Arial-BoldMT-20" transform="translate(2528.125 0)"/>
     <use xlink:href="#Arial-BoldMT-65" transform="translate(2555.908203 0)"/>
     <use xlink:href="#Arial-BoldMT-6e" transform="translate(2611.523438 0)"/>
     <use xlink:href="#Arial-BoldMT-20" transform="translate(2672.607422 0)"/>
     <use xlink:href="#Arial-BoldMT-6c" transform="translate(2700.390625 0)"/>
     <use xlink:href="#Arial-BoldMT-61" transform="translate(2728.173828 0)"/>
     <use xlink:href="#Arial-BoldMT-20" transform="translate(2783.789062 0)"/>
     <use xlink:href="#Arial-BoldMT-73" transform="translate(2811.572266 0)"/>
     <use xlink:href="#Arial-BoldMT-61" transform="translate(2867.1875 0)"/>
     <use xlink:href="#Arial-BoldMT-6e" transform="translate(2922.802734 0)"/>
     <use xlink:href="#Arial-BoldMT-67" transform="translate(2983.886719 0)"/>
     <use xlink:href="#Arial-BoldMT-72" transform="translate(3044.970703 0)"/>
     <use xlink:href="#Arial-BoldMT-65" transform="translate(3083.886719 0)"/>
     <use xlink:href="#Arial-BoldMT-3f" transform="translate(3139.501953 0)"/>
    </g>
    <!--  -->
    <g style="fill: #262626" transform="translate(381.329062 35.958) scale(0.16 -0.16)"/>
   </g>
  </g>
 </g>
 <defs>
  <clipPath id="pd28d5f8b79">
   <rect x="56.979063" y="41.958" width="648.7" height="360.43475"/>
  </clipPath>
 </defs>
</svg>
