<?xml version="1.0" encoding="utf-8" standalone="no"?>
<!DOCTYPE svg PUBLIC "-//W3C//DTD SVG 1.1//EN"
  "http://www.w3.org/Graphics/SVG/1.1/DTD/svg11.dtd">
<svg xmlns:xlink="http://www.w3.org/1999/xlink" width="460.8pt" height="345.6pt" viewBox="0 0 460.8 345.6" xmlns="http://www.w3.org/2000/svg" version="1.1">
 <metadata>
  <rdf:RDF xmlns:dc="http://purl.org/dc/elements/1.1/" xmlns:cc="http://creativecommons.org/ns#" xmlns:rdf="http://www.w3.org/1999/02/22-rdf-syntax-ns#">
   <cc:Work>
    <dc:type rdf:resource="http://purl.org/dc/dcmitype/StillImage"/>
    <dc:date>2025-03-18T14:11:33.161655</dc:date>
    <dc:format>image/svg+xml</dc:format>
    <dc:creator>
     <cc:Agent>
      <dc:title>Matplotlib v3.10.0, https://matplotlib.org/</dc:title>
     </cc:Agent>
    </dc:creator>
   </cc:Work>
  </rdf:RDF>
 </metadata>
 <defs>
  <style type="text/css">*{stroke-linejoin: round; stroke-linecap: butt}</style>
 </defs>
 <g id="figure_1">
  <g id="patch_1">
   <path d="M 0 345.6 
L 460.8 345.6 
L 460.8 0 
L 0 0 
z
" style="fill: #ffffff"/>
  </g>
  <g id="axes_1">
   <g id="patch_2">
    <path d="M 57.6 307.584 
L 414.72 307.584 
L 414.72 41.472 
L 57.6 41.472 
z
" style="fill: #ffffff"/>
   </g>
   <g id="matplotlib.axis_1">
    <g id="xtick_1">
     <g id="line2d_1">
      <path d="M 73.832727 307.584 
L 73.832727 41.472 
" clip-path="url(#p007b795653)" style="fill: none; stroke: #cccccc; stroke-width: 0.8; stroke-linecap: round"/>
     </g>
     <g id="text_1">
      <!-- 0 -->
      <g style="fill: #262626" transform="translate(71.052259 321.741812) scale(0.1 -0.1)">
       <defs>
        <path id="ArialMT-30" d="M 266 2259 
Q 266 3072 433 3567 
Q 600 4063 929 4331 
Q 1259 4600 1759 4600 
Q 2128 4600 2406 4451 
Q 2684 4303 2865 4023 
Q 3047 3744 3150 3342 
Q 3253 2941 3253 2259 
Q 3253 1453 3087 958 
Q 2922 463 2592 192 
Q 2263 -78 1759 -78 
Q 1097 -78 719 397 
Q 266 969 266 2259 
z
M 844 2259 
Q 844 1131 1108 757 
Q 1372 384 1759 384 
Q 2147 384 2411 759 
Q 2675 1134 2675 2259 
Q 2675 3391 2411 3762 
Q 2147 4134 1753 4134 
Q 1366 4134 1134 3806 
Q 844 3388 844 2259 
z
" transform="scale(0.015625)"/>
       </defs>
       <use xlink:href="#ArialMT-30"/>
      </g>
     </g>
    </g>
    <g id="xtick_2">
     <g id="line2d_2">
      <path d="M 139.419504 307.584 
L 139.419504 41.472 
" clip-path="url(#p007b795653)" style="fill: none; stroke: #cccccc; stroke-width: 0.8; stroke-linecap: round"/>
     </g>
     <g id="text_2">
      <!-- 20 -->
      <g style="fill: #262626" transform="translate(133.858567 321.741812) scale(0.1 -0.1)">
       <defs>
        <path id="ArialMT-32" d="M 3222 541 
L 3222 0 
L 194 0 
Q 188 203 259 391 
Q 375 700 629 1000 
Q 884 1300 1366 1694 
Q 2113 2306 2375 2664 
Q 2638 3022 2638 3341 
Q 2638 3675 2398 3904 
Q 2159 4134 1775 4134 
Q 1369 4134 1125 3890 
Q 881 3647 878 3216 
L 300 3275 
Q 359 3922 746 4261 
Q 1134 4600 1788 4600 
Q 2447 4600 2831 4234 
Q 3216 3869 3216 3328 
Q 3216 3053 3103 2787 
Q 2991 2522 2730 2228 
Q 2469 1934 1863 1422 
Q 1356 997 1212 845 
Q 1069 694 975 541 
L 3222 541 
z
" transform="scale(0.015625)"/>
       </defs>
       <use xlink:href="#ArialMT-32"/>
       <use xlink:href="#ArialMT-30" transform="translate(55.615234 0)"/>
      </g>
     </g>
    </g>
    <g id="xtick_3">
     <g id="line2d_3">
      <path d="M 205.006281 307.584 
L 205.006281 41.472 
" clip-path="url(#p007b795653)" style="fill: none; stroke: #cccccc; stroke-width: 0.8; stroke-linecap: round"/>
     </g>
     <g id="text_3">
      <!-- 40 -->
      <g style="fill: #262626" transform="translate(199.445343 321.741812) scale(0.1 -0.1)">
       <defs>
        <path id="ArialMT-34" d="M 2069 0 
L 2069 1097 
L 81 1097 
L 81 1613 
L 2172 4581 
L 2631 4581 
L 2631 1613 
L 3250 1613 
L 3250 1097 
L 2631 1097 
L 2631 0 
L 2069 0 
z
M 2069 1613 
L 2069 3678 
L 634 1613 
L 2069 1613 
z
" transform="scale(0.015625)"/>
       </defs>
       <use xlink:href="#ArialMT-34"/>
       <use xlink:href="#ArialMT-30" transform="translate(55.615234 0)"/>
      </g>
     </g>
    </g>
    <g id="xtick_4">
     <g id="line2d_4">
      <path d="M 270.593058 307.584 
L 270.593058 41.472 
" clip-path="url(#p007b795653)" style="fill: none; stroke: #cccccc; stroke-width: 0.8; stroke-linecap: round"/>
     </g>
     <g id="text_4">
      <!-- 60 -->
      <g style="fill: #262626" transform="translate(265.03212 321.741812) scale(0.1 -0.1)">
       <defs>
        <path id="ArialMT-36" d="M 3184 3459 
L 2625 3416 
Q 2550 3747 2413 3897 
Q 2184 4138 1850 4138 
Q 1581 4138 1378 3988 
Q 1113 3794 959 3422 
Q 806 3050 800 2363 
Q 1003 2672 1297 2822 
Q 1591 2972 1913 2972 
Q 2475 2972 2870 2558 
Q 3266 2144 3266 1488 
Q 3266 1056 3080 686 
Q 2894 316 2569 119 
Q 2244 -78 1831 -78 
Q 1128 -78 684 439 
Q 241 956 241 2144 
Q 241 3472 731 4075 
Q 1159 4600 1884 4600 
Q 2425 4600 2770 4297 
Q 3116 3994 3184 3459 
z
M 888 1484 
Q 888 1194 1011 928 
Q 1134 663 1356 523 
Q 1578 384 1822 384 
Q 2178 384 2434 671 
Q 2691 959 2691 1453 
Q 2691 1928 2437 2201 
Q 2184 2475 1800 2475 
Q 1419 2475 1153 2201 
Q 888 1928 888 1484 
z
" transform="scale(0.015625)"/>
       </defs>
       <use xlink:href="#ArialMT-36"/>
       <use xlink:href="#ArialMT-30" transform="translate(55.615234 0)"/>
      </g>
     </g>
    </g>
    <g id="xtick_5">
     <g id="line2d_5">
      <path d="M 336.179835 307.584 
L 336.179835 41.472 
" clip-path="url(#p007b795653)" style="fill: none; stroke: #cccccc; stroke-width: 0.8; stroke-linecap: round"/>
     </g>
     <g id="text_5">
      <!-- 80 -->
      <g style="fill: #262626" transform="translate(330.618897 321.741812) scale(0.1 -0.1)">
       <defs>
        <path id="ArialMT-38" d="M 1131 2484 
Q 781 2613 612 2850 
Q 444 3088 444 3419 
Q 444 3919 803 4259 
Q 1163 4600 1759 4600 
Q 2359 4600 2725 4251 
Q 3091 3903 3091 3403 
Q 3091 3084 2923 2848 
Q 2756 2613 2416 2484 
Q 2838 2347 3058 2040 
Q 3278 1734 3278 1309 
Q 3278 722 2862 322 
Q 2447 -78 1769 -78 
Q 1091 -78 675 323 
Q 259 725 259 1325 
Q 259 1772 486 2073 
Q 713 2375 1131 2484 
z
M 1019 3438 
Q 1019 3113 1228 2906 
Q 1438 2700 1772 2700 
Q 2097 2700 2305 2904 
Q 2513 3109 2513 3406 
Q 2513 3716 2298 3927 
Q 2084 4138 1766 4138 
Q 1444 4138 1231 3931 
Q 1019 3725 1019 3438 
z
M 838 1322 
Q 838 1081 952 856 
Q 1066 631 1291 507 
Q 1516 384 1775 384 
Q 2178 384 2440 643 
Q 2703 903 2703 1303 
Q 2703 1709 2433 1975 
Q 2163 2241 1756 2241 
Q 1359 2241 1098 1978 
Q 838 1716 838 1322 
z
" transform="scale(0.015625)"/>
       </defs>
       <use xlink:href="#ArialMT-38"/>
       <use xlink:href="#ArialMT-30" transform="translate(55.615234 0)"/>
      </g>
     </g>
    </g>
    <g id="xtick_6">
     <g id="line2d_6">
      <path d="M 401.766612 307.584 
L 401.766612 41.472 
" clip-path="url(#p007b795653)" style="fill: none; stroke: #cccccc; stroke-width: 0.8; stroke-linecap: round"/>
     </g>
     <g id="text_6">
      <!-- 100 -->
      <g style="fill: #262626" transform="translate(393.425205 321.741812) scale(0.1 -0.1)">
       <defs>
        <path id="ArialMT-31" d="M 2384 0 
L 1822 0 
L 1822 3584 
Q 1619 3391 1289 3197 
Q 959 3003 697 2906 
L 697 3450 
Q 1169 3672 1522 3987 
Q 1875 4303 2022 4600 
L 2384 4600 
L 2384 0 
z
" transform="scale(0.015625)"/>
       </defs>
       <use xlink:href="#ArialMT-31"/>
       <use xlink:href="#ArialMT-30" transform="translate(55.615234 0)"/>
       <use xlink:href="#ArialMT-30" transform="translate(111.230469 0)"/>
      </g>
     </g>
    </g>
    <g id="text_7">
     <!-- Edad -->
     <g style="fill: #262626" transform="translate(224.483438 334.887125) scale(0.1 -0.1)">
      <defs>
       <path id="ArialMT-45" d="M 506 0 
L 506 4581 
L 3819 4581 
L 3819 4041 
L 1113 4041 
L 1113 2638 
L 3647 2638 
L 3647 2100 
L 1113 2100 
L 1113 541 
L 3925 541 
L 3925 0 
L 506 0 
z
" transform="scale(0.015625)"/>
       <path id="ArialMT-64" d="M 2575 0 
L 2575 419 
Q 2259 -75 1647 -75 
Q 1250 -75 917 144 
Q 584 363 401 755 
Q 219 1147 219 1656 
Q 219 2153 384 2558 
Q 550 2963 881 3178 
Q 1213 3394 1622 3394 
Q 1922 3394 2156 3267 
Q 2391 3141 2538 2938 
L 2538 4581 
L 3097 4581 
L 3097 0 
L 2575 0 
z
M 797 1656 
Q 797 1019 1065 703 
Q 1334 388 1700 388 
Q 2069 388 2326 689 
Q 2584 991 2584 1609 
Q 2584 2291 2321 2609 
Q 2059 2928 1675 2928 
Q 1300 2928 1048 2622 
Q 797 2316 797 1656 
z
" transform="scale(0.015625)"/>
       <path id="ArialMT-61" d="M 2588 409 
Q 2275 144 1986 34 
Q 1697 -75 1366 -75 
Q 819 -75 525 192 
Q 231 459 231 875 
Q 231 1119 342 1320 
Q 453 1522 633 1644 
Q 813 1766 1038 1828 
Q 1203 1872 1538 1913 
Q 2219 1994 2541 2106 
Q 2544 2222 2544 2253 
Q 2544 2597 2384 2738 
Q 2169 2928 1744 2928 
Q 1347 2928 1158 2789 
Q 969 2650 878 2297 
L 328 2372 
Q 403 2725 575 2942 
Q 747 3159 1072 3276 
Q 1397 3394 1825 3394 
Q 2250 3394 2515 3294 
Q 2781 3194 2906 3042 
Q 3031 2891 3081 2659 
Q 3109 2516 3109 2141 
L 3109 1391 
Q 3109 606 3145 398 
Q 3181 191 3288 0 
L 2700 0 
Q 2613 175 2588 409 
z
M 2541 1666 
Q 2234 1541 1622 1453 
Q 1275 1403 1131 1340 
Q 988 1278 909 1158 
Q 831 1038 831 891 
Q 831 666 1001 516 
Q 1172 366 1500 366 
Q 1825 366 2078 508 
Q 2331 650 2450 897 
Q 2541 1088 2541 1459 
L 2541 1666 
z
" transform="scale(0.015625)"/>
      </defs>
      <use xlink:href="#ArialMT-45"/>
      <use xlink:href="#ArialMT-64" transform="translate(66.699219 0)"/>
      <use xlink:href="#ArialMT-61" transform="translate(122.314453 0)"/>
      <use xlink:href="#ArialMT-64" transform="translate(177.929688 0)"/>
     </g>
    </g>
   </g>
   <g id="matplotlib.axis_2">
    <g id="ytick_1">
     <g id="line2d_7">
      <path d="M 57.6 307.584 
L 414.72 307.584 
" clip-path="url(#p007b795653)" style="fill: none; stroke: #cccccc; stroke-width: 0.8; stroke-linecap: round"/>
     </g>
     <g id="text_8">
      <!-- 0 -->
      <g style="fill: #262626" transform="translate(45.039062 311.162906) scale(0.1 -0.1)">
       <use xlink:href="#ArialMT-30"/>
      </g>
     </g>
    </g>
    <g id="ytick_2">
     <g id="line2d_8">
      <path d="M 57.6 249.852793 
L 414.72 249.852793 
" clip-path="url(#p007b795653)" style="fill: none; stroke: #cccccc; stroke-width: 0.8; stroke-linecap: round"/>
     </g>
     <g id="text_9">
      <!-- 100 -->
      <g style="fill: #262626" transform="translate(33.917187 253.431699) scale(0.1 -0.1)">
       <use xlink:href="#ArialMT-31"/>
       <use xlink:href="#ArialMT-30" transform="translate(55.615234 0)"/>
       <use xlink:href="#ArialMT-30" transform="translate(111.230469 0)"/>
      </g>
     </g>
    </g>
    <g id="ytick_3">
     <g id="line2d_9">
      <path d="M 57.6 192.121585 
L 414.72 192.121585 
" clip-path="url(#p007b795653)" style="fill: none; stroke: #cccccc; stroke-width: 0.8; stroke-linecap: round"/>
     </g>
     <g id="text_10">
      <!-- 200 -->
      <g style="fill: #262626" transform="translate(33.917187 195.700492) scale(0.1 -0.1)">
       <use xlink:href="#ArialMT-32"/>
       <use xlink:href="#ArialMT-30" transform="translate(55.615234 0)"/>
       <use xlink:href="#ArialMT-30" transform="translate(111.230469 0)"/>
      </g>
     </g>
    </g>
    <g id="ytick_4">
     <g id="line2d_10">
      <path d="M 57.6 134.390378 
L 414.72 134.390378 
" clip-path="url(#p007b795653)" style="fill: none; stroke: #cccccc; stroke-width: 0.8; stroke-linecap: round"/>
     </g>
     <g id="text_11">
      <!-- 300 -->
      <g style="fill: #262626" transform="translate(33.917187 137.969284) scale(0.1 -0.1)">
       <defs>
        <path id="ArialMT-33" d="M 269 1209 
L 831 1284 
Q 928 806 1161 595 
Q 1394 384 1728 384 
Q 2125 384 2398 659 
Q 2672 934 2672 1341 
Q 2672 1728 2419 1979 
Q 2166 2231 1775 2231 
Q 1616 2231 1378 2169 
L 1441 2663 
Q 1497 2656 1531 2656 
Q 1891 2656 2178 2843 
Q 2466 3031 2466 3422 
Q 2466 3731 2256 3934 
Q 2047 4138 1716 4138 
Q 1388 4138 1169 3931 
Q 950 3725 888 3313 
L 325 3413 
Q 428 3978 793 4289 
Q 1159 4600 1703 4600 
Q 2078 4600 2393 4439 
Q 2709 4278 2876 4000 
Q 3044 3722 3044 3409 
Q 3044 3113 2884 2869 
Q 2725 2625 2413 2481 
Q 2819 2388 3044 2092 
Q 3269 1797 3269 1353 
Q 3269 753 2831 336 
Q 2394 -81 1725 -81 
Q 1122 -81 723 278 
Q 325 638 269 1209 
z
" transform="scale(0.015625)"/>
       </defs>
       <use xlink:href="#ArialMT-33"/>
       <use xlink:href="#ArialMT-30" transform="translate(55.615234 0)"/>
       <use xlink:href="#ArialMT-30" transform="translate(111.230469 0)"/>
      </g>
     </g>
    </g>
    <g id="ytick_5">
     <g id="line2d_11">
      <path d="M 57.6 76.659171 
L 414.72 76.659171 
" clip-path="url(#p007b795653)" style="fill: none; stroke: #cccccc; stroke-width: 0.8; stroke-linecap: round"/>
     </g>
     <g id="text_12">
      <!-- 400 -->
      <g style="fill: #262626" transform="translate(33.917187 80.238077) scale(0.1 -0.1)">
       <use xlink:href="#ArialMT-34"/>
       <use xlink:href="#ArialMT-30" transform="translate(55.615234 0)"/>
       <use xlink:href="#ArialMT-30" transform="translate(111.230469 0)"/>
      </g>
     </g>
    </g>
    <g id="text_13">
     <!-- Personas -->
     <g style="fill: #262626" transform="translate(27.929687 195.649875) rotate(-90) scale(0.1 -0.1)">
      <defs>
       <path id="ArialMT-50" d="M 494 0 
L 494 4581 
L 2222 4581 
Q 2678 4581 2919 4538 
Q 3256 4481 3484 4323 
Q 3713 4166 3852 3881 
Q 3991 3597 3991 3256 
Q 3991 2672 3619 2267 
Q 3247 1863 2275 1863 
L 1100 1863 
L 1100 0 
L 494 0 
z
M 1100 2403 
L 2284 2403 
Q 2872 2403 3119 2622 
Q 3366 2841 3366 3238 
Q 3366 3525 3220 3729 
Q 3075 3934 2838 4000 
Q 2684 4041 2272 4041 
L 1100 4041 
L 1100 2403 
z
" transform="scale(0.015625)"/>
       <path id="ArialMT-65" d="M 2694 1069 
L 3275 997 
Q 3138 488 2766 206 
Q 2394 -75 1816 -75 
Q 1088 -75 661 373 
Q 234 822 234 1631 
Q 234 2469 665 2931 
Q 1097 3394 1784 3394 
Q 2450 3394 2872 2941 
Q 3294 2488 3294 1666 
Q 3294 1616 3291 1516 
L 816 1516 
Q 847 969 1125 678 
Q 1403 388 1819 388 
Q 2128 388 2347 550 
Q 2566 713 2694 1069 
z
M 847 1978 
L 2700 1978 
Q 2663 2397 2488 2606 
Q 2219 2931 1791 2931 
Q 1403 2931 1139 2672 
Q 875 2413 847 1978 
z
" transform="scale(0.015625)"/>
       <path id="ArialMT-72" d="M 416 0 
L 416 3319 
L 922 3319 
L 922 2816 
Q 1116 3169 1280 3281 
Q 1444 3394 1641 3394 
Q 1925 3394 2219 3213 
L 2025 2691 
Q 1819 2813 1613 2813 
Q 1428 2813 1281 2702 
Q 1134 2591 1072 2394 
Q 978 2094 978 1738 
L 978 0 
L 416 0 
z
" transform="scale(0.015625)"/>
       <path id="ArialMT-73" d="M 197 991 
L 753 1078 
Q 800 744 1014 566 
Q 1228 388 1613 388 
Q 2000 388 2187 545 
Q 2375 703 2375 916 
Q 2375 1106 2209 1216 
Q 2094 1291 1634 1406 
Q 1016 1563 777 1677 
Q 538 1791 414 1992 
Q 291 2194 291 2438 
Q 291 2659 392 2848 
Q 494 3038 669 3163 
Q 800 3259 1026 3326 
Q 1253 3394 1513 3394 
Q 1903 3394 2198 3281 
Q 2494 3169 2634 2976 
Q 2775 2784 2828 2463 
L 2278 2388 
Q 2241 2644 2061 2787 
Q 1881 2931 1553 2931 
Q 1166 2931 1000 2803 
Q 834 2675 834 2503 
Q 834 2394 903 2306 
Q 972 2216 1119 2156 
Q 1203 2125 1616 2013 
Q 2213 1853 2448 1751 
Q 2684 1650 2818 1456 
Q 2953 1263 2953 975 
Q 2953 694 2789 445 
Q 2625 197 2315 61 
Q 2006 -75 1616 -75 
Q 969 -75 630 194 
Q 291 463 197 991 
z
" transform="scale(0.015625)"/>
       <path id="ArialMT-6f" d="M 213 1659 
Q 213 2581 725 3025 
Q 1153 3394 1769 3394 
Q 2453 3394 2887 2945 
Q 3322 2497 3322 1706 
Q 3322 1066 3130 698 
Q 2938 331 2570 128 
Q 2203 -75 1769 -75 
Q 1072 -75 642 372 
Q 213 819 213 1659 
z
M 791 1659 
Q 791 1022 1069 705 
Q 1347 388 1769 388 
Q 2188 388 2466 706 
Q 2744 1025 2744 1678 
Q 2744 2294 2464 2611 
Q 2184 2928 1769 2928 
Q 1347 2928 1069 2612 
Q 791 2297 791 1659 
z
" transform="scale(0.015625)"/>
       <path id="ArialMT-6e" d="M 422 0 
L 422 3319 
L 928 3319 
L 928 2847 
Q 1294 3394 1984 3394 
Q 2284 3394 2536 3286 
Q 2788 3178 2913 3003 
Q 3038 2828 3088 2588 
Q 3119 2431 3119 2041 
L 3119 0 
L 2556 0 
L 2556 2019 
Q 2556 2363 2490 2533 
Q 2425 2703 2258 2804 
Q 2091 2906 1866 2906 
Q 1506 2906 1245 2678 
Q 984 2450 984 1813 
L 984 0 
L 422 0 
z
" transform="scale(0.015625)"/>
      </defs>
      <use xlink:href="#ArialMT-50"/>
      <use xlink:href="#ArialMT-65" transform="translate(66.699219 0)"/>
      <use xlink:href="#ArialMT-72" transform="translate(122.314453 0)"/>
      <use xlink:href="#ArialMT-73" transform="translate(155.615234 0)"/>
      <use xlink:href="#ArialMT-6f" transform="translate(205.615234 0)"/>
      <use xlink:href="#ArialMT-6e" transform="translate(261.230469 0)"/>
      <use xlink:href="#ArialMT-61" transform="translate(316.845703 0)"/>
      <use xlink:href="#ArialMT-73" transform="translate(372.460938 0)"/>
     </g>
    </g>
   </g>
   <g id="patch_3">
    <path d="M 73.832727 307.584 
L 77.079273 307.584 
L 77.079273 151.132428 
L 73.832727 151.132428 
z
" clip-path="url(#p007b795653)" style="fill: #8c0800; fill-opacity: 0.5; stroke: #ffffff; stroke-width: 0.324655; stroke-linejoin: miter"/>
   </g>
   <g id="patch_4">
    <path d="M 77.079273 307.584 
L 80.325818 307.584 
L 80.325818 142.472747 
L 77.079273 142.472747 
z
" clip-path="url(#p007b795653)" style="fill: #8c0800; fill-opacity: 0.5; stroke: #ffffff; stroke-width: 0.324655; stroke-linejoin: miter"/>
   </g>
   <g id="patch_5">
    <path d="M 80.325818 307.584 
L 83.572364 307.584 
L 83.572364 136.122314 
L 80.325818 136.122314 
z
" clip-path="url(#p007b795653)" style="fill: #8c0800; fill-opacity: 0.5; stroke: #ffffff; stroke-width: 0.324655; stroke-linejoin: miter"/>
   </g>
   <g id="patch_6">
    <path d="M 83.572364 307.584 
L 86.818909 307.584 
L 86.818909 122.266825 
L 83.572364 122.266825 
z
" clip-path="url(#p007b795653)" style="fill: #8c0800; fill-opacity: 0.5; stroke: #ffffff; stroke-width: 0.324655; stroke-linejoin: miter"/>
   </g>
   <g id="patch_7">
    <path d="M 86.818909 307.584 
L 90.065455 307.584 
L 90.065455 96.287781 
L 86.818909 96.287781 
z
" clip-path="url(#p007b795653)" style="fill: #8c0800; fill-opacity: 0.5; stroke: #ffffff; stroke-width: 0.324655; stroke-linejoin: miter"/>
   </g>
   <g id="patch_8">
    <path d="M 90.065455 307.584 
L 93.312 307.584 
L 93.312 101.48359 
L 90.065455 101.48359 
z
" clip-path="url(#p007b795653)" style="fill: #8c0800; fill-opacity: 0.5; stroke: #ffffff; stroke-width: 0.324655; stroke-linejoin: miter"/>
   </g>
   <g id="patch_9">
    <path d="M 93.312 307.584 
L 96.558545 307.584 
L 96.558545 95.710469 
L 93.312 95.710469 
z
" clip-path="url(#p007b795653)" style="fill: #8c0800; fill-opacity: 0.5; stroke: #ffffff; stroke-width: 0.324655; stroke-linejoin: miter"/>
   </g>
   <g id="patch_10">
    <path d="M 96.558545 307.584 
L 99.805091 307.584 
L 99.805091 88.205412 
L 96.558545 88.205412 
z
" clip-path="url(#p007b795653)" style="fill: #8c0800; fill-opacity: 0.5; stroke: #ffffff; stroke-width: 0.324655; stroke-linejoin: miter"/>
   </g>
   <g id="patch_11">
    <path d="M 99.805091 307.584 
L 103.051636 307.584 
L 103.051636 70.308738 
L 99.805091 70.308738 
z
" clip-path="url(#p007b795653)" style="fill: #8c0800; fill-opacity: 0.5; stroke: #ffffff; stroke-width: 0.324655; stroke-linejoin: miter"/>
   </g>
   <g id="patch_12">
    <path d="M 103.051636 307.584 
L 106.298182 307.584 
L 106.298182 85.318852 
L 103.051636 85.318852 
z
" clip-path="url(#p007b795653)" style="fill: #8c0800; fill-opacity: 0.5; stroke: #ffffff; stroke-width: 0.324655; stroke-linejoin: miter"/>
   </g>
   <g id="patch_13">
    <path d="M 106.298182 307.584 
L 109.544727 307.584 
L 109.544727 99.174342 
L 106.298182 99.174342 
z
" clip-path="url(#p007b795653)" style="fill: #8c0800; fill-opacity: 0.5; stroke: #ffffff; stroke-width: 0.324655; stroke-linejoin: miter"/>
   </g>
   <g id="patch_14">
    <path d="M 109.544727 307.584 
L 112.791273 307.584 
L 112.791273 86.473476 
L 109.544727 86.473476 
z
" clip-path="url(#p007b795653)" style="fill: #8c0800; fill-opacity: 0.5; stroke: #ffffff; stroke-width: 0.324655; stroke-linejoin: miter"/>
   </g>
   <g id="patch_15">
    <path d="M 112.791273 307.584 
L 116.037818 307.584 
L 116.037818 66.844866 
L 112.791273 66.844866 
z
" clip-path="url(#p007b795653)" style="fill: #8c0800; fill-opacity: 0.5; stroke: #ffffff; stroke-width: 0.324655; stroke-linejoin: miter"/>
   </g>
   <g id="patch_16">
    <path d="M 116.037818 307.584 
L 119.284364 307.584 
L 119.284364 68.576802 
L 116.037818 68.576802 
z
" clip-path="url(#p007b795653)" style="fill: #8c0800; fill-opacity: 0.5; stroke: #ffffff; stroke-width: 0.324655; stroke-linejoin: miter"/>
   </g>
   <g id="patch_17">
    <path d="M 119.284364 307.584 
L 122.530909 307.584 
L 122.530909 74.349923 
L 119.284364 74.349923 
z
" clip-path="url(#p007b795653)" style="fill: #8c0800; fill-opacity: 0.5; stroke: #ffffff; stroke-width: 0.324655; stroke-linejoin: miter"/>
   </g>
   <g id="patch_18">
    <path d="M 122.530909 307.584 
L 125.777455 307.584 
L 125.777455 56.453248 
L 122.530909 56.453248 
z
" clip-path="url(#p007b795653)" style="fill: #8c0800; fill-opacity: 0.5; stroke: #ffffff; stroke-width: 0.324655; stroke-linejoin: miter"/>
   </g>
   <g id="patch_19">
    <path d="M 125.777455 307.584 
L 129.024 307.584 
L 129.024 54.144 
L 125.777455 54.144 
z
" clip-path="url(#p007b795653)" style="fill: #8c0800; fill-opacity: 0.5; stroke: #ffffff; stroke-width: 0.324655; stroke-linejoin: miter"/>
   </g>
   <g id="patch_20">
    <path d="M 129.024 307.584 
L 132.270545 307.584 
L 132.270545 69.154114 
L 129.024 69.154114 
z
" clip-path="url(#p007b795653)" style="fill: #8c0800; fill-opacity: 0.5; stroke: #ffffff; stroke-width: 0.324655; stroke-linejoin: miter"/>
   </g>
   <g id="patch_21">
    <path d="M 132.270545 307.584 
L 135.517091 307.584 
L 135.517091 83.586916 
L 132.270545 83.586916 
z
" clip-path="url(#p007b795653)" style="fill: #8c0800; fill-opacity: 0.5; stroke: #ffffff; stroke-width: 0.324655; stroke-linejoin: miter"/>
   </g>
   <g id="patch_22">
    <path d="M 135.517091 307.584 
L 138.763636 307.584 
L 138.763636 95.710469 
L 135.517091 95.710469 
z
" clip-path="url(#p007b795653)" style="fill: #8c0800; fill-opacity: 0.5; stroke: #ffffff; stroke-width: 0.324655; stroke-linejoin: miter"/>
   </g>
   <g id="patch_23">
    <path d="M 138.763636 307.584 
L 142.010182 307.584 
L 142.010182 54.721312 
L 138.763636 54.721312 
z
" clip-path="url(#p007b795653)" style="fill: #8c0800; fill-opacity: 0.5; stroke: #ffffff; stroke-width: 0.324655; stroke-linejoin: miter"/>
   </g>
   <g id="patch_24">
    <path d="M 142.010182 307.584 
L 145.256727 307.584 
L 145.256727 65.690241 
L 142.010182 65.690241 
z
" clip-path="url(#p007b795653)" style="fill: #8c0800; fill-opacity: 0.5; stroke: #ffffff; stroke-width: 0.324655; stroke-linejoin: miter"/>
   </g>
   <g id="patch_25">
    <path d="M 145.256727 307.584 
L 148.503273 307.584 
L 148.503273 82.432292 
L 145.256727 82.432292 
z
" clip-path="url(#p007b795653)" style="fill: #8c0800; fill-opacity: 0.5; stroke: #ffffff; stroke-width: 0.324655; stroke-linejoin: miter"/>
   </g>
   <g id="patch_26">
    <path d="M 148.503273 307.584 
L 151.749818 307.584 
L 151.749818 86.473476 
L 148.503273 86.473476 
z
" clip-path="url(#p007b795653)" style="fill: #8c0800; fill-opacity: 0.5; stroke: #ffffff; stroke-width: 0.324655; stroke-linejoin: miter"/>
   </g>
   <g id="patch_27">
    <path d="M 151.749818 307.584 
L 154.996364 307.584 
L 154.996364 69.731426 
L 151.749818 69.731426 
z
" clip-path="url(#p007b795653)" style="fill: #8c0800; fill-opacity: 0.5; stroke: #ffffff; stroke-width: 0.324655; stroke-linejoin: miter"/>
   </g>
   <g id="patch_28">
    <path d="M 154.996364 307.584 
L 158.242909 307.584 
L 158.242909 105.524774 
L 154.996364 105.524774 
z
" clip-path="url(#p007b795653)" style="fill: #8c0800; fill-opacity: 0.5; stroke: #ffffff; stroke-width: 0.324655; stroke-linejoin: miter"/>
   </g>
   <g id="patch_29">
    <path d="M 158.242909 307.584 
L 161.489455 307.584 
L 161.489455 86.473476 
L 158.242909 86.473476 
z
" clip-path="url(#p007b795653)" style="fill: #8c0800; fill-opacity: 0.5; stroke: #ffffff; stroke-width: 0.324655; stroke-linejoin: miter"/>
   </g>
   <g id="patch_30">
    <path d="M 161.489455 307.584 
L 164.736 307.584 
L 164.736 113.029831 
L 161.489455 113.029831 
z
" clip-path="url(#p007b795653)" style="fill: #8c0800; fill-opacity: 0.5; stroke: #ffffff; stroke-width: 0.324655; stroke-linejoin: miter"/>
   </g>
   <g id="patch_31">
    <path d="M 164.736 307.584 
L 167.982545 307.584 
L 167.982545 103.215526 
L 164.736 103.215526 
z
" clip-path="url(#p007b795653)" style="fill: #8c0800; fill-opacity: 0.5; stroke: #ffffff; stroke-width: 0.324655; stroke-linejoin: miter"/>
   </g>
   <g id="patch_32">
    <path d="M 167.982545 307.584 
L 171.229091 307.584 
L 171.229091 124.576073 
L 167.982545 124.576073 
z
" clip-path="url(#p007b795653)" style="fill: #8c0800; fill-opacity: 0.5; stroke: #ffffff; stroke-width: 0.324655; stroke-linejoin: miter"/>
   </g>
   <g id="patch_33">
    <path d="M 171.229091 307.584 
L 174.475636 307.584 
L 174.475636 98.59703 
L 171.229091 98.59703 
z
" clip-path="url(#p007b795653)" style="fill: #8c0800; fill-opacity: 0.5; stroke: #ffffff; stroke-width: 0.324655; stroke-linejoin: miter"/>
   </g>
   <g id="patch_34">
    <path d="M 174.475636 307.584 
L 177.722182 307.584 
L 177.722182 133.235754 
L 174.475636 133.235754 
z
" clip-path="url(#p007b795653)" style="fill: #8c0800; fill-opacity: 0.5; stroke: #ffffff; stroke-width: 0.324655; stroke-linejoin: miter"/>
   </g>
   <g id="patch_35">
    <path d="M 177.722182 307.584 
L 180.968727 307.584 
L 180.968727 116.493704 
L 177.722182 116.493704 
z
" clip-path="url(#p007b795653)" style="fill: #8c0800; fill-opacity: 0.5; stroke: #ffffff; stroke-width: 0.324655; stroke-linejoin: miter"/>
   </g>
   <g id="patch_36">
    <path d="M 180.968727 307.584 
L 184.215273 307.584 
L 184.215273 125.730697 
L 180.968727 125.730697 
z
" clip-path="url(#p007b795653)" style="fill: #8c0800; fill-opacity: 0.5; stroke: #ffffff; stroke-width: 0.324655; stroke-linejoin: miter"/>
   </g>
   <g id="patch_37">
    <path d="M 184.215273 307.584 
L 187.461818 307.584 
L 187.461818 147.668556 
L 184.215273 147.668556 
z
" clip-path="url(#p007b795653)" style="fill: #8c0800; fill-opacity: 0.5; stroke: #ffffff; stroke-width: 0.324655; stroke-linejoin: miter"/>
   </g>
   <g id="patch_38">
    <path d="M 187.461818 307.584 
L 190.708364 307.584 
L 190.708364 130.349194 
L 187.461818 130.349194 
z
" clip-path="url(#p007b795653)" style="fill: #8c0800; fill-opacity: 0.5; stroke: #ffffff; stroke-width: 0.324655; stroke-linejoin: miter"/>
   </g>
   <g id="patch_39">
    <path d="M 190.708364 307.584 
L 193.954909 307.584 
L 193.954909 152.287052 
L 190.708364 152.287052 
z
" clip-path="url(#p007b795653)" style="fill: #8c0800; fill-opacity: 0.5; stroke: #ffffff; stroke-width: 0.324655; stroke-linejoin: miter"/>
   </g>
   <g id="patch_40">
    <path d="M 193.954909 307.584 
L 197.201455 307.584 
L 197.201455 154.018989 
L 193.954909 154.018989 
z
" clip-path="url(#p007b795653)" style="fill: #8c0800; fill-opacity: 0.5; stroke: #ffffff; stroke-width: 0.324655; stroke-linejoin: miter"/>
   </g>
   <g id="patch_41">
    <path d="M 197.201455 307.584 
L 200.448 307.584 
L 200.448 121.689513 
L 197.201455 121.689513 
z
" clip-path="url(#p007b795653)" style="fill: #8c0800; fill-opacity: 0.5; stroke: #ffffff; stroke-width: 0.324655; stroke-linejoin: miter"/>
   </g>
   <g id="patch_42">
    <path d="M 200.448 307.584 
L 203.694545 307.584 
L 203.694545 154.596301 
L 200.448 154.596301 
z
" clip-path="url(#p007b795653)" style="fill: #8c0800; fill-opacity: 0.5; stroke: #ffffff; stroke-width: 0.324655; stroke-linejoin: miter"/>
   </g>
   <g id="patch_43">
    <path d="M 203.694545 307.584 
L 206.941091 307.584 
L 206.941091 111.875207 
L 203.694545 111.875207 
z
" clip-path="url(#p007b795653)" style="fill: #8c0800; fill-opacity: 0.5; stroke: #ffffff; stroke-width: 0.324655; stroke-linejoin: miter"/>
   </g>
   <g id="patch_44">
    <path d="M 206.941091 307.584 
L 210.187636 307.584 
L 210.187636 147.668556 
L 206.941091 147.668556 
z
" clip-path="url(#p007b795653)" style="fill: #8c0800; fill-opacity: 0.5; stroke: #ffffff; stroke-width: 0.324655; stroke-linejoin: miter"/>
   </g>
   <g id="patch_45">
    <path d="M 210.187636 307.584 
L 213.434182 307.584 
L 213.434182 152.287052 
L 210.187636 152.287052 
z
" clip-path="url(#p007b795653)" style="fill: #8c0800; fill-opacity: 0.5; stroke: #ffffff; stroke-width: 0.324655; stroke-linejoin: miter"/>
   </g>
   <g id="patch_46">
    <path d="M 213.434182 307.584 
L 216.680727 307.584 
L 216.680727 124.576073 
L 213.434182 124.576073 
z
" clip-path="url(#p007b795653)" style="fill: #8c0800; fill-opacity: 0.5; stroke: #ffffff; stroke-width: 0.324655; stroke-linejoin: miter"/>
   </g>
   <g id="patch_47">
    <path d="M 216.680727 307.584 
L 219.927273 307.584 
L 219.927273 131.503818 
L 216.680727 131.503818 
z
" clip-path="url(#p007b795653)" style="fill: #8c0800; fill-opacity: 0.5; stroke: #ffffff; stroke-width: 0.324655; stroke-linejoin: miter"/>
   </g>
   <g id="patch_48">
    <path d="M 219.927273 307.584 
L 223.173818 307.584 
L 223.173818 138.431563 
L 219.927273 138.431563 
z
" clip-path="url(#p007b795653)" style="fill: #8c0800; fill-opacity: 0.5; stroke: #ffffff; stroke-width: 0.324655; stroke-linejoin: miter"/>
   </g>
   <g id="patch_49">
    <path d="M 223.173818 307.584 
L 226.420364 307.584 
L 226.420364 98.019718 
L 223.173818 98.019718 
z
" clip-path="url(#p007b795653)" style="fill: #8c0800; fill-opacity: 0.5; stroke: #ffffff; stroke-width: 0.324655; stroke-linejoin: miter"/>
   </g>
   <g id="patch_50">
    <path d="M 226.420364 307.584 
L 229.666909 307.584 
L 229.666909 110.720583 
L 226.420364 110.720583 
z
" clip-path="url(#p007b795653)" style="fill: #8c0800; fill-opacity: 0.5; stroke: #ffffff; stroke-width: 0.324655; stroke-linejoin: miter"/>
   </g>
   <g id="patch_51">
    <path d="M 229.666909 307.584 
L 232.913455 307.584 
L 232.913455 127.462633 
L 229.666909 127.462633 
z
" clip-path="url(#p007b795653)" style="fill: #8c0800; fill-opacity: 0.5; stroke: #ffffff; stroke-width: 0.324655; stroke-linejoin: miter"/>
   </g>
   <g id="patch_52">
    <path d="M 232.913455 307.584 
L 236.16 307.584 
L 236.16 102.638214 
L 232.913455 102.638214 
z
" clip-path="url(#p007b795653)" style="fill: #8c0800; fill-opacity: 0.5; stroke: #ffffff; stroke-width: 0.324655; stroke-linejoin: miter"/>
   </g>
   <g id="patch_53">
    <path d="M 236.16 307.584 
L 239.406545 307.584 
L 239.406545 92.823909 
L 236.16 92.823909 
z
" clip-path="url(#p007b795653)" style="fill: #8c0800; fill-opacity: 0.5; stroke: #ffffff; stroke-width: 0.324655; stroke-linejoin: miter"/>
   </g>
   <g id="patch_54">
    <path d="M 239.406545 307.584 
L 242.653091 307.584 
L 242.653091 132.08113 
L 239.406545 132.08113 
z
" clip-path="url(#p007b795653)" style="fill: #8c0800; fill-opacity: 0.5; stroke: #ffffff; stroke-width: 0.324655; stroke-linejoin: miter"/>
   </g>
   <g id="patch_55">
    <path d="M 242.653091 307.584 
L 245.899636 307.584 
L 245.899636 103.215526 
L 242.653091 103.215526 
z
" clip-path="url(#p007b795653)" style="fill: #8c0800; fill-opacity: 0.5; stroke: #ffffff; stroke-width: 0.324655; stroke-linejoin: miter"/>
   </g>
   <g id="patch_56">
    <path d="M 245.899636 307.584 
L 249.146182 307.584 
L 249.146182 140.163499 
L 245.899636 140.163499 
z
" clip-path="url(#p007b795653)" style="fill: #8c0800; fill-opacity: 0.5; stroke: #ffffff; stroke-width: 0.324655; stroke-linejoin: miter"/>
   </g>
   <g id="patch_57">
    <path d="M 249.146182 307.584 
L 252.392727 307.584 
L 252.392727 126.308009 
L 249.146182 126.308009 
z
" clip-path="url(#p007b795653)" style="fill: #8c0800; fill-opacity: 0.5; stroke: #ffffff; stroke-width: 0.324655; stroke-linejoin: miter"/>
   </g>
   <g id="patch_58">
    <path d="M 252.392727 307.584 
L 255.639273 307.584 
L 255.639273 148.245868 
L 252.392727 148.245868 
z
" clip-path="url(#p007b795653)" style="fill: #8c0800; fill-opacity: 0.5; stroke: #ffffff; stroke-width: 0.324655; stroke-linejoin: miter"/>
   </g>
   <g id="patch_59">
    <path d="M 255.639273 307.584 
L 258.885818 307.584 
L 258.885818 141.318123 
L 255.639273 141.318123 
z
" clip-path="url(#p007b795653)" style="fill: #8c0800; fill-opacity: 0.5; stroke: #ffffff; stroke-width: 0.324655; stroke-linejoin: miter"/>
   </g>
   <g id="patch_60">
    <path d="M 258.885818 307.584 
L 262.132364 307.584 
L 262.132364 163.833294 
L 258.885818 163.833294 
z
" clip-path="url(#p007b795653)" style="fill: #8c0800; fill-opacity: 0.5; stroke: #ffffff; stroke-width: 0.324655; stroke-linejoin: miter"/>
   </g>
   <g id="patch_61">
    <path d="M 262.132364 307.584 
L 265.378909 307.584 
L 265.378909 152.287052 
L 262.132364 152.287052 
z
" clip-path="url(#p007b795653)" style="fill: #8c0800; fill-opacity: 0.5; stroke: #ffffff; stroke-width: 0.324655; stroke-linejoin: miter"/>
   </g>
   <g id="patch_62">
    <path d="M 265.378909 307.584 
L 268.625455 307.584 
L 268.625455 170.761039 
L 265.378909 170.761039 
z
" clip-path="url(#p007b795653)" style="fill: #8c0800; fill-opacity: 0.5; stroke: #ffffff; stroke-width: 0.324655; stroke-linejoin: miter"/>
   </g>
   <g id="patch_63">
    <path d="M 268.625455 307.584 
L 271.872 307.584 
L 271.872 169.029103 
L 268.625455 169.029103 
z
" clip-path="url(#p007b795653)" style="fill: #8c0800; fill-opacity: 0.5; stroke: #ffffff; stroke-width: 0.324655; stroke-linejoin: miter"/>
   </g>
   <g id="patch_64">
    <path d="M 271.872 307.584 
L 275.118545 307.584 
L 275.118545 179.42072 
L 271.872 179.42072 
z
" clip-path="url(#p007b795653)" style="fill: #8c0800; fill-opacity: 0.5; stroke: #ffffff; stroke-width: 0.324655; stroke-linejoin: miter"/>
   </g>
   <g id="patch_65">
    <path d="M 275.118545 307.584 
L 278.365091 307.584 
L 278.365091 158.637485 
L 275.118545 158.637485 
z
" clip-path="url(#p007b795653)" style="fill: #8c0800; fill-opacity: 0.5; stroke: #ffffff; stroke-width: 0.324655; stroke-linejoin: miter"/>
   </g>
   <g id="patch_66">
    <path d="M 278.365091 307.584 
L 281.611636 307.584 
L 281.611636 140.740811 
L 278.365091 140.740811 
z
" clip-path="url(#p007b795653)" style="fill: #8c0800; fill-opacity: 0.5; stroke: #ffffff; stroke-width: 0.324655; stroke-linejoin: miter"/>
   </g>
   <g id="patch_67">
    <path d="M 281.611636 307.584 
L 284.858182 307.584 
L 284.858182 186.925777 
L 281.611636 186.925777 
z
" clip-path="url(#p007b795653)" style="fill: #8c0800; fill-opacity: 0.5; stroke: #ffffff; stroke-width: 0.324655; stroke-linejoin: miter"/>
   </g>
   <g id="patch_68">
    <path d="M 284.858182 307.584 
L 288.104727 307.584 
L 288.104727 186.925777 
L 284.858182 186.925777 
z
" clip-path="url(#p007b795653)" style="fill: #8c0800; fill-opacity: 0.5; stroke: #ffffff; stroke-width: 0.324655; stroke-linejoin: miter"/>
   </g>
   <g id="patch_69">
    <path d="M 288.104727 307.584 
L 291.351273 307.584 
L 291.351273 203.667827 
L 288.104727 203.667827 
z
" clip-path="url(#p007b795653)" style="fill: #8c0800; fill-opacity: 0.5; stroke: #ffffff; stroke-width: 0.324655; stroke-linejoin: miter"/>
   </g>
   <g id="patch_70">
    <path d="M 291.351273 307.584 
L 294.597818 307.584 
L 294.597818 200.203954 
L 291.351273 200.203954 
z
" clip-path="url(#p007b795653)" style="fill: #8c0800; fill-opacity: 0.5; stroke: #ffffff; stroke-width: 0.324655; stroke-linejoin: miter"/>
   </g>
   <g id="patch_71">
    <path d="M 294.597818 307.584 
L 297.844364 307.584 
L 297.844364 218.677941 
L 294.597818 218.677941 
z
" clip-path="url(#p007b795653)" style="fill: #8c0800; fill-opacity: 0.5; stroke: #ffffff; stroke-width: 0.324655; stroke-linejoin: miter"/>
   </g>
   <g id="patch_72">
    <path d="M 297.844364 307.584 
L 301.090909 307.584 
L 301.090909 225.605686 
L 297.844364 225.605686 
z
" clip-path="url(#p007b795653)" style="fill: #8c0800; fill-opacity: 0.5; stroke: #ffffff; stroke-width: 0.324655; stroke-linejoin: miter"/>
   </g>
   <g id="patch_73">
    <path d="M 301.090909 307.584 
L 304.337455 307.584 
L 304.337455 218.677941 
L 301.090909 218.677941 
z
" clip-path="url(#p007b795653)" style="fill: #8c0800; fill-opacity: 0.5; stroke: #ffffff; stroke-width: 0.324655; stroke-linejoin: miter"/>
   </g>
   <g id="patch_74">
    <path d="M 304.337455 307.584 
L 307.584 307.584 
L 307.584 244.079672 
L 304.337455 244.079672 
z
" clip-path="url(#p007b795653)" style="fill: #8c0800; fill-opacity: 0.5; stroke: #ffffff; stroke-width: 0.324655; stroke-linejoin: miter"/>
   </g>
   <g id="patch_75">
    <path d="M 307.584 307.584 
L 310.830545 307.584 
L 310.830545 232.533431 
L 307.584 232.533431 
z
" clip-path="url(#p007b795653)" style="fill: #8c0800; fill-opacity: 0.5; stroke: #ffffff; stroke-width: 0.324655; stroke-linejoin: miter"/>
   </g>
   <g id="patch_76">
    <path d="M 310.830545 307.584 
L 314.077091 307.584 
L 314.077091 238.306551 
L 310.830545 238.306551 
z
" clip-path="url(#p007b795653)" style="fill: #8c0800; fill-opacity: 0.5; stroke: #ffffff; stroke-width: 0.324655; stroke-linejoin: miter"/>
   </g>
   <g id="patch_77">
    <path d="M 314.077091 307.584 
L 317.323636 307.584 
L 317.323636 240.038487 
L 314.077091 240.038487 
z
" clip-path="url(#p007b795653)" style="fill: #8c0800; fill-opacity: 0.5; stroke: #ffffff; stroke-width: 0.324655; stroke-linejoin: miter"/>
   </g>
   <g id="patch_78">
    <path d="M 317.323636 307.584 
L 320.570182 307.584 
L 320.570182 260.821722 
L 317.323636 260.821722 
z
" clip-path="url(#p007b795653)" style="fill: #8c0800; fill-opacity: 0.5; stroke: #ffffff; stroke-width: 0.324655; stroke-linejoin: miter"/>
   </g>
   <g id="patch_79">
    <path d="M 320.570182 307.584 
L 323.816727 307.584 
L 323.816727 253.893977 
L 320.570182 253.893977 
z
" clip-path="url(#p007b795653)" style="fill: #8c0800; fill-opacity: 0.5; stroke: #ffffff; stroke-width: 0.324655; stroke-linejoin: miter"/>
   </g>
   <g id="patch_80">
    <path d="M 323.816727 307.584 
L 327.063273 307.584 
L 327.063273 259.667098 
L 323.816727 259.667098 
z
" clip-path="url(#p007b795653)" style="fill: #8c0800; fill-opacity: 0.5; stroke: #ffffff; stroke-width: 0.324655; stroke-linejoin: miter"/>
   </g>
   <g id="patch_81">
    <path d="M 327.063273 307.584 
L 330.309818 307.584 
L 330.309818 259.089786 
L 327.063273 259.089786 
z
" clip-path="url(#p007b795653)" style="fill: #8c0800; fill-opacity: 0.5; stroke: #ffffff; stroke-width: 0.324655; stroke-linejoin: miter"/>
   </g>
   <g id="patch_82">
    <path d="M 330.309818 307.584 
L 333.556364 307.584 
L 333.556364 271.213339 
L 330.309818 271.213339 
z
" clip-path="url(#p007b795653)" style="fill: #8c0800; fill-opacity: 0.5; stroke: #ffffff; stroke-width: 0.324655; stroke-linejoin: miter"/>
   </g>
   <g id="patch_83">
    <path d="M 333.556364 307.584 
L 336.802909 307.584 
L 336.802909 278.718396 
L 333.556364 278.718396 
z
" clip-path="url(#p007b795653)" style="fill: #8c0800; fill-opacity: 0.5; stroke: #ffffff; stroke-width: 0.324655; stroke-linejoin: miter"/>
   </g>
   <g id="patch_84">
    <path d="M 336.802909 307.584 
L 340.049455 307.584 
L 340.049455 283.336893 
L 336.802909 283.336893 
z
" clip-path="url(#p007b795653)" style="fill: #8c0800; fill-opacity: 0.5; stroke: #ffffff; stroke-width: 0.324655; stroke-linejoin: miter"/>
   </g>
   <g id="patch_85">
    <path d="M 340.049455 307.584 
L 343.296 307.584 
L 343.296 279.295708 
L 340.049455 279.295708 
z
" clip-path="url(#p007b795653)" style="fill: #8c0800; fill-opacity: 0.5; stroke: #ffffff; stroke-width: 0.324655; stroke-linejoin: miter"/>
   </g>
   <g id="patch_86">
    <path d="M 343.296 307.584 
L 346.542545 307.584 
L 346.542545 275.254524 
L 343.296 275.254524 
z
" clip-path="url(#p007b795653)" style="fill: #8c0800; fill-opacity: 0.5; stroke: #ffffff; stroke-width: 0.324655; stroke-linejoin: miter"/>
   </g>
   <g id="patch_87">
    <path d="M 346.542545 307.584 
L 349.789091 307.584 
L 349.789091 284.491517 
L 346.542545 284.491517 
z
" clip-path="url(#p007b795653)" style="fill: #8c0800; fill-opacity: 0.5; stroke: #ffffff; stroke-width: 0.324655; stroke-linejoin: miter"/>
   </g>
   <g id="patch_88">
    <path d="M 349.789091 307.584 
L 353.035636 307.584 
L 353.035636 290.264638 
L 349.789091 290.264638 
z
" clip-path="url(#p007b795653)" style="fill: #8c0800; fill-opacity: 0.5; stroke: #ffffff; stroke-width: 0.324655; stroke-linejoin: miter"/>
   </g>
   <g id="patch_89">
    <path d="M 353.035636 307.584 
L 356.282182 307.584 
L 356.282182 298.347007 
L 353.035636 298.347007 
z
" clip-path="url(#p007b795653)" style="fill: #8c0800; fill-opacity: 0.5; stroke: #ffffff; stroke-width: 0.324655; stroke-linejoin: miter"/>
   </g>
   <g id="patch_90">
    <path d="M 356.282182 307.584 
L 359.528727 307.584 
L 359.528727 296.615071 
L 356.282182 296.615071 
z
" clip-path="url(#p007b795653)" style="fill: #8c0800; fill-opacity: 0.5; stroke: #ffffff; stroke-width: 0.324655; stroke-linejoin: miter"/>
   </g>
   <g id="patch_91">
    <path d="M 359.528727 307.584 
L 362.775273 307.584 
L 362.775273 300.656255 
L 359.528727 300.656255 
z
" clip-path="url(#p007b795653)" style="fill: #8c0800; fill-opacity: 0.5; stroke: #ffffff; stroke-width: 0.324655; stroke-linejoin: miter"/>
   </g>
   <g id="patch_92">
    <path d="M 362.775273 307.584 
L 366.021818 307.584 
L 366.021818 299.501631 
L 362.775273 299.501631 
z
" clip-path="url(#p007b795653)" style="fill: #8c0800; fill-opacity: 0.5; stroke: #ffffff; stroke-width: 0.324655; stroke-linejoin: miter"/>
   </g>
   <g id="patch_93">
    <path d="M 366.021818 307.584 
L 369.268364 307.584 
L 369.268364 297.192383 
L 366.021818 297.192383 
z
" clip-path="url(#p007b795653)" style="fill: #8c0800; fill-opacity: 0.5; stroke: #ffffff; stroke-width: 0.324655; stroke-linejoin: miter"/>
   </g>
   <g id="patch_94">
    <path d="M 369.268364 307.584 
L 372.514909 307.584 
L 372.514909 301.810879 
L 369.268364 301.810879 
z
" clip-path="url(#p007b795653)" style="fill: #8c0800; fill-opacity: 0.5; stroke: #ffffff; stroke-width: 0.324655; stroke-linejoin: miter"/>
   </g>
   <g id="patch_95">
    <path d="M 372.514909 307.584 
L 375.761455 307.584 
L 375.761455 302.965503 
L 372.514909 302.965503 
z
" clip-path="url(#p007b795653)" style="fill: #8c0800; fill-opacity: 0.5; stroke: #ffffff; stroke-width: 0.324655; stroke-linejoin: miter"/>
   </g>
   <g id="patch_96">
    <path d="M 375.761455 307.584 
L 379.008 307.584 
L 379.008 300.078943 
L 375.761455 300.078943 
z
" clip-path="url(#p007b795653)" style="fill: #8c0800; fill-opacity: 0.5; stroke: #ffffff; stroke-width: 0.324655; stroke-linejoin: miter"/>
   </g>
   <g id="patch_97">
    <path d="M 379.008 307.584 
L 382.254545 307.584 
L 382.254545 305.852064 
L 379.008 305.852064 
z
" clip-path="url(#p007b795653)" style="fill: #8c0800; fill-opacity: 0.5; stroke: #ffffff; stroke-width: 0.324655; stroke-linejoin: miter"/>
   </g>
   <g id="patch_98">
    <path d="M 382.254545 307.584 
L 385.501091 307.584 
L 385.501091 305.852064 
L 382.254545 305.852064 
z
" clip-path="url(#p007b795653)" style="fill: #8c0800; fill-opacity: 0.5; stroke: #ffffff; stroke-width: 0.324655; stroke-linejoin: miter"/>
   </g>
   <g id="patch_99">
    <path d="M 385.501091 307.584 
L 388.747636 307.584 
L 388.747636 307.584 
L 385.501091 307.584 
z
" clip-path="url(#p007b795653)" style="fill: #8c0800; fill-opacity: 0.5; stroke: #ffffff; stroke-width: 0.324655; stroke-linejoin: miter"/>
   </g>
   <g id="patch_100">
    <path d="M 388.747636 307.584 
L 391.994182 307.584 
L 391.994182 305.274752 
L 388.747636 305.274752 
z
" clip-path="url(#p007b795653)" style="fill: #8c0800; fill-opacity: 0.5; stroke: #ffffff; stroke-width: 0.324655; stroke-linejoin: miter"/>
   </g>
   <g id="patch_101">
    <path d="M 391.994182 307.584 
L 395.240727 307.584 
L 395.240727 307.584 
L 391.994182 307.584 
z
" clip-path="url(#p007b795653)" style="fill: #8c0800; fill-opacity: 0.5; stroke: #ffffff; stroke-width: 0.324655; stroke-linejoin: miter"/>
   </g>
   <g id="patch_102">
    <path d="M 395.240727 307.584 
L 398.487273 307.584 
L 398.487273 305.852064 
L 395.240727 305.852064 
z
" clip-path="url(#p007b795653)" style="fill: #8c0800; fill-opacity: 0.5; stroke: #ffffff; stroke-width: 0.324655; stroke-linejoin: miter"/>
   </g>
   <g id="line2d_12">
    <path d="M 73.832727 208.359012 
L 77.095587 182.53743 
L 80.358447 158.878448 
L 81.989877 148.365602 
L 83.621307 138.873853 
L 85.252736 130.434558 
L 86.884166 123.029395 
L 88.515596 116.603003 
L 90.147026 111.075698 
L 91.778456 106.354404 
L 93.409886 102.340794 
L 95.041316 98.93643 
L 96.672746 96.045431 
L 98.304175 93.575575 
L 99.935605 91.438909 
L 101.567035 89.552748 
L 104.829895 86.23984 
L 112.987044 78.664968 
L 116.249904 75.942575 
L 117.881334 74.793702 
L 119.512764 73.846413 
L 121.144194 73.134747 
L 122.775624 72.677994 
L 124.407053 72.478145 
L 126.038483 72.519946 
L 127.669913 72.773604 
L 129.301343 73.19977 
L 132.564203 74.403475 
L 135.827063 75.869454 
L 139.089922 77.534745 
L 142.352782 79.540072 
L 143.984212 80.740704 
L 145.615642 82.10666 
L 147.247072 83.652964 
L 148.878502 85.383975 
L 152.141361 89.363734 
L 155.404221 93.886711 
L 170.08709 115.213423 
L 178.244239 126.12639 
L 181.507099 130.251623 
L 184.769959 133.955588 
L 186.401389 135.559101 
L 188.032819 136.952278 
L 189.664249 138.110615 
L 191.295678 139.020508 
L 192.927108 139.680783 
L 194.558538 140.102463 
L 196.189968 140.306709 
L 197.821398 140.321185 
L 199.452828 140.17541 
L 201.084258 139.895915 
L 204.347117 139.003488 
L 207.609977 137.679402 
L 209.241407 136.82862 
L 210.872837 135.830539 
L 212.504267 134.672983 
L 214.135697 133.352481 
L 217.398556 130.270358 
L 225.555706 121.820929 
L 227.187136 120.447676 
L 228.818566 119.313356 
L 230.449995 118.465412 
L 232.081425 117.943205 
L 233.712855 117.776947 
L 235.344285 117.98686 
L 236.975715 118.582516 
L 238.607145 119.562439 
L 240.238575 120.914108 
L 241.870005 122.614504 
L 243.501434 124.631275 
L 245.132864 126.924448 
L 248.395724 132.154731 
L 253.290014 140.869346 
L 258.184303 149.50562 
L 261.447163 154.698027 
L 264.710023 159.199445 
L 267.972883 162.986492 
L 271.235742 166.275102 
L 274.498602 169.522628 
L 276.130032 171.312597 
L 277.761462 173.307036 
L 279.392892 175.560935 
L 281.024322 178.109445 
L 282.655751 180.964206 
L 284.287181 184.11268 
L 287.550041 191.13617 
L 298.97005 217.188238 
L 302.23291 223.62051 
L 305.49577 229.448449 
L 308.75863 234.791657 
L 313.652919 242.238312 
L 321.810069 254.039399 
L 328.335788 263.138805 
L 333.230078 269.513703 
L 336.492937 273.406901 
L 339.755797 276.987548 
L 344.650087 281.922013 
L 351.175806 288.127512 
L 354.438666 291.041313 
L 357.701526 293.673146 
L 360.964386 295.912763 
L 364.227245 297.732794 
L 367.490105 299.196681 
L 370.752965 300.418665 
L 377.278684 302.530941 
L 383.804404 304.383125 
L 388.698693 305.479528 
L 393.592983 306.258501 
L 398.487273 306.775371 
L 398.487273 306.775371 
" clip-path="url(#p007b795653)" style="fill: none; stroke: #8c0800; stroke-width: 1.5; stroke-linecap: round"/>
   </g>
   <g id="patch_103">
    <path d="M 57.6 307.584 
L 57.6 41.472 
" style="fill: none; stroke: #cccccc; stroke-width: 0.8; stroke-linejoin: miter; stroke-linecap: square"/>
   </g>
   <g id="patch_104">
    <path d="M 414.72 307.584 
L 414.72 41.472 
" style="fill: none; stroke: #cccccc; stroke-width: 0.8; stroke-linejoin: miter; stroke-linecap: square"/>
   </g>
   <g id="patch_105">
    <path d="M 57.6 307.584 
L 414.72 307.584 
" style="fill: none; stroke: #cccccc; stroke-width: 0.8; stroke-linejoin: miter; stroke-linecap: square"/>
   </g>
   <g id="patch_106">
    <path d="M 57.6 41.472 
L 414.72 41.472 
" style="fill: none; stroke: #cccccc; stroke-width: 0.8; stroke-linejoin: miter; stroke-linecap: square"/>
   </g>
   <g id="text_14">
    <!-- Histograma de Edad -->
    <g style="fill: #262626" transform="translate(181.46625 35.472) scale(0.12 -0.12)">
     <defs>
      <path id="ArialMT-48" d="M 513 0 
L 513 4581 
L 1119 4581 
L 1119 2700 
L 3500 2700 
L 3500 4581 
L 4106 4581 
L 4106 0 
L 3500 0 
L 3500 2159 
L 1119 2159 
L 1119 0 
L 513 0 
z
" transform="scale(0.015625)"/>
      <path id="ArialMT-69" d="M 425 3934 
L 425 4581 
L 988 4581 
L 988 3934 
L 425 3934 
z
M 425 0 
L 425 3319 
L 988 3319 
L 988 0 
L 425 0 
z
" transform="scale(0.015625)"/>
      <path id="ArialMT-74" d="M 1650 503 
L 1731 6 
Q 1494 -44 1306 -44 
Q 1000 -44 831 53 
Q 663 150 594 308 
Q 525 466 525 972 
L 525 2881 
L 113 2881 
L 113 3319 
L 525 3319 
L 525 4141 
L 1084 4478 
L 1084 3319 
L 1650 3319 
L 1650 2881 
L 1084 2881 
L 1084 941 
Q 1084 700 1114 631 
Q 1144 563 1211 522 
Q 1278 481 1403 481 
Q 1497 481 1650 503 
z
" transform="scale(0.015625)"/>
      <path id="ArialMT-67" d="M 319 -275 
L 866 -356 
Q 900 -609 1056 -725 
Q 1266 -881 1628 -881 
Q 2019 -881 2231 -725 
Q 2444 -569 2519 -288 
Q 2563 -116 2559 434 
Q 2191 0 1641 0 
Q 956 0 581 494 
Q 206 988 206 1678 
Q 206 2153 378 2554 
Q 550 2956 876 3175 
Q 1203 3394 1644 3394 
Q 2231 3394 2613 2919 
L 2613 3319 
L 3131 3319 
L 3131 450 
Q 3131 -325 2973 -648 
Q 2816 -972 2473 -1159 
Q 2131 -1347 1631 -1347 
Q 1038 -1347 672 -1080 
Q 306 -813 319 -275 
z
M 784 1719 
Q 784 1066 1043 766 
Q 1303 466 1694 466 
Q 2081 466 2343 764 
Q 2606 1063 2606 1700 
Q 2606 2309 2336 2618 
Q 2066 2928 1684 2928 
Q 1309 2928 1046 2623 
Q 784 2319 784 1719 
z
" transform="scale(0.015625)"/>
      <path id="ArialMT-6d" d="M 422 0 
L 422 3319 
L 925 3319 
L 925 2853 
Q 1081 3097 1340 3245 
Q 1600 3394 1931 3394 
Q 2300 3394 2536 3241 
Q 2772 3088 2869 2813 
Q 3263 3394 3894 3394 
Q 4388 3394 4653 3120 
Q 4919 2847 4919 2278 
L 4919 0 
L 4359 0 
L 4359 2091 
Q 4359 2428 4304 2576 
Q 4250 2725 4106 2815 
Q 3963 2906 3769 2906 
Q 3419 2906 3187 2673 
Q 2956 2441 2956 1928 
L 2956 0 
L 2394 0 
L 2394 2156 
Q 2394 2531 2256 2718 
Q 2119 2906 1806 2906 
Q 1569 2906 1367 2781 
Q 1166 2656 1075 2415 
Q 984 2175 984 1722 
L 984 0 
L 422 0 
z
" transform="scale(0.015625)"/>
      <path id="ArialMT-20" transform="scale(0.015625)"/>
     </defs>
     <use xlink:href="#ArialMT-48"/>
     <use xlink:href="#ArialMT-69" transform="translate(72.216797 0)"/>
     <use xlink:href="#ArialMT-73" transform="translate(94.433594 0)"/>
     <use xlink:href="#ArialMT-74" transform="translate(144.433594 0)"/>
     <use xlink:href="#ArialMT-6f" transform="translate(172.216797 0)"/>
     <use xlink:href="#ArialMT-67" transform="translate(227.832031 0)"/>
     <use xlink:href="#ArialMT-72" transform="translate(283.447266 0)"/>
     <use xlink:href="#ArialMT-61" transform="translate(316.748047 0)"/>
     <use xlink:href="#ArialMT-6d" transform="translate(372.363281 0)"/>
     <use xlink:href="#ArialMT-61" transform="translate(455.664062 0)"/>
     <use xlink:href="#ArialMT-20" transform="translate(511.279297 0)"/>
     <use xlink:href="#ArialMT-64" transform="translate(539.0625 0)"/>
     <use xlink:href="#ArialMT-65" transform="translate(594.677734 0)"/>
     <use xlink:href="#ArialMT-20" transform="translate(650.292969 0)"/>
     <use xlink:href="#ArialMT-45" transform="translate(678.076172 0)"/>
     <use xlink:href="#ArialMT-64" transform="translate(744.775391 0)"/>
     <use xlink:href="#ArialMT-61" transform="translate(800.390625 0)"/>
     <use xlink:href="#ArialMT-64" transform="translate(856.005859 0)"/>
    </g>
   </g>
  </g>
 </g>
 <defs>
  <clipPath id="p007b795653">
   <rect x="57.6" y="41.472" width="357.12" height="266.112"/>
  </clipPath>
 </defs>
</svg>
