<?xml version="1.0" encoding="utf-8" standalone="no"?>
<!DOCTYPE svg PUBLIC "-//W3C//DTD SVG 1.1//EN"
  "http://www.w3.org/Graphics/SVG/1.1/DTD/svg11.dtd">
<svg xmlns:xlink="http://www.w3.org/1999/xlink" width="864pt" height="720pt" viewBox="0 0 864 720" xmlns="http://www.w3.org/2000/svg" version="1.1">
 <metadata>
  <rdf:RDF xmlns:dc="http://purl.org/dc/elements/1.1/" xmlns:cc="http://creativecommons.org/ns#" xmlns:rdf="http://www.w3.org/1999/02/22-rdf-syntax-ns#">
   <cc:Work>
    <dc:type rdf:resource="http://purl.org/dc/dcmitype/StillImage"/>
    <dc:date>2025-03-17T22:24:44.430235</dc:date>
    <dc:format>image/svg+xml</dc:format>
    <dc:creator>
     <cc:Agent>
      <dc:title>Matplotlib v3.10.0, https://matplotlib.org/</dc:title>
     </cc:Agent>
    </dc:creator>
   </cc:Work>
  </rdf:RDF>
 </metadata>
 <defs>
  <style type="text/css">*{stroke-linejoin: round; stroke-linecap: butt}</style>
 </defs>
 <g id="figure_1">
  <g id="patch_1">
   <path d="M 0 720 
L 864 720 
L 864 0 
L 0 0 
z
" style="fill: #ffffff"/>
  </g>
  <g id="axes_1">
   <g id="patch_2">
    <path d="M 46.64 573.01 
L 853.2 573.01 
L 853.2 52.92375 
L 46.64 52.92375 
z
" style="fill: #ffffff"/>
   </g>
   <g id="matplotlib.axis_1">
    <g id="xtick_1">
     <g id="text_1">
      <!-- Incapacitado -->
      <g style="fill: #262626" transform="translate(99.635156 636.714688) rotate(-90) scale(0.1 -0.1)">
       <defs>
        <path id="ArialMT-49" d="M 597 0 
L 597 4581 
L 1203 4581 
L 1203 0 
L 597 0 
z
" transform="scale(0.015625)"/>
        <path id="ArialMT-6e" d="M 422 0 
L 422 3319 
L 928 3319 
L 928 2847 
Q 1294 3394 1984 3394 
Q 2284 3394 2536 3286 
Q 2788 3178 2913 3003 
Q 3038 2828 3088 2588 
Q 3119 2431 3119 2041 
L 3119 0 
L 2556 0 
L 2556 2019 
Q 2556 2363 2490 2533 
Q 2425 2703 2258 2804 
Q 2091 2906 1866 2906 
Q 1506 2906 1245 2678 
Q 984 2450 984 1813 
L 984 0 
L 422 0 
z
" transform="scale(0.015625)"/>
        <path id="ArialMT-63" d="M 2588 1216 
L 3141 1144 
Q 3050 572 2676 248 
Q 2303 -75 1759 -75 
Q 1078 -75 664 370 
Q 250 816 250 1647 
Q 250 2184 428 2587 
Q 606 2991 970 3192 
Q 1334 3394 1763 3394 
Q 2303 3394 2647 3120 
Q 2991 2847 3088 2344 
L 2541 2259 
Q 2463 2594 2264 2762 
Q 2066 2931 1784 2931 
Q 1359 2931 1093 2626 
Q 828 2322 828 1663 
Q 828 994 1084 691 
Q 1341 388 1753 388 
Q 2084 388 2306 591 
Q 2528 794 2588 1216 
z
" transform="scale(0.015625)"/>
        <path id="ArialMT-61" d="M 2588 409 
Q 2275 144 1986 34 
Q 1697 -75 1366 -75 
Q 819 -75 525 192 
Q 231 459 231 875 
Q 231 1119 342 1320 
Q 453 1522 633 1644 
Q 813 1766 1038 1828 
Q 1203 1872 1538 1913 
Q 2219 1994 2541 2106 
Q 2544 2222 2544 2253 
Q 2544 2597 2384 2738 
Q 2169 2928 1744 2928 
Q 1347 2928 1158 2789 
Q 969 2650 878 2297 
L 328 2372 
Q 403 2725 575 2942 
Q 747 3159 1072 3276 
Q 1397 3394 1825 3394 
Q 2250 3394 2515 3294 
Q 2781 3194 2906 3042 
Q 3031 2891 3081 2659 
Q 3109 2516 3109 2141 
L 3109 1391 
Q 3109 606 3145 398 
Q 3181 191 3288 0 
L 2700 0 
Q 2613 175 2588 409 
z
M 2541 1666 
Q 2234 1541 1622 1453 
Q 1275 1403 1131 1340 
Q 988 1278 909 1158 
Q 831 1038 831 891 
Q 831 666 1001 516 
Q 1172 366 1500 366 
Q 1825 366 2078 508 
Q 2331 650 2450 897 
Q 2541 1088 2541 1459 
L 2541 1666 
z
" transform="scale(0.015625)"/>
        <path id="ArialMT-70" d="M 422 -1272 
L 422 3319 
L 934 3319 
L 934 2888 
Q 1116 3141 1344 3267 
Q 1572 3394 1897 3394 
Q 2322 3394 2647 3175 
Q 2972 2956 3137 2557 
Q 3303 2159 3303 1684 
Q 3303 1175 3120 767 
Q 2938 359 2589 142 
Q 2241 -75 1856 -75 
Q 1575 -75 1351 44 
Q 1128 163 984 344 
L 984 -1272 
L 422 -1272 
z
M 931 1641 
Q 931 1000 1190 694 
Q 1450 388 1819 388 
Q 2194 388 2461 705 
Q 2728 1022 2728 1688 
Q 2728 2322 2467 2637 
Q 2206 2953 1844 2953 
Q 1484 2953 1207 2617 
Q 931 2281 931 1641 
z
" transform="scale(0.015625)"/>
        <path id="ArialMT-69" d="M 425 3934 
L 425 4581 
L 988 4581 
L 988 3934 
L 425 3934 
z
M 425 0 
L 425 3319 
L 988 3319 
L 988 0 
L 425 0 
z
" transform="scale(0.015625)"/>
        <path id="ArialMT-74" d="M 1650 503 
L 1731 6 
Q 1494 -44 1306 -44 
Q 1000 -44 831 53 
Q 663 150 594 308 
Q 525 466 525 972 
L 525 2881 
L 113 2881 
L 113 3319 
L 525 3319 
L 525 4141 
L 1084 4478 
L 1084 3319 
L 1650 3319 
L 1650 2881 
L 1084 2881 
L 1084 941 
Q 1084 700 1114 631 
Q 1144 563 1211 522 
Q 1278 481 1403 481 
Q 1497 481 1650 503 
z
" transform="scale(0.015625)"/>
        <path id="ArialMT-64" d="M 2575 0 
L 2575 419 
Q 2259 -75 1647 -75 
Q 1250 -75 917 144 
Q 584 363 401 755 
Q 219 1147 219 1656 
Q 219 2153 384 2558 
Q 550 2963 881 3178 
Q 1213 3394 1622 3394 
Q 1922 3394 2156 3267 
Q 2391 3141 2538 2938 
L 2538 4581 
L 3097 4581 
L 3097 0 
L 2575 0 
z
M 797 1656 
Q 797 1019 1065 703 
Q 1334 388 1700 388 
Q 2069 388 2326 689 
Q 2584 991 2584 1609 
Q 2584 2291 2321 2609 
Q 2059 2928 1675 2928 
Q 1300 2928 1048 2622 
Q 797 2316 797 1656 
z
" transform="scale(0.015625)"/>
        <path id="ArialMT-6f" d="M 213 1659 
Q 213 2581 725 3025 
Q 1153 3394 1769 3394 
Q 2453 3394 2887 2945 
Q 3322 2497 3322 1706 
Q 3322 1066 3130 698 
Q 2938 331 2570 128 
Q 2203 -75 1769 -75 
Q 1072 -75 642 372 
Q 213 819 213 1659 
z
M 791 1659 
Q 791 1022 1069 705 
Q 1347 388 1769 388 
Q 2188 388 2466 706 
Q 2744 1025 2744 1678 
Q 2744 2294 2464 2611 
Q 2184 2928 1769 2928 
Q 1347 2928 1069 2612 
Q 791 2297 791 1659 
z
" transform="scale(0.015625)"/>
       </defs>
       <use xlink:href="#ArialMT-49"/>
       <use xlink:href="#ArialMT-6e" transform="translate(27.783203 0)"/>
       <use xlink:href="#ArialMT-63" transform="translate(83.398438 0)"/>
       <use xlink:href="#ArialMT-61" transform="translate(133.398438 0)"/>
       <use xlink:href="#ArialMT-70" transform="translate(189.013672 0)"/>
       <use xlink:href="#ArialMT-61" transform="translate(244.628906 0)"/>
       <use xlink:href="#ArialMT-63" transform="translate(300.244141 0)"/>
       <use xlink:href="#ArialMT-69" transform="translate(350.244141 0)"/>
       <use xlink:href="#ArialMT-74" transform="translate(372.460938 0)"/>
       <use xlink:href="#ArialMT-61" transform="translate(400.244141 0)"/>
       <use xlink:href="#ArialMT-64" transform="translate(455.859375 0)"/>
       <use xlink:href="#ArialMT-6f" transform="translate(511.474609 0)"/>
      </g>
     </g>
    </g>
    <g id="xtick_2">
     <g id="text_2">
      <!-- Quehaceres del hogar -->
      <g style="fill: #262626" transform="translate(200.460625 678.956875) rotate(-90) scale(0.1 -0.1)">
       <defs>
        <path id="ArialMT-51" d="M 3966 491 
Q 4388 200 4744 66 
L 4566 -356 
Q 4072 -178 3581 206 
Q 3072 -78 2456 -78 
Q 1834 -78 1328 222 
Q 822 522 548 1065 
Q 275 1609 275 2291 
Q 275 2969 550 3525 
Q 825 4081 1333 4372 
Q 1841 4663 2469 4663 
Q 3103 4663 3612 4361 
Q 4122 4059 4389 3517 
Q 4656 2975 4656 2294 
Q 4656 1728 4484 1276 
Q 4313 825 3966 491 
z
M 2631 1266 
Q 3156 1119 3497 828 
Q 4031 1316 4031 2294 
Q 4031 2850 3842 3265 
Q 3653 3681 3289 3911 
Q 2925 4141 2472 4141 
Q 1794 4141 1347 3677 
Q 900 3213 900 2291 
Q 900 1397 1342 919 
Q 1784 441 2472 441 
Q 2797 441 3084 563 
Q 2800 747 2484 825 
L 2631 1266 
z
" transform="scale(0.015625)"/>
        <path id="ArialMT-75" d="M 2597 0 
L 2597 488 
Q 2209 -75 1544 -75 
Q 1250 -75 995 37 
Q 741 150 617 320 
Q 494 491 444 738 
Q 409 903 409 1263 
L 409 3319 
L 972 3319 
L 972 1478 
Q 972 1038 1006 884 
Q 1059 663 1231 536 
Q 1403 409 1656 409 
Q 1909 409 2131 539 
Q 2353 669 2445 892 
Q 2538 1116 2538 1541 
L 2538 3319 
L 3100 3319 
L 3100 0 
L 2597 0 
z
" transform="scale(0.015625)"/>
        <path id="ArialMT-65" d="M 2694 1069 
L 3275 997 
Q 3138 488 2766 206 
Q 2394 -75 1816 -75 
Q 1088 -75 661 373 
Q 234 822 234 1631 
Q 234 2469 665 2931 
Q 1097 3394 1784 3394 
Q 2450 3394 2872 2941 
Q 3294 2488 3294 1666 
Q 3294 1616 3291 1516 
L 816 1516 
Q 847 969 1125 678 
Q 1403 388 1819 388 
Q 2128 388 2347 550 
Q 2566 713 2694 1069 
z
M 847 1978 
L 2700 1978 
Q 2663 2397 2488 2606 
Q 2219 2931 1791 2931 
Q 1403 2931 1139 2672 
Q 875 2413 847 1978 
z
" transform="scale(0.015625)"/>
        <path id="ArialMT-68" d="M 422 0 
L 422 4581 
L 984 4581 
L 984 2938 
Q 1378 3394 1978 3394 
Q 2347 3394 2619 3248 
Q 2891 3103 3008 2847 
Q 3125 2591 3125 2103 
L 3125 0 
L 2563 0 
L 2563 2103 
Q 2563 2525 2380 2717 
Q 2197 2909 1863 2909 
Q 1613 2909 1392 2779 
Q 1172 2650 1078 2428 
Q 984 2206 984 1816 
L 984 0 
L 422 0 
z
" transform="scale(0.015625)"/>
        <path id="ArialMT-72" d="M 416 0 
L 416 3319 
L 922 3319 
L 922 2816 
Q 1116 3169 1280 3281 
Q 1444 3394 1641 3394 
Q 1925 3394 2219 3213 
L 2025 2691 
Q 1819 2813 1613 2813 
Q 1428 2813 1281 2702 
Q 1134 2591 1072 2394 
Q 978 2094 978 1738 
L 978 0 
L 416 0 
z
" transform="scale(0.015625)"/>
        <path id="ArialMT-73" d="M 197 991 
L 753 1078 
Q 800 744 1014 566 
Q 1228 388 1613 388 
Q 2000 388 2187 545 
Q 2375 703 2375 916 
Q 2375 1106 2209 1216 
Q 2094 1291 1634 1406 
Q 1016 1563 777 1677 
Q 538 1791 414 1992 
Q 291 2194 291 2438 
Q 291 2659 392 2848 
Q 494 3038 669 3163 
Q 800 3259 1026 3326 
Q 1253 3394 1513 3394 
Q 1903 3394 2198 3281 
Q 2494 3169 2634 2976 
Q 2775 2784 2828 2463 
L 2278 2388 
Q 2241 2644 2061 2787 
Q 1881 2931 1553 2931 
Q 1166 2931 1000 2803 
Q 834 2675 834 2503 
Q 834 2394 903 2306 
Q 972 2216 1119 2156 
Q 1203 2125 1616 2013 
Q 2213 1853 2448 1751 
Q 2684 1650 2818 1456 
Q 2953 1263 2953 975 
Q 2953 694 2789 445 
Q 2625 197 2315 61 
Q 2006 -75 1616 -75 
Q 969 -75 630 194 
Q 291 463 197 991 
z
" transform="scale(0.015625)"/>
        <path id="ArialMT-20" transform="scale(0.015625)"/>
        <path id="ArialMT-6c" d="M 409 0 
L 409 4581 
L 972 4581 
L 972 0 
L 409 0 
z
" transform="scale(0.015625)"/>
        <path id="ArialMT-67" d="M 319 -275 
L 866 -356 
Q 900 -609 1056 -725 
Q 1266 -881 1628 -881 
Q 2019 -881 2231 -725 
Q 2444 -569 2519 -288 
Q 2563 -116 2559 434 
Q 2191 0 1641 0 
Q 956 0 581 494 
Q 206 988 206 1678 
Q 206 2153 378 2554 
Q 550 2956 876 3175 
Q 1203 3394 1644 3394 
Q 2231 3394 2613 2919 
L 2613 3319 
L 3131 3319 
L 3131 450 
Q 3131 -325 2973 -648 
Q 2816 -972 2473 -1159 
Q 2131 -1347 1631 -1347 
Q 1038 -1347 672 -1080 
Q 306 -813 319 -275 
z
M 784 1719 
Q 784 1066 1043 766 
Q 1303 466 1694 466 
Q 2081 466 2343 764 
Q 2606 1063 2606 1700 
Q 2606 2309 2336 2618 
Q 2066 2928 1684 2928 
Q 1309 2928 1046 2623 
Q 784 2319 784 1719 
z
" transform="scale(0.015625)"/>
       </defs>
       <use xlink:href="#ArialMT-51"/>
       <use xlink:href="#ArialMT-75" transform="translate(77.783203 0)"/>
       <use xlink:href="#ArialMT-65" transform="translate(133.398438 0)"/>
       <use xlink:href="#ArialMT-68" transform="translate(189.013672 0)"/>
       <use xlink:href="#ArialMT-61" transform="translate(244.628906 0)"/>
       <use xlink:href="#ArialMT-63" transform="translate(300.244141 0)"/>
       <use xlink:href="#ArialMT-65" transform="translate(350.244141 0)"/>
       <use xlink:href="#ArialMT-72" transform="translate(405.859375 0)"/>
       <use xlink:href="#ArialMT-65" transform="translate(439.160156 0)"/>
       <use xlink:href="#ArialMT-73" transform="translate(494.775391 0)"/>
       <use xlink:href="#ArialMT-20" transform="translate(544.775391 0)"/>
       <use xlink:href="#ArialMT-64" transform="translate(572.558594 0)"/>
       <use xlink:href="#ArialMT-65" transform="translate(628.173828 0)"/>
       <use xlink:href="#ArialMT-6c" transform="translate(683.789062 0)"/>
       <use xlink:href="#ArialMT-20" transform="translate(706.005859 0)"/>
       <use xlink:href="#ArialMT-68" transform="translate(733.789062 0)"/>
       <use xlink:href="#ArialMT-6f" transform="translate(789.404297 0)"/>
       <use xlink:href="#ArialMT-67" transform="translate(845.019531 0)"/>
       <use xlink:href="#ArialMT-61" transform="translate(900.634766 0)"/>
       <use xlink:href="#ArialMT-72" transform="translate(956.25 0)"/>
      </g>
     </g>
    </g>
    <g id="xtick_3">
     <g id="text_3">
      <!-- Jubilado o pensionado -->
      <g style="fill: #262626" transform="translate(301.275156 680.085) rotate(-90) scale(0.1 -0.1)">
       <defs>
        <path id="ArialMT-4a" d="M 184 1300 
L 731 1375 
Q 753 850 928 656 
Q 1103 463 1413 463 
Q 1641 463 1806 567 
Q 1972 672 2034 851 
Q 2097 1031 2097 1425 
L 2097 4581 
L 2703 4581 
L 2703 1459 
Q 2703 884 2564 568 
Q 2425 253 2123 87 
Q 1822 -78 1416 -78 
Q 813 -78 492 269 
Q 172 616 184 1300 
z
" transform="scale(0.015625)"/>
        <path id="ArialMT-62" d="M 941 0 
L 419 0 
L 419 4581 
L 981 4581 
L 981 2947 
Q 1338 3394 1891 3394 
Q 2197 3394 2470 3270 
Q 2744 3147 2920 2923 
Q 3097 2700 3197 2384 
Q 3297 2069 3297 1709 
Q 3297 856 2875 390 
Q 2453 -75 1863 -75 
Q 1275 -75 941 416 
L 941 0 
z
M 934 1684 
Q 934 1088 1097 822 
Q 1363 388 1816 388 
Q 2184 388 2453 708 
Q 2722 1028 2722 1663 
Q 2722 2313 2464 2622 
Q 2206 2931 1841 2931 
Q 1472 2931 1203 2611 
Q 934 2291 934 1684 
z
" transform="scale(0.015625)"/>
       </defs>
       <use xlink:href="#ArialMT-4a"/>
       <use xlink:href="#ArialMT-75" transform="translate(50 0)"/>
       <use xlink:href="#ArialMT-62" transform="translate(105.615234 0)"/>
       <use xlink:href="#ArialMT-69" transform="translate(161.230469 0)"/>
       <use xlink:href="#ArialMT-6c" transform="translate(183.447266 0)"/>
       <use xlink:href="#ArialMT-61" transform="translate(205.664062 0)"/>
       <use xlink:href="#ArialMT-64" transform="translate(261.279297 0)"/>
       <use xlink:href="#ArialMT-6f" transform="translate(316.894531 0)"/>
       <use xlink:href="#ArialMT-20" transform="translate(372.509766 0)"/>
       <use xlink:href="#ArialMT-6f" transform="translate(400.292969 0)"/>
       <use xlink:href="#ArialMT-20" transform="translate(455.908203 0)"/>
       <use xlink:href="#ArialMT-70" transform="translate(483.691406 0)"/>
       <use xlink:href="#ArialMT-65" transform="translate(539.306641 0)"/>
       <use xlink:href="#ArialMT-6e" transform="translate(594.921875 0)"/>
       <use xlink:href="#ArialMT-73" transform="translate(650.537109 0)"/>
       <use xlink:href="#ArialMT-69" transform="translate(700.537109 0)"/>
       <use xlink:href="#ArialMT-6f" transform="translate(722.753906 0)"/>
       <use xlink:href="#ArialMT-6e" transform="translate(778.369141 0)"/>
       <use xlink:href="#ArialMT-61" transform="translate(833.984375 0)"/>
       <use xlink:href="#ArialMT-64" transform="translate(889.599609 0)"/>
       <use xlink:href="#ArialMT-6f" transform="translate(945.214844 0)"/>
      </g>
     </g>
    </g>
    <g id="xtick_4">
     <g id="text_4">
      <!-- Empleado -->
      <g style="fill: #262626" transform="translate(402.095156 625.036563) rotate(-90) scale(0.1 -0.1)">
       <defs>
        <path id="ArialMT-45" d="M 506 0 
L 506 4581 
L 3819 4581 
L 3819 4041 
L 1113 4041 
L 1113 2638 
L 3647 2638 
L 3647 2100 
L 1113 2100 
L 1113 541 
L 3925 541 
L 3925 0 
L 506 0 
z
" transform="scale(0.015625)"/>
        <path id="ArialMT-6d" d="M 422 0 
L 422 3319 
L 925 3319 
L 925 2853 
Q 1081 3097 1340 3245 
Q 1600 3394 1931 3394 
Q 2300 3394 2536 3241 
Q 2772 3088 2869 2813 
Q 3263 3394 3894 3394 
Q 4388 3394 4653 3120 
Q 4919 2847 4919 2278 
L 4919 0 
L 4359 0 
L 4359 2091 
Q 4359 2428 4304 2576 
Q 4250 2725 4106 2815 
Q 3963 2906 3769 2906 
Q 3419 2906 3187 2673 
Q 2956 2441 2956 1928 
L 2956 0 
L 2394 0 
L 2394 2156 
Q 2394 2531 2256 2718 
Q 2119 2906 1806 2906 
Q 1569 2906 1367 2781 
Q 1166 2656 1075 2415 
Q 984 2175 984 1722 
L 984 0 
L 422 0 
z
" transform="scale(0.015625)"/>
       </defs>
       <use xlink:href="#ArialMT-45"/>
       <use xlink:href="#ArialMT-6d" transform="translate(66.699219 0)"/>
       <use xlink:href="#ArialMT-70" transform="translate(150 0)"/>
       <use xlink:href="#ArialMT-6c" transform="translate(205.615234 0)"/>
       <use xlink:href="#ArialMT-65" transform="translate(227.832031 0)"/>
       <use xlink:href="#ArialMT-61" transform="translate(283.447266 0)"/>
       <use xlink:href="#ArialMT-64" transform="translate(339.0625 0)"/>
       <use xlink:href="#ArialMT-6f" transform="translate(394.677734 0)"/>
      </g>
     </g>
    </g>
    <g id="xtick_5">
     <g id="text_5">
      <!-- Otra situación -->
      <g style="fill: #262626" transform="translate(502.915156 641.700625) rotate(-90) scale(0.1 -0.1)">
       <defs>
        <path id="ArialMT-4f" d="M 309 2231 
Q 309 3372 921 4017 
Q 1534 4663 2503 4663 
Q 3138 4663 3647 4359 
Q 4156 4056 4423 3514 
Q 4691 2972 4691 2284 
Q 4691 1588 4409 1038 
Q 4128 488 3612 205 
Q 3097 -78 2500 -78 
Q 1853 -78 1343 234 
Q 834 547 571 1087 
Q 309 1628 309 2231 
z
M 934 2222 
Q 934 1394 1379 917 
Q 1825 441 2497 441 
Q 3181 441 3623 922 
Q 4066 1403 4066 2288 
Q 4066 2847 3877 3264 
Q 3688 3681 3323 3911 
Q 2959 4141 2506 4141 
Q 1863 4141 1398 3698 
Q 934 3256 934 2222 
z
" transform="scale(0.015625)"/>
        <path id="ArialMT-f3" d="M 213 1659 
Q 213 2581 725 3025 
Q 1153 3394 1769 3394 
Q 2453 3394 2887 2945 
Q 3322 2497 3322 1706 
Q 3322 1066 3130 698 
Q 2938 331 2570 128 
Q 2203 -75 1769 -75 
Q 1072 -75 642 372 
Q 213 819 213 1659 
z
M 791 1659 
Q 791 1022 1069 705 
Q 1347 388 1769 388 
Q 2188 388 2466 706 
Q 2744 1025 2744 1678 
Q 2744 2294 2464 2611 
Q 2184 2928 1769 2928 
Q 1347 2928 1069 2612 
Q 791 2297 791 1659 
z
M 1456 3731 
L 1872 4606 
L 2609 4606 
L 1922 3731 
L 1456 3731 
z
" transform="scale(0.015625)"/>
       </defs>
       <use xlink:href="#ArialMT-4f"/>
       <use xlink:href="#ArialMT-74" transform="translate(77.783203 0)"/>
       <use xlink:href="#ArialMT-72" transform="translate(105.566406 0)"/>
       <use xlink:href="#ArialMT-61" transform="translate(138.867188 0)"/>
       <use xlink:href="#ArialMT-20" transform="translate(194.482422 0)"/>
       <use xlink:href="#ArialMT-73" transform="translate(222.265625 0)"/>
       <use xlink:href="#ArialMT-69" transform="translate(272.265625 0)"/>
       <use xlink:href="#ArialMT-74" transform="translate(294.482422 0)"/>
       <use xlink:href="#ArialMT-75" transform="translate(322.265625 0)"/>
       <use xlink:href="#ArialMT-61" transform="translate(377.880859 0)"/>
       <use xlink:href="#ArialMT-63" transform="translate(433.496094 0)"/>
       <use xlink:href="#ArialMT-69" transform="translate(483.496094 0)"/>
       <use xlink:href="#ArialMT-f3" transform="translate(505.712891 0)"/>
       <use xlink:href="#ArialMT-6e" transform="translate(561.328125 0)"/>
      </g>
     </g>
    </g>
    <g id="xtick_6">
     <g id="text_6">
      <!-- Trabajador sin pago -->
      <g style="fill: #262626" transform="translate(603.676563 668.5725) rotate(-90) scale(0.1 -0.1)">
       <defs>
        <path id="ArialMT-54" d="M 1659 0 
L 1659 4041 
L 150 4041 
L 150 4581 
L 3781 4581 
L 3781 4041 
L 2266 4041 
L 2266 0 
L 1659 0 
z
" transform="scale(0.015625)"/>
        <path id="ArialMT-6a" d="M 419 3928 
L 419 4581 
L 981 4581 
L 981 3928 
L 419 3928 
z
M -294 -1288 
L -188 -809 
Q -19 -853 78 -853 
Q 250 -853 334 -739 
Q 419 -625 419 -169 
L 419 3319 
L 981 3319 
L 981 -181 
Q 981 -794 822 -1034 
Q 619 -1347 147 -1347 
Q -81 -1347 -294 -1288 
z
" transform="scale(0.015625)"/>
       </defs>
       <use xlink:href="#ArialMT-54"/>
       <use xlink:href="#ArialMT-72" transform="translate(57.333984 0)"/>
       <use xlink:href="#ArialMT-61" transform="translate(90.634766 0)"/>
       <use xlink:href="#ArialMT-62" transform="translate(146.25 0)"/>
       <use xlink:href="#ArialMT-61" transform="translate(201.865234 0)"/>
       <use xlink:href="#ArialMT-6a" transform="translate(257.480469 0)"/>
       <use xlink:href="#ArialMT-61" transform="translate(279.697266 0)"/>
       <use xlink:href="#ArialMT-64" transform="translate(335.3125 0)"/>
       <use xlink:href="#ArialMT-6f" transform="translate(390.927734 0)"/>
       <use xlink:href="#ArialMT-72" transform="translate(446.542969 0)"/>
       <use xlink:href="#ArialMT-20" transform="translate(479.84375 0)"/>
       <use xlink:href="#ArialMT-73" transform="translate(507.626953 0)"/>
       <use xlink:href="#ArialMT-69" transform="translate(557.626953 0)"/>
       <use xlink:href="#ArialMT-6e" transform="translate(579.84375 0)"/>
       <use xlink:href="#ArialMT-20" transform="translate(635.458984 0)"/>
       <use xlink:href="#ArialMT-70" transform="translate(663.242188 0)"/>
       <use xlink:href="#ArialMT-61" transform="translate(718.857422 0)"/>
       <use xlink:href="#ArialMT-67" transform="translate(774.472656 0)"/>
       <use xlink:href="#ArialMT-6f" transform="translate(830.087891 0)"/>
      </g>
     </g>
    </g>
    <g id="xtick_7">
     <g id="text_7">
      <!-- Estudiante -->
      <g style="fill: #262626" transform="translate(704.555156 627.263125) rotate(-90) scale(0.1 -0.1)">
       <use xlink:href="#ArialMT-45"/>
       <use xlink:href="#ArialMT-73" transform="translate(66.699219 0)"/>
       <use xlink:href="#ArialMT-74" transform="translate(116.699219 0)"/>
       <use xlink:href="#ArialMT-75" transform="translate(144.482422 0)"/>
       <use xlink:href="#ArialMT-64" transform="translate(200.097656 0)"/>
       <use xlink:href="#ArialMT-69" transform="translate(255.712891 0)"/>
       <use xlink:href="#ArialMT-61" transform="translate(277.929688 0)"/>
       <use xlink:href="#ArialMT-6e" transform="translate(333.544922 0)"/>
       <use xlink:href="#ArialMT-74" transform="translate(389.160156 0)"/>
       <use xlink:href="#ArialMT-65" transform="translate(416.943359 0)"/>
      </g>
     </g>
    </g>
    <g id="xtick_8">
     <g id="text_8">
      <!-- Trabajador por su cuenta -->
      <g style="fill: #262626" transform="translate(805.316562 691.358438) rotate(-90) scale(0.1 -0.1)">
       <use xlink:href="#ArialMT-54"/>
       <use xlink:href="#ArialMT-72" transform="translate(57.333984 0)"/>
       <use xlink:href="#ArialMT-61" transform="translate(90.634766 0)"/>
       <use xlink:href="#ArialMT-62" transform="translate(146.25 0)"/>
       <use xlink:href="#ArialMT-61" transform="translate(201.865234 0)"/>
       <use xlink:href="#ArialMT-6a" transform="translate(257.480469 0)"/>
       <use xlink:href="#ArialMT-61" transform="translate(279.697266 0)"/>
       <use xlink:href="#ArialMT-64" transform="translate(335.3125 0)"/>
       <use xlink:href="#ArialMT-6f" transform="translate(390.927734 0)"/>
       <use xlink:href="#ArialMT-72" transform="translate(446.542969 0)"/>
       <use xlink:href="#ArialMT-20" transform="translate(479.84375 0)"/>
       <use xlink:href="#ArialMT-70" transform="translate(507.626953 0)"/>
       <use xlink:href="#ArialMT-6f" transform="translate(563.242188 0)"/>
       <use xlink:href="#ArialMT-72" transform="translate(618.857422 0)"/>
       <use xlink:href="#ArialMT-20" transform="translate(652.158203 0)"/>
       <use xlink:href="#ArialMT-73" transform="translate(679.941406 0)"/>
       <use xlink:href="#ArialMT-75" transform="translate(729.941406 0)"/>
       <use xlink:href="#ArialMT-20" transform="translate(785.556641 0)"/>
       <use xlink:href="#ArialMT-63" transform="translate(813.339844 0)"/>
       <use xlink:href="#ArialMT-75" transform="translate(863.339844 0)"/>
       <use xlink:href="#ArialMT-65" transform="translate(918.955078 0)"/>
       <use xlink:href="#ArialMT-6e" transform="translate(974.570312 0)"/>
       <use xlink:href="#ArialMT-74" transform="translate(1030.185547 0)"/>
       <use xlink:href="#ArialMT-61" transform="translate(1057.96875 0)"/>
      </g>
     </g>
    </g>
    <g id="text_9">
     <!-- Ocupación -->
     <g style="fill: #262626" transform="translate(411.167266 706.277969) scale(0.15 -0.15)">
      <defs>
       <path id="Arial-BoldMT-4f" d="M 278 2263 
Q 278 2963 488 3438 
Q 644 3788 914 4066 
Q 1184 4344 1506 4478 
Q 1934 4659 2494 4659 
Q 3506 4659 4114 4031 
Q 4722 3403 4722 2284 
Q 4722 1175 4119 548 
Q 3516 -78 2506 -78 
Q 1484 -78 881 545 
Q 278 1169 278 2263 
z
M 1231 2294 
Q 1231 1516 1590 1114 
Q 1950 713 2503 713 
Q 3056 713 3411 1111 
Q 3766 1509 3766 2306 
Q 3766 3094 3420 3481 
Q 3075 3869 2503 3869 
Q 1931 3869 1581 3476 
Q 1231 3084 1231 2294 
z
" transform="scale(0.015625)"/>
       <path id="Arial-BoldMT-63" d="M 3353 2338 
L 2488 2181 
Q 2444 2441 2289 2572 
Q 2134 2703 1888 2703 
Q 1559 2703 1364 2476 
Q 1169 2250 1169 1719 
Q 1169 1128 1367 884 
Q 1566 641 1900 641 
Q 2150 641 2309 783 
Q 2469 925 2534 1272 
L 3397 1125 
Q 3263 531 2881 228 
Q 2500 -75 1859 -75 
Q 1131 -75 698 384 
Q 266 844 266 1656 
Q 266 2478 700 2936 
Q 1134 3394 1875 3394 
Q 2481 3394 2839 3133 
Q 3197 2872 3353 2338 
z
" transform="scale(0.015625)"/>
       <path id="Arial-BoldMT-75" d="M 2644 0 
L 2644 497 
Q 2463 231 2167 78 
Q 1872 -75 1544 -75 
Q 1209 -75 943 72 
Q 678 219 559 484 
Q 441 750 441 1219 
L 441 3319 
L 1319 3319 
L 1319 1794 
Q 1319 1094 1367 936 
Q 1416 778 1544 686 
Q 1672 594 1869 594 
Q 2094 594 2272 717 
Q 2450 841 2515 1023 
Q 2581 1206 2581 1919 
L 2581 3319 
L 3459 3319 
L 3459 0 
L 2644 0 
z
" transform="scale(0.015625)"/>
       <path id="Arial-BoldMT-70" d="M 434 3319 
L 1253 3319 
L 1253 2831 
Q 1413 3081 1684 3237 
Q 1956 3394 2288 3394 
Q 2866 3394 3269 2941 
Q 3672 2488 3672 1678 
Q 3672 847 3265 386 
Q 2859 -75 2281 -75 
Q 2006 -75 1782 34 
Q 1559 144 1313 409 
L 1313 -1263 
L 434 -1263 
L 434 3319 
z
M 1303 1716 
Q 1303 1156 1525 889 
Q 1747 622 2066 622 
Q 2372 622 2575 867 
Q 2778 1113 2778 1672 
Q 2778 2194 2568 2447 
Q 2359 2700 2050 2700 
Q 1728 2700 1515 2451 
Q 1303 2203 1303 1716 
z
" transform="scale(0.015625)"/>
       <path id="Arial-BoldMT-61" d="M 1116 2306 
L 319 2450 
Q 453 2931 781 3162 
Q 1109 3394 1756 3394 
Q 2344 3394 2631 3255 
Q 2919 3116 3036 2902 
Q 3153 2688 3153 2116 
L 3144 1091 
Q 3144 653 3186 445 
Q 3228 238 3344 0 
L 2475 0 
Q 2441 88 2391 259 
Q 2369 338 2359 363 
Q 2134 144 1878 34 
Q 1622 -75 1331 -75 
Q 819 -75 523 203 
Q 228 481 228 906 
Q 228 1188 362 1408 
Q 497 1628 739 1745 
Q 981 1863 1438 1950 
Q 2053 2066 2291 2166 
L 2291 2253 
Q 2291 2506 2166 2614 
Q 2041 2722 1694 2722 
Q 1459 2722 1328 2630 
Q 1197 2538 1116 2306 
z
M 2291 1594 
Q 2122 1538 1756 1459 
Q 1391 1381 1278 1306 
Q 1106 1184 1106 997 
Q 1106 813 1243 678 
Q 1381 544 1594 544 
Q 1831 544 2047 700 
Q 2206 819 2256 991 
Q 2291 1103 2291 1419 
L 2291 1594 
z
" transform="scale(0.015625)"/>
       <path id="Arial-BoldMT-69" d="M 459 3769 
L 459 4581 
L 1338 4581 
L 1338 3769 
L 459 3769 
z
M 459 0 
L 459 3319 
L 1338 3319 
L 1338 0 
L 459 0 
z
" transform="scale(0.015625)"/>
       <path id="Arial-BoldMT-f3" d="M 256 1706 
Q 256 2144 472 2553 
Q 688 2963 1083 3178 
Q 1478 3394 1966 3394 
Q 2719 3394 3200 2905 
Q 3681 2416 3681 1669 
Q 3681 916 3195 420 
Q 2709 -75 1972 -75 
Q 1516 -75 1102 131 
Q 688 338 472 736 
Q 256 1134 256 1706 
z
M 1156 1659 
Q 1156 1166 1390 903 
Q 1625 641 1969 641 
Q 2313 641 2545 903 
Q 2778 1166 2778 1666 
Q 2778 2153 2545 2415 
Q 2313 2678 1969 2678 
Q 1625 2678 1390 2415 
Q 1156 2153 1156 1659 
z
M 1525 3725 
L 1956 4659 
L 2941 4659 
L 2081 3725 
L 1525 3725 
z
" transform="scale(0.015625)"/>
       <path id="Arial-BoldMT-6e" d="M 3478 0 
L 2600 0 
L 2600 1694 
Q 2600 2231 2544 2389 
Q 2488 2547 2361 2634 
Q 2234 2722 2056 2722 
Q 1828 2722 1647 2597 
Q 1466 2472 1398 2265 
Q 1331 2059 1331 1503 
L 1331 0 
L 453 0 
L 453 3319 
L 1269 3319 
L 1269 2831 
Q 1703 3394 2363 3394 
Q 2653 3394 2893 3289 
Q 3134 3184 3257 3021 
Q 3381 2859 3429 2653 
Q 3478 2447 3478 2063 
L 3478 0 
z
" transform="scale(0.015625)"/>
      </defs>
      <use xlink:href="#Arial-BoldMT-4f"/>
      <use xlink:href="#Arial-BoldMT-63" transform="translate(77.783203 0)"/>
      <use xlink:href="#Arial-BoldMT-75" transform="translate(133.398438 0)"/>
      <use xlink:href="#Arial-BoldMT-70" transform="translate(194.482422 0)"/>
      <use xlink:href="#Arial-BoldMT-61" transform="translate(255.566406 0)"/>
      <use xlink:href="#Arial-BoldMT-63" transform="translate(311.181641 0)"/>
      <use xlink:href="#Arial-BoldMT-69" transform="translate(366.796875 0)"/>
      <use xlink:href="#Arial-BoldMT-f3" transform="translate(394.580078 0)"/>
      <use xlink:href="#Arial-BoldMT-6e" transform="translate(455.664062 0)"/>
     </g>
    </g>
   </g>
   <g id="matplotlib.axis_2">
    <g id="ytick_1">
     <g id="line2d_1">
      <path d="M 46.64 545.878385 
L 853.2 545.878385 
" clip-path="url(#p7cfcee8f48)" style="fill: none; stroke: #cccccc; stroke-width: 0.8; stroke-linecap: round"/>
     </g>
     <g id="text_10">
      <!-- 10 -->
      <g style="fill: #262626" transform="translate(28.518125 549.457291) scale(0.1 -0.1)">
       <defs>
        <path id="ArialMT-31" d="M 2384 0 
L 1822 0 
L 1822 3584 
Q 1619 3391 1289 3197 
Q 959 3003 697 2906 
L 697 3450 
Q 1169 3672 1522 3987 
Q 1875 4303 2022 4600 
L 2384 4600 
L 2384 0 
z
" transform="scale(0.015625)"/>
        <path id="ArialMT-30" d="M 266 2259 
Q 266 3072 433 3567 
Q 600 4063 929 4331 
Q 1259 4600 1759 4600 
Q 2128 4600 2406 4451 
Q 2684 4303 2865 4023 
Q 3047 3744 3150 3342 
Q 3253 2941 3253 2259 
Q 3253 1453 3087 958 
Q 2922 463 2592 192 
Q 2263 -78 1759 -78 
Q 1097 -78 719 397 
Q 266 969 266 2259 
z
M 844 2259 
Q 844 1131 1108 757 
Q 1372 384 1759 384 
Q 2147 384 2411 759 
Q 2675 1134 2675 2259 
Q 2675 3391 2411 3762 
Q 2147 4134 1753 4134 
Q 1366 4134 1134 3806 
Q 844 3388 844 2259 
z
" transform="scale(0.015625)"/>
       </defs>
       <use xlink:href="#ArialMT-31"/>
       <use xlink:href="#ArialMT-30" transform="translate(55.615234 0)"/>
      </g>
     </g>
    </g>
    <g id="ytick_2">
     <g id="line2d_2">
      <path d="M 46.64 482.232777 
L 853.2 482.232777 
" clip-path="url(#p7cfcee8f48)" style="fill: none; stroke: #cccccc; stroke-width: 0.8; stroke-linecap: round"/>
     </g>
     <g id="text_11">
      <!-- 20 -->
      <g style="fill: #262626" transform="translate(28.518125 485.811684) scale(0.1 -0.1)">
       <defs>
        <path id="ArialMT-32" d="M 3222 541 
L 3222 0 
L 194 0 
Q 188 203 259 391 
Q 375 700 629 1000 
Q 884 1300 1366 1694 
Q 2113 2306 2375 2664 
Q 2638 3022 2638 3341 
Q 2638 3675 2398 3904 
Q 2159 4134 1775 4134 
Q 1369 4134 1125 3890 
Q 881 3647 878 3216 
L 300 3275 
Q 359 3922 746 4261 
Q 1134 4600 1788 4600 
Q 2447 4600 2831 4234 
Q 3216 3869 3216 3328 
Q 3216 3053 3103 2787 
Q 2991 2522 2730 2228 
Q 2469 1934 1863 1422 
Q 1356 997 1212 845 
Q 1069 694 975 541 
L 3222 541 
z
" transform="scale(0.015625)"/>
       </defs>
       <use xlink:href="#ArialMT-32"/>
       <use xlink:href="#ArialMT-30" transform="translate(55.615234 0)"/>
      </g>
     </g>
    </g>
    <g id="ytick_3">
     <g id="line2d_3">
      <path d="M 46.64 418.58717 
L 853.2 418.58717 
" clip-path="url(#p7cfcee8f48)" style="fill: none; stroke: #cccccc; stroke-width: 0.8; stroke-linecap: round"/>
     </g>
     <g id="text_12">
      <!-- 30 -->
      <g style="fill: #262626" transform="translate(28.518125 422.166076) scale(0.1 -0.1)">
       <defs>
        <path id="ArialMT-33" d="M 269 1209 
L 831 1284 
Q 928 806 1161 595 
Q 1394 384 1728 384 
Q 2125 384 2398 659 
Q 2672 934 2672 1341 
Q 2672 1728 2419 1979 
Q 2166 2231 1775 2231 
Q 1616 2231 1378 2169 
L 1441 2663 
Q 1497 2656 1531 2656 
Q 1891 2656 2178 2843 
Q 2466 3031 2466 3422 
Q 2466 3731 2256 3934 
Q 2047 4138 1716 4138 
Q 1388 4138 1169 3931 
Q 950 3725 888 3313 
L 325 3413 
Q 428 3978 793 4289 
Q 1159 4600 1703 4600 
Q 2078 4600 2393 4439 
Q 2709 4278 2876 4000 
Q 3044 3722 3044 3409 
Q 3044 3113 2884 2869 
Q 2725 2625 2413 2481 
Q 2819 2388 3044 2092 
Q 3269 1797 3269 1353 
Q 3269 753 2831 336 
Q 2394 -81 1725 -81 
Q 1122 -81 723 278 
Q 325 638 269 1209 
z
" transform="scale(0.015625)"/>
       </defs>
       <use xlink:href="#ArialMT-33"/>
       <use xlink:href="#ArialMT-30" transform="translate(55.615234 0)"/>
      </g>
     </g>
    </g>
    <g id="ytick_4">
     <g id="line2d_4">
      <path d="M 46.64 354.941562 
L 853.2 354.941562 
" clip-path="url(#p7cfcee8f48)" style="fill: none; stroke: #cccccc; stroke-width: 0.8; stroke-linecap: round"/>
     </g>
     <g id="text_13">
      <!-- 40 -->
      <g style="fill: #262626" transform="translate(28.518125 358.520469) scale(0.1 -0.1)">
       <defs>
        <path id="ArialMT-34" d="M 2069 0 
L 2069 1097 
L 81 1097 
L 81 1613 
L 2172 4581 
L 2631 4581 
L 2631 1613 
L 3250 1613 
L 3250 1097 
L 2631 1097 
L 2631 0 
L 2069 0 
z
M 2069 1613 
L 2069 3678 
L 634 1613 
L 2069 1613 
z
" transform="scale(0.015625)"/>
       </defs>
       <use xlink:href="#ArialMT-34"/>
       <use xlink:href="#ArialMT-30" transform="translate(55.615234 0)"/>
      </g>
     </g>
    </g>
    <g id="ytick_5">
     <g id="line2d_5">
      <path d="M 46.64 291.295955 
L 853.2 291.295955 
" clip-path="url(#p7cfcee8f48)" style="fill: none; stroke: #cccccc; stroke-width: 0.8; stroke-linecap: round"/>
     </g>
     <g id="text_14">
      <!-- 50 -->
      <g style="fill: #262626" transform="translate(28.518125 294.874861) scale(0.1 -0.1)">
       <defs>
        <path id="ArialMT-35" d="M 266 1200 
L 856 1250 
Q 922 819 1161 601 
Q 1400 384 1738 384 
Q 2144 384 2425 690 
Q 2706 997 2706 1503 
Q 2706 1984 2436 2262 
Q 2166 2541 1728 2541 
Q 1456 2541 1237 2417 
Q 1019 2294 894 2097 
L 366 2166 
L 809 4519 
L 3088 4519 
L 3088 3981 
L 1259 3981 
L 1013 2750 
Q 1425 3038 1878 3038 
Q 2478 3038 2890 2622 
Q 3303 2206 3303 1553 
Q 3303 931 2941 478 
Q 2500 -78 1738 -78 
Q 1113 -78 717 272 
Q 322 622 266 1200 
z
" transform="scale(0.015625)"/>
       </defs>
       <use xlink:href="#ArialMT-35"/>
       <use xlink:href="#ArialMT-30" transform="translate(55.615234 0)"/>
      </g>
     </g>
    </g>
    <g id="ytick_6">
     <g id="line2d_6">
      <path d="M 46.64 227.650347 
L 853.2 227.650347 
" clip-path="url(#p7cfcee8f48)" style="fill: none; stroke: #cccccc; stroke-width: 0.8; stroke-linecap: round"/>
     </g>
     <g id="text_15">
      <!-- 60 -->
      <g style="fill: #262626" transform="translate(28.518125 231.229254) scale(0.1 -0.1)">
       <defs>
        <path id="ArialMT-36" d="M 3184 3459 
L 2625 3416 
Q 2550 3747 2413 3897 
Q 2184 4138 1850 4138 
Q 1581 4138 1378 3988 
Q 1113 3794 959 3422 
Q 806 3050 800 2363 
Q 1003 2672 1297 2822 
Q 1591 2972 1913 2972 
Q 2475 2972 2870 2558 
Q 3266 2144 3266 1488 
Q 3266 1056 3080 686 
Q 2894 316 2569 119 
Q 2244 -78 1831 -78 
Q 1128 -78 684 439 
Q 241 956 241 2144 
Q 241 3472 731 4075 
Q 1159 4600 1884 4600 
Q 2425 4600 2770 4297 
Q 3116 3994 3184 3459 
z
M 888 1484 
Q 888 1194 1011 928 
Q 1134 663 1356 523 
Q 1578 384 1822 384 
Q 2178 384 2434 671 
Q 2691 959 2691 1453 
Q 2691 1928 2437 2201 
Q 2184 2475 1800 2475 
Q 1419 2475 1153 2201 
Q 888 1928 888 1484 
z
" transform="scale(0.015625)"/>
       </defs>
       <use xlink:href="#ArialMT-36"/>
       <use xlink:href="#ArialMT-30" transform="translate(55.615234 0)"/>
      </g>
     </g>
    </g>
    <g id="ytick_7">
     <g id="line2d_7">
      <path d="M 46.64 164.00474 
L 853.2 164.00474 
" clip-path="url(#p7cfcee8f48)" style="fill: none; stroke: #cccccc; stroke-width: 0.8; stroke-linecap: round"/>
     </g>
     <g id="text_16">
      <!-- 70 -->
      <g style="fill: #262626" transform="translate(28.518125 167.583646) scale(0.1 -0.1)">
       <defs>
        <path id="ArialMT-37" d="M 303 3981 
L 303 4522 
L 3269 4522 
L 3269 4084 
Q 2831 3619 2401 2847 
Q 1972 2075 1738 1259 
Q 1569 684 1522 0 
L 944 0 
Q 953 541 1156 1306 
Q 1359 2072 1739 2783 
Q 2119 3494 2547 3981 
L 303 3981 
z
" transform="scale(0.015625)"/>
       </defs>
       <use xlink:href="#ArialMT-37"/>
       <use xlink:href="#ArialMT-30" transform="translate(55.615234 0)"/>
      </g>
     </g>
    </g>
    <g id="ytick_8">
     <g id="line2d_8">
      <path d="M 46.64 100.359132 
L 853.2 100.359132 
" clip-path="url(#p7cfcee8f48)" style="fill: none; stroke: #cccccc; stroke-width: 0.8; stroke-linecap: round"/>
     </g>
     <g id="text_17">
      <!-- 80 -->
      <g style="fill: #262626" transform="translate(28.518125 103.938039) scale(0.1 -0.1)">
       <defs>
        <path id="ArialMT-38" d="M 1131 2484 
Q 781 2613 612 2850 
Q 444 3088 444 3419 
Q 444 3919 803 4259 
Q 1163 4600 1759 4600 
Q 2359 4600 2725 4251 
Q 3091 3903 3091 3403 
Q 3091 3084 2923 2848 
Q 2756 2613 2416 2484 
Q 2838 2347 3058 2040 
Q 3278 1734 3278 1309 
Q 3278 722 2862 322 
Q 2447 -78 1769 -78 
Q 1091 -78 675 323 
Q 259 725 259 1325 
Q 259 1772 486 2073 
Q 713 2375 1131 2484 
z
M 1019 3438 
Q 1019 3113 1228 2906 
Q 1438 2700 1772 2700 
Q 2097 2700 2305 2904 
Q 2513 3109 2513 3406 
Q 2513 3716 2298 3927 
Q 2084 4138 1766 4138 
Q 1444 4138 1231 3931 
Q 1019 3725 1019 3438 
z
M 838 1322 
Q 838 1081 952 856 
Q 1066 631 1291 507 
Q 1516 384 1775 384 
Q 2178 384 2440 643 
Q 2703 903 2703 1303 
Q 2703 1709 2433 1975 
Q 2163 2241 1756 2241 
Q 1359 2241 1098 1978 
Q 838 1716 838 1322 
z
" transform="scale(0.015625)"/>
       </defs>
       <use xlink:href="#ArialMT-38"/>
       <use xlink:href="#ArialMT-30" transform="translate(55.615234 0)"/>
      </g>
     </g>
    </g>
    <g id="text_18">
     <!-- Edad -->
     <g style="fill: #262626" transform="translate(21.557969 331.302031) rotate(-90) scale(0.15 -0.15)">
      <defs>
       <path id="Arial-BoldMT-45" d="M 466 0 
L 466 4581 
L 3863 4581 
L 3863 3806 
L 1391 3806 
L 1391 2791 
L 3691 2791 
L 3691 2019 
L 1391 2019 
L 1391 772 
L 3950 772 
L 3950 0 
L 466 0 
z
" transform="scale(0.015625)"/>
       <path id="Arial-BoldMT-64" d="M 3503 0 
L 2688 0 
L 2688 488 
Q 2484 203 2207 64 
Q 1931 -75 1650 -75 
Q 1078 -75 670 386 
Q 263 847 263 1672 
Q 263 2516 659 2955 
Q 1056 3394 1663 3394 
Q 2219 3394 2625 2931 
L 2625 4581 
L 3503 4581 
L 3503 0 
z
M 1159 1731 
Q 1159 1200 1306 963 
Q 1519 619 1900 619 
Q 2203 619 2415 876 
Q 2628 1134 2628 1647 
Q 2628 2219 2422 2470 
Q 2216 2722 1894 2722 
Q 1581 2722 1370 2473 
Q 1159 2225 1159 1731 
z
" transform="scale(0.015625)"/>
      </defs>
      <use xlink:href="#Arial-BoldMT-45"/>
      <use xlink:href="#Arial-BoldMT-64" transform="translate(66.699219 0)"/>
      <use xlink:href="#Arial-BoldMT-61" transform="translate(127.783203 0)"/>
      <use xlink:href="#Arial-BoldMT-64" transform="translate(183.398438 0)"/>
     </g>
    </g>
   </g>
   <g id="FillBetweenPolyCollection_1">
    <defs>
     <path id="mbee615615b" d="M 131.294267 -557.658405 
L 62.805733 -557.658405 
L 62.555397 -558.524845 
L 62.310244 -559.391285 
L 62.070321 -560.257725 
L 61.83567 -561.124165 
L 61.606326 -561.990605 
L 61.382323 -562.857045 
L 61.163687 -563.723485 
L 60.950441 -564.589925 
L 60.742603 -565.456365 
L 60.540187 -566.322805 
L 60.343202 -567.189245 
L 60.151655 -568.055685 
L 59.965547 -568.922125 
L 59.784876 -569.788565 
L 59.609638 -570.655005 
L 59.439824 -571.521445 
L 59.275423 -572.387885 
L 59.116419 -573.254325 
L 58.962796 -574.120765 
L 58.814534 -574.987205 
L 58.671611 -575.853645 
L 58.534004 -576.720085 
L 58.401687 -577.586525 
L 58.274633 -578.452965 
L 58.152812 -579.319405 
L 58.036196 -580.185845 
L 57.924753 -581.052285 
L 57.818453 -581.918725 
L 57.717263 -582.785165 
L 57.621151 -583.651605 
L 57.530086 -584.518045 
L 57.444036 -585.384485 
L 57.362968 -586.250925 
L 57.286852 -587.117365 
L 57.215658 -587.983805 
L 57.149357 -588.850245 
L 57.087919 -589.716685 
L 57.03132 -590.583125 
L 56.979532 -591.449565 
L 56.932532 -592.316005 
L 56.890298 -593.182445 
L 56.85281 -594.048885 
L 56.820049 -594.915325 
L 56.791999 -595.781765 
L 56.768646 -596.648205 
L 56.749978 -597.514645 
L 56.735985 -598.381085 
L 56.726661 -599.247525 
L 56.722 -600.113965 
L 56.722 -600.980405 
L 56.726661 -601.846845 
L 56.735985 -602.713285 
L 56.749978 -603.579725 
L 56.768646 -604.446165 
L 56.791999 -605.312605 
L 56.820049 -606.179045 
L 56.85281 -607.045485 
L 56.890298 -607.911925 
L 56.932532 -608.778365 
L 56.979532 -609.644805 
L 57.03132 -610.511245 
L 57.087919 -611.377686 
L 57.149357 -612.244126 
L 57.215658 -613.110566 
L 57.286852 -613.977006 
L 57.362968 -614.843446 
L 57.444036 -615.709886 
L 57.530086 -616.576326 
L 57.621151 -617.442766 
L 57.717263 -618.309206 
L 57.818453 -619.175646 
L 57.924753 -620.042086 
L 58.036196 -620.908526 
L 58.152812 -621.774966 
L 58.274633 -622.641406 
L 58.401687 -623.507846 
L 58.534004 -624.374286 
L 58.671611 -625.240726 
L 58.814534 -626.107166 
L 58.962796 -626.973606 
L 59.116419 -627.840046 
L 59.275423 -628.706486 
L 59.439824 -629.572926 
L 59.609638 -630.439366 
L 59.784876 -631.305806 
L 59.965547 -632.172246 
L 60.151655 -633.038686 
L 60.343202 -633.905126 
L 60.540187 -634.771566 
L 60.742603 -635.638006 
L 60.950441 -636.504446 
L 61.163687 -637.370886 
L 61.382323 -638.237326 
L 61.606326 -639.103766 
L 61.83567 -639.970206 
L 62.070321 -640.836646 
L 62.310244 -641.703086 
L 62.555397 -642.569526 
L 62.805733 -643.435966 
L 131.294267 -643.435966 
L 131.294267 -643.435966 
L 131.544603 -642.569526 
L 131.789756 -641.703086 
L 132.029679 -640.836646 
L 132.26433 -639.970206 
L 132.493674 -639.103766 
L 132.717677 -638.237326 
L 132.936313 -637.370886 
L 133.149559 -636.504446 
L 133.357397 -635.638006 
L 133.559813 -634.771566 
L 133.756798 -633.905126 
L 133.948345 -633.038686 
L 134.134453 -632.172246 
L 134.315124 -631.305806 
L 134.490362 -630.439366 
L 134.660176 -629.572926 
L 134.824577 -628.706486 
L 134.983581 -627.840046 
L 135.137204 -626.973606 
L 135.285466 -626.107166 
L 135.428389 -625.240726 
L 135.565996 -624.374286 
L 135.698313 -623.507846 
L 135.825367 -622.641406 
L 135.947188 -621.774966 
L 136.063804 -620.908526 
L 136.175247 -620.042086 
L 136.281547 -619.175646 
L 136.382737 -618.309206 
L 136.478849 -617.442766 
L 136.569914 -616.576326 
L 136.655964 -615.709886 
L 136.737032 -614.843446 
L 136.813148 -613.977006 
L 136.884342 -613.110566 
L 136.950643 -612.244126 
L 137.012081 -611.377686 
L 137.06868 -610.511245 
L 137.120468 -609.644805 
L 137.167468 -608.778365 
L 137.209702 -607.911925 
L 137.24719 -607.045485 
L 137.279951 -606.179045 
L 137.308001 -605.312605 
L 137.331354 -604.446165 
L 137.350022 -603.579725 
L 137.364015 -602.713285 
L 137.373339 -601.846845 
L 137.378 -600.980405 
L 137.378 -600.113965 
L 137.373339 -599.247525 
L 137.364015 -598.381085 
L 137.350022 -597.514645 
L 137.331354 -596.648205 
L 137.308001 -595.781765 
L 137.279951 -594.915325 
L 137.24719 -594.048885 
L 137.209702 -593.182445 
L 137.167468 -592.316005 
L 137.120468 -591.449565 
L 137.06868 -590.583125 
L 137.012081 -589.716685 
L 136.950643 -588.850245 
L 136.884342 -587.983805 
L 136.813148 -587.117365 
L 136.737032 -586.250925 
L 136.655964 -585.384485 
L 136.569914 -584.518045 
L 136.478849 -583.651605 
L 136.382737 -582.785165 
L 136.281547 -581.918725 
L 136.175247 -581.052285 
L 136.063804 -580.185845 
L 135.947188 -579.319405 
L 135.825367 -578.452965 
L 135.698313 -577.586525 
L 135.565996 -576.720085 
L 135.428389 -575.853645 
L 135.285466 -574.987205 
L 135.137204 -574.120765 
L 134.983581 -573.254325 
L 134.824577 -572.387885 
L 134.660176 -571.521445 
L 134.490362 -570.655005 
L 134.315124 -569.788565 
L 134.134453 -568.922125 
L 133.948345 -568.055685 
L 133.756798 -567.189245 
L 133.559813 -566.322805 
L 133.357397 -565.456365 
L 133.149559 -564.589925 
L 132.936313 -563.723485 
L 132.717677 -562.857045 
L 132.493674 -561.990605 
L 132.26433 -561.124165 
L 132.029679 -560.257725 
L 131.789756 -559.391285 
L 131.544603 -558.524845 
L 131.294267 -557.658405 
z
" style="stroke: #595959; stroke-opacity: 0.7"/>
    </defs>
    <g clip-path="url(#p7cfcee8f48)">
     <use xlink:href="#mbee615615b" x="0" y="720" style="fill: #72b6a1; fill-opacity: 0.7; stroke: #595959; stroke-opacity: 0.7"/>
    </g>
   </g>
   <g id="FillBetweenPolyCollection_2">
    <defs>
     <path id="mea35f7c61d" d="M 217.026098 -170.630284 
L 178.713902 -170.630284 
L 178.115881 -175.072434 
L 177.521329 -179.514583 
L 176.931125 -183.956732 
L 176.346114 -188.398882 
L 175.767107 -192.841031 
L 175.194878 -197.283181 
L 174.630161 -201.72533 
L 174.073653 -206.167479 
L 173.526008 -210.609629 
L 172.987842 -215.051778 
L 172.459728 -219.493928 
L 171.942202 -223.936077 
L 171.435759 -228.378227 
L 170.940854 -232.820376 
L 170.457905 -237.262525 
L 169.98729 -241.704675 
L 169.529352 -246.146824 
L 169.084395 -250.588974 
L 168.652688 -255.031123 
L 168.234459 -259.473273 
L 167.829903 -263.915422 
L 167.439173 -268.357571 
L 167.062385 -272.799721 
L 166.699615 -277.24187 
L 166.350894 -281.68402 
L 166.016214 -286.126169 
L 165.695517 -290.568319 
L 165.388701 -295.010468 
L 165.095613 -299.452617 
L 164.816048 -303.894767 
L 164.54975 -308.336916 
L 164.296405 -312.779066 
L 164.055645 -317.221215 
L 163.827046 -321.663365 
L 163.610123 -326.105514 
L 163.404336 -330.547663 
L 163.209091 -334.989813 
L 163.023738 -339.431962 
L 162.847574 -343.874112 
L 162.67985 -348.316261 
L 162.519775 -352.758411 
L 162.366519 -357.20056 
L 162.21922 -361.642709 
L 162.076997 -366.084859 
L 161.938949 -370.527008 
L 161.804173 -374.969158 
L 161.67177 -379.411307 
L 161.540859 -383.853457 
L 161.410585 -388.295606 
L 161.280132 -392.737755 
L 161.148737 -397.179905 
L 161.015704 -401.622054 
L 160.880412 -406.064204 
L 160.742329 -410.506353 
L 160.601027 -414.948502 
L 160.45619 -419.390652 
L 160.307626 -423.832801 
L 160.155275 -428.274951 
L 159.999219 -432.7171 
L 159.839691 -437.15925 
L 159.677075 -441.601399 
L 159.511916 -446.043548 
L 159.344919 -450.485698 
L 159.17695 -454.927847 
L 159.009033 -459.369997 
L 158.842351 -463.812146 
L 158.678235 -468.254296 
L 158.51816 -472.696445 
L 158.363736 -477.138594 
L 158.216691 -481.580744 
L 158.078866 -486.022893 
L 157.952193 -490.465043 
L 157.838683 -494.907192 
L 157.740405 -499.349342 
L 157.659471 -503.791491 
L 157.598009 -508.23364 
L 157.55815 -512.67579 
L 157.542 -517.117939 
L 157.551623 -521.560089 
L 157.589015 -526.002238 
L 157.656087 -530.444388 
L 157.75464 -534.886537 
L 157.886348 -539.328686 
L 158.052734 -543.770836 
L 158.255159 -548.212985 
L 158.494798 -552.655135 
L 158.77263 -557.097284 
L 159.089423 -561.539434 
L 159.445726 -565.981583 
L 159.841853 -570.423732 
L 160.277885 -574.865882 
L 160.753662 -579.308031 
L 161.268778 -583.750181 
L 161.822588 -588.19233 
L 162.414208 -592.63448 
L 163.042518 -597.076629 
L 163.706174 -601.518778 
L 164.403617 -605.960928 
L 165.133082 -610.403077 
L 230.606918 -610.403077 
L 230.606918 -610.403077 
L 231.336383 -605.960928 
L 232.033826 -601.518778 
L 232.697482 -597.076629 
L 233.325792 -592.63448 
L 233.917412 -588.19233 
L 234.471222 -583.750181 
L 234.986338 -579.308031 
L 235.462115 -574.865882 
L 235.898147 -570.423732 
L 236.294274 -565.981583 
L 236.650577 -561.539434 
L 236.96737 -557.097284 
L 237.245202 -552.655135 
L 237.484841 -548.212985 
L 237.687266 -543.770836 
L 237.853652 -539.328686 
L 237.98536 -534.886537 
L 238.083913 -530.444388 
L 238.150985 -526.002238 
L 238.188377 -521.560089 
L 238.198 -517.117939 
L 238.18185 -512.67579 
L 238.141991 -508.23364 
L 238.080529 -503.791491 
L 237.999595 -499.349342 
L 237.901317 -494.907192 
L 237.787807 -490.465043 
L 237.661134 -486.022893 
L 237.523309 -481.580744 
L 237.376264 -477.138594 
L 237.22184 -472.696445 
L 237.061765 -468.254296 
L 236.897649 -463.812146 
L 236.730967 -459.369997 
L 236.56305 -454.927847 
L 236.395081 -450.485698 
L 236.228084 -446.043548 
L 236.062925 -441.601399 
L 235.900309 -437.15925 
L 235.740781 -432.7171 
L 235.584725 -428.274951 
L 235.432374 -423.832801 
L 235.28381 -419.390652 
L 235.138973 -414.948502 
L 234.997671 -410.506353 
L 234.859588 -406.064204 
L 234.724296 -401.622054 
L 234.591263 -397.179905 
L 234.459868 -392.737755 
L 234.329415 -388.295606 
L 234.199141 -383.853457 
L 234.06823 -379.411307 
L 233.935827 -374.969158 
L 233.801051 -370.527008 
L 233.663003 -366.084859 
L 233.52078 -361.642709 
L 233.373481 -357.20056 
L 233.220225 -352.758411 
L 233.06015 -348.316261 
L 232.892426 -343.874112 
L 232.716262 -339.431962 
L 232.530909 -334.989813 
L 232.335664 -330.547663 
L 232.129877 -326.105514 
L 231.912954 -321.663365 
L 231.684355 -317.221215 
L 231.443595 -312.779066 
L 231.19025 -308.336916 
L 230.923952 -303.894767 
L 230.644387 -299.452617 
L 230.351299 -295.010468 
L 230.044483 -290.568319 
L 229.723786 -286.126169 
L 229.389106 -281.68402 
L 229.040385 -277.24187 
L 228.677615 -272.799721 
L 228.300827 -268.357571 
L 227.910097 -263.915422 
L 227.505541 -259.473273 
L 227.087312 -255.031123 
L 226.655605 -250.588974 
L 226.210648 -246.146824 
L 225.75271 -241.704675 
L 225.282095 -237.262525 
L 224.799146 -232.820376 
L 224.304241 -228.378227 
L 223.797798 -223.936077 
L 223.280272 -219.493928 
L 222.752158 -215.051778 
L 222.213992 -210.609629 
L 221.666347 -206.167479 
L 221.109839 -201.72533 
L 220.545122 -197.283181 
L 219.972893 -192.841031 
L 219.393886 -188.398882 
L 218.808875 -183.956732 
L 218.218671 -179.514583 
L 217.624119 -175.072434 
L 217.026098 -170.630284 
z
" style="stroke: #595959; stroke-opacity: 0.7"/>
    </defs>
    <g clip-path="url(#p7cfcee8f48)">
     <use xlink:href="#mea35f7c61d" x="0" y="720" style="fill: #e99675; fill-opacity: 0.7; stroke: #595959; stroke-opacity: 0.7"/>
    </g>
   </g>
   <g id="FillBetweenPolyCollection_3">
    <defs>
     <path id="mdea0b3c21b" d="M 337.376583 -354.853024 
L 260.003417 -354.853024 
L 259.764189 -357.373579 
L 259.543595 -359.894135 
L 259.341787 -362.414691 
L 259.158877 -364.935246 
L 258.994939 -367.455802 
L 258.850005 -369.976358 
L 258.724068 -372.496913 
L 258.617081 -375.017469 
L 258.528958 -377.538025 
L 258.459572 -380.058581 
L 258.408759 -382.579136 
L 258.376316 -385.099692 
L 258.362 -387.620248 
L 258.365535 -390.140803 
L 258.386606 -392.661359 
L 258.424867 -395.181915 
L 258.479934 -397.702471 
L 258.551396 -400.223026 
L 258.638807 -402.743582 
L 258.741695 -405.264138 
L 258.859559 -407.784693 
L 258.991873 -410.305249 
L 259.138089 -412.825805 
L 259.297636 -415.346361 
L 259.469921 -417.866916 
L 259.654338 -420.387472 
L 259.850263 -422.908028 
L 260.057059 -425.428583 
L 260.274077 -427.949139 
L 260.500662 -430.469695 
L 260.736149 -432.990251 
L 260.979872 -435.510806 
L 261.231161 -438.031362 
L 261.489346 -440.551918 
L 261.753761 -443.072473 
L 262.023744 -445.593029 
L 262.298641 -448.113585 
L 262.577804 -450.63414 
L 262.860599 -453.154696 
L 263.146405 -455.675252 
L 263.434614 -458.195808 
L 263.724637 -460.716363 
L 264.015903 -463.236919 
L 264.30786 -465.757475 
L 264.599979 -468.27803 
L 264.891757 -470.798586 
L 265.18271 -473.319142 
L 265.472386 -475.839698 
L 265.760355 -478.360253 
L 266.04622 -480.880809 
L 266.329609 -483.401365 
L 266.610181 -485.92192 
L 266.887626 -488.442476 
L 267.161666 -490.963032 
L 267.43205 -493.483588 
L 267.698564 -496.004143 
L 267.96102 -498.524699 
L 268.219266 -501.045255 
L 268.473178 -503.56581 
L 268.722666 -506.086366 
L 268.967667 -508.606922 
L 269.208151 -511.127478 
L 269.444116 -513.648033 
L 269.675589 -516.168589 
L 269.902624 -518.689145 
L 270.125303 -521.2097 
L 270.343732 -523.730256 
L 270.558043 -526.250812 
L 270.76839 -528.771367 
L 270.97495 -531.291923 
L 271.177918 -533.812479 
L 271.377512 -536.333035 
L 271.573964 -538.85359 
L 271.767524 -541.374146 
L 271.958455 -543.894702 
L 272.147033 -546.415257 
L 272.333546 -548.935813 
L 272.51829 -551.456369 
L 272.701569 -553.976925 
L 272.883694 -556.49748 
L 273.064979 -559.018036 
L 273.245741 -561.538592 
L 273.426299 -564.059147 
L 273.60697 -566.579703 
L 273.788069 -569.100259 
L 273.969907 -571.620815 
L 274.152791 -574.14137 
L 274.337021 -576.661926 
L 274.522887 -579.182482 
L 274.710672 -581.703037 
L 274.900648 -584.223593 
L 275.093073 -586.744149 
L 275.288195 -589.264704 
L 275.486245 -591.78526 
L 275.687443 -594.305816 
L 275.891989 -596.826372 
L 276.10007 -599.346927 
L 276.311853 -601.867483 
L 276.527489 -604.388039 
L 320.852511 -604.388039 
L 320.852511 -604.388039 
L 321.068147 -601.867483 
L 321.27993 -599.346927 
L 321.488011 -596.826372 
L 321.692557 -594.305816 
L 321.893755 -591.78526 
L 322.091805 -589.264704 
L 322.286927 -586.744149 
L 322.479352 -584.223593 
L 322.669328 -581.703037 
L 322.857113 -579.182482 
L 323.042979 -576.661926 
L 323.227209 -574.14137 
L 323.410093 -571.620815 
L 323.591931 -569.100259 
L 323.77303 -566.579703 
L 323.953701 -564.059147 
L 324.134259 -561.538592 
L 324.315021 -559.018036 
L 324.496306 -556.49748 
L 324.678431 -553.976925 
L 324.86171 -551.456369 
L 325.046454 -548.935813 
L 325.232967 -546.415257 
L 325.421545 -543.894702 
L 325.612476 -541.374146 
L 325.806036 -538.85359 
L 326.002488 -536.333035 
L 326.202082 -533.812479 
L 326.40505 -531.291923 
L 326.61161 -528.771367 
L 326.821957 -526.250812 
L 327.036268 -523.730256 
L 327.254697 -521.2097 
L 327.477376 -518.689145 
L 327.704411 -516.168589 
L 327.935884 -513.648033 
L 328.171849 -511.127478 
L 328.412333 -508.606922 
L 328.657334 -506.086366 
L 328.906822 -503.56581 
L 329.160734 -501.045255 
L 329.41898 -498.524699 
L 329.681436 -496.004143 
L 329.94795 -493.483588 
L 330.218334 -490.963032 
L 330.492374 -488.442476 
L 330.769819 -485.92192 
L 331.050391 -483.401365 
L 331.33378 -480.880809 
L 331.619645 -478.360253 
L 331.907614 -475.839698 
L 332.19729 -473.319142 
L 332.488243 -470.798586 
L 332.780021 -468.27803 
L 333.07214 -465.757475 
L 333.364097 -463.236919 
L 333.655363 -460.716363 
L 333.945386 -458.195808 
L 334.233595 -455.675252 
L 334.519401 -453.154696 
L 334.802196 -450.63414 
L 335.081359 -448.113585 
L 335.356256 -445.593029 
L 335.626239 -443.072473 
L 335.890654 -440.551918 
L 336.148839 -438.031362 
L 336.400128 -435.510806 
L 336.643851 -432.990251 
L 336.879338 -430.469695 
L 337.105923 -427.949139 
L 337.322941 -425.428583 
L 337.529737 -422.908028 
L 337.725662 -420.387472 
L 337.910079 -417.866916 
L 338.082364 -415.346361 
L 338.241911 -412.825805 
L 338.388127 -410.305249 
L 338.520441 -407.784693 
L 338.638305 -405.264138 
L 338.741193 -402.743582 
L 338.828604 -400.223026 
L 338.900066 -397.702471 
L 338.955133 -395.181915 
L 338.993394 -392.661359 
L 339.014465 -390.140803 
L 339.018 -387.620248 
L 339.003684 -385.099692 
L 338.971241 -382.579136 
L 338.920428 -380.058581 
L 338.851042 -377.538025 
L 338.762919 -375.017469 
L 338.655932 -372.496913 
L 338.529995 -369.976358 
L 338.385061 -367.455802 
L 338.221123 -364.935246 
L 338.038213 -362.414691 
L 337.836405 -359.894135 
L 337.615811 -357.373579 
L 337.376583 -354.853024 
z
" style="stroke: #595959; stroke-opacity: 0.7"/>
    </defs>
    <g clip-path="url(#p7cfcee8f48)">
     <use xlink:href="#mdea0b3c21b" x="0" y="720" style="fill: #95a3c3; fill-opacity: 0.7; stroke: #595959; stroke-opacity: 0.7"/>
    </g>
   </g>
   <g id="FillBetweenPolyCollection_4">
    <defs>
     <path id="m45deec582c" d="M 421.558088 -232.875235 
L 377.461912 -232.875235 
L 376.922662 -235.288448 
L 376.409443 -237.701662 
L 375.923287 -240.114876 
L 375.464933 -242.52809 
L 375.034801 -244.941303 
L 374.632993 -247.354517 
L 374.259283 -249.767731 
L 373.913116 -252.180945 
L 373.593618 -254.594159 
L 373.299599 -257.007372 
L 373.029573 -259.420586 
L 372.781773 -261.8338 
L 372.554178 -264.247014 
L 372.344538 -266.660227 
L 372.150405 -269.073441 
L 371.96917 -271.486655 
L 371.798099 -273.899869 
L 371.634373 -276.313082 
L 371.475127 -278.726296 
L 371.317494 -281.13951 
L 371.158649 -283.552724 
L 370.995846 -285.965938 
L 370.826461 -288.379151 
L 370.648034 -290.792365 
L 370.458298 -293.205579 
L 370.255219 -295.618793 
L 370.037023 -298.032006 
L 369.802221 -300.44522 
L 369.549632 -302.858434 
L 369.2784 -305.271648 
L 368.988004 -307.684861 
L 368.678267 -310.098075 
L 368.349357 -312.511289 
L 368.001783 -314.924503 
L 367.636388 -317.337717 
L 367.254338 -319.75093 
L 366.8571 -322.164144 
L 366.446428 -324.577358 
L 366.024335 -326.990572 
L 365.593063 -329.403785 
L 365.15506 -331.816999 
L 364.712943 -334.230213 
L 364.269466 -336.643427 
L 363.827488 -339.05664 
L 363.389935 -341.469854 
L 362.959771 -343.883068 
L 362.539959 -346.296282 
L 362.133435 -348.709495 
L 361.743074 -351.122709 
L 361.371662 -353.535923 
L 361.021873 -355.949137 
L 360.696241 -358.362351 
L 360.397145 -360.775564 
L 360.126787 -363.188778 
L 359.887181 -365.601992 
L 359.680141 -368.015206 
L 359.507268 -370.428419 
L 359.369954 -372.841633 
L 359.26937 -375.254847 
L 359.206472 -377.668061 
L 359.182 -380.081274 
L 359.196485 -382.494488 
L 359.250252 -384.907702 
L 359.343434 -387.320916 
L 359.475975 -389.73413 
L 359.647644 -392.147343 
L 359.858046 -394.560557 
L 360.106632 -396.973771 
L 360.392715 -399.386985 
L 360.715479 -401.800198 
L 361.073993 -404.213412 
L 361.467222 -406.626626 
L 361.894039 -409.03984 
L 362.353236 -411.453053 
L 362.843537 -413.866267 
L 363.363601 -416.279481 
L 363.912039 -418.692695 
L 364.487417 -421.105909 
L 365.088266 -423.519122 
L 365.713085 -425.932336 
L 366.360351 -428.34555 
L 367.028525 -430.758764 
L 367.71605 -433.171977 
L 368.421363 -435.585191 
L 369.142892 -437.998405 
L 369.879064 -440.411619 
L 370.628304 -442.824832 
L 371.38904 -445.238046 
L 372.159705 -447.65126 
L 372.938736 -450.064474 
L 373.724583 -452.477688 
L 374.515702 -454.890901 
L 375.310565 -457.304115 
L 376.107659 -459.717329 
L 376.905488 -462.130543 
L 377.702578 -464.543756 
L 378.497475 -466.95697 
L 379.288756 -469.370184 
L 380.075023 -471.783398 
L 418.944977 -471.783398 
L 418.944977 -471.783398 
L 419.731244 -469.370184 
L 420.522525 -466.95697 
L 421.317422 -464.543756 
L 422.114512 -462.130543 
L 422.912341 -459.717329 
L 423.709435 -457.304115 
L 424.504298 -454.890901 
L 425.295417 -452.477688 
L 426.081264 -450.064474 
L 426.860295 -447.65126 
L 427.63096 -445.238046 
L 428.391696 -442.824832 
L 429.140936 -440.411619 
L 429.877108 -437.998405 
L 430.598637 -435.585191 
L 431.30395 -433.171977 
L 431.991475 -430.758764 
L 432.659649 -428.34555 
L 433.306915 -425.932336 
L 433.931734 -423.519122 
L 434.532583 -421.105909 
L 435.107961 -418.692695 
L 435.656399 -416.279481 
L 436.176463 -413.866267 
L 436.666764 -411.453053 
L 437.125961 -409.03984 
L 437.552778 -406.626626 
L 437.946007 -404.213412 
L 438.304521 -401.800198 
L 438.627285 -399.386985 
L 438.913368 -396.973771 
L 439.161954 -394.560557 
L 439.372356 -392.147343 
L 439.544025 -389.73413 
L 439.676566 -387.320916 
L 439.769748 -384.907702 
L 439.823515 -382.494488 
L 439.838 -380.081274 
L 439.813528 -377.668061 
L 439.75063 -375.254847 
L 439.650046 -372.841633 
L 439.512732 -370.428419 
L 439.339859 -368.015206 
L 439.132819 -365.601992 
L 438.893213 -363.188778 
L 438.622855 -360.775564 
L 438.323759 -358.362351 
L 437.998127 -355.949137 
L 437.648338 -353.535923 
L 437.276926 -351.122709 
L 436.886565 -348.709495 
L 436.480041 -346.296282 
L 436.060229 -343.883068 
L 435.630065 -341.469854 
L 435.192512 -339.05664 
L 434.750534 -336.643427 
L 434.307057 -334.230213 
L 433.86494 -331.816999 
L 433.426937 -329.403785 
L 432.995665 -326.990572 
L 432.573572 -324.577358 
L 432.1629 -322.164144 
L 431.765662 -319.75093 
L 431.383612 -317.337717 
L 431.018217 -314.924503 
L 430.670643 -312.511289 
L 430.341733 -310.098075 
L 430.031996 -307.684861 
L 429.7416 -305.271648 
L 429.470368 -302.858434 
L 429.217779 -300.44522 
L 428.982977 -298.032006 
L 428.764781 -295.618793 
L 428.561702 -293.205579 
L 428.371966 -290.792365 
L 428.193539 -288.379151 
L 428.024154 -285.965938 
L 427.861351 -283.552724 
L 427.702506 -281.13951 
L 427.544873 -278.726296 
L 427.385627 -276.313082 
L 427.221901 -273.899869 
L 427.05083 -271.486655 
L 426.869595 -269.073441 
L 426.675462 -266.660227 
L 426.465822 -264.247014 
L 426.238227 -261.8338 
L 425.990427 -259.420586 
L 425.720401 -257.007372 
L 425.426382 -254.594159 
L 425.106884 -252.180945 
L 424.760717 -249.767731 
L 424.387007 -247.354517 
L 423.985199 -244.941303 
L 423.555067 -242.52809 
L 423.096713 -240.114876 
L 422.610557 -237.701662 
L 422.097338 -235.288448 
L 421.558088 -232.875235 
z
" style="stroke: #595959; stroke-opacity: 0.7"/>
    </defs>
    <g clip-path="url(#p7cfcee8f48)">
     <use xlink:href="#m45deec582c" x="0" y="720" style="fill: #db96c0; fill-opacity: 0.7; stroke: #595959; stroke-opacity: 0.7"/>
    </g>
   </g>
   <g id="FillBetweenPolyCollection_5">
    <defs>
     <path id="mbf7517cc16" d="M 534.574267 -202.610369 
L 466.085733 -202.610369 
L 465.835397 -205.570706 
L 465.590244 -208.531042 
L 465.350321 -211.491379 
L 465.11567 -214.451716 
L 464.886326 -217.412052 
L 464.662323 -220.372389 
L 464.443687 -223.332726 
L 464.230441 -226.293063 
L 464.022603 -229.253399 
L 463.820187 -232.213736 
L 463.623202 -235.174073 
L 463.431655 -238.134409 
L 463.245547 -241.094746 
L 463.064876 -244.055083 
L 462.889638 -247.015419 
L 462.719824 -249.975756 
L 462.555423 -252.936093 
L 462.396419 -255.89643 
L 462.242796 -258.856766 
L 462.094534 -261.817103 
L 461.951611 -264.77744 
L 461.814004 -267.737776 
L 461.681687 -270.698113 
L 461.554633 -273.65845 
L 461.432812 -276.618787 
L 461.316196 -279.579123 
L 461.204753 -282.53946 
L 461.098453 -285.499797 
L 460.997263 -288.460133 
L 460.901151 -291.42047 
L 460.810086 -294.380807 
L 460.724036 -297.341143 
L 460.642968 -300.30148 
L 460.566852 -303.261817 
L 460.495658 -306.222154 
L 460.429357 -309.18249 
L 460.367919 -312.142827 
L 460.31132 -315.103164 
L 460.259532 -318.0635 
L 460.212532 -321.023837 
L 460.170298 -323.984174 
L 460.13281 -326.94451 
L 460.100049 -329.904847 
L 460.071999 -332.865184 
L 460.048646 -335.825521 
L 460.029978 -338.785857 
L 460.015985 -341.746194 
L 460.006661 -344.706531 
L 460.002 -347.666867 
L 460.002 -350.627204 
L 460.006661 -353.587541 
L 460.015985 -356.547878 
L 460.029978 -359.508214 
L 460.048646 -362.468551 
L 460.071999 -365.428888 
L 460.100049 -368.389224 
L 460.13281 -371.349561 
L 460.170298 -374.309898 
L 460.212532 -377.270234 
L 460.259532 -380.230571 
L 460.31132 -383.190908 
L 460.367919 -386.151245 
L 460.429357 -389.111581 
L 460.495658 -392.071918 
L 460.566852 -395.032255 
L 460.642968 -397.992591 
L 460.724036 -400.952928 
L 460.810086 -403.913265 
L 460.901151 -406.873602 
L 460.997263 -409.833938 
L 461.098453 -412.794275 
L 461.204753 -415.754612 
L 461.316196 -418.714948 
L 461.432812 -421.675285 
L 461.554633 -424.635622 
L 461.681687 -427.595958 
L 461.814004 -430.556295 
L 461.951611 -433.516632 
L 462.094534 -436.476969 
L 462.242796 -439.437305 
L 462.396419 -442.397642 
L 462.555423 -445.357979 
L 462.719824 -448.318315 
L 462.889638 -451.278652 
L 463.064876 -454.238989 
L 463.245547 -457.199325 
L 463.431655 -460.159662 
L 463.623202 -463.119999 
L 463.820187 -466.080336 
L 464.022603 -469.040672 
L 464.230441 -472.001009 
L 464.443687 -474.961346 
L 464.662323 -477.921682 
L 464.886326 -480.882019 
L 465.11567 -483.842356 
L 465.350321 -486.802693 
L 465.590244 -489.763029 
L 465.835397 -492.723366 
L 466.085733 -495.683703 
L 534.574267 -495.683703 
L 534.574267 -495.683703 
L 534.824603 -492.723366 
L 535.069756 -489.763029 
L 535.309679 -486.802693 
L 535.54433 -483.842356 
L 535.773674 -480.882019 
L 535.997677 -477.921682 
L 536.216313 -474.961346 
L 536.429559 -472.001009 
L 536.637397 -469.040672 
L 536.839813 -466.080336 
L 537.036798 -463.119999 
L 537.228345 -460.159662 
L 537.414453 -457.199325 
L 537.595124 -454.238989 
L 537.770362 -451.278652 
L 537.940176 -448.318315 
L 538.104577 -445.357979 
L 538.263581 -442.397642 
L 538.417204 -439.437305 
L 538.565466 -436.476969 
L 538.708389 -433.516632 
L 538.845996 -430.556295 
L 538.978313 -427.595958 
L 539.105367 -424.635622 
L 539.227188 -421.675285 
L 539.343804 -418.714948 
L 539.455247 -415.754612 
L 539.561547 -412.794275 
L 539.662737 -409.833938 
L 539.758849 -406.873602 
L 539.849914 -403.913265 
L 539.935964 -400.952928 
L 540.017032 -397.992591 
L 540.093148 -395.032255 
L 540.164342 -392.071918 
L 540.230643 -389.111581 
L 540.292081 -386.151245 
L 540.34868 -383.190908 
L 540.400468 -380.230571 
L 540.447468 -377.270234 
L 540.489702 -374.309898 
L 540.52719 -371.349561 
L 540.559951 -368.389224 
L 540.588001 -365.428888 
L 540.611354 -362.468551 
L 540.630022 -359.508214 
L 540.644015 -356.547878 
L 540.653339 -353.587541 
L 540.658 -350.627204 
L 540.658 -347.666867 
L 540.653339 -344.706531 
L 540.644015 -341.746194 
L 540.630022 -338.785857 
L 540.611354 -335.825521 
L 540.588001 -332.865184 
L 540.559951 -329.904847 
L 540.52719 -326.94451 
L 540.489702 -323.984174 
L 540.447468 -321.023837 
L 540.400468 -318.0635 
L 540.34868 -315.103164 
L 540.292081 -312.142827 
L 540.230643 -309.18249 
L 540.164342 -306.222154 
L 540.093148 -303.261817 
L 540.017032 -300.30148 
L 539.935964 -297.341143 
L 539.849914 -294.380807 
L 539.758849 -291.42047 
L 539.662737 -288.460133 
L 539.561547 -285.499797 
L 539.455247 -282.53946 
L 539.343804 -279.579123 
L 539.227188 -276.618787 
L 539.105367 -273.65845 
L 538.978313 -270.698113 
L 538.845996 -267.737776 
L 538.708389 -264.77744 
L 538.565466 -261.817103 
L 538.417204 -258.856766 
L 538.263581 -255.89643 
L 538.104577 -252.936093 
L 537.940176 -249.975756 
L 537.770362 -247.015419 
L 537.595124 -244.055083 
L 537.414453 -241.094746 
L 537.228345 -238.134409 
L 537.036798 -235.174073 
L 536.839813 -232.213736 
L 536.637397 -229.253399 
L 536.429559 -226.293063 
L 536.216313 -223.332726 
L 535.997677 -220.372389 
L 535.773674 -217.412052 
L 535.54433 -214.451716 
L 535.309679 -211.491379 
L 535.069756 -208.531042 
L 534.824603 -205.570706 
L 534.574267 -202.610369 
z
" style="stroke: #595959; stroke-opacity: 0.7"/>
    </defs>
    <g clip-path="url(#p7cfcee8f48)">
     <use xlink:href="#mbf7517cc16" x="0" y="720" style="fill: #a2c865; fill-opacity: 0.7; stroke: #595959; stroke-opacity: 0.7"/>
    </g>
   </g>
   <g id="FillBetweenPolyCollection_6">
    <defs>
     <path id="m003dc12117" d="M 635.394267 -509.092627 
L 566.905733 -509.092627 
L 566.655397 -509.525847 
L 566.410244 -509.959067 
L 566.170321 -510.392287 
L 565.93567 -510.825507 
L 565.706326 -511.258727 
L 565.482323 -511.691947 
L 565.263687 -512.125167 
L 565.050441 -512.558387 
L 564.842603 -512.991607 
L 564.640187 -513.424827 
L 564.443202 -513.858047 
L 564.251655 -514.291267 
L 564.065547 -514.724487 
L 563.884876 -515.157707 
L 563.709638 -515.590927 
L 563.539824 -516.024147 
L 563.375423 -516.457367 
L 563.216419 -516.890587 
L 563.062796 -517.323807 
L 562.914534 -517.757027 
L 562.771611 -518.190247 
L 562.634004 -518.623467 
L 562.501687 -519.056687 
L 562.374633 -519.489907 
L 562.252812 -519.923127 
L 562.136196 -520.356347 
L 562.024753 -520.789567 
L 561.918453 -521.222787 
L 561.817263 -521.656007 
L 561.721151 -522.089227 
L 561.630086 -522.522447 
L 561.544036 -522.955667 
L 561.462968 -523.388887 
L 561.386852 -523.822107 
L 561.315658 -524.255327 
L 561.249357 -524.688547 
L 561.187919 -525.121767 
L 561.13132 -525.554987 
L 561.079532 -525.988207 
L 561.032532 -526.421427 
L 560.990298 -526.854647 
L 560.95281 -527.287867 
L 560.920049 -527.721087 
L 560.891999 -528.154307 
L 560.868646 -528.587527 
L 560.849978 -529.020747 
L 560.835985 -529.453967 
L 560.826661 -529.887187 
L 560.822 -530.320407 
L 560.822 -530.753627 
L 560.826661 -531.186847 
L 560.835985 -531.620067 
L 560.849978 -532.053287 
L 560.868646 -532.486507 
L 560.891999 -532.919727 
L 560.920049 -533.352947 
L 560.95281 -533.786167 
L 560.990298 -534.219387 
L 561.032532 -534.652607 
L 561.079532 -535.085827 
L 561.13132 -535.519047 
L 561.187919 -535.952267 
L 561.249357 -536.385487 
L 561.315658 -536.818707 
L 561.386852 -537.251927 
L 561.462968 -537.685147 
L 561.544036 -538.118367 
L 561.630086 -538.551587 
L 561.721151 -538.984807 
L 561.817263 -539.418027 
L 561.918453 -539.851247 
L 562.024753 -540.284467 
L 562.136196 -540.717687 
L 562.252812 -541.150907 
L 562.374633 -541.584127 
L 562.501687 -542.017347 
L 562.634004 -542.450567 
L 562.771611 -542.883787 
L 562.914534 -543.317007 
L 563.062796 -543.750227 
L 563.216419 -544.183447 
L 563.375423 -544.616667 
L 563.539824 -545.049887 
L 563.709638 -545.483107 
L 563.884876 -545.916327 
L 564.065547 -546.349547 
L 564.251655 -546.782767 
L 564.443202 -547.215987 
L 564.640187 -547.649207 
L 564.842603 -548.082427 
L 565.050441 -548.515647 
L 565.263687 -548.948867 
L 565.482323 -549.382087 
L 565.706326 -549.815307 
L 565.93567 -550.248527 
L 566.170321 -550.681747 
L 566.410244 -551.114967 
L 566.655397 -551.548187 
L 566.905733 -551.981407 
L 635.394267 -551.981407 
L 635.394267 -551.981407 
L 635.644603 -551.548187 
L 635.889756 -551.114967 
L 636.129679 -550.681747 
L 636.36433 -550.248527 
L 636.593674 -549.815307 
L 636.817677 -549.382087 
L 637.036313 -548.948867 
L 637.249559 -548.515647 
L 637.457397 -548.082427 
L 637.659813 -547.649207 
L 637.856798 -547.215987 
L 638.048345 -546.782767 
L 638.234453 -546.349547 
L 638.415124 -545.916327 
L 638.590362 -545.483107 
L 638.760176 -545.049887 
L 638.924577 -544.616667 
L 639.083581 -544.183447 
L 639.237204 -543.750227 
L 639.385466 -543.317007 
L 639.528389 -542.883787 
L 639.665996 -542.450567 
L 639.798313 -542.017347 
L 639.925367 -541.584127 
L 640.047188 -541.150907 
L 640.163804 -540.717687 
L 640.275247 -540.284467 
L 640.381547 -539.851247 
L 640.482737 -539.418027 
L 640.578849 -538.984807 
L 640.669914 -538.551587 
L 640.755964 -538.118367 
L 640.837032 -537.685147 
L 640.913148 -537.251927 
L 640.984342 -536.818707 
L 641.050643 -536.385487 
L 641.112081 -535.952267 
L 641.16868 -535.519047 
L 641.220468 -535.085827 
L 641.267468 -534.652607 
L 641.309702 -534.219387 
L 641.34719 -533.786167 
L 641.379951 -533.352947 
L 641.408001 -532.919727 
L 641.431354 -532.486507 
L 641.450022 -532.053287 
L 641.464015 -531.620067 
L 641.473339 -531.186847 
L 641.478 -530.753627 
L 641.478 -530.320407 
L 641.473339 -529.887187 
L 641.464015 -529.453967 
L 641.450022 -529.020747 
L 641.431354 -528.587527 
L 641.408001 -528.154307 
L 641.379951 -527.721087 
L 641.34719 -527.287867 
L 641.309702 -526.854647 
L 641.267468 -526.421427 
L 641.220468 -525.988207 
L 641.16868 -525.554987 
L 641.112081 -525.121767 
L 641.050643 -524.688547 
L 640.984342 -524.255327 
L 640.913148 -523.822107 
L 640.837032 -523.388887 
L 640.755964 -522.955667 
L 640.669914 -522.522447 
L 640.578849 -522.089227 
L 640.482737 -521.656007 
L 640.381547 -521.222787 
L 640.275247 -520.789567 
L 640.163804 -520.356347 
L 640.047188 -519.923127 
L 639.925367 -519.489907 
L 639.798313 -519.056687 
L 639.665996 -518.623467 
L 639.528389 -518.190247 
L 639.385466 -517.757027 
L 639.237204 -517.323807 
L 639.083581 -516.890587 
L 638.924577 -516.457367 
L 638.760176 -516.024147 
L 638.590362 -515.590927 
L 638.415124 -515.157707 
L 638.234453 -514.724487 
L 638.048345 -514.291267 
L 637.856798 -513.858047 
L 637.659813 -513.424827 
L 637.457397 -512.991607 
L 637.249559 -512.558387 
L 637.036313 -512.125167 
L 636.817677 -511.691947 
L 636.593674 -511.258727 
L 636.36433 -510.825507 
L 636.129679 -510.392287 
L 635.889756 -509.959067 
L 635.644603 -509.525847 
L 635.394267 -509.092627 
z
" style="stroke: #595959; stroke-opacity: 0.7"/>
    </defs>
    <g clip-path="url(#p7cfcee8f48)">
     <use xlink:href="#m003dc12117" x="0" y="720" style="fill: #e5c849; fill-opacity: 0.7; stroke: #595959; stroke-opacity: 0.7"/>
    </g>
   </g>
   <g id="FillBetweenPolyCollection_7">
    <defs>
     <path id="mebe5c5057c" d="M 727.390519 -178.925321 
L 676.549481 -178.925321 
L 676.235215 -179.342584 
L 675.925608 -179.759848 
L 675.620613 -180.177111 
L 675.320167 -180.594374 
L 675.024189 -181.011638 
L 674.732582 -181.428901 
L 674.445234 -181.846165 
L 674.162018 -182.263428 
L 673.882795 -182.680691 
L 673.607412 -183.097955 
L 673.335709 -183.515218 
L 673.067514 -183.932481 
L 672.802646 -184.349745 
L 672.540921 -184.767008 
L 672.282148 -185.184272 
L 672.026133 -185.601535 
L 671.77268 -186.018798 
L 671.521594 -186.436062 
L 671.272682 -186.853325 
L 671.025751 -187.270588 
L 670.780618 -187.687852 
L 670.537103 -188.105115 
L 670.295036 -188.522379 
L 670.054256 -188.939642 
L 669.814613 -189.356905 
L 669.575973 -189.774169 
L 669.338214 -190.191432 
L 669.10123 -190.608696 
L 668.864933 -191.025959 
L 668.629254 -191.443222 
L 668.394142 -191.860486 
L 668.159568 -192.277749 
L 667.925526 -192.695012 
L 667.692031 -193.112276 
L 667.459121 -193.529539 
L 667.226859 -193.946803 
L 666.995333 -194.364066 
L 666.764654 -194.781329 
L 666.534961 -195.198593 
L 666.306415 -195.615856 
L 666.079205 -196.033119 
L 665.853543 -196.450383 
L 665.629668 -196.867646 
L 665.407842 -197.28491 
L 665.18835 -197.702173 
L 664.971503 -198.119436 
L 664.757631 -198.5367 
L 664.547087 -198.953963 
L 664.340246 -199.371226 
L 664.137499 -199.78849 
L 663.939256 -200.205753 
L 663.745946 -200.623017 
L 663.55801 -201.04028 
L 663.375903 -201.457543 
L 663.200092 -201.874807 
L 663.031056 -202.29207 
L 662.86928 -202.709334 
L 662.715256 -203.126597 
L 662.569481 -203.54386 
L 662.432454 -203.961124 
L 662.304675 -204.378387 
L 662.186643 -204.79565 
L 662.078854 -205.212914 
L 661.981796 -205.630177 
L 661.895953 -206.047441 
L 661.821798 -206.464704 
L 661.759792 -206.881967 
L 661.710385 -207.299231 
L 661.674009 -207.716494 
L 661.651082 -208.133757 
L 661.642 -208.551021 
L 661.647141 -208.968284 
L 661.666861 -209.385548 
L 661.701491 -209.802811 
L 661.751336 -210.220074 
L 661.816678 -210.637338 
L 661.897767 -211.054601 
L 661.994827 -211.471864 
L 662.108052 -211.889128 
L 662.237602 -212.306391 
L 662.383609 -212.723655 
L 662.54617 -213.140918 
L 662.72535 -213.558181 
L 662.92118 -213.975445 
L 663.133656 -214.392708 
L 663.362742 -214.809972 
L 663.608367 -215.227235 
L 663.870425 -215.644498 
L 664.148777 -216.061762 
L 664.443248 -216.479025 
L 664.753633 -216.896288 
L 665.079691 -217.313552 
L 665.421151 -217.730815 
L 665.77771 -218.148079 
L 666.149032 -218.565342 
L 666.534755 -218.982605 
L 666.934486 -219.399869 
L 667.347805 -219.817132 
L 667.774265 -220.234395 
L 736.165735 -220.234395 
L 736.165735 -220.234395 
L 736.592195 -219.817132 
L 737.005514 -219.399869 
L 737.405245 -218.982605 
L 737.790968 -218.565342 
L 738.16229 -218.148079 
L 738.518849 -217.730815 
L 738.860309 -217.313552 
L 739.186367 -216.896288 
L 739.496752 -216.479025 
L 739.791223 -216.061762 
L 740.069575 -215.644498 
L 740.331633 -215.227235 
L 740.577258 -214.809972 
L 740.806344 -214.392708 
L 741.01882 -213.975445 
L 741.21465 -213.558181 
L 741.39383 -213.140918 
L 741.556391 -212.723655 
L 741.702398 -212.306391 
L 741.831948 -211.889128 
L 741.945173 -211.471864 
L 742.042233 -211.054601 
L 742.123322 -210.637338 
L 742.188664 -210.220074 
L 742.238509 -209.802811 
L 742.273139 -209.385548 
L 742.292859 -208.968284 
L 742.298 -208.551021 
L 742.288918 -208.133757 
L 742.265991 -207.716494 
L 742.229615 -207.299231 
L 742.180208 -206.881967 
L 742.118202 -206.464704 
L 742.044047 -206.047441 
L 741.958204 -205.630177 
L 741.861146 -205.212914 
L 741.753357 -204.79565 
L 741.635325 -204.378387 
L 741.507546 -203.961124 
L 741.370519 -203.54386 
L 741.224744 -203.126597 
L 741.07072 -202.709334 
L 740.908944 -202.29207 
L 740.739908 -201.874807 
L 740.564097 -201.457543 
L 740.38199 -201.04028 
L 740.194054 -200.623017 
L 740.000744 -200.205753 
L 739.802501 -199.78849 
L 739.599754 -199.371226 
L 739.392913 -198.953963 
L 739.182369 -198.5367 
L 738.968497 -198.119436 
L 738.75165 -197.702173 
L 738.532158 -197.28491 
L 738.310332 -196.867646 
L 738.086457 -196.450383 
L 737.860795 -196.033119 
L 737.633585 -195.615856 
L 737.405039 -195.198593 
L 737.175346 -194.781329 
L 736.944667 -194.364066 
L 736.713141 -193.946803 
L 736.480879 -193.529539 
L 736.247969 -193.112276 
L 736.014474 -192.695012 
L 735.780432 -192.277749 
L 735.545858 -191.860486 
L 735.310746 -191.443222 
L 735.075067 -191.025959 
L 734.83877 -190.608696 
L 734.601786 -190.191432 
L 734.364027 -189.774169 
L 734.125387 -189.356905 
L 733.885744 -188.939642 
L 733.644964 -188.522379 
L 733.402897 -188.105115 
L 733.159382 -187.687852 
L 732.914249 -187.270588 
L 732.667318 -186.853325 
L 732.418406 -186.436062 
L 732.16732 -186.018798 
L 731.913867 -185.601535 
L 731.657852 -185.184272 
L 731.399079 -184.767008 
L 731.137354 -184.349745 
L 730.872486 -183.932481 
L 730.604291 -183.515218 
L 730.332588 -183.097955 
L 730.057205 -182.680691 
L 729.777982 -182.263428 
L 729.494766 -181.846165 
L 729.207418 -181.428901 
L 728.915811 -181.011638 
L 728.619833 -180.594374 
L 728.319387 -180.177111 
L 728.014392 -179.759848 
L 727.704785 -179.342584 
L 727.390519 -178.925321 
z
" style="stroke: #595959; stroke-opacity: 0.7"/>
    </defs>
    <g clip-path="url(#p7cfcee8f48)">
     <use xlink:href="#mebe5c5057c" x="0" y="720" style="fill: #dbc29e; fill-opacity: 0.7; stroke: #595959; stroke-opacity: 0.7"/>
    </g>
   </g>
   <g id="FillBetweenPolyCollection_8">
    <defs>
     <path id="m2713c922b1" d="M 834.85426 -289.362145 
L 770.72574 -289.362145 
L 770.289019 -292.627153 
L 769.861987 -295.89216 
L 769.445008 -299.157167 
L 769.038428 -302.422175 
L 768.642572 -305.687182 
L 768.257745 -308.952189 
L 767.884233 -312.217197 
L 767.522299 -315.482204 
L 767.172184 -318.747211 
L 766.83411 -322.012219 
L 766.508272 -325.277226 
L 766.194847 -328.542233 
L 765.893987 -331.807241 
L 765.605821 -335.072248 
L 765.330457 -338.337255 
L 765.067977 -341.602263 
L 764.818446 -344.86727 
L 764.581901 -348.132277 
L 764.35836 -351.397284 
L 764.14782 -354.662292 
L 763.950255 -357.927299 
L 763.765619 -361.192306 
L 763.593848 -364.457314 
L 763.434855 -367.722321 
L 763.288537 -370.987328 
L 763.154773 -374.252336 
L 763.033424 -377.517343 
L 762.924336 -380.78235 
L 762.827338 -384.047358 
L 762.742245 -387.312365 
L 762.668862 -390.577372 
L 762.606978 -393.84238 
L 762.556372 -397.107387 
L 762.516815 -400.372394 
L 762.488066 -403.637402 
L 762.469879 -406.902409 
L 762.462 -410.167416 
L 762.464171 -413.432424 
L 762.476128 -416.697431 
L 762.497607 -419.962438 
L 762.528341 -423.227446 
L 762.56806 -426.492453 
L 762.6165 -429.75746 
L 762.673394 -433.022467 
L 762.73848 -436.287475 
L 762.8115 -439.552482 
L 762.892202 -442.817489 
L 762.980339 -446.082497 
L 763.075671 -449.347504 
L 763.177967 -452.612511 
L 763.287004 -455.877519 
L 763.402568 -459.142526 
L 763.524459 -462.407533 
L 763.652483 -465.672541 
L 763.786463 -468.937548 
L 763.92623 -472.202555 
L 764.07163 -475.467563 
L 764.222521 -478.73257 
L 764.378776 -481.997577 
L 764.540281 -485.262585 
L 764.706933 -488.527592 
L 764.878648 -491.792599 
L 765.055351 -495.057607 
L 765.236983 -498.322614 
L 765.423497 -501.587621 
L 765.614862 -504.852629 
L 765.811056 -508.117636 
L 766.012071 -511.382643 
L 766.217911 -514.647651 
L 766.428591 -517.912658 
L 766.644135 -521.177665 
L 766.864578 -524.442672 
L 767.089964 -527.70768 
L 767.320344 -530.972687 
L 767.555776 -534.237694 
L 767.796324 -537.502702 
L 768.042057 -540.767709 
L 768.293049 -544.032716 
L 768.549375 -547.297724 
L 768.811112 -550.562731 
L 769.078338 -553.827738 
L 769.35113 -557.092746 
L 769.629564 -560.357753 
L 769.913711 -563.62276 
L 770.203639 -566.887768 
L 770.499411 -570.152775 
L 770.801084 -573.417782 
L 771.108704 -576.68279 
L 771.422314 -579.947797 
L 771.741942 -583.212804 
L 772.06761 -586.477812 
L 772.399325 -589.742819 
L 772.737083 -593.007826 
L 773.080868 -596.272834 
L 773.430649 -599.537841 
L 773.78638 -602.802848 
L 774.148002 -606.067856 
L 774.515439 -609.332863 
L 774.8886 -612.59787 
L 830.6914 -612.59787 
L 830.6914 -612.59787 
L 831.064561 -609.332863 
L 831.431998 -606.067856 
L 831.79362 -602.802848 
L 832.149351 -599.537841 
L 832.499132 -596.272834 
L 832.842917 -593.007826 
L 833.180675 -589.742819 
L 833.51239 -586.477812 
L 833.838058 -583.212804 
L 834.157686 -579.947797 
L 834.471296 -576.68279 
L 834.778916 -573.417782 
L 835.080589 -570.152775 
L 835.376361 -566.887768 
L 835.666289 -563.62276 
L 835.950436 -560.357753 
L 836.22887 -557.092746 
L 836.501662 -553.827738 
L 836.768888 -550.562731 
L 837.030625 -547.297724 
L 837.286951 -544.032716 
L 837.537943 -540.767709 
L 837.783676 -537.502702 
L 838.024224 -534.237694 
L 838.259656 -530.972687 
L 838.490036 -527.70768 
L 838.715422 -524.442672 
L 838.935865 -521.177665 
L 839.151409 -517.912658 
L 839.362089 -514.647651 
L 839.567929 -511.382643 
L 839.768944 -508.117636 
L 839.965138 -504.852629 
L 840.156503 -501.587621 
L 840.343017 -498.322614 
L 840.524649 -495.057607 
L 840.701352 -491.792599 
L 840.873067 -488.527592 
L 841.039719 -485.262585 
L 841.201224 -481.997577 
L 841.357479 -478.73257 
L 841.50837 -475.467563 
L 841.65377 -472.202555 
L 841.793537 -468.937548 
L 841.927517 -465.672541 
L 842.055541 -462.407533 
L 842.177432 -459.142526 
L 842.292996 -455.877519 
L 842.402033 -452.612511 
L 842.504329 -449.347504 
L 842.599661 -446.082497 
L 842.687798 -442.817489 
L 842.7685 -439.552482 
L 842.84152 -436.287475 
L 842.906606 -433.022467 
L 842.9635 -429.75746 
L 843.01194 -426.492453 
L 843.051659 -423.227446 
L 843.082393 -419.962438 
L 843.103872 -416.697431 
L 843.115829 -413.432424 
L 843.118 -410.167416 
L 843.110121 -406.902409 
L 843.091934 -403.637402 
L 843.063185 -400.372394 
L 843.023628 -397.107387 
L 842.973022 -393.84238 
L 842.911138 -390.577372 
L 842.837755 -387.312365 
L 842.752662 -384.047358 
L 842.655664 -380.78235 
L 842.546576 -377.517343 
L 842.425227 -374.252336 
L 842.291463 -370.987328 
L 842.145145 -367.722321 
L 841.986152 -364.457314 
L 841.814381 -361.192306 
L 841.629745 -357.927299 
L 841.43218 -354.662292 
L 841.22164 -351.397284 
L 840.998099 -348.132277 
L 840.761554 -344.86727 
L 840.512023 -341.602263 
L 840.249543 -338.337255 
L 839.974179 -335.072248 
L 839.686013 -331.807241 
L 839.385153 -328.542233 
L 839.071728 -325.277226 
L 838.74589 -322.012219 
L 838.407816 -318.747211 
L 838.057701 -315.482204 
L 837.695767 -312.217197 
L 837.322255 -308.952189 
L 836.937428 -305.687182 
L 836.541572 -302.422175 
L 836.134992 -299.157167 
L 835.718013 -295.89216 
L 835.290981 -292.627153 
L 834.85426 -289.362145 
z
" style="stroke: #595959; stroke-opacity: 0.7"/>
    </defs>
    <g clip-path="url(#p7cfcee8f48)">
     <use xlink:href="#m2713c922b1" x="0" y="720" style="fill: #b3b3b3; fill-opacity: 0.7; stroke: #595959; stroke-opacity: 0.7"/>
    </g>
   </g>
   <g id="line2d_9">
    <path d="M 97.05 157.640179 
L 97.05 81.26545 
" clip-path="url(#p7cfcee8f48)" style="fill: none; stroke: #595959; stroke-width: 1.5; stroke-linecap: round"/>
   </g>
   <g id="line2d_10">
    <path d="M 97.05 138.546497 
L 97.05 100.359132 
" clip-path="url(#p7cfcee8f48)" style="fill: none; stroke: #595959; stroke-width: 4.5; stroke-linecap: round"/>
   </g>
   <g id="line2d_11">
    <path d="M 97.05 119.452815 
" clip-path="url(#p7cfcee8f48)" style="fill: none; stroke: #595959; stroke-width: 1.5; stroke-linecap: round"/>
    <defs>
     <path id="ma27607eab0" d="M 1.875 0 
L -1.875 -0 
" style="stroke: #ffffff; stroke-width: 0.9"/>
    </defs>
    <g clip-path="url(#p7cfcee8f48)">
     <use xlink:href="#ma27607eab0" x="97.05" y="119.452815" style="fill: #ffffff; stroke: #ffffff; stroke-width: 0.9"/>
    </g>
   </g>
   <g id="line2d_12">
    <path d="M 197.87 539.513824 
L 197.87 119.452815 
" clip-path="url(#p7cfcee8f48)" style="fill: none; stroke: #595959; stroke-width: 1.5; stroke-linecap: round"/>
   </g>
   <g id="line2d_13">
    <path d="M 197.87 380.399805 
L 197.87 176.733861 
" clip-path="url(#p7cfcee8f48)" style="fill: none; stroke: #595959; stroke-width: 4.5; stroke-linecap: round"/>
   </g>
   <g id="line2d_14">
    <path d="M 197.87 284.931394 
" clip-path="url(#p7cfcee8f48)" style="fill: none; stroke: #595959; stroke-width: 1.5; stroke-linecap: round"/>
    <g clip-path="url(#p7cfcee8f48)">
     <use xlink:href="#ma27607eab0" x="197.87" y="284.931394" style="fill: #ffffff; stroke: #ffffff; stroke-width: 0.9"/>
    </g>
   </g>
   <g id="line2d_15">
    <path d="M 298.69 354.941562 
L 298.69 125.817375 
" clip-path="url(#p7cfcee8f48)" style="fill: none; stroke: #595959; stroke-width: 1.5; stroke-linecap: round"/>
   </g>
   <g id="line2d_16">
    <path d="M 298.69 345.394721 
L 298.69 230.832628 
" clip-path="url(#p7cfcee8f48)" style="fill: none; stroke: #595959; stroke-width: 4.5; stroke-linecap: round"/>
   </g>
   <g id="line2d_17">
    <path d="M 298.69 335.84788 
" clip-path="url(#p7cfcee8f48)" style="fill: none; stroke: #595959; stroke-width: 1.5; stroke-linecap: round"/>
    <g clip-path="url(#p7cfcee8f48)">
     <use xlink:href="#ma27607eab0" x="298.69" y="335.84788" style="fill: #ffffff; stroke: #ffffff; stroke-width: 0.9"/>
    </g>
   </g>
   <g id="line2d_18">
    <path d="M 399.51 482.232777 
L 399.51 253.10859 
" clip-path="url(#p7cfcee8f48)" style="fill: none; stroke: #595959; stroke-width: 1.5; stroke-linecap: round"/>
   </g>
   <g id="line2d_19">
    <path d="M 399.51 436.089712 
L 399.51 315.163058 
" clip-path="url(#p7cfcee8f48)" style="fill: none; stroke: #595959; stroke-width: 4.5; stroke-linecap: round"/>
   </g>
   <g id="line2d_20">
    <path d="M 399.51 364.488403 
" clip-path="url(#p7cfcee8f48)" style="fill: none; stroke: #595959; stroke-width: 1.5; stroke-linecap: round"/>
    <g clip-path="url(#p7cfcee8f48)">
     <use xlink:href="#ma27607eab0" x="399.51" y="364.488403" style="fill: #ffffff; stroke: #ffffff; stroke-width: 0.9"/>
    </g>
   </g>
   <g id="line2d_21">
    <path d="M 500.33 501.32646 
L 500.33 240.379469 
" clip-path="url(#p7cfcee8f48)" style="fill: none; stroke: #595959; stroke-width: 1.5; stroke-linecap: round"/>
   </g>
   <g id="line2d_22">
    <path d="M 500.33 436.089712 
L 500.33 305.616217 
" clip-path="url(#p7cfcee8f48)" style="fill: none; stroke: #595959; stroke-width: 4.5; stroke-linecap: round"/>
   </g>
   <g id="line2d_23">
    <path d="M 500.33 370.852964 
" clip-path="url(#p7cfcee8f48)" style="fill: none; stroke: #595959; stroke-width: 1.5; stroke-linecap: round"/>
    <g clip-path="url(#p7cfcee8f48)">
     <use xlink:href="#ma27607eab0" x="500.33" y="370.852964" style="fill: #ffffff; stroke: #ffffff; stroke-width: 0.9"/>
    </g>
   </g>
   <g id="line2d_24">
    <path d="M 601.15 208.556665 
L 601.15 170.369301 
" clip-path="url(#p7cfcee8f48)" style="fill: none; stroke: #595959; stroke-width: 1.5; stroke-linecap: round"/>
   </g>
   <g id="line2d_25">
    <path d="M 601.15 199.009824 
L 601.15 179.916142 
" clip-path="url(#p7cfcee8f48)" style="fill: none; stroke: #595959; stroke-width: 4.5; stroke-linecap: round"/>
   </g>
   <g id="line2d_26">
    <path d="M 601.15 189.462983 
" clip-path="url(#p7cfcee8f48)" style="fill: none; stroke: #595959; stroke-width: 1.5; stroke-linecap: round"/>
    <g clip-path="url(#p7cfcee8f48)">
     <use xlink:href="#ma27607eab0" x="601.15" y="189.462983" style="fill: #ffffff; stroke: #ffffff; stroke-width: 0.9"/>
    </g>
   </g>
   <g id="line2d_27">
    <path d="M 701.97 539.513824 
L 701.97 501.32646 
" clip-path="url(#p7cfcee8f48)" style="fill: none; stroke: #595959; stroke-width: 1.5; stroke-linecap: round"/>
   </g>
   <g id="line2d_28">
    <path d="M 701.97 526.784703 
L 701.97 507.69102 
" clip-path="url(#p7cfcee8f48)" style="fill: none; stroke: #595959; stroke-width: 4.5; stroke-linecap: round"/>
   </g>
   <g id="line2d_29">
    <path d="M 701.97 514.055581 
" clip-path="url(#p7cfcee8f48)" style="fill: none; stroke: #595959; stroke-width: 1.5; stroke-linecap: round"/>
    <g clip-path="url(#p7cfcee8f48)">
     <use xlink:href="#ma27607eab0" x="701.97" y="514.055581" style="fill: #ffffff; stroke: #ffffff; stroke-width: 0.9"/>
    </g>
   </g>
   <g id="line2d_30">
    <path d="M 802.79 418.58717 
L 802.79 119.452815 
" clip-path="url(#p7cfcee8f48)" style="fill: none; stroke: #595959; stroke-width: 1.5; stroke-linecap: round"/>
   </g>
   <g id="line2d_31">
    <path d="M 802.79 354.941562 
L 802.79 205.374385 
" clip-path="url(#p7cfcee8f48)" style="fill: none; stroke: #595959; stroke-width: 4.5; stroke-linecap: round"/>
   </g>
   <g id="line2d_32">
    <path d="M 802.79 291.295955 
" clip-path="url(#p7cfcee8f48)" style="fill: none; stroke: #595959; stroke-width: 1.5; stroke-linecap: round"/>
    <g clip-path="url(#p7cfcee8f48)">
     <use xlink:href="#ma27607eab0" x="802.79" y="291.295955" style="fill: #ffffff; stroke: #ffffff; stroke-width: 0.9"/>
    </g>
   </g>
   <g id="patch_3">
    <path d="M 46.64 573.01 
L 46.64 52.92375 
" style="fill: none; stroke: #cccccc; stroke-width: 0.8; stroke-linejoin: miter; stroke-linecap: square"/>
   </g>
   <g id="patch_4">
    <path d="M 853.2 573.01 
L 853.2 52.92375 
" style="fill: none; stroke: #cccccc; stroke-width: 0.8; stroke-linejoin: miter; stroke-linecap: square"/>
   </g>
   <g id="patch_5">
    <path d="M 46.64 573.01 
L 853.2 573.01 
" style="fill: none; stroke: #cccccc; stroke-width: 0.8; stroke-linejoin: miter; stroke-linecap: square"/>
   </g>
   <g id="patch_6">
    <path d="M 46.64 52.92375 
L 853.2 52.92375 
" style="fill: none; stroke: #cccccc; stroke-width: 0.8; stroke-linejoin: miter; stroke-linecap: square"/>
   </g>
   <g id="text_19">
    <!-- Distribución de Edad por Ocupación con Embolia -->
    <g style="fill: #262626" transform="translate(214.354375 25.798125) scale(0.2 -0.2)">
     <defs>
      <path id="Arial-BoldMT-44" d="M 463 4581 
L 2153 4581 
Q 2725 4581 3025 4494 
Q 3428 4375 3715 4072 
Q 4003 3769 4153 3330 
Q 4303 2891 4303 2247 
Q 4303 1681 4163 1272 
Q 3991 772 3672 463 
Q 3431 228 3022 97 
Q 2716 0 2203 0 
L 463 0 
L 463 4581 
z
M 1388 3806 
L 1388 772 
L 2078 772 
Q 2466 772 2638 816 
Q 2863 872 3011 1006 
Q 3159 1141 3253 1448 
Q 3347 1756 3347 2288 
Q 3347 2819 3253 3103 
Q 3159 3388 2990 3547 
Q 2822 3706 2563 3763 
Q 2369 3806 1803 3806 
L 1388 3806 
z
" transform="scale(0.015625)"/>
      <path id="Arial-BoldMT-73" d="M 150 947 
L 1031 1081 
Q 1088 825 1259 692 
Q 1431 559 1741 559 
Q 2081 559 2253 684 
Q 2369 772 2369 919 
Q 2369 1019 2306 1084 
Q 2241 1147 2013 1200 
Q 950 1434 666 1628 
Q 272 1897 272 2375 
Q 272 2806 612 3100 
Q 953 3394 1669 3394 
Q 2350 3394 2681 3172 
Q 3013 2950 3138 2516 
L 2309 2363 
Q 2256 2556 2107 2659 
Q 1959 2763 1684 2763 
Q 1338 2763 1188 2666 
Q 1088 2597 1088 2488 
Q 1088 2394 1175 2328 
Q 1294 2241 1995 2081 
Q 2697 1922 2975 1691 
Q 3250 1456 3250 1038 
Q 3250 581 2869 253 
Q 2488 -75 1741 -75 
Q 1063 -75 667 200 
Q 272 475 150 947 
z
" transform="scale(0.015625)"/>
      <path id="Arial-BoldMT-74" d="M 1981 3319 
L 1981 2619 
L 1381 2619 
L 1381 1281 
Q 1381 875 1398 808 
Q 1416 741 1477 697 
Q 1538 653 1625 653 
Q 1747 653 1978 738 
L 2053 56 
Q 1747 -75 1359 -75 
Q 1122 -75 931 4 
Q 741 84 652 211 
Q 563 338 528 553 
Q 500 706 500 1172 
L 500 2619 
L 97 2619 
L 97 3319 
L 500 3319 
L 500 3978 
L 1381 4491 
L 1381 3319 
L 1981 3319 
z
" transform="scale(0.015625)"/>
      <path id="Arial-BoldMT-72" d="M 1300 0 
L 422 0 
L 422 3319 
L 1238 3319 
L 1238 2847 
Q 1447 3181 1614 3287 
Q 1781 3394 1994 3394 
Q 2294 3394 2572 3228 
L 2300 2463 
Q 2078 2606 1888 2606 
Q 1703 2606 1575 2504 
Q 1447 2403 1373 2137 
Q 1300 1872 1300 1025 
L 1300 0 
z
" transform="scale(0.015625)"/>
      <path id="Arial-BoldMT-62" d="M 422 0 
L 422 4581 
L 1300 4581 
L 1300 2931 
Q 1706 3394 2263 3394 
Q 2869 3394 3266 2955 
Q 3663 2516 3663 1694 
Q 3663 844 3258 384 
Q 2853 -75 2275 -75 
Q 1991 -75 1714 67 
Q 1438 209 1238 488 
L 1238 0 
L 422 0 
z
M 1294 1731 
Q 1294 1216 1456 969 
Q 1684 619 2063 619 
Q 2353 619 2558 867 
Q 2763 1116 2763 1650 
Q 2763 2219 2556 2470 
Q 2350 2722 2028 2722 
Q 1713 2722 1503 2476 
Q 1294 2231 1294 1731 
z
" transform="scale(0.015625)"/>
      <path id="Arial-BoldMT-20" transform="scale(0.015625)"/>
      <path id="Arial-BoldMT-65" d="M 2381 1056 
L 3256 909 
Q 3088 428 2723 176 
Q 2359 -75 1813 -75 
Q 947 -75 531 491 
Q 203 944 203 1634 
Q 203 2459 634 2926 
Q 1066 3394 1725 3394 
Q 2466 3394 2894 2905 
Q 3322 2416 3303 1406 
L 1103 1406 
Q 1113 1016 1316 798 
Q 1519 581 1822 581 
Q 2028 581 2168 693 
Q 2309 806 2381 1056 
z
M 2431 1944 
Q 2422 2325 2234 2523 
Q 2047 2722 1778 2722 
Q 1491 2722 1303 2513 
Q 1116 2303 1119 1944 
L 2431 1944 
z
" transform="scale(0.015625)"/>
      <path id="Arial-BoldMT-6f" d="M 256 1706 
Q 256 2144 472 2553 
Q 688 2963 1083 3178 
Q 1478 3394 1966 3394 
Q 2719 3394 3200 2905 
Q 3681 2416 3681 1669 
Q 3681 916 3195 420 
Q 2709 -75 1972 -75 
Q 1516 -75 1102 131 
Q 688 338 472 736 
Q 256 1134 256 1706 
z
M 1156 1659 
Q 1156 1166 1390 903 
Q 1625 641 1969 641 
Q 2313 641 2545 903 
Q 2778 1166 2778 1666 
Q 2778 2153 2545 2415 
Q 2313 2678 1969 2678 
Q 1625 2678 1390 2415 
Q 1156 2153 1156 1659 
z
" transform="scale(0.015625)"/>
      <path id="Arial-BoldMT-6d" d="M 394 3319 
L 1203 3319 
L 1203 2866 
Q 1638 3394 2238 3394 
Q 2556 3394 2790 3262 
Q 3025 3131 3175 2866 
Q 3394 3131 3647 3262 
Q 3900 3394 4188 3394 
Q 4553 3394 4806 3245 
Q 5059 3097 5184 2809 
Q 5275 2597 5275 2122 
L 5275 0 
L 4397 0 
L 4397 1897 
Q 4397 2391 4306 2534 
Q 4184 2722 3931 2722 
Q 3747 2722 3584 2609 
Q 3422 2497 3350 2280 
Q 3278 2063 3278 1594 
L 3278 0 
L 2400 0 
L 2400 1819 
Q 2400 2303 2353 2443 
Q 2306 2584 2207 2653 
Q 2109 2722 1941 2722 
Q 1738 2722 1575 2612 
Q 1413 2503 1342 2297 
Q 1272 2091 1272 1613 
L 1272 0 
L 394 0 
L 394 3319 
z
" transform="scale(0.015625)"/>
      <path id="Arial-BoldMT-6c" d="M 459 0 
L 459 4581 
L 1338 4581 
L 1338 0 
L 459 0 
z
" transform="scale(0.015625)"/>
     </defs>
     <use xlink:href="#Arial-BoldMT-44"/>
     <use xlink:href="#Arial-BoldMT-69" transform="translate(72.216797 0)"/>
     <use xlink:href="#Arial-BoldMT-73" transform="translate(100 0)"/>
     <use xlink:href="#Arial-BoldMT-74" transform="translate(155.615234 0)"/>
     <use xlink:href="#Arial-BoldMT-72" transform="translate(188.916016 0)"/>
     <use xlink:href="#Arial-BoldMT-69" transform="translate(227.832031 0)"/>
     <use xlink:href="#Arial-BoldMT-62" transform="translate(255.615234 0)"/>
     <use xlink:href="#Arial-BoldMT-75" transform="translate(316.699219 0)"/>
     <use xlink:href="#Arial-BoldMT-63" transform="translate(377.783203 0)"/>
     <use xlink:href="#Arial-BoldMT-69" transform="translate(433.398438 0)"/>
     <use xlink:href="#Arial-BoldMT-f3" transform="translate(461.181641 0)"/>
     <use xlink:href="#Arial-BoldMT-6e" transform="translate(522.265625 0)"/>
     <use xlink:href="#Arial-BoldMT-20" transform="translate(583.349609 0)"/>
     <use xlink:href="#Arial-BoldMT-64" transform="translate(611.132812 0)"/>
     <use xlink:href="#Arial-BoldMT-65" transform="translate(672.216797 0)"/>
     <use xlink:href="#Arial-BoldMT-20" transform="translate(727.832031 0)"/>
     <use xlink:href="#Arial-BoldMT-45" transform="translate(755.615234 0)"/>
     <use xlink:href="#Arial-BoldMT-64" transform="translate(822.314453 0)"/>
     <use xlink:href="#Arial-BoldMT-61" transform="translate(883.398438 0)"/>
     <use xlink:href="#Arial-BoldMT-64" transform="translate(939.013672 0)"/>
     <use xlink:href="#Arial-BoldMT-20" transform="translate(1000.097656 0)"/>
     <use xlink:href="#Arial-BoldMT-70" transform="translate(1027.880859 0)"/>
     <use xlink:href="#Arial-BoldMT-6f" transform="translate(1088.964844 0)"/>
     <use xlink:href="#Arial-BoldMT-72" transform="translate(1150.048828 0)"/>
     <use xlink:href="#Arial-BoldMT-20" transform="translate(1188.964844 0)"/>
     <use xlink:href="#Arial-BoldMT-4f" transform="translate(1216.748047 0)"/>
     <use xlink:href="#Arial-BoldMT-63" transform="translate(1294.53125 0)"/>
     <use xlink:href="#Arial-BoldMT-75" transform="translate(1350.146484 0)"/>
     <use xlink:href="#Arial-BoldMT-70" transform="translate(1411.230469 0)"/>
     <use xlink:href="#Arial-BoldMT-61" transform="translate(1472.314453 0)"/>
     <use xlink:href="#Arial-BoldMT-63" transform="translate(1527.929688 0)"/>
     <use xlink:href="#Arial-BoldMT-69" transform="translate(1583.544922 0)"/>
     <use xlink:href="#Arial-BoldMT-f3" transform="translate(1611.328125 0)"/>
     <use xlink:href="#Arial-BoldMT-6e" transform="translate(1672.412109 0)"/>
     <use xlink:href="#Arial-BoldMT-20" transform="translate(1733.496094 0)"/>
     <use xlink:href="#Arial-BoldMT-63" transform="translate(1761.279297 0)"/>
     <use xlink:href="#Arial-BoldMT-6f" transform="translate(1816.894531 0)"/>
     <use xlink:href="#Arial-BoldMT-6e" transform="translate(1877.978516 0)"/>
     <use xlink:href="#Arial-BoldMT-20" transform="translate(1939.0625 0)"/>
     <use xlink:href="#Arial-BoldMT-45" transform="translate(1966.845703 0)"/>
     <use xlink:href="#Arial-BoldMT-6d" transform="translate(2033.544922 0)"/>
     <use xlink:href="#Arial-BoldMT-62" transform="translate(2122.460938 0)"/>
     <use xlink:href="#Arial-BoldMT-6f" transform="translate(2183.544922 0)"/>
     <use xlink:href="#Arial-BoldMT-6c" transform="translate(2244.628906 0)"/>
     <use xlink:href="#Arial-BoldMT-69" transform="translate(2272.412109 0)"/>
     <use xlink:href="#Arial-BoldMT-61" transform="translate(2300.195312 0)"/>
    </g>
    <!--  -->
    <g style="fill: #262626" transform="translate(449.92 46.92375) scale(0.2 -0.2)"/>
   </g>
  </g>
 </g>
 <defs>
  <clipPath id="p7cfcee8f48">
   <rect x="46.64" y="52.92375" width="806.56" height="520.08625"/>
  </clipPath>
 </defs>
</svg>
