<?xml version="1.0" encoding="utf-8" standalone="no"?>
<!DOCTYPE svg PUBLIC "-//W3C//DTD SVG 1.1//EN"
  "http://www.w3.org/Graphics/SVG/1.1/DTD/svg11.dtd">
<svg xmlns:xlink="http://www.w3.org/1999/xlink" width="864pt" height="720pt" viewBox="0 0 864 720" xmlns="http://www.w3.org/2000/svg" version="1.1">
 <metadata>
  <rdf:RDF xmlns:dc="http://purl.org/dc/elements/1.1/" xmlns:cc="http://creativecommons.org/ns#" xmlns:rdf="http://www.w3.org/1999/02/22-rdf-syntax-ns#">
   <cc:Work>
    <dc:type rdf:resource="http://purl.org/dc/dcmitype/StillImage"/>
    <dc:date>2025-03-18T14:11:44.734631</dc:date>
    <dc:format>image/svg+xml</dc:format>
    <dc:creator>
     <cc:Agent>
      <dc:title>Matplotlib v3.10.0, https://matplotlib.org/</dc:title>
     </cc:Agent>
    </dc:creator>
   </cc:Work>
  </rdf:RDF>
 </metadata>
 <defs>
  <style type="text/css">*{stroke-linejoin: round; stroke-linecap: butt}</style>
 </defs>
 <g id="figure_1">
  <g id="patch_1">
   <path d="M 0 720 
L 864 720 
L 864 0 
L 0 0 
z
" style="fill: #ffffff"/>
  </g>
  <g id="axes_1">
   <g id="patch_2">
    <path d="M 48.98 553.75 
L 853.2 553.75 
L 853.2 55.824 
L 48.98 55.824 
z
" style="fill: #ffffff"/>
   </g>
   <g id="matplotlib.axis_1">
    <g id="xtick_1">
     <g id="text_1">
      <!-- Quehaceres del hogar -->
      <g style="fill: #262626" transform="translate(96.34717 672.539062) rotate(-90) scale(0.1 -0.1)">
       <defs>
        <path id="DejaVuSerif-51" d="M 2700 -91 
Q 1628 -91 993 567 
Q 359 1225 359 2328 
Q 359 2894 529 3339 
Q 700 3784 1050 4134 
Q 1356 4441 1750 4595 
Q 2144 4750 2625 4750 
Q 3641 4750 4266 4084 
Q 4891 3419 4891 2328 
Q 4891 1403 4422 773 
Q 3953 144 3128 -38 
Q 3297 -247 3539 -347 
Q 3781 -447 4122 -447 
L 4219 -447 
L 4219 -1025 
Q 3691 -1000 3314 -767 
Q 2938 -534 2700 -91 
z
M 2625 244 
Q 3391 244 3781 770 
Q 4172 1297 4172 2328 
Q 4172 3363 3781 3889 
Q 3391 4416 2625 4416 
Q 1856 4416 1465 3889 
Q 1075 3363 1075 2328 
Q 1075 1297 1465 770 
Q 1856 244 2625 244 
z
" transform="scale(0.015625)"/>
        <path id="DejaVuSerif-75" d="M 2266 3322 
L 3341 3322 
L 3341 331 
L 3884 331 
L 3884 0 
L 2766 0 
L 2766 588 
Q 2606 256 2353 82 
Q 2100 -91 1766 -91 
Q 1213 -91 952 223 
Q 691 538 691 1209 
L 691 2988 
L 172 2988 
L 172 3322 
L 1269 3322 
L 1269 1388 
Q 1269 781 1417 556 
Q 1566 331 1947 331 
Q 2347 331 2556 625 
Q 2766 919 2766 1478 
L 2766 2988 
L 2266 2988 
L 2266 3322 
z
" transform="scale(0.015625)"/>
        <path id="DejaVuSerif-65" d="M 3469 1600 
L 991 1600 
L 991 1575 
Q 991 903 1244 561 
Q 1497 219 1991 219 
Q 2369 219 2611 417 
Q 2853 616 2950 1006 
L 3413 1006 
Q 3275 459 2904 184 
Q 2534 -91 1931 -91 
Q 1203 -91 761 389 
Q 319 869 319 1663 
Q 319 2450 753 2931 
Q 1188 3413 1894 3413 
Q 2647 3413 3050 2948 
Q 3453 2484 3469 1600 
z
M 2791 1931 
Q 2772 2513 2545 2808 
Q 2319 3103 1894 3103 
Q 1497 3103 1269 2806 
Q 1041 2509 991 1931 
L 2791 1931 
z
" transform="scale(0.015625)"/>
        <path id="DejaVuSerif-68" d="M 263 0 
L 263 331 
L 781 331 
L 781 4531 
L 231 4531 
L 231 4863 
L 1356 4863 
L 1356 2731 
Q 1516 3069 1770 3241 
Q 2025 3413 2363 3413 
Q 2913 3413 3172 3097 
Q 3431 2781 3431 2113 
L 3431 331 
L 3944 331 
L 3944 0 
L 2356 0 
L 2356 331 
L 2853 331 
L 2853 1931 
Q 2853 2541 2704 2764 
Q 2556 2988 2175 2988 
Q 1775 2988 1565 2697 
Q 1356 2406 1356 1850 
L 1356 331 
L 1856 331 
L 1856 0 
L 263 0 
z
" transform="scale(0.015625)"/>
        <path id="DejaVuSerif-61" d="M 2547 1044 
L 2547 1747 
L 1806 1747 
Q 1378 1747 1168 1562 
Q 959 1378 959 997 
Q 959 650 1171 447 
Q 1384 244 1747 244 
Q 2106 244 2326 466 
Q 2547 688 2547 1044 
z
M 3122 2075 
L 3122 331 
L 3634 331 
L 3634 0 
L 2547 0 
L 2547 359 
Q 2356 128 2106 18 
Q 1856 -91 1522 -91 
Q 969 -91 644 203 
Q 319 497 319 997 
Q 319 1513 691 1797 
Q 1063 2081 1741 2081 
L 2547 2081 
L 2547 2309 
Q 2547 2688 2317 2895 
Q 2088 3103 1672 3103 
Q 1328 3103 1125 2947 
Q 922 2791 872 2484 
L 575 2484 
L 575 3156 
Q 875 3284 1158 3348 
Q 1441 3413 1709 3413 
Q 2400 3413 2761 3070 
Q 3122 2728 3122 2075 
z
" transform="scale(0.015625)"/>
        <path id="DejaVuSerif-63" d="M 3291 997 
Q 3169 466 2822 187 
Q 2475 -91 1925 -91 
Q 1200 -91 759 389 
Q 319 869 319 1663 
Q 319 2459 759 2936 
Q 1200 3413 1925 3413 
Q 2241 3413 2553 3339 
Q 2866 3266 3181 3116 
L 3181 2266 
L 2847 2266 
Q 2781 2703 2561 2903 
Q 2341 3103 1931 3103 
Q 1466 3103 1228 2742 
Q 991 2381 991 1663 
Q 991 944 1227 581 
Q 1463 219 1931 219 
Q 2303 219 2525 412 
Q 2747 606 2828 997 
L 3291 997 
z
" transform="scale(0.015625)"/>
        <path id="DejaVuSerif-72" d="M 3059 3328 
L 3059 2497 
L 2728 2497 
Q 2713 2744 2591 2866 
Q 2469 2988 2234 2988 
Q 1809 2988 1582 2694 
Q 1356 2400 1356 1850 
L 1356 331 
L 2022 331 
L 2022 0 
L 263 0 
L 263 331 
L 781 331 
L 781 2994 
L 231 2994 
L 231 3322 
L 1356 3322 
L 1356 2731 
Q 1525 3078 1790 3245 
Q 2056 3413 2438 3413 
Q 2578 3413 2733 3391 
Q 2888 3369 3059 3328 
z
" transform="scale(0.015625)"/>
        <path id="DejaVuSerif-73" d="M 359 184 
L 359 959 
L 691 959 
Q 703 588 923 403 
Q 1144 219 1575 219 
Q 1963 219 2166 364 
Q 2369 509 2369 788 
Q 2369 1006 2220 1140 
Q 2072 1275 1594 1428 
L 1178 1569 
Q 750 1706 558 1912 
Q 366 2119 366 2438 
Q 366 2894 700 3153 
Q 1034 3413 1625 3413 
Q 1888 3413 2178 3344 
Q 2469 3275 2778 3144 
L 2778 2419 
L 2447 2419 
Q 2434 2741 2221 2922 
Q 2009 3103 1644 3103 
Q 1281 3103 1095 2975 
Q 909 2847 909 2591 
Q 909 2381 1050 2254 
Q 1191 2128 1613 1997 
L 2069 1856 
Q 2541 1709 2748 1489 
Q 2956 1269 2956 922 
Q 2956 450 2595 179 
Q 2234 -91 1600 -91 
Q 1278 -91 972 -22 
Q 666 47 359 184 
z
" transform="scale(0.015625)"/>
        <path id="DejaVuSerif-20" transform="scale(0.015625)"/>
        <path id="DejaVuSerif-64" d="M 3359 331 
L 3909 331 
L 3909 0 
L 2784 0 
L 2784 519 
Q 2616 206 2355 57 
Q 2094 -91 1709 -91 
Q 1097 -91 708 395 
Q 319 881 319 1663 
Q 319 2444 706 2928 
Q 1094 3413 1709 3413 
Q 2094 3413 2355 3264 
Q 2616 3116 2784 2803 
L 2784 4531 
L 2241 4531 
L 2241 4863 
L 3359 4863 
L 3359 331 
z
M 2784 1497 
L 2784 1825 
Q 2784 2422 2554 2737 
Q 2325 3053 1888 3053 
Q 1444 3053 1217 2703 
Q 991 2353 991 1663 
Q 991 975 1217 622 
Q 1444 269 1888 269 
Q 2325 269 2554 583 
Q 2784 897 2784 1497 
z
" transform="scale(0.015625)"/>
        <path id="DejaVuSerif-6c" d="M 1313 331 
L 1856 331 
L 1856 0 
L 184 0 
L 184 331 
L 738 331 
L 738 4531 
L 184 4531 
L 184 4863 
L 1313 4863 
L 1313 331 
z
" transform="scale(0.015625)"/>
        <path id="DejaVuSerif-6f" d="M 1925 219 
Q 2388 219 2623 584 
Q 2859 950 2859 1663 
Q 2859 2375 2623 2739 
Q 2388 3103 1925 3103 
Q 1463 3103 1227 2739 
Q 991 2375 991 1663 
Q 991 950 1228 584 
Q 1466 219 1925 219 
z
M 1925 -91 
Q 1200 -91 759 389 
Q 319 869 319 1663 
Q 319 2456 758 2934 
Q 1197 3413 1925 3413 
Q 2653 3413 3092 2934 
Q 3531 2456 3531 1663 
Q 3531 869 3092 389 
Q 2653 -91 1925 -91 
z
" transform="scale(0.015625)"/>
        <path id="DejaVuSerif-67" d="M 3359 2988 
L 3359 72 
Q 3359 -644 2965 -1033 
Q 2572 -1422 1844 -1422 
Q 1516 -1422 1216 -1362 
Q 916 -1303 641 -1184 
L 641 -488 
L 941 -488 
Q 997 -813 1206 -963 
Q 1416 -1113 1806 -1113 
Q 2313 -1113 2548 -827 
Q 2784 -541 2784 72 
L 2784 519 
Q 2616 206 2355 57 
Q 2094 -91 1709 -91 
Q 1097 -91 708 395 
Q 319 881 319 1663 
Q 319 2444 706 2928 
Q 1094 3413 1709 3413 
Q 2094 3413 2355 3264 
Q 2616 3116 2784 2803 
L 2784 3322 
L 3909 3322 
L 3909 2988 
L 3359 2988 
z
M 2784 1825 
Q 2784 2422 2554 2737 
Q 2325 3053 1888 3053 
Q 1444 3053 1217 2703 
Q 991 2353 991 1663 
Q 991 975 1217 622 
Q 1444 269 1888 269 
Q 2325 269 2554 583 
Q 2784 897 2784 1497 
L 2784 1825 
z
" transform="scale(0.015625)"/>
       </defs>
       <use xlink:href="#DejaVuSerif-51"/>
       <use xlink:href="#DejaVuSerif-75" transform="translate(81.982422 0)"/>
       <use xlink:href="#DejaVuSerif-65" transform="translate(146.386719 0)"/>
       <use xlink:href="#DejaVuSerif-68" transform="translate(205.566406 0)"/>
       <use xlink:href="#DejaVuSerif-61" transform="translate(269.970703 0)"/>
       <use xlink:href="#DejaVuSerif-63" transform="translate(329.589844 0)"/>
       <use xlink:href="#DejaVuSerif-65" transform="translate(385.595703 0)"/>
       <use xlink:href="#DejaVuSerif-72" transform="translate(444.775391 0)"/>
       <use xlink:href="#DejaVuSerif-65" transform="translate(492.578125 0)"/>
       <use xlink:href="#DejaVuSerif-73" transform="translate(551.757812 0)"/>
       <use xlink:href="#DejaVuSerif-20" transform="translate(603.076172 0)"/>
       <use xlink:href="#DejaVuSerif-64" transform="translate(634.863281 0)"/>
       <use xlink:href="#DejaVuSerif-65" transform="translate(698.876953 0)"/>
       <use xlink:href="#DejaVuSerif-6c" transform="translate(758.056641 0)"/>
       <use xlink:href="#DejaVuSerif-20" transform="translate(790.039062 0)"/>
       <use xlink:href="#DejaVuSerif-68" transform="translate(821.826172 0)"/>
       <use xlink:href="#DejaVuSerif-6f" transform="translate(886.230469 0)"/>
       <use xlink:href="#DejaVuSerif-67" transform="translate(946.435547 0)"/>
       <use xlink:href="#DejaVuSerif-61" transform="translate(1010.449219 0)"/>
       <use xlink:href="#DejaVuSerif-72" transform="translate(1070.068359 0)"/>
      </g>
     </g>
    </g>
    <g id="xtick_2">
     <g id="text_2">
      <!-- Jubilado o pensionado -->
      <g style="fill: #262626" transform="translate(185.776042 672.695312) rotate(-90) scale(0.1 -0.1)">
       <defs>
        <path id="DejaVuSerif-4a" d="M -538 -1119 
L -538 -384 
L -181 -384 
Q -172 -694 -34 -845 
Q 103 -997 378 -997 
Q 750 -997 897 -762 
Q 1044 -528 1044 153 
L 1044 4331 
L 319 4331 
L 319 4666 
L 2272 4666 
L 2272 4331 
L 1678 4331 
L 1678 128 
Q 1678 -644 1368 -987 
Q 1059 -1331 372 -1331 
Q 150 -1331 -79 -1278 
Q -309 -1225 -538 -1119 
z
" transform="scale(0.015625)"/>
        <path id="DejaVuSerif-62" d="M 738 331 
L 738 4531 
L 184 4531 
L 184 4863 
L 1313 4863 
L 1313 2803 
Q 1481 3116 1742 3264 
Q 2003 3413 2388 3413 
Q 3000 3413 3387 2928 
Q 3775 2444 3775 1663 
Q 3775 881 3387 395 
Q 3000 -91 2388 -91 
Q 2003 -91 1742 57 
Q 1481 206 1313 519 
L 1313 0 
L 184 0 
L 184 331 
L 738 331 
z
M 1313 1497 
Q 1313 897 1542 583 
Q 1772 269 2209 269 
Q 2650 269 2876 622 
Q 3103 975 3103 1663 
Q 3103 2353 2876 2703 
Q 2650 3053 2209 3053 
Q 1772 3053 1542 2737 
Q 1313 2422 1313 1825 
L 1313 1497 
z
" transform="scale(0.015625)"/>
        <path id="DejaVuSerif-69" d="M 622 4353 
Q 622 4497 726 4603 
Q 831 4709 978 4709 
Q 1122 4709 1226 4603 
Q 1331 4497 1331 4353 
Q 1331 4206 1228 4103 
Q 1125 4000 978 4000 
Q 831 4000 726 4103 
Q 622 4206 622 4353 
z
M 1356 331 
L 1900 331 
L 1900 0 
L 231 0 
L 231 331 
L 781 331 
L 781 2988 
L 231 2988 
L 231 3322 
L 1356 3322 
L 1356 331 
z
" transform="scale(0.015625)"/>
        <path id="DejaVuSerif-70" d="M 1313 1825 
L 1313 1497 
Q 1313 897 1542 583 
Q 1772 269 2209 269 
Q 2650 269 2876 622 
Q 3103 975 3103 1663 
Q 3103 2353 2876 2703 
Q 2650 3053 2209 3053 
Q 1772 3053 1542 2737 
Q 1313 2422 1313 1825 
z
M 738 2988 
L 184 2988 
L 184 3322 
L 1313 3322 
L 1313 2803 
Q 1481 3116 1742 3264 
Q 2003 3413 2388 3413 
Q 3000 3413 3387 2928 
Q 3775 2444 3775 1663 
Q 3775 881 3387 395 
Q 3000 -91 2388 -91 
Q 2003 -91 1742 57 
Q 1481 206 1313 519 
L 1313 -997 
L 1856 -997 
L 1856 -1331 
L 184 -1331 
L 184 -997 
L 738 -997 
L 738 2988 
z
" transform="scale(0.015625)"/>
        <path id="DejaVuSerif-6e" d="M 263 0 
L 263 331 
L 781 331 
L 781 2988 
L 231 2988 
L 231 3322 
L 1356 3322 
L 1356 2731 
Q 1516 3069 1770 3241 
Q 2025 3413 2363 3413 
Q 2913 3413 3172 3097 
Q 3431 2781 3431 2113 
L 3431 331 
L 3944 331 
L 3944 0 
L 2356 0 
L 2356 331 
L 2853 331 
L 2853 1931 
Q 2853 2541 2703 2767 
Q 2553 2994 2175 2994 
Q 1775 2994 1565 2701 
Q 1356 2409 1356 1850 
L 1356 331 
L 1856 331 
L 1856 0 
L 263 0 
z
" transform="scale(0.015625)"/>
       </defs>
       <use xlink:href="#DejaVuSerif-4a"/>
       <use xlink:href="#DejaVuSerif-75" transform="translate(40.087891 0)"/>
       <use xlink:href="#DejaVuSerif-62" transform="translate(104.492188 0)"/>
       <use xlink:href="#DejaVuSerif-69" transform="translate(168.505859 0)"/>
       <use xlink:href="#DejaVuSerif-6c" transform="translate(200.488281 0)"/>
       <use xlink:href="#DejaVuSerif-61" transform="translate(232.470703 0)"/>
       <use xlink:href="#DejaVuSerif-64" transform="translate(292.089844 0)"/>
       <use xlink:href="#DejaVuSerif-6f" transform="translate(356.103516 0)"/>
       <use xlink:href="#DejaVuSerif-20" transform="translate(416.308594 0)"/>
       <use xlink:href="#DejaVuSerif-6f" transform="translate(448.095703 0)"/>
       <use xlink:href="#DejaVuSerif-20" transform="translate(508.300781 0)"/>
       <use xlink:href="#DejaVuSerif-70" transform="translate(540.087891 0)"/>
       <use xlink:href="#DejaVuSerif-65" transform="translate(604.101562 0)"/>
       <use xlink:href="#DejaVuSerif-6e" transform="translate(663.28125 0)"/>
       <use xlink:href="#DejaVuSerif-73" transform="translate(727.685547 0)"/>
       <use xlink:href="#DejaVuSerif-69" transform="translate(779.003906 0)"/>
       <use xlink:href="#DejaVuSerif-6f" transform="translate(810.986328 0)"/>
       <use xlink:href="#DejaVuSerif-6e" transform="translate(871.191406 0)"/>
       <use xlink:href="#DejaVuSerif-61" transform="translate(935.595703 0)"/>
       <use xlink:href="#DejaVuSerif-64" transform="translate(995.214844 0)"/>
       <use xlink:href="#DejaVuSerif-6f" transform="translate(1059.228516 0)"/>
      </g>
     </g>
    </g>
    <g id="xtick_3">
     <g id="text_3">
      <!-- Obrero -->
      <g style="fill: #262626" transform="translate(275.133819 596.848438) rotate(-90) scale(0.1 -0.1)">
       <defs>
        <path id="DejaVuSerif-4f" d="M 2625 244 
Q 3391 244 3781 770 
Q 4172 1297 4172 2328 
Q 4172 3363 3781 3889 
Q 3391 4416 2625 4416 
Q 1856 4416 1465 3889 
Q 1075 3363 1075 2328 
Q 1075 1297 1465 770 
Q 1856 244 2625 244 
z
M 2625 -91 
Q 2150 -91 1751 65 
Q 1353 222 1050 525 
Q 700 875 529 1319 
Q 359 1763 359 2328 
Q 359 2894 529 3339 
Q 700 3784 1050 4134 
Q 1356 4441 1750 4595 
Q 2144 4750 2625 4750 
Q 3641 4750 4266 4084 
Q 4891 3419 4891 2328 
Q 4891 1769 4719 1320 
Q 4547 872 4197 525 
Q 3891 219 3497 64 
Q 3103 -91 2625 -91 
z
" transform="scale(0.015625)"/>
       </defs>
       <use xlink:href="#DejaVuSerif-4f"/>
       <use xlink:href="#DejaVuSerif-62" transform="translate(81.982422 0)"/>
       <use xlink:href="#DejaVuSerif-72" transform="translate(145.996094 0)"/>
       <use xlink:href="#DejaVuSerif-65" transform="translate(193.798828 0)"/>
       <use xlink:href="#DejaVuSerif-72" transform="translate(252.978516 0)"/>
       <use xlink:href="#DejaVuSerif-6f" transform="translate(300.78125 0)"/>
      </g>
     </g>
    </g>
    <g id="xtick_4">
     <g id="text_4">
      <!-- Empleado -->
      <g style="fill: #262626" transform="translate(364.491597 611.435938) rotate(-90) scale(0.1 -0.1)">
       <defs>
        <path id="DejaVuSerif-45" d="M 353 0 
L 353 331 
L 947 331 
L 947 4331 
L 353 4331 
L 353 4666 
L 4109 4666 
L 4109 3628 
L 3725 3628 
L 3725 4281 
L 1581 4281 
L 1581 2719 
L 3109 2719 
L 3109 3303 
L 3494 3303 
L 3494 1753 
L 3109 1753 
L 3109 2338 
L 1581 2338 
L 1581 384 
L 3775 384 
L 3775 1038 
L 4159 1038 
L 4159 0 
L 353 0 
z
" transform="scale(0.015625)"/>
        <path id="DejaVuSerif-6d" d="M 3316 2675 
Q 3481 3041 3739 3227 
Q 3997 3413 4341 3413 
Q 4863 3413 5119 3089 
Q 5375 2766 5375 2113 
L 5375 331 
L 5894 331 
L 5894 0 
L 4300 0 
L 4300 331 
L 4800 331 
L 4800 2047 
Q 4800 2556 4650 2772 
Q 4500 2988 4153 2988 
Q 3769 2988 3567 2697 
Q 3366 2406 3366 1850 
L 3366 331 
L 3866 331 
L 3866 0 
L 2291 0 
L 2291 331 
L 2791 331 
L 2791 2069 
Q 2791 2566 2641 2777 
Q 2491 2988 2144 2988 
Q 1759 2988 1557 2697 
Q 1356 2406 1356 1850 
L 1356 331 
L 1856 331 
L 1856 0 
L 263 0 
L 263 331 
L 781 331 
L 781 2994 
L 231 2994 
L 231 3322 
L 1356 3322 
L 1356 2731 
Q 1516 3063 1762 3238 
Q 2009 3413 2322 3413 
Q 2709 3413 2968 3220 
Q 3228 3028 3316 2675 
z
" transform="scale(0.015625)"/>
       </defs>
       <use xlink:href="#DejaVuSerif-45"/>
       <use xlink:href="#DejaVuSerif-6d" transform="translate(72.998047 0)"/>
       <use xlink:href="#DejaVuSerif-70" transform="translate(167.822266 0)"/>
       <use xlink:href="#DejaVuSerif-6c" transform="translate(231.835938 0)"/>
       <use xlink:href="#DejaVuSerif-65" transform="translate(263.818359 0)"/>
       <use xlink:href="#DejaVuSerif-61" transform="translate(322.998047 0)"/>
       <use xlink:href="#DejaVuSerif-64" transform="translate(382.617188 0)"/>
       <use xlink:href="#DejaVuSerif-6f" transform="translate(446.630859 0)"/>
      </g>
     </g>
    </g>
    <g id="xtick_5">
     <g id="text_5">
      <!-- Estudiante -->
      <g style="fill: #262626" transform="translate(453.849375 615.58125) rotate(-90) scale(0.1 -0.1)">
       <defs>
        <path id="DejaVuSerif-74" d="M 691 2988 
L 184 2988 
L 184 3322 
L 691 3322 
L 691 4353 
L 1269 4353 
L 1269 3322 
L 2350 3322 
L 2350 2988 
L 1269 2988 
L 1269 878 
Q 1269 456 1350 337 
Q 1431 219 1650 219 
Q 1875 219 1978 351 
Q 2081 484 2088 781 
L 2522 781 
Q 2497 328 2275 118 
Q 2053 -91 1600 -91 
Q 1103 -91 897 129 
Q 691 350 691 878 
L 691 2988 
z
" transform="scale(0.015625)"/>
       </defs>
       <use xlink:href="#DejaVuSerif-45"/>
       <use xlink:href="#DejaVuSerif-73" transform="translate(72.998047 0)"/>
       <use xlink:href="#DejaVuSerif-74" transform="translate(124.316406 0)"/>
       <use xlink:href="#DejaVuSerif-75" transform="translate(164.501953 0)"/>
       <use xlink:href="#DejaVuSerif-64" transform="translate(228.90625 0)"/>
       <use xlink:href="#DejaVuSerif-69" transform="translate(292.919922 0)"/>
       <use xlink:href="#DejaVuSerif-61" transform="translate(324.902344 0)"/>
       <use xlink:href="#DejaVuSerif-6e" transform="translate(384.521484 0)"/>
       <use xlink:href="#DejaVuSerif-74" transform="translate(448.925781 0)"/>
       <use xlink:href="#DejaVuSerif-65" transform="translate(489.111328 0)"/>
      </g>
     </g>
    </g>
    <g id="xtick_6">
     <g id="text_6">
      <!-- Trabajador por su cuenta -->
      <g style="fill: #262626" transform="translate(543.136059 689.479687) rotate(-90) scale(0.1 -0.1)">
       <defs>
        <path id="DejaVuSerif-54" d="M 1222 0 
L 1222 331 
L 1819 331 
L 1819 4294 
L 447 4294 
L 447 3566 
L 63 3566 
L 63 4666 
L 4206 4666 
L 4206 3566 
L 3822 3566 
L 3822 4294 
L 2450 4294 
L 2450 331 
L 3047 331 
L 3047 0 
L 1222 0 
z
" transform="scale(0.015625)"/>
        <path id="DejaVuSerif-6a" d="M 641 4353 
Q 641 4497 745 4603 
Q 850 4709 997 4709 
Q 1141 4709 1245 4603 
Q 1350 4497 1350 4353 
Q 1350 4206 1248 4103 
Q 1147 4000 997 4000 
Q 850 4000 745 4103 
Q 641 4206 641 4353 
z
M 781 2988 
L 238 2988 
L 238 3322 
L 1356 3322 
L 1356 -325 
Q 1356 -838 1051 -1130 
Q 747 -1422 213 -1422 
Q -13 -1422 -217 -1370 
Q -422 -1319 -616 -1216 
L -616 -531 
L -319 -531 
Q -297 -831 -164 -972 
Q -31 -1113 225 -1113 
Q 509 -1113 645 -920 
Q 781 -728 781 -325 
L 781 2988 
z
" transform="scale(0.015625)"/>
       </defs>
       <use xlink:href="#DejaVuSerif-54"/>
       <use xlink:href="#DejaVuSerif-72" transform="translate(66.699219 0)"/>
       <use xlink:href="#DejaVuSerif-61" transform="translate(114.501953 0)"/>
       <use xlink:href="#DejaVuSerif-62" transform="translate(174.121094 0)"/>
       <use xlink:href="#DejaVuSerif-61" transform="translate(238.134766 0)"/>
       <use xlink:href="#DejaVuSerif-6a" transform="translate(297.753906 0)"/>
       <use xlink:href="#DejaVuSerif-61" transform="translate(328.759766 0)"/>
       <use xlink:href="#DejaVuSerif-64" transform="translate(388.378906 0)"/>
       <use xlink:href="#DejaVuSerif-6f" transform="translate(452.392578 0)"/>
       <use xlink:href="#DejaVuSerif-72" transform="translate(512.597656 0)"/>
       <use xlink:href="#DejaVuSerif-20" transform="translate(560.400391 0)"/>
       <use xlink:href="#DejaVuSerif-70" transform="translate(592.1875 0)"/>
       <use xlink:href="#DejaVuSerif-6f" transform="translate(656.201172 0)"/>
       <use xlink:href="#DejaVuSerif-72" transform="translate(716.40625 0)"/>
       <use xlink:href="#DejaVuSerif-20" transform="translate(764.208984 0)"/>
       <use xlink:href="#DejaVuSerif-73" transform="translate(795.996094 0)"/>
       <use xlink:href="#DejaVuSerif-75" transform="translate(847.314453 0)"/>
       <use xlink:href="#DejaVuSerif-20" transform="translate(911.71875 0)"/>
       <use xlink:href="#DejaVuSerif-63" transform="translate(943.505859 0)"/>
       <use xlink:href="#DejaVuSerif-75" transform="translate(999.511719 0)"/>
       <use xlink:href="#DejaVuSerif-65" transform="translate(1063.916016 0)"/>
       <use xlink:href="#DejaVuSerif-6e" transform="translate(1123.095703 0)"/>
       <use xlink:href="#DejaVuSerif-74" transform="translate(1187.5 0)"/>
       <use xlink:href="#DejaVuSerif-61" transform="translate(1227.685547 0)"/>
      </g>
     </g>
    </g>
    <g id="xtick_7">
     <g id="text_7">
      <!-- Jornalero o peón -->
      <g style="fill: #262626" transform="translate(632.764931 645.0375) rotate(-90) scale(0.1 -0.1)">
       <defs>
        <path id="DejaVuSerif-f3" d="M 1925 219 
Q 2388 219 2623 584 
Q 2859 950 2859 1663 
Q 2859 2375 2623 2739 
Q 2388 3103 1925 3103 
Q 1463 3103 1227 2739 
Q 991 2375 991 1663 
Q 991 950 1228 584 
Q 1466 219 1925 219 
z
M 1925 -91 
Q 1200 -91 759 389 
Q 319 869 319 1663 
Q 319 2456 758 2934 
Q 1197 3413 1925 3413 
Q 2653 3413 3092 2934 
Q 3531 2456 3531 1663 
Q 3531 869 3092 389 
Q 2653 -91 1925 -91 
z
M 2359 5119 
L 2981 5119 
L 1919 3944 
L 1553 3944 
L 2359 5119 
z
" transform="scale(0.015625)"/>
       </defs>
       <use xlink:href="#DejaVuSerif-4a"/>
       <use xlink:href="#DejaVuSerif-6f" transform="translate(40.087891 0)"/>
       <use xlink:href="#DejaVuSerif-72" transform="translate(100.292969 0)"/>
       <use xlink:href="#DejaVuSerif-6e" transform="translate(148.095703 0)"/>
       <use xlink:href="#DejaVuSerif-61" transform="translate(212.5 0)"/>
       <use xlink:href="#DejaVuSerif-6c" transform="translate(272.119141 0)"/>
       <use xlink:href="#DejaVuSerif-65" transform="translate(304.101562 0)"/>
       <use xlink:href="#DejaVuSerif-72" transform="translate(363.28125 0)"/>
       <use xlink:href="#DejaVuSerif-6f" transform="translate(411.083984 0)"/>
       <use xlink:href="#DejaVuSerif-20" transform="translate(471.289062 0)"/>
       <use xlink:href="#DejaVuSerif-6f" transform="translate(503.076172 0)"/>
       <use xlink:href="#DejaVuSerif-20" transform="translate(563.28125 0)"/>
       <use xlink:href="#DejaVuSerif-70" transform="translate(595.068359 0)"/>
       <use xlink:href="#DejaVuSerif-65" transform="translate(659.082031 0)"/>
       <use xlink:href="#DejaVuSerif-f3" transform="translate(718.261719 0)"/>
       <use xlink:href="#DejaVuSerif-6e" transform="translate(778.466797 0)"/>
      </g>
     </g>
    </g>
    <g id="xtick_8">
     <g id="text_8">
      <!-- Otra situación -->
      <g style="fill: #262626" transform="translate(721.922708 632.898438) rotate(-90) scale(0.1 -0.1)">
       <use xlink:href="#DejaVuSerif-4f"/>
       <use xlink:href="#DejaVuSerif-74" transform="translate(81.982422 0)"/>
       <use xlink:href="#DejaVuSerif-72" transform="translate(122.167969 0)"/>
       <use xlink:href="#DejaVuSerif-61" transform="translate(169.970703 0)"/>
       <use xlink:href="#DejaVuSerif-20" transform="translate(229.589844 0)"/>
       <use xlink:href="#DejaVuSerif-73" transform="translate(261.376953 0)"/>
       <use xlink:href="#DejaVuSerif-69" transform="translate(312.695312 0)"/>
       <use xlink:href="#DejaVuSerif-74" transform="translate(344.677734 0)"/>
       <use xlink:href="#DejaVuSerif-75" transform="translate(384.863281 0)"/>
       <use xlink:href="#DejaVuSerif-61" transform="translate(449.267578 0)"/>
       <use xlink:href="#DejaVuSerif-63" transform="translate(508.886719 0)"/>
       <use xlink:href="#DejaVuSerif-69" transform="translate(564.892578 0)"/>
       <use xlink:href="#DejaVuSerif-f3" transform="translate(596.875 0)"/>
       <use xlink:href="#DejaVuSerif-6e" transform="translate(657.080078 0)"/>
      </g>
     </g>
    </g>
    <g id="xtick_9">
     <g id="text_9">
      <!-- Incapacitado -->
      <g style="fill: #262626" transform="translate(811.280486 626.26875) rotate(-90) scale(0.1 -0.1)">
       <defs>
        <path id="DejaVuSerif-49" d="M 1581 331 
L 2175 331 
L 2175 0 
L 353 0 
L 353 331 
L 947 331 
L 947 4331 
L 353 4331 
L 353 4666 
L 2175 4666 
L 2175 4331 
L 1581 4331 
L 1581 331 
z
" transform="scale(0.015625)"/>
       </defs>
       <use xlink:href="#DejaVuSerif-49"/>
       <use xlink:href="#DejaVuSerif-6e" transform="translate(39.501953 0)"/>
       <use xlink:href="#DejaVuSerif-63" transform="translate(103.90625 0)"/>
       <use xlink:href="#DejaVuSerif-61" transform="translate(159.912109 0)"/>
       <use xlink:href="#DejaVuSerif-70" transform="translate(219.53125 0)"/>
       <use xlink:href="#DejaVuSerif-61" transform="translate(283.544922 0)"/>
       <use xlink:href="#DejaVuSerif-63" transform="translate(343.164062 0)"/>
       <use xlink:href="#DejaVuSerif-69" transform="translate(399.169922 0)"/>
       <use xlink:href="#DejaVuSerif-74" transform="translate(431.152344 0)"/>
       <use xlink:href="#DejaVuSerif-61" transform="translate(471.337891 0)"/>
       <use xlink:href="#DejaVuSerif-64" transform="translate(530.957031 0)"/>
       <use xlink:href="#DejaVuSerif-6f" transform="translate(594.970703 0)"/>
      </g>
     </g>
    </g>
    <g id="text_10">
     <!-- Ocupación -->
     <g style="fill: #262626" transform="translate(406.562266 705.477344) scale(0.15 -0.15)">
      <defs>
       <path id="DejaVuSerif-Bold-4f" d="M 2784 288 
Q 3381 288 3672 791 
Q 3963 1294 3963 2328 
Q 3963 3366 3672 3869 
Q 3381 4372 2784 4372 
Q 2191 4372 1898 3864 
Q 1606 3356 1606 2328 
Q 1606 1303 1898 795 
Q 2191 288 2784 288 
z
M 2784 -91 
Q 1606 -91 937 553 
Q 269 1197 269 2328 
Q 269 3459 939 4104 
Q 1609 4750 2784 4750 
Q 3963 4750 4631 4106 
Q 5300 3463 5300 2328 
Q 5300 1197 4629 553 
Q 3959 -91 2784 -91 
z
" transform="scale(0.015625)"/>
       <path id="DejaVuSerif-Bold-63" d="M 3609 1038 
Q 3491 469 3123 189 
Q 2756 -91 2125 -91 
Q 1238 -91 750 368 
Q 263 828 263 1663 
Q 263 2488 744 2950 
Q 1225 3413 2081 3413 
Q 2428 3413 2781 3347 
Q 3134 3281 3500 3150 
L 3500 2228 
L 3150 2228 
Q 3100 2650 2903 2854 
Q 2706 3059 2350 3059 
Q 1888 3059 1692 2746 
Q 1497 2434 1497 1663 
Q 1497 909 1687 586 
Q 1878 263 2309 263 
Q 2644 263 2845 463 
Q 3047 663 3091 1038 
L 3609 1038 
z
" transform="scale(0.015625)"/>
       <path id="DejaVuSerif-Bold-75" d="M 3963 3322 
L 3963 378 
L 4434 378 
L 4434 0 
L 2853 0 
L 2853 469 
Q 2656 172 2400 40 
Q 2144 -91 1753 -91 
Q 1194 -91 908 239 
Q 622 569 622 1209 
L 622 2944 
L 147 2944 
L 147 3322 
L 1728 3322 
L 1728 1381 
Q 1728 763 1831 595 
Q 1934 428 2209 428 
Q 2544 428 2698 675 
Q 2853 922 2853 1459 
L 2853 2944 
L 2450 2944 
L 2450 3322 
L 3963 3322 
z
" transform="scale(0.015625)"/>
       <path id="DejaVuSerif-Bold-70" d="M 1728 1825 
L 1728 1497 
Q 1728 916 1876 656 
Q 2025 397 2356 397 
Q 2697 397 2836 672 
Q 2975 947 2975 1663 
Q 2975 2378 2836 2651 
Q 2697 2925 2356 2925 
Q 2025 2925 1876 2665 
Q 1728 2406 1728 1825 
z
M 622 2944 
L 147 2944 
L 147 3322 
L 1728 3322 
L 1728 2900 
Q 1869 3159 2106 3286 
Q 2344 3413 2694 3413 
Q 3403 3413 3811 2945 
Q 4219 2478 4219 1663 
Q 4219 847 3811 378 
Q 3403 -91 2694 -91 
Q 2344 -91 2106 36 
Q 1869 163 1728 422 
L 1728 -953 
L 2241 -953 
L 2241 -1331 
L 147 -1331 
L 147 -953 
L 622 -953 
L 622 2944 
z
" transform="scale(0.015625)"/>
       <path id="DejaVuSerif-Bold-61" d="M 3525 2041 
L 3525 378 
L 4000 378 
L 4000 0 
L 2419 0 
L 2419 422 
Q 2200 159 1931 34 
Q 1663 -91 1319 -91 
Q 809 -91 536 182 
Q 263 456 263 966 
Q 263 1525 655 1803 
Q 1047 2081 1838 2081 
L 2419 2081 
L 2419 2278 
Q 2419 2681 2228 2873 
Q 2038 3066 1638 3066 
Q 1306 3066 1126 2930 
Q 947 2794 872 2484 
L 519 2484 
L 519 3200 
Q 816 3306 1134 3359 
Q 1453 3413 1806 3413 
Q 2697 3413 3111 3081 
Q 3525 2750 3525 2041 
z
M 2419 1044 
L 2419 1709 
L 2003 1709 
Q 1694 1709 1528 1540 
Q 1363 1372 1363 1056 
Q 1363 741 1483 584 
Q 1603 428 1850 428 
Q 2106 428 2262 597 
Q 2419 766 2419 1044 
z
" transform="scale(0.015625)"/>
       <path id="DejaVuSerif-Bold-69" d="M 588 4263 
Q 588 4516 763 4689 
Q 938 4863 1191 4863 
Q 1438 4863 1611 4689 
Q 1784 4516 1784 4263 
Q 1784 4016 1611 3842 
Q 1438 3669 1191 3669 
Q 938 3669 763 3841 
Q 588 4013 588 4263 
z
M 1797 378 
L 2272 378 
L 2272 0 
L 219 0 
L 219 378 
L 691 378 
L 691 2944 
L 219 2944 
L 219 3322 
L 1797 3322 
L 1797 378 
z
" transform="scale(0.015625)"/>
       <path id="DejaVuSerif-Bold-f3" d="M 2138 263 
Q 2488 263 2630 563 
Q 2772 863 2772 1663 
Q 2772 2463 2631 2761 
Q 2491 3059 2138 3059 
Q 1784 3059 1640 2757 
Q 1497 2456 1497 1663 
Q 1497 869 1640 566 
Q 1784 263 2138 263 
z
M 2138 -91 
Q 1259 -91 761 376 
Q 263 844 263 1663 
Q 263 2484 761 2948 
Q 1259 3413 2138 3413 
Q 3019 3413 3516 2948 
Q 4013 2484 4013 1663 
Q 4013 844 3514 376 
Q 3016 -91 2138 -91 
z
M 2425 5119 
L 3297 5119 
L 2131 3944 
L 1619 3944 
L 2425 5119 
z
" transform="scale(0.015625)"/>
       <path id="DejaVuSerif-Bold-6e" d="M 219 0 
L 219 378 
L 691 378 
L 691 2944 
L 219 2944 
L 219 3322 
L 1797 3322 
L 1797 2853 
Q 1997 3150 2253 3281 
Q 2509 3413 2900 3413 
Q 3459 3413 3745 3083 
Q 4031 2753 4031 2113 
L 4031 378 
L 4506 378 
L 4506 0 
L 2522 0 
L 2522 378 
L 2925 378 
L 2925 2144 
Q 2925 2566 2817 2730 
Q 2709 2894 2444 2894 
Q 2109 2894 1953 2648 
Q 1797 2403 1797 1869 
L 1797 378 
L 2203 378 
L 2203 0 
L 219 0 
z
" transform="scale(0.015625)"/>
      </defs>
      <use xlink:href="#DejaVuSerif-Bold-4f"/>
      <use xlink:href="#DejaVuSerif-Bold-63" transform="translate(87.109375 0)"/>
      <use xlink:href="#DejaVuSerif-Bold-75" transform="translate(147.998047 0)"/>
      <use xlink:href="#DejaVuSerif-Bold-70" transform="translate(220.703125 0)"/>
      <use xlink:href="#DejaVuSerif-Bold-61" transform="translate(290.625 0)"/>
      <use xlink:href="#DejaVuSerif-Bold-63" transform="translate(355.419922 0)"/>
      <use xlink:href="#DejaVuSerif-Bold-69" transform="translate(416.308594 0)"/>
      <use xlink:href="#DejaVuSerif-Bold-f3" transform="translate(454.296875 0)"/>
      <use xlink:href="#DejaVuSerif-Bold-6e" transform="translate(520.996094 0)"/>
     </g>
    </g>
   </g>
   <g id="matplotlib.axis_2">
    <g id="ytick_1">
     <g id="line2d_1">
      <path d="M 48.98 544.970156 
L 853.2 544.970156 
" clip-path="url(#p725d027ac3)" style="fill: none; stroke: #cccccc; stroke-width: 0.8; stroke-linecap: round"/>
     </g>
     <g id="text_11">
      <!-- 0 -->
      <g style="fill: #262626" transform="translate(35.6175 548.769375) scale(0.1 -0.1)">
       <defs>
        <path id="DejaVuSerif-30" d="M 2034 219 
Q 2513 219 2750 744 
Q 2988 1269 2988 2328 
Q 2988 3391 2750 3916 
Q 2513 4441 2034 4441 
Q 1556 4441 1318 3916 
Q 1081 3391 1081 2328 
Q 1081 1269 1318 744 
Q 1556 219 2034 219 
z
M 2034 -91 
Q 1275 -91 848 546 
Q 422 1184 422 2328 
Q 422 3475 848 4112 
Q 1275 4750 2034 4750 
Q 2797 4750 3222 4112 
Q 3647 3475 3647 2328 
Q 3647 1184 3222 546 
Q 2797 -91 2034 -91 
z
" transform="scale(0.015625)"/>
       </defs>
       <use xlink:href="#DejaVuSerif-30"/>
      </g>
     </g>
    </g>
    <g id="ytick_2">
     <g id="line2d_2">
      <path d="M 48.98 442.33634 
L 853.2 442.33634 
" clip-path="url(#p725d027ac3)" style="fill: none; stroke: #cccccc; stroke-width: 0.8; stroke-linecap: round"/>
     </g>
     <g id="text_12">
      <!-- 20 -->
      <g style="fill: #262626" transform="translate(29.255 446.135558) scale(0.1 -0.1)">
       <defs>
        <path id="DejaVuSerif-32" d="M 819 3553 
L 469 3553 
L 469 4384 
Q 803 4563 1142 4656 
Q 1481 4750 1806 4750 
Q 2534 4750 2956 4397 
Q 3378 4044 3378 3438 
Q 3378 2753 2422 1800 
Q 2347 1728 2309 1691 
L 1131 513 
L 3078 513 
L 3078 1088 
L 3444 1088 
L 3444 0 
L 434 0 
L 434 341 
L 1850 1753 
Q 2319 2222 2519 2614 
Q 2719 3006 2719 3438 
Q 2719 3909 2473 4175 
Q 2228 4441 1797 4441 
Q 1350 4441 1106 4219 
Q 863 3997 819 3553 
z
" transform="scale(0.015625)"/>
       </defs>
       <use xlink:href="#DejaVuSerif-32"/>
       <use xlink:href="#DejaVuSerif-30" transform="translate(63.623047 0)"/>
      </g>
     </g>
    </g>
    <g id="ytick_3">
     <g id="line2d_3">
      <path d="M 48.98 339.702523 
L 853.2 339.702523 
" clip-path="url(#p725d027ac3)" style="fill: none; stroke: #cccccc; stroke-width: 0.8; stroke-linecap: round"/>
     </g>
     <g id="text_13">
      <!-- 40 -->
      <g style="fill: #262626" transform="translate(29.255 343.501741) scale(0.1 -0.1)">
       <defs>
        <path id="DejaVuSerif-34" d="M 2234 1581 
L 2234 4063 
L 641 1581 
L 2234 1581 
z
M 3609 0 
L 1484 0 
L 1484 331 
L 2234 331 
L 2234 1247 
L 197 1247 
L 197 1588 
L 2241 4750 
L 2859 4750 
L 2859 1581 
L 3750 1581 
L 3750 1247 
L 2859 1247 
L 2859 331 
L 3609 331 
L 3609 0 
z
" transform="scale(0.015625)"/>
       </defs>
       <use xlink:href="#DejaVuSerif-34"/>
       <use xlink:href="#DejaVuSerif-30" transform="translate(63.623047 0)"/>
      </g>
     </g>
    </g>
    <g id="ytick_4">
     <g id="line2d_4">
      <path d="M 48.98 237.068706 
L 853.2 237.068706 
" clip-path="url(#p725d027ac3)" style="fill: none; stroke: #cccccc; stroke-width: 0.8; stroke-linecap: round"/>
     </g>
     <g id="text_14">
      <!-- 60 -->
      <g style="fill: #262626" transform="translate(29.255 240.867925) scale(0.1 -0.1)">
       <defs>
        <path id="DejaVuSerif-36" d="M 2094 219 
Q 2534 219 2771 542 
Q 3009 866 3009 1472 
Q 3009 2078 2771 2401 
Q 2534 2725 2094 2725 
Q 1647 2725 1412 2412 
Q 1178 2100 1178 1509 
Q 1178 888 1415 553 
Q 1653 219 2094 219 
z
M 1075 2569 
Q 1288 2803 1556 2918 
Q 1825 3034 2163 3034 
Q 2859 3034 3264 2615 
Q 3669 2197 3669 1472 
Q 3669 763 3233 336 
Q 2797 -91 2069 -91 
Q 1278 -91 853 498 
Q 428 1088 428 2181 
Q 428 3406 931 4078 
Q 1434 4750 2350 4750 
Q 2597 4750 2869 4703 
Q 3141 4656 3425 4563 
L 3425 3794 
L 3072 3794 
Q 3034 4109 2831 4275 
Q 2628 4441 2284 4441 
Q 1678 4441 1381 3981 
Q 1084 3522 1075 2569 
z
" transform="scale(0.015625)"/>
       </defs>
       <use xlink:href="#DejaVuSerif-36"/>
       <use xlink:href="#DejaVuSerif-30" transform="translate(63.623047 0)"/>
      </g>
     </g>
    </g>
    <g id="ytick_5">
     <g id="line2d_5">
      <path d="M 48.98 134.434889 
L 853.2 134.434889 
" clip-path="url(#p725d027ac3)" style="fill: none; stroke: #cccccc; stroke-width: 0.8; stroke-linecap: round"/>
     </g>
     <g id="text_15">
      <!-- 80 -->
      <g style="fill: #262626" transform="translate(29.255 138.234108) scale(0.1 -0.1)">
       <defs>
        <path id="DejaVuSerif-38" d="M 2981 1275 
Q 2981 1775 2732 2051 
Q 2484 2328 2034 2328 
Q 1584 2328 1336 2051 
Q 1088 1775 1088 1275 
Q 1088 772 1336 495 
Q 1584 219 2034 219 
Q 2484 219 2732 495 
Q 2981 772 2981 1275 
z
M 2853 3541 
Q 2853 3966 2637 4203 
Q 2422 4441 2034 4441 
Q 1650 4441 1433 4203 
Q 1216 3966 1216 3541 
Q 1216 3113 1433 2875 
Q 1650 2638 2034 2638 
Q 2422 2638 2637 2875 
Q 2853 3113 2853 3541 
z
M 2516 2484 
Q 3047 2413 3344 2092 
Q 3641 1772 3641 1275 
Q 3641 619 3225 264 
Q 2809 -91 2034 -91 
Q 1263 -91 845 264 
Q 428 619 428 1275 
Q 428 1772 725 2092 
Q 1022 2413 1556 2484 
Q 1084 2569 832 2842 
Q 581 3116 581 3541 
Q 581 4103 968 4426 
Q 1356 4750 2034 4750 
Q 2713 4750 3100 4426 
Q 3488 4103 3488 3541 
Q 3488 3116 3236 2842 
Q 2984 2569 2516 2484 
z
" transform="scale(0.015625)"/>
       </defs>
       <use xlink:href="#DejaVuSerif-38"/>
       <use xlink:href="#DejaVuSerif-30" transform="translate(63.623047 0)"/>
      </g>
     </g>
    </g>
    <g id="text_16">
     <!-- Edad -->
     <g style="fill: #262626" transform="translate(22.135469 325.851453) rotate(-90) scale(0.15 -0.15)">
      <defs>
       <path id="DejaVuSerif-Bold-45" d="M 300 0 
L 300 378 
L 897 378 
L 897 4288 
L 300 4288 
L 300 4666 
L 4494 4666 
L 4494 3566 
L 4063 3566 
L 4063 4238 
L 2100 4238 
L 2100 2741 
L 3322 2741 
L 3322 3334 
L 3750 3334 
L 3750 1722 
L 3322 1722 
L 3322 2316 
L 2100 2316 
L 2100 428 
L 4122 428 
L 4122 1100 
L 4550 1100 
L 4550 0 
L 300 0 
z
" transform="scale(0.015625)"/>
       <path id="DejaVuSerif-Bold-64" d="M 2747 1497 
L 2747 1825 
Q 2747 2406 2597 2665 
Q 2447 2925 2119 2925 
Q 1775 2925 1636 2651 
Q 1497 2378 1497 1663 
Q 1497 947 1637 672 
Q 1778 397 2119 397 
Q 2447 397 2597 656 
Q 2747 916 2747 1497 
z
M 3853 378 
L 4325 378 
L 4325 0 
L 2747 0 
L 2747 422 
Q 2606 163 2367 36 
Q 2128 -91 1778 -91 
Q 1072 -91 667 378 
Q 263 847 263 1663 
Q 263 2481 667 2947 
Q 1072 3413 1778 3413 
Q 2128 3413 2367 3286 
Q 2606 3159 2747 2900 
L 2747 4488 
L 2272 4488 
L 2272 4863 
L 3853 4863 
L 3853 378 
z
" transform="scale(0.015625)"/>
      </defs>
      <use xlink:href="#DejaVuSerif-Bold-45"/>
      <use xlink:href="#DejaVuSerif-Bold-64" transform="translate(76.220703 0)"/>
      <use xlink:href="#DejaVuSerif-Bold-61" transform="translate(146.142578 0)"/>
      <use xlink:href="#DejaVuSerif-Bold-64" transform="translate(210.9375 0)"/>
     </g>
    </g>
   </g>
   <g id="FillBetweenPolyCollection_1">
    <defs>
     <path id="m9b767adac3" d="M 107.075246 -245.489515 
L 80.242532 -245.489515 
L 79.94021 -249.301449 
L 79.667259 -253.113382 
L 79.424269 -256.925316 
L 79.211352 -260.73725 
L 79.028126 -264.549183 
L 78.8737 -268.361117 
L 78.746675 -272.173051 
L 78.645144 -275.984984 
L 78.566712 -279.796918 
L 78.508518 -283.608852 
L 78.467267 -287.420785 
L 78.439275 -291.232719 
L 78.420512 -295.044653 
L 78.406664 -298.856586 
L 78.393193 -302.66852 
L 78.375404 -306.480454 
L 78.348515 -310.292387 
L 78.307733 -314.104321 
L 78.248328 -317.916254 
L 78.165707 -321.728188 
L 78.055491 -325.540122 
L 77.913584 -329.352055 
L 77.736241 -333.163989 
L 77.520133 -336.975923 
L 77.2624 -340.787856 
L 76.960708 -344.59979 
L 76.613285 -348.411724 
L 76.218962 -352.223657 
L 75.777193 -356.035591 
L 75.288079 -359.847525 
L 74.752372 -363.659458 
L 74.171477 -367.471392 
L 73.547438 -371.283326 
L 72.882925 -375.095259 
L 72.181202 -378.907193 
L 71.446096 -382.719127 
L 70.681955 -386.53106 
L 69.893593 -390.342994 
L 69.086246 -394.154928 
L 68.265502 -397.966861 
L 67.437245 -401.778795 
L 66.607584 -405.590729 
L 65.782784 -409.402662 
L 64.969197 -413.214596 
L 64.173187 -417.02653 
L 63.401064 -420.838463 
L 62.659012 -424.650397 
L 61.95302 -428.462331 
L 61.28882 -432.274264 
L 60.671826 -436.086198 
L 60.107077 -439.898132 
L 59.599186 -443.710065 
L 59.152292 -447.521999 
L 58.770027 -451.333933 
L 58.455475 -455.145866 
L 58.21115 -458.9578 
L 58.038979 -462.769734 
L 57.940283 -466.581667 
L 57.915778 -470.393601 
L 57.965575 -474.205535 
L 58.089189 -478.017468 
L 58.285555 -481.829402 
L 58.553053 -485.641336 
L 58.889532 -489.453269 
L 59.292347 -493.265203 
L 59.758399 -497.077137 
L 60.284176 -500.88907 
L 60.865806 -504.701004 
L 61.4991 -508.512937 
L 62.179612 -512.324871 
L 62.902692 -516.136805 
L 63.66354 -519.948738 
L 64.457265 -523.760672 
L 65.278938 -527.572606 
L 66.123647 -531.384539 
L 66.986549 -535.196473 
L 67.862918 -539.008407 
L 68.748191 -542.82034 
L 69.638007 -546.632274 
L 70.528248 -550.444208 
L 71.415066 -554.256141 
L 72.294911 -558.068075 
L 73.164552 -561.880009 
L 74.02109 -565.691942 
L 74.861971 -569.503876 
L 75.684983 -573.31581 
L 76.48826 -577.127743 
L 77.27027 -580.939677 
L 78.029808 -584.751611 
L 78.765972 -588.563544 
L 79.478153 -592.375478 
L 80.166001 -596.187412 
L 80.829408 -599.999345 
L 81.468475 -603.811279 
L 82.083484 -607.623213 
L 82.674873 -611.435146 
L 83.2432 -615.24708 
L 83.789119 -619.059014 
L 84.313353 -622.870947 
L 103.004424 -622.870947 
L 103.004424 -622.870947 
L 103.528659 -619.059014 
L 104.074578 -615.24708 
L 104.642905 -611.435146 
L 105.234293 -607.623213 
L 105.849303 -603.811279 
L 106.48837 -599.999345 
L 107.151777 -596.187412 
L 107.839625 -592.375478 
L 108.551805 -588.563544 
L 109.28797 -584.751611 
L 110.047507 -580.939677 
L 110.829518 -577.127743 
L 111.632795 -573.31581 
L 112.455807 -569.503876 
L 113.296687 -565.691942 
L 114.153226 -561.880009 
L 115.022867 -558.068075 
L 115.902712 -554.256141 
L 116.789529 -550.444208 
L 117.67977 -546.632274 
L 118.569587 -542.82034 
L 119.454859 -539.008407 
L 120.331229 -535.196473 
L 121.194131 -531.384539 
L 122.03884 -527.572606 
L 122.860513 -523.760672 
L 123.654238 -519.948738 
L 124.415086 -516.136805 
L 125.138166 -512.324871 
L 125.818678 -508.512937 
L 126.451972 -504.701004 
L 127.033601 -500.88907 
L 127.559379 -497.077137 
L 128.025431 -493.265203 
L 128.428246 -489.453269 
L 128.764725 -485.641336 
L 129.032223 -481.829402 
L 129.228589 -478.017468 
L 129.352203 -474.205535 
L 129.402 -470.393601 
L 129.377495 -466.581667 
L 129.278799 -462.769734 
L 129.106627 -458.9578 
L 128.862303 -455.145866 
L 128.547751 -451.333933 
L 128.165486 -447.521999 
L 127.718592 -443.710065 
L 127.2107 -439.898132 
L 126.645951 -436.086198 
L 126.028958 -432.274264 
L 125.364758 -428.462331 
L 124.658766 -424.650397 
L 123.916714 -420.838463 
L 123.144591 -417.02653 
L 122.348581 -413.214596 
L 121.534993 -409.402662 
L 120.710193 -405.590729 
L 119.880532 -401.778795 
L 119.052276 -397.966861 
L 118.231532 -394.154928 
L 117.424185 -390.342994 
L 116.635823 -386.53106 
L 115.871681 -382.719127 
L 115.136576 -378.907193 
L 114.434853 -375.095259 
L 113.77034 -371.283326 
L 113.146301 -367.471392 
L 112.565406 -363.659458 
L 112.029699 -359.847525 
L 111.540585 -356.035591 
L 111.098816 -352.223657 
L 110.704492 -348.411724 
L 110.35707 -344.59979 
L 110.055377 -340.787856 
L 109.797645 -336.975923 
L 109.581537 -333.163989 
L 109.404194 -329.352055 
L 109.262287 -325.540122 
L 109.152071 -321.728188 
L 109.06945 -317.916254 
L 109.010045 -314.104321 
L 108.969263 -310.292387 
L 108.942374 -306.480454 
L 108.924584 -302.66852 
L 108.911114 -298.856586 
L 108.897266 -295.044653 
L 108.878503 -291.232719 
L 108.85051 -287.420785 
L 108.80926 -283.608852 
L 108.751065 -279.796918 
L 108.672633 -275.984984 
L 108.571103 -272.173051 
L 108.444077 -268.361117 
L 108.289652 -264.549183 
L 108.106426 -260.73725 
L 107.893509 -256.925316 
L 107.650519 -253.113382 
L 107.377568 -249.301449 
L 107.075246 -245.489515 
z
" style="stroke: #595959; stroke-opacity: 0.7"/>
    </defs>
    <g clip-path="url(#p725d027ac3)">
     <use xlink:href="#m9b767adac3" x="0" y="720" style="fill: #72b6a1; fill-opacity: 0.7; stroke: #595959; stroke-opacity: 0.7"/>
    </g>
   </g>
   <g id="FillBetweenPolyCollection_2">
    <defs>
     <path id="mdafb612254" d="M 211.135795 -374.48944 
L 154.897538 -374.48944 
L 154.321318 -376.628349 
L 153.761337 -378.767259 
L 153.218758 -380.906168 
L 152.694702 -383.045077 
L 152.190238 -385.183987 
L 151.706388 -387.322896 
L 151.244113 -389.461805 
L 150.804313 -391.600714 
L 150.387825 -393.739624 
L 149.995417 -395.878533 
L 149.627784 -398.017442 
L 149.285548 -400.156351 
L 148.969252 -402.295261 
L 148.679359 -404.43417 
L 148.416249 -406.573079 
L 148.180219 -408.711988 
L 147.971478 -410.850898 
L 147.790151 -412.989807 
L 147.63627 -415.128716 
L 147.509782 -417.267625 
L 147.410544 -419.406535 
L 147.338322 -421.545444 
L 147.292796 -423.684353 
L 147.273556 -425.823263 
L 147.280106 -427.962172 
L 147.311866 -430.101081 
L 147.368172 -432.23999 
L 147.448279 -434.3789 
L 147.551366 -436.517809 
L 147.676536 -438.656718 
L 147.822821 -440.795627 
L 147.989186 -442.934537 
L 148.174535 -445.073446 
L 148.377713 -447.212355 
L 148.597513 -449.351264 
L 148.832682 -451.490174 
L 149.081924 -453.629083 
L 149.34391 -455.767992 
L 149.617285 -457.906901 
L 149.900669 -460.045811 
L 150.192672 -462.18472 
L 150.491895 -464.323629 
L 150.796941 -466.462539 
L 151.106423 -468.601448 
L 151.418969 -470.740357 
L 151.733232 -472.879266 
L 152.047898 -475.018176 
L 152.361692 -477.157085 
L 152.673387 -479.295994 
L 152.981811 -481.434903 
L 153.285854 -483.573813 
L 153.584475 -485.712722 
L 153.87671 -487.851631 
L 154.161675 -489.99054 
L 154.438572 -492.12945 
L 154.706699 -494.268359 
L 154.965446 -496.407268 
L 155.214306 -498.546177 
L 155.452876 -500.685087 
L 155.680857 -502.823996 
L 155.898058 -504.962905 
L 156.104396 -507.101815 
L 156.299899 -509.240724 
L 156.484697 -511.379633 
L 156.659031 -513.518542 
L 156.823243 -515.657452 
L 156.977775 -517.796361 
L 157.123167 -519.93527 
L 157.260049 -522.074179 
L 157.389137 -524.213089 
L 157.511227 -526.351998 
L 157.627188 -528.490907 
L 157.737954 -530.629816 
L 157.844518 -532.768726 
L 157.947921 -534.907635 
L 158.049244 -537.046544 
L 158.149601 -539.185453 
L 158.250128 -541.324363 
L 158.351972 -543.463272 
L 158.456285 -545.602181 
L 158.564213 -547.741091 
L 158.676885 -549.88 
L 158.795407 -552.018909 
L 158.920849 -554.157818 
L 159.054242 -556.296728 
L 159.196564 -558.435637 
L 159.348738 -560.574546 
L 159.511618 -562.713455 
L 159.68599 -564.852365 
L 159.872561 -566.991274 
L 160.071956 -569.130183 
L 160.284713 -571.269092 
L 160.51128 -573.408002 
L 160.752011 -575.546911 
L 161.007164 -577.68582 
L 161.276902 -579.824729 
L 161.561291 -581.963639 
L 161.860298 -584.102548 
L 162.173797 -586.241457 
L 203.859536 -586.241457 
L 203.859536 -586.241457 
L 204.173036 -584.102548 
L 204.472043 -581.963639 
L 204.756431 -579.824729 
L 205.026169 -577.68582 
L 205.281323 -575.546911 
L 205.522053 -573.408002 
L 205.74862 -571.269092 
L 205.961377 -569.130183 
L 206.160772 -566.991274 
L 206.347343 -564.852365 
L 206.521715 -562.713455 
L 206.684596 -560.574546 
L 206.836769 -558.435637 
L 206.979091 -556.296728 
L 207.112484 -554.157818 
L 207.237927 -552.018909 
L 207.356448 -549.88 
L 207.46912 -547.741091 
L 207.577048 -545.602181 
L 207.681361 -543.463272 
L 207.783206 -541.324363 
L 207.883732 -539.185453 
L 207.984089 -537.046544 
L 208.085413 -534.907635 
L 208.188815 -532.768726 
L 208.295379 -530.629816 
L 208.406145 -528.490907 
L 208.522106 -526.351998 
L 208.644196 -524.213089 
L 208.773284 -522.074179 
L 208.910166 -519.93527 
L 209.055558 -517.796361 
L 209.210091 -515.657452 
L 209.374302 -513.518542 
L 209.548636 -511.379633 
L 209.733435 -509.240724 
L 209.928937 -507.101815 
L 210.135276 -504.962905 
L 210.352477 -502.823996 
L 210.580457 -500.685087 
L 210.819027 -498.546177 
L 211.067888 -496.407268 
L 211.326635 -494.268359 
L 211.594761 -492.12945 
L 211.871659 -489.99054 
L 212.156623 -487.851631 
L 212.448858 -485.712722 
L 212.74748 -483.573813 
L 213.051523 -481.434903 
L 213.359947 -479.295994 
L 213.671641 -477.157085 
L 213.985435 -475.018176 
L 214.300101 -472.879266 
L 214.614364 -470.740357 
L 214.92691 -468.601448 
L 215.236392 -466.462539 
L 215.541439 -464.323629 
L 215.840662 -462.18472 
L 216.132664 -460.045811 
L 216.416049 -457.906901 
L 216.689423 -455.767992 
L 216.95141 -453.629083 
L 217.200652 -451.490174 
L 217.43582 -449.351264 
L 217.65562 -447.212355 
L 217.858798 -445.073446 
L 218.044147 -442.934537 
L 218.210513 -440.795627 
L 218.356797 -438.656718 
L 218.481967 -436.517809 
L 218.585054 -434.3789 
L 218.665162 -432.23999 
L 218.721468 -430.101081 
L 218.753228 -427.962172 
L 218.759778 -425.823263 
L 218.740538 -423.684353 
L 218.695011 -421.545444 
L 218.622789 -419.406535 
L 218.523551 -417.267625 
L 218.397063 -415.128716 
L 218.243183 -412.989807 
L 218.061855 -410.850898 
L 217.853115 -408.711988 
L 217.617084 -406.573079 
L 217.353975 -404.43417 
L 217.064081 -402.295261 
L 216.747785 -400.156351 
L 216.405549 -398.017442 
L 216.037916 -395.878533 
L 215.645508 -393.739624 
L 215.22902 -391.600714 
L 214.789221 -389.461805 
L 214.326945 -387.322896 
L 213.843095 -385.183987 
L 213.338632 -383.045077 
L 212.814575 -380.906168 
L 212.271996 -378.767259 
L 211.712015 -376.628349 
L 211.135795 -374.48944 
z
" style="stroke: #595959; stroke-opacity: 0.7"/>
    </defs>
    <g clip-path="url(#p725d027ac3)">
     <use xlink:href="#mdafb612254" x="0" y="720" style="fill: #e99675; fill-opacity: 0.7; stroke: #595959; stroke-opacity: 0.7"/>
    </g>
   </g>
   <g id="FillBetweenPolyCollection_3">
    <defs>
     <path id="m7dd136ead6" d="M 371.359089 -289.611143 
L 352.105355 -289.611143 
L 351.579937 -291.702366 
L 351.030031 -293.79359 
L 350.454075 -295.884813 
L 349.850572 -297.976036 
L 349.218137 -300.06726 
L 348.555558 -302.158483 
L 347.861854 -304.249707 
L 347.136337 -306.34093 
L 346.378669 -308.432154 
L 345.588922 -310.523377 
L 344.767633 -312.614601 
L 343.915851 -314.705824 
L 343.035179 -316.797048 
L 342.127807 -318.888271 
L 341.196535 -320.979495 
L 340.244783 -323.070718 
L 339.276592 -325.161942 
L 338.296609 -327.253165 
L 337.310057 -329.344389 
L 336.3227 -331.435612 
L 335.340782 -333.526835 
L 334.370966 -335.618059 
L 333.420251 -337.709282 
L 332.495889 -339.800506 
L 331.605284 -341.891729 
L 330.755891 -343.982953 
L 329.955106 -346.074176 
L 329.210158 -348.1654 
L 328.527996 -350.256623 
L 327.915185 -352.347847 
L 327.377796 -354.43907 
L 326.921318 -356.530294 
L 326.550562 -358.621517 
L 326.26959 -360.712741 
L 326.081647 -362.803964 
L 325.989111 -364.895188 
L 325.993458 -366.986411 
L 326.095235 -369.077634 
L 326.294061 -371.168858 
L 326.588627 -373.260081 
L 326.976729 -375.351305 
L 327.455295 -377.442528 
L 328.020443 -379.533752 
L 328.667536 -381.624975 
L 329.391257 -383.716199 
L 330.185686 -385.807422 
L 331.044386 -387.898646 
L 331.960492 -389.989869 
L 332.926806 -392.081093 
L 333.935888 -394.172316 
L 334.98015 -396.26354 
L 336.051945 -398.354763 
L 337.143657 -400.445987 
L 338.247781 -402.53721 
L 339.356996 -404.628433 
L 340.464241 -406.719657 
L 341.562768 -408.81088 
L 342.646206 -410.902104 
L 343.7086 -412.993327 
L 344.744451 -415.084551 
L 345.748749 -417.175774 
L 346.716994 -419.266998 
L 347.645215 -421.358221 
L 348.529975 -423.449445 
L 349.368379 -425.540668 
L 350.158071 -427.631892 
L 350.897226 -429.723115 
L 351.584538 -431.814339 
L 352.21921 -433.905562 
L 352.80093 -435.996786 
L 353.329853 -438.088009 
L 353.806578 -440.179232 
L 354.232121 -442.270456 
L 354.607887 -444.361679 
L 354.935643 -446.452903 
L 355.217487 -448.544126 
L 355.455814 -450.63535 
L 355.653286 -452.726573 
L 355.812797 -454.817797 
L 355.937438 -456.90902 
L 356.030462 -459.000244 
L 356.095247 -461.091467 
L 356.135259 -463.182691 
L 356.154016 -465.273914 
L 356.15505 -467.365138 
L 356.141872 -469.456361 
L 356.117931 -471.547585 
L 356.086587 -473.638808 
L 356.051067 -475.730031 
L 356.014442 -477.821255 
L 355.979592 -479.912478 
L 355.949179 -482.003702 
L 355.925625 -484.094925 
L 355.911091 -486.186149 
L 355.907457 -488.277372 
L 355.916314 -490.368596 
L 355.938952 -492.459819 
L 355.976359 -494.551043 
L 356.029217 -496.642266 
L 367.435228 -496.642266 
L 367.435228 -496.642266 
L 367.488086 -494.551043 
L 367.525492 -492.459819 
L 367.548131 -490.368596 
L 367.556988 -488.277372 
L 367.553354 -486.186149 
L 367.538819 -484.094925 
L 367.515265 -482.003702 
L 367.484853 -479.912478 
L 367.450002 -477.821255 
L 367.413377 -475.730031 
L 367.377858 -473.638808 
L 367.346513 -471.547585 
L 367.322573 -469.456361 
L 367.309394 -467.365138 
L 367.310429 -465.273914 
L 367.329186 -463.182691 
L 367.369198 -461.091467 
L 367.433982 -459.000244 
L 367.527006 -456.90902 
L 367.651648 -454.817797 
L 367.811159 -452.726573 
L 368.008631 -450.63535 
L 368.246958 -448.544126 
L 368.528801 -446.452903 
L 368.856557 -444.361679 
L 369.232323 -442.270456 
L 369.657866 -440.179232 
L 370.134591 -438.088009 
L 370.663515 -435.996786 
L 371.245234 -433.905562 
L 371.879906 -431.814339 
L 372.567219 -429.723115 
L 373.306373 -427.631892 
L 374.096065 -425.540668 
L 374.93447 -423.449445 
L 375.81923 -421.358221 
L 376.74745 -419.266998 
L 377.715696 -417.175774 
L 378.719994 -415.084551 
L 379.755845 -412.993327 
L 380.818238 -410.902104 
L 381.901676 -408.81088 
L 383.000204 -406.719657 
L 384.107448 -404.628433 
L 385.216664 -402.53721 
L 386.320787 -400.445987 
L 387.412499 -398.354763 
L 388.484295 -396.26354 
L 389.528556 -394.172316 
L 390.537638 -392.081093 
L 391.503952 -389.989869 
L 392.420058 -387.898646 
L 393.278758 -385.807422 
L 394.073187 -383.716199 
L 394.796908 -381.624975 
L 395.444001 -379.533752 
L 396.009149 -377.442528 
L 396.487715 -375.351305 
L 396.875817 -373.260081 
L 397.170384 -371.168858 
L 397.369209 -369.077634 
L 397.470987 -366.986411 
L 397.475333 -364.895188 
L 397.382798 -362.803964 
L 397.194855 -360.712741 
L 396.913883 -358.621517 
L 396.543127 -356.530294 
L 396.086648 -354.43907 
L 395.54926 -352.347847 
L 394.936448 -350.256623 
L 394.254287 -348.1654 
L 393.509338 -346.074176 
L 392.708553 -343.982953 
L 391.85916 -341.891729 
L 390.968555 -339.800506 
L 390.044194 -337.709282 
L 389.093479 -335.618059 
L 388.123662 -333.526835 
L 387.141745 -331.435612 
L 386.154387 -329.344389 
L 385.167836 -327.253165 
L 384.187852 -325.161942 
L 383.219662 -323.070718 
L 382.26791 -320.979495 
L 381.336637 -318.888271 
L 380.429265 -316.797048 
L 379.548593 -314.705824 
L 378.696811 -312.614601 
L 377.875522 -310.523377 
L 377.085776 -308.432154 
L 376.328107 -306.34093 
L 375.60259 -304.249707 
L 374.908887 -302.158483 
L 374.246308 -300.06726 
L 373.613873 -297.976036 
L 373.010369 -295.884813 
L 372.434414 -293.79359 
L 371.884507 -291.702366 
L 371.359089 -289.611143 
z
" style="stroke: #595959; stroke-opacity: 0.7"/>
    </defs>
    <g clip-path="url(#p725d027ac3)">
     <use xlink:href="#m7dd136ead6" x="0" y="720" style="fill: #db96c0; fill-opacity: 0.7; stroke: #595959; stroke-opacity: 0.7"/>
    </g>
   </g>
   <g id="FillBetweenPolyCollection_4">
    <defs>
     <path id="m7d35a4de8d" d="M 466.253836 -188.883 
L 435.926164 -188.883 
L 435.538814 -189.588008 
L 435.162773 -190.293016 
L 434.798877 -190.998025 
L 434.447893 -191.703033 
L 434.110509 -192.408041 
L 433.787338 -193.113049 
L 433.478908 -193.818057 
L 433.185661 -194.523066 
L 432.907953 -195.228074 
L 432.646046 -195.933082 
L 432.400113 -196.63809 
L 432.170231 -197.343099 
L 431.956386 -198.048107 
L 431.758466 -198.753115 
L 431.576266 -199.458123 
L 431.409484 -200.163131 
L 431.257726 -200.86814 
L 431.1205 -201.573148 
L 430.997224 -202.278156 
L 430.887219 -202.983164 
L 430.789718 -203.688172 
L 430.703862 -204.393181 
L 430.628702 -205.098189 
L 430.563205 -205.803197 
L 430.50625 -206.508205 
L 430.456639 -207.213214 
L 430.413093 -207.918222 
L 430.374261 -208.62323 
L 430.338722 -209.328238 
L 430.304992 -210.033246 
L 430.271531 -210.738255 
L 430.236751 -211.443263 
L 430.19902 -212.148271 
L 430.156679 -212.853279 
L 430.108046 -213.558287 
L 430.051431 -214.263296 
L 429.985148 -214.968304 
L 429.907529 -215.673312 
L 429.81694 -216.37832 
L 429.711794 -217.083329 
L 429.590569 -217.788337 
L 429.451825 -218.493345 
L 429.294221 -219.198353 
L 429.116535 -219.903361 
L 428.917677 -220.60837 
L 428.696712 -221.313378 
L 428.452873 -222.018386 
L 428.18558 -222.723394 
L 427.894455 -223.428402 
L 427.579335 -224.133411 
L 427.240285 -224.838419 
L 426.877611 -225.543427 
L 426.491867 -226.248435 
L 426.083863 -226.953444 
L 425.654668 -227.658452 
L 425.205611 -228.36346 
L 424.738283 -229.068468 
L 424.254532 -229.773476 
L 423.756454 -230.478485 
L 423.246385 -231.183493 
L 422.726888 -231.888501 
L 422.200737 -232.593509 
L 421.670899 -233.298517 
L 421.140512 -234.003526 
L 420.612861 -234.708534 
L 420.091356 -235.413542 
L 419.579498 -236.11855 
L 419.080855 -236.823558 
L 418.599029 -237.528567 
L 418.137622 -238.233575 
L 417.700209 -238.938583 
L 417.2903 -239.643591 
L 416.91131 -240.3486 
L 416.566528 -241.053608 
L 416.259085 -241.758616 
L 415.991924 -242.463624 
L 415.767771 -243.168632 
L 415.589115 -243.873641 
L 415.458175 -244.578649 
L 415.376889 -245.283657 
L 415.346889 -245.988665 
L 415.369488 -246.693673 
L 415.445672 -247.398682 
L 415.576084 -248.10369 
L 415.761028 -248.808698 
L 416.00046 -249.513706 
L 416.293995 -250.218715 
L 416.640911 -250.923723 
L 417.040156 -251.628731 
L 417.490361 -252.333739 
L 417.989855 -253.038747 
L 418.536684 -253.743756 
L 419.128625 -254.448764 
L 419.763214 -255.153772 
L 420.437768 -255.85878 
L 421.14941 -256.563788 
L 421.895094 -257.268797 
L 422.671634 -257.973805 
L 423.475736 -258.678813 
L 478.704264 -258.678813 
L 478.704264 -258.678813 
L 479.508366 -257.973805 
L 480.284906 -257.268797 
L 481.03059 -256.563788 
L 481.742232 -255.85878 
L 482.416786 -255.153772 
L 483.051375 -254.448764 
L 483.643316 -253.743756 
L 484.190145 -253.038747 
L 484.689639 -252.333739 
L 485.139844 -251.628731 
L 485.539089 -250.923723 
L 485.886005 -250.218715 
L 486.17954 -249.513706 
L 486.418972 -248.808698 
L 486.603916 -248.10369 
L 486.734328 -247.398682 
L 486.810512 -246.693673 
L 486.833111 -245.988665 
L 486.803111 -245.283657 
L 486.721825 -244.578649 
L 486.590885 -243.873641 
L 486.412229 -243.168632 
L 486.188076 -242.463624 
L 485.920915 -241.758616 
L 485.613472 -241.053608 
L 485.26869 -240.3486 
L 484.8897 -239.643591 
L 484.479791 -238.938583 
L 484.042378 -238.233575 
L 483.580971 -237.528567 
L 483.099145 -236.823558 
L 482.600502 -236.11855 
L 482.088644 -235.413542 
L 481.567139 -234.708534 
L 481.039488 -234.003526 
L 480.509101 -233.298517 
L 479.979263 -232.593509 
L 479.453112 -231.888501 
L 478.933615 -231.183493 
L 478.423546 -230.478485 
L 477.925468 -229.773476 
L 477.441717 -229.068468 
L 476.974389 -228.36346 
L 476.525332 -227.658452 
L 476.096137 -226.953444 
L 475.688133 -226.248435 
L 475.302389 -225.543427 
L 474.939715 -224.838419 
L 474.600665 -224.133411 
L 474.285545 -223.428402 
L 473.99442 -222.723394 
L 473.727127 -222.018386 
L 473.483288 -221.313378 
L 473.262323 -220.60837 
L 473.063465 -219.903361 
L 472.885779 -219.198353 
L 472.728175 -218.493345 
L 472.589431 -217.788337 
L 472.468206 -217.083329 
L 472.36306 -216.37832 
L 472.272471 -215.673312 
L 472.194852 -214.968304 
L 472.128569 -214.263296 
L 472.071954 -213.558287 
L 472.023321 -212.853279 
L 471.98098 -212.148271 
L 471.943249 -211.443263 
L 471.908469 -210.738255 
L 471.875008 -210.033246 
L 471.841278 -209.328238 
L 471.805739 -208.62323 
L 471.766907 -207.918222 
L 471.723361 -207.213214 
L 471.67375 -206.508205 
L 471.616795 -205.803197 
L 471.551298 -205.098189 
L 471.476138 -204.393181 
L 471.390282 -203.688172 
L 471.292781 -202.983164 
L 471.182776 -202.278156 
L 471.0595 -201.573148 
L 470.922274 -200.86814 
L 470.770516 -200.163131 
L 470.603734 -199.458123 
L 470.421534 -198.753115 
L 470.223614 -198.048107 
L 470.009769 -197.343099 
L 469.779887 -196.63809 
L 469.533954 -195.933082 
L 469.272047 -195.228074 
L 468.994339 -194.523066 
L 468.701092 -193.818057 
L 468.392662 -193.113049 
L 468.069491 -192.408041 
L 467.732107 -191.703033 
L 467.381123 -190.998025 
L 467.017227 -190.293016 
L 466.641186 -189.588008 
L 466.253836 -188.883 
z
" style="stroke: #595959; stroke-opacity: 0.7"/>
    </defs>
    <g clip-path="url(#p725d027ac3)">
     <use xlink:href="#m7d35a4de8d" x="0" y="720" style="fill: #a2c865; fill-opacity: 0.7; stroke: #595959; stroke-opacity: 0.7"/>
    </g>
   </g>
   <g id="FillBetweenPolyCollection_5">
    <defs>
     <path id="m9f6f22be16" d="M 563.709829 -389.440612 
L 517.185726 -389.440612 
L 516.888777 -391.121972 
L 516.596208 -392.803331 
L 516.308016 -394.484691 
L 516.024184 -396.166051 
L 515.744678 -397.84741 
L 515.469452 -399.52877 
L 515.198447 -401.210129 
L 514.931591 -402.891489 
L 514.668801 -404.572849 
L 514.409984 -406.254208 
L 514.155036 -407.935568 
L 513.903847 -409.616927 
L 513.656298 -411.298287 
L 513.412265 -412.979647 
L 513.171619 -414.661006 
L 512.934228 -416.342366 
L 512.699957 -418.023725 
L 512.468671 -419.705085 
L 512.240235 -421.386445 
L 512.014516 -423.067804 
L 511.791386 -424.749164 
L 511.570719 -426.430523 
L 511.352395 -428.111883 
L 511.136303 -429.793243 
L 510.922341 -431.474602 
L 510.710413 -433.155962 
L 510.500437 -434.837321 
L 510.292342 -436.518681 
L 510.086071 -438.200041 
L 509.881579 -439.8814 
L 509.678837 -441.56276 
L 509.477833 -443.244119 
L 509.27857 -444.925479 
L 509.081068 -446.606839 
L 508.885366 -448.288198 
L 508.69152 -449.969558 
L 508.499606 -451.650917 
L 508.309717 -453.332277 
L 508.121967 -455.013637 
L 507.936487 -456.694996 
L 507.75343 -458.376356 
L 507.572965 -460.057715 
L 507.395281 -461.739075 
L 507.220586 -463.420435 
L 507.049104 -465.101794 
L 506.881078 -466.783154 
L 506.716766 -468.464513 
L 506.556443 -470.145873 
L 506.400398 -471.827233 
L 506.248937 -473.508592 
L 506.102374 -475.189952 
L 505.96104 -476.871311 
L 505.825272 -478.552671 
L 505.695421 -480.234031 
L 505.571842 -481.91539 
L 505.454901 -483.59675 
L 505.344966 -485.278109 
L 505.24241 -486.959469 
L 505.14761 -488.640829 
L 505.060942 -490.322188 
L 504.982782 -492.003548 
L 504.913505 -493.684907 
L 504.85348 -495.366267 
L 504.803074 -497.047627 
L 504.762644 -498.728986 
L 504.732541 -500.410346 
L 504.713106 -502.091705 
L 504.704667 -503.773065 
L 504.707541 -505.454425 
L 504.722031 -507.135784 
L 504.748424 -508.817144 
L 504.786989 -510.498503 
L 504.83798 -512.179863 
L 504.90163 -513.861223 
L 504.97815 -515.542582 
L 505.067734 -517.223942 
L 505.17055 -518.905301 
L 505.286745 -520.586661 
L 505.416441 -522.268021 
L 505.559735 -523.94938 
L 505.7167 -525.63074 
L 505.887383 -527.312099 
L 506.071804 -528.993459 
L 506.269957 -530.674819 
L 506.48181 -532.356178 
L 506.707302 -534.037538 
L 506.946347 -535.718897 
L 507.198831 -537.400257 
L 507.464615 -539.081617 
L 507.74353 -540.762976 
L 508.035384 -542.444336 
L 508.339958 -544.125695 
L 508.657009 -545.807055 
L 508.986265 -547.488415 
L 509.327436 -549.169774 
L 509.680204 -550.851134 
L 510.044232 -552.532493 
L 510.419157 -554.213853 
L 510.804601 -555.895213 
L 570.090955 -555.895213 
L 570.090955 -555.895213 
L 570.476398 -554.213853 
L 570.851324 -552.532493 
L 571.215351 -550.851134 
L 571.568119 -549.169774 
L 571.90929 -547.488415 
L 572.238547 -545.807055 
L 572.555597 -544.125695 
L 572.860171 -542.444336 
L 573.152026 -540.762976 
L 573.430941 -539.081617 
L 573.696724 -537.400257 
L 573.949209 -535.718897 
L 574.188254 -534.037538 
L 574.413746 -532.356178 
L 574.625599 -530.674819 
L 574.823752 -528.993459 
L 575.008173 -527.312099 
L 575.178856 -525.63074 
L 575.335821 -523.94938 
L 575.479115 -522.268021 
L 575.60881 -520.586661 
L 575.725005 -518.905301 
L 575.827821 -517.223942 
L 575.917405 -515.542582 
L 575.993926 -513.861223 
L 576.057575 -512.179863 
L 576.108566 -510.498503 
L 576.147132 -508.817144 
L 576.173525 -507.135784 
L 576.188015 -505.454425 
L 576.190889 -503.773065 
L 576.18245 -502.091705 
L 576.163015 -500.410346 
L 576.132912 -498.728986 
L 576.092482 -497.047627 
L 576.042075 -495.366267 
L 575.982051 -493.684907 
L 575.912773 -492.003548 
L 575.834614 -490.322188 
L 575.747945 -488.640829 
L 575.653145 -486.959469 
L 575.55059 -485.278109 
L 575.440655 -483.59675 
L 575.323713 -481.91539 
L 575.200135 -480.234031 
L 575.070283 -478.552671 
L 574.934516 -476.871311 
L 574.793181 -475.189952 
L 574.646619 -473.508592 
L 574.495157 -471.827233 
L 574.339113 -470.145873 
L 574.17879 -468.464513 
L 574.014478 -466.783154 
L 573.846452 -465.101794 
L 573.67497 -463.420435 
L 573.500274 -461.739075 
L 573.322591 -460.057715 
L 573.142126 -458.376356 
L 572.959068 -456.694996 
L 572.773589 -455.013637 
L 572.585839 -453.332277 
L 572.39595 -451.650917 
L 572.204036 -449.969558 
L 572.01019 -448.288198 
L 571.814488 -446.606839 
L 571.616986 -444.925479 
L 571.417722 -443.244119 
L 571.216718 -441.56276 
L 571.013977 -439.8814 
L 570.809485 -438.200041 
L 570.603214 -436.518681 
L 570.395119 -434.837321 
L 570.185143 -433.155962 
L 569.973215 -431.474602 
L 569.759252 -429.793243 
L 569.543161 -428.111883 
L 569.324837 -426.430523 
L 569.10417 -424.749164 
L 568.881039 -423.067804 
L 568.655321 -421.386445 
L 568.426885 -419.705085 
L 568.195599 -418.023725 
L 567.961328 -416.342366 
L 567.723936 -414.661006 
L 567.48329 -412.979647 
L 567.239258 -411.298287 
L 566.991709 -409.616927 
L 566.740519 -407.935568 
L 566.485572 -406.254208 
L 566.226754 -404.572849 
L 565.963965 -402.891489 
L 565.697109 -401.210129 
L 565.426104 -399.52877 
L 565.150878 -397.84741 
L 564.871372 -396.166051 
L 564.587539 -394.484691 
L 564.299348 -392.803331 
L 564.006779 -391.121972 
L 563.709829 -389.440612 
z
" style="stroke: #595959; stroke-opacity: 0.7"/>
    </defs>
    <g clip-path="url(#p725d027ac3)">
     <use xlink:href="#m9f6f22be16" x="0" y="720" style="fill: #e5c849; fill-opacity: 0.7; stroke: #595959; stroke-opacity: 0.7"/>
    </g>
   </g>
   <g id="FillBetweenPolyCollection_6">
    <defs>
     <path id="mcff1606d65" d="M 749.514371 -462.875241 
L 688.812296 -462.875241 
L 688.59042 -464.679966 
L 688.373139 -466.484691 
L 688.160493 -468.289416 
L 687.952519 -470.09414 
L 687.74925 -471.898865 
L 687.550713 -473.70359 
L 687.356934 -475.508315 
L 687.167932 -477.31304 
L 686.983723 -479.117765 
L 686.804319 -480.922489 
L 686.62973 -482.727214 
L 686.45996 -484.531939 
L 686.29501 -486.336664 
L 686.13488 -488.141389 
L 685.979565 -489.946114 
L 685.829057 -491.750838 
L 685.683346 -493.555563 
L 685.54242 -495.360288 
L 685.406262 -497.165013 
L 685.274856 -498.969738 
L 685.148182 -500.774463 
L 685.02622 -502.579187 
L 684.908946 -504.383912 
L 684.796336 -506.188637 
L 684.688365 -507.993362 
L 684.585007 -509.798087 
L 684.486234 -511.602812 
L 684.392019 -513.407537 
L 684.302334 -515.212261 
L 684.217149 -517.016986 
L 684.136437 -518.821711 
L 684.06017 -520.626436 
L 683.988319 -522.431161 
L 683.920857 -524.235886 
L 683.857757 -526.04061 
L 683.798993 -527.845335 
L 683.74454 -529.65006 
L 683.694375 -531.454785 
L 683.648475 -533.25951 
L 683.606819 -535.064235 
L 683.569386 -536.868959 
L 683.53616 -538.673684 
L 683.507124 -540.478409 
L 683.482263 -542.283134 
L 683.461565 -544.087859 
L 683.445019 -545.892584 
L 683.432617 -547.697308 
L 683.424353 -549.502033 
L 683.420222 -551.306758 
L 683.420222 -553.111483 
L 683.424353 -554.916208 
L 683.432617 -556.720933 
L 683.445019 -558.525657 
L 683.461565 -560.330382 
L 683.482263 -562.135107 
L 683.507124 -563.939832 
L 683.53616 -565.744557 
L 683.569386 -567.549282 
L 683.606819 -569.354006 
L 683.648475 -571.158731 
L 683.694375 -572.963456 
L 683.74454 -574.768181 
L 683.798993 -576.572906 
L 683.857757 -578.377631 
L 683.920857 -580.182356 
L 683.988319 -581.98708 
L 684.06017 -583.791805 
L 684.136437 -585.59653 
L 684.217149 -587.401255 
L 684.302334 -589.20598 
L 684.392019 -591.010705 
L 684.486234 -592.815429 
L 684.585007 -594.620154 
L 684.688365 -596.424879 
L 684.796336 -598.229604 
L 684.908946 -600.034329 
L 685.02622 -601.839054 
L 685.148182 -603.643778 
L 685.274856 -605.448503 
L 685.406262 -607.253228 
L 685.54242 -609.057953 
L 685.683346 -610.862678 
L 685.829057 -612.667403 
L 685.979565 -614.472127 
L 686.13488 -616.276852 
L 686.29501 -618.081577 
L 686.45996 -619.886302 
L 686.62973 -621.691027 
L 686.804319 -623.495752 
L 686.983723 -625.300476 
L 687.167932 -627.105201 
L 687.356934 -628.909926 
L 687.550713 -630.714651 
L 687.74925 -632.519376 
L 687.952519 -634.324101 
L 688.160493 -636.128825 
L 688.373139 -637.93355 
L 688.59042 -639.738275 
L 688.812296 -641.543 
L 749.514371 -641.543 
L 749.514371 -641.543 
L 749.736246 -639.738275 
L 749.953528 -637.93355 
L 750.166174 -636.128825 
L 750.374148 -634.324101 
L 750.577417 -632.519376 
L 750.775953 -630.714651 
L 750.969732 -628.909926 
L 751.158735 -627.105201 
L 751.342944 -625.300476 
L 751.522347 -623.495752 
L 751.696937 -621.691027 
L 751.866707 -619.886302 
L 752.031656 -618.081577 
L 752.191786 -616.276852 
L 752.347102 -614.472127 
L 752.497609 -612.667403 
L 752.64332 -610.862678 
L 752.784247 -609.057953 
L 752.920405 -607.253228 
L 753.051811 -605.448503 
L 753.178484 -603.643778 
L 753.300447 -601.839054 
L 753.417721 -600.034329 
L 753.530331 -598.229604 
L 753.638301 -596.424879 
L 753.74166 -594.620154 
L 753.840432 -592.815429 
L 753.934648 -591.010705 
L 754.024333 -589.20598 
L 754.109518 -587.401255 
L 754.190229 -585.59653 
L 754.266497 -583.791805 
L 754.338348 -581.98708 
L 754.40581 -580.182356 
L 754.46891 -578.377631 
L 754.527674 -576.572906 
L 754.582126 -574.768181 
L 754.632291 -572.963456 
L 754.678192 -571.158731 
L 754.719848 -569.354006 
L 754.75728 -567.549282 
L 754.790507 -565.744557 
L 754.819543 -563.939832 
L 754.844404 -562.135107 
L 754.865102 -560.330382 
L 754.881647 -558.525657 
L 754.894049 -556.720933 
L 754.902313 -554.916208 
L 754.906444 -553.111483 
L 754.906444 -551.306758 
L 754.902313 -549.502033 
L 754.894049 -547.697308 
L 754.881647 -545.892584 
L 754.865102 -544.087859 
L 754.844404 -542.283134 
L 754.819543 -540.478409 
L 754.790507 -538.673684 
L 754.75728 -536.868959 
L 754.719848 -535.064235 
L 754.678192 -533.25951 
L 754.632291 -531.454785 
L 754.582126 -529.65006 
L 754.527674 -527.845335 
L 754.46891 -526.04061 
L 754.40581 -524.235886 
L 754.338348 -522.431161 
L 754.266497 -520.626436 
L 754.190229 -518.821711 
L 754.109518 -517.016986 
L 754.024333 -515.212261 
L 753.934648 -513.407537 
L 753.840432 -511.602812 
L 753.74166 -509.798087 
L 753.638301 -507.993362 
L 753.530331 -506.188637 
L 753.417721 -504.383912 
L 753.300447 -502.579187 
L 753.178484 -500.774463 
L 753.051811 -498.969738 
L 752.920405 -497.165013 
L 752.784247 -495.360288 
L 752.64332 -493.555563 
L 752.497609 -491.750838 
L 752.347102 -489.946114 
L 752.191786 -488.141389 
L 752.031656 -486.336664 
L 751.866707 -484.531939 
L 751.696937 -482.727214 
L 751.522347 -480.922489 
L 751.342944 -479.117765 
L 751.158735 -477.31304 
L 750.969732 -475.508315 
L 750.775953 -473.70359 
L 750.577417 -471.898865 
L 750.374148 -470.09414 
L 750.166174 -468.289416 
L 749.953528 -466.484691 
L 749.736246 -464.679966 
L 749.514371 -462.875241 
z
" style="stroke: #595959; stroke-opacity: 0.7"/>
    </defs>
    <g clip-path="url(#p725d027ac3)">
     <use xlink:href="#mcff1606d65" x="0" y="720" style="fill: #b3b3b3; fill-opacity: 0.7; stroke: #595959; stroke-opacity: 0.7"/>
    </g>
   </g>
   <g id="line2d_6">
    <path d="M 93.658889 452.599721 
L 93.658889 103.644744 
" clip-path="url(#p725d027ac3)" style="fill: none; stroke: #595959; stroke-width: 1.5; stroke-linecap: round"/>
   </g>
   <g id="line2d_7">
    <path d="M 93.658889 314.044069 
L 93.658889 216.541942 
" clip-path="url(#p725d027ac3)" style="fill: none; stroke: #595959; stroke-width: 4.5; stroke-linecap: round"/>
   </g>
   <g id="line2d_8">
    <path d="M 93.658889 257.595469 
" clip-path="url(#p725d027ac3)" style="fill: none; stroke: #595959; stroke-width: 1.5; stroke-linecap: round"/>
    <defs>
     <path id="ma484ceb63c" d="M 1.875 0 
L -1.875 -0 
" style="stroke: #ffffff; stroke-width: 0.9"/>
    </defs>
    <g clip-path="url(#p725d027ac3)">
     <use xlink:href="#ma484ceb63c" x="93.658889" y="257.595469" style="fill: #ffffff; stroke: #ffffff; stroke-width: 0.9"/>
    </g>
   </g>
   <g id="line2d_9">
    <path d="M 183.016667 339.702523 
L 183.016667 139.56658 
" clip-path="url(#p725d027ac3)" style="fill: none; stroke: #595959; stroke-width: 1.5; stroke-linecap: round"/>
   </g>
   <g id="line2d_10">
    <path d="M 183.016667 311.478223 
L 183.016667 185.751797 
" clip-path="url(#p725d027ac3)" style="fill: none; stroke: #595959; stroke-width: 4.5; stroke-linecap: round"/>
   </g>
   <g id="line2d_11">
    <path d="M 183.016667 267.858851 
" clip-path="url(#p725d027ac3)" style="fill: none; stroke: #595959; stroke-width: 1.5; stroke-linecap: round"/>
    <g clip-path="url(#p725d027ac3)">
     <use xlink:href="#ma484ceb63c" x="183.016667" y="267.858851" style="fill: #ffffff; stroke: #ffffff; stroke-width: 0.9"/>
    </g>
   </g>
   <g id="line2d_12">
    <path d="M 236.631333 370.492668 
L 308.117556 370.492668 
" clip-path="url(#p725d027ac3)" style="fill: none; stroke: #595959; stroke-linecap: round"/>
   </g>
   <g id="line2d_13">
    <path d="M 361.732222 375.624359 
L 361.732222 319.175759 
" clip-path="url(#p725d027ac3)" style="fill: none; stroke: #595959; stroke-width: 1.5; stroke-linecap: round"/>
   </g>
   <g id="line2d_14">
    <path d="M 361.732222 360.229286 
L 361.732222 339.702523 
" clip-path="url(#p725d027ac3)" style="fill: none; stroke: #595959; stroke-width: 4.5; stroke-linecap: round"/>
   </g>
   <g id="line2d_15">
    <path d="M 361.732222 355.097595 
" clip-path="url(#p725d027ac3)" style="fill: none; stroke: #595959; stroke-width: 1.5; stroke-linecap: round"/>
    <g clip-path="url(#p725d027ac3)">
     <use xlink:href="#ma484ceb63c" x="361.732222" y="355.097595" style="fill: #ffffff; stroke: #ffffff; stroke-width: 0.9"/>
    </g>
   </g>
   <g id="line2d_16">
    <path d="M 451.09 529.575084 
L 451.09 462.863103 
" clip-path="url(#p725d027ac3)" style="fill: none; stroke: #595959; stroke-width: 1.5; stroke-linecap: round"/>
   </g>
   <g id="line2d_17">
    <path d="M 451.09 507.765398 
L 451.09 473.126485 
" clip-path="url(#p725d027ac3)" style="fill: none; stroke: #595959; stroke-width: 4.5; stroke-linecap: round"/>
   </g>
   <g id="line2d_18">
    <path d="M 451.09 478.258176 
" clip-path="url(#p725d027ac3)" style="fill: none; stroke: #595959; stroke-width: 1.5; stroke-linecap: round"/>
    <g clip-path="url(#p725d027ac3)">
     <use xlink:href="#ma484ceb63c" x="451.09" y="478.258176" style="fill: #ffffff; stroke: #ffffff; stroke-width: 0.9"/>
    </g>
   </g>
   <g id="line2d_19">
    <path d="M 540.447778 324.30745 
L 540.447778 170.356725 
" clip-path="url(#p725d027ac3)" style="fill: none; stroke: #595959; stroke-width: 1.5; stroke-linecap: round"/>
   </g>
   <g id="line2d_20">
    <path d="M 540.447778 275.556387 
L 540.447778 198.581025 
" clip-path="url(#p725d027ac3)" style="fill: none; stroke: #595959; stroke-width: 4.5; stroke-linecap: round"/>
   </g>
   <g id="line2d_21">
    <path d="M 540.447778 226.805324 
" clip-path="url(#p725d027ac3)" style="fill: none; stroke: #595959; stroke-width: 1.5; stroke-linecap: round"/>
    <g clip-path="url(#p725d027ac3)">
     <use xlink:href="#ma484ceb63c" x="540.447778" y="226.805324" style="fill: #ffffff; stroke: #ffffff; stroke-width: 0.9"/>
    </g>
   </g>
   <g id="line2d_22">
    <path d="M 594.062444 421.809576 
L 665.548667 421.809576 
" clip-path="url(#p725d027ac3)" style="fill: none; stroke: #595959; stroke-linecap: round"/>
   </g>
   <g id="line2d_23">
    <path d="M 719.163333 247.332088 
L 719.163333 88.249671 
" clip-path="url(#p725d027ac3)" style="fill: none; stroke: #595959; stroke-width: 1.5; stroke-linecap: round"/>
   </g>
   <g id="line2d_24">
    <path d="M 719.163333 207.561484 
L 719.163333 128.020275 
" clip-path="url(#p725d027ac3)" style="fill: none; stroke: #595959; stroke-width: 4.5; stroke-linecap: round"/>
   </g>
   <g id="line2d_25">
    <path d="M 719.163333 167.790879 
" clip-path="url(#p725d027ac3)" style="fill: none; stroke: #595959; stroke-width: 1.5; stroke-linecap: round"/>
    <g clip-path="url(#p725d027ac3)">
     <use xlink:href="#ma484ceb63c" x="719.163333" y="167.790879" style="fill: #ffffff; stroke: #ffffff; stroke-width: 0.9"/>
    </g>
   </g>
   <g id="line2d_26">
    <path d="M 772.778 119.039816 
L 844.264222 119.039816 
" clip-path="url(#p725d027ac3)" style="fill: none; stroke: #595959; stroke-linecap: round"/>
   </g>
   <g id="patch_3">
    <path d="M 48.98 553.75 
L 48.98 55.824 
" style="fill: none; stroke: #cccccc; stroke-width: 0.8; stroke-linejoin: miter; stroke-linecap: square"/>
   </g>
   <g id="patch_4">
    <path d="M 853.2 553.75 
L 853.2 55.824 
" style="fill: none; stroke: #cccccc; stroke-width: 0.8; stroke-linejoin: miter; stroke-linecap: square"/>
   </g>
   <g id="patch_5">
    <path d="M 48.98 553.75 
L 853.2 553.75 
" style="fill: none; stroke: #cccccc; stroke-width: 0.8; stroke-linejoin: miter; stroke-linecap: square"/>
   </g>
   <g id="patch_6">
    <path d="M 48.98 55.824 
L 853.2 55.824 
" style="fill: none; stroke: #cccccc; stroke-width: 0.8; stroke-linejoin: miter; stroke-linecap: square"/>
   </g>
   <g id="text_17">
    <!-- Distribución de Edad por Ocupación con Angina de Pecho -->
    <g style="fill: #262626" transform="translate(127.016563 27.144) scale(0.2 -0.2)">
     <defs>
      <path id="DejaVuSerif-Bold-44" d="M 2100 378 
L 2534 378 
Q 3266 378 3605 847 
Q 3944 1316 3944 2338 
Q 3944 3353 3606 3820 
Q 3269 4288 2534 4288 
L 2100 4288 
L 2100 378 
z
M 300 0 
L 300 378 
L 897 378 
L 897 4288 
L 300 4288 
L 300 4666 
L 2694 4666 
Q 3950 4666 4615 4066 
Q 5281 3466 5281 2338 
Q 5281 1203 4614 601 
Q 3947 0 2694 0 
L 300 0 
z
" transform="scale(0.015625)"/>
      <path id="DejaVuSerif-Bold-73" d="M 300 97 
L 300 1025 
L 653 1025 
Q 697 653 931 458 
Q 1166 263 1569 263 
Q 1906 263 2086 380 
Q 2266 497 2266 716 
Q 2266 916 2152 1025 
Q 2038 1134 1709 1216 
L 1253 1331 
Q 738 1459 506 1698 
Q 275 1938 275 2344 
Q 275 2884 650 3148 
Q 1025 3413 1806 3413 
Q 2100 3413 2433 3364 
Q 2766 3316 3169 3213 
L 3169 2375 
L 2816 2375 
Q 2788 2716 2573 2887 
Q 2359 3059 1959 3059 
Q 1622 3059 1448 2951 
Q 1275 2844 1275 2638 
Q 1275 2469 1375 2372 
Q 1475 2275 1734 2209 
L 2188 2094 
Q 2841 1928 3091 1684 
Q 3341 1441 3341 1006 
Q 3341 444 2939 176 
Q 2538 -91 1691 -91 
Q 1381 -91 1034 -44 
Q 688 3 300 97 
z
" transform="scale(0.015625)"/>
      <path id="DejaVuSerif-Bold-74" d="M 634 2944 
L 153 2944 
L 153 3322 
L 634 3322 
L 634 4353 
L 1741 4353 
L 1741 3322 
L 2663 3322 
L 2663 2944 
L 1741 2944 
L 1741 909 
Q 1741 475 1809 369 
Q 1878 263 2059 263 
Q 2259 263 2356 397 
Q 2453 531 2459 813 
L 2925 813 
Q 2897 313 2651 111 
Q 2406 -91 1806 -91 
Q 1122 -91 878 123 
Q 634 338 634 909 
L 634 2944 
z
" transform="scale(0.015625)"/>
      <path id="DejaVuSerif-Bold-72" d="M 3438 3359 
L 3438 2369 
L 3084 2369 
Q 3066 2634 2941 2764 
Q 2816 2894 2578 2894 
Q 2216 2894 2006 2575 
Q 1797 2256 1797 1691 
L 1797 378 
L 2400 378 
L 2400 0 
L 219 0 
L 219 378 
L 691 378 
L 691 2944 
L 184 2944 
L 184 3322 
L 1797 3322 
L 1797 2731 
Q 1959 3078 2226 3245 
Q 2494 3413 2881 3413 
Q 2978 3413 3117 3398 
Q 3256 3384 3438 3359 
z
" transform="scale(0.015625)"/>
      <path id="DejaVuSerif-Bold-62" d="M 622 378 
L 622 4488 
L 147 4488 
L 147 4863 
L 1728 4863 
L 1728 2900 
Q 1869 3159 2106 3286 
Q 2344 3413 2694 3413 
Q 3403 3413 3811 2945 
Q 4219 2478 4219 1663 
Q 4219 847 3811 378 
Q 3403 -91 2694 -91 
Q 2344 -91 2106 36 
Q 1869 163 1728 422 
L 1728 0 
L 147 0 
L 147 378 
L 622 378 
z
M 1728 1497 
Q 1728 916 1876 656 
Q 2025 397 2356 397 
Q 2697 397 2836 672 
Q 2975 947 2975 1663 
Q 2975 2378 2836 2651 
Q 2697 2925 2356 2925 
Q 2025 2925 1876 2665 
Q 1728 2406 1728 1825 
L 1728 1497 
z
" transform="scale(0.015625)"/>
      <path id="DejaVuSerif-Bold-20" transform="scale(0.015625)"/>
      <path id="DejaVuSerif-Bold-65" d="M 2566 1875 
Q 2566 2531 2444 2795 
Q 2322 3059 2028 3059 
Q 1744 3059 1620 2800 
Q 1497 2541 1497 1931 
L 1497 1875 
L 2566 1875 
z
M 3781 1503 
L 1497 1503 
L 1497 1478 
Q 1497 834 1690 548 
Q 1884 263 2316 263 
Q 2675 263 2897 453 
Q 3119 644 3181 1006 
L 3700 1006 
Q 3566 441 3166 175 
Q 2766 -91 2047 -91 
Q 1184 -91 723 364 
Q 263 819 263 1663 
Q 263 2488 734 2950 
Q 1206 3413 2047 3413 
Q 2872 3413 3312 2927 
Q 3753 2441 3781 1503 
z
" transform="scale(0.015625)"/>
      <path id="DejaVuSerif-Bold-6f" d="M 2138 263 
Q 2488 263 2630 563 
Q 2772 863 2772 1663 
Q 2772 2463 2631 2761 
Q 2491 3059 2138 3059 
Q 1784 3059 1640 2757 
Q 1497 2456 1497 1663 
Q 1497 869 1640 566 
Q 1784 263 2138 263 
z
M 2138 -91 
Q 1259 -91 761 376 
Q 263 844 263 1663 
Q 263 2484 761 2948 
Q 1259 3413 2138 3413 
Q 3019 3413 3516 2948 
Q 4013 2484 4013 1663 
Q 4013 844 3514 376 
Q 3016 -91 2138 -91 
z
" transform="scale(0.015625)"/>
      <path id="DejaVuSerif-Bold-41" d="M -50 0 
L -50 378 
L 331 378 
L 2088 4666 
L 2834 4666 
L 4594 378 
L 5038 378 
L 5038 0 
L 2853 0 
L 2853 378 
L 3309 378 
L 2925 1331 
L 1172 1331 
L 781 378 
L 1338 378 
L 1338 0 
L -50 0 
z
M 1325 1709 
L 2772 1709 
L 2053 3494 
L 1325 1709 
z
" transform="scale(0.015625)"/>
      <path id="DejaVuSerif-Bold-67" d="M 3853 2944 
L 3853 44 
Q 3853 -656 3354 -1039 
Q 2856 -1422 1947 -1422 
Q 1616 -1422 1275 -1370 
Q 934 -1319 575 -1216 
L 575 -422 
L 928 -422 
Q 975 -750 1192 -909 
Q 1409 -1069 1813 -1069 
Q 2325 -1069 2536 -823 
Q 2747 -578 2747 44 
L 2747 422 
Q 2606 163 2367 36 
Q 2128 -91 1778 -91 
Q 1072 -91 667 378 
Q 263 847 263 1663 
Q 263 2481 667 2947 
Q 1072 3413 1778 3413 
Q 2128 3413 2367 3286 
Q 2606 3159 2747 2900 
L 2747 3322 
L 4325 3322 
L 4325 2944 
L 3853 2944 
z
M 2747 1825 
Q 2747 2406 2597 2665 
Q 2447 2925 2119 2925 
Q 1775 2925 1636 2651 
Q 1497 2378 1497 1663 
Q 1497 947 1637 672 
Q 1778 397 2119 397 
Q 2447 397 2597 656 
Q 2747 916 2747 1497 
L 2747 1825 
z
" transform="scale(0.015625)"/>
      <path id="DejaVuSerif-Bold-50" d="M 300 0 
L 300 378 
L 897 378 
L 897 4288 
L 300 4288 
L 300 4666 
L 2956 4666 
Q 3734 4666 4193 4295 
Q 4653 3925 4653 3303 
Q 4653 2678 4192 2304 
Q 3731 1931 2956 1931 
L 2100 1931 
L 2100 378 
L 2853 378 
L 2853 0 
L 300 0 
z
M 2100 2309 
L 2450 2309 
Q 2856 2309 3098 2579 
Q 3341 2850 3341 3303 
Q 3341 3753 3100 4020 
Q 2859 4288 2450 4288 
L 2100 4288 
L 2100 2309 
z
" transform="scale(0.015625)"/>
      <path id="DejaVuSerif-Bold-68" d="M 219 0 
L 219 378 
L 691 378 
L 691 4488 
L 197 4488 
L 197 4863 
L 1797 4863 
L 1797 2853 
Q 1997 3150 2253 3281 
Q 2509 3413 2900 3413 
Q 3459 3413 3745 3083 
Q 4031 2753 4031 2113 
L 4031 378 
L 4506 378 
L 4506 0 
L 2522 0 
L 2522 378 
L 2925 378 
L 2925 2144 
Q 2925 2566 2817 2730 
Q 2709 2894 2444 2894 
Q 2109 2894 1953 2648 
Q 1797 2403 1797 1869 
L 1797 378 
L 2203 378 
L 2203 0 
L 219 0 
z
" transform="scale(0.015625)"/>
     </defs>
     <use xlink:href="#DejaVuSerif-Bold-44"/>
     <use xlink:href="#DejaVuSerif-Bold-69" transform="translate(86.71875 0)"/>
     <use xlink:href="#DejaVuSerif-Bold-73" transform="translate(124.707031 0)"/>
     <use xlink:href="#DejaVuSerif-Bold-74" transform="translate(181.005859 0)"/>
     <use xlink:href="#DejaVuSerif-Bold-72" transform="translate(227.197266 0)"/>
     <use xlink:href="#DejaVuSerif-Bold-69" transform="translate(279.882812 0)"/>
     <use xlink:href="#DejaVuSerif-Bold-62" transform="translate(317.871094 0)"/>
     <use xlink:href="#DejaVuSerif-Bold-75" transform="translate(387.792969 0)"/>
     <use xlink:href="#DejaVuSerif-Bold-63" transform="translate(460.498047 0)"/>
     <use xlink:href="#DejaVuSerif-Bold-69" transform="translate(521.386719 0)"/>
     <use xlink:href="#DejaVuSerif-Bold-f3" transform="translate(559.375 0)"/>
     <use xlink:href="#DejaVuSerif-Bold-6e" transform="translate(626.074219 0)"/>
     <use xlink:href="#DejaVuSerif-Bold-20" transform="translate(698.779297 0)"/>
     <use xlink:href="#DejaVuSerif-Bold-64" transform="translate(733.59375 0)"/>
     <use xlink:href="#DejaVuSerif-Bold-65" transform="translate(803.515625 0)"/>
     <use xlink:href="#DejaVuSerif-Bold-20" transform="translate(867.138672 0)"/>
     <use xlink:href="#DejaVuSerif-Bold-45" transform="translate(901.953125 0)"/>
     <use xlink:href="#DejaVuSerif-Bold-64" transform="translate(978.173828 0)"/>
     <use xlink:href="#DejaVuSerif-Bold-61" transform="translate(1048.095703 0)"/>
     <use xlink:href="#DejaVuSerif-Bold-64" transform="translate(1112.890625 0)"/>
     <use xlink:href="#DejaVuSerif-Bold-20" transform="translate(1182.8125 0)"/>
     <use xlink:href="#DejaVuSerif-Bold-70" transform="translate(1217.626953 0)"/>
     <use xlink:href="#DejaVuSerif-Bold-6f" transform="translate(1287.548828 0)"/>
     <use xlink:href="#DejaVuSerif-Bold-72" transform="translate(1354.248047 0)"/>
     <use xlink:href="#DejaVuSerif-Bold-20" transform="translate(1406.933594 0)"/>
     <use xlink:href="#DejaVuSerif-Bold-4f" transform="translate(1441.748047 0)"/>
     <use xlink:href="#DejaVuSerif-Bold-63" transform="translate(1528.857422 0)"/>
     <use xlink:href="#DejaVuSerif-Bold-75" transform="translate(1589.746094 0)"/>
     <use xlink:href="#DejaVuSerif-Bold-70" transform="translate(1662.451172 0)"/>
     <use xlink:href="#DejaVuSerif-Bold-61" transform="translate(1732.373047 0)"/>
     <use xlink:href="#DejaVuSerif-Bold-63" transform="translate(1797.167969 0)"/>
     <use xlink:href="#DejaVuSerif-Bold-69" transform="translate(1858.056641 0)"/>
     <use xlink:href="#DejaVuSerif-Bold-f3" transform="translate(1896.044922 0)"/>
     <use xlink:href="#DejaVuSerif-Bold-6e" transform="translate(1962.744141 0)"/>
     <use xlink:href="#DejaVuSerif-Bold-20" transform="translate(2035.449219 0)"/>
     <use xlink:href="#DejaVuSerif-Bold-63" transform="translate(2070.263672 0)"/>
     <use xlink:href="#DejaVuSerif-Bold-6f" transform="translate(2131.152344 0)"/>
     <use xlink:href="#DejaVuSerif-Bold-6e" transform="translate(2197.851562 0)"/>
     <use xlink:href="#DejaVuSerif-Bold-20" transform="translate(2270.556641 0)"/>
     <use xlink:href="#DejaVuSerif-Bold-41" transform="translate(2305.371094 0)"/>
     <use xlink:href="#DejaVuSerif-Bold-6e" transform="translate(2382.958984 0)"/>
     <use xlink:href="#DejaVuSerif-Bold-67" transform="translate(2455.664062 0)"/>
     <use xlink:href="#DejaVuSerif-Bold-69" transform="translate(2525.585938 0)"/>
     <use xlink:href="#DejaVuSerif-Bold-6e" transform="translate(2563.574219 0)"/>
     <use xlink:href="#DejaVuSerif-Bold-61" transform="translate(2636.279297 0)"/>
     <use xlink:href="#DejaVuSerif-Bold-20" transform="translate(2701.074219 0)"/>
     <use xlink:href="#DejaVuSerif-Bold-64" transform="translate(2735.888672 0)"/>
     <use xlink:href="#DejaVuSerif-Bold-65" transform="translate(2805.810547 0)"/>
     <use xlink:href="#DejaVuSerif-Bold-20" transform="translate(2869.433594 0)"/>
     <use xlink:href="#DejaVuSerif-Bold-50" transform="translate(2904.248047 0)"/>
     <use xlink:href="#DejaVuSerif-Bold-65" transform="translate(2976.818359 0)"/>
     <use xlink:href="#DejaVuSerif-Bold-63" transform="translate(3040.441406 0)"/>
     <use xlink:href="#DejaVuSerif-Bold-68" transform="translate(3101.330078 0)"/>
     <use xlink:href="#DejaVuSerif-Bold-6f" transform="translate(3174.035156 0)"/>
    </g>
    <!--  -->
    <g style="fill: #262626" transform="translate(451.09 49.824) scale(0.2 -0.2)"/>
   </g>
  </g>
 </g>
 <defs>
  <clipPath id="p725d027ac3">
   <rect x="48.98" y="55.824" width="804.22" height="497.926"/>
  </clipPath>
 </defs>
</svg>
