<?xml version="1.0" encoding="utf-8" standalone="no"?>
<!DOCTYPE svg PUBLIC "-//W3C//DTD SVG 1.1//EN"
  "http://www.w3.org/Graphics/SVG/1.1/DTD/svg11.dtd">
<svg xmlns:xlink="http://www.w3.org/1999/xlink" width="864pt" height="720pt" viewBox="0 0 864 720" xmlns="http://www.w3.org/2000/svg" version="1.1">
 <metadata>
  <rdf:RDF xmlns:dc="http://purl.org/dc/elements/1.1/" xmlns:cc="http://creativecommons.org/ns#" xmlns:rdf="http://www.w3.org/1999/02/22-rdf-syntax-ns#">
   <cc:Work>
    <dc:type rdf:resource="http://purl.org/dc/dcmitype/StillImage"/>
    <dc:date>2025-03-18T14:11:45.964042</dc:date>
    <dc:format>image/svg+xml</dc:format>
    <dc:creator>
     <cc:Agent>
      <dc:title>Matplotlib v3.10.0, https://matplotlib.org/</dc:title>
     </cc:Agent>
    </dc:creator>
   </cc:Work>
  </rdf:RDF>
 </metadata>
 <defs>
  <style type="text/css">*{stroke-linejoin: round; stroke-linecap: butt}</style>
 </defs>
 <g id="figure_1">
  <g id="patch_1">
   <path d="M 0 720 
L 864 720 
L 864 0 
L 0 0 
z
" style="fill: #ffffff"/>
  </g>
  <g id="axes_1">
   <g id="patch_2">
    <path d="M 48.98 553.75 
L 853.2 553.75 
L 853.2 55.824 
L 48.98 55.824 
z
" style="fill: #ffffff"/>
   </g>
   <g id="matplotlib.axis_1">
    <g id="xtick_1">
     <g id="text_1">
      <!-- Incapacitado -->
      <g style="fill: #262626" transform="translate(102.003125 626.26875) rotate(-90) scale(0.1 -0.1)">
       <defs>
        <path id="DejaVuSerif-49" d="M 1581 331 
L 2175 331 
L 2175 0 
L 353 0 
L 353 331 
L 947 331 
L 947 4331 
L 353 4331 
L 353 4666 
L 2175 4666 
L 2175 4331 
L 1581 4331 
L 1581 331 
z
" transform="scale(0.015625)"/>
        <path id="DejaVuSerif-6e" d="M 263 0 
L 263 331 
L 781 331 
L 781 2988 
L 231 2988 
L 231 3322 
L 1356 3322 
L 1356 2731 
Q 1516 3069 1770 3241 
Q 2025 3413 2363 3413 
Q 2913 3413 3172 3097 
Q 3431 2781 3431 2113 
L 3431 331 
L 3944 331 
L 3944 0 
L 2356 0 
L 2356 331 
L 2853 331 
L 2853 1931 
Q 2853 2541 2703 2767 
Q 2553 2994 2175 2994 
Q 1775 2994 1565 2701 
Q 1356 2409 1356 1850 
L 1356 331 
L 1856 331 
L 1856 0 
L 263 0 
z
" transform="scale(0.015625)"/>
        <path id="DejaVuSerif-63" d="M 3291 997 
Q 3169 466 2822 187 
Q 2475 -91 1925 -91 
Q 1200 -91 759 389 
Q 319 869 319 1663 
Q 319 2459 759 2936 
Q 1200 3413 1925 3413 
Q 2241 3413 2553 3339 
Q 2866 3266 3181 3116 
L 3181 2266 
L 2847 2266 
Q 2781 2703 2561 2903 
Q 2341 3103 1931 3103 
Q 1466 3103 1228 2742 
Q 991 2381 991 1663 
Q 991 944 1227 581 
Q 1463 219 1931 219 
Q 2303 219 2525 412 
Q 2747 606 2828 997 
L 3291 997 
z
" transform="scale(0.015625)"/>
        <path id="DejaVuSerif-61" d="M 2547 1044 
L 2547 1747 
L 1806 1747 
Q 1378 1747 1168 1562 
Q 959 1378 959 997 
Q 959 650 1171 447 
Q 1384 244 1747 244 
Q 2106 244 2326 466 
Q 2547 688 2547 1044 
z
M 3122 2075 
L 3122 331 
L 3634 331 
L 3634 0 
L 2547 0 
L 2547 359 
Q 2356 128 2106 18 
Q 1856 -91 1522 -91 
Q 969 -91 644 203 
Q 319 497 319 997 
Q 319 1513 691 1797 
Q 1063 2081 1741 2081 
L 2547 2081 
L 2547 2309 
Q 2547 2688 2317 2895 
Q 2088 3103 1672 3103 
Q 1328 3103 1125 2947 
Q 922 2791 872 2484 
L 575 2484 
L 575 3156 
Q 875 3284 1158 3348 
Q 1441 3413 1709 3413 
Q 2400 3413 2761 3070 
Q 3122 2728 3122 2075 
z
" transform="scale(0.015625)"/>
        <path id="DejaVuSerif-70" d="M 1313 1825 
L 1313 1497 
Q 1313 897 1542 583 
Q 1772 269 2209 269 
Q 2650 269 2876 622 
Q 3103 975 3103 1663 
Q 3103 2353 2876 2703 
Q 2650 3053 2209 3053 
Q 1772 3053 1542 2737 
Q 1313 2422 1313 1825 
z
M 738 2988 
L 184 2988 
L 184 3322 
L 1313 3322 
L 1313 2803 
Q 1481 3116 1742 3264 
Q 2003 3413 2388 3413 
Q 3000 3413 3387 2928 
Q 3775 2444 3775 1663 
Q 3775 881 3387 395 
Q 3000 -91 2388 -91 
Q 2003 -91 1742 57 
Q 1481 206 1313 519 
L 1313 -997 
L 1856 -997 
L 1856 -1331 
L 184 -1331 
L 184 -997 
L 738 -997 
L 738 2988 
z
" transform="scale(0.015625)"/>
        <path id="DejaVuSerif-69" d="M 622 4353 
Q 622 4497 726 4603 
Q 831 4709 978 4709 
Q 1122 4709 1226 4603 
Q 1331 4497 1331 4353 
Q 1331 4206 1228 4103 
Q 1125 4000 978 4000 
Q 831 4000 726 4103 
Q 622 4206 622 4353 
z
M 1356 331 
L 1900 331 
L 1900 0 
L 231 0 
L 231 331 
L 781 331 
L 781 2988 
L 231 2988 
L 231 3322 
L 1356 3322 
L 1356 331 
z
" transform="scale(0.015625)"/>
        <path id="DejaVuSerif-74" d="M 691 2988 
L 184 2988 
L 184 3322 
L 691 3322 
L 691 4353 
L 1269 4353 
L 1269 3322 
L 2350 3322 
L 2350 2988 
L 1269 2988 
L 1269 878 
Q 1269 456 1350 337 
Q 1431 219 1650 219 
Q 1875 219 1978 351 
Q 2081 484 2088 781 
L 2522 781 
Q 2497 328 2275 118 
Q 2053 -91 1600 -91 
Q 1103 -91 897 129 
Q 691 350 691 878 
L 691 2988 
z
" transform="scale(0.015625)"/>
        <path id="DejaVuSerif-64" d="M 3359 331 
L 3909 331 
L 3909 0 
L 2784 0 
L 2784 519 
Q 2616 206 2355 57 
Q 2094 -91 1709 -91 
Q 1097 -91 708 395 
Q 319 881 319 1663 
Q 319 2444 706 2928 
Q 1094 3413 1709 3413 
Q 2094 3413 2355 3264 
Q 2616 3116 2784 2803 
L 2784 4531 
L 2241 4531 
L 2241 4863 
L 3359 4863 
L 3359 331 
z
M 2784 1497 
L 2784 1825 
Q 2784 2422 2554 2737 
Q 2325 3053 1888 3053 
Q 1444 3053 1217 2703 
Q 991 2353 991 1663 
Q 991 975 1217 622 
Q 1444 269 1888 269 
Q 2325 269 2554 583 
Q 2784 897 2784 1497 
z
" transform="scale(0.015625)"/>
        <path id="DejaVuSerif-6f" d="M 1925 219 
Q 2388 219 2623 584 
Q 2859 950 2859 1663 
Q 2859 2375 2623 2739 
Q 2388 3103 1925 3103 
Q 1463 3103 1227 2739 
Q 991 2375 991 1663 
Q 991 950 1228 584 
Q 1466 219 1925 219 
z
M 1925 -91 
Q 1200 -91 759 389 
Q 319 869 319 1663 
Q 319 2456 758 2934 
Q 1197 3413 1925 3413 
Q 2653 3413 3092 2934 
Q 3531 2456 3531 1663 
Q 3531 869 3092 389 
Q 2653 -91 1925 -91 
z
" transform="scale(0.015625)"/>
       </defs>
       <use xlink:href="#DejaVuSerif-49"/>
       <use xlink:href="#DejaVuSerif-6e" transform="translate(39.501953 0)"/>
       <use xlink:href="#DejaVuSerif-63" transform="translate(103.90625 0)"/>
       <use xlink:href="#DejaVuSerif-61" transform="translate(159.912109 0)"/>
       <use xlink:href="#DejaVuSerif-70" transform="translate(219.53125 0)"/>
       <use xlink:href="#DejaVuSerif-61" transform="translate(283.544922 0)"/>
       <use xlink:href="#DejaVuSerif-63" transform="translate(343.164062 0)"/>
       <use xlink:href="#DejaVuSerif-69" transform="translate(399.169922 0)"/>
       <use xlink:href="#DejaVuSerif-74" transform="translate(431.152344 0)"/>
       <use xlink:href="#DejaVuSerif-61" transform="translate(471.337891 0)"/>
       <use xlink:href="#DejaVuSerif-64" transform="translate(530.957031 0)"/>
       <use xlink:href="#DejaVuSerif-6f" transform="translate(594.970703 0)"/>
      </g>
     </g>
    </g>
    <g id="xtick_2">
     <g id="text_2">
      <!-- Quehaceres del hogar -->
      <g style="fill: #262626" transform="translate(202.459531 672.539062) rotate(-90) scale(0.1 -0.1)">
       <defs>
        <path id="DejaVuSerif-51" d="M 2700 -91 
Q 1628 -91 993 567 
Q 359 1225 359 2328 
Q 359 2894 529 3339 
Q 700 3784 1050 4134 
Q 1356 4441 1750 4595 
Q 2144 4750 2625 4750 
Q 3641 4750 4266 4084 
Q 4891 3419 4891 2328 
Q 4891 1403 4422 773 
Q 3953 144 3128 -38 
Q 3297 -247 3539 -347 
Q 3781 -447 4122 -447 
L 4219 -447 
L 4219 -1025 
Q 3691 -1000 3314 -767 
Q 2938 -534 2700 -91 
z
M 2625 244 
Q 3391 244 3781 770 
Q 4172 1297 4172 2328 
Q 4172 3363 3781 3889 
Q 3391 4416 2625 4416 
Q 1856 4416 1465 3889 
Q 1075 3363 1075 2328 
Q 1075 1297 1465 770 
Q 1856 244 2625 244 
z
" transform="scale(0.015625)"/>
        <path id="DejaVuSerif-75" d="M 2266 3322 
L 3341 3322 
L 3341 331 
L 3884 331 
L 3884 0 
L 2766 0 
L 2766 588 
Q 2606 256 2353 82 
Q 2100 -91 1766 -91 
Q 1213 -91 952 223 
Q 691 538 691 1209 
L 691 2988 
L 172 2988 
L 172 3322 
L 1269 3322 
L 1269 1388 
Q 1269 781 1417 556 
Q 1566 331 1947 331 
Q 2347 331 2556 625 
Q 2766 919 2766 1478 
L 2766 2988 
L 2266 2988 
L 2266 3322 
z
" transform="scale(0.015625)"/>
        <path id="DejaVuSerif-65" d="M 3469 1600 
L 991 1600 
L 991 1575 
Q 991 903 1244 561 
Q 1497 219 1991 219 
Q 2369 219 2611 417 
Q 2853 616 2950 1006 
L 3413 1006 
Q 3275 459 2904 184 
Q 2534 -91 1931 -91 
Q 1203 -91 761 389 
Q 319 869 319 1663 
Q 319 2450 753 2931 
Q 1188 3413 1894 3413 
Q 2647 3413 3050 2948 
Q 3453 2484 3469 1600 
z
M 2791 1931 
Q 2772 2513 2545 2808 
Q 2319 3103 1894 3103 
Q 1497 3103 1269 2806 
Q 1041 2509 991 1931 
L 2791 1931 
z
" transform="scale(0.015625)"/>
        <path id="DejaVuSerif-68" d="M 263 0 
L 263 331 
L 781 331 
L 781 4531 
L 231 4531 
L 231 4863 
L 1356 4863 
L 1356 2731 
Q 1516 3069 1770 3241 
Q 2025 3413 2363 3413 
Q 2913 3413 3172 3097 
Q 3431 2781 3431 2113 
L 3431 331 
L 3944 331 
L 3944 0 
L 2356 0 
L 2356 331 
L 2853 331 
L 2853 1931 
Q 2853 2541 2704 2764 
Q 2556 2988 2175 2988 
Q 1775 2988 1565 2697 
Q 1356 2406 1356 1850 
L 1356 331 
L 1856 331 
L 1856 0 
L 263 0 
z
" transform="scale(0.015625)"/>
        <path id="DejaVuSerif-72" d="M 3059 3328 
L 3059 2497 
L 2728 2497 
Q 2713 2744 2591 2866 
Q 2469 2988 2234 2988 
Q 1809 2988 1582 2694 
Q 1356 2400 1356 1850 
L 1356 331 
L 2022 331 
L 2022 0 
L 263 0 
L 263 331 
L 781 331 
L 781 2994 
L 231 2994 
L 231 3322 
L 1356 3322 
L 1356 2731 
Q 1525 3078 1790 3245 
Q 2056 3413 2438 3413 
Q 2578 3413 2733 3391 
Q 2888 3369 3059 3328 
z
" transform="scale(0.015625)"/>
        <path id="DejaVuSerif-73" d="M 359 184 
L 359 959 
L 691 959 
Q 703 588 923 403 
Q 1144 219 1575 219 
Q 1963 219 2166 364 
Q 2369 509 2369 788 
Q 2369 1006 2220 1140 
Q 2072 1275 1594 1428 
L 1178 1569 
Q 750 1706 558 1912 
Q 366 2119 366 2438 
Q 366 2894 700 3153 
Q 1034 3413 1625 3413 
Q 1888 3413 2178 3344 
Q 2469 3275 2778 3144 
L 2778 2419 
L 2447 2419 
Q 2434 2741 2221 2922 
Q 2009 3103 1644 3103 
Q 1281 3103 1095 2975 
Q 909 2847 909 2591 
Q 909 2381 1050 2254 
Q 1191 2128 1613 1997 
L 2069 1856 
Q 2541 1709 2748 1489 
Q 2956 1269 2956 922 
Q 2956 450 2595 179 
Q 2234 -91 1600 -91 
Q 1278 -91 972 -22 
Q 666 47 359 184 
z
" transform="scale(0.015625)"/>
        <path id="DejaVuSerif-20" transform="scale(0.015625)"/>
        <path id="DejaVuSerif-6c" d="M 1313 331 
L 1856 331 
L 1856 0 
L 184 0 
L 184 331 
L 738 331 
L 738 4531 
L 184 4531 
L 184 4863 
L 1313 4863 
L 1313 331 
z
" transform="scale(0.015625)"/>
        <path id="DejaVuSerif-67" d="M 3359 2988 
L 3359 72 
Q 3359 -644 2965 -1033 
Q 2572 -1422 1844 -1422 
Q 1516 -1422 1216 -1362 
Q 916 -1303 641 -1184 
L 641 -488 
L 941 -488 
Q 997 -813 1206 -963 
Q 1416 -1113 1806 -1113 
Q 2313 -1113 2548 -827 
Q 2784 -541 2784 72 
L 2784 519 
Q 2616 206 2355 57 
Q 2094 -91 1709 -91 
Q 1097 -91 708 395 
Q 319 881 319 1663 
Q 319 2444 706 2928 
Q 1094 3413 1709 3413 
Q 2094 3413 2355 3264 
Q 2616 3116 2784 2803 
L 2784 3322 
L 3909 3322 
L 3909 2988 
L 3359 2988 
z
M 2784 1825 
Q 2784 2422 2554 2737 
Q 2325 3053 1888 3053 
Q 1444 3053 1217 2703 
Q 991 2353 991 1663 
Q 991 975 1217 622 
Q 1444 269 1888 269 
Q 2325 269 2554 583 
Q 2784 897 2784 1497 
L 2784 1825 
z
" transform="scale(0.015625)"/>
       </defs>
       <use xlink:href="#DejaVuSerif-51"/>
       <use xlink:href="#DejaVuSerif-75" transform="translate(81.982422 0)"/>
       <use xlink:href="#DejaVuSerif-65" transform="translate(146.386719 0)"/>
       <use xlink:href="#DejaVuSerif-68" transform="translate(205.566406 0)"/>
       <use xlink:href="#DejaVuSerif-61" transform="translate(269.970703 0)"/>
       <use xlink:href="#DejaVuSerif-63" transform="translate(329.589844 0)"/>
       <use xlink:href="#DejaVuSerif-65" transform="translate(385.595703 0)"/>
       <use xlink:href="#DejaVuSerif-72" transform="translate(444.775391 0)"/>
       <use xlink:href="#DejaVuSerif-65" transform="translate(492.578125 0)"/>
       <use xlink:href="#DejaVuSerif-73" transform="translate(551.757812 0)"/>
       <use xlink:href="#DejaVuSerif-20" transform="translate(603.076172 0)"/>
       <use xlink:href="#DejaVuSerif-64" transform="translate(634.863281 0)"/>
       <use xlink:href="#DejaVuSerif-65" transform="translate(698.876953 0)"/>
       <use xlink:href="#DejaVuSerif-6c" transform="translate(758.056641 0)"/>
       <use xlink:href="#DejaVuSerif-20" transform="translate(790.039062 0)"/>
       <use xlink:href="#DejaVuSerif-68" transform="translate(821.826172 0)"/>
       <use xlink:href="#DejaVuSerif-6f" transform="translate(886.230469 0)"/>
       <use xlink:href="#DejaVuSerif-67" transform="translate(946.435547 0)"/>
       <use xlink:href="#DejaVuSerif-61" transform="translate(1010.449219 0)"/>
       <use xlink:href="#DejaVuSerif-72" transform="translate(1070.068359 0)"/>
      </g>
     </g>
    </g>
    <g id="xtick_3">
     <g id="text_3">
      <!-- Jubilado o pensionado -->
      <g style="fill: #262626" transform="translate(303.058125 672.695312) rotate(-90) scale(0.1 -0.1)">
       <defs>
        <path id="DejaVuSerif-4a" d="M -538 -1119 
L -538 -384 
L -181 -384 
Q -172 -694 -34 -845 
Q 103 -997 378 -997 
Q 750 -997 897 -762 
Q 1044 -528 1044 153 
L 1044 4331 
L 319 4331 
L 319 4666 
L 2272 4666 
L 2272 4331 
L 1678 4331 
L 1678 128 
Q 1678 -644 1368 -987 
Q 1059 -1331 372 -1331 
Q 150 -1331 -79 -1278 
Q -309 -1225 -538 -1119 
z
" transform="scale(0.015625)"/>
        <path id="DejaVuSerif-62" d="M 738 331 
L 738 4531 
L 184 4531 
L 184 4863 
L 1313 4863 
L 1313 2803 
Q 1481 3116 1742 3264 
Q 2003 3413 2388 3413 
Q 3000 3413 3387 2928 
Q 3775 2444 3775 1663 
Q 3775 881 3387 395 
Q 3000 -91 2388 -91 
Q 2003 -91 1742 57 
Q 1481 206 1313 519 
L 1313 0 
L 184 0 
L 184 331 
L 738 331 
z
M 1313 1497 
Q 1313 897 1542 583 
Q 1772 269 2209 269 
Q 2650 269 2876 622 
Q 3103 975 3103 1663 
Q 3103 2353 2876 2703 
Q 2650 3053 2209 3053 
Q 1772 3053 1542 2737 
Q 1313 2422 1313 1825 
L 1313 1497 
z
" transform="scale(0.015625)"/>
       </defs>
       <use xlink:href="#DejaVuSerif-4a"/>
       <use xlink:href="#DejaVuSerif-75" transform="translate(40.087891 0)"/>
       <use xlink:href="#DejaVuSerif-62" transform="translate(104.492188 0)"/>
       <use xlink:href="#DejaVuSerif-69" transform="translate(168.505859 0)"/>
       <use xlink:href="#DejaVuSerif-6c" transform="translate(200.488281 0)"/>
       <use xlink:href="#DejaVuSerif-61" transform="translate(232.470703 0)"/>
       <use xlink:href="#DejaVuSerif-64" transform="translate(292.089844 0)"/>
       <use xlink:href="#DejaVuSerif-6f" transform="translate(356.103516 0)"/>
       <use xlink:href="#DejaVuSerif-20" transform="translate(416.308594 0)"/>
       <use xlink:href="#DejaVuSerif-6f" transform="translate(448.095703 0)"/>
       <use xlink:href="#DejaVuSerif-20" transform="translate(508.300781 0)"/>
       <use xlink:href="#DejaVuSerif-70" transform="translate(540.087891 0)"/>
       <use xlink:href="#DejaVuSerif-65" transform="translate(604.101562 0)"/>
       <use xlink:href="#DejaVuSerif-6e" transform="translate(663.28125 0)"/>
       <use xlink:href="#DejaVuSerif-73" transform="translate(727.685547 0)"/>
       <use xlink:href="#DejaVuSerif-69" transform="translate(779.003906 0)"/>
       <use xlink:href="#DejaVuSerif-6f" transform="translate(810.986328 0)"/>
       <use xlink:href="#DejaVuSerif-6e" transform="translate(871.191406 0)"/>
       <use xlink:href="#DejaVuSerif-61" transform="translate(935.595703 0)"/>
       <use xlink:href="#DejaVuSerif-64" transform="translate(995.214844 0)"/>
       <use xlink:href="#DejaVuSerif-6f" transform="translate(1059.228516 0)"/>
      </g>
     </g>
    </g>
    <g id="xtick_4">
     <g id="text_4">
      <!-- Empleado -->
      <g style="fill: #262626" transform="translate(403.585625 611.435938) rotate(-90) scale(0.1 -0.1)">
       <defs>
        <path id="DejaVuSerif-45" d="M 353 0 
L 353 331 
L 947 331 
L 947 4331 
L 353 4331 
L 353 4666 
L 4109 4666 
L 4109 3628 
L 3725 3628 
L 3725 4281 
L 1581 4281 
L 1581 2719 
L 3109 2719 
L 3109 3303 
L 3494 3303 
L 3494 1753 
L 3109 1753 
L 3109 2338 
L 1581 2338 
L 1581 384 
L 3775 384 
L 3775 1038 
L 4159 1038 
L 4159 0 
L 353 0 
z
" transform="scale(0.015625)"/>
        <path id="DejaVuSerif-6d" d="M 3316 2675 
Q 3481 3041 3739 3227 
Q 3997 3413 4341 3413 
Q 4863 3413 5119 3089 
Q 5375 2766 5375 2113 
L 5375 331 
L 5894 331 
L 5894 0 
L 4300 0 
L 4300 331 
L 4800 331 
L 4800 2047 
Q 4800 2556 4650 2772 
Q 4500 2988 4153 2988 
Q 3769 2988 3567 2697 
Q 3366 2406 3366 1850 
L 3366 331 
L 3866 331 
L 3866 0 
L 2291 0 
L 2291 331 
L 2791 331 
L 2791 2069 
Q 2791 2566 2641 2777 
Q 2491 2988 2144 2988 
Q 1759 2988 1557 2697 
Q 1356 2406 1356 1850 
L 1356 331 
L 1856 331 
L 1856 0 
L 263 0 
L 263 331 
L 781 331 
L 781 2994 
L 231 2994 
L 231 3322 
L 1356 3322 
L 1356 2731 
Q 1516 3063 1762 3238 
Q 2009 3413 2322 3413 
Q 2709 3413 2968 3220 
Q 3228 3028 3316 2675 
z
" transform="scale(0.015625)"/>
       </defs>
       <use xlink:href="#DejaVuSerif-45"/>
       <use xlink:href="#DejaVuSerif-6d" transform="translate(72.998047 0)"/>
       <use xlink:href="#DejaVuSerif-70" transform="translate(167.822266 0)"/>
       <use xlink:href="#DejaVuSerif-6c" transform="translate(231.835938 0)"/>
       <use xlink:href="#DejaVuSerif-65" transform="translate(263.818359 0)"/>
       <use xlink:href="#DejaVuSerif-61" transform="translate(322.998047 0)"/>
       <use xlink:href="#DejaVuSerif-64" transform="translate(382.617188 0)"/>
       <use xlink:href="#DejaVuSerif-6f" transform="translate(446.630859 0)"/>
      </g>
     </g>
    </g>
    <g id="xtick_5">
     <g id="text_5">
      <!-- Otra situación -->
      <g style="fill: #262626" transform="translate(504.113125 632.898438) rotate(-90) scale(0.1 -0.1)">
       <defs>
        <path id="DejaVuSerif-4f" d="M 2625 244 
Q 3391 244 3781 770 
Q 4172 1297 4172 2328 
Q 4172 3363 3781 3889 
Q 3391 4416 2625 4416 
Q 1856 4416 1465 3889 
Q 1075 3363 1075 2328 
Q 1075 1297 1465 770 
Q 1856 244 2625 244 
z
M 2625 -91 
Q 2150 -91 1751 65 
Q 1353 222 1050 525 
Q 700 875 529 1319 
Q 359 1763 359 2328 
Q 359 2894 529 3339 
Q 700 3784 1050 4134 
Q 1356 4441 1750 4595 
Q 2144 4750 2625 4750 
Q 3641 4750 4266 4084 
Q 4891 3419 4891 2328 
Q 4891 1769 4719 1320 
Q 4547 872 4197 525 
Q 3891 219 3497 64 
Q 3103 -91 2625 -91 
z
" transform="scale(0.015625)"/>
        <path id="DejaVuSerif-f3" d="M 1925 219 
Q 2388 219 2623 584 
Q 2859 950 2859 1663 
Q 2859 2375 2623 2739 
Q 2388 3103 1925 3103 
Q 1463 3103 1227 2739 
Q 991 2375 991 1663 
Q 991 950 1228 584 
Q 1466 219 1925 219 
z
M 1925 -91 
Q 1200 -91 759 389 
Q 319 869 319 1663 
Q 319 2456 758 2934 
Q 1197 3413 1925 3413 
Q 2653 3413 3092 2934 
Q 3531 2456 3531 1663 
Q 3531 869 3092 389 
Q 2653 -91 1925 -91 
z
M 2359 5119 
L 2981 5119 
L 1919 3944 
L 1553 3944 
L 2359 5119 
z
" transform="scale(0.015625)"/>
       </defs>
       <use xlink:href="#DejaVuSerif-4f"/>
       <use xlink:href="#DejaVuSerif-74" transform="translate(81.982422 0)"/>
       <use xlink:href="#DejaVuSerif-72" transform="translate(122.167969 0)"/>
       <use xlink:href="#DejaVuSerif-61" transform="translate(169.970703 0)"/>
       <use xlink:href="#DejaVuSerif-20" transform="translate(229.589844 0)"/>
       <use xlink:href="#DejaVuSerif-73" transform="translate(261.376953 0)"/>
       <use xlink:href="#DejaVuSerif-69" transform="translate(312.695312 0)"/>
       <use xlink:href="#DejaVuSerif-74" transform="translate(344.677734 0)"/>
       <use xlink:href="#DejaVuSerif-75" transform="translate(384.863281 0)"/>
       <use xlink:href="#DejaVuSerif-61" transform="translate(449.267578 0)"/>
       <use xlink:href="#DejaVuSerif-63" transform="translate(508.886719 0)"/>
       <use xlink:href="#DejaVuSerif-69" transform="translate(564.892578 0)"/>
       <use xlink:href="#DejaVuSerif-f3" transform="translate(596.875 0)"/>
       <use xlink:href="#DejaVuSerif-6e" transform="translate(657.080078 0)"/>
      </g>
     </g>
    </g>
    <g id="xtick_6">
     <g id="text_6">
      <!-- Estudiante -->
      <g style="fill: #262626" transform="translate(604.640625 615.58125) rotate(-90) scale(0.1 -0.1)">
       <use xlink:href="#DejaVuSerif-45"/>
       <use xlink:href="#DejaVuSerif-73" transform="translate(72.998047 0)"/>
       <use xlink:href="#DejaVuSerif-74" transform="translate(124.316406 0)"/>
       <use xlink:href="#DejaVuSerif-75" transform="translate(164.501953 0)"/>
       <use xlink:href="#DejaVuSerif-64" transform="translate(228.90625 0)"/>
       <use xlink:href="#DejaVuSerif-69" transform="translate(292.919922 0)"/>
       <use xlink:href="#DejaVuSerif-61" transform="translate(324.902344 0)"/>
       <use xlink:href="#DejaVuSerif-6e" transform="translate(384.521484 0)"/>
       <use xlink:href="#DejaVuSerif-74" transform="translate(448.925781 0)"/>
       <use xlink:href="#DejaVuSerif-65" transform="translate(489.111328 0)"/>
      </g>
     </g>
    </g>
    <g id="xtick_7">
     <g id="text_7">
      <!-- Trabajador sin pago -->
      <g style="fill: #262626" transform="translate(705.097031 662.703125) rotate(-90) scale(0.1 -0.1)">
       <defs>
        <path id="DejaVuSerif-54" d="M 1222 0 
L 1222 331 
L 1819 331 
L 1819 4294 
L 447 4294 
L 447 3566 
L 63 3566 
L 63 4666 
L 4206 4666 
L 4206 3566 
L 3822 3566 
L 3822 4294 
L 2450 4294 
L 2450 331 
L 3047 331 
L 3047 0 
L 1222 0 
z
" transform="scale(0.015625)"/>
        <path id="DejaVuSerif-6a" d="M 641 4353 
Q 641 4497 745 4603 
Q 850 4709 997 4709 
Q 1141 4709 1245 4603 
Q 1350 4497 1350 4353 
Q 1350 4206 1248 4103 
Q 1147 4000 997 4000 
Q 850 4000 745 4103 
Q 641 4206 641 4353 
z
M 781 2988 
L 238 2988 
L 238 3322 
L 1356 3322 
L 1356 -325 
Q 1356 -838 1051 -1130 
Q 747 -1422 213 -1422 
Q -13 -1422 -217 -1370 
Q -422 -1319 -616 -1216 
L -616 -531 
L -319 -531 
Q -297 -831 -164 -972 
Q -31 -1113 225 -1113 
Q 509 -1113 645 -920 
Q 781 -728 781 -325 
L 781 2988 
z
" transform="scale(0.015625)"/>
       </defs>
       <use xlink:href="#DejaVuSerif-54"/>
       <use xlink:href="#DejaVuSerif-72" transform="translate(66.699219 0)"/>
       <use xlink:href="#DejaVuSerif-61" transform="translate(114.501953 0)"/>
       <use xlink:href="#DejaVuSerif-62" transform="translate(174.121094 0)"/>
       <use xlink:href="#DejaVuSerif-61" transform="translate(238.134766 0)"/>
       <use xlink:href="#DejaVuSerif-6a" transform="translate(297.753906 0)"/>
       <use xlink:href="#DejaVuSerif-61" transform="translate(328.759766 0)"/>
       <use xlink:href="#DejaVuSerif-64" transform="translate(388.378906 0)"/>
       <use xlink:href="#DejaVuSerif-6f" transform="translate(452.392578 0)"/>
       <use xlink:href="#DejaVuSerif-72" transform="translate(512.597656 0)"/>
       <use xlink:href="#DejaVuSerif-20" transform="translate(560.400391 0)"/>
       <use xlink:href="#DejaVuSerif-73" transform="translate(592.1875 0)"/>
       <use xlink:href="#DejaVuSerif-69" transform="translate(643.505859 0)"/>
       <use xlink:href="#DejaVuSerif-6e" transform="translate(675.488281 0)"/>
       <use xlink:href="#DejaVuSerif-20" transform="translate(739.892578 0)"/>
       <use xlink:href="#DejaVuSerif-70" transform="translate(771.679688 0)"/>
       <use xlink:href="#DejaVuSerif-61" transform="translate(835.693359 0)"/>
       <use xlink:href="#DejaVuSerif-67" transform="translate(895.3125 0)"/>
       <use xlink:href="#DejaVuSerif-6f" transform="translate(959.326172 0)"/>
      </g>
     </g>
    </g>
    <g id="xtick_8">
     <g id="text_8">
      <!-- Trabajador por su cuenta -->
      <g style="fill: #262626" transform="translate(805.624531 689.479687) rotate(-90) scale(0.1 -0.1)">
       <use xlink:href="#DejaVuSerif-54"/>
       <use xlink:href="#DejaVuSerif-72" transform="translate(66.699219 0)"/>
       <use xlink:href="#DejaVuSerif-61" transform="translate(114.501953 0)"/>
       <use xlink:href="#DejaVuSerif-62" transform="translate(174.121094 0)"/>
       <use xlink:href="#DejaVuSerif-61" transform="translate(238.134766 0)"/>
       <use xlink:href="#DejaVuSerif-6a" transform="translate(297.753906 0)"/>
       <use xlink:href="#DejaVuSerif-61" transform="translate(328.759766 0)"/>
       <use xlink:href="#DejaVuSerif-64" transform="translate(388.378906 0)"/>
       <use xlink:href="#DejaVuSerif-6f" transform="translate(452.392578 0)"/>
       <use xlink:href="#DejaVuSerif-72" transform="translate(512.597656 0)"/>
       <use xlink:href="#DejaVuSerif-20" transform="translate(560.400391 0)"/>
       <use xlink:href="#DejaVuSerif-70" transform="translate(592.1875 0)"/>
       <use xlink:href="#DejaVuSerif-6f" transform="translate(656.201172 0)"/>
       <use xlink:href="#DejaVuSerif-72" transform="translate(716.40625 0)"/>
       <use xlink:href="#DejaVuSerif-20" transform="translate(764.208984 0)"/>
       <use xlink:href="#DejaVuSerif-73" transform="translate(795.996094 0)"/>
       <use xlink:href="#DejaVuSerif-75" transform="translate(847.314453 0)"/>
       <use xlink:href="#DejaVuSerif-20" transform="translate(911.71875 0)"/>
       <use xlink:href="#DejaVuSerif-63" transform="translate(943.505859 0)"/>
       <use xlink:href="#DejaVuSerif-75" transform="translate(999.511719 0)"/>
       <use xlink:href="#DejaVuSerif-65" transform="translate(1063.916016 0)"/>
       <use xlink:href="#DejaVuSerif-6e" transform="translate(1123.095703 0)"/>
       <use xlink:href="#DejaVuSerif-74" transform="translate(1187.5 0)"/>
       <use xlink:href="#DejaVuSerif-61" transform="translate(1227.685547 0)"/>
      </g>
     </g>
    </g>
    <g id="text_9">
     <!-- Ocupación -->
     <g style="fill: #262626" transform="translate(406.562266 705.477344) scale(0.15 -0.15)">
      <defs>
       <path id="DejaVuSerif-Bold-4f" d="M 2784 288 
Q 3381 288 3672 791 
Q 3963 1294 3963 2328 
Q 3963 3366 3672 3869 
Q 3381 4372 2784 4372 
Q 2191 4372 1898 3864 
Q 1606 3356 1606 2328 
Q 1606 1303 1898 795 
Q 2191 288 2784 288 
z
M 2784 -91 
Q 1606 -91 937 553 
Q 269 1197 269 2328 
Q 269 3459 939 4104 
Q 1609 4750 2784 4750 
Q 3963 4750 4631 4106 
Q 5300 3463 5300 2328 
Q 5300 1197 4629 553 
Q 3959 -91 2784 -91 
z
" transform="scale(0.015625)"/>
       <path id="DejaVuSerif-Bold-63" d="M 3609 1038 
Q 3491 469 3123 189 
Q 2756 -91 2125 -91 
Q 1238 -91 750 368 
Q 263 828 263 1663 
Q 263 2488 744 2950 
Q 1225 3413 2081 3413 
Q 2428 3413 2781 3347 
Q 3134 3281 3500 3150 
L 3500 2228 
L 3150 2228 
Q 3100 2650 2903 2854 
Q 2706 3059 2350 3059 
Q 1888 3059 1692 2746 
Q 1497 2434 1497 1663 
Q 1497 909 1687 586 
Q 1878 263 2309 263 
Q 2644 263 2845 463 
Q 3047 663 3091 1038 
L 3609 1038 
z
" transform="scale(0.015625)"/>
       <path id="DejaVuSerif-Bold-75" d="M 3963 3322 
L 3963 378 
L 4434 378 
L 4434 0 
L 2853 0 
L 2853 469 
Q 2656 172 2400 40 
Q 2144 -91 1753 -91 
Q 1194 -91 908 239 
Q 622 569 622 1209 
L 622 2944 
L 147 2944 
L 147 3322 
L 1728 3322 
L 1728 1381 
Q 1728 763 1831 595 
Q 1934 428 2209 428 
Q 2544 428 2698 675 
Q 2853 922 2853 1459 
L 2853 2944 
L 2450 2944 
L 2450 3322 
L 3963 3322 
z
" transform="scale(0.015625)"/>
       <path id="DejaVuSerif-Bold-70" d="M 1728 1825 
L 1728 1497 
Q 1728 916 1876 656 
Q 2025 397 2356 397 
Q 2697 397 2836 672 
Q 2975 947 2975 1663 
Q 2975 2378 2836 2651 
Q 2697 2925 2356 2925 
Q 2025 2925 1876 2665 
Q 1728 2406 1728 1825 
z
M 622 2944 
L 147 2944 
L 147 3322 
L 1728 3322 
L 1728 2900 
Q 1869 3159 2106 3286 
Q 2344 3413 2694 3413 
Q 3403 3413 3811 2945 
Q 4219 2478 4219 1663 
Q 4219 847 3811 378 
Q 3403 -91 2694 -91 
Q 2344 -91 2106 36 
Q 1869 163 1728 422 
L 1728 -953 
L 2241 -953 
L 2241 -1331 
L 147 -1331 
L 147 -953 
L 622 -953 
L 622 2944 
z
" transform="scale(0.015625)"/>
       <path id="DejaVuSerif-Bold-61" d="M 3525 2041 
L 3525 378 
L 4000 378 
L 4000 0 
L 2419 0 
L 2419 422 
Q 2200 159 1931 34 
Q 1663 -91 1319 -91 
Q 809 -91 536 182 
Q 263 456 263 966 
Q 263 1525 655 1803 
Q 1047 2081 1838 2081 
L 2419 2081 
L 2419 2278 
Q 2419 2681 2228 2873 
Q 2038 3066 1638 3066 
Q 1306 3066 1126 2930 
Q 947 2794 872 2484 
L 519 2484 
L 519 3200 
Q 816 3306 1134 3359 
Q 1453 3413 1806 3413 
Q 2697 3413 3111 3081 
Q 3525 2750 3525 2041 
z
M 2419 1044 
L 2419 1709 
L 2003 1709 
Q 1694 1709 1528 1540 
Q 1363 1372 1363 1056 
Q 1363 741 1483 584 
Q 1603 428 1850 428 
Q 2106 428 2262 597 
Q 2419 766 2419 1044 
z
" transform="scale(0.015625)"/>
       <path id="DejaVuSerif-Bold-69" d="M 588 4263 
Q 588 4516 763 4689 
Q 938 4863 1191 4863 
Q 1438 4863 1611 4689 
Q 1784 4516 1784 4263 
Q 1784 4016 1611 3842 
Q 1438 3669 1191 3669 
Q 938 3669 763 3841 
Q 588 4013 588 4263 
z
M 1797 378 
L 2272 378 
L 2272 0 
L 219 0 
L 219 378 
L 691 378 
L 691 2944 
L 219 2944 
L 219 3322 
L 1797 3322 
L 1797 378 
z
" transform="scale(0.015625)"/>
       <path id="DejaVuSerif-Bold-f3" d="M 2138 263 
Q 2488 263 2630 563 
Q 2772 863 2772 1663 
Q 2772 2463 2631 2761 
Q 2491 3059 2138 3059 
Q 1784 3059 1640 2757 
Q 1497 2456 1497 1663 
Q 1497 869 1640 566 
Q 1784 263 2138 263 
z
M 2138 -91 
Q 1259 -91 761 376 
Q 263 844 263 1663 
Q 263 2484 761 2948 
Q 1259 3413 2138 3413 
Q 3019 3413 3516 2948 
Q 4013 2484 4013 1663 
Q 4013 844 3514 376 
Q 3016 -91 2138 -91 
z
M 2425 5119 
L 3297 5119 
L 2131 3944 
L 1619 3944 
L 2425 5119 
z
" transform="scale(0.015625)"/>
       <path id="DejaVuSerif-Bold-6e" d="M 219 0 
L 219 378 
L 691 378 
L 691 2944 
L 219 2944 
L 219 3322 
L 1797 3322 
L 1797 2853 
Q 1997 3150 2253 3281 
Q 2509 3413 2900 3413 
Q 3459 3413 3745 3083 
Q 4031 2753 4031 2113 
L 4031 378 
L 4506 378 
L 4506 0 
L 2522 0 
L 2522 378 
L 2925 378 
L 2925 2144 
Q 2925 2566 2817 2730 
Q 2709 2894 2444 2894 
Q 2109 2894 1953 2648 
Q 1797 2403 1797 1869 
L 1797 378 
L 2203 378 
L 2203 0 
L 219 0 
z
" transform="scale(0.015625)"/>
      </defs>
      <use xlink:href="#DejaVuSerif-Bold-4f"/>
      <use xlink:href="#DejaVuSerif-Bold-63" transform="translate(87.109375 0)"/>
      <use xlink:href="#DejaVuSerif-Bold-75" transform="translate(147.998047 0)"/>
      <use xlink:href="#DejaVuSerif-Bold-70" transform="translate(220.703125 0)"/>
      <use xlink:href="#DejaVuSerif-Bold-61" transform="translate(290.625 0)"/>
      <use xlink:href="#DejaVuSerif-Bold-63" transform="translate(355.419922 0)"/>
      <use xlink:href="#DejaVuSerif-Bold-69" transform="translate(416.308594 0)"/>
      <use xlink:href="#DejaVuSerif-Bold-f3" transform="translate(454.296875 0)"/>
      <use xlink:href="#DejaVuSerif-Bold-6e" transform="translate(520.996094 0)"/>
     </g>
    </g>
   </g>
   <g id="matplotlib.axis_2">
    <g id="ytick_1">
     <g id="line2d_1">
      <path d="M 48.98 535.910248 
L 853.2 535.910248 
" clip-path="url(#pf85c7f8deb)" style="fill: none; stroke: #cccccc; stroke-width: 0.8; stroke-linecap: round"/>
     </g>
     <g id="text_10">
      <!-- 10 -->
      <g style="fill: #262626" transform="translate(29.255 539.709467) scale(0.1 -0.1)">
       <defs>
        <path id="DejaVuSerif-31" d="M 909 0 
L 909 331 
L 1722 331 
L 1722 4213 
L 781 3603 
L 781 4013 
L 1919 4750 
L 2350 4750 
L 2350 331 
L 3163 331 
L 3163 0 
L 909 0 
z
" transform="scale(0.015625)"/>
        <path id="DejaVuSerif-30" d="M 2034 219 
Q 2513 219 2750 744 
Q 2988 1269 2988 2328 
Q 2988 3391 2750 3916 
Q 2513 4441 2034 4441 
Q 1556 4441 1318 3916 
Q 1081 3391 1081 2328 
Q 1081 1269 1318 744 
Q 1556 219 2034 219 
z
M 2034 -91 
Q 1275 -91 848 546 
Q 422 1184 422 2328 
Q 422 3475 848 4112 
Q 1275 4750 2034 4750 
Q 2797 4750 3222 4112 
Q 3647 3475 3647 2328 
Q 3647 1184 3222 546 
Q 2797 -91 2034 -91 
z
" transform="scale(0.015625)"/>
       </defs>
       <use xlink:href="#DejaVuSerif-31"/>
       <use xlink:href="#DejaVuSerif-30" transform="translate(63.623047 0)"/>
      </g>
     </g>
    </g>
    <g id="ytick_2">
     <g id="line2d_2">
      <path d="M 48.98 473.873173 
L 853.2 473.873173 
" clip-path="url(#pf85c7f8deb)" style="fill: none; stroke: #cccccc; stroke-width: 0.8; stroke-linecap: round"/>
     </g>
     <g id="text_11">
      <!-- 20 -->
      <g style="fill: #262626" transform="translate(29.255 477.672391) scale(0.1 -0.1)">
       <defs>
        <path id="DejaVuSerif-32" d="M 819 3553 
L 469 3553 
L 469 4384 
Q 803 4563 1142 4656 
Q 1481 4750 1806 4750 
Q 2534 4750 2956 4397 
Q 3378 4044 3378 3438 
Q 3378 2753 2422 1800 
Q 2347 1728 2309 1691 
L 1131 513 
L 3078 513 
L 3078 1088 
L 3444 1088 
L 3444 0 
L 434 0 
L 434 341 
L 1850 1753 
Q 2319 2222 2519 2614 
Q 2719 3006 2719 3438 
Q 2719 3909 2473 4175 
Q 2228 4441 1797 4441 
Q 1350 4441 1106 4219 
Q 863 3997 819 3553 
z
" transform="scale(0.015625)"/>
       </defs>
       <use xlink:href="#DejaVuSerif-32"/>
       <use xlink:href="#DejaVuSerif-30" transform="translate(63.623047 0)"/>
      </g>
     </g>
    </g>
    <g id="ytick_3">
     <g id="line2d_3">
      <path d="M 48.98 411.836097 
L 853.2 411.836097 
" clip-path="url(#pf85c7f8deb)" style="fill: none; stroke: #cccccc; stroke-width: 0.8; stroke-linecap: round"/>
     </g>
     <g id="text_12">
      <!-- 30 -->
      <g style="fill: #262626" transform="translate(29.255 415.635316) scale(0.1 -0.1)">
       <defs>
        <path id="DejaVuSerif-33" d="M 622 4469 
Q 988 4606 1323 4678 
Q 1659 4750 1953 4750 
Q 2638 4750 3022 4454 
Q 3406 4159 3406 3634 
Q 3406 3213 3140 2930 
Q 2875 2647 2388 2547 
Q 2963 2466 3280 2130 
Q 3597 1794 3597 1259 
Q 3597 606 3158 257 
Q 2719 -91 1894 -91 
Q 1528 -91 1179 -12 
Q 831 66 488 225 
L 488 1131 
L 838 1131 
Q 869 681 1141 450 
Q 1413 219 1906 219 
Q 2384 219 2661 495 
Q 2938 772 2938 1253 
Q 2938 1803 2653 2086 
Q 2369 2369 1819 2369 
L 1522 2369 
L 1522 2688 
L 1678 2688 
Q 2225 2688 2498 2914 
Q 2772 3141 2772 3597 
Q 2772 4006 2547 4223 
Q 2322 4441 1900 4441 
Q 1478 4441 1245 4241 
Q 1013 4041 972 3647 
L 622 3647 
L 622 4469 
z
" transform="scale(0.015625)"/>
       </defs>
       <use xlink:href="#DejaVuSerif-33"/>
       <use xlink:href="#DejaVuSerif-30" transform="translate(63.623047 0)"/>
      </g>
     </g>
    </g>
    <g id="ytick_4">
     <g id="line2d_4">
      <path d="M 48.98 349.799021 
L 853.2 349.799021 
" clip-path="url(#pf85c7f8deb)" style="fill: none; stroke: #cccccc; stroke-width: 0.8; stroke-linecap: round"/>
     </g>
     <g id="text_13">
      <!-- 40 -->
      <g style="fill: #262626" transform="translate(29.255 353.59824) scale(0.1 -0.1)">
       <defs>
        <path id="DejaVuSerif-34" d="M 2234 1581 
L 2234 4063 
L 641 1581 
L 2234 1581 
z
M 3609 0 
L 1484 0 
L 1484 331 
L 2234 331 
L 2234 1247 
L 197 1247 
L 197 1588 
L 2241 4750 
L 2859 4750 
L 2859 1581 
L 3750 1581 
L 3750 1247 
L 2859 1247 
L 2859 331 
L 3609 331 
L 3609 0 
z
" transform="scale(0.015625)"/>
       </defs>
       <use xlink:href="#DejaVuSerif-34"/>
       <use xlink:href="#DejaVuSerif-30" transform="translate(63.623047 0)"/>
      </g>
     </g>
    </g>
    <g id="ytick_5">
     <g id="line2d_5">
      <path d="M 48.98 287.761946 
L 853.2 287.761946 
" clip-path="url(#pf85c7f8deb)" style="fill: none; stroke: #cccccc; stroke-width: 0.8; stroke-linecap: round"/>
     </g>
     <g id="text_14">
      <!-- 50 -->
      <g style="fill: #262626" transform="translate(29.255 291.561164) scale(0.1 -0.1)">
       <defs>
        <path id="DejaVuSerif-35" d="M 3219 4666 
L 3219 4153 
L 1081 4153 
L 1081 2816 
Q 1244 2928 1461 2984 
Q 1678 3041 1947 3041 
Q 2703 3041 3140 2622 
Q 3578 2203 3578 1478 
Q 3578 738 3136 323 
Q 2694 -91 1894 -91 
Q 1572 -91 1234 -12 
Q 897 66 544 225 
L 544 1131 
L 897 1131 
Q 925 688 1179 453 
Q 1434 219 1894 219 
Q 2388 219 2653 544 
Q 2919 869 2919 1478 
Q 2919 2084 2655 2407 
Q 2391 2731 1894 2731 
Q 1613 2731 1398 2631 
Q 1184 2531 1019 2322 
L 750 2322 
L 750 4666 
L 3219 4666 
z
" transform="scale(0.015625)"/>
       </defs>
       <use xlink:href="#DejaVuSerif-35"/>
       <use xlink:href="#DejaVuSerif-30" transform="translate(63.623047 0)"/>
      </g>
     </g>
    </g>
    <g id="ytick_6">
     <g id="line2d_6">
      <path d="M 48.98 225.72487 
L 853.2 225.72487 
" clip-path="url(#pf85c7f8deb)" style="fill: none; stroke: #cccccc; stroke-width: 0.8; stroke-linecap: round"/>
     </g>
     <g id="text_15">
      <!-- 60 -->
      <g style="fill: #262626" transform="translate(29.255 229.524089) scale(0.1 -0.1)">
       <defs>
        <path id="DejaVuSerif-36" d="M 2094 219 
Q 2534 219 2771 542 
Q 3009 866 3009 1472 
Q 3009 2078 2771 2401 
Q 2534 2725 2094 2725 
Q 1647 2725 1412 2412 
Q 1178 2100 1178 1509 
Q 1178 888 1415 553 
Q 1653 219 2094 219 
z
M 1075 2569 
Q 1288 2803 1556 2918 
Q 1825 3034 2163 3034 
Q 2859 3034 3264 2615 
Q 3669 2197 3669 1472 
Q 3669 763 3233 336 
Q 2797 -91 2069 -91 
Q 1278 -91 853 498 
Q 428 1088 428 2181 
Q 428 3406 931 4078 
Q 1434 4750 2350 4750 
Q 2597 4750 2869 4703 
Q 3141 4656 3425 4563 
L 3425 3794 
L 3072 3794 
Q 3034 4109 2831 4275 
Q 2628 4441 2284 4441 
Q 1678 4441 1381 3981 
Q 1084 3522 1075 2569 
z
" transform="scale(0.015625)"/>
       </defs>
       <use xlink:href="#DejaVuSerif-36"/>
       <use xlink:href="#DejaVuSerif-30" transform="translate(63.623047 0)"/>
      </g>
     </g>
    </g>
    <g id="ytick_7">
     <g id="line2d_7">
      <path d="M 48.98 163.687794 
L 853.2 163.687794 
" clip-path="url(#pf85c7f8deb)" style="fill: none; stroke: #cccccc; stroke-width: 0.8; stroke-linecap: round"/>
     </g>
     <g id="text_16">
      <!-- 70 -->
      <g style="fill: #262626" transform="translate(29.255 167.487013) scale(0.1 -0.1)">
       <defs>
        <path id="DejaVuSerif-37" d="M 3609 4347 
L 1784 0 
L 1319 0 
L 3059 4153 
L 903 4153 
L 903 3578 
L 538 3578 
L 538 4666 
L 3609 4666 
L 3609 4347 
z
" transform="scale(0.015625)"/>
       </defs>
       <use xlink:href="#DejaVuSerif-37"/>
       <use xlink:href="#DejaVuSerif-30" transform="translate(63.623047 0)"/>
      </g>
     </g>
    </g>
    <g id="ytick_8">
     <g id="line2d_8">
      <path d="M 48.98 101.650719 
L 853.2 101.650719 
" clip-path="url(#pf85c7f8deb)" style="fill: none; stroke: #cccccc; stroke-width: 0.8; stroke-linecap: round"/>
     </g>
     <g id="text_17">
      <!-- 80 -->
      <g style="fill: #262626" transform="translate(29.255 105.449937) scale(0.1 -0.1)">
       <defs>
        <path id="DejaVuSerif-38" d="M 2981 1275 
Q 2981 1775 2732 2051 
Q 2484 2328 2034 2328 
Q 1584 2328 1336 2051 
Q 1088 1775 1088 1275 
Q 1088 772 1336 495 
Q 1584 219 2034 219 
Q 2484 219 2732 495 
Q 2981 772 2981 1275 
z
M 2853 3541 
Q 2853 3966 2637 4203 
Q 2422 4441 2034 4441 
Q 1650 4441 1433 4203 
Q 1216 3966 1216 3541 
Q 1216 3113 1433 2875 
Q 1650 2638 2034 2638 
Q 2422 2638 2637 2875 
Q 2853 3113 2853 3541 
z
M 2516 2484 
Q 3047 2413 3344 2092 
Q 3641 1772 3641 1275 
Q 3641 619 3225 264 
Q 2809 -91 2034 -91 
Q 1263 -91 845 264 
Q 428 619 428 1275 
Q 428 1772 725 2092 
Q 1022 2413 1556 2484 
Q 1084 2569 832 2842 
Q 581 3116 581 3541 
Q 581 4103 968 4426 
Q 1356 4750 2034 4750 
Q 2713 4750 3100 4426 
Q 3488 4103 3488 3541 
Q 3488 3116 3236 2842 
Q 2984 2569 2516 2484 
z
" transform="scale(0.015625)"/>
       </defs>
       <use xlink:href="#DejaVuSerif-38"/>
       <use xlink:href="#DejaVuSerif-30" transform="translate(63.623047 0)"/>
      </g>
     </g>
    </g>
    <g id="text_18">
     <!-- Edad -->
     <g style="fill: #262626" transform="translate(22.135469 325.851453) rotate(-90) scale(0.15 -0.15)">
      <defs>
       <path id="DejaVuSerif-Bold-45" d="M 300 0 
L 300 378 
L 897 378 
L 897 4288 
L 300 4288 
L 300 4666 
L 4494 4666 
L 4494 3566 
L 4063 3566 
L 4063 4238 
L 2100 4238 
L 2100 2741 
L 3322 2741 
L 3322 3334 
L 3750 3334 
L 3750 1722 
L 3322 1722 
L 3322 2316 
L 2100 2316 
L 2100 428 
L 4122 428 
L 4122 1100 
L 4550 1100 
L 4550 0 
L 300 0 
z
" transform="scale(0.015625)"/>
       <path id="DejaVuSerif-Bold-64" d="M 2747 1497 
L 2747 1825 
Q 2747 2406 2597 2665 
Q 2447 2925 2119 2925 
Q 1775 2925 1636 2651 
Q 1497 2378 1497 1663 
Q 1497 947 1637 672 
Q 1778 397 2119 397 
Q 2447 397 2597 656 
Q 2747 916 2747 1497 
z
M 3853 378 
L 4325 378 
L 4325 0 
L 2747 0 
L 2747 422 
Q 2606 163 2367 36 
Q 2128 -91 1778 -91 
Q 1072 -91 667 378 
Q 263 847 263 1663 
Q 263 2481 667 2947 
Q 1072 3413 1778 3413 
Q 2128 3413 2367 3286 
Q 2606 3159 2747 2900 
L 2747 4488 
L 2272 4488 
L 2272 4863 
L 3853 4863 
L 3853 378 
z
" transform="scale(0.015625)"/>
      </defs>
      <use xlink:href="#DejaVuSerif-Bold-45"/>
      <use xlink:href="#DejaVuSerif-Bold-64" transform="translate(76.220703 0)"/>
      <use xlink:href="#DejaVuSerif-Bold-61" transform="translate(146.142578 0)"/>
      <use xlink:href="#DejaVuSerif-Bold-64" transform="translate(210.9375 0)"/>
     </g>
    </g>
   </g>
   <g id="FillBetweenPolyCollection_1">
    <defs>
     <path id="mb48d3176ec" d="M 133.388667 -557.933317 
L 65.098833 -557.933317 
L 64.849223 -558.77786 
L 64.604781 -559.622402 
L 64.365555 -560.466944 
L 64.131584 -561.311486 
L 63.902906 -562.156029 
L 63.679553 -563.000571 
L 63.461551 -563.845113 
L 63.248923 -564.689655 
L 63.041688 -565.534198 
L 62.839859 -566.37874 
L 62.643446 -567.223282 
L 62.452454 -568.067824 
L 62.266886 -568.912367 
L 62.08674 -569.756909 
L 61.912011 -570.601451 
L 61.742689 -571.445993 
L 61.578765 -572.290536 
L 61.420222 -573.135078 
L 61.267045 -573.97962 
L 61.119213 -574.824162 
L 60.976705 -575.668705 
L 60.839497 -576.513247 
L 60.707564 -577.357789 
L 60.580878 -578.202331 
L 60.459411 -579.046874 
L 60.343133 -579.891416 
L 60.232014 -580.735958 
L 60.126022 -581.5805 
L 60.025125 -582.425043 
L 59.929293 -583.269585 
L 59.838492 -584.114127 
L 59.752691 -584.958669 
L 59.671858 -585.803212 
L 59.595964 -586.647754 
L 59.524976 -587.492296 
L 59.458867 -588.336838 
L 59.397608 -589.181381 
L 59.341172 -590.025923 
L 59.289534 -590.870465 
L 59.242671 -591.715007 
L 59.20056 -592.55955 
L 59.16318 -593.404092 
L 59.130514 -594.248634 
L 59.102546 -595.093176 
L 59.07926 -595.937719 
L 59.060647 -596.782261 
L 59.046695 -597.626803 
L 59.037397 -598.471345 
L 59.03275 -599.315888 
L 59.03275 -600.16043 
L 59.037397 -601.004972 
L 59.046695 -601.849514 
L 59.060647 -602.694057 
L 59.07926 -603.538599 
L 59.102546 -604.383141 
L 59.130514 -605.227683 
L 59.16318 -606.072226 
L 59.20056 -606.916768 
L 59.242671 -607.76131 
L 59.289534 -608.605852 
L 59.341172 -609.450395 
L 59.397608 -610.294937 
L 59.458867 -611.139479 
L 59.524976 -611.984021 
L 59.595964 -612.828564 
L 59.671858 -613.673106 
L 59.752691 -614.517648 
L 59.838492 -615.36219 
L 59.929293 -616.206733 
L 60.025125 -617.051275 
L 60.126022 -617.895817 
L 60.232014 -618.740359 
L 60.343133 -619.584902 
L 60.459411 -620.429444 
L 60.580878 -621.273986 
L 60.707564 -622.118528 
L 60.839497 -622.963071 
L 60.976705 -623.807613 
L 61.119213 -624.652155 
L 61.267045 -625.496697 
L 61.420222 -626.34124 
L 61.578765 -627.185782 
L 61.742689 -628.030324 
L 61.912011 -628.874866 
L 62.08674 -629.719409 
L 62.266886 -630.563951 
L 62.452454 -631.408493 
L 62.643446 -632.253035 
L 62.839859 -633.097578 
L 63.041688 -633.94212 
L 63.248923 -634.786662 
L 63.461551 -635.631204 
L 63.679553 -636.475747 
L 63.902906 -637.320289 
L 64.131584 -638.164831 
L 64.365555 -639.009373 
L 64.604781 -639.853916 
L 64.849223 -640.698458 
L 65.098833 -641.543 
L 133.388667 -641.543 
L 133.388667 -641.543 
L 133.638277 -640.698458 
L 133.882719 -639.853916 
L 134.121945 -639.009373 
L 134.355916 -638.164831 
L 134.584594 -637.320289 
L 134.807947 -636.475747 
L 135.025949 -635.631204 
L 135.238577 -634.786662 
L 135.445812 -633.94212 
L 135.647641 -633.097578 
L 135.844054 -632.253035 
L 136.035046 -631.408493 
L 136.220614 -630.563951 
L 136.40076 -629.719409 
L 136.575489 -628.874866 
L 136.744811 -628.030324 
L 136.908735 -627.185782 
L 137.067278 -626.34124 
L 137.220455 -625.496697 
L 137.368287 -624.652155 
L 137.510795 -623.807613 
L 137.648003 -622.963071 
L 137.779936 -622.118528 
L 137.906622 -621.273986 
L 138.028089 -620.429444 
L 138.144367 -619.584902 
L 138.255486 -618.740359 
L 138.361478 -617.895817 
L 138.462375 -617.051275 
L 138.558207 -616.206733 
L 138.649008 -615.36219 
L 138.734809 -614.517648 
L 138.815642 -613.673106 
L 138.891536 -612.828564 
L 138.962524 -611.984021 
L 139.028633 -611.139479 
L 139.089892 -610.294937 
L 139.146328 -609.450395 
L 139.197966 -608.605852 
L 139.244829 -607.76131 
L 139.28694 -606.916768 
L 139.32432 -606.072226 
L 139.356986 -605.227683 
L 139.384954 -604.383141 
L 139.40824 -603.538599 
L 139.426853 -602.694057 
L 139.440805 -601.849514 
L 139.450103 -601.004972 
L 139.45475 -600.16043 
L 139.45475 -599.315888 
L 139.450103 -598.471345 
L 139.440805 -597.626803 
L 139.426853 -596.782261 
L 139.40824 -595.937719 
L 139.384954 -595.093176 
L 139.356986 -594.248634 
L 139.32432 -593.404092 
L 139.28694 -592.55955 
L 139.244829 -591.715007 
L 139.197966 -590.870465 
L 139.146328 -590.025923 
L 139.089892 -589.181381 
L 139.028633 -588.336838 
L 138.962524 -587.492296 
L 138.891536 -586.647754 
L 138.815642 -585.803212 
L 138.734809 -584.958669 
L 138.649008 -584.114127 
L 138.558207 -583.269585 
L 138.462375 -582.425043 
L 138.361478 -581.5805 
L 138.255486 -580.735958 
L 138.144367 -579.891416 
L 138.028089 -579.046874 
L 137.906622 -578.202331 
L 137.779936 -577.357789 
L 137.648003 -576.513247 
L 137.510795 -575.668705 
L 137.368287 -574.824162 
L 137.220455 -573.97962 
L 137.067278 -573.135078 
L 136.908735 -572.290536 
L 136.744811 -571.445993 
L 136.575489 -570.601451 
L 136.40076 -569.756909 
L 136.220614 -568.912367 
L 136.035046 -568.067824 
L 135.844054 -567.223282 
L 135.647641 -566.37874 
L 135.445812 -565.534198 
L 135.238577 -564.689655 
L 135.025949 -563.845113 
L 134.807947 -563.000571 
L 134.584594 -562.156029 
L 134.355916 -561.311486 
L 134.121945 -560.466944 
L 133.882719 -559.622402 
L 133.638277 -558.77786 
L 133.388667 -557.933317 
z
" style="stroke: #595959; stroke-opacity: 0.7"/>
    </defs>
    <g clip-path="url(#pf85c7f8deb)">
     <use xlink:href="#mb48d3176ec" x="0" y="720" style="fill: #72b6a1; fill-opacity: 0.7; stroke: #595959; stroke-opacity: 0.7"/>
    </g>
   </g>
   <g id="FillBetweenPolyCollection_2">
    <defs>
     <path id="m5d2b48d876" d="M 219.554604 -250.108001 
L 179.987896 -250.108001 
L 179.380524 -253.724732 
L 178.776803 -257.341463 
L 178.177871 -260.958195 
L 177.58486 -264.574926 
L 176.99889 -268.191657 
L 176.421065 -271.808389 
L 175.852465 -275.42512 
L 175.294141 -279.041851 
L 174.747112 -282.658582 
L 174.212354 -286.275314 
L 173.690795 -289.892045 
L 173.183313 -293.508776 
L 172.690726 -297.125508 
L 172.213784 -300.742239 
L 171.753172 -304.35897 
L 171.309493 -307.975702 
L 170.883272 -311.592433 
L 170.474946 -315.209164 
L 170.084861 -318.825896 
L 169.713268 -322.442627 
L 169.360319 -326.059358 
L 169.026064 -329.67609 
L 168.710451 -333.292821 
L 168.413319 -336.909552 
L 168.134404 -340.526283 
L 167.873334 -344.143015 
L 167.629632 -347.759746 
L 167.402718 -351.376477 
L 167.191912 -354.993209 
L 166.996436 -358.60994 
L 166.815422 -362.226671 
L 166.647914 -365.843403 
L 166.492878 -369.460134 
L 166.349207 -373.076865 
L 166.215731 -376.693597 
L 166.091228 -380.310328 
L 165.97443 -383.927059 
L 165.864037 -387.543791 
L 165.758729 -391.160522 
L 165.657174 -394.777253 
L 165.558046 -398.393984 
L 165.460033 -402.010716 
L 165.361854 -405.627447 
L 165.262268 -409.244178 
L 165.16009 -412.86091 
L 165.054204 -416.477641 
L 164.943572 -420.094372 
L 164.827252 -423.711104 
L 164.704402 -427.327835 
L 164.574299 -430.944566 
L 164.436342 -434.561298 
L 164.290066 -438.178029 
L 164.135147 -441.79476 
L 163.97141 -445.411492 
L 163.798835 -449.028223 
L 163.617561 -452.644954 
L 163.42789 -456.261685 
L 163.230285 -459.878417 
L 163.025377 -463.495148 
L 162.813955 -467.111879 
L 162.596969 -470.728611 
L 162.375526 -474.345342 
L 162.15088 -477.962073 
L 161.924426 -481.578805 
L 161.697694 -485.195536 
L 161.472337 -488.812267 
L 161.250118 -492.428999 
L 161.032899 -496.04573 
L 160.822629 -499.662461 
L 160.621327 -503.279193 
L 160.431066 -506.895924 
L 160.253959 -510.512655 
L 160.09214 -514.129386 
L 159.947751 -517.746118 
L 159.822916 -521.362849 
L 159.719734 -524.97958 
L 159.640254 -528.596312 
L 159.586459 -532.213043 
L 159.56025 -535.829774 
L 159.56343 -539.446506 
L 159.597687 -543.063237 
L 159.664579 -546.679968 
L 159.765519 -550.2967 
L 159.901766 -553.913431 
L 160.074409 -557.530162 
L 160.284356 -561.146894 
L 160.532331 -564.763625 
L 160.818861 -568.380356 
L 161.144271 -571.997087 
L 161.508681 -575.613819 
L 161.912006 -579.23055 
L 162.353948 -582.847281 
L 162.834006 -586.464013 
L 163.351471 -590.080744 
L 163.905435 -593.697475 
L 164.494796 -597.314207 
L 165.118265 -600.930938 
L 165.774375 -604.547669 
L 166.461491 -608.164401 
L 233.081009 -608.164401 
L 233.081009 -608.164401 
L 233.768125 -604.547669 
L 234.424235 -600.930938 
L 235.047704 -597.314207 
L 235.637065 -593.697475 
L 236.191029 -590.080744 
L 236.708494 -586.464013 
L 237.188552 -582.847281 
L 237.630494 -579.23055 
L 238.033819 -575.613819 
L 238.398229 -571.997087 
L 238.723639 -568.380356 
L 239.010169 -564.763625 
L 239.258144 -561.146894 
L 239.468091 -557.530162 
L 239.640734 -553.913431 
L 239.776981 -550.2967 
L 239.877921 -546.679968 
L 239.944813 -543.063237 
L 239.97907 -539.446506 
L 239.98225 -535.829774 
L 239.956041 -532.213043 
L 239.902246 -528.596312 
L 239.822766 -524.97958 
L 239.719584 -521.362849 
L 239.594749 -517.746118 
L 239.45036 -514.129386 
L 239.288541 -510.512655 
L 239.111434 -506.895924 
L 238.921173 -503.279193 
L 238.719871 -499.662461 
L 238.509601 -496.04573 
L 238.292382 -492.428999 
L 238.070163 -488.812267 
L 237.844806 -485.195536 
L 237.618074 -481.578805 
L 237.39162 -477.962073 
L 237.166974 -474.345342 
L 236.945531 -470.728611 
L 236.728545 -467.111879 
L 236.517123 -463.495148 
L 236.312215 -459.878417 
L 236.11461 -456.261685 
L 235.924939 -452.644954 
L 235.743665 -449.028223 
L 235.57109 -445.411492 
L 235.407353 -441.79476 
L 235.252434 -438.178029 
L 235.106158 -434.561298 
L 234.968201 -430.944566 
L 234.838098 -427.327835 
L 234.715248 -423.711104 
L 234.598928 -420.094372 
L 234.488296 -416.477641 
L 234.38241 -412.86091 
L 234.280232 -409.244178 
L 234.180646 -405.627447 
L 234.082467 -402.010716 
L 233.984454 -398.393984 
L 233.885326 -394.777253 
L 233.783771 -391.160522 
L 233.678463 -387.543791 
L 233.56807 -383.927059 
L 233.451272 -380.310328 
L 233.326769 -376.693597 
L 233.193293 -373.076865 
L 233.049622 -369.460134 
L 232.894586 -365.843403 
L 232.727078 -362.226671 
L 232.546064 -358.60994 
L 232.350588 -354.993209 
L 232.139782 -351.376477 
L 231.912868 -347.759746 
L 231.669166 -344.143015 
L 231.408096 -340.526283 
L 231.129181 -336.909552 
L 230.832049 -333.292821 
L 230.516436 -329.67609 
L 230.182181 -326.059358 
L 229.829232 -322.442627 
L 229.457639 -318.825896 
L 229.067554 -315.209164 
L 228.659228 -311.592433 
L 228.233007 -307.975702 
L 227.789328 -304.35897 
L 227.328716 -300.742239 
L 226.851774 -297.125508 
L 226.359187 -293.508776 
L 225.851705 -289.892045 
L 225.330146 -286.275314 
L 224.795388 -282.658582 
L 224.248359 -279.041851 
L 223.690035 -275.42512 
L 223.121435 -271.808389 
L 222.54361 -268.191657 
L 221.95764 -264.574926 
L 221.364629 -260.958195 
L 220.765697 -257.341463 
L 220.161976 -253.724732 
L 219.554604 -250.108001 
z
" style="stroke: #595959; stroke-opacity: 0.7"/>
    </defs>
    <g clip-path="url(#pf85c7f8deb)">
     <use xlink:href="#m5d2b48d876" x="0" y="720" style="fill: #e99675; fill-opacity: 0.7; stroke: #595959; stroke-opacity: 0.7"/>
    </g>
   </g>
   <g id="FillBetweenPolyCollection_3">
    <defs>
     <path id="mb12ed25f07" d="M 338.873095 -360.253489 
L 261.724405 -360.253489 
L 261.485871 -362.710342 
L 261.265917 -365.167195 
L 261.064694 -367.624048 
L 260.882315 -370.080901 
L 260.718852 -372.537754 
L 260.574339 -374.994607 
L 260.448767 -377.45146 
L 260.342091 -379.908313 
L 260.254224 -382.365166 
L 260.185039 -384.822019 
L 260.134374 -387.278872 
L 260.102024 -389.735725 
L 260.08775 -392.192578 
L 260.091274 -394.649431 
L 260.112285 -397.106285 
L 260.150434 -399.563138 
L 260.205342 -402.019991 
L 260.276596 -404.476844 
L 260.363754 -406.933697 
L 260.466343 -409.39055 
L 260.583865 -411.847403 
L 260.715796 -414.304256 
L 260.861588 -416.761109 
L 261.020671 -419.217962 
L 261.192457 -421.674815 
L 261.376339 -424.131668 
L 261.571696 -426.588521 
L 261.777891 -429.045374 
L 261.99428 -431.502227 
L 262.220207 -433.95908 
L 262.455011 -436.415933 
L 262.698027 -438.872786 
L 262.948586 -441.32964 
L 263.206023 -443.786493 
L 263.469671 -446.243346 
L 263.738871 -448.700199 
L 264.01297 -451.157052 
L 264.291323 -453.613905 
L 264.573298 -456.070758 
L 264.858275 -458.527611 
L 265.145648 -460.984464 
L 265.434829 -463.441317 
L 265.725249 -465.89817 
L 266.016359 -468.355023 
L 266.307632 -470.811876 
L 266.598562 -473.268729 
L 266.888672 -475.725582 
L 267.177507 -478.182435 
L 267.464641 -480.639288 
L 267.749676 -483.096141 
L 268.032243 -485.552995 
L 268.312001 -488.009848 
L 268.588642 -490.466701 
L 268.861886 -492.923554 
L 269.131486 -495.380407 
L 269.397226 -497.83726 
L 269.658921 -500.294113 
L 269.916418 -502.750966 
L 270.169593 -505.207819 
L 270.418357 -507.664672 
L 270.662648 -510.121525 
L 270.902434 -512.578378 
L 271.137714 -515.035231 
L 271.368516 -517.492084 
L 271.594893 -519.948937 
L 271.816925 -522.40579 
L 272.034721 -524.862643 
L 272.24841 -527.319496 
L 272.458147 -529.77635 
L 272.664107 -532.233203 
L 272.866487 -534.690056 
L 273.065501 -537.146909 
L 273.261384 -539.603762 
L 273.454382 -542.060615 
L 273.644759 -544.517468 
L 273.83279 -546.974321 
L 274.018761 -549.431174 
L 274.202969 -551.888027 
L 274.385717 -554.34488 
L 274.567313 -556.801733 
L 274.748073 -559.258586 
L 274.928311 -561.715439 
L 275.108345 -564.172292 
L 275.288491 -566.629145 
L 275.469064 -569.085998 
L 275.650375 -571.542851 
L 275.832729 -573.999705 
L 276.016424 -576.456558 
L 276.201751 -578.913411 
L 276.388991 -581.370264 
L 276.578416 -583.827117 
L 276.770283 -586.28397 
L 276.964838 -588.740823 
L 277.162314 -591.197676 
L 277.362928 -593.654529 
L 277.566881 -596.111382 
L 277.774358 -598.568235 
L 277.985527 -601.025088 
L 278.200537 -603.481941 
L 322.396963 -603.481941 
L 322.396963 -603.481941 
L 322.611973 -601.025088 
L 322.823142 -598.568235 
L 323.030619 -596.111382 
L 323.234572 -593.654529 
L 323.435186 -591.197676 
L 323.632662 -588.740823 
L 323.827217 -586.28397 
L 324.019084 -583.827117 
L 324.208509 -581.370264 
L 324.395749 -578.913411 
L 324.581076 -576.456558 
L 324.764771 -573.999705 
L 324.947125 -571.542851 
L 325.128436 -569.085998 
L 325.309009 -566.629145 
L 325.489155 -564.172292 
L 325.669189 -561.715439 
L 325.849427 -559.258586 
L 326.030187 -556.801733 
L 326.211783 -554.34488 
L 326.394531 -551.888027 
L 326.578739 -549.431174 
L 326.76471 -546.974321 
L 326.952741 -544.517468 
L 327.143118 -542.060615 
L 327.336116 -539.603762 
L 327.531999 -537.146909 
L 327.731013 -534.690056 
L 327.933393 -532.233203 
L 328.139353 -529.77635 
L 328.34909 -527.319496 
L 328.562779 -524.862643 
L 328.780575 -522.40579 
L 329.002607 -519.948937 
L 329.228984 -517.492084 
L 329.459786 -515.035231 
L 329.695066 -512.578378 
L 329.934852 -510.121525 
L 330.179143 -507.664672 
L 330.427907 -505.207819 
L 330.681082 -502.750966 
L 330.938579 -500.294113 
L 331.200274 -497.83726 
L 331.466014 -495.380407 
L 331.735614 -492.923554 
L 332.008858 -490.466701 
L 332.285499 -488.009848 
L 332.565257 -485.552995 
L 332.847824 -483.096141 
L 333.132859 -480.639288 
L 333.419993 -478.182435 
L 333.708828 -475.725582 
L 333.998938 -473.268729 
L 334.289868 -470.811876 
L 334.581141 -468.355023 
L 334.872251 -465.89817 
L 335.162671 -463.441317 
L 335.451852 -460.984464 
L 335.739225 -458.527611 
L 336.024202 -456.070758 
L 336.306177 -453.613905 
L 336.58453 -451.157052 
L 336.858629 -448.700199 
L 337.127829 -446.243346 
L 337.391477 -443.786493 
L 337.648914 -441.32964 
L 337.899473 -438.872786 
L 338.142489 -436.415933 
L 338.377293 -433.95908 
L 338.60322 -431.502227 
L 338.819609 -429.045374 
L 339.025804 -426.588521 
L 339.221161 -424.131668 
L 339.405043 -421.674815 
L 339.576829 -419.217962 
L 339.735912 -416.761109 
L 339.881704 -414.304256 
L 340.013635 -411.847403 
L 340.131157 -409.39055 
L 340.233746 -406.933697 
L 340.320904 -404.476844 
L 340.392158 -402.019991 
L 340.447066 -399.563138 
L 340.485215 -397.106285 
L 340.506226 -394.649431 
L 340.50975 -392.192578 
L 340.495476 -389.735725 
L 340.463126 -387.278872 
L 340.412461 -384.822019 
L 340.343276 -382.365166 
L 340.255409 -379.908313 
L 340.148733 -377.45146 
L 340.023161 -374.994607 
L 339.878648 -372.537754 
L 339.715185 -370.080901 
L 339.532806 -367.624048 
L 339.331583 -365.167195 
L 339.111629 -362.710342 
L 338.873095 -360.253489 
z
" style="stroke: #595959; stroke-opacity: 0.7"/>
    </defs>
    <g clip-path="url(#pf85c7f8deb)">
     <use xlink:href="#mb12ed25f07" x="0" y="720" style="fill: #95a3c3; fill-opacity: 0.7; stroke: #595959; stroke-opacity: 0.7"/>
    </g>
   </g>
   <g id="FillBetweenPolyCollection_4">
    <defs>
     <path id="m69991b2eab" d="M 422.810372 -241.358476 
L 378.842128 -241.358476 
L 378.304443 -243.7107 
L 377.792712 -246.062924 
L 377.307967 -248.415148 
L 376.850942 -250.767372 
L 376.422059 -253.119596 
L 376.021417 -255.47182 
L 375.648791 -257.824044 
L 375.303628 -260.176268 
L 374.985057 -262.528492 
L 374.691891 -264.880716 
L 374.422648 -267.23294 
L 374.175567 -269.585164 
L 373.948633 -271.937388 
L 373.7396 -274.289612 
L 373.546031 -276.641836 
L 373.365322 -278.99406 
L 373.194747 -281.346284 
L 373.031496 -283.698508 
L 372.872712 -286.050732 
L 372.715536 -288.402956 
L 372.557152 -290.75518 
L 372.394821 -293.107404 
L 372.225928 -295.459628 
L 372.048019 -297.811852 
L 371.858833 -300.164076 
L 371.656344 -302.5163 
L 371.43878 -304.868524 
L 371.204659 -307.220748 
L 370.952803 -309.572972 
L 370.682358 -311.925196 
L 370.392804 -314.27742 
L 370.083966 -316.629644 
L 369.75601 -318.981868 
L 369.409445 -321.334092 
L 369.04511 -323.686316 
L 368.664168 -326.03854 
L 368.268083 -328.390764 
L 367.858603 -330.742988 
L 367.437734 -333.095212 
L 367.007713 -335.447436 
L 366.570981 -337.79966 
L 366.130147 -340.151884 
L 365.687957 -342.504108 
L 365.247261 -344.856332 
L 364.810977 -347.208556 
L 364.382061 -349.56078 
L 363.963467 -351.913004 
L 363.558122 -354.265228 
L 363.168894 -356.617452 
L 362.79856 -358.969676 
L 362.449785 -361.3219 
L 362.125098 -363.674124 
L 361.826869 -366.026348 
L 361.557296 -368.378572 
L 361.318386 -370.730796 
L 361.111945 -373.08302 
L 360.939575 -375.435244 
L 360.802659 -377.787468 
L 360.702367 -380.139692 
L 360.639651 -382.491916 
L 360.61525 -384.84414 
L 360.629693 -387.196364 
L 360.683304 -389.548588 
L 360.776216 -391.900812 
L 360.908372 -394.253036 
L 361.079543 -396.60526 
L 361.289334 -398.957484 
L 361.537199 -401.309708 
L 361.822452 -403.661932 
L 362.14428 -406.014156 
L 362.501754 -408.36638 
L 362.893842 -410.718603 
L 363.319421 -413.070827 
L 363.777286 -415.423051 
L 364.266164 -417.775275 
L 364.784719 -420.127499 
L 365.331567 -422.479723 
L 365.905275 -424.831947 
L 366.50438 -427.184171 
L 367.127386 -429.536395 
L 367.772775 -431.888619 
L 368.43901 -434.240843 
L 369.124541 -436.593067 
L 369.827808 -438.945291 
L 370.547243 -441.297515 
L 371.281279 -443.649739 
L 372.028346 -446.001963 
L 372.786875 -448.354187 
L 373.555304 -450.706411 
L 374.332075 -453.058635 
L 375.115642 -455.410859 
L 375.904466 -457.763083 
L 376.697023 -460.115307 
L 377.491804 -462.467531 
L 378.287319 -464.819755 
L 379.082096 -467.171979 
L 379.874687 -469.524203 
L 380.663672 -471.876427 
L 381.447658 -474.228651 
L 420.204842 -474.228651 
L 420.204842 -474.228651 
L 420.988828 -471.876427 
L 421.777813 -469.524203 
L 422.570404 -467.171979 
L 423.365181 -464.819755 
L 424.160696 -462.467531 
L 424.955477 -460.115307 
L 425.748034 -457.763083 
L 426.536858 -455.410859 
L 427.320425 -453.058635 
L 428.097196 -450.706411 
L 428.865625 -448.354187 
L 429.624154 -446.001963 
L 430.371221 -443.649739 
L 431.105257 -441.297515 
L 431.824692 -438.945291 
L 432.527959 -436.593067 
L 433.21349 -434.240843 
L 433.879725 -431.888619 
L 434.525114 -429.536395 
L 435.14812 -427.184171 
L 435.747225 -424.831947 
L 436.320933 -422.479723 
L 436.867781 -420.127499 
L 437.386336 -417.775275 
L 437.875214 -415.423051 
L 438.333079 -413.070827 
L 438.758658 -410.718603 
L 439.150746 -408.36638 
L 439.50822 -406.014156 
L 439.830048 -403.661932 
L 440.115301 -401.309708 
L 440.363166 -398.957484 
L 440.572957 -396.60526 
L 440.744128 -394.253036 
L 440.876284 -391.900812 
L 440.969196 -389.548588 
L 441.022807 -387.196364 
L 441.03725 -384.84414 
L 441.012849 -382.491916 
L 440.950133 -380.139692 
L 440.849841 -377.787468 
L 440.712925 -375.435244 
L 440.540555 -373.08302 
L 440.334114 -370.730796 
L 440.095204 -368.378572 
L 439.825631 -366.026348 
L 439.527402 -363.674124 
L 439.202715 -361.3219 
L 438.85394 -358.969676 
L 438.483606 -356.617452 
L 438.094378 -354.265228 
L 437.689033 -351.913004 
L 437.270439 -349.56078 
L 436.841523 -347.208556 
L 436.405239 -344.856332 
L 435.964543 -342.504108 
L 435.522353 -340.151884 
L 435.081519 -337.79966 
L 434.644787 -335.447436 
L 434.214766 -333.095212 
L 433.793897 -330.742988 
L 433.384417 -328.390764 
L 432.988332 -326.03854 
L 432.60739 -323.686316 
L 432.243055 -321.334092 
L 431.89649 -318.981868 
L 431.568534 -316.629644 
L 431.259696 -314.27742 
L 430.970142 -311.925196 
L 430.699697 -309.572972 
L 430.447841 -307.220748 
L 430.21372 -304.868524 
L 429.996156 -302.5163 
L 429.793667 -300.164076 
L 429.604481 -297.811852 
L 429.426572 -295.459628 
L 429.257679 -293.107404 
L 429.095348 -290.75518 
L 428.936964 -288.402956 
L 428.779788 -286.050732 
L 428.621004 -283.698508 
L 428.457753 -281.346284 
L 428.287178 -278.99406 
L 428.106469 -276.641836 
L 427.9129 -274.289612 
L 427.703867 -271.937388 
L 427.476933 -269.585164 
L 427.229852 -267.23294 
L 426.960609 -264.880716 
L 426.667443 -262.528492 
L 426.348872 -260.176268 
L 426.003709 -257.824044 
L 425.631083 -255.47182 
L 425.230441 -253.119596 
L 424.801558 -250.767372 
L 424.344533 -248.415148 
L 423.859788 -246.062924 
L 423.348057 -243.7107 
L 422.810372 -241.358476 
z
" style="stroke: #595959; stroke-opacity: 0.7"/>
    </defs>
    <g clip-path="url(#pf85c7f8deb)">
     <use xlink:href="#m69991b2eab" x="0" y="720" style="fill: #db96c0; fill-opacity: 0.7; stroke: #595959; stroke-opacity: 0.7"/>
    </g>
   </g>
   <g id="FillBetweenPolyCollection_5">
    <defs>
     <path id="ma564051a7b" d="M 535.498667 -211.858502 
L 467.208833 -211.858502 
L 466.959223 -214.744021 
L 466.714781 -217.629541 
L 466.475555 -220.51506 
L 466.241584 -223.400579 
L 466.012906 -226.286099 
L 465.789553 -229.171618 
L 465.571551 -232.057137 
L 465.358923 -234.942657 
L 465.151688 -237.828176 
L 464.949859 -240.713695 
L 464.753446 -243.599215 
L 464.562454 -246.484734 
L 464.376886 -249.370253 
L 464.19674 -252.255773 
L 464.022011 -255.141292 
L 463.852689 -258.026812 
L 463.688765 -260.912331 
L 463.530222 -263.79785 
L 463.377045 -266.68337 
L 463.229213 -269.568889 
L 463.086705 -272.454408 
L 462.949497 -275.339928 
L 462.817564 -278.225447 
L 462.690878 -281.110966 
L 462.569411 -283.996486 
L 462.453133 -286.882005 
L 462.342014 -289.767524 
L 462.236022 -292.653044 
L 462.135125 -295.538563 
L 462.039293 -298.424082 
L 461.948492 -301.309602 
L 461.862691 -304.195121 
L 461.781858 -307.080641 
L 461.705964 -309.96616 
L 461.634976 -312.851679 
L 461.568867 -315.737199 
L 461.507608 -318.622718 
L 461.451172 -321.508237 
L 461.399534 -324.393757 
L 461.352671 -327.279276 
L 461.31056 -330.164795 
L 461.27318 -333.050315 
L 461.240514 -335.935834 
L 461.212546 -338.821353 
L 461.18926 -341.706873 
L 461.170647 -344.592392 
L 461.156695 -347.477911 
L 461.147397 -350.363431 
L 461.14275 -353.24895 
L 461.14275 -356.13447 
L 461.147397 -359.019989 
L 461.156695 -361.905508 
L 461.170647 -364.791028 
L 461.18926 -367.676547 
L 461.212546 -370.562066 
L 461.240514 -373.447586 
L 461.27318 -376.333105 
L 461.31056 -379.218624 
L 461.352671 -382.104144 
L 461.399534 -384.989663 
L 461.451172 -387.875182 
L 461.507608 -390.760702 
L 461.568867 -393.646221 
L 461.634976 -396.53174 
L 461.705964 -399.41726 
L 461.781858 -402.302779 
L 461.862691 -405.188298 
L 461.948492 -408.073818 
L 462.039293 -410.959337 
L 462.135125 -413.844857 
L 462.236022 -416.730376 
L 462.342014 -419.615895 
L 462.453133 -422.501415 
L 462.569411 -425.386934 
L 462.690878 -428.272453 
L 462.817564 -431.157973 
L 462.949497 -434.043492 
L 463.086705 -436.929011 
L 463.229213 -439.814531 
L 463.377045 -442.70005 
L 463.530222 -445.585569 
L 463.688765 -448.471089 
L 463.852689 -451.356608 
L 464.022011 -454.242127 
L 464.19674 -457.127647 
L 464.376886 -460.013166 
L 464.562454 -462.898686 
L 464.753446 -465.784205 
L 464.949859 -468.669724 
L 465.151688 -471.555244 
L 465.358923 -474.440763 
L 465.571551 -477.326282 
L 465.789553 -480.211802 
L 466.012906 -483.097321 
L 466.241584 -485.98284 
L 466.475555 -488.86836 
L 466.714781 -491.753879 
L 466.959223 -494.639398 
L 467.208833 -497.524918 
L 535.498667 -497.524918 
L 535.498667 -497.524918 
L 535.748277 -494.639398 
L 535.992719 -491.753879 
L 536.231945 -488.86836 
L 536.465916 -485.98284 
L 536.694594 -483.097321 
L 536.917947 -480.211802 
L 537.135949 -477.326282 
L 537.348577 -474.440763 
L 537.555812 -471.555244 
L 537.757641 -468.669724 
L 537.954054 -465.784205 
L 538.145046 -462.898686 
L 538.330614 -460.013166 
L 538.51076 -457.127647 
L 538.685489 -454.242127 
L 538.854811 -451.356608 
L 539.018735 -448.471089 
L 539.177278 -445.585569 
L 539.330455 -442.70005 
L 539.478287 -439.814531 
L 539.620795 -436.929011 
L 539.758003 -434.043492 
L 539.889936 -431.157973 
L 540.016622 -428.272453 
L 540.138089 -425.386934 
L 540.254367 -422.501415 
L 540.365486 -419.615895 
L 540.471478 -416.730376 
L 540.572375 -413.844857 
L 540.668207 -410.959337 
L 540.759008 -408.073818 
L 540.844809 -405.188298 
L 540.925642 -402.302779 
L 541.001536 -399.41726 
L 541.072524 -396.53174 
L 541.138633 -393.646221 
L 541.199892 -390.760702 
L 541.256328 -387.875182 
L 541.307966 -384.989663 
L 541.354829 -382.104144 
L 541.39694 -379.218624 
L 541.43432 -376.333105 
L 541.466986 -373.447586 
L 541.494954 -370.562066 
L 541.51824 -367.676547 
L 541.536853 -364.791028 
L 541.550805 -361.905508 
L 541.560103 -359.019989 
L 541.56475 -356.13447 
L 541.56475 -353.24895 
L 541.560103 -350.363431 
L 541.550805 -347.477911 
L 541.536853 -344.592392 
L 541.51824 -341.706873 
L 541.494954 -338.821353 
L 541.466986 -335.935834 
L 541.43432 -333.050315 
L 541.39694 -330.164795 
L 541.354829 -327.279276 
L 541.307966 -324.393757 
L 541.256328 -321.508237 
L 541.199892 -318.622718 
L 541.138633 -315.737199 
L 541.072524 -312.851679 
L 541.001536 -309.96616 
L 540.925642 -307.080641 
L 540.844809 -304.195121 
L 540.759008 -301.309602 
L 540.668207 -298.424082 
L 540.572375 -295.538563 
L 540.471478 -292.653044 
L 540.365486 -289.767524 
L 540.254367 -286.882005 
L 540.138089 -283.996486 
L 540.016622 -281.110966 
L 539.889936 -278.225447 
L 539.758003 -275.339928 
L 539.620795 -272.454408 
L 539.478287 -269.568889 
L 539.330455 -266.68337 
L 539.177278 -263.79785 
L 539.018735 -260.912331 
L 538.854811 -258.026812 
L 538.685489 -255.141292 
L 538.51076 -252.255773 
L 538.330614 -249.370253 
L 538.145046 -246.484734 
L 537.954054 -243.599215 
L 537.757641 -240.713695 
L 537.555812 -237.828176 
L 537.348577 -234.942657 
L 537.135949 -232.057137 
L 536.917947 -229.171618 
L 536.694594 -226.286099 
L 536.465916 -223.400579 
L 536.231945 -220.51506 
L 535.992719 -217.629541 
L 535.748277 -214.744021 
L 535.498667 -211.858502 
z
" style="stroke: #595959; stroke-opacity: 0.7"/>
    </defs>
    <g clip-path="url(#pf85c7f8deb)">
     <use xlink:href="#ma564051a7b" x="0" y="720" style="fill: #a2c865; fill-opacity: 0.7; stroke: #595959; stroke-opacity: 0.7"/>
    </g>
   </g>
   <g id="FillBetweenPolyCollection_6">
    <defs>
     <path id="m5c879f6096" d="M 639.777643 -188.883 
L 563.984857 -188.883 
L 563.70034 -189.287476 
L 563.435495 -189.691953 
L 563.190296 -190.096429 
L 562.964655 -190.500906 
L 562.758425 -190.905382 
L 562.571403 -191.309858 
L 562.403326 -191.714335 
L 562.253878 -192.118811 
L 562.122689 -192.523288 
L 562.009336 -192.927764 
L 561.913349 -193.33224 
L 561.83421 -193.736717 
L 561.771358 -194.141193 
L 561.724192 -194.54567 
L 561.692072 -194.950146 
L 561.674326 -195.354622 
L 561.67025 -195.759099 
L 561.679114 -196.163575 
L 561.700166 -196.568052 
L 561.732634 -196.972528 
L 561.775732 -197.377005 
L 561.828662 -197.781481 
L 561.890623 -198.185957 
L 561.960806 -198.590434 
L 562.038409 -198.99491 
L 562.122633 -199.399387 
L 562.212687 -199.803863 
L 562.307798 -200.208339 
L 562.407206 -200.612816 
L 562.510176 -201.017292 
L 562.615993 -201.421769 
L 562.723975 -201.826245 
L 562.833466 -202.230721 
L 562.943849 -202.635198 
L 563.05454 -203.039674 
L 563.164996 -203.444151 
L 563.274716 -203.848627 
L 563.383242 -204.253103 
L 563.490161 -204.65758 
L 563.595109 -205.062056 
L 563.697767 -205.466533 
L 563.797869 -205.871009 
L 563.895195 -206.275485 
L 563.989579 -206.679962 
L 564.080903 -207.084438 
L 564.1691 -207.488915 
L 564.254152 -207.893391 
L 564.336093 -208.297867 
L 564.415001 -208.702344 
L 564.491005 -209.10682 
L 564.564278 -209.511297 
L 564.635038 -209.915773 
L 564.703542 -210.320249 
L 564.770092 -210.724726 
L 564.835025 -211.129202 
L 564.898713 -211.533679 
L 564.961563 -211.938155 
L 565.024011 -212.342631 
L 565.086521 -212.747108 
L 565.14958 -213.151584 
L 565.213699 -213.556061 
L 565.279406 -213.960537 
L 565.347244 -214.365014 
L 565.417768 -214.76949 
L 565.491543 -215.173966 
L 565.569138 -215.578443 
L 565.651126 -215.982919 
L 565.73808 -216.387396 
L 565.830566 -216.791872 
L 565.929147 -217.196348 
L 566.034374 -217.600825 
L 566.146786 -218.005301 
L 566.266907 -218.409778 
L 566.395241 -218.814254 
L 566.532275 -219.21873 
L 566.678469 -219.623207 
L 566.834261 -220.027683 
L 567.000059 -220.43216 
L 567.176244 -220.836636 
L 567.363165 -221.241112 
L 567.561137 -221.645589 
L 567.770444 -222.050065 
L 567.991331 -222.454542 
L 568.224009 -222.859018 
L 568.468651 -223.263494 
L 568.725392 -223.667971 
L 568.994328 -224.072447 
L 569.275517 -224.476924 
L 569.568977 -224.8814 
L 569.874687 -225.285876 
L 570.192589 -225.690353 
L 570.522583 -226.094829 
L 570.864535 -226.499306 
L 571.218271 -226.903782 
L 571.583581 -227.308258 
L 571.960221 -227.712735 
L 572.34791 -228.117211 
L 572.746336 -228.521688 
L 573.155155 -228.926164 
L 630.607345 -228.926164 
L 630.607345 -228.926164 
L 631.016164 -228.521688 
L 631.41459 -228.117211 
L 631.802279 -227.712735 
L 632.178919 -227.308258 
L 632.544229 -226.903782 
L 632.897965 -226.499306 
L 633.239917 -226.094829 
L 633.569911 -225.690353 
L 633.887813 -225.285876 
L 634.193523 -224.8814 
L 634.486983 -224.476924 
L 634.768172 -224.072447 
L 635.037108 -223.667971 
L 635.293849 -223.263494 
L 635.538491 -222.859018 
L 635.771169 -222.454542 
L 635.992056 -222.050065 
L 636.201363 -221.645589 
L 636.399335 -221.241112 
L 636.586256 -220.836636 
L 636.762441 -220.43216 
L 636.928239 -220.027683 
L 637.084031 -219.623207 
L 637.230225 -219.21873 
L 637.367259 -218.814254 
L 637.495593 -218.409778 
L 637.615714 -218.005301 
L 637.728126 -217.600825 
L 637.833353 -217.196348 
L 637.931934 -216.791872 
L 638.02442 -216.387396 
L 638.111374 -215.982919 
L 638.193362 -215.578443 
L 638.270957 -215.173966 
L 638.344732 -214.76949 
L 638.415256 -214.365014 
L 638.483094 -213.960537 
L 638.548801 -213.556061 
L 638.61292 -213.151584 
L 638.675979 -212.747108 
L 638.738489 -212.342631 
L 638.800937 -211.938155 
L 638.863787 -211.533679 
L 638.927475 -211.129202 
L 638.992408 -210.724726 
L 639.058958 -210.320249 
L 639.127462 -209.915773 
L 639.198222 -209.511297 
L 639.271495 -209.10682 
L 639.347499 -208.702344 
L 639.426407 -208.297867 
L 639.508348 -207.893391 
L 639.5934 -207.488915 
L 639.681597 -207.084438 
L 639.772921 -206.679962 
L 639.867305 -206.275485 
L 639.964631 -205.871009 
L 640.064733 -205.466533 
L 640.167391 -205.062056 
L 640.272339 -204.65758 
L 640.379258 -204.253103 
L 640.487784 -203.848627 
L 640.597504 -203.444151 
L 640.70796 -203.039674 
L 640.818651 -202.635198 
L 640.929034 -202.230721 
L 641.038525 -201.826245 
L 641.146507 -201.421769 
L 641.252324 -201.017292 
L 641.355294 -200.612816 
L 641.454702 -200.208339 
L 641.549813 -199.803863 
L 641.639867 -199.399387 
L 641.724091 -198.99491 
L 641.801694 -198.590434 
L 641.871877 -198.185957 
L 641.933838 -197.781481 
L 641.986768 -197.377005 
L 642.029866 -196.972528 
L 642.062334 -196.568052 
L 642.083386 -196.163575 
L 642.09225 -195.759099 
L 642.088174 -195.354622 
L 642.070428 -194.950146 
L 642.038308 -194.54567 
L 641.991142 -194.141193 
L 641.92829 -193.736717 
L 641.849151 -193.33224 
L 641.753164 -192.927764 
L 641.639811 -192.523288 
L 641.508622 -192.118811 
L 641.359174 -191.714335 
L 641.191097 -191.309858 
L 641.004075 -190.905382 
L 640.797845 -190.500906 
L 640.572204 -190.096429 
L 640.327005 -189.691953 
L 640.06216 -189.287476 
L 639.777643 -188.883 
z
" style="stroke: #595959; stroke-opacity: 0.7"/>
    </defs>
    <g clip-path="url(#pf85c7f8deb)">
     <use xlink:href="#m5c879f6096" x="0" y="720" style="fill: #e5c849; fill-opacity: 0.7; stroke: #595959; stroke-opacity: 0.7"/>
    </g>
   </g>
   <g id="FillBetweenPolyCollection_7">
    <defs>
     <path id="mb9261c6d48" d="M 736.553667 -510.594955 
L 668.263833 -510.594955 
L 668.014223 -511.017226 
L 667.769781 -511.439497 
L 667.530555 -511.861768 
L 667.296584 -512.284039 
L 667.067906 -512.70631 
L 666.844553 -513.128582 
L 666.626551 -513.550853 
L 666.413923 -513.973124 
L 666.206688 -514.395395 
L 666.004859 -514.817666 
L 665.808446 -515.239937 
L 665.617454 -515.662208 
L 665.431886 -516.084479 
L 665.25174 -516.506751 
L 665.077011 -516.929022 
L 664.907689 -517.351293 
L 664.743765 -517.773564 
L 664.585222 -518.195835 
L 664.432045 -518.618106 
L 664.284213 -519.040377 
L 664.141705 -519.462648 
L 664.004497 -519.88492 
L 663.872564 -520.307191 
L 663.745878 -520.729462 
L 663.624411 -521.151733 
L 663.508133 -521.574004 
L 663.397014 -521.996275 
L 663.291022 -522.418546 
L 663.190125 -522.840817 
L 663.094293 -523.263089 
L 663.003492 -523.68536 
L 662.917691 -524.107631 
L 662.836858 -524.529902 
L 662.760964 -524.952173 
L 662.689976 -525.374444 
L 662.623867 -525.796715 
L 662.562608 -526.218986 
L 662.506172 -526.641258 
L 662.454534 -527.063529 
L 662.407671 -527.4858 
L 662.36556 -527.908071 
L 662.32818 -528.330342 
L 662.295514 -528.752613 
L 662.267546 -529.174884 
L 662.24426 -529.597155 
L 662.225647 -530.019427 
L 662.211695 -530.441698 
L 662.202397 -530.863969 
L 662.19775 -531.28624 
L 662.19775 -531.708511 
L 662.202397 -532.130782 
L 662.211695 -532.553053 
L 662.225647 -532.975324 
L 662.24426 -533.397596 
L 662.267546 -533.819867 
L 662.295514 -534.242138 
L 662.32818 -534.664409 
L 662.36556 -535.08668 
L 662.407671 -535.508951 
L 662.454534 -535.931222 
L 662.506172 -536.353493 
L 662.562608 -536.775765 
L 662.623867 -537.198036 
L 662.689976 -537.620307 
L 662.760964 -538.042578 
L 662.836858 -538.464849 
L 662.917691 -538.88712 
L 663.003492 -539.309391 
L 663.094293 -539.731662 
L 663.190125 -540.153933 
L 663.291022 -540.576205 
L 663.397014 -540.998476 
L 663.508133 -541.420747 
L 663.624411 -541.843018 
L 663.745878 -542.265289 
L 663.872564 -542.68756 
L 664.004497 -543.109831 
L 664.141705 -543.532102 
L 664.284213 -543.954374 
L 664.432045 -544.376645 
L 664.585222 -544.798916 
L 664.743765 -545.221187 
L 664.907689 -545.643458 
L 665.077011 -546.065729 
L 665.25174 -546.488 
L 665.431886 -546.910271 
L 665.617454 -547.332543 
L 665.808446 -547.754814 
L 666.004859 -548.177085 
L 666.206688 -548.599356 
L 666.413923 -549.021627 
L 666.626551 -549.443898 
L 666.844553 -549.866169 
L 667.067906 -550.28844 
L 667.296584 -550.710712 
L 667.530555 -551.132983 
L 667.769781 -551.555254 
L 668.014223 -551.977525 
L 668.263833 -552.399796 
L 736.553667 -552.399796 
L 736.553667 -552.399796 
L 736.803277 -551.977525 
L 737.047719 -551.555254 
L 737.286945 -551.132983 
L 737.520916 -550.710712 
L 737.749594 -550.28844 
L 737.972947 -549.866169 
L 738.190949 -549.443898 
L 738.403577 -549.021627 
L 738.610812 -548.599356 
L 738.812641 -548.177085 
L 739.009054 -547.754814 
L 739.200046 -547.332543 
L 739.385614 -546.910271 
L 739.56576 -546.488 
L 739.740489 -546.065729 
L 739.909811 -545.643458 
L 740.073735 -545.221187 
L 740.232278 -544.798916 
L 740.385455 -544.376645 
L 740.533287 -543.954374 
L 740.675795 -543.532102 
L 740.813003 -543.109831 
L 740.944936 -542.68756 
L 741.071622 -542.265289 
L 741.193089 -541.843018 
L 741.309367 -541.420747 
L 741.420486 -540.998476 
L 741.526478 -540.576205 
L 741.627375 -540.153933 
L 741.723207 -539.731662 
L 741.814008 -539.309391 
L 741.899809 -538.88712 
L 741.980642 -538.464849 
L 742.056536 -538.042578 
L 742.127524 -537.620307 
L 742.193633 -537.198036 
L 742.254892 -536.775765 
L 742.311328 -536.353493 
L 742.362966 -535.931222 
L 742.409829 -535.508951 
L 742.45194 -535.08668 
L 742.48932 -534.664409 
L 742.521986 -534.242138 
L 742.549954 -533.819867 
L 742.57324 -533.397596 
L 742.591853 -532.975324 
L 742.605805 -532.553053 
L 742.615103 -532.130782 
L 742.61975 -531.708511 
L 742.61975 -531.28624 
L 742.615103 -530.863969 
L 742.605805 -530.441698 
L 742.591853 -530.019427 
L 742.57324 -529.597155 
L 742.549954 -529.174884 
L 742.521986 -528.752613 
L 742.48932 -528.330342 
L 742.45194 -527.908071 
L 742.409829 -527.4858 
L 742.362966 -527.063529 
L 742.311328 -526.641258 
L 742.254892 -526.218986 
L 742.193633 -525.796715 
L 742.127524 -525.374444 
L 742.056536 -524.952173 
L 741.980642 -524.529902 
L 741.899809 -524.107631 
L 741.814008 -523.68536 
L 741.723207 -523.263089 
L 741.627375 -522.840817 
L 741.526478 -522.418546 
L 741.420486 -521.996275 
L 741.309367 -521.574004 
L 741.193089 -521.151733 
L 741.071622 -520.729462 
L 740.944936 -520.307191 
L 740.813003 -519.88492 
L 740.675795 -519.462648 
L 740.533287 -519.040377 
L 740.385455 -518.618106 
L 740.232278 -518.195835 
L 740.073735 -517.773564 
L 739.909811 -517.351293 
L 739.740489 -516.929022 
L 739.56576 -516.506751 
L 739.385614 -516.084479 
L 739.200046 -515.662208 
L 739.009054 -515.239937 
L 738.812641 -514.817666 
L 738.610812 -514.395395 
L 738.403577 -513.973124 
L 738.190949 -513.550853 
L 737.972947 -513.128582 
L 737.749594 -512.70631 
L 737.520916 -512.284039 
L 737.286945 -511.861768 
L 737.047719 -511.439497 
L 736.803277 -511.017226 
L 736.553667 -510.594955 
z
" style="stroke: #595959; stroke-opacity: 0.7"/>
    </defs>
    <g clip-path="url(#pf85c7f8deb)">
     <use xlink:href="#mb9261c6d48" x="0" y="720" style="fill: #dbc29e; fill-opacity: 0.7; stroke: #595959; stroke-opacity: 0.7"/>
    </g>
   </g>
   <g id="FillBetweenPolyCollection_8">
    <defs>
     <path id="m9253285106" d="M 834.907484 -296.417778 
L 770.965016 -296.417778 
L 770.529561 -299.600268 
L 770.103768 -302.782758 
L 769.687999 -305.965248 
L 769.282598 -309.147738 
L 768.887891 -312.330228 
L 768.50418 -315.512718 
L 768.131752 -318.695208 
L 767.770868 -321.877698 
L 767.421769 -325.060188 
L 767.084675 -328.242678 
L 766.759783 -331.425168 
L 766.447268 -334.607658 
L 766.14728 -337.790148 
L 765.85995 -340.972638 
L 765.585385 -344.155128 
L 765.323667 -347.337618 
L 765.074859 -350.520108 
L 764.839 -353.702597 
L 764.616108 -356.885087 
L 764.406179 -360.067577 
L 764.209187 -363.250067 
L 764.025087 -366.432557 
L 763.853814 -369.615047 
L 763.695282 -372.797537 
L 763.549389 -375.980027 
L 763.416013 -379.162517 
L 763.295017 -382.345007 
L 763.186244 -385.527497 
L 763.089528 -388.709987 
L 763.004682 -391.892477 
L 762.931512 -395.074967 
L 762.869807 -398.257457 
L 762.819349 -401.439947 
L 762.779906 -404.622437 
L 762.75124 -407.804927 
L 762.733106 -410.987417 
L 762.72525 -414.169907 
L 762.727414 -417.352396 
L 762.739337 -420.534886 
L 762.760754 -423.717376 
L 762.791398 -426.899866 
L 762.831003 -430.082356 
L 762.879301 -433.264846 
L 762.93603 -436.447336 
L 763.000928 -439.629826 
L 763.073736 -442.812316 
L 763.154204 -445.994806 
L 763.242085 -449.177296 
L 763.337141 -452.359786 
L 763.43914 -455.542276 
L 763.54786 -458.724766 
L 763.663089 -461.907256 
L 763.784626 -465.089746 
L 763.912279 -468.272236 
L 764.04587 -471.454726 
L 764.185232 -474.637216 
L 764.33021 -477.819705 
L 764.480664 -481.002195 
L 764.636465 -484.184685 
L 764.797501 -487.367175 
L 764.96367 -490.549665 
L 765.134887 -493.732155 
L 765.311077 -496.914645 
L 765.492182 -500.097135 
L 765.678155 -503.279625 
L 765.868965 -506.462115 
L 766.064589 -509.644605 
L 766.265021 -512.827095 
L 766.470264 -516.009585 
L 766.680333 -519.192075 
L 766.895252 -522.374565 
L 767.115055 -525.557055 
L 767.339787 -528.739545 
L 767.569499 -531.922035 
L 767.804248 -535.104525 
L 768.044098 -538.287015 
L 768.289118 -541.469504 
L 768.539382 -544.651994 
L 768.794964 -547.834484 
L 769.055942 -551.016974 
L 769.322393 -554.199464 
L 769.594394 -557.381954 
L 769.872019 -560.564444 
L 770.155342 -563.746934 
L 770.444429 -566.929424 
L 770.739343 -570.111914 
L 771.04014 -573.294404 
L 771.346868 -576.476894 
L 771.659568 -579.659384 
L 771.978269 -582.841874 
L 772.302992 -586.024364 
L 772.633744 -589.206854 
L 772.970523 -592.389344 
L 773.31331 -595.571834 
L 773.662076 -598.754324 
L 774.016776 -601.936814 
L 774.377349 -605.119303 
L 774.74372 -608.301793 
L 775.115798 -611.484283 
L 830.756702 -611.484283 
L 830.756702 -611.484283 
L 831.12878 -608.301793 
L 831.495151 -605.119303 
L 831.855724 -601.936814 
L 832.210424 -598.754324 
L 832.55919 -595.571834 
L 832.901977 -592.389344 
L 833.238756 -589.206854 
L 833.569508 -586.024364 
L 833.894231 -582.841874 
L 834.212932 -579.659384 
L 834.525632 -576.476894 
L 834.83236 -573.294404 
L 835.133157 -570.111914 
L 835.428071 -566.929424 
L 835.717158 -563.746934 
L 836.000481 -560.564444 
L 836.278106 -557.381954 
L 836.550107 -554.199464 
L 836.816558 -551.016974 
L 837.077536 -547.834484 
L 837.333118 -544.651994 
L 837.583382 -541.469504 
L 837.828402 -538.287015 
L 838.068252 -535.104525 
L 838.303001 -531.922035 
L 838.532713 -528.739545 
L 838.757445 -525.557055 
L 838.977248 -522.374565 
L 839.192167 -519.192075 
L 839.402236 -516.009585 
L 839.607479 -512.827095 
L 839.807911 -509.644605 
L 840.003535 -506.462115 
L 840.194345 -503.279625 
L 840.380318 -500.097135 
L 840.561423 -496.914645 
L 840.737613 -493.732155 
L 840.90883 -490.549665 
L 841.074999 -487.367175 
L 841.236035 -484.184685 
L 841.391836 -481.002195 
L 841.54229 -477.819705 
L 841.687268 -474.637216 
L 841.82663 -471.454726 
L 841.960221 -468.272236 
L 842.087874 -465.089746 
L 842.209411 -461.907256 
L 842.32464 -458.724766 
L 842.43336 -455.542276 
L 842.535359 -452.359786 
L 842.630415 -449.177296 
L 842.718296 -445.994806 
L 842.798764 -442.812316 
L 842.871572 -439.629826 
L 842.93647 -436.447336 
L 842.993199 -433.264846 
L 843.041497 -430.082356 
L 843.081102 -426.899866 
L 843.111746 -423.717376 
L 843.133163 -420.534886 
L 843.145086 -417.352396 
L 843.14725 -414.169907 
L 843.139394 -410.987417 
L 843.12126 -407.804927 
L 843.092594 -404.622437 
L 843.053151 -401.439947 
L 843.002693 -398.257457 
L 842.940988 -395.074967 
L 842.867818 -391.892477 
L 842.782972 -388.709987 
L 842.686256 -385.527497 
L 842.577483 -382.345007 
L 842.456487 -379.162517 
L 842.323111 -375.980027 
L 842.177218 -372.797537 
L 842.018686 -369.615047 
L 841.847413 -366.432557 
L 841.663313 -363.250067 
L 841.466321 -360.067577 
L 841.256392 -356.885087 
L 841.0335 -353.702597 
L 840.797641 -350.520108 
L 840.548833 -347.337618 
L 840.287115 -344.155128 
L 840.01255 -340.972638 
L 839.72522 -337.790148 
L 839.425232 -334.607658 
L 839.112717 -331.425168 
L 838.787825 -328.242678 
L 838.450731 -325.060188 
L 838.101632 -321.877698 
L 837.740748 -318.695208 
L 837.36832 -315.512718 
L 836.984609 -312.330228 
L 836.589902 -309.147738 
L 836.184501 -305.965248 
L 835.768732 -302.782758 
L 835.342939 -299.600268 
L 834.907484 -296.417778 
z
" style="stroke: #595959; stroke-opacity: 0.7"/>
    </defs>
    <g clip-path="url(#pf85c7f8deb)">
     <use xlink:href="#m9253285106" x="0" y="720" style="fill: #b3b3b3; fill-opacity: 0.7; stroke: #595959; stroke-opacity: 0.7"/>
    </g>
   </g>
   <g id="line2d_9">
    <path d="M 99.24375 157.484087 
L 99.24375 83.039596 
" clip-path="url(#pf85c7f8deb)" style="fill: none; stroke: #595959; stroke-width: 1.5; stroke-linecap: round"/>
   </g>
   <g id="line2d_10">
    <path d="M 99.24375 138.872964 
L 99.24375 101.650719 
" clip-path="url(#pf85c7f8deb)" style="fill: none; stroke: #595959; stroke-width: 4.5; stroke-linecap: round"/>
   </g>
   <g id="line2d_11">
    <path d="M 99.24375 120.261841 
" clip-path="url(#pf85c7f8deb)" style="fill: none; stroke: #595959; stroke-width: 1.5; stroke-linecap: round"/>
    <defs>
     <path id="m8d3116f46b" d="M 1.875 0 
L -1.875 -0 
" style="stroke: #ffffff; stroke-width: 0.9"/>
    </defs>
    <g clip-path="url(#pf85c7f8deb)">
     <use xlink:href="#m8d3116f46b" x="99.24375" y="120.261841" style="fill: #ffffff; stroke: #ffffff; stroke-width: 0.9"/>
    </g>
   </g>
   <g id="line2d_12">
    <path d="M 199.77125 461.465757 
L 199.77125 120.261841 
" clip-path="url(#pf85c7f8deb)" style="fill: none; stroke: #595959; stroke-width: 1.5; stroke-linecap: round"/>
   </g>
   <g id="line2d_13">
    <path d="M 199.77125 365.30829 
L 199.77125 162.136867 
" clip-path="url(#pf85c7f8deb)" style="fill: none; stroke: #595959; stroke-width: 4.5; stroke-linecap: round"/>
   </g>
   <g id="line2d_14">
    <path d="M 199.77125 241.234139 
" clip-path="url(#pf85c7f8deb)" style="fill: none; stroke: #595959; stroke-width: 1.5; stroke-linecap: round"/>
    <g clip-path="url(#pf85c7f8deb)">
     <use xlink:href="#m8d3116f46b" x="199.77125" y="241.234139" style="fill: #ffffff; stroke: #ffffff; stroke-width: 0.9"/>
    </g>
   </g>
   <g id="line2d_15">
    <path d="M 300.29875 349.799021 
L 300.29875 126.465549 
" clip-path="url(#pf85c7f8deb)" style="fill: none; stroke: #595959; stroke-width: 1.5; stroke-linecap: round"/>
   </g>
   <g id="line2d_16">
    <path d="M 300.29875 340.49346 
L 300.29875 228.826724 
" clip-path="url(#pf85c7f8deb)" style="fill: none; stroke: #595959; stroke-width: 4.5; stroke-linecap: round"/>
   </g>
   <g id="line2d_17">
    <path d="M 300.29875 331.187899 
" clip-path="url(#pf85c7f8deb)" style="fill: none; stroke: #595959; stroke-width: 1.5; stroke-linecap: round"/>
    <g clip-path="url(#pf85c7f8deb)">
     <use xlink:href="#m8d3116f46b" x="300.29875" y="331.187899" style="fill: #ffffff; stroke: #ffffff; stroke-width: 0.9"/>
    </g>
   </g>
   <g id="line2d_18">
    <path d="M 400.82625 473.873173 
L 400.82625 250.5397 
" clip-path="url(#pf85c7f8deb)" style="fill: none; stroke: #595959; stroke-width: 1.5; stroke-linecap: round"/>
   </g>
   <g id="line2d_19">
    <path d="M 400.82625 428.896293 
L 400.82625 311.025849 
" clip-path="url(#pf85c7f8deb)" style="fill: none; stroke: #595959; stroke-width: 4.5; stroke-linecap: round"/>
   </g>
   <g id="line2d_20">
    <path d="M 400.82625 359.104583 
" clip-path="url(#pf85c7f8deb)" style="fill: none; stroke: #595959; stroke-width: 1.5; stroke-linecap: round"/>
    <g clip-path="url(#pf85c7f8deb)">
     <use xlink:href="#m8d3116f46b" x="400.82625" y="359.104583" style="fill: #ffffff; stroke: #ffffff; stroke-width: 0.9"/>
    </g>
   </g>
   <g id="line2d_21">
    <path d="M 501.35375 492.484295 
L 501.35375 238.132285 
" clip-path="url(#pf85c7f8deb)" style="fill: none; stroke: #595959; stroke-width: 1.5; stroke-linecap: round"/>
   </g>
   <g id="line2d_22">
    <path d="M 501.35375 428.896293 
L 501.35375 301.720288 
" clip-path="url(#pf85c7f8deb)" style="fill: none; stroke: #595959; stroke-width: 4.5; stroke-linecap: round"/>
   </g>
   <g id="line2d_23">
    <path d="M 501.35375 365.30829 
" clip-path="url(#pf85c7f8deb)" style="fill: none; stroke: #595959; stroke-width: 1.5; stroke-linecap: round"/>
    <g clip-path="url(#pf85c7f8deb)">
     <use xlink:href="#m8d3116f46b" x="501.35375" y="365.30829" style="fill: #ffffff; stroke: #ffffff; stroke-width: 0.9"/>
    </g>
   </g>
   <g id="line2d_24">
    <path d="M 601.88125 529.706541 
L 601.88125 492.484295 
" clip-path="url(#pf85c7f8deb)" style="fill: none; stroke: #595959; stroke-width: 1.5; stroke-linecap: round"/>
   </g>
   <g id="line2d_25">
    <path d="M 601.88125 529.706541 
L 601.88125 501.789857 
" clip-path="url(#pf85c7f8deb)" style="fill: none; stroke: #595959; stroke-width: 4.5; stroke-linecap: round"/>
   </g>
   <g id="line2d_26">
    <path d="M 601.88125 517.299126 
" clip-path="url(#pf85c7f8deb)" style="fill: none; stroke: #595959; stroke-width: 1.5; stroke-linecap: round"/>
    <g clip-path="url(#pf85c7f8deb)">
     <use xlink:href="#m8d3116f46b" x="601.88125" y="517.299126" style="fill: #ffffff; stroke: #ffffff; stroke-width: 0.9"/>
    </g>
   </g>
   <g id="line2d_27">
    <path d="M 702.40875 207.113747 
L 702.40875 169.891502 
" clip-path="url(#pf85c7f8deb)" style="fill: none; stroke: #595959; stroke-width: 1.5; stroke-linecap: round"/>
   </g>
   <g id="line2d_28">
    <path d="M 702.40875 197.808186 
L 702.40875 179.197063 
" clip-path="url(#pf85c7f8deb)" style="fill: none; stroke: #595959; stroke-width: 4.5; stroke-linecap: round"/>
   </g>
   <g id="line2d_29">
    <path d="M 702.40875 188.502625 
" clip-path="url(#pf85c7f8deb)" style="fill: none; stroke: #595959; stroke-width: 1.5; stroke-linecap: round"/>
    <g clip-path="url(#pf85c7f8deb)">
     <use xlink:href="#m8d3116f46b" x="702.40875" y="188.502625" style="fill: #ffffff; stroke: #ffffff; stroke-width: 0.9"/>
    </g>
   </g>
   <g id="line2d_30">
    <path d="M 802.93625 411.836097 
L 802.93625 120.261841 
" clip-path="url(#pf85c7f8deb)" style="fill: none; stroke: #595959; stroke-width: 1.5; stroke-linecap: round"/>
   </g>
   <g id="line2d_31">
    <path d="M 802.93625 349.799021 
L 802.93625 204.011893 
" clip-path="url(#pf85c7f8deb)" style="fill: none; stroke: #595959; stroke-width: 4.5; stroke-linecap: round"/>
   </g>
   <g id="line2d_32">
    <path d="M 802.93625 287.761946 
" clip-path="url(#pf85c7f8deb)" style="fill: none; stroke: #595959; stroke-width: 1.5; stroke-linecap: round"/>
    <g clip-path="url(#pf85c7f8deb)">
     <use xlink:href="#m8d3116f46b" x="802.93625" y="287.761946" style="fill: #ffffff; stroke: #ffffff; stroke-width: 0.9"/>
    </g>
   </g>
   <g id="patch_3">
    <path d="M 48.98 553.75 
L 48.98 55.824 
" style="fill: none; stroke: #cccccc; stroke-width: 0.8; stroke-linejoin: miter; stroke-linecap: square"/>
   </g>
   <g id="patch_4">
    <path d="M 853.2 553.75 
L 853.2 55.824 
" style="fill: none; stroke: #cccccc; stroke-width: 0.8; stroke-linejoin: miter; stroke-linecap: square"/>
   </g>
   <g id="patch_5">
    <path d="M 48.98 553.75 
L 853.2 553.75 
" style="fill: none; stroke: #cccccc; stroke-width: 0.8; stroke-linejoin: miter; stroke-linecap: square"/>
   </g>
   <g id="patch_6">
    <path d="M 48.98 55.824 
L 853.2 55.824 
" style="fill: none; stroke: #cccccc; stroke-width: 0.8; stroke-linejoin: miter; stroke-linecap: square"/>
   </g>
   <g id="text_19">
    <!-- Distribución de Edad por Ocupación con Embolia -->
    <g style="fill: #262626" transform="translate(174.611875 27.428375) scale(0.2 -0.2)">
     <defs>
      <path id="DejaVuSerif-Bold-44" d="M 2100 378 
L 2534 378 
Q 3266 378 3605 847 
Q 3944 1316 3944 2338 
Q 3944 3353 3606 3820 
Q 3269 4288 2534 4288 
L 2100 4288 
L 2100 378 
z
M 300 0 
L 300 378 
L 897 378 
L 897 4288 
L 300 4288 
L 300 4666 
L 2694 4666 
Q 3950 4666 4615 4066 
Q 5281 3466 5281 2338 
Q 5281 1203 4614 601 
Q 3947 0 2694 0 
L 300 0 
z
" transform="scale(0.015625)"/>
      <path id="DejaVuSerif-Bold-73" d="M 300 97 
L 300 1025 
L 653 1025 
Q 697 653 931 458 
Q 1166 263 1569 263 
Q 1906 263 2086 380 
Q 2266 497 2266 716 
Q 2266 916 2152 1025 
Q 2038 1134 1709 1216 
L 1253 1331 
Q 738 1459 506 1698 
Q 275 1938 275 2344 
Q 275 2884 650 3148 
Q 1025 3413 1806 3413 
Q 2100 3413 2433 3364 
Q 2766 3316 3169 3213 
L 3169 2375 
L 2816 2375 
Q 2788 2716 2573 2887 
Q 2359 3059 1959 3059 
Q 1622 3059 1448 2951 
Q 1275 2844 1275 2638 
Q 1275 2469 1375 2372 
Q 1475 2275 1734 2209 
L 2188 2094 
Q 2841 1928 3091 1684 
Q 3341 1441 3341 1006 
Q 3341 444 2939 176 
Q 2538 -91 1691 -91 
Q 1381 -91 1034 -44 
Q 688 3 300 97 
z
" transform="scale(0.015625)"/>
      <path id="DejaVuSerif-Bold-74" d="M 634 2944 
L 153 2944 
L 153 3322 
L 634 3322 
L 634 4353 
L 1741 4353 
L 1741 3322 
L 2663 3322 
L 2663 2944 
L 1741 2944 
L 1741 909 
Q 1741 475 1809 369 
Q 1878 263 2059 263 
Q 2259 263 2356 397 
Q 2453 531 2459 813 
L 2925 813 
Q 2897 313 2651 111 
Q 2406 -91 1806 -91 
Q 1122 -91 878 123 
Q 634 338 634 909 
L 634 2944 
z
" transform="scale(0.015625)"/>
      <path id="DejaVuSerif-Bold-72" d="M 3438 3359 
L 3438 2369 
L 3084 2369 
Q 3066 2634 2941 2764 
Q 2816 2894 2578 2894 
Q 2216 2894 2006 2575 
Q 1797 2256 1797 1691 
L 1797 378 
L 2400 378 
L 2400 0 
L 219 0 
L 219 378 
L 691 378 
L 691 2944 
L 184 2944 
L 184 3322 
L 1797 3322 
L 1797 2731 
Q 1959 3078 2226 3245 
Q 2494 3413 2881 3413 
Q 2978 3413 3117 3398 
Q 3256 3384 3438 3359 
z
" transform="scale(0.015625)"/>
      <path id="DejaVuSerif-Bold-62" d="M 622 378 
L 622 4488 
L 147 4488 
L 147 4863 
L 1728 4863 
L 1728 2900 
Q 1869 3159 2106 3286 
Q 2344 3413 2694 3413 
Q 3403 3413 3811 2945 
Q 4219 2478 4219 1663 
Q 4219 847 3811 378 
Q 3403 -91 2694 -91 
Q 2344 -91 2106 36 
Q 1869 163 1728 422 
L 1728 0 
L 147 0 
L 147 378 
L 622 378 
z
M 1728 1497 
Q 1728 916 1876 656 
Q 2025 397 2356 397 
Q 2697 397 2836 672 
Q 2975 947 2975 1663 
Q 2975 2378 2836 2651 
Q 2697 2925 2356 2925 
Q 2025 2925 1876 2665 
Q 1728 2406 1728 1825 
L 1728 1497 
z
" transform="scale(0.015625)"/>
      <path id="DejaVuSerif-Bold-20" transform="scale(0.015625)"/>
      <path id="DejaVuSerif-Bold-65" d="M 2566 1875 
Q 2566 2531 2444 2795 
Q 2322 3059 2028 3059 
Q 1744 3059 1620 2800 
Q 1497 2541 1497 1931 
L 1497 1875 
L 2566 1875 
z
M 3781 1503 
L 1497 1503 
L 1497 1478 
Q 1497 834 1690 548 
Q 1884 263 2316 263 
Q 2675 263 2897 453 
Q 3119 644 3181 1006 
L 3700 1006 
Q 3566 441 3166 175 
Q 2766 -91 2047 -91 
Q 1184 -91 723 364 
Q 263 819 263 1663 
Q 263 2488 734 2950 
Q 1206 3413 2047 3413 
Q 2872 3413 3312 2927 
Q 3753 2441 3781 1503 
z
" transform="scale(0.015625)"/>
      <path id="DejaVuSerif-Bold-6f" d="M 2138 263 
Q 2488 263 2630 563 
Q 2772 863 2772 1663 
Q 2772 2463 2631 2761 
Q 2491 3059 2138 3059 
Q 1784 3059 1640 2757 
Q 1497 2456 1497 1663 
Q 1497 869 1640 566 
Q 1784 263 2138 263 
z
M 2138 -91 
Q 1259 -91 761 376 
Q 263 844 263 1663 
Q 263 2484 761 2948 
Q 1259 3413 2138 3413 
Q 3019 3413 3516 2948 
Q 4013 2484 4013 1663 
Q 4013 844 3514 376 
Q 3016 -91 2138 -91 
z
" transform="scale(0.015625)"/>
      <path id="DejaVuSerif-Bold-6d" d="M 3884 2778 
Q 4116 3109 4384 3261 
Q 4653 3413 5013 3413 
Q 5584 3413 5867 3089 
Q 6150 2766 6150 2113 
L 6150 378 
L 6625 378 
L 6625 0 
L 4647 0 
L 4647 378 
L 5044 378 
L 5044 1947 
Q 5044 2569 4948 2731 
Q 4853 2894 4594 2894 
Q 4300 2894 4137 2667 
Q 3975 2441 3975 2022 
L 3975 378 
L 4372 378 
L 4372 0 
L 2472 0 
L 2472 378 
L 2869 378 
L 2869 1947 
Q 2869 2569 2772 2731 
Q 2675 2894 2419 2894 
Q 2122 2894 1959 2667 
Q 1797 2441 1797 2022 
L 1797 378 
L 2194 378 
L 2194 0 
L 219 0 
L 219 378 
L 691 378 
L 691 2944 
L 219 2944 
L 219 3322 
L 1797 3322 
L 1797 2853 
Q 1991 3144 2241 3278 
Q 2491 3413 2834 3413 
Q 3241 3413 3494 3258 
Q 3747 3103 3884 2778 
z
" transform="scale(0.015625)"/>
      <path id="DejaVuSerif-Bold-6c" d="M 1797 378 
L 2272 378 
L 2272 0 
L 219 0 
L 219 378 
L 691 378 
L 691 4488 
L 219 4488 
L 219 4863 
L 1797 4863 
L 1797 378 
z
" transform="scale(0.015625)"/>
     </defs>
     <use xlink:href="#DejaVuSerif-Bold-44"/>
     <use xlink:href="#DejaVuSerif-Bold-69" transform="translate(86.71875 0)"/>
     <use xlink:href="#DejaVuSerif-Bold-73" transform="translate(124.707031 0)"/>
     <use xlink:href="#DejaVuSerif-Bold-74" transform="translate(181.005859 0)"/>
     <use xlink:href="#DejaVuSerif-Bold-72" transform="translate(227.197266 0)"/>
     <use xlink:href="#DejaVuSerif-Bold-69" transform="translate(279.882812 0)"/>
     <use xlink:href="#DejaVuSerif-Bold-62" transform="translate(317.871094 0)"/>
     <use xlink:href="#DejaVuSerif-Bold-75" transform="translate(387.792969 0)"/>
     <use xlink:href="#DejaVuSerif-Bold-63" transform="translate(460.498047 0)"/>
     <use xlink:href="#DejaVuSerif-Bold-69" transform="translate(521.386719 0)"/>
     <use xlink:href="#DejaVuSerif-Bold-f3" transform="translate(559.375 0)"/>
     <use xlink:href="#DejaVuSerif-Bold-6e" transform="translate(626.074219 0)"/>
     <use xlink:href="#DejaVuSerif-Bold-20" transform="translate(698.779297 0)"/>
     <use xlink:href="#DejaVuSerif-Bold-64" transform="translate(733.59375 0)"/>
     <use xlink:href="#DejaVuSerif-Bold-65" transform="translate(803.515625 0)"/>
     <use xlink:href="#DejaVuSerif-Bold-20" transform="translate(867.138672 0)"/>
     <use xlink:href="#DejaVuSerif-Bold-45" transform="translate(901.953125 0)"/>
     <use xlink:href="#DejaVuSerif-Bold-64" transform="translate(978.173828 0)"/>
     <use xlink:href="#DejaVuSerif-Bold-61" transform="translate(1048.095703 0)"/>
     <use xlink:href="#DejaVuSerif-Bold-64" transform="translate(1112.890625 0)"/>
     <use xlink:href="#DejaVuSerif-Bold-20" transform="translate(1182.8125 0)"/>
     <use xlink:href="#DejaVuSerif-Bold-70" transform="translate(1217.626953 0)"/>
     <use xlink:href="#DejaVuSerif-Bold-6f" transform="translate(1287.548828 0)"/>
     <use xlink:href="#DejaVuSerif-Bold-72" transform="translate(1354.248047 0)"/>
     <use xlink:href="#DejaVuSerif-Bold-20" transform="translate(1406.933594 0)"/>
     <use xlink:href="#DejaVuSerif-Bold-4f" transform="translate(1441.748047 0)"/>
     <use xlink:href="#DejaVuSerif-Bold-63" transform="translate(1528.857422 0)"/>
     <use xlink:href="#DejaVuSerif-Bold-75" transform="translate(1589.746094 0)"/>
     <use xlink:href="#DejaVuSerif-Bold-70" transform="translate(1662.451172 0)"/>
     <use xlink:href="#DejaVuSerif-Bold-61" transform="translate(1732.373047 0)"/>
     <use xlink:href="#DejaVuSerif-Bold-63" transform="translate(1797.167969 0)"/>
     <use xlink:href="#DejaVuSerif-Bold-69" transform="translate(1858.056641 0)"/>
     <use xlink:href="#DejaVuSerif-Bold-f3" transform="translate(1896.044922 0)"/>
     <use xlink:href="#DejaVuSerif-Bold-6e" transform="translate(1962.744141 0)"/>
     <use xlink:href="#DejaVuSerif-Bold-20" transform="translate(2035.449219 0)"/>
     <use xlink:href="#DejaVuSerif-Bold-63" transform="translate(2070.263672 0)"/>
     <use xlink:href="#DejaVuSerif-Bold-6f" transform="translate(2131.152344 0)"/>
     <use xlink:href="#DejaVuSerif-Bold-6e" transform="translate(2197.851562 0)"/>
     <use xlink:href="#DejaVuSerif-Bold-20" transform="translate(2270.556641 0)"/>
     <use xlink:href="#DejaVuSerif-Bold-45" transform="translate(2305.371094 0)"/>
     <use xlink:href="#DejaVuSerif-Bold-6d" transform="translate(2381.591797 0)"/>
     <use xlink:href="#DejaVuSerif-Bold-62" transform="translate(2487.402344 0)"/>
     <use xlink:href="#DejaVuSerif-Bold-6f" transform="translate(2557.324219 0)"/>
     <use xlink:href="#DejaVuSerif-Bold-6c" transform="translate(2624.023438 0)"/>
     <use xlink:href="#DejaVuSerif-Bold-69" transform="translate(2662.011719 0)"/>
     <use xlink:href="#DejaVuSerif-Bold-61" transform="translate(2700 0)"/>
    </g>
    <!--  -->
    <g style="fill: #262626" transform="translate(451.09 49.824) scale(0.2 -0.2)"/>
   </g>
  </g>
 </g>
 <defs>
  <clipPath id="pf85c7f8deb">
   <rect x="48.98" y="55.824" width="804.22" height="497.926"/>
  </clipPath>
 </defs>
</svg>
