<?xml version="1.0" encoding="utf-8" standalone="no"?>
<!DOCTYPE svg PUBLIC "-//W3C//DTD SVG 1.1//EN"
  "http://www.w3.org/Graphics/SVG/1.1/DTD/svg11.dtd">
<svg xmlns:xlink="http://www.w3.org/1999/xlink" width="864pt" height="432pt" viewBox="0 0 864 432" xmlns="http://www.w3.org/2000/svg" version="1.1">
 <metadata>
  <rdf:RDF xmlns:dc="http://purl.org/dc/elements/1.1/" xmlns:cc="http://creativecommons.org/ns#" xmlns:rdf="http://www.w3.org/1999/02/22-rdf-syntax-ns#">
   <cc:Work>
    <dc:type rdf:resource="http://purl.org/dc/dcmitype/StillImage"/>
    <dc:date>2025-02-23T20:14:42.845199</dc:date>
    <dc:format>image/svg+xml</dc:format>
    <dc:creator>
     <cc:Agent>
      <dc:title>Matplotlib v3.10.0, https://matplotlib.org/</dc:title>
     </cc:Agent>
    </dc:creator>
   </cc:Work>
  </rdf:RDF>
 </metadata>
 <defs>
  <style type="text/css">*{stroke-linejoin: round; stroke-linecap: butt}</style>
 </defs>
 <g id="figure_1">
  <g id="patch_1">
   <path d="M 0 432 
L 864 432 
L 864 0 
L 0 0 
z
" style="fill: #ffffff"/>
  </g>
  <g id="axes_1">
   <g id="patch_2">
    <path d="M 108 384.48 
L 777.6 384.48 
L 777.6 51.84 
L 108 51.84 
z
" style="fill: #ffffff"/>
   </g>
   <g id="matplotlib.axis_1">
    <g id="xtick_1">
     <g id="line2d_1">
      <path d="M 171.963301 384.48 
L 171.963301 51.84 
" clip-path="url(#pd3dc64dc08)" style="fill: none; stroke-dasharray: 2.96,1.28; stroke-dashoffset: 0; stroke: #b0b0b0; stroke-opacity: 0.5; stroke-width: 0.8"/>
     </g>
     <g id="line2d_2">
      <defs>
       <path id="m026ff35596" d="M 0 0 
L 0 3.5 
" style="stroke: #000000; stroke-width: 0.8"/>
      </defs>
      <g>
       <use xlink:href="#m026ff35596" x="171.963301" y="384.48" style="stroke: #000000; stroke-width: 0.8"/>
      </g>
     </g>
     <g id="text_1">
      <!-- 2012 -->
      <g transform="translate(159.238301 399.078438) scale(0.1 -0.1)">
       <defs>
        <path id="DejaVuSans-32" d="M 1228 531 
L 3431 531 
L 3431 0 
L 469 0 
L 469 531 
Q 828 903 1448 1529 
Q 2069 2156 2228 2338 
Q 2531 2678 2651 2914 
Q 2772 3150 2772 3378 
Q 2772 3750 2511 3984 
Q 2250 4219 1831 4219 
Q 1534 4219 1204 4116 
Q 875 4013 500 3803 
L 500 4441 
Q 881 4594 1212 4672 
Q 1544 4750 1819 4750 
Q 2544 4750 2975 4387 
Q 3406 4025 3406 3419 
Q 3406 3131 3298 2873 
Q 3191 2616 2906 2266 
Q 2828 2175 2409 1742 
Q 1991 1309 1228 531 
z
" transform="scale(0.015625)"/>
        <path id="DejaVuSans-30" d="M 2034 4250 
Q 1547 4250 1301 3770 
Q 1056 3291 1056 2328 
Q 1056 1369 1301 889 
Q 1547 409 2034 409 
Q 2525 409 2770 889 
Q 3016 1369 3016 2328 
Q 3016 3291 2770 3770 
Q 2525 4250 2034 4250 
z
M 2034 4750 
Q 2819 4750 3233 4129 
Q 3647 3509 3647 2328 
Q 3647 1150 3233 529 
Q 2819 -91 2034 -91 
Q 1250 -91 836 529 
Q 422 1150 422 2328 
Q 422 3509 836 4129 
Q 1250 4750 2034 4750 
z
" transform="scale(0.015625)"/>
        <path id="DejaVuSans-31" d="M 794 531 
L 1825 531 
L 1825 4091 
L 703 3866 
L 703 4441 
L 1819 4666 
L 2450 4666 
L 2450 531 
L 3481 531 
L 3481 0 
L 794 0 
L 794 531 
z
" transform="scale(0.015625)"/>
       </defs>
       <use xlink:href="#DejaVuSans-32"/>
       <use xlink:href="#DejaVuSans-30" transform="translate(63.623047 0)"/>
       <use xlink:href="#DejaVuSans-31" transform="translate(127.246094 0)"/>
       <use xlink:href="#DejaVuSans-32" transform="translate(190.869141 0)"/>
      </g>
     </g>
    </g>
    <g id="xtick_2">
     <g id="line2d_3">
      <path d="M 261.083998 384.48 
L 261.083998 51.84 
" clip-path="url(#pd3dc64dc08)" style="fill: none; stroke-dasharray: 2.96,1.28; stroke-dashoffset: 0; stroke: #b0b0b0; stroke-opacity: 0.5; stroke-width: 0.8"/>
     </g>
     <g id="line2d_4">
      <g>
       <use xlink:href="#m026ff35596" x="261.083998" y="384.48" style="stroke: #000000; stroke-width: 0.8"/>
      </g>
     </g>
     <g id="text_2">
      <!-- 2014 -->
      <g transform="translate(248.358998 399.078438) scale(0.1 -0.1)">
       <defs>
        <path id="DejaVuSans-34" d="M 2419 4116 
L 825 1625 
L 2419 1625 
L 2419 4116 
z
M 2253 4666 
L 3047 4666 
L 3047 1625 
L 3713 1625 
L 3713 1100 
L 3047 1100 
L 3047 0 
L 2419 0 
L 2419 1100 
L 313 1100 
L 313 1709 
L 2253 4666 
z
" transform="scale(0.015625)"/>
       </defs>
       <use xlink:href="#DejaVuSans-32"/>
       <use xlink:href="#DejaVuSans-30" transform="translate(63.623047 0)"/>
       <use xlink:href="#DejaVuSans-31" transform="translate(127.246094 0)"/>
       <use xlink:href="#DejaVuSans-34" transform="translate(190.869141 0)"/>
      </g>
     </g>
    </g>
    <g id="xtick_3">
     <g id="line2d_5">
      <path d="M 350.082778 384.48 
L 350.082778 51.84 
" clip-path="url(#pd3dc64dc08)" style="fill: none; stroke-dasharray: 2.96,1.28; stroke-dashoffset: 0; stroke: #b0b0b0; stroke-opacity: 0.5; stroke-width: 0.8"/>
     </g>
     <g id="line2d_6">
      <g>
       <use xlink:href="#m026ff35596" x="350.082778" y="384.48" style="stroke: #000000; stroke-width: 0.8"/>
      </g>
     </g>
     <g id="text_3">
      <!-- 2016 -->
      <g transform="translate(337.357778 399.078438) scale(0.1 -0.1)">
       <defs>
        <path id="DejaVuSans-36" d="M 2113 2584 
Q 1688 2584 1439 2293 
Q 1191 2003 1191 1497 
Q 1191 994 1439 701 
Q 1688 409 2113 409 
Q 2538 409 2786 701 
Q 3034 994 3034 1497 
Q 3034 2003 2786 2293 
Q 2538 2584 2113 2584 
z
M 3366 4563 
L 3366 3988 
Q 3128 4100 2886 4159 
Q 2644 4219 2406 4219 
Q 1781 4219 1451 3797 
Q 1122 3375 1075 2522 
Q 1259 2794 1537 2939 
Q 1816 3084 2150 3084 
Q 2853 3084 3261 2657 
Q 3669 2231 3669 1497 
Q 3669 778 3244 343 
Q 2819 -91 2113 -91 
Q 1303 -91 875 529 
Q 447 1150 447 2328 
Q 447 3434 972 4092 
Q 1497 4750 2381 4750 
Q 2619 4750 2861 4703 
Q 3103 4656 3366 4563 
z
" transform="scale(0.015625)"/>
       </defs>
       <use xlink:href="#DejaVuSans-32"/>
       <use xlink:href="#DejaVuSans-30" transform="translate(63.623047 0)"/>
       <use xlink:href="#DejaVuSans-31" transform="translate(127.246094 0)"/>
       <use xlink:href="#DejaVuSans-36" transform="translate(190.869141 0)"/>
      </g>
     </g>
    </g>
    <g id="xtick_4">
     <g id="line2d_7">
      <path d="M 439.203474 384.48 
L 439.203474 51.84 
" clip-path="url(#pd3dc64dc08)" style="fill: none; stroke-dasharray: 2.96,1.28; stroke-dashoffset: 0; stroke: #b0b0b0; stroke-opacity: 0.5; stroke-width: 0.8"/>
     </g>
     <g id="line2d_8">
      <g>
       <use xlink:href="#m026ff35596" x="439.203474" y="384.48" style="stroke: #000000; stroke-width: 0.8"/>
      </g>
     </g>
     <g id="text_4">
      <!-- 2018 -->
      <g transform="translate(426.478474 399.078438) scale(0.1 -0.1)">
       <defs>
        <path id="DejaVuSans-38" d="M 2034 2216 
Q 1584 2216 1326 1975 
Q 1069 1734 1069 1313 
Q 1069 891 1326 650 
Q 1584 409 2034 409 
Q 2484 409 2743 651 
Q 3003 894 3003 1313 
Q 3003 1734 2745 1975 
Q 2488 2216 2034 2216 
z
M 1403 2484 
Q 997 2584 770 2862 
Q 544 3141 544 3541 
Q 544 4100 942 4425 
Q 1341 4750 2034 4750 
Q 2731 4750 3128 4425 
Q 3525 4100 3525 3541 
Q 3525 3141 3298 2862 
Q 3072 2584 2669 2484 
Q 3125 2378 3379 2068 
Q 3634 1759 3634 1313 
Q 3634 634 3220 271 
Q 2806 -91 2034 -91 
Q 1263 -91 848 271 
Q 434 634 434 1313 
Q 434 1759 690 2068 
Q 947 2378 1403 2484 
z
M 1172 3481 
Q 1172 3119 1398 2916 
Q 1625 2713 2034 2713 
Q 2441 2713 2670 2916 
Q 2900 3119 2900 3481 
Q 2900 3844 2670 4047 
Q 2441 4250 2034 4250 
Q 1625 4250 1398 4047 
Q 1172 3844 1172 3481 
z
" transform="scale(0.015625)"/>
       </defs>
       <use xlink:href="#DejaVuSans-32"/>
       <use xlink:href="#DejaVuSans-30" transform="translate(63.623047 0)"/>
       <use xlink:href="#DejaVuSans-31" transform="translate(127.246094 0)"/>
       <use xlink:href="#DejaVuSans-38" transform="translate(190.869141 0)"/>
      </g>
     </g>
    </g>
    <g id="xtick_5">
     <g id="line2d_9">
      <path d="M 528.202254 384.48 
L 528.202254 51.84 
" clip-path="url(#pd3dc64dc08)" style="fill: none; stroke-dasharray: 2.96,1.28; stroke-dashoffset: 0; stroke: #b0b0b0; stroke-opacity: 0.5; stroke-width: 0.8"/>
     </g>
     <g id="line2d_10">
      <g>
       <use xlink:href="#m026ff35596" x="528.202254" y="384.48" style="stroke: #000000; stroke-width: 0.8"/>
      </g>
     </g>
     <g id="text_5">
      <!-- 2020 -->
      <g transform="translate(515.477254 399.078438) scale(0.1 -0.1)">
       <use xlink:href="#DejaVuSans-32"/>
       <use xlink:href="#DejaVuSans-30" transform="translate(63.623047 0)"/>
       <use xlink:href="#DejaVuSans-32" transform="translate(127.246094 0)"/>
       <use xlink:href="#DejaVuSans-30" transform="translate(190.869141 0)"/>
      </g>
     </g>
    </g>
    <g id="xtick_6">
     <g id="line2d_11">
      <path d="M 617.32295 384.48 
L 617.32295 51.84 
" clip-path="url(#pd3dc64dc08)" style="fill: none; stroke-dasharray: 2.96,1.28; stroke-dashoffset: 0; stroke: #b0b0b0; stroke-opacity: 0.5; stroke-width: 0.8"/>
     </g>
     <g id="line2d_12">
      <g>
       <use xlink:href="#m026ff35596" x="617.32295" y="384.48" style="stroke: #000000; stroke-width: 0.8"/>
      </g>
     </g>
     <g id="text_6">
      <!-- 2022 -->
      <g transform="translate(604.59795 399.078438) scale(0.1 -0.1)">
       <use xlink:href="#DejaVuSans-32"/>
       <use xlink:href="#DejaVuSans-30" transform="translate(63.623047 0)"/>
       <use xlink:href="#DejaVuSans-32" transform="translate(127.246094 0)"/>
       <use xlink:href="#DejaVuSans-32" transform="translate(190.869141 0)"/>
      </g>
     </g>
    </g>
    <g id="xtick_7">
     <g id="line2d_13">
      <path d="M 706.32173 384.48 
L 706.32173 51.84 
" clip-path="url(#pd3dc64dc08)" style="fill: none; stroke-dasharray: 2.96,1.28; stroke-dashoffset: 0; stroke: #b0b0b0; stroke-opacity: 0.5; stroke-width: 0.8"/>
     </g>
     <g id="line2d_14">
      <g>
       <use xlink:href="#m026ff35596" x="706.32173" y="384.48" style="stroke: #000000; stroke-width: 0.8"/>
      </g>
     </g>
     <g id="text_7">
      <!-- 2024 -->
      <g transform="translate(693.59673 399.078438) scale(0.1 -0.1)">
       <use xlink:href="#DejaVuSans-32"/>
       <use xlink:href="#DejaVuSans-30" transform="translate(63.623047 0)"/>
       <use xlink:href="#DejaVuSans-32" transform="translate(127.246094 0)"/>
       <use xlink:href="#DejaVuSans-34" transform="translate(190.869141 0)"/>
      </g>
     </g>
    </g>
   </g>
   <g id="matplotlib.axis_2">
    <g id="ytick_1">
     <g id="line2d_15">
      <path d="M 108 373.241447 
L 777.6 373.241447 
" clip-path="url(#pd3dc64dc08)" style="fill: none; stroke-dasharray: 2.96,1.28; stroke-dashoffset: 0; stroke: #b0b0b0; stroke-opacity: 0.5; stroke-width: 0.8"/>
     </g>
     <g id="line2d_16">
      <defs>
       <path id="m145a854a6e" d="M 0 0 
L -3.5 0 
" style="stroke: #000000; stroke-width: 0.8"/>
      </defs>
      <g>
       <use xlink:href="#m145a854a6e" x="108" y="373.241447" style="stroke: #000000; stroke-width: 0.8"/>
      </g>
     </g>
     <g id="text_8">
      <!-- 2 -->
      <g transform="translate(94.6375 377.040666) scale(0.1 -0.1)">
       <use xlink:href="#DejaVuSans-32"/>
      </g>
     </g>
    </g>
    <g id="ytick_2">
     <g id="line2d_17">
      <path d="M 108 302.669685 
L 777.6 302.669685 
" clip-path="url(#pd3dc64dc08)" style="fill: none; stroke-dasharray: 2.96,1.28; stroke-dashoffset: 0; stroke: #b0b0b0; stroke-opacity: 0.5; stroke-width: 0.8"/>
     </g>
     <g id="line2d_18">
      <g>
       <use xlink:href="#m145a854a6e" x="108" y="302.669685" style="stroke: #000000; stroke-width: 0.8"/>
      </g>
     </g>
     <g id="text_9">
      <!-- 4 -->
      <g transform="translate(94.6375 306.468904) scale(0.1 -0.1)">
       <use xlink:href="#DejaVuSans-34"/>
      </g>
     </g>
    </g>
    <g id="ytick_3">
     <g id="line2d_19">
      <path d="M 108 232.097923 
L 777.6 232.097923 
" clip-path="url(#pd3dc64dc08)" style="fill: none; stroke-dasharray: 2.96,1.28; stroke-dashoffset: 0; stroke: #b0b0b0; stroke-opacity: 0.5; stroke-width: 0.8"/>
     </g>
     <g id="line2d_20">
      <g>
       <use xlink:href="#m145a854a6e" x="108" y="232.097923" style="stroke: #000000; stroke-width: 0.8"/>
      </g>
     </g>
     <g id="text_10">
      <!-- 6 -->
      <g transform="translate(94.6375 235.897142) scale(0.1 -0.1)">
       <use xlink:href="#DejaVuSans-36"/>
      </g>
     </g>
    </g>
    <g id="ytick_4">
     <g id="line2d_21">
      <path d="M 108 161.526161 
L 777.6 161.526161 
" clip-path="url(#pd3dc64dc08)" style="fill: none; stroke-dasharray: 2.96,1.28; stroke-dashoffset: 0; stroke: #b0b0b0; stroke-opacity: 0.5; stroke-width: 0.8"/>
     </g>
     <g id="line2d_22">
      <g>
       <use xlink:href="#m145a854a6e" x="108" y="161.526161" style="stroke: #000000; stroke-width: 0.8"/>
      </g>
     </g>
     <g id="text_11">
      <!-- 8 -->
      <g transform="translate(94.6375 165.32538) scale(0.1 -0.1)">
       <use xlink:href="#DejaVuSans-38"/>
      </g>
     </g>
    </g>
    <g id="ytick_5">
     <g id="line2d_23">
      <path d="M 108 90.954399 
L 777.6 90.954399 
" clip-path="url(#pd3dc64dc08)" style="fill: none; stroke-dasharray: 2.96,1.28; stroke-dashoffset: 0; stroke: #b0b0b0; stroke-opacity: 0.5; stroke-width: 0.8"/>
     </g>
     <g id="line2d_24">
      <g>
       <use xlink:href="#m145a854a6e" x="108" y="90.954399" style="stroke: #000000; stroke-width: 0.8"/>
      </g>
     </g>
     <g id="text_12">
      <!-- 10 -->
      <g transform="translate(88.275 94.753618) scale(0.1 -0.1)">
       <use xlink:href="#DejaVuSans-31"/>
       <use xlink:href="#DejaVuSans-30" transform="translate(63.623047 0)"/>
      </g>
     </g>
    </g>
   </g>
   <g id="line2d_25">
    <path d="M 138.436364 295.25965 
L 142.093848 295.612509 
L 145.873248 294.906791 
L 149.530732 294.906791 
L 157.089533 297.023944 
L 160.747017 296.671085 
L 164.526417 297.023944 
L 168.183901 296.671085 
L 171.963301 295.965368 
L 175.742702 296.318226 
L 179.27827 295.965368 
L 183.05767 295.965368 
L 186.715154 296.671085 
L 190.494554 295.965368 
L 194.152038 296.671085 
L 197.931439 297.023944 
L 201.710839 296.671085 
L 205.368323 294.906791 
L 209.147723 294.201074 
L 212.805207 293.142497 
L 216.584608 293.848215 
L 220.364008 293.848215 
L 223.77766 299.493956 
L 227.55706 305.139697 
L 231.214544 307.609708 
L 234.993944 308.315426 
L 238.651428 308.315426 
L 242.430829 307.962567 
L 246.210229 314.314026 
L 249.867713 314.314026 
L 253.647113 319.254049 
L 257.304597 319.959767 
L 261.083998 321.371202 
L 264.863398 321.724061 
L 268.27705 322.429778 
L 272.05645 323.488355 
L 275.713934 323.135496 
L 279.493334 327.369802 
L 283.150818 333.72126 
L 286.930219 336.191272 
L 290.709619 337.249848 
L 298.146503 336.544131 
L 301.803987 336.896989 
L 305.583388 337.602707 
L 309.362788 337.602707 
L 312.77644 337.955566 
L 316.55584 337.249848 
L 320.213324 337.249848 
L 323.992724 336.896989 
L 331.429609 336.896989 
L 335.209009 336.544131 
L 342.645893 337.249848 
L 346.303377 335.838413 
L 353.862178 330.89839 
L 357.397746 323.841214 
L 361.177146 321.018343 
L 364.83463 318.90119 
L 368.614031 317.136896 
L 372.271515 311.491155 
L 376.050915 306.903991 
L 379.830315 304.786838 
L 383.487799 297.376803 
L 387.2672 291.378203 
L 394.704084 264.560933 
L 398.483484 260.326628 
L 401.897136 252.916593 
L 405.676536 246.212275 
L 409.33402 241.272252 
L 413.113421 235.626511 
L 416.770905 232.097923 
L 420.550305 227.863617 
L 427.987189 226.452182 
L 431.76659 226.805041 
L 435.424074 226.452182 
L 439.203474 222.570735 
L 442.982874 219.395006 
L 446.396526 215.1607 
L 450.175926 215.1607 
L 453.83341 214.102124 
L 457.612811 210.573536 
L 461.270295 205.986371 
L 465.049695 202.104924 
L 468.829095 200.34063 
L 472.486579 199.987771 
L 476.26598 200.34063 
L 479.923464 195.047748 
L 483.702864 191.51916 
L 487.482264 188.343431 
L 490.895916 187.284854 
L 494.675316 186.579137 
L 498.3328 187.284854 
L 502.112201 184.814842 
L 505.769685 183.756266 
L 509.549085 185.52056 
L 513.328485 188.696289 
L 524.422854 204.927795 
L 528.202254 210.573536 
L 531.981654 213.396406 
L 535.517222 219.747865 
L 539.296623 230.686488 
L 550.390991 273.382404 
L 554.170391 281.851015 
L 557.949792 290.672485 
L 561.607276 297.729662 
L 565.386676 300.905391 
L 569.04416 301.611109 
L 572.82356 301.963967 
L 576.602961 304.786838 
L 580.016612 308.668285 
L 583.796013 310.07972 
L 587.453497 310.785438 
L 591.232897 311.138296 
L 594.890381 308.315426 
L 598.669781 305.845414 
L 602.449182 302.669685 
L 609.886066 293.495356 
L 617.32295 278.675286 
L 621.102351 272.676686 
L 624.516002 265.266651 
L 628.295403 255.033746 
L 631.952887 246.917993 
L 635.732287 236.685088 
L 639.389771 222.570735 
L 643.169171 210.926394 
L 646.948572 198.576336 
L 650.606056 181.991972 
L 654.385456 168.936196 
L 658.04294 153.410408 
L 661.82234 139.296056 
L 669.015392 119.183104 
L 672.794793 112.478786 
L 676.452277 108.244481 
L 680.231677 106.127328 
L 683.889161 104.715893 
L 687.668561 104.363034 
L 691.447962 103.657316 
L 695.105446 101.893022 
L 698.884846 101.187305 
L 702.54233 96.952999 
L 706.32173 98.011575 
L 710.101131 95.894422 
L 713.636699 95.894422 
L 717.416099 99.423011 
L 721.073583 100.481587 
L 724.852983 99.775869 
L 728.510467 100.834446 
L 732.289868 103.304457 
L 736.069268 106.833046 
L 739.726752 113.184504 
L 743.506152 117.065951 
L 747.163636 121.300257 
L 747.163636 121.300257 
" clip-path="url(#pd3dc64dc08)" style="fill: none; stroke: #a6cee3; stroke-width: 1.5; stroke-linecap: square"/>
   </g>
   <g id="line2d_26">
    <path d="M 138.436364 295.965368 
L 149.530732 294.906791 
L 153.310132 296.318226 
L 157.089533 297.023944 
L 160.747017 296.671085 
L 164.526417 297.023944 
L 171.963301 296.318226 
L 175.742702 296.671085 
L 179.27827 296.318226 
L 183.05767 296.671085 
L 190.494554 295.965368 
L 194.152038 296.671085 
L 197.931439 297.023944 
L 205.368323 294.906791 
L 212.805207 293.495356 
L 216.584608 293.848215 
L 220.364008 293.848215 
L 223.77766 299.493956 
L 227.55706 305.139697 
L 231.214544 306.903991 
L 234.993944 307.962567 
L 238.651428 308.315426 
L 242.430829 307.609708 
L 246.210229 310.432579 
L 249.867713 314.666884 
L 253.647113 319.254049 
L 257.304597 319.959767 
L 264.863398 322.782637 
L 272.05645 323.488355 
L 275.713934 322.782637 
L 279.493334 327.72266 
L 283.150818 334.074119 
L 286.930219 336.191272 
L 290.709619 337.249848 
L 294.367103 336.896989 
L 298.146503 336.896989 
L 301.803987 336.544131 
L 305.583388 336.896989 
L 309.362788 337.602707 
L 312.77644 337.602707 
L 316.55584 337.249848 
L 320.213324 337.249848 
L 323.992724 336.896989 
L 327.650208 337.249848 
L 335.209009 336.544131 
L 338.866493 336.896989 
L 342.645893 336.896989 
L 346.303377 335.838413 
L 350.082778 333.368401 
L 353.862178 331.251249 
L 357.397746 323.488355 
L 361.177146 320.312625 
L 364.83463 318.548331 
L 368.614031 317.489755 
L 376.050915 306.903991 
L 379.830315 305.492555 
L 383.487799 297.376803 
L 387.2672 291.025344 
L 390.924684 277.969568 
L 394.704084 267.383804 
L 398.483484 261.032345 
L 401.897136 251.858016 
L 405.676536 245.506558 
L 413.113421 235.626511 
L 416.770905 230.333629 
L 420.550305 227.863617 
L 424.329705 226.805041 
L 427.987189 226.099323 
L 431.76659 227.1579 
L 435.424074 226.099323 
L 439.203474 222.217876 
L 446.396526 216.219277 
L 450.175926 214.807841 
L 453.83341 213.749265 
L 457.612811 210.220677 
L 461.270295 205.633512 
L 465.049695 201.752065 
L 468.829095 200.34063 
L 472.486579 200.693489 
L 476.26598 199.282054 
L 479.923464 194.694889 
L 483.702864 189.402007 
L 487.482264 187.637713 
L 490.895916 186.931995 
L 494.675316 187.284854 
L 498.3328 186.226278 
L 502.112201 184.461984 
L 505.769685 183.756266 
L 509.549085 184.814842 
L 513.328485 188.696289 
L 516.985969 194.34203 
L 520.76537 198.576336 
L 524.422854 204.574936 
L 528.202254 210.220677 
L 531.981654 213.396406 
L 535.517222 218.689288 
L 539.296623 230.333629 
L 542.954107 246.565134 
L 546.733507 259.973769 
L 550.390991 273.735263 
L 554.170391 282.203874 
L 557.949792 291.025344 
L 561.607276 297.729662 
L 565.386676 300.905391 
L 569.04416 301.25825 
L 572.82356 302.316826 
L 576.602961 304.786838 
L 580.016612 308.668285 
L 583.796013 310.07972 
L 587.453497 310.785438 
L 591.232897 311.138296 
L 594.890381 308.315426 
L 598.669781 305.845414 
L 602.449182 302.669685 
L 606.106666 298.08252 
L 609.886066 293.142497 
L 617.32295 278.322427 
L 621.102351 272.676686 
L 624.516002 264.208075 
L 628.295403 254.328028 
L 631.952887 246.565134 
L 635.732287 236.332229 
L 639.389771 221.865018 
L 643.169171 210.220677 
L 646.948572 197.51776 
L 650.606056 181.639113 
L 654.385456 167.87762 
L 658.04294 152.351832 
L 661.82234 138.590338 
L 669.015392 118.830245 
L 672.794793 112.125928 
L 676.452277 107.538763 
L 683.889161 104.715893 
L 687.668561 104.363034 
L 691.447962 103.657316 
L 702.54233 99.423011 
L 706.32173 97.305858 
L 710.101131 95.894422 
L 713.636699 96.247281 
L 717.416099 99.070152 
L 721.073583 100.128728 
L 724.852983 99.070152 
L 728.510467 100.481587 
L 732.289868 103.304457 
L 736.069268 107.185904 
L 739.726752 113.184504 
L 743.506152 116.713092 
L 747.163636 121.300257 
L 747.163636 121.300257 
" clip-path="url(#pd3dc64dc08)" style="fill: none; stroke: #1f78b4; stroke-width: 1.5; stroke-linecap: square"/>
   </g>
   <g id="line2d_27">
    <path d="M 138.436364 297.376803 
L 142.093848 287.143897 
L 145.873248 287.143897 
L 149.530732 309.021144 
L 153.310132 313.961167 
L 157.089533 314.314026 
L 171.963301 314.314026 
L 175.742702 293.848215 
L 179.27827 286.791039 
L 201.710839 286.791039 
L 205.368323 286.43818 
L 209.147723 286.791039 
L 212.805207 286.791039 
L 216.584608 291.731062 
L 223.77766 291.731062 
L 227.55706 291.378203 
L 238.651428 291.378203 
L 242.430829 291.731062 
L 246.210229 291.731062 
L 249.867713 293.848215 
L 264.863398 293.848215 
L 268.27705 293.495356 
L 272.05645 292.436779 
L 275.713934 291.731062 
L 279.493334 296.671085 
L 283.150818 291.731062 
L 286.930219 291.731062 
L 290.709619 291.378203 
L 323.992724 291.378203 
L 327.650208 291.025344 
L 335.209009 291.025344 
L 338.866493 290.672485 
L 342.645893 290.672485 
L 346.303377 290.319627 
L 353.862178 290.319627 
L 357.397746 289.966768 
L 379.830315 289.966768 
L 383.487799 288.908191 
L 387.2672 288.202474 
L 394.704084 288.202474 
L 398.483484 292.789638 
L 401.897136 292.789638 
L 405.676536 285.732462 
L 431.76659 285.732462 
L 435.424074 283.968168 
L 439.203474 282.556733 
L 468.829095 282.556733 
L 472.486579 288.202474 
L 483.702864 288.202474 
L 487.482264 287.849615 
L 494.675316 287.849615 
L 498.3328 298.788238 
L 520.76537 298.788238 
L 524.422854 291.025344 
L 528.202254 288.202474 
L 531.981654 288.908191 
L 550.390991 288.908191 
L 554.170391 287.496756 
L 557.949792 280.086721 
L 561.607276 282.203874 
L 609.886066 282.203874 
L 613.54355 283.968168 
L 617.32295 287.143897 
L 676.452277 287.143897 
L 680.231677 286.43818 
L 691.447962 286.43818 
L 695.105446 287.849615 
L 706.32173 287.849615 
L 713.636699 285.026744 
L 747.163636 285.026744 
L 747.163636 285.026744 
" clip-path="url(#pd3dc64dc08)" style="fill: none; stroke: #b2df8a; stroke-width: 1.5; stroke-linecap: square"/>
   </g>
   <g id="line2d_28">
    <path d="M 138.436364 368.654282 
L 142.093848 367.948565 
L 145.873248 365.831412 
L 149.530732 369.007141 
L 153.310132 364.419977 
L 157.089533 361.597106 
L 160.747017 366.184271 
L 164.526417 364.067118 
L 168.183901 360.891389 
L 171.963301 361.244247 
L 175.742702 359.832812 
L 179.27827 365.478553 
L 183.05767 361.949965 
L 186.715154 349.952765 
L 190.494554 346.777036 
L 194.152038 346.424177 
L 197.931439 342.54273 
L 201.710839 331.251249 
L 205.368323 329.486954 
L 209.147723 321.018343 
L 212.805207 329.839813 
L 216.584608 329.839813 
L 220.364008 317.489755 
L 223.77766 316.784037 
L 227.55706 324.546931 
L 231.214544 318.90119 
L 234.993944 317.489755 
L 238.651428 314.666884 
L 242.430829 317.489755 
L 246.210229 315.725461 
L 249.867713 315.019743 
L 253.647113 310.432579 
L 257.304597 315.725461 
L 261.083998 318.90119 
L 264.863398 304.08112 
L 268.27705 312.196873 
L 272.05645 308.668285 
L 275.713934 307.609708 
L 279.493334 307.962567 
L 283.150818 307.962567 
L 286.930219 312.196873 
L 290.709619 307.609708 
L 294.367103 312.90259 
L 298.146503 310.07972 
L 305.583388 323.135496 
L 309.362788 310.785438 
L 312.77644 317.136896 
L 316.55584 314.666884 
L 320.213324 314.314026 
L 323.992724 309.021144 
L 327.650208 311.844014 
L 331.429609 310.432579 
L 335.209009 313.608308 
L 338.866493 312.196873 
L 342.645893 306.903991 
L 346.303377 310.785438 
L 350.082778 309.726861 
L 353.862178 302.669685 
L 357.397746 309.726861 
L 361.177146 323.488355 
L 364.83463 323.488355 
L 368.614031 322.782637 
L 372.271515 321.724061 
L 376.050915 316.07832 
L 379.830315 311.491155 
L 383.487799 306.551132 
L 387.2672 303.375403 
L 390.924684 304.786838 
L 394.704084 300.199673 
L 398.483484 294.201074 
L 401.897136 304.08112 
L 405.676536 299.141097 
L 409.33402 302.316826 
L 413.113421 303.375403 
L 416.770905 299.141097 
L 420.550305 300.552532 
L 424.329705 294.906791 
L 427.987189 297.729662 
L 431.76659 293.495356 
L 435.424074 294.906791 
L 439.203474 294.201074 
L 442.982874 285.026744 
L 446.396526 294.906791 
L 450.175926 294.906791 
L 453.83341 297.376803 
L 457.612811 293.142497 
L 461.270295 295.612509 
L 465.049695 299.141097 
L 468.829095 297.023944 
L 472.486579 299.493956 
L 476.26598 296.318226 
L 479.923464 299.846814 
L 483.702864 298.435379 
L 487.482264 288.202474 
L 490.895916 295.965368 
L 494.675316 293.495356 
L 498.3328 293.848215 
L 502.112201 294.906791 
L 505.769685 292.083921 
L 509.549085 293.142497 
L 513.328485 292.789638 
L 516.985969 292.789638 
L 520.76537 293.495356 
L 524.422854 295.965368 
L 528.202254 295.25965 
L 531.981654 290.672485 
L 535.517222 290.672485 
L 539.296623 294.553932 
L 542.954107 297.376803 
L 546.733507 304.08112 
L 550.390991 301.963967 
L 554.170391 299.141097 
L 557.949792 301.963967 
L 561.607276 304.08112 
L 565.386676 304.433979 
L 569.04416 301.611109 
L 576.602961 300.199673 
L 580.016612 301.611109 
L 583.796013 301.25825 
L 587.453497 301.963967 
L 591.232897 301.611109 
L 598.669781 298.08252 
L 602.449182 295.965368 
L 606.106666 295.612509 
L 609.886066 291.025344 
L 613.54355 288.908191 
L 621.102351 288.908191 
L 624.516002 288.555333 
L 628.295403 287.849615 
L 631.952887 285.379603 
L 635.732287 288.202474 
L 639.389771 283.26245 
L 643.169171 283.968168 
L 646.948572 282.203874 
L 650.606056 284.321027 
L 654.385456 279.733862 
L 658.04294 272.323827 
L 661.82234 268.795239 
L 665.601741 268.795239 
L 669.015392 266.325228 
L 672.794793 265.266651 
L 676.452277 263.855216 
L 680.231677 263.502357 
L 683.889161 258.209475 
L 687.668561 256.445181 
L 698.884846 255.386604 
L 702.54233 254.680887 
L 706.32173 251.858016 
L 710.101131 250.093722 
L 713.636699 249.740863 
L 717.416099 247.270852 
L 721.073583 247.623711 
L 724.852983 243.389405 
L 728.510467 244.447981 
L 732.289868 244.095123 
L 736.069268 245.506558 
L 739.726752 248.329428 
L 747.163636 241.97797 
L 747.163636 241.97797 
" clip-path="url(#pd3dc64dc08)" style="fill: none; stroke: #33a02c; stroke-width: 1.5; stroke-linecap: square"/>
   </g>
   <g id="line2d_29">
    <path d="M 138.436364 324.546931 
L 142.093848 325.605508 
L 145.873248 324.546931 
L 149.530732 324.194072 
L 153.310132 326.311225 
L 157.089533 326.311225 
L 160.747017 325.605508 
L 164.526417 326.664084 
L 168.183901 328.781237 
L 171.963301 329.839813 
L 175.742702 328.781237 
L 179.27827 328.781237 
L 183.05767 328.075519 
L 186.715154 329.134096 
L 190.494554 329.486954 
L 194.152038 330.192672 
L 197.931439 330.192672 
L 201.710839 328.781237 
L 209.147723 327.369802 
L 212.805207 329.134096 
L 216.584608 329.486954 
L 220.364008 327.72266 
L 223.77766 331.604107 
L 227.55706 336.896989 
L 231.214544 338.308425 
L 234.993944 339.014142 
L 238.651428 340.072719 
L 242.430829 338.661284 
L 246.210229 343.954166 
L 249.867713 343.248448 
L 253.647113 347.129895 
L 257.304597 350.658483 
L 261.083998 353.128495 
L 264.863398 351.71706 
L 268.27705 354.187071 
L 272.05645 353.834212 
L 275.713934 352.069918 
L 279.493334 355.598506 
L 283.150818 360.891389 
L 286.930219 362.655683 
L 294.367103 364.067118 
L 298.146503 364.419977 
L 301.803987 367.948565 
L 305.583388 366.184271 
L 309.362788 364.772835 
L 312.77644 365.831412 
L 316.55584 365.125694 
L 320.213324 364.772835 
L 323.992724 365.125694 
L 327.650208 367.948565 
L 331.429609 368.654282 
L 335.209009 367.595706 
L 338.866493 367.595706 
L 342.645893 368.654282 
L 346.303377 369.36 
L 350.082778 366.53713 
L 353.862178 364.772835 
L 357.397746 359.127095 
L 361.177146 356.657083 
L 364.83463 354.53993 
L 368.614031 353.128495 
L 372.271515 349.599907 
L 376.050915 346.777036 
L 379.830315 344.307025 
L 383.487799 338.661284 
L 387.2672 334.074119 
L 390.924684 328.075519 
L 394.704084 316.784037 
L 398.483484 312.549732 
L 401.897136 305.139697 
L 405.676536 300.199673 
L 409.33402 296.318226 
L 413.113421 291.731062 
L 416.770905 291.025344 
L 420.550305 285.732462 
L 424.329705 284.673886 
L 427.987189 282.909592 
L 431.76659 279.381004 
L 435.424074 280.792439 
L 439.203474 278.322427 
L 446.396526 267.030945 
L 450.175926 265.972369 
L 453.83341 265.266651 
L 457.612811 263.855216 
L 461.270295 259.973769 
L 465.049695 254.680887 
L 468.829095 251.152299 
L 472.486579 252.916593 
L 476.26598 252.210875 
L 479.923464 247.976569 
L 483.702864 247.976569 
L 487.482264 243.036546 
L 490.895916 241.625111 
L 494.675316 240.566534 
L 498.3328 239.860817 
L 502.112201 238.80224 
L 505.769685 215.866418 
L 509.549085 211.632112 
L 513.328485 215.866418 
L 516.985969 223.276453 
L 520.76537 228.216476 
L 528.202254 239.860817 
L 531.981654 242.330828 
L 535.517222 248.682287 
L 539.296623 256.79804 
L 542.954107 270.206674 
L 546.733507 283.26245 
L 550.390991 297.729662 
L 554.170391 304.786838 
L 557.949792 313.608308 
L 561.607276 321.018343 
L 565.386676 324.89979 
L 569.04416 326.311225 
L 572.82356 326.311225 
L 580.016612 331.604107 
L 583.796013 334.074119 
L 591.232897 336.191272 
L 594.890381 334.074119 
L 602.449182 328.428378 
L 606.106666 325.252649 
L 609.886066 320.665484 
L 613.54355 315.725461 
L 617.32295 309.021144 
L 621.102351 304.433979 
L 624.516002 297.729662 
L 628.295403 288.202474 
L 631.952887 281.498156 
L 635.732287 271.265251 
L 639.389771 261.032345 
L 643.169171 249.740863 
L 646.948572 238.80224 
L 650.606056 225.040747 
L 654.385456 211.632112 
L 661.82234 184.109125 
L 669.015392 165.760467 
L 672.794793 157.644714 
L 676.452277 153.410408 
L 680.231677 150.940397 
L 683.889161 150.234679 
L 687.668561 149.176103 
L 691.447962 145.647515 
L 695.105446 142.824644 
L 698.884846 143.177503 
L 702.54233 137.884621 
L 706.32173 138.590338 
L 710.101131 135.414609 
L 713.636699 133.650315 
L 717.416099 138.943197 
L 721.073583 139.296056 
L 724.852983 138.943197 
L 728.510467 141.413209 
L 732.289868 142.471785 
L 736.069268 144.236079 
L 739.726752 152.704691 
L 743.506152 157.997573 
L 747.163636 159.761867 
L 747.163636 159.761867 
" clip-path="url(#pd3dc64dc08)" style="fill: none; stroke: #fb9a99; stroke-width: 1.5; stroke-linecap: square"/>
   </g>
   <g id="line2d_30">
    <path d="M 138.436364 278.322427 
L 142.093848 279.381004 
L 145.873248 280.086721 
L 149.530732 279.733862 
L 153.310132 279.733862 
L 157.089533 280.792439 
L 160.747017 281.145298 
L 164.526417 280.43958 
L 171.963301 277.616709 
L 175.742702 276.910992 
L 179.27827 276.558133 
L 183.05767 275.852415 
L 186.715154 275.852415 
L 190.494554 276.205274 
L 194.152038 275.499557 
L 197.931439 274.44098 
L 201.710839 274.44098 
L 212.805207 270.206674 
L 216.584608 270.206674 
L 220.364008 269.148098 
L 223.77766 277.969568 
L 227.55706 283.968168 
L 231.214544 283.615309 
L 234.993944 284.321027 
L 242.430829 284.321027 
L 246.210229 287.496756 
L 253.647113 296.671085 
L 257.304597 296.671085 
L 261.083998 298.788238 
L 264.863398 298.435379 
L 268.27705 298.435379 
L 275.713934 296.318226 
L 283.150818 307.256849 
L 286.930219 306.551132 
L 290.709619 308.668285 
L 294.367103 308.315426 
L 298.146503 309.021144 
L 301.803987 307.256849 
L 305.583388 308.668285 
L 309.362788 309.021144 
L 312.77644 309.021144 
L 316.55584 308.315426 
L 320.213324 307.256849 
L 323.992724 307.609708 
L 327.650208 304.08112 
L 331.429609 303.375403 
L 335.209009 301.611109 
L 338.866493 303.375403 
L 342.645893 304.433979 
L 346.303377 301.963967 
L 350.082778 298.788238 
L 353.862178 295.965368 
L 357.397746 287.849615 
L 361.177146 286.43818 
L 364.83463 285.379603 
L 368.614031 281.851015 
L 372.271515 275.499557 
L 376.050915 272.323827 
L 379.830315 271.970968 
L 383.487799 261.385204 
L 387.2672 255.739463 
L 390.924684 242.330828 
L 394.704084 233.156499 
L 398.483484 224.687888 
L 401.897136 217.630712 
L 405.676536 211.984971 
L 409.33402 209.514959 
L 413.113421 203.163501 
L 416.770905 197.870618 
L 424.329705 197.164901 
L 427.987189 197.51776 
L 431.76659 197.51776 
L 435.424074 194.694889 
L 439.203474 190.813442 
L 442.982874 186.226278 
L 446.396526 183.403407 
L 450.175926 183.756266 
L 453.83341 182.69769 
L 457.612811 180.227678 
L 461.270295 173.523361 
L 465.049695 171.759067 
L 468.829095 171.053349 
L 472.486579 170.70049 
L 476.26598 167.524761 
L 479.923464 161.173302 
L 483.702864 156.938996 
L 487.482264 155.88042 
L 490.895916 155.88042 
L 494.675316 156.586138 
L 498.3328 156.586138 
L 502.112201 156.233279 
L 505.769685 156.233279 
L 509.549085 158.703291 
L 513.328485 164.349032 
L 516.985969 172.111925 
L 520.76537 174.229078 
L 524.422854 179.169102 
L 528.202254 184.814842 
L 531.981654 189.402007 
L 535.517222 195.753466 
L 539.296623 209.867818 
L 542.954107 225.393606 
L 546.733507 237.390805 
L 550.390991 250.446581 
L 554.170391 258.209475 
L 557.949792 266.678086 
L 561.607276 273.382404 
L 565.386676 274.44098 
L 569.04416 275.852415 
L 572.82356 276.910992 
L 576.602961 280.43958 
L 580.016612 284.673886 
L 583.796013 283.968168 
L 591.232897 281.145298 
L 594.890381 275.146698 
L 598.669781 270.206674 
L 602.449182 266.325228 
L 606.106666 260.326628 
L 609.886066 255.739463 
L 621.102351 231.745064 
L 624.516002 222.217876 
L 628.295403 210.220677 
L 631.952887 201.752065 
L 635.732287 191.51916 
L 639.389771 174.934796 
L 643.169171 161.87902 
L 646.948572 151.998973 
L 650.606056 135.06175 
L 654.385456 120.594539 
L 658.04294 105.774469 
L 665.601741 86.720093 
L 669.015392 80.015776 
L 672.794793 71.900023 
L 676.452277 70.135729 
L 680.231677 70.135729 
L 683.889161 69.430012 
L 687.668561 70.841447 
L 691.447962 70.488588 
L 695.105446 70.841447 
L 698.884846 70.135729 
L 702.54233 66.96 
L 706.32173 67.312859 
L 710.101131 68.371435 
L 713.636699 68.724294 
L 717.416099 72.252882 
L 721.073583 73.664317 
L 724.852983 73.664317 
L 728.510467 73.311459 
L 732.289868 76.487188 
L 736.069268 79.310058 
L 739.726752 84.250082 
L 743.506152 87.072952 
L 747.163636 90.60154 
L 747.163636 90.60154 
" clip-path="url(#pd3dc64dc08)" style="fill: none; stroke: #e31a1c; stroke-width: 1.5; stroke-linecap: square"/>
   </g>
   <g id="patch_3">
    <path d="M 108 384.48 
L 108 51.84 
" style="fill: none; stroke: #000000; stroke-width: 0.8; stroke-linejoin: miter; stroke-linecap: square"/>
   </g>
   <g id="patch_4">
    <path d="M 777.6 384.48 
L 777.6 51.84 
" style="fill: none; stroke: #000000; stroke-width: 0.8; stroke-linejoin: miter; stroke-linecap: square"/>
   </g>
   <g id="patch_5">
    <path d="M 108 384.48 
L 777.6 384.48 
" style="fill: none; stroke: #000000; stroke-width: 0.8; stroke-linejoin: miter; stroke-linecap: square"/>
   </g>
   <g id="patch_6">
    <path d="M 108 51.84 
L 777.6 51.84 
" style="fill: none; stroke: #000000; stroke-width: 0.8; stroke-linejoin: miter; stroke-linecap: square"/>
   </g>
   <g id="text_13">
    <!-- Costos de Captación -->
    <g transform="translate(362.450938 45.84) scale(0.14 -0.14)">
     <defs>
      <path id="DejaVuSans-Bold-43" d="M 4288 256 
Q 3956 84 3597 -3 
Q 3238 -91 2847 -91 
Q 1681 -91 1000 561 
Q 319 1213 319 2328 
Q 319 3447 1000 4098 
Q 1681 4750 2847 4750 
Q 3238 4750 3597 4662 
Q 3956 4575 4288 4403 
L 4288 3438 
Q 3953 3666 3628 3772 
Q 3303 3878 2944 3878 
Q 2300 3878 1931 3465 
Q 1563 3053 1563 2328 
Q 1563 1606 1931 1193 
Q 2300 781 2944 781 
Q 3303 781 3628 887 
Q 3953 994 4288 1222 
L 4288 256 
z
" transform="scale(0.015625)"/>
      <path id="DejaVuSans-Bold-6f" d="M 2203 2784 
Q 1831 2784 1636 2517 
Q 1441 2250 1441 1747 
Q 1441 1244 1636 976 
Q 1831 709 2203 709 
Q 2569 709 2762 976 
Q 2956 1244 2956 1747 
Q 2956 2250 2762 2517 
Q 2569 2784 2203 2784 
z
M 2203 3584 
Q 3106 3584 3614 3096 
Q 4122 2609 4122 1747 
Q 4122 884 3614 396 
Q 3106 -91 2203 -91 
Q 1297 -91 786 396 
Q 275 884 275 1747 
Q 275 2609 786 3096 
Q 1297 3584 2203 3584 
z
" transform="scale(0.015625)"/>
      <path id="DejaVuSans-Bold-73" d="M 3272 3391 
L 3272 2541 
Q 2913 2691 2578 2766 
Q 2244 2841 1947 2841 
Q 1628 2841 1473 2761 
Q 1319 2681 1319 2516 
Q 1319 2381 1436 2309 
Q 1553 2238 1856 2203 
L 2053 2175 
Q 2913 2066 3209 1816 
Q 3506 1566 3506 1031 
Q 3506 472 3093 190 
Q 2681 -91 1863 -91 
Q 1516 -91 1145 -36 
Q 775 19 384 128 
L 384 978 
Q 719 816 1070 734 
Q 1422 653 1784 653 
Q 2113 653 2278 743 
Q 2444 834 2444 1013 
Q 2444 1163 2330 1236 
Q 2216 1309 1875 1350 
L 1678 1375 
Q 931 1469 631 1722 
Q 331 1975 331 2491 
Q 331 3047 712 3315 
Q 1094 3584 1881 3584 
Q 2191 3584 2531 3537 
Q 2872 3491 3272 3391 
z
" transform="scale(0.015625)"/>
      <path id="DejaVuSans-Bold-74" d="M 1759 4494 
L 1759 3500 
L 2913 3500 
L 2913 2700 
L 1759 2700 
L 1759 1216 
Q 1759 972 1856 886 
Q 1953 800 2241 800 
L 2816 800 
L 2816 0 
L 1856 0 
Q 1194 0 917 276 
Q 641 553 641 1216 
L 641 2700 
L 84 2700 
L 84 3500 
L 641 3500 
L 641 4494 
L 1759 4494 
z
" transform="scale(0.015625)"/>
      <path id="DejaVuSans-Bold-20" transform="scale(0.015625)"/>
      <path id="DejaVuSans-Bold-64" d="M 2919 2988 
L 2919 4863 
L 4044 4863 
L 4044 0 
L 2919 0 
L 2919 506 
Q 2688 197 2409 53 
Q 2131 -91 1766 -91 
Q 1119 -91 703 423 
Q 288 938 288 1747 
Q 288 2556 703 3070 
Q 1119 3584 1766 3584 
Q 2128 3584 2408 3439 
Q 2688 3294 2919 2988 
z
M 2181 722 
Q 2541 722 2730 984 
Q 2919 1247 2919 1747 
Q 2919 2247 2730 2509 
Q 2541 2772 2181 2772 
Q 1825 2772 1636 2509 
Q 1447 2247 1447 1747 
Q 1447 1247 1636 984 
Q 1825 722 2181 722 
z
" transform="scale(0.015625)"/>
      <path id="DejaVuSans-Bold-65" d="M 4031 1759 
L 4031 1441 
L 1416 1441 
Q 1456 1047 1700 850 
Q 1944 653 2381 653 
Q 2734 653 3104 758 
Q 3475 863 3866 1075 
L 3866 213 
Q 3469 63 3072 -14 
Q 2675 -91 2278 -91 
Q 1328 -91 801 392 
Q 275 875 275 1747 
Q 275 2603 792 3093 
Q 1309 3584 2216 3584 
Q 3041 3584 3536 3087 
Q 4031 2591 4031 1759 
z
M 2881 2131 
Q 2881 2450 2695 2645 
Q 2509 2841 2209 2841 
Q 1884 2841 1681 2658 
Q 1478 2475 1428 2131 
L 2881 2131 
z
" transform="scale(0.015625)"/>
      <path id="DejaVuSans-Bold-61" d="M 2106 1575 
Q 1756 1575 1579 1456 
Q 1403 1338 1403 1106 
Q 1403 894 1545 773 
Q 1688 653 1941 653 
Q 2256 653 2472 879 
Q 2688 1106 2688 1447 
L 2688 1575 
L 2106 1575 
z
M 3816 1997 
L 3816 0 
L 2688 0 
L 2688 519 
Q 2463 200 2181 54 
Q 1900 -91 1497 -91 
Q 953 -91 614 226 
Q 275 544 275 1050 
Q 275 1666 698 1953 
Q 1122 2241 2028 2241 
L 2688 2241 
L 2688 2328 
Q 2688 2594 2478 2717 
Q 2269 2841 1825 2841 
Q 1466 2841 1156 2769 
Q 847 2697 581 2553 
L 581 3406 
Q 941 3494 1303 3539 
Q 1666 3584 2028 3584 
Q 2975 3584 3395 3211 
Q 3816 2838 3816 1997 
z
" transform="scale(0.015625)"/>
      <path id="DejaVuSans-Bold-70" d="M 1656 506 
L 1656 -1331 
L 538 -1331 
L 538 3500 
L 1656 3500 
L 1656 2988 
Q 1888 3294 2169 3439 
Q 2450 3584 2816 3584 
Q 3463 3584 3878 3070 
Q 4294 2556 4294 1747 
Q 4294 938 3878 423 
Q 3463 -91 2816 -91 
Q 2450 -91 2169 54 
Q 1888 200 1656 506 
z
M 2400 2772 
Q 2041 2772 1848 2508 
Q 1656 2244 1656 1747 
Q 1656 1250 1848 986 
Q 2041 722 2400 722 
Q 2759 722 2948 984 
Q 3138 1247 3138 1747 
Q 3138 2247 2948 2509 
Q 2759 2772 2400 2772 
z
" transform="scale(0.015625)"/>
      <path id="DejaVuSans-Bold-63" d="M 3366 3391 
L 3366 2478 
Q 3138 2634 2908 2709 
Q 2678 2784 2431 2784 
Q 1963 2784 1702 2511 
Q 1441 2238 1441 1747 
Q 1441 1256 1702 982 
Q 1963 709 2431 709 
Q 2694 709 2930 787 
Q 3166 866 3366 1019 
L 3366 103 
Q 3103 6 2833 -42 
Q 2563 -91 2291 -91 
Q 1344 -91 809 395 
Q 275 881 275 1747 
Q 275 2613 809 3098 
Q 1344 3584 2291 3584 
Q 2566 3584 2833 3536 
Q 3100 3488 3366 3391 
z
" transform="scale(0.015625)"/>
      <path id="DejaVuSans-Bold-69" d="M 538 3500 
L 1656 3500 
L 1656 0 
L 538 0 
L 538 3500 
z
M 538 4863 
L 1656 4863 
L 1656 3950 
L 538 3950 
L 538 4863 
z
" transform="scale(0.015625)"/>
      <path id="DejaVuSans-Bold-f3" d="M 2203 2784 
Q 1831 2784 1636 2517 
Q 1441 2250 1441 1747 
Q 1441 1244 1636 976 
Q 1831 709 2203 709 
Q 2569 709 2762 976 
Q 2956 1244 2956 1747 
Q 2956 2250 2762 2517 
Q 2569 2784 2203 2784 
z
M 2203 3584 
Q 3106 3584 3614 3096 
Q 4122 2609 4122 1747 
Q 4122 884 3614 396 
Q 3106 -91 2203 -91 
Q 1297 -91 786 396 
Q 275 884 275 1747 
Q 275 2609 786 3096 
Q 1297 3584 2203 3584 
z
M 2694 5119 
L 3578 5119 
L 2425 3944 
L 1813 3944 
L 2694 5119 
z
" transform="scale(0.015625)"/>
      <path id="DejaVuSans-Bold-6e" d="M 4056 2131 
L 4056 0 
L 2931 0 
L 2931 347 
L 2931 1631 
Q 2931 2084 2911 2256 
Q 2891 2428 2841 2509 
Q 2775 2619 2662 2680 
Q 2550 2741 2406 2741 
Q 2056 2741 1856 2470 
Q 1656 2200 1656 1722 
L 1656 0 
L 538 0 
L 538 3500 
L 1656 3500 
L 1656 2988 
Q 1909 3294 2193 3439 
Q 2478 3584 2822 3584 
Q 3428 3584 3742 3212 
Q 4056 2841 4056 2131 
z
" transform="scale(0.015625)"/>
     </defs>
     <use xlink:href="#DejaVuSans-Bold-43"/>
     <use xlink:href="#DejaVuSans-Bold-6f" transform="translate(73.388672 0)"/>
     <use xlink:href="#DejaVuSans-Bold-73" transform="translate(142.089844 0)"/>
     <use xlink:href="#DejaVuSans-Bold-74" transform="translate(201.611328 0)"/>
     <use xlink:href="#DejaVuSans-Bold-6f" transform="translate(249.414062 0)"/>
     <use xlink:href="#DejaVuSans-Bold-73" transform="translate(318.115234 0)"/>
     <use xlink:href="#DejaVuSans-Bold-20" transform="translate(377.636719 0)"/>
     <use xlink:href="#DejaVuSans-Bold-64" transform="translate(412.451172 0)"/>
     <use xlink:href="#DejaVuSans-Bold-65" transform="translate(484.033203 0)"/>
     <use xlink:href="#DejaVuSans-Bold-20" transform="translate(551.855469 0)"/>
     <use xlink:href="#DejaVuSans-Bold-43" transform="translate(586.669922 0)"/>
     <use xlink:href="#DejaVuSans-Bold-61" transform="translate(660.058594 0)"/>
     <use xlink:href="#DejaVuSans-Bold-70" transform="translate(727.539062 0)"/>
     <use xlink:href="#DejaVuSans-Bold-74" transform="translate(799.121094 0)"/>
     <use xlink:href="#DejaVuSans-Bold-61" transform="translate(846.923828 0)"/>
     <use xlink:href="#DejaVuSans-Bold-63" transform="translate(914.404297 0)"/>
     <use xlink:href="#DejaVuSans-Bold-69" transform="translate(973.681641 0)"/>
     <use xlink:href="#DejaVuSans-Bold-f3" transform="translate(1007.958984 0)"/>
     <use xlink:href="#DejaVuSans-Bold-6e" transform="translate(1076.660156 0)"/>
    </g>
   </g>
   <g id="legend_1">
    <g id="patch_7">
     <path d="M 113.6 128.695 
L 219.69375 128.695 
Q 221.29375 128.695 221.29375 127.095 
L 221.29375 57.44 
Q 221.29375 55.84 219.69375 55.84 
L 113.6 55.84 
Q 112 55.84 112 57.44 
L 112 127.095 
Q 112 128.695 113.6 128.695 
z
" style="fill: #ffffff; opacity: 0.8; stroke: #cccccc; stroke-linejoin: miter"/>
    </g>
    <g id="line2d_31">
     <path d="M 115.2 62.31875 
L 123.2 62.31875 
L 131.2 62.31875 
" style="fill: none; stroke: #a6cee3; stroke-width: 1.5; stroke-linecap: square"/>
    </g>
    <g id="text_14">
     <!-- CCP -->
     <g transform="translate(137.6 65.11875) scale(0.08 -0.08)">
      <defs>
       <path id="DejaVuSans-43" d="M 4122 4306 
L 4122 3641 
Q 3803 3938 3442 4084 
Q 3081 4231 2675 4231 
Q 1875 4231 1450 3742 
Q 1025 3253 1025 2328 
Q 1025 1406 1450 917 
Q 1875 428 2675 428 
Q 3081 428 3442 575 
Q 3803 722 4122 1019 
L 4122 359 
Q 3791 134 3420 21 
Q 3050 -91 2638 -91 
Q 1578 -91 968 557 
Q 359 1206 359 2328 
Q 359 3453 968 4101 
Q 1578 4750 2638 4750 
Q 3056 4750 3426 4639 
Q 3797 4528 4122 4306 
z
" transform="scale(0.015625)"/>
       <path id="DejaVuSans-50" d="M 1259 4147 
L 1259 2394 
L 2053 2394 
Q 2494 2394 2734 2622 
Q 2975 2850 2975 3272 
Q 2975 3691 2734 3919 
Q 2494 4147 2053 4147 
L 1259 4147 
z
M 628 4666 
L 2053 4666 
Q 2838 4666 3239 4311 
Q 3641 3956 3641 3272 
Q 3641 2581 3239 2228 
Q 2838 1875 2053 1875 
L 1259 1875 
L 1259 0 
L 628 0 
L 628 4666 
z
" transform="scale(0.015625)"/>
      </defs>
      <use xlink:href="#DejaVuSans-43"/>
      <use xlink:href="#DejaVuSans-43" transform="translate(69.824219 0)"/>
      <use xlink:href="#DejaVuSans-50" transform="translate(139.648438 0)"/>
     </g>
    </g>
    <g id="line2d_32">
     <path d="M 115.2 74.06125 
L 123.2 74.06125 
L 131.2 74.06125 
" style="fill: none; stroke: #1f78b4; stroke-width: 1.5; stroke-linecap: square"/>
    </g>
    <g id="text_15">
     <!-- CCPO -->
     <g transform="translate(137.6 76.86125) scale(0.08 -0.08)">
      <defs>
       <path id="DejaVuSans-4f" d="M 2522 4238 
Q 1834 4238 1429 3725 
Q 1025 3213 1025 2328 
Q 1025 1447 1429 934 
Q 1834 422 2522 422 
Q 3209 422 3611 934 
Q 4013 1447 4013 2328 
Q 4013 3213 3611 3725 
Q 3209 4238 2522 4238 
z
M 2522 4750 
Q 3503 4750 4090 4092 
Q 4678 3434 4678 2328 
Q 4678 1225 4090 567 
Q 3503 -91 2522 -91 
Q 1538 -91 948 565 
Q 359 1222 359 2328 
Q 359 3434 948 4092 
Q 1538 4750 2522 4750 
z
" transform="scale(0.015625)"/>
      </defs>
      <use xlink:href="#DejaVuSans-43"/>
      <use xlink:href="#DejaVuSans-43" transform="translate(69.824219 0)"/>
      <use xlink:href="#DejaVuSans-50" transform="translate(139.648438 0)"/>
      <use xlink:href="#DejaVuSans-4f" transform="translate(199.951172 0)"/>
     </g>
    </g>
    <g id="line2d_33">
     <path d="M 115.2 85.80375 
L 123.2 85.80375 
L 131.2 85.80375 
" style="fill: none; stroke: #b2df8a; stroke-width: 1.5; stroke-linecap: square"/>
    </g>
    <g id="text_16">
     <!-- CCP-Udis -->
     <g transform="translate(137.6 88.60375) scale(0.08 -0.08)">
      <defs>
       <path id="DejaVuSans-2d" d="M 313 2009 
L 1997 2009 
L 1997 1497 
L 313 1497 
L 313 2009 
z
" transform="scale(0.015625)"/>
       <path id="DejaVuSans-55" d="M 556 4666 
L 1191 4666 
L 1191 1831 
Q 1191 1081 1462 751 
Q 1734 422 2344 422 
Q 2950 422 3222 751 
Q 3494 1081 3494 1831 
L 3494 4666 
L 4128 4666 
L 4128 1753 
Q 4128 841 3676 375 
Q 3225 -91 2344 -91 
Q 1459 -91 1007 375 
Q 556 841 556 1753 
L 556 4666 
z
" transform="scale(0.015625)"/>
       <path id="DejaVuSans-64" d="M 2906 2969 
L 2906 4863 
L 3481 4863 
L 3481 0 
L 2906 0 
L 2906 525 
Q 2725 213 2448 61 
Q 2172 -91 1784 -91 
Q 1150 -91 751 415 
Q 353 922 353 1747 
Q 353 2572 751 3078 
Q 1150 3584 1784 3584 
Q 2172 3584 2448 3432 
Q 2725 3281 2906 2969 
z
M 947 1747 
Q 947 1113 1208 752 
Q 1469 391 1925 391 
Q 2381 391 2643 752 
Q 2906 1113 2906 1747 
Q 2906 2381 2643 2742 
Q 2381 3103 1925 3103 
Q 1469 3103 1208 2742 
Q 947 2381 947 1747 
z
" transform="scale(0.015625)"/>
       <path id="DejaVuSans-69" d="M 603 3500 
L 1178 3500 
L 1178 0 
L 603 0 
L 603 3500 
z
M 603 4863 
L 1178 4863 
L 1178 4134 
L 603 4134 
L 603 4863 
z
" transform="scale(0.015625)"/>
       <path id="DejaVuSans-73" d="M 2834 3397 
L 2834 2853 
Q 2591 2978 2328 3040 
Q 2066 3103 1784 3103 
Q 1356 3103 1142 2972 
Q 928 2841 928 2578 
Q 928 2378 1081 2264 
Q 1234 2150 1697 2047 
L 1894 2003 
Q 2506 1872 2764 1633 
Q 3022 1394 3022 966 
Q 3022 478 2636 193 
Q 2250 -91 1575 -91 
Q 1294 -91 989 -36 
Q 684 19 347 128 
L 347 722 
Q 666 556 975 473 
Q 1284 391 1588 391 
Q 1994 391 2212 530 
Q 2431 669 2431 922 
Q 2431 1156 2273 1281 
Q 2116 1406 1581 1522 
L 1381 1569 
Q 847 1681 609 1914 
Q 372 2147 372 2553 
Q 372 3047 722 3315 
Q 1072 3584 1716 3584 
Q 2034 3584 2315 3537 
Q 2597 3491 2834 3397 
z
" transform="scale(0.015625)"/>
      </defs>
      <use xlink:href="#DejaVuSans-43"/>
      <use xlink:href="#DejaVuSans-43" transform="translate(69.824219 0)"/>
      <use xlink:href="#DejaVuSans-50" transform="translate(139.648438 0)"/>
      <use xlink:href="#DejaVuSans-2d" transform="translate(197.701172 0)"/>
      <use xlink:href="#DejaVuSans-55" transform="translate(233.785156 0)"/>
      <use xlink:href="#DejaVuSans-64" transform="translate(306.978516 0)"/>
      <use xlink:href="#DejaVuSans-69" transform="translate(370.455078 0)"/>
      <use xlink:href="#DejaVuSans-73" transform="translate(398.238281 0)"/>
     </g>
    </g>
    <g id="line2d_34">
     <path d="M 115.2 97.54625 
L 123.2 97.54625 
L 131.2 97.54625 
" style="fill: none; stroke: #33a02c; stroke-width: 1.5; stroke-linecap: square"/>
    </g>
    <g id="text_17">
     <!-- CCP-Dólares -->
     <g transform="translate(137.6 100.34625) scale(0.08 -0.08)">
      <defs>
       <path id="DejaVuSans-44" d="M 1259 4147 
L 1259 519 
L 2022 519 
Q 2988 519 3436 956 
Q 3884 1394 3884 2338 
Q 3884 3275 3436 3711 
Q 2988 4147 2022 4147 
L 1259 4147 
z
M 628 4666 
L 1925 4666 
Q 3281 4666 3915 4102 
Q 4550 3538 4550 2338 
Q 4550 1131 3912 565 
Q 3275 0 1925 0 
L 628 0 
L 628 4666 
z
" transform="scale(0.015625)"/>
       <path id="DejaVuSans-f3" d="M 1959 3097 
Q 1497 3097 1228 2736 
Q 959 2375 959 1747 
Q 959 1119 1226 758 
Q 1494 397 1959 397 
Q 2419 397 2687 759 
Q 2956 1122 2956 1747 
Q 2956 2369 2687 2733 
Q 2419 3097 1959 3097 
z
M 1959 3584 
Q 2709 3584 3137 3096 
Q 3566 2609 3566 1747 
Q 3566 888 3137 398 
Q 2709 -91 1959 -91 
Q 1206 -91 779 398 
Q 353 888 353 1747 
Q 353 2609 779 3096 
Q 1206 3584 1959 3584 
z
M 2394 5119 
L 3016 5119 
L 1997 3944 
L 1519 3944 
L 2394 5119 
z
" transform="scale(0.015625)"/>
       <path id="DejaVuSans-6c" d="M 603 4863 
L 1178 4863 
L 1178 0 
L 603 0 
L 603 4863 
z
" transform="scale(0.015625)"/>
       <path id="DejaVuSans-61" d="M 2194 1759 
Q 1497 1759 1228 1600 
Q 959 1441 959 1056 
Q 959 750 1161 570 
Q 1363 391 1709 391 
Q 2188 391 2477 730 
Q 2766 1069 2766 1631 
L 2766 1759 
L 2194 1759 
z
M 3341 1997 
L 3341 0 
L 2766 0 
L 2766 531 
Q 2569 213 2275 61 
Q 1981 -91 1556 -91 
Q 1019 -91 701 211 
Q 384 513 384 1019 
Q 384 1609 779 1909 
Q 1175 2209 1959 2209 
L 2766 2209 
L 2766 2266 
Q 2766 2663 2505 2880 
Q 2244 3097 1772 3097 
Q 1472 3097 1187 3025 
Q 903 2953 641 2809 
L 641 3341 
Q 956 3463 1253 3523 
Q 1550 3584 1831 3584 
Q 2591 3584 2966 3190 
Q 3341 2797 3341 1997 
z
" transform="scale(0.015625)"/>
       <path id="DejaVuSans-72" d="M 2631 2963 
Q 2534 3019 2420 3045 
Q 2306 3072 2169 3072 
Q 1681 3072 1420 2755 
Q 1159 2438 1159 1844 
L 1159 0 
L 581 0 
L 581 3500 
L 1159 3500 
L 1159 2956 
Q 1341 3275 1631 3429 
Q 1922 3584 2338 3584 
Q 2397 3584 2469 3576 
Q 2541 3569 2628 3553 
L 2631 2963 
z
" transform="scale(0.015625)"/>
       <path id="DejaVuSans-65" d="M 3597 1894 
L 3597 1613 
L 953 1613 
Q 991 1019 1311 708 
Q 1631 397 2203 397 
Q 2534 397 2845 478 
Q 3156 559 3463 722 
L 3463 178 
Q 3153 47 2828 -22 
Q 2503 -91 2169 -91 
Q 1331 -91 842 396 
Q 353 884 353 1716 
Q 353 2575 817 3079 
Q 1281 3584 2069 3584 
Q 2775 3584 3186 3129 
Q 3597 2675 3597 1894 
z
M 3022 2063 
Q 3016 2534 2758 2815 
Q 2500 3097 2075 3097 
Q 1594 3097 1305 2825 
Q 1016 2553 972 2059 
L 3022 2063 
z
" transform="scale(0.015625)"/>
      </defs>
      <use xlink:href="#DejaVuSans-43"/>
      <use xlink:href="#DejaVuSans-43" transform="translate(69.824219 0)"/>
      <use xlink:href="#DejaVuSans-50" transform="translate(139.648438 0)"/>
      <use xlink:href="#DejaVuSans-2d" transform="translate(197.701172 0)"/>
      <use xlink:href="#DejaVuSans-44" transform="translate(233.785156 0)"/>
      <use xlink:href="#DejaVuSans-f3" transform="translate(310.787109 0)"/>
      <use xlink:href="#DejaVuSans-6c" transform="translate(371.96875 0)"/>
      <use xlink:href="#DejaVuSans-61" transform="translate(399.751953 0)"/>
      <use xlink:href="#DejaVuSans-72" transform="translate(461.03125 0)"/>
      <use xlink:href="#DejaVuSans-65" transform="translate(499.894531 0)"/>
      <use xlink:href="#DejaVuSans-73" transform="translate(561.417969 0)"/>
     </g>
    </g>
    <g id="line2d_35">
     <path d="M 115.2 109.28875 
L 123.2 109.28875 
L 131.2 109.28875 
" style="fill: none; stroke: #fb9a99; stroke-width: 1.5; stroke-linecap: square"/>
    </g>
    <g id="text_18">
     <!-- CPP -->
     <g transform="translate(137.6 112.08875) scale(0.08 -0.08)">
      <use xlink:href="#DejaVuSans-43"/>
      <use xlink:href="#DejaVuSans-50" transform="translate(69.824219 0)"/>
      <use xlink:href="#DejaVuSans-50" transform="translate(130.126953 0)"/>
     </g>
    </g>
    <g id="line2d_36">
     <path d="M 115.2 121.03125 
L 123.2 121.03125 
L 131.2 121.03125 
" style="fill: none; stroke: #e31a1c; stroke-width: 1.5; stroke-linecap: square"/>
    </g>
    <g id="text_19">
     <!-- Banca de Desarrollo -->
     <g transform="translate(137.6 123.83125) scale(0.08 -0.08)">
      <defs>
       <path id="DejaVuSans-42" d="M 1259 2228 
L 1259 519 
L 2272 519 
Q 2781 519 3026 730 
Q 3272 941 3272 1375 
Q 3272 1813 3026 2020 
Q 2781 2228 2272 2228 
L 1259 2228 
z
M 1259 4147 
L 1259 2741 
L 2194 2741 
Q 2656 2741 2882 2914 
Q 3109 3088 3109 3444 
Q 3109 3797 2882 3972 
Q 2656 4147 2194 4147 
L 1259 4147 
z
M 628 4666 
L 2241 4666 
Q 2963 4666 3353 4366 
Q 3744 4066 3744 3513 
Q 3744 3084 3544 2831 
Q 3344 2578 2956 2516 
Q 3422 2416 3680 2098 
Q 3938 1781 3938 1306 
Q 3938 681 3513 340 
Q 3088 0 2303 0 
L 628 0 
L 628 4666 
z
" transform="scale(0.015625)"/>
       <path id="DejaVuSans-6e" d="M 3513 2113 
L 3513 0 
L 2938 0 
L 2938 2094 
Q 2938 2591 2744 2837 
Q 2550 3084 2163 3084 
Q 1697 3084 1428 2787 
Q 1159 2491 1159 1978 
L 1159 0 
L 581 0 
L 581 3500 
L 1159 3500 
L 1159 2956 
Q 1366 3272 1645 3428 
Q 1925 3584 2291 3584 
Q 2894 3584 3203 3211 
Q 3513 2838 3513 2113 
z
" transform="scale(0.015625)"/>
       <path id="DejaVuSans-63" d="M 3122 3366 
L 3122 2828 
Q 2878 2963 2633 3030 
Q 2388 3097 2138 3097 
Q 1578 3097 1268 2742 
Q 959 2388 959 1747 
Q 959 1106 1268 751 
Q 1578 397 2138 397 
Q 2388 397 2633 464 
Q 2878 531 3122 666 
L 3122 134 
Q 2881 22 2623 -34 
Q 2366 -91 2075 -91 
Q 1284 -91 818 406 
Q 353 903 353 1747 
Q 353 2603 823 3093 
Q 1294 3584 2113 3584 
Q 2378 3584 2631 3529 
Q 2884 3475 3122 3366 
z
" transform="scale(0.015625)"/>
       <path id="DejaVuSans-20" transform="scale(0.015625)"/>
       <path id="DejaVuSans-6f" d="M 1959 3097 
Q 1497 3097 1228 2736 
Q 959 2375 959 1747 
Q 959 1119 1226 758 
Q 1494 397 1959 397 
Q 2419 397 2687 759 
Q 2956 1122 2956 1747 
Q 2956 2369 2687 2733 
Q 2419 3097 1959 3097 
z
M 1959 3584 
Q 2709 3584 3137 3096 
Q 3566 2609 3566 1747 
Q 3566 888 3137 398 
Q 2709 -91 1959 -91 
Q 1206 -91 779 398 
Q 353 888 353 1747 
Q 353 2609 779 3096 
Q 1206 3584 1959 3584 
z
" transform="scale(0.015625)"/>
      </defs>
      <use xlink:href="#DejaVuSans-42"/>
      <use xlink:href="#DejaVuSans-61" transform="translate(68.603516 0)"/>
      <use xlink:href="#DejaVuSans-6e" transform="translate(129.882812 0)"/>
      <use xlink:href="#DejaVuSans-63" transform="translate(193.261719 0)"/>
      <use xlink:href="#DejaVuSans-61" transform="translate(248.242188 0)"/>
      <use xlink:href="#DejaVuSans-20" transform="translate(309.521484 0)"/>
      <use xlink:href="#DejaVuSans-64" transform="translate(341.308594 0)"/>
      <use xlink:href="#DejaVuSans-65" transform="translate(404.785156 0)"/>
      <use xlink:href="#DejaVuSans-20" transform="translate(466.308594 0)"/>
      <use xlink:href="#DejaVuSans-44" transform="translate(498.095703 0)"/>
      <use xlink:href="#DejaVuSans-65" transform="translate(575.097656 0)"/>
      <use xlink:href="#DejaVuSans-73" transform="translate(636.621094 0)"/>
      <use xlink:href="#DejaVuSans-61" transform="translate(688.720703 0)"/>
      <use xlink:href="#DejaVuSans-72" transform="translate(750 0)"/>
      <use xlink:href="#DejaVuSans-72" transform="translate(789.363281 0)"/>
      <use xlink:href="#DejaVuSans-6f" transform="translate(828.226562 0)"/>
      <use xlink:href="#DejaVuSans-6c" transform="translate(889.408203 0)"/>
      <use xlink:href="#DejaVuSans-6c" transform="translate(917.191406 0)"/>
      <use xlink:href="#DejaVuSans-6f" transform="translate(944.974609 0)"/>
     </g>
    </g>
   </g>
  </g>
 </g>
 <defs>
  <clipPath id="pd3dc64dc08">
   <rect x="108" y="51.84" width="669.6" height="332.64"/>
  </clipPath>
 </defs>
</svg>
