<?xml version="1.0" encoding="utf-8" standalone="no"?>
<!DOCTYPE svg PUBLIC "-//W3C//DTD SVG 1.1//EN"
  "http://www.w3.org/Graphics/SVG/1.1/DTD/svg11.dtd">
<svg xmlns:xlink="http://www.w3.org/1999/xlink" width="864pt" height="432pt" viewBox="0 0 864 432" xmlns="http://www.w3.org/2000/svg" version="1.1">
 <metadata>
  <rdf:RDF xmlns:dc="http://purl.org/dc/elements/1.1/" xmlns:cc="http://creativecommons.org/ns#" xmlns:rdf="http://www.w3.org/1999/02/22-rdf-syntax-ns#">
   <cc:Work>
    <dc:type rdf:resource="http://purl.org/dc/dcmitype/StillImage"/>
    <dc:date>2025-02-24T01:18:07.527511</dc:date>
    <dc:format>image/svg+xml</dc:format>
    <dc:creator>
     <cc:Agent>
      <dc:title>Matplotlib v3.10.0, https://matplotlib.org/</dc:title>
     </cc:Agent>
    </dc:creator>
   </cc:Work>
  </rdf:RDF>
 </metadata>
 <defs>
  <style type="text/css">*{stroke-linejoin: round; stroke-linecap: butt}</style>
 </defs>
 <g id="figure_1">
  <g id="patch_1">
   <path d="M 0 432 
L 864 432 
L 864 0 
L 0 0 
z
" style="fill: #ffffff"/>
  </g>
  <g id="axes_1">
   <g id="patch_2">
    <path d="M 108 384.48 
L 777.6 384.48 
L 777.6 51.84 
L 108 51.84 
z
" style="fill: #ffffff"/>
   </g>
   <g id="matplotlib.axis_1">
    <g id="xtick_1">
     <g id="line2d_1">
      <path d="M 173.464612 384.48 
L 173.464612 51.84 
" clip-path="url(#p2c50b19b3a)" style="fill: none; stroke-dasharray: 2.96,1.28; stroke-dashoffset: 0; stroke: #b0b0b0; stroke-opacity: 0.5; stroke-width: 0.8"/>
     </g>
     <g id="line2d_2">
      <defs>
       <path id="md3f2229ba7" d="M 0 0 
L 0 3.5 
" style="stroke: #000000; stroke-width: 0.8"/>
      </defs>
      <g>
       <use xlink:href="#md3f2229ba7" x="173.464612" y="384.48" style="stroke: #000000; stroke-width: 0.8"/>
      </g>
     </g>
     <g id="text_1">
      <!-- 2012 -->
      <g transform="translate(160.739612 399.078438) scale(0.1 -0.1)">
       <defs>
        <path id="DejaVuSans-32" d="M 1228 531 
L 3431 531 
L 3431 0 
L 469 0 
L 469 531 
Q 828 903 1448 1529 
Q 2069 2156 2228 2338 
Q 2531 2678 2651 2914 
Q 2772 3150 2772 3378 
Q 2772 3750 2511 3984 
Q 2250 4219 1831 4219 
Q 1534 4219 1204 4116 
Q 875 4013 500 3803 
L 500 4441 
Q 881 4594 1212 4672 
Q 1544 4750 1819 4750 
Q 2544 4750 2975 4387 
Q 3406 4025 3406 3419 
Q 3406 3131 3298 2873 
Q 3191 2616 2906 2266 
Q 2828 2175 2409 1742 
Q 1991 1309 1228 531 
z
" transform="scale(0.015625)"/>
        <path id="DejaVuSans-30" d="M 2034 4250 
Q 1547 4250 1301 3770 
Q 1056 3291 1056 2328 
Q 1056 1369 1301 889 
Q 1547 409 2034 409 
Q 2525 409 2770 889 
Q 3016 1369 3016 2328 
Q 3016 3291 2770 3770 
Q 2525 4250 2034 4250 
z
M 2034 4750 
Q 2819 4750 3233 4129 
Q 3647 3509 3647 2328 
Q 3647 1150 3233 529 
Q 2819 -91 2034 -91 
Q 1250 -91 836 529 
Q 422 1150 422 2328 
Q 422 3509 836 4129 
Q 1250 4750 2034 4750 
z
" transform="scale(0.015625)"/>
        <path id="DejaVuSans-31" d="M 794 531 
L 1825 531 
L 1825 4091 
L 703 3866 
L 703 4441 
L 1819 4666 
L 2450 4666 
L 2450 531 
L 3481 531 
L 3481 0 
L 794 0 
L 794 531 
z
" transform="scale(0.015625)"/>
       </defs>
       <use xlink:href="#DejaVuSans-32"/>
       <use xlink:href="#DejaVuSans-30" transform="translate(63.623047 0)"/>
       <use xlink:href="#DejaVuSans-31" transform="translate(127.246094 0)"/>
       <use xlink:href="#DejaVuSans-32" transform="translate(190.869141 0)"/>
      </g>
     </g>
    </g>
    <g id="xtick_2">
     <g id="line2d_3">
      <path d="M 266.576066 384.48 
L 266.576066 51.84 
" clip-path="url(#p2c50b19b3a)" style="fill: none; stroke-dasharray: 2.96,1.28; stroke-dashoffset: 0; stroke: #b0b0b0; stroke-opacity: 0.5; stroke-width: 0.8"/>
     </g>
     <g id="line2d_4">
      <g>
       <use xlink:href="#md3f2229ba7" x="266.576066" y="384.48" style="stroke: #000000; stroke-width: 0.8"/>
      </g>
     </g>
     <g id="text_2">
      <!-- 2014 -->
      <g transform="translate(253.851066 399.078438) scale(0.1 -0.1)">
       <defs>
        <path id="DejaVuSans-34" d="M 2419 4116 
L 825 1625 
L 2419 1625 
L 2419 4116 
z
M 2253 4666 
L 3047 4666 
L 3047 1625 
L 3713 1625 
L 3713 1100 
L 3047 1100 
L 3047 0 
L 2419 0 
L 2419 1100 
L 313 1100 
L 313 1709 
L 2253 4666 
z
" transform="scale(0.015625)"/>
       </defs>
       <use xlink:href="#DejaVuSans-32"/>
       <use xlink:href="#DejaVuSans-30" transform="translate(63.623047 0)"/>
       <use xlink:href="#DejaVuSans-31" transform="translate(127.246094 0)"/>
       <use xlink:href="#DejaVuSans-34" transform="translate(190.869141 0)"/>
      </g>
     </g>
    </g>
    <g id="xtick_3">
     <g id="line2d_5">
      <path d="M 359.560144 384.48 
L 359.560144 51.84 
" clip-path="url(#p2c50b19b3a)" style="fill: none; stroke-dasharray: 2.96,1.28; stroke-dashoffset: 0; stroke: #b0b0b0; stroke-opacity: 0.5; stroke-width: 0.8"/>
     </g>
     <g id="line2d_6">
      <g>
       <use xlink:href="#md3f2229ba7" x="359.560144" y="384.48" style="stroke: #000000; stroke-width: 0.8"/>
      </g>
     </g>
     <g id="text_3">
      <!-- 2016 -->
      <g transform="translate(346.835144 399.078438) scale(0.1 -0.1)">
       <defs>
        <path id="DejaVuSans-36" d="M 2113 2584 
Q 1688 2584 1439 2293 
Q 1191 2003 1191 1497 
Q 1191 994 1439 701 
Q 1688 409 2113 409 
Q 2538 409 2786 701 
Q 3034 994 3034 1497 
Q 3034 2003 2786 2293 
Q 2538 2584 2113 2584 
z
M 3366 4563 
L 3366 3988 
Q 3128 4100 2886 4159 
Q 2644 4219 2406 4219 
Q 1781 4219 1451 3797 
Q 1122 3375 1075 2522 
Q 1259 2794 1537 2939 
Q 1816 3084 2150 3084 
Q 2853 3084 3261 2657 
Q 3669 2231 3669 1497 
Q 3669 778 3244 343 
Q 2819 -91 2113 -91 
Q 1303 -91 875 529 
Q 447 1150 447 2328 
Q 447 3434 972 4092 
Q 1497 4750 2381 4750 
Q 2619 4750 2861 4703 
Q 3103 4656 3366 4563 
z
" transform="scale(0.015625)"/>
       </defs>
       <use xlink:href="#DejaVuSans-32"/>
       <use xlink:href="#DejaVuSans-30" transform="translate(63.623047 0)"/>
       <use xlink:href="#DejaVuSans-31" transform="translate(127.246094 0)"/>
       <use xlink:href="#DejaVuSans-36" transform="translate(190.869141 0)"/>
      </g>
     </g>
    </g>
    <g id="xtick_4">
     <g id="line2d_7">
      <path d="M 452.671597 384.48 
L 452.671597 51.84 
" clip-path="url(#p2c50b19b3a)" style="fill: none; stroke-dasharray: 2.96,1.28; stroke-dashoffset: 0; stroke: #b0b0b0; stroke-opacity: 0.5; stroke-width: 0.8"/>
     </g>
     <g id="line2d_8">
      <g>
       <use xlink:href="#md3f2229ba7" x="452.671597" y="384.48" style="stroke: #000000; stroke-width: 0.8"/>
      </g>
     </g>
     <g id="text_4">
      <!-- 2018 -->
      <g transform="translate(439.946597 399.078438) scale(0.1 -0.1)">
       <defs>
        <path id="DejaVuSans-38" d="M 2034 2216 
Q 1584 2216 1326 1975 
Q 1069 1734 1069 1313 
Q 1069 891 1326 650 
Q 1584 409 2034 409 
Q 2484 409 2743 651 
Q 3003 894 3003 1313 
Q 3003 1734 2745 1975 
Q 2488 2216 2034 2216 
z
M 1403 2484 
Q 997 2584 770 2862 
Q 544 3141 544 3541 
Q 544 4100 942 4425 
Q 1341 4750 2034 4750 
Q 2731 4750 3128 4425 
Q 3525 4100 3525 3541 
Q 3525 3141 3298 2862 
Q 3072 2584 2669 2484 
Q 3125 2378 3379 2068 
Q 3634 1759 3634 1313 
Q 3634 634 3220 271 
Q 2806 -91 2034 -91 
Q 1263 -91 848 271 
Q 434 634 434 1313 
Q 434 1759 690 2068 
Q 947 2378 1403 2484 
z
M 1172 3481 
Q 1172 3119 1398 2916 
Q 1625 2713 2034 2713 
Q 2441 2713 2670 2916 
Q 2900 3119 2900 3481 
Q 2900 3844 2670 4047 
Q 2441 4250 2034 4250 
Q 1625 4250 1398 4047 
Q 1172 3844 1172 3481 
z
" transform="scale(0.015625)"/>
       </defs>
       <use xlink:href="#DejaVuSans-32"/>
       <use xlink:href="#DejaVuSans-30" transform="translate(63.623047 0)"/>
       <use xlink:href="#DejaVuSans-31" transform="translate(127.246094 0)"/>
       <use xlink:href="#DejaVuSans-38" transform="translate(190.869141 0)"/>
      </g>
     </g>
    </g>
    <g id="xtick_5">
     <g id="line2d_9">
      <path d="M 545.655675 384.48 
L 545.655675 51.84 
" clip-path="url(#p2c50b19b3a)" style="fill: none; stroke-dasharray: 2.96,1.28; stroke-dashoffset: 0; stroke: #b0b0b0; stroke-opacity: 0.5; stroke-width: 0.8"/>
     </g>
     <g id="line2d_10">
      <g>
       <use xlink:href="#md3f2229ba7" x="545.655675" y="384.48" style="stroke: #000000; stroke-width: 0.8"/>
      </g>
     </g>
     <g id="text_5">
      <!-- 2020 -->
      <g transform="translate(532.930675 399.078438) scale(0.1 -0.1)">
       <use xlink:href="#DejaVuSans-32"/>
       <use xlink:href="#DejaVuSans-30" transform="translate(63.623047 0)"/>
       <use xlink:href="#DejaVuSans-32" transform="translate(127.246094 0)"/>
       <use xlink:href="#DejaVuSans-30" transform="translate(190.869141 0)"/>
      </g>
     </g>
    </g>
    <g id="xtick_6">
     <g id="line2d_11">
      <path d="M 638.767129 384.48 
L 638.767129 51.84 
" clip-path="url(#p2c50b19b3a)" style="fill: none; stroke-dasharray: 2.96,1.28; stroke-dashoffset: 0; stroke: #b0b0b0; stroke-opacity: 0.5; stroke-width: 0.8"/>
     </g>
     <g id="line2d_12">
      <g>
       <use xlink:href="#md3f2229ba7" x="638.767129" y="384.48" style="stroke: #000000; stroke-width: 0.8"/>
      </g>
     </g>
     <g id="text_6">
      <!-- 2022 -->
      <g transform="translate(626.042129 399.078438) scale(0.1 -0.1)">
       <use xlink:href="#DejaVuSans-32"/>
       <use xlink:href="#DejaVuSans-30" transform="translate(63.623047 0)"/>
       <use xlink:href="#DejaVuSans-32" transform="translate(127.246094 0)"/>
       <use xlink:href="#DejaVuSans-32" transform="translate(190.869141 0)"/>
      </g>
     </g>
    </g>
    <g id="xtick_7">
     <g id="line2d_13">
      <path d="M 731.751207 384.48 
L 731.751207 51.84 
" clip-path="url(#p2c50b19b3a)" style="fill: none; stroke-dasharray: 2.96,1.28; stroke-dashoffset: 0; stroke: #b0b0b0; stroke-opacity: 0.5; stroke-width: 0.8"/>
     </g>
     <g id="line2d_14">
      <g>
       <use xlink:href="#md3f2229ba7" x="731.751207" y="384.48" style="stroke: #000000; stroke-width: 0.8"/>
      </g>
     </g>
     <g id="text_7">
      <!-- 2024 -->
      <g transform="translate(719.026207 399.078438) scale(0.1 -0.1)">
       <use xlink:href="#DejaVuSans-32"/>
       <use xlink:href="#DejaVuSans-30" transform="translate(63.623047 0)"/>
       <use xlink:href="#DejaVuSans-32" transform="translate(127.246094 0)"/>
       <use xlink:href="#DejaVuSans-34" transform="translate(190.869141 0)"/>
      </g>
     </g>
    </g>
   </g>
   <g id="matplotlib.axis_2">
    <g id="ytick_1">
     <g id="line2d_15">
      <path d="M 108 373.241447 
L 777.6 373.241447 
" clip-path="url(#p2c50b19b3a)" style="fill: none; stroke-dasharray: 2.96,1.28; stroke-dashoffset: 0; stroke: #b0b0b0; stroke-opacity: 0.5; stroke-width: 0.8"/>
     </g>
     <g id="line2d_16">
      <defs>
       <path id="m494c8764e1" d="M 0 0 
L -3.5 0 
" style="stroke: #000000; stroke-width: 0.8"/>
      </defs>
      <g>
       <use xlink:href="#m494c8764e1" x="108" y="373.241447" style="stroke: #000000; stroke-width: 0.8"/>
      </g>
     </g>
     <g id="text_8">
      <!-- 2 -->
      <g transform="translate(94.6375 377.040666) scale(0.1 -0.1)">
       <use xlink:href="#DejaVuSans-32"/>
      </g>
     </g>
    </g>
    <g id="ytick_2">
     <g id="line2d_17">
      <path d="M 108 302.669685 
L 777.6 302.669685 
" clip-path="url(#p2c50b19b3a)" style="fill: none; stroke-dasharray: 2.96,1.28; stroke-dashoffset: 0; stroke: #b0b0b0; stroke-opacity: 0.5; stroke-width: 0.8"/>
     </g>
     <g id="line2d_18">
      <g>
       <use xlink:href="#m494c8764e1" x="108" y="302.669685" style="stroke: #000000; stroke-width: 0.8"/>
      </g>
     </g>
     <g id="text_9">
      <!-- 4 -->
      <g transform="translate(94.6375 306.468904) scale(0.1 -0.1)">
       <use xlink:href="#DejaVuSans-34"/>
      </g>
     </g>
    </g>
    <g id="ytick_3">
     <g id="line2d_19">
      <path d="M 108 232.097923 
L 777.6 232.097923 
" clip-path="url(#p2c50b19b3a)" style="fill: none; stroke-dasharray: 2.96,1.28; stroke-dashoffset: 0; stroke: #b0b0b0; stroke-opacity: 0.5; stroke-width: 0.8"/>
     </g>
     <g id="line2d_20">
      <g>
       <use xlink:href="#m494c8764e1" x="108" y="232.097923" style="stroke: #000000; stroke-width: 0.8"/>
      </g>
     </g>
     <g id="text_10">
      <!-- 6 -->
      <g transform="translate(94.6375 235.897142) scale(0.1 -0.1)">
       <use xlink:href="#DejaVuSans-36"/>
      </g>
     </g>
    </g>
    <g id="ytick_4">
     <g id="line2d_21">
      <path d="M 108 161.526161 
L 777.6 161.526161 
" clip-path="url(#p2c50b19b3a)" style="fill: none; stroke-dasharray: 2.96,1.28; stroke-dashoffset: 0; stroke: #b0b0b0; stroke-opacity: 0.5; stroke-width: 0.8"/>
     </g>
     <g id="line2d_22">
      <g>
       <use xlink:href="#m494c8764e1" x="108" y="161.526161" style="stroke: #000000; stroke-width: 0.8"/>
      </g>
     </g>
     <g id="text_11">
      <!-- 8 -->
      <g transform="translate(94.6375 165.32538) scale(0.1 -0.1)">
       <use xlink:href="#DejaVuSans-38"/>
      </g>
     </g>
    </g>
    <g id="ytick_5">
     <g id="line2d_23">
      <path d="M 108 90.954399 
L 777.6 90.954399 
" clip-path="url(#p2c50b19b3a)" style="fill: none; stroke-dasharray: 2.96,1.28; stroke-dashoffset: 0; stroke: #b0b0b0; stroke-opacity: 0.5; stroke-width: 0.8"/>
     </g>
     <g id="line2d_24">
      <g>
       <use xlink:href="#m494c8764e1" x="108" y="90.954399" style="stroke: #000000; stroke-width: 0.8"/>
      </g>
     </g>
     <g id="text_12">
      <!-- 10 -->
      <g transform="translate(88.275 94.753618) scale(0.1 -0.1)">
       <use xlink:href="#DejaVuSans-31"/>
       <use xlink:href="#DejaVuSans-30" transform="translate(63.623047 0)"/>
      </g>
     </g>
    </g>
   </g>
   <g id="line2d_25">
    <path d="M 138.436364 295.25965 
L 142.257627 295.612509 
L 146.206266 294.906791 
L 150.02753 294.906791 
L 157.924807 297.023944 
L 161.746071 296.671085 
L 165.69471 297.023944 
L 169.515973 296.671085 
L 173.464612 295.965368 
L 177.413251 296.318226 
L 181.107139 295.965368 
L 185.055778 295.965368 
L 188.877042 296.671085 
L 192.825681 295.965368 
L 196.646944 296.671085 
L 200.595583 297.023944 
L 204.544222 296.671085 
L 208.365485 294.906791 
L 212.314124 294.201074 
L 216.135388 293.142497 
L 220.084027 293.848215 
L 224.032666 293.848215 
L 227.599178 299.493956 
L 231.547817 305.139697 
L 235.369081 307.609708 
L 239.31772 308.315426 
L 243.138983 308.315426 
L 247.087622 307.962567 
L 251.036261 314.314026 
L 254.857524 314.314026 
L 258.806163 319.254049 
L 262.627427 319.959767 
L 266.576066 321.371202 
L 270.524705 321.724061 
L 274.091217 322.429778 
L 278.039856 323.488355 
L 281.86112 323.135496 
L 285.809759 327.369802 
L 289.631022 333.72126 
L 293.579661 336.191272 
L 297.5283 337.249848 
L 305.298202 336.544131 
L 309.119466 336.896989 
L 313.068105 337.602707 
L 317.016744 337.602707 
L 320.583256 337.955566 
L 324.531895 337.249848 
L 328.353159 337.249848 
L 332.301798 336.896989 
L 340.0717 336.896989 
L 344.020339 336.544131 
L 351.790241 337.249848 
L 355.611505 335.838413 
L 363.508783 330.89839 
L 367.202671 323.841214 
L 371.15131 321.018343 
L 374.972573 318.90119 
L 378.921212 317.136896 
L 382.742476 311.491155 
L 386.691115 306.903991 
L 390.639753 304.786838 
L 394.461017 297.376803 
L 398.409656 291.378203 
L 406.179558 264.560933 
L 410.128197 260.326628 
L 413.69471 252.916593 
L 417.643349 246.212275 
L 421.464612 241.272252 
L 425.413251 235.626511 
L 429.234515 232.097923 
L 433.183154 227.863617 
L 440.953056 226.452182 
L 444.901695 226.805041 
L 448.722958 226.452182 
L 452.671597 222.570735 
L 456.620236 219.395006 
L 460.186749 215.1607 
L 464.135388 215.1607 
L 467.956651 214.102124 
L 471.90529 210.573536 
L 475.726554 205.986371 
L 479.675193 202.104924 
L 483.623832 200.34063 
L 487.445095 199.987771 
L 491.393734 200.34063 
L 495.214997 195.047748 
L 499.163636 191.51916 
L 503.112275 188.343431 
L 506.678788 187.284854 
L 510.627427 186.579137 
L 514.44869 187.284854 
L 518.397329 184.814842 
L 522.218593 183.756266 
L 526.167232 185.52056 
L 530.115871 188.696289 
L 541.707036 204.927795 
L 545.655675 210.573536 
L 549.604314 213.396406 
L 553.298202 219.747865 
L 557.246841 230.686488 
L 568.838007 273.382404 
L 572.786646 281.851015 
L 576.735285 290.672485 
L 580.556549 297.729662 
L 584.505187 300.905391 
L 588.326451 301.611109 
L 592.27509 301.963967 
L 596.223729 304.786838 
L 599.790241 308.668285 
L 603.73888 310.07972 
L 607.560144 310.785438 
L 611.508783 311.138296 
L 615.330046 308.315426 
L 619.278685 305.845414 
L 623.227324 302.669685 
L 630.997227 293.495356 
L 634.81849 286.085321 
L 638.767129 278.675286 
L 642.715768 272.676686 
L 646.28228 265.266651 
L 650.230919 255.033746 
L 654.052183 246.917993 
L 658.000822 236.685088 
L 661.822085 222.570735 
L 665.770724 210.926394 
L 669.719363 198.576336 
L 673.540627 181.991972 
L 677.489266 168.936196 
L 681.310529 153.410408 
L 685.259168 139.296056 
L 692.774319 119.183104 
L 696.722958 112.478786 
L 700.544222 108.244481 
L 704.492861 106.127328 
L 708.314124 104.715893 
L 712.262763 104.363034 
L 716.211402 103.657316 
L 720.032666 101.893022 
L 723.981305 101.187305 
L 727.802568 96.952999 
L 731.751207 98.011575 
L 735.699846 95.894422 
L 739.393734 95.894422 
L 743.342373 99.423011 
L 747.163636 100.481587 
L 747.163636 100.481587 
" clip-path="url(#p2c50b19b3a)" style="fill: none; stroke: #a6cee3; stroke-width: 1.5; stroke-linecap: square"/>
   </g>
   <g id="line2d_26">
    <path d="M 138.436364 295.965368 
L 150.02753 294.906791 
L 153.976168 296.318226 
L 157.924807 297.023944 
L 161.746071 296.671085 
L 165.69471 297.023944 
L 173.464612 296.318226 
L 177.413251 296.671085 
L 181.107139 296.318226 
L 185.055778 296.671085 
L 192.825681 295.965368 
L 196.646944 296.671085 
L 200.595583 297.023944 
L 208.365485 294.906791 
L 216.135388 293.495356 
L 220.084027 293.848215 
L 224.032666 293.848215 
L 227.599178 299.493956 
L 231.547817 305.139697 
L 235.369081 306.903991 
L 239.31772 307.962567 
L 243.138983 308.315426 
L 247.087622 307.609708 
L 251.036261 310.432579 
L 254.857524 314.666884 
L 258.806163 319.254049 
L 262.627427 319.959767 
L 270.524705 322.782637 
L 278.039856 323.488355 
L 281.86112 322.782637 
L 285.809759 327.72266 
L 289.631022 334.074119 
L 293.579661 336.191272 
L 297.5283 337.249848 
L 301.349563 336.896989 
L 305.298202 336.896989 
L 309.119466 336.544131 
L 313.068105 336.896989 
L 317.016744 337.602707 
L 320.583256 337.602707 
L 324.531895 337.249848 
L 328.353159 337.249848 
L 332.301798 336.896989 
L 336.123061 337.249848 
L 344.020339 336.544131 
L 347.841602 336.896989 
L 351.790241 336.896989 
L 355.611505 335.838413 
L 359.560144 333.368401 
L 363.508783 331.251249 
L 367.202671 323.488355 
L 371.15131 320.312625 
L 374.972573 318.548331 
L 378.921212 317.489755 
L 386.691115 306.903991 
L 390.639753 305.492555 
L 394.461017 297.376803 
L 398.409656 291.025344 
L 402.230919 277.969568 
L 406.179558 267.383804 
L 410.128197 261.032345 
L 413.69471 251.858016 
L 417.643349 245.506558 
L 425.413251 235.626511 
L 429.234515 230.333629 
L 433.183154 227.863617 
L 437.131793 226.805041 
L 440.953056 226.099323 
L 444.901695 227.1579 
L 448.722958 226.099323 
L 452.671597 222.217876 
L 460.186749 216.219277 
L 464.135388 214.807841 
L 467.956651 213.749265 
L 471.90529 210.220677 
L 475.726554 205.633512 
L 479.675193 201.752065 
L 483.623832 200.34063 
L 487.445095 200.693489 
L 491.393734 199.282054 
L 495.214997 194.694889 
L 499.163636 189.402007 
L 503.112275 187.637713 
L 506.678788 186.931995 
L 510.627427 187.284854 
L 514.44869 186.226278 
L 518.397329 184.461984 
L 522.218593 183.756266 
L 526.167232 184.814842 
L 530.115871 188.696289 
L 533.937134 194.34203 
L 537.885773 198.576336 
L 541.707036 204.574936 
L 545.655675 210.220677 
L 549.604314 213.396406 
L 553.298202 218.689288 
L 557.246841 230.333629 
L 561.068105 246.565134 
L 565.016744 259.973769 
L 568.838007 273.735263 
L 572.786646 282.203874 
L 576.735285 291.025344 
L 580.556549 297.729662 
L 584.505187 300.905391 
L 588.326451 301.25825 
L 592.27509 302.316826 
L 596.223729 304.786838 
L 599.790241 308.668285 
L 603.73888 310.07972 
L 607.560144 310.785438 
L 611.508783 311.138296 
L 615.330046 308.315426 
L 619.278685 305.845414 
L 623.227324 302.669685 
L 627.048588 298.08252 
L 630.997227 293.142497 
L 634.81849 285.732462 
L 638.767129 278.322427 
L 642.715768 272.676686 
L 646.28228 264.208075 
L 650.230919 254.328028 
L 654.052183 246.565134 
L 658.000822 236.332229 
L 661.822085 221.865018 
L 665.770724 210.220677 
L 669.719363 197.51776 
L 673.540627 181.639113 
L 677.489266 167.87762 
L 681.310529 152.351832 
L 685.259168 138.590338 
L 692.774319 118.830245 
L 696.722958 112.125928 
L 700.544222 107.538763 
L 708.314124 104.715893 
L 712.262763 104.363034 
L 716.211402 103.657316 
L 727.802568 99.423011 
L 731.751207 97.305858 
L 735.699846 95.894422 
L 739.393734 96.247281 
L 743.342373 99.070152 
L 747.163636 100.128728 
L 747.163636 100.128728 
" clip-path="url(#p2c50b19b3a)" style="fill: none; stroke: #1f78b4; stroke-width: 1.5; stroke-linecap: square"/>
   </g>
   <g id="line2d_27">
    <path d="M 138.436364 297.376803 
L 142.257627 287.143897 
L 146.206266 287.143897 
L 150.02753 309.021144 
L 153.976168 313.961167 
L 157.924807 314.314026 
L 173.464612 314.314026 
L 177.413251 293.848215 
L 181.107139 286.791039 
L 204.544222 286.791039 
L 208.365485 286.43818 
L 212.314124 286.791039 
L 216.135388 286.791039 
L 220.084027 291.731062 
L 227.599178 291.731062 
L 231.547817 291.378203 
L 243.138983 291.378203 
L 247.087622 291.731062 
L 251.036261 291.731062 
L 254.857524 293.848215 
L 270.524705 293.848215 
L 274.091217 293.495356 
L 278.039856 292.436779 
L 281.86112 291.731062 
L 285.809759 296.671085 
L 289.631022 291.731062 
L 293.579661 291.731062 
L 297.5283 291.378203 
L 332.301798 291.378203 
L 336.123061 291.025344 
L 344.020339 291.025344 
L 347.841602 290.672485 
L 351.790241 290.672485 
L 355.611505 290.319627 
L 363.508783 290.319627 
L 367.202671 289.966768 
L 390.639753 289.966768 
L 394.461017 288.908191 
L 398.409656 288.202474 
L 406.179558 288.202474 
L 410.128197 292.789638 
L 413.69471 292.789638 
L 417.643349 285.732462 
L 444.901695 285.732462 
L 448.722958 283.968168 
L 452.671597 282.556733 
L 483.623832 282.556733 
L 487.445095 288.202474 
L 499.163636 288.202474 
L 503.112275 287.849615 
L 510.627427 287.849615 
L 514.44869 298.788238 
L 537.885773 298.788238 
L 541.707036 291.025344 
L 545.655675 288.202474 
L 549.604314 288.908191 
L 568.838007 288.908191 
L 572.786646 287.496756 
L 576.735285 280.086721 
L 580.556549 282.203874 
L 630.997227 282.203874 
L 634.81849 283.968168 
L 638.767129 287.143897 
L 700.544222 287.143897 
L 704.492861 286.43818 
L 716.211402 286.43818 
L 720.032666 287.849615 
L 731.751207 287.849615 
L 739.393734 285.026744 
L 747.163636 285.026744 
L 747.163636 285.026744 
" clip-path="url(#p2c50b19b3a)" style="fill: none; stroke: #b2df8a; stroke-width: 1.5; stroke-linecap: square"/>
   </g>
   <g id="line2d_28">
    <path d="M 138.436364 368.654282 
L 142.257627 367.948565 
L 146.206266 365.831412 
L 150.02753 369.007141 
L 153.976168 364.419977 
L 157.924807 361.597106 
L 161.746071 366.184271 
L 165.69471 364.067118 
L 169.515973 360.891389 
L 173.464612 361.244247 
L 177.413251 359.832812 
L 181.107139 365.478553 
L 185.055778 361.949965 
L 188.877042 349.952765 
L 192.825681 346.777036 
L 196.646944 346.424177 
L 200.595583 342.54273 
L 204.544222 331.251249 
L 208.365485 329.486954 
L 212.314124 321.018343 
L 216.135388 329.839813 
L 220.084027 329.839813 
L 224.032666 317.489755 
L 227.599178 316.784037 
L 231.547817 324.546931 
L 235.369081 318.90119 
L 239.31772 317.489755 
L 243.138983 314.666884 
L 247.087622 317.489755 
L 251.036261 315.725461 
L 254.857524 315.019743 
L 258.806163 310.432579 
L 262.627427 315.725461 
L 266.576066 318.90119 
L 270.524705 304.08112 
L 274.091217 312.196873 
L 278.039856 308.668285 
L 281.86112 307.609708 
L 285.809759 307.962567 
L 289.631022 307.962567 
L 293.579661 312.196873 
L 297.5283 307.609708 
L 301.349563 312.90259 
L 305.298202 310.07972 
L 313.068105 323.135496 
L 317.016744 310.785438 
L 320.583256 317.136896 
L 324.531895 314.666884 
L 328.353159 314.314026 
L 332.301798 309.021144 
L 336.123061 311.844014 
L 340.0717 310.432579 
L 344.020339 313.608308 
L 347.841602 312.196873 
L 351.790241 306.903991 
L 355.611505 310.785438 
L 359.560144 309.726861 
L 363.508783 302.669685 
L 367.202671 309.726861 
L 371.15131 323.488355 
L 374.972573 323.488355 
L 378.921212 322.782637 
L 382.742476 321.724061 
L 386.691115 316.07832 
L 390.639753 311.491155 
L 394.461017 306.551132 
L 398.409656 303.375403 
L 402.230919 304.786838 
L 406.179558 300.199673 
L 410.128197 294.201074 
L 413.69471 304.08112 
L 417.643349 299.141097 
L 421.464612 302.316826 
L 425.413251 303.375403 
L 429.234515 299.141097 
L 433.183154 300.552532 
L 437.131793 294.906791 
L 440.953056 297.729662 
L 444.901695 293.495356 
L 448.722958 294.906791 
L 452.671597 294.201074 
L 456.620236 285.026744 
L 460.186749 294.906791 
L 464.135388 294.906791 
L 467.956651 297.376803 
L 471.90529 293.142497 
L 475.726554 295.612509 
L 479.675193 299.141097 
L 483.623832 297.023944 
L 487.445095 299.493956 
L 491.393734 296.318226 
L 495.214997 299.846814 
L 499.163636 298.435379 
L 503.112275 288.202474 
L 506.678788 295.965368 
L 510.627427 293.495356 
L 514.44869 293.848215 
L 518.397329 294.906791 
L 522.218593 292.083921 
L 526.167232 293.142497 
L 530.115871 292.789638 
L 533.937134 292.789638 
L 537.885773 293.495356 
L 541.707036 295.965368 
L 545.655675 295.25965 
L 549.604314 290.672485 
L 553.298202 290.672485 
L 557.246841 294.553932 
L 561.068105 297.376803 
L 565.016744 304.08112 
L 568.838007 301.963967 
L 572.786646 299.141097 
L 576.735285 301.963967 
L 580.556549 304.08112 
L 584.505187 304.433979 
L 588.326451 301.611109 
L 596.223729 300.199673 
L 599.790241 301.611109 
L 603.73888 301.25825 
L 607.560144 301.963967 
L 611.508783 301.611109 
L 619.278685 298.08252 
L 623.227324 295.965368 
L 627.048588 295.612509 
L 630.997227 291.025344 
L 634.81849 288.908191 
L 642.715768 288.908191 
L 646.28228 288.555333 
L 650.230919 287.849615 
L 654.052183 285.379603 
L 658.000822 288.202474 
L 661.822085 283.26245 
L 665.770724 283.968168 
L 669.719363 282.203874 
L 673.540627 284.321027 
L 677.489266 279.733862 
L 681.310529 272.323827 
L 685.259168 268.795239 
L 689.207807 268.795239 
L 692.774319 266.325228 
L 696.722958 265.266651 
L 700.544222 263.855216 
L 704.492861 263.502357 
L 708.314124 258.209475 
L 712.262763 256.445181 
L 723.981305 255.386604 
L 727.802568 254.680887 
L 731.751207 251.858016 
L 735.699846 250.093722 
L 739.393734 249.740863 
L 743.342373 247.270852 
L 747.163636 247.623711 
L 747.163636 247.623711 
" clip-path="url(#p2c50b19b3a)" style="fill: none; stroke: #33a02c; stroke-width: 1.5; stroke-linecap: square"/>
   </g>
   <g id="line2d_29">
    <path d="M 138.436364 324.546931 
L 142.257627 325.605508 
L 146.206266 324.546931 
L 150.02753 324.194072 
L 153.976168 326.311225 
L 157.924807 326.311225 
L 161.746071 325.605508 
L 165.69471 326.664084 
L 169.515973 328.781237 
L 173.464612 329.839813 
L 177.413251 328.781237 
L 181.107139 328.781237 
L 185.055778 328.075519 
L 188.877042 329.134096 
L 192.825681 329.486954 
L 196.646944 330.192672 
L 200.595583 330.192672 
L 204.544222 328.781237 
L 212.314124 327.369802 
L 216.135388 329.134096 
L 220.084027 329.486954 
L 224.032666 327.72266 
L 227.599178 331.604107 
L 231.547817 336.896989 
L 235.369081 338.308425 
L 239.31772 339.014142 
L 243.138983 340.072719 
L 247.087622 338.661284 
L 251.036261 343.954166 
L 254.857524 343.248448 
L 258.806163 347.129895 
L 262.627427 350.658483 
L 266.576066 353.128495 
L 270.524705 351.71706 
L 274.091217 354.187071 
L 278.039856 353.834212 
L 281.86112 352.069918 
L 285.809759 355.598506 
L 289.631022 360.891389 
L 293.579661 362.655683 
L 301.349563 364.067118 
L 305.298202 364.419977 
L 309.119466 367.948565 
L 313.068105 366.184271 
L 317.016744 364.772835 
L 320.583256 365.831412 
L 324.531895 365.125694 
L 328.353159 364.772835 
L 332.301798 365.125694 
L 336.123061 367.948565 
L 340.0717 368.654282 
L 344.020339 367.595706 
L 347.841602 367.595706 
L 351.790241 368.654282 
L 355.611505 369.36 
L 359.560144 366.53713 
L 363.508783 364.772835 
L 367.202671 359.127095 
L 371.15131 356.657083 
L 374.972573 354.53993 
L 378.921212 353.128495 
L 382.742476 349.599907 
L 386.691115 346.777036 
L 390.639753 344.307025 
L 394.461017 338.661284 
L 398.409656 334.074119 
L 402.230919 328.075519 
L 406.179558 316.784037 
L 410.128197 312.549732 
L 413.69471 305.139697 
L 417.643349 300.199673 
L 421.464612 296.318226 
L 425.413251 291.731062 
L 429.234515 291.025344 
L 433.183154 285.732462 
L 437.131793 284.673886 
L 440.953056 282.909592 
L 444.901695 279.381004 
L 448.722958 280.792439 
L 452.671597 278.322427 
L 460.186749 267.030945 
L 464.135388 265.972369 
L 467.956651 265.266651 
L 471.90529 263.855216 
L 475.726554 259.973769 
L 479.675193 254.680887 
L 483.623832 251.152299 
L 487.445095 252.916593 
L 491.393734 252.210875 
L 495.214997 247.976569 
L 499.163636 247.976569 
L 503.112275 243.036546 
L 506.678788 241.625111 
L 510.627427 240.566534 
L 514.44869 239.860817 
L 518.397329 238.80224 
L 522.218593 215.866418 
L 526.167232 211.632112 
L 530.115871 215.866418 
L 533.937134 223.276453 
L 537.885773 228.216476 
L 545.655675 239.860817 
L 549.604314 242.330828 
L 553.298202 248.682287 
L 557.246841 256.79804 
L 561.068105 270.206674 
L 565.016744 283.26245 
L 568.838007 297.729662 
L 572.786646 304.786838 
L 576.735285 313.608308 
L 580.556549 321.018343 
L 584.505187 324.89979 
L 588.326451 326.311225 
L 592.27509 326.311225 
L 599.790241 331.604107 
L 603.73888 334.074119 
L 611.508783 336.191272 
L 615.330046 334.074119 
L 623.227324 328.428378 
L 627.048588 325.252649 
L 630.997227 320.665484 
L 634.81849 315.725461 
L 638.767129 309.021144 
L 642.715768 304.433979 
L 646.28228 297.729662 
L 650.230919 288.202474 
L 654.052183 281.498156 
L 658.000822 271.265251 
L 661.822085 261.032345 
L 665.770724 249.740863 
L 669.719363 238.80224 
L 673.540627 225.040747 
L 677.489266 211.632112 
L 685.259168 184.109125 
L 692.774319 165.760467 
L 696.722958 157.644714 
L 700.544222 153.410408 
L 704.492861 150.940397 
L 708.314124 150.234679 
L 712.262763 149.176103 
L 716.211402 145.647515 
L 720.032666 142.824644 
L 723.981305 143.177503 
L 727.802568 137.884621 
L 731.751207 138.590338 
L 735.699846 135.414609 
L 739.393734 133.650315 
L 743.342373 138.943197 
L 747.163636 139.296056 
L 747.163636 139.296056 
" clip-path="url(#p2c50b19b3a)" style="fill: none; stroke: #fb9a99; stroke-width: 1.5; stroke-linecap: square"/>
   </g>
   <g id="line2d_30">
    <path d="M 138.436364 278.322427 
L 142.257627 279.381004 
L 146.206266 280.086721 
L 150.02753 279.733862 
L 153.976168 279.733862 
L 157.924807 280.792439 
L 161.746071 281.145298 
L 165.69471 280.43958 
L 173.464612 277.616709 
L 177.413251 276.910992 
L 181.107139 276.558133 
L 185.055778 275.852415 
L 188.877042 275.852415 
L 192.825681 276.205274 
L 196.646944 275.499557 
L 200.595583 274.44098 
L 204.544222 274.44098 
L 216.135388 270.206674 
L 220.084027 270.206674 
L 224.032666 269.148098 
L 227.599178 277.969568 
L 231.547817 283.968168 
L 235.369081 283.615309 
L 239.31772 284.321027 
L 247.087622 284.321027 
L 251.036261 287.496756 
L 258.806163 296.671085 
L 262.627427 296.671085 
L 266.576066 298.788238 
L 270.524705 298.435379 
L 274.091217 298.435379 
L 281.86112 296.318226 
L 289.631022 307.256849 
L 293.579661 306.551132 
L 297.5283 308.668285 
L 301.349563 308.315426 
L 305.298202 309.021144 
L 309.119466 307.256849 
L 313.068105 308.668285 
L 317.016744 309.021144 
L 320.583256 309.021144 
L 324.531895 308.315426 
L 328.353159 307.256849 
L 332.301798 307.609708 
L 336.123061 304.08112 
L 340.0717 303.375403 
L 344.020339 301.611109 
L 347.841602 303.375403 
L 351.790241 304.433979 
L 355.611505 301.963967 
L 359.560144 298.788238 
L 363.508783 295.965368 
L 367.202671 287.849615 
L 371.15131 286.43818 
L 374.972573 285.379603 
L 378.921212 281.851015 
L 382.742476 275.499557 
L 386.691115 272.323827 
L 390.639753 271.970968 
L 394.461017 261.385204 
L 398.409656 255.739463 
L 402.230919 242.330828 
L 406.179558 233.156499 
L 410.128197 224.687888 
L 413.69471 217.630712 
L 417.643349 211.984971 
L 421.464612 209.514959 
L 425.413251 203.163501 
L 429.234515 197.870618 
L 437.131793 197.164901 
L 440.953056 197.51776 
L 444.901695 197.51776 
L 448.722958 194.694889 
L 452.671597 190.813442 
L 456.620236 186.226278 
L 460.186749 183.403407 
L 464.135388 183.756266 
L 467.956651 182.69769 
L 471.90529 180.227678 
L 475.726554 173.523361 
L 479.675193 171.759067 
L 483.623832 171.053349 
L 487.445095 170.70049 
L 491.393734 167.524761 
L 495.214997 161.173302 
L 499.163636 156.938996 
L 503.112275 155.88042 
L 506.678788 155.88042 
L 510.627427 156.586138 
L 514.44869 156.586138 
L 518.397329 156.233279 
L 522.218593 156.233279 
L 526.167232 158.703291 
L 530.115871 164.349032 
L 533.937134 172.111925 
L 537.885773 174.229078 
L 541.707036 179.169102 
L 545.655675 184.814842 
L 549.604314 189.402007 
L 553.298202 195.753466 
L 557.246841 209.867818 
L 561.068105 225.393606 
L 565.016744 237.390805 
L 568.838007 250.446581 
L 572.786646 258.209475 
L 576.735285 266.678086 
L 580.556549 273.382404 
L 584.505187 274.44098 
L 588.326451 275.852415 
L 592.27509 276.910992 
L 596.223729 280.43958 
L 599.790241 284.673886 
L 603.73888 283.968168 
L 611.508783 281.145298 
L 615.330046 275.146698 
L 619.278685 270.206674 
L 623.227324 266.325228 
L 627.048588 260.326628 
L 630.997227 255.739463 
L 642.715768 231.745064 
L 646.28228 222.217876 
L 650.230919 210.220677 
L 654.052183 201.752065 
L 658.000822 191.51916 
L 661.822085 174.934796 
L 665.770724 161.87902 
L 669.719363 151.998973 
L 673.540627 135.06175 
L 677.489266 120.594539 
L 681.310529 105.774469 
L 689.207807 86.720093 
L 692.774319 80.015776 
L 696.722958 71.900023 
L 700.544222 70.135729 
L 704.492861 70.135729 
L 708.314124 69.430012 
L 712.262763 70.841447 
L 716.211402 70.488588 
L 720.032666 70.841447 
L 723.981305 70.135729 
L 727.802568 66.96 
L 731.751207 67.312859 
L 735.699846 68.371435 
L 739.393734 68.724294 
L 743.342373 72.252882 
L 747.163636 73.664317 
L 747.163636 73.664317 
" clip-path="url(#p2c50b19b3a)" style="fill: none; stroke: #e31a1c; stroke-width: 1.5; stroke-linecap: square"/>
   </g>
   <g id="patch_3">
    <path d="M 108 384.48 
L 108 51.84 
" style="fill: none; stroke: #000000; stroke-width: 0.8; stroke-linejoin: miter; stroke-linecap: square"/>
   </g>
   <g id="patch_4">
    <path d="M 777.6 384.48 
L 777.6 51.84 
" style="fill: none; stroke: #000000; stroke-width: 0.8; stroke-linejoin: miter; stroke-linecap: square"/>
   </g>
   <g id="patch_5">
    <path d="M 108 384.48 
L 777.6 384.48 
" style="fill: none; stroke: #000000; stroke-width: 0.8; stroke-linejoin: miter; stroke-linecap: square"/>
   </g>
   <g id="patch_6">
    <path d="M 108 51.84 
L 777.6 51.84 
" style="fill: none; stroke: #000000; stroke-width: 0.8; stroke-linejoin: miter; stroke-linecap: square"/>
   </g>
   <g id="text_13">
    <!-- Costos de Captación -->
    <g transform="translate(362.450938 45.84) scale(0.14 -0.14)">
     <defs>
      <path id="DejaVuSans-Bold-43" d="M 4288 256 
Q 3956 84 3597 -3 
Q 3238 -91 2847 -91 
Q 1681 -91 1000 561 
Q 319 1213 319 2328 
Q 319 3447 1000 4098 
Q 1681 4750 2847 4750 
Q 3238 4750 3597 4662 
Q 3956 4575 4288 4403 
L 4288 3438 
Q 3953 3666 3628 3772 
Q 3303 3878 2944 3878 
Q 2300 3878 1931 3465 
Q 1563 3053 1563 2328 
Q 1563 1606 1931 1193 
Q 2300 781 2944 781 
Q 3303 781 3628 887 
Q 3953 994 4288 1222 
L 4288 256 
z
" transform="scale(0.015625)"/>
      <path id="DejaVuSans-Bold-6f" d="M 2203 2784 
Q 1831 2784 1636 2517 
Q 1441 2250 1441 1747 
Q 1441 1244 1636 976 
Q 1831 709 2203 709 
Q 2569 709 2762 976 
Q 2956 1244 2956 1747 
Q 2956 2250 2762 2517 
Q 2569 2784 2203 2784 
z
M 2203 3584 
Q 3106 3584 3614 3096 
Q 4122 2609 4122 1747 
Q 4122 884 3614 396 
Q 3106 -91 2203 -91 
Q 1297 -91 786 396 
Q 275 884 275 1747 
Q 275 2609 786 3096 
Q 1297 3584 2203 3584 
z
" transform="scale(0.015625)"/>
      <path id="DejaVuSans-Bold-73" d="M 3272 3391 
L 3272 2541 
Q 2913 2691 2578 2766 
Q 2244 2841 1947 2841 
Q 1628 2841 1473 2761 
Q 1319 2681 1319 2516 
Q 1319 2381 1436 2309 
Q 1553 2238 1856 2203 
L 2053 2175 
Q 2913 2066 3209 1816 
Q 3506 1566 3506 1031 
Q 3506 472 3093 190 
Q 2681 -91 1863 -91 
Q 1516 -91 1145 -36 
Q 775 19 384 128 
L 384 978 
Q 719 816 1070 734 
Q 1422 653 1784 653 
Q 2113 653 2278 743 
Q 2444 834 2444 1013 
Q 2444 1163 2330 1236 
Q 2216 1309 1875 1350 
L 1678 1375 
Q 931 1469 631 1722 
Q 331 1975 331 2491 
Q 331 3047 712 3315 
Q 1094 3584 1881 3584 
Q 2191 3584 2531 3537 
Q 2872 3491 3272 3391 
z
" transform="scale(0.015625)"/>
      <path id="DejaVuSans-Bold-74" d="M 1759 4494 
L 1759 3500 
L 2913 3500 
L 2913 2700 
L 1759 2700 
L 1759 1216 
Q 1759 972 1856 886 
Q 1953 800 2241 800 
L 2816 800 
L 2816 0 
L 1856 0 
Q 1194 0 917 276 
Q 641 553 641 1216 
L 641 2700 
L 84 2700 
L 84 3500 
L 641 3500 
L 641 4494 
L 1759 4494 
z
" transform="scale(0.015625)"/>
      <path id="DejaVuSans-Bold-20" transform="scale(0.015625)"/>
      <path id="DejaVuSans-Bold-64" d="M 2919 2988 
L 2919 4863 
L 4044 4863 
L 4044 0 
L 2919 0 
L 2919 506 
Q 2688 197 2409 53 
Q 2131 -91 1766 -91 
Q 1119 -91 703 423 
Q 288 938 288 1747 
Q 288 2556 703 3070 
Q 1119 3584 1766 3584 
Q 2128 3584 2408 3439 
Q 2688 3294 2919 2988 
z
M 2181 722 
Q 2541 722 2730 984 
Q 2919 1247 2919 1747 
Q 2919 2247 2730 2509 
Q 2541 2772 2181 2772 
Q 1825 2772 1636 2509 
Q 1447 2247 1447 1747 
Q 1447 1247 1636 984 
Q 1825 722 2181 722 
z
" transform="scale(0.015625)"/>
      <path id="DejaVuSans-Bold-65" d="M 4031 1759 
L 4031 1441 
L 1416 1441 
Q 1456 1047 1700 850 
Q 1944 653 2381 653 
Q 2734 653 3104 758 
Q 3475 863 3866 1075 
L 3866 213 
Q 3469 63 3072 -14 
Q 2675 -91 2278 -91 
Q 1328 -91 801 392 
Q 275 875 275 1747 
Q 275 2603 792 3093 
Q 1309 3584 2216 3584 
Q 3041 3584 3536 3087 
Q 4031 2591 4031 1759 
z
M 2881 2131 
Q 2881 2450 2695 2645 
Q 2509 2841 2209 2841 
Q 1884 2841 1681 2658 
Q 1478 2475 1428 2131 
L 2881 2131 
z
" transform="scale(0.015625)"/>
      <path id="DejaVuSans-Bold-61" d="M 2106 1575 
Q 1756 1575 1579 1456 
Q 1403 1338 1403 1106 
Q 1403 894 1545 773 
Q 1688 653 1941 653 
Q 2256 653 2472 879 
Q 2688 1106 2688 1447 
L 2688 1575 
L 2106 1575 
z
M 3816 1997 
L 3816 0 
L 2688 0 
L 2688 519 
Q 2463 200 2181 54 
Q 1900 -91 1497 -91 
Q 953 -91 614 226 
Q 275 544 275 1050 
Q 275 1666 698 1953 
Q 1122 2241 2028 2241 
L 2688 2241 
L 2688 2328 
Q 2688 2594 2478 2717 
Q 2269 2841 1825 2841 
Q 1466 2841 1156 2769 
Q 847 2697 581 2553 
L 581 3406 
Q 941 3494 1303 3539 
Q 1666 3584 2028 3584 
Q 2975 3584 3395 3211 
Q 3816 2838 3816 1997 
z
" transform="scale(0.015625)"/>
      <path id="DejaVuSans-Bold-70" d="M 1656 506 
L 1656 -1331 
L 538 -1331 
L 538 3500 
L 1656 3500 
L 1656 2988 
Q 1888 3294 2169 3439 
Q 2450 3584 2816 3584 
Q 3463 3584 3878 3070 
Q 4294 2556 4294 1747 
Q 4294 938 3878 423 
Q 3463 -91 2816 -91 
Q 2450 -91 2169 54 
Q 1888 200 1656 506 
z
M 2400 2772 
Q 2041 2772 1848 2508 
Q 1656 2244 1656 1747 
Q 1656 1250 1848 986 
Q 2041 722 2400 722 
Q 2759 722 2948 984 
Q 3138 1247 3138 1747 
Q 3138 2247 2948 2509 
Q 2759 2772 2400 2772 
z
" transform="scale(0.015625)"/>
      <path id="DejaVuSans-Bold-63" d="M 3366 3391 
L 3366 2478 
Q 3138 2634 2908 2709 
Q 2678 2784 2431 2784 
Q 1963 2784 1702 2511 
Q 1441 2238 1441 1747 
Q 1441 1256 1702 982 
Q 1963 709 2431 709 
Q 2694 709 2930 787 
Q 3166 866 3366 1019 
L 3366 103 
Q 3103 6 2833 -42 
Q 2563 -91 2291 -91 
Q 1344 -91 809 395 
Q 275 881 275 1747 
Q 275 2613 809 3098 
Q 1344 3584 2291 3584 
Q 2566 3584 2833 3536 
Q 3100 3488 3366 3391 
z
" transform="scale(0.015625)"/>
      <path id="DejaVuSans-Bold-69" d="M 538 3500 
L 1656 3500 
L 1656 0 
L 538 0 
L 538 3500 
z
M 538 4863 
L 1656 4863 
L 1656 3950 
L 538 3950 
L 538 4863 
z
" transform="scale(0.015625)"/>
      <path id="DejaVuSans-Bold-f3" d="M 2203 2784 
Q 1831 2784 1636 2517 
Q 1441 2250 1441 1747 
Q 1441 1244 1636 976 
Q 1831 709 2203 709 
Q 2569 709 2762 976 
Q 2956 1244 2956 1747 
Q 2956 2250 2762 2517 
Q 2569 2784 2203 2784 
z
M 2203 3584 
Q 3106 3584 3614 3096 
Q 4122 2609 4122 1747 
Q 4122 884 3614 396 
Q 3106 -91 2203 -91 
Q 1297 -91 786 396 
Q 275 884 275 1747 
Q 275 2609 786 3096 
Q 1297 3584 2203 3584 
z
M 2694 5119 
L 3578 5119 
L 2425 3944 
L 1813 3944 
L 2694 5119 
z
" transform="scale(0.015625)"/>
      <path id="DejaVuSans-Bold-6e" d="M 4056 2131 
L 4056 0 
L 2931 0 
L 2931 347 
L 2931 1631 
Q 2931 2084 2911 2256 
Q 2891 2428 2841 2509 
Q 2775 2619 2662 2680 
Q 2550 2741 2406 2741 
Q 2056 2741 1856 2470 
Q 1656 2200 1656 1722 
L 1656 0 
L 538 0 
L 538 3500 
L 1656 3500 
L 1656 2988 
Q 1909 3294 2193 3439 
Q 2478 3584 2822 3584 
Q 3428 3584 3742 3212 
Q 4056 2841 4056 2131 
z
" transform="scale(0.015625)"/>
     </defs>
     <use xlink:href="#DejaVuSans-Bold-43"/>
     <use xlink:href="#DejaVuSans-Bold-6f" transform="translate(73.388672 0)"/>
     <use xlink:href="#DejaVuSans-Bold-73" transform="translate(142.089844 0)"/>
     <use xlink:href="#DejaVuSans-Bold-74" transform="translate(201.611328 0)"/>
     <use xlink:href="#DejaVuSans-Bold-6f" transform="translate(249.414062 0)"/>
     <use xlink:href="#DejaVuSans-Bold-73" transform="translate(318.115234 0)"/>
     <use xlink:href="#DejaVuSans-Bold-20" transform="translate(377.636719 0)"/>
     <use xlink:href="#DejaVuSans-Bold-64" transform="translate(412.451172 0)"/>
     <use xlink:href="#DejaVuSans-Bold-65" transform="translate(484.033203 0)"/>
     <use xlink:href="#DejaVuSans-Bold-20" transform="translate(551.855469 0)"/>
     <use xlink:href="#DejaVuSans-Bold-43" transform="translate(586.669922 0)"/>
     <use xlink:href="#DejaVuSans-Bold-61" transform="translate(660.058594 0)"/>
     <use xlink:href="#DejaVuSans-Bold-70" transform="translate(727.539062 0)"/>
     <use xlink:href="#DejaVuSans-Bold-74" transform="translate(799.121094 0)"/>
     <use xlink:href="#DejaVuSans-Bold-61" transform="translate(846.923828 0)"/>
     <use xlink:href="#DejaVuSans-Bold-63" transform="translate(914.404297 0)"/>
     <use xlink:href="#DejaVuSans-Bold-69" transform="translate(973.681641 0)"/>
     <use xlink:href="#DejaVuSans-Bold-f3" transform="translate(1007.958984 0)"/>
     <use xlink:href="#DejaVuSans-Bold-6e" transform="translate(1076.660156 0)"/>
    </g>
   </g>
   <g id="legend_1">
    <g id="patch_7">
     <path d="M 113.6 128.695 
L 219.69375 128.695 
Q 221.29375 128.695 221.29375 127.095 
L 221.29375 57.44 
Q 221.29375 55.84 219.69375 55.84 
L 113.6 55.84 
Q 112 55.84 112 57.44 
L 112 127.095 
Q 112 128.695 113.6 128.695 
z
" style="fill: #ffffff; opacity: 0.8; stroke: #cccccc; stroke-linejoin: miter"/>
    </g>
    <g id="line2d_31">
     <path d="M 115.2 62.31875 
L 123.2 62.31875 
L 131.2 62.31875 
" style="fill: none; stroke: #a6cee3; stroke-width: 1.5; stroke-linecap: square"/>
    </g>
    <g id="text_14">
     <!-- CCP -->
     <g transform="translate(137.6 65.11875) scale(0.08 -0.08)">
      <defs>
       <path id="DejaVuSans-43" d="M 4122 4306 
L 4122 3641 
Q 3803 3938 3442 4084 
Q 3081 4231 2675 4231 
Q 1875 4231 1450 3742 
Q 1025 3253 1025 2328 
Q 1025 1406 1450 917 
Q 1875 428 2675 428 
Q 3081 428 3442 575 
Q 3803 722 4122 1019 
L 4122 359 
Q 3791 134 3420 21 
Q 3050 -91 2638 -91 
Q 1578 -91 968 557 
Q 359 1206 359 2328 
Q 359 3453 968 4101 
Q 1578 4750 2638 4750 
Q 3056 4750 3426 4639 
Q 3797 4528 4122 4306 
z
" transform="scale(0.015625)"/>
       <path id="DejaVuSans-50" d="M 1259 4147 
L 1259 2394 
L 2053 2394 
Q 2494 2394 2734 2622 
Q 2975 2850 2975 3272 
Q 2975 3691 2734 3919 
Q 2494 4147 2053 4147 
L 1259 4147 
z
M 628 4666 
L 2053 4666 
Q 2838 4666 3239 4311 
Q 3641 3956 3641 3272 
Q 3641 2581 3239 2228 
Q 2838 1875 2053 1875 
L 1259 1875 
L 1259 0 
L 628 0 
L 628 4666 
z
" transform="scale(0.015625)"/>
      </defs>
      <use xlink:href="#DejaVuSans-43"/>
      <use xlink:href="#DejaVuSans-43" transform="translate(69.824219 0)"/>
      <use xlink:href="#DejaVuSans-50" transform="translate(139.648438 0)"/>
     </g>
    </g>
    <g id="line2d_32">
     <path d="M 115.2 74.06125 
L 123.2 74.06125 
L 131.2 74.06125 
" style="fill: none; stroke: #1f78b4; stroke-width: 1.5; stroke-linecap: square"/>
    </g>
    <g id="text_15">
     <!-- CCPO -->
     <g transform="translate(137.6 76.86125) scale(0.08 -0.08)">
      <defs>
       <path id="DejaVuSans-4f" d="M 2522 4238 
Q 1834 4238 1429 3725 
Q 1025 3213 1025 2328 
Q 1025 1447 1429 934 
Q 1834 422 2522 422 
Q 3209 422 3611 934 
Q 4013 1447 4013 2328 
Q 4013 3213 3611 3725 
Q 3209 4238 2522 4238 
z
M 2522 4750 
Q 3503 4750 4090 4092 
Q 4678 3434 4678 2328 
Q 4678 1225 4090 567 
Q 3503 -91 2522 -91 
Q 1538 -91 948 565 
Q 359 1222 359 2328 
Q 359 3434 948 4092 
Q 1538 4750 2522 4750 
z
" transform="scale(0.015625)"/>
      </defs>
      <use xlink:href="#DejaVuSans-43"/>
      <use xlink:href="#DejaVuSans-43" transform="translate(69.824219 0)"/>
      <use xlink:href="#DejaVuSans-50" transform="translate(139.648438 0)"/>
      <use xlink:href="#DejaVuSans-4f" transform="translate(199.951172 0)"/>
     </g>
    </g>
    <g id="line2d_33">
     <path d="M 115.2 85.80375 
L 123.2 85.80375 
L 131.2 85.80375 
" style="fill: none; stroke: #b2df8a; stroke-width: 1.5; stroke-linecap: square"/>
    </g>
    <g id="text_16">
     <!-- CCP-Udis -->
     <g transform="translate(137.6 88.60375) scale(0.08 -0.08)">
      <defs>
       <path id="DejaVuSans-2d" d="M 313 2009 
L 1997 2009 
L 1997 1497 
L 313 1497 
L 313 2009 
z
" transform="scale(0.015625)"/>
       <path id="DejaVuSans-55" d="M 556 4666 
L 1191 4666 
L 1191 1831 
Q 1191 1081 1462 751 
Q 1734 422 2344 422 
Q 2950 422 3222 751 
Q 3494 1081 3494 1831 
L 3494 4666 
L 4128 4666 
L 4128 1753 
Q 4128 841 3676 375 
Q 3225 -91 2344 -91 
Q 1459 -91 1007 375 
Q 556 841 556 1753 
L 556 4666 
z
" transform="scale(0.015625)"/>
       <path id="DejaVuSans-64" d="M 2906 2969 
L 2906 4863 
L 3481 4863 
L 3481 0 
L 2906 0 
L 2906 525 
Q 2725 213 2448 61 
Q 2172 -91 1784 -91 
Q 1150 -91 751 415 
Q 353 922 353 1747 
Q 353 2572 751 3078 
Q 1150 3584 1784 3584 
Q 2172 3584 2448 3432 
Q 2725 3281 2906 2969 
z
M 947 1747 
Q 947 1113 1208 752 
Q 1469 391 1925 391 
Q 2381 391 2643 752 
Q 2906 1113 2906 1747 
Q 2906 2381 2643 2742 
Q 2381 3103 1925 3103 
Q 1469 3103 1208 2742 
Q 947 2381 947 1747 
z
" transform="scale(0.015625)"/>
       <path id="DejaVuSans-69" d="M 603 3500 
L 1178 3500 
L 1178 0 
L 603 0 
L 603 3500 
z
M 603 4863 
L 1178 4863 
L 1178 4134 
L 603 4134 
L 603 4863 
z
" transform="scale(0.015625)"/>
       <path id="DejaVuSans-73" d="M 2834 3397 
L 2834 2853 
Q 2591 2978 2328 3040 
Q 2066 3103 1784 3103 
Q 1356 3103 1142 2972 
Q 928 2841 928 2578 
Q 928 2378 1081 2264 
Q 1234 2150 1697 2047 
L 1894 2003 
Q 2506 1872 2764 1633 
Q 3022 1394 3022 966 
Q 3022 478 2636 193 
Q 2250 -91 1575 -91 
Q 1294 -91 989 -36 
Q 684 19 347 128 
L 347 722 
Q 666 556 975 473 
Q 1284 391 1588 391 
Q 1994 391 2212 530 
Q 2431 669 2431 922 
Q 2431 1156 2273 1281 
Q 2116 1406 1581 1522 
L 1381 1569 
Q 847 1681 609 1914 
Q 372 2147 372 2553 
Q 372 3047 722 3315 
Q 1072 3584 1716 3584 
Q 2034 3584 2315 3537 
Q 2597 3491 2834 3397 
z
" transform="scale(0.015625)"/>
      </defs>
      <use xlink:href="#DejaVuSans-43"/>
      <use xlink:href="#DejaVuSans-43" transform="translate(69.824219 0)"/>
      <use xlink:href="#DejaVuSans-50" transform="translate(139.648438 0)"/>
      <use xlink:href="#DejaVuSans-2d" transform="translate(197.701172 0)"/>
      <use xlink:href="#DejaVuSans-55" transform="translate(233.785156 0)"/>
      <use xlink:href="#DejaVuSans-64" transform="translate(306.978516 0)"/>
      <use xlink:href="#DejaVuSans-69" transform="translate(370.455078 0)"/>
      <use xlink:href="#DejaVuSans-73" transform="translate(398.238281 0)"/>
     </g>
    </g>
    <g id="line2d_34">
     <path d="M 115.2 97.54625 
L 123.2 97.54625 
L 131.2 97.54625 
" style="fill: none; stroke: #33a02c; stroke-width: 1.5; stroke-linecap: square"/>
    </g>
    <g id="text_17">
     <!-- CCP-Dólares -->
     <g transform="translate(137.6 100.34625) scale(0.08 -0.08)">
      <defs>
       <path id="DejaVuSans-44" d="M 1259 4147 
L 1259 519 
L 2022 519 
Q 2988 519 3436 956 
Q 3884 1394 3884 2338 
Q 3884 3275 3436 3711 
Q 2988 4147 2022 4147 
L 1259 4147 
z
M 628 4666 
L 1925 4666 
Q 3281 4666 3915 4102 
Q 4550 3538 4550 2338 
Q 4550 1131 3912 565 
Q 3275 0 1925 0 
L 628 0 
L 628 4666 
z
" transform="scale(0.015625)"/>
       <path id="DejaVuSans-f3" d="M 1959 3097 
Q 1497 3097 1228 2736 
Q 959 2375 959 1747 
Q 959 1119 1226 758 
Q 1494 397 1959 397 
Q 2419 397 2687 759 
Q 2956 1122 2956 1747 
Q 2956 2369 2687 2733 
Q 2419 3097 1959 3097 
z
M 1959 3584 
Q 2709 3584 3137 3096 
Q 3566 2609 3566 1747 
Q 3566 888 3137 398 
Q 2709 -91 1959 -91 
Q 1206 -91 779 398 
Q 353 888 353 1747 
Q 353 2609 779 3096 
Q 1206 3584 1959 3584 
z
M 2394 5119 
L 3016 5119 
L 1997 3944 
L 1519 3944 
L 2394 5119 
z
" transform="scale(0.015625)"/>
       <path id="DejaVuSans-6c" d="M 603 4863 
L 1178 4863 
L 1178 0 
L 603 0 
L 603 4863 
z
" transform="scale(0.015625)"/>
       <path id="DejaVuSans-61" d="M 2194 1759 
Q 1497 1759 1228 1600 
Q 959 1441 959 1056 
Q 959 750 1161 570 
Q 1363 391 1709 391 
Q 2188 391 2477 730 
Q 2766 1069 2766 1631 
L 2766 1759 
L 2194 1759 
z
M 3341 1997 
L 3341 0 
L 2766 0 
L 2766 531 
Q 2569 213 2275 61 
Q 1981 -91 1556 -91 
Q 1019 -91 701 211 
Q 384 513 384 1019 
Q 384 1609 779 1909 
Q 1175 2209 1959 2209 
L 2766 2209 
L 2766 2266 
Q 2766 2663 2505 2880 
Q 2244 3097 1772 3097 
Q 1472 3097 1187 3025 
Q 903 2953 641 2809 
L 641 3341 
Q 956 3463 1253 3523 
Q 1550 3584 1831 3584 
Q 2591 3584 2966 3190 
Q 3341 2797 3341 1997 
z
" transform="scale(0.015625)"/>
       <path id="DejaVuSans-72" d="M 2631 2963 
Q 2534 3019 2420 3045 
Q 2306 3072 2169 3072 
Q 1681 3072 1420 2755 
Q 1159 2438 1159 1844 
L 1159 0 
L 581 0 
L 581 3500 
L 1159 3500 
L 1159 2956 
Q 1341 3275 1631 3429 
Q 1922 3584 2338 3584 
Q 2397 3584 2469 3576 
Q 2541 3569 2628 3553 
L 2631 2963 
z
" transform="scale(0.015625)"/>
       <path id="DejaVuSans-65" d="M 3597 1894 
L 3597 1613 
L 953 1613 
Q 991 1019 1311 708 
Q 1631 397 2203 397 
Q 2534 397 2845 478 
Q 3156 559 3463 722 
L 3463 178 
Q 3153 47 2828 -22 
Q 2503 -91 2169 -91 
Q 1331 -91 842 396 
Q 353 884 353 1716 
Q 353 2575 817 3079 
Q 1281 3584 2069 3584 
Q 2775 3584 3186 3129 
Q 3597 2675 3597 1894 
z
M 3022 2063 
Q 3016 2534 2758 2815 
Q 2500 3097 2075 3097 
Q 1594 3097 1305 2825 
Q 1016 2553 972 2059 
L 3022 2063 
z
" transform="scale(0.015625)"/>
      </defs>
      <use xlink:href="#DejaVuSans-43"/>
      <use xlink:href="#DejaVuSans-43" transform="translate(69.824219 0)"/>
      <use xlink:href="#DejaVuSans-50" transform="translate(139.648438 0)"/>
      <use xlink:href="#DejaVuSans-2d" transform="translate(197.701172 0)"/>
      <use xlink:href="#DejaVuSans-44" transform="translate(233.785156 0)"/>
      <use xlink:href="#DejaVuSans-f3" transform="translate(310.787109 0)"/>
      <use xlink:href="#DejaVuSans-6c" transform="translate(371.96875 0)"/>
      <use xlink:href="#DejaVuSans-61" transform="translate(399.751953 0)"/>
      <use xlink:href="#DejaVuSans-72" transform="translate(461.03125 0)"/>
      <use xlink:href="#DejaVuSans-65" transform="translate(499.894531 0)"/>
      <use xlink:href="#DejaVuSans-73" transform="translate(561.417969 0)"/>
     </g>
    </g>
    <g id="line2d_35">
     <path d="M 115.2 109.28875 
L 123.2 109.28875 
L 131.2 109.28875 
" style="fill: none; stroke: #fb9a99; stroke-width: 1.5; stroke-linecap: square"/>
    </g>
    <g id="text_18">
     <!-- CPP -->
     <g transform="translate(137.6 112.08875) scale(0.08 -0.08)">
      <use xlink:href="#DejaVuSans-43"/>
      <use xlink:href="#DejaVuSans-50" transform="translate(69.824219 0)"/>
      <use xlink:href="#DejaVuSans-50" transform="translate(130.126953 0)"/>
     </g>
    </g>
    <g id="line2d_36">
     <path d="M 115.2 121.03125 
L 123.2 121.03125 
L 131.2 121.03125 
" style="fill: none; stroke: #e31a1c; stroke-width: 1.5; stroke-linecap: square"/>
    </g>
    <g id="text_19">
     <!-- Banca de Desarrollo -->
     <g transform="translate(137.6 123.83125) scale(0.08 -0.08)">
      <defs>
       <path id="DejaVuSans-42" d="M 1259 2228 
L 1259 519 
L 2272 519 
Q 2781 519 3026 730 
Q 3272 941 3272 1375 
Q 3272 1813 3026 2020 
Q 2781 2228 2272 2228 
L 1259 2228 
z
M 1259 4147 
L 1259 2741 
L 2194 2741 
Q 2656 2741 2882 2914 
Q 3109 3088 3109 3444 
Q 3109 3797 2882 3972 
Q 2656 4147 2194 4147 
L 1259 4147 
z
M 628 4666 
L 2241 4666 
Q 2963 4666 3353 4366 
Q 3744 4066 3744 3513 
Q 3744 3084 3544 2831 
Q 3344 2578 2956 2516 
Q 3422 2416 3680 2098 
Q 3938 1781 3938 1306 
Q 3938 681 3513 340 
Q 3088 0 2303 0 
L 628 0 
L 628 4666 
z
" transform="scale(0.015625)"/>
       <path id="DejaVuSans-6e" d="M 3513 2113 
L 3513 0 
L 2938 0 
L 2938 2094 
Q 2938 2591 2744 2837 
Q 2550 3084 2163 3084 
Q 1697 3084 1428 2787 
Q 1159 2491 1159 1978 
L 1159 0 
L 581 0 
L 581 3500 
L 1159 3500 
L 1159 2956 
Q 1366 3272 1645 3428 
Q 1925 3584 2291 3584 
Q 2894 3584 3203 3211 
Q 3513 2838 3513 2113 
z
" transform="scale(0.015625)"/>
       <path id="DejaVuSans-63" d="M 3122 3366 
L 3122 2828 
Q 2878 2963 2633 3030 
Q 2388 3097 2138 3097 
Q 1578 3097 1268 2742 
Q 959 2388 959 1747 
Q 959 1106 1268 751 
Q 1578 397 2138 397 
Q 2388 397 2633 464 
Q 2878 531 3122 666 
L 3122 134 
Q 2881 22 2623 -34 
Q 2366 -91 2075 -91 
Q 1284 -91 818 406 
Q 353 903 353 1747 
Q 353 2603 823 3093 
Q 1294 3584 2113 3584 
Q 2378 3584 2631 3529 
Q 2884 3475 3122 3366 
z
" transform="scale(0.015625)"/>
       <path id="DejaVuSans-20" transform="scale(0.015625)"/>
       <path id="DejaVuSans-6f" d="M 1959 3097 
Q 1497 3097 1228 2736 
Q 959 2375 959 1747 
Q 959 1119 1226 758 
Q 1494 397 1959 397 
Q 2419 397 2687 759 
Q 2956 1122 2956 1747 
Q 2956 2369 2687 2733 
Q 2419 3097 1959 3097 
z
M 1959 3584 
Q 2709 3584 3137 3096 
Q 3566 2609 3566 1747 
Q 3566 888 3137 398 
Q 2709 -91 1959 -91 
Q 1206 -91 779 398 
Q 353 888 353 1747 
Q 353 2609 779 3096 
Q 1206 3584 1959 3584 
z
" transform="scale(0.015625)"/>
      </defs>
      <use xlink:href="#DejaVuSans-42"/>
      <use xlink:href="#DejaVuSans-61" transform="translate(68.603516 0)"/>
      <use xlink:href="#DejaVuSans-6e" transform="translate(129.882812 0)"/>
      <use xlink:href="#DejaVuSans-63" transform="translate(193.261719 0)"/>
      <use xlink:href="#DejaVuSans-61" transform="translate(248.242188 0)"/>
      <use xlink:href="#DejaVuSans-20" transform="translate(309.521484 0)"/>
      <use xlink:href="#DejaVuSans-64" transform="translate(341.308594 0)"/>
      <use xlink:href="#DejaVuSans-65" transform="translate(404.785156 0)"/>
      <use xlink:href="#DejaVuSans-20" transform="translate(466.308594 0)"/>
      <use xlink:href="#DejaVuSans-44" transform="translate(498.095703 0)"/>
      <use xlink:href="#DejaVuSans-65" transform="translate(575.097656 0)"/>
      <use xlink:href="#DejaVuSans-73" transform="translate(636.621094 0)"/>
      <use xlink:href="#DejaVuSans-61" transform="translate(688.720703 0)"/>
      <use xlink:href="#DejaVuSans-72" transform="translate(750 0)"/>
      <use xlink:href="#DejaVuSans-72" transform="translate(789.363281 0)"/>
      <use xlink:href="#DejaVuSans-6f" transform="translate(828.226562 0)"/>
      <use xlink:href="#DejaVuSans-6c" transform="translate(889.408203 0)"/>
      <use xlink:href="#DejaVuSans-6c" transform="translate(917.191406 0)"/>
      <use xlink:href="#DejaVuSans-6f" transform="translate(944.974609 0)"/>
     </g>
    </g>
   </g>
  </g>
 </g>
 <defs>
  <clipPath id="p2c50b19b3a">
   <rect x="108" y="51.84" width="669.6" height="332.64"/>
  </clipPath>
 </defs>
</svg>
