<?xml version="1.0" encoding="utf-8" standalone="no"?>
<!DOCTYPE svg PUBLIC "-//W3C//DTD SVG 1.1//EN"
  "http://www.w3.org/Graphics/SVG/1.1/DTD/svg11.dtd">
<svg xmlns:xlink="http://www.w3.org/1999/xlink" width="864pt" height="432pt" viewBox="0 0 864 432" xmlns="http://www.w3.org/2000/svg" version="1.1">
 <metadata>
  <rdf:RDF xmlns:dc="http://purl.org/dc/elements/1.1/" xmlns:cc="http://creativecommons.org/ns#" xmlns:rdf="http://www.w3.org/1999/02/22-rdf-syntax-ns#">
   <cc:Work>
    <dc:type rdf:resource="http://purl.org/dc/dcmitype/StillImage"/>
    <dc:date>2025-02-23T06:43:51.097101</dc:date>
    <dc:format>image/svg+xml</dc:format>
    <dc:creator>
     <cc:Agent>
      <dc:title>Matplotlib v3.10.0, https://matplotlib.org/</dc:title>
     </cc:Agent>
    </dc:creator>
   </cc:Work>
  </rdf:RDF>
 </metadata>
 <defs>
  <style type="text/css">*{stroke-linejoin: round; stroke-linecap: butt}</style>
 </defs>
 <g id="figure_1">
  <g id="patch_1">
   <path d="M 0 432 
L 864 432 
L 864 0 
L 0 0 
z
" style="fill: #ffffff"/>
  </g>
  <g id="axes_1">
   <g id="patch_2">
    <path d="M 108 384.48 
L 777.6 384.48 
L 777.6 51.84 
L 108 51.84 
z
" style="fill: #ffffff"/>
   </g>
   <g id="matplotlib.axis_1">
    <g id="xtick_1">
     <g id="line2d_1">
      <path d="M 175.285136 384.48 
L 175.285136 51.84 
" clip-path="url(#pa58f99d196)" style="fill: none; stroke-dasharray: 2.96,1.28; stroke-dashoffset: 0; stroke: #b0b0b0; stroke-opacity: 0.5; stroke-width: 0.8"/>
     </g>
     <g id="line2d_2">
      <defs>
       <path id="m801d9c39be" d="M 0 0 
L 0 3.5 
" style="stroke: #000000; stroke-width: 0.8"/>
      </defs>
      <g>
       <use xlink:href="#m801d9c39be" x="175.285136" y="384.48" style="stroke: #000000; stroke-width: 0.8"/>
      </g>
     </g>
     <g id="text_1">
      <!-- 2012 -->
      <g transform="translate(162.560136 399.078438) scale(0.1 -0.1)">
       <defs>
        <path id="DejaVuSans-32" d="M 1228 531 
L 3431 531 
L 3431 0 
L 469 0 
L 469 531 
Q 828 903 1448 1529 
Q 2069 2156 2228 2338 
Q 2531 2678 2651 2914 
Q 2772 3150 2772 3378 
Q 2772 3750 2511 3984 
Q 2250 4219 1831 4219 
Q 1534 4219 1204 4116 
Q 875 4013 500 3803 
L 500 4441 
Q 881 4594 1212 4672 
Q 1544 4750 1819 4750 
Q 2544 4750 2975 4387 
Q 3406 4025 3406 3419 
Q 3406 3131 3298 2873 
Q 3191 2616 2906 2266 
Q 2828 2175 2409 1742 
Q 1991 1309 1228 531 
z
" transform="scale(0.015625)"/>
        <path id="DejaVuSans-30" d="M 2034 4250 
Q 1547 4250 1301 3770 
Q 1056 3291 1056 2328 
Q 1056 1369 1301 889 
Q 1547 409 2034 409 
Q 2525 409 2770 889 
Q 3016 1369 3016 2328 
Q 3016 3291 2770 3770 
Q 2525 4250 2034 4250 
z
M 2034 4750 
Q 2819 4750 3233 4129 
Q 3647 3509 3647 2328 
Q 3647 1150 3233 529 
Q 2819 -91 2034 -91 
Q 1250 -91 836 529 
Q 422 1150 422 2328 
Q 422 3509 836 4129 
Q 1250 4750 2034 4750 
z
" transform="scale(0.015625)"/>
        <path id="DejaVuSans-31" d="M 794 531 
L 1825 531 
L 1825 4091 
L 703 3866 
L 703 4441 
L 1819 4666 
L 2450 4666 
L 2450 531 
L 3481 531 
L 3481 0 
L 794 0 
L 794 531 
z
" transform="scale(0.015625)"/>
       </defs>
       <use xlink:href="#DejaVuSans-32"/>
       <use xlink:href="#DejaVuSans-30" transform="translate(63.623047 0)"/>
       <use xlink:href="#DejaVuSans-31" transform="translate(127.246094 0)"/>
       <use xlink:href="#DejaVuSans-32" transform="translate(190.869141 0)"/>
      </g>
     </g>
    </g>
    <g id="xtick_2">
     <g id="line2d_3">
      <path d="M 263.31276 384.48 
L 263.31276 51.84 
" clip-path="url(#pa58f99d196)" style="fill: none; stroke-dasharray: 2.96,1.28; stroke-dashoffset: 0; stroke: #b0b0b0; stroke-opacity: 0.5; stroke-width: 0.8"/>
     </g>
     <g id="line2d_4">
      <g>
       <use xlink:href="#m801d9c39be" x="263.31276" y="384.48" style="stroke: #000000; stroke-width: 0.8"/>
      </g>
     </g>
     <g id="text_2">
      <!-- 2014 -->
      <g transform="translate(250.58776 399.078438) scale(0.1 -0.1)">
       <defs>
        <path id="DejaVuSans-34" d="M 2419 4116 
L 825 1625 
L 2419 1625 
L 2419 4116 
z
M 2253 4666 
L 3047 4666 
L 3047 1625 
L 3713 1625 
L 3713 1100 
L 3047 1100 
L 3047 0 
L 2419 0 
L 2419 1100 
L 313 1100 
L 313 1709 
L 2253 4666 
z
" transform="scale(0.015625)"/>
       </defs>
       <use xlink:href="#DejaVuSans-32"/>
       <use xlink:href="#DejaVuSans-30" transform="translate(63.623047 0)"/>
       <use xlink:href="#DejaVuSans-31" transform="translate(127.246094 0)"/>
       <use xlink:href="#DejaVuSans-34" transform="translate(190.869141 0)"/>
      </g>
     </g>
    </g>
    <g id="xtick_3">
     <g id="line2d_5">
      <path d="M 351.219962 384.48 
L 351.219962 51.84 
" clip-path="url(#pa58f99d196)" style="fill: none; stroke-dasharray: 2.96,1.28; stroke-dashoffset: 0; stroke: #b0b0b0; stroke-opacity: 0.5; stroke-width: 0.8"/>
     </g>
     <g id="line2d_6">
      <g>
       <use xlink:href="#m801d9c39be" x="351.219962" y="384.48" style="stroke: #000000; stroke-width: 0.8"/>
      </g>
     </g>
     <g id="text_3">
      <!-- 2016 -->
      <g transform="translate(338.494962 399.078438) scale(0.1 -0.1)">
       <defs>
        <path id="DejaVuSans-36" d="M 2113 2584 
Q 1688 2584 1439 2293 
Q 1191 2003 1191 1497 
Q 1191 994 1439 701 
Q 1688 409 2113 409 
Q 2538 409 2786 701 
Q 3034 994 3034 1497 
Q 3034 2003 2786 2293 
Q 2538 2584 2113 2584 
z
M 3366 4563 
L 3366 3988 
Q 3128 4100 2886 4159 
Q 2644 4219 2406 4219 
Q 1781 4219 1451 3797 
Q 1122 3375 1075 2522 
Q 1259 2794 1537 2939 
Q 1816 3084 2150 3084 
Q 2853 3084 3261 2657 
Q 3669 2231 3669 1497 
Q 3669 778 3244 343 
Q 2819 -91 2113 -91 
Q 1303 -91 875 529 
Q 447 1150 447 2328 
Q 447 3434 972 4092 
Q 1497 4750 2381 4750 
Q 2619 4750 2861 4703 
Q 3103 4656 3366 4563 
z
" transform="scale(0.015625)"/>
       </defs>
       <use xlink:href="#DejaVuSans-32"/>
       <use xlink:href="#DejaVuSans-30" transform="translate(63.623047 0)"/>
       <use xlink:href="#DejaVuSans-31" transform="translate(127.246094 0)"/>
       <use xlink:href="#DejaVuSans-36" transform="translate(190.869141 0)"/>
      </g>
     </g>
    </g>
    <g id="xtick_4">
     <g id="line2d_7">
      <path d="M 439.247586 384.48 
L 439.247586 51.84 
" clip-path="url(#pa58f99d196)" style="fill: none; stroke-dasharray: 2.96,1.28; stroke-dashoffset: 0; stroke: #b0b0b0; stroke-opacity: 0.5; stroke-width: 0.8"/>
     </g>
     <g id="line2d_8">
      <g>
       <use xlink:href="#m801d9c39be" x="439.247586" y="384.48" style="stroke: #000000; stroke-width: 0.8"/>
      </g>
     </g>
     <g id="text_4">
      <!-- 2018 -->
      <g transform="translate(426.522586 399.078438) scale(0.1 -0.1)">
       <defs>
        <path id="DejaVuSans-38" d="M 2034 2216 
Q 1584 2216 1326 1975 
Q 1069 1734 1069 1313 
Q 1069 891 1326 650 
Q 1584 409 2034 409 
Q 2484 409 2743 651 
Q 3003 894 3003 1313 
Q 3003 1734 2745 1975 
Q 2488 2216 2034 2216 
z
M 1403 2484 
Q 997 2584 770 2862 
Q 544 3141 544 3541 
Q 544 4100 942 4425 
Q 1341 4750 2034 4750 
Q 2731 4750 3128 4425 
Q 3525 4100 3525 3541 
Q 3525 3141 3298 2862 
Q 3072 2584 2669 2484 
Q 3125 2378 3379 2068 
Q 3634 1759 3634 1313 
Q 3634 634 3220 271 
Q 2806 -91 2034 -91 
Q 1263 -91 848 271 
Q 434 634 434 1313 
Q 434 1759 690 2068 
Q 947 2378 1403 2484 
z
M 1172 3481 
Q 1172 3119 1398 2916 
Q 1625 2713 2034 2713 
Q 2441 2713 2670 2916 
Q 2900 3119 2900 3481 
Q 2900 3844 2670 4047 
Q 2441 4250 2034 4250 
Q 1625 4250 1398 4047 
Q 1172 3844 1172 3481 
z
" transform="scale(0.015625)"/>
       </defs>
       <use xlink:href="#DejaVuSans-32"/>
       <use xlink:href="#DejaVuSans-30" transform="translate(63.623047 0)"/>
       <use xlink:href="#DejaVuSans-31" transform="translate(127.246094 0)"/>
       <use xlink:href="#DejaVuSans-38" transform="translate(190.869141 0)"/>
      </g>
     </g>
    </g>
    <g id="xtick_5">
     <g id="line2d_9">
      <path d="M 527.154788 384.48 
L 527.154788 51.84 
" clip-path="url(#pa58f99d196)" style="fill: none; stroke-dasharray: 2.96,1.28; stroke-dashoffset: 0; stroke: #b0b0b0; stroke-opacity: 0.5; stroke-width: 0.8"/>
     </g>
     <g id="line2d_10">
      <g>
       <use xlink:href="#m801d9c39be" x="527.154788" y="384.48" style="stroke: #000000; stroke-width: 0.8"/>
      </g>
     </g>
     <g id="text_5">
      <!-- 2020 -->
      <g transform="translate(514.429788 399.078438) scale(0.1 -0.1)">
       <use xlink:href="#DejaVuSans-32"/>
       <use xlink:href="#DejaVuSans-30" transform="translate(63.623047 0)"/>
       <use xlink:href="#DejaVuSans-32" transform="translate(127.246094 0)"/>
       <use xlink:href="#DejaVuSans-30" transform="translate(190.869141 0)"/>
      </g>
     </g>
    </g>
    <g id="xtick_6">
     <g id="line2d_11">
      <path d="M 615.182412 384.48 
L 615.182412 51.84 
" clip-path="url(#pa58f99d196)" style="fill: none; stroke-dasharray: 2.96,1.28; stroke-dashoffset: 0; stroke: #b0b0b0; stroke-opacity: 0.5; stroke-width: 0.8"/>
     </g>
     <g id="line2d_12">
      <g>
       <use xlink:href="#m801d9c39be" x="615.182412" y="384.48" style="stroke: #000000; stroke-width: 0.8"/>
      </g>
     </g>
     <g id="text_6">
      <!-- 2022 -->
      <g transform="translate(602.457412 399.078438) scale(0.1 -0.1)">
       <use xlink:href="#DejaVuSans-32"/>
       <use xlink:href="#DejaVuSans-30" transform="translate(63.623047 0)"/>
       <use xlink:href="#DejaVuSans-32" transform="translate(127.246094 0)"/>
       <use xlink:href="#DejaVuSans-32" transform="translate(190.869141 0)"/>
      </g>
     </g>
    </g>
    <g id="xtick_7">
     <g id="line2d_13">
      <path d="M 703.089614 384.48 
L 703.089614 51.84 
" clip-path="url(#pa58f99d196)" style="fill: none; stroke-dasharray: 2.96,1.28; stroke-dashoffset: 0; stroke: #b0b0b0; stroke-opacity: 0.5; stroke-width: 0.8"/>
     </g>
     <g id="line2d_14">
      <g>
       <use xlink:href="#m801d9c39be" x="703.089614" y="384.48" style="stroke: #000000; stroke-width: 0.8"/>
      </g>
     </g>
     <g id="text_7">
      <!-- 2024 -->
      <g transform="translate(690.364614 399.078438) scale(0.1 -0.1)">
       <use xlink:href="#DejaVuSans-32"/>
       <use xlink:href="#DejaVuSans-30" transform="translate(63.623047 0)"/>
       <use xlink:href="#DejaVuSans-32" transform="translate(127.246094 0)"/>
       <use xlink:href="#DejaVuSans-34" transform="translate(190.869141 0)"/>
      </g>
     </g>
    </g>
   </g>
   <g id="matplotlib.axis_2">
    <g id="ytick_1">
     <g id="line2d_15">
      <path d="M 108 372.884476 
L 777.6 372.884476 
" clip-path="url(#pa58f99d196)" style="fill: none; stroke-dasharray: 2.96,1.28; stroke-dashoffset: 0; stroke: #b0b0b0; stroke-opacity: 0.5; stroke-width: 0.8"/>
     </g>
     <g id="line2d_16">
      <defs>
       <path id="ma967750eed" d="M 0 0 
L -3.5 0 
" style="stroke: #000000; stroke-width: 0.8"/>
      </defs>
      <g>
       <use xlink:href="#ma967750eed" x="108" y="372.884476" style="stroke: #000000; stroke-width: 0.8"/>
      </g>
     </g>
     <g id="text_8">
      <!-- 2 -->
      <g transform="translate(94.6375 376.683694) scale(0.1 -0.1)">
       <use xlink:href="#DejaVuSans-32"/>
      </g>
     </g>
    </g>
    <g id="ytick_2">
     <g id="line2d_17">
      <path d="M 108 302.394965 
L 777.6 302.394965 
" clip-path="url(#pa58f99d196)" style="fill: none; stroke-dasharray: 2.96,1.28; stroke-dashoffset: 0; stroke: #b0b0b0; stroke-opacity: 0.5; stroke-width: 0.8"/>
     </g>
     <g id="line2d_18">
      <g>
       <use xlink:href="#ma967750eed" x="108" y="302.394965" style="stroke: #000000; stroke-width: 0.8"/>
      </g>
     </g>
     <g id="text_9">
      <!-- 4 -->
      <g transform="translate(94.6375 306.194184) scale(0.1 -0.1)">
       <use xlink:href="#DejaVuSans-34"/>
      </g>
     </g>
    </g>
    <g id="ytick_3">
     <g id="line2d_19">
      <path d="M 108 231.905455 
L 777.6 231.905455 
" clip-path="url(#pa58f99d196)" style="fill: none; stroke-dasharray: 2.96,1.28; stroke-dashoffset: 0; stroke: #b0b0b0; stroke-opacity: 0.5; stroke-width: 0.8"/>
     </g>
     <g id="line2d_20">
      <g>
       <use xlink:href="#ma967750eed" x="108" y="231.905455" style="stroke: #000000; stroke-width: 0.8"/>
      </g>
     </g>
     <g id="text_10">
      <!-- 6 -->
      <g transform="translate(94.6375 235.704673) scale(0.1 -0.1)">
       <use xlink:href="#DejaVuSans-36"/>
      </g>
     </g>
    </g>
    <g id="ytick_4">
     <g id="line2d_21">
      <path d="M 108 161.415944 
L 777.6 161.415944 
" clip-path="url(#pa58f99d196)" style="fill: none; stroke-dasharray: 2.96,1.28; stroke-dashoffset: 0; stroke: #b0b0b0; stroke-opacity: 0.5; stroke-width: 0.8"/>
     </g>
     <g id="line2d_22">
      <g>
       <use xlink:href="#ma967750eed" x="108" y="161.415944" style="stroke: #000000; stroke-width: 0.8"/>
      </g>
     </g>
     <g id="text_11">
      <!-- 8 -->
      <g transform="translate(94.6375 165.215163) scale(0.1 -0.1)">
       <use xlink:href="#DejaVuSans-38"/>
      </g>
     </g>
    </g>
    <g id="ytick_5">
     <g id="line2d_23">
      <path d="M 108 90.926434 
L 777.6 90.926434 
" clip-path="url(#pa58f99d196)" style="fill: none; stroke-dasharray: 2.96,1.28; stroke-dashoffset: 0; stroke: #b0b0b0; stroke-opacity: 0.5; stroke-width: 0.8"/>
     </g>
     <g id="line2d_24">
      <g>
       <use xlink:href="#ma967750eed" x="108" y="90.926434" style="stroke: #000000; stroke-width: 0.8"/>
      </g>
     </g>
     <g id="text_12">
      <!-- 10 -->
      <g transform="translate(88.275 94.725652) scale(0.1 -0.1)">
       <use xlink:href="#DejaVuSans-31"/>
       <use xlink:href="#DejaVuSans-30" transform="translate(63.623047 0)"/>
      </g>
     </g>
    </g>
   </g>
   <g id="line2d_25">
    <path d="M 138.436364 296.403357 
L 142.169409 294.993566 
L 145.782034 295.346014 
L 149.51508 294.641119 
L 153.127704 294.641119 
L 160.593796 296.755804 
L 164.20642 296.403357 
L 167.939466 296.755804 
L 171.552091 296.403357 
L 175.285136 295.698462 
L 179.018182 296.050909 
L 182.510386 295.698462 
L 186.243431 295.698462 
L 189.856056 296.403357 
L 193.589102 295.698462 
L 197.201726 296.403357 
L 200.934772 296.755804 
L 204.667818 296.403357 
L 208.280442 294.641119 
L 212.013488 293.936224 
L 215.626113 292.878881 
L 219.359158 293.583776 
L 223.092204 293.583776 
L 226.463987 299.222937 
L 230.197033 304.862098 
L 233.809657 307.329231 
L 237.542703 308.034126 
L 241.155328 308.034126 
L 244.888373 307.681678 
L 248.621419 314.025734 
L 252.234044 314.025734 
L 255.967089 318.96 
L 259.579714 319.664895 
L 263.31276 321.074685 
L 267.045805 321.427133 
L 270.417588 322.132028 
L 274.150634 323.189371 
L 277.763259 322.836923 
L 281.496304 327.066294 
L 285.108929 333.41035 
L 288.841975 335.877483 
L 292.57502 336.934825 
L 299.920691 336.22993 
L 303.533315 336.582378 
L 307.266361 337.287273 
L 310.999407 337.287273 
L 314.37119 337.63972 
L 318.104235 336.934825 
L 321.71686 336.934825 
L 325.449906 336.582378 
L 332.795576 336.582378 
L 336.528622 336.22993 
L 343.874292 336.934825 
L 347.486917 335.525035 
L 354.953008 330.590769 
L 358.445212 323.541818 
L 362.178257 320.722238 
L 365.790882 318.607552 
L 369.523928 316.845315 
L 373.136552 311.206154 
L 376.869598 306.624336 
L 380.602644 304.50965 
L 384.215268 297.108252 
L 387.948314 291.116643 
L 395.293984 264.330629 
L 399.02703 260.101259 
L 402.398813 252.69986 
L 406.131859 246.003357 
L 409.744483 241.069091 
L 413.477529 235.42993 
L 417.090154 231.905455 
L 420.823199 227.676084 
L 428.16887 226.266294 
L 431.901915 226.618741 
L 435.51454 226.266294 
L 439.247586 222.389371 
L 442.980631 219.217343 
L 446.352414 214.987972 
L 450.08546 214.987972 
L 453.698085 213.930629 
L 457.43113 210.406154 
L 461.043755 205.824336 
L 464.776801 201.947413 
L 468.509846 200.185175 
L 472.122471 199.832727 
L 475.855517 200.185175 
L 479.468141 194.898462 
L 483.201187 191.373986 
L 486.934233 188.201958 
L 490.306016 187.144615 
L 494.039061 186.43972 
L 497.651686 187.144615 
L 501.384732 184.677483 
L 504.997356 183.62014 
L 508.730402 185.382378 
L 512.463448 188.554406 
L 523.421743 204.766993 
L 527.154788 210.406154 
L 530.887834 213.225734 
L 534.380038 219.56979 
L 538.113083 230.495664 
L 549.071378 273.141818 
L 552.804424 281.600559 
L 556.53747 290.411748 
L 560.150094 297.460699 
L 563.88314 300.632727 
L 567.495765 301.337622 
L 571.22881 301.69007 
L 574.961856 304.50965 
L 578.333639 308.386573 
L 582.066685 309.796364 
L 585.679309 310.501259 
L 589.412355 310.853706 
L 593.02498 308.034126 
L 596.758025 305.566993 
L 600.491071 302.394965 
L 607.836741 293.231329 
L 615.182412 278.428531 
L 618.915457 272.436923 
L 622.28724 265.035524 
L 626.020286 254.814545 
L 629.632911 246.708252 
L 633.365956 236.487273 
L 636.978581 222.389371 
L 640.711627 210.758601 
L 644.444672 198.422937 
L 648.057297 181.857902 
L 651.790343 168.817343 
L 655.402967 153.30965 
L 659.136013 139.211748 
L 666.240842 119.122238 
L 669.973887 112.425734 
L 673.586512 108.196364 
L 677.319558 106.081678 
L 680.932182 104.671888 
L 684.665228 104.319441 
L 688.398274 103.614545 
L 692.010898 101.852308 
L 695.743944 101.147413 
L 699.356569 96.918042 
L 703.089614 97.975385 
L 706.82266 95.860699 
L 710.314864 95.860699 
L 714.047909 99.385175 
L 717.660534 100.442517 
L 721.39358 99.737622 
L 725.006204 100.794965 
L 728.73925 103.262098 
L 732.472296 106.786573 
L 736.08492 113.130629 
L 739.817966 117.007552 
L 743.430591 121.236923 
L 747.163636 126.523636 
L 747.163636 126.523636 
" clip-path="url(#pa58f99d196)" style="fill: none; stroke: #a6cee3; stroke-width: 1.5; stroke-linecap: square"/>
   </g>
   <g id="line2d_26">
    <path d="M 138.436364 296.403357 
L 142.169409 295.698462 
L 153.127704 294.641119 
L 156.86075 296.050909 
L 160.593796 296.755804 
L 164.20642 296.403357 
L 167.939466 296.755804 
L 175.285136 296.050909 
L 179.018182 296.403357 
L 182.510386 296.050909 
L 186.243431 296.403357 
L 193.589102 295.698462 
L 197.201726 296.403357 
L 200.934772 296.755804 
L 208.280442 294.641119 
L 215.626113 293.231329 
L 219.359158 293.583776 
L 223.092204 293.583776 
L 226.463987 299.222937 
L 230.197033 304.862098 
L 233.809657 306.624336 
L 237.542703 307.681678 
L 241.155328 308.034126 
L 244.888373 307.329231 
L 248.621419 310.148811 
L 252.234044 314.378182 
L 255.967089 318.96 
L 259.579714 319.664895 
L 267.045805 322.484476 
L 274.150634 323.189371 
L 277.763259 322.484476 
L 281.496304 327.418741 
L 285.108929 333.762797 
L 288.841975 335.877483 
L 292.57502 336.934825 
L 296.187645 336.582378 
L 299.920691 336.582378 
L 303.533315 336.22993 
L 307.266361 336.582378 
L 310.999407 337.287273 
L 314.37119 337.287273 
L 318.104235 336.934825 
L 321.71686 336.934825 
L 325.449906 336.582378 
L 329.06253 336.934825 
L 336.528622 336.22993 
L 340.141246 336.582378 
L 343.874292 336.582378 
L 347.486917 335.525035 
L 351.219962 333.057902 
L 354.953008 330.943217 
L 358.445212 323.189371 
L 362.178257 320.017343 
L 365.790882 318.255105 
L 369.523928 317.197762 
L 376.869598 306.624336 
L 380.602644 305.214545 
L 384.215268 297.108252 
L 387.948314 290.764196 
L 391.560939 277.723636 
L 395.293984 267.15021 
L 399.02703 260.806154 
L 402.398813 251.642517 
L 406.131859 245.298462 
L 417.090154 230.143217 
L 420.823199 227.676084 
L 424.556245 226.618741 
L 428.16887 225.913846 
L 431.901915 226.971189 
L 435.51454 225.913846 
L 439.247586 222.036923 
L 446.352414 216.045315 
L 450.08546 214.635524 
L 453.698085 213.578182 
L 457.43113 210.053706 
L 461.043755 205.471888 
L 464.776801 201.594965 
L 468.509846 200.185175 
L 472.122471 200.537622 
L 475.855517 199.127832 
L 479.468141 194.546014 
L 483.201187 189.259301 
L 486.934233 187.497063 
L 490.306016 186.792168 
L 494.039061 187.144615 
L 497.651686 186.087273 
L 501.384732 184.325035 
L 504.997356 183.62014 
L 508.730402 184.677483 
L 512.463448 188.554406 
L 516.076072 194.193566 
L 519.809118 198.422937 
L 523.421743 204.414545 
L 527.154788 210.053706 
L 530.887834 213.225734 
L 534.380038 218.512448 
L 538.113083 230.143217 
L 541.725708 246.355804 
L 545.458754 259.748811 
L 549.071378 273.494266 
L 552.804424 281.953007 
L 556.53747 290.764196 
L 560.150094 297.460699 
L 563.88314 300.632727 
L 567.495765 300.985175 
L 571.22881 302.042517 
L 574.961856 304.50965 
L 578.333639 308.386573 
L 582.066685 309.796364 
L 585.679309 310.501259 
L 589.412355 310.853706 
L 593.02498 308.034126 
L 596.758025 305.566993 
L 600.491071 302.394965 
L 604.103696 297.813147 
L 607.836741 292.878881 
L 615.182412 278.076084 
L 618.915457 272.436923 
L 622.28724 263.978182 
L 626.020286 254.10965 
L 629.632911 246.355804 
L 633.365956 236.134825 
L 636.978581 221.684476 
L 640.711627 210.053706 
L 644.444672 197.365594 
L 648.057297 181.505455 
L 651.790343 167.76 
L 655.402967 152.252308 
L 659.136013 138.506853 
L 666.240842 118.76979 
L 669.973887 112.073287 
L 673.586512 107.491469 
L 680.932182 104.671888 
L 684.665228 104.319441 
L 688.398274 103.614545 
L 699.356569 99.385175 
L 703.089614 97.27049 
L 706.82266 95.860699 
L 710.314864 96.213147 
L 714.047909 99.032727 
L 717.660534 100.09007 
L 721.39358 99.032727 
L 725.006204 100.442517 
L 728.73925 103.262098 
L 732.472296 107.139021 
L 736.08492 113.130629 
L 739.817966 116.655105 
L 743.430591 121.236923 
L 743.430591 121.236923 
" clip-path="url(#pa58f99d196)" style="fill: none; stroke: #1f78b4; stroke-width: 1.5; stroke-linecap: square"/>
   </g>
   <g id="line2d_27">
    <path d="M 138.436364 307.329231 
L 142.169409 297.108252 
L 145.782034 286.887273 
L 149.51508 286.887273 
L 153.127704 308.739021 
L 156.86075 313.673287 
L 160.593796 314.025734 
L 175.285136 314.025734 
L 179.018182 293.583776 
L 182.510386 286.534825 
L 204.667818 286.534825 
L 208.280442 286.182378 
L 212.013488 286.534825 
L 215.626113 286.534825 
L 219.359158 291.469091 
L 226.463987 291.469091 
L 230.197033 291.116643 
L 241.155328 291.116643 
L 244.888373 291.469091 
L 248.621419 291.469091 
L 252.234044 293.583776 
L 267.045805 293.583776 
L 270.417588 293.231329 
L 274.150634 292.173986 
L 277.763259 291.469091 
L 281.496304 296.403357 
L 285.108929 291.469091 
L 288.841975 291.469091 
L 292.57502 291.116643 
L 325.449906 291.116643 
L 329.06253 290.764196 
L 336.528622 290.764196 
L 340.141246 290.411748 
L 343.874292 290.411748 
L 347.486917 290.059301 
L 354.953008 290.059301 
L 358.445212 289.706853 
L 380.602644 289.706853 
L 384.215268 288.64951 
L 387.948314 287.944615 
L 395.293984 287.944615 
L 399.02703 292.526434 
L 402.398813 292.526434 
L 406.131859 285.477483 
L 431.901915 285.477483 
L 435.51454 283.715245 
L 439.247586 282.305455 
L 468.509846 282.305455 
L 472.122471 287.944615 
L 483.201187 287.944615 
L 486.934233 287.592168 
L 494.039061 287.592168 
L 497.651686 298.518042 
L 519.809118 298.518042 
L 523.421743 290.764196 
L 527.154788 287.944615 
L 530.887834 288.64951 
L 549.071378 288.64951 
L 552.804424 287.23972 
L 556.53747 279.838322 
L 560.150094 281.953007 
L 607.836741 281.953007 
L 611.449366 283.715245 
L 615.182412 286.887273 
L 673.586512 286.887273 
L 677.319558 286.182378 
L 688.398274 286.182378 
L 692.010898 287.592168 
L 703.089614 287.592168 
L 710.314864 284.772587 
L 747.163636 284.772587 
L 747.163636 284.772587 
" clip-path="url(#pa58f99d196)" style="fill: none; stroke: #b2df8a; stroke-width: 1.5; stroke-linecap: square"/>
   </g>
   <g id="line2d_28">
    <path d="M 138.436364 369.36 
L 142.169409 368.302657 
L 145.782034 367.597762 
L 149.51508 365.483077 
L 153.127704 368.655105 
L 156.86075 364.073287 
L 160.593796 361.253706 
L 164.20642 365.835524 
L 167.939466 363.720839 
L 171.552091 360.548811 
L 175.285136 360.901259 
L 179.018182 359.491469 
L 182.510386 365.130629 
L 186.243431 361.606154 
L 189.856056 349.622937 
L 193.589102 346.450909 
L 197.201726 346.098462 
L 200.934772 342.221538 
L 204.667818 330.943217 
L 208.280442 329.180979 
L 212.013488 320.722238 
L 215.626113 329.533427 
L 219.359158 329.533427 
L 223.092204 317.197762 
L 226.463987 316.492867 
L 230.197033 324.246713 
L 233.809657 318.607552 
L 237.542703 317.197762 
L 241.155328 314.378182 
L 244.888373 317.197762 
L 248.621419 315.435524 
L 252.234044 314.730629 
L 255.967089 310.148811 
L 259.579714 315.435524 
L 263.31276 318.607552 
L 267.045805 303.804755 
L 270.417588 311.911049 
L 274.150634 308.386573 
L 277.763259 307.329231 
L 281.496304 307.681678 
L 285.108929 307.681678 
L 288.841975 311.911049 
L 292.57502 307.329231 
L 296.187645 312.615944 
L 299.920691 309.796364 
L 307.266361 322.836923 
L 310.999407 310.501259 
L 314.37119 316.845315 
L 318.104235 314.378182 
L 321.71686 314.025734 
L 325.449906 308.739021 
L 329.06253 311.558601 
L 332.795576 310.148811 
L 336.528622 313.320839 
L 340.141246 311.911049 
L 343.874292 306.624336 
L 347.486917 310.501259 
L 351.219962 309.443916 
L 354.953008 302.394965 
L 358.445212 309.443916 
L 362.178257 323.189371 
L 365.790882 323.189371 
L 369.523928 322.484476 
L 373.136552 321.427133 
L 376.869598 315.787972 
L 380.602644 311.206154 
L 384.215268 306.271888 
L 387.948314 303.09986 
L 391.560939 304.50965 
L 395.293984 299.927832 
L 399.02703 293.936224 
L 402.398813 303.804755 
L 406.131859 298.87049 
L 409.744483 302.042517 
L 413.477529 303.09986 
L 417.090154 298.87049 
L 420.823199 300.28028 
L 424.556245 294.641119 
L 428.16887 297.460699 
L 431.901915 293.231329 
L 435.51454 294.641119 
L 439.247586 293.936224 
L 442.980631 284.772587 
L 446.352414 294.641119 
L 450.08546 294.641119 
L 453.698085 297.108252 
L 457.43113 292.878881 
L 461.043755 295.346014 
L 464.776801 298.87049 
L 468.509846 296.755804 
L 472.122471 299.222937 
L 475.855517 296.050909 
L 479.468141 299.575385 
L 483.201187 298.165594 
L 486.934233 287.944615 
L 490.306016 295.698462 
L 494.039061 293.231329 
L 497.651686 293.583776 
L 501.384732 294.641119 
L 504.997356 291.821538 
L 508.730402 292.878881 
L 512.463448 292.526434 
L 516.076072 292.526434 
L 519.809118 293.231329 
L 523.421743 295.698462 
L 527.154788 294.993566 
L 530.887834 290.411748 
L 534.380038 290.411748 
L 538.113083 294.288671 
L 541.725708 297.108252 
L 545.458754 303.804755 
L 549.071378 301.69007 
L 552.804424 298.87049 
L 556.53747 301.69007 
L 560.150094 303.804755 
L 563.88314 304.157203 
L 567.495765 301.337622 
L 574.961856 299.927832 
L 578.333639 301.337622 
L 582.066685 300.985175 
L 585.679309 301.69007 
L 589.412355 301.337622 
L 596.758025 297.813147 
L 600.491071 295.698462 
L 604.103696 295.346014 
L 607.836741 290.764196 
L 611.449366 288.64951 
L 618.915457 288.64951 
L 622.28724 288.297063 
L 626.020286 287.592168 
L 629.632911 285.125035 
L 633.365956 287.944615 
L 636.978581 283.01035 
L 640.711627 283.715245 
L 644.444672 281.953007 
L 648.057297 284.067692 
L 651.790343 279.485874 
L 655.402967 272.084476 
L 659.136013 268.56 
L 662.869059 268.56 
L 666.240842 266.092867 
L 669.973887 265.035524 
L 673.586512 263.625734 
L 677.319558 263.273287 
L 680.932182 257.986573 
L 684.665228 256.224336 
L 695.743944 255.166993 
L 699.356569 254.462098 
L 703.089614 251.642517 
L 706.82266 249.88028 
L 710.314864 249.527832 
L 714.047909 247.060699 
L 717.660534 247.413147 
L 721.39358 243.183776 
L 725.006204 244.241119 
L 728.73925 243.888671 
L 732.472296 245.298462 
L 736.08492 248.118042 
L 743.430591 241.773986 
L 747.163636 244.946014 
L 747.163636 244.946014 
" clip-path="url(#pa58f99d196)" style="fill: none; stroke: #33a02c; stroke-width: 1.5; stroke-linecap: square"/>
   </g>
   <g id="line2d_29">
    <path d="M 138.436364 325.656503 
L 142.169409 324.246713 
L 145.782034 325.304056 
L 149.51508 324.246713 
L 153.127704 323.894266 
L 156.86075 326.008951 
L 160.593796 326.008951 
L 164.20642 325.304056 
L 167.939466 326.361399 
L 171.552091 328.476084 
L 175.285136 329.533427 
L 179.018182 328.476084 
L 182.510386 328.476084 
L 186.243431 327.771189 
L 189.856056 328.828531 
L 193.589102 329.180979 
L 197.201726 329.885874 
L 200.934772 329.885874 
L 204.667818 328.476084 
L 212.013488 327.066294 
L 215.626113 328.828531 
L 219.359158 329.180979 
L 223.092204 327.418741 
L 226.463987 331.295664 
L 230.197033 336.582378 
L 233.809657 337.992168 
L 237.542703 338.697063 
L 241.155328 339.754406 
L 244.888373 338.344615 
L 248.621419 343.631329 
L 252.234044 342.926434 
L 255.967089 346.803357 
L 259.579714 350.327832 
L 263.31276 352.794965 
L 267.045805 351.385175 
L 270.417588 353.852308 
L 274.150634 353.49986 
L 277.763259 351.737622 
L 281.496304 355.262098 
L 285.108929 360.548811 
L 288.841975 362.311049 
L 296.187645 363.720839 
L 299.920691 364.073287 
L 303.533315 367.597762 
L 307.266361 365.835524 
L 310.999407 364.425734 
L 314.37119 365.483077 
L 318.104235 364.778182 
L 321.71686 364.425734 
L 325.449906 364.778182 
L 329.06253 367.597762 
L 332.795576 368.302657 
L 336.528622 367.245315 
L 340.141246 367.245315 
L 343.874292 368.302657 
L 347.486917 369.007552 
L 351.219962 366.187972 
L 354.953008 364.425734 
L 358.445212 358.786573 
L 362.178257 356.319441 
L 365.790882 354.204755 
L 369.523928 352.794965 
L 373.136552 349.27049 
L 376.869598 346.450909 
L 380.602644 343.983776 
L 384.215268 338.344615 
L 387.948314 333.762797 
L 391.560939 327.771189 
L 395.293984 316.492867 
L 399.02703 312.263497 
L 402.398813 304.862098 
L 406.131859 299.927832 
L 409.744483 296.050909 
L 413.477529 291.469091 
L 417.090154 290.764196 
L 420.823199 285.477483 
L 424.556245 284.42014 
L 428.16887 282.657902 
L 431.901915 279.133427 
L 435.51454 280.543217 
L 439.247586 278.076084 
L 446.352414 266.797762 
L 450.08546 265.74042 
L 453.698085 265.035524 
L 457.43113 263.625734 
L 461.043755 259.748811 
L 464.776801 254.462098 
L 468.509846 250.937622 
L 472.122471 252.69986 
L 475.855517 251.994965 
L 479.468141 247.765594 
L 483.201187 247.765594 
L 486.934233 242.831329 
L 490.306016 241.421538 
L 494.039061 240.364196 
L 497.651686 239.659301 
L 501.384732 238.601958 
L 504.997356 215.692867 
L 508.730402 211.463497 
L 512.463448 215.692867 
L 516.076072 223.094266 
L 519.809118 228.028531 
L 527.154788 239.659301 
L 530.887834 242.126434 
L 534.380038 248.47049 
L 538.113083 256.576783 
L 541.725708 269.96979 
L 545.458754 283.01035 
L 549.071378 297.460699 
L 552.804424 304.50965 
L 556.53747 313.320839 
L 560.150094 320.722238 
L 563.88314 324.599161 
L 567.495765 326.008951 
L 571.22881 326.008951 
L 578.333639 331.295664 
L 582.066685 333.762797 
L 589.412355 335.877483 
L 593.02498 333.762797 
L 600.491071 328.123636 
L 604.103696 324.951608 
L 607.836741 320.36979 
L 611.449366 315.435524 
L 615.182412 308.739021 
L 618.915457 304.157203 
L 622.28724 297.460699 
L 626.020286 287.944615 
L 629.632911 281.248112 
L 633.365956 271.027133 
L 636.978581 260.806154 
L 644.444672 238.601958 
L 648.057297 224.856503 
L 651.790343 211.463497 
L 659.136013 183.972587 
L 666.240842 165.645315 
L 669.973887 157.539021 
L 673.586512 153.30965 
L 677.319558 150.842517 
L 680.932182 150.137622 
L 684.665228 149.08028 
L 688.398274 145.555804 
L 692.010898 142.736224 
L 695.743944 143.088671 
L 699.356569 137.801958 
L 703.089614 138.506853 
L 706.82266 135.334825 
L 710.314864 133.572587 
L 714.047909 138.859301 
L 717.660534 139.211748 
L 721.39358 138.859301 
L 725.006204 141.326434 
L 728.73925 142.383776 
L 732.472296 144.146014 
L 736.08492 152.604755 
L 739.817966 157.891469 
L 743.430591 159.653706 
L 747.163636 165.645315 
L 747.163636 165.645315 
" clip-path="url(#pa58f99d196)" style="fill: none; stroke: #fb9a99; stroke-width: 1.5; stroke-linecap: square"/>
   </g>
   <g id="line2d_30">
    <path d="M 571.22881 302.747413 
L 574.961856 306.271888 
L 578.333639 309.091469 
L 582.066685 309.796364 
L 585.679309 310.853706 
L 589.412355 310.501259 
L 593.02498 307.681678 
L 596.758025 304.157203 
L 600.491071 301.69007 
L 607.836741 291.469091 
L 611.449366 282.657902 
L 615.182412 278.428531 
L 618.915457 271.027133 
L 622.28724 262.215944 
L 626.020286 255.166993 
L 629.632911 245.650909 
L 633.365956 233.315245 
L 636.978581 223.799161 
L 640.711627 209.348811 
L 644.444672 197.718042 
L 648.057297 185.382378 
L 651.790343 170.932028 
L 655.402967 155.776783 
L 659.136013 144.850909 
L 662.869059 134.62993 
L 666.240842 126.523636 
L 669.973887 120.884476 
L 673.586512 117.36 
L 677.319558 116.655105 
L 680.932182 115.597762 
L 684.665228 117.007552 
L 692.010898 112.073287 
L 695.743944 108.548811 
L 699.356569 108.548811 
L 703.089614 103.966993 
L 706.82266 103.966993 
L 710.314864 106.081678 
L 714.047909 105.376783 
L 717.660534 106.434126 
L 721.39358 107.139021 
L 725.006204 107.491469 
L 728.73925 111.720839 
L 732.472296 117.36 
L 736.08492 120.532028 
L 739.817966 125.466294 
L 743.430591 131.81035 
L 743.430591 131.81035 
" clip-path="url(#pa58f99d196)" style="fill: none; stroke: #e31a1c; stroke-width: 1.5; stroke-linecap: square"/>
   </g>
   <g id="line2d_31">
    <path d="M 138.436364 277.371189 
L 142.169409 278.076084 
L 145.782034 279.133427 
L 149.51508 279.838322 
L 153.127704 279.485874 
L 156.86075 279.485874 
L 160.593796 280.543217 
L 164.20642 280.895664 
L 167.939466 280.190769 
L 175.285136 277.371189 
L 179.018182 276.666294 
L 182.510386 276.313846 
L 186.243431 275.608951 
L 189.856056 275.608951 
L 193.589102 275.961399 
L 197.201726 275.256503 
L 200.934772 274.199161 
L 204.667818 274.199161 
L 215.626113 269.96979 
L 219.359158 269.96979 
L 223.092204 268.912448 
L 226.463987 277.723636 
L 230.197033 283.715245 
L 233.809657 283.362797 
L 237.542703 284.067692 
L 244.888373 284.067692 
L 248.621419 287.23972 
L 255.967089 296.403357 
L 259.579714 296.403357 
L 263.31276 298.518042 
L 267.045805 298.165594 
L 270.417588 298.165594 
L 277.763259 296.050909 
L 285.108929 306.976783 
L 288.841975 306.271888 
L 292.57502 308.386573 
L 296.187645 308.034126 
L 299.920691 308.739021 
L 303.533315 306.976783 
L 307.266361 308.386573 
L 310.999407 308.739021 
L 314.37119 308.739021 
L 318.104235 308.034126 
L 321.71686 306.976783 
L 325.449906 307.329231 
L 329.06253 303.804755 
L 332.795576 303.09986 
L 336.528622 301.337622 
L 340.141246 303.09986 
L 343.874292 304.157203 
L 347.486917 301.69007 
L 351.219962 298.518042 
L 354.953008 295.698462 
L 358.445212 287.592168 
L 362.178257 286.182378 
L 365.790882 285.125035 
L 369.523928 281.600559 
L 373.136552 275.256503 
L 376.869598 272.084476 
L 380.602644 271.732028 
L 384.215268 261.158601 
L 387.948314 255.519441 
L 391.560939 242.126434 
L 395.293984 232.962797 
L 399.02703 224.504056 
L 402.398813 217.455105 
L 406.131859 211.815944 
L 409.744483 209.348811 
L 413.477529 203.004755 
L 417.090154 197.718042 
L 424.556245 197.013147 
L 428.16887 197.365594 
L 431.901915 197.365594 
L 435.51454 194.546014 
L 439.247586 190.669091 
L 442.980631 186.087273 
L 446.352414 183.267692 
L 450.08546 183.62014 
L 453.698085 182.562797 
L 457.43113 180.095664 
L 461.043755 173.399161 
L 464.776801 171.636923 
L 468.509846 170.932028 
L 472.122471 170.57958 
L 475.855517 167.407552 
L 479.468141 161.063497 
L 483.201187 156.834126 
L 486.934233 155.776783 
L 490.306016 155.776783 
L 494.039061 156.481678 
L 497.651686 156.481678 
L 501.384732 156.129231 
L 504.997356 156.129231 
L 508.730402 158.596364 
L 512.463448 164.235524 
L 516.076072 171.989371 
L 519.809118 174.104056 
L 523.421743 179.038322 
L 527.154788 184.677483 
L 530.887834 189.259301 
L 534.380038 195.603357 
L 538.113083 209.701259 
L 541.725708 225.208951 
L 545.458754 237.192168 
L 549.071378 250.232727 
L 552.804424 257.986573 
L 556.53747 266.445315 
L 560.150094 273.141818 
L 563.88314 274.199161 
L 567.495765 275.608951 
L 571.22881 276.666294 
L 574.961856 280.190769 
L 578.333639 284.42014 
L 582.066685 283.715245 
L 589.412355 280.895664 
L 593.02498 274.904056 
L 596.758025 269.96979 
L 600.491071 266.092867 
L 604.103696 260.101259 
L 607.836741 255.519441 
L 618.915457 231.553007 
L 622.28724 222.036923 
L 626.020286 210.053706 
L 629.632911 201.594965 
L 633.365956 191.373986 
L 636.978581 174.808951 
L 640.711627 161.768392 
L 644.444672 151.89986 
L 648.057297 134.982378 
L 651.790343 120.532028 
L 655.402967 105.729231 
L 662.869059 86.697063 
L 666.240842 80.000559 
L 669.973887 71.894266 
L 673.586512 70.132028 
L 677.319558 70.132028 
L 680.932182 69.427133 
L 684.665228 70.836923 
L 688.398274 70.484476 
L 692.010898 70.836923 
L 695.743944 70.132028 
L 699.356569 66.96 
L 703.089614 67.312448 
L 706.82266 68.36979 
L 710.314864 68.722238 
L 714.047909 72.246713 
L 717.660534 73.656503 
L 721.39358 73.656503 
L 725.006204 73.304056 
L 728.73925 76.476084 
L 732.472296 79.295664 
L 736.08492 84.22993 
L 739.817966 87.04951 
L 743.430591 90.573986 
L 747.163636 96.565594 
L 747.163636 96.565594 
" clip-path="url(#pa58f99d196)" style="fill: none; stroke: #fdbf6f; stroke-width: 1.5; stroke-linecap: square"/>
   </g>
   <g id="patch_3">
    <path d="M 108 384.48 
L 108 51.84 
" style="fill: none; stroke: #000000; stroke-width: 0.8; stroke-linejoin: miter; stroke-linecap: square"/>
   </g>
   <g id="patch_4">
    <path d="M 777.6 384.48 
L 777.6 51.84 
" style="fill: none; stroke: #000000; stroke-width: 0.8; stroke-linejoin: miter; stroke-linecap: square"/>
   </g>
   <g id="patch_5">
    <path d="M 108 384.48 
L 777.6 384.48 
" style="fill: none; stroke: #000000; stroke-width: 0.8; stroke-linejoin: miter; stroke-linecap: square"/>
   </g>
   <g id="patch_6">
    <path d="M 108 51.84 
L 777.6 51.84 
" style="fill: none; stroke: #000000; stroke-width: 0.8; stroke-linejoin: miter; stroke-linecap: square"/>
   </g>
   <g id="text_13">
    <!-- Costos de Captación -->
    <g transform="translate(362.450938 45.84) scale(0.14 -0.14)">
     <defs>
      <path id="DejaVuSans-Bold-43" d="M 4288 256 
Q 3956 84 3597 -3 
Q 3238 -91 2847 -91 
Q 1681 -91 1000 561 
Q 319 1213 319 2328 
Q 319 3447 1000 4098 
Q 1681 4750 2847 4750 
Q 3238 4750 3597 4662 
Q 3956 4575 4288 4403 
L 4288 3438 
Q 3953 3666 3628 3772 
Q 3303 3878 2944 3878 
Q 2300 3878 1931 3465 
Q 1563 3053 1563 2328 
Q 1563 1606 1931 1193 
Q 2300 781 2944 781 
Q 3303 781 3628 887 
Q 3953 994 4288 1222 
L 4288 256 
z
" transform="scale(0.015625)"/>
      <path id="DejaVuSans-Bold-6f" d="M 2203 2784 
Q 1831 2784 1636 2517 
Q 1441 2250 1441 1747 
Q 1441 1244 1636 976 
Q 1831 709 2203 709 
Q 2569 709 2762 976 
Q 2956 1244 2956 1747 
Q 2956 2250 2762 2517 
Q 2569 2784 2203 2784 
z
M 2203 3584 
Q 3106 3584 3614 3096 
Q 4122 2609 4122 1747 
Q 4122 884 3614 396 
Q 3106 -91 2203 -91 
Q 1297 -91 786 396 
Q 275 884 275 1747 
Q 275 2609 786 3096 
Q 1297 3584 2203 3584 
z
" transform="scale(0.015625)"/>
      <path id="DejaVuSans-Bold-73" d="M 3272 3391 
L 3272 2541 
Q 2913 2691 2578 2766 
Q 2244 2841 1947 2841 
Q 1628 2841 1473 2761 
Q 1319 2681 1319 2516 
Q 1319 2381 1436 2309 
Q 1553 2238 1856 2203 
L 2053 2175 
Q 2913 2066 3209 1816 
Q 3506 1566 3506 1031 
Q 3506 472 3093 190 
Q 2681 -91 1863 -91 
Q 1516 -91 1145 -36 
Q 775 19 384 128 
L 384 978 
Q 719 816 1070 734 
Q 1422 653 1784 653 
Q 2113 653 2278 743 
Q 2444 834 2444 1013 
Q 2444 1163 2330 1236 
Q 2216 1309 1875 1350 
L 1678 1375 
Q 931 1469 631 1722 
Q 331 1975 331 2491 
Q 331 3047 712 3315 
Q 1094 3584 1881 3584 
Q 2191 3584 2531 3537 
Q 2872 3491 3272 3391 
z
" transform="scale(0.015625)"/>
      <path id="DejaVuSans-Bold-74" d="M 1759 4494 
L 1759 3500 
L 2913 3500 
L 2913 2700 
L 1759 2700 
L 1759 1216 
Q 1759 972 1856 886 
Q 1953 800 2241 800 
L 2816 800 
L 2816 0 
L 1856 0 
Q 1194 0 917 276 
Q 641 553 641 1216 
L 641 2700 
L 84 2700 
L 84 3500 
L 641 3500 
L 641 4494 
L 1759 4494 
z
" transform="scale(0.015625)"/>
      <path id="DejaVuSans-Bold-20" transform="scale(0.015625)"/>
      <path id="DejaVuSans-Bold-64" d="M 2919 2988 
L 2919 4863 
L 4044 4863 
L 4044 0 
L 2919 0 
L 2919 506 
Q 2688 197 2409 53 
Q 2131 -91 1766 -91 
Q 1119 -91 703 423 
Q 288 938 288 1747 
Q 288 2556 703 3070 
Q 1119 3584 1766 3584 
Q 2128 3584 2408 3439 
Q 2688 3294 2919 2988 
z
M 2181 722 
Q 2541 722 2730 984 
Q 2919 1247 2919 1747 
Q 2919 2247 2730 2509 
Q 2541 2772 2181 2772 
Q 1825 2772 1636 2509 
Q 1447 2247 1447 1747 
Q 1447 1247 1636 984 
Q 1825 722 2181 722 
z
" transform="scale(0.015625)"/>
      <path id="DejaVuSans-Bold-65" d="M 4031 1759 
L 4031 1441 
L 1416 1441 
Q 1456 1047 1700 850 
Q 1944 653 2381 653 
Q 2734 653 3104 758 
Q 3475 863 3866 1075 
L 3866 213 
Q 3469 63 3072 -14 
Q 2675 -91 2278 -91 
Q 1328 -91 801 392 
Q 275 875 275 1747 
Q 275 2603 792 3093 
Q 1309 3584 2216 3584 
Q 3041 3584 3536 3087 
Q 4031 2591 4031 1759 
z
M 2881 2131 
Q 2881 2450 2695 2645 
Q 2509 2841 2209 2841 
Q 1884 2841 1681 2658 
Q 1478 2475 1428 2131 
L 2881 2131 
z
" transform="scale(0.015625)"/>
      <path id="DejaVuSans-Bold-61" d="M 2106 1575 
Q 1756 1575 1579 1456 
Q 1403 1338 1403 1106 
Q 1403 894 1545 773 
Q 1688 653 1941 653 
Q 2256 653 2472 879 
Q 2688 1106 2688 1447 
L 2688 1575 
L 2106 1575 
z
M 3816 1997 
L 3816 0 
L 2688 0 
L 2688 519 
Q 2463 200 2181 54 
Q 1900 -91 1497 -91 
Q 953 -91 614 226 
Q 275 544 275 1050 
Q 275 1666 698 1953 
Q 1122 2241 2028 2241 
L 2688 2241 
L 2688 2328 
Q 2688 2594 2478 2717 
Q 2269 2841 1825 2841 
Q 1466 2841 1156 2769 
Q 847 2697 581 2553 
L 581 3406 
Q 941 3494 1303 3539 
Q 1666 3584 2028 3584 
Q 2975 3584 3395 3211 
Q 3816 2838 3816 1997 
z
" transform="scale(0.015625)"/>
      <path id="DejaVuSans-Bold-70" d="M 1656 506 
L 1656 -1331 
L 538 -1331 
L 538 3500 
L 1656 3500 
L 1656 2988 
Q 1888 3294 2169 3439 
Q 2450 3584 2816 3584 
Q 3463 3584 3878 3070 
Q 4294 2556 4294 1747 
Q 4294 938 3878 423 
Q 3463 -91 2816 -91 
Q 2450 -91 2169 54 
Q 1888 200 1656 506 
z
M 2400 2772 
Q 2041 2772 1848 2508 
Q 1656 2244 1656 1747 
Q 1656 1250 1848 986 
Q 2041 722 2400 722 
Q 2759 722 2948 984 
Q 3138 1247 3138 1747 
Q 3138 2247 2948 2509 
Q 2759 2772 2400 2772 
z
" transform="scale(0.015625)"/>
      <path id="DejaVuSans-Bold-63" d="M 3366 3391 
L 3366 2478 
Q 3138 2634 2908 2709 
Q 2678 2784 2431 2784 
Q 1963 2784 1702 2511 
Q 1441 2238 1441 1747 
Q 1441 1256 1702 982 
Q 1963 709 2431 709 
Q 2694 709 2930 787 
Q 3166 866 3366 1019 
L 3366 103 
Q 3103 6 2833 -42 
Q 2563 -91 2291 -91 
Q 1344 -91 809 395 
Q 275 881 275 1747 
Q 275 2613 809 3098 
Q 1344 3584 2291 3584 
Q 2566 3584 2833 3536 
Q 3100 3488 3366 3391 
z
" transform="scale(0.015625)"/>
      <path id="DejaVuSans-Bold-69" d="M 538 3500 
L 1656 3500 
L 1656 0 
L 538 0 
L 538 3500 
z
M 538 4863 
L 1656 4863 
L 1656 3950 
L 538 3950 
L 538 4863 
z
" transform="scale(0.015625)"/>
      <path id="DejaVuSans-Bold-f3" d="M 2203 2784 
Q 1831 2784 1636 2517 
Q 1441 2250 1441 1747 
Q 1441 1244 1636 976 
Q 1831 709 2203 709 
Q 2569 709 2762 976 
Q 2956 1244 2956 1747 
Q 2956 2250 2762 2517 
Q 2569 2784 2203 2784 
z
M 2203 3584 
Q 3106 3584 3614 3096 
Q 4122 2609 4122 1747 
Q 4122 884 3614 396 
Q 3106 -91 2203 -91 
Q 1297 -91 786 396 
Q 275 884 275 1747 
Q 275 2609 786 3096 
Q 1297 3584 2203 3584 
z
M 2694 5119 
L 3578 5119 
L 2425 3944 
L 1813 3944 
L 2694 5119 
z
" transform="scale(0.015625)"/>
      <path id="DejaVuSans-Bold-6e" d="M 4056 2131 
L 4056 0 
L 2931 0 
L 2931 347 
L 2931 1631 
Q 2931 2084 2911 2256 
Q 2891 2428 2841 2509 
Q 2775 2619 2662 2680 
Q 2550 2741 2406 2741 
Q 2056 2741 1856 2470 
Q 1656 2200 1656 1722 
L 1656 0 
L 538 0 
L 538 3500 
L 1656 3500 
L 1656 2988 
Q 1909 3294 2193 3439 
Q 2478 3584 2822 3584 
Q 3428 3584 3742 3212 
Q 4056 2841 4056 2131 
z
" transform="scale(0.015625)"/>
     </defs>
     <use xlink:href="#DejaVuSans-Bold-43"/>
     <use xlink:href="#DejaVuSans-Bold-6f" transform="translate(73.388672 0)"/>
     <use xlink:href="#DejaVuSans-Bold-73" transform="translate(142.089844 0)"/>
     <use xlink:href="#DejaVuSans-Bold-74" transform="translate(201.611328 0)"/>
     <use xlink:href="#DejaVuSans-Bold-6f" transform="translate(249.414062 0)"/>
     <use xlink:href="#DejaVuSans-Bold-73" transform="translate(318.115234 0)"/>
     <use xlink:href="#DejaVuSans-Bold-20" transform="translate(377.636719 0)"/>
     <use xlink:href="#DejaVuSans-Bold-64" transform="translate(412.451172 0)"/>
     <use xlink:href="#DejaVuSans-Bold-65" transform="translate(484.033203 0)"/>
     <use xlink:href="#DejaVuSans-Bold-20" transform="translate(551.855469 0)"/>
     <use xlink:href="#DejaVuSans-Bold-43" transform="translate(586.669922 0)"/>
     <use xlink:href="#DejaVuSans-Bold-61" transform="translate(660.058594 0)"/>
     <use xlink:href="#DejaVuSans-Bold-70" transform="translate(727.539062 0)"/>
     <use xlink:href="#DejaVuSans-Bold-74" transform="translate(799.121094 0)"/>
     <use xlink:href="#DejaVuSans-Bold-61" transform="translate(846.923828 0)"/>
     <use xlink:href="#DejaVuSans-Bold-63" transform="translate(914.404297 0)"/>
     <use xlink:href="#DejaVuSans-Bold-69" transform="translate(973.681641 0)"/>
     <use xlink:href="#DejaVuSans-Bold-f3" transform="translate(1007.958984 0)"/>
     <use xlink:href="#DejaVuSans-Bold-6e" transform="translate(1076.660156 0)"/>
    </g>
   </g>
   <g id="legend_1">
    <g id="patch_7">
     <path d="M 113.6 140.4375 
L 219.69375 140.4375 
Q 221.29375 140.4375 221.29375 138.8375 
L 221.29375 57.44 
Q 221.29375 55.84 219.69375 55.84 
L 113.6 55.84 
Q 112 55.84 112 57.44 
L 112 138.8375 
Q 112 140.4375 113.6 140.4375 
z
" style="fill: #ffffff; opacity: 0.8; stroke: #cccccc; stroke-linejoin: miter"/>
    </g>
    <g id="line2d_32">
     <path d="M 115.2 62.31875 
L 123.2 62.31875 
L 131.2 62.31875 
" style="fill: none; stroke: #a6cee3; stroke-width: 1.5; stroke-linecap: square"/>
    </g>
    <g id="text_14">
     <!-- CCP -->
     <g transform="translate(137.6 65.11875) scale(0.08 -0.08)">
      <defs>
       <path id="DejaVuSans-43" d="M 4122 4306 
L 4122 3641 
Q 3803 3938 3442 4084 
Q 3081 4231 2675 4231 
Q 1875 4231 1450 3742 
Q 1025 3253 1025 2328 
Q 1025 1406 1450 917 
Q 1875 428 2675 428 
Q 3081 428 3442 575 
Q 3803 722 4122 1019 
L 4122 359 
Q 3791 134 3420 21 
Q 3050 -91 2638 -91 
Q 1578 -91 968 557 
Q 359 1206 359 2328 
Q 359 3453 968 4101 
Q 1578 4750 2638 4750 
Q 3056 4750 3426 4639 
Q 3797 4528 4122 4306 
z
" transform="scale(0.015625)"/>
       <path id="DejaVuSans-50" d="M 1259 4147 
L 1259 2394 
L 2053 2394 
Q 2494 2394 2734 2622 
Q 2975 2850 2975 3272 
Q 2975 3691 2734 3919 
Q 2494 4147 2053 4147 
L 1259 4147 
z
M 628 4666 
L 2053 4666 
Q 2838 4666 3239 4311 
Q 3641 3956 3641 3272 
Q 3641 2581 3239 2228 
Q 2838 1875 2053 1875 
L 1259 1875 
L 1259 0 
L 628 0 
L 628 4666 
z
" transform="scale(0.015625)"/>
      </defs>
      <use xlink:href="#DejaVuSans-43"/>
      <use xlink:href="#DejaVuSans-43" transform="translate(69.824219 0)"/>
      <use xlink:href="#DejaVuSans-50" transform="translate(139.648438 0)"/>
     </g>
    </g>
    <g id="line2d_33">
     <path d="M 115.2 74.06125 
L 123.2 74.06125 
L 131.2 74.06125 
" style="fill: none; stroke: #1f78b4; stroke-width: 1.5; stroke-linecap: square"/>
    </g>
    <g id="text_15">
     <!-- CCPO -->
     <g transform="translate(137.6 76.86125) scale(0.08 -0.08)">
      <defs>
       <path id="DejaVuSans-4f" d="M 2522 4238 
Q 1834 4238 1429 3725 
Q 1025 3213 1025 2328 
Q 1025 1447 1429 934 
Q 1834 422 2522 422 
Q 3209 422 3611 934 
Q 4013 1447 4013 2328 
Q 4013 3213 3611 3725 
Q 3209 4238 2522 4238 
z
M 2522 4750 
Q 3503 4750 4090 4092 
Q 4678 3434 4678 2328 
Q 4678 1225 4090 567 
Q 3503 -91 2522 -91 
Q 1538 -91 948 565 
Q 359 1222 359 2328 
Q 359 3434 948 4092 
Q 1538 4750 2522 4750 
z
" transform="scale(0.015625)"/>
      </defs>
      <use xlink:href="#DejaVuSans-43"/>
      <use xlink:href="#DejaVuSans-43" transform="translate(69.824219 0)"/>
      <use xlink:href="#DejaVuSans-50" transform="translate(139.648438 0)"/>
      <use xlink:href="#DejaVuSans-4f" transform="translate(199.951172 0)"/>
     </g>
    </g>
    <g id="line2d_34">
     <path d="M 115.2 85.80375 
L 123.2 85.80375 
L 131.2 85.80375 
" style="fill: none; stroke: #b2df8a; stroke-width: 1.5; stroke-linecap: square"/>
    </g>
    <g id="text_16">
     <!-- CCP-Udis -->
     <g transform="translate(137.6 88.60375) scale(0.08 -0.08)">
      <defs>
       <path id="DejaVuSans-2d" d="M 313 2009 
L 1997 2009 
L 1997 1497 
L 313 1497 
L 313 2009 
z
" transform="scale(0.015625)"/>
       <path id="DejaVuSans-55" d="M 556 4666 
L 1191 4666 
L 1191 1831 
Q 1191 1081 1462 751 
Q 1734 422 2344 422 
Q 2950 422 3222 751 
Q 3494 1081 3494 1831 
L 3494 4666 
L 4128 4666 
L 4128 1753 
Q 4128 841 3676 375 
Q 3225 -91 2344 -91 
Q 1459 -91 1007 375 
Q 556 841 556 1753 
L 556 4666 
z
" transform="scale(0.015625)"/>
       <path id="DejaVuSans-64" d="M 2906 2969 
L 2906 4863 
L 3481 4863 
L 3481 0 
L 2906 0 
L 2906 525 
Q 2725 213 2448 61 
Q 2172 -91 1784 -91 
Q 1150 -91 751 415 
Q 353 922 353 1747 
Q 353 2572 751 3078 
Q 1150 3584 1784 3584 
Q 2172 3584 2448 3432 
Q 2725 3281 2906 2969 
z
M 947 1747 
Q 947 1113 1208 752 
Q 1469 391 1925 391 
Q 2381 391 2643 752 
Q 2906 1113 2906 1747 
Q 2906 2381 2643 2742 
Q 2381 3103 1925 3103 
Q 1469 3103 1208 2742 
Q 947 2381 947 1747 
z
" transform="scale(0.015625)"/>
       <path id="DejaVuSans-69" d="M 603 3500 
L 1178 3500 
L 1178 0 
L 603 0 
L 603 3500 
z
M 603 4863 
L 1178 4863 
L 1178 4134 
L 603 4134 
L 603 4863 
z
" transform="scale(0.015625)"/>
       <path id="DejaVuSans-73" d="M 2834 3397 
L 2834 2853 
Q 2591 2978 2328 3040 
Q 2066 3103 1784 3103 
Q 1356 3103 1142 2972 
Q 928 2841 928 2578 
Q 928 2378 1081 2264 
Q 1234 2150 1697 2047 
L 1894 2003 
Q 2506 1872 2764 1633 
Q 3022 1394 3022 966 
Q 3022 478 2636 193 
Q 2250 -91 1575 -91 
Q 1294 -91 989 -36 
Q 684 19 347 128 
L 347 722 
Q 666 556 975 473 
Q 1284 391 1588 391 
Q 1994 391 2212 530 
Q 2431 669 2431 922 
Q 2431 1156 2273 1281 
Q 2116 1406 1581 1522 
L 1381 1569 
Q 847 1681 609 1914 
Q 372 2147 372 2553 
Q 372 3047 722 3315 
Q 1072 3584 1716 3584 
Q 2034 3584 2315 3537 
Q 2597 3491 2834 3397 
z
" transform="scale(0.015625)"/>
      </defs>
      <use xlink:href="#DejaVuSans-43"/>
      <use xlink:href="#DejaVuSans-43" transform="translate(69.824219 0)"/>
      <use xlink:href="#DejaVuSans-50" transform="translate(139.648438 0)"/>
      <use xlink:href="#DejaVuSans-2d" transform="translate(197.701172 0)"/>
      <use xlink:href="#DejaVuSans-55" transform="translate(233.785156 0)"/>
      <use xlink:href="#DejaVuSans-64" transform="translate(306.978516 0)"/>
      <use xlink:href="#DejaVuSans-69" transform="translate(370.455078 0)"/>
      <use xlink:href="#DejaVuSans-73" transform="translate(398.238281 0)"/>
     </g>
    </g>
    <g id="line2d_35">
     <path d="M 115.2 97.54625 
L 123.2 97.54625 
L 131.2 97.54625 
" style="fill: none; stroke: #33a02c; stroke-width: 1.5; stroke-linecap: square"/>
    </g>
    <g id="text_17">
     <!-- CCP-Dólares -->
     <g transform="translate(137.6 100.34625) scale(0.08 -0.08)">
      <defs>
       <path id="DejaVuSans-44" d="M 1259 4147 
L 1259 519 
L 2022 519 
Q 2988 519 3436 956 
Q 3884 1394 3884 2338 
Q 3884 3275 3436 3711 
Q 2988 4147 2022 4147 
L 1259 4147 
z
M 628 4666 
L 1925 4666 
Q 3281 4666 3915 4102 
Q 4550 3538 4550 2338 
Q 4550 1131 3912 565 
Q 3275 0 1925 0 
L 628 0 
L 628 4666 
z
" transform="scale(0.015625)"/>
       <path id="DejaVuSans-f3" d="M 1959 3097 
Q 1497 3097 1228 2736 
Q 959 2375 959 1747 
Q 959 1119 1226 758 
Q 1494 397 1959 397 
Q 2419 397 2687 759 
Q 2956 1122 2956 1747 
Q 2956 2369 2687 2733 
Q 2419 3097 1959 3097 
z
M 1959 3584 
Q 2709 3584 3137 3096 
Q 3566 2609 3566 1747 
Q 3566 888 3137 398 
Q 2709 -91 1959 -91 
Q 1206 -91 779 398 
Q 353 888 353 1747 
Q 353 2609 779 3096 
Q 1206 3584 1959 3584 
z
M 2394 5119 
L 3016 5119 
L 1997 3944 
L 1519 3944 
L 2394 5119 
z
" transform="scale(0.015625)"/>
       <path id="DejaVuSans-6c" d="M 603 4863 
L 1178 4863 
L 1178 0 
L 603 0 
L 603 4863 
z
" transform="scale(0.015625)"/>
       <path id="DejaVuSans-61" d="M 2194 1759 
Q 1497 1759 1228 1600 
Q 959 1441 959 1056 
Q 959 750 1161 570 
Q 1363 391 1709 391 
Q 2188 391 2477 730 
Q 2766 1069 2766 1631 
L 2766 1759 
L 2194 1759 
z
M 3341 1997 
L 3341 0 
L 2766 0 
L 2766 531 
Q 2569 213 2275 61 
Q 1981 -91 1556 -91 
Q 1019 -91 701 211 
Q 384 513 384 1019 
Q 384 1609 779 1909 
Q 1175 2209 1959 2209 
L 2766 2209 
L 2766 2266 
Q 2766 2663 2505 2880 
Q 2244 3097 1772 3097 
Q 1472 3097 1187 3025 
Q 903 2953 641 2809 
L 641 3341 
Q 956 3463 1253 3523 
Q 1550 3584 1831 3584 
Q 2591 3584 2966 3190 
Q 3341 2797 3341 1997 
z
" transform="scale(0.015625)"/>
       <path id="DejaVuSans-72" d="M 2631 2963 
Q 2534 3019 2420 3045 
Q 2306 3072 2169 3072 
Q 1681 3072 1420 2755 
Q 1159 2438 1159 1844 
L 1159 0 
L 581 0 
L 581 3500 
L 1159 3500 
L 1159 2956 
Q 1341 3275 1631 3429 
Q 1922 3584 2338 3584 
Q 2397 3584 2469 3576 
Q 2541 3569 2628 3553 
L 2631 2963 
z
" transform="scale(0.015625)"/>
       <path id="DejaVuSans-65" d="M 3597 1894 
L 3597 1613 
L 953 1613 
Q 991 1019 1311 708 
Q 1631 397 2203 397 
Q 2534 397 2845 478 
Q 3156 559 3463 722 
L 3463 178 
Q 3153 47 2828 -22 
Q 2503 -91 2169 -91 
Q 1331 -91 842 396 
Q 353 884 353 1716 
Q 353 2575 817 3079 
Q 1281 3584 2069 3584 
Q 2775 3584 3186 3129 
Q 3597 2675 3597 1894 
z
M 3022 2063 
Q 3016 2534 2758 2815 
Q 2500 3097 2075 3097 
Q 1594 3097 1305 2825 
Q 1016 2553 972 2059 
L 3022 2063 
z
" transform="scale(0.015625)"/>
      </defs>
      <use xlink:href="#DejaVuSans-43"/>
      <use xlink:href="#DejaVuSans-43" transform="translate(69.824219 0)"/>
      <use xlink:href="#DejaVuSans-50" transform="translate(139.648438 0)"/>
      <use xlink:href="#DejaVuSans-2d" transform="translate(197.701172 0)"/>
      <use xlink:href="#DejaVuSans-44" transform="translate(233.785156 0)"/>
      <use xlink:href="#DejaVuSans-f3" transform="translate(310.787109 0)"/>
      <use xlink:href="#DejaVuSans-6c" transform="translate(371.96875 0)"/>
      <use xlink:href="#DejaVuSans-61" transform="translate(399.751953 0)"/>
      <use xlink:href="#DejaVuSans-72" transform="translate(461.03125 0)"/>
      <use xlink:href="#DejaVuSans-65" transform="translate(499.894531 0)"/>
      <use xlink:href="#DejaVuSans-73" transform="translate(561.417969 0)"/>
     </g>
    </g>
    <g id="line2d_36">
     <path d="M 115.2 109.28875 
L 123.2 109.28875 
L 131.2 109.28875 
" style="fill: none; stroke: #fb9a99; stroke-width: 1.5; stroke-linecap: square"/>
    </g>
    <g id="text_18">
     <!-- CPP -->
     <g transform="translate(137.6 112.08875) scale(0.08 -0.08)">
      <use xlink:href="#DejaVuSans-43"/>
      <use xlink:href="#DejaVuSans-50" transform="translate(69.824219 0)"/>
      <use xlink:href="#DejaVuSans-50" transform="translate(130.126953 0)"/>
     </g>
    </g>
    <g id="line2d_37">
     <path d="M 115.2 121.03125 
L 123.2 121.03125 
L 131.2 121.03125 
" style="fill: none; stroke: #e31a1c; stroke-width: 1.5; stroke-linecap: square"/>
    </g>
    <g id="text_19">
     <!-- CPPE -->
     <g transform="translate(137.6 123.83125) scale(0.08 -0.08)">
      <defs>
       <path id="DejaVuSans-45" d="M 628 4666 
L 3578 4666 
L 3578 4134 
L 1259 4134 
L 1259 2753 
L 3481 2753 
L 3481 2222 
L 1259 2222 
L 1259 531 
L 3634 531 
L 3634 0 
L 628 0 
L 628 4666 
z
" transform="scale(0.015625)"/>
      </defs>
      <use xlink:href="#DejaVuSans-43"/>
      <use xlink:href="#DejaVuSans-50" transform="translate(69.824219 0)"/>
      <use xlink:href="#DejaVuSans-50" transform="translate(130.126953 0)"/>
      <use xlink:href="#DejaVuSans-45" transform="translate(190.429688 0)"/>
     </g>
    </g>
    <g id="line2d_38">
     <path d="M 115.2 132.77375 
L 123.2 132.77375 
L 131.2 132.77375 
" style="fill: none; stroke: #fdbf6f; stroke-width: 1.5; stroke-linecap: square"/>
    </g>
    <g id="text_20">
     <!-- Banca de Desarrollo -->
     <g transform="translate(137.6 135.57375) scale(0.08 -0.08)">
      <defs>
       <path id="DejaVuSans-42" d="M 1259 2228 
L 1259 519 
L 2272 519 
Q 2781 519 3026 730 
Q 3272 941 3272 1375 
Q 3272 1813 3026 2020 
Q 2781 2228 2272 2228 
L 1259 2228 
z
M 1259 4147 
L 1259 2741 
L 2194 2741 
Q 2656 2741 2882 2914 
Q 3109 3088 3109 3444 
Q 3109 3797 2882 3972 
Q 2656 4147 2194 4147 
L 1259 4147 
z
M 628 4666 
L 2241 4666 
Q 2963 4666 3353 4366 
Q 3744 4066 3744 3513 
Q 3744 3084 3544 2831 
Q 3344 2578 2956 2516 
Q 3422 2416 3680 2098 
Q 3938 1781 3938 1306 
Q 3938 681 3513 340 
Q 3088 0 2303 0 
L 628 0 
L 628 4666 
z
" transform="scale(0.015625)"/>
       <path id="DejaVuSans-6e" d="M 3513 2113 
L 3513 0 
L 2938 0 
L 2938 2094 
Q 2938 2591 2744 2837 
Q 2550 3084 2163 3084 
Q 1697 3084 1428 2787 
Q 1159 2491 1159 1978 
L 1159 0 
L 581 0 
L 581 3500 
L 1159 3500 
L 1159 2956 
Q 1366 3272 1645 3428 
Q 1925 3584 2291 3584 
Q 2894 3584 3203 3211 
Q 3513 2838 3513 2113 
z
" transform="scale(0.015625)"/>
       <path id="DejaVuSans-63" d="M 3122 3366 
L 3122 2828 
Q 2878 2963 2633 3030 
Q 2388 3097 2138 3097 
Q 1578 3097 1268 2742 
Q 959 2388 959 1747 
Q 959 1106 1268 751 
Q 1578 397 2138 397 
Q 2388 397 2633 464 
Q 2878 531 3122 666 
L 3122 134 
Q 2881 22 2623 -34 
Q 2366 -91 2075 -91 
Q 1284 -91 818 406 
Q 353 903 353 1747 
Q 353 2603 823 3093 
Q 1294 3584 2113 3584 
Q 2378 3584 2631 3529 
Q 2884 3475 3122 3366 
z
" transform="scale(0.015625)"/>
       <path id="DejaVuSans-20" transform="scale(0.015625)"/>
       <path id="DejaVuSans-6f" d="M 1959 3097 
Q 1497 3097 1228 2736 
Q 959 2375 959 1747 
Q 959 1119 1226 758 
Q 1494 397 1959 397 
Q 2419 397 2687 759 
Q 2956 1122 2956 1747 
Q 2956 2369 2687 2733 
Q 2419 3097 1959 3097 
z
M 1959 3584 
Q 2709 3584 3137 3096 
Q 3566 2609 3566 1747 
Q 3566 888 3137 398 
Q 2709 -91 1959 -91 
Q 1206 -91 779 398 
Q 353 888 353 1747 
Q 353 2609 779 3096 
Q 1206 3584 1959 3584 
z
" transform="scale(0.015625)"/>
      </defs>
      <use xlink:href="#DejaVuSans-42"/>
      <use xlink:href="#DejaVuSans-61" transform="translate(68.603516 0)"/>
      <use xlink:href="#DejaVuSans-6e" transform="translate(129.882812 0)"/>
      <use xlink:href="#DejaVuSans-63" transform="translate(193.261719 0)"/>
      <use xlink:href="#DejaVuSans-61" transform="translate(248.242188 0)"/>
      <use xlink:href="#DejaVuSans-20" transform="translate(309.521484 0)"/>
      <use xlink:href="#DejaVuSans-64" transform="translate(341.308594 0)"/>
      <use xlink:href="#DejaVuSans-65" transform="translate(404.785156 0)"/>
      <use xlink:href="#DejaVuSans-20" transform="translate(466.308594 0)"/>
      <use xlink:href="#DejaVuSans-44" transform="translate(498.095703 0)"/>
      <use xlink:href="#DejaVuSans-65" transform="translate(575.097656 0)"/>
      <use xlink:href="#DejaVuSans-73" transform="translate(636.621094 0)"/>
      <use xlink:href="#DejaVuSans-61" transform="translate(688.720703 0)"/>
      <use xlink:href="#DejaVuSans-72" transform="translate(750 0)"/>
      <use xlink:href="#DejaVuSans-72" transform="translate(789.363281 0)"/>
      <use xlink:href="#DejaVuSans-6f" transform="translate(828.226562 0)"/>
      <use xlink:href="#DejaVuSans-6c" transform="translate(889.408203 0)"/>
      <use xlink:href="#DejaVuSans-6c" transform="translate(917.191406 0)"/>
      <use xlink:href="#DejaVuSans-6f" transform="translate(944.974609 0)"/>
     </g>
    </g>
   </g>
  </g>
 </g>
 <defs>
  <clipPath id="pa58f99d196">
   <rect x="108" y="51.84" width="669.6" height="332.64"/>
  </clipPath>
 </defs>
</svg>
