<?xml version="1.0" encoding="utf-8" standalone="no"?>
<!DOCTYPE svg PUBLIC "-//W3C//DTD SVG 1.1//EN"
  "http://www.w3.org/Graphics/SVG/1.1/DTD/svg11.dtd">
<svg xmlns:xlink="http://www.w3.org/1999/xlink" width="864pt" height="432pt" viewBox="0 0 864 432" xmlns="http://www.w3.org/2000/svg" version="1.1">
 <metadata>
  <rdf:RDF xmlns:dc="http://purl.org/dc/elements/1.1/" xmlns:cc="http://creativecommons.org/ns#" xmlns:rdf="http://www.w3.org/1999/02/22-rdf-syntax-ns#">
   <cc:Work>
    <dc:type rdf:resource="http://purl.org/dc/dcmitype/StillImage"/>
    <dc:date>2025-03-03T22:47:35.039827</dc:date>
    <dc:format>image/svg+xml</dc:format>
    <dc:creator>
     <cc:Agent>
      <dc:title>Matplotlib v3.8.4, https://matplotlib.org/</dc:title>
     </cc:Agent>
    </dc:creator>
   </cc:Work>
  </rdf:RDF>
 </metadata>
 <defs>
  <style type="text/css">*{stroke-linejoin: round; stroke-linecap: butt}</style>
 </defs>
 <g id="figure_1">
  <g id="patch_1">
   <path d="M 0 432 
L 864 432 
L 864 0 
L 0 0 
z
" style="fill: #ffffff"/>
  </g>
  <g id="axes_1">
   <g id="patch_2">
    <path d="M 108 384.48 
L 777.6 384.48 
L 777.6 51.84 
L 108 51.84 
z
" style="fill: #ffffff"/>
   </g>
   <g id="matplotlib.axis_1">
    <g id="xtick_1">
     <g id="line2d_1">
      <path d="M 174.136939 384.48 
L 174.136939 51.84 
" clip-path="url(#p69bc6831a8)" style="fill: none; stroke-dasharray: 2.96,1.28; stroke-dashoffset: 0; stroke: #b0b0b0; stroke-opacity: 0.5; stroke-width: 0.8"/>
     </g>
     <g id="line2d_2">
      <defs>
       <path id="m23557da616" d="M 0 0 
L 0 3.5 
" style="stroke: #000000; stroke-width: 0.8"/>
      </defs>
      <g>
       <use xlink:href="#m23557da616" x="174.136939" y="384.48" style="stroke: #000000; stroke-width: 0.8"/>
      </g>
     </g>
     <g id="text_1">
      <!-- 2012 -->
      <g transform="translate(161.411939 399.078438) scale(0.1 -0.1)">
       <defs>
        <path id="DejaVuSans-32" d="M 1228 531 
L 3431 531 
L 3431 0 
L 469 0 
L 469 531 
Q 828 903 1448 1529 
Q 2069 2156 2228 2338 
Q 2531 2678 2651 2914 
Q 2772 3150 2772 3378 
Q 2772 3750 2511 3984 
Q 2250 4219 1831 4219 
Q 1534 4219 1204 4116 
Q 875 4013 500 3803 
L 500 4441 
Q 881 4594 1212 4672 
Q 1544 4750 1819 4750 
Q 2544 4750 2975 4387 
Q 3406 4025 3406 3419 
Q 3406 3131 3298 2873 
Q 3191 2616 2906 2266 
Q 2828 2175 2409 1742 
Q 1991 1309 1228 531 
z
" transform="scale(0.015625)"/>
        <path id="DejaVuSans-30" d="M 2034 4250 
Q 1547 4250 1301 3770 
Q 1056 3291 1056 2328 
Q 1056 1369 1301 889 
Q 1547 409 2034 409 
Q 2525 409 2770 889 
Q 3016 1369 3016 2328 
Q 3016 3291 2770 3770 
Q 2525 4250 2034 4250 
z
M 2034 4750 
Q 2819 4750 3233 4129 
Q 3647 3509 3647 2328 
Q 3647 1150 3233 529 
Q 2819 -91 2034 -91 
Q 1250 -91 836 529 
Q 422 1150 422 2328 
Q 422 3509 836 4129 
Q 1250 4750 2034 4750 
z
" transform="scale(0.015625)"/>
        <path id="DejaVuSans-31" d="M 794 531 
L 1825 531 
L 1825 4091 
L 703 3866 
L 703 4441 
L 1819 4666 
L 2450 4666 
L 2450 531 
L 3481 531 
L 3481 0 
L 794 0 
L 794 531 
z
" transform="scale(0.015625)"/>
       </defs>
       <use xlink:href="#DejaVuSans-32"/>
       <use xlink:href="#DejaVuSans-30" x="63.623047"/>
       <use xlink:href="#DejaVuSans-31" x="127.246094"/>
       <use xlink:href="#DejaVuSans-32" x="190.869141"/>
      </g>
     </g>
    </g>
    <g id="xtick_2">
     <g id="line2d_3">
      <path d="M 269.035561 384.48 
L 269.035561 51.84 
" clip-path="url(#p69bc6831a8)" style="fill: none; stroke-dasharray: 2.96,1.28; stroke-dashoffset: 0; stroke: #b0b0b0; stroke-opacity: 0.5; stroke-width: 0.8"/>
     </g>
     <g id="line2d_4">
      <g>
       <use xlink:href="#m23557da616" x="269.035561" y="384.48" style="stroke: #000000; stroke-width: 0.8"/>
      </g>
     </g>
     <g id="text_2">
      <!-- 2014 -->
      <g transform="translate(256.310561 399.078438) scale(0.1 -0.1)">
       <defs>
        <path id="DejaVuSans-34" d="M 2419 4116 
L 825 1625 
L 2419 1625 
L 2419 4116 
z
M 2253 4666 
L 3047 4666 
L 3047 1625 
L 3713 1625 
L 3713 1100 
L 3047 1100 
L 3047 0 
L 2419 0 
L 2419 1100 
L 313 1100 
L 313 1709 
L 2253 4666 
z
" transform="scale(0.015625)"/>
       </defs>
       <use xlink:href="#DejaVuSans-32"/>
       <use xlink:href="#DejaVuSans-30" x="63.623047"/>
       <use xlink:href="#DejaVuSans-31" x="127.246094"/>
       <use xlink:href="#DejaVuSans-34" x="190.869141"/>
      </g>
     </g>
    </g>
    <g id="xtick_3">
     <g id="line2d_5">
      <path d="M 363.804362 384.48 
L 363.804362 51.84 
" clip-path="url(#p69bc6831a8)" style="fill: none; stroke-dasharray: 2.96,1.28; stroke-dashoffset: 0; stroke: #b0b0b0; stroke-opacity: 0.5; stroke-width: 0.8"/>
     </g>
     <g id="line2d_6">
      <g>
       <use xlink:href="#m23557da616" x="363.804362" y="384.48" style="stroke: #000000; stroke-width: 0.8"/>
      </g>
     </g>
     <g id="text_3">
      <!-- 2016 -->
      <g transform="translate(351.079362 399.078438) scale(0.1 -0.1)">
       <defs>
        <path id="DejaVuSans-36" d="M 2113 2584 
Q 1688 2584 1439 2293 
Q 1191 2003 1191 1497 
Q 1191 994 1439 701 
Q 1688 409 2113 409 
Q 2538 409 2786 701 
Q 3034 994 3034 1497 
Q 3034 2003 2786 2293 
Q 2538 2584 2113 2584 
z
M 3366 4563 
L 3366 3988 
Q 3128 4100 2886 4159 
Q 2644 4219 2406 4219 
Q 1781 4219 1451 3797 
Q 1122 3375 1075 2522 
Q 1259 2794 1537 2939 
Q 1816 3084 2150 3084 
Q 2853 3084 3261 2657 
Q 3669 2231 3669 1497 
Q 3669 778 3244 343 
Q 2819 -91 2113 -91 
Q 1303 -91 875 529 
Q 447 1150 447 2328 
Q 447 3434 972 4092 
Q 1497 4750 2381 4750 
Q 2619 4750 2861 4703 
Q 3103 4656 3366 4563 
z
" transform="scale(0.015625)"/>
       </defs>
       <use xlink:href="#DejaVuSans-32"/>
       <use xlink:href="#DejaVuSans-30" x="63.623047"/>
       <use xlink:href="#DejaVuSans-31" x="127.246094"/>
       <use xlink:href="#DejaVuSans-36" x="190.869141"/>
      </g>
     </g>
    </g>
    <g id="xtick_4">
     <g id="line2d_7">
      <path d="M 458.702984 384.48 
L 458.702984 51.84 
" clip-path="url(#p69bc6831a8)" style="fill: none; stroke-dasharray: 2.96,1.28; stroke-dashoffset: 0; stroke: #b0b0b0; stroke-opacity: 0.5; stroke-width: 0.8"/>
     </g>
     <g id="line2d_8">
      <g>
       <use xlink:href="#m23557da616" x="458.702984" y="384.48" style="stroke: #000000; stroke-width: 0.8"/>
      </g>
     </g>
     <g id="text_4">
      <!-- 2018 -->
      <g transform="translate(445.977984 399.078438) scale(0.1 -0.1)">
       <defs>
        <path id="DejaVuSans-38" d="M 2034 2216 
Q 1584 2216 1326 1975 
Q 1069 1734 1069 1313 
Q 1069 891 1326 650 
Q 1584 409 2034 409 
Q 2484 409 2743 651 
Q 3003 894 3003 1313 
Q 3003 1734 2745 1975 
Q 2488 2216 2034 2216 
z
M 1403 2484 
Q 997 2584 770 2862 
Q 544 3141 544 3541 
Q 544 4100 942 4425 
Q 1341 4750 2034 4750 
Q 2731 4750 3128 4425 
Q 3525 4100 3525 3541 
Q 3525 3141 3298 2862 
Q 3072 2584 2669 2484 
Q 3125 2378 3379 2068 
Q 3634 1759 3634 1313 
Q 3634 634 3220 271 
Q 2806 -91 2034 -91 
Q 1263 -91 848 271 
Q 434 634 434 1313 
Q 434 1759 690 2068 
Q 947 2378 1403 2484 
z
M 1172 3481 
Q 1172 3119 1398 2916 
Q 1625 2713 2034 2713 
Q 2441 2713 2670 2916 
Q 2900 3119 2900 3481 
Q 2900 3844 2670 4047 
Q 2441 4250 2034 4250 
Q 1625 4250 1398 4047 
Q 1172 3844 1172 3481 
z
" transform="scale(0.015625)"/>
       </defs>
       <use xlink:href="#DejaVuSans-32"/>
       <use xlink:href="#DejaVuSans-30" x="63.623047"/>
       <use xlink:href="#DejaVuSans-31" x="127.246094"/>
       <use xlink:href="#DejaVuSans-38" x="190.869141"/>
      </g>
     </g>
    </g>
    <g id="xtick_5">
     <g id="line2d_9">
      <path d="M 553.471785 384.48 
L 553.471785 51.84 
" clip-path="url(#p69bc6831a8)" style="fill: none; stroke-dasharray: 2.96,1.28; stroke-dashoffset: 0; stroke: #b0b0b0; stroke-opacity: 0.5; stroke-width: 0.8"/>
     </g>
     <g id="line2d_10">
      <g>
       <use xlink:href="#m23557da616" x="553.471785" y="384.48" style="stroke: #000000; stroke-width: 0.8"/>
      </g>
     </g>
     <g id="text_5">
      <!-- 2020 -->
      <g transform="translate(540.746785 399.078438) scale(0.1 -0.1)">
       <use xlink:href="#DejaVuSans-32"/>
       <use xlink:href="#DejaVuSans-30" x="63.623047"/>
       <use xlink:href="#DejaVuSans-32" x="127.246094"/>
       <use xlink:href="#DejaVuSans-30" x="190.869141"/>
      </g>
     </g>
    </g>
    <g id="xtick_6">
     <g id="line2d_11">
      <path d="M 648.370407 384.48 
L 648.370407 51.84 
" clip-path="url(#p69bc6831a8)" style="fill: none; stroke-dasharray: 2.96,1.28; stroke-dashoffset: 0; stroke: #b0b0b0; stroke-opacity: 0.5; stroke-width: 0.8"/>
     </g>
     <g id="line2d_12">
      <g>
       <use xlink:href="#m23557da616" x="648.370407" y="384.48" style="stroke: #000000; stroke-width: 0.8"/>
      </g>
     </g>
     <g id="text_6">
      <!-- 2022 -->
      <g transform="translate(635.645407 399.078438) scale(0.1 -0.1)">
       <use xlink:href="#DejaVuSans-32"/>
       <use xlink:href="#DejaVuSans-30" x="63.623047"/>
       <use xlink:href="#DejaVuSans-32" x="127.246094"/>
       <use xlink:href="#DejaVuSans-32" x="190.869141"/>
      </g>
     </g>
    </g>
    <g id="xtick_7">
     <g id="line2d_13">
      <path d="M 743.139208 384.48 
L 743.139208 51.84 
" clip-path="url(#p69bc6831a8)" style="fill: none; stroke-dasharray: 2.96,1.28; stroke-dashoffset: 0; stroke: #b0b0b0; stroke-opacity: 0.5; stroke-width: 0.8"/>
     </g>
     <g id="line2d_14">
      <g>
       <use xlink:href="#m23557da616" x="743.139208" y="384.48" style="stroke: #000000; stroke-width: 0.8"/>
      </g>
     </g>
     <g id="text_7">
      <!-- 2024 -->
      <g transform="translate(730.414208 399.078438) scale(0.1 -0.1)">
       <use xlink:href="#DejaVuSans-32"/>
       <use xlink:href="#DejaVuSans-30" x="63.623047"/>
       <use xlink:href="#DejaVuSans-32" x="127.246094"/>
       <use xlink:href="#DejaVuSans-34" x="190.869141"/>
      </g>
     </g>
    </g>
   </g>
   <g id="matplotlib.axis_2">
    <g id="ytick_1">
     <g id="line2d_15">
      <path d="M 108 374.131324 
L 777.6 374.131324 
" clip-path="url(#p69bc6831a8)" style="fill: none; stroke-dasharray: 2.96,1.28; stroke-dashoffset: 0; stroke: #b0b0b0; stroke-opacity: 0.5; stroke-width: 0.8"/>
     </g>
     <g id="line2d_16">
      <defs>
       <path id="m4e8d31ecee" d="M 0 0 
L -3.5 0 
" style="stroke: #000000; stroke-width: 0.8"/>
      </defs>
      <g>
       <use xlink:href="#m4e8d31ecee" x="108" y="374.131324" style="stroke: #000000; stroke-width: 0.8"/>
      </g>
     </g>
     <g id="text_8">
      <!-- 0.0 -->
      <g transform="translate(85.096875 377.930543) scale(0.1 -0.1)">
       <defs>
        <path id="DejaVuSans-2e" d="M 684 794 
L 1344 794 
L 1344 0 
L 684 0 
L 684 794 
z
" transform="scale(0.015625)"/>
       </defs>
       <use xlink:href="#DejaVuSans-30"/>
       <use xlink:href="#DejaVuSans-2e" x="63.623047"/>
       <use xlink:href="#DejaVuSans-30" x="95.410156"/>
      </g>
     </g>
    </g>
    <g id="ytick_2">
     <g id="line2d_17">
      <path d="M 108 311.920302 
L 777.6 311.920302 
" clip-path="url(#p69bc6831a8)" style="fill: none; stroke-dasharray: 2.96,1.28; stroke-dashoffset: 0; stroke: #b0b0b0; stroke-opacity: 0.5; stroke-width: 0.8"/>
     </g>
     <g id="line2d_18">
      <g>
       <use xlink:href="#m4e8d31ecee" x="108" y="311.920302" style="stroke: #000000; stroke-width: 0.8"/>
      </g>
     </g>
     <g id="text_9">
      <!-- 0.5 -->
      <g transform="translate(85.096875 315.719521) scale(0.1 -0.1)">
       <defs>
        <path id="DejaVuSans-35" d="M 691 4666 
L 3169 4666 
L 3169 4134 
L 1269 4134 
L 1269 2991 
Q 1406 3038 1543 3061 
Q 1681 3084 1819 3084 
Q 2600 3084 3056 2656 
Q 3513 2228 3513 1497 
Q 3513 744 3044 326 
Q 2575 -91 1722 -91 
Q 1428 -91 1123 -41 
Q 819 9 494 109 
L 494 744 
Q 775 591 1075 516 
Q 1375 441 1709 441 
Q 2250 441 2565 725 
Q 2881 1009 2881 1497 
Q 2881 1984 2565 2268 
Q 2250 2553 1709 2553 
Q 1456 2553 1204 2497 
Q 953 2441 691 2322 
L 691 4666 
z
" transform="scale(0.015625)"/>
       </defs>
       <use xlink:href="#DejaVuSans-30"/>
       <use xlink:href="#DejaVuSans-2e" x="63.623047"/>
       <use xlink:href="#DejaVuSans-35" x="95.410156"/>
      </g>
     </g>
    </g>
    <g id="ytick_3">
     <g id="line2d_19">
      <path d="M 108 249.709281 
L 777.6 249.709281 
" clip-path="url(#p69bc6831a8)" style="fill: none; stroke-dasharray: 2.96,1.28; stroke-dashoffset: 0; stroke: #b0b0b0; stroke-opacity: 0.5; stroke-width: 0.8"/>
     </g>
     <g id="line2d_20">
      <g>
       <use xlink:href="#m4e8d31ecee" x="108" y="249.709281" style="stroke: #000000; stroke-width: 0.8"/>
      </g>
     </g>
     <g id="text_10">
      <!-- 1.0 -->
      <g transform="translate(85.096875 253.508499) scale(0.1 -0.1)">
       <use xlink:href="#DejaVuSans-31"/>
       <use xlink:href="#DejaVuSans-2e" x="63.623047"/>
       <use xlink:href="#DejaVuSans-30" x="95.410156"/>
      </g>
     </g>
    </g>
    <g id="ytick_4">
     <g id="line2d_21">
      <path d="M 108 187.498259 
L 777.6 187.498259 
" clip-path="url(#p69bc6831a8)" style="fill: none; stroke-dasharray: 2.96,1.28; stroke-dashoffset: 0; stroke: #b0b0b0; stroke-opacity: 0.5; stroke-width: 0.8"/>
     </g>
     <g id="line2d_22">
      <g>
       <use xlink:href="#m4e8d31ecee" x="108" y="187.498259" style="stroke: #000000; stroke-width: 0.8"/>
      </g>
     </g>
     <g id="text_11">
      <!-- 1.5 -->
      <g transform="translate(85.096875 191.297478) scale(0.1 -0.1)">
       <use xlink:href="#DejaVuSans-31"/>
       <use xlink:href="#DejaVuSans-2e" x="63.623047"/>
       <use xlink:href="#DejaVuSans-35" x="95.410156"/>
      </g>
     </g>
    </g>
    <g id="ytick_5">
     <g id="line2d_23">
      <path d="M 108 125.287237 
L 777.6 125.287237 
" clip-path="url(#p69bc6831a8)" style="fill: none; stroke-dasharray: 2.96,1.28; stroke-dashoffset: 0; stroke: #b0b0b0; stroke-opacity: 0.5; stroke-width: 0.8"/>
     </g>
     <g id="line2d_24">
      <g>
       <use xlink:href="#m4e8d31ecee" x="108" y="125.287237" style="stroke: #000000; stroke-width: 0.8"/>
      </g>
     </g>
     <g id="text_12">
      <!-- 2.0 -->
      <g transform="translate(85.096875 129.086456) scale(0.1 -0.1)">
       <use xlink:href="#DejaVuSans-32"/>
       <use xlink:href="#DejaVuSans-2e" x="63.623047"/>
       <use xlink:href="#DejaVuSans-30" x="95.410156"/>
      </g>
     </g>
    </g>
    <g id="ytick_6">
     <g id="line2d_25">
      <path d="M 108 63.076216 
L 777.6 63.076216 
" clip-path="url(#p69bc6831a8)" style="fill: none; stroke-dasharray: 2.96,1.28; stroke-dashoffset: 0; stroke: #b0b0b0; stroke-opacity: 0.5; stroke-width: 0.8"/>
     </g>
     <g id="line2d_26">
      <g>
       <use xlink:href="#m4e8d31ecee" x="108" y="63.076216" style="stroke: #000000; stroke-width: 0.8"/>
      </g>
     </g>
     <g id="text_13">
      <!-- 2.5 -->
      <g transform="translate(85.096875 66.875434) scale(0.1 -0.1)">
       <use xlink:href="#DejaVuSans-32"/>
       <use xlink:href="#DejaVuSans-2e" x="63.623047"/>
       <use xlink:href="#DejaVuSans-35" x="95.410156"/>
      </g>
     </g>
    </g>
    <g id="text_14">
     <!-- 1e7 -->
     <g transform="translate(108 48.84) scale(0.1 -0.1)">
      <defs>
       <path id="DejaVuSans-65" d="M 3597 1894 
L 3597 1613 
L 953 1613 
Q 991 1019 1311 708 
Q 1631 397 2203 397 
Q 2534 397 2845 478 
Q 3156 559 3463 722 
L 3463 178 
Q 3153 47 2828 -22 
Q 2503 -91 2169 -91 
Q 1331 -91 842 396 
Q 353 884 353 1716 
Q 353 2575 817 3079 
Q 1281 3584 2069 3584 
Q 2775 3584 3186 3129 
Q 3597 2675 3597 1894 
z
M 3022 2063 
Q 3016 2534 2758 2815 
Q 2500 3097 2075 3097 
Q 1594 3097 1305 2825 
Q 1016 2553 972 2059 
L 3022 2063 
z
" transform="scale(0.015625)"/>
       <path id="DejaVuSans-37" d="M 525 4666 
L 3525 4666 
L 3525 4397 
L 1831 0 
L 1172 0 
L 2766 4134 
L 525 4134 
L 525 4666 
z
" transform="scale(0.015625)"/>
      </defs>
      <use xlink:href="#DejaVuSans-31"/>
      <use xlink:href="#DejaVuSans-65" x="63.623047"/>
      <use xlink:href="#DejaVuSans-37" x="125.146484"/>
     </g>
    </g>
   </g>
   <g id="line2d_27">
    <path d="M 138.436364 141.622508 
L 142.330972 136.175647 
L 146.3554 143.431654 
L 150.250009 134.845015 
L 154.274437 135.549431 
L 158.298866 135.02437 
L 162.193474 126.098544 
L 166.217903 129.860643 
L 170.112511 140.74308 
L 174.136939 129.860643 
L 178.161368 140.74308 
L 181.926156 132.467907 
L 185.950585 136.717467 
L 189.845193 140.460257 
L 193.869621 140.347095 
L 197.76423 126.418906 
L 201.788658 132.004062 
L 205.813087 131.058964 
L 209.707695 128.118312 
L 213.732124 122.371817 
L 217.626732 119.687437 
L 221.65116 119.523934 
L 225.675589 130.429986 
L 229.310557 130.767892 
L 233.334985 120.258633 
L 237.229593 121.571323 
L 241.254022 112.280978 
L 245.14863 114.860919 
L 249.173059 121.885763 
L 253.197487 120.300228 
L 257.092096 125.196447 
L 261.116524 115.966658 
L 265.011132 112.458105 
L 269.035561 114.692613 
L 273.05999 113.833492 
L 276.694957 119.486284 
L 280.719386 123.700495 
L 284.613994 111.83933 
L 288.638423 118.608946 
L 292.533031 118.327603 
L 296.557459 116.901814 
L 300.581888 125.512715 
L 304.476496 118.579595 
L 308.500925 114.153331 
L 312.395533 113.743024 
L 316.419962 112.319736 
L 320.44439 111.122808 
L 324.079358 122.452729 
L 328.103786 115.51946 
L 331.998395 117.277854 
L 336.022823 121.608451 
L 339.917432 119.512213 
L 343.94186 118.555134 
L 347.966289 120.05967 
L 351.860897 119.785904 
L 355.885325 116.276257 
L 359.779934 83.007234 
L 363.804362 79.134137 
L 371.593579 99.068041 
L 375.618007 95.847713 
L 379.512616 95.696279 
L 383.537044 99.459809 
L 387.431652 94.012749 
L 391.456081 95.082318 
L 395.48051 95.438762 
L 399.375118 98.397705 
L 403.399546 101.619888 
L 407.294155 99.42354 
L 411.318583 100.303241 
L 415.343012 106.694702 
L 418.977979 102.930861 
L 423.002408 102.430634 
L 426.897016 104.909743 
L 430.921445 107.013235 
L 434.816053 103.507408 
L 438.840482 105.824619 
L 442.86491 108.381853 
L 446.759518 112.62447 
L 450.783947 110.561378 
L 454.678555 107.140929 
L 458.702984 104.361005 
L 462.727412 102.583412 
L 466.36238 110.898973 
L 470.386809 104.083643 
L 474.281417 106.003077 
L 478.305845 111.052609 
L 482.200454 104.791804 
L 486.224882 107.92118 
L 490.249311 115.827877 
L 494.143919 110.398473 
L 498.168348 106.52015 
L 502.062956 105.426381 
L 506.087384 98.897596 
L 510.111813 105.452161 
L 513.746781 116.786823 
L 517.771209 101.16851 
L 521.665817 100.635535 
L 525.690246 108.361758 
L 529.584854 97.02212 
L 537.633711 97.196821 
L 541.52832 101.671734 
L 545.552748 95.116522 
L 549.447356 102.272145 
L 553.471785 93.210588 
L 557.496214 66.96 
L 561.261002 108.478454 
L 565.28543 96.32308 
L 569.180038 103.25182 
L 573.204467 136.346316 
L 577.099075 140.135801 
L 581.123504 108.143062 
L 585.147932 133.725727 
L 589.042541 128.753076 
L 593.066969 125.187438 
L 596.961577 114.216077 
L 600.986006 108.95127 
L 605.010434 115.061438 
L 608.645402 131.575216 
L 612.669831 119.216785 
L 616.564439 109.515922 
L 620.588868 109.911597 
L 624.483476 116.585906 
L 628.507904 112.321316 
L 632.532333 111.584924 
L 636.426941 117.262078 
L 640.45137 109.797452 
L 644.345978 100.633171 
L 648.370407 108.437133 
L 652.394835 104.48111 
L 656.029803 117.459498 
L 660.054231 119.168236 
L 663.94884 109.394237 
L 667.973268 109.847992 
L 671.867876 118.260478 
L 675.892305 122.383749 
L 679.916734 109.657751 
L 683.811342 105.39107 
L 687.83577 104.411869 
L 695.754807 103.745875 
L 699.779236 115.959678 
L 703.414203 110.567823 
L 707.438632 111.673027 
L 711.33324 116.435057 
L 715.357669 115.840469 
L 719.252277 120.765603 
L 723.276706 120.456365 
L 727.301134 120.841264 
L 731.195742 125.204534 
L 735.220171 134.337747 
L 739.114779 125.128263 
L 743.139208 128.79024 
L 747.163636 99.076427 
L 747.163636 99.076427 
" clip-path="url(#p69bc6831a8)" style="fill: none; stroke: #a6cee3; stroke-width: 1.5; stroke-linecap: square"/>
   </g>
   <g id="line2d_28">
    <path d="M 138.436364 198.985711 
L 142.330972 195.918023 
L 146.3554 202.893148 
L 150.250009 207.307841 
L 154.274437 205.168068 
L 158.298866 202.383142 
L 162.193474 207.557083 
L 166.217903 201.569969 
L 170.112511 197.872532 
L 174.136939 201.569969 
L 178.161368 197.872532 
L 181.926156 201.089775 
L 185.950585 194.257399 
L 189.845193 193.786823 
L 193.869621 190.324468 
L 197.76423 189.093101 
L 201.788658 191.847581 
L 205.813087 196.207715 
L 209.707695 192.116606 
L 213.732124 203.642641 
L 217.626732 207.537126 
L 221.65116 201.971541 
L 225.675589 202.839646 
L 229.310557 203.06923 
L 233.334985 198.797336 
L 237.229593 198.034218 
L 241.254022 203.656701 
L 245.14863 203.281892 
L 249.173059 201.136719 
L 253.197487 202.271809 
L 257.092096 203.835943 
L 261.116524 201.921436 
L 265.011132 196.978534 
L 269.035561 196.587551 
L 273.05999 194.821554 
L 276.694957 195.271402 
L 280.719386 192.253595 
L 284.613994 195.834822 
L 288.638423 193.843223 
L 292.533031 193.2939 
L 296.557459 200.412521 
L 300.581888 196.418461 
L 304.476496 199.909084 
L 308.500925 198.958637 
L 312.395533 196.289099 
L 316.419962 200.725865 
L 320.44439 196.813389 
L 324.079358 191.096184 
L 328.103786 195.188537 
L 331.998395 193.635488 
L 336.022823 195.892305 
L 339.917432 187.300901 
L 343.94186 189.727417 
L 347.966289 191.111948 
L 351.860897 185.684111 
L 355.885325 191.255282 
L 359.779934 203.59612 
L 363.804362 203.785428 
L 367.828791 204.823556 
L 371.593579 209.508021 
L 375.618007 196.775552 
L 379.512616 196.462929 
L 383.537044 201.326127 
L 387.431652 203.511824 
L 391.456081 207.071427 
L 395.48051 203.384777 
L 399.375118 187.28332 
L 403.399546 190.681771 
L 407.294155 189.639463 
L 411.318583 182.364294 
L 415.343012 182.910234 
L 418.977979 194.650834 
L 423.002408 186.781041 
L 426.897016 191.50914 
L 430.921445 193.85319 
L 434.816053 198.320812 
L 438.840482 191.544178 
L 442.86491 200.13868 
L 446.759518 193.204279 
L 450.783947 194.928408 
L 454.678555 191.111537 
L 458.702984 198.774417 
L 462.727412 197.023339 
L 466.36238 185.693928 
L 470.386809 188.926064 
L 474.281417 185.650977 
L 478.305845 180.413568 
L 482.200454 188.563175 
L 486.224882 187.148658 
L 490.249311 178.995493 
L 494.143919 185.295417 
L 498.168348 183.907613 
L 502.062956 185.318422 
L 506.087384 181.400036 
L 510.111813 180.933951 
L 513.746781 168.845827 
L 517.771209 168.054515 
L 521.665817 159.173967 
L 525.690246 159.530361 
L 529.584854 164.529825 
L 533.609283 161.264444 
L 537.633711 164.433709 
L 541.52832 159.663766 
L 545.552748 162.53478 
L 549.447356 158.716566 
L 553.471785 160.382142 
L 557.496214 188.028309 
L 561.261002 149.412622 
L 565.28543 151.879737 
L 569.180038 143.652379 
L 573.204467 217.096098 
L 577.099075 229.697214 
L 581.123504 206.073276 
L 585.147932 184.784652 
L 589.042541 177.352649 
L 593.066969 175.945075 
L 596.961577 163.657627 
L 600.986006 166.355022 
L 605.010434 165.822757 
L 608.645402 148.029969 
L 612.669831 149.769875 
L 616.564439 151.748919 
L 620.588868 144.603822 
L 624.483476 137.251176 
L 628.507904 138.647801 
L 632.532333 138.431306 
L 636.426941 137.40536 
L 640.45137 148.703242 
L 644.345978 145.725163 
L 648.370407 144.504185 
L 652.394835 134.88819 
L 656.029803 155.59524 
L 660.054231 151.959417 
L 667.973268 140.864628 
L 671.867876 147.549041 
L 675.892305 136.858599 
L 679.916734 143.564475 
L 683.811342 149.693554 
L 687.83577 147.79944 
L 691.730379 141.743757 
L 695.754807 142.255679 
L 699.779236 138.45323 
L 703.414203 135.203351 
L 707.438632 128.176529 
L 711.33324 119.905051 
L 715.357669 128.485307 
L 719.252277 125.80981 
L 723.276706 123.842921 
L 727.301134 128.214701 
L 731.195742 127.132528 
L 735.220171 125.59986 
L 739.114779 122.737307 
L 743.139208 126.816372 
L 747.163636 137.828395 
L 747.163636 137.828395 
" clip-path="url(#p69bc6831a8)" style="fill: none; stroke: #1f78b4; stroke-width: 1.5; stroke-linecap: square"/>
   </g>
   <g id="line2d_29">
    <path d="M 138.436364 333.305204 
L 142.330972 336.115873 
L 146.3554 335.651406 
L 150.250009 337.002766 
L 154.274437 336.257155 
L 158.298866 335.679065 
L 162.193474 336.034526 
L 166.217903 336.564763 
L 170.112511 335.428155 
L 174.136939 336.564763 
L 178.161368 335.428155 
L 181.926156 335.768263 
L 185.950585 334.667153 
L 189.845193 331.883048 
L 193.869621 336.652493 
L 197.76423 334.24902 
L 201.788658 333.005024 
L 205.813087 334.000972 
L 209.707695 333.737061 
L 213.732124 337.027389 
L 217.626732 339.067289 
L 221.65116 340.237727 
L 225.675589 337.184074 
L 229.310557 337.09444 
L 233.334985 335.237902 
L 237.229593 342.19012 
L 241.254022 342.074632 
L 245.14863 337.440259 
L 249.173059 336.475378 
L 253.197487 337.682907 
L 257.092096 337.348485 
L 261.116524 342.616017 
L 265.011132 340.971282 
L 269.035561 342.260481 
L 273.05999 340.368395 
L 276.694957 340.665228 
L 280.719386 338.7526 
L 284.613994 341.60627 
L 288.638423 342.297173 
L 292.533031 340.746165 
L 296.557459 343.110109 
L 300.581888 339.444972 
L 304.476496 340.916847 
L 308.500925 341.324591 
L 312.395533 341.864209 
L 316.419962 341.30854 
L 320.44439 341.935578 
L 324.079358 337.877266 
L 328.103786 339.482323 
L 331.998395 338.884002 
L 336.022823 338.006105 
L 339.917432 338.928608 
L 343.94186 339.22243 
L 347.966289 338.317073 
L 351.860897 338.030791 
L 355.885325 339.247564 
L 359.779934 345.006326 
L 363.804362 342.231665 
L 367.828791 344.110338 
L 371.593579 332.084089 
L 375.618007 342.506115 
L 379.512616 342.957555 
L 383.537044 331.680402 
L 387.431652 332.057674 
L 391.456081 331.360488 
L 395.48051 327.548246 
L 399.375118 342.307127 
L 403.399546 342.605814 
L 407.294155 341.859232 
L 411.318583 339.122632 
L 415.343012 340.687152 
L 418.977979 334.202387 
L 423.002408 333.807322 
L 426.897016 332.547735 
L 430.921445 333.183296 
L 434.816053 333.230601 
L 438.840482 334.45306 
L 442.86491 330.254973 
L 446.759518 330.146651 
L 450.783947 330.399937 
L 454.678555 331.493445 
L 458.702984 330.072956 
L 462.727412 327.544339 
L 466.36238 327.765475 
L 470.386809 327.154276 
L 474.281417 325.449321 
L 482.200454 323.568769 
L 486.224882 324.554888 
L 490.249311 328.420905 
L 494.143919 323.960661 
L 498.168348 326.508078 
L 502.062956 324.603811 
L 506.087384 331.442059 
L 510.111813 331.510578 
L 513.746781 328.49786 
L 517.771209 332.389931 
L 521.665817 331.927355 
L 525.690246 331.902134 
L 529.584854 330.673093 
L 533.609283 331.581772 
L 541.52832 329.226276 
L 545.552748 329.566695 
L 549.447356 327.099244 
L 553.471785 326.037725 
L 557.496214 328.090067 
L 561.261002 329.47135 
L 565.28543 326.471187 
L 569.180038 323.046445 
L 573.204467 339.361858 
L 577.099075 339.884841 
L 581.123504 339.758341 
L 585.147932 328.465635 
L 589.042541 333.239621 
L 593.066969 331.728516 
L 596.961577 329.379092 
L 600.986006 329.34016 
L 605.010434 327.70457 
L 608.645402 336.86156 
L 612.669831 336.842834 
L 616.564439 340.1627 
L 620.588868 335.735366 
L 624.483476 335.501664 
L 628.507904 336.855289 
L 632.532333 334.143983 
L 636.426941 336.021947 
L 640.45137 336.715836 
L 644.345978 334.750665 
L 648.370407 326.661403 
L 652.394835 327.606165 
L 656.029803 310.351851 
L 660.054231 310.548537 
L 663.94884 311.21035 
L 667.973268 312.478086 
L 671.867876 309.942689 
L 675.892305 309.997795 
L 679.916734 316.26252 
L 683.811342 315.597061 
L 687.83577 318.703394 
L 691.730379 316.150192 
L 695.754807 318.486726 
L 699.779236 310.628428 
L 703.414203 311.745514 
L 707.438632 313.188362 
L 711.33324 310.037971 
L 715.357669 309.898071 
L 719.252277 313.663157 
L 723.276706 312.388838 
L 727.301134 309.659118 
L 731.195742 307.970425 
L 735.220171 303.647132 
L 739.114779 305.700494 
L 743.139208 306.931563 
L 747.163636 319.290691 
L 747.163636 319.290691 
" clip-path="url(#p69bc6831a8)" style="fill: none; stroke: #b2df8a; stroke-width: 1.5; stroke-linecap: square"/>
   </g>
   <g id="line2d_30">
    <path d="M 138.436364 355.451631 
L 142.330972 356.29199 
L 146.3554 353.567284 
L 150.250009 353.209919 
L 154.274437 355.660187 
L 158.298866 353.563576 
L 162.193474 355.359646 
L 166.217903 355.333293 
L 170.112511 353.463043 
L 174.136939 355.333293 
L 178.161368 353.463043 
L 181.926156 353.904356 
L 185.950585 356.055078 
L 189.845193 349.688253 
L 193.869621 353.074473 
L 197.76423 355.400531 
L 201.788658 351.79259 
L 205.813087 353.151018 
L 209.707695 354.587794 
L 213.732124 353.332301 
L 217.626732 353.502896 
L 221.65116 353.932227 
L 225.675589 352.071632 
L 229.310557 354.098367 
L 233.334985 354.669104 
L 237.229593 354.360786 
L 241.254022 354.810721 
L 245.14863 354.745959 
L 249.173059 352.875946 
L 253.197487 353.283925 
L 257.092096 353.016169 
L 261.116524 354.411289 
L 265.011132 356.662009 
L 269.035561 354.603172 
L 273.05999 353.83524 
L 276.694957 355.677109 
L 280.719386 354.278506 
L 284.613994 356.877334 
L 288.638423 355.296489 
L 292.533031 356.399926 
L 296.557459 356.268151 
L 304.476496 355.10198 
L 308.500925 356.579032 
L 312.395533 356.343065 
L 316.419962 355.469871 
L 320.44439 357.443616 
L 324.079358 355.768484 
L 328.103786 355.553732 
L 331.998395 354.767708 
L 336.022823 355.049536 
L 339.917432 353.822785 
L 343.94186 354.933364 
L 347.966289 352.337422 
L 351.860897 354.399095 
L 355.885325 353.764991 
L 359.779934 356.483301 
L 363.804362 355.044211 
L 367.828791 356.245693 
L 371.593579 357.087482 
L 375.618007 355.959684 
L 379.512616 356.389151 
L 383.537044 356.65534 
L 387.431652 356.204136 
L 391.456081 357.10046 
L 395.48051 356.423604 
L 399.375118 354.894569 
L 403.399546 352.512285 
L 407.294155 354.701005 
L 411.318583 354.880609 
L 415.343012 354.632237 
L 418.977979 356.31634 
L 423.002408 355.253763 
L 426.897016 355.256475 
L 430.921445 355.591407 
L 434.816053 355.382776 
L 438.840482 355.772528 
L 442.86491 354.643995 
L 446.759518 357.303342 
L 450.783947 358.344083 
L 454.678555 358.489868 
L 458.702984 359.382721 
L 462.727412 358.580323 
L 470.386809 355.803808 
L 474.281417 356.300837 
L 478.305845 356.465198 
L 482.200454 355.403094 
L 486.224882 355.699082 
L 490.249311 356.500845 
L 494.143919 355.488336 
L 498.168348 355.93623 
L 502.062956 355.467756 
L 506.087384 356.471357 
L 510.111813 357.844503 
L 513.746781 357.250226 
L 517.771209 357.980347 
L 521.665817 357.829063 
L 525.690246 359.128228 
L 529.584854 356.957835 
L 533.609283 355.125869 
L 537.633711 356.903947 
L 545.552748 358.468804 
L 549.447356 356.356503 
L 557.496214 355.145827 
L 561.261002 357.912002 
L 565.28543 356.040098 
L 569.180038 355.292197 
L 573.204467 356.066177 
L 577.099075 355.323053 
L 581.123504 355.912005 
L 585.147932 358.315889 
L 589.042541 358.536191 
L 593.066969 359.247997 
L 596.961577 357.925801 
L 600.986006 358.232041 
L 605.010434 360.140588 
L 608.645402 353.944868 
L 612.669831 351.046593 
L 616.564439 352.607829 
L 620.588868 350.346943 
L 624.483476 351.837756 
L 628.507904 348.760363 
L 632.532333 350.692799 
L 636.426941 349.890252 
L 640.45137 350.878138 
L 644.345978 350.283724 
L 648.370407 356.461752 
L 652.394835 358.657651 
L 656.029803 352.358785 
L 660.054231 351.803403 
L 663.94884 351.514905 
L 667.973268 353.064097 
L 671.867876 352.539297 
L 675.892305 350.623222 
L 679.916734 351.559038 
L 683.811342 352.288251 
L 687.83577 352.537381 
L 691.730379 351.796572 
L 695.754807 349.045352 
L 699.779236 350.364362 
L 703.414203 350.215952 
L 707.438632 348.774547 
L 711.33324 349.971164 
L 715.357669 349.646323 
L 719.252277 348.911299 
L 723.276706 348.594944 
L 727.301134 348.490728 
L 731.195742 348.672496 
L 735.220171 347.17555 
L 739.114779 348.292959 
L 743.139208 347.795445 
L 747.163636 346.710336 
L 747.163636 346.710336 
" clip-path="url(#p69bc6831a8)" style="fill: none; stroke: #33a02c; stroke-width: 1.5; stroke-linecap: square"/>
   </g>
   <g id="line2d_31">
    <path d="M 138.436364 366.556647 
L 142.330972 366.134682 
L 146.3554 366.880356 
L 150.250009 365.848275 
L 154.274437 366.176973 
L 158.298866 367.113821 
L 162.193474 366.637322 
L 166.217903 367.389628 
L 170.112511 366.625826 
L 174.136939 367.389628 
L 178.161368 366.625826 
L 181.926156 367.621911 
L 185.950585 366.309744 
L 189.845193 365.208671 
L 193.869621 365.743487 
L 197.76423 366.586533 
L 201.788658 366.109437 
L 205.813087 365.123355 
L 209.707695 366.591871 
L 213.732124 366.178678 
L 217.626732 365.918461 
L 221.65116 366.923692 
L 225.675589 365.75201 
L 229.310557 366.785409 
L 233.334985 367.052369 
L 237.229593 368.41448 
L 241.254022 368.428589 
L 245.14863 366.004499 
L 249.173059 366.503419 
L 253.197487 365.161391 
L 257.092096 365.834613 
L 261.116524 368.393875 
L 265.011132 368.907353 
L 269.035561 367.906838 
L 273.05999 367.878233 
L 276.694957 368.971455 
L 280.719386 369.035806 
L 288.638423 368.405135 
L 292.533031 368.412215 
L 296.557459 369.244897 
L 300.581888 368.65128 
L 304.476496 368.258056 
L 308.500925 368.729578 
L 312.395533 369.36 
L 316.419962 368.803759 
L 320.44439 368.999923 
L 328.103786 368.902114 
L 331.998395 368.048579 
L 339.917432 368.777842 
L 343.94186 367.426805 
L 347.966289 367.433685 
L 351.860897 366.740879 
L 355.885325 367.966821 
L 359.779934 368.211348 
L 363.804362 368.609822 
L 367.828791 368.41219 
L 371.593579 367.834038 
L 375.618007 368.485226 
L 379.512616 367.704801 
L 383.537044 367.582693 
L 387.431652 368.64155 
L 391.456081 368.004385 
L 395.48051 366.864554 
L 399.375118 368.596957 
L 403.399546 368.1705 
L 407.294155 367.626726 
L 411.318583 369.007002 
L 418.977979 367.662311 
L 423.002408 367.467404 
L 426.897016 367.049806 
L 430.921445 367.119383 
L 434.816053 366.491251 
L 438.840482 366.831657 
L 442.86491 366.347207 
L 446.759518 368.270573 
L 450.783947 367.797384 
L 454.678555 368.060287 
L 458.702984 368.016727 
L 462.727412 367.121038 
L 466.36238 368.038016 
L 470.386809 368.336255 
L 474.281417 368.070527 
L 478.305845 368.341606 
L 482.200454 367.181009 
L 486.224882 367.249043 
L 490.249311 368.024541 
L 494.143919 367.310097 
L 498.168348 367.442432 
L 502.062956 368.520711 
L 506.087384 367.93044 
L 510.111813 369.101264 
L 513.746781 368.349768 
L 517.771209 368.916162 
L 521.665817 368.26378 
L 525.690246 367.942646 
L 529.584854 368.03549 
L 533.609283 366.79117 
L 537.633711 367.538735 
L 541.52832 367.599976 
L 545.552748 368.597019 
L 549.447356 366.753682 
L 553.471785 366.989325 
L 557.496214 368.289087 
L 561.261002 366.429102 
L 565.28543 364.66262 
L 569.180038 362.429083 
L 573.204467 365.40522 
L 577.099075 367.288522 
L 581.123504 367.053887 
L 585.147932 367.77235 
L 589.042541 366.913141 
L 593.066969 366.503705 
L 596.961577 365.715206 
L 600.986006 365.663931 
L 605.010434 366.325844 
L 608.645402 365.786935 
L 612.669831 366.170553 
L 624.483476 365.076112 
L 628.507904 365.140338 
L 632.532333 364.311016 
L 636.426941 363.751029 
L 640.45137 364.028068 
L 644.345978 365.658519 
L 648.370407 364.251007 
L 652.394835 363.94672 
L 656.029803 365.054189 
L 660.054231 364.233675 
L 663.94884 365.245375 
L 667.973268 364.947447 
L 671.867876 363.248974 
L 675.892305 364.177374 
L 679.916734 367.541634 
L 683.811342 367.702213 
L 687.83577 368.125621 
L 695.754807 366.071948 
L 699.779236 366.664645 
L 703.414203 366.14598 
L 707.438632 365.776359 
L 711.33324 365.612109 
L 715.357669 366.46832 
L 719.252277 364.553564 
L 723.276706 366.009887 
L 727.301134 363.578095 
L 731.195742 364.488989 
L 735.220171 364.628093 
L 739.114779 364.413913 
L 743.139208 363.477488 
L 747.163636 364.738069 
L 747.163636 364.738069 
" clip-path="url(#p69bc6831a8)" style="fill: none; stroke: #fb9a99; stroke-width: 1.5; stroke-linecap: square"/>
   </g>
   <g id="line2d_32">
    <path d="M 138.436364 332.455787 
L 142.330972 328.548189 
L 146.3554 326.110114 
L 150.250009 323.165405 
L 154.274437 326.810747 
L 158.298866 327.922346 
L 162.193474 324.222482 
L 166.217903 326.597351 
L 170.112511 325.648993 
L 174.136939 326.597351 
L 178.161368 325.648993 
L 181.926156 328.206227 
L 185.950585 331.272521 
L 189.845193 330.175554 
L 193.869621 327.409267 
L 197.76423 327.135999 
L 201.788658 324.324297 
L 205.813087 320.270577 
L 209.707695 326.710127 
L 213.732124 328.0129 
L 217.626732 322.380277 
L 221.65116 327.545471 
L 225.675589 328.138566 
L 229.310557 329.245761 
L 233.334985 331.13445 
L 237.229593 334.623618 
L 241.254022 332.460702 
L 245.14863 325.434452 
L 249.173059 327.13998 
L 253.197487 323.287513 
L 257.092096 326.387314 
L 261.116524 327.255145 
L 265.011132 327.143053 
L 269.035561 325.999378 
L 273.05999 326.97257 
L 276.694957 330.449718 
L 280.719386 331.881107 
L 284.613994 331.426095 
L 288.638423 331.283744 
L 292.533031 330.976671 
L 296.557459 327.12174 
L 300.581888 323.868962 
L 304.476496 327.685459 
L 308.500925 327.493787 
L 312.395533 329.875685 
L 320.44439 329.014386 
L 324.079358 331.680825 
L 328.103786 331.892205 
L 331.998395 333.522968 
L 336.022823 328.246565 
L 339.917432 331.737723 
L 343.94186 326.991955 
L 347.966289 325.309595 
L 351.860897 328.345418 
L 355.885325 332.309343 
L 359.779934 330.537523 
L 363.804362 329.376703 
L 367.828791 330.566264 
L 371.593579 332.932361 
L 375.618007 337.374639 
L 379.512616 335.903199 
L 383.537044 333.805082 
L 387.431652 332.476852 
L 391.456081 332.311744 
L 395.48051 328.843766 
L 399.375118 329.120903 
L 403.399546 331.721635 
L 407.294155 332.532369 
L 411.318583 333.055974 
L 415.343012 331.398685 
L 418.977979 333.156906 
L 423.002408 338.396828 
L 426.897016 336.647852 
L 430.921445 335.375624 
L 438.840482 331.564975 
L 442.86491 328.950171 
L 446.759518 335.390966 
L 450.783947 332.188579 
L 454.678555 332.459756 
L 458.702984 331.904361 
L 462.727412 333.957785 
L 466.36238 334.14254 
L 470.386809 339.565798 
L 474.281417 339.425052 
L 478.305845 335.416597 
L 482.200454 333.128201 
L 486.224882 335.11832 
L 490.249311 328.892004 
L 494.143919 329.973157 
L 498.168348 335.654367 
L 502.062956 334.540193 
L 506.087384 331.523555 
L 510.111813 334.204514 
L 513.746781 334.443081 
L 517.771209 335.332214 
L 521.665817 337.374701 
L 525.690246 336.230254 
L 529.584854 333.60001 
L 533.609283 334.349043 
L 537.633711 330.173775 
L 541.52832 331.24643 
L 545.552748 332.665103 
L 549.447356 333.751158 
L 553.471785 332.637705 
L 557.496214 332.400121 
L 561.261002 334.77642 
L 565.28543 338.939681 
L 569.180038 341.13909 
L 573.204467 358.485476 
L 577.099075 346.436122 
L 581.123504 343.783904 
L 585.147932 333.613895 
L 589.042541 332.066334 
L 593.066969 336.60469 
L 596.961577 333.506208 
L 600.986006 337.007146 
L 605.010434 337.417278 
L 608.645402 336.401596 
L 612.669831 340.970772 
L 616.564439 338.820323 
L 620.588868 338.515502 
L 624.483476 336.932181 
L 628.507904 336.510428 
L 632.532333 328.329952 
L 636.426941 330.632544 
L 640.45137 336.681546 
L 644.345978 332.586829 
L 648.370407 332.860893 
L 652.394835 334.789609 
L 656.029803 334.341267 
L 660.054231 338.508957 
L 663.94884 340.688694 
L 667.973268 338.416561 
L 671.867876 335.252845 
L 675.892305 335.132305 
L 679.916734 331.789196 
L 683.811342 332.061693 
L 687.83577 334.358088 
L 691.730379 333.458654 
L 699.779236 332.454419 
L 703.414203 333.82861 
L 707.438632 339.427565 
L 711.33324 338.34533 
L 715.357669 333.396132 
L 719.252277 338.379658 
L 723.276706 336.748186 
L 727.301134 332.398902 
L 731.195742 335.894253 
L 735.220171 336.127519 
L 739.114779 335.641564 
L 743.139208 339.075712 
L 747.163636 340.534921 
L 747.163636 340.534921 
" clip-path="url(#p69bc6831a8)" style="fill: none; stroke: #e31a1c; stroke-width: 1.5; stroke-linecap: square"/>
   </g>
   <g id="line2d_33">
    <path d="M 138.436364 323.353606 
L 142.330972 322.767964 
L 146.3554 313.406797 
L 150.250009 318.466507 
L 154.274437 313.714593 
L 158.298866 316.069131 
L 162.193474 312.561723 
L 166.217903 309.779036 
L 170.112511 307.289762 
L 174.136939 309.779036 
L 178.161368 307.289762 
L 181.926156 319.095299 
L 185.950585 317.680595 
L 189.845193 316.583479 
L 193.869621 316.500017 
L 197.76423 318.073408 
L 201.788658 312.587764 
L 205.813087 314.35895 
L 209.707695 311.66902 
L 213.732124 310.218483 
L 217.626732 311.568586 
L 221.65116 310.964393 
L 225.675589 309.5555 
L 229.310557 314.353998 
L 233.334985 314.061581 
L 237.229593 306.889123 
L 241.254022 309.984047 
L 245.14863 308.576273 
L 249.173059 305.448092 
L 253.197487 306.288177 
L 257.092096 305.231398 
L 261.116524 308.350559 
L 265.011132 308.323348 
L 269.035561 304.224899 
L 273.05999 304.882954 
L 276.694957 308.169177 
L 280.719386 308.794584 
L 284.613994 307.387769 
L 288.638423 306.125259 
L 292.533031 304.754053 
L 296.557459 301.813525 
L 300.581888 300.034924 
L 304.476496 306.685568 
L 308.500925 303.225628 
L 312.395533 306.533749 
L 316.419962 300.746967 
L 320.44439 296.022263 
L 324.079358 303.413194 
L 328.103786 301.78115 
L 331.998395 299.477799 
L 336.022823 298.438403 
L 339.917432 301.817481 
L 343.94186 300.881902 
L 347.966289 300.952873 
L 351.860897 301.277987 
L 355.885325 300.73649 
L 359.779934 304.613083 
L 363.804362 296.830086 
L 367.828791 298.285028 
L 371.593579 300.275059 
L 375.618007 295.993559 
L 379.512616 299.207381 
L 383.537044 299.655437 
L 387.431652 297.292339 
L 391.456081 298.194162 
L 395.48051 296.448683 
L 399.375118 300.335242 
L 403.399546 297.247671 
L 407.294155 295.829894 
L 411.318583 298.380273 
L 415.343012 293.707292 
L 418.977979 296.19786 
L 423.002408 295.659349 
L 426.897016 290.272273 
L 430.921445 289.625228 
L 434.816053 285.53626 
L 438.840482 289.284772 
L 442.86491 279.286578 
L 446.759518 282.374658 
L 450.783947 282.708296 
L 454.678555 279.261619 
L 458.702984 277.642204 
L 462.727412 282.354054 
L 466.36238 284.147063 
L 470.386809 285.184929 
L 474.281417 283.754586 
L 478.305845 283.368454 
L 482.200454 282.652319 
L 486.224882 278.662788 
L 490.249311 278.143463 
L 494.143919 280.370903 
L 498.168348 280.406787 
L 502.062956 279.573545 
L 506.087384 280.956035 
L 510.111813 274.129881 
L 513.746781 281.672296 
L 517.771209 288.789025 
L 521.665817 286.196953 
L 525.690246 285.875994 
L 529.584854 288.991423 
L 533.609283 285.978655 
L 537.633711 292.574168 
L 541.52832 289.538743 
L 545.552748 288.705899 
L 549.447356 292.661885 
L 553.471785 293.193566 
L 557.496214 286.380899 
L 561.261002 293.739206 
L 565.28543 294.992795 
L 569.180038 300.088973 
L 573.204467 314.134579 
L 577.099075 301.04701 
L 581.123504 300.263015 
L 585.147932 295.357439 
L 589.042541 297.67363 
L 593.066969 290.346005 
L 596.961577 298.403652 
L 600.986006 297.022878 
L 605.010434 291.396289 
L 608.645402 301.909653 
L 612.669831 298.248298 
L 616.564439 293.182965 
L 620.588868 291.932747 
L 624.483476 292.646034 
L 628.507904 295.397963 
L 632.532333 289.663264 
L 636.426941 291.410063 
L 640.45137 286.341905 
L 644.345978 287.934208 
L 648.370407 282.914065 
L 652.394835 286.053096 
L 656.029803 292.782089 
L 660.054231 285.192755 
L 663.94884 289.884275 
L 667.973268 281.834878 
L 671.867876 281.106412 
L 675.892305 285.230878 
L 679.916734 283.922257 
L 683.811342 279.359116 
L 687.83577 277.652307 
L 691.730379 277.69191 
L 695.754807 273.928529 
L 699.779236 283.369064 
L 703.414203 285.093591 
L 707.438632 285.908282 
L 711.33324 284.295088 
L 715.357669 282.262728 
L 719.252277 281.981037 
L 723.276706 280.808645 
L 727.301134 276.034696 
L 731.195742 273.209258 
L 735.220171 272.205881 
L 739.114779 277.807361 
L 743.139208 282.289081 
L 747.163636 274.828648 
L 747.163636 274.828648 
" clip-path="url(#p69bc6831a8)" style="fill: none; stroke: #fdbf6f; stroke-width: 1.5; stroke-linecap: square"/>
   </g>
   <g id="patch_3">
    <path d="M 108 384.48 
L 108 51.84 
" style="fill: none; stroke: #000000; stroke-width: 0.8; stroke-linejoin: miter; stroke-linecap: square"/>
   </g>
   <g id="patch_4">
    <path d="M 777.6 384.48 
L 777.6 51.84 
" style="fill: none; stroke: #000000; stroke-width: 0.8; stroke-linejoin: miter; stroke-linecap: square"/>
   </g>
   <g id="patch_5">
    <path d="M 108 384.48 
L 777.6 384.48 
" style="fill: none; stroke: #000000; stroke-width: 0.8; stroke-linejoin: miter; stroke-linecap: square"/>
   </g>
   <g id="patch_6">
    <path d="M 108 51.84 
L 777.6 51.84 
" style="fill: none; stroke: #000000; stroke-width: 0.8; stroke-linejoin: miter; stroke-linecap: square"/>
   </g>
   <g id="text_15">
    <!-- Encuesta Nacional de Ocupación y Empleo (ENOE) -->
    <g transform="translate(245.953438 45.84) scale(0.14 -0.14)">
     <defs>
      <path id="DejaVuSans-Bold-45" d="M 588 4666 
L 3834 4666 
L 3834 3756 
L 1791 3756 
L 1791 2888 
L 3713 2888 
L 3713 1978 
L 1791 1978 
L 1791 909 
L 3903 909 
L 3903 0 
L 588 0 
L 588 4666 
z
" transform="scale(0.015625)"/>
      <path id="DejaVuSans-Bold-6e" d="M 4056 2131 
L 4056 0 
L 2931 0 
L 2931 347 
L 2931 1631 
Q 2931 2084 2911 2256 
Q 2891 2428 2841 2509 
Q 2775 2619 2662 2680 
Q 2550 2741 2406 2741 
Q 2056 2741 1856 2470 
Q 1656 2200 1656 1722 
L 1656 0 
L 538 0 
L 538 3500 
L 1656 3500 
L 1656 2988 
Q 1909 3294 2193 3439 
Q 2478 3584 2822 3584 
Q 3428 3584 3742 3212 
Q 4056 2841 4056 2131 
z
" transform="scale(0.015625)"/>
      <path id="DejaVuSans-Bold-63" d="M 3366 3391 
L 3366 2478 
Q 3138 2634 2908 2709 
Q 2678 2784 2431 2784 
Q 1963 2784 1702 2511 
Q 1441 2238 1441 1747 
Q 1441 1256 1702 982 
Q 1963 709 2431 709 
Q 2694 709 2930 787 
Q 3166 866 3366 1019 
L 3366 103 
Q 3103 6 2833 -42 
Q 2563 -91 2291 -91 
Q 1344 -91 809 395 
Q 275 881 275 1747 
Q 275 2613 809 3098 
Q 1344 3584 2291 3584 
Q 2566 3584 2833 3536 
Q 3100 3488 3366 3391 
z
" transform="scale(0.015625)"/>
      <path id="DejaVuSans-Bold-75" d="M 500 1363 
L 500 3500 
L 1625 3500 
L 1625 3150 
Q 1625 2866 1622 2436 
Q 1619 2006 1619 1863 
Q 1619 1441 1641 1255 
Q 1663 1069 1716 984 
Q 1784 875 1895 815 
Q 2006 756 2150 756 
Q 2500 756 2700 1025 
Q 2900 1294 2900 1772 
L 2900 3500 
L 4019 3500 
L 4019 0 
L 2900 0 
L 2900 506 
Q 2647 200 2364 54 
Q 2081 -91 1741 -91 
Q 1134 -91 817 281 
Q 500 653 500 1363 
z
" transform="scale(0.015625)"/>
      <path id="DejaVuSans-Bold-65" d="M 4031 1759 
L 4031 1441 
L 1416 1441 
Q 1456 1047 1700 850 
Q 1944 653 2381 653 
Q 2734 653 3104 758 
Q 3475 863 3866 1075 
L 3866 213 
Q 3469 63 3072 -14 
Q 2675 -91 2278 -91 
Q 1328 -91 801 392 
Q 275 875 275 1747 
Q 275 2603 792 3093 
Q 1309 3584 2216 3584 
Q 3041 3584 3536 3087 
Q 4031 2591 4031 1759 
z
M 2881 2131 
Q 2881 2450 2695 2645 
Q 2509 2841 2209 2841 
Q 1884 2841 1681 2658 
Q 1478 2475 1428 2131 
L 2881 2131 
z
" transform="scale(0.015625)"/>
      <path id="DejaVuSans-Bold-73" d="M 3272 3391 
L 3272 2541 
Q 2913 2691 2578 2766 
Q 2244 2841 1947 2841 
Q 1628 2841 1473 2761 
Q 1319 2681 1319 2516 
Q 1319 2381 1436 2309 
Q 1553 2238 1856 2203 
L 2053 2175 
Q 2913 2066 3209 1816 
Q 3506 1566 3506 1031 
Q 3506 472 3093 190 
Q 2681 -91 1863 -91 
Q 1516 -91 1145 -36 
Q 775 19 384 128 
L 384 978 
Q 719 816 1070 734 
Q 1422 653 1784 653 
Q 2113 653 2278 743 
Q 2444 834 2444 1013 
Q 2444 1163 2330 1236 
Q 2216 1309 1875 1350 
L 1678 1375 
Q 931 1469 631 1722 
Q 331 1975 331 2491 
Q 331 3047 712 3315 
Q 1094 3584 1881 3584 
Q 2191 3584 2531 3537 
Q 2872 3491 3272 3391 
z
" transform="scale(0.015625)"/>
      <path id="DejaVuSans-Bold-74" d="M 1759 4494 
L 1759 3500 
L 2913 3500 
L 2913 2700 
L 1759 2700 
L 1759 1216 
Q 1759 972 1856 886 
Q 1953 800 2241 800 
L 2816 800 
L 2816 0 
L 1856 0 
Q 1194 0 917 276 
Q 641 553 641 1216 
L 641 2700 
L 84 2700 
L 84 3500 
L 641 3500 
L 641 4494 
L 1759 4494 
z
" transform="scale(0.015625)"/>
      <path id="DejaVuSans-Bold-61" d="M 2106 1575 
Q 1756 1575 1579 1456 
Q 1403 1338 1403 1106 
Q 1403 894 1545 773 
Q 1688 653 1941 653 
Q 2256 653 2472 879 
Q 2688 1106 2688 1447 
L 2688 1575 
L 2106 1575 
z
M 3816 1997 
L 3816 0 
L 2688 0 
L 2688 519 
Q 2463 200 2181 54 
Q 1900 -91 1497 -91 
Q 953 -91 614 226 
Q 275 544 275 1050 
Q 275 1666 698 1953 
Q 1122 2241 2028 2241 
L 2688 2241 
L 2688 2328 
Q 2688 2594 2478 2717 
Q 2269 2841 1825 2841 
Q 1466 2841 1156 2769 
Q 847 2697 581 2553 
L 581 3406 
Q 941 3494 1303 3539 
Q 1666 3584 2028 3584 
Q 2975 3584 3395 3211 
Q 3816 2838 3816 1997 
z
" transform="scale(0.015625)"/>
      <path id="DejaVuSans-Bold-20" transform="scale(0.015625)"/>
      <path id="DejaVuSans-Bold-4e" d="M 588 4666 
L 1931 4666 
L 3628 1466 
L 3628 4666 
L 4769 4666 
L 4769 0 
L 3425 0 
L 1728 3200 
L 1728 0 
L 588 0 
L 588 4666 
z
" transform="scale(0.015625)"/>
      <path id="DejaVuSans-Bold-69" d="M 538 3500 
L 1656 3500 
L 1656 0 
L 538 0 
L 538 3500 
z
M 538 4863 
L 1656 4863 
L 1656 3950 
L 538 3950 
L 538 4863 
z
" transform="scale(0.015625)"/>
      <path id="DejaVuSans-Bold-6f" d="M 2203 2784 
Q 1831 2784 1636 2517 
Q 1441 2250 1441 1747 
Q 1441 1244 1636 976 
Q 1831 709 2203 709 
Q 2569 709 2762 976 
Q 2956 1244 2956 1747 
Q 2956 2250 2762 2517 
Q 2569 2784 2203 2784 
z
M 2203 3584 
Q 3106 3584 3614 3096 
Q 4122 2609 4122 1747 
Q 4122 884 3614 396 
Q 3106 -91 2203 -91 
Q 1297 -91 786 396 
Q 275 884 275 1747 
Q 275 2609 786 3096 
Q 1297 3584 2203 3584 
z
" transform="scale(0.015625)"/>
      <path id="DejaVuSans-Bold-6c" d="M 538 4863 
L 1656 4863 
L 1656 0 
L 538 0 
L 538 4863 
z
" transform="scale(0.015625)"/>
      <path id="DejaVuSans-Bold-64" d="M 2919 2988 
L 2919 4863 
L 4044 4863 
L 4044 0 
L 2919 0 
L 2919 506 
Q 2688 197 2409 53 
Q 2131 -91 1766 -91 
Q 1119 -91 703 423 
Q 288 938 288 1747 
Q 288 2556 703 3070 
Q 1119 3584 1766 3584 
Q 2128 3584 2408 3439 
Q 2688 3294 2919 2988 
z
M 2181 722 
Q 2541 722 2730 984 
Q 2919 1247 2919 1747 
Q 2919 2247 2730 2509 
Q 2541 2772 2181 2772 
Q 1825 2772 1636 2509 
Q 1447 2247 1447 1747 
Q 1447 1247 1636 984 
Q 1825 722 2181 722 
z
" transform="scale(0.015625)"/>
      <path id="DejaVuSans-Bold-4f" d="M 2719 3878 
Q 2169 3878 1866 3472 
Q 1563 3066 1563 2328 
Q 1563 1594 1866 1187 
Q 2169 781 2719 781 
Q 3272 781 3575 1187 
Q 3878 1594 3878 2328 
Q 3878 3066 3575 3472 
Q 3272 3878 2719 3878 
z
M 2719 4750 
Q 3844 4750 4481 4106 
Q 5119 3463 5119 2328 
Q 5119 1197 4481 553 
Q 3844 -91 2719 -91 
Q 1597 -91 958 553 
Q 319 1197 319 2328 
Q 319 3463 958 4106 
Q 1597 4750 2719 4750 
z
" transform="scale(0.015625)"/>
      <path id="DejaVuSans-Bold-70" d="M 1656 506 
L 1656 -1331 
L 538 -1331 
L 538 3500 
L 1656 3500 
L 1656 2988 
Q 1888 3294 2169 3439 
Q 2450 3584 2816 3584 
Q 3463 3584 3878 3070 
Q 4294 2556 4294 1747 
Q 4294 938 3878 423 
Q 3463 -91 2816 -91 
Q 2450 -91 2169 54 
Q 1888 200 1656 506 
z
M 2400 2772 
Q 2041 2772 1848 2508 
Q 1656 2244 1656 1747 
Q 1656 1250 1848 986 
Q 2041 722 2400 722 
Q 2759 722 2948 984 
Q 3138 1247 3138 1747 
Q 3138 2247 2948 2509 
Q 2759 2772 2400 2772 
z
" transform="scale(0.015625)"/>
      <path id="DejaVuSans-Bold-f3" d="M 2203 2784 
Q 1831 2784 1636 2517 
Q 1441 2250 1441 1747 
Q 1441 1244 1636 976 
Q 1831 709 2203 709 
Q 2569 709 2762 976 
Q 2956 1244 2956 1747 
Q 2956 2250 2762 2517 
Q 2569 2784 2203 2784 
z
M 2203 3584 
Q 3106 3584 3614 3096 
Q 4122 2609 4122 1747 
Q 4122 884 3614 396 
Q 3106 -91 2203 -91 
Q 1297 -91 786 396 
Q 275 884 275 1747 
Q 275 2609 786 3096 
Q 1297 3584 2203 3584 
z
M 2694 5119 
L 3578 5119 
L 2425 3944 
L 1813 3944 
L 2694 5119 
z
" transform="scale(0.015625)"/>
      <path id="DejaVuSans-Bold-79" d="M 78 3500 
L 1197 3500 
L 2138 1125 
L 2938 3500 
L 4056 3500 
L 2584 -331 
Q 2363 -916 2067 -1148 
Q 1772 -1381 1288 -1381 
L 641 -1381 
L 641 -647 
L 991 -647 
Q 1275 -647 1404 -556 
Q 1534 -466 1606 -231 
L 1638 -134 
L 78 3500 
z
" transform="scale(0.015625)"/>
      <path id="DejaVuSans-Bold-6d" d="M 3781 2919 
Q 3994 3244 4286 3414 
Q 4578 3584 4928 3584 
Q 5531 3584 5847 3212 
Q 6163 2841 6163 2131 
L 6163 0 
L 5038 0 
L 5038 1825 
Q 5041 1866 5042 1909 
Q 5044 1953 5044 2034 
Q 5044 2406 4934 2573 
Q 4825 2741 4581 2741 
Q 4263 2741 4089 2478 
Q 3916 2216 3909 1719 
L 3909 0 
L 2784 0 
L 2784 1825 
Q 2784 2406 2684 2573 
Q 2584 2741 2328 2741 
Q 2006 2741 1831 2477 
Q 1656 2213 1656 1722 
L 1656 0 
L 531 0 
L 531 3500 
L 1656 3500 
L 1656 2988 
Q 1863 3284 2130 3434 
Q 2397 3584 2719 3584 
Q 3081 3584 3359 3409 
Q 3638 3234 3781 2919 
z
" transform="scale(0.015625)"/>
      <path id="DejaVuSans-Bold-28" d="M 2413 -844 
L 1484 -844 
Q 1006 -72 778 623 
Q 550 1319 550 2003 
Q 550 2688 779 3389 
Q 1009 4091 1484 4856 
L 2413 4856 
Q 2013 4116 1813 3408 
Q 1613 2700 1613 2009 
Q 1613 1319 1811 609 
Q 2009 -100 2413 -844 
z
" transform="scale(0.015625)"/>
      <path id="DejaVuSans-Bold-29" d="M 513 -844 
Q 913 -100 1113 609 
Q 1313 1319 1313 2009 
Q 1313 2700 1113 3408 
Q 913 4116 513 4856 
L 1441 4856 
Q 1916 4091 2145 3389 
Q 2375 2688 2375 2003 
Q 2375 1319 2147 623 
Q 1919 -72 1441 -844 
L 513 -844 
z
" transform="scale(0.015625)"/>
     </defs>
     <use xlink:href="#DejaVuSans-Bold-45"/>
     <use xlink:href="#DejaVuSans-Bold-6e" x="68.310547"/>
     <use xlink:href="#DejaVuSans-Bold-63" x="139.501953"/>
     <use xlink:href="#DejaVuSans-Bold-75" x="198.779297"/>
     <use xlink:href="#DejaVuSans-Bold-65" x="269.970703"/>
     <use xlink:href="#DejaVuSans-Bold-73" x="337.792969"/>
     <use xlink:href="#DejaVuSans-Bold-74" x="397.314453"/>
     <use xlink:href="#DejaVuSans-Bold-61" x="445.117188"/>
     <use xlink:href="#DejaVuSans-Bold-20" x="512.597656"/>
     <use xlink:href="#DejaVuSans-Bold-4e" x="547.412109"/>
     <use xlink:href="#DejaVuSans-Bold-61" x="631.103516"/>
     <use xlink:href="#DejaVuSans-Bold-63" x="698.583984"/>
     <use xlink:href="#DejaVuSans-Bold-69" x="757.861328"/>
     <use xlink:href="#DejaVuSans-Bold-6f" x="792.138672"/>
     <use xlink:href="#DejaVuSans-Bold-6e" x="860.839844"/>
     <use xlink:href="#DejaVuSans-Bold-61" x="932.03125"/>
     <use xlink:href="#DejaVuSans-Bold-6c" x="999.511719"/>
     <use xlink:href="#DejaVuSans-Bold-20" x="1033.789062"/>
     <use xlink:href="#DejaVuSans-Bold-64" x="1068.603516"/>
     <use xlink:href="#DejaVuSans-Bold-65" x="1140.185547"/>
     <use xlink:href="#DejaVuSans-Bold-20" x="1208.007812"/>
     <use xlink:href="#DejaVuSans-Bold-4f" x="1242.822266"/>
     <use xlink:href="#DejaVuSans-Bold-63" x="1327.832031"/>
     <use xlink:href="#DejaVuSans-Bold-75" x="1387.109375"/>
     <use xlink:href="#DejaVuSans-Bold-70" x="1458.300781"/>
     <use xlink:href="#DejaVuSans-Bold-61" x="1529.882812"/>
     <use xlink:href="#DejaVuSans-Bold-63" x="1597.363281"/>
     <use xlink:href="#DejaVuSans-Bold-69" x="1656.640625"/>
     <use xlink:href="#DejaVuSans-Bold-f3" x="1690.917969"/>
     <use xlink:href="#DejaVuSans-Bold-6e" x="1759.619141"/>
     <use xlink:href="#DejaVuSans-Bold-20" x="1830.810547"/>
     <use xlink:href="#DejaVuSans-Bold-79" x="1865.625"/>
     <use xlink:href="#DejaVuSans-Bold-20" x="1930.810547"/>
     <use xlink:href="#DejaVuSans-Bold-45" x="1965.625"/>
     <use xlink:href="#DejaVuSans-Bold-6d" x="2033.935547"/>
     <use xlink:href="#DejaVuSans-Bold-70" x="2138.134766"/>
     <use xlink:href="#DejaVuSans-Bold-6c" x="2209.716797"/>
     <use xlink:href="#DejaVuSans-Bold-65" x="2243.994141"/>
     <use xlink:href="#DejaVuSans-Bold-6f" x="2311.816406"/>
     <use xlink:href="#DejaVuSans-Bold-20" x="2380.517578"/>
     <use xlink:href="#DejaVuSans-Bold-28" x="2415.332031"/>
     <use xlink:href="#DejaVuSans-Bold-45" x="2461.035156"/>
     <use xlink:href="#DejaVuSans-Bold-4e" x="2529.345703"/>
     <use xlink:href="#DejaVuSans-Bold-4f" x="2613.037109"/>
     <use xlink:href="#DejaVuSans-Bold-45" x="2698.046875"/>
     <use xlink:href="#DejaVuSans-Bold-29" x="2766.357422"/>
    </g>
   </g>
   <g id="legend_1">
    <g id="patch_7">
     <path d="M 607.88125 260.45875 
L 772 260.45875 
Q 773.6 260.45875 773.6 258.85875 
L 773.6 177.46125 
Q 773.6 175.86125 772 175.86125 
L 607.88125 175.86125 
Q 606.28125 175.86125 606.28125 177.46125 
L 606.28125 258.85875 
Q 606.28125 260.45875 607.88125 260.45875 
z
" style="fill: #ffffff; opacity: 0.8; stroke: #cccccc; stroke-linejoin: miter"/>
    </g>
    <g id="line2d_34">
     <path d="M 609.48125 182.34 
L 617.48125 182.34 
L 625.48125 182.34 
" style="fill: none; stroke: #a6cee3; stroke-width: 1.5; stroke-linecap: square"/>
    </g>
    <g id="text_16">
     <!-- Hasta un salario mínimo -->
     <g transform="translate(631.88125 185.14) scale(0.08 -0.08)">
      <defs>
       <path id="DejaVuSans-48" d="M 628 4666 
L 1259 4666 
L 1259 2753 
L 3553 2753 
L 3553 4666 
L 4184 4666 
L 4184 0 
L 3553 0 
L 3553 2222 
L 1259 2222 
L 1259 0 
L 628 0 
L 628 4666 
z
" transform="scale(0.015625)"/>
       <path id="DejaVuSans-61" d="M 2194 1759 
Q 1497 1759 1228 1600 
Q 959 1441 959 1056 
Q 959 750 1161 570 
Q 1363 391 1709 391 
Q 2188 391 2477 730 
Q 2766 1069 2766 1631 
L 2766 1759 
L 2194 1759 
z
M 3341 1997 
L 3341 0 
L 2766 0 
L 2766 531 
Q 2569 213 2275 61 
Q 1981 -91 1556 -91 
Q 1019 -91 701 211 
Q 384 513 384 1019 
Q 384 1609 779 1909 
Q 1175 2209 1959 2209 
L 2766 2209 
L 2766 2266 
Q 2766 2663 2505 2880 
Q 2244 3097 1772 3097 
Q 1472 3097 1187 3025 
Q 903 2953 641 2809 
L 641 3341 
Q 956 3463 1253 3523 
Q 1550 3584 1831 3584 
Q 2591 3584 2966 3190 
Q 3341 2797 3341 1997 
z
" transform="scale(0.015625)"/>
       <path id="DejaVuSans-73" d="M 2834 3397 
L 2834 2853 
Q 2591 2978 2328 3040 
Q 2066 3103 1784 3103 
Q 1356 3103 1142 2972 
Q 928 2841 928 2578 
Q 928 2378 1081 2264 
Q 1234 2150 1697 2047 
L 1894 2003 
Q 2506 1872 2764 1633 
Q 3022 1394 3022 966 
Q 3022 478 2636 193 
Q 2250 -91 1575 -91 
Q 1294 -91 989 -36 
Q 684 19 347 128 
L 347 722 
Q 666 556 975 473 
Q 1284 391 1588 391 
Q 1994 391 2212 530 
Q 2431 669 2431 922 
Q 2431 1156 2273 1281 
Q 2116 1406 1581 1522 
L 1381 1569 
Q 847 1681 609 1914 
Q 372 2147 372 2553 
Q 372 3047 722 3315 
Q 1072 3584 1716 3584 
Q 2034 3584 2315 3537 
Q 2597 3491 2834 3397 
z
" transform="scale(0.015625)"/>
       <path id="DejaVuSans-74" d="M 1172 4494 
L 1172 3500 
L 2356 3500 
L 2356 3053 
L 1172 3053 
L 1172 1153 
Q 1172 725 1289 603 
Q 1406 481 1766 481 
L 2356 481 
L 2356 0 
L 1766 0 
Q 1100 0 847 248 
Q 594 497 594 1153 
L 594 3053 
L 172 3053 
L 172 3500 
L 594 3500 
L 594 4494 
L 1172 4494 
z
" transform="scale(0.015625)"/>
       <path id="DejaVuSans-20" transform="scale(0.015625)"/>
       <path id="DejaVuSans-75" d="M 544 1381 
L 544 3500 
L 1119 3500 
L 1119 1403 
Q 1119 906 1312 657 
Q 1506 409 1894 409 
Q 2359 409 2629 706 
Q 2900 1003 2900 1516 
L 2900 3500 
L 3475 3500 
L 3475 0 
L 2900 0 
L 2900 538 
Q 2691 219 2414 64 
Q 2138 -91 1772 -91 
Q 1169 -91 856 284 
Q 544 659 544 1381 
z
M 1991 3584 
L 1991 3584 
z
" transform="scale(0.015625)"/>
       <path id="DejaVuSans-6e" d="M 3513 2113 
L 3513 0 
L 2938 0 
L 2938 2094 
Q 2938 2591 2744 2837 
Q 2550 3084 2163 3084 
Q 1697 3084 1428 2787 
Q 1159 2491 1159 1978 
L 1159 0 
L 581 0 
L 581 3500 
L 1159 3500 
L 1159 2956 
Q 1366 3272 1645 3428 
Q 1925 3584 2291 3584 
Q 2894 3584 3203 3211 
Q 3513 2838 3513 2113 
z
" transform="scale(0.015625)"/>
       <path id="DejaVuSans-6c" d="M 603 4863 
L 1178 4863 
L 1178 0 
L 603 0 
L 603 4863 
z
" transform="scale(0.015625)"/>
       <path id="DejaVuSans-72" d="M 2631 2963 
Q 2534 3019 2420 3045 
Q 2306 3072 2169 3072 
Q 1681 3072 1420 2755 
Q 1159 2438 1159 1844 
L 1159 0 
L 581 0 
L 581 3500 
L 1159 3500 
L 1159 2956 
Q 1341 3275 1631 3429 
Q 1922 3584 2338 3584 
Q 2397 3584 2469 3576 
Q 2541 3569 2628 3553 
L 2631 2963 
z
" transform="scale(0.015625)"/>
       <path id="DejaVuSans-69" d="M 603 3500 
L 1178 3500 
L 1178 0 
L 603 0 
L 603 3500 
z
M 603 4863 
L 1178 4863 
L 1178 4134 
L 603 4134 
L 603 4863 
z
" transform="scale(0.015625)"/>
       <path id="DejaVuSans-6f" d="M 1959 3097 
Q 1497 3097 1228 2736 
Q 959 2375 959 1747 
Q 959 1119 1226 758 
Q 1494 397 1959 397 
Q 2419 397 2687 759 
Q 2956 1122 2956 1747 
Q 2956 2369 2687 2733 
Q 2419 3097 1959 3097 
z
M 1959 3584 
Q 2709 3584 3137 3096 
Q 3566 2609 3566 1747 
Q 3566 888 3137 398 
Q 2709 -91 1959 -91 
Q 1206 -91 779 398 
Q 353 888 353 1747 
Q 353 2609 779 3096 
Q 1206 3584 1959 3584 
z
" transform="scale(0.015625)"/>
       <path id="DejaVuSans-6d" d="M 3328 2828 
Q 3544 3216 3844 3400 
Q 4144 3584 4550 3584 
Q 5097 3584 5394 3201 
Q 5691 2819 5691 2113 
L 5691 0 
L 5113 0 
L 5113 2094 
Q 5113 2597 4934 2840 
Q 4756 3084 4391 3084 
Q 3944 3084 3684 2787 
Q 3425 2491 3425 1978 
L 3425 0 
L 2847 0 
L 2847 2094 
Q 2847 2600 2669 2842 
Q 2491 3084 2119 3084 
Q 1678 3084 1418 2786 
Q 1159 2488 1159 1978 
L 1159 0 
L 581 0 
L 581 3500 
L 1159 3500 
L 1159 2956 
Q 1356 3278 1631 3431 
Q 1906 3584 2284 3584 
Q 2666 3584 2933 3390 
Q 3200 3197 3328 2828 
z
" transform="scale(0.015625)"/>
       <path id="DejaVuSans-ed" d="M 1322 5119 
L 1944 5119 
L 926 3944 
L 447 3944 
L 1322 5119 
z
M 603 3500 
L 1178 3500 
L 1178 0 
L 603 0 
L 603 3500 
z
M 891 3584 
L 891 3584 
z
" transform="scale(0.015625)"/>
      </defs>
      <use xlink:href="#DejaVuSans-48"/>
      <use xlink:href="#DejaVuSans-61" x="75.195312"/>
      <use xlink:href="#DejaVuSans-73" x="136.474609"/>
      <use xlink:href="#DejaVuSans-74" x="188.574219"/>
      <use xlink:href="#DejaVuSans-61" x="227.783203"/>
      <use xlink:href="#DejaVuSans-20" x="289.0625"/>
      <use xlink:href="#DejaVuSans-75" x="320.849609"/>
      <use xlink:href="#DejaVuSans-6e" x="384.228516"/>
      <use xlink:href="#DejaVuSans-20" x="447.607422"/>
      <use xlink:href="#DejaVuSans-73" x="479.394531"/>
      <use xlink:href="#DejaVuSans-61" x="531.494141"/>
      <use xlink:href="#DejaVuSans-6c" x="592.773438"/>
      <use xlink:href="#DejaVuSans-61" x="620.556641"/>
      <use xlink:href="#DejaVuSans-72" x="681.835938"/>
      <use xlink:href="#DejaVuSans-69" x="722.949219"/>
      <use xlink:href="#DejaVuSans-6f" x="750.732422"/>
      <use xlink:href="#DejaVuSans-20" x="811.914062"/>
      <use xlink:href="#DejaVuSans-6d" x="843.701172"/>
      <use xlink:href="#DejaVuSans-ed" x="941.113281"/>
      <use xlink:href="#DejaVuSans-6e" x="968.896484"/>
      <use xlink:href="#DejaVuSans-69" x="1032.275391"/>
      <use xlink:href="#DejaVuSans-6d" x="1060.058594"/>
      <use xlink:href="#DejaVuSans-6f" x="1157.470703"/>
     </g>
    </g>
    <g id="line2d_35">
     <path d="M 609.48125 194.0825 
L 617.48125 194.0825 
L 625.48125 194.0825 
" style="fill: none; stroke: #1f78b4; stroke-width: 1.5; stroke-linecap: square"/>
    </g>
    <g id="text_17">
     <!-- Más de 1 hasta 2 salarios mínimos -->
     <g transform="translate(631.88125 196.8825) scale(0.08 -0.08)">
      <defs>
       <path id="DejaVuSans-4d" d="M 628 4666 
L 1569 4666 
L 2759 1491 
L 3956 4666 
L 4897 4666 
L 4897 0 
L 4281 0 
L 4281 4097 
L 3078 897 
L 2444 897 
L 1241 4097 
L 1241 0 
L 628 0 
L 628 4666 
z
" transform="scale(0.015625)"/>
       <path id="DejaVuSans-e1" d="M 2194 1759 
Q 1497 1759 1228 1600 
Q 959 1441 959 1056 
Q 959 750 1161 570 
Q 1363 391 1709 391 
Q 2188 391 2477 730 
Q 2766 1069 2766 1631 
L 2766 1759 
L 2194 1759 
z
M 3341 1997 
L 3341 0 
L 2766 0 
L 2766 531 
Q 2569 213 2275 61 
Q 1981 -91 1556 -91 
Q 1019 -91 701 211 
Q 384 513 384 1019 
Q 384 1609 779 1909 
Q 1175 2209 1959 2209 
L 2766 2209 
L 2766 2266 
Q 2766 2663 2505 2880 
Q 2244 3097 1772 3097 
Q 1472 3097 1187 3025 
Q 903 2953 641 2809 
L 641 3341 
Q 956 3463 1253 3523 
Q 1550 3584 1831 3584 
Q 2591 3584 2966 3190 
Q 3341 2797 3341 1997 
z
M 2290 5119 
L 2912 5119 
L 1894 3944 
L 1415 3944 
L 2290 5119 
z
" transform="scale(0.015625)"/>
       <path id="DejaVuSans-64" d="M 2906 2969 
L 2906 4863 
L 3481 4863 
L 3481 0 
L 2906 0 
L 2906 525 
Q 2725 213 2448 61 
Q 2172 -91 1784 -91 
Q 1150 -91 751 415 
Q 353 922 353 1747 
Q 353 2572 751 3078 
Q 1150 3584 1784 3584 
Q 2172 3584 2448 3432 
Q 2725 3281 2906 2969 
z
M 947 1747 
Q 947 1113 1208 752 
Q 1469 391 1925 391 
Q 2381 391 2643 752 
Q 2906 1113 2906 1747 
Q 2906 2381 2643 2742 
Q 2381 3103 1925 3103 
Q 1469 3103 1208 2742 
Q 947 2381 947 1747 
z
" transform="scale(0.015625)"/>
       <path id="DejaVuSans-68" d="M 3513 2113 
L 3513 0 
L 2938 0 
L 2938 2094 
Q 2938 2591 2744 2837 
Q 2550 3084 2163 3084 
Q 1697 3084 1428 2787 
Q 1159 2491 1159 1978 
L 1159 0 
L 581 0 
L 581 4863 
L 1159 4863 
L 1159 2956 
Q 1366 3272 1645 3428 
Q 1925 3584 2291 3584 
Q 2894 3584 3203 3211 
Q 3513 2838 3513 2113 
z
" transform="scale(0.015625)"/>
      </defs>
      <use xlink:href="#DejaVuSans-4d"/>
      <use xlink:href="#DejaVuSans-e1" x="86.279297"/>
      <use xlink:href="#DejaVuSans-73" x="147.558594"/>
      <use xlink:href="#DejaVuSans-20" x="199.658203"/>
      <use xlink:href="#DejaVuSans-64" x="231.445312"/>
      <use xlink:href="#DejaVuSans-65" x="294.921875"/>
      <use xlink:href="#DejaVuSans-20" x="356.445312"/>
      <use xlink:href="#DejaVuSans-31" x="388.232422"/>
      <use xlink:href="#DejaVuSans-20" x="451.855469"/>
      <use xlink:href="#DejaVuSans-68" x="483.642578"/>
      <use xlink:href="#DejaVuSans-61" x="547.021484"/>
      <use xlink:href="#DejaVuSans-73" x="608.300781"/>
      <use xlink:href="#DejaVuSans-74" x="660.400391"/>
      <use xlink:href="#DejaVuSans-61" x="699.609375"/>
      <use xlink:href="#DejaVuSans-20" x="760.888672"/>
      <use xlink:href="#DejaVuSans-32" x="792.675781"/>
      <use xlink:href="#DejaVuSans-20" x="856.298828"/>
      <use xlink:href="#DejaVuSans-73" x="888.085938"/>
      <use xlink:href="#DejaVuSans-61" x="940.185547"/>
      <use xlink:href="#DejaVuSans-6c" x="1001.464844"/>
      <use xlink:href="#DejaVuSans-61" x="1029.248047"/>
      <use xlink:href="#DejaVuSans-72" x="1090.527344"/>
      <use xlink:href="#DejaVuSans-69" x="1131.640625"/>
      <use xlink:href="#DejaVuSans-6f" x="1159.423828"/>
      <use xlink:href="#DejaVuSans-73" x="1220.605469"/>
      <use xlink:href="#DejaVuSans-20" x="1272.705078"/>
      <use xlink:href="#DejaVuSans-6d" x="1304.492188"/>
      <use xlink:href="#DejaVuSans-ed" x="1401.904297"/>
      <use xlink:href="#DejaVuSans-6e" x="1429.6875"/>
      <use xlink:href="#DejaVuSans-69" x="1493.066406"/>
      <use xlink:href="#DejaVuSans-6d" x="1520.849609"/>
      <use xlink:href="#DejaVuSans-6f" x="1618.261719"/>
      <use xlink:href="#DejaVuSans-73" x="1679.443359"/>
     </g>
    </g>
    <g id="line2d_36">
     <path d="M 609.48125 205.825 
L 617.48125 205.825 
L 625.48125 205.825 
" style="fill: none; stroke: #b2df8a; stroke-width: 1.5; stroke-linecap: square"/>
    </g>
    <g id="text_18">
     <!-- Más de 2 hasta 3 salarios mínimos -->
     <g transform="translate(631.88125 208.625) scale(0.08 -0.08)">
      <defs>
       <path id="DejaVuSans-33" d="M 2597 2516 
Q 3050 2419 3304 2112 
Q 3559 1806 3559 1356 
Q 3559 666 3084 287 
Q 2609 -91 1734 -91 
Q 1441 -91 1130 -33 
Q 819 25 488 141 
L 488 750 
Q 750 597 1062 519 
Q 1375 441 1716 441 
Q 2309 441 2620 675 
Q 2931 909 2931 1356 
Q 2931 1769 2642 2001 
Q 2353 2234 1838 2234 
L 1294 2234 
L 1294 2753 
L 1863 2753 
Q 2328 2753 2575 2939 
Q 2822 3125 2822 3475 
Q 2822 3834 2567 4026 
Q 2313 4219 1838 4219 
Q 1578 4219 1281 4162 
Q 984 4106 628 3988 
L 628 4550 
Q 988 4650 1302 4700 
Q 1616 4750 1894 4750 
Q 2613 4750 3031 4423 
Q 3450 4097 3450 3541 
Q 3450 3153 3228 2886 
Q 3006 2619 2597 2516 
z
" transform="scale(0.015625)"/>
      </defs>
      <use xlink:href="#DejaVuSans-4d"/>
      <use xlink:href="#DejaVuSans-e1" x="86.279297"/>
      <use xlink:href="#DejaVuSans-73" x="147.558594"/>
      <use xlink:href="#DejaVuSans-20" x="199.658203"/>
      <use xlink:href="#DejaVuSans-64" x="231.445312"/>
      <use xlink:href="#DejaVuSans-65" x="294.921875"/>
      <use xlink:href="#DejaVuSans-20" x="356.445312"/>
      <use xlink:href="#DejaVuSans-32" x="388.232422"/>
      <use xlink:href="#DejaVuSans-20" x="451.855469"/>
      <use xlink:href="#DejaVuSans-68" x="483.642578"/>
      <use xlink:href="#DejaVuSans-61" x="547.021484"/>
      <use xlink:href="#DejaVuSans-73" x="608.300781"/>
      <use xlink:href="#DejaVuSans-74" x="660.400391"/>
      <use xlink:href="#DejaVuSans-61" x="699.609375"/>
      <use xlink:href="#DejaVuSans-20" x="760.888672"/>
      <use xlink:href="#DejaVuSans-33" x="792.675781"/>
      <use xlink:href="#DejaVuSans-20" x="856.298828"/>
      <use xlink:href="#DejaVuSans-73" x="888.085938"/>
      <use xlink:href="#DejaVuSans-61" x="940.185547"/>
      <use xlink:href="#DejaVuSans-6c" x="1001.464844"/>
      <use xlink:href="#DejaVuSans-61" x="1029.248047"/>
      <use xlink:href="#DejaVuSans-72" x="1090.527344"/>
      <use xlink:href="#DejaVuSans-69" x="1131.640625"/>
      <use xlink:href="#DejaVuSans-6f" x="1159.423828"/>
      <use xlink:href="#DejaVuSans-73" x="1220.605469"/>
      <use xlink:href="#DejaVuSans-20" x="1272.705078"/>
      <use xlink:href="#DejaVuSans-6d" x="1304.492188"/>
      <use xlink:href="#DejaVuSans-ed" x="1401.904297"/>
      <use xlink:href="#DejaVuSans-6e" x="1429.6875"/>
      <use xlink:href="#DejaVuSans-69" x="1493.066406"/>
      <use xlink:href="#DejaVuSans-6d" x="1520.849609"/>
      <use xlink:href="#DejaVuSans-6f" x="1618.261719"/>
      <use xlink:href="#DejaVuSans-73" x="1679.443359"/>
     </g>
    </g>
    <g id="line2d_37">
     <path d="M 609.48125 217.5675 
L 617.48125 217.5675 
L 625.48125 217.5675 
" style="fill: none; stroke: #33a02c; stroke-width: 1.5; stroke-linecap: square"/>
    </g>
    <g id="text_19">
     <!-- Más de 3 hasta 5 salarios mínimos -->
     <g transform="translate(631.88125 220.3675) scale(0.08 -0.08)">
      <use xlink:href="#DejaVuSans-4d"/>
      <use xlink:href="#DejaVuSans-e1" x="86.279297"/>
      <use xlink:href="#DejaVuSans-73" x="147.558594"/>
      <use xlink:href="#DejaVuSans-20" x="199.658203"/>
      <use xlink:href="#DejaVuSans-64" x="231.445312"/>
      <use xlink:href="#DejaVuSans-65" x="294.921875"/>
      <use xlink:href="#DejaVuSans-20" x="356.445312"/>
      <use xlink:href="#DejaVuSans-33" x="388.232422"/>
      <use xlink:href="#DejaVuSans-20" x="451.855469"/>
      <use xlink:href="#DejaVuSans-68" x="483.642578"/>
      <use xlink:href="#DejaVuSans-61" x="547.021484"/>
      <use xlink:href="#DejaVuSans-73" x="608.300781"/>
      <use xlink:href="#DejaVuSans-74" x="660.400391"/>
      <use xlink:href="#DejaVuSans-61" x="699.609375"/>
      <use xlink:href="#DejaVuSans-20" x="760.888672"/>
      <use xlink:href="#DejaVuSans-35" x="792.675781"/>
      <use xlink:href="#DejaVuSans-20" x="856.298828"/>
      <use xlink:href="#DejaVuSans-73" x="888.085938"/>
      <use xlink:href="#DejaVuSans-61" x="940.185547"/>
      <use xlink:href="#DejaVuSans-6c" x="1001.464844"/>
      <use xlink:href="#DejaVuSans-61" x="1029.248047"/>
      <use xlink:href="#DejaVuSans-72" x="1090.527344"/>
      <use xlink:href="#DejaVuSans-69" x="1131.640625"/>
      <use xlink:href="#DejaVuSans-6f" x="1159.423828"/>
      <use xlink:href="#DejaVuSans-73" x="1220.605469"/>
      <use xlink:href="#DejaVuSans-20" x="1272.705078"/>
      <use xlink:href="#DejaVuSans-6d" x="1304.492188"/>
      <use xlink:href="#DejaVuSans-ed" x="1401.904297"/>
      <use xlink:href="#DejaVuSans-6e" x="1429.6875"/>
      <use xlink:href="#DejaVuSans-69" x="1493.066406"/>
      <use xlink:href="#DejaVuSans-6d" x="1520.849609"/>
      <use xlink:href="#DejaVuSans-6f" x="1618.261719"/>
      <use xlink:href="#DejaVuSans-73" x="1679.443359"/>
     </g>
    </g>
    <g id="line2d_38">
     <path d="M 609.48125 229.31 
L 617.48125 229.31 
L 625.48125 229.31 
" style="fill: none; stroke: #fb9a99; stroke-width: 1.5; stroke-linecap: square"/>
    </g>
    <g id="text_20">
     <!-- Más de 5 salarios mínimos -->
     <g transform="translate(631.88125 232.11) scale(0.08 -0.08)">
      <use xlink:href="#DejaVuSans-4d"/>
      <use xlink:href="#DejaVuSans-e1" x="86.279297"/>
      <use xlink:href="#DejaVuSans-73" x="147.558594"/>
      <use xlink:href="#DejaVuSans-20" x="199.658203"/>
      <use xlink:href="#DejaVuSans-64" x="231.445312"/>
      <use xlink:href="#DejaVuSans-65" x="294.921875"/>
      <use xlink:href="#DejaVuSans-20" x="356.445312"/>
      <use xlink:href="#DejaVuSans-35" x="388.232422"/>
      <use xlink:href="#DejaVuSans-20" x="451.855469"/>
      <use xlink:href="#DejaVuSans-73" x="483.642578"/>
      <use xlink:href="#DejaVuSans-61" x="535.742188"/>
      <use xlink:href="#DejaVuSans-6c" x="597.021484"/>
      <use xlink:href="#DejaVuSans-61" x="624.804688"/>
      <use xlink:href="#DejaVuSans-72" x="686.083984"/>
      <use xlink:href="#DejaVuSans-69" x="727.197266"/>
      <use xlink:href="#DejaVuSans-6f" x="754.980469"/>
      <use xlink:href="#DejaVuSans-73" x="816.162109"/>
      <use xlink:href="#DejaVuSans-20" x="868.261719"/>
      <use xlink:href="#DejaVuSans-6d" x="900.048828"/>
      <use xlink:href="#DejaVuSans-ed" x="997.460938"/>
      <use xlink:href="#DejaVuSans-6e" x="1025.244141"/>
      <use xlink:href="#DejaVuSans-69" x="1088.623047"/>
      <use xlink:href="#DejaVuSans-6d" x="1116.40625"/>
      <use xlink:href="#DejaVuSans-6f" x="1213.818359"/>
      <use xlink:href="#DejaVuSans-73" x="1275"/>
     </g>
    </g>
    <g id="line2d_39">
     <path d="M 609.48125 241.0525 
L 617.48125 241.0525 
L 625.48125 241.0525 
" style="fill: none; stroke: #e31a1c; stroke-width: 1.5; stroke-linecap: square"/>
    </g>
    <g id="text_21">
     <!-- No recibe ingresos 4 -->
     <g transform="translate(631.88125 243.8525) scale(0.08 -0.08)">
      <defs>
       <path id="DejaVuSans-4e" d="M 628 4666 
L 1478 4666 
L 3547 763 
L 3547 4666 
L 4159 4666 
L 4159 0 
L 3309 0 
L 1241 3903 
L 1241 0 
L 628 0 
L 628 4666 
z
" transform="scale(0.015625)"/>
       <path id="DejaVuSans-63" d="M 3122 3366 
L 3122 2828 
Q 2878 2963 2633 3030 
Q 2388 3097 2138 3097 
Q 1578 3097 1268 2742 
Q 959 2388 959 1747 
Q 959 1106 1268 751 
Q 1578 397 2138 397 
Q 2388 397 2633 464 
Q 2878 531 3122 666 
L 3122 134 
Q 2881 22 2623 -34 
Q 2366 -91 2075 -91 
Q 1284 -91 818 406 
Q 353 903 353 1747 
Q 353 2603 823 3093 
Q 1294 3584 2113 3584 
Q 2378 3584 2631 3529 
Q 2884 3475 3122 3366 
z
" transform="scale(0.015625)"/>
       <path id="DejaVuSans-62" d="M 3116 1747 
Q 3116 2381 2855 2742 
Q 2594 3103 2138 3103 
Q 1681 3103 1420 2742 
Q 1159 2381 1159 1747 
Q 1159 1113 1420 752 
Q 1681 391 2138 391 
Q 2594 391 2855 752 
Q 3116 1113 3116 1747 
z
M 1159 2969 
Q 1341 3281 1617 3432 
Q 1894 3584 2278 3584 
Q 2916 3584 3314 3078 
Q 3713 2572 3713 1747 
Q 3713 922 3314 415 
Q 2916 -91 2278 -91 
Q 1894 -91 1617 61 
Q 1341 213 1159 525 
L 1159 0 
L 581 0 
L 581 4863 
L 1159 4863 
L 1159 2969 
z
" transform="scale(0.015625)"/>
       <path id="DejaVuSans-67" d="M 2906 1791 
Q 2906 2416 2648 2759 
Q 2391 3103 1925 3103 
Q 1463 3103 1205 2759 
Q 947 2416 947 1791 
Q 947 1169 1205 825 
Q 1463 481 1925 481 
Q 2391 481 2648 825 
Q 2906 1169 2906 1791 
z
M 3481 434 
Q 3481 -459 3084 -895 
Q 2688 -1331 1869 -1331 
Q 1566 -1331 1297 -1286 
Q 1028 -1241 775 -1147 
L 775 -588 
Q 1028 -725 1275 -790 
Q 1522 -856 1778 -856 
Q 2344 -856 2625 -561 
Q 2906 -266 2906 331 
L 2906 616 
Q 2728 306 2450 153 
Q 2172 0 1784 0 
Q 1141 0 747 490 
Q 353 981 353 1791 
Q 353 2603 747 3093 
Q 1141 3584 1784 3584 
Q 2172 3584 2450 3431 
Q 2728 3278 2906 2969 
L 2906 3500 
L 3481 3500 
L 3481 434 
z
" transform="scale(0.015625)"/>
      </defs>
      <use xlink:href="#DejaVuSans-4e"/>
      <use xlink:href="#DejaVuSans-6f" x="74.804688"/>
      <use xlink:href="#DejaVuSans-20" x="135.986328"/>
      <use xlink:href="#DejaVuSans-72" x="167.773438"/>
      <use xlink:href="#DejaVuSans-65" x="206.636719"/>
      <use xlink:href="#DejaVuSans-63" x="268.160156"/>
      <use xlink:href="#DejaVuSans-69" x="323.140625"/>
      <use xlink:href="#DejaVuSans-62" x="350.923828"/>
      <use xlink:href="#DejaVuSans-65" x="414.400391"/>
      <use xlink:href="#DejaVuSans-20" x="475.923828"/>
      <use xlink:href="#DejaVuSans-69" x="507.710938"/>
      <use xlink:href="#DejaVuSans-6e" x="535.494141"/>
      <use xlink:href="#DejaVuSans-67" x="598.873047"/>
      <use xlink:href="#DejaVuSans-72" x="662.349609"/>
      <use xlink:href="#DejaVuSans-65" x="701.212891"/>
      <use xlink:href="#DejaVuSans-73" x="762.736328"/>
      <use xlink:href="#DejaVuSans-6f" x="814.835938"/>
      <use xlink:href="#DejaVuSans-73" x="876.017578"/>
      <use xlink:href="#DejaVuSans-20" x="928.117188"/>
      <use xlink:href="#DejaVuSans-34" x="959.904297"/>
     </g>
    </g>
    <g id="line2d_40">
     <path d="M 609.48125 252.795 
L 617.48125 252.795 
L 625.48125 252.795 
" style="fill: none; stroke: #fdbf6f; stroke-width: 1.5; stroke-linecap: square"/>
    </g>
    <g id="text_22">
     <!-- No especificado -->
     <g transform="translate(631.88125 255.595) scale(0.08 -0.08)">
      <defs>
       <path id="DejaVuSans-70" d="M 1159 525 
L 1159 -1331 
L 581 -1331 
L 581 3500 
L 1159 3500 
L 1159 2969 
Q 1341 3281 1617 3432 
Q 1894 3584 2278 3584 
Q 2916 3584 3314 3078 
Q 3713 2572 3713 1747 
Q 3713 922 3314 415 
Q 2916 -91 2278 -91 
Q 1894 -91 1617 61 
Q 1341 213 1159 525 
z
M 3116 1747 
Q 3116 2381 2855 2742 
Q 2594 3103 2138 3103 
Q 1681 3103 1420 2742 
Q 1159 2381 1159 1747 
Q 1159 1113 1420 752 
Q 1681 391 2138 391 
Q 2594 391 2855 752 
Q 3116 1113 3116 1747 
z
" transform="scale(0.015625)"/>
       <path id="DejaVuSans-66" d="M 2375 4863 
L 2375 4384 
L 1825 4384 
Q 1516 4384 1395 4259 
Q 1275 4134 1275 3809 
L 1275 3500 
L 2222 3500 
L 2222 3053 
L 1275 3053 
L 1275 0 
L 697 0 
L 697 3053 
L 147 3053 
L 147 3500 
L 697 3500 
L 697 3744 
Q 697 4328 969 4595 
Q 1241 4863 1831 4863 
L 2375 4863 
z
" transform="scale(0.015625)"/>
      </defs>
      <use xlink:href="#DejaVuSans-4e"/>
      <use xlink:href="#DejaVuSans-6f" x="74.804688"/>
      <use xlink:href="#DejaVuSans-20" x="135.986328"/>
      <use xlink:href="#DejaVuSans-65" x="167.773438"/>
      <use xlink:href="#DejaVuSans-73" x="229.296875"/>
      <use xlink:href="#DejaVuSans-70" x="281.396484"/>
      <use xlink:href="#DejaVuSans-65" x="344.873047"/>
      <use xlink:href="#DejaVuSans-63" x="406.396484"/>
      <use xlink:href="#DejaVuSans-69" x="461.376953"/>
      <use xlink:href="#DejaVuSans-66" x="489.160156"/>
      <use xlink:href="#DejaVuSans-69" x="524.365234"/>
      <use xlink:href="#DejaVuSans-63" x="552.148438"/>
      <use xlink:href="#DejaVuSans-61" x="607.128906"/>
      <use xlink:href="#DejaVuSans-64" x="668.408203"/>
      <use xlink:href="#DejaVuSans-6f" x="731.884766"/>
     </g>
    </g>
   </g>
  </g>
 </g>
 <defs>
  <clipPath id="p69bc6831a8">
   <rect x="108" y="51.84" width="669.6" height="332.64"/>
  </clipPath>
 </defs>
</svg>
