<?xml version="1.0" encoding="utf-8" standalone="no"?>
<!DOCTYPE svg PUBLIC "-//W3C//DTD SVG 1.1//EN"
  "http://www.w3.org/Graphics/SVG/1.1/DTD/svg11.dtd">
<svg xmlns:xlink="http://www.w3.org/1999/xlink" width="864pt" height="432pt" viewBox="0 0 864 432" xmlns="http://www.w3.org/2000/svg" version="1.1">
 <metadata>
  <rdf:RDF xmlns:dc="http://purl.org/dc/elements/1.1/" xmlns:cc="http://creativecommons.org/ns#" xmlns:rdf="http://www.w3.org/1999/02/22-rdf-syntax-ns#">
   <cc:Work>
    <dc:type rdf:resource="http://purl.org/dc/dcmitype/StillImage"/>
    <dc:date>2025-02-23T20:14:46.175405</dc:date>
    <dc:format>image/svg+xml</dc:format>
    <dc:creator>
     <cc:Agent>
      <dc:title>Matplotlib v3.10.0, https://matplotlib.org/</dc:title>
     </cc:Agent>
    </dc:creator>
   </cc:Work>
  </rdf:RDF>
 </metadata>
 <defs>
  <style type="text/css">*{stroke-linejoin: round; stroke-linecap: butt}</style>
 </defs>
 <g id="figure_1">
  <g id="patch_1">
   <path d="M 0 432 
L 864 432 
L 864 0 
L 0 0 
z
" style="fill: #ffffff"/>
  </g>
  <g id="axes_1">
   <g id="patch_2">
    <path d="M 108 384.48 
L 777.6 384.48 
L 777.6 51.84 
L 108 51.84 
z
" style="fill: #ffffff"/>
   </g>
   <g id="matplotlib.axis_1">
    <g id="xtick_1">
     <g id="line2d_1">
      <path d="M 171.963301 384.48 
L 171.963301 51.84 
" clip-path="url(#pe2b1cbc38f)" style="fill: none; stroke-dasharray: 2.96,1.28; stroke-dashoffset: 0; stroke: #b0b0b0; stroke-opacity: 0.5; stroke-width: 0.8"/>
     </g>
     <g id="line2d_2">
      <defs>
       <path id="m771c68f84f" d="M 0 0 
L 0 3.5 
" style="stroke: #000000; stroke-width: 0.8"/>
      </defs>
      <g>
       <use xlink:href="#m771c68f84f" x="171.963301" y="384.48" style="stroke: #000000; stroke-width: 0.8"/>
      </g>
     </g>
     <g id="text_1">
      <!-- 2012 -->
      <g transform="translate(159.238301 399.078438) scale(0.1 -0.1)">
       <defs>
        <path id="DejaVuSans-32" d="M 1228 531 
L 3431 531 
L 3431 0 
L 469 0 
L 469 531 
Q 828 903 1448 1529 
Q 2069 2156 2228 2338 
Q 2531 2678 2651 2914 
Q 2772 3150 2772 3378 
Q 2772 3750 2511 3984 
Q 2250 4219 1831 4219 
Q 1534 4219 1204 4116 
Q 875 4013 500 3803 
L 500 4441 
Q 881 4594 1212 4672 
Q 1544 4750 1819 4750 
Q 2544 4750 2975 4387 
Q 3406 4025 3406 3419 
Q 3406 3131 3298 2873 
Q 3191 2616 2906 2266 
Q 2828 2175 2409 1742 
Q 1991 1309 1228 531 
z
" transform="scale(0.015625)"/>
        <path id="DejaVuSans-30" d="M 2034 4250 
Q 1547 4250 1301 3770 
Q 1056 3291 1056 2328 
Q 1056 1369 1301 889 
Q 1547 409 2034 409 
Q 2525 409 2770 889 
Q 3016 1369 3016 2328 
Q 3016 3291 2770 3770 
Q 2525 4250 2034 4250 
z
M 2034 4750 
Q 2819 4750 3233 4129 
Q 3647 3509 3647 2328 
Q 3647 1150 3233 529 
Q 2819 -91 2034 -91 
Q 1250 -91 836 529 
Q 422 1150 422 2328 
Q 422 3509 836 4129 
Q 1250 4750 2034 4750 
z
" transform="scale(0.015625)"/>
        <path id="DejaVuSans-31" d="M 794 531 
L 1825 531 
L 1825 4091 
L 703 3866 
L 703 4441 
L 1819 4666 
L 2450 4666 
L 2450 531 
L 3481 531 
L 3481 0 
L 794 0 
L 794 531 
z
" transform="scale(0.015625)"/>
       </defs>
       <use xlink:href="#DejaVuSans-32"/>
       <use xlink:href="#DejaVuSans-30" transform="translate(63.623047 0)"/>
       <use xlink:href="#DejaVuSans-31" transform="translate(127.246094 0)"/>
       <use xlink:href="#DejaVuSans-32" transform="translate(190.869141 0)"/>
      </g>
     </g>
    </g>
    <g id="xtick_2">
     <g id="line2d_3">
      <path d="M 261.083998 384.48 
L 261.083998 51.84 
" clip-path="url(#pe2b1cbc38f)" style="fill: none; stroke-dasharray: 2.96,1.28; stroke-dashoffset: 0; stroke: #b0b0b0; stroke-opacity: 0.5; stroke-width: 0.8"/>
     </g>
     <g id="line2d_4">
      <g>
       <use xlink:href="#m771c68f84f" x="261.083998" y="384.48" style="stroke: #000000; stroke-width: 0.8"/>
      </g>
     </g>
     <g id="text_2">
      <!-- 2014 -->
      <g transform="translate(248.358998 399.078438) scale(0.1 -0.1)">
       <defs>
        <path id="DejaVuSans-34" d="M 2419 4116 
L 825 1625 
L 2419 1625 
L 2419 4116 
z
M 2253 4666 
L 3047 4666 
L 3047 1625 
L 3713 1625 
L 3713 1100 
L 3047 1100 
L 3047 0 
L 2419 0 
L 2419 1100 
L 313 1100 
L 313 1709 
L 2253 4666 
z
" transform="scale(0.015625)"/>
       </defs>
       <use xlink:href="#DejaVuSans-32"/>
       <use xlink:href="#DejaVuSans-30" transform="translate(63.623047 0)"/>
       <use xlink:href="#DejaVuSans-31" transform="translate(127.246094 0)"/>
       <use xlink:href="#DejaVuSans-34" transform="translate(190.869141 0)"/>
      </g>
     </g>
    </g>
    <g id="xtick_3">
     <g id="line2d_5">
      <path d="M 350.082778 384.48 
L 350.082778 51.84 
" clip-path="url(#pe2b1cbc38f)" style="fill: none; stroke-dasharray: 2.96,1.28; stroke-dashoffset: 0; stroke: #b0b0b0; stroke-opacity: 0.5; stroke-width: 0.8"/>
     </g>
     <g id="line2d_6">
      <g>
       <use xlink:href="#m771c68f84f" x="350.082778" y="384.48" style="stroke: #000000; stroke-width: 0.8"/>
      </g>
     </g>
     <g id="text_3">
      <!-- 2016 -->
      <g transform="translate(337.357778 399.078438) scale(0.1 -0.1)">
       <defs>
        <path id="DejaVuSans-36" d="M 2113 2584 
Q 1688 2584 1439 2293 
Q 1191 2003 1191 1497 
Q 1191 994 1439 701 
Q 1688 409 2113 409 
Q 2538 409 2786 701 
Q 3034 994 3034 1497 
Q 3034 2003 2786 2293 
Q 2538 2584 2113 2584 
z
M 3366 4563 
L 3366 3988 
Q 3128 4100 2886 4159 
Q 2644 4219 2406 4219 
Q 1781 4219 1451 3797 
Q 1122 3375 1075 2522 
Q 1259 2794 1537 2939 
Q 1816 3084 2150 3084 
Q 2853 3084 3261 2657 
Q 3669 2231 3669 1497 
Q 3669 778 3244 343 
Q 2819 -91 2113 -91 
Q 1303 -91 875 529 
Q 447 1150 447 2328 
Q 447 3434 972 4092 
Q 1497 4750 2381 4750 
Q 2619 4750 2861 4703 
Q 3103 4656 3366 4563 
z
" transform="scale(0.015625)"/>
       </defs>
       <use xlink:href="#DejaVuSans-32"/>
       <use xlink:href="#DejaVuSans-30" transform="translate(63.623047 0)"/>
       <use xlink:href="#DejaVuSans-31" transform="translate(127.246094 0)"/>
       <use xlink:href="#DejaVuSans-36" transform="translate(190.869141 0)"/>
      </g>
     </g>
    </g>
    <g id="xtick_4">
     <g id="line2d_7">
      <path d="M 439.203474 384.48 
L 439.203474 51.84 
" clip-path="url(#pe2b1cbc38f)" style="fill: none; stroke-dasharray: 2.96,1.28; stroke-dashoffset: 0; stroke: #b0b0b0; stroke-opacity: 0.5; stroke-width: 0.8"/>
     </g>
     <g id="line2d_8">
      <g>
       <use xlink:href="#m771c68f84f" x="439.203474" y="384.48" style="stroke: #000000; stroke-width: 0.8"/>
      </g>
     </g>
     <g id="text_4">
      <!-- 2018 -->
      <g transform="translate(426.478474 399.078438) scale(0.1 -0.1)">
       <defs>
        <path id="DejaVuSans-38" d="M 2034 2216 
Q 1584 2216 1326 1975 
Q 1069 1734 1069 1313 
Q 1069 891 1326 650 
Q 1584 409 2034 409 
Q 2484 409 2743 651 
Q 3003 894 3003 1313 
Q 3003 1734 2745 1975 
Q 2488 2216 2034 2216 
z
M 1403 2484 
Q 997 2584 770 2862 
Q 544 3141 544 3541 
Q 544 4100 942 4425 
Q 1341 4750 2034 4750 
Q 2731 4750 3128 4425 
Q 3525 4100 3525 3541 
Q 3525 3141 3298 2862 
Q 3072 2584 2669 2484 
Q 3125 2378 3379 2068 
Q 3634 1759 3634 1313 
Q 3634 634 3220 271 
Q 2806 -91 2034 -91 
Q 1263 -91 848 271 
Q 434 634 434 1313 
Q 434 1759 690 2068 
Q 947 2378 1403 2484 
z
M 1172 3481 
Q 1172 3119 1398 2916 
Q 1625 2713 2034 2713 
Q 2441 2713 2670 2916 
Q 2900 3119 2900 3481 
Q 2900 3844 2670 4047 
Q 2441 4250 2034 4250 
Q 1625 4250 1398 4047 
Q 1172 3844 1172 3481 
z
" transform="scale(0.015625)"/>
       </defs>
       <use xlink:href="#DejaVuSans-32"/>
       <use xlink:href="#DejaVuSans-30" transform="translate(63.623047 0)"/>
       <use xlink:href="#DejaVuSans-31" transform="translate(127.246094 0)"/>
       <use xlink:href="#DejaVuSans-38" transform="translate(190.869141 0)"/>
      </g>
     </g>
    </g>
    <g id="xtick_5">
     <g id="line2d_9">
      <path d="M 528.202254 384.48 
L 528.202254 51.84 
" clip-path="url(#pe2b1cbc38f)" style="fill: none; stroke-dasharray: 2.96,1.28; stroke-dashoffset: 0; stroke: #b0b0b0; stroke-opacity: 0.5; stroke-width: 0.8"/>
     </g>
     <g id="line2d_10">
      <g>
       <use xlink:href="#m771c68f84f" x="528.202254" y="384.48" style="stroke: #000000; stroke-width: 0.8"/>
      </g>
     </g>
     <g id="text_5">
      <!-- 2020 -->
      <g transform="translate(515.477254 399.078438) scale(0.1 -0.1)">
       <use xlink:href="#DejaVuSans-32"/>
       <use xlink:href="#DejaVuSans-30" transform="translate(63.623047 0)"/>
       <use xlink:href="#DejaVuSans-32" transform="translate(127.246094 0)"/>
       <use xlink:href="#DejaVuSans-30" transform="translate(190.869141 0)"/>
      </g>
     </g>
    </g>
    <g id="xtick_6">
     <g id="line2d_11">
      <path d="M 617.32295 384.48 
L 617.32295 51.84 
" clip-path="url(#pe2b1cbc38f)" style="fill: none; stroke-dasharray: 2.96,1.28; stroke-dashoffset: 0; stroke: #b0b0b0; stroke-opacity: 0.5; stroke-width: 0.8"/>
     </g>
     <g id="line2d_12">
      <g>
       <use xlink:href="#m771c68f84f" x="617.32295" y="384.48" style="stroke: #000000; stroke-width: 0.8"/>
      </g>
     </g>
     <g id="text_6">
      <!-- 2022 -->
      <g transform="translate(604.59795 399.078438) scale(0.1 -0.1)">
       <use xlink:href="#DejaVuSans-32"/>
       <use xlink:href="#DejaVuSans-30" transform="translate(63.623047 0)"/>
       <use xlink:href="#DejaVuSans-32" transform="translate(127.246094 0)"/>
       <use xlink:href="#DejaVuSans-32" transform="translate(190.869141 0)"/>
      </g>
     </g>
    </g>
    <g id="xtick_7">
     <g id="line2d_13">
      <path d="M 706.32173 384.48 
L 706.32173 51.84 
" clip-path="url(#pe2b1cbc38f)" style="fill: none; stroke-dasharray: 2.96,1.28; stroke-dashoffset: 0; stroke: #b0b0b0; stroke-opacity: 0.5; stroke-width: 0.8"/>
     </g>
     <g id="line2d_14">
      <g>
       <use xlink:href="#m771c68f84f" x="706.32173" y="384.48" style="stroke: #000000; stroke-width: 0.8"/>
      </g>
     </g>
     <g id="text_7">
      <!-- 2024 -->
      <g transform="translate(693.59673 399.078438) scale(0.1 -0.1)">
       <use xlink:href="#DejaVuSans-32"/>
       <use xlink:href="#DejaVuSans-30" transform="translate(63.623047 0)"/>
       <use xlink:href="#DejaVuSans-32" transform="translate(127.246094 0)"/>
       <use xlink:href="#DejaVuSans-34" transform="translate(190.869141 0)"/>
      </g>
     </g>
    </g>
   </g>
   <g id="matplotlib.axis_2">
    <g id="ytick_1">
     <g id="line2d_15">
      <path d="M 108 366.49125 
L 777.6 366.49125 
" clip-path="url(#pe2b1cbc38f)" style="fill: none; stroke-dasharray: 2.96,1.28; stroke-dashoffset: 0; stroke: #b0b0b0; stroke-opacity: 0.5; stroke-width: 0.8"/>
     </g>
     <g id="line2d_16">
      <defs>
       <path id="mea4358faf5" d="M 0 0 
L -3.5 0 
" style="stroke: #000000; stroke-width: 0.8"/>
      </defs>
      <g>
       <use xlink:href="#mea4358faf5" x="108" y="366.49125" style="stroke: #000000; stroke-width: 0.8"/>
      </g>
     </g>
     <g id="text_8">
      <!-- −5.0 -->
      <g transform="translate(76.717187 370.290469) scale(0.1 -0.1)">
       <defs>
        <path id="DejaVuSans-2212" d="M 678 2272 
L 4684 2272 
L 4684 1741 
L 678 1741 
L 678 2272 
z
" transform="scale(0.015625)"/>
        <path id="DejaVuSans-35" d="M 691 4666 
L 3169 4666 
L 3169 4134 
L 1269 4134 
L 1269 2991 
Q 1406 3038 1543 3061 
Q 1681 3084 1819 3084 
Q 2600 3084 3056 2656 
Q 3513 2228 3513 1497 
Q 3513 744 3044 326 
Q 2575 -91 1722 -91 
Q 1428 -91 1123 -41 
Q 819 9 494 109 
L 494 744 
Q 775 591 1075 516 
Q 1375 441 1709 441 
Q 2250 441 2565 725 
Q 2881 1009 2881 1497 
Q 2881 1984 2565 2268 
Q 2250 2553 1709 2553 
Q 1456 2553 1204 2497 
Q 953 2441 691 2322 
L 691 4666 
z
" transform="scale(0.015625)"/>
        <path id="DejaVuSans-2e" d="M 684 794 
L 1344 794 
L 1344 0 
L 684 0 
L 684 794 
z
" transform="scale(0.015625)"/>
       </defs>
       <use xlink:href="#DejaVuSans-2212"/>
       <use xlink:href="#DejaVuSans-35" transform="translate(83.789062 0)"/>
       <use xlink:href="#DejaVuSans-2e" transform="translate(147.412109 0)"/>
       <use xlink:href="#DejaVuSans-30" transform="translate(179.199219 0)"/>
      </g>
     </g>
    </g>
    <g id="ytick_2">
     <g id="line2d_17">
      <path d="M 108 324.30375 
L 777.6 324.30375 
" clip-path="url(#pe2b1cbc38f)" style="fill: none; stroke-dasharray: 2.96,1.28; stroke-dashoffset: 0; stroke: #b0b0b0; stroke-opacity: 0.5; stroke-width: 0.8"/>
     </g>
     <g id="line2d_18">
      <g>
       <use xlink:href="#mea4358faf5" x="108" y="324.30375" style="stroke: #000000; stroke-width: 0.8"/>
      </g>
     </g>
     <g id="text_9">
      <!-- −2.5 -->
      <g transform="translate(76.717187 328.102969) scale(0.1 -0.1)">
       <use xlink:href="#DejaVuSans-2212"/>
       <use xlink:href="#DejaVuSans-32" transform="translate(83.789062 0)"/>
       <use xlink:href="#DejaVuSans-2e" transform="translate(147.412109 0)"/>
       <use xlink:href="#DejaVuSans-35" transform="translate(179.199219 0)"/>
      </g>
     </g>
    </g>
    <g id="ytick_3">
     <g id="line2d_19">
      <path d="M 108 282.11625 
L 777.6 282.11625 
" clip-path="url(#pe2b1cbc38f)" style="fill: none; stroke-dasharray: 2.96,1.28; stroke-dashoffset: 0; stroke: #b0b0b0; stroke-opacity: 0.5; stroke-width: 0.8"/>
     </g>
     <g id="line2d_20">
      <g>
       <use xlink:href="#mea4358faf5" x="108" y="282.11625" style="stroke: #000000; stroke-width: 0.8"/>
      </g>
     </g>
     <g id="text_10">
      <!-- 0.0 -->
      <g transform="translate(85.096875 285.915469) scale(0.1 -0.1)">
       <use xlink:href="#DejaVuSans-30"/>
       <use xlink:href="#DejaVuSans-2e" transform="translate(63.623047 0)"/>
       <use xlink:href="#DejaVuSans-30" transform="translate(95.410156 0)"/>
      </g>
     </g>
    </g>
    <g id="ytick_4">
     <g id="line2d_21">
      <path d="M 108 239.92875 
L 777.6 239.92875 
" clip-path="url(#pe2b1cbc38f)" style="fill: none; stroke-dasharray: 2.96,1.28; stroke-dashoffset: 0; stroke: #b0b0b0; stroke-opacity: 0.5; stroke-width: 0.8"/>
     </g>
     <g id="line2d_22">
      <g>
       <use xlink:href="#mea4358faf5" x="108" y="239.92875" style="stroke: #000000; stroke-width: 0.8"/>
      </g>
     </g>
     <g id="text_11">
      <!-- 2.5 -->
      <g transform="translate(85.096875 243.727969) scale(0.1 -0.1)">
       <use xlink:href="#DejaVuSans-32"/>
       <use xlink:href="#DejaVuSans-2e" transform="translate(63.623047 0)"/>
       <use xlink:href="#DejaVuSans-35" transform="translate(95.410156 0)"/>
      </g>
     </g>
    </g>
    <g id="ytick_5">
     <g id="line2d_23">
      <path d="M 108 197.74125 
L 777.6 197.74125 
" clip-path="url(#pe2b1cbc38f)" style="fill: none; stroke-dasharray: 2.96,1.28; stroke-dashoffset: 0; stroke: #b0b0b0; stroke-opacity: 0.5; stroke-width: 0.8"/>
     </g>
     <g id="line2d_24">
      <g>
       <use xlink:href="#mea4358faf5" x="108" y="197.74125" style="stroke: #000000; stroke-width: 0.8"/>
      </g>
     </g>
     <g id="text_12">
      <!-- 5.0 -->
      <g transform="translate(85.096875 201.540469) scale(0.1 -0.1)">
       <use xlink:href="#DejaVuSans-35"/>
       <use xlink:href="#DejaVuSans-2e" transform="translate(63.623047 0)"/>
       <use xlink:href="#DejaVuSans-30" transform="translate(95.410156 0)"/>
      </g>
     </g>
    </g>
    <g id="ytick_6">
     <g id="line2d_25">
      <path d="M 108 155.55375 
L 777.6 155.55375 
" clip-path="url(#pe2b1cbc38f)" style="fill: none; stroke-dasharray: 2.96,1.28; stroke-dashoffset: 0; stroke: #b0b0b0; stroke-opacity: 0.5; stroke-width: 0.8"/>
     </g>
     <g id="line2d_26">
      <g>
       <use xlink:href="#mea4358faf5" x="108" y="155.55375" style="stroke: #000000; stroke-width: 0.8"/>
      </g>
     </g>
     <g id="text_13">
      <!-- 7.5 -->
      <g transform="translate(85.096875 159.352969) scale(0.1 -0.1)">
       <defs>
        <path id="DejaVuSans-37" d="M 525 4666 
L 3525 4666 
L 3525 4397 
L 1831 0 
L 1172 0 
L 2766 4134 
L 525 4134 
L 525 4666 
z
" transform="scale(0.015625)"/>
       </defs>
       <use xlink:href="#DejaVuSans-37"/>
       <use xlink:href="#DejaVuSans-2e" transform="translate(63.623047 0)"/>
       <use xlink:href="#DejaVuSans-35" transform="translate(95.410156 0)"/>
      </g>
     </g>
    </g>
    <g id="ytick_7">
     <g id="line2d_27">
      <path d="M 108 113.36625 
L 777.6 113.36625 
" clip-path="url(#pe2b1cbc38f)" style="fill: none; stroke-dasharray: 2.96,1.28; stroke-dashoffset: 0; stroke: #b0b0b0; stroke-opacity: 0.5; stroke-width: 0.8"/>
     </g>
     <g id="line2d_28">
      <g>
       <use xlink:href="#mea4358faf5" x="108" y="113.36625" style="stroke: #000000; stroke-width: 0.8"/>
      </g>
     </g>
     <g id="text_14">
      <!-- 10.0 -->
      <g transform="translate(78.734375 117.165469) scale(0.1 -0.1)">
       <use xlink:href="#DejaVuSans-31"/>
       <use xlink:href="#DejaVuSans-30" transform="translate(63.623047 0)"/>
       <use xlink:href="#DejaVuSans-2e" transform="translate(127.246094 0)"/>
       <use xlink:href="#DejaVuSans-30" transform="translate(159.033203 0)"/>
      </g>
     </g>
    </g>
    <g id="ytick_8">
     <g id="line2d_29">
      <path d="M 108 71.17875 
L 777.6 71.17875 
" clip-path="url(#pe2b1cbc38f)" style="fill: none; stroke-dasharray: 2.96,1.28; stroke-dashoffset: 0; stroke: #b0b0b0; stroke-opacity: 0.5; stroke-width: 0.8"/>
     </g>
     <g id="line2d_30">
      <g>
       <use xlink:href="#mea4358faf5" x="108" y="71.17875" style="stroke: #000000; stroke-width: 0.8"/>
      </g>
     </g>
     <g id="text_15">
      <!-- 12.5 -->
      <g transform="translate(78.734375 74.977969) scale(0.1 -0.1)">
       <use xlink:href="#DejaVuSans-31"/>
       <use xlink:href="#DejaVuSans-32" transform="translate(63.623047 0)"/>
       <use xlink:href="#DejaVuSans-2e" transform="translate(127.246094 0)"/>
       <use xlink:href="#DejaVuSans-35" transform="translate(159.033203 0)"/>
      </g>
     </g>
    </g>
   </g>
   <g id="line2d_31">
    <path d="M 138.436364 280.76625 
L 142.093848 279.07875 
L 145.873248 278.91 
L 149.530732 278.40375 
L 153.310132 280.09125 
L 157.089533 277.56 
L 160.747017 277.72875 
L 164.526417 276.71625 
L 168.183901 273.51 
L 171.963301 274.5225 
L 175.742702 274.86 
L 179.27827 278.06625 
L 183.05767 279.585 
L 186.715154 277.56 
L 190.494554 278.40375 
L 194.152038 276.885 
L 197.931439 278.40375 
L 201.710839 279.07875 
L 205.368323 278.235 
L 209.147723 281.2725 
L 212.805207 280.09125 
L 216.584608 275.02875 
L 220.364008 273.51 
L 223.77766 277.05375 
L 227.55706 280.76625 
L 231.214544 278.74125 
L 234.993944 279.9225 
L 238.651428 281.61 
L 242.430829 280.5975 
L 246.210229 276.71625 
L 249.867713 278.91 
L 253.647113 279.75375 
L 257.304597 276.5475 
L 261.083998 267.7725 
L 264.863398 277.39125 
L 268.27705 278.5725 
L 272.05645 277.2225 
L 275.713934 280.5975 
L 279.493334 278.5725 
L 283.150818 278.91 
L 286.930219 278.5725 
L 290.709619 277.2225 
L 294.367103 279.2475 
L 298.146503 279.41625 
L 301.803987 278.235 
L 305.583388 282.6225 
L 309.362788 276.37875 
L 312.77644 277.72875 
L 316.55584 279.41625 
L 320.213324 280.09125 
L 323.992724 278.5725 
L 327.650208 279.2475 
L 331.429609 278.74125 
L 335.209009 275.8725 
L 338.866493 277.8975 
L 342.645893 281.44125 
L 346.303377 276.885 
L 350.082778 278.91 
L 353.862178 276.04125 
L 357.397746 276.04125 
L 361.177146 278.40375 
L 364.83463 278.5725 
L 368.614031 277.8975 
L 372.271515 279.2475 
L 376.050915 278.91 
L 379.830315 274.01625 
L 383.487799 277.39125 
L 387.2672 278.40375 
L 390.924684 274.5225 
L 394.704084 272.32875 
L 398.483484 269.29125 
L 401.897136 272.4975 
L 405.676536 274.5225 
L 409.33402 277.39125 
L 413.113421 277.05375 
L 416.770905 277.56 
L 420.550305 277.8975 
L 424.329705 277.39125 
L 427.987189 277.8975 
L 431.76659 276.37875 
L 435.424074 275.02875 
L 439.203474 277.39125 
L 442.982874 273.8475 
L 450.175926 279.585 
L 453.83341 277.72875 
L 457.612811 278.235 
L 461.270295 277.2225 
L 465.049695 277.8975 
L 468.829095 276.71625 
L 472.486579 276.885 
L 476.26598 277.8975 
L 479.923464 274.185 
L 483.702864 278.74125 
L 487.482264 274.86 
L 490.895916 276.37875 
L 494.675316 274.35375 
L 498.3328 279.41625 
L 502.112201 277.05375 
L 505.769685 277.72875 
L 509.549085 278.74125 
L 513.328485 277.05375 
L 516.985969 277.8975 
L 520.76537 278.40375 
L 524.422854 275.1975 
L 528.202254 276.5475 
L 531.981654 276.04125 
L 535.517222 277.2225 
L 539.296623 276.04125 
L 542.954107 277.05375 
L 546.733507 275.8725 
L 550.390991 275.36625 
L 554.170391 276.71625 
L 557.949792 276.71625 
L 561.607276 278.06625 
L 565.386676 283.46625 
L 569.04416 272.835 
L 572.82356 276.04125 
L 576.602961 275.535 
L 580.016612 273.00375 
L 583.796013 275.8725 
L 587.453497 273.1725 
L 591.232897 272.4975 
L 594.890381 274.01625 
L 598.669781 274.86 
L 606.106666 273.8475 
L 609.886066 275.8725 
L 613.54355 268.61625 
L 617.32295 271.65375 
L 621.102351 269.29125 
L 624.516002 269.96625 
L 628.295403 268.95375 
L 631.952887 272.16 
L 635.732287 269.1225 
L 639.389771 271.65375 
L 643.169171 268.61625 
L 646.948572 270.81 
L 650.606056 271.485 
L 654.385456 274.5225 
L 658.04294 271.1475 
L 661.82234 270.135 
L 669.015392 273.34125 
L 672.794793 275.535 
L 676.452277 276.71625 
L 680.231677 277.05375 
L 683.889161 275.535 
L 687.668561 277.56 
L 691.447962 276.04125 
L 695.105446 275.535 
L 698.884846 277.72875 
L 702.54233 274.69125 
L 706.32173 275.36625 
L 710.101131 273.8475 
L 713.636699 274.69125 
L 717.416099 278.5725 
L 721.073583 279.2475 
L 724.852983 278.40375 
L 728.510467 276.71625 
L 732.289868 278.40375 
L 736.069268 277.39125 
L 739.726752 277.39125 
L 743.506152 281.2725 
L 747.163636 273.51 
L 747.163636 273.51 
" clip-path="url(#pe2b1cbc38f)" style="fill: none; stroke: #a6cee3; stroke-width: 1.5; stroke-linecap: square"/>
   </g>
   <g id="line2d_32">
    <path d="M 138.436364 261.19125 
L 142.093848 258.15375 
L 145.873248 254.77875 
L 149.530732 251.06625 
L 153.310132 248.8725 
L 160.747017 239.92875 
L 164.526417 234.36 
L 168.183901 225.585 
L 171.963301 274.5225 
L 175.742702 267.26625 
L 179.27827 263.21625 
L 183.05767 260.685 
L 186.715154 256.12875 
L 190.494554 252.41625 
L 194.152038 247.01625 
L 197.931439 243.135 
L 201.710839 240.0975 
L 205.368323 236.21625 
L 209.147723 235.20375 
L 212.805207 233.17875 
L 216.584608 275.02875 
L 220.364008 266.25375 
L 223.77766 261.19125 
L 227.55706 259.84125 
L 231.214544 256.46625 
L 234.993944 254.2725 
L 238.651428 253.5975 
L 242.430829 252.07875 
L 246.210229 246.51 
L 249.867713 243.30375 
L 253.647113 240.94125 
L 257.304597 235.20375 
L 261.083998 267.7725 
L 264.863398 262.87875 
L 268.27705 259.335 
L 272.05645 254.2725 
L 275.713934 252.75375 
L 279.493334 249.04125 
L 283.150818 245.835 
L 286.930219 242.1225 
L 290.709619 237.06 
L 298.146503 231.3225 
L 301.803987 227.44125 
L 305.583388 282.6225 
L 309.362788 276.885 
L 312.77644 272.4975 
L 316.55584 269.7975 
L 320.213324 267.94125 
L 323.992724 264.3975 
L 327.650208 261.36 
L 331.429609 257.985 
L 335.209009 251.5725 
L 338.866493 247.35375 
L 342.645893 246.67875 
L 346.303377 241.4475 
L 350.082778 278.91 
L 353.862178 272.835 
L 357.397746 266.76 
L 364.83463 259.335 
L 368.614031 254.9475 
L 372.271515 252.07875 
L 376.050915 248.70375 
L 379.830315 240.60375 
L 383.487799 235.71 
L 387.2672 231.82875 
L 390.924684 224.06625 
L 394.704084 272.32875 
L 398.483484 259.335 
L 401.897136 249.5475 
L 405.676536 241.785 
L 409.33402 237.06 
L 413.113421 231.82875 
L 416.770905 227.10375 
L 420.550305 222.71625 
L 424.329705 217.8225 
L 427.987189 213.435 
L 431.76659 207.36 
L 435.424074 199.935 
L 439.203474 277.39125 
L 442.982874 269.1225 
L 446.396526 263.385 
L 450.175926 261.0225 
L 453.83341 256.635 
L 457.612811 252.585 
L 461.270295 247.69125 
L 465.049695 243.4725 
L 472.486579 232.50375 
L 476.26598 228.11625 
L 479.923464 220.01625 
L 483.702864 278.74125 
L 487.482264 271.485 
L 490.895916 265.57875 
L 494.675316 257.81625 
L 498.3328 255.11625 
L 502.112201 249.885 
L 505.769685 245.32875 
L 509.549085 241.785 
L 513.328485 236.7225 
L 516.985969 232.50375 
L 520.76537 228.6225 
L 524.422854 221.535 
L 528.202254 276.5475 
L 531.981654 270.4725 
L 535.517222 265.41 
L 539.296623 259.335 
L 542.954107 254.2725 
L 546.733507 247.86 
L 550.390991 241.11 
L 557.949792 230.14125 
L 561.607276 225.9225 
L 565.386676 227.44125 
L 569.04416 217.99125 
L 572.82356 276.04125 
L 576.602961 269.46 
L 580.016612 260.17875 
L 583.796013 253.935 
L 587.453497 244.99125 
L 591.232897 235.035 
L 594.890381 226.76625 
L 598.669781 219.34125 
L 602.449182 211.41 
L 606.106666 202.635 
L 609.886066 196.2225 
L 613.54355 181.87875 
L 617.32295 271.65375 
L 621.102351 258.82875 
L 628.295403 233.17875 
L 631.952887 223.05375 
L 635.732287 209.55375 
L 639.389771 198.585 
L 643.169171 184.41 
L 650.606056 161.1225 
L 654.385456 153.0225 
L 658.04294 141.21 
L 661.82234 270.135 
L 665.601741 259.6725 
L 669.015392 250.72875 
L 672.794793 243.97875 
L 676.452277 238.41 
L 680.231677 233.3475 
L 683.889161 226.42875 
L 687.668561 221.70375 
L 691.447962 215.46 
L 695.105446 208.71 
L 698.884846 203.985 
L 702.54233 196.2225 
L 706.32173 275.36625 
L 710.101131 266.92875 
L 713.636699 259.50375 
L 717.416099 255.96 
L 721.073583 252.9225 
L 724.852983 249.21 
L 728.510467 243.81 
L 732.289868 239.92875 
L 739.726752 230.14125 
L 743.506152 229.2975 
L 747.163636 220.5225 
L 747.163636 220.5225 
" clip-path="url(#pe2b1cbc38f)" style="fill: none; stroke: #1f78b4; stroke-width: 1.5; stroke-linecap: square"/>
   </g>
   <g id="line2d_33">
    <path d="M 138.436364 228.45375 
L 142.093848 229.46625 
L 145.873248 228.45375 
L 149.530732 228.285 
L 153.310132 227.77875 
L 157.089533 229.46625 
L 160.747017 228.285 
L 164.526417 226.76625 
L 168.183901 225.585 
L 171.963301 225.75375 
L 175.742702 225.2475 
L 179.27827 226.26 
L 183.05767 224.91 
L 186.715154 223.39125 
L 190.494554 223.05375 
L 194.152038 221.535 
L 197.931439 219.67875 
L 201.710839 221.1975 
L 205.368323 221.70375 
L 209.147723 226.42875 
L 212.805207 233.17875 
L 216.584608 233.51625 
L 220.364008 232.16625 
L 223.77766 231.15375 
L 231.214544 233.51625 
L 234.993944 235.035 
L 238.651428 239.92875 
L 242.430829 242.1225 
L 246.210229 239.59125 
L 249.867713 240.26625 
L 253.647113 238.91625 
L 257.304597 235.20375 
L 261.083998 227.9475 
L 264.863398 231.82875 
L 268.27705 233.3475 
L 272.05645 229.635 
L 275.713934 231.49125 
L 279.493334 229.9725 
L 283.150818 227.2725 
L 286.930219 225.2475 
L 290.709619 225.75375 
L 294.367103 226.09125 
L 298.146503 225.75375 
L 301.803987 227.44125 
L 305.583388 242.62875 
L 312.77644 240.7725 
L 316.55584 243.135 
L 320.213324 242.7975 
L 323.992724 242.7975 
L 327.650208 243.135 
L 331.429609 243.30375 
L 335.209009 241.95375 
L 338.866493 240.435 
L 342.645893 242.62875 
L 346.303377 241.4475 
L 350.082778 237.56625 
L 353.862178 237.22875 
L 357.397746 235.54125 
L 361.177146 234.36 
L 364.83463 232.6725 
L 368.614031 231.9975 
L 372.271515 231.9975 
L 376.050915 232.16625 
L 379.830315 230.31 
L 383.487799 229.80375 
L 387.2672 226.5975 
L 390.924684 224.06625 
L 394.704084 217.31625 
L 398.483484 210.22875 
L 405.676536 202.46625 
L 409.33402 201.45375 
L 413.113421 200.61 
L 416.770905 198.75375 
L 420.550305 197.74125 
L 424.329705 201.11625 
L 427.987189 201.6225 
L 431.76659 199.42875 
L 435.424074 199.935 
L 439.203474 205.16625 
L 442.982874 210.06 
L 446.396526 214.27875 
L 450.175926 219.51 
L 453.83341 219.8475 
L 457.612811 221.02875 
L 461.270295 220.86 
L 465.049695 220.86 
L 468.829095 220.185 
L 472.486579 219.1725 
L 476.26598 220.86 
L 479.923464 220.01625 
L 483.702864 221.36625 
L 487.482264 222.37875 
L 490.895916 222.21 
L 494.675316 216.81 
L 498.3328 218.4975 
L 502.112201 217.1475 
L 505.769685 217.65375 
L 509.549085 218.32875 
L 513.328485 218.835 
L 516.985969 220.01625 
L 520.76537 220.5225 
L 524.422854 221.535 
L 528.202254 219.1725 
L 535.517222 221.36625 
L 539.296623 223.05375 
L 542.954107 220.69125 
L 546.733507 219.51 
L 550.390991 217.1475 
L 554.170391 215.1225 
L 557.949792 214.785 
L 561.607276 214.95375 
L 565.386676 220.35375 
L 569.04416 217.99125 
L 572.82356 217.31625 
L 576.602961 216.81 
L 580.016612 212.59125 
L 583.796013 212.4225 
L 587.453497 208.3725 
L 591.232897 204.82875 
L 594.890381 203.47875 
L 598.669781 201.45375 
L 602.449182 199.09125 
L 606.106666 194.535 
L 609.886066 186.435 
L 617.32295 177.3225 
L 621.102351 170.91 
L 624.516002 167.70375 
L 628.295403 160.27875 
L 631.952887 159.26625 
L 635.732287 155.7225 
L 639.389771 153.0225 
L 643.169171 146.2725 
L 646.948572 142.39125 
L 650.606056 140.02875 
L 654.385456 138.51 
L 658.04294 141.21 
L 661.82234 139.5225 
L 665.601741 142.2225 
L 669.015392 145.5975 
L 672.794793 152.685 
L 676.452277 157.41 
L 680.231677 165.8475 
L 683.889161 170.06625 
L 687.668561 179.51625 
L 691.447962 184.91625 
L 695.105446 189.30375 
L 698.884846 192.67875 
L 702.54233 196.2225 
L 706.32173 201.79125 
L 710.101131 203.81625 
L 713.636699 205.335 
L 717.416099 208.3725 
L 721.073583 211.0725 
L 728.510467 213.7725 
L 732.289868 214.61625 
L 736.069268 216.135 
L 739.726752 217.99125 
L 743.506152 221.70375 
L 747.163636 220.5225 
L 747.163636 220.5225 
" clip-path="url(#pe2b1cbc38f)" style="fill: none; stroke: #b2df8a; stroke-width: 1.5; stroke-linecap: square"/>
   </g>
   <g id="line2d_34">
    <path d="M 138.436364 286.84125 
L 142.093848 346.24125 
L 145.873248 293.92875 
L 149.530732 258.82875 
L 153.310132 277.2225 
L 157.089533 279.2475 
L 160.747017 246.34125 
L 164.526417 220.185 
L 168.183901 250.72875 
L 171.963301 255.96 
L 175.742702 290.7225 
L 179.27827 291.3975 
L 183.05767 313.16625 
L 186.715154 320.25375 
L 190.494554 260.17875 
L 194.152038 258.3225 
L 197.931439 272.835 
L 201.710839 259.84125 
L 205.368323 258.15375 
L 209.147723 236.0475 
L 212.805207 272.32875 
L 216.584608 276.5475 
L 220.364008 274.69125 
L 223.77766 246.51 
L 231.214544 316.71 
L 234.993944 293.76 
L 238.651428 286.50375 
L 242.430829 266.25375 
L 246.210229 272.835 
L 249.867713 258.3225 
L 253.647113 222.37875 
L 257.304597 259.335 
L 261.083998 264.90375 
L 264.863398 279.2475 
L 268.27705 274.35375 
L 272.05645 310.2975 
L 275.713934 309.79125 
L 279.493334 281.44125 
L 283.150818 272.66625 
L 286.930219 268.11 
L 290.709619 266.59125 
L 294.367103 251.91 
L 298.146503 234.36 
L 301.803987 260.51625 
L 305.583388 286.6725 
L 309.362788 286.6725 
L 312.77644 267.7725 
L 316.55584 307.5975 
L 320.213324 322.61625 
L 323.992724 281.44125 
L 327.650208 280.935 
L 331.429609 278.06625 
L 335.209009 275.535 
L 338.866493 259.335 
L 342.645893 245.835 
L 346.303377 269.96625 
L 350.082778 265.91625 
L 353.862178 270.64125 
L 357.397746 290.385 
L 361.177146 315.19125 
L 364.83463 324.4725 
L 368.614031 288.0225 
L 372.271515 272.835 
L 376.050915 272.32875 
L 379.830315 264.56625 
L 383.487799 254.2725 
L 387.2672 239.25375 
L 390.924684 273.51 
L 394.704084 195.37875 
L 398.483484 281.61 
L 401.897136 269.7975 
L 405.676536 296.29125 
L 409.33402 304.05375 
L 413.113421 280.5975 
L 416.770905 269.96625 
L 420.550305 261.52875 
L 424.329705 275.1975 
L 427.987189 252.41625 
L 431.76659 230.47875 
L 435.424074 263.7225 
L 439.203474 261.19125 
L 442.982874 280.76625 
L 446.396526 277.05375 
L 450.175926 311.14125 
L 453.83341 305.40375 
L 457.612811 267.94125 
L 461.270295 260.685 
L 465.049695 254.9475 
L 468.829095 269.7975 
L 472.486579 262.71 
L 476.26598 237.22875 
L 479.923464 258.66 
L 483.702864 286.335 
L 487.482264 305.40375 
L 490.895916 273.51 
L 494.675316 301.5225 
L 498.3328 310.12875 
L 502.112201 293.59125 
L 505.769685 269.62875 
L 509.549085 293.92875 
L 513.328485 279.585 
L 516.985969 257.47875 
L 520.76537 237.90375 
L 524.422854 265.24125 
L 528.202254 265.91625 
L 531.981654 272.4975 
L 535.517222 300.00375 
L 539.296623 369.36 
L 542.954107 270.97875 
L 546.733507 263.21625 
L 550.390991 257.14125 
L 554.170391 271.485 
L 557.949792 282.79125 
L 561.607276 252.2475 
L 565.386676 272.66625 
L 569.04416 284.31 
L 572.82356 241.61625 
L 576.602961 259.16625 
L 580.016612 253.5975 
L 583.796013 278.5725 
L 587.453497 294.7725 
L 591.232897 275.02875 
L 594.890381 266.4225 
L 598.669781 290.89125 
L 602.449182 263.55375 
L 606.106666 250.56 
L 609.886066 223.8975 
L 613.54355 297.30375 
L 617.32295 273.34125 
L 621.102351 264.56625 
L 624.516002 251.91 
L 628.295403 284.47875 
L 631.952887 299.32875 
L 635.732287 264.06 
L 639.389771 263.7225 
L 643.169171 275.535 
L 646.948572 274.185 
L 650.606056 275.70375 
L 654.385456 266.25375 
L 658.04294 288.86625 
L 661.82234 272.4975 
L 665.601741 275.36625 
L 669.015392 290.55375 
L 672.794793 303.21 
L 676.452277 313.84125 
L 683.889161 269.1225 
L 687.668561 257.81625 
L 691.447962 270.30375 
L 695.105446 276.37875 
L 698.884846 251.5725 
L 702.54233 256.2975 
L 706.32173 242.1225 
L 710.101131 300.67875 
L 713.636699 284.81625 
L 717.416099 279.07875 
L 721.073583 303.71625 
L 724.852983 267.435 
L 728.510467 226.5975 
L 732.289868 293.92875 
L 736.069268 294.26625 
L 739.726752 257.47875 
L 743.506152 252.9225 
L 747.163636 282.79125 
L 747.163636 282.79125 
" clip-path="url(#pe2b1cbc38f)" style="fill: none; stroke: #33a02c; stroke-width: 1.5; stroke-linecap: square"/>
   </g>
   <g id="line2d_35">
    <path d="M 138.436364 275.36625 
L 142.093848 339.82875 
L 145.873248 351.135 
L 149.530732 328.86 
L 153.310132 323.96625 
L 157.089533 321.26625 
L 160.747017 286.16625 
L 164.526417 224.5725 
L 168.183901 192.00375 
L 171.963301 255.96 
L 175.742702 264.735 
L 179.27827 274.01625 
L 183.05767 305.235 
L 186.715154 342.6975 
L 190.494554 321.60375 
L 194.152038 298.31625 
L 197.931439 289.035 
L 201.710839 266.92875 
L 205.368323 242.62875 
L 209.147723 195.5475 
L 212.805207 185.25375 
L 216.584608 276.5475 
L 220.364008 268.95375 
L 223.77766 233.17875 
L 227.55706 233.17875 
L 231.214544 268.61625 
L 234.993944 280.42875 
L 238.651428 284.6475 
L 242.430829 268.95375 
L 246.210229 259.50375 
L 249.867713 235.3725 
L 253.647113 174.11625 
L 257.304597 149.81625 
L 261.083998 264.90375 
L 264.863398 262.035 
L 268.27705 254.2725 
L 275.713934 310.635 
L 279.493334 309.79125 
L 283.150818 300.51 
L 286.930219 286.6725 
L 290.709619 271.1475 
L 294.367103 240.7725 
L 298.146503 191.835 
L 301.803987 169.05375 
L 305.583388 286.6725 
L 309.362788 291.06 
L 312.77644 276.885 
L 316.55584 302.535 
L 320.213324 342.52875 
L 323.992724 342.0225 
L 327.650208 340.84125 
L 331.429609 336.96 
L 335.209009 330.5475 
L 338.866493 308.44125 
L 342.645893 272.66625 
L 346.303377 260.51625 
L 350.082778 265.91625 
L 353.862178 254.44125 
L 357.397746 262.87875 
L 361.177146 296.1225 
L 364.83463 338.14125 
L 368.614031 343.87875 
L 376.050915 325.485 
L 379.830315 308.2725 
L 383.487799 280.935 
L 387.2672 238.0725 
L 390.924684 229.2975 
L 394.704084 195.37875 
L 398.483484 194.70375 
L 401.897136 181.71 
L 405.676536 196.8975 
L 409.33402 219.8475 
L 413.113421 218.32875 
L 416.770905 205.84125 
L 420.550305 184.24125 
L 424.329705 176.985 
L 427.987189 145.42875 
L 431.76659 89.5725 
L 435.424074 69.15375 
L 439.203474 261.19125 
L 442.982874 259.84125 
L 446.396526 254.61 
L 450.175926 284.14125 
L 453.83341 307.42875 
L 457.612811 293.4225 
L 461.270295 272.16 
L 465.049695 244.8225 
L 468.829095 232.16625 
L 472.486579 212.25375 
L 476.26598 165.51 
L 479.923464 140.36625 
L 483.702864 286.335 
L 487.482264 309.45375 
L 490.895916 301.01625 
L 494.675316 320.25375 
L 498.3328 347.59125 
L 502.112201 358.56 
L 505.769685 346.57875 
L 509.549085 358.05375 
L 513.328485 355.5225 
L 516.985969 331.8975 
L 520.76537 289.035 
L 524.422854 272.16 
L 528.202254 265.91625 
L 531.981654 256.2975 
L 535.517222 274.5225 
L 539.296623 362.10375 
L 542.954107 351.30375 
L 546.733507 333.2475 
L 550.390991 309.11625 
L 554.170391 298.485 
L 557.949792 299.16 
L 561.607276 269.62875 
L 565.386676 260.01 
L 569.04416 262.20375 
L 572.82356 241.61625 
L 576.602961 218.16 
L 580.016612 188.46 
L 583.796013 184.91625 
L 587.453497 198.2475 
L 591.232897 190.8225 
L 594.890381 174.285 
L 598.669781 183.56625 
L 602.449182 163.99125 
L 606.106666 130.24125 
L 609.886066 66.96 
L 613.54355 84.00375 
L 617.32295 273.34125 
L 621.102351 255.79125 
L 624.516002 224.91 
L 628.295403 227.44125 
L 631.952887 245.32875 
L 635.732287 226.935 
L 639.389771 207.86625 
L 643.169171 201.11625 
L 646.948572 192.67875 
L 650.606056 185.92875 
L 654.385456 169.05375 
L 658.04294 176.31 
L 661.82234 272.4975 
L 665.601741 265.7475 
L 669.015392 274.185 
L 672.794793 295.4475 
L 676.452277 327.00375 
L 680.231677 335.61 
L 683.889161 322.95375 
L 687.668561 299.16 
L 691.447962 287.51625 
L 695.105446 281.77875 
L 698.884846 251.235 
L 702.54233 224.91 
L 706.32173 242.1225 
L 710.101131 261.0225 
L 713.636699 263.7225 
L 717.416099 260.685 
L 721.073583 282.45375 
L 724.852983 267.7725 
L 728.510467 211.91625 
L 736.069268 236.7225 
L 739.726752 211.57875 
L 743.506152 181.20375 
L 747.163636 181.71 
L 747.163636 181.71 
" clip-path="url(#pe2b1cbc38f)" style="fill: none; stroke: #fb9a99; stroke-width: 1.5; stroke-linecap: square"/>
   </g>
   <g id="line2d_36">
    <path d="M 138.436364 216.30375 
L 142.093848 223.8975 
L 145.873248 225.75375 
L 149.530732 206.01 
L 153.310132 216.30375 
L 157.089533 231.82875 
L 160.747017 229.9725 
L 164.526417 212.4225 
L 168.183901 192.00375 
L 171.963301 174.45375 
L 175.742702 188.7975 
L 179.27827 195.71625 
L 183.05767 223.2225 
L 186.715154 195.21 
L 190.494554 159.60375 
L 194.152038 158.92875 
L 197.931439 154.20375 
L 201.710839 133.4475 
L 205.368323 145.935 
L 209.147723 162.4725 
L 212.805207 185.25375 
L 216.584608 206.685 
L 220.364008 189.81 
L 223.77766 142.2225 
L 227.55706 107.96625 
L 231.214544 103.91625 
L 234.993944 140.535 
L 238.651428 170.74125 
L 242.430829 163.8225 
L 246.210229 177.49125 
L 249.867713 177.82875 
L 257.304597 149.81625 
L 261.083998 137.32875 
L 264.863398 142.39125 
L 268.27705 171.75375 
L 272.05645 201.96 
L 275.713934 194.535 
L 279.493334 181.54125 
L 283.150818 166.86 
L 286.930219 168.71625 
L 290.709619 162.135 
L 294.367103 155.385 
L 298.146503 167.70375 
L 301.803987 169.05375 
L 305.583388 192.00375 
L 309.362788 199.76625 
L 312.77644 192.8475 
L 316.55584 189.97875 
L 320.213324 203.81625 
L 323.992724 203.985 
L 327.650208 212.59125 
L 331.429609 222.885 
L 335.209009 232.16625 
L 338.866493 239.59125 
L 342.645893 251.06625 
L 346.303377 260.51625 
L 350.082778 239.59125 
L 353.862178 223.2225 
L 357.397746 246.34125 
L 361.177146 254.10375 
L 364.83463 255.96 
L 368.614031 262.54125 
L 372.271515 254.2725 
L 376.050915 248.535 
L 379.830315 237.3975 
L 383.487799 232.335 
L 387.2672 225.75375 
L 390.924684 229.2975 
L 394.704084 157.24125 
L 398.483484 168.885 
L 401.897136 146.77875 
L 405.676536 126.0225 
L 409.33402 103.24125 
L 413.113421 94.9725 
L 416.770905 91.935 
L 420.550305 79.95375 
L 424.329705 91.76625 
L 427.987189 89.74125 
L 431.76659 80.1225 
L 435.424074 69.15375 
L 439.203474 139.69125 
L 442.982874 138.8475 
L 446.396526 146.61 
L 450.175926 162.81 
L 453.83341 164.16 
L 457.612811 150.66 
L 461.270295 140.70375 
L 465.049695 133.61625 
L 468.829095 127.71 
L 472.486579 138.67875 
L 476.26598 145.935 
L 479.923464 140.36625 
L 487.482264 193.5225 
L 490.895916 189.81 
L 494.675316 179.51625 
L 498.3328 184.57875 
L 502.112201 211.41 
L 505.769685 220.69125 
L 509.549085 260.51625 
L 513.328485 270.135 
L 516.985969 265.0725 
L 520.76537 265.57875 
L 524.422854 272.16 
L 528.202254 251.5725 
L 531.981654 217.8225 
L 535.517222 245.16 
L 539.296623 315.19125 
L 542.954107 276.21 
L 546.733507 245.66625 
L 550.390991 232.84125 
L 554.170391 209.55375 
L 557.949792 212.92875 
L 561.607276 207.52875 
L 565.386676 242.7975 
L 569.04416 262.20375 
L 572.82356 237.735 
L 576.602961 224.235 
L 580.016612 175.635 
L 583.796013 73.87875 
L 587.453497 100.54125 
L 591.232897 113.36625 
L 594.890381 123.66 
L 598.669781 144.75375 
L 602.449182 123.9975 
L 606.106666 122.31 
L 609.886066 69.3225 
L 613.54355 84.00375 
L 617.32295 118.76625 
L 621.102351 124.50375 
L 624.516002 122.6475 
L 628.295403 129.06 
L 631.952887 134.1225 
L 635.732287 122.31 
L 639.389771 119.2725 
L 643.169171 102.3975 
L 646.948572 114.04125 
L 650.606056 141.04125 
L 654.385456 185.4225 
L 658.04294 176.31 
L 661.82234 175.46625 
L 665.601741 186.7725 
L 669.015392 226.935 
L 672.794793 246.34125 
L 676.452277 261.19125 
L 680.231677 288.19125 
L 683.889161 293.4225 
L 687.668561 275.8725 
L 691.447962 271.99125 
L 695.105446 272.66625 
L 698.884846 257.985 
L 702.54233 224.91 
L 706.32173 193.69125 
L 710.101131 220.185 
L 713.636699 214.11 
L 717.416099 188.62875 
L 721.073583 177.66 
L 724.852983 152.685 
L 728.510467 107.29125 
L 732.289868 146.61 
L 736.069268 172.42875 
L 739.726752 152.51625 
L 743.506152 153.86625 
L 747.163636 181.71 
L 747.163636 181.71 
" clip-path="url(#pe2b1cbc38f)" style="fill: none; stroke: #e31a1c; stroke-width: 1.5; stroke-linecap: square"/>
   </g>
   <g id="patch_3">
    <path d="M 108 384.48 
L 108 51.84 
" style="fill: none; stroke: #000000; stroke-width: 0.8; stroke-linejoin: miter; stroke-linecap: square"/>
   </g>
   <g id="patch_4">
    <path d="M 777.6 384.48 
L 777.6 51.84 
" style="fill: none; stroke: #000000; stroke-width: 0.8; stroke-linejoin: miter; stroke-linecap: square"/>
   </g>
   <g id="patch_5">
    <path d="M 108 384.48 
L 777.6 384.48 
" style="fill: none; stroke: #000000; stroke-width: 0.8; stroke-linejoin: miter; stroke-linecap: square"/>
   </g>
   <g id="patch_6">
    <path d="M 108 51.84 
L 777.6 51.84 
" style="fill: none; stroke: #000000; stroke-width: 0.8; stroke-linejoin: miter; stroke-linecap: square"/>
   </g>
   <g id="text_16">
    <!-- Inflación -->
    <g transform="translate(408.702344 45.84) scale(0.14 -0.14)">
     <defs>
      <path id="DejaVuSans-Bold-49" d="M 588 4666 
L 1791 4666 
L 1791 0 
L 588 0 
L 588 4666 
z
" transform="scale(0.015625)"/>
      <path id="DejaVuSans-Bold-6e" d="M 4056 2131 
L 4056 0 
L 2931 0 
L 2931 347 
L 2931 1631 
Q 2931 2084 2911 2256 
Q 2891 2428 2841 2509 
Q 2775 2619 2662 2680 
Q 2550 2741 2406 2741 
Q 2056 2741 1856 2470 
Q 1656 2200 1656 1722 
L 1656 0 
L 538 0 
L 538 3500 
L 1656 3500 
L 1656 2988 
Q 1909 3294 2193 3439 
Q 2478 3584 2822 3584 
Q 3428 3584 3742 3212 
Q 4056 2841 4056 2131 
z
" transform="scale(0.015625)"/>
      <path id="DejaVuSans-Bold-66" d="M 2841 4863 
L 2841 4128 
L 2222 4128 
Q 1984 4128 1890 4042 
Q 1797 3956 1797 3744 
L 1797 3500 
L 2753 3500 
L 2753 2700 
L 1797 2700 
L 1797 0 
L 678 0 
L 678 2700 
L 122 2700 
L 122 3500 
L 678 3500 
L 678 3744 
Q 678 4316 997 4589 
Q 1316 4863 1984 4863 
L 2841 4863 
z
" transform="scale(0.015625)"/>
      <path id="DejaVuSans-Bold-6c" d="M 538 4863 
L 1656 4863 
L 1656 0 
L 538 0 
L 538 4863 
z
" transform="scale(0.015625)"/>
      <path id="DejaVuSans-Bold-61" d="M 2106 1575 
Q 1756 1575 1579 1456 
Q 1403 1338 1403 1106 
Q 1403 894 1545 773 
Q 1688 653 1941 653 
Q 2256 653 2472 879 
Q 2688 1106 2688 1447 
L 2688 1575 
L 2106 1575 
z
M 3816 1997 
L 3816 0 
L 2688 0 
L 2688 519 
Q 2463 200 2181 54 
Q 1900 -91 1497 -91 
Q 953 -91 614 226 
Q 275 544 275 1050 
Q 275 1666 698 1953 
Q 1122 2241 2028 2241 
L 2688 2241 
L 2688 2328 
Q 2688 2594 2478 2717 
Q 2269 2841 1825 2841 
Q 1466 2841 1156 2769 
Q 847 2697 581 2553 
L 581 3406 
Q 941 3494 1303 3539 
Q 1666 3584 2028 3584 
Q 2975 3584 3395 3211 
Q 3816 2838 3816 1997 
z
" transform="scale(0.015625)"/>
      <path id="DejaVuSans-Bold-63" d="M 3366 3391 
L 3366 2478 
Q 3138 2634 2908 2709 
Q 2678 2784 2431 2784 
Q 1963 2784 1702 2511 
Q 1441 2238 1441 1747 
Q 1441 1256 1702 982 
Q 1963 709 2431 709 
Q 2694 709 2930 787 
Q 3166 866 3366 1019 
L 3366 103 
Q 3103 6 2833 -42 
Q 2563 -91 2291 -91 
Q 1344 -91 809 395 
Q 275 881 275 1747 
Q 275 2613 809 3098 
Q 1344 3584 2291 3584 
Q 2566 3584 2833 3536 
Q 3100 3488 3366 3391 
z
" transform="scale(0.015625)"/>
      <path id="DejaVuSans-Bold-69" d="M 538 3500 
L 1656 3500 
L 1656 0 
L 538 0 
L 538 3500 
z
M 538 4863 
L 1656 4863 
L 1656 3950 
L 538 3950 
L 538 4863 
z
" transform="scale(0.015625)"/>
      <path id="DejaVuSans-Bold-f3" d="M 2203 2784 
Q 1831 2784 1636 2517 
Q 1441 2250 1441 1747 
Q 1441 1244 1636 976 
Q 1831 709 2203 709 
Q 2569 709 2762 976 
Q 2956 1244 2956 1747 
Q 2956 2250 2762 2517 
Q 2569 2784 2203 2784 
z
M 2203 3584 
Q 3106 3584 3614 3096 
Q 4122 2609 4122 1747 
Q 4122 884 3614 396 
Q 3106 -91 2203 -91 
Q 1297 -91 786 396 
Q 275 884 275 1747 
Q 275 2609 786 3096 
Q 1297 3584 2203 3584 
z
M 2694 5119 
L 3578 5119 
L 2425 3944 
L 1813 3944 
L 2694 5119 
z
" transform="scale(0.015625)"/>
     </defs>
     <use xlink:href="#DejaVuSans-Bold-49"/>
     <use xlink:href="#DejaVuSans-Bold-6e" transform="translate(37.207031 0)"/>
     <use xlink:href="#DejaVuSans-Bold-66" transform="translate(108.398438 0)"/>
     <use xlink:href="#DejaVuSans-Bold-6c" transform="translate(151.904297 0)"/>
     <use xlink:href="#DejaVuSans-Bold-61" transform="translate(186.181641 0)"/>
     <use xlink:href="#DejaVuSans-Bold-63" transform="translate(253.662109 0)"/>
     <use xlink:href="#DejaVuSans-Bold-69" transform="translate(312.939453 0)"/>
     <use xlink:href="#DejaVuSans-Bold-f3" transform="translate(347.216797 0)"/>
     <use xlink:href="#DejaVuSans-Bold-6e" transform="translate(415.917969 0)"/>
    </g>
   </g>
   <g id="legend_1">
    <g id="patch_7">
     <path d="M 113.6 128.9675 
L 288.51375 128.9675 
Q 290.11375 128.9675 290.11375 127.3675 
L 290.11375 57.44 
Q 290.11375 55.84 288.51375 55.84 
L 113.6 55.84 
Q 112 55.84 112 57.44 
L 112 127.3675 
Q 112 128.9675 113.6 128.9675 
z
" style="fill: #ffffff; opacity: 0.8; stroke: #cccccc; stroke-linejoin: miter"/>
    </g>
    <g id="line2d_37">
     <path d="M 115.2 62.31875 
L 123.2 62.31875 
L 131.2 62.31875 
" style="fill: none; stroke: #a6cee3; stroke-width: 1.5; stroke-linecap: square"/>
    </g>
    <g id="text_17">
     <!-- Subyacente, Mensual -->
     <g transform="translate(137.6 65.11875) scale(0.08 -0.08)">
      <defs>
       <path id="DejaVuSans-53" d="M 3425 4513 
L 3425 3897 
Q 3066 4069 2747 4153 
Q 2428 4238 2131 4238 
Q 1616 4238 1336 4038 
Q 1056 3838 1056 3469 
Q 1056 3159 1242 3001 
Q 1428 2844 1947 2747 
L 2328 2669 
Q 3034 2534 3370 2195 
Q 3706 1856 3706 1288 
Q 3706 609 3251 259 
Q 2797 -91 1919 -91 
Q 1588 -91 1214 -16 
Q 841 59 441 206 
L 441 856 
Q 825 641 1194 531 
Q 1563 422 1919 422 
Q 2459 422 2753 634 
Q 3047 847 3047 1241 
Q 3047 1584 2836 1778 
Q 2625 1972 2144 2069 
L 1759 2144 
Q 1053 2284 737 2584 
Q 422 2884 422 3419 
Q 422 4038 858 4394 
Q 1294 4750 2059 4750 
Q 2388 4750 2728 4690 
Q 3069 4631 3425 4513 
z
" transform="scale(0.015625)"/>
       <path id="DejaVuSans-75" d="M 544 1381 
L 544 3500 
L 1119 3500 
L 1119 1403 
Q 1119 906 1312 657 
Q 1506 409 1894 409 
Q 2359 409 2629 706 
Q 2900 1003 2900 1516 
L 2900 3500 
L 3475 3500 
L 3475 0 
L 2900 0 
L 2900 538 
Q 2691 219 2414 64 
Q 2138 -91 1772 -91 
Q 1169 -91 856 284 
Q 544 659 544 1381 
z
M 1991 3584 
L 1991 3584 
z
" transform="scale(0.015625)"/>
       <path id="DejaVuSans-62" d="M 3116 1747 
Q 3116 2381 2855 2742 
Q 2594 3103 2138 3103 
Q 1681 3103 1420 2742 
Q 1159 2381 1159 1747 
Q 1159 1113 1420 752 
Q 1681 391 2138 391 
Q 2594 391 2855 752 
Q 3116 1113 3116 1747 
z
M 1159 2969 
Q 1341 3281 1617 3432 
Q 1894 3584 2278 3584 
Q 2916 3584 3314 3078 
Q 3713 2572 3713 1747 
Q 3713 922 3314 415 
Q 2916 -91 2278 -91 
Q 1894 -91 1617 61 
Q 1341 213 1159 525 
L 1159 0 
L 581 0 
L 581 4863 
L 1159 4863 
L 1159 2969 
z
" transform="scale(0.015625)"/>
       <path id="DejaVuSans-79" d="M 2059 -325 
Q 1816 -950 1584 -1140 
Q 1353 -1331 966 -1331 
L 506 -1331 
L 506 -850 
L 844 -850 
Q 1081 -850 1212 -737 
Q 1344 -625 1503 -206 
L 1606 56 
L 191 3500 
L 800 3500 
L 1894 763 
L 2988 3500 
L 3597 3500 
L 2059 -325 
z
" transform="scale(0.015625)"/>
       <path id="DejaVuSans-61" d="M 2194 1759 
Q 1497 1759 1228 1600 
Q 959 1441 959 1056 
Q 959 750 1161 570 
Q 1363 391 1709 391 
Q 2188 391 2477 730 
Q 2766 1069 2766 1631 
L 2766 1759 
L 2194 1759 
z
M 3341 1997 
L 3341 0 
L 2766 0 
L 2766 531 
Q 2569 213 2275 61 
Q 1981 -91 1556 -91 
Q 1019 -91 701 211 
Q 384 513 384 1019 
Q 384 1609 779 1909 
Q 1175 2209 1959 2209 
L 2766 2209 
L 2766 2266 
Q 2766 2663 2505 2880 
Q 2244 3097 1772 3097 
Q 1472 3097 1187 3025 
Q 903 2953 641 2809 
L 641 3341 
Q 956 3463 1253 3523 
Q 1550 3584 1831 3584 
Q 2591 3584 2966 3190 
Q 3341 2797 3341 1997 
z
" transform="scale(0.015625)"/>
       <path id="DejaVuSans-63" d="M 3122 3366 
L 3122 2828 
Q 2878 2963 2633 3030 
Q 2388 3097 2138 3097 
Q 1578 3097 1268 2742 
Q 959 2388 959 1747 
Q 959 1106 1268 751 
Q 1578 397 2138 397 
Q 2388 397 2633 464 
Q 2878 531 3122 666 
L 3122 134 
Q 2881 22 2623 -34 
Q 2366 -91 2075 -91 
Q 1284 -91 818 406 
Q 353 903 353 1747 
Q 353 2603 823 3093 
Q 1294 3584 2113 3584 
Q 2378 3584 2631 3529 
Q 2884 3475 3122 3366 
z
" transform="scale(0.015625)"/>
       <path id="DejaVuSans-65" d="M 3597 1894 
L 3597 1613 
L 953 1613 
Q 991 1019 1311 708 
Q 1631 397 2203 397 
Q 2534 397 2845 478 
Q 3156 559 3463 722 
L 3463 178 
Q 3153 47 2828 -22 
Q 2503 -91 2169 -91 
Q 1331 -91 842 396 
Q 353 884 353 1716 
Q 353 2575 817 3079 
Q 1281 3584 2069 3584 
Q 2775 3584 3186 3129 
Q 3597 2675 3597 1894 
z
M 3022 2063 
Q 3016 2534 2758 2815 
Q 2500 3097 2075 3097 
Q 1594 3097 1305 2825 
Q 1016 2553 972 2059 
L 3022 2063 
z
" transform="scale(0.015625)"/>
       <path id="DejaVuSans-6e" d="M 3513 2113 
L 3513 0 
L 2938 0 
L 2938 2094 
Q 2938 2591 2744 2837 
Q 2550 3084 2163 3084 
Q 1697 3084 1428 2787 
Q 1159 2491 1159 1978 
L 1159 0 
L 581 0 
L 581 3500 
L 1159 3500 
L 1159 2956 
Q 1366 3272 1645 3428 
Q 1925 3584 2291 3584 
Q 2894 3584 3203 3211 
Q 3513 2838 3513 2113 
z
" transform="scale(0.015625)"/>
       <path id="DejaVuSans-74" d="M 1172 4494 
L 1172 3500 
L 2356 3500 
L 2356 3053 
L 1172 3053 
L 1172 1153 
Q 1172 725 1289 603 
Q 1406 481 1766 481 
L 2356 481 
L 2356 0 
L 1766 0 
Q 1100 0 847 248 
Q 594 497 594 1153 
L 594 3053 
L 172 3053 
L 172 3500 
L 594 3500 
L 594 4494 
L 1172 4494 
z
" transform="scale(0.015625)"/>
       <path id="DejaVuSans-2c" d="M 750 794 
L 1409 794 
L 1409 256 
L 897 -744 
L 494 -744 
L 750 256 
L 750 794 
z
" transform="scale(0.015625)"/>
       <path id="DejaVuSans-20" transform="scale(0.015625)"/>
       <path id="DejaVuSans-4d" d="M 628 4666 
L 1569 4666 
L 2759 1491 
L 3956 4666 
L 4897 4666 
L 4897 0 
L 4281 0 
L 4281 4097 
L 3078 897 
L 2444 897 
L 1241 4097 
L 1241 0 
L 628 0 
L 628 4666 
z
" transform="scale(0.015625)"/>
       <path id="DejaVuSans-73" d="M 2834 3397 
L 2834 2853 
Q 2591 2978 2328 3040 
Q 2066 3103 1784 3103 
Q 1356 3103 1142 2972 
Q 928 2841 928 2578 
Q 928 2378 1081 2264 
Q 1234 2150 1697 2047 
L 1894 2003 
Q 2506 1872 2764 1633 
Q 3022 1394 3022 966 
Q 3022 478 2636 193 
Q 2250 -91 1575 -91 
Q 1294 -91 989 -36 
Q 684 19 347 128 
L 347 722 
Q 666 556 975 473 
Q 1284 391 1588 391 
Q 1994 391 2212 530 
Q 2431 669 2431 922 
Q 2431 1156 2273 1281 
Q 2116 1406 1581 1522 
L 1381 1569 
Q 847 1681 609 1914 
Q 372 2147 372 2553 
Q 372 3047 722 3315 
Q 1072 3584 1716 3584 
Q 2034 3584 2315 3537 
Q 2597 3491 2834 3397 
z
" transform="scale(0.015625)"/>
       <path id="DejaVuSans-6c" d="M 603 4863 
L 1178 4863 
L 1178 0 
L 603 0 
L 603 4863 
z
" transform="scale(0.015625)"/>
      </defs>
      <use xlink:href="#DejaVuSans-53"/>
      <use xlink:href="#DejaVuSans-75" transform="translate(63.476562 0)"/>
      <use xlink:href="#DejaVuSans-62" transform="translate(126.855469 0)"/>
      <use xlink:href="#DejaVuSans-79" transform="translate(190.332031 0)"/>
      <use xlink:href="#DejaVuSans-61" transform="translate(249.511719 0)"/>
      <use xlink:href="#DejaVuSans-63" transform="translate(310.791016 0)"/>
      <use xlink:href="#DejaVuSans-65" transform="translate(365.771484 0)"/>
      <use xlink:href="#DejaVuSans-6e" transform="translate(427.294922 0)"/>
      <use xlink:href="#DejaVuSans-74" transform="translate(490.673828 0)"/>
      <use xlink:href="#DejaVuSans-65" transform="translate(529.882812 0)"/>
      <use xlink:href="#DejaVuSans-2c" transform="translate(591.40625 0)"/>
      <use xlink:href="#DejaVuSans-20" transform="translate(623.193359 0)"/>
      <use xlink:href="#DejaVuSans-4d" transform="translate(654.980469 0)"/>
      <use xlink:href="#DejaVuSans-65" transform="translate(741.259766 0)"/>
      <use xlink:href="#DejaVuSans-6e" transform="translate(802.783203 0)"/>
      <use xlink:href="#DejaVuSans-73" transform="translate(866.162109 0)"/>
      <use xlink:href="#DejaVuSans-75" transform="translate(918.261719 0)"/>
      <use xlink:href="#DejaVuSans-61" transform="translate(981.640625 0)"/>
      <use xlink:href="#DejaVuSans-6c" transform="translate(1042.919922 0)"/>
     </g>
    </g>
    <g id="line2d_38">
     <path d="M 115.2 74.1975 
L 123.2 74.1975 
L 131.2 74.1975 
" style="fill: none; stroke: #1f78b4; stroke-width: 1.5; stroke-linecap: square"/>
    </g>
    <g id="text_18">
     <!-- Subyacente, Acumulada en el año -->
     <g transform="translate(137.6 76.9975) scale(0.08 -0.08)">
      <defs>
       <path id="DejaVuSans-41" d="M 2188 4044 
L 1331 1722 
L 3047 1722 
L 2188 4044 
z
M 1831 4666 
L 2547 4666 
L 4325 0 
L 3669 0 
L 3244 1197 
L 1141 1197 
L 716 0 
L 50 0 
L 1831 4666 
z
" transform="scale(0.015625)"/>
       <path id="DejaVuSans-6d" d="M 3328 2828 
Q 3544 3216 3844 3400 
Q 4144 3584 4550 3584 
Q 5097 3584 5394 3201 
Q 5691 2819 5691 2113 
L 5691 0 
L 5113 0 
L 5113 2094 
Q 5113 2597 4934 2840 
Q 4756 3084 4391 3084 
Q 3944 3084 3684 2787 
Q 3425 2491 3425 1978 
L 3425 0 
L 2847 0 
L 2847 2094 
Q 2847 2600 2669 2842 
Q 2491 3084 2119 3084 
Q 1678 3084 1418 2786 
Q 1159 2488 1159 1978 
L 1159 0 
L 581 0 
L 581 3500 
L 1159 3500 
L 1159 2956 
Q 1356 3278 1631 3431 
Q 1906 3584 2284 3584 
Q 2666 3584 2933 3390 
Q 3200 3197 3328 2828 
z
" transform="scale(0.015625)"/>
       <path id="DejaVuSans-64" d="M 2906 2969 
L 2906 4863 
L 3481 4863 
L 3481 0 
L 2906 0 
L 2906 525 
Q 2725 213 2448 61 
Q 2172 -91 1784 -91 
Q 1150 -91 751 415 
Q 353 922 353 1747 
Q 353 2572 751 3078 
Q 1150 3584 1784 3584 
Q 2172 3584 2448 3432 
Q 2725 3281 2906 2969 
z
M 947 1747 
Q 947 1113 1208 752 
Q 1469 391 1925 391 
Q 2381 391 2643 752 
Q 2906 1113 2906 1747 
Q 2906 2381 2643 2742 
Q 2381 3103 1925 3103 
Q 1469 3103 1208 2742 
Q 947 2381 947 1747 
z
" transform="scale(0.015625)"/>
       <path id="DejaVuSans-f1" d="M 3513 2113 
L 3513 0 
L 2938 0 
L 2938 2094 
Q 2938 2591 2744 2837 
Q 2550 3084 2163 3084 
Q 1697 3084 1428 2787 
Q 1159 2491 1159 1978 
L 1159 0 
L 581 0 
L 581 3500 
L 1159 3500 
L 1159 2956 
Q 1366 3272 1645 3428 
Q 1925 3584 2291 3584 
Q 2894 3584 3203 3211 
Q 3513 2838 3513 2113 
z
M 2063 4281 
L 1884 4453 
Q 1816 4516 1764 4545 
Q 1713 4575 1672 4575 
Q 1553 4575 1497 4461 
Q 1441 4347 1434 4091 
L 1044 4091 
Q 1050 4513 1209 4742 
Q 1369 4972 1653 4972 
Q 1772 4972 1872 4928 
Q 1972 4884 2088 4781 
L 2266 4609 
Q 2334 4547 2386 4517 
Q 2438 4488 2478 4488 
Q 2597 4488 2653 4602 
Q 2709 4716 2716 4972 
L 3106 4972 
Q 3100 4550 2940 4320 
Q 2781 4091 2497 4091 
Q 2378 4091 2278 4134 
Q 2178 4178 2063 4281 
z
" transform="scale(0.015625)"/>
       <path id="DejaVuSans-6f" d="M 1959 3097 
Q 1497 3097 1228 2736 
Q 959 2375 959 1747 
Q 959 1119 1226 758 
Q 1494 397 1959 397 
Q 2419 397 2687 759 
Q 2956 1122 2956 1747 
Q 2956 2369 2687 2733 
Q 2419 3097 1959 3097 
z
M 1959 3584 
Q 2709 3584 3137 3096 
Q 3566 2609 3566 1747 
Q 3566 888 3137 398 
Q 2709 -91 1959 -91 
Q 1206 -91 779 398 
Q 353 888 353 1747 
Q 353 2609 779 3096 
Q 1206 3584 1959 3584 
z
" transform="scale(0.015625)"/>
      </defs>
      <use xlink:href="#DejaVuSans-53"/>
      <use xlink:href="#DejaVuSans-75" transform="translate(63.476562 0)"/>
      <use xlink:href="#DejaVuSans-62" transform="translate(126.855469 0)"/>
      <use xlink:href="#DejaVuSans-79" transform="translate(190.332031 0)"/>
      <use xlink:href="#DejaVuSans-61" transform="translate(249.511719 0)"/>
      <use xlink:href="#DejaVuSans-63" transform="translate(310.791016 0)"/>
      <use xlink:href="#DejaVuSans-65" transform="translate(365.771484 0)"/>
      <use xlink:href="#DejaVuSans-6e" transform="translate(427.294922 0)"/>
      <use xlink:href="#DejaVuSans-74" transform="translate(490.673828 0)"/>
      <use xlink:href="#DejaVuSans-65" transform="translate(529.882812 0)"/>
      <use xlink:href="#DejaVuSans-2c" transform="translate(591.40625 0)"/>
      <use xlink:href="#DejaVuSans-20" transform="translate(623.193359 0)"/>
      <use xlink:href="#DejaVuSans-41" transform="translate(654.980469 0)"/>
      <use xlink:href="#DejaVuSans-63" transform="translate(721.638672 0)"/>
      <use xlink:href="#DejaVuSans-75" transform="translate(776.619141 0)"/>
      <use xlink:href="#DejaVuSans-6d" transform="translate(839.998047 0)"/>
      <use xlink:href="#DejaVuSans-75" transform="translate(937.410156 0)"/>
      <use xlink:href="#DejaVuSans-6c" transform="translate(1000.789062 0)"/>
      <use xlink:href="#DejaVuSans-61" transform="translate(1028.572266 0)"/>
      <use xlink:href="#DejaVuSans-64" transform="translate(1089.851562 0)"/>
      <use xlink:href="#DejaVuSans-61" transform="translate(1153.328125 0)"/>
      <use xlink:href="#DejaVuSans-20" transform="translate(1214.607422 0)"/>
      <use xlink:href="#DejaVuSans-65" transform="translate(1246.394531 0)"/>
      <use xlink:href="#DejaVuSans-6e" transform="translate(1307.917969 0)"/>
      <use xlink:href="#DejaVuSans-20" transform="translate(1371.296875 0)"/>
      <use xlink:href="#DejaVuSans-65" transform="translate(1403.083984 0)"/>
      <use xlink:href="#DejaVuSans-6c" transform="translate(1464.607422 0)"/>
      <use xlink:href="#DejaVuSans-20" transform="translate(1492.390625 0)"/>
      <use xlink:href="#DejaVuSans-61" transform="translate(1524.177734 0)"/>
      <use xlink:href="#DejaVuSans-f1" transform="translate(1585.457031 0)"/>
      <use xlink:href="#DejaVuSans-6f" transform="translate(1648.835938 0)"/>
     </g>
    </g>
    <g id="line2d_39">
     <path d="M 115.2 85.94 
L 123.2 85.94 
L 131.2 85.94 
" style="fill: none; stroke: #b2df8a; stroke-width: 1.5; stroke-linecap: square"/>
    </g>
    <g id="text_19">
     <!-- Subyacente, Anual -->
     <g transform="translate(137.6 88.74) scale(0.08 -0.08)">
      <use xlink:href="#DejaVuSans-53"/>
      <use xlink:href="#DejaVuSans-75" transform="translate(63.476562 0)"/>
      <use xlink:href="#DejaVuSans-62" transform="translate(126.855469 0)"/>
      <use xlink:href="#DejaVuSans-79" transform="translate(190.332031 0)"/>
      <use xlink:href="#DejaVuSans-61" transform="translate(249.511719 0)"/>
      <use xlink:href="#DejaVuSans-63" transform="translate(310.791016 0)"/>
      <use xlink:href="#DejaVuSans-65" transform="translate(365.771484 0)"/>
      <use xlink:href="#DejaVuSans-6e" transform="translate(427.294922 0)"/>
      <use xlink:href="#DejaVuSans-74" transform="translate(490.673828 0)"/>
      <use xlink:href="#DejaVuSans-65" transform="translate(529.882812 0)"/>
      <use xlink:href="#DejaVuSans-2c" transform="translate(591.40625 0)"/>
      <use xlink:href="#DejaVuSans-20" transform="translate(623.193359 0)"/>
      <use xlink:href="#DejaVuSans-41" transform="translate(654.980469 0)"/>
      <use xlink:href="#DejaVuSans-6e" transform="translate(723.388672 0)"/>
      <use xlink:href="#DejaVuSans-75" transform="translate(786.767578 0)"/>
      <use xlink:href="#DejaVuSans-61" transform="translate(850.146484 0)"/>
      <use xlink:href="#DejaVuSans-6c" transform="translate(911.425781 0)"/>
     </g>
    </g>
    <g id="line2d_40">
     <path d="M 115.2 97.6825 
L 123.2 97.6825 
L 131.2 97.6825 
" style="fill: none; stroke: #33a02c; stroke-width: 1.5; stroke-linecap: square"/>
    </g>
    <g id="text_20">
     <!-- No subyacente, Mensual -->
     <g transform="translate(137.6 100.4825) scale(0.08 -0.08)">
      <defs>
       <path id="DejaVuSans-4e" d="M 628 4666 
L 1478 4666 
L 3547 763 
L 3547 4666 
L 4159 4666 
L 4159 0 
L 3309 0 
L 1241 3903 
L 1241 0 
L 628 0 
L 628 4666 
z
" transform="scale(0.015625)"/>
      </defs>
      <use xlink:href="#DejaVuSans-4e"/>
      <use xlink:href="#DejaVuSans-6f" transform="translate(74.804688 0)"/>
      <use xlink:href="#DejaVuSans-20" transform="translate(135.986328 0)"/>
      <use xlink:href="#DejaVuSans-73" transform="translate(167.773438 0)"/>
      <use xlink:href="#DejaVuSans-75" transform="translate(219.873047 0)"/>
      <use xlink:href="#DejaVuSans-62" transform="translate(283.251953 0)"/>
      <use xlink:href="#DejaVuSans-79" transform="translate(346.728516 0)"/>
      <use xlink:href="#DejaVuSans-61" transform="translate(405.908203 0)"/>
      <use xlink:href="#DejaVuSans-63" transform="translate(467.1875 0)"/>
      <use xlink:href="#DejaVuSans-65" transform="translate(522.167969 0)"/>
      <use xlink:href="#DejaVuSans-6e" transform="translate(583.691406 0)"/>
      <use xlink:href="#DejaVuSans-74" transform="translate(647.070312 0)"/>
      <use xlink:href="#DejaVuSans-65" transform="translate(686.279297 0)"/>
      <use xlink:href="#DejaVuSans-2c" transform="translate(747.802734 0)"/>
      <use xlink:href="#DejaVuSans-20" transform="translate(779.589844 0)"/>
      <use xlink:href="#DejaVuSans-4d" transform="translate(811.376953 0)"/>
      <use xlink:href="#DejaVuSans-65" transform="translate(897.65625 0)"/>
      <use xlink:href="#DejaVuSans-6e" transform="translate(959.179688 0)"/>
      <use xlink:href="#DejaVuSans-73" transform="translate(1022.558594 0)"/>
      <use xlink:href="#DejaVuSans-75" transform="translate(1074.658203 0)"/>
      <use xlink:href="#DejaVuSans-61" transform="translate(1138.037109 0)"/>
      <use xlink:href="#DejaVuSans-6c" transform="translate(1199.316406 0)"/>
     </g>
    </g>
    <g id="line2d_41">
     <path d="M 115.2 109.56125 
L 123.2 109.56125 
L 131.2 109.56125 
" style="fill: none; stroke: #fb9a99; stroke-width: 1.5; stroke-linecap: square"/>
    </g>
    <g id="text_21">
     <!-- No subyacente, Acumulada en el año -->
     <g transform="translate(137.6 112.36125) scale(0.08 -0.08)">
      <use xlink:href="#DejaVuSans-4e"/>
      <use xlink:href="#DejaVuSans-6f" transform="translate(74.804688 0)"/>
      <use xlink:href="#DejaVuSans-20" transform="translate(135.986328 0)"/>
      <use xlink:href="#DejaVuSans-73" transform="translate(167.773438 0)"/>
      <use xlink:href="#DejaVuSans-75" transform="translate(219.873047 0)"/>
      <use xlink:href="#DejaVuSans-62" transform="translate(283.251953 0)"/>
      <use xlink:href="#DejaVuSans-79" transform="translate(346.728516 0)"/>
      <use xlink:href="#DejaVuSans-61" transform="translate(405.908203 0)"/>
      <use xlink:href="#DejaVuSans-63" transform="translate(467.1875 0)"/>
      <use xlink:href="#DejaVuSans-65" transform="translate(522.167969 0)"/>
      <use xlink:href="#DejaVuSans-6e" transform="translate(583.691406 0)"/>
      <use xlink:href="#DejaVuSans-74" transform="translate(647.070312 0)"/>
      <use xlink:href="#DejaVuSans-65" transform="translate(686.279297 0)"/>
      <use xlink:href="#DejaVuSans-2c" transform="translate(747.802734 0)"/>
      <use xlink:href="#DejaVuSans-20" transform="translate(779.589844 0)"/>
      <use xlink:href="#DejaVuSans-41" transform="translate(811.376953 0)"/>
      <use xlink:href="#DejaVuSans-63" transform="translate(878.035156 0)"/>
      <use xlink:href="#DejaVuSans-75" transform="translate(933.015625 0)"/>
      <use xlink:href="#DejaVuSans-6d" transform="translate(996.394531 0)"/>
      <use xlink:href="#DejaVuSans-75" transform="translate(1093.806641 0)"/>
      <use xlink:href="#DejaVuSans-6c" transform="translate(1157.185547 0)"/>
      <use xlink:href="#DejaVuSans-61" transform="translate(1184.96875 0)"/>
      <use xlink:href="#DejaVuSans-64" transform="translate(1246.248047 0)"/>
      <use xlink:href="#DejaVuSans-61" transform="translate(1309.724609 0)"/>
      <use xlink:href="#DejaVuSans-20" transform="translate(1371.003906 0)"/>
      <use xlink:href="#DejaVuSans-65" transform="translate(1402.791016 0)"/>
      <use xlink:href="#DejaVuSans-6e" transform="translate(1464.314453 0)"/>
      <use xlink:href="#DejaVuSans-20" transform="translate(1527.693359 0)"/>
      <use xlink:href="#DejaVuSans-65" transform="translate(1559.480469 0)"/>
      <use xlink:href="#DejaVuSans-6c" transform="translate(1621.003906 0)"/>
      <use xlink:href="#DejaVuSans-20" transform="translate(1648.787109 0)"/>
      <use xlink:href="#DejaVuSans-61" transform="translate(1680.574219 0)"/>
      <use xlink:href="#DejaVuSans-f1" transform="translate(1741.853516 0)"/>
      <use xlink:href="#DejaVuSans-6f" transform="translate(1805.232422 0)"/>
     </g>
    </g>
    <g id="line2d_42">
     <path d="M 115.2 121.30375 
L 123.2 121.30375 
L 131.2 121.30375 
" style="fill: none; stroke: #e31a1c; stroke-width: 1.5; stroke-linecap: square"/>
    </g>
    <g id="text_22">
     <!-- No subyacente, Anual -->
     <g transform="translate(137.6 124.10375) scale(0.08 -0.08)">
      <use xlink:href="#DejaVuSans-4e"/>
      <use xlink:href="#DejaVuSans-6f" transform="translate(74.804688 0)"/>
      <use xlink:href="#DejaVuSans-20" transform="translate(135.986328 0)"/>
      <use xlink:href="#DejaVuSans-73" transform="translate(167.773438 0)"/>
      <use xlink:href="#DejaVuSans-75" transform="translate(219.873047 0)"/>
      <use xlink:href="#DejaVuSans-62" transform="translate(283.251953 0)"/>
      <use xlink:href="#DejaVuSans-79" transform="translate(346.728516 0)"/>
      <use xlink:href="#DejaVuSans-61" transform="translate(405.908203 0)"/>
      <use xlink:href="#DejaVuSans-63" transform="translate(467.1875 0)"/>
      <use xlink:href="#DejaVuSans-65" transform="translate(522.167969 0)"/>
      <use xlink:href="#DejaVuSans-6e" transform="translate(583.691406 0)"/>
      <use xlink:href="#DejaVuSans-74" transform="translate(647.070312 0)"/>
      <use xlink:href="#DejaVuSans-65" transform="translate(686.279297 0)"/>
      <use xlink:href="#DejaVuSans-2c" transform="translate(747.802734 0)"/>
      <use xlink:href="#DejaVuSans-20" transform="translate(779.589844 0)"/>
      <use xlink:href="#DejaVuSans-41" transform="translate(811.376953 0)"/>
      <use xlink:href="#DejaVuSans-6e" transform="translate(879.785156 0)"/>
      <use xlink:href="#DejaVuSans-75" transform="translate(943.164062 0)"/>
      <use xlink:href="#DejaVuSans-61" transform="translate(1006.542969 0)"/>
      <use xlink:href="#DejaVuSans-6c" transform="translate(1067.822266 0)"/>
     </g>
    </g>
   </g>
  </g>
 </g>
 <defs>
  <clipPath id="pe2b1cbc38f">
   <rect x="108" y="51.84" width="669.6" height="332.64"/>
  </clipPath>
 </defs>
</svg>
