<?xml version="1.0" encoding="utf-8" standalone="no"?>
<!DOCTYPE svg PUBLIC "-//W3C//DTD SVG 1.1//EN"
  "http://www.w3.org/Graphics/SVG/1.1/DTD/svg11.dtd">
<svg xmlns:xlink="http://www.w3.org/1999/xlink" width="864pt" height="432pt" viewBox="0 0 864 432" xmlns="http://www.w3.org/2000/svg" version="1.1">
 <metadata>
  <rdf:RDF xmlns:dc="http://purl.org/dc/elements/1.1/" xmlns:cc="http://creativecommons.org/ns#" xmlns:rdf="http://www.w3.org/1999/02/22-rdf-syntax-ns#">
   <cc:Work>
    <dc:type rdf:resource="http://purl.org/dc/dcmitype/StillImage"/>
    <dc:date>2025-02-23T20:21:50.727888</dc:date>
    <dc:format>image/svg+xml</dc:format>
    <dc:creator>
     <cc:Agent>
      <dc:title>Matplotlib v3.10.0, https://matplotlib.org/</dc:title>
     </cc:Agent>
    </dc:creator>
   </cc:Work>
  </rdf:RDF>
 </metadata>
 <defs>
  <style type="text/css">*{stroke-linejoin: round; stroke-linecap: butt}</style>
 </defs>
 <g id="figure_1">
  <g id="patch_1">
   <path d="M 0 432 
L 864 432 
L 864 0 
L 0 0 
z
" style="fill: #ffffff"/>
  </g>
  <g id="axes_1">
   <g id="patch_2">
    <path d="M 108 384.48 
L 777.6 384.48 
L 777.6 51.84 
L 108 51.84 
z
" style="fill: #ffffff"/>
   </g>
   <g id="matplotlib.axis_1">
    <g id="xtick_1">
     <g id="line2d_1">
      <path d="M 173.464612 384.48 
L 173.464612 51.84 
" clip-path="url(#p99db040531)" style="fill: none; stroke-dasharray: 2.96,1.28; stroke-dashoffset: 0; stroke: #b0b0b0; stroke-opacity: 0.5; stroke-width: 0.8"/>
     </g>
     <g id="line2d_2">
      <defs>
       <path id="m1d3c63d39f" d="M 0 0 
L 0 3.5 
" style="stroke: #000000; stroke-width: 0.8"/>
      </defs>
      <g>
       <use xlink:href="#m1d3c63d39f" x="173.464612" y="384.48" style="stroke: #000000; stroke-width: 0.8"/>
      </g>
     </g>
     <g id="text_1">
      <!-- 2012 -->
      <g transform="translate(160.739612 399.078438) scale(0.1 -0.1)">
       <defs>
        <path id="DejaVuSans-32" d="M 1228 531 
L 3431 531 
L 3431 0 
L 469 0 
L 469 531 
Q 828 903 1448 1529 
Q 2069 2156 2228 2338 
Q 2531 2678 2651 2914 
Q 2772 3150 2772 3378 
Q 2772 3750 2511 3984 
Q 2250 4219 1831 4219 
Q 1534 4219 1204 4116 
Q 875 4013 500 3803 
L 500 4441 
Q 881 4594 1212 4672 
Q 1544 4750 1819 4750 
Q 2544 4750 2975 4387 
Q 3406 4025 3406 3419 
Q 3406 3131 3298 2873 
Q 3191 2616 2906 2266 
Q 2828 2175 2409 1742 
Q 1991 1309 1228 531 
z
" transform="scale(0.015625)"/>
        <path id="DejaVuSans-30" d="M 2034 4250 
Q 1547 4250 1301 3770 
Q 1056 3291 1056 2328 
Q 1056 1369 1301 889 
Q 1547 409 2034 409 
Q 2525 409 2770 889 
Q 3016 1369 3016 2328 
Q 3016 3291 2770 3770 
Q 2525 4250 2034 4250 
z
M 2034 4750 
Q 2819 4750 3233 4129 
Q 3647 3509 3647 2328 
Q 3647 1150 3233 529 
Q 2819 -91 2034 -91 
Q 1250 -91 836 529 
Q 422 1150 422 2328 
Q 422 3509 836 4129 
Q 1250 4750 2034 4750 
z
" transform="scale(0.015625)"/>
        <path id="DejaVuSans-31" d="M 794 531 
L 1825 531 
L 1825 4091 
L 703 3866 
L 703 4441 
L 1819 4666 
L 2450 4666 
L 2450 531 
L 3481 531 
L 3481 0 
L 794 0 
L 794 531 
z
" transform="scale(0.015625)"/>
       </defs>
       <use xlink:href="#DejaVuSans-32"/>
       <use xlink:href="#DejaVuSans-30" transform="translate(63.623047 0)"/>
       <use xlink:href="#DejaVuSans-31" transform="translate(127.246094 0)"/>
       <use xlink:href="#DejaVuSans-32" transform="translate(190.869141 0)"/>
      </g>
     </g>
    </g>
    <g id="xtick_2">
     <g id="line2d_3">
      <path d="M 266.576066 384.48 
L 266.576066 51.84 
" clip-path="url(#p99db040531)" style="fill: none; stroke-dasharray: 2.96,1.28; stroke-dashoffset: 0; stroke: #b0b0b0; stroke-opacity: 0.5; stroke-width: 0.8"/>
     </g>
     <g id="line2d_4">
      <g>
       <use xlink:href="#m1d3c63d39f" x="266.576066" y="384.48" style="stroke: #000000; stroke-width: 0.8"/>
      </g>
     </g>
     <g id="text_2">
      <!-- 2014 -->
      <g transform="translate(253.851066 399.078438) scale(0.1 -0.1)">
       <defs>
        <path id="DejaVuSans-34" d="M 2419 4116 
L 825 1625 
L 2419 1625 
L 2419 4116 
z
M 2253 4666 
L 3047 4666 
L 3047 1625 
L 3713 1625 
L 3713 1100 
L 3047 1100 
L 3047 0 
L 2419 0 
L 2419 1100 
L 313 1100 
L 313 1709 
L 2253 4666 
z
" transform="scale(0.015625)"/>
       </defs>
       <use xlink:href="#DejaVuSans-32"/>
       <use xlink:href="#DejaVuSans-30" transform="translate(63.623047 0)"/>
       <use xlink:href="#DejaVuSans-31" transform="translate(127.246094 0)"/>
       <use xlink:href="#DejaVuSans-34" transform="translate(190.869141 0)"/>
      </g>
     </g>
    </g>
    <g id="xtick_3">
     <g id="line2d_5">
      <path d="M 359.560144 384.48 
L 359.560144 51.84 
" clip-path="url(#p99db040531)" style="fill: none; stroke-dasharray: 2.96,1.28; stroke-dashoffset: 0; stroke: #b0b0b0; stroke-opacity: 0.5; stroke-width: 0.8"/>
     </g>
     <g id="line2d_6">
      <g>
       <use xlink:href="#m1d3c63d39f" x="359.560144" y="384.48" style="stroke: #000000; stroke-width: 0.8"/>
      </g>
     </g>
     <g id="text_3">
      <!-- 2016 -->
      <g transform="translate(346.835144 399.078438) scale(0.1 -0.1)">
       <defs>
        <path id="DejaVuSans-36" d="M 2113 2584 
Q 1688 2584 1439 2293 
Q 1191 2003 1191 1497 
Q 1191 994 1439 701 
Q 1688 409 2113 409 
Q 2538 409 2786 701 
Q 3034 994 3034 1497 
Q 3034 2003 2786 2293 
Q 2538 2584 2113 2584 
z
M 3366 4563 
L 3366 3988 
Q 3128 4100 2886 4159 
Q 2644 4219 2406 4219 
Q 1781 4219 1451 3797 
Q 1122 3375 1075 2522 
Q 1259 2794 1537 2939 
Q 1816 3084 2150 3084 
Q 2853 3084 3261 2657 
Q 3669 2231 3669 1497 
Q 3669 778 3244 343 
Q 2819 -91 2113 -91 
Q 1303 -91 875 529 
Q 447 1150 447 2328 
Q 447 3434 972 4092 
Q 1497 4750 2381 4750 
Q 2619 4750 2861 4703 
Q 3103 4656 3366 4563 
z
" transform="scale(0.015625)"/>
       </defs>
       <use xlink:href="#DejaVuSans-32"/>
       <use xlink:href="#DejaVuSans-30" transform="translate(63.623047 0)"/>
       <use xlink:href="#DejaVuSans-31" transform="translate(127.246094 0)"/>
       <use xlink:href="#DejaVuSans-36" transform="translate(190.869141 0)"/>
      </g>
     </g>
    </g>
    <g id="xtick_4">
     <g id="line2d_7">
      <path d="M 452.671597 384.48 
L 452.671597 51.84 
" clip-path="url(#p99db040531)" style="fill: none; stroke-dasharray: 2.96,1.28; stroke-dashoffset: 0; stroke: #b0b0b0; stroke-opacity: 0.5; stroke-width: 0.8"/>
     </g>
     <g id="line2d_8">
      <g>
       <use xlink:href="#m1d3c63d39f" x="452.671597" y="384.48" style="stroke: #000000; stroke-width: 0.8"/>
      </g>
     </g>
     <g id="text_4">
      <!-- 2018 -->
      <g transform="translate(439.946597 399.078438) scale(0.1 -0.1)">
       <defs>
        <path id="DejaVuSans-38" d="M 2034 2216 
Q 1584 2216 1326 1975 
Q 1069 1734 1069 1313 
Q 1069 891 1326 650 
Q 1584 409 2034 409 
Q 2484 409 2743 651 
Q 3003 894 3003 1313 
Q 3003 1734 2745 1975 
Q 2488 2216 2034 2216 
z
M 1403 2484 
Q 997 2584 770 2862 
Q 544 3141 544 3541 
Q 544 4100 942 4425 
Q 1341 4750 2034 4750 
Q 2731 4750 3128 4425 
Q 3525 4100 3525 3541 
Q 3525 3141 3298 2862 
Q 3072 2584 2669 2484 
Q 3125 2378 3379 2068 
Q 3634 1759 3634 1313 
Q 3634 634 3220 271 
Q 2806 -91 2034 -91 
Q 1263 -91 848 271 
Q 434 634 434 1313 
Q 434 1759 690 2068 
Q 947 2378 1403 2484 
z
M 1172 3481 
Q 1172 3119 1398 2916 
Q 1625 2713 2034 2713 
Q 2441 2713 2670 2916 
Q 2900 3119 2900 3481 
Q 2900 3844 2670 4047 
Q 2441 4250 2034 4250 
Q 1625 4250 1398 4047 
Q 1172 3844 1172 3481 
z
" transform="scale(0.015625)"/>
       </defs>
       <use xlink:href="#DejaVuSans-32"/>
       <use xlink:href="#DejaVuSans-30" transform="translate(63.623047 0)"/>
       <use xlink:href="#DejaVuSans-31" transform="translate(127.246094 0)"/>
       <use xlink:href="#DejaVuSans-38" transform="translate(190.869141 0)"/>
      </g>
     </g>
    </g>
    <g id="xtick_5">
     <g id="line2d_9">
      <path d="M 545.655675 384.48 
L 545.655675 51.84 
" clip-path="url(#p99db040531)" style="fill: none; stroke-dasharray: 2.96,1.28; stroke-dashoffset: 0; stroke: #b0b0b0; stroke-opacity: 0.5; stroke-width: 0.8"/>
     </g>
     <g id="line2d_10">
      <g>
       <use xlink:href="#m1d3c63d39f" x="545.655675" y="384.48" style="stroke: #000000; stroke-width: 0.8"/>
      </g>
     </g>
     <g id="text_5">
      <!-- 2020 -->
      <g transform="translate(532.930675 399.078438) scale(0.1 -0.1)">
       <use xlink:href="#DejaVuSans-32"/>
       <use xlink:href="#DejaVuSans-30" transform="translate(63.623047 0)"/>
       <use xlink:href="#DejaVuSans-32" transform="translate(127.246094 0)"/>
       <use xlink:href="#DejaVuSans-30" transform="translate(190.869141 0)"/>
      </g>
     </g>
    </g>
    <g id="xtick_6">
     <g id="line2d_11">
      <path d="M 638.767129 384.48 
L 638.767129 51.84 
" clip-path="url(#p99db040531)" style="fill: none; stroke-dasharray: 2.96,1.28; stroke-dashoffset: 0; stroke: #b0b0b0; stroke-opacity: 0.5; stroke-width: 0.8"/>
     </g>
     <g id="line2d_12">
      <g>
       <use xlink:href="#m1d3c63d39f" x="638.767129" y="384.48" style="stroke: #000000; stroke-width: 0.8"/>
      </g>
     </g>
     <g id="text_6">
      <!-- 2022 -->
      <g transform="translate(626.042129 399.078438) scale(0.1 -0.1)">
       <use xlink:href="#DejaVuSans-32"/>
       <use xlink:href="#DejaVuSans-30" transform="translate(63.623047 0)"/>
       <use xlink:href="#DejaVuSans-32" transform="translate(127.246094 0)"/>
       <use xlink:href="#DejaVuSans-32" transform="translate(190.869141 0)"/>
      </g>
     </g>
    </g>
    <g id="xtick_7">
     <g id="line2d_13">
      <path d="M 731.751207 384.48 
L 731.751207 51.84 
" clip-path="url(#p99db040531)" style="fill: none; stroke-dasharray: 2.96,1.28; stroke-dashoffset: 0; stroke: #b0b0b0; stroke-opacity: 0.5; stroke-width: 0.8"/>
     </g>
     <g id="line2d_14">
      <g>
       <use xlink:href="#m1d3c63d39f" x="731.751207" y="384.48" style="stroke: #000000; stroke-width: 0.8"/>
      </g>
     </g>
     <g id="text_7">
      <!-- 2024 -->
      <g transform="translate(719.026207 399.078438) scale(0.1 -0.1)">
       <use xlink:href="#DejaVuSans-32"/>
       <use xlink:href="#DejaVuSans-30" transform="translate(63.623047 0)"/>
       <use xlink:href="#DejaVuSans-32" transform="translate(127.246094 0)"/>
       <use xlink:href="#DejaVuSans-34" transform="translate(190.869141 0)"/>
      </g>
     </g>
    </g>
   </g>
   <g id="matplotlib.axis_2">
    <g id="ytick_1">
     <g id="line2d_15">
      <path d="M 108 366.49125 
L 777.6 366.49125 
" clip-path="url(#p99db040531)" style="fill: none; stroke-dasharray: 2.96,1.28; stroke-dashoffset: 0; stroke: #b0b0b0; stroke-opacity: 0.5; stroke-width: 0.8"/>
     </g>
     <g id="line2d_16">
      <defs>
       <path id="m0fb2c90139" d="M 0 0 
L -3.5 0 
" style="stroke: #000000; stroke-width: 0.8"/>
      </defs>
      <g>
       <use xlink:href="#m0fb2c90139" x="108" y="366.49125" style="stroke: #000000; stroke-width: 0.8"/>
      </g>
     </g>
     <g id="text_8">
      <!-- −5.0 -->
      <g transform="translate(76.717187 370.290469) scale(0.1 -0.1)">
       <defs>
        <path id="DejaVuSans-2212" d="M 678 2272 
L 4684 2272 
L 4684 1741 
L 678 1741 
L 678 2272 
z
" transform="scale(0.015625)"/>
        <path id="DejaVuSans-35" d="M 691 4666 
L 3169 4666 
L 3169 4134 
L 1269 4134 
L 1269 2991 
Q 1406 3038 1543 3061 
Q 1681 3084 1819 3084 
Q 2600 3084 3056 2656 
Q 3513 2228 3513 1497 
Q 3513 744 3044 326 
Q 2575 -91 1722 -91 
Q 1428 -91 1123 -41 
Q 819 9 494 109 
L 494 744 
Q 775 591 1075 516 
Q 1375 441 1709 441 
Q 2250 441 2565 725 
Q 2881 1009 2881 1497 
Q 2881 1984 2565 2268 
Q 2250 2553 1709 2553 
Q 1456 2553 1204 2497 
Q 953 2441 691 2322 
L 691 4666 
z
" transform="scale(0.015625)"/>
        <path id="DejaVuSans-2e" d="M 684 794 
L 1344 794 
L 1344 0 
L 684 0 
L 684 794 
z
" transform="scale(0.015625)"/>
       </defs>
       <use xlink:href="#DejaVuSans-2212"/>
       <use xlink:href="#DejaVuSans-35" transform="translate(83.789062 0)"/>
       <use xlink:href="#DejaVuSans-2e" transform="translate(147.412109 0)"/>
       <use xlink:href="#DejaVuSans-30" transform="translate(179.199219 0)"/>
      </g>
     </g>
    </g>
    <g id="ytick_2">
     <g id="line2d_17">
      <path d="M 108 324.30375 
L 777.6 324.30375 
" clip-path="url(#p99db040531)" style="fill: none; stroke-dasharray: 2.96,1.28; stroke-dashoffset: 0; stroke: #b0b0b0; stroke-opacity: 0.5; stroke-width: 0.8"/>
     </g>
     <g id="line2d_18">
      <g>
       <use xlink:href="#m0fb2c90139" x="108" y="324.30375" style="stroke: #000000; stroke-width: 0.8"/>
      </g>
     </g>
     <g id="text_9">
      <!-- −2.5 -->
      <g transform="translate(76.717187 328.102969) scale(0.1 -0.1)">
       <use xlink:href="#DejaVuSans-2212"/>
       <use xlink:href="#DejaVuSans-32" transform="translate(83.789062 0)"/>
       <use xlink:href="#DejaVuSans-2e" transform="translate(147.412109 0)"/>
       <use xlink:href="#DejaVuSans-35" transform="translate(179.199219 0)"/>
      </g>
     </g>
    </g>
    <g id="ytick_3">
     <g id="line2d_19">
      <path d="M 108 282.11625 
L 777.6 282.11625 
" clip-path="url(#p99db040531)" style="fill: none; stroke-dasharray: 2.96,1.28; stroke-dashoffset: 0; stroke: #b0b0b0; stroke-opacity: 0.5; stroke-width: 0.8"/>
     </g>
     <g id="line2d_20">
      <g>
       <use xlink:href="#m0fb2c90139" x="108" y="282.11625" style="stroke: #000000; stroke-width: 0.8"/>
      </g>
     </g>
     <g id="text_10">
      <!-- 0.0 -->
      <g transform="translate(85.096875 285.915469) scale(0.1 -0.1)">
       <use xlink:href="#DejaVuSans-30"/>
       <use xlink:href="#DejaVuSans-2e" transform="translate(63.623047 0)"/>
       <use xlink:href="#DejaVuSans-30" transform="translate(95.410156 0)"/>
      </g>
     </g>
    </g>
    <g id="ytick_4">
     <g id="line2d_21">
      <path d="M 108 239.92875 
L 777.6 239.92875 
" clip-path="url(#p99db040531)" style="fill: none; stroke-dasharray: 2.96,1.28; stroke-dashoffset: 0; stroke: #b0b0b0; stroke-opacity: 0.5; stroke-width: 0.8"/>
     </g>
     <g id="line2d_22">
      <g>
       <use xlink:href="#m0fb2c90139" x="108" y="239.92875" style="stroke: #000000; stroke-width: 0.8"/>
      </g>
     </g>
     <g id="text_11">
      <!-- 2.5 -->
      <g transform="translate(85.096875 243.727969) scale(0.1 -0.1)">
       <use xlink:href="#DejaVuSans-32"/>
       <use xlink:href="#DejaVuSans-2e" transform="translate(63.623047 0)"/>
       <use xlink:href="#DejaVuSans-35" transform="translate(95.410156 0)"/>
      </g>
     </g>
    </g>
    <g id="ytick_5">
     <g id="line2d_23">
      <path d="M 108 197.74125 
L 777.6 197.74125 
" clip-path="url(#p99db040531)" style="fill: none; stroke-dasharray: 2.96,1.28; stroke-dashoffset: 0; stroke: #b0b0b0; stroke-opacity: 0.5; stroke-width: 0.8"/>
     </g>
     <g id="line2d_24">
      <g>
       <use xlink:href="#m0fb2c90139" x="108" y="197.74125" style="stroke: #000000; stroke-width: 0.8"/>
      </g>
     </g>
     <g id="text_12">
      <!-- 5.0 -->
      <g transform="translate(85.096875 201.540469) scale(0.1 -0.1)">
       <use xlink:href="#DejaVuSans-35"/>
       <use xlink:href="#DejaVuSans-2e" transform="translate(63.623047 0)"/>
       <use xlink:href="#DejaVuSans-30" transform="translate(95.410156 0)"/>
      </g>
     </g>
    </g>
    <g id="ytick_6">
     <g id="line2d_25">
      <path d="M 108 155.55375 
L 777.6 155.55375 
" clip-path="url(#p99db040531)" style="fill: none; stroke-dasharray: 2.96,1.28; stroke-dashoffset: 0; stroke: #b0b0b0; stroke-opacity: 0.5; stroke-width: 0.8"/>
     </g>
     <g id="line2d_26">
      <g>
       <use xlink:href="#m0fb2c90139" x="108" y="155.55375" style="stroke: #000000; stroke-width: 0.8"/>
      </g>
     </g>
     <g id="text_13">
      <!-- 7.5 -->
      <g transform="translate(85.096875 159.352969) scale(0.1 -0.1)">
       <defs>
        <path id="DejaVuSans-37" d="M 525 4666 
L 3525 4666 
L 3525 4397 
L 1831 0 
L 1172 0 
L 2766 4134 
L 525 4134 
L 525 4666 
z
" transform="scale(0.015625)"/>
       </defs>
       <use xlink:href="#DejaVuSans-37"/>
       <use xlink:href="#DejaVuSans-2e" transform="translate(63.623047 0)"/>
       <use xlink:href="#DejaVuSans-35" transform="translate(95.410156 0)"/>
      </g>
     </g>
    </g>
    <g id="ytick_7">
     <g id="line2d_27">
      <path d="M 108 113.36625 
L 777.6 113.36625 
" clip-path="url(#p99db040531)" style="fill: none; stroke-dasharray: 2.96,1.28; stroke-dashoffset: 0; stroke: #b0b0b0; stroke-opacity: 0.5; stroke-width: 0.8"/>
     </g>
     <g id="line2d_28">
      <g>
       <use xlink:href="#m0fb2c90139" x="108" y="113.36625" style="stroke: #000000; stroke-width: 0.8"/>
      </g>
     </g>
     <g id="text_14">
      <!-- 10.0 -->
      <g transform="translate(78.734375 117.165469) scale(0.1 -0.1)">
       <use xlink:href="#DejaVuSans-31"/>
       <use xlink:href="#DejaVuSans-30" transform="translate(63.623047 0)"/>
       <use xlink:href="#DejaVuSans-2e" transform="translate(127.246094 0)"/>
       <use xlink:href="#DejaVuSans-30" transform="translate(159.033203 0)"/>
      </g>
     </g>
    </g>
    <g id="ytick_8">
     <g id="line2d_29">
      <path d="M 108 71.17875 
L 777.6 71.17875 
" clip-path="url(#p99db040531)" style="fill: none; stroke-dasharray: 2.96,1.28; stroke-dashoffset: 0; stroke: #b0b0b0; stroke-opacity: 0.5; stroke-width: 0.8"/>
     </g>
     <g id="line2d_30">
      <g>
       <use xlink:href="#m0fb2c90139" x="108" y="71.17875" style="stroke: #000000; stroke-width: 0.8"/>
      </g>
     </g>
     <g id="text_15">
      <!-- 12.5 -->
      <g transform="translate(78.734375 74.977969) scale(0.1 -0.1)">
       <use xlink:href="#DejaVuSans-31"/>
       <use xlink:href="#DejaVuSans-32" transform="translate(63.623047 0)"/>
       <use xlink:href="#DejaVuSans-2e" transform="translate(127.246094 0)"/>
       <use xlink:href="#DejaVuSans-35" transform="translate(159.033203 0)"/>
      </g>
     </g>
    </g>
   </g>
   <g id="line2d_31">
    <path d="M 138.436364 280.76625 
L 142.257627 279.07875 
L 146.206266 278.91 
L 150.02753 278.40375 
L 153.976168 280.09125 
L 157.924807 277.56 
L 161.746071 277.72875 
L 165.69471 276.71625 
L 169.515973 273.51 
L 173.464612 274.5225 
L 177.413251 274.86 
L 181.107139 278.06625 
L 185.055778 279.585 
L 188.877042 277.56 
L 192.825681 278.40375 
L 196.646944 276.885 
L 200.595583 278.40375 
L 204.544222 279.07875 
L 208.365485 278.235 
L 212.314124 281.2725 
L 216.135388 280.09125 
L 220.084027 275.02875 
L 224.032666 273.51 
L 227.599178 277.05375 
L 231.547817 280.76625 
L 235.369081 278.74125 
L 239.31772 279.9225 
L 243.138983 281.61 
L 247.087622 280.5975 
L 251.036261 276.71625 
L 254.857524 278.91 
L 258.806163 279.75375 
L 262.627427 276.5475 
L 266.576066 267.7725 
L 270.524705 277.39125 
L 274.091217 278.5725 
L 278.039856 277.2225 
L 281.86112 280.5975 
L 285.809759 278.5725 
L 289.631022 278.91 
L 293.579661 278.5725 
L 297.5283 277.2225 
L 301.349563 279.2475 
L 305.298202 279.41625 
L 309.119466 278.235 
L 313.068105 282.6225 
L 317.016744 276.37875 
L 320.583256 277.72875 
L 324.531895 279.41625 
L 328.353159 280.09125 
L 332.301798 278.5725 
L 336.123061 279.2475 
L 340.0717 278.74125 
L 344.020339 275.8725 
L 347.841602 277.8975 
L 351.790241 281.44125 
L 355.611505 276.885 
L 359.560144 278.91 
L 363.508783 276.04125 
L 367.202671 276.04125 
L 371.15131 278.40375 
L 374.972573 278.5725 
L 378.921212 277.8975 
L 382.742476 279.2475 
L 386.691115 278.91 
L 390.639753 274.01625 
L 394.461017 277.39125 
L 398.409656 278.40375 
L 402.230919 274.5225 
L 406.179558 272.32875 
L 410.128197 269.29125 
L 413.69471 272.4975 
L 417.643349 274.5225 
L 421.464612 277.39125 
L 425.413251 277.05375 
L 429.234515 277.56 
L 433.183154 277.8975 
L 437.131793 277.39125 
L 440.953056 277.8975 
L 444.901695 276.37875 
L 448.722958 275.02875 
L 452.671597 277.39125 
L 456.620236 273.8475 
L 464.135388 279.585 
L 467.956651 277.72875 
L 471.90529 278.235 
L 475.726554 277.2225 
L 479.675193 277.8975 
L 483.623832 276.71625 
L 487.445095 276.885 
L 491.393734 277.8975 
L 495.214997 274.185 
L 499.163636 278.74125 
L 503.112275 274.86 
L 506.678788 276.37875 
L 510.627427 274.35375 
L 514.44869 279.41625 
L 518.397329 277.05375 
L 522.218593 277.72875 
L 526.167232 278.74125 
L 530.115871 277.05375 
L 533.937134 277.8975 
L 537.885773 278.40375 
L 541.707036 275.1975 
L 545.655675 276.5475 
L 549.604314 276.04125 
L 553.298202 277.2225 
L 557.246841 276.04125 
L 561.068105 277.05375 
L 565.016744 275.8725 
L 568.838007 275.36625 
L 572.786646 276.71625 
L 576.735285 276.71625 
L 580.556549 278.06625 
L 584.505187 283.46625 
L 588.326451 272.835 
L 592.27509 276.04125 
L 596.223729 275.535 
L 599.790241 273.00375 
L 603.73888 275.8725 
L 607.560144 273.1725 
L 611.508783 272.4975 
L 615.330046 274.01625 
L 619.278685 274.86 
L 627.048588 273.8475 
L 630.997227 275.8725 
L 634.81849 268.61625 
L 638.767129 271.65375 
L 642.715768 269.29125 
L 646.28228 269.96625 
L 650.230919 268.95375 
L 654.052183 272.16 
L 658.000822 269.1225 
L 661.822085 271.65375 
L 665.770724 268.61625 
L 669.719363 270.81 
L 673.540627 271.485 
L 677.489266 274.5225 
L 681.310529 271.1475 
L 685.259168 270.135 
L 692.774319 273.34125 
L 696.722958 275.535 
L 700.544222 276.71625 
L 704.492861 277.05375 
L 708.314124 275.535 
L 712.262763 277.56 
L 716.211402 276.04125 
L 720.032666 275.535 
L 723.981305 277.72875 
L 727.802568 274.69125 
L 731.751207 275.36625 
L 735.699846 273.8475 
L 739.393734 274.69125 
L 743.342373 278.5725 
L 747.163636 279.2475 
L 747.163636 279.2475 
" clip-path="url(#p99db040531)" style="fill: none; stroke: #a6cee3; stroke-width: 1.5; stroke-linecap: square"/>
   </g>
   <g id="line2d_32">
    <path d="M 138.436364 261.19125 
L 142.257627 258.15375 
L 146.206266 254.77875 
L 150.02753 251.06625 
L 153.976168 248.8725 
L 161.746071 239.92875 
L 165.69471 234.36 
L 169.515973 225.585 
L 173.464612 274.5225 
L 177.413251 267.26625 
L 181.107139 263.21625 
L 185.055778 260.685 
L 188.877042 256.12875 
L 192.825681 252.41625 
L 196.646944 247.01625 
L 200.595583 243.135 
L 204.544222 240.0975 
L 208.365485 236.21625 
L 212.314124 235.20375 
L 216.135388 233.17875 
L 220.084027 275.02875 
L 224.032666 266.25375 
L 227.599178 261.19125 
L 231.547817 259.84125 
L 235.369081 256.46625 
L 239.31772 254.2725 
L 243.138983 253.5975 
L 247.087622 252.07875 
L 251.036261 246.51 
L 254.857524 243.30375 
L 258.806163 240.94125 
L 262.627427 235.20375 
L 266.576066 267.7725 
L 270.524705 262.87875 
L 274.091217 259.335 
L 278.039856 254.2725 
L 281.86112 252.75375 
L 285.809759 249.04125 
L 289.631022 245.835 
L 293.579661 242.1225 
L 297.5283 237.06 
L 305.298202 231.3225 
L 309.119466 227.44125 
L 313.068105 282.6225 
L 317.016744 276.885 
L 320.583256 272.4975 
L 324.531895 269.7975 
L 328.353159 267.94125 
L 332.301798 264.3975 
L 336.123061 261.36 
L 340.0717 257.985 
L 344.020339 251.5725 
L 347.841602 247.35375 
L 351.790241 246.67875 
L 355.611505 241.4475 
L 359.560144 278.91 
L 363.508783 272.835 
L 367.202671 266.76 
L 374.972573 259.335 
L 378.921212 254.9475 
L 382.742476 252.07875 
L 386.691115 248.70375 
L 390.639753 240.60375 
L 394.461017 235.71 
L 398.409656 231.82875 
L 402.230919 224.06625 
L 406.179558 272.32875 
L 410.128197 259.335 
L 413.69471 249.5475 
L 417.643349 241.785 
L 421.464612 237.06 
L 425.413251 231.82875 
L 429.234515 227.10375 
L 433.183154 222.71625 
L 437.131793 217.8225 
L 440.953056 213.435 
L 444.901695 207.36 
L 448.722958 199.935 
L 452.671597 277.39125 
L 456.620236 269.1225 
L 460.186749 263.385 
L 464.135388 261.0225 
L 467.956651 256.635 
L 471.90529 252.585 
L 475.726554 247.69125 
L 479.675193 243.4725 
L 487.445095 232.50375 
L 491.393734 228.11625 
L 495.214997 220.01625 
L 499.163636 278.74125 
L 503.112275 271.485 
L 506.678788 265.57875 
L 510.627427 257.81625 
L 514.44869 255.11625 
L 518.397329 249.885 
L 522.218593 245.32875 
L 526.167232 241.785 
L 530.115871 236.7225 
L 533.937134 232.50375 
L 537.885773 228.6225 
L 541.707036 221.535 
L 545.655675 276.5475 
L 549.604314 270.4725 
L 553.298202 265.41 
L 557.246841 259.335 
L 561.068105 254.2725 
L 565.016744 247.86 
L 568.838007 241.11 
L 576.735285 230.14125 
L 580.556549 225.9225 
L 584.505187 227.44125 
L 588.326451 217.99125 
L 592.27509 276.04125 
L 596.223729 269.46 
L 599.790241 260.17875 
L 603.73888 253.935 
L 607.560144 244.99125 
L 611.508783 235.035 
L 615.330046 226.76625 
L 619.278685 219.34125 
L 623.227324 211.41 
L 627.048588 202.635 
L 630.997227 196.2225 
L 634.81849 181.87875 
L 638.767129 271.65375 
L 642.715768 258.82875 
L 650.230919 233.17875 
L 654.052183 223.05375 
L 658.000822 209.55375 
L 661.822085 198.585 
L 665.770724 184.41 
L 673.540627 161.1225 
L 677.489266 153.0225 
L 681.310529 141.21 
L 685.259168 270.135 
L 689.207807 259.6725 
L 692.774319 250.72875 
L 696.722958 243.97875 
L 700.544222 238.41 
L 704.492861 233.3475 
L 708.314124 226.42875 
L 712.262763 221.70375 
L 716.211402 215.46 
L 720.032666 208.71 
L 723.981305 203.985 
L 727.802568 196.2225 
L 731.751207 275.36625 
L 735.699846 266.92875 
L 739.393734 259.50375 
L 743.342373 255.96 
L 747.163636 252.9225 
L 747.163636 252.9225 
" clip-path="url(#p99db040531)" style="fill: none; stroke: #1f78b4; stroke-width: 1.5; stroke-linecap: square"/>
   </g>
   <g id="line2d_33">
    <path d="M 138.436364 228.45375 
L 142.257627 229.46625 
L 146.206266 228.45375 
L 150.02753 228.285 
L 153.976168 227.77875 
L 157.924807 229.46625 
L 161.746071 228.285 
L 165.69471 226.76625 
L 169.515973 225.585 
L 173.464612 225.75375 
L 177.413251 225.2475 
L 181.107139 226.26 
L 185.055778 224.91 
L 188.877042 223.39125 
L 192.825681 223.05375 
L 196.646944 221.535 
L 200.595583 219.67875 
L 204.544222 221.1975 
L 208.365485 221.70375 
L 212.314124 226.42875 
L 216.135388 233.17875 
L 220.084027 233.51625 
L 224.032666 232.16625 
L 227.599178 231.15375 
L 235.369081 233.51625 
L 239.31772 235.035 
L 243.138983 239.92875 
L 247.087622 242.1225 
L 251.036261 239.59125 
L 254.857524 240.26625 
L 258.806163 238.91625 
L 262.627427 235.20375 
L 266.576066 227.9475 
L 270.524705 231.82875 
L 274.091217 233.3475 
L 278.039856 229.635 
L 281.86112 231.49125 
L 285.809759 229.9725 
L 289.631022 227.2725 
L 293.579661 225.2475 
L 297.5283 225.75375 
L 301.349563 226.09125 
L 305.298202 225.75375 
L 309.119466 227.44125 
L 313.068105 242.62875 
L 320.583256 240.7725 
L 324.531895 243.135 
L 328.353159 242.7975 
L 332.301798 242.7975 
L 336.123061 243.135 
L 340.0717 243.30375 
L 344.020339 241.95375 
L 347.841602 240.435 
L 351.790241 242.62875 
L 355.611505 241.4475 
L 359.560144 237.56625 
L 363.508783 237.22875 
L 367.202671 235.54125 
L 371.15131 234.36 
L 374.972573 232.6725 
L 378.921212 231.9975 
L 382.742476 231.9975 
L 386.691115 232.16625 
L 390.639753 230.31 
L 394.461017 229.80375 
L 398.409656 226.5975 
L 402.230919 224.06625 
L 406.179558 217.31625 
L 410.128197 210.22875 
L 417.643349 202.46625 
L 421.464612 201.45375 
L 425.413251 200.61 
L 429.234515 198.75375 
L 433.183154 197.74125 
L 437.131793 201.11625 
L 440.953056 201.6225 
L 444.901695 199.42875 
L 448.722958 199.935 
L 452.671597 205.16625 
L 456.620236 210.06 
L 460.186749 214.27875 
L 464.135388 219.51 
L 467.956651 219.8475 
L 471.90529 221.02875 
L 475.726554 220.86 
L 479.675193 220.86 
L 483.623832 220.185 
L 487.445095 219.1725 
L 491.393734 220.86 
L 495.214997 220.01625 
L 499.163636 221.36625 
L 503.112275 222.37875 
L 506.678788 222.21 
L 510.627427 216.81 
L 514.44869 218.4975 
L 518.397329 217.1475 
L 522.218593 217.65375 
L 526.167232 218.32875 
L 530.115871 218.835 
L 533.937134 220.01625 
L 537.885773 220.5225 
L 541.707036 221.535 
L 545.655675 219.1725 
L 553.298202 221.36625 
L 557.246841 223.05375 
L 561.068105 220.69125 
L 565.016744 219.51 
L 568.838007 217.1475 
L 572.786646 215.1225 
L 576.735285 214.785 
L 580.556549 214.95375 
L 584.505187 220.35375 
L 588.326451 217.99125 
L 592.27509 217.31625 
L 596.223729 216.81 
L 599.790241 212.59125 
L 603.73888 212.4225 
L 607.560144 208.3725 
L 611.508783 204.82875 
L 615.330046 203.47875 
L 619.278685 201.45375 
L 623.227324 199.09125 
L 627.048588 194.535 
L 630.997227 186.435 
L 638.767129 177.3225 
L 642.715768 170.91 
L 646.28228 167.70375 
L 650.230919 160.27875 
L 654.052183 159.26625 
L 658.000822 155.7225 
L 661.822085 153.0225 
L 665.770724 146.2725 
L 669.719363 142.39125 
L 673.540627 140.02875 
L 677.489266 138.51 
L 681.310529 141.21 
L 685.259168 139.5225 
L 689.207807 142.2225 
L 692.774319 145.5975 
L 696.722958 152.685 
L 700.544222 157.41 
L 704.492861 165.8475 
L 708.314124 170.06625 
L 712.262763 179.51625 
L 716.211402 184.91625 
L 720.032666 189.30375 
L 723.981305 192.67875 
L 727.802568 196.2225 
L 731.751207 201.79125 
L 735.699846 203.81625 
L 739.393734 205.335 
L 743.342373 208.3725 
L 747.163636 211.0725 
L 747.163636 211.0725 
" clip-path="url(#p99db040531)" style="fill: none; stroke: #b2df8a; stroke-width: 1.5; stroke-linecap: square"/>
   </g>
   <g id="line2d_34">
    <path d="M 138.436364 286.84125 
L 142.257627 346.24125 
L 146.206266 293.92875 
L 150.02753 258.82875 
L 153.976168 277.2225 
L 157.924807 279.2475 
L 161.746071 246.34125 
L 165.69471 220.185 
L 169.515973 250.72875 
L 173.464612 255.96 
L 177.413251 290.7225 
L 181.107139 291.3975 
L 185.055778 313.16625 
L 188.877042 320.25375 
L 192.825681 260.17875 
L 196.646944 258.3225 
L 200.595583 272.835 
L 204.544222 259.84125 
L 208.365485 258.15375 
L 212.314124 236.0475 
L 216.135388 272.32875 
L 220.084027 276.5475 
L 224.032666 274.69125 
L 227.599178 246.51 
L 235.369081 316.71 
L 239.31772 293.76 
L 243.138983 286.50375 
L 247.087622 266.25375 
L 251.036261 272.835 
L 254.857524 258.3225 
L 258.806163 222.37875 
L 262.627427 259.335 
L 266.576066 264.90375 
L 270.524705 279.2475 
L 274.091217 274.35375 
L 278.039856 310.2975 
L 281.86112 309.79125 
L 285.809759 281.44125 
L 289.631022 272.66625 
L 293.579661 268.11 
L 297.5283 266.59125 
L 301.349563 251.91 
L 305.298202 234.36 
L 309.119466 260.51625 
L 313.068105 286.6725 
L 317.016744 286.6725 
L 320.583256 267.7725 
L 324.531895 307.5975 
L 328.353159 322.61625 
L 332.301798 281.44125 
L 336.123061 280.935 
L 340.0717 278.06625 
L 344.020339 275.535 
L 347.841602 259.335 
L 351.790241 245.835 
L 355.611505 269.96625 
L 359.560144 265.91625 
L 363.508783 270.64125 
L 367.202671 290.385 
L 371.15131 315.19125 
L 374.972573 324.4725 
L 378.921212 288.0225 
L 382.742476 272.835 
L 386.691115 272.32875 
L 390.639753 264.56625 
L 394.461017 254.2725 
L 398.409656 239.25375 
L 402.230919 273.51 
L 406.179558 195.37875 
L 410.128197 281.61 
L 413.69471 269.7975 
L 417.643349 296.29125 
L 421.464612 304.05375 
L 425.413251 280.5975 
L 429.234515 269.96625 
L 433.183154 261.52875 
L 437.131793 275.1975 
L 440.953056 252.41625 
L 444.901695 230.47875 
L 448.722958 263.7225 
L 452.671597 261.19125 
L 456.620236 280.76625 
L 460.186749 277.05375 
L 464.135388 311.14125 
L 467.956651 305.40375 
L 471.90529 267.94125 
L 475.726554 260.685 
L 479.675193 254.9475 
L 483.623832 269.7975 
L 487.445095 262.71 
L 491.393734 237.22875 
L 495.214997 258.66 
L 499.163636 286.335 
L 503.112275 305.40375 
L 506.678788 273.51 
L 510.627427 301.5225 
L 514.44869 310.12875 
L 518.397329 293.59125 
L 522.218593 269.62875 
L 526.167232 293.92875 
L 530.115871 279.585 
L 533.937134 257.47875 
L 537.885773 237.90375 
L 541.707036 265.24125 
L 545.655675 265.91625 
L 549.604314 272.4975 
L 553.298202 300.00375 
L 557.246841 369.36 
L 561.068105 270.97875 
L 565.016744 263.21625 
L 568.838007 257.14125 
L 572.786646 271.485 
L 576.735285 282.79125 
L 580.556549 252.2475 
L 584.505187 272.66625 
L 588.326451 284.31 
L 592.27509 241.61625 
L 596.223729 259.16625 
L 599.790241 253.5975 
L 603.73888 278.5725 
L 607.560144 294.7725 
L 611.508783 275.02875 
L 615.330046 266.4225 
L 619.278685 290.89125 
L 623.227324 263.55375 
L 627.048588 250.56 
L 630.997227 223.8975 
L 634.81849 297.30375 
L 638.767129 273.34125 
L 642.715768 264.56625 
L 646.28228 251.91 
L 650.230919 284.47875 
L 654.052183 299.32875 
L 658.000822 264.06 
L 661.822085 263.7225 
L 665.770724 275.535 
L 669.719363 274.185 
L 673.540627 275.70375 
L 677.489266 266.25375 
L 681.310529 288.86625 
L 685.259168 272.4975 
L 689.207807 275.36625 
L 692.774319 290.55375 
L 696.722958 303.21 
L 700.544222 313.84125 
L 708.314124 269.1225 
L 712.262763 257.81625 
L 716.211402 270.30375 
L 720.032666 276.37875 
L 723.981305 251.5725 
L 727.802568 256.2975 
L 731.751207 242.1225 
L 735.699846 300.67875 
L 739.393734 284.81625 
L 743.342373 279.07875 
L 747.163636 303.71625 
L 747.163636 303.71625 
" clip-path="url(#p99db040531)" style="fill: none; stroke: #33a02c; stroke-width: 1.5; stroke-linecap: square"/>
   </g>
   <g id="line2d_35">
    <path d="M 138.436364 275.36625 
L 142.257627 339.82875 
L 146.206266 351.135 
L 150.02753 328.86 
L 153.976168 323.96625 
L 157.924807 321.26625 
L 161.746071 286.16625 
L 165.69471 224.5725 
L 169.515973 192.00375 
L 173.464612 255.96 
L 177.413251 264.735 
L 181.107139 274.01625 
L 185.055778 305.235 
L 188.877042 342.6975 
L 192.825681 321.60375 
L 196.646944 298.31625 
L 200.595583 289.035 
L 204.544222 266.92875 
L 208.365485 242.62875 
L 212.314124 195.5475 
L 216.135388 185.25375 
L 220.084027 276.5475 
L 224.032666 268.95375 
L 227.599178 233.17875 
L 231.547817 233.17875 
L 235.369081 268.61625 
L 239.31772 280.42875 
L 243.138983 284.6475 
L 247.087622 268.95375 
L 251.036261 259.50375 
L 254.857524 235.3725 
L 258.806163 174.11625 
L 262.627427 149.81625 
L 266.576066 264.90375 
L 270.524705 262.035 
L 274.091217 254.2725 
L 281.86112 310.635 
L 285.809759 309.79125 
L 289.631022 300.51 
L 293.579661 286.6725 
L 297.5283 271.1475 
L 301.349563 240.7725 
L 305.298202 191.835 
L 309.119466 169.05375 
L 313.068105 286.6725 
L 317.016744 291.06 
L 320.583256 276.885 
L 324.531895 302.535 
L 328.353159 342.52875 
L 332.301798 342.0225 
L 336.123061 340.84125 
L 340.0717 336.96 
L 344.020339 330.5475 
L 347.841602 308.44125 
L 351.790241 272.66625 
L 355.611505 260.51625 
L 359.560144 265.91625 
L 363.508783 254.44125 
L 367.202671 262.87875 
L 371.15131 296.1225 
L 374.972573 338.14125 
L 378.921212 343.87875 
L 386.691115 325.485 
L 390.639753 308.2725 
L 394.461017 280.935 
L 398.409656 238.0725 
L 402.230919 229.2975 
L 406.179558 195.37875 
L 410.128197 194.70375 
L 413.69471 181.71 
L 417.643349 196.8975 
L 421.464612 219.8475 
L 425.413251 218.32875 
L 429.234515 205.84125 
L 433.183154 184.24125 
L 437.131793 176.985 
L 440.953056 145.42875 
L 444.901695 89.5725 
L 448.722958 69.15375 
L 452.671597 261.19125 
L 456.620236 259.84125 
L 460.186749 254.61 
L 464.135388 284.14125 
L 467.956651 307.42875 
L 471.90529 293.4225 
L 475.726554 272.16 
L 479.675193 244.8225 
L 483.623832 232.16625 
L 487.445095 212.25375 
L 491.393734 165.51 
L 495.214997 140.36625 
L 499.163636 286.335 
L 503.112275 309.45375 
L 506.678788 301.01625 
L 510.627427 320.25375 
L 514.44869 347.59125 
L 518.397329 358.56 
L 522.218593 346.57875 
L 526.167232 358.05375 
L 530.115871 355.5225 
L 533.937134 331.8975 
L 537.885773 289.035 
L 541.707036 272.16 
L 545.655675 265.91625 
L 549.604314 256.2975 
L 553.298202 274.5225 
L 557.246841 362.10375 
L 561.068105 351.30375 
L 565.016744 333.2475 
L 568.838007 309.11625 
L 572.786646 298.485 
L 576.735285 299.16 
L 580.556549 269.62875 
L 584.505187 260.01 
L 588.326451 262.20375 
L 592.27509 241.61625 
L 596.223729 218.16 
L 599.790241 188.46 
L 603.73888 184.91625 
L 607.560144 198.2475 
L 611.508783 190.8225 
L 615.330046 174.285 
L 619.278685 183.56625 
L 623.227324 163.99125 
L 627.048588 130.24125 
L 630.997227 66.96 
L 634.81849 84.00375 
L 638.767129 273.34125 
L 642.715768 255.79125 
L 646.28228 224.91 
L 650.230919 227.44125 
L 654.052183 245.32875 
L 658.000822 226.935 
L 661.822085 207.86625 
L 665.770724 201.11625 
L 669.719363 192.67875 
L 673.540627 185.92875 
L 677.489266 169.05375 
L 681.310529 176.31 
L 685.259168 272.4975 
L 689.207807 265.7475 
L 692.774319 274.185 
L 696.722958 295.4475 
L 700.544222 327.00375 
L 704.492861 335.61 
L 708.314124 322.95375 
L 712.262763 299.16 
L 716.211402 287.51625 
L 720.032666 281.77875 
L 723.981305 251.235 
L 727.802568 224.91 
L 731.751207 242.1225 
L 735.699846 261.0225 
L 739.393734 263.7225 
L 743.342373 260.685 
L 747.163636 282.45375 
L 747.163636 282.45375 
" clip-path="url(#p99db040531)" style="fill: none; stroke: #fb9a99; stroke-width: 1.5; stroke-linecap: square"/>
   </g>
   <g id="line2d_36">
    <path d="M 138.436364 216.30375 
L 142.257627 223.8975 
L 146.206266 225.75375 
L 150.02753 206.01 
L 153.976168 216.30375 
L 157.924807 231.82875 
L 161.746071 229.9725 
L 165.69471 212.4225 
L 169.515973 192.00375 
L 173.464612 174.45375 
L 177.413251 188.7975 
L 181.107139 195.71625 
L 185.055778 223.2225 
L 188.877042 195.21 
L 192.825681 159.60375 
L 196.646944 158.92875 
L 200.595583 154.20375 
L 204.544222 133.4475 
L 208.365485 145.935 
L 212.314124 162.4725 
L 216.135388 185.25375 
L 220.084027 206.685 
L 224.032666 189.81 
L 227.599178 142.2225 
L 231.547817 107.96625 
L 235.369081 103.91625 
L 239.31772 140.535 
L 243.138983 170.74125 
L 247.087622 163.8225 
L 251.036261 177.49125 
L 254.857524 177.82875 
L 262.627427 149.81625 
L 266.576066 137.32875 
L 270.524705 142.39125 
L 274.091217 171.75375 
L 278.039856 201.96 
L 281.86112 194.535 
L 285.809759 181.54125 
L 289.631022 166.86 
L 293.579661 168.71625 
L 297.5283 162.135 
L 301.349563 155.385 
L 305.298202 167.70375 
L 309.119466 169.05375 
L 313.068105 192.00375 
L 317.016744 199.76625 
L 320.583256 192.8475 
L 324.531895 189.97875 
L 328.353159 203.81625 
L 332.301798 203.985 
L 336.123061 212.59125 
L 340.0717 222.885 
L 344.020339 232.16625 
L 347.841602 239.59125 
L 351.790241 251.06625 
L 355.611505 260.51625 
L 359.560144 239.59125 
L 363.508783 223.2225 
L 367.202671 246.34125 
L 371.15131 254.10375 
L 374.972573 255.96 
L 378.921212 262.54125 
L 382.742476 254.2725 
L 386.691115 248.535 
L 390.639753 237.3975 
L 394.461017 232.335 
L 398.409656 225.75375 
L 402.230919 229.2975 
L 406.179558 157.24125 
L 410.128197 168.885 
L 413.69471 146.77875 
L 417.643349 126.0225 
L 421.464612 103.24125 
L 425.413251 94.9725 
L 429.234515 91.935 
L 433.183154 79.95375 
L 437.131793 91.76625 
L 440.953056 89.74125 
L 444.901695 80.1225 
L 448.722958 69.15375 
L 452.671597 139.69125 
L 456.620236 138.8475 
L 460.186749 146.61 
L 464.135388 162.81 
L 467.956651 164.16 
L 471.90529 150.66 
L 475.726554 140.70375 
L 479.675193 133.61625 
L 483.623832 127.71 
L 487.445095 138.67875 
L 491.393734 145.935 
L 495.214997 140.36625 
L 503.112275 193.5225 
L 506.678788 189.81 
L 510.627427 179.51625 
L 514.44869 184.57875 
L 518.397329 211.41 
L 522.218593 220.69125 
L 526.167232 260.51625 
L 530.115871 270.135 
L 533.937134 265.0725 
L 537.885773 265.57875 
L 541.707036 272.16 
L 545.655675 251.5725 
L 549.604314 217.8225 
L 553.298202 245.16 
L 557.246841 315.19125 
L 561.068105 276.21 
L 565.016744 245.66625 
L 568.838007 232.84125 
L 572.786646 209.55375 
L 576.735285 212.92875 
L 580.556549 207.52875 
L 584.505187 242.7975 
L 588.326451 262.20375 
L 592.27509 237.735 
L 596.223729 224.235 
L 599.790241 175.635 
L 603.73888 73.87875 
L 607.560144 100.54125 
L 611.508783 113.36625 
L 615.330046 123.66 
L 619.278685 144.75375 
L 623.227324 123.9975 
L 627.048588 122.31 
L 630.997227 69.3225 
L 634.81849 84.00375 
L 638.767129 118.76625 
L 642.715768 124.50375 
L 646.28228 122.6475 
L 650.230919 129.06 
L 654.052183 134.1225 
L 658.000822 122.31 
L 661.822085 119.2725 
L 665.770724 102.3975 
L 669.719363 114.04125 
L 673.540627 141.04125 
L 677.489266 185.4225 
L 681.310529 176.31 
L 685.259168 175.46625 
L 689.207807 186.7725 
L 692.774319 226.935 
L 696.722958 246.34125 
L 700.544222 261.19125 
L 704.492861 288.19125 
L 708.314124 293.4225 
L 712.262763 275.8725 
L 716.211402 271.99125 
L 720.032666 272.66625 
L 723.981305 257.985 
L 727.802568 224.91 
L 731.751207 193.69125 
L 735.699846 220.185 
L 739.393734 214.11 
L 743.342373 188.62875 
L 747.163636 177.66 
L 747.163636 177.66 
" clip-path="url(#p99db040531)" style="fill: none; stroke: #e31a1c; stroke-width: 1.5; stroke-linecap: square"/>
   </g>
   <g id="patch_3">
    <path d="M 108 384.48 
L 108 51.84 
" style="fill: none; stroke: #000000; stroke-width: 0.8; stroke-linejoin: miter; stroke-linecap: square"/>
   </g>
   <g id="patch_4">
    <path d="M 777.6 384.48 
L 777.6 51.84 
" style="fill: none; stroke: #000000; stroke-width: 0.8; stroke-linejoin: miter; stroke-linecap: square"/>
   </g>
   <g id="patch_5">
    <path d="M 108 384.48 
L 777.6 384.48 
" style="fill: none; stroke: #000000; stroke-width: 0.8; stroke-linejoin: miter; stroke-linecap: square"/>
   </g>
   <g id="patch_6">
    <path d="M 108 51.84 
L 777.6 51.84 
" style="fill: none; stroke: #000000; stroke-width: 0.8; stroke-linejoin: miter; stroke-linecap: square"/>
   </g>
   <g id="text_16">
    <!-- Inflación -->
    <g transform="translate(408.702344 45.84) scale(0.14 -0.14)">
     <defs>
      <path id="DejaVuSans-Bold-49" d="M 588 4666 
L 1791 4666 
L 1791 0 
L 588 0 
L 588 4666 
z
" transform="scale(0.015625)"/>
      <path id="DejaVuSans-Bold-6e" d="M 4056 2131 
L 4056 0 
L 2931 0 
L 2931 347 
L 2931 1631 
Q 2931 2084 2911 2256 
Q 2891 2428 2841 2509 
Q 2775 2619 2662 2680 
Q 2550 2741 2406 2741 
Q 2056 2741 1856 2470 
Q 1656 2200 1656 1722 
L 1656 0 
L 538 0 
L 538 3500 
L 1656 3500 
L 1656 2988 
Q 1909 3294 2193 3439 
Q 2478 3584 2822 3584 
Q 3428 3584 3742 3212 
Q 4056 2841 4056 2131 
z
" transform="scale(0.015625)"/>
      <path id="DejaVuSans-Bold-66" d="M 2841 4863 
L 2841 4128 
L 2222 4128 
Q 1984 4128 1890 4042 
Q 1797 3956 1797 3744 
L 1797 3500 
L 2753 3500 
L 2753 2700 
L 1797 2700 
L 1797 0 
L 678 0 
L 678 2700 
L 122 2700 
L 122 3500 
L 678 3500 
L 678 3744 
Q 678 4316 997 4589 
Q 1316 4863 1984 4863 
L 2841 4863 
z
" transform="scale(0.015625)"/>
      <path id="DejaVuSans-Bold-6c" d="M 538 4863 
L 1656 4863 
L 1656 0 
L 538 0 
L 538 4863 
z
" transform="scale(0.015625)"/>
      <path id="DejaVuSans-Bold-61" d="M 2106 1575 
Q 1756 1575 1579 1456 
Q 1403 1338 1403 1106 
Q 1403 894 1545 773 
Q 1688 653 1941 653 
Q 2256 653 2472 879 
Q 2688 1106 2688 1447 
L 2688 1575 
L 2106 1575 
z
M 3816 1997 
L 3816 0 
L 2688 0 
L 2688 519 
Q 2463 200 2181 54 
Q 1900 -91 1497 -91 
Q 953 -91 614 226 
Q 275 544 275 1050 
Q 275 1666 698 1953 
Q 1122 2241 2028 2241 
L 2688 2241 
L 2688 2328 
Q 2688 2594 2478 2717 
Q 2269 2841 1825 2841 
Q 1466 2841 1156 2769 
Q 847 2697 581 2553 
L 581 3406 
Q 941 3494 1303 3539 
Q 1666 3584 2028 3584 
Q 2975 3584 3395 3211 
Q 3816 2838 3816 1997 
z
" transform="scale(0.015625)"/>
      <path id="DejaVuSans-Bold-63" d="M 3366 3391 
L 3366 2478 
Q 3138 2634 2908 2709 
Q 2678 2784 2431 2784 
Q 1963 2784 1702 2511 
Q 1441 2238 1441 1747 
Q 1441 1256 1702 982 
Q 1963 709 2431 709 
Q 2694 709 2930 787 
Q 3166 866 3366 1019 
L 3366 103 
Q 3103 6 2833 -42 
Q 2563 -91 2291 -91 
Q 1344 -91 809 395 
Q 275 881 275 1747 
Q 275 2613 809 3098 
Q 1344 3584 2291 3584 
Q 2566 3584 2833 3536 
Q 3100 3488 3366 3391 
z
" transform="scale(0.015625)"/>
      <path id="DejaVuSans-Bold-69" d="M 538 3500 
L 1656 3500 
L 1656 0 
L 538 0 
L 538 3500 
z
M 538 4863 
L 1656 4863 
L 1656 3950 
L 538 3950 
L 538 4863 
z
" transform="scale(0.015625)"/>
      <path id="DejaVuSans-Bold-f3" d="M 2203 2784 
Q 1831 2784 1636 2517 
Q 1441 2250 1441 1747 
Q 1441 1244 1636 976 
Q 1831 709 2203 709 
Q 2569 709 2762 976 
Q 2956 1244 2956 1747 
Q 2956 2250 2762 2517 
Q 2569 2784 2203 2784 
z
M 2203 3584 
Q 3106 3584 3614 3096 
Q 4122 2609 4122 1747 
Q 4122 884 3614 396 
Q 3106 -91 2203 -91 
Q 1297 -91 786 396 
Q 275 884 275 1747 
Q 275 2609 786 3096 
Q 1297 3584 2203 3584 
z
M 2694 5119 
L 3578 5119 
L 2425 3944 
L 1813 3944 
L 2694 5119 
z
" transform="scale(0.015625)"/>
     </defs>
     <use xlink:href="#DejaVuSans-Bold-49"/>
     <use xlink:href="#DejaVuSans-Bold-6e" transform="translate(37.207031 0)"/>
     <use xlink:href="#DejaVuSans-Bold-66" transform="translate(108.398438 0)"/>
     <use xlink:href="#DejaVuSans-Bold-6c" transform="translate(151.904297 0)"/>
     <use xlink:href="#DejaVuSans-Bold-61" transform="translate(186.181641 0)"/>
     <use xlink:href="#DejaVuSans-Bold-63" transform="translate(253.662109 0)"/>
     <use xlink:href="#DejaVuSans-Bold-69" transform="translate(312.939453 0)"/>
     <use xlink:href="#DejaVuSans-Bold-f3" transform="translate(347.216797 0)"/>
     <use xlink:href="#DejaVuSans-Bold-6e" transform="translate(415.917969 0)"/>
    </g>
   </g>
   <g id="legend_1">
    <g id="patch_7">
     <path d="M 113.6 128.9675 
L 288.51375 128.9675 
Q 290.11375 128.9675 290.11375 127.3675 
L 290.11375 57.44 
Q 290.11375 55.84 288.51375 55.84 
L 113.6 55.84 
Q 112 55.84 112 57.44 
L 112 127.3675 
Q 112 128.9675 113.6 128.9675 
z
" style="fill: #ffffff; opacity: 0.8; stroke: #cccccc; stroke-linejoin: miter"/>
    </g>
    <g id="line2d_37">
     <path d="M 115.2 62.31875 
L 123.2 62.31875 
L 131.2 62.31875 
" style="fill: none; stroke: #a6cee3; stroke-width: 1.5; stroke-linecap: square"/>
    </g>
    <g id="text_17">
     <!-- Subyacente, Mensual -->
     <g transform="translate(137.6 65.11875) scale(0.08 -0.08)">
      <defs>
       <path id="DejaVuSans-53" d="M 3425 4513 
L 3425 3897 
Q 3066 4069 2747 4153 
Q 2428 4238 2131 4238 
Q 1616 4238 1336 4038 
Q 1056 3838 1056 3469 
Q 1056 3159 1242 3001 
Q 1428 2844 1947 2747 
L 2328 2669 
Q 3034 2534 3370 2195 
Q 3706 1856 3706 1288 
Q 3706 609 3251 259 
Q 2797 -91 1919 -91 
Q 1588 -91 1214 -16 
Q 841 59 441 206 
L 441 856 
Q 825 641 1194 531 
Q 1563 422 1919 422 
Q 2459 422 2753 634 
Q 3047 847 3047 1241 
Q 3047 1584 2836 1778 
Q 2625 1972 2144 2069 
L 1759 2144 
Q 1053 2284 737 2584 
Q 422 2884 422 3419 
Q 422 4038 858 4394 
Q 1294 4750 2059 4750 
Q 2388 4750 2728 4690 
Q 3069 4631 3425 4513 
z
" transform="scale(0.015625)"/>
       <path id="DejaVuSans-75" d="M 544 1381 
L 544 3500 
L 1119 3500 
L 1119 1403 
Q 1119 906 1312 657 
Q 1506 409 1894 409 
Q 2359 409 2629 706 
Q 2900 1003 2900 1516 
L 2900 3500 
L 3475 3500 
L 3475 0 
L 2900 0 
L 2900 538 
Q 2691 219 2414 64 
Q 2138 -91 1772 -91 
Q 1169 -91 856 284 
Q 544 659 544 1381 
z
M 1991 3584 
L 1991 3584 
z
" transform="scale(0.015625)"/>
       <path id="DejaVuSans-62" d="M 3116 1747 
Q 3116 2381 2855 2742 
Q 2594 3103 2138 3103 
Q 1681 3103 1420 2742 
Q 1159 2381 1159 1747 
Q 1159 1113 1420 752 
Q 1681 391 2138 391 
Q 2594 391 2855 752 
Q 3116 1113 3116 1747 
z
M 1159 2969 
Q 1341 3281 1617 3432 
Q 1894 3584 2278 3584 
Q 2916 3584 3314 3078 
Q 3713 2572 3713 1747 
Q 3713 922 3314 415 
Q 2916 -91 2278 -91 
Q 1894 -91 1617 61 
Q 1341 213 1159 525 
L 1159 0 
L 581 0 
L 581 4863 
L 1159 4863 
L 1159 2969 
z
" transform="scale(0.015625)"/>
       <path id="DejaVuSans-79" d="M 2059 -325 
Q 1816 -950 1584 -1140 
Q 1353 -1331 966 -1331 
L 506 -1331 
L 506 -850 
L 844 -850 
Q 1081 -850 1212 -737 
Q 1344 -625 1503 -206 
L 1606 56 
L 191 3500 
L 800 3500 
L 1894 763 
L 2988 3500 
L 3597 3500 
L 2059 -325 
z
" transform="scale(0.015625)"/>
       <path id="DejaVuSans-61" d="M 2194 1759 
Q 1497 1759 1228 1600 
Q 959 1441 959 1056 
Q 959 750 1161 570 
Q 1363 391 1709 391 
Q 2188 391 2477 730 
Q 2766 1069 2766 1631 
L 2766 1759 
L 2194 1759 
z
M 3341 1997 
L 3341 0 
L 2766 0 
L 2766 531 
Q 2569 213 2275 61 
Q 1981 -91 1556 -91 
Q 1019 -91 701 211 
Q 384 513 384 1019 
Q 384 1609 779 1909 
Q 1175 2209 1959 2209 
L 2766 2209 
L 2766 2266 
Q 2766 2663 2505 2880 
Q 2244 3097 1772 3097 
Q 1472 3097 1187 3025 
Q 903 2953 641 2809 
L 641 3341 
Q 956 3463 1253 3523 
Q 1550 3584 1831 3584 
Q 2591 3584 2966 3190 
Q 3341 2797 3341 1997 
z
" transform="scale(0.015625)"/>
       <path id="DejaVuSans-63" d="M 3122 3366 
L 3122 2828 
Q 2878 2963 2633 3030 
Q 2388 3097 2138 3097 
Q 1578 3097 1268 2742 
Q 959 2388 959 1747 
Q 959 1106 1268 751 
Q 1578 397 2138 397 
Q 2388 397 2633 464 
Q 2878 531 3122 666 
L 3122 134 
Q 2881 22 2623 -34 
Q 2366 -91 2075 -91 
Q 1284 -91 818 406 
Q 353 903 353 1747 
Q 353 2603 823 3093 
Q 1294 3584 2113 3584 
Q 2378 3584 2631 3529 
Q 2884 3475 3122 3366 
z
" transform="scale(0.015625)"/>
       <path id="DejaVuSans-65" d="M 3597 1894 
L 3597 1613 
L 953 1613 
Q 991 1019 1311 708 
Q 1631 397 2203 397 
Q 2534 397 2845 478 
Q 3156 559 3463 722 
L 3463 178 
Q 3153 47 2828 -22 
Q 2503 -91 2169 -91 
Q 1331 -91 842 396 
Q 353 884 353 1716 
Q 353 2575 817 3079 
Q 1281 3584 2069 3584 
Q 2775 3584 3186 3129 
Q 3597 2675 3597 1894 
z
M 3022 2063 
Q 3016 2534 2758 2815 
Q 2500 3097 2075 3097 
Q 1594 3097 1305 2825 
Q 1016 2553 972 2059 
L 3022 2063 
z
" transform="scale(0.015625)"/>
       <path id="DejaVuSans-6e" d="M 3513 2113 
L 3513 0 
L 2938 0 
L 2938 2094 
Q 2938 2591 2744 2837 
Q 2550 3084 2163 3084 
Q 1697 3084 1428 2787 
Q 1159 2491 1159 1978 
L 1159 0 
L 581 0 
L 581 3500 
L 1159 3500 
L 1159 2956 
Q 1366 3272 1645 3428 
Q 1925 3584 2291 3584 
Q 2894 3584 3203 3211 
Q 3513 2838 3513 2113 
z
" transform="scale(0.015625)"/>
       <path id="DejaVuSans-74" d="M 1172 4494 
L 1172 3500 
L 2356 3500 
L 2356 3053 
L 1172 3053 
L 1172 1153 
Q 1172 725 1289 603 
Q 1406 481 1766 481 
L 2356 481 
L 2356 0 
L 1766 0 
Q 1100 0 847 248 
Q 594 497 594 1153 
L 594 3053 
L 172 3053 
L 172 3500 
L 594 3500 
L 594 4494 
L 1172 4494 
z
" transform="scale(0.015625)"/>
       <path id="DejaVuSans-2c" d="M 750 794 
L 1409 794 
L 1409 256 
L 897 -744 
L 494 -744 
L 750 256 
L 750 794 
z
" transform="scale(0.015625)"/>
       <path id="DejaVuSans-20" transform="scale(0.015625)"/>
       <path id="DejaVuSans-4d" d="M 628 4666 
L 1569 4666 
L 2759 1491 
L 3956 4666 
L 4897 4666 
L 4897 0 
L 4281 0 
L 4281 4097 
L 3078 897 
L 2444 897 
L 1241 4097 
L 1241 0 
L 628 0 
L 628 4666 
z
" transform="scale(0.015625)"/>
       <path id="DejaVuSans-73" d="M 2834 3397 
L 2834 2853 
Q 2591 2978 2328 3040 
Q 2066 3103 1784 3103 
Q 1356 3103 1142 2972 
Q 928 2841 928 2578 
Q 928 2378 1081 2264 
Q 1234 2150 1697 2047 
L 1894 2003 
Q 2506 1872 2764 1633 
Q 3022 1394 3022 966 
Q 3022 478 2636 193 
Q 2250 -91 1575 -91 
Q 1294 -91 989 -36 
Q 684 19 347 128 
L 347 722 
Q 666 556 975 473 
Q 1284 391 1588 391 
Q 1994 391 2212 530 
Q 2431 669 2431 922 
Q 2431 1156 2273 1281 
Q 2116 1406 1581 1522 
L 1381 1569 
Q 847 1681 609 1914 
Q 372 2147 372 2553 
Q 372 3047 722 3315 
Q 1072 3584 1716 3584 
Q 2034 3584 2315 3537 
Q 2597 3491 2834 3397 
z
" transform="scale(0.015625)"/>
       <path id="DejaVuSans-6c" d="M 603 4863 
L 1178 4863 
L 1178 0 
L 603 0 
L 603 4863 
z
" transform="scale(0.015625)"/>
      </defs>
      <use xlink:href="#DejaVuSans-53"/>
      <use xlink:href="#DejaVuSans-75" transform="translate(63.476562 0)"/>
      <use xlink:href="#DejaVuSans-62" transform="translate(126.855469 0)"/>
      <use xlink:href="#DejaVuSans-79" transform="translate(190.332031 0)"/>
      <use xlink:href="#DejaVuSans-61" transform="translate(249.511719 0)"/>
      <use xlink:href="#DejaVuSans-63" transform="translate(310.791016 0)"/>
      <use xlink:href="#DejaVuSans-65" transform="translate(365.771484 0)"/>
      <use xlink:href="#DejaVuSans-6e" transform="translate(427.294922 0)"/>
      <use xlink:href="#DejaVuSans-74" transform="translate(490.673828 0)"/>
      <use xlink:href="#DejaVuSans-65" transform="translate(529.882812 0)"/>
      <use xlink:href="#DejaVuSans-2c" transform="translate(591.40625 0)"/>
      <use xlink:href="#DejaVuSans-20" transform="translate(623.193359 0)"/>
      <use xlink:href="#DejaVuSans-4d" transform="translate(654.980469 0)"/>
      <use xlink:href="#DejaVuSans-65" transform="translate(741.259766 0)"/>
      <use xlink:href="#DejaVuSans-6e" transform="translate(802.783203 0)"/>
      <use xlink:href="#DejaVuSans-73" transform="translate(866.162109 0)"/>
      <use xlink:href="#DejaVuSans-75" transform="translate(918.261719 0)"/>
      <use xlink:href="#DejaVuSans-61" transform="translate(981.640625 0)"/>
      <use xlink:href="#DejaVuSans-6c" transform="translate(1042.919922 0)"/>
     </g>
    </g>
    <g id="line2d_38">
     <path d="M 115.2 74.1975 
L 123.2 74.1975 
L 131.2 74.1975 
" style="fill: none; stroke: #1f78b4; stroke-width: 1.5; stroke-linecap: square"/>
    </g>
    <g id="text_18">
     <!-- Subyacente, Acumulada en el año -->
     <g transform="translate(137.6 76.9975) scale(0.08 -0.08)">
      <defs>
       <path id="DejaVuSans-41" d="M 2188 4044 
L 1331 1722 
L 3047 1722 
L 2188 4044 
z
M 1831 4666 
L 2547 4666 
L 4325 0 
L 3669 0 
L 3244 1197 
L 1141 1197 
L 716 0 
L 50 0 
L 1831 4666 
z
" transform="scale(0.015625)"/>
       <path id="DejaVuSans-6d" d="M 3328 2828 
Q 3544 3216 3844 3400 
Q 4144 3584 4550 3584 
Q 5097 3584 5394 3201 
Q 5691 2819 5691 2113 
L 5691 0 
L 5113 0 
L 5113 2094 
Q 5113 2597 4934 2840 
Q 4756 3084 4391 3084 
Q 3944 3084 3684 2787 
Q 3425 2491 3425 1978 
L 3425 0 
L 2847 0 
L 2847 2094 
Q 2847 2600 2669 2842 
Q 2491 3084 2119 3084 
Q 1678 3084 1418 2786 
Q 1159 2488 1159 1978 
L 1159 0 
L 581 0 
L 581 3500 
L 1159 3500 
L 1159 2956 
Q 1356 3278 1631 3431 
Q 1906 3584 2284 3584 
Q 2666 3584 2933 3390 
Q 3200 3197 3328 2828 
z
" transform="scale(0.015625)"/>
       <path id="DejaVuSans-64" d="M 2906 2969 
L 2906 4863 
L 3481 4863 
L 3481 0 
L 2906 0 
L 2906 525 
Q 2725 213 2448 61 
Q 2172 -91 1784 -91 
Q 1150 -91 751 415 
Q 353 922 353 1747 
Q 353 2572 751 3078 
Q 1150 3584 1784 3584 
Q 2172 3584 2448 3432 
Q 2725 3281 2906 2969 
z
M 947 1747 
Q 947 1113 1208 752 
Q 1469 391 1925 391 
Q 2381 391 2643 752 
Q 2906 1113 2906 1747 
Q 2906 2381 2643 2742 
Q 2381 3103 1925 3103 
Q 1469 3103 1208 2742 
Q 947 2381 947 1747 
z
" transform="scale(0.015625)"/>
       <path id="DejaVuSans-f1" d="M 3513 2113 
L 3513 0 
L 2938 0 
L 2938 2094 
Q 2938 2591 2744 2837 
Q 2550 3084 2163 3084 
Q 1697 3084 1428 2787 
Q 1159 2491 1159 1978 
L 1159 0 
L 581 0 
L 581 3500 
L 1159 3500 
L 1159 2956 
Q 1366 3272 1645 3428 
Q 1925 3584 2291 3584 
Q 2894 3584 3203 3211 
Q 3513 2838 3513 2113 
z
M 2063 4281 
L 1884 4453 
Q 1816 4516 1764 4545 
Q 1713 4575 1672 4575 
Q 1553 4575 1497 4461 
Q 1441 4347 1434 4091 
L 1044 4091 
Q 1050 4513 1209 4742 
Q 1369 4972 1653 4972 
Q 1772 4972 1872 4928 
Q 1972 4884 2088 4781 
L 2266 4609 
Q 2334 4547 2386 4517 
Q 2438 4488 2478 4488 
Q 2597 4488 2653 4602 
Q 2709 4716 2716 4972 
L 3106 4972 
Q 3100 4550 2940 4320 
Q 2781 4091 2497 4091 
Q 2378 4091 2278 4134 
Q 2178 4178 2063 4281 
z
" transform="scale(0.015625)"/>
       <path id="DejaVuSans-6f" d="M 1959 3097 
Q 1497 3097 1228 2736 
Q 959 2375 959 1747 
Q 959 1119 1226 758 
Q 1494 397 1959 397 
Q 2419 397 2687 759 
Q 2956 1122 2956 1747 
Q 2956 2369 2687 2733 
Q 2419 3097 1959 3097 
z
M 1959 3584 
Q 2709 3584 3137 3096 
Q 3566 2609 3566 1747 
Q 3566 888 3137 398 
Q 2709 -91 1959 -91 
Q 1206 -91 779 398 
Q 353 888 353 1747 
Q 353 2609 779 3096 
Q 1206 3584 1959 3584 
z
" transform="scale(0.015625)"/>
      </defs>
      <use xlink:href="#DejaVuSans-53"/>
      <use xlink:href="#DejaVuSans-75" transform="translate(63.476562 0)"/>
      <use xlink:href="#DejaVuSans-62" transform="translate(126.855469 0)"/>
      <use xlink:href="#DejaVuSans-79" transform="translate(190.332031 0)"/>
      <use xlink:href="#DejaVuSans-61" transform="translate(249.511719 0)"/>
      <use xlink:href="#DejaVuSans-63" transform="translate(310.791016 0)"/>
      <use xlink:href="#DejaVuSans-65" transform="translate(365.771484 0)"/>
      <use xlink:href="#DejaVuSans-6e" transform="translate(427.294922 0)"/>
      <use xlink:href="#DejaVuSans-74" transform="translate(490.673828 0)"/>
      <use xlink:href="#DejaVuSans-65" transform="translate(529.882812 0)"/>
      <use xlink:href="#DejaVuSans-2c" transform="translate(591.40625 0)"/>
      <use xlink:href="#DejaVuSans-20" transform="translate(623.193359 0)"/>
      <use xlink:href="#DejaVuSans-41" transform="translate(654.980469 0)"/>
      <use xlink:href="#DejaVuSans-63" transform="translate(721.638672 0)"/>
      <use xlink:href="#DejaVuSans-75" transform="translate(776.619141 0)"/>
      <use xlink:href="#DejaVuSans-6d" transform="translate(839.998047 0)"/>
      <use xlink:href="#DejaVuSans-75" transform="translate(937.410156 0)"/>
      <use xlink:href="#DejaVuSans-6c" transform="translate(1000.789062 0)"/>
      <use xlink:href="#DejaVuSans-61" transform="translate(1028.572266 0)"/>
      <use xlink:href="#DejaVuSans-64" transform="translate(1089.851562 0)"/>
      <use xlink:href="#DejaVuSans-61" transform="translate(1153.328125 0)"/>
      <use xlink:href="#DejaVuSans-20" transform="translate(1214.607422 0)"/>
      <use xlink:href="#DejaVuSans-65" transform="translate(1246.394531 0)"/>
      <use xlink:href="#DejaVuSans-6e" transform="translate(1307.917969 0)"/>
      <use xlink:href="#DejaVuSans-20" transform="translate(1371.296875 0)"/>
      <use xlink:href="#DejaVuSans-65" transform="translate(1403.083984 0)"/>
      <use xlink:href="#DejaVuSans-6c" transform="translate(1464.607422 0)"/>
      <use xlink:href="#DejaVuSans-20" transform="translate(1492.390625 0)"/>
      <use xlink:href="#DejaVuSans-61" transform="translate(1524.177734 0)"/>
      <use xlink:href="#DejaVuSans-f1" transform="translate(1585.457031 0)"/>
      <use xlink:href="#DejaVuSans-6f" transform="translate(1648.835938 0)"/>
     </g>
    </g>
    <g id="line2d_39">
     <path d="M 115.2 85.94 
L 123.2 85.94 
L 131.2 85.94 
" style="fill: none; stroke: #b2df8a; stroke-width: 1.5; stroke-linecap: square"/>
    </g>
    <g id="text_19">
     <!-- Subyacente, Anual -->
     <g transform="translate(137.6 88.74) scale(0.08 -0.08)">
      <use xlink:href="#DejaVuSans-53"/>
      <use xlink:href="#DejaVuSans-75" transform="translate(63.476562 0)"/>
      <use xlink:href="#DejaVuSans-62" transform="translate(126.855469 0)"/>
      <use xlink:href="#DejaVuSans-79" transform="translate(190.332031 0)"/>
      <use xlink:href="#DejaVuSans-61" transform="translate(249.511719 0)"/>
      <use xlink:href="#DejaVuSans-63" transform="translate(310.791016 0)"/>
      <use xlink:href="#DejaVuSans-65" transform="translate(365.771484 0)"/>
      <use xlink:href="#DejaVuSans-6e" transform="translate(427.294922 0)"/>
      <use xlink:href="#DejaVuSans-74" transform="translate(490.673828 0)"/>
      <use xlink:href="#DejaVuSans-65" transform="translate(529.882812 0)"/>
      <use xlink:href="#DejaVuSans-2c" transform="translate(591.40625 0)"/>
      <use xlink:href="#DejaVuSans-20" transform="translate(623.193359 0)"/>
      <use xlink:href="#DejaVuSans-41" transform="translate(654.980469 0)"/>
      <use xlink:href="#DejaVuSans-6e" transform="translate(723.388672 0)"/>
      <use xlink:href="#DejaVuSans-75" transform="translate(786.767578 0)"/>
      <use xlink:href="#DejaVuSans-61" transform="translate(850.146484 0)"/>
      <use xlink:href="#DejaVuSans-6c" transform="translate(911.425781 0)"/>
     </g>
    </g>
    <g id="line2d_40">
     <path d="M 115.2 97.6825 
L 123.2 97.6825 
L 131.2 97.6825 
" style="fill: none; stroke: #33a02c; stroke-width: 1.5; stroke-linecap: square"/>
    </g>
    <g id="text_20">
     <!-- No subyacente, Mensual -->
     <g transform="translate(137.6 100.4825) scale(0.08 -0.08)">
      <defs>
       <path id="DejaVuSans-4e" d="M 628 4666 
L 1478 4666 
L 3547 763 
L 3547 4666 
L 4159 4666 
L 4159 0 
L 3309 0 
L 1241 3903 
L 1241 0 
L 628 0 
L 628 4666 
z
" transform="scale(0.015625)"/>
      </defs>
      <use xlink:href="#DejaVuSans-4e"/>
      <use xlink:href="#DejaVuSans-6f" transform="translate(74.804688 0)"/>
      <use xlink:href="#DejaVuSans-20" transform="translate(135.986328 0)"/>
      <use xlink:href="#DejaVuSans-73" transform="translate(167.773438 0)"/>
      <use xlink:href="#DejaVuSans-75" transform="translate(219.873047 0)"/>
      <use xlink:href="#DejaVuSans-62" transform="translate(283.251953 0)"/>
      <use xlink:href="#DejaVuSans-79" transform="translate(346.728516 0)"/>
      <use xlink:href="#DejaVuSans-61" transform="translate(405.908203 0)"/>
      <use xlink:href="#DejaVuSans-63" transform="translate(467.1875 0)"/>
      <use xlink:href="#DejaVuSans-65" transform="translate(522.167969 0)"/>
      <use xlink:href="#DejaVuSans-6e" transform="translate(583.691406 0)"/>
      <use xlink:href="#DejaVuSans-74" transform="translate(647.070312 0)"/>
      <use xlink:href="#DejaVuSans-65" transform="translate(686.279297 0)"/>
      <use xlink:href="#DejaVuSans-2c" transform="translate(747.802734 0)"/>
      <use xlink:href="#DejaVuSans-20" transform="translate(779.589844 0)"/>
      <use xlink:href="#DejaVuSans-4d" transform="translate(811.376953 0)"/>
      <use xlink:href="#DejaVuSans-65" transform="translate(897.65625 0)"/>
      <use xlink:href="#DejaVuSans-6e" transform="translate(959.179688 0)"/>
      <use xlink:href="#DejaVuSans-73" transform="translate(1022.558594 0)"/>
      <use xlink:href="#DejaVuSans-75" transform="translate(1074.658203 0)"/>
      <use xlink:href="#DejaVuSans-61" transform="translate(1138.037109 0)"/>
      <use xlink:href="#DejaVuSans-6c" transform="translate(1199.316406 0)"/>
     </g>
    </g>
    <g id="line2d_41">
     <path d="M 115.2 109.56125 
L 123.2 109.56125 
L 131.2 109.56125 
" style="fill: none; stroke: #fb9a99; stroke-width: 1.5; stroke-linecap: square"/>
    </g>
    <g id="text_21">
     <!-- No subyacente, Acumulada en el año -->
     <g transform="translate(137.6 112.36125) scale(0.08 -0.08)">
      <use xlink:href="#DejaVuSans-4e"/>
      <use xlink:href="#DejaVuSans-6f" transform="translate(74.804688 0)"/>
      <use xlink:href="#DejaVuSans-20" transform="translate(135.986328 0)"/>
      <use xlink:href="#DejaVuSans-73" transform="translate(167.773438 0)"/>
      <use xlink:href="#DejaVuSans-75" transform="translate(219.873047 0)"/>
      <use xlink:href="#DejaVuSans-62" transform="translate(283.251953 0)"/>
      <use xlink:href="#DejaVuSans-79" transform="translate(346.728516 0)"/>
      <use xlink:href="#DejaVuSans-61" transform="translate(405.908203 0)"/>
      <use xlink:href="#DejaVuSans-63" transform="translate(467.1875 0)"/>
      <use xlink:href="#DejaVuSans-65" transform="translate(522.167969 0)"/>
      <use xlink:href="#DejaVuSans-6e" transform="translate(583.691406 0)"/>
      <use xlink:href="#DejaVuSans-74" transform="translate(647.070312 0)"/>
      <use xlink:href="#DejaVuSans-65" transform="translate(686.279297 0)"/>
      <use xlink:href="#DejaVuSans-2c" transform="translate(747.802734 0)"/>
      <use xlink:href="#DejaVuSans-20" transform="translate(779.589844 0)"/>
      <use xlink:href="#DejaVuSans-41" transform="translate(811.376953 0)"/>
      <use xlink:href="#DejaVuSans-63" transform="translate(878.035156 0)"/>
      <use xlink:href="#DejaVuSans-75" transform="translate(933.015625 0)"/>
      <use xlink:href="#DejaVuSans-6d" transform="translate(996.394531 0)"/>
      <use xlink:href="#DejaVuSans-75" transform="translate(1093.806641 0)"/>
      <use xlink:href="#DejaVuSans-6c" transform="translate(1157.185547 0)"/>
      <use xlink:href="#DejaVuSans-61" transform="translate(1184.96875 0)"/>
      <use xlink:href="#DejaVuSans-64" transform="translate(1246.248047 0)"/>
      <use xlink:href="#DejaVuSans-61" transform="translate(1309.724609 0)"/>
      <use xlink:href="#DejaVuSans-20" transform="translate(1371.003906 0)"/>
      <use xlink:href="#DejaVuSans-65" transform="translate(1402.791016 0)"/>
      <use xlink:href="#DejaVuSans-6e" transform="translate(1464.314453 0)"/>
      <use xlink:href="#DejaVuSans-20" transform="translate(1527.693359 0)"/>
      <use xlink:href="#DejaVuSans-65" transform="translate(1559.480469 0)"/>
      <use xlink:href="#DejaVuSans-6c" transform="translate(1621.003906 0)"/>
      <use xlink:href="#DejaVuSans-20" transform="translate(1648.787109 0)"/>
      <use xlink:href="#DejaVuSans-61" transform="translate(1680.574219 0)"/>
      <use xlink:href="#DejaVuSans-f1" transform="translate(1741.853516 0)"/>
      <use xlink:href="#DejaVuSans-6f" transform="translate(1805.232422 0)"/>
     </g>
    </g>
    <g id="line2d_42">
     <path d="M 115.2 121.30375 
L 123.2 121.30375 
L 131.2 121.30375 
" style="fill: none; stroke: #e31a1c; stroke-width: 1.5; stroke-linecap: square"/>
    </g>
    <g id="text_22">
     <!-- No subyacente, Anual -->
     <g transform="translate(137.6 124.10375) scale(0.08 -0.08)">
      <use xlink:href="#DejaVuSans-4e"/>
      <use xlink:href="#DejaVuSans-6f" transform="translate(74.804688 0)"/>
      <use xlink:href="#DejaVuSans-20" transform="translate(135.986328 0)"/>
      <use xlink:href="#DejaVuSans-73" transform="translate(167.773438 0)"/>
      <use xlink:href="#DejaVuSans-75" transform="translate(219.873047 0)"/>
      <use xlink:href="#DejaVuSans-62" transform="translate(283.251953 0)"/>
      <use xlink:href="#DejaVuSans-79" transform="translate(346.728516 0)"/>
      <use xlink:href="#DejaVuSans-61" transform="translate(405.908203 0)"/>
      <use xlink:href="#DejaVuSans-63" transform="translate(467.1875 0)"/>
      <use xlink:href="#DejaVuSans-65" transform="translate(522.167969 0)"/>
      <use xlink:href="#DejaVuSans-6e" transform="translate(583.691406 0)"/>
      <use xlink:href="#DejaVuSans-74" transform="translate(647.070312 0)"/>
      <use xlink:href="#DejaVuSans-65" transform="translate(686.279297 0)"/>
      <use xlink:href="#DejaVuSans-2c" transform="translate(747.802734 0)"/>
      <use xlink:href="#DejaVuSans-20" transform="translate(779.589844 0)"/>
      <use xlink:href="#DejaVuSans-41" transform="translate(811.376953 0)"/>
      <use xlink:href="#DejaVuSans-6e" transform="translate(879.785156 0)"/>
      <use xlink:href="#DejaVuSans-75" transform="translate(943.164062 0)"/>
      <use xlink:href="#DejaVuSans-61" transform="translate(1006.542969 0)"/>
      <use xlink:href="#DejaVuSans-6c" transform="translate(1067.822266 0)"/>
     </g>
    </g>
   </g>
  </g>
 </g>
 <defs>
  <clipPath id="p99db040531">
   <rect x="108" y="51.84" width="669.6" height="332.64"/>
  </clipPath>
 </defs>
</svg>
