<?xml version="1.0" encoding="utf-8" standalone="no"?>
<!DOCTYPE svg PUBLIC "-//W3C//DTD SVG 1.1//EN"
  "http://www.w3.org/Graphics/SVG/1.1/DTD/svg11.dtd">
<svg xmlns:xlink="http://www.w3.org/1999/xlink" width="864pt" height="432pt" viewBox="0 0 864 432" xmlns="http://www.w3.org/2000/svg" version="1.1">
 <metadata>
  <rdf:RDF xmlns:dc="http://purl.org/dc/elements/1.1/" xmlns:cc="http://creativecommons.org/ns#" xmlns:rdf="http://www.w3.org/1999/02/22-rdf-syntax-ns#">
   <cc:Work>
    <dc:type rdf:resource="http://purl.org/dc/dcmitype/StillImage"/>
    <dc:date>2025-02-23T06:43:54.816826</dc:date>
    <dc:format>image/svg+xml</dc:format>
    <dc:creator>
     <cc:Agent>
      <dc:title>Matplotlib v3.10.0, https://matplotlib.org/</dc:title>
     </cc:Agent>
    </dc:creator>
   </cc:Work>
  </rdf:RDF>
 </metadata>
 <defs>
  <style type="text/css">*{stroke-linejoin: round; stroke-linecap: butt}</style>
 </defs>
 <g id="figure_1">
  <g id="patch_1">
   <path d="M 0 432 
L 864 432 
L 864 0 
L 0 0 
z
" style="fill: #ffffff"/>
  </g>
  <g id="axes_1">
   <g id="patch_2">
    <path d="M 108 384.48 
L 777.6 384.48 
L 777.6 51.84 
L 108 51.84 
z
" style="fill: #ffffff"/>
   </g>
   <g id="matplotlib.axis_1">
    <g id="xtick_1">
     <g id="line2d_1">
      <path d="M 175.285136 384.48 
L 175.285136 51.84 
" clip-path="url(#p655d74d06b)" style="fill: none; stroke-dasharray: 2.96,1.28; stroke-dashoffset: 0; stroke: #b0b0b0; stroke-opacity: 0.5; stroke-width: 0.8"/>
     </g>
     <g id="line2d_2">
      <defs>
       <path id="madb2f135c2" d="M 0 0 
L 0 3.5 
" style="stroke: #000000; stroke-width: 0.8"/>
      </defs>
      <g>
       <use xlink:href="#madb2f135c2" x="175.285136" y="384.48" style="stroke: #000000; stroke-width: 0.8"/>
      </g>
     </g>
     <g id="text_1">
      <!-- 2012 -->
      <g transform="translate(162.560136 399.078438) scale(0.1 -0.1)">
       <defs>
        <path id="DejaVuSans-32" d="M 1228 531 
L 3431 531 
L 3431 0 
L 469 0 
L 469 531 
Q 828 903 1448 1529 
Q 2069 2156 2228 2338 
Q 2531 2678 2651 2914 
Q 2772 3150 2772 3378 
Q 2772 3750 2511 3984 
Q 2250 4219 1831 4219 
Q 1534 4219 1204 4116 
Q 875 4013 500 3803 
L 500 4441 
Q 881 4594 1212 4672 
Q 1544 4750 1819 4750 
Q 2544 4750 2975 4387 
Q 3406 4025 3406 3419 
Q 3406 3131 3298 2873 
Q 3191 2616 2906 2266 
Q 2828 2175 2409 1742 
Q 1991 1309 1228 531 
z
" transform="scale(0.015625)"/>
        <path id="DejaVuSans-30" d="M 2034 4250 
Q 1547 4250 1301 3770 
Q 1056 3291 1056 2328 
Q 1056 1369 1301 889 
Q 1547 409 2034 409 
Q 2525 409 2770 889 
Q 3016 1369 3016 2328 
Q 3016 3291 2770 3770 
Q 2525 4250 2034 4250 
z
M 2034 4750 
Q 2819 4750 3233 4129 
Q 3647 3509 3647 2328 
Q 3647 1150 3233 529 
Q 2819 -91 2034 -91 
Q 1250 -91 836 529 
Q 422 1150 422 2328 
Q 422 3509 836 4129 
Q 1250 4750 2034 4750 
z
" transform="scale(0.015625)"/>
        <path id="DejaVuSans-31" d="M 794 531 
L 1825 531 
L 1825 4091 
L 703 3866 
L 703 4441 
L 1819 4666 
L 2450 4666 
L 2450 531 
L 3481 531 
L 3481 0 
L 794 0 
L 794 531 
z
" transform="scale(0.015625)"/>
       </defs>
       <use xlink:href="#DejaVuSans-32"/>
       <use xlink:href="#DejaVuSans-30" transform="translate(63.623047 0)"/>
       <use xlink:href="#DejaVuSans-31" transform="translate(127.246094 0)"/>
       <use xlink:href="#DejaVuSans-32" transform="translate(190.869141 0)"/>
      </g>
     </g>
    </g>
    <g id="xtick_2">
     <g id="line2d_3">
      <path d="M 263.31276 384.48 
L 263.31276 51.84 
" clip-path="url(#p655d74d06b)" style="fill: none; stroke-dasharray: 2.96,1.28; stroke-dashoffset: 0; stroke: #b0b0b0; stroke-opacity: 0.5; stroke-width: 0.8"/>
     </g>
     <g id="line2d_4">
      <g>
       <use xlink:href="#madb2f135c2" x="263.31276" y="384.48" style="stroke: #000000; stroke-width: 0.8"/>
      </g>
     </g>
     <g id="text_2">
      <!-- 2014 -->
      <g transform="translate(250.58776 399.078438) scale(0.1 -0.1)">
       <defs>
        <path id="DejaVuSans-34" d="M 2419 4116 
L 825 1625 
L 2419 1625 
L 2419 4116 
z
M 2253 4666 
L 3047 4666 
L 3047 1625 
L 3713 1625 
L 3713 1100 
L 3047 1100 
L 3047 0 
L 2419 0 
L 2419 1100 
L 313 1100 
L 313 1709 
L 2253 4666 
z
" transform="scale(0.015625)"/>
       </defs>
       <use xlink:href="#DejaVuSans-32"/>
       <use xlink:href="#DejaVuSans-30" transform="translate(63.623047 0)"/>
       <use xlink:href="#DejaVuSans-31" transform="translate(127.246094 0)"/>
       <use xlink:href="#DejaVuSans-34" transform="translate(190.869141 0)"/>
      </g>
     </g>
    </g>
    <g id="xtick_3">
     <g id="line2d_5">
      <path d="M 351.219962 384.48 
L 351.219962 51.84 
" clip-path="url(#p655d74d06b)" style="fill: none; stroke-dasharray: 2.96,1.28; stroke-dashoffset: 0; stroke: #b0b0b0; stroke-opacity: 0.5; stroke-width: 0.8"/>
     </g>
     <g id="line2d_6">
      <g>
       <use xlink:href="#madb2f135c2" x="351.219962" y="384.48" style="stroke: #000000; stroke-width: 0.8"/>
      </g>
     </g>
     <g id="text_3">
      <!-- 2016 -->
      <g transform="translate(338.494962 399.078438) scale(0.1 -0.1)">
       <defs>
        <path id="DejaVuSans-36" d="M 2113 2584 
Q 1688 2584 1439 2293 
Q 1191 2003 1191 1497 
Q 1191 994 1439 701 
Q 1688 409 2113 409 
Q 2538 409 2786 701 
Q 3034 994 3034 1497 
Q 3034 2003 2786 2293 
Q 2538 2584 2113 2584 
z
M 3366 4563 
L 3366 3988 
Q 3128 4100 2886 4159 
Q 2644 4219 2406 4219 
Q 1781 4219 1451 3797 
Q 1122 3375 1075 2522 
Q 1259 2794 1537 2939 
Q 1816 3084 2150 3084 
Q 2853 3084 3261 2657 
Q 3669 2231 3669 1497 
Q 3669 778 3244 343 
Q 2819 -91 2113 -91 
Q 1303 -91 875 529 
Q 447 1150 447 2328 
Q 447 3434 972 4092 
Q 1497 4750 2381 4750 
Q 2619 4750 2861 4703 
Q 3103 4656 3366 4563 
z
" transform="scale(0.015625)"/>
       </defs>
       <use xlink:href="#DejaVuSans-32"/>
       <use xlink:href="#DejaVuSans-30" transform="translate(63.623047 0)"/>
       <use xlink:href="#DejaVuSans-31" transform="translate(127.246094 0)"/>
       <use xlink:href="#DejaVuSans-36" transform="translate(190.869141 0)"/>
      </g>
     </g>
    </g>
    <g id="xtick_4">
     <g id="line2d_7">
      <path d="M 439.247586 384.48 
L 439.247586 51.84 
" clip-path="url(#p655d74d06b)" style="fill: none; stroke-dasharray: 2.96,1.28; stroke-dashoffset: 0; stroke: #b0b0b0; stroke-opacity: 0.5; stroke-width: 0.8"/>
     </g>
     <g id="line2d_8">
      <g>
       <use xlink:href="#madb2f135c2" x="439.247586" y="384.48" style="stroke: #000000; stroke-width: 0.8"/>
      </g>
     </g>
     <g id="text_4">
      <!-- 2018 -->
      <g transform="translate(426.522586 399.078438) scale(0.1 -0.1)">
       <defs>
        <path id="DejaVuSans-38" d="M 2034 2216 
Q 1584 2216 1326 1975 
Q 1069 1734 1069 1313 
Q 1069 891 1326 650 
Q 1584 409 2034 409 
Q 2484 409 2743 651 
Q 3003 894 3003 1313 
Q 3003 1734 2745 1975 
Q 2488 2216 2034 2216 
z
M 1403 2484 
Q 997 2584 770 2862 
Q 544 3141 544 3541 
Q 544 4100 942 4425 
Q 1341 4750 2034 4750 
Q 2731 4750 3128 4425 
Q 3525 4100 3525 3541 
Q 3525 3141 3298 2862 
Q 3072 2584 2669 2484 
Q 3125 2378 3379 2068 
Q 3634 1759 3634 1313 
Q 3634 634 3220 271 
Q 2806 -91 2034 -91 
Q 1263 -91 848 271 
Q 434 634 434 1313 
Q 434 1759 690 2068 
Q 947 2378 1403 2484 
z
M 1172 3481 
Q 1172 3119 1398 2916 
Q 1625 2713 2034 2713 
Q 2441 2713 2670 2916 
Q 2900 3119 2900 3481 
Q 2900 3844 2670 4047 
Q 2441 4250 2034 4250 
Q 1625 4250 1398 4047 
Q 1172 3844 1172 3481 
z
" transform="scale(0.015625)"/>
       </defs>
       <use xlink:href="#DejaVuSans-32"/>
       <use xlink:href="#DejaVuSans-30" transform="translate(63.623047 0)"/>
       <use xlink:href="#DejaVuSans-31" transform="translate(127.246094 0)"/>
       <use xlink:href="#DejaVuSans-38" transform="translate(190.869141 0)"/>
      </g>
     </g>
    </g>
    <g id="xtick_5">
     <g id="line2d_9">
      <path d="M 527.154788 384.48 
L 527.154788 51.84 
" clip-path="url(#p655d74d06b)" style="fill: none; stroke-dasharray: 2.96,1.28; stroke-dashoffset: 0; stroke: #b0b0b0; stroke-opacity: 0.5; stroke-width: 0.8"/>
     </g>
     <g id="line2d_10">
      <g>
       <use xlink:href="#madb2f135c2" x="527.154788" y="384.48" style="stroke: #000000; stroke-width: 0.8"/>
      </g>
     </g>
     <g id="text_5">
      <!-- 2020 -->
      <g transform="translate(514.429788 399.078438) scale(0.1 -0.1)">
       <use xlink:href="#DejaVuSans-32"/>
       <use xlink:href="#DejaVuSans-30" transform="translate(63.623047 0)"/>
       <use xlink:href="#DejaVuSans-32" transform="translate(127.246094 0)"/>
       <use xlink:href="#DejaVuSans-30" transform="translate(190.869141 0)"/>
      </g>
     </g>
    </g>
    <g id="xtick_6">
     <g id="line2d_11">
      <path d="M 615.182412 384.48 
L 615.182412 51.84 
" clip-path="url(#p655d74d06b)" style="fill: none; stroke-dasharray: 2.96,1.28; stroke-dashoffset: 0; stroke: #b0b0b0; stroke-opacity: 0.5; stroke-width: 0.8"/>
     </g>
     <g id="line2d_12">
      <g>
       <use xlink:href="#madb2f135c2" x="615.182412" y="384.48" style="stroke: #000000; stroke-width: 0.8"/>
      </g>
     </g>
     <g id="text_6">
      <!-- 2022 -->
      <g transform="translate(602.457412 399.078438) scale(0.1 -0.1)">
       <use xlink:href="#DejaVuSans-32"/>
       <use xlink:href="#DejaVuSans-30" transform="translate(63.623047 0)"/>
       <use xlink:href="#DejaVuSans-32" transform="translate(127.246094 0)"/>
       <use xlink:href="#DejaVuSans-32" transform="translate(190.869141 0)"/>
      </g>
     </g>
    </g>
    <g id="xtick_7">
     <g id="line2d_13">
      <path d="M 703.089614 384.48 
L 703.089614 51.84 
" clip-path="url(#p655d74d06b)" style="fill: none; stroke-dasharray: 2.96,1.28; stroke-dashoffset: 0; stroke: #b0b0b0; stroke-opacity: 0.5; stroke-width: 0.8"/>
     </g>
     <g id="line2d_14">
      <g>
       <use xlink:href="#madb2f135c2" x="703.089614" y="384.48" style="stroke: #000000; stroke-width: 0.8"/>
      </g>
     </g>
     <g id="text_7">
      <!-- 2024 -->
      <g transform="translate(690.364614 399.078438) scale(0.1 -0.1)">
       <use xlink:href="#DejaVuSans-32"/>
       <use xlink:href="#DejaVuSans-30" transform="translate(63.623047 0)"/>
       <use xlink:href="#DejaVuSans-32" transform="translate(127.246094 0)"/>
       <use xlink:href="#DejaVuSans-34" transform="translate(190.869141 0)"/>
      </g>
     </g>
    </g>
   </g>
   <g id="matplotlib.axis_2">
    <g id="ytick_1">
     <g id="line2d_15">
      <path d="M 108 366.49125 
L 777.6 366.49125 
" clip-path="url(#p655d74d06b)" style="fill: none; stroke-dasharray: 2.96,1.28; stroke-dashoffset: 0; stroke: #b0b0b0; stroke-opacity: 0.5; stroke-width: 0.8"/>
     </g>
     <g id="line2d_16">
      <defs>
       <path id="mff383faf13" d="M 0 0 
L -3.5 0 
" style="stroke: #000000; stroke-width: 0.8"/>
      </defs>
      <g>
       <use xlink:href="#mff383faf13" x="108" y="366.49125" style="stroke: #000000; stroke-width: 0.8"/>
      </g>
     </g>
     <g id="text_8">
      <!-- −5.0 -->
      <g transform="translate(76.717187 370.290469) scale(0.1 -0.1)">
       <defs>
        <path id="DejaVuSans-2212" d="M 678 2272 
L 4684 2272 
L 4684 1741 
L 678 1741 
L 678 2272 
z
" transform="scale(0.015625)"/>
        <path id="DejaVuSans-35" d="M 691 4666 
L 3169 4666 
L 3169 4134 
L 1269 4134 
L 1269 2991 
Q 1406 3038 1543 3061 
Q 1681 3084 1819 3084 
Q 2600 3084 3056 2656 
Q 3513 2228 3513 1497 
Q 3513 744 3044 326 
Q 2575 -91 1722 -91 
Q 1428 -91 1123 -41 
Q 819 9 494 109 
L 494 744 
Q 775 591 1075 516 
Q 1375 441 1709 441 
Q 2250 441 2565 725 
Q 2881 1009 2881 1497 
Q 2881 1984 2565 2268 
Q 2250 2553 1709 2553 
Q 1456 2553 1204 2497 
Q 953 2441 691 2322 
L 691 4666 
z
" transform="scale(0.015625)"/>
        <path id="DejaVuSans-2e" d="M 684 794 
L 1344 794 
L 1344 0 
L 684 0 
L 684 794 
z
" transform="scale(0.015625)"/>
       </defs>
       <use xlink:href="#DejaVuSans-2212"/>
       <use xlink:href="#DejaVuSans-35" transform="translate(83.789062 0)"/>
       <use xlink:href="#DejaVuSans-2e" transform="translate(147.412109 0)"/>
       <use xlink:href="#DejaVuSans-30" transform="translate(179.199219 0)"/>
      </g>
     </g>
    </g>
    <g id="ytick_2">
     <g id="line2d_17">
      <path d="M 108 324.30375 
L 777.6 324.30375 
" clip-path="url(#p655d74d06b)" style="fill: none; stroke-dasharray: 2.96,1.28; stroke-dashoffset: 0; stroke: #b0b0b0; stroke-opacity: 0.5; stroke-width: 0.8"/>
     </g>
     <g id="line2d_18">
      <g>
       <use xlink:href="#mff383faf13" x="108" y="324.30375" style="stroke: #000000; stroke-width: 0.8"/>
      </g>
     </g>
     <g id="text_9">
      <!-- −2.5 -->
      <g transform="translate(76.717187 328.102969) scale(0.1 -0.1)">
       <use xlink:href="#DejaVuSans-2212"/>
       <use xlink:href="#DejaVuSans-32" transform="translate(83.789062 0)"/>
       <use xlink:href="#DejaVuSans-2e" transform="translate(147.412109 0)"/>
       <use xlink:href="#DejaVuSans-35" transform="translate(179.199219 0)"/>
      </g>
     </g>
    </g>
    <g id="ytick_3">
     <g id="line2d_19">
      <path d="M 108 282.11625 
L 777.6 282.11625 
" clip-path="url(#p655d74d06b)" style="fill: none; stroke-dasharray: 2.96,1.28; stroke-dashoffset: 0; stroke: #b0b0b0; stroke-opacity: 0.5; stroke-width: 0.8"/>
     </g>
     <g id="line2d_20">
      <g>
       <use xlink:href="#mff383faf13" x="108" y="282.11625" style="stroke: #000000; stroke-width: 0.8"/>
      </g>
     </g>
     <g id="text_10">
      <!-- 0.0 -->
      <g transform="translate(85.096875 285.915469) scale(0.1 -0.1)">
       <use xlink:href="#DejaVuSans-30"/>
       <use xlink:href="#DejaVuSans-2e" transform="translate(63.623047 0)"/>
       <use xlink:href="#DejaVuSans-30" transform="translate(95.410156 0)"/>
      </g>
     </g>
    </g>
    <g id="ytick_4">
     <g id="line2d_21">
      <path d="M 108 239.92875 
L 777.6 239.92875 
" clip-path="url(#p655d74d06b)" style="fill: none; stroke-dasharray: 2.96,1.28; stroke-dashoffset: 0; stroke: #b0b0b0; stroke-opacity: 0.5; stroke-width: 0.8"/>
     </g>
     <g id="line2d_22">
      <g>
       <use xlink:href="#mff383faf13" x="108" y="239.92875" style="stroke: #000000; stroke-width: 0.8"/>
      </g>
     </g>
     <g id="text_11">
      <!-- 2.5 -->
      <g transform="translate(85.096875 243.727969) scale(0.1 -0.1)">
       <use xlink:href="#DejaVuSans-32"/>
       <use xlink:href="#DejaVuSans-2e" transform="translate(63.623047 0)"/>
       <use xlink:href="#DejaVuSans-35" transform="translate(95.410156 0)"/>
      </g>
     </g>
    </g>
    <g id="ytick_5">
     <g id="line2d_23">
      <path d="M 108 197.74125 
L 777.6 197.74125 
" clip-path="url(#p655d74d06b)" style="fill: none; stroke-dasharray: 2.96,1.28; stroke-dashoffset: 0; stroke: #b0b0b0; stroke-opacity: 0.5; stroke-width: 0.8"/>
     </g>
     <g id="line2d_24">
      <g>
       <use xlink:href="#mff383faf13" x="108" y="197.74125" style="stroke: #000000; stroke-width: 0.8"/>
      </g>
     </g>
     <g id="text_12">
      <!-- 5.0 -->
      <g transform="translate(85.096875 201.540469) scale(0.1 -0.1)">
       <use xlink:href="#DejaVuSans-35"/>
       <use xlink:href="#DejaVuSans-2e" transform="translate(63.623047 0)"/>
       <use xlink:href="#DejaVuSans-30" transform="translate(95.410156 0)"/>
      </g>
     </g>
    </g>
    <g id="ytick_6">
     <g id="line2d_25">
      <path d="M 108 155.55375 
L 777.6 155.55375 
" clip-path="url(#p655d74d06b)" style="fill: none; stroke-dasharray: 2.96,1.28; stroke-dashoffset: 0; stroke: #b0b0b0; stroke-opacity: 0.5; stroke-width: 0.8"/>
     </g>
     <g id="line2d_26">
      <g>
       <use xlink:href="#mff383faf13" x="108" y="155.55375" style="stroke: #000000; stroke-width: 0.8"/>
      </g>
     </g>
     <g id="text_13">
      <!-- 7.5 -->
      <g transform="translate(85.096875 159.352969) scale(0.1 -0.1)">
       <defs>
        <path id="DejaVuSans-37" d="M 525 4666 
L 3525 4666 
L 3525 4397 
L 1831 0 
L 1172 0 
L 2766 4134 
L 525 4134 
L 525 4666 
z
" transform="scale(0.015625)"/>
       </defs>
       <use xlink:href="#DejaVuSans-37"/>
       <use xlink:href="#DejaVuSans-2e" transform="translate(63.623047 0)"/>
       <use xlink:href="#DejaVuSans-35" transform="translate(95.410156 0)"/>
      </g>
     </g>
    </g>
    <g id="ytick_7">
     <g id="line2d_27">
      <path d="M 108 113.36625 
L 777.6 113.36625 
" clip-path="url(#p655d74d06b)" style="fill: none; stroke-dasharray: 2.96,1.28; stroke-dashoffset: 0; stroke: #b0b0b0; stroke-opacity: 0.5; stroke-width: 0.8"/>
     </g>
     <g id="line2d_28">
      <g>
       <use xlink:href="#mff383faf13" x="108" y="113.36625" style="stroke: #000000; stroke-width: 0.8"/>
      </g>
     </g>
     <g id="text_14">
      <!-- 10.0 -->
      <g transform="translate(78.734375 117.165469) scale(0.1 -0.1)">
       <use xlink:href="#DejaVuSans-31"/>
       <use xlink:href="#DejaVuSans-30" transform="translate(63.623047 0)"/>
       <use xlink:href="#DejaVuSans-2e" transform="translate(127.246094 0)"/>
       <use xlink:href="#DejaVuSans-30" transform="translate(159.033203 0)"/>
      </g>
     </g>
    </g>
    <g id="ytick_8">
     <g id="line2d_29">
      <path d="M 108 71.17875 
L 777.6 71.17875 
" clip-path="url(#p655d74d06b)" style="fill: none; stroke-dasharray: 2.96,1.28; stroke-dashoffset: 0; stroke: #b0b0b0; stroke-opacity: 0.5; stroke-width: 0.8"/>
     </g>
     <g id="line2d_30">
      <g>
       <use xlink:href="#mff383faf13" x="108" y="71.17875" style="stroke: #000000; stroke-width: 0.8"/>
      </g>
     </g>
     <g id="text_15">
      <!-- 12.5 -->
      <g transform="translate(78.734375 74.977969) scale(0.1 -0.1)">
       <use xlink:href="#DejaVuSans-31"/>
       <use xlink:href="#DejaVuSans-32" transform="translate(63.623047 0)"/>
       <use xlink:href="#DejaVuSans-2e" transform="translate(127.246094 0)"/>
       <use xlink:href="#DejaVuSans-35" transform="translate(159.033203 0)"/>
      </g>
     </g>
    </g>
   </g>
   <g id="line2d_31">
    <path d="M 138.436364 277.05375 
L 142.169409 280.76625 
L 145.782034 279.07875 
L 149.51508 278.91 
L 153.127704 278.40375 
L 156.86075 280.09125 
L 160.593796 277.56 
L 164.20642 277.72875 
L 167.939466 276.71625 
L 171.552091 273.51 
L 175.285136 274.5225 
L 179.018182 274.86 
L 182.510386 278.06625 
L 186.243431 279.585 
L 189.856056 277.56 
L 193.589102 278.40375 
L 197.201726 276.885 
L 200.934772 278.40375 
L 204.667818 279.07875 
L 208.280442 278.235 
L 212.013488 281.2725 
L 215.626113 280.09125 
L 219.359158 275.02875 
L 223.092204 273.51 
L 226.463987 277.05375 
L 230.197033 280.76625 
L 233.809657 278.74125 
L 237.542703 279.9225 
L 241.155328 281.61 
L 244.888373 280.5975 
L 248.621419 276.71625 
L 252.234044 278.91 
L 255.967089 279.75375 
L 259.579714 276.5475 
L 263.31276 267.7725 
L 267.045805 277.39125 
L 270.417588 278.5725 
L 274.150634 277.2225 
L 277.763259 280.5975 
L 281.496304 278.5725 
L 285.108929 278.91 
L 288.841975 278.5725 
L 292.57502 277.2225 
L 296.187645 279.2475 
L 299.920691 279.41625 
L 303.533315 278.235 
L 307.266361 282.6225 
L 310.999407 276.37875 
L 314.37119 277.72875 
L 318.104235 279.41625 
L 321.71686 280.09125 
L 325.449906 278.5725 
L 329.06253 279.2475 
L 332.795576 278.74125 
L 336.528622 275.8725 
L 340.141246 277.8975 
L 343.874292 281.44125 
L 347.486917 276.885 
L 351.219962 278.91 
L 354.953008 276.04125 
L 358.445212 276.04125 
L 362.178257 278.40375 
L 365.790882 278.5725 
L 369.523928 277.8975 
L 373.136552 279.2475 
L 376.869598 278.91 
L 380.602644 274.01625 
L 384.215268 277.39125 
L 387.948314 278.40375 
L 391.560939 274.5225 
L 395.293984 272.32875 
L 399.02703 269.29125 
L 402.398813 272.4975 
L 406.131859 274.5225 
L 409.744483 277.39125 
L 413.477529 277.05375 
L 417.090154 277.56 
L 420.823199 277.8975 
L 424.556245 277.39125 
L 428.16887 277.8975 
L 435.51454 275.02875 
L 439.247586 277.39125 
L 442.980631 273.8475 
L 450.08546 279.585 
L 453.698085 277.72875 
L 457.43113 278.235 
L 461.043755 277.2225 
L 464.776801 277.8975 
L 468.509846 276.71625 
L 472.122471 276.885 
L 475.855517 277.8975 
L 479.468141 274.185 
L 483.201187 278.74125 
L 486.934233 274.86 
L 490.306016 276.37875 
L 494.039061 274.35375 
L 497.651686 279.41625 
L 501.384732 277.05375 
L 504.997356 277.72875 
L 508.730402 278.74125 
L 512.463448 277.05375 
L 516.076072 277.8975 
L 519.809118 278.40375 
L 523.421743 275.1975 
L 527.154788 276.5475 
L 530.887834 276.04125 
L 534.380038 277.2225 
L 538.113083 276.04125 
L 541.725708 277.05375 
L 545.458754 275.8725 
L 549.071378 275.36625 
L 552.804424 276.71625 
L 556.53747 276.71625 
L 560.150094 278.06625 
L 563.88314 283.46625 
L 567.495765 272.835 
L 571.22881 276.04125 
L 574.961856 275.535 
L 578.333639 273.00375 
L 582.066685 275.8725 
L 585.679309 273.1725 
L 589.412355 272.4975 
L 593.02498 274.01625 
L 596.758025 274.86 
L 604.103696 273.8475 
L 607.836741 275.8725 
L 611.449366 268.61625 
L 615.182412 271.65375 
L 618.915457 269.29125 
L 622.28724 269.96625 
L 626.020286 268.95375 
L 629.632911 272.16 
L 633.365956 269.1225 
L 636.978581 271.65375 
L 640.711627 268.61625 
L 644.444672 270.81 
L 648.057297 271.485 
L 651.790343 274.5225 
L 655.402967 271.1475 
L 659.136013 270.135 
L 666.240842 273.34125 
L 669.973887 275.535 
L 673.586512 276.71625 
L 677.319558 277.05375 
L 680.932182 275.535 
L 684.665228 277.56 
L 688.398274 276.04125 
L 692.010898 275.535 
L 695.743944 277.72875 
L 699.356569 274.69125 
L 703.089614 275.36625 
L 706.82266 273.8475 
L 710.314864 274.69125 
L 714.047909 278.5725 
L 717.660534 279.2475 
L 721.39358 278.40375 
L 725.006204 276.71625 
L 728.73925 278.40375 
L 732.472296 277.39125 
L 736.08492 277.39125 
L 739.817966 281.2725 
L 743.430591 273.51 
L 747.163636 275.1975 
L 747.163636 275.1975 
" clip-path="url(#p655d74d06b)" style="fill: none; stroke: #a6cee3; stroke-width: 1.5; stroke-linecap: square"/>
   </g>
   <g id="line2d_32">
    <path d="M 138.436364 262.54125 
L 142.169409 261.19125 
L 145.782034 258.15375 
L 149.51508 254.77875 
L 153.127704 251.06625 
L 156.86075 248.8725 
L 164.20642 239.92875 
L 167.939466 234.36 
L 171.552091 225.585 
L 175.285136 274.5225 
L 179.018182 267.26625 
L 182.510386 263.21625 
L 186.243431 260.685 
L 189.856056 256.12875 
L 193.589102 252.41625 
L 197.201726 247.01625 
L 200.934772 243.135 
L 204.667818 240.0975 
L 208.280442 236.21625 
L 212.013488 235.20375 
L 215.626113 233.17875 
L 219.359158 275.02875 
L 223.092204 266.25375 
L 226.463987 261.19125 
L 230.197033 259.84125 
L 233.809657 256.46625 
L 237.542703 254.2725 
L 241.155328 253.5975 
L 244.888373 252.07875 
L 248.621419 246.51 
L 252.234044 243.30375 
L 255.967089 240.94125 
L 259.579714 235.20375 
L 263.31276 267.7725 
L 267.045805 262.87875 
L 270.417588 259.335 
L 274.150634 254.2725 
L 277.763259 252.75375 
L 281.496304 249.04125 
L 285.108929 245.835 
L 288.841975 242.1225 
L 292.57502 237.06 
L 299.920691 231.3225 
L 303.533315 227.44125 
L 307.266361 282.6225 
L 310.999407 276.885 
L 314.37119 272.4975 
L 318.104235 269.7975 
L 321.71686 267.94125 
L 325.449906 264.3975 
L 329.06253 261.36 
L 332.795576 257.985 
L 336.528622 251.5725 
L 340.141246 247.35375 
L 343.874292 246.67875 
L 347.486917 241.4475 
L 351.219962 278.91 
L 354.953008 272.835 
L 358.445212 266.76 
L 365.790882 259.335 
L 369.523928 254.9475 
L 373.136552 252.07875 
L 376.869598 248.70375 
L 380.602644 240.60375 
L 384.215268 235.71 
L 387.948314 231.82875 
L 391.560939 224.06625 
L 395.293984 272.32875 
L 399.02703 259.335 
L 402.398813 249.5475 
L 406.131859 241.785 
L 409.744483 237.06 
L 413.477529 231.82875 
L 417.090154 227.10375 
L 420.823199 222.71625 
L 424.556245 217.8225 
L 428.16887 213.435 
L 431.901915 207.36 
L 435.51454 199.935 
L 439.247586 277.39125 
L 442.980631 269.1225 
L 446.352414 263.385 
L 450.08546 261.0225 
L 453.698085 256.635 
L 457.43113 252.585 
L 461.043755 247.69125 
L 464.776801 243.4725 
L 472.122471 232.50375 
L 475.855517 228.11625 
L 479.468141 220.01625 
L 483.201187 278.74125 
L 486.934233 271.485 
L 490.306016 265.57875 
L 494.039061 257.81625 
L 497.651686 255.11625 
L 501.384732 249.885 
L 504.997356 245.32875 
L 508.730402 241.785 
L 512.463448 236.7225 
L 516.076072 232.50375 
L 519.809118 228.6225 
L 523.421743 221.535 
L 527.154788 276.5475 
L 530.887834 270.4725 
L 534.380038 265.41 
L 538.113083 259.335 
L 541.725708 254.2725 
L 545.458754 247.86 
L 549.071378 241.11 
L 556.53747 230.14125 
L 560.150094 225.9225 
L 563.88314 227.44125 
L 567.495765 217.99125 
L 571.22881 276.04125 
L 574.961856 269.46 
L 578.333639 260.17875 
L 582.066685 253.935 
L 585.679309 244.99125 
L 589.412355 235.035 
L 593.02498 226.76625 
L 596.758025 219.34125 
L 600.491071 211.41 
L 604.103696 202.635 
L 607.836741 196.2225 
L 611.449366 181.87875 
L 615.182412 271.65375 
L 618.915457 258.82875 
L 626.020286 233.17875 
L 629.632911 223.05375 
L 633.365956 209.55375 
L 636.978581 198.585 
L 640.711627 184.41 
L 648.057297 161.1225 
L 651.790343 153.0225 
L 655.402967 141.21 
L 659.136013 270.135 
L 662.869059 259.6725 
L 666.240842 250.72875 
L 669.973887 243.97875 
L 673.586512 238.41 
L 677.319558 233.3475 
L 680.932182 226.42875 
L 684.665228 221.70375 
L 688.398274 215.46 
L 692.010898 208.71 
L 695.743944 203.985 
L 699.356569 196.2225 
L 703.089614 275.36625 
L 706.82266 266.92875 
L 710.314864 259.50375 
L 714.047909 255.96 
L 717.660534 252.9225 
L 721.39358 249.21 
L 725.006204 243.81 
L 728.73925 239.92875 
L 736.08492 230.14125 
L 739.817966 229.2975 
L 743.430591 220.5225 
L 747.163636 275.1975 
L 747.163636 275.1975 
" clip-path="url(#p655d74d06b)" style="fill: none; stroke: #1f78b4; stroke-width: 1.5; stroke-linecap: square"/>
   </g>
   <g id="line2d_33">
    <path d="M 138.436364 227.9475 
L 142.169409 228.45375 
L 145.782034 229.46625 
L 149.51508 228.45375 
L 153.127704 228.285 
L 156.86075 227.77875 
L 160.593796 229.46625 
L 164.20642 228.285 
L 167.939466 226.76625 
L 171.552091 225.585 
L 175.285136 225.75375 
L 179.018182 225.2475 
L 182.510386 226.26 
L 186.243431 224.91 
L 189.856056 223.39125 
L 193.589102 223.05375 
L 197.201726 221.535 
L 200.934772 219.67875 
L 204.667818 221.1975 
L 208.280442 221.70375 
L 212.013488 226.42875 
L 215.626113 233.17875 
L 219.359158 233.51625 
L 223.092204 232.16625 
L 226.463987 231.15375 
L 233.809657 233.51625 
L 237.542703 235.035 
L 241.155328 239.92875 
L 244.888373 242.1225 
L 248.621419 239.59125 
L 252.234044 240.26625 
L 255.967089 238.91625 
L 259.579714 235.20375 
L 263.31276 227.9475 
L 267.045805 231.82875 
L 270.417588 233.3475 
L 274.150634 229.635 
L 277.763259 231.49125 
L 281.496304 229.9725 
L 285.108929 227.2725 
L 288.841975 225.2475 
L 292.57502 225.75375 
L 296.187645 226.09125 
L 299.920691 225.75375 
L 303.533315 227.44125 
L 307.266361 242.62875 
L 314.37119 240.7725 
L 318.104235 243.135 
L 321.71686 242.7975 
L 325.449906 242.7975 
L 329.06253 243.135 
L 332.795576 243.30375 
L 336.528622 241.95375 
L 340.141246 240.435 
L 343.874292 242.62875 
L 347.486917 241.4475 
L 351.219962 237.56625 
L 354.953008 237.22875 
L 358.445212 235.54125 
L 362.178257 234.36 
L 365.790882 232.6725 
L 369.523928 231.9975 
L 373.136552 231.9975 
L 376.869598 232.16625 
L 380.602644 230.31 
L 384.215268 229.80375 
L 387.948314 226.5975 
L 391.560939 224.06625 
L 395.293984 217.31625 
L 399.02703 210.22875 
L 406.131859 202.46625 
L 409.744483 201.45375 
L 413.477529 200.61 
L 417.090154 198.75375 
L 420.823199 197.74125 
L 424.556245 201.11625 
L 428.16887 201.6225 
L 431.901915 199.42875 
L 435.51454 199.935 
L 439.247586 205.16625 
L 442.980631 210.06 
L 446.352414 214.27875 
L 450.08546 219.51 
L 453.698085 219.8475 
L 457.43113 221.02875 
L 461.043755 220.86 
L 464.776801 220.86 
L 468.509846 220.185 
L 472.122471 219.1725 
L 475.855517 220.86 
L 479.468141 220.01625 
L 483.201187 221.36625 
L 486.934233 222.37875 
L 490.306016 222.21 
L 494.039061 216.81 
L 497.651686 218.4975 
L 501.384732 217.1475 
L 504.997356 217.65375 
L 508.730402 218.32875 
L 512.463448 218.835 
L 516.076072 220.01625 
L 519.809118 220.5225 
L 523.421743 221.535 
L 527.154788 219.1725 
L 534.380038 221.36625 
L 538.113083 223.05375 
L 541.725708 220.69125 
L 545.458754 219.51 
L 549.071378 217.1475 
L 552.804424 215.1225 
L 556.53747 214.785 
L 560.150094 214.95375 
L 563.88314 220.35375 
L 567.495765 217.99125 
L 571.22881 217.31625 
L 574.961856 216.81 
L 578.333639 212.59125 
L 582.066685 212.4225 
L 585.679309 208.3725 
L 589.412355 204.82875 
L 593.02498 203.47875 
L 596.758025 201.45375 
L 600.491071 199.09125 
L 604.103696 194.535 
L 607.836741 186.435 
L 615.182412 177.3225 
L 618.915457 170.91 
L 622.28724 167.70375 
L 626.020286 160.27875 
L 629.632911 159.26625 
L 633.365956 155.7225 
L 636.978581 153.0225 
L 640.711627 146.2725 
L 644.444672 142.39125 
L 648.057297 140.02875 
L 651.790343 138.51 
L 655.402967 141.21 
L 659.136013 139.5225 
L 662.869059 142.2225 
L 666.240842 145.5975 
L 669.973887 152.685 
L 673.586512 157.41 
L 677.319558 165.8475 
L 680.932182 170.06625 
L 684.665228 179.51625 
L 688.398274 184.91625 
L 692.010898 189.30375 
L 695.743944 192.67875 
L 699.356569 196.2225 
L 703.089614 201.79125 
L 706.82266 203.81625 
L 710.314864 205.335 
L 714.047909 208.3725 
L 717.660534 211.0725 
L 725.006204 213.7725 
L 728.73925 214.61625 
L 732.472296 216.135 
L 736.08492 217.99125 
L 739.817966 221.70375 
L 743.430591 220.5225 
L 747.163636 220.35375 
L 747.163636 220.35375 
" clip-path="url(#p655d74d06b)" style="fill: none; stroke: #b2df8a; stroke-width: 1.5; stroke-linecap: square"/>
   </g>
   <g id="line2d_34">
    <path d="M 138.436364 284.81625 
L 142.169409 286.84125 
L 145.782034 346.24125 
L 149.51508 293.92875 
L 153.127704 258.82875 
L 156.86075 277.2225 
L 160.593796 279.2475 
L 164.20642 246.34125 
L 167.939466 220.185 
L 171.552091 250.72875 
L 175.285136 255.96 
L 179.018182 290.7225 
L 182.510386 291.3975 
L 186.243431 313.16625 
L 189.856056 320.25375 
L 193.589102 260.17875 
L 197.201726 258.3225 
L 200.934772 272.835 
L 204.667818 259.84125 
L 208.280442 258.15375 
L 212.013488 236.0475 
L 215.626113 272.32875 
L 219.359158 276.5475 
L 223.092204 274.69125 
L 226.463987 246.51 
L 233.809657 316.71 
L 237.542703 293.76 
L 241.155328 286.50375 
L 244.888373 266.25375 
L 248.621419 272.835 
L 252.234044 258.3225 
L 255.967089 222.37875 
L 259.579714 259.335 
L 263.31276 264.90375 
L 267.045805 279.2475 
L 270.417588 274.35375 
L 274.150634 310.2975 
L 277.763259 309.79125 
L 281.496304 281.44125 
L 285.108929 272.66625 
L 288.841975 268.11 
L 292.57502 266.59125 
L 296.187645 251.91 
L 299.920691 234.36 
L 303.533315 260.51625 
L 307.266361 286.6725 
L 310.999407 286.6725 
L 314.37119 267.7725 
L 318.104235 307.5975 
L 321.71686 322.61625 
L 325.449906 281.44125 
L 329.06253 280.935 
L 332.795576 278.06625 
L 336.528622 275.535 
L 340.141246 259.335 
L 343.874292 245.835 
L 347.486917 269.96625 
L 351.219962 265.91625 
L 354.953008 270.64125 
L 358.445212 290.385 
L 362.178257 315.19125 
L 365.790882 324.4725 
L 369.523928 288.0225 
L 373.136552 272.835 
L 376.869598 272.32875 
L 380.602644 264.56625 
L 384.215268 254.2725 
L 387.948314 239.25375 
L 391.560939 273.51 
L 395.293984 195.37875 
L 399.02703 281.61 
L 402.398813 269.7975 
L 406.131859 296.29125 
L 409.744483 304.05375 
L 413.477529 280.5975 
L 417.090154 269.96625 
L 420.823199 261.52875 
L 424.556245 275.1975 
L 428.16887 252.41625 
L 431.901915 230.47875 
L 435.51454 263.7225 
L 439.247586 261.19125 
L 442.980631 280.76625 
L 446.352414 277.05375 
L 450.08546 311.14125 
L 453.698085 305.40375 
L 457.43113 267.94125 
L 461.043755 260.685 
L 464.776801 254.9475 
L 468.509846 269.7975 
L 472.122471 262.71 
L 475.855517 237.22875 
L 479.468141 258.66 
L 483.201187 286.335 
L 486.934233 305.40375 
L 490.306016 273.51 
L 494.039061 301.5225 
L 497.651686 310.12875 
L 501.384732 293.59125 
L 504.997356 269.62875 
L 508.730402 293.92875 
L 512.463448 279.585 
L 516.076072 257.47875 
L 519.809118 237.90375 
L 523.421743 265.24125 
L 527.154788 265.91625 
L 530.887834 272.4975 
L 534.380038 300.00375 
L 538.113083 369.36 
L 541.725708 270.97875 
L 545.458754 263.21625 
L 549.071378 257.14125 
L 552.804424 271.485 
L 556.53747 282.79125 
L 560.150094 252.2475 
L 563.88314 272.66625 
L 567.495765 284.31 
L 571.22881 241.61625 
L 574.961856 259.16625 
L 578.333639 253.5975 
L 582.066685 278.5725 
L 585.679309 294.7725 
L 589.412355 275.02875 
L 593.02498 266.4225 
L 596.758025 290.89125 
L 600.491071 263.55375 
L 604.103696 250.56 
L 607.836741 223.8975 
L 611.449366 297.30375 
L 615.182412 273.34125 
L 618.915457 264.56625 
L 622.28724 251.91 
L 626.020286 284.47875 
L 629.632911 299.32875 
L 633.365956 264.06 
L 636.978581 263.7225 
L 640.711627 275.535 
L 644.444672 274.185 
L 648.057297 275.70375 
L 651.790343 266.25375 
L 655.402967 288.86625 
L 659.136013 272.4975 
L 662.869059 275.36625 
L 666.240842 290.55375 
L 669.973887 303.21 
L 673.586512 313.84125 
L 680.932182 269.1225 
L 684.665228 257.81625 
L 688.398274 270.30375 
L 692.010898 276.37875 
L 695.743944 251.5725 
L 699.356569 256.2975 
L 703.089614 242.1225 
L 706.82266 300.67875 
L 710.314864 284.81625 
L 714.047909 279.07875 
L 717.660534 303.71625 
L 721.39358 267.435 
L 725.006204 226.5975 
L 728.73925 293.92875 
L 732.472296 294.26625 
L 736.08492 257.47875 
L 739.817966 252.9225 
L 743.430591 282.79125 
L 747.163636 284.47875 
L 747.163636 284.47875 
" clip-path="url(#p655d74d06b)" style="fill: none; stroke: #33a02c; stroke-width: 1.5; stroke-linecap: square"/>
   </g>
   <g id="line2d_35">
    <path d="M 138.436364 270.4725 
L 142.169409 275.36625 
L 145.782034 339.82875 
L 149.51508 351.135 
L 153.127704 328.86 
L 156.86075 323.96625 
L 160.593796 321.26625 
L 164.20642 286.16625 
L 167.939466 224.5725 
L 171.552091 192.00375 
L 175.285136 255.96 
L 179.018182 264.735 
L 182.510386 274.01625 
L 186.243431 305.235 
L 189.856056 342.6975 
L 193.589102 321.60375 
L 197.201726 298.31625 
L 200.934772 289.035 
L 204.667818 266.92875 
L 208.280442 242.62875 
L 212.013488 195.5475 
L 215.626113 185.25375 
L 219.359158 276.5475 
L 223.092204 268.95375 
L 226.463987 233.17875 
L 230.197033 233.17875 
L 233.809657 268.61625 
L 237.542703 280.42875 
L 241.155328 284.6475 
L 244.888373 268.95375 
L 248.621419 259.50375 
L 252.234044 235.3725 
L 255.967089 174.11625 
L 259.579714 149.81625 
L 263.31276 264.90375 
L 267.045805 262.035 
L 270.417588 254.2725 
L 277.763259 310.635 
L 281.496304 309.79125 
L 285.108929 300.51 
L 288.841975 286.6725 
L 292.57502 271.1475 
L 296.187645 240.7725 
L 299.920691 191.835 
L 303.533315 169.05375 
L 307.266361 286.6725 
L 310.999407 291.06 
L 314.37119 276.885 
L 318.104235 302.535 
L 321.71686 342.52875 
L 325.449906 342.0225 
L 329.06253 340.84125 
L 332.795576 336.96 
L 336.528622 330.5475 
L 340.141246 308.44125 
L 343.874292 272.66625 
L 347.486917 260.51625 
L 351.219962 265.91625 
L 354.953008 254.44125 
L 358.445212 262.87875 
L 362.178257 296.1225 
L 365.790882 338.14125 
L 369.523928 343.87875 
L 376.869598 325.485 
L 380.602644 308.2725 
L 384.215268 280.935 
L 387.948314 238.0725 
L 391.560939 229.2975 
L 395.293984 195.37875 
L 399.02703 194.70375 
L 402.398813 181.71 
L 406.131859 196.8975 
L 409.744483 219.8475 
L 413.477529 218.32875 
L 417.090154 205.84125 
L 420.823199 184.24125 
L 424.556245 176.985 
L 428.16887 145.42875 
L 431.901915 89.5725 
L 435.51454 69.15375 
L 439.247586 261.19125 
L 442.980631 259.84125 
L 446.352414 254.61 
L 450.08546 284.14125 
L 453.698085 307.42875 
L 457.43113 293.4225 
L 461.043755 272.16 
L 464.776801 244.8225 
L 468.509846 232.16625 
L 472.122471 212.25375 
L 475.855517 165.51 
L 479.468141 140.36625 
L 483.201187 286.335 
L 486.934233 309.45375 
L 490.306016 301.01625 
L 494.039061 320.25375 
L 497.651686 347.59125 
L 501.384732 358.56 
L 504.997356 346.57875 
L 508.730402 358.05375 
L 512.463448 355.5225 
L 516.076072 331.8975 
L 519.809118 289.035 
L 523.421743 272.16 
L 527.154788 265.91625 
L 530.887834 256.2975 
L 534.380038 274.5225 
L 538.113083 362.10375 
L 541.725708 351.30375 
L 545.458754 333.2475 
L 549.071378 309.11625 
L 552.804424 298.485 
L 556.53747 299.16 
L 560.150094 269.62875 
L 563.88314 260.01 
L 567.495765 262.20375 
L 571.22881 241.61625 
L 574.961856 218.16 
L 578.333639 188.46 
L 582.066685 184.91625 
L 585.679309 198.2475 
L 589.412355 190.8225 
L 593.02498 174.285 
L 596.758025 183.56625 
L 600.491071 163.99125 
L 604.103696 130.24125 
L 607.836741 66.96 
L 611.449366 84.00375 
L 615.182412 273.34125 
L 618.915457 255.79125 
L 622.28724 224.91 
L 626.020286 227.44125 
L 629.632911 245.32875 
L 633.365956 226.935 
L 636.978581 207.86625 
L 640.711627 201.11625 
L 644.444672 192.67875 
L 648.057297 185.92875 
L 651.790343 169.05375 
L 655.402967 176.31 
L 659.136013 272.4975 
L 662.869059 265.7475 
L 666.240842 274.185 
L 669.973887 295.4475 
L 673.586512 327.00375 
L 677.319558 335.61 
L 680.932182 322.95375 
L 684.665228 299.16 
L 688.398274 287.51625 
L 692.010898 281.77875 
L 695.743944 251.235 
L 699.356569 224.91 
L 703.089614 242.1225 
L 706.82266 261.0225 
L 710.314864 263.7225 
L 714.047909 260.685 
L 717.660534 282.45375 
L 721.39358 267.7725 
L 725.006204 211.91625 
L 732.472296 236.7225 
L 736.08492 211.57875 
L 739.817966 181.20375 
L 743.430591 181.71 
L 747.163636 284.47875 
L 747.163636 284.47875 
" clip-path="url(#p655d74d06b)" style="fill: none; stroke: #fb9a99; stroke-width: 1.5; stroke-linecap: square"/>
   </g>
   <g id="line2d_36">
    <path d="M 138.436364 240.60375 
L 142.169409 216.30375 
L 145.782034 223.8975 
L 149.51508 225.75375 
L 153.127704 206.01 
L 156.86075 216.30375 
L 160.593796 231.82875 
L 164.20642 229.9725 
L 167.939466 212.4225 
L 171.552091 192.00375 
L 175.285136 174.45375 
L 179.018182 188.7975 
L 182.510386 195.71625 
L 186.243431 223.2225 
L 189.856056 195.21 
L 193.589102 159.60375 
L 197.201726 158.92875 
L 200.934772 154.20375 
L 204.667818 133.4475 
L 208.280442 145.935 
L 212.013488 162.4725 
L 215.626113 185.25375 
L 219.359158 206.685 
L 223.092204 189.81 
L 226.463987 142.2225 
L 230.197033 107.96625 
L 233.809657 103.91625 
L 237.542703 140.535 
L 241.155328 170.74125 
L 244.888373 163.8225 
L 248.621419 177.49125 
L 252.234044 177.82875 
L 259.579714 149.81625 
L 263.31276 137.32875 
L 267.045805 142.39125 
L 270.417588 171.75375 
L 274.150634 201.96 
L 277.763259 194.535 
L 281.496304 181.54125 
L 285.108929 166.86 
L 288.841975 168.71625 
L 292.57502 162.135 
L 296.187645 155.385 
L 299.920691 167.70375 
L 303.533315 169.05375 
L 307.266361 192.00375 
L 310.999407 199.76625 
L 314.37119 192.8475 
L 318.104235 189.97875 
L 321.71686 203.81625 
L 325.449906 203.985 
L 329.06253 212.59125 
L 332.795576 222.885 
L 336.528622 232.16625 
L 340.141246 239.59125 
L 343.874292 251.06625 
L 347.486917 260.51625 
L 351.219962 239.59125 
L 354.953008 223.2225 
L 358.445212 246.34125 
L 362.178257 254.10375 
L 365.790882 255.96 
L 369.523928 262.54125 
L 373.136552 254.2725 
L 376.869598 248.535 
L 380.602644 237.3975 
L 384.215268 232.335 
L 387.948314 225.75375 
L 391.560939 229.2975 
L 395.293984 157.24125 
L 399.02703 168.885 
L 402.398813 146.77875 
L 406.131859 126.0225 
L 409.744483 103.24125 
L 413.477529 94.9725 
L 417.090154 91.935 
L 420.823199 79.95375 
L 424.556245 91.76625 
L 428.16887 89.74125 
L 431.901915 80.1225 
L 435.51454 69.15375 
L 439.247586 139.69125 
L 442.980631 138.8475 
L 446.352414 146.61 
L 450.08546 162.81 
L 453.698085 164.16 
L 457.43113 150.66 
L 461.043755 140.70375 
L 464.776801 133.61625 
L 468.509846 127.71 
L 472.122471 138.67875 
L 475.855517 145.935 
L 479.468141 140.36625 
L 486.934233 193.5225 
L 490.306016 189.81 
L 494.039061 179.51625 
L 497.651686 184.57875 
L 501.384732 211.41 
L 504.997356 220.69125 
L 508.730402 260.51625 
L 512.463448 270.135 
L 516.076072 265.0725 
L 519.809118 265.57875 
L 523.421743 272.16 
L 527.154788 251.5725 
L 530.887834 217.8225 
L 534.380038 245.16 
L 538.113083 315.19125 
L 541.725708 276.21 
L 545.458754 245.66625 
L 549.071378 232.84125 
L 552.804424 209.55375 
L 556.53747 212.92875 
L 560.150094 207.52875 
L 563.88314 242.7975 
L 567.495765 262.20375 
L 571.22881 237.735 
L 574.961856 224.235 
L 578.333639 175.635 
L 582.066685 73.87875 
L 585.679309 100.54125 
L 589.412355 113.36625 
L 593.02498 123.66 
L 596.758025 144.75375 
L 600.491071 123.9975 
L 604.103696 122.31 
L 607.836741 69.3225 
L 611.449366 84.00375 
L 615.182412 118.76625 
L 618.915457 124.50375 
L 622.28724 122.6475 
L 626.020286 129.06 
L 629.632911 134.1225 
L 633.365956 122.31 
L 636.978581 119.2725 
L 640.711627 102.3975 
L 644.444672 114.04125 
L 648.057297 141.04125 
L 651.790343 185.4225 
L 655.402967 176.31 
L 659.136013 175.46625 
L 662.869059 186.7725 
L 666.240842 226.935 
L 669.973887 246.34125 
L 673.586512 261.19125 
L 677.319558 288.19125 
L 680.932182 293.4225 
L 684.665228 275.8725 
L 688.398274 271.99125 
L 692.010898 272.66625 
L 695.743944 257.985 
L 699.356569 224.91 
L 703.089614 193.69125 
L 706.82266 220.185 
L 710.314864 214.11 
L 714.047909 188.62875 
L 717.660534 177.66 
L 721.39358 152.685 
L 725.006204 107.29125 
L 728.73925 146.61 
L 732.472296 172.42875 
L 736.08492 152.51625 
L 739.817966 153.86625 
L 743.430591 181.71 
L 747.163636 225.75375 
L 747.163636 225.75375 
" clip-path="url(#p655d74d06b)" style="fill: none; stroke: #e31a1c; stroke-width: 1.5; stroke-linecap: square"/>
   </g>
   <g id="patch_3">
    <path d="M 108 384.48 
L 108 51.84 
" style="fill: none; stroke: #000000; stroke-width: 0.8; stroke-linejoin: miter; stroke-linecap: square"/>
   </g>
   <g id="patch_4">
    <path d="M 777.6 384.48 
L 777.6 51.84 
" style="fill: none; stroke: #000000; stroke-width: 0.8; stroke-linejoin: miter; stroke-linecap: square"/>
   </g>
   <g id="patch_5">
    <path d="M 108 384.48 
L 777.6 384.48 
" style="fill: none; stroke: #000000; stroke-width: 0.8; stroke-linejoin: miter; stroke-linecap: square"/>
   </g>
   <g id="patch_6">
    <path d="M 108 51.84 
L 777.6 51.84 
" style="fill: none; stroke: #000000; stroke-width: 0.8; stroke-linejoin: miter; stroke-linecap: square"/>
   </g>
   <g id="text_16">
    <!-- Inflación -->
    <g transform="translate(408.702344 45.84) scale(0.14 -0.14)">
     <defs>
      <path id="DejaVuSans-Bold-49" d="M 588 4666 
L 1791 4666 
L 1791 0 
L 588 0 
L 588 4666 
z
" transform="scale(0.015625)"/>
      <path id="DejaVuSans-Bold-6e" d="M 4056 2131 
L 4056 0 
L 2931 0 
L 2931 347 
L 2931 1631 
Q 2931 2084 2911 2256 
Q 2891 2428 2841 2509 
Q 2775 2619 2662 2680 
Q 2550 2741 2406 2741 
Q 2056 2741 1856 2470 
Q 1656 2200 1656 1722 
L 1656 0 
L 538 0 
L 538 3500 
L 1656 3500 
L 1656 2988 
Q 1909 3294 2193 3439 
Q 2478 3584 2822 3584 
Q 3428 3584 3742 3212 
Q 4056 2841 4056 2131 
z
" transform="scale(0.015625)"/>
      <path id="DejaVuSans-Bold-66" d="M 2841 4863 
L 2841 4128 
L 2222 4128 
Q 1984 4128 1890 4042 
Q 1797 3956 1797 3744 
L 1797 3500 
L 2753 3500 
L 2753 2700 
L 1797 2700 
L 1797 0 
L 678 0 
L 678 2700 
L 122 2700 
L 122 3500 
L 678 3500 
L 678 3744 
Q 678 4316 997 4589 
Q 1316 4863 1984 4863 
L 2841 4863 
z
" transform="scale(0.015625)"/>
      <path id="DejaVuSans-Bold-6c" d="M 538 4863 
L 1656 4863 
L 1656 0 
L 538 0 
L 538 4863 
z
" transform="scale(0.015625)"/>
      <path id="DejaVuSans-Bold-61" d="M 2106 1575 
Q 1756 1575 1579 1456 
Q 1403 1338 1403 1106 
Q 1403 894 1545 773 
Q 1688 653 1941 653 
Q 2256 653 2472 879 
Q 2688 1106 2688 1447 
L 2688 1575 
L 2106 1575 
z
M 3816 1997 
L 3816 0 
L 2688 0 
L 2688 519 
Q 2463 200 2181 54 
Q 1900 -91 1497 -91 
Q 953 -91 614 226 
Q 275 544 275 1050 
Q 275 1666 698 1953 
Q 1122 2241 2028 2241 
L 2688 2241 
L 2688 2328 
Q 2688 2594 2478 2717 
Q 2269 2841 1825 2841 
Q 1466 2841 1156 2769 
Q 847 2697 581 2553 
L 581 3406 
Q 941 3494 1303 3539 
Q 1666 3584 2028 3584 
Q 2975 3584 3395 3211 
Q 3816 2838 3816 1997 
z
" transform="scale(0.015625)"/>
      <path id="DejaVuSans-Bold-63" d="M 3366 3391 
L 3366 2478 
Q 3138 2634 2908 2709 
Q 2678 2784 2431 2784 
Q 1963 2784 1702 2511 
Q 1441 2238 1441 1747 
Q 1441 1256 1702 982 
Q 1963 709 2431 709 
Q 2694 709 2930 787 
Q 3166 866 3366 1019 
L 3366 103 
Q 3103 6 2833 -42 
Q 2563 -91 2291 -91 
Q 1344 -91 809 395 
Q 275 881 275 1747 
Q 275 2613 809 3098 
Q 1344 3584 2291 3584 
Q 2566 3584 2833 3536 
Q 3100 3488 3366 3391 
z
" transform="scale(0.015625)"/>
      <path id="DejaVuSans-Bold-69" d="M 538 3500 
L 1656 3500 
L 1656 0 
L 538 0 
L 538 3500 
z
M 538 4863 
L 1656 4863 
L 1656 3950 
L 538 3950 
L 538 4863 
z
" transform="scale(0.015625)"/>
      <path id="DejaVuSans-Bold-f3" d="M 2203 2784 
Q 1831 2784 1636 2517 
Q 1441 2250 1441 1747 
Q 1441 1244 1636 976 
Q 1831 709 2203 709 
Q 2569 709 2762 976 
Q 2956 1244 2956 1747 
Q 2956 2250 2762 2517 
Q 2569 2784 2203 2784 
z
M 2203 3584 
Q 3106 3584 3614 3096 
Q 4122 2609 4122 1747 
Q 4122 884 3614 396 
Q 3106 -91 2203 -91 
Q 1297 -91 786 396 
Q 275 884 275 1747 
Q 275 2609 786 3096 
Q 1297 3584 2203 3584 
z
M 2694 5119 
L 3578 5119 
L 2425 3944 
L 1813 3944 
L 2694 5119 
z
" transform="scale(0.015625)"/>
     </defs>
     <use xlink:href="#DejaVuSans-Bold-49"/>
     <use xlink:href="#DejaVuSans-Bold-6e" transform="translate(37.207031 0)"/>
     <use xlink:href="#DejaVuSans-Bold-66" transform="translate(108.398438 0)"/>
     <use xlink:href="#DejaVuSans-Bold-6c" transform="translate(151.904297 0)"/>
     <use xlink:href="#DejaVuSans-Bold-61" transform="translate(186.181641 0)"/>
     <use xlink:href="#DejaVuSans-Bold-63" transform="translate(253.662109 0)"/>
     <use xlink:href="#DejaVuSans-Bold-69" transform="translate(312.939453 0)"/>
     <use xlink:href="#DejaVuSans-Bold-f3" transform="translate(347.216797 0)"/>
     <use xlink:href="#DejaVuSans-Bold-6e" transform="translate(415.917969 0)"/>
    </g>
   </g>
   <g id="legend_1">
    <g id="patch_7">
     <path d="M 113.6 128.9675 
L 288.51375 128.9675 
Q 290.11375 128.9675 290.11375 127.3675 
L 290.11375 57.44 
Q 290.11375 55.84 288.51375 55.84 
L 113.6 55.84 
Q 112 55.84 112 57.44 
L 112 127.3675 
Q 112 128.9675 113.6 128.9675 
z
" style="fill: #ffffff; opacity: 0.8; stroke: #cccccc; stroke-linejoin: miter"/>
    </g>
    <g id="line2d_37">
     <path d="M 115.2 62.31875 
L 123.2 62.31875 
L 131.2 62.31875 
" style="fill: none; stroke: #a6cee3; stroke-width: 1.5; stroke-linecap: square"/>
    </g>
    <g id="text_17">
     <!-- Subyacente, Mensual -->
     <g transform="translate(137.6 65.11875) scale(0.08 -0.08)">
      <defs>
       <path id="DejaVuSans-53" d="M 3425 4513 
L 3425 3897 
Q 3066 4069 2747 4153 
Q 2428 4238 2131 4238 
Q 1616 4238 1336 4038 
Q 1056 3838 1056 3469 
Q 1056 3159 1242 3001 
Q 1428 2844 1947 2747 
L 2328 2669 
Q 3034 2534 3370 2195 
Q 3706 1856 3706 1288 
Q 3706 609 3251 259 
Q 2797 -91 1919 -91 
Q 1588 -91 1214 -16 
Q 841 59 441 206 
L 441 856 
Q 825 641 1194 531 
Q 1563 422 1919 422 
Q 2459 422 2753 634 
Q 3047 847 3047 1241 
Q 3047 1584 2836 1778 
Q 2625 1972 2144 2069 
L 1759 2144 
Q 1053 2284 737 2584 
Q 422 2884 422 3419 
Q 422 4038 858 4394 
Q 1294 4750 2059 4750 
Q 2388 4750 2728 4690 
Q 3069 4631 3425 4513 
z
" transform="scale(0.015625)"/>
       <path id="DejaVuSans-75" d="M 544 1381 
L 544 3500 
L 1119 3500 
L 1119 1403 
Q 1119 906 1312 657 
Q 1506 409 1894 409 
Q 2359 409 2629 706 
Q 2900 1003 2900 1516 
L 2900 3500 
L 3475 3500 
L 3475 0 
L 2900 0 
L 2900 538 
Q 2691 219 2414 64 
Q 2138 -91 1772 -91 
Q 1169 -91 856 284 
Q 544 659 544 1381 
z
M 1991 3584 
L 1991 3584 
z
" transform="scale(0.015625)"/>
       <path id="DejaVuSans-62" d="M 3116 1747 
Q 3116 2381 2855 2742 
Q 2594 3103 2138 3103 
Q 1681 3103 1420 2742 
Q 1159 2381 1159 1747 
Q 1159 1113 1420 752 
Q 1681 391 2138 391 
Q 2594 391 2855 752 
Q 3116 1113 3116 1747 
z
M 1159 2969 
Q 1341 3281 1617 3432 
Q 1894 3584 2278 3584 
Q 2916 3584 3314 3078 
Q 3713 2572 3713 1747 
Q 3713 922 3314 415 
Q 2916 -91 2278 -91 
Q 1894 -91 1617 61 
Q 1341 213 1159 525 
L 1159 0 
L 581 0 
L 581 4863 
L 1159 4863 
L 1159 2969 
z
" transform="scale(0.015625)"/>
       <path id="DejaVuSans-79" d="M 2059 -325 
Q 1816 -950 1584 -1140 
Q 1353 -1331 966 -1331 
L 506 -1331 
L 506 -850 
L 844 -850 
Q 1081 -850 1212 -737 
Q 1344 -625 1503 -206 
L 1606 56 
L 191 3500 
L 800 3500 
L 1894 763 
L 2988 3500 
L 3597 3500 
L 2059 -325 
z
" transform="scale(0.015625)"/>
       <path id="DejaVuSans-61" d="M 2194 1759 
Q 1497 1759 1228 1600 
Q 959 1441 959 1056 
Q 959 750 1161 570 
Q 1363 391 1709 391 
Q 2188 391 2477 730 
Q 2766 1069 2766 1631 
L 2766 1759 
L 2194 1759 
z
M 3341 1997 
L 3341 0 
L 2766 0 
L 2766 531 
Q 2569 213 2275 61 
Q 1981 -91 1556 -91 
Q 1019 -91 701 211 
Q 384 513 384 1019 
Q 384 1609 779 1909 
Q 1175 2209 1959 2209 
L 2766 2209 
L 2766 2266 
Q 2766 2663 2505 2880 
Q 2244 3097 1772 3097 
Q 1472 3097 1187 3025 
Q 903 2953 641 2809 
L 641 3341 
Q 956 3463 1253 3523 
Q 1550 3584 1831 3584 
Q 2591 3584 2966 3190 
Q 3341 2797 3341 1997 
z
" transform="scale(0.015625)"/>
       <path id="DejaVuSans-63" d="M 3122 3366 
L 3122 2828 
Q 2878 2963 2633 3030 
Q 2388 3097 2138 3097 
Q 1578 3097 1268 2742 
Q 959 2388 959 1747 
Q 959 1106 1268 751 
Q 1578 397 2138 397 
Q 2388 397 2633 464 
Q 2878 531 3122 666 
L 3122 134 
Q 2881 22 2623 -34 
Q 2366 -91 2075 -91 
Q 1284 -91 818 406 
Q 353 903 353 1747 
Q 353 2603 823 3093 
Q 1294 3584 2113 3584 
Q 2378 3584 2631 3529 
Q 2884 3475 3122 3366 
z
" transform="scale(0.015625)"/>
       <path id="DejaVuSans-65" d="M 3597 1894 
L 3597 1613 
L 953 1613 
Q 991 1019 1311 708 
Q 1631 397 2203 397 
Q 2534 397 2845 478 
Q 3156 559 3463 722 
L 3463 178 
Q 3153 47 2828 -22 
Q 2503 -91 2169 -91 
Q 1331 -91 842 396 
Q 353 884 353 1716 
Q 353 2575 817 3079 
Q 1281 3584 2069 3584 
Q 2775 3584 3186 3129 
Q 3597 2675 3597 1894 
z
M 3022 2063 
Q 3016 2534 2758 2815 
Q 2500 3097 2075 3097 
Q 1594 3097 1305 2825 
Q 1016 2553 972 2059 
L 3022 2063 
z
" transform="scale(0.015625)"/>
       <path id="DejaVuSans-6e" d="M 3513 2113 
L 3513 0 
L 2938 0 
L 2938 2094 
Q 2938 2591 2744 2837 
Q 2550 3084 2163 3084 
Q 1697 3084 1428 2787 
Q 1159 2491 1159 1978 
L 1159 0 
L 581 0 
L 581 3500 
L 1159 3500 
L 1159 2956 
Q 1366 3272 1645 3428 
Q 1925 3584 2291 3584 
Q 2894 3584 3203 3211 
Q 3513 2838 3513 2113 
z
" transform="scale(0.015625)"/>
       <path id="DejaVuSans-74" d="M 1172 4494 
L 1172 3500 
L 2356 3500 
L 2356 3053 
L 1172 3053 
L 1172 1153 
Q 1172 725 1289 603 
Q 1406 481 1766 481 
L 2356 481 
L 2356 0 
L 1766 0 
Q 1100 0 847 248 
Q 594 497 594 1153 
L 594 3053 
L 172 3053 
L 172 3500 
L 594 3500 
L 594 4494 
L 1172 4494 
z
" transform="scale(0.015625)"/>
       <path id="DejaVuSans-2c" d="M 750 794 
L 1409 794 
L 1409 256 
L 897 -744 
L 494 -744 
L 750 256 
L 750 794 
z
" transform="scale(0.015625)"/>
       <path id="DejaVuSans-20" transform="scale(0.015625)"/>
       <path id="DejaVuSans-4d" d="M 628 4666 
L 1569 4666 
L 2759 1491 
L 3956 4666 
L 4897 4666 
L 4897 0 
L 4281 0 
L 4281 4097 
L 3078 897 
L 2444 897 
L 1241 4097 
L 1241 0 
L 628 0 
L 628 4666 
z
" transform="scale(0.015625)"/>
       <path id="DejaVuSans-73" d="M 2834 3397 
L 2834 2853 
Q 2591 2978 2328 3040 
Q 2066 3103 1784 3103 
Q 1356 3103 1142 2972 
Q 928 2841 928 2578 
Q 928 2378 1081 2264 
Q 1234 2150 1697 2047 
L 1894 2003 
Q 2506 1872 2764 1633 
Q 3022 1394 3022 966 
Q 3022 478 2636 193 
Q 2250 -91 1575 -91 
Q 1294 -91 989 -36 
Q 684 19 347 128 
L 347 722 
Q 666 556 975 473 
Q 1284 391 1588 391 
Q 1994 391 2212 530 
Q 2431 669 2431 922 
Q 2431 1156 2273 1281 
Q 2116 1406 1581 1522 
L 1381 1569 
Q 847 1681 609 1914 
Q 372 2147 372 2553 
Q 372 3047 722 3315 
Q 1072 3584 1716 3584 
Q 2034 3584 2315 3537 
Q 2597 3491 2834 3397 
z
" transform="scale(0.015625)"/>
       <path id="DejaVuSans-6c" d="M 603 4863 
L 1178 4863 
L 1178 0 
L 603 0 
L 603 4863 
z
" transform="scale(0.015625)"/>
      </defs>
      <use xlink:href="#DejaVuSans-53"/>
      <use xlink:href="#DejaVuSans-75" transform="translate(63.476562 0)"/>
      <use xlink:href="#DejaVuSans-62" transform="translate(126.855469 0)"/>
      <use xlink:href="#DejaVuSans-79" transform="translate(190.332031 0)"/>
      <use xlink:href="#DejaVuSans-61" transform="translate(249.511719 0)"/>
      <use xlink:href="#DejaVuSans-63" transform="translate(310.791016 0)"/>
      <use xlink:href="#DejaVuSans-65" transform="translate(365.771484 0)"/>
      <use xlink:href="#DejaVuSans-6e" transform="translate(427.294922 0)"/>
      <use xlink:href="#DejaVuSans-74" transform="translate(490.673828 0)"/>
      <use xlink:href="#DejaVuSans-65" transform="translate(529.882812 0)"/>
      <use xlink:href="#DejaVuSans-2c" transform="translate(591.40625 0)"/>
      <use xlink:href="#DejaVuSans-20" transform="translate(623.193359 0)"/>
      <use xlink:href="#DejaVuSans-4d" transform="translate(654.980469 0)"/>
      <use xlink:href="#DejaVuSans-65" transform="translate(741.259766 0)"/>
      <use xlink:href="#DejaVuSans-6e" transform="translate(802.783203 0)"/>
      <use xlink:href="#DejaVuSans-73" transform="translate(866.162109 0)"/>
      <use xlink:href="#DejaVuSans-75" transform="translate(918.261719 0)"/>
      <use xlink:href="#DejaVuSans-61" transform="translate(981.640625 0)"/>
      <use xlink:href="#DejaVuSans-6c" transform="translate(1042.919922 0)"/>
     </g>
    </g>
    <g id="line2d_38">
     <path d="M 115.2 74.1975 
L 123.2 74.1975 
L 131.2 74.1975 
" style="fill: none; stroke: #1f78b4; stroke-width: 1.5; stroke-linecap: square"/>
    </g>
    <g id="text_18">
     <!-- Subyacente, Acumulada en el año -->
     <g transform="translate(137.6 76.9975) scale(0.08 -0.08)">
      <defs>
       <path id="DejaVuSans-41" d="M 2188 4044 
L 1331 1722 
L 3047 1722 
L 2188 4044 
z
M 1831 4666 
L 2547 4666 
L 4325 0 
L 3669 0 
L 3244 1197 
L 1141 1197 
L 716 0 
L 50 0 
L 1831 4666 
z
" transform="scale(0.015625)"/>
       <path id="DejaVuSans-6d" d="M 3328 2828 
Q 3544 3216 3844 3400 
Q 4144 3584 4550 3584 
Q 5097 3584 5394 3201 
Q 5691 2819 5691 2113 
L 5691 0 
L 5113 0 
L 5113 2094 
Q 5113 2597 4934 2840 
Q 4756 3084 4391 3084 
Q 3944 3084 3684 2787 
Q 3425 2491 3425 1978 
L 3425 0 
L 2847 0 
L 2847 2094 
Q 2847 2600 2669 2842 
Q 2491 3084 2119 3084 
Q 1678 3084 1418 2786 
Q 1159 2488 1159 1978 
L 1159 0 
L 581 0 
L 581 3500 
L 1159 3500 
L 1159 2956 
Q 1356 3278 1631 3431 
Q 1906 3584 2284 3584 
Q 2666 3584 2933 3390 
Q 3200 3197 3328 2828 
z
" transform="scale(0.015625)"/>
       <path id="DejaVuSans-64" d="M 2906 2969 
L 2906 4863 
L 3481 4863 
L 3481 0 
L 2906 0 
L 2906 525 
Q 2725 213 2448 61 
Q 2172 -91 1784 -91 
Q 1150 -91 751 415 
Q 353 922 353 1747 
Q 353 2572 751 3078 
Q 1150 3584 1784 3584 
Q 2172 3584 2448 3432 
Q 2725 3281 2906 2969 
z
M 947 1747 
Q 947 1113 1208 752 
Q 1469 391 1925 391 
Q 2381 391 2643 752 
Q 2906 1113 2906 1747 
Q 2906 2381 2643 2742 
Q 2381 3103 1925 3103 
Q 1469 3103 1208 2742 
Q 947 2381 947 1747 
z
" transform="scale(0.015625)"/>
       <path id="DejaVuSans-f1" d="M 3513 2113 
L 3513 0 
L 2938 0 
L 2938 2094 
Q 2938 2591 2744 2837 
Q 2550 3084 2163 3084 
Q 1697 3084 1428 2787 
Q 1159 2491 1159 1978 
L 1159 0 
L 581 0 
L 581 3500 
L 1159 3500 
L 1159 2956 
Q 1366 3272 1645 3428 
Q 1925 3584 2291 3584 
Q 2894 3584 3203 3211 
Q 3513 2838 3513 2113 
z
M 2063 4281 
L 1884 4453 
Q 1816 4516 1764 4545 
Q 1713 4575 1672 4575 
Q 1553 4575 1497 4461 
Q 1441 4347 1434 4091 
L 1044 4091 
Q 1050 4513 1209 4742 
Q 1369 4972 1653 4972 
Q 1772 4972 1872 4928 
Q 1972 4884 2088 4781 
L 2266 4609 
Q 2334 4547 2386 4517 
Q 2438 4488 2478 4488 
Q 2597 4488 2653 4602 
Q 2709 4716 2716 4972 
L 3106 4972 
Q 3100 4550 2940 4320 
Q 2781 4091 2497 4091 
Q 2378 4091 2278 4134 
Q 2178 4178 2063 4281 
z
" transform="scale(0.015625)"/>
       <path id="DejaVuSans-6f" d="M 1959 3097 
Q 1497 3097 1228 2736 
Q 959 2375 959 1747 
Q 959 1119 1226 758 
Q 1494 397 1959 397 
Q 2419 397 2687 759 
Q 2956 1122 2956 1747 
Q 2956 2369 2687 2733 
Q 2419 3097 1959 3097 
z
M 1959 3584 
Q 2709 3584 3137 3096 
Q 3566 2609 3566 1747 
Q 3566 888 3137 398 
Q 2709 -91 1959 -91 
Q 1206 -91 779 398 
Q 353 888 353 1747 
Q 353 2609 779 3096 
Q 1206 3584 1959 3584 
z
" transform="scale(0.015625)"/>
      </defs>
      <use xlink:href="#DejaVuSans-53"/>
      <use xlink:href="#DejaVuSans-75" transform="translate(63.476562 0)"/>
      <use xlink:href="#DejaVuSans-62" transform="translate(126.855469 0)"/>
      <use xlink:href="#DejaVuSans-79" transform="translate(190.332031 0)"/>
      <use xlink:href="#DejaVuSans-61" transform="translate(249.511719 0)"/>
      <use xlink:href="#DejaVuSans-63" transform="translate(310.791016 0)"/>
      <use xlink:href="#DejaVuSans-65" transform="translate(365.771484 0)"/>
      <use xlink:href="#DejaVuSans-6e" transform="translate(427.294922 0)"/>
      <use xlink:href="#DejaVuSans-74" transform="translate(490.673828 0)"/>
      <use xlink:href="#DejaVuSans-65" transform="translate(529.882812 0)"/>
      <use xlink:href="#DejaVuSans-2c" transform="translate(591.40625 0)"/>
      <use xlink:href="#DejaVuSans-20" transform="translate(623.193359 0)"/>
      <use xlink:href="#DejaVuSans-41" transform="translate(654.980469 0)"/>
      <use xlink:href="#DejaVuSans-63" transform="translate(721.638672 0)"/>
      <use xlink:href="#DejaVuSans-75" transform="translate(776.619141 0)"/>
      <use xlink:href="#DejaVuSans-6d" transform="translate(839.998047 0)"/>
      <use xlink:href="#DejaVuSans-75" transform="translate(937.410156 0)"/>
      <use xlink:href="#DejaVuSans-6c" transform="translate(1000.789062 0)"/>
      <use xlink:href="#DejaVuSans-61" transform="translate(1028.572266 0)"/>
      <use xlink:href="#DejaVuSans-64" transform="translate(1089.851562 0)"/>
      <use xlink:href="#DejaVuSans-61" transform="translate(1153.328125 0)"/>
      <use xlink:href="#DejaVuSans-20" transform="translate(1214.607422 0)"/>
      <use xlink:href="#DejaVuSans-65" transform="translate(1246.394531 0)"/>
      <use xlink:href="#DejaVuSans-6e" transform="translate(1307.917969 0)"/>
      <use xlink:href="#DejaVuSans-20" transform="translate(1371.296875 0)"/>
      <use xlink:href="#DejaVuSans-65" transform="translate(1403.083984 0)"/>
      <use xlink:href="#DejaVuSans-6c" transform="translate(1464.607422 0)"/>
      <use xlink:href="#DejaVuSans-20" transform="translate(1492.390625 0)"/>
      <use xlink:href="#DejaVuSans-61" transform="translate(1524.177734 0)"/>
      <use xlink:href="#DejaVuSans-f1" transform="translate(1585.457031 0)"/>
      <use xlink:href="#DejaVuSans-6f" transform="translate(1648.835938 0)"/>
     </g>
    </g>
    <g id="line2d_39">
     <path d="M 115.2 85.94 
L 123.2 85.94 
L 131.2 85.94 
" style="fill: none; stroke: #b2df8a; stroke-width: 1.5; stroke-linecap: square"/>
    </g>
    <g id="text_19">
     <!-- Subyacente, Anual -->
     <g transform="translate(137.6 88.74) scale(0.08 -0.08)">
      <use xlink:href="#DejaVuSans-53"/>
      <use xlink:href="#DejaVuSans-75" transform="translate(63.476562 0)"/>
      <use xlink:href="#DejaVuSans-62" transform="translate(126.855469 0)"/>
      <use xlink:href="#DejaVuSans-79" transform="translate(190.332031 0)"/>
      <use xlink:href="#DejaVuSans-61" transform="translate(249.511719 0)"/>
      <use xlink:href="#DejaVuSans-63" transform="translate(310.791016 0)"/>
      <use xlink:href="#DejaVuSans-65" transform="translate(365.771484 0)"/>
      <use xlink:href="#DejaVuSans-6e" transform="translate(427.294922 0)"/>
      <use xlink:href="#DejaVuSans-74" transform="translate(490.673828 0)"/>
      <use xlink:href="#DejaVuSans-65" transform="translate(529.882812 0)"/>
      <use xlink:href="#DejaVuSans-2c" transform="translate(591.40625 0)"/>
      <use xlink:href="#DejaVuSans-20" transform="translate(623.193359 0)"/>
      <use xlink:href="#DejaVuSans-41" transform="translate(654.980469 0)"/>
      <use xlink:href="#DejaVuSans-6e" transform="translate(723.388672 0)"/>
      <use xlink:href="#DejaVuSans-75" transform="translate(786.767578 0)"/>
      <use xlink:href="#DejaVuSans-61" transform="translate(850.146484 0)"/>
      <use xlink:href="#DejaVuSans-6c" transform="translate(911.425781 0)"/>
     </g>
    </g>
    <g id="line2d_40">
     <path d="M 115.2 97.6825 
L 123.2 97.6825 
L 131.2 97.6825 
" style="fill: none; stroke: #33a02c; stroke-width: 1.5; stroke-linecap: square"/>
    </g>
    <g id="text_20">
     <!-- No subyacente, Mensual -->
     <g transform="translate(137.6 100.4825) scale(0.08 -0.08)">
      <defs>
       <path id="DejaVuSans-4e" d="M 628 4666 
L 1478 4666 
L 3547 763 
L 3547 4666 
L 4159 4666 
L 4159 0 
L 3309 0 
L 1241 3903 
L 1241 0 
L 628 0 
L 628 4666 
z
" transform="scale(0.015625)"/>
      </defs>
      <use xlink:href="#DejaVuSans-4e"/>
      <use xlink:href="#DejaVuSans-6f" transform="translate(74.804688 0)"/>
      <use xlink:href="#DejaVuSans-20" transform="translate(135.986328 0)"/>
      <use xlink:href="#DejaVuSans-73" transform="translate(167.773438 0)"/>
      <use xlink:href="#DejaVuSans-75" transform="translate(219.873047 0)"/>
      <use xlink:href="#DejaVuSans-62" transform="translate(283.251953 0)"/>
      <use xlink:href="#DejaVuSans-79" transform="translate(346.728516 0)"/>
      <use xlink:href="#DejaVuSans-61" transform="translate(405.908203 0)"/>
      <use xlink:href="#DejaVuSans-63" transform="translate(467.1875 0)"/>
      <use xlink:href="#DejaVuSans-65" transform="translate(522.167969 0)"/>
      <use xlink:href="#DejaVuSans-6e" transform="translate(583.691406 0)"/>
      <use xlink:href="#DejaVuSans-74" transform="translate(647.070312 0)"/>
      <use xlink:href="#DejaVuSans-65" transform="translate(686.279297 0)"/>
      <use xlink:href="#DejaVuSans-2c" transform="translate(747.802734 0)"/>
      <use xlink:href="#DejaVuSans-20" transform="translate(779.589844 0)"/>
      <use xlink:href="#DejaVuSans-4d" transform="translate(811.376953 0)"/>
      <use xlink:href="#DejaVuSans-65" transform="translate(897.65625 0)"/>
      <use xlink:href="#DejaVuSans-6e" transform="translate(959.179688 0)"/>
      <use xlink:href="#DejaVuSans-73" transform="translate(1022.558594 0)"/>
      <use xlink:href="#DejaVuSans-75" transform="translate(1074.658203 0)"/>
      <use xlink:href="#DejaVuSans-61" transform="translate(1138.037109 0)"/>
      <use xlink:href="#DejaVuSans-6c" transform="translate(1199.316406 0)"/>
     </g>
    </g>
    <g id="line2d_41">
     <path d="M 115.2 109.56125 
L 123.2 109.56125 
L 131.2 109.56125 
" style="fill: none; stroke: #fb9a99; stroke-width: 1.5; stroke-linecap: square"/>
    </g>
    <g id="text_21">
     <!-- No subyacente, Acumulada en el año -->
     <g transform="translate(137.6 112.36125) scale(0.08 -0.08)">
      <use xlink:href="#DejaVuSans-4e"/>
      <use xlink:href="#DejaVuSans-6f" transform="translate(74.804688 0)"/>
      <use xlink:href="#DejaVuSans-20" transform="translate(135.986328 0)"/>
      <use xlink:href="#DejaVuSans-73" transform="translate(167.773438 0)"/>
      <use xlink:href="#DejaVuSans-75" transform="translate(219.873047 0)"/>
      <use xlink:href="#DejaVuSans-62" transform="translate(283.251953 0)"/>
      <use xlink:href="#DejaVuSans-79" transform="translate(346.728516 0)"/>
      <use xlink:href="#DejaVuSans-61" transform="translate(405.908203 0)"/>
      <use xlink:href="#DejaVuSans-63" transform="translate(467.1875 0)"/>
      <use xlink:href="#DejaVuSans-65" transform="translate(522.167969 0)"/>
      <use xlink:href="#DejaVuSans-6e" transform="translate(583.691406 0)"/>
      <use xlink:href="#DejaVuSans-74" transform="translate(647.070312 0)"/>
      <use xlink:href="#DejaVuSans-65" transform="translate(686.279297 0)"/>
      <use xlink:href="#DejaVuSans-2c" transform="translate(747.802734 0)"/>
      <use xlink:href="#DejaVuSans-20" transform="translate(779.589844 0)"/>
      <use xlink:href="#DejaVuSans-41" transform="translate(811.376953 0)"/>
      <use xlink:href="#DejaVuSans-63" transform="translate(878.035156 0)"/>
      <use xlink:href="#DejaVuSans-75" transform="translate(933.015625 0)"/>
      <use xlink:href="#DejaVuSans-6d" transform="translate(996.394531 0)"/>
      <use xlink:href="#DejaVuSans-75" transform="translate(1093.806641 0)"/>
      <use xlink:href="#DejaVuSans-6c" transform="translate(1157.185547 0)"/>
      <use xlink:href="#DejaVuSans-61" transform="translate(1184.96875 0)"/>
      <use xlink:href="#DejaVuSans-64" transform="translate(1246.248047 0)"/>
      <use xlink:href="#DejaVuSans-61" transform="translate(1309.724609 0)"/>
      <use xlink:href="#DejaVuSans-20" transform="translate(1371.003906 0)"/>
      <use xlink:href="#DejaVuSans-65" transform="translate(1402.791016 0)"/>
      <use xlink:href="#DejaVuSans-6e" transform="translate(1464.314453 0)"/>
      <use xlink:href="#DejaVuSans-20" transform="translate(1527.693359 0)"/>
      <use xlink:href="#DejaVuSans-65" transform="translate(1559.480469 0)"/>
      <use xlink:href="#DejaVuSans-6c" transform="translate(1621.003906 0)"/>
      <use xlink:href="#DejaVuSans-20" transform="translate(1648.787109 0)"/>
      <use xlink:href="#DejaVuSans-61" transform="translate(1680.574219 0)"/>
      <use xlink:href="#DejaVuSans-f1" transform="translate(1741.853516 0)"/>
      <use xlink:href="#DejaVuSans-6f" transform="translate(1805.232422 0)"/>
     </g>
    </g>
    <g id="line2d_42">
     <path d="M 115.2 121.30375 
L 123.2 121.30375 
L 131.2 121.30375 
" style="fill: none; stroke: #e31a1c; stroke-width: 1.5; stroke-linecap: square"/>
    </g>
    <g id="text_22">
     <!-- No subyacente, Anual -->
     <g transform="translate(137.6 124.10375) scale(0.08 -0.08)">
      <use xlink:href="#DejaVuSans-4e"/>
      <use xlink:href="#DejaVuSans-6f" transform="translate(74.804688 0)"/>
      <use xlink:href="#DejaVuSans-20" transform="translate(135.986328 0)"/>
      <use xlink:href="#DejaVuSans-73" transform="translate(167.773438 0)"/>
      <use xlink:href="#DejaVuSans-75" transform="translate(219.873047 0)"/>
      <use xlink:href="#DejaVuSans-62" transform="translate(283.251953 0)"/>
      <use xlink:href="#DejaVuSans-79" transform="translate(346.728516 0)"/>
      <use xlink:href="#DejaVuSans-61" transform="translate(405.908203 0)"/>
      <use xlink:href="#DejaVuSans-63" transform="translate(467.1875 0)"/>
      <use xlink:href="#DejaVuSans-65" transform="translate(522.167969 0)"/>
      <use xlink:href="#DejaVuSans-6e" transform="translate(583.691406 0)"/>
      <use xlink:href="#DejaVuSans-74" transform="translate(647.070312 0)"/>
      <use xlink:href="#DejaVuSans-65" transform="translate(686.279297 0)"/>
      <use xlink:href="#DejaVuSans-2c" transform="translate(747.802734 0)"/>
      <use xlink:href="#DejaVuSans-20" transform="translate(779.589844 0)"/>
      <use xlink:href="#DejaVuSans-41" transform="translate(811.376953 0)"/>
      <use xlink:href="#DejaVuSans-6e" transform="translate(879.785156 0)"/>
      <use xlink:href="#DejaVuSans-75" transform="translate(943.164062 0)"/>
      <use xlink:href="#DejaVuSans-61" transform="translate(1006.542969 0)"/>
      <use xlink:href="#DejaVuSans-6c" transform="translate(1067.822266 0)"/>
     </g>
    </g>
   </g>
  </g>
 </g>
 <defs>
  <clipPath id="p655d74d06b">
   <rect x="108" y="51.84" width="669.6" height="332.64"/>
  </clipPath>
 </defs>
</svg>
