<?xml version="1.0" encoding="utf-8" standalone="no"?>
<!DOCTYPE svg PUBLIC "-//W3C//DTD SVG 1.1//EN"
  "http://www.w3.org/Graphics/SVG/1.1/DTD/svg11.dtd">
<svg xmlns:xlink="http://www.w3.org/1999/xlink" width="864pt" height="432pt" viewBox="0 0 864 432" xmlns="http://www.w3.org/2000/svg" version="1.1">
 <metadata>
  <rdf:RDF xmlns:dc="http://purl.org/dc/elements/1.1/" xmlns:cc="http://creativecommons.org/ns#" xmlns:rdf="http://www.w3.org/1999/02/22-rdf-syntax-ns#">
   <cc:Work>
    <dc:type rdf:resource="http://purl.org/dc/dcmitype/StillImage"/>
    <dc:date>2025-02-24T01:18:22.983073</dc:date>
    <dc:format>image/svg+xml</dc:format>
    <dc:creator>
     <cc:Agent>
      <dc:title>Matplotlib v3.10.0, https://matplotlib.org/</dc:title>
     </cc:Agent>
    </dc:creator>
   </cc:Work>
  </rdf:RDF>
 </metadata>
 <defs>
  <style type="text/css">*{stroke-linejoin: round; stroke-linecap: butt}</style>
 </defs>
 <g id="figure_1">
  <g id="patch_1">
   <path d="M 0 432 
L 864 432 
L 864 0 
L 0 0 
z
" style="fill: #ffffff"/>
  </g>
  <g id="axes_1">
   <g id="patch_2">
    <path d="M 108 384.48 
L 777.6 384.48 
L 777.6 51.84 
L 108 51.84 
z
" style="fill: #ffffff"/>
   </g>
   <g id="matplotlib.axis_1">
    <g id="xtick_1">
     <g id="line2d_1">
      <path d="M 173.464612 384.48 
L 173.464612 51.84 
" clip-path="url(#p5098caa0e2)" style="fill: none; stroke-dasharray: 2.96,1.28; stroke-dashoffset: 0; stroke: #b0b0b0; stroke-opacity: 0.5; stroke-width: 0.8"/>
     </g>
     <g id="line2d_2">
      <defs>
       <path id="m06161474cc" d="M 0 0 
L 0 3.5 
" style="stroke: #000000; stroke-width: 0.8"/>
      </defs>
      <g>
       <use xlink:href="#m06161474cc" x="173.464612" y="384.48" style="stroke: #000000; stroke-width: 0.8"/>
      </g>
     </g>
     <g id="text_1">
      <!-- 2012 -->
      <g transform="translate(160.739612 399.078438) scale(0.1 -0.1)">
       <defs>
        <path id="DejaVuSans-32" d="M 1228 531 
L 3431 531 
L 3431 0 
L 469 0 
L 469 531 
Q 828 903 1448 1529 
Q 2069 2156 2228 2338 
Q 2531 2678 2651 2914 
Q 2772 3150 2772 3378 
Q 2772 3750 2511 3984 
Q 2250 4219 1831 4219 
Q 1534 4219 1204 4116 
Q 875 4013 500 3803 
L 500 4441 
Q 881 4594 1212 4672 
Q 1544 4750 1819 4750 
Q 2544 4750 2975 4387 
Q 3406 4025 3406 3419 
Q 3406 3131 3298 2873 
Q 3191 2616 2906 2266 
Q 2828 2175 2409 1742 
Q 1991 1309 1228 531 
z
" transform="scale(0.015625)"/>
        <path id="DejaVuSans-30" d="M 2034 4250 
Q 1547 4250 1301 3770 
Q 1056 3291 1056 2328 
Q 1056 1369 1301 889 
Q 1547 409 2034 409 
Q 2525 409 2770 889 
Q 3016 1369 3016 2328 
Q 3016 3291 2770 3770 
Q 2525 4250 2034 4250 
z
M 2034 4750 
Q 2819 4750 3233 4129 
Q 3647 3509 3647 2328 
Q 3647 1150 3233 529 
Q 2819 -91 2034 -91 
Q 1250 -91 836 529 
Q 422 1150 422 2328 
Q 422 3509 836 4129 
Q 1250 4750 2034 4750 
z
" transform="scale(0.015625)"/>
        <path id="DejaVuSans-31" d="M 794 531 
L 1825 531 
L 1825 4091 
L 703 3866 
L 703 4441 
L 1819 4666 
L 2450 4666 
L 2450 531 
L 3481 531 
L 3481 0 
L 794 0 
L 794 531 
z
" transform="scale(0.015625)"/>
       </defs>
       <use xlink:href="#DejaVuSans-32"/>
       <use xlink:href="#DejaVuSans-30" transform="translate(63.623047 0)"/>
       <use xlink:href="#DejaVuSans-31" transform="translate(127.246094 0)"/>
       <use xlink:href="#DejaVuSans-32" transform="translate(190.869141 0)"/>
      </g>
     </g>
    </g>
    <g id="xtick_2">
     <g id="line2d_3">
      <path d="M 266.576066 384.48 
L 266.576066 51.84 
" clip-path="url(#p5098caa0e2)" style="fill: none; stroke-dasharray: 2.96,1.28; stroke-dashoffset: 0; stroke: #b0b0b0; stroke-opacity: 0.5; stroke-width: 0.8"/>
     </g>
     <g id="line2d_4">
      <g>
       <use xlink:href="#m06161474cc" x="266.576066" y="384.48" style="stroke: #000000; stroke-width: 0.8"/>
      </g>
     </g>
     <g id="text_2">
      <!-- 2014 -->
      <g transform="translate(253.851066 399.078438) scale(0.1 -0.1)">
       <defs>
        <path id="DejaVuSans-34" d="M 2419 4116 
L 825 1625 
L 2419 1625 
L 2419 4116 
z
M 2253 4666 
L 3047 4666 
L 3047 1625 
L 3713 1625 
L 3713 1100 
L 3047 1100 
L 3047 0 
L 2419 0 
L 2419 1100 
L 313 1100 
L 313 1709 
L 2253 4666 
z
" transform="scale(0.015625)"/>
       </defs>
       <use xlink:href="#DejaVuSans-32"/>
       <use xlink:href="#DejaVuSans-30" transform="translate(63.623047 0)"/>
       <use xlink:href="#DejaVuSans-31" transform="translate(127.246094 0)"/>
       <use xlink:href="#DejaVuSans-34" transform="translate(190.869141 0)"/>
      </g>
     </g>
    </g>
    <g id="xtick_3">
     <g id="line2d_5">
      <path d="M 359.560144 384.48 
L 359.560144 51.84 
" clip-path="url(#p5098caa0e2)" style="fill: none; stroke-dasharray: 2.96,1.28; stroke-dashoffset: 0; stroke: #b0b0b0; stroke-opacity: 0.5; stroke-width: 0.8"/>
     </g>
     <g id="line2d_6">
      <g>
       <use xlink:href="#m06161474cc" x="359.560144" y="384.48" style="stroke: #000000; stroke-width: 0.8"/>
      </g>
     </g>
     <g id="text_3">
      <!-- 2016 -->
      <g transform="translate(346.835144 399.078438) scale(0.1 -0.1)">
       <defs>
        <path id="DejaVuSans-36" d="M 2113 2584 
Q 1688 2584 1439 2293 
Q 1191 2003 1191 1497 
Q 1191 994 1439 701 
Q 1688 409 2113 409 
Q 2538 409 2786 701 
Q 3034 994 3034 1497 
Q 3034 2003 2786 2293 
Q 2538 2584 2113 2584 
z
M 3366 4563 
L 3366 3988 
Q 3128 4100 2886 4159 
Q 2644 4219 2406 4219 
Q 1781 4219 1451 3797 
Q 1122 3375 1075 2522 
Q 1259 2794 1537 2939 
Q 1816 3084 2150 3084 
Q 2853 3084 3261 2657 
Q 3669 2231 3669 1497 
Q 3669 778 3244 343 
Q 2819 -91 2113 -91 
Q 1303 -91 875 529 
Q 447 1150 447 2328 
Q 447 3434 972 4092 
Q 1497 4750 2381 4750 
Q 2619 4750 2861 4703 
Q 3103 4656 3366 4563 
z
" transform="scale(0.015625)"/>
       </defs>
       <use xlink:href="#DejaVuSans-32"/>
       <use xlink:href="#DejaVuSans-30" transform="translate(63.623047 0)"/>
       <use xlink:href="#DejaVuSans-31" transform="translate(127.246094 0)"/>
       <use xlink:href="#DejaVuSans-36" transform="translate(190.869141 0)"/>
      </g>
     </g>
    </g>
    <g id="xtick_4">
     <g id="line2d_7">
      <path d="M 452.671597 384.48 
L 452.671597 51.84 
" clip-path="url(#p5098caa0e2)" style="fill: none; stroke-dasharray: 2.96,1.28; stroke-dashoffset: 0; stroke: #b0b0b0; stroke-opacity: 0.5; stroke-width: 0.8"/>
     </g>
     <g id="line2d_8">
      <g>
       <use xlink:href="#m06161474cc" x="452.671597" y="384.48" style="stroke: #000000; stroke-width: 0.8"/>
      </g>
     </g>
     <g id="text_4">
      <!-- 2018 -->
      <g transform="translate(439.946597 399.078438) scale(0.1 -0.1)">
       <defs>
        <path id="DejaVuSans-38" d="M 2034 2216 
Q 1584 2216 1326 1975 
Q 1069 1734 1069 1313 
Q 1069 891 1326 650 
Q 1584 409 2034 409 
Q 2484 409 2743 651 
Q 3003 894 3003 1313 
Q 3003 1734 2745 1975 
Q 2488 2216 2034 2216 
z
M 1403 2484 
Q 997 2584 770 2862 
Q 544 3141 544 3541 
Q 544 4100 942 4425 
Q 1341 4750 2034 4750 
Q 2731 4750 3128 4425 
Q 3525 4100 3525 3541 
Q 3525 3141 3298 2862 
Q 3072 2584 2669 2484 
Q 3125 2378 3379 2068 
Q 3634 1759 3634 1313 
Q 3634 634 3220 271 
Q 2806 -91 2034 -91 
Q 1263 -91 848 271 
Q 434 634 434 1313 
Q 434 1759 690 2068 
Q 947 2378 1403 2484 
z
M 1172 3481 
Q 1172 3119 1398 2916 
Q 1625 2713 2034 2713 
Q 2441 2713 2670 2916 
Q 2900 3119 2900 3481 
Q 2900 3844 2670 4047 
Q 2441 4250 2034 4250 
Q 1625 4250 1398 4047 
Q 1172 3844 1172 3481 
z
" transform="scale(0.015625)"/>
       </defs>
       <use xlink:href="#DejaVuSans-32"/>
       <use xlink:href="#DejaVuSans-30" transform="translate(63.623047 0)"/>
       <use xlink:href="#DejaVuSans-31" transform="translate(127.246094 0)"/>
       <use xlink:href="#DejaVuSans-38" transform="translate(190.869141 0)"/>
      </g>
     </g>
    </g>
    <g id="xtick_5">
     <g id="line2d_9">
      <path d="M 545.655675 384.48 
L 545.655675 51.84 
" clip-path="url(#p5098caa0e2)" style="fill: none; stroke-dasharray: 2.96,1.28; stroke-dashoffset: 0; stroke: #b0b0b0; stroke-opacity: 0.5; stroke-width: 0.8"/>
     </g>
     <g id="line2d_10">
      <g>
       <use xlink:href="#m06161474cc" x="545.655675" y="384.48" style="stroke: #000000; stroke-width: 0.8"/>
      </g>
     </g>
     <g id="text_5">
      <!-- 2020 -->
      <g transform="translate(532.930675 399.078438) scale(0.1 -0.1)">
       <use xlink:href="#DejaVuSans-32"/>
       <use xlink:href="#DejaVuSans-30" transform="translate(63.623047 0)"/>
       <use xlink:href="#DejaVuSans-32" transform="translate(127.246094 0)"/>
       <use xlink:href="#DejaVuSans-30" transform="translate(190.869141 0)"/>
      </g>
     </g>
    </g>
    <g id="xtick_6">
     <g id="line2d_11">
      <path d="M 638.767129 384.48 
L 638.767129 51.84 
" clip-path="url(#p5098caa0e2)" style="fill: none; stroke-dasharray: 2.96,1.28; stroke-dashoffset: 0; stroke: #b0b0b0; stroke-opacity: 0.5; stroke-width: 0.8"/>
     </g>
     <g id="line2d_12">
      <g>
       <use xlink:href="#m06161474cc" x="638.767129" y="384.48" style="stroke: #000000; stroke-width: 0.8"/>
      </g>
     </g>
     <g id="text_6">
      <!-- 2022 -->
      <g transform="translate(626.042129 399.078438) scale(0.1 -0.1)">
       <use xlink:href="#DejaVuSans-32"/>
       <use xlink:href="#DejaVuSans-30" transform="translate(63.623047 0)"/>
       <use xlink:href="#DejaVuSans-32" transform="translate(127.246094 0)"/>
       <use xlink:href="#DejaVuSans-32" transform="translate(190.869141 0)"/>
      </g>
     </g>
    </g>
    <g id="xtick_7">
     <g id="line2d_13">
      <path d="M 731.751207 384.48 
L 731.751207 51.84 
" clip-path="url(#p5098caa0e2)" style="fill: none; stroke-dasharray: 2.96,1.28; stroke-dashoffset: 0; stroke: #b0b0b0; stroke-opacity: 0.5; stroke-width: 0.8"/>
     </g>
     <g id="line2d_14">
      <g>
       <use xlink:href="#m06161474cc" x="731.751207" y="384.48" style="stroke: #000000; stroke-width: 0.8"/>
      </g>
     </g>
     <g id="text_7">
      <!-- 2024 -->
      <g transform="translate(719.026207 399.078438) scale(0.1 -0.1)">
       <use xlink:href="#DejaVuSans-32"/>
       <use xlink:href="#DejaVuSans-30" transform="translate(63.623047 0)"/>
       <use xlink:href="#DejaVuSans-32" transform="translate(127.246094 0)"/>
       <use xlink:href="#DejaVuSans-34" transform="translate(190.869141 0)"/>
      </g>
     </g>
    </g>
   </g>
   <g id="matplotlib.axis_2">
    <g id="ytick_1">
     <g id="line2d_15">
      <path d="M 108 337.905417 
L 777.6 337.905417 
" clip-path="url(#p5098caa0e2)" style="fill: none; stroke-dasharray: 2.96,1.28; stroke-dashoffset: 0; stroke: #b0b0b0; stroke-opacity: 0.5; stroke-width: 0.8"/>
     </g>
     <g id="line2d_16">
      <defs>
       <path id="md1e1a2784a" d="M 0 0 
L -3.5 0 
" style="stroke: #000000; stroke-width: 0.8"/>
      </defs>
      <g>
       <use xlink:href="#md1e1a2784a" x="108" y="337.905417" style="stroke: #000000; stroke-width: 0.8"/>
      </g>
     </g>
     <g id="text_8">
      <!-- 0 -->
      <g transform="translate(94.6375 341.704636) scale(0.1 -0.1)">
       <use xlink:href="#DejaVuSans-30"/>
      </g>
     </g>
    </g>
    <g id="ytick_2">
     <g id="line2d_17">
      <path d="M 108 275.619114 
L 777.6 275.619114 
" clip-path="url(#p5098caa0e2)" style="fill: none; stroke-dasharray: 2.96,1.28; stroke-dashoffset: 0; stroke: #b0b0b0; stroke-opacity: 0.5; stroke-width: 0.8"/>
     </g>
     <g id="line2d_18">
      <g>
       <use xlink:href="#md1e1a2784a" x="108" y="275.619114" style="stroke: #000000; stroke-width: 0.8"/>
      </g>
     </g>
     <g id="text_9">
      <!-- 2 -->
      <g transform="translate(94.6375 279.418333) scale(0.1 -0.1)">
       <use xlink:href="#DejaVuSans-32"/>
      </g>
     </g>
    </g>
    <g id="ytick_3">
     <g id="line2d_19">
      <path d="M 108 213.332812 
L 777.6 213.332812 
" clip-path="url(#p5098caa0e2)" style="fill: none; stroke-dasharray: 2.96,1.28; stroke-dashoffset: 0; stroke: #b0b0b0; stroke-opacity: 0.5; stroke-width: 0.8"/>
     </g>
     <g id="line2d_20">
      <g>
       <use xlink:href="#md1e1a2784a" x="108" y="213.332812" style="stroke: #000000; stroke-width: 0.8"/>
      </g>
     </g>
     <g id="text_10">
      <!-- 4 -->
      <g transform="translate(94.6375 217.13203) scale(0.1 -0.1)">
       <use xlink:href="#DejaVuSans-34"/>
      </g>
     </g>
    </g>
    <g id="ytick_4">
     <g id="line2d_21">
      <path d="M 108 151.046509 
L 777.6 151.046509 
" clip-path="url(#p5098caa0e2)" style="fill: none; stroke-dasharray: 2.96,1.28; stroke-dashoffset: 0; stroke: #b0b0b0; stroke-opacity: 0.5; stroke-width: 0.8"/>
     </g>
     <g id="line2d_22">
      <g>
       <use xlink:href="#md1e1a2784a" x="108" y="151.046509" style="stroke: #000000; stroke-width: 0.8"/>
      </g>
     </g>
     <g id="text_11">
      <!-- 6 -->
      <g transform="translate(94.6375 154.845728) scale(0.1 -0.1)">
       <use xlink:href="#DejaVuSans-36"/>
      </g>
     </g>
    </g>
    <g id="ytick_5">
     <g id="line2d_23">
      <path d="M 108 88.760206 
L 777.6 88.760206 
" clip-path="url(#p5098caa0e2)" style="fill: none; stroke-dasharray: 2.96,1.28; stroke-dashoffset: 0; stroke: #b0b0b0; stroke-opacity: 0.5; stroke-width: 0.8"/>
     </g>
     <g id="line2d_24">
      <g>
       <use xlink:href="#md1e1a2784a" x="108" y="88.760206" style="stroke: #000000; stroke-width: 0.8"/>
      </g>
     </g>
     <g id="text_12">
      <!-- 8 -->
      <g transform="translate(94.6375 92.559425) scale(0.1 -0.1)">
       <use xlink:href="#DejaVuSans-38"/>
      </g>
     </g>
    </g>
   </g>
   <g id="line2d_25">
    <path d="M 138.436364 338.216849 
L 142.257627 360.951349 
L 146.206266 337.905417 
L 150.02753 322.956704 
L 153.976168 332.922513 
L 157.924807 330.119629 
L 161.746071 317.039506 
L 165.69471 304.270814 
L 169.515973 312.368033 
L 173.464612 315.79378 
L 177.413251 331.676787 
L 181.107139 336.036828 
L 185.055778 347.559794 
L 188.877042 347.871226 
L 192.825681 323.579567 
L 196.646944 320.465252 
L 200.595583 328.562472 
L 204.544222 324.20243 
L 208.365485 322.02241 
L 212.314124 316.728074 
L 216.135388 330.742492 
L 220.084027 325.448157 
L 224.032666 322.645273 
L 227.599178 315.170917 
L 231.547817 335.725396 
L 235.369081 348.182657 
L 239.31772 339.774006 
L 243.138983 338.839712 
L 247.087622 329.185335 
L 254.857524 322.956704 
L 258.806163 308.942286 
L 262.627427 320.153821 
L 266.576066 310.188012 
L 270.524705 330.119629 
L 274.091217 329.496766 
L 278.039856 343.822616 
L 281.86112 347.871226 
L 285.809759 332.611081 
L 289.631022 329.185335 
L 297.5283 324.20243 
L 301.349563 320.776684 
L 305.298202 312.679464 
L 309.119466 322.645273 
L 313.068105 340.708301 
L 317.016744 331.988218 
L 320.583256 325.136725 
L 324.531895 346.002636 
L 328.353159 353.476993 
L 332.301798 332.611081 
L 336.123061 333.233944 
L 340.0717 331.365355 
L 344.020339 326.382451 
L 347.841602 322.02241 
L 351.790241 320.776684 
L 355.611505 325.136725 
L 359.560144 326.07102 
L 363.508783 324.20243 
L 367.202671 333.233944 
L 371.15131 347.871226 
L 374.972573 351.919835 
L 378.921212 334.47967 
L 382.742476 329.808198 
L 386.691115 329.185335 
L 390.639753 318.908095 
L 394.461017 318.908095 
L 398.409656 313.613759 
L 402.230919 323.579567 
L 406.179558 284.96206 
L 410.128197 319.842389 
L 413.69471 318.908095 
L 417.643349 334.168239 
L 421.464612 341.642595 
L 425.413251 330.119629 
L 429.234515 326.07102 
L 433.183154 322.645273 
L 437.131793 328.25104 
L 440.953056 318.285232 
L 444.901695 305.827971 
L 448.722958 319.530958 
L 452.671597 321.399547 
L 456.620236 326.07102 
L 460.186749 327.939609 
L 464.135388 348.494089 
L 467.956651 342.888321 
L 471.90529 325.759588 
L 475.726554 321.088115 
L 479.675193 319.842389 
L 483.623832 324.825294 
L 487.445095 321.710978 
L 491.393734 311.433738 
L 495.214997 316.105211 
L 499.163636 335.102533 
L 503.112275 338.839712 
L 506.678788 325.759588 
L 510.627427 336.34826 
L 514.44869 346.936931 
L 518.397329 336.036828 
L 522.218593 326.07102 
L 526.167232 338.52828 
L 530.115871 329.808198 
L 533.937134 321.088115 
L 537.885773 312.679464 
L 541.707036 320.465252 
L 545.655675 322.956704 
L 549.604314 324.825294 
L 553.298202 339.462575 
L 557.246841 369.36 
L 561.068105 326.07102 
L 565.016744 320.776684 
L 568.838007 317.350937 
L 572.786646 325.759588 
L 576.735285 330.742492 
L 580.556549 318.908095 
L 584.505187 335.413965 
L 588.326451 326.07102 
L 592.27509 311.122307 
L 596.223729 318.285232 
L 599.790241 312.056601 
L 603.73888 327.628177 
L 607.560144 331.676787 
L 611.508783 321.399547 
L 615.330046 319.530958 
L 619.278685 331.988218 
L 623.227324 318.596663 
L 627.048588 311.74517 
L 630.997227 302.402225 
L 634.81849 326.693883 
L 638.767129 319.530958 
L 642.715768 312.056601 
L 646.28228 307.073697 
L 650.230919 321.088115 
L 654.052183 332.29965 
L 658.000822 311.74517 
L 661.822085 314.859485 
L 665.770724 316.105211 
L 669.719363 318.596663 
L 673.540627 320.153821 
L 677.489266 319.842389 
L 681.310529 326.07102 
L 685.259168 316.728074 
L 689.207807 320.465252 
L 692.774319 329.496766 
L 696.722958 338.52828 
L 700.544222 344.75691 
L 704.492861 334.791102 
L 708.314124 322.956704 
L 712.262763 320.776684 
L 716.211402 324.20243 
L 720.032666 326.07102 
L 723.981305 317.9738 
L 727.802568 315.79378 
L 731.751207 310.188012 
L 735.699846 335.102533 
L 739.393734 328.873903 
L 743.342373 331.676787 
L 747.163636 343.822616 
L 747.163636 343.822616 
" clip-path="url(#p5098caa0e2)" style="fill: none; stroke: #a6cee3; stroke-width: 1.5; stroke-linecap: square"/>
   </g>
   <g id="line2d_26">
    <path d="M 138.436364 305.205108 
L 142.257627 328.562472 
L 146.206266 328.562472 
L 150.02753 313.613759 
L 153.976168 308.630855 
L 157.924807 300.845067 
L 161.746071 279.667724 
L 165.69471 245.410257 
L 169.515973 218.938579 
L 173.464612 315.79378 
L 177.413251 309.565149 
L 181.107139 307.69656 
L 188.877042 327.316746 
L 192.825681 312.990896 
L 196.646944 295.550731 
L 200.595583 285.896354 
L 204.544222 271.881936 
L 208.365485 255.998929 
L 212.314124 234.198723 
L 216.135388 226.724367 
L 220.084027 325.448157 
L 224.032666 309.876581 
L 227.599178 286.830649 
L 231.547817 284.96206 
L 235.369081 295.2393 
L 239.31772 297.41932 
L 243.138983 298.353615 
L 247.087622 289.322101 
L 251.036261 277.487703 
L 254.857524 262.227559 
L 258.806163 232.641565 
L 262.627427 214.267106 
L 266.576066 310.188012 
L 270.524705 302.090793 
L 274.091217 293.370711 
L 278.039856 299.287909 
L 281.86112 309.565149 
L 285.809759 303.959382 
L 289.631022 295.2393 
L 293.579661 284.027765 
L 297.5283 270.013347 
L 301.349563 252.573182 
L 305.298202 226.724367 
L 309.119466 210.841359 
L 313.068105 340.708301 
L 317.016744 334.791102 
L 320.583256 322.02241 
L 324.531895 330.119629 
L 328.353159 346.002636 
L 332.301798 340.708301 
L 336.123061 336.036828 
L 340.0717 329.496766 
L 344.020339 317.662369 
L 347.841602 301.779361 
L 351.790241 284.339197 
L 355.611505 271.570505 
L 359.560144 326.07102 
L 363.508783 312.368033 
L 367.202671 307.69656 
L 371.15131 317.662369 
L 374.972573 331.676787 
L 378.921212 328.25104 
L 382.742476 320.153821 
L 386.691115 311.122307 
L 390.639753 292.124985 
L 394.461017 272.816231 
L 398.409656 247.90171 
L 402.230919 233.264428 
L 406.179558 284.96206 
L 410.128197 266.5876 
L 413.69471 246.967415 
L 417.643349 243.230237 
L 421.464612 246.967415 
L 425.413251 238.870196 
L 429.234515 226.724367 
L 433.183154 210.841359 
L 437.131793 200.564119 
L 440.953056 180.321071 
L 444.901695 146.375036 
L 448.722958 127.066282 
L 452.671597 321.399547 
L 456.620236 309.565149 
L 460.186749 299.287909 
L 464.135388 309.876581 
L 467.956651 315.170917 
L 471.90529 303.025088 
L 475.726554 286.207786 
L 479.675193 267.521895 
L 483.623832 254.13034 
L 487.445095 237.62447 
L 491.393734 210.218496 
L 495.214997 187.483996 
L 499.163636 335.102533 
L 503.112275 336.036828 
L 506.678788 324.20243 
L 510.627427 322.333841 
L 514.44869 331.365355 
L 518.397329 329.496766 
L 522.218593 317.662369 
L 526.167232 318.285232 
L 530.115871 310.188012 
L 533.937134 293.059279 
L 537.885773 267.521895 
L 541.707036 249.770299 
L 545.655675 322.956704 
L 549.604314 309.876581 
L 553.298202 311.433738 
L 557.246841 343.199753 
L 561.068105 331.053924 
L 565.016744 314.236622 
L 568.838007 293.370711 
L 572.786646 281.224882 
L 576.735285 273.750525 
L 580.556549 254.441771 
L 584.505187 251.950319 
L 588.326451 239.80449 
L 592.27509 311.122307 
L 596.223729 291.19069 
L 599.790241 265.030443 
L 603.73888 254.753203 
L 607.560144 248.213141 
L 611.508783 231.084408 
L 615.330046 212.087085 
L 619.278685 205.858455 
L 623.227324 185.926838 
L 627.048588 158.520865 
L 630.997227 120.837652 
L 634.81849 108.691823 
L 638.767129 319.530958 
L 642.715768 293.370711 
L 646.28228 262.227559 
L 650.230919 245.098826 
L 654.052183 239.181627 
L 658.000822 212.087085 
L 661.822085 188.106859 
L 665.770724 165.372358 
L 669.719363 145.12931 
L 677.489266 107.134665 
L 681.310529 94.365973 
L 685.259168 316.728074 
L 689.207807 299.287909 
L 692.774319 290.879258 
L 696.722958 291.502122 
L 700.544222 298.353615 
L 704.492861 295.2393 
L 708.314124 279.979156 
L 712.262763 262.538991 
L 716.211402 248.213141 
L 720.032666 236.067312 
L 723.981305 215.512832 
L 727.802568 192.778332 
L 731.751207 310.188012 
L 735.699846 307.073697 
L 739.393734 298.042183 
L 743.342373 291.813553 
L 747.163636 297.730752 
L 747.163636 297.730752 
" clip-path="url(#p5098caa0e2)" style="fill: none; stroke: #1f78b4; stroke-width: 1.5; stroke-linecap: square"/>
   </g>
   <g id="line2d_27">
    <path d="M 138.436364 233.264428 
L 142.257627 236.690175 
L 146.206266 235.755881 
L 150.02753 227.34723 
L 153.976168 231.395839 
L 157.924807 240.115922 
L 161.746071 238.247333 
L 165.69471 229.52725 
L 169.515973 218.938579 
L 173.464612 211.775654 
L 177.413251 217.381421 
L 181.107139 221.741462 
L 185.055778 231.707271 
L 188.877042 218.004284 
L 192.825681 202.74414 
L 196.646944 200.252688 
L 200.595583 195.581215 
L 204.544222 189.352585 
L 208.365485 194.646921 
L 212.314124 207.727044 
L 216.135388 226.724367 
L 220.084027 236.690175 
L 224.032666 227.34723 
L 227.599178 205.547024 
L 231.547817 193.089763 
L 235.369081 193.712626 
L 239.31772 210.529928 
L 243.138983 229.838682 
L 247.087622 230.150113 
L 251.036261 232.330134 
L 254.857524 233.264428 
L 258.806163 225.167209 
L 262.627427 214.267106 
L 266.576066 198.384099 
L 270.524705 206.169887 
L 274.091217 220.807168 
L 278.039856 228.904387 
L 281.86112 228.592956 
L 285.809759 221.118599 
L 289.631022 211.152791 
L 293.579661 208.661339 
L 297.5283 206.481318 
L 301.349563 203.989866 
L 305.298202 208.038476 
L 309.119466 210.841359 
L 313.068105 242.295942 
L 317.016744 244.475963 
L 320.583256 240.115922 
L 324.531895 242.607374 
L 328.353159 248.213141 
L 332.301798 248.524573 
L 336.123061 252.573182 
L 340.0717 257.244655 
L 344.020339 259.424676 
L 347.841602 260.670402 
L 351.790241 269.079053 
L 355.611505 271.570505 
L 359.560144 256.621792 
L 363.508783 248.524573 
L 367.202671 256.933223 
L 371.15131 258.801813 
L 374.972573 256.933223 
L 378.921212 258.801813 
L 382.742476 255.376066 
L 386.691115 252.884614 
L 390.639753 245.410257 
L 394.461017 242.607374 
L 398.409656 234.821586 
L 402.230919 233.264428 
L 406.179558 190.909743 
L 410.128197 186.549701 
L 413.69471 171.289557 
L 417.643349 156.652276 
L 421.464612 146.063605 
L 425.413251 141.392132 
L 429.234515 137.343522 
L 433.183154 130.492029 
L 437.131793 140.146406 
L 440.953056 139.523543 
L 444.901695 131.426323 
L 448.722958 127.066282 
L 452.671597 165.060927 
L 456.620236 171.600989 
L 460.186749 180.943934 
L 464.135388 196.204078 
L 467.956651 197.449804 
L 471.90529 193.089763 
L 475.726554 188.106859 
L 479.675193 185.303975 
L 483.623832 181.566797 
L 487.445095 185.303975 
L 491.393734 190.909743 
L 495.214997 187.483996 
L 499.163636 201.809846 
L 503.112275 215.201401 
L 506.678788 213.332812 
L 510.627427 200.564119 
L 514.44869 204.612729 
L 518.397329 214.889969 
L 522.218593 220.184305 
L 526.167232 239.493059 
L 530.115871 244.475963 
L 533.937134 243.8531 
L 537.885773 245.410257 
L 541.707036 249.770299 
L 545.655675 237.001607 
L 549.604314 222.675757 
L 553.298202 236.690175 
L 557.246841 270.947642 
L 561.068105 249.458867 
L 565.016744 234.198723 
L 568.838007 225.167209 
L 572.786646 211.775654 
L 576.735285 213.02138 
L 580.556549 210.529928 
L 584.505187 234.198723 
L 588.326451 239.80449 
L 592.27509 227.658661 
L 596.223729 220.807168 
L 599.790241 192.4669 
L 603.73888 148.555057 
L 607.560144 154.472255 
L 611.508783 154.783687 
L 615.330046 156.963708 
L 619.278685 163.815201 
L 623.227324 151.046509 
L 627.048588 143.572152 
L 630.997227 108.380391 
L 634.81849 108.691823 
L 638.767129 117.723337 
L 642.715768 111.183275 
L 646.28228 105.888939 
L 650.230919 98.726014 
L 654.052183 99.660309 
L 658.000822 89.071637 
L 661.822085 84.088733 
L 665.770724 66.96 
L 669.719363 66.96 
L 673.540627 75.991514 
L 677.489266 94.988836 
L 681.310529 94.365973 
L 685.259168 91.56309 
L 689.207807 100.594604 
L 692.774319 124.57483 
L 696.722958 143.260721 
L 700.544222 156.029413 
L 704.492861 180.321071 
L 708.314124 188.729722 
L 712.262763 193.401195 
L 720.032666 205.235592 
L 723.981305 203.367003 
L 727.802568 192.778332 
L 731.751207 185.926838 
L 735.699846 200.875551 
L 739.393734 200.252688 
L 743.342373 193.089763 
L 747.163636 191.844037 
L 747.163636 191.844037 
" clip-path="url(#p5098caa0e2)" style="fill: none; stroke: #b2df8a; stroke-width: 1.5; stroke-linecap: square"/>
   </g>
   <g id="patch_3">
    <path d="M 108 384.48 
L 108 51.84 
" style="fill: none; stroke: #000000; stroke-width: 0.8; stroke-linejoin: miter; stroke-linecap: square"/>
   </g>
   <g id="patch_4">
    <path d="M 777.6 384.48 
L 777.6 51.84 
" style="fill: none; stroke: #000000; stroke-width: 0.8; stroke-linejoin: miter; stroke-linecap: square"/>
   </g>
   <g id="patch_5">
    <path d="M 108 384.48 
L 777.6 384.48 
" style="fill: none; stroke: #000000; stroke-width: 0.8; stroke-linejoin: miter; stroke-linecap: square"/>
   </g>
   <g id="patch_6">
    <path d="M 108 51.84 
L 777.6 51.84 
" style="fill: none; stroke: #000000; stroke-width: 0.8; stroke-linejoin: miter; stroke-linecap: square"/>
   </g>
   <g id="text_13">
    <!-- INPC -->
    <g transform="translate(424.069531 45.84) scale(0.14 -0.14)">
     <defs>
      <path id="DejaVuSans-Bold-49" d="M 588 4666 
L 1791 4666 
L 1791 0 
L 588 0 
L 588 4666 
z
" transform="scale(0.015625)"/>
      <path id="DejaVuSans-Bold-4e" d="M 588 4666 
L 1931 4666 
L 3628 1466 
L 3628 4666 
L 4769 4666 
L 4769 0 
L 3425 0 
L 1728 3200 
L 1728 0 
L 588 0 
L 588 4666 
z
" transform="scale(0.015625)"/>
      <path id="DejaVuSans-Bold-50" d="M 588 4666 
L 2584 4666 
Q 3475 4666 3951 4270 
Q 4428 3875 4428 3144 
Q 4428 2409 3951 2014 
Q 3475 1619 2584 1619 
L 1791 1619 
L 1791 0 
L 588 0 
L 588 4666 
z
M 1791 3794 
L 1791 2491 
L 2456 2491 
Q 2806 2491 2997 2661 
Q 3188 2831 3188 3144 
Q 3188 3456 2997 3625 
Q 2806 3794 2456 3794 
L 1791 3794 
z
" transform="scale(0.015625)"/>
      <path id="DejaVuSans-Bold-43" d="M 4288 256 
Q 3956 84 3597 -3 
Q 3238 -91 2847 -91 
Q 1681 -91 1000 561 
Q 319 1213 319 2328 
Q 319 3447 1000 4098 
Q 1681 4750 2847 4750 
Q 3238 4750 3597 4662 
Q 3956 4575 4288 4403 
L 4288 3438 
Q 3953 3666 3628 3772 
Q 3303 3878 2944 3878 
Q 2300 3878 1931 3465 
Q 1563 3053 1563 2328 
Q 1563 1606 1931 1193 
Q 2300 781 2944 781 
Q 3303 781 3628 887 
Q 3953 994 4288 1222 
L 4288 256 
z
" transform="scale(0.015625)"/>
     </defs>
     <use xlink:href="#DejaVuSans-Bold-49"/>
     <use xlink:href="#DejaVuSans-Bold-4e" transform="translate(37.207031 0)"/>
     <use xlink:href="#DejaVuSans-Bold-50" transform="translate(120.898438 0)"/>
     <use xlink:href="#DejaVuSans-Bold-43" transform="translate(194.189453 0)"/>
    </g>
   </g>
   <g id="legend_1">
    <g id="patch_7">
     <path d="M 113.6 93.4675 
L 222.8375 93.4675 
Q 224.4375 93.4675 224.4375 91.8675 
L 224.4375 57.44 
Q 224.4375 55.84 222.8375 55.84 
L 113.6 55.84 
Q 112 55.84 112 57.44 
L 112 91.8675 
Q 112 93.4675 113.6 93.4675 
z
" style="fill: #ffffff; opacity: 0.8; stroke: #cccccc; stroke-linejoin: miter"/>
    </g>
    <g id="line2d_28">
     <path d="M 115.2 62.31875 
L 123.2 62.31875 
L 131.2 62.31875 
" style="fill: none; stroke: #a6cee3; stroke-width: 1.5; stroke-linecap: square"/>
    </g>
    <g id="text_14">
     <!-- Variación mensual -->
     <g transform="translate(137.6 65.11875) scale(0.08 -0.08)">
      <defs>
       <path id="DejaVuSans-56" d="M 1831 0 
L 50 4666 
L 709 4666 
L 2188 738 
L 3669 4666 
L 4325 4666 
L 2547 0 
L 1831 0 
z
" transform="scale(0.015625)"/>
       <path id="DejaVuSans-61" d="M 2194 1759 
Q 1497 1759 1228 1600 
Q 959 1441 959 1056 
Q 959 750 1161 570 
Q 1363 391 1709 391 
Q 2188 391 2477 730 
Q 2766 1069 2766 1631 
L 2766 1759 
L 2194 1759 
z
M 3341 1997 
L 3341 0 
L 2766 0 
L 2766 531 
Q 2569 213 2275 61 
Q 1981 -91 1556 -91 
Q 1019 -91 701 211 
Q 384 513 384 1019 
Q 384 1609 779 1909 
Q 1175 2209 1959 2209 
L 2766 2209 
L 2766 2266 
Q 2766 2663 2505 2880 
Q 2244 3097 1772 3097 
Q 1472 3097 1187 3025 
Q 903 2953 641 2809 
L 641 3341 
Q 956 3463 1253 3523 
Q 1550 3584 1831 3584 
Q 2591 3584 2966 3190 
Q 3341 2797 3341 1997 
z
" transform="scale(0.015625)"/>
       <path id="DejaVuSans-72" d="M 2631 2963 
Q 2534 3019 2420 3045 
Q 2306 3072 2169 3072 
Q 1681 3072 1420 2755 
Q 1159 2438 1159 1844 
L 1159 0 
L 581 0 
L 581 3500 
L 1159 3500 
L 1159 2956 
Q 1341 3275 1631 3429 
Q 1922 3584 2338 3584 
Q 2397 3584 2469 3576 
Q 2541 3569 2628 3553 
L 2631 2963 
z
" transform="scale(0.015625)"/>
       <path id="DejaVuSans-69" d="M 603 3500 
L 1178 3500 
L 1178 0 
L 603 0 
L 603 3500 
z
M 603 4863 
L 1178 4863 
L 1178 4134 
L 603 4134 
L 603 4863 
z
" transform="scale(0.015625)"/>
       <path id="DejaVuSans-63" d="M 3122 3366 
L 3122 2828 
Q 2878 2963 2633 3030 
Q 2388 3097 2138 3097 
Q 1578 3097 1268 2742 
Q 959 2388 959 1747 
Q 959 1106 1268 751 
Q 1578 397 2138 397 
Q 2388 397 2633 464 
Q 2878 531 3122 666 
L 3122 134 
Q 2881 22 2623 -34 
Q 2366 -91 2075 -91 
Q 1284 -91 818 406 
Q 353 903 353 1747 
Q 353 2603 823 3093 
Q 1294 3584 2113 3584 
Q 2378 3584 2631 3529 
Q 2884 3475 3122 3366 
z
" transform="scale(0.015625)"/>
       <path id="DejaVuSans-f3" d="M 1959 3097 
Q 1497 3097 1228 2736 
Q 959 2375 959 1747 
Q 959 1119 1226 758 
Q 1494 397 1959 397 
Q 2419 397 2687 759 
Q 2956 1122 2956 1747 
Q 2956 2369 2687 2733 
Q 2419 3097 1959 3097 
z
M 1959 3584 
Q 2709 3584 3137 3096 
Q 3566 2609 3566 1747 
Q 3566 888 3137 398 
Q 2709 -91 1959 -91 
Q 1206 -91 779 398 
Q 353 888 353 1747 
Q 353 2609 779 3096 
Q 1206 3584 1959 3584 
z
M 2394 5119 
L 3016 5119 
L 1997 3944 
L 1519 3944 
L 2394 5119 
z
" transform="scale(0.015625)"/>
       <path id="DejaVuSans-6e" d="M 3513 2113 
L 3513 0 
L 2938 0 
L 2938 2094 
Q 2938 2591 2744 2837 
Q 2550 3084 2163 3084 
Q 1697 3084 1428 2787 
Q 1159 2491 1159 1978 
L 1159 0 
L 581 0 
L 581 3500 
L 1159 3500 
L 1159 2956 
Q 1366 3272 1645 3428 
Q 1925 3584 2291 3584 
Q 2894 3584 3203 3211 
Q 3513 2838 3513 2113 
z
" transform="scale(0.015625)"/>
       <path id="DejaVuSans-20" transform="scale(0.015625)"/>
       <path id="DejaVuSans-6d" d="M 3328 2828 
Q 3544 3216 3844 3400 
Q 4144 3584 4550 3584 
Q 5097 3584 5394 3201 
Q 5691 2819 5691 2113 
L 5691 0 
L 5113 0 
L 5113 2094 
Q 5113 2597 4934 2840 
Q 4756 3084 4391 3084 
Q 3944 3084 3684 2787 
Q 3425 2491 3425 1978 
L 3425 0 
L 2847 0 
L 2847 2094 
Q 2847 2600 2669 2842 
Q 2491 3084 2119 3084 
Q 1678 3084 1418 2786 
Q 1159 2488 1159 1978 
L 1159 0 
L 581 0 
L 581 3500 
L 1159 3500 
L 1159 2956 
Q 1356 3278 1631 3431 
Q 1906 3584 2284 3584 
Q 2666 3584 2933 3390 
Q 3200 3197 3328 2828 
z
" transform="scale(0.015625)"/>
       <path id="DejaVuSans-65" d="M 3597 1894 
L 3597 1613 
L 953 1613 
Q 991 1019 1311 708 
Q 1631 397 2203 397 
Q 2534 397 2845 478 
Q 3156 559 3463 722 
L 3463 178 
Q 3153 47 2828 -22 
Q 2503 -91 2169 -91 
Q 1331 -91 842 396 
Q 353 884 353 1716 
Q 353 2575 817 3079 
Q 1281 3584 2069 3584 
Q 2775 3584 3186 3129 
Q 3597 2675 3597 1894 
z
M 3022 2063 
Q 3016 2534 2758 2815 
Q 2500 3097 2075 3097 
Q 1594 3097 1305 2825 
Q 1016 2553 972 2059 
L 3022 2063 
z
" transform="scale(0.015625)"/>
       <path id="DejaVuSans-73" d="M 2834 3397 
L 2834 2853 
Q 2591 2978 2328 3040 
Q 2066 3103 1784 3103 
Q 1356 3103 1142 2972 
Q 928 2841 928 2578 
Q 928 2378 1081 2264 
Q 1234 2150 1697 2047 
L 1894 2003 
Q 2506 1872 2764 1633 
Q 3022 1394 3022 966 
Q 3022 478 2636 193 
Q 2250 -91 1575 -91 
Q 1294 -91 989 -36 
Q 684 19 347 128 
L 347 722 
Q 666 556 975 473 
Q 1284 391 1588 391 
Q 1994 391 2212 530 
Q 2431 669 2431 922 
Q 2431 1156 2273 1281 
Q 2116 1406 1581 1522 
L 1381 1569 
Q 847 1681 609 1914 
Q 372 2147 372 2553 
Q 372 3047 722 3315 
Q 1072 3584 1716 3584 
Q 2034 3584 2315 3537 
Q 2597 3491 2834 3397 
z
" transform="scale(0.015625)"/>
       <path id="DejaVuSans-75" d="M 544 1381 
L 544 3500 
L 1119 3500 
L 1119 1403 
Q 1119 906 1312 657 
Q 1506 409 1894 409 
Q 2359 409 2629 706 
Q 2900 1003 2900 1516 
L 2900 3500 
L 3475 3500 
L 3475 0 
L 2900 0 
L 2900 538 
Q 2691 219 2414 64 
Q 2138 -91 1772 -91 
Q 1169 -91 856 284 
Q 544 659 544 1381 
z
M 1991 3584 
L 1991 3584 
z
" transform="scale(0.015625)"/>
       <path id="DejaVuSans-6c" d="M 603 4863 
L 1178 4863 
L 1178 0 
L 603 0 
L 603 4863 
z
" transform="scale(0.015625)"/>
      </defs>
      <use xlink:href="#DejaVuSans-56"/>
      <use xlink:href="#DejaVuSans-61" transform="translate(60.658203 0)"/>
      <use xlink:href="#DejaVuSans-72" transform="translate(121.9375 0)"/>
      <use xlink:href="#DejaVuSans-69" transform="translate(163.050781 0)"/>
      <use xlink:href="#DejaVuSans-61" transform="translate(190.833984 0)"/>
      <use xlink:href="#DejaVuSans-63" transform="translate(252.113281 0)"/>
      <use xlink:href="#DejaVuSans-69" transform="translate(307.09375 0)"/>
      <use xlink:href="#DejaVuSans-f3" transform="translate(334.876953 0)"/>
      <use xlink:href="#DejaVuSans-6e" transform="translate(396.058594 0)"/>
      <use xlink:href="#DejaVuSans-20" transform="translate(459.4375 0)"/>
      <use xlink:href="#DejaVuSans-6d" transform="translate(491.224609 0)"/>
      <use xlink:href="#DejaVuSans-65" transform="translate(588.636719 0)"/>
      <use xlink:href="#DejaVuSans-6e" transform="translate(650.160156 0)"/>
      <use xlink:href="#DejaVuSans-73" transform="translate(713.539062 0)"/>
      <use xlink:href="#DejaVuSans-75" transform="translate(765.638672 0)"/>
      <use xlink:href="#DejaVuSans-61" transform="translate(829.017578 0)"/>
      <use xlink:href="#DejaVuSans-6c" transform="translate(890.296875 0)"/>
     </g>
    </g>
    <g id="line2d_29">
     <path d="M 115.2 74.06125 
L 123.2 74.06125 
L 131.2 74.06125 
" style="fill: none; stroke: #1f78b4; stroke-width: 1.5; stroke-linecap: square"/>
    </g>
    <g id="text_15">
     <!-- Variación acumulada -->
     <g transform="translate(137.6 76.86125) scale(0.08 -0.08)">
      <defs>
       <path id="DejaVuSans-64" d="M 2906 2969 
L 2906 4863 
L 3481 4863 
L 3481 0 
L 2906 0 
L 2906 525 
Q 2725 213 2448 61 
Q 2172 -91 1784 -91 
Q 1150 -91 751 415 
Q 353 922 353 1747 
Q 353 2572 751 3078 
Q 1150 3584 1784 3584 
Q 2172 3584 2448 3432 
Q 2725 3281 2906 2969 
z
M 947 1747 
Q 947 1113 1208 752 
Q 1469 391 1925 391 
Q 2381 391 2643 752 
Q 2906 1113 2906 1747 
Q 2906 2381 2643 2742 
Q 2381 3103 1925 3103 
Q 1469 3103 1208 2742 
Q 947 2381 947 1747 
z
" transform="scale(0.015625)"/>
      </defs>
      <use xlink:href="#DejaVuSans-56"/>
      <use xlink:href="#DejaVuSans-61" transform="translate(60.658203 0)"/>
      <use xlink:href="#DejaVuSans-72" transform="translate(121.9375 0)"/>
      <use xlink:href="#DejaVuSans-69" transform="translate(163.050781 0)"/>
      <use xlink:href="#DejaVuSans-61" transform="translate(190.833984 0)"/>
      <use xlink:href="#DejaVuSans-63" transform="translate(252.113281 0)"/>
      <use xlink:href="#DejaVuSans-69" transform="translate(307.09375 0)"/>
      <use xlink:href="#DejaVuSans-f3" transform="translate(334.876953 0)"/>
      <use xlink:href="#DejaVuSans-6e" transform="translate(396.058594 0)"/>
      <use xlink:href="#DejaVuSans-20" transform="translate(459.4375 0)"/>
      <use xlink:href="#DejaVuSans-61" transform="translate(491.224609 0)"/>
      <use xlink:href="#DejaVuSans-63" transform="translate(552.503906 0)"/>
      <use xlink:href="#DejaVuSans-75" transform="translate(607.484375 0)"/>
      <use xlink:href="#DejaVuSans-6d" transform="translate(670.863281 0)"/>
      <use xlink:href="#DejaVuSans-75" transform="translate(768.275391 0)"/>
      <use xlink:href="#DejaVuSans-6c" transform="translate(831.654297 0)"/>
      <use xlink:href="#DejaVuSans-61" transform="translate(859.4375 0)"/>
      <use xlink:href="#DejaVuSans-64" transform="translate(920.716797 0)"/>
      <use xlink:href="#DejaVuSans-61" transform="translate(984.193359 0)"/>
     </g>
    </g>
    <g id="line2d_30">
     <path d="M 115.2 85.80375 
L 123.2 85.80375 
L 131.2 85.80375 
" style="fill: none; stroke: #b2df8a; stroke-width: 1.5; stroke-linecap: square"/>
    </g>
    <g id="text_16">
     <!-- variación anual -->
     <g transform="translate(137.6 88.60375) scale(0.08 -0.08)">
      <defs>
       <path id="DejaVuSans-76" d="M 191 3500 
L 800 3500 
L 1894 563 
L 2988 3500 
L 3597 3500 
L 2284 0 
L 1503 0 
L 191 3500 
z
" transform="scale(0.015625)"/>
      </defs>
      <use xlink:href="#DejaVuSans-76"/>
      <use xlink:href="#DejaVuSans-61" transform="translate(59.179688 0)"/>
      <use xlink:href="#DejaVuSans-72" transform="translate(120.458984 0)"/>
      <use xlink:href="#DejaVuSans-69" transform="translate(161.572266 0)"/>
      <use xlink:href="#DejaVuSans-61" transform="translate(189.355469 0)"/>
      <use xlink:href="#DejaVuSans-63" transform="translate(250.634766 0)"/>
      <use xlink:href="#DejaVuSans-69" transform="translate(305.615234 0)"/>
      <use xlink:href="#DejaVuSans-f3" transform="translate(333.398438 0)"/>
      <use xlink:href="#DejaVuSans-6e" transform="translate(394.580078 0)"/>
      <use xlink:href="#DejaVuSans-20" transform="translate(457.958984 0)"/>
      <use xlink:href="#DejaVuSans-61" transform="translate(489.746094 0)"/>
      <use xlink:href="#DejaVuSans-6e" transform="translate(551.025391 0)"/>
      <use xlink:href="#DejaVuSans-75" transform="translate(614.404297 0)"/>
      <use xlink:href="#DejaVuSans-61" transform="translate(677.783203 0)"/>
      <use xlink:href="#DejaVuSans-6c" transform="translate(739.0625 0)"/>
     </g>
    </g>
   </g>
  </g>
 </g>
 <defs>
  <clipPath id="p5098caa0e2">
   <rect x="108" y="51.84" width="669.6" height="332.64"/>
  </clipPath>
 </defs>
</svg>
