<?xml version="1.0" encoding="utf-8" standalone="no"?>
<!DOCTYPE svg PUBLIC "-//W3C//DTD SVG 1.1//EN"
  "http://www.w3.org/Graphics/SVG/1.1/DTD/svg11.dtd">
<svg xmlns:xlink="http://www.w3.org/1999/xlink" width="864pt" height="432pt" viewBox="0 0 864 432" xmlns="http://www.w3.org/2000/svg" version="1.1">
 <metadata>
  <rdf:RDF xmlns:dc="http://purl.org/dc/elements/1.1/" xmlns:cc="http://creativecommons.org/ns#" xmlns:rdf="http://www.w3.org/1999/02/22-rdf-syntax-ns#">
   <cc:Work>
    <dc:type rdf:resource="http://purl.org/dc/dcmitype/StillImage"/>
    <dc:date>2025-02-23T07:22:33.493674</dc:date>
    <dc:format>image/svg+xml</dc:format>
    <dc:creator>
     <cc:Agent>
      <dc:title>Matplotlib v3.10.0, https://matplotlib.org/</dc:title>
     </cc:Agent>
    </dc:creator>
   </cc:Work>
  </rdf:RDF>
 </metadata>
 <defs>
  <style type="text/css">*{stroke-linejoin: round; stroke-linecap: butt}</style>
 </defs>
 <g id="figure_1">
  <g id="patch_1">
   <path d="M 0 432 
L 864 432 
L 864 0 
L 0 0 
z
" style="fill: #ffffff"/>
  </g>
  <g id="axes_1">
   <g id="patch_2">
    <path d="M 108 384.48 
L 777.6 384.48 
L 777.6 51.84 
L 108 51.84 
z
" style="fill: #ffffff"/>
   </g>
   <g id="matplotlib.axis_1">
    <g id="xtick_1">
     <g id="line2d_1">
      <path d="M 176.677083 384.48 
L 176.677083 51.84 
" clip-path="url(#p348619a034)" style="fill: none; stroke-dasharray: 2.96,1.28; stroke-dashoffset: 0; stroke: #b0b0b0; stroke-opacity: 0.5; stroke-width: 0.8"/>
     </g>
     <g id="line2d_2">
      <defs>
       <path id="m6aca93bd34" d="M 0 0 
L 0 3.5 
" style="stroke: #000000; stroke-width: 0.8"/>
      </defs>
      <g>
       <use xlink:href="#m6aca93bd34" x="176.677083" y="384.48" style="stroke: #000000; stroke-width: 0.8"/>
      </g>
     </g>
     <g id="text_1">
      <!-- 2012 -->
      <g transform="translate(163.952083 399.078438) scale(0.1 -0.1)">
       <defs>
        <path id="DejaVuSans-32" d="M 1228 531 
L 3431 531 
L 3431 0 
L 469 0 
L 469 531 
Q 828 903 1448 1529 
Q 2069 2156 2228 2338 
Q 2531 2678 2651 2914 
Q 2772 3150 2772 3378 
Q 2772 3750 2511 3984 
Q 2250 4219 1831 4219 
Q 1534 4219 1204 4116 
Q 875 4013 500 3803 
L 500 4441 
Q 881 4594 1212 4672 
Q 1544 4750 1819 4750 
Q 2544 4750 2975 4387 
Q 3406 4025 3406 3419 
Q 3406 3131 3298 2873 
Q 3191 2616 2906 2266 
Q 2828 2175 2409 1742 
Q 1991 1309 1228 531 
z
" transform="scale(0.015625)"/>
        <path id="DejaVuSans-30" d="M 2034 4250 
Q 1547 4250 1301 3770 
Q 1056 3291 1056 2328 
Q 1056 1369 1301 889 
Q 1547 409 2034 409 
Q 2525 409 2770 889 
Q 3016 1369 3016 2328 
Q 3016 3291 2770 3770 
Q 2525 4250 2034 4250 
z
M 2034 4750 
Q 2819 4750 3233 4129 
Q 3647 3509 3647 2328 
Q 3647 1150 3233 529 
Q 2819 -91 2034 -91 
Q 1250 -91 836 529 
Q 422 1150 422 2328 
Q 422 3509 836 4129 
Q 1250 4750 2034 4750 
z
" transform="scale(0.015625)"/>
        <path id="DejaVuSans-31" d="M 794 531 
L 1825 531 
L 1825 4091 
L 703 3866 
L 703 4441 
L 1819 4666 
L 2450 4666 
L 2450 531 
L 3481 531 
L 3481 0 
L 794 0 
L 794 531 
z
" transform="scale(0.015625)"/>
       </defs>
       <use xlink:href="#DejaVuSans-32"/>
       <use xlink:href="#DejaVuSans-30" transform="translate(63.623047 0)"/>
       <use xlink:href="#DejaVuSans-31" transform="translate(127.246094 0)"/>
       <use xlink:href="#DejaVuSans-32" transform="translate(190.869141 0)"/>
      </g>
     </g>
    </g>
    <g id="xtick_2">
     <g id="line2d_3">
      <path d="M 268.029914 384.48 
L 268.029914 51.84 
" clip-path="url(#p348619a034)" style="fill: none; stroke-dasharray: 2.96,1.28; stroke-dashoffset: 0; stroke: #b0b0b0; stroke-opacity: 0.5; stroke-width: 0.8"/>
     </g>
     <g id="line2d_4">
      <g>
       <use xlink:href="#m6aca93bd34" x="268.029914" y="384.48" style="stroke: #000000; stroke-width: 0.8"/>
      </g>
     </g>
     <g id="text_2">
      <!-- 2014 -->
      <g transform="translate(255.304914 399.078438) scale(0.1 -0.1)">
       <defs>
        <path id="DejaVuSans-34" d="M 2419 4116 
L 825 1625 
L 2419 1625 
L 2419 4116 
z
M 2253 4666 
L 3047 4666 
L 3047 1625 
L 3713 1625 
L 3713 1100 
L 3047 1100 
L 3047 0 
L 2419 0 
L 2419 1100 
L 313 1100 
L 313 1709 
L 2253 4666 
z
" transform="scale(0.015625)"/>
       </defs>
       <use xlink:href="#DejaVuSans-32"/>
       <use xlink:href="#DejaVuSans-30" transform="translate(63.623047 0)"/>
       <use xlink:href="#DejaVuSans-31" transform="translate(127.246094 0)"/>
       <use xlink:href="#DejaVuSans-34" transform="translate(190.869141 0)"/>
      </g>
     </g>
    </g>
    <g id="xtick_3">
     <g id="line2d_5">
      <path d="M 359.257774 384.48 
L 359.257774 51.84 
" clip-path="url(#p348619a034)" style="fill: none; stroke-dasharray: 2.96,1.28; stroke-dashoffset: 0; stroke: #b0b0b0; stroke-opacity: 0.5; stroke-width: 0.8"/>
     </g>
     <g id="line2d_6">
      <g>
       <use xlink:href="#m6aca93bd34" x="359.257774" y="384.48" style="stroke: #000000; stroke-width: 0.8"/>
      </g>
     </g>
     <g id="text_3">
      <!-- 2016 -->
      <g transform="translate(346.532774 399.078438) scale(0.1 -0.1)">
       <defs>
        <path id="DejaVuSans-36" d="M 2113 2584 
Q 1688 2584 1439 2293 
Q 1191 2003 1191 1497 
Q 1191 994 1439 701 
Q 1688 409 2113 409 
Q 2538 409 2786 701 
Q 3034 994 3034 1497 
Q 3034 2003 2786 2293 
Q 2538 2584 2113 2584 
z
M 3366 4563 
L 3366 3988 
Q 3128 4100 2886 4159 
Q 2644 4219 2406 4219 
Q 1781 4219 1451 3797 
Q 1122 3375 1075 2522 
Q 1259 2794 1537 2939 
Q 1816 3084 2150 3084 
Q 2853 3084 3261 2657 
Q 3669 2231 3669 1497 
Q 3669 778 3244 343 
Q 2819 -91 2113 -91 
Q 1303 -91 875 529 
Q 447 1150 447 2328 
Q 447 3434 972 4092 
Q 1497 4750 2381 4750 
Q 2619 4750 2861 4703 
Q 3103 4656 3366 4563 
z
" transform="scale(0.015625)"/>
       </defs>
       <use xlink:href="#DejaVuSans-32"/>
       <use xlink:href="#DejaVuSans-30" transform="translate(63.623047 0)"/>
       <use xlink:href="#DejaVuSans-31" transform="translate(127.246094 0)"/>
       <use xlink:href="#DejaVuSans-36" transform="translate(190.869141 0)"/>
      </g>
     </g>
    </g>
    <g id="xtick_4">
     <g id="line2d_7">
      <path d="M 450.610605 384.48 
L 450.610605 51.84 
" clip-path="url(#p348619a034)" style="fill: none; stroke-dasharray: 2.96,1.28; stroke-dashoffset: 0; stroke: #b0b0b0; stroke-opacity: 0.5; stroke-width: 0.8"/>
     </g>
     <g id="line2d_8">
      <g>
       <use xlink:href="#m6aca93bd34" x="450.610605" y="384.48" style="stroke: #000000; stroke-width: 0.8"/>
      </g>
     </g>
     <g id="text_4">
      <!-- 2018 -->
      <g transform="translate(437.885605 399.078438) scale(0.1 -0.1)">
       <defs>
        <path id="DejaVuSans-38" d="M 2034 2216 
Q 1584 2216 1326 1975 
Q 1069 1734 1069 1313 
Q 1069 891 1326 650 
Q 1584 409 2034 409 
Q 2484 409 2743 651 
Q 3003 894 3003 1313 
Q 3003 1734 2745 1975 
Q 2488 2216 2034 2216 
z
M 1403 2484 
Q 997 2584 770 2862 
Q 544 3141 544 3541 
Q 544 4100 942 4425 
Q 1341 4750 2034 4750 
Q 2731 4750 3128 4425 
Q 3525 4100 3525 3541 
Q 3525 3141 3298 2862 
Q 3072 2584 2669 2484 
Q 3125 2378 3379 2068 
Q 3634 1759 3634 1313 
Q 3634 634 3220 271 
Q 2806 -91 2034 -91 
Q 1263 -91 848 271 
Q 434 634 434 1313 
Q 434 1759 690 2068 
Q 947 2378 1403 2484 
z
M 1172 3481 
Q 1172 3119 1398 2916 
Q 1625 2713 2034 2713 
Q 2441 2713 2670 2916 
Q 2900 3119 2900 3481 
Q 2900 3844 2670 4047 
Q 2441 4250 2034 4250 
Q 1625 4250 1398 4047 
Q 1172 3844 1172 3481 
z
" transform="scale(0.015625)"/>
       </defs>
       <use xlink:href="#DejaVuSans-32"/>
       <use xlink:href="#DejaVuSans-30" transform="translate(63.623047 0)"/>
       <use xlink:href="#DejaVuSans-31" transform="translate(127.246094 0)"/>
       <use xlink:href="#DejaVuSans-38" transform="translate(190.869141 0)"/>
      </g>
     </g>
    </g>
    <g id="xtick_5">
     <g id="line2d_9">
      <path d="M 541.838465 384.48 
L 541.838465 51.84 
" clip-path="url(#p348619a034)" style="fill: none; stroke-dasharray: 2.96,1.28; stroke-dashoffset: 0; stroke: #b0b0b0; stroke-opacity: 0.5; stroke-width: 0.8"/>
     </g>
     <g id="line2d_10">
      <g>
       <use xlink:href="#m6aca93bd34" x="541.838465" y="384.48" style="stroke: #000000; stroke-width: 0.8"/>
      </g>
     </g>
     <g id="text_5">
      <!-- 2020 -->
      <g transform="translate(529.113465 399.078438) scale(0.1 -0.1)">
       <use xlink:href="#DejaVuSans-32"/>
       <use xlink:href="#DejaVuSans-30" transform="translate(63.623047 0)"/>
       <use xlink:href="#DejaVuSans-32" transform="translate(127.246094 0)"/>
       <use xlink:href="#DejaVuSans-30" transform="translate(190.869141 0)"/>
      </g>
     </g>
    </g>
    <g id="xtick_6">
     <g id="line2d_11">
      <path d="M 633.191295 384.48 
L 633.191295 51.84 
" clip-path="url(#p348619a034)" style="fill: none; stroke-dasharray: 2.96,1.28; stroke-dashoffset: 0; stroke: #b0b0b0; stroke-opacity: 0.5; stroke-width: 0.8"/>
     </g>
     <g id="line2d_12">
      <g>
       <use xlink:href="#m6aca93bd34" x="633.191295" y="384.48" style="stroke: #000000; stroke-width: 0.8"/>
      </g>
     </g>
     <g id="text_6">
      <!-- 2022 -->
      <g transform="translate(620.466295 399.078438) scale(0.1 -0.1)">
       <use xlink:href="#DejaVuSans-32"/>
       <use xlink:href="#DejaVuSans-30" transform="translate(63.623047 0)"/>
       <use xlink:href="#DejaVuSans-32" transform="translate(127.246094 0)"/>
       <use xlink:href="#DejaVuSans-32" transform="translate(190.869141 0)"/>
      </g>
     </g>
    </g>
    <g id="xtick_7">
     <g id="line2d_13">
      <path d="M 724.419156 384.48 
L 724.419156 51.84 
" clip-path="url(#p348619a034)" style="fill: none; stroke-dasharray: 2.96,1.28; stroke-dashoffset: 0; stroke: #b0b0b0; stroke-opacity: 0.5; stroke-width: 0.8"/>
     </g>
     <g id="line2d_14">
      <g>
       <use xlink:href="#m6aca93bd34" x="724.419156" y="384.48" style="stroke: #000000; stroke-width: 0.8"/>
      </g>
     </g>
     <g id="text_7">
      <!-- 2024 -->
      <g transform="translate(711.694156 399.078438) scale(0.1 -0.1)">
       <use xlink:href="#DejaVuSans-32"/>
       <use xlink:href="#DejaVuSans-30" transform="translate(63.623047 0)"/>
       <use xlink:href="#DejaVuSans-32" transform="translate(127.246094 0)"/>
       <use xlink:href="#DejaVuSans-34" transform="translate(190.869141 0)"/>
      </g>
     </g>
    </g>
   </g>
   <g id="matplotlib.axis_2">
    <g id="ytick_1">
     <g id="line2d_15">
      <path d="M 108 356.118426 
L 777.6 356.118426 
" clip-path="url(#p348619a034)" style="fill: none; stroke-dasharray: 2.96,1.28; stroke-dashoffset: 0; stroke: #b0b0b0; stroke-opacity: 0.5; stroke-width: 0.8"/>
     </g>
     <g id="line2d_16">
      <defs>
       <path id="m03f85d77c4" d="M 0 0 
L -3.5 0 
" style="stroke: #000000; stroke-width: 0.8"/>
      </defs>
      <g>
       <use xlink:href="#m03f85d77c4" x="108" y="356.118426" style="stroke: #000000; stroke-width: 0.8"/>
      </g>
     </g>
     <g id="text_8">
      <!-- 0.2 -->
      <g transform="translate(85.096875 359.917645) scale(0.1 -0.1)">
       <defs>
        <path id="DejaVuSans-2e" d="M 684 794 
L 1344 794 
L 1344 0 
L 684 0 
L 684 794 
z
" transform="scale(0.015625)"/>
       </defs>
       <use xlink:href="#DejaVuSans-30"/>
       <use xlink:href="#DejaVuSans-2e" transform="translate(63.623047 0)"/>
       <use xlink:href="#DejaVuSans-32" transform="translate(95.410156 0)"/>
      </g>
     </g>
    </g>
    <g id="ytick_2">
     <g id="line2d_17">
      <path d="M 108 317.546671 
L 777.6 317.546671 
" clip-path="url(#p348619a034)" style="fill: none; stroke-dasharray: 2.96,1.28; stroke-dashoffset: 0; stroke: #b0b0b0; stroke-opacity: 0.5; stroke-width: 0.8"/>
     </g>
     <g id="line2d_18">
      <g>
       <use xlink:href="#m03f85d77c4" x="108" y="317.546671" style="stroke: #000000; stroke-width: 0.8"/>
      </g>
     </g>
     <g id="text_9">
      <!-- 0.4 -->
      <g transform="translate(85.096875 321.34589) scale(0.1 -0.1)">
       <use xlink:href="#DejaVuSans-30"/>
       <use xlink:href="#DejaVuSans-2e" transform="translate(63.623047 0)"/>
       <use xlink:href="#DejaVuSans-34" transform="translate(95.410156 0)"/>
      </g>
     </g>
    </g>
    <g id="ytick_3">
     <g id="line2d_19">
      <path d="M 108 278.974916 
L 777.6 278.974916 
" clip-path="url(#p348619a034)" style="fill: none; stroke-dasharray: 2.96,1.28; stroke-dashoffset: 0; stroke: #b0b0b0; stroke-opacity: 0.5; stroke-width: 0.8"/>
     </g>
     <g id="line2d_20">
      <g>
       <use xlink:href="#m03f85d77c4" x="108" y="278.974916" style="stroke: #000000; stroke-width: 0.8"/>
      </g>
     </g>
     <g id="text_10">
      <!-- 0.6 -->
      <g transform="translate(85.096875 282.774135) scale(0.1 -0.1)">
       <use xlink:href="#DejaVuSans-30"/>
       <use xlink:href="#DejaVuSans-2e" transform="translate(63.623047 0)"/>
       <use xlink:href="#DejaVuSans-36" transform="translate(95.410156 0)"/>
      </g>
     </g>
    </g>
    <g id="ytick_4">
     <g id="line2d_21">
      <path d="M 108 240.403161 
L 777.6 240.403161 
" clip-path="url(#p348619a034)" style="fill: none; stroke-dasharray: 2.96,1.28; stroke-dashoffset: 0; stroke: #b0b0b0; stroke-opacity: 0.5; stroke-width: 0.8"/>
     </g>
     <g id="line2d_22">
      <g>
       <use xlink:href="#m03f85d77c4" x="108" y="240.403161" style="stroke: #000000; stroke-width: 0.8"/>
      </g>
     </g>
     <g id="text_11">
      <!-- 0.8 -->
      <g transform="translate(85.096875 244.20238) scale(0.1 -0.1)">
       <use xlink:href="#DejaVuSans-30"/>
       <use xlink:href="#DejaVuSans-2e" transform="translate(63.623047 0)"/>
       <use xlink:href="#DejaVuSans-38" transform="translate(95.410156 0)"/>
      </g>
     </g>
    </g>
    <g id="ytick_5">
     <g id="line2d_23">
      <path d="M 108 201.831406 
L 777.6 201.831406 
" clip-path="url(#p348619a034)" style="fill: none; stroke-dasharray: 2.96,1.28; stroke-dashoffset: 0; stroke: #b0b0b0; stroke-opacity: 0.5; stroke-width: 0.8"/>
     </g>
     <g id="line2d_24">
      <g>
       <use xlink:href="#m03f85d77c4" x="108" y="201.831406" style="stroke: #000000; stroke-width: 0.8"/>
      </g>
     </g>
     <g id="text_12">
      <!-- 1.0 -->
      <g transform="translate(85.096875 205.630625) scale(0.1 -0.1)">
       <use xlink:href="#DejaVuSans-31"/>
       <use xlink:href="#DejaVuSans-2e" transform="translate(63.623047 0)"/>
       <use xlink:href="#DejaVuSans-30" transform="translate(95.410156 0)"/>
      </g>
     </g>
    </g>
    <g id="ytick_6">
     <g id="line2d_25">
      <path d="M 108 163.259651 
L 777.6 163.259651 
" clip-path="url(#p348619a034)" style="fill: none; stroke-dasharray: 2.96,1.28; stroke-dashoffset: 0; stroke: #b0b0b0; stroke-opacity: 0.5; stroke-width: 0.8"/>
     </g>
     <g id="line2d_26">
      <g>
       <use xlink:href="#m03f85d77c4" x="108" y="163.259651" style="stroke: #000000; stroke-width: 0.8"/>
      </g>
     </g>
     <g id="text_13">
      <!-- 1.2 -->
      <g transform="translate(85.096875 167.05887) scale(0.1 -0.1)">
       <use xlink:href="#DejaVuSans-31"/>
       <use xlink:href="#DejaVuSans-2e" transform="translate(63.623047 0)"/>
       <use xlink:href="#DejaVuSans-32" transform="translate(95.410156 0)"/>
      </g>
     </g>
    </g>
    <g id="ytick_7">
     <g id="line2d_27">
      <path d="M 108 124.687896 
L 777.6 124.687896 
" clip-path="url(#p348619a034)" style="fill: none; stroke-dasharray: 2.96,1.28; stroke-dashoffset: 0; stroke: #b0b0b0; stroke-opacity: 0.5; stroke-width: 0.8"/>
     </g>
     <g id="line2d_28">
      <g>
       <use xlink:href="#m03f85d77c4" x="108" y="124.687896" style="stroke: #000000; stroke-width: 0.8"/>
      </g>
     </g>
     <g id="text_14">
      <!-- 1.4 -->
      <g transform="translate(85.096875 128.487115) scale(0.1 -0.1)">
       <use xlink:href="#DejaVuSans-31"/>
       <use xlink:href="#DejaVuSans-2e" transform="translate(63.623047 0)"/>
       <use xlink:href="#DejaVuSans-34" transform="translate(95.410156 0)"/>
      </g>
     </g>
    </g>
    <g id="ytick_8">
     <g id="line2d_29">
      <path d="M 108 86.116141 
L 777.6 86.116141 
" clip-path="url(#p348619a034)" style="fill: none; stroke-dasharray: 2.96,1.28; stroke-dashoffset: 0; stroke: #b0b0b0; stroke-opacity: 0.5; stroke-width: 0.8"/>
     </g>
     <g id="line2d_30">
      <g>
       <use xlink:href="#m03f85d77c4" x="108" y="86.116141" style="stroke: #000000; stroke-width: 0.8"/>
      </g>
     </g>
     <g id="text_15">
      <!-- 1.6 -->
      <g transform="translate(85.096875 89.91536) scale(0.1 -0.1)">
       <use xlink:href="#DejaVuSans-31"/>
       <use xlink:href="#DejaVuSans-2e" transform="translate(63.623047 0)"/>
       <use xlink:href="#DejaVuSans-36" transform="translate(95.410156 0)"/>
      </g>
     </g>
    </g>
    <g id="text_16">
     <!-- 1e7 -->
     <g transform="translate(108 48.84) scale(0.1 -0.1)">
      <defs>
       <path id="DejaVuSans-65" d="M 3597 1894 
L 3597 1613 
L 953 1613 
Q 991 1019 1311 708 
Q 1631 397 2203 397 
Q 2534 397 2845 478 
Q 3156 559 3463 722 
L 3463 178 
Q 3153 47 2828 -22 
Q 2503 -91 2169 -91 
Q 1331 -91 842 396 
Q 353 884 353 1716 
Q 353 2575 817 3079 
Q 1281 3584 2069 3584 
Q 2775 3584 3186 3129 
Q 3597 2675 3597 1894 
z
M 3022 2063 
Q 3016 2534 2758 2815 
Q 2500 3097 2075 3097 
Q 1594 3097 1305 2825 
Q 1016 2553 972 2059 
L 3022 2063 
z
" transform="scale(0.015625)"/>
       <path id="DejaVuSans-37" d="M 525 4666 
L 3525 4666 
L 3525 4397 
L 1831 0 
L 1172 0 
L 2766 4134 
L 525 4134 
L 525 4666 
z
" transform="scale(0.015625)"/>
      </defs>
      <use xlink:href="#DejaVuSans-31"/>
      <use xlink:href="#DejaVuSans-65" transform="translate(63.623047 0)"/>
      <use xlink:href="#DejaVuSans-37" transform="translate(125.146484 0)"/>
     </g>
    </g>
   </g>
   <g id="line2d_31">
    <path d="M 138.436364 238.11034 
L 142.310423 235.726837 
L 153.682664 236.335422 
L 165.179873 236.545677 
L 180.551143 236.297551 
L 199.421564 235.736634 
L 210.918773 238.937357 
L 222.415983 236.304526 
L 233.663254 236.018228 
L 248.909554 240.303794 
L 256.532704 242.399037 
L 260.406764 231.093129 
L 264.155854 219.78722 
L 268.029914 208.481312 
L 271.903973 197.89332 
L 275.403124 187.305328 
L 279.277184 176.717337 
L 290.649424 176.464557 
L 302.146634 186.733997 
L 313.643844 177.198346 
L 336.263355 178.183873 
L 347.760564 179.936593 
L 359.257774 179.854937 
L 370.630014 178.081986 
L 389.750374 177.060677 
L 393.499464 176.877949 
L 397.373524 167.010247 
L 401.122614 157.142544 
L 404.996674 147.274841 
L 408.870734 149.40368 
L 412.369885 151.53252 
L 416.243945 153.661359 
L 427.616185 160.960948 
L 439.113395 164.325254 
L 442.987455 204.044538 
L 446.736545 243.763822 
L 450.610605 283.483106 
L 461.857875 283.044892 
L 473.230115 282.111494 
L 496.224535 276.848301 
L 500.098595 275.572553 
L 503.597745 274.296805 
L 507.471805 273.021057 
L 518.844045 267.82548 
L 541.838465 262.645718 
L 553.210705 261.979468 
L 564.582945 258.893207 
L 576.080155 254.875959 
L 587.577365 249.61697 
L 591.451425 246.680785 
L 594.950576 243.7446 
L 598.824636 240.808415 
L 610.196876 238.819482 
L 621.694086 238.8244 
L 644.438566 237.753551 
L 655.810806 235.678314 
L 667.308016 232.107129 
L 671.182076 205.459517 
L 674.931166 178.811905 
L 678.805226 152.164293 
L 682.679286 146.98833 
L 686.178436 141.812367 
L 690.052496 136.636404 
L 693.801586 164.561332 
L 697.675646 192.486261 
L 701.424736 220.411189 
L 709.172856 147.306875 
L 712.921946 110.754718 
L 724.419156 97.439189 
L 728.293216 92.32161 
L 731.917336 87.204032 
L 747.163636 66.96 
L 747.163636 66.96 
" clip-path="url(#p348619a034)" style="fill: none; stroke: #a6cee3; stroke-width: 1.5; stroke-linecap: square"/>
   </g>
   <g id="line2d_32">
    <path d="M 138.436364 255.435583 
L 142.310423 253.088717 
L 153.682664 253.481358 
L 165.179873 253.049393 
L 180.551143 251.532655 
L 188.049323 250.949643 
L 199.421564 249.091314 
L 210.918773 247.973987 
L 229.789194 244.240119 
L 233.663254 243.489345 
L 248.909554 247.286921 
L 256.532704 249.413099 
L 260.406764 239.208735 
L 264.155854 229.004372 
L 268.029914 218.800008 
L 271.903973 209.072102 
L 275.403124 199.344197 
L 279.277184 189.616291 
L 290.649424 194.99084 
L 302.146634 205.013537 
L 313.643844 200.41455 
L 324.891114 202.323022 
L 336.263355 203.180685 
L 347.760564 204.830244 
L 366.755955 204.197166 
L 370.630014 204.046775 
L 393.499464 200.893553 
L 404.996674 186.309997 
L 416.243945 189.829303 
L 427.616185 194.372689 
L 439.113395 196.158735 
L 442.987455 229.366567 
L 446.736545 262.574399 
L 450.610605 295.78223 
L 461.857875 295.249593 
L 473.230115 295.823367 
L 484.727325 295.871138 
L 496.224535 293.854703 
L 507.471805 291.129185 
L 518.844045 287.026268 
L 530.341255 284.522267 
L 541.838465 281.130672 
L 553.210705 279.800062 
L 564.582945 276.19044 
L 579.954215 269.863965 
L 598.824636 261.582622 
L 610.196876 262.052716 
L 621.694086 263.214015 
L 644.438566 264.399074 
L 655.810806 262.325669 
L 667.308016 258.030125 
L 671.182076 231.249794 
L 674.931166 204.469463 
L 678.805226 177.689133 
L 682.679286 172.381781 
L 686.178436 167.07443 
L 690.052496 161.767079 
L 693.801586 189.376721 
L 697.675646 216.986364 
L 701.424736 244.596007 
L 709.172856 188.729655 
L 712.921946 160.796478 
L 716.796006 149.179958 
L 720.545096 137.563437 
L 724.419156 125.946917 
L 728.293216 120.900684 
L 731.917336 115.85445 
L 735.791396 110.808217 
L 739.540486 102.905096 
L 743.414546 95.001974 
L 747.163636 87.098853 
L 747.163636 87.098853 
" clip-path="url(#p348619a034)" style="fill: none; stroke: #1f78b4; stroke-width: 1.5; stroke-linecap: square"/>
   </g>
   <g id="line2d_33">
    <path d="M 138.436364 283.763934 
L 142.310423 282.736086 
L 153.682664 274.653529 
L 165.179873 270.321786 
L 176.677083 264.267699 
L 188.049323 262.041356 
L 199.421564 259.242551 
L 222.415983 255.07576 
L 226.290043 253.480182 
L 229.789194 251.884603 
L 233.663254 250.289025 
L 245.035494 247.607786 
L 256.532704 242.069827 
L 268.029914 251.887747 
L 279.277184 254.1786 
L 290.649424 255.59106 
L 302.146634 256.18709 
L 317.517904 258.787437 
L 324.891114 260.153481 
L 336.263355 263.856042 
L 347.760564 266.24778 
L 370.630014 266.753166 
L 382.002255 265.826711 
L 393.499464 267.229508 
L 408.870734 268.339282 
L 419.993035 268.957953 
L 427.616185 269.315295 
L 439.113395 269.109033 
L 450.610605 268.368088 
L 461.857875 267.27753 
L 473.230115 267.808528 
L 488.601385 273.510655 
L 496.224535 276.19152 
L 507.471805 278.307991 
L 518.844045 279.122549 
L 534.215315 281.545524 
L 541.838465 282.634353 
L 556.959795 287.966866 
L 564.582945 290.309342 
L 576.080155 296.688782 
L 587.577365 300.352366 
L 610.196876 304.399488 
L 621.694086 299.967497 
L 633.191295 298.239598 
L 644.438566 295.441391 
L 667.308016 289.85055 
L 690.052496 284.660335 
L 709.172856 279.879578 
L 724.419156 275.727965 
L 728.293216 273.088101 
L 731.917336 270.448237 
L 735.791396 267.808374 
L 747.163636 256.320278 
L 747.163636 256.320278 
" clip-path="url(#p348619a034)" style="fill: none; stroke: #b2df8a; stroke-width: 1.5; stroke-linecap: square"/>
   </g>
   <g id="line2d_34">
    <path d="M 138.436364 315.157646 
L 142.310423 314.215132 
L 153.682664 308.596288 
L 165.179873 306.063647 
L 176.677083 302.863966 
L 188.049323 302.358502 
L 199.421564 300.532843 
L 210.918773 299.972415 
L 222.415983 297.6438 
L 233.663254 294.293457 
L 248.909554 293.028535 
L 256.532704 292.22767 
L 268.029914 295.298907 
L 279.277184 296.151651 
L 290.649424 296.040835 
L 302.146634 297.898566 
L 317.517904 298.83613 
L 324.891114 299.370657 
L 336.263355 301.692426 
L 347.760564 303.050981 
L 359.257774 302.402243 
L 382.002255 297.764356 
L 393.499464 295.526635 
L 404.996674 294.403194 
L 416.243945 292.676028 
L 427.616185 290.248688 
L 439.113395 289.108642 
L 461.857875 286.253985 
L 473.230115 286.291785 
L 484.727325 288.558628 
L 496.224535 292.273512 
L 507.471805 294.541203 
L 518.844045 295.846703 
L 534.215315 298.435298 
L 541.838465 299.532176 
L 556.959795 304.244635 
L 564.582945 306.33417 
L 576.080155 311.788949 
L 587.577365 315.255297 
L 610.196876 319.382686 
L 621.694086 315.543659 
L 633.191295 314.300761 
L 655.810806 310.124327 
L 678.805226 305.549177 
L 693.801586 302.614452 
L 705.298796 300.296386 
L 716.796006 297.761861 
L 724.419156 295.986198 
L 728.293216 293.729975 
L 731.917336 291.473752 
L 735.791396 289.21753 
L 747.163636 279.360653 
L 747.163636 279.360653 
" clip-path="url(#p348619a034)" style="fill: none; stroke: #33a02c; stroke-width: 1.5; stroke-linecap: square"/>
   </g>
   <g id="line2d_35">
    <path d="M 138.436364 338.958218 
L 153.682664 335.842141 
L 165.179873 336.917618 
L 176.677083 335.341056 
L 188.049323 334.180181 
L 199.421564 334.222224 
L 210.918773 333.673502 
L 222.415983 340.538696 
L 248.909554 341.412687 
L 256.532704 341.515237 
L 271.903973 341.185789 
L 294.523484 340.170497 
L 306.020694 339.461612 
L 313.643844 338.852744 
L 324.891114 339.8186 
L 336.263355 336.535353 
L 351.634624 335.053703 
L 359.257774 334.418284 
L 370.630014 332.894604 
L 382.002255 331.104546 
L 397.373524 329.741838 
L 416.243945 328.494839 
L 442.987455 327.868646 
L 465.606965 327.694623 
L 477.104175 327.40637 
L 484.727325 327.297842 
L 500.098595 326.581044 
L 515.094955 326.260204 
L 518.844045 326.193957 
L 530.341255 324.392617 
L 541.838465 323.000833 
L 553.210705 322.869033 
L 564.582945 323.582688 
L 579.954215 323.427578 
L 587.577365 323.246805 
L 598.824636 322.215473 
L 610.196876 320.370741 
L 625.568145 316.788009 
L 633.191295 315.163959 
L 644.438566 312.027651 
L 655.810806 310.232097 
L 667.308016 308.728088 
L 686.178436 305.579733 
L 690.052496 304.990755 
L 701.424736 304.206282 
L 712.921946 305.481638 
L 724.419156 306.024343 
L 735.791396 305.867009 
L 747.163636 304.481472 
L 747.163636 304.481472 
" clip-path="url(#p348619a034)" style="fill: none; stroke: #fb9a99; stroke-width: 1.5; stroke-linecap: square"/>
   </g>
   <g id="line2d_36">
    <path d="M 138.436364 369.36 
L 142.310423 368.821185 
L 153.682664 366.133563 
L 165.179873 360.63433 
L 176.677083 357.916005 
L 180.551143 359.86094 
L 184.175264 361.805876 
L 188.049323 363.750812 
L 199.421564 362.284487 
L 210.918773 360.04451 
L 222.415983 360.093226 
L 233.663254 358.191291 
L 245.035494 357.994074 
L 256.532704 354.914486 
L 268.029914 355.504228 
L 290.649424 353.136964 
L 302.146634 350.280244 
L 317.517904 348.573193 
L 324.891114 347.630229 
L 336.263355 346.615522 
L 347.760564 345.941596 
L 359.257774 344.924498 
L 370.630014 342.965978 
L 382.002255 342.496888 
L 393.499464 340.460743 
L 404.996674 336.798374 
L 416.243945 334.941452 
L 427.616185 334.064234 
L 439.113395 325.528941 
L 450.610605 329.209767 
L 454.484664 326.383576 
L 457.983815 323.557385 
L 461.857875 320.731194 
L 480.978235 316.113389 
L 496.224535 312.224309 
L 500.098595 308.114199 
L 503.597745 304.004089 
L 507.471805 299.893979 
L 518.844045 297.218122 
L 530.341255 316.128195 
L 541.838465 294.24827 
L 545.712525 300.712189 
L 549.336645 307.176108 
L 553.210705 313.640027 
L 564.582945 312.54916 
L 576.080155 318.320613 
L 587.577365 322.999251 
L 591.451425 325.175322 
L 594.950576 327.351392 
L 598.824636 329.527463 
L 610.196876 314.381955 
L 621.694086 316.337234 
L 633.191295 322.984806 
L 637.065355 324.230423 
L 640.564506 325.47604 
L 644.438566 326.721657 
L 667.308016 325.640568 
L 678.805226 325.498913 
L 690.052496 325.936201 
L 701.424736 325.191303 
L 712.921946 325.056109 
L 724.419156 325.961041 
L 728.293216 328.097081 
L 731.917336 330.23312 
L 735.791396 332.36916 
L 747.163636 332.00051 
L 747.163636 332.00051 
" clip-path="url(#p348619a034)" style="fill: none; stroke: #e31a1c; stroke-width: 1.5; stroke-linecap: square"/>
   </g>
   <g id="line2d_37">
    <path d="M 138.436364 369.36 
L 142.310423 368.821185 
L 153.682664 366.133563 
L 165.179873 360.63433 
L 176.677083 357.916005 
L 180.551143 359.86094 
L 184.175264 361.805876 
L 188.049323 363.750812 
L 199.421564 362.284487 
L 210.918773 360.04451 
L 222.415983 360.093226 
L 233.663254 358.191291 
L 245.035494 357.994074 
L 256.532704 354.914486 
L 268.029914 355.504228 
L 290.649424 353.137138 
L 302.146634 350.280436 
L 317.517904 348.573379 
L 324.891114 347.630403 
L 336.263355 346.615695 
L 347.760564 345.94177 
L 359.257774 344.924671 
L 370.630014 342.966152 
L 382.002255 342.497138 
L 393.499464 340.460993 
L 404.996674 336.798914 
L 416.243945 334.942243 
L 427.616185 334.066741 
L 439.113395 325.533589 
L 450.610605 329.238291 
L 454.484664 326.414845 
L 457.983815 323.591398 
L 461.857875 320.767952 
L 480.978235 316.165371 
L 496.224535 312.289225 
L 500.098595 308.157476 
L 503.597745 304.025728 
L 507.471805 299.893979 
L 518.844045 297.218122 
L 530.341255 316.128195 
L 541.838465 294.248289 
L 545.712525 300.900304 
L 549.336645 307.552318 
L 553.210705 314.204332 
L 564.582945 312.954433 
L 576.080155 318.320613 
L 587.577365 322.999251 
L 591.451425 325.175322 
L 594.950576 327.351392 
L 598.824636 329.527463 
L 610.196876 315.00539 
L 621.694086 316.969252 
L 633.191295 323.630613 
L 637.065355 324.892687 
L 640.564506 326.154762 
L 644.438566 327.416836 
L 667.308016 326.385138 
L 678.805226 326.30487 
L 690.052496 326.725939 
L 701.424736 325.967464 
L 712.921946 325.799021 
L 724.419156 326.549724 
L 728.293216 328.489542 
L 731.917336 330.429361 
L 735.791396 332.369179 
L 747.163636 332.00053 
L 747.163636 332.00053 
" clip-path="url(#p348619a034)" style="fill: none; stroke: #fdbf6f; stroke-width: 1.5; stroke-linecap: square"/>
   </g>
   <g id="line2d_38">
    <path d="M 138.436364 342.917821 
L 146.059514 341.709934 
L 153.682664 340.600739 
L 165.179873 341.801227 
L 180.551143 340.12369 
L 188.049323 339.409469 
L 199.421564 339.496699 
L 210.918773 339.026066 
L 222.415983 345.29172 
L 256.532704 346.619302 
L 271.903973 346.659777 
L 286.900334 346.352848 
L 302.146634 345.937295 
L 313.643844 345.321979 
L 324.891114 347.007083 
L 336.263355 344.678564 
L 347.760564 344.17121 
L 359.257774 344.379537 
L 382.002255 345.946938 
L 393.499464 347.013351 
L 412.369885 347.993511 
L 431.490245 348.781583 
L 439.113395 348.903058 
L 454.484664 348.2961 
L 484.727325 346.45543 
L 515.094955 345.284507 
L 518.844045 345.094811 
L 537.964405 342.470935 
L 541.838465 341.985388 
L 553.210705 341.542777 
L 564.582945 341.669909 
L 583.703305 340.595583 
L 587.577365 340.359723 
L 598.824636 339.005276 
L 610.196876 336.715734 
L 625.568145 332.413685 
L 633.191295 330.417583 
L 637.065355 329.126195 
L 640.564506 327.834806 
L 644.438566 326.543417 
L 655.810806 324.735038 
L 667.308016 323.683167 
L 682.679286 321.43581 
L 690.052496 320.265208 
L 701.424736 319.561293 
L 712.921946 320.66485 
L 724.419156 321.159514 
L 735.791396 320.986809 
L 747.163636 319.841497 
L 747.163636 319.841497 
" clip-path="url(#p348619a034)" style="fill: none; stroke: #ff7f00; stroke-width: 1.5; stroke-linecap: square"/>
   </g>
   <g id="patch_3">
    <path d="M 108 384.48 
L 108 51.84 
" style="fill: none; stroke: #000000; stroke-width: 0.8; stroke-linejoin: miter; stroke-linecap: square"/>
   </g>
   <g id="patch_4">
    <path d="M 777.6 384.48 
L 777.6 51.84 
" style="fill: none; stroke: #000000; stroke-width: 0.8; stroke-linejoin: miter; stroke-linecap: square"/>
   </g>
   <g id="patch_5">
    <path d="M 108 384.48 
L 777.6 384.48 
" style="fill: none; stroke: #000000; stroke-width: 0.8; stroke-linejoin: miter; stroke-linecap: square"/>
   </g>
   <g id="patch_6">
    <path d="M 108 51.84 
L 777.6 51.84 
" style="fill: none; stroke: #000000; stroke-width: 0.8; stroke-linejoin: miter; stroke-linecap: square"/>
   </g>
   <g id="text_17">
    <!-- Número de Tarjetas de Crédito Desglosadas -->
    <g transform="translate(269.883594 45.84) scale(0.14 -0.14)">
     <defs>
      <path id="DejaVuSans-Bold-4e" d="M 588 4666 
L 1931 4666 
L 3628 1466 
L 3628 4666 
L 4769 4666 
L 4769 0 
L 3425 0 
L 1728 3200 
L 1728 0 
L 588 0 
L 588 4666 
z
" transform="scale(0.015625)"/>
      <path id="DejaVuSans-Bold-fa" d="M 500 1363 
L 500 3500 
L 1625 3500 
L 1625 3150 
Q 1625 2866 1622 2436 
Q 1619 2006 1619 1863 
Q 1619 1441 1641 1255 
Q 1663 1069 1716 984 
Q 1784 875 1895 815 
Q 2006 756 2150 756 
Q 2500 756 2700 1025 
Q 2900 1294 2900 1772 
L 2900 3500 
L 4019 3500 
L 4019 0 
L 2900 0 
L 2900 506 
Q 2647 200 2364 54 
Q 2081 -91 1741 -91 
Q 1134 -91 817 281 
Q 500 653 500 1363 
z
M 2778 5119 
L 3663 5119 
L 2509 3944 
L 1897 3944 
L 2778 5119 
z
" transform="scale(0.015625)"/>
      <path id="DejaVuSans-Bold-6d" d="M 3781 2919 
Q 3994 3244 4286 3414 
Q 4578 3584 4928 3584 
Q 5531 3584 5847 3212 
Q 6163 2841 6163 2131 
L 6163 0 
L 5038 0 
L 5038 1825 
Q 5041 1866 5042 1909 
Q 5044 1953 5044 2034 
Q 5044 2406 4934 2573 
Q 4825 2741 4581 2741 
Q 4263 2741 4089 2478 
Q 3916 2216 3909 1719 
L 3909 0 
L 2784 0 
L 2784 1825 
Q 2784 2406 2684 2573 
Q 2584 2741 2328 2741 
Q 2006 2741 1831 2477 
Q 1656 2213 1656 1722 
L 1656 0 
L 531 0 
L 531 3500 
L 1656 3500 
L 1656 2988 
Q 1863 3284 2130 3434 
Q 2397 3584 2719 3584 
Q 3081 3584 3359 3409 
Q 3638 3234 3781 2919 
z
" transform="scale(0.015625)"/>
      <path id="DejaVuSans-Bold-65" d="M 4031 1759 
L 4031 1441 
L 1416 1441 
Q 1456 1047 1700 850 
Q 1944 653 2381 653 
Q 2734 653 3104 758 
Q 3475 863 3866 1075 
L 3866 213 
Q 3469 63 3072 -14 
Q 2675 -91 2278 -91 
Q 1328 -91 801 392 
Q 275 875 275 1747 
Q 275 2603 792 3093 
Q 1309 3584 2216 3584 
Q 3041 3584 3536 3087 
Q 4031 2591 4031 1759 
z
M 2881 2131 
Q 2881 2450 2695 2645 
Q 2509 2841 2209 2841 
Q 1884 2841 1681 2658 
Q 1478 2475 1428 2131 
L 2881 2131 
z
" transform="scale(0.015625)"/>
      <path id="DejaVuSans-Bold-72" d="M 3138 2547 
Q 2991 2616 2845 2648 
Q 2700 2681 2553 2681 
Q 2122 2681 1889 2404 
Q 1656 2128 1656 1613 
L 1656 0 
L 538 0 
L 538 3500 
L 1656 3500 
L 1656 2925 
Q 1872 3269 2151 3426 
Q 2431 3584 2822 3584 
Q 2878 3584 2943 3579 
Q 3009 3575 3134 3559 
L 3138 2547 
z
" transform="scale(0.015625)"/>
      <path id="DejaVuSans-Bold-6f" d="M 2203 2784 
Q 1831 2784 1636 2517 
Q 1441 2250 1441 1747 
Q 1441 1244 1636 976 
Q 1831 709 2203 709 
Q 2569 709 2762 976 
Q 2956 1244 2956 1747 
Q 2956 2250 2762 2517 
Q 2569 2784 2203 2784 
z
M 2203 3584 
Q 3106 3584 3614 3096 
Q 4122 2609 4122 1747 
Q 4122 884 3614 396 
Q 3106 -91 2203 -91 
Q 1297 -91 786 396 
Q 275 884 275 1747 
Q 275 2609 786 3096 
Q 1297 3584 2203 3584 
z
" transform="scale(0.015625)"/>
      <path id="DejaVuSans-Bold-20" transform="scale(0.015625)"/>
      <path id="DejaVuSans-Bold-64" d="M 2919 2988 
L 2919 4863 
L 4044 4863 
L 4044 0 
L 2919 0 
L 2919 506 
Q 2688 197 2409 53 
Q 2131 -91 1766 -91 
Q 1119 -91 703 423 
Q 288 938 288 1747 
Q 288 2556 703 3070 
Q 1119 3584 1766 3584 
Q 2128 3584 2408 3439 
Q 2688 3294 2919 2988 
z
M 2181 722 
Q 2541 722 2730 984 
Q 2919 1247 2919 1747 
Q 2919 2247 2730 2509 
Q 2541 2772 2181 2772 
Q 1825 2772 1636 2509 
Q 1447 2247 1447 1747 
Q 1447 1247 1636 984 
Q 1825 722 2181 722 
z
" transform="scale(0.015625)"/>
      <path id="DejaVuSans-Bold-54" d="M 31 4666 
L 4331 4666 
L 4331 3756 
L 2784 3756 
L 2784 0 
L 1581 0 
L 1581 3756 
L 31 3756 
L 31 4666 
z
" transform="scale(0.015625)"/>
      <path id="DejaVuSans-Bold-61" d="M 2106 1575 
Q 1756 1575 1579 1456 
Q 1403 1338 1403 1106 
Q 1403 894 1545 773 
Q 1688 653 1941 653 
Q 2256 653 2472 879 
Q 2688 1106 2688 1447 
L 2688 1575 
L 2106 1575 
z
M 3816 1997 
L 3816 0 
L 2688 0 
L 2688 519 
Q 2463 200 2181 54 
Q 1900 -91 1497 -91 
Q 953 -91 614 226 
Q 275 544 275 1050 
Q 275 1666 698 1953 
Q 1122 2241 2028 2241 
L 2688 2241 
L 2688 2328 
Q 2688 2594 2478 2717 
Q 2269 2841 1825 2841 
Q 1466 2841 1156 2769 
Q 847 2697 581 2553 
L 581 3406 
Q 941 3494 1303 3539 
Q 1666 3584 2028 3584 
Q 2975 3584 3395 3211 
Q 3816 2838 3816 1997 
z
" transform="scale(0.015625)"/>
      <path id="DejaVuSans-Bold-6a" d="M 538 3500 
L 1656 3500 
L 1656 63 
Q 1656 -641 1318 -1011 
Q 981 -1381 341 -1381 
L -213 -1381 
L -213 -647 
L -19 -647 
Q 300 -647 419 -503 
Q 538 -359 538 63 
L 538 3500 
z
M 538 4863 
L 1656 4863 
L 1656 3950 
L 538 3950 
L 538 4863 
z
" transform="scale(0.015625)"/>
      <path id="DejaVuSans-Bold-74" d="M 1759 4494 
L 1759 3500 
L 2913 3500 
L 2913 2700 
L 1759 2700 
L 1759 1216 
Q 1759 972 1856 886 
Q 1953 800 2241 800 
L 2816 800 
L 2816 0 
L 1856 0 
Q 1194 0 917 276 
Q 641 553 641 1216 
L 641 2700 
L 84 2700 
L 84 3500 
L 641 3500 
L 641 4494 
L 1759 4494 
z
" transform="scale(0.015625)"/>
      <path id="DejaVuSans-Bold-73" d="M 3272 3391 
L 3272 2541 
Q 2913 2691 2578 2766 
Q 2244 2841 1947 2841 
Q 1628 2841 1473 2761 
Q 1319 2681 1319 2516 
Q 1319 2381 1436 2309 
Q 1553 2238 1856 2203 
L 2053 2175 
Q 2913 2066 3209 1816 
Q 3506 1566 3506 1031 
Q 3506 472 3093 190 
Q 2681 -91 1863 -91 
Q 1516 -91 1145 -36 
Q 775 19 384 128 
L 384 978 
Q 719 816 1070 734 
Q 1422 653 1784 653 
Q 2113 653 2278 743 
Q 2444 834 2444 1013 
Q 2444 1163 2330 1236 
Q 2216 1309 1875 1350 
L 1678 1375 
Q 931 1469 631 1722 
Q 331 1975 331 2491 
Q 331 3047 712 3315 
Q 1094 3584 1881 3584 
Q 2191 3584 2531 3537 
Q 2872 3491 3272 3391 
z
" transform="scale(0.015625)"/>
      <path id="DejaVuSans-Bold-43" d="M 4288 256 
Q 3956 84 3597 -3 
Q 3238 -91 2847 -91 
Q 1681 -91 1000 561 
Q 319 1213 319 2328 
Q 319 3447 1000 4098 
Q 1681 4750 2847 4750 
Q 3238 4750 3597 4662 
Q 3956 4575 4288 4403 
L 4288 3438 
Q 3953 3666 3628 3772 
Q 3303 3878 2944 3878 
Q 2300 3878 1931 3465 
Q 1563 3053 1563 2328 
Q 1563 1606 1931 1193 
Q 2300 781 2944 781 
Q 3303 781 3628 887 
Q 3953 994 4288 1222 
L 4288 256 
z
" transform="scale(0.015625)"/>
      <path id="DejaVuSans-Bold-e9" d="M 4031 1759 
L 4031 1441 
L 1416 1441 
Q 1456 1047 1700 850 
Q 1944 653 2381 653 
Q 2734 653 3104 758 
Q 3475 863 3866 1075 
L 3866 213 
Q 3469 63 3072 -14 
Q 2675 -91 2278 -91 
Q 1328 -91 801 392 
Q 275 875 275 1747 
Q 275 2603 792 3093 
Q 1309 3584 2216 3584 
Q 3041 3584 3536 3087 
Q 4031 2591 4031 1759 
z
M 2881 2131 
Q 2881 2450 2695 2645 
Q 2509 2841 2209 2841 
Q 1884 2841 1681 2658 
Q 1478 2475 1428 2131 
L 2881 2131 
z
M 2700 5119 
L 3584 5119 
L 2431 3944 
L 1819 3944 
L 2700 5119 
z
" transform="scale(0.015625)"/>
      <path id="DejaVuSans-Bold-69" d="M 538 3500 
L 1656 3500 
L 1656 0 
L 538 0 
L 538 3500 
z
M 538 4863 
L 1656 4863 
L 1656 3950 
L 538 3950 
L 538 4863 
z
" transform="scale(0.015625)"/>
      <path id="DejaVuSans-Bold-44" d="M 1791 3756 
L 1791 909 
L 2222 909 
Q 2959 909 3348 1275 
Q 3738 1641 3738 2338 
Q 3738 3031 3350 3393 
Q 2963 3756 2222 3756 
L 1791 3756 
z
M 588 4666 
L 1856 4666 
Q 2919 4666 3439 4514 
Q 3959 4363 4331 4000 
Q 4659 3684 4818 3271 
Q 4978 2859 4978 2338 
Q 4978 1809 4818 1395 
Q 4659 981 4331 666 
Q 3956 303 3431 151 
Q 2906 0 1856 0 
L 588 0 
L 588 4666 
z
" transform="scale(0.015625)"/>
      <path id="DejaVuSans-Bold-67" d="M 2919 594 
Q 2688 288 2409 144 
Q 2131 0 1766 0 
Q 1125 0 706 504 
Q 288 1009 288 1791 
Q 288 2575 706 3076 
Q 1125 3578 1766 3578 
Q 2131 3578 2409 3434 
Q 2688 3291 2919 2981 
L 2919 3500 
L 4044 3500 
L 4044 353 
Q 4044 -491 3511 -936 
Q 2978 -1381 1966 -1381 
Q 1638 -1381 1331 -1331 
Q 1025 -1281 716 -1178 
L 716 -306 
Q 1009 -475 1290 -558 
Q 1572 -641 1856 -641 
Q 2406 -641 2662 -400 
Q 2919 -159 2919 353 
L 2919 594 
z
M 2181 2772 
Q 1834 2772 1640 2515 
Q 1447 2259 1447 1791 
Q 1447 1309 1634 1061 
Q 1822 813 2181 813 
Q 2531 813 2725 1069 
Q 2919 1325 2919 1791 
Q 2919 2259 2725 2515 
Q 2531 2772 2181 2772 
z
" transform="scale(0.015625)"/>
      <path id="DejaVuSans-Bold-6c" d="M 538 4863 
L 1656 4863 
L 1656 0 
L 538 0 
L 538 4863 
z
" transform="scale(0.015625)"/>
     </defs>
     <use xlink:href="#DejaVuSans-Bold-4e"/>
     <use xlink:href="#DejaVuSans-Bold-fa" transform="translate(83.691406 0)"/>
     <use xlink:href="#DejaVuSans-Bold-6d" transform="translate(154.882812 0)"/>
     <use xlink:href="#DejaVuSans-Bold-65" transform="translate(259.082031 0)"/>
     <use xlink:href="#DejaVuSans-Bold-72" transform="translate(326.904297 0)"/>
     <use xlink:href="#DejaVuSans-Bold-6f" transform="translate(376.220703 0)"/>
     <use xlink:href="#DejaVuSans-Bold-20" transform="translate(444.921875 0)"/>
     <use xlink:href="#DejaVuSans-Bold-64" transform="translate(479.736328 0)"/>
     <use xlink:href="#DejaVuSans-Bold-65" transform="translate(551.318359 0)"/>
     <use xlink:href="#DejaVuSans-Bold-20" transform="translate(619.140625 0)"/>
     <use xlink:href="#DejaVuSans-Bold-54" transform="translate(653.955078 0)"/>
     <use xlink:href="#DejaVuSans-Bold-61" transform="translate(709.292969 0)"/>
     <use xlink:href="#DejaVuSans-Bold-72" transform="translate(776.773438 0)"/>
     <use xlink:href="#DejaVuSans-Bold-6a" transform="translate(826.089844 0)"/>
     <use xlink:href="#DejaVuSans-Bold-65" transform="translate(860.367188 0)"/>
     <use xlink:href="#DejaVuSans-Bold-74" transform="translate(928.189453 0)"/>
     <use xlink:href="#DejaVuSans-Bold-61" transform="translate(975.992188 0)"/>
     <use xlink:href="#DejaVuSans-Bold-73" transform="translate(1043.472656 0)"/>
     <use xlink:href="#DejaVuSans-Bold-20" transform="translate(1102.994141 0)"/>
     <use xlink:href="#DejaVuSans-Bold-64" transform="translate(1137.808594 0)"/>
     <use xlink:href="#DejaVuSans-Bold-65" transform="translate(1209.390625 0)"/>
     <use xlink:href="#DejaVuSans-Bold-20" transform="translate(1277.212891 0)"/>
     <use xlink:href="#DejaVuSans-Bold-43" transform="translate(1312.027344 0)"/>
     <use xlink:href="#DejaVuSans-Bold-72" transform="translate(1385.416016 0)"/>
     <use xlink:href="#DejaVuSans-Bold-e9" transform="translate(1434.732422 0)"/>
     <use xlink:href="#DejaVuSans-Bold-64" transform="translate(1502.554688 0)"/>
     <use xlink:href="#DejaVuSans-Bold-69" transform="translate(1574.136719 0)"/>
     <use xlink:href="#DejaVuSans-Bold-74" transform="translate(1608.414062 0)"/>
     <use xlink:href="#DejaVuSans-Bold-6f" transform="translate(1656.216797 0)"/>
     <use xlink:href="#DejaVuSans-Bold-20" transform="translate(1724.917969 0)"/>
     <use xlink:href="#DejaVuSans-Bold-44" transform="translate(1759.732422 0)"/>
     <use xlink:href="#DejaVuSans-Bold-65" transform="translate(1842.740234 0)"/>
     <use xlink:href="#DejaVuSans-Bold-73" transform="translate(1910.5625 0)"/>
     <use xlink:href="#DejaVuSans-Bold-67" transform="translate(1970.083984 0)"/>
     <use xlink:href="#DejaVuSans-Bold-6c" transform="translate(2041.666016 0)"/>
     <use xlink:href="#DejaVuSans-Bold-6f" transform="translate(2075.943359 0)"/>
     <use xlink:href="#DejaVuSans-Bold-73" transform="translate(2144.644531 0)"/>
     <use xlink:href="#DejaVuSans-Bold-61" transform="translate(2204.166016 0)"/>
     <use xlink:href="#DejaVuSans-Bold-64" transform="translate(2271.646484 0)"/>
     <use xlink:href="#DejaVuSans-Bold-61" transform="translate(2343.228516 0)"/>
     <use xlink:href="#DejaVuSans-Bold-73" transform="translate(2410.708984 0)"/>
    </g>
   </g>
   <g id="legend_1">
    <g id="patch_7">
     <path d="M 113.6 152.18 
L 224.5175 152.18 
Q 226.1175 152.18 226.1175 150.58 
L 226.1175 57.44 
Q 226.1175 55.84 224.5175 55.84 
L 113.6 55.84 
Q 112 55.84 112 57.44 
L 112 150.58 
Q 112 152.18 113.6 152.18 
z
" style="fill: #ffffff; opacity: 0.8; stroke: #cccccc; stroke-linejoin: miter"/>
    </g>
    <g id="line2d_39">
     <path d="M 115.2 62.31875 
L 123.2 62.31875 
L 131.2 62.31875 
" style="fill: none; stroke: #a6cee3; stroke-width: 1.5; stroke-linecap: square"/>
    </g>
    <g id="text_18">
     <!--  (todas las marcas) D -->
     <g transform="translate(137.6 65.11875) scale(0.08 -0.08)">
      <defs>
       <path id="DejaVuSans-20" transform="scale(0.015625)"/>
       <path id="DejaVuSans-28" d="M 1984 4856 
Q 1566 4138 1362 3434 
Q 1159 2731 1159 2009 
Q 1159 1288 1364 580 
Q 1569 -128 1984 -844 
L 1484 -844 
Q 1016 -109 783 600 
Q 550 1309 550 2009 
Q 550 2706 781 3412 
Q 1013 4119 1484 4856 
L 1984 4856 
z
" transform="scale(0.015625)"/>
       <path id="DejaVuSans-74" d="M 1172 4494 
L 1172 3500 
L 2356 3500 
L 2356 3053 
L 1172 3053 
L 1172 1153 
Q 1172 725 1289 603 
Q 1406 481 1766 481 
L 2356 481 
L 2356 0 
L 1766 0 
Q 1100 0 847 248 
Q 594 497 594 1153 
L 594 3053 
L 172 3053 
L 172 3500 
L 594 3500 
L 594 4494 
L 1172 4494 
z
" transform="scale(0.015625)"/>
       <path id="DejaVuSans-6f" d="M 1959 3097 
Q 1497 3097 1228 2736 
Q 959 2375 959 1747 
Q 959 1119 1226 758 
Q 1494 397 1959 397 
Q 2419 397 2687 759 
Q 2956 1122 2956 1747 
Q 2956 2369 2687 2733 
Q 2419 3097 1959 3097 
z
M 1959 3584 
Q 2709 3584 3137 3096 
Q 3566 2609 3566 1747 
Q 3566 888 3137 398 
Q 2709 -91 1959 -91 
Q 1206 -91 779 398 
Q 353 888 353 1747 
Q 353 2609 779 3096 
Q 1206 3584 1959 3584 
z
" transform="scale(0.015625)"/>
       <path id="DejaVuSans-64" d="M 2906 2969 
L 2906 4863 
L 3481 4863 
L 3481 0 
L 2906 0 
L 2906 525 
Q 2725 213 2448 61 
Q 2172 -91 1784 -91 
Q 1150 -91 751 415 
Q 353 922 353 1747 
Q 353 2572 751 3078 
Q 1150 3584 1784 3584 
Q 2172 3584 2448 3432 
Q 2725 3281 2906 2969 
z
M 947 1747 
Q 947 1113 1208 752 
Q 1469 391 1925 391 
Q 2381 391 2643 752 
Q 2906 1113 2906 1747 
Q 2906 2381 2643 2742 
Q 2381 3103 1925 3103 
Q 1469 3103 1208 2742 
Q 947 2381 947 1747 
z
" transform="scale(0.015625)"/>
       <path id="DejaVuSans-61" d="M 2194 1759 
Q 1497 1759 1228 1600 
Q 959 1441 959 1056 
Q 959 750 1161 570 
Q 1363 391 1709 391 
Q 2188 391 2477 730 
Q 2766 1069 2766 1631 
L 2766 1759 
L 2194 1759 
z
M 3341 1997 
L 3341 0 
L 2766 0 
L 2766 531 
Q 2569 213 2275 61 
Q 1981 -91 1556 -91 
Q 1019 -91 701 211 
Q 384 513 384 1019 
Q 384 1609 779 1909 
Q 1175 2209 1959 2209 
L 2766 2209 
L 2766 2266 
Q 2766 2663 2505 2880 
Q 2244 3097 1772 3097 
Q 1472 3097 1187 3025 
Q 903 2953 641 2809 
L 641 3341 
Q 956 3463 1253 3523 
Q 1550 3584 1831 3584 
Q 2591 3584 2966 3190 
Q 3341 2797 3341 1997 
z
" transform="scale(0.015625)"/>
       <path id="DejaVuSans-73" d="M 2834 3397 
L 2834 2853 
Q 2591 2978 2328 3040 
Q 2066 3103 1784 3103 
Q 1356 3103 1142 2972 
Q 928 2841 928 2578 
Q 928 2378 1081 2264 
Q 1234 2150 1697 2047 
L 1894 2003 
Q 2506 1872 2764 1633 
Q 3022 1394 3022 966 
Q 3022 478 2636 193 
Q 2250 -91 1575 -91 
Q 1294 -91 989 -36 
Q 684 19 347 128 
L 347 722 
Q 666 556 975 473 
Q 1284 391 1588 391 
Q 1994 391 2212 530 
Q 2431 669 2431 922 
Q 2431 1156 2273 1281 
Q 2116 1406 1581 1522 
L 1381 1569 
Q 847 1681 609 1914 
Q 372 2147 372 2553 
Q 372 3047 722 3315 
Q 1072 3584 1716 3584 
Q 2034 3584 2315 3537 
Q 2597 3491 2834 3397 
z
" transform="scale(0.015625)"/>
       <path id="DejaVuSans-6c" d="M 603 4863 
L 1178 4863 
L 1178 0 
L 603 0 
L 603 4863 
z
" transform="scale(0.015625)"/>
       <path id="DejaVuSans-6d" d="M 3328 2828 
Q 3544 3216 3844 3400 
Q 4144 3584 4550 3584 
Q 5097 3584 5394 3201 
Q 5691 2819 5691 2113 
L 5691 0 
L 5113 0 
L 5113 2094 
Q 5113 2597 4934 2840 
Q 4756 3084 4391 3084 
Q 3944 3084 3684 2787 
Q 3425 2491 3425 1978 
L 3425 0 
L 2847 0 
L 2847 2094 
Q 2847 2600 2669 2842 
Q 2491 3084 2119 3084 
Q 1678 3084 1418 2786 
Q 1159 2488 1159 1978 
L 1159 0 
L 581 0 
L 581 3500 
L 1159 3500 
L 1159 2956 
Q 1356 3278 1631 3431 
Q 1906 3584 2284 3584 
Q 2666 3584 2933 3390 
Q 3200 3197 3328 2828 
z
" transform="scale(0.015625)"/>
       <path id="DejaVuSans-72" d="M 2631 2963 
Q 2534 3019 2420 3045 
Q 2306 3072 2169 3072 
Q 1681 3072 1420 2755 
Q 1159 2438 1159 1844 
L 1159 0 
L 581 0 
L 581 3500 
L 1159 3500 
L 1159 2956 
Q 1341 3275 1631 3429 
Q 1922 3584 2338 3584 
Q 2397 3584 2469 3576 
Q 2541 3569 2628 3553 
L 2631 2963 
z
" transform="scale(0.015625)"/>
       <path id="DejaVuSans-63" d="M 3122 3366 
L 3122 2828 
Q 2878 2963 2633 3030 
Q 2388 3097 2138 3097 
Q 1578 3097 1268 2742 
Q 959 2388 959 1747 
Q 959 1106 1268 751 
Q 1578 397 2138 397 
Q 2388 397 2633 464 
Q 2878 531 3122 666 
L 3122 134 
Q 2881 22 2623 -34 
Q 2366 -91 2075 -91 
Q 1284 -91 818 406 
Q 353 903 353 1747 
Q 353 2603 823 3093 
Q 1294 3584 2113 3584 
Q 2378 3584 2631 3529 
Q 2884 3475 3122 3366 
z
" transform="scale(0.015625)"/>
       <path id="DejaVuSans-29" d="M 513 4856 
L 1013 4856 
Q 1481 4119 1714 3412 
Q 1947 2706 1947 2009 
Q 1947 1309 1714 600 
Q 1481 -109 1013 -844 
L 513 -844 
Q 928 -128 1133 580 
Q 1338 1288 1338 2009 
Q 1338 2731 1133 3434 
Q 928 4138 513 4856 
z
" transform="scale(0.015625)"/>
       <path id="DejaVuSans-44" d="M 1259 4147 
L 1259 519 
L 2022 519 
Q 2988 519 3436 956 
Q 3884 1394 3884 2338 
Q 3884 3275 3436 3711 
Q 2988 4147 2022 4147 
L 1259 4147 
z
M 628 4666 
L 1925 4666 
Q 3281 4666 3915 4102 
Q 4550 3538 4550 2338 
Q 4550 1131 3912 565 
Q 3275 0 1925 0 
L 628 0 
L 628 4666 
z
" transform="scale(0.015625)"/>
      </defs>
      <use xlink:href="#DejaVuSans-20"/>
      <use xlink:href="#DejaVuSans-28" transform="translate(31.787109 0)"/>
      <use xlink:href="#DejaVuSans-74" transform="translate(70.800781 0)"/>
      <use xlink:href="#DejaVuSans-6f" transform="translate(110.009766 0)"/>
      <use xlink:href="#DejaVuSans-64" transform="translate(171.191406 0)"/>
      <use xlink:href="#DejaVuSans-61" transform="translate(234.667969 0)"/>
      <use xlink:href="#DejaVuSans-73" transform="translate(295.947266 0)"/>
      <use xlink:href="#DejaVuSans-20" transform="translate(348.046875 0)"/>
      <use xlink:href="#DejaVuSans-6c" transform="translate(379.833984 0)"/>
      <use xlink:href="#DejaVuSans-61" transform="translate(407.617188 0)"/>
      <use xlink:href="#DejaVuSans-73" transform="translate(468.896484 0)"/>
      <use xlink:href="#DejaVuSans-20" transform="translate(520.996094 0)"/>
      <use xlink:href="#DejaVuSans-6d" transform="translate(552.783203 0)"/>
      <use xlink:href="#DejaVuSans-61" transform="translate(650.195312 0)"/>
      <use xlink:href="#DejaVuSans-72" transform="translate(711.474609 0)"/>
      <use xlink:href="#DejaVuSans-63" transform="translate(750.337891 0)"/>
      <use xlink:href="#DejaVuSans-61" transform="translate(805.318359 0)"/>
      <use xlink:href="#DejaVuSans-73" transform="translate(866.597656 0)"/>
      <use xlink:href="#DejaVuSans-29" transform="translate(918.697266 0)"/>
      <use xlink:href="#DejaVuSans-20" transform="translate(957.710938 0)"/>
      <use xlink:href="#DejaVuSans-44" transform="translate(989.498047 0)"/>
     </g>
    </g>
    <g id="line2d_40">
     <path d="M 115.2 74.06125 
L 123.2 74.06125 
L 131.2 74.06125 
" style="fill: none; stroke: #1f78b4; stroke-width: 1.5; stroke-linecap: square"/>
    </g>
    <g id="text_19">
     <!--  (visa) D -->
     <g transform="translate(137.6 76.86125) scale(0.08 -0.08)">
      <defs>
       <path id="DejaVuSans-76" d="M 191 3500 
L 800 3500 
L 1894 563 
L 2988 3500 
L 3597 3500 
L 2284 0 
L 1503 0 
L 191 3500 
z
" transform="scale(0.015625)"/>
       <path id="DejaVuSans-69" d="M 603 3500 
L 1178 3500 
L 1178 0 
L 603 0 
L 603 3500 
z
M 603 4863 
L 1178 4863 
L 1178 4134 
L 603 4134 
L 603 4863 
z
" transform="scale(0.015625)"/>
      </defs>
      <use xlink:href="#DejaVuSans-20"/>
      <use xlink:href="#DejaVuSans-28" transform="translate(31.787109 0)"/>
      <use xlink:href="#DejaVuSans-76" transform="translate(70.800781 0)"/>
      <use xlink:href="#DejaVuSans-69" transform="translate(129.980469 0)"/>
      <use xlink:href="#DejaVuSans-73" transform="translate(157.763672 0)"/>
      <use xlink:href="#DejaVuSans-61" transform="translate(209.863281 0)"/>
      <use xlink:href="#DejaVuSans-29" transform="translate(271.142578 0)"/>
      <use xlink:href="#DejaVuSans-20" transform="translate(310.15625 0)"/>
      <use xlink:href="#DejaVuSans-44" transform="translate(341.943359 0)"/>
     </g>
    </g>
    <g id="line2d_41">
     <path d="M 115.2 85.80375 
L 123.2 85.80375 
L 131.2 85.80375 
" style="fill: none; stroke: #b2df8a; stroke-width: 1.5; stroke-linecap: square"/>
    </g>
    <g id="text_20">
     <!--  (todas las marcas) C -->
     <g transform="translate(137.6 88.60375) scale(0.08 -0.08)">
      <defs>
       <path id="DejaVuSans-43" d="M 4122 4306 
L 4122 3641 
Q 3803 3938 3442 4084 
Q 3081 4231 2675 4231 
Q 1875 4231 1450 3742 
Q 1025 3253 1025 2328 
Q 1025 1406 1450 917 
Q 1875 428 2675 428 
Q 3081 428 3442 575 
Q 3803 722 4122 1019 
L 4122 359 
Q 3791 134 3420 21 
Q 3050 -91 2638 -91 
Q 1578 -91 968 557 
Q 359 1206 359 2328 
Q 359 3453 968 4101 
Q 1578 4750 2638 4750 
Q 3056 4750 3426 4639 
Q 3797 4528 4122 4306 
z
" transform="scale(0.015625)"/>
      </defs>
      <use xlink:href="#DejaVuSans-20"/>
      <use xlink:href="#DejaVuSans-28" transform="translate(31.787109 0)"/>
      <use xlink:href="#DejaVuSans-74" transform="translate(70.800781 0)"/>
      <use xlink:href="#DejaVuSans-6f" transform="translate(110.009766 0)"/>
      <use xlink:href="#DejaVuSans-64" transform="translate(171.191406 0)"/>
      <use xlink:href="#DejaVuSans-61" transform="translate(234.667969 0)"/>
      <use xlink:href="#DejaVuSans-73" transform="translate(295.947266 0)"/>
      <use xlink:href="#DejaVuSans-20" transform="translate(348.046875 0)"/>
      <use xlink:href="#DejaVuSans-6c" transform="translate(379.833984 0)"/>
      <use xlink:href="#DejaVuSans-61" transform="translate(407.617188 0)"/>
      <use xlink:href="#DejaVuSans-73" transform="translate(468.896484 0)"/>
      <use xlink:href="#DejaVuSans-20" transform="translate(520.996094 0)"/>
      <use xlink:href="#DejaVuSans-6d" transform="translate(552.783203 0)"/>
      <use xlink:href="#DejaVuSans-61" transform="translate(650.195312 0)"/>
      <use xlink:href="#DejaVuSans-72" transform="translate(711.474609 0)"/>
      <use xlink:href="#DejaVuSans-63" transform="translate(750.337891 0)"/>
      <use xlink:href="#DejaVuSans-61" transform="translate(805.318359 0)"/>
      <use xlink:href="#DejaVuSans-73" transform="translate(866.597656 0)"/>
      <use xlink:href="#DejaVuSans-29" transform="translate(918.697266 0)"/>
      <use xlink:href="#DejaVuSans-20" transform="translate(957.710938 0)"/>
      <use xlink:href="#DejaVuSans-43" transform="translate(989.498047 0)"/>
     </g>
    </g>
    <g id="line2d_42">
     <path d="M 115.2 97.54625 
L 123.2 97.54625 
L 131.2 97.54625 
" style="fill: none; stroke: #33a02c; stroke-width: 1.5; stroke-linecap: square"/>
    </g>
    <g id="text_21">
     <!--  (mastercard) C -->
     <g transform="translate(137.6 100.34625) scale(0.08 -0.08)">
      <use xlink:href="#DejaVuSans-20"/>
      <use xlink:href="#DejaVuSans-28" transform="translate(31.787109 0)"/>
      <use xlink:href="#DejaVuSans-6d" transform="translate(70.800781 0)"/>
      <use xlink:href="#DejaVuSans-61" transform="translate(168.212891 0)"/>
      <use xlink:href="#DejaVuSans-73" transform="translate(229.492188 0)"/>
      <use xlink:href="#DejaVuSans-74" transform="translate(281.591797 0)"/>
      <use xlink:href="#DejaVuSans-65" transform="translate(320.800781 0)"/>
      <use xlink:href="#DejaVuSans-72" transform="translate(382.324219 0)"/>
      <use xlink:href="#DejaVuSans-63" transform="translate(421.1875 0)"/>
      <use xlink:href="#DejaVuSans-61" transform="translate(476.167969 0)"/>
      <use xlink:href="#DejaVuSans-72" transform="translate(537.447266 0)"/>
      <use xlink:href="#DejaVuSans-64" transform="translate(576.810547 0)"/>
      <use xlink:href="#DejaVuSans-29" transform="translate(640.287109 0)"/>
      <use xlink:href="#DejaVuSans-20" transform="translate(679.300781 0)"/>
      <use xlink:href="#DejaVuSans-43" transform="translate(711.087891 0)"/>
     </g>
    </g>
    <g id="line2d_43">
     <path d="M 115.2 109.28875 
L 123.2 109.28875 
L 131.2 109.28875 
" style="fill: none; stroke: #fb9a99; stroke-width: 1.5; stroke-linecap: square"/>
    </g>
    <g id="text_22">
     <!--  (todas las marcas) E -->
     <g transform="translate(137.6 112.08875) scale(0.08 -0.08)">
      <defs>
       <path id="DejaVuSans-45" d="M 628 4666 
L 3578 4666 
L 3578 4134 
L 1259 4134 
L 1259 2753 
L 3481 2753 
L 3481 2222 
L 1259 2222 
L 1259 531 
L 3634 531 
L 3634 0 
L 628 0 
L 628 4666 
z
" transform="scale(0.015625)"/>
      </defs>
      <use xlink:href="#DejaVuSans-20"/>
      <use xlink:href="#DejaVuSans-28" transform="translate(31.787109 0)"/>
      <use xlink:href="#DejaVuSans-74" transform="translate(70.800781 0)"/>
      <use xlink:href="#DejaVuSans-6f" transform="translate(110.009766 0)"/>
      <use xlink:href="#DejaVuSans-64" transform="translate(171.191406 0)"/>
      <use xlink:href="#DejaVuSans-61" transform="translate(234.667969 0)"/>
      <use xlink:href="#DejaVuSans-73" transform="translate(295.947266 0)"/>
      <use xlink:href="#DejaVuSans-20" transform="translate(348.046875 0)"/>
      <use xlink:href="#DejaVuSans-6c" transform="translate(379.833984 0)"/>
      <use xlink:href="#DejaVuSans-61" transform="translate(407.617188 0)"/>
      <use xlink:href="#DejaVuSans-73" transform="translate(468.896484 0)"/>
      <use xlink:href="#DejaVuSans-20" transform="translate(520.996094 0)"/>
      <use xlink:href="#DejaVuSans-6d" transform="translate(552.783203 0)"/>
      <use xlink:href="#DejaVuSans-61" transform="translate(650.195312 0)"/>
      <use xlink:href="#DejaVuSans-72" transform="translate(711.474609 0)"/>
      <use xlink:href="#DejaVuSans-63" transform="translate(750.337891 0)"/>
      <use xlink:href="#DejaVuSans-61" transform="translate(805.318359 0)"/>
      <use xlink:href="#DejaVuSans-73" transform="translate(866.597656 0)"/>
      <use xlink:href="#DejaVuSans-29" transform="translate(918.697266 0)"/>
      <use xlink:href="#DejaVuSans-20" transform="translate(957.710938 0)"/>
      <use xlink:href="#DejaVuSans-45" transform="translate(989.498047 0)"/>
     </g>
    </g>
    <g id="line2d_44">
     <path d="M 115.2 121.03125 
L 123.2 121.03125 
L 131.2 121.03125 
" style="fill: none; stroke: #e31a1c; stroke-width: 1.5; stroke-linecap: square"/>
    </g>
    <g id="text_23">
     <!--  (todas las marcas) U -->
     <g transform="translate(137.6 123.83125) scale(0.08 -0.08)">
      <defs>
       <path id="DejaVuSans-55" d="M 556 4666 
L 1191 4666 
L 1191 1831 
Q 1191 1081 1462 751 
Q 1734 422 2344 422 
Q 2950 422 3222 751 
Q 3494 1081 3494 1831 
L 3494 4666 
L 4128 4666 
L 4128 1753 
Q 4128 841 3676 375 
Q 3225 -91 2344 -91 
Q 1459 -91 1007 375 
Q 556 841 556 1753 
L 556 4666 
z
" transform="scale(0.015625)"/>
      </defs>
      <use xlink:href="#DejaVuSans-20"/>
      <use xlink:href="#DejaVuSans-28" transform="translate(31.787109 0)"/>
      <use xlink:href="#DejaVuSans-74" transform="translate(70.800781 0)"/>
      <use xlink:href="#DejaVuSans-6f" transform="translate(110.009766 0)"/>
      <use xlink:href="#DejaVuSans-64" transform="translate(171.191406 0)"/>
      <use xlink:href="#DejaVuSans-61" transform="translate(234.667969 0)"/>
      <use xlink:href="#DejaVuSans-73" transform="translate(295.947266 0)"/>
      <use xlink:href="#DejaVuSans-20" transform="translate(348.046875 0)"/>
      <use xlink:href="#DejaVuSans-6c" transform="translate(379.833984 0)"/>
      <use xlink:href="#DejaVuSans-61" transform="translate(407.617188 0)"/>
      <use xlink:href="#DejaVuSans-73" transform="translate(468.896484 0)"/>
      <use xlink:href="#DejaVuSans-20" transform="translate(520.996094 0)"/>
      <use xlink:href="#DejaVuSans-6d" transform="translate(552.783203 0)"/>
      <use xlink:href="#DejaVuSans-61" transform="translate(650.195312 0)"/>
      <use xlink:href="#DejaVuSans-72" transform="translate(711.474609 0)"/>
      <use xlink:href="#DejaVuSans-63" transform="translate(750.337891 0)"/>
      <use xlink:href="#DejaVuSans-61" transform="translate(805.318359 0)"/>
      <use xlink:href="#DejaVuSans-73" transform="translate(866.597656 0)"/>
      <use xlink:href="#DejaVuSans-29" transform="translate(918.697266 0)"/>
      <use xlink:href="#DejaVuSans-20" transform="translate(957.710938 0)"/>
      <use xlink:href="#DejaVuSans-55" transform="translate(989.498047 0)"/>
     </g>
    </g>
    <g id="line2d_45">
     <path d="M 115.2 132.77375 
L 123.2 132.77375 
L 131.2 132.77375 
" style="fill: none; stroke: #fdbf6f; stroke-width: 1.5; stroke-linecap: square"/>
    </g>
    <g id="text_24">
     <!--  (visa) U -->
     <g transform="translate(137.6 135.57375) scale(0.08 -0.08)">
      <use xlink:href="#DejaVuSans-20"/>
      <use xlink:href="#DejaVuSans-28" transform="translate(31.787109 0)"/>
      <use xlink:href="#DejaVuSans-76" transform="translate(70.800781 0)"/>
      <use xlink:href="#DejaVuSans-69" transform="translate(129.980469 0)"/>
      <use xlink:href="#DejaVuSans-73" transform="translate(157.763672 0)"/>
      <use xlink:href="#DejaVuSans-61" transform="translate(209.863281 0)"/>
      <use xlink:href="#DejaVuSans-29" transform="translate(271.142578 0)"/>
      <use xlink:href="#DejaVuSans-20" transform="translate(310.15625 0)"/>
      <use xlink:href="#DejaVuSans-55" transform="translate(341.943359 0)"/>
     </g>
    </g>
    <g id="line2d_46">
     <path d="M 115.2 144.51625 
L 123.2 144.51625 
L 131.2 144.51625 
" style="fill: none; stroke: #ff7f00; stroke-width: 1.5; stroke-linecap: square"/>
    </g>
    <g id="text_25">
     <!--  (mastercard) E -->
     <g transform="translate(137.6 147.31625) scale(0.08 -0.08)">
      <use xlink:href="#DejaVuSans-20"/>
      <use xlink:href="#DejaVuSans-28" transform="translate(31.787109 0)"/>
      <use xlink:href="#DejaVuSans-6d" transform="translate(70.800781 0)"/>
      <use xlink:href="#DejaVuSans-61" transform="translate(168.212891 0)"/>
      <use xlink:href="#DejaVuSans-73" transform="translate(229.492188 0)"/>
      <use xlink:href="#DejaVuSans-74" transform="translate(281.591797 0)"/>
      <use xlink:href="#DejaVuSans-65" transform="translate(320.800781 0)"/>
      <use xlink:href="#DejaVuSans-72" transform="translate(382.324219 0)"/>
      <use xlink:href="#DejaVuSans-63" transform="translate(421.1875 0)"/>
      <use xlink:href="#DejaVuSans-61" transform="translate(476.167969 0)"/>
      <use xlink:href="#DejaVuSans-72" transform="translate(537.447266 0)"/>
      <use xlink:href="#DejaVuSans-64" transform="translate(576.810547 0)"/>
      <use xlink:href="#DejaVuSans-29" transform="translate(640.287109 0)"/>
      <use xlink:href="#DejaVuSans-20" transform="translate(679.300781 0)"/>
      <use xlink:href="#DejaVuSans-45" transform="translate(711.087891 0)"/>
     </g>
    </g>
   </g>
  </g>
 </g>
 <defs>
  <clipPath id="p348619a034">
   <rect x="108" y="51.84" width="669.6" height="332.64"/>
  </clipPath>
 </defs>
</svg>
