<?xml version="1.0" encoding="utf-8" standalone="no"?>
<!DOCTYPE svg PUBLIC "-//W3C//DTD SVG 1.1//EN"
  "http://www.w3.org/Graphics/SVG/1.1/DTD/svg11.dtd">
<svg xmlns:xlink="http://www.w3.org/1999/xlink" width="864pt" height="432pt" viewBox="0 0 864 432" xmlns="http://www.w3.org/2000/svg" version="1.1">
 <metadata>
  <rdf:RDF xmlns:dc="http://purl.org/dc/elements/1.1/" xmlns:cc="http://creativecommons.org/ns#" xmlns:rdf="http://www.w3.org/1999/02/22-rdf-syntax-ns#">
   <cc:Work>
    <dc:type rdf:resource="http://purl.org/dc/dcmitype/StillImage"/>
    <dc:date>2025-02-23T20:14:40.490887</dc:date>
    <dc:format>image/svg+xml</dc:format>
    <dc:creator>
     <cc:Agent>
      <dc:title>Matplotlib v3.10.0, https://matplotlib.org/</dc:title>
     </cc:Agent>
    </dc:creator>
   </cc:Work>
  </rdf:RDF>
 </metadata>
 <defs>
  <style type="text/css">*{stroke-linejoin: round; stroke-linecap: butt}</style>
 </defs>
 <g id="figure_1">
  <g id="patch_1">
   <path d="M 0 432 
L 864 432 
L 864 0 
L 0 0 
z
" style="fill: #ffffff"/>
  </g>
  <g id="axes_1">
   <g id="patch_2">
    <path d="M 108 384.48 
L 777.6 384.48 
L 777.6 51.84 
L 108 51.84 
z
" style="fill: #ffffff"/>
   </g>
   <g id="matplotlib.axis_1">
    <g id="xtick_1">
     <g id="line2d_1">
      <path d="M 173.02314 384.48 
L 173.02314 51.84 
" clip-path="url(#p0d7ca1ac18)" style="fill: none; stroke-dasharray: 2.96,1.28; stroke-dashoffset: 0; stroke: #b0b0b0; stroke-opacity: 0.5; stroke-width: 0.8"/>
     </g>
     <g id="line2d_2">
      <defs>
       <path id="m6000bd4c2f" d="M 0 0 
L 0 3.5 
" style="stroke: #000000; stroke-width: 0.8"/>
      </defs>
      <g>
       <use xlink:href="#m6000bd4c2f" x="173.02314" y="384.48" style="stroke: #000000; stroke-width: 0.8"/>
      </g>
     </g>
     <g id="text_1">
      <!-- 2012 -->
      <g transform="translate(160.29814 399.078438) scale(0.1 -0.1)">
       <defs>
        <path id="DejaVuSans-32" d="M 1228 531 
L 3431 531 
L 3431 0 
L 469 0 
L 469 531 
Q 828 903 1448 1529 
Q 2069 2156 2228 2338 
Q 2531 2678 2651 2914 
Q 2772 3150 2772 3378 
Q 2772 3750 2511 3984 
Q 2250 4219 1831 4219 
Q 1534 4219 1204 4116 
Q 875 4013 500 3803 
L 500 4441 
Q 881 4594 1212 4672 
Q 1544 4750 1819 4750 
Q 2544 4750 2975 4387 
Q 3406 4025 3406 3419 
Q 3406 3131 3298 2873 
Q 3191 2616 2906 2266 
Q 2828 2175 2409 1742 
Q 1991 1309 1228 531 
z
" transform="scale(0.015625)"/>
        <path id="DejaVuSans-30" d="M 2034 4250 
Q 1547 4250 1301 3770 
Q 1056 3291 1056 2328 
Q 1056 1369 1301 889 
Q 1547 409 2034 409 
Q 2525 409 2770 889 
Q 3016 1369 3016 2328 
Q 3016 3291 2770 3770 
Q 2525 4250 2034 4250 
z
M 2034 4750 
Q 2819 4750 3233 4129 
Q 3647 3509 3647 2328 
Q 3647 1150 3233 529 
Q 2819 -91 2034 -91 
Q 1250 -91 836 529 
Q 422 1150 422 2328 
Q 422 3509 836 4129 
Q 1250 4750 2034 4750 
z
" transform="scale(0.015625)"/>
        <path id="DejaVuSans-31" d="M 794 531 
L 1825 531 
L 1825 4091 
L 703 3866 
L 703 4441 
L 1819 4666 
L 2450 4666 
L 2450 531 
L 3481 531 
L 3481 0 
L 794 0 
L 794 531 
z
" transform="scale(0.015625)"/>
       </defs>
       <use xlink:href="#DejaVuSans-32"/>
       <use xlink:href="#DejaVuSans-30" transform="translate(63.623047 0)"/>
       <use xlink:href="#DejaVuSans-31" transform="translate(127.246094 0)"/>
       <use xlink:href="#DejaVuSans-32" transform="translate(190.869141 0)"/>
      </g>
     </g>
    </g>
    <g id="xtick_2">
     <g id="line2d_3">
      <path d="M 264.961082 384.48 
L 264.961082 51.84 
" clip-path="url(#p0d7ca1ac18)" style="fill: none; stroke-dasharray: 2.96,1.28; stroke-dashoffset: 0; stroke: #b0b0b0; stroke-opacity: 0.5; stroke-width: 0.8"/>
     </g>
     <g id="line2d_4">
      <g>
       <use xlink:href="#m6000bd4c2f" x="264.961082" y="384.48" style="stroke: #000000; stroke-width: 0.8"/>
      </g>
     </g>
     <g id="text_2">
      <!-- 2014 -->
      <g transform="translate(252.236082 399.078438) scale(0.1 -0.1)">
       <defs>
        <path id="DejaVuSans-34" d="M 2419 4116 
L 825 1625 
L 2419 1625 
L 2419 4116 
z
M 2253 4666 
L 3047 4666 
L 3047 1625 
L 3713 1625 
L 3713 1100 
L 3047 1100 
L 3047 0 
L 2419 0 
L 2419 1100 
L 313 1100 
L 313 1709 
L 2253 4666 
z
" transform="scale(0.015625)"/>
       </defs>
       <use xlink:href="#DejaVuSans-32"/>
       <use xlink:href="#DejaVuSans-30" transform="translate(63.623047 0)"/>
       <use xlink:href="#DejaVuSans-31" transform="translate(127.246094 0)"/>
       <use xlink:href="#DejaVuSans-34" transform="translate(190.869141 0)"/>
      </g>
     </g>
    </g>
    <g id="xtick_3">
     <g id="line2d_5">
      <path d="M 356.773253 384.48 
L 356.773253 51.84 
" clip-path="url(#p0d7ca1ac18)" style="fill: none; stroke-dasharray: 2.96,1.28; stroke-dashoffset: 0; stroke: #b0b0b0; stroke-opacity: 0.5; stroke-width: 0.8"/>
     </g>
     <g id="line2d_6">
      <g>
       <use xlink:href="#m6000bd4c2f" x="356.773253" y="384.48" style="stroke: #000000; stroke-width: 0.8"/>
      </g>
     </g>
     <g id="text_3">
      <!-- 2016 -->
      <g transform="translate(344.048253 399.078438) scale(0.1 -0.1)">
       <defs>
        <path id="DejaVuSans-36" d="M 2113 2584 
Q 1688 2584 1439 2293 
Q 1191 2003 1191 1497 
Q 1191 994 1439 701 
Q 1688 409 2113 409 
Q 2538 409 2786 701 
Q 3034 994 3034 1497 
Q 3034 2003 2786 2293 
Q 2538 2584 2113 2584 
z
M 3366 4563 
L 3366 3988 
Q 3128 4100 2886 4159 
Q 2644 4219 2406 4219 
Q 1781 4219 1451 3797 
Q 1122 3375 1075 2522 
Q 1259 2794 1537 2939 
Q 1816 3084 2150 3084 
Q 2853 3084 3261 2657 
Q 3669 2231 3669 1497 
Q 3669 778 3244 343 
Q 2819 -91 2113 -91 
Q 1303 -91 875 529 
Q 447 1150 447 2328 
Q 447 3434 972 4092 
Q 1497 4750 2381 4750 
Q 2619 4750 2861 4703 
Q 3103 4656 3366 4563 
z
" transform="scale(0.015625)"/>
       </defs>
       <use xlink:href="#DejaVuSans-32"/>
       <use xlink:href="#DejaVuSans-30" transform="translate(63.623047 0)"/>
       <use xlink:href="#DejaVuSans-31" transform="translate(127.246094 0)"/>
       <use xlink:href="#DejaVuSans-36" transform="translate(190.869141 0)"/>
      </g>
     </g>
    </g>
    <g id="xtick_4">
     <g id="line2d_7">
      <path d="M 448.711195 384.48 
L 448.711195 51.84 
" clip-path="url(#p0d7ca1ac18)" style="fill: none; stroke-dasharray: 2.96,1.28; stroke-dashoffset: 0; stroke: #b0b0b0; stroke-opacity: 0.5; stroke-width: 0.8"/>
     </g>
     <g id="line2d_8">
      <g>
       <use xlink:href="#m6000bd4c2f" x="448.711195" y="384.48" style="stroke: #000000; stroke-width: 0.8"/>
      </g>
     </g>
     <g id="text_4">
      <!-- 2018 -->
      <g transform="translate(435.986195 399.078438) scale(0.1 -0.1)">
       <defs>
        <path id="DejaVuSans-38" d="M 2034 2216 
Q 1584 2216 1326 1975 
Q 1069 1734 1069 1313 
Q 1069 891 1326 650 
Q 1584 409 2034 409 
Q 2484 409 2743 651 
Q 3003 894 3003 1313 
Q 3003 1734 2745 1975 
Q 2488 2216 2034 2216 
z
M 1403 2484 
Q 997 2584 770 2862 
Q 544 3141 544 3541 
Q 544 4100 942 4425 
Q 1341 4750 2034 4750 
Q 2731 4750 3128 4425 
Q 3525 4100 3525 3541 
Q 3525 3141 3298 2862 
Q 3072 2584 2669 2484 
Q 3125 2378 3379 2068 
Q 3634 1759 3634 1313 
Q 3634 634 3220 271 
Q 2806 -91 2034 -91 
Q 1263 -91 848 271 
Q 434 634 434 1313 
Q 434 1759 690 2068 
Q 947 2378 1403 2484 
z
M 1172 3481 
Q 1172 3119 1398 2916 
Q 1625 2713 2034 2713 
Q 2441 2713 2670 2916 
Q 2900 3119 2900 3481 
Q 2900 3844 2670 4047 
Q 2441 4250 2034 4250 
Q 1625 4250 1398 4047 
Q 1172 3844 1172 3481 
z
" transform="scale(0.015625)"/>
       </defs>
       <use xlink:href="#DejaVuSans-32"/>
       <use xlink:href="#DejaVuSans-30" transform="translate(63.623047 0)"/>
       <use xlink:href="#DejaVuSans-31" transform="translate(127.246094 0)"/>
       <use xlink:href="#DejaVuSans-38" transform="translate(190.869141 0)"/>
      </g>
     </g>
    </g>
    <g id="xtick_5">
     <g id="line2d_9">
      <path d="M 540.523366 384.48 
L 540.523366 51.84 
" clip-path="url(#p0d7ca1ac18)" style="fill: none; stroke-dasharray: 2.96,1.28; stroke-dashoffset: 0; stroke: #b0b0b0; stroke-opacity: 0.5; stroke-width: 0.8"/>
     </g>
     <g id="line2d_10">
      <g>
       <use xlink:href="#m6000bd4c2f" x="540.523366" y="384.48" style="stroke: #000000; stroke-width: 0.8"/>
      </g>
     </g>
     <g id="text_5">
      <!-- 2020 -->
      <g transform="translate(527.798366 399.078438) scale(0.1 -0.1)">
       <use xlink:href="#DejaVuSans-32"/>
       <use xlink:href="#DejaVuSans-30" transform="translate(63.623047 0)"/>
       <use xlink:href="#DejaVuSans-32" transform="translate(127.246094 0)"/>
       <use xlink:href="#DejaVuSans-30" transform="translate(190.869141 0)"/>
      </g>
     </g>
    </g>
    <g id="xtick_6">
     <g id="line2d_11">
      <path d="M 632.461307 384.48 
L 632.461307 51.84 
" clip-path="url(#p0d7ca1ac18)" style="fill: none; stroke-dasharray: 2.96,1.28; stroke-dashoffset: 0; stroke: #b0b0b0; stroke-opacity: 0.5; stroke-width: 0.8"/>
     </g>
     <g id="line2d_12">
      <g>
       <use xlink:href="#m6000bd4c2f" x="632.461307" y="384.48" style="stroke: #000000; stroke-width: 0.8"/>
      </g>
     </g>
     <g id="text_6">
      <!-- 2022 -->
      <g transform="translate(619.736307 399.078438) scale(0.1 -0.1)">
       <use xlink:href="#DejaVuSans-32"/>
       <use xlink:href="#DejaVuSans-30" transform="translate(63.623047 0)"/>
       <use xlink:href="#DejaVuSans-32" transform="translate(127.246094 0)"/>
       <use xlink:href="#DejaVuSans-32" transform="translate(190.869141 0)"/>
      </g>
     </g>
    </g>
    <g id="xtick_7">
     <g id="line2d_13">
      <path d="M 724.273479 384.48 
L 724.273479 51.84 
" clip-path="url(#p0d7ca1ac18)" style="fill: none; stroke-dasharray: 2.96,1.28; stroke-dashoffset: 0; stroke: #b0b0b0; stroke-opacity: 0.5; stroke-width: 0.8"/>
     </g>
     <g id="line2d_14">
      <g>
       <use xlink:href="#m6000bd4c2f" x="724.273479" y="384.48" style="stroke: #000000; stroke-width: 0.8"/>
      </g>
     </g>
     <g id="text_7">
      <!-- 2024 -->
      <g transform="translate(711.548479 399.078438) scale(0.1 -0.1)">
       <use xlink:href="#DejaVuSans-32"/>
       <use xlink:href="#DejaVuSans-30" transform="translate(63.623047 0)"/>
       <use xlink:href="#DejaVuSans-32" transform="translate(127.246094 0)"/>
       <use xlink:href="#DejaVuSans-34" transform="translate(190.869141 0)"/>
      </g>
     </g>
    </g>
   </g>
   <g id="matplotlib.axis_2">
    <g id="ytick_1">
     <g id="line2d_15">
      <path d="M 108 369.36 
L 777.6 369.36 
" clip-path="url(#p0d7ca1ac18)" style="fill: none; stroke-dasharray: 2.96,1.28; stroke-dashoffset: 0; stroke: #b0b0b0; stroke-opacity: 0.5; stroke-width: 0.8"/>
     </g>
     <g id="line2d_16">
      <defs>
       <path id="md1dbce6933" d="M 0 0 
L -3.5 0 
" style="stroke: #000000; stroke-width: 0.8"/>
      </defs>
      <g>
       <use xlink:href="#md1dbce6933" x="108" y="369.36" style="stroke: #000000; stroke-width: 0.8"/>
      </g>
     </g>
     <g id="text_8">
      <!-- 0 -->
      <g transform="translate(94.6375 373.159219) scale(0.1 -0.1)">
       <use xlink:href="#DejaVuSans-30"/>
      </g>
     </g>
    </g>
    <g id="ytick_2">
     <g id="line2d_17">
      <path d="M 108 296.805984 
L 777.6 296.805984 
" clip-path="url(#p0d7ca1ac18)" style="fill: none; stroke-dasharray: 2.96,1.28; stroke-dashoffset: 0; stroke: #b0b0b0; stroke-opacity: 0.5; stroke-width: 0.8"/>
     </g>
     <g id="line2d_18">
      <g>
       <use xlink:href="#md1dbce6933" x="108" y="296.805984" style="stroke: #000000; stroke-width: 0.8"/>
      </g>
     </g>
     <g id="text_9">
      <!-- 1 -->
      <g transform="translate(94.6375 300.605203) scale(0.1 -0.1)">
       <use xlink:href="#DejaVuSans-31"/>
      </g>
     </g>
    </g>
    <g id="ytick_3">
     <g id="line2d_19">
      <path d="M 108 224.251969 
L 777.6 224.251969 
" clip-path="url(#p0d7ca1ac18)" style="fill: none; stroke-dasharray: 2.96,1.28; stroke-dashoffset: 0; stroke: #b0b0b0; stroke-opacity: 0.5; stroke-width: 0.8"/>
     </g>
     <g id="line2d_20">
      <g>
       <use xlink:href="#md1dbce6933" x="108" y="224.251969" style="stroke: #000000; stroke-width: 0.8"/>
      </g>
     </g>
     <g id="text_10">
      <!-- 2 -->
      <g transform="translate(94.6375 228.051188) scale(0.1 -0.1)">
       <use xlink:href="#DejaVuSans-32"/>
      </g>
     </g>
    </g>
    <g id="ytick_4">
     <g id="line2d_21">
      <path d="M 108 151.697953 
L 777.6 151.697953 
" clip-path="url(#p0d7ca1ac18)" style="fill: none; stroke-dasharray: 2.96,1.28; stroke-dashoffset: 0; stroke: #b0b0b0; stroke-opacity: 0.5; stroke-width: 0.8"/>
     </g>
     <g id="line2d_22">
      <g>
       <use xlink:href="#md1dbce6933" x="108" y="151.697953" style="stroke: #000000; stroke-width: 0.8"/>
      </g>
     </g>
     <g id="text_11">
      <!-- 3 -->
      <g transform="translate(94.6375 155.497172) scale(0.1 -0.1)">
       <defs>
        <path id="DejaVuSans-33" d="M 2597 2516 
Q 3050 2419 3304 2112 
Q 3559 1806 3559 1356 
Q 3559 666 3084 287 
Q 2609 -91 1734 -91 
Q 1441 -91 1130 -33 
Q 819 25 488 141 
L 488 750 
Q 750 597 1062 519 
Q 1375 441 1716 441 
Q 2309 441 2620 675 
Q 2931 909 2931 1356 
Q 2931 1769 2642 2001 
Q 2353 2234 1838 2234 
L 1294 2234 
L 1294 2753 
L 1863 2753 
Q 2328 2753 2575 2939 
Q 2822 3125 2822 3475 
Q 2822 3834 2567 4026 
Q 2313 4219 1838 4219 
Q 1578 4219 1281 4162 
Q 984 4106 628 3988 
L 628 4550 
Q 988 4650 1302 4700 
Q 1616 4750 1894 4750 
Q 2613 4750 3031 4423 
Q 3450 4097 3450 3541 
Q 3450 3153 3228 2886 
Q 3006 2619 2597 2516 
z
" transform="scale(0.015625)"/>
       </defs>
       <use xlink:href="#DejaVuSans-33"/>
      </g>
     </g>
    </g>
    <g id="ytick_5">
     <g id="line2d_23">
      <path d="M 108 79.143938 
L 777.6 79.143938 
" clip-path="url(#p0d7ca1ac18)" style="fill: none; stroke-dasharray: 2.96,1.28; stroke-dashoffset: 0; stroke: #b0b0b0; stroke-opacity: 0.5; stroke-width: 0.8"/>
     </g>
     <g id="line2d_24">
      <g>
       <use xlink:href="#md1dbce6933" x="108" y="79.143938" style="stroke: #000000; stroke-width: 0.8"/>
      </g>
     </g>
     <g id="text_12">
      <!-- 4 -->
      <g transform="translate(94.6375 82.943157) scale(0.1 -0.1)">
       <use xlink:href="#DejaVuSans-34"/>
      </g>
     </g>
    </g>
    <g id="text_13">
     <!-- 1e7 -->
     <g transform="translate(108 48.84) scale(0.1 -0.1)">
      <defs>
       <path id="DejaVuSans-65" d="M 3597 1894 
L 3597 1613 
L 953 1613 
Q 991 1019 1311 708 
Q 1631 397 2203 397 
Q 2534 397 2845 478 
Q 3156 559 3463 722 
L 3463 178 
Q 3153 47 2828 -22 
Q 2503 -91 2169 -91 
Q 1331 -91 842 396 
Q 353 884 353 1716 
Q 353 2575 817 3079 
Q 1281 3584 2069 3584 
Q 2775 3584 3186 3129 
Q 3597 2675 3597 1894 
z
M 3022 2063 
Q 3016 2534 2758 2815 
Q 2500 3097 2075 3097 
Q 1594 3097 1305 2825 
Q 1016 2553 972 2059 
L 3022 2063 
z
" transform="scale(0.015625)"/>
       <path id="DejaVuSans-37" d="M 525 4666 
L 3525 4666 
L 3525 4397 
L 1831 0 
L 1172 0 
L 2766 4134 
L 525 4134 
L 525 4666 
z
" transform="scale(0.015625)"/>
      </defs>
      <use xlink:href="#DejaVuSans-31"/>
      <use xlink:href="#DejaVuSans-65" transform="translate(63.623047 0)"/>
      <use xlink:href="#DejaVuSans-37" transform="translate(125.146484 0)"/>
     </g>
    </g>
   </g>
   <g id="line2d_25">
    <path d="M 138.436364 200.731285 
L 149.881443 194.807431 
L 161.452292 190.512182 
L 173.02314 189.823812 
L 184.468219 189.508992 
L 195.913298 186.560615 
L 207.484147 185.297029 
L 219.054996 187.30647 
L 230.374305 183.908287 
L 241.819384 183.402056 
L 253.390233 181.537091 
L 264.961082 171.96332 
L 268.859955 168.153586 
L 272.381518 164.343852 
L 276.280391 160.534118 
L 287.72547 159.839152 
L 299.296319 162.2238 
L 310.867168 153.65414 
L 322.186476 153.454457 
L 333.631555 154.199318 
L 345.202404 154.332339 
L 356.773253 151.876211 
L 368.218332 148.22649 
L 379.663411 145.361775 
L 391.23426 142.797694 
L 402.805109 130.353411 
L 414.124418 131.865807 
L 425.569497 135.941695 
L 437.140346 131.815236 
L 441.039219 147.332625 
L 444.812322 162.850013 
L 448.711195 178.367402 
L 452.610068 176.927181 
L 456.13163 175.486959 
L 460.030503 174.046738 
L 475.374455 171.402903 
L 483.046431 170.120796 
L 494.61728 168.602052 
L 498.516153 166.427613 
L 502.037716 164.253174 
L 505.936589 162.078735 
L 517.381668 158.252004 
L 528.952517 161.897292 
L 540.523366 154.128404 
L 544.422239 157.248149 
L 548.069572 160.367895 
L 551.968445 163.48764 
L 563.413524 164.350757 
L 574.984373 168.53121 
L 597.87453 168.821695 
L 609.319609 162.087601 
L 620.890458 166.044204 
L 632.461307 166.121808 
L 643.780616 163.884677 
L 655.225695 158.517632 
L 666.796544 153.9232 
L 670.695417 142.824046 
L 674.46852 131.724892 
L 678.367393 120.625738 
L 682.266266 117.522707 
L 685.787829 114.419676 
L 689.686702 111.316645 
L 693.459805 120.611985 
L 697.358678 129.907325 
L 701.131781 139.202665 
L 708.929527 109.857583 
L 712.70263 95.185043 
L 724.273479 88.232039 
L 728.172352 85.36226 
L 731.819684 82.49248 
L 735.718557 79.6227 
L 747.163636 66.96 
L 747.163636 66.96 
" clip-path="url(#p0d7ca1ac18)" style="fill: none; stroke: #a6cee3; stroke-width: 1.5; stroke-linecap: square"/>
   </g>
   <g id="line2d_26">
    <path d="M 138.436364 369.24654 
L 651.452592 369.221451 
L 747.163636 369.211881 
L 747.163636 369.211881 
" clip-path="url(#p0d7ca1ac18)" style="fill: none; stroke: #1f78b4; stroke-width: 1.5; stroke-linecap: square"/>
   </g>
   <g id="line2d_27">
    <path d="M 138.436364 327.242554 
L 149.881443 324.201873 
L 161.452292 322.572259 
L 173.02314 320.294694 
L 188.241322 319.106165 
L 199.812171 318.135784 
L 219.054996 316.836661 
L 230.374305 315.035877 
L 241.819384 314.027188 
L 253.390233 311.943792 
L 264.961082 315.637321 
L 280.053494 316.67627 
L 291.624343 317.105261 
L 299.296319 317.254746 
L 322.186476 318.746914 
L 333.631555 320.139827 
L 345.202404 321.039606 
L 368.218332 321.229734 
L 379.663411 320.881199 
L 395.133133 321.520513 
L 414.124418 321.991965 
L 429.46837 322.167748 
L 441.039219 322.023102 
L 456.13163 321.563758 
L 460.030503 321.427001 
L 471.475582 321.626764 
L 494.61728 324.780469 
L 505.936589 325.576692 
L 517.381668 325.883131 
L 540.523366 327.204281 
L 559.640421 329.651011 
L 563.413524 330.091634 
L 574.984373 332.491597 
L 586.555222 333.869848 
L 609.319609 335.392387 
L 620.890458 333.725059 
L 632.461307 333.075019 
L 716.601503 325.395369 
L 724.273479 324.606079 
L 735.718557 321.626706 
L 747.163636 317.304852 
L 747.163636 317.304852 
" clip-path="url(#p0d7ca1ac18)" style="fill: none; stroke: #b2df8a; stroke-width: 1.5; stroke-linecap: square"/>
   </g>
   <g id="line2d_28">
    <path d="M 138.436364 309.557541 
L 157.679189 309.839225 
L 169.124267 309.829812 
L 188.241322 309.649003 
L 195.913298 309.561227 
L 207.484147 310.765348 
L 219.054996 309.77487 
L 230.374305 309.667163 
L 253.390233 312.067642 
L 272.381518 291.341233 
L 276.280391 287.358001 
L 287.72547 287.262904 
L 299.296319 291.126296 
L 310.867168 287.538958 
L 333.631555 287.909716 
L 345.202404 288.569094 
L 356.773253 288.538375 
L 368.218332 287.871386 
L 391.23426 287.418424 
L 402.805109 276.281651 
L 414.124418 278.684277 
L 425.569497 281.430403 
L 437.140346 282.696064 
L 441.039219 297.638571 
L 444.812322 312.581078 
L 448.711195 327.523584 
L 463.803606 327.241678 
L 471.475582 327.00758 
L 494.61728 325.027552 
L 505.936589 323.587732 
L 517.381668 321.633141 
L 540.523366 319.6845 
L 551.968445 319.433855 
L 567.312397 317.769028 
L 574.984373 316.761495 
L 586.555222 314.783048 
L 597.87453 311.469245 
L 609.319609 310.721003 
L 624.789331 310.659279 
L 643.780616 310.319997 
L 655.225695 309.539287 
L 666.796544 308.195797 
L 670.695417 298.17089 
L 674.46852 288.145983 
L 678.367393 278.121076 
L 682.266266 276.173864 
L 685.787829 274.226652 
L 689.686702 272.27944 
L 693.459805 282.784877 
L 697.358678 293.290314 
L 701.131781 303.795751 
L 708.929527 276.293702 
L 712.70263 262.542677 
L 724.273479 257.533337 
L 728.172352 255.60809 
L 731.819684 253.682843 
L 747.163636 246.066981 
L 747.163636 246.066981 
" clip-path="url(#p0d7ca1ac18)" style="fill: none; stroke: #33a02c; stroke-width: 1.5; stroke-linecap: square"/>
   </g>
   <g id="line2d_29">
    <path d="M 138.436364 348.092532 
L 149.881443 347.221201 
L 161.452292 347.625799 
L 180.569346 346.741542 
L 184.468219 346.595967 
L 199.812171 346.542974 
L 207.484147 346.405353 
L 219.054996 348.988059 
L 253.390233 349.355436 
L 276.280391 349.124504 
L 303.195192 348.582857 
L 310.867168 348.353799 
L 322.186476 348.717156 
L 333.631555 347.48199 
L 368.218332 346.112329 
L 383.562284 345.300266 
L 398.906236 344.829512 
L 417.897521 344.422297 
L 452.610068 344.208294 
L 467.702479 344.112068 
L 517.381668 343.591527 
L 536.624493 342.564796 
L 540.523366 342.390265 
L 555.741548 342.430174 
L 567.312397 342.601044 
L 586.555222 342.4828 
L 597.87453 342.09481 
L 613.218482 341.053368 
L 647.553719 338.036959 
L 689.686702 335.614823 
L 701.131781 335.319702 
L 716.601503 335.86755 
L 728.172352 335.983932 
L 735.718557 335.944472 
L 747.163636 335.423229 
L 747.163636 335.423229 
" clip-path="url(#p0d7ca1ac18)" style="fill: none; stroke: #fb9a99; stroke-width: 1.5; stroke-linecap: square"/>
   </g>
   <g id="line2d_30">
    <path d="M 138.436364 361.30805 
L 157.679189 360.617289 
L 165.351165 360.287224 
L 207.484147 357.887302 
L 219.054996 358.719032 
L 257.289106 357.96442 
L 268.859955 358.133325 
L 280.053494 358.356985 
L 325.959579 358.658263 
L 391.23426 358.665212 
L 402.805109 360.138987 
L 456.13163 360.649849 
L 463.803606 360.571897 
L 471.475582 360.437358 
L 494.61728 359.394684 
L 521.280541 358.423986 
L 532.85139 358.244778 
L 544.422239 358.250087 
L 563.413524 358.39214 
L 590.454095 358.450263 
L 613.218482 358.238439 
L 636.36018 357.865224 
L 659.124568 357.205297 
L 682.266266 355.977291 
L 693.459805 355.306212 
L 720.374606 354.001618 
L 747.163636 353.289373 
L 747.163636 353.289373 
" clip-path="url(#p0d7ca1ac18)" style="fill: none; stroke: #e31a1c; stroke-width: 1.5; stroke-linecap: square"/>
   </g>
   <g id="line2d_31">
    <path d="M 138.436364 369.236549 
L 283.952367 369.07058 
L 559.640421 368.531278 
L 651.452592 368.214462 
L 743.390533 367.85353 
L 747.163636 367.83691 
L 747.163636 367.83691 
" clip-path="url(#p0d7ca1ac18)" style="fill: none; stroke: #fdbf6f; stroke-width: 1.5; stroke-linecap: square"/>
   </g>
   <g id="line2d_32">
    <path d="M 138.436364 367.916327 
L 173.02314 367.583805 
L 188.241322 367.591302 
L 207.484147 367.422568 
L 219.054996 367.47369 
L 230.374305 369.36 
L 747.163636 369.36 
L 747.163636 369.36 
" clip-path="url(#p0d7ca1ac18)" style="fill: none; stroke: #ff7f00; stroke-width: 1.5; stroke-linecap: square"/>
   </g>
   <g id="line2d_33">
    <path d="M 138.436364 366.623763 
L 180.569346 366.759009 
L 222.953869 366.631611 
L 268.859955 366.573969 
L 280.053494 366.503541 
L 299.296319 366.252664 
L 322.186476 366.062993 
L 333.631555 360.886199 
L 349.101277 359.881737 
L 356.773253 359.544196 
L 368.218332 358.568751 
L 391.23426 355.997683 
L 402.805109 355.541536 
L 414.124418 355.699508 
L 425.569497 357.299027 
L 437.140346 355.532619 
L 460.030503 355.662535 
L 475.374455 355.546494 
L 486.945304 355.358954 
L 517.381668 355.339785 
L 532.85139 355.227941 
L 544.422239 355.482071 
L 571.21127 356.727473 
L 574.984373 356.922159 
L 586.555222 356.3381 
L 597.87453 357.803742 
L 617.117355 358.289179 
L 624.789331 358.4846 
L 632.461307 358.738056 
L 647.553719 358.758523 
L 678.367393 359.22818 
L 693.459805 359.545241 
L 708.929527 359.625645 
L 739.49166 359.878274 
L 747.163636 359.910725 
L 747.163636 359.910725 
" clip-path="url(#p0d7ca1ac18)" style="fill: none; stroke: #cab2d6; stroke-width: 1.5; stroke-linecap: square"/>
   </g>
   <g id="line2d_34">
    <path d="M 138.436364 369.351722 
L 590.454095 369.243904 
L 597.87453 369.011712 
L 609.319609 369.33219 
L 747.163636 369.28117 
L 747.163636 369.28117 
" clip-path="url(#p0d7ca1ac18)" style="fill: none; stroke: #6a3d9a; stroke-width: 1.5; stroke-linecap: square"/>
   </g>
   <g id="line2d_35">
    <path d="M 138.436364 366.377058 
L 153.780316 366.14888 
L 203.711044 365.876133 
L 207.484147 365.807922 
L 219.054996 366.415228 
L 238.046281 366.559062 
L 249.61713 366.483066 
L 257.289106 366.473671 
L 272.381518 366.508661 
L 306.968295 366.509075 
L 318.287603 366.457535 
L 341.429301 366.365016 
L 414.124418 365.844294 
L 483.046431 365.206043 
L 517.381668 365.184981 
L 528.952517 362.93762 
L 559.640421 363.460865 
L 567.312397 363.654009 
L 574.984373 363.749311 
L 590.454095 363.49173 
L 601.647633 363.540455 
L 620.890458 363.882331 
L 632.461307 363.615703 
L 647.553719 364.113414 
L 663.023441 364.31627 
L 678.367393 364.51625 
L 705.030654 364.667593 
L 712.70263 364.660792 
L 724.273479 364.995578 
L 739.49166 364.651868 
L 747.163636 364.644163 
L 747.163636 364.644163 
" clip-path="url(#p0d7ca1ac18)" style="fill: none; stroke: #ffff99; stroke-width: 1.5; stroke-linecap: square"/>
   </g>
   <g id="line2d_36">
    <path d="M 138.436364 369.206606 
L 345.202404 368.932294 
L 371.991435 368.772172 
L 395.133133 368.56808 
L 448.711195 368.240796 
L 517.381668 367.841611 
L 528.952517 368.313503 
L 574.984373 368.032711 
L 624.789331 367.829708 
L 643.780616 367.708656 
L 655.225695 366.25833 
L 678.367393 365.714806 
L 705.030654 365.55296 
L 747.163636 365.494395 
L 747.163636 365.494395 
" clip-path="url(#p0d7ca1ac18)" style="fill: none; stroke: #b15928; stroke-width: 1.5; stroke-linecap: square"/>
   </g>
   <g id="line2d_37">
    <path d="M 138.436364 368.768337 
L 180.569346 368.850477 
L 226.475432 368.768189 
L 341.429301 368.155896 
L 368.218332 368.034859 
L 402.805109 367.774651 
L 414.124418 366.696223 
L 467.702479 366.906218 
L 513.608565 366.5586 
L 544.422239 366.295432 
L 571.21127 366.242649 
L 593.975657 365.957966 
L 632.461307 365.149183 
L 651.452592 364.493807 
L 670.695417 363.890919 
L 701.131781 362.789704 
L 735.718557 361.16625 
L 747.163636 360.517987 
L 747.163636 360.517987 
" clip-path="url(#p0d7ca1ac18)" style="fill: none; stroke: #a6cee3; stroke-width: 1.5; stroke-linecap: square"/>
   </g>
   <g id="line2d_38">
    <path d="M 138.436364 369.181807 
L 215.156123 369.227528 
L 463.803606 369.127718 
L 624.789331 369.01844 
L 720.374606 368.838525 
L 728.172352 368.75378 
L 747.163636 368.731501 
L 747.163636 368.731501 
" clip-path="url(#p0d7ca1ac18)" style="fill: none; stroke: #1f78b4; stroke-width: 1.5; stroke-linecap: square"/>
   </g>
   <g id="line2d_39">
    <path d="M 138.436364 355.916677 
L 161.452292 354.883464 
L 173.02314 358.798972 
L 195.913298 357.976355 
L 207.484147 358.725098 
L 219.054996 358.379726 
L 230.374305 356.082187 
L 241.819384 355.894671 
L 253.390233 356.555087 
L 268.859955 355.991961 
L 287.72547 355.109593 
L 306.968295 354.402397 
L 322.186476 353.714046 
L 333.631555 355.012131 
L 345.202404 355.370069 
L 360.672126 354.430884 
L 368.218332 354.100512 
L 379.663411 354.710336 
L 395.133133 354.154797 
L 414.124418 353.234311 
L 425.569497 353.558091 
L 437.140346 353.352096 
L 448.711195 354.022117 
L 463.803606 354.001505 
L 471.475582 354.145321 
L 486.945304 353.993937 
L 498.516153 354.006557 
L 521.280541 353.651966 
L 528.952517 353.709119 
L 540.523366 355.074332 
L 563.413524 355.057862 
L 597.87453 354.674632 
L 613.218482 353.832565 
L 624.789331 353.397147 
L 632.461307 353.216898 
L 647.553719 352.264537 
L 659.124568 351.531256 
L 678.367393 350.635035 
L 693.459805 349.221303 
L 712.70263 347.879129 
L 724.273479 347.302919 
L 747.163636 345.500082 
L 747.163636 345.500082 
" clip-path="url(#p0d7ca1ac18)" style="fill: none; stroke: #b2df8a; stroke-width: 1.5; stroke-linecap: square"/>
   </g>
   <g id="line2d_40">
    <path d="M 138.436364 364.274159 
L 176.922014 363.955425 
L 192.140195 363.891882 
L 261.062209 363.297759 
L 280.053494 363.562746 
L 314.766041 363.868994 
L 333.631555 363.787692 
L 402.805109 363.365493 
L 414.124418 364.756927 
L 437.140346 364.381902 
L 460.030503 363.951954 
L 521.280541 362.527298 
L 536.624493 362.307721 
L 544.422239 362.306359 
L 609.319609 362.802104 
L 620.890458 369.36 
L 747.163636 369.36 
L 747.163636 369.36 
" clip-path="url(#p0d7ca1ac18)" style="fill: none; stroke: #33a02c; stroke-width: 1.5; stroke-linecap: square"/>
   </g>
   <g id="line2d_41">
    <path d="M 138.436364 369.330957 
L 747.163636 369.355835 
L 747.163636 369.355835 
" clip-path="url(#p0d7ca1ac18)" style="fill: none; stroke: #fb9a99; stroke-width: 1.5; stroke-linecap: square"/>
   </g>
   <g id="line2d_42">
    <path d="M 138.436364 369.36 
L 375.890308 369.253781 
L 383.562284 369.229937 
L 410.225545 369.322243 
L 417.897521 369.288484 
L 429.46837 369.203012 
L 452.610068 369.282771 
L 490.718407 369.287671 
L 643.780616 369.36 
L 747.163636 369.36 
L 747.163636 369.36 
" clip-path="url(#p0d7ca1ac18)" style="fill: none; stroke: #e31a1c; stroke-width: 1.5; stroke-linecap: square"/>
   </g>
   <g id="line2d_43">
    <path d="M 138.436364 369.141591 
L 226.475432 369.258449 
L 341.429301 369.205934 
L 349.101277 369.133634 
L 364.319459 368.967785 
L 398.906236 368.897758 
L 421.796394 368.84624 
L 471.475582 368.758701 
L 490.718407 368.923401 
L 551.968445 369.00146 
L 563.413524 368.80174 
L 574.984373 369.36 
L 747.163636 369.36 
L 747.163636 369.36 
" clip-path="url(#p0d7ca1ac18)" style="fill: none; stroke: #fdbf6f; stroke-width: 1.5; stroke-linecap: square"/>
   </g>
   <g id="line2d_44">
    <path d="M 138.436364 369.36 
L 371.991435 369.302934 
L 383.562284 369.243382 
L 398.906236 369.350321 
L 747.163636 369.36 
L 747.163636 369.36 
" clip-path="url(#p0d7ca1ac18)" style="fill: none; stroke: #ff7f00; stroke-width: 1.5; stroke-linecap: square"/>
   </g>
   <g id="line2d_45">
    <path d="M 138.436364 359.628011 
L 149.881443 358.61692 
L 161.452292 356.548093 
L 173.02314 355.525451 
L 184.468219 357.720522 
L 199.812171 356.887991 
L 207.484147 356.326201 
L 219.054996 356.344528 
L 230.374305 355.629015 
L 241.819384 355.554821 
L 253.390233 354.396271 
L 264.961082 354.618134 
L 287.72547 353.727563 
L 299.296319 352.652856 
L 337.530428 351.189667 
L 352.87438 350.765555 
L 356.773253 350.638009 
L 368.218332 349.901209 
L 379.663411 349.724736 
L 391.23426 348.958732 
L 402.805109 347.580939 
L 417.897521 346.772356 
L 425.569497 346.552348 
L 437.140346 343.341346 
L 448.711195 344.726083 
L 460.030503 341.53642 
L 490.718407 338.702528 
L 494.61728 338.336106 
L 498.516153 336.789871 
L 502.037716 335.243636 
L 505.936589 333.697401 
L 517.381668 332.690736 
L 528.952517 339.804759 
L 540.523366 331.57347 
L 544.422239 334.005214 
L 548.069572 336.436959 
L 551.968445 338.868703 
L 563.413524 338.458316 
L 574.984373 340.629553 
L 586.555222 342.38967 
L 597.87453 344.845602 
L 609.319609 339.147819 
L 620.890458 339.8834 
L 632.461307 342.384236 
L 643.780616 343.790049 
L 670.695417 343.365577 
L 682.266266 343.384886 
L 689.686702 343.494559 
L 705.030654 343.197373 
L 712.70263 343.163466 
L 724.273479 343.503904 
L 735.718557 345.914656 
L 747.163636 345.775969 
L 747.163636 345.775969 
" clip-path="url(#p0d7ca1ac18)" style="fill: none; stroke: #cab2d6; stroke-width: 1.5; stroke-linecap: square"/>
   </g>
   <g id="line2d_46">
    <path d="M 138.436364 368.810505 
L 169.124267 368.990376 
L 180.569346 369.061718 
L 195.913298 369.018329 
L 207.484147 368.832242 
L 222.953869 368.969188 
L 234.147408 368.875651 
L 257.289106 368.81243 
L 264.961082 368.490745 
L 280.053494 369.012244 
L 295.523216 369.077054 
L 299.296319 369.066592 
L 310.867168 364.653377 
L 322.186476 364.474358 
L 333.631555 369.36 
L 747.163636 369.36 
L 747.163636 369.36 
" clip-path="url(#p0d7ca1ac18)" style="fill: none; stroke: #6a3d9a; stroke-width: 1.5; stroke-linecap: square"/>
   </g>
   <g id="line2d_47">
    <path d="M 138.436364 369.36 
L 747.163636 369.36 
L 747.163636 369.36 
" clip-path="url(#p0d7ca1ac18)" style="fill: none; stroke: #ffff99; stroke-width: 1.5; stroke-linecap: square"/>
   </g>
   <g id="line2d_48">
    <path d="M 138.436364 369.36 
L 747.163636 369.36 
L 747.163636 369.36 
" clip-path="url(#p0d7ca1ac18)" style="fill: none; stroke: #b15928; stroke-width: 1.5; stroke-linecap: square"/>
   </g>
   <g id="line2d_49">
    <path d="M 138.436364 369.36 
L 705.030654 369.290672 
L 716.601503 369.15756 
L 743.390533 369.062485 
L 747.163636 369.014948 
L 747.163636 369.014948 
" clip-path="url(#p0d7ca1ac18)" style="fill: none; stroke: #a6cee3; stroke-width: 1.5; stroke-linecap: square"/>
   </g>
   <g id="line2d_50">
    <path d="M 138.436364 304.725335 
L 149.881443 301.867991 
L 169.124267 301.285184 
L 192.140195 300.536093 
L 195.913298 300.458825 
L 207.484147 301.704309 
L 219.054996 303.256798 
L 238.046281 302.686961 
L 257.289106 302.156272 
L 268.859955 301.660397 
L 276.280391 301.416466 
L 287.72547 299.085153 
L 299.296319 299.578107 
L 310.867168 293.235442 
L 322.186476 293.193513 
L 333.631555 298.116673 
L 345.202404 298.613675 
L 356.773253 298.499482 
L 368.218332 297.192313 
L 379.663411 296.828941 
L 391.23426 295.582223 
L 402.805109 290.259182 
L 414.124418 290.707529 
L 425.569497 282.605981 
L 437.140346 281.276109 
L 448.711195 288.046016 
L 467.702479 285.83686 
L 471.475582 285.38131 
L 483.046431 284.533407 
L 494.61728 285.627725 
L 509.709692 285.924524 
L 517.381668 285.960574 
L 528.952517 284.508028 
L 540.523366 285.83655 
L 551.968445 287.770158 
L 563.413524 290.015226 
L 574.984373 293.015784 
L 586.555222 292.592961 
L 605.546506 290.440724 
L 609.319609 289.998248 
L 620.890458 286.299416 
L 632.461307 284.238845 
L 643.780616 281.667459 
L 663.023441 279.097571 
L 666.796544 278.540845 
L 693.459805 273.872052 
L 701.131781 272.835037 
L 712.70263 261.644509 
L 724.273479 268.507829 
L 735.718557 265.175212 
L 747.163636 263.228697 
L 747.163636 263.228697 
" clip-path="url(#p0d7ca1ac18)" style="fill: none; stroke: #1f78b4; stroke-width: 1.5; stroke-linecap: square"/>
   </g>
   <g id="line2d_51">
    <path d="M 138.436364 369.313065 
L 747.163636 369.36 
L 747.163636 369.36 
" clip-path="url(#p0d7ca1ac18)" style="fill: none; stroke: #b2df8a; stroke-width: 1.5; stroke-linecap: square"/>
   </g>
   <g id="line2d_52">
    <path d="M 138.436364 339.085059 
L 149.881443 336.971234 
L 165.351165 335.617205 
L 173.02314 334.814719 
L 184.468219 334.624562 
L 195.913298 333.937744 
L 207.484147 333.726909 
L 219.054996 332.850877 
L 230.374305 331.590469 
L 249.61713 330.963958 
L 253.390233 330.813314 
L 264.961082 331.968722 
L 280.053494 332.27563 
L 287.72547 332.247837 
L 299.296319 332.946721 
L 322.186476 333.500526 
L 333.631555 334.373982 
L 345.202404 334.885074 
L 356.773253 334.641017 
L 391.23426 332.054394 
L 406.703982 331.415164 
L 417.897521 330.677597 
L 425.569497 330.068815 
L 444.812322 329.274274 
L 460.030503 328.565997 
L 471.475582 328.580217 
L 483.046431 329.43301 
L 494.61728 330.83056 
L 509.709692 331.847383 
L 521.280541 332.430642 
L 536.624493 333.354966 
L 540.523366 333.56129 
L 559.640421 335.727175 
L 563.413524 336.120219 
L 574.984373 338.172323 
L 586.555222 339.476372 
L 609.319609 341.029108 
L 620.890458 339.584855 
L 632.461307 339.117273 
L 666.796544 336.663946 
L 708.929527 333.539043 
L 724.273479 332.227283 
L 735.718557 329.680891 
L 747.163636 325.972706 
L 747.163636 325.972706 
" clip-path="url(#p0d7ca1ac18)" style="fill: none; stroke: #33a02c; stroke-width: 1.5; stroke-linecap: square"/>
   </g>
   <g id="line2d_53">
    <path d="M 138.436364 362.828412 
L 157.679189 363.07072 
L 169.124267 363.422767 
L 176.922014 363.628511 
L 184.468219 363.768487 
L 195.913298 364.335932 
L 207.484147 365.960395 
L 219.054996 365.809722 
L 230.374305 366.549345 
L 245.718257 366.732928 
L 253.390233 366.72129 
L 268.859955 365.15451 
L 276.280391 364.507377 
L 287.72547 362.39036 
L 299.296319 362.483185 
L 310.867168 360.625998 
L 325.959579 360.047136 
L 337.530428 359.969065 
L 356.773253 360.089229 
L 368.218332 359.591973 
L 391.23426 360.325262 
L 402.805109 354.674864 
L 425.569497 356.790409 
L 437.140346 357.384154 
L 448.711195 364.733035 
L 460.030503 364.768557 
L 471.475582 364.201555 
L 483.046431 363.178507 
L 498.516153 362.823986 
L 517.381668 362.136609 
L 528.952517 362.079096 
L 555.741548 362.721472 
L 578.883246 363.061987 
L 586.555222 362.969791 
L 601.647633 361.23632 
L 609.319609 360.619592 
L 643.780616 359.335879 
L 659.124568 359.426025 
L 674.46852 359.707554 
L 693.459805 360.02438 
L 701.131781 360.261603 
L 712.70263 350.534148 
L 724.273479 358.635312 
L 735.718557 358.554792 
L 747.163636 361.783707 
L 747.163636 361.783707 
" clip-path="url(#p0d7ca1ac18)" style="fill: none; stroke: #fb9a99; stroke-width: 1.5; stroke-linecap: square"/>
   </g>
   <g id="line2d_54">
    <path d="M 138.436364 349.637323 
L 149.881443 349.011399 
L 161.452292 349.463026 
L 184.468219 348.56324 
L 199.812171 348.537039 
L 207.484147 348.419003 
L 219.054996 350.77616 
L 257.289106 351.287448 
L 276.280391 351.250191 
L 306.968295 350.864704 
L 310.867168 350.787543 
L 322.186476 351.421484 
L 333.631555 350.545489 
L 349.101277 350.380745 
L 360.672126 350.529977 
L 414.124418 351.854051 
L 433.367243 352.111906 
L 441.039219 352.086671 
L 460.030503 351.73824 
L 479.273328 351.284059 
L 502.037716 350.962887 
L 517.381668 350.702082 
L 540.523366 349.532308 
L 555.741548 349.381739 
L 567.312397 349.338057 
L 586.555222 348.920728 
L 597.87453 348.411182 
L 613.218482 347.135525 
L 639.881743 344.208819 
L 643.780616 343.722995 
L 659.124568 342.910772 
L 670.695417 342.438537 
L 693.459805 341.272844 
L 701.131781 341.0963 
L 716.601503 341.573493 
L 728.172352 341.675898 
L 735.718557 341.632583 
L 747.163636 341.201714 
L 747.163636 341.201714 
" clip-path="url(#p0d7ca1ac18)" style="fill: none; stroke: #e31a1c; stroke-width: 1.5; stroke-linecap: square"/>
   </g>
   <g id="line2d_55">
    <path d="M 138.436364 367.735472 
L 173.02314 367.754706 
L 211.38302 367.427149 
L 379.663411 367.748684 
L 391.23426 366.786342 
L 402.805109 367.91587 
L 417.897521 368.022977 
L 433.367243 367.974642 
L 448.711195 367.948592 
L 483.046431 367.326645 
L 532.85139 367.184328 
L 548.069572 367.0088 
L 593.975657 366.650611 
L 655.225695 366.057581 
L 693.459805 364.255049 
L 716.601503 363.647861 
L 747.163636 363.20094 
L 747.163636 363.20094 
" clip-path="url(#p0d7ca1ac18)" style="fill: none; stroke: #fdbf6f; stroke-width: 1.5; stroke-linecap: square"/>
   </g>
   <g id="line2d_56">
    <path d="M 138.436364 369.36 
L 747.163636 369.359993 
L 747.163636 369.359993 
" clip-path="url(#p0d7ca1ac18)" style="fill: none; stroke: #ff7f00; stroke-width: 1.5; stroke-linecap: square"/>
   </g>
   <g id="line2d_57">
    <path d="M 138.436364 369.194678 
L 184.468219 369.220711 
L 226.475432 369.315832 
L 238.046281 369.36 
L 747.163636 369.36 
L 747.163636 369.36 
" clip-path="url(#p0d7ca1ac18)" style="fill: none; stroke: #cab2d6; stroke-width: 1.5; stroke-linecap: square"/>
   </g>
   <g id="line2d_58">
    <path d="M 138.436364 369.36 
L 414.124418 369.36 
L 425.569497 360.995349 
L 437.140346 359.589535 
L 456.13163 359.767155 
L 467.702479 359.690093 
L 475.374455 359.528113 
L 486.945304 359.267308 
L 536.624493 359.140779 
L 544.422239 359.320795 
L 574.984373 360.491984 
L 586.555222 360.01156 
L 597.87453 361.229133 
L 613.218482 361.577535 
L 624.789331 361.803923 
L 632.461307 362.06473 
L 651.452592 362.203294 
L 685.787829 362.812056 
L 693.459805 362.922601 
L 712.70263 363.07905 
L 747.163636 363.380795 
L 747.163636 363.380795 
" clip-path="url(#p0d7ca1ac18)" style="fill: none; stroke: #6a3d9a; stroke-width: 1.5; stroke-linecap: square"/>
   </g>
   <g id="line2d_59">
    <path d="M 138.436364 369.36 
L 586.555222 369.36 
L 597.87453 369.011712 
L 609.319609 369.33219 
L 747.163636 369.28117 
L 747.163636 369.28117 
" clip-path="url(#p0d7ca1ac18)" style="fill: none; stroke: #ffff99; stroke-width: 1.5; stroke-linecap: square"/>
   </g>
   <g id="line2d_60">
    <path d="M 138.436364 367.027693 
L 153.780316 366.790787 
L 199.812171 366.639341 
L 207.484147 366.525344 
L 222.953869 366.888138 
L 238.046281 366.906954 
L 272.381518 366.831618 
L 395.133133 366.450236 
L 410.225545 366.314158 
L 433.367243 366.131815 
L 448.711195 366.037454 
L 517.381668 365.825763 
L 528.952517 364.381365 
L 548.069572 365.049726 
L 559.640421 365.423381 
L 574.984373 365.877233 
L 601.647633 366.191523 
L 613.218482 366.4498 
L 632.461307 366.645965 
L 643.780616 367.49883 
L 663.023441 367.968245 
L 678.367393 368.137109 
L 716.601503 368.351071 
L 739.49166 368.34873 
L 747.163636 368.350259 
L 747.163636 368.350259 
" clip-path="url(#p0d7ca1ac18)" style="fill: none; stroke: #b15928; stroke-width: 1.5; stroke-linecap: square"/>
   </g>
   <g id="line2d_61">
    <path d="M 138.436364 369.36 
L 513.608565 369.255022 
L 574.984373 369.198799 
L 590.454095 368.005978 
L 597.87453 367.318867 
L 617.117355 366.116238 
L 628.562434 365.560823 
L 647.553719 364.819267 
L 666.796544 364.239145 
L 697.358678 363.162378 
L 716.601503 362.325695 
L 735.718557 361.397872 
L 747.163636 360.74149 
L 747.163636 360.74149 
" clip-path="url(#p0d7ca1ac18)" style="fill: none; stroke: #a6cee3; stroke-width: 1.5; stroke-linecap: square"/>
   </g>
   <g id="line2d_62">
    <path d="M 138.436364 369.228206 
L 207.484147 369.274009 
L 720.374606 369.140098 
L 731.819684 369.193155 
L 747.163636 369.226936 
L 747.163636 369.226936 
" clip-path="url(#p0d7ca1ac18)" style="fill: none; stroke: #1f78b4; stroke-width: 1.5; stroke-linecap: square"/>
   </g>
   <g id="line2d_63">
    <path d="M 138.436364 366.104922 
L 161.452292 366.023183 
L 173.02314 366.800468 
L 195.913298 366.781757 
L 207.484147 367.242925 
L 226.475432 366.832588 
L 238.046281 366.605956 
L 241.819384 366.518016 
L 261.062209 366.563616 
L 280.053494 366.343697 
L 325.959579 365.806256 
L 352.87438 366.084324 
L 360.672126 366.007187 
L 375.890308 365.750534 
L 391.23426 365.559664 
L 406.703982 365.071973 
L 417.897521 364.955147 
L 448.711195 364.956798 
L 463.803606 364.693036 
L 498.516153 364.895575 
L 513.608565 365.026815 
L 528.952517 365.242857 
L 540.523366 365.76529 
L 605.546506 365.890235 
L 628.562434 365.866183 
L 643.780616 365.808641 
L 747.163636 364.674048 
L 747.163636 364.674048 
" clip-path="url(#p0d7ca1ac18)" style="fill: none; stroke: #b2df8a; stroke-width: 1.5; stroke-linecap: square"/>
   </g>
   <g id="line2d_64">
    <path d="M 138.436364 369.36 
L 747.163636 369.36 
L 747.163636 369.36 
" clip-path="url(#p0d7ca1ac18)" style="fill: none; stroke: #33a02c; stroke-width: 1.5; stroke-linecap: square"/>
   </g>
   <g id="line2d_65">
    <path d="M 138.436364 369.36 
L 544.422239 369.289231 
L 555.741548 369.16765 
L 597.87453 369.36 
L 613.218482 369.124386 
L 724.273479 369.138536 
L 739.49166 369.359993 
L 747.163636 369.359993 
L 747.163636 369.359993 
" clip-path="url(#p0d7ca1ac18)" style="fill: none; stroke: #fb9a99; stroke-width: 1.5; stroke-linecap: square"/>
   </g>
   <g id="line2d_66">
    <path d="M 138.436364 368.810505 
L 169.124267 368.990376 
L 180.569346 369.061718 
L 195.913298 369.018329 
L 207.484147 368.832242 
L 222.953869 368.969188 
L 234.147408 368.875651 
L 257.289106 368.81243 
L 264.961082 368.490745 
L 280.053494 369.012244 
L 295.523216 369.077054 
L 299.296319 369.066592 
L 310.867168 364.653377 
L 322.186476 364.474358 
L 333.631555 369.36 
L 747.163636 369.36 
L 747.163636 369.36 
" clip-path="url(#p0d7ca1ac18)" style="fill: none; stroke: #e31a1c; stroke-width: 1.5; stroke-linecap: square"/>
   </g>
   <g id="line2d_67">
    <path d="M 138.436364 369.36 
L 747.163636 369.36 
L 747.163636 369.36 
" clip-path="url(#p0d7ca1ac18)" style="fill: none; stroke: #fdbf6f; stroke-width: 1.5; stroke-linecap: square"/>
   </g>
   <g id="line2d_68">
    <path d="M 138.436364 369.36 
L 747.163636 369.36 
L 747.163636 369.36 
" clip-path="url(#p0d7ca1ac18)" style="fill: none; stroke: #ff7f00; stroke-width: 1.5; stroke-linecap: square"/>
   </g>
   <g id="line2d_69">
    <path d="M 138.436364 369.36 
L 705.030654 369.290672 
L 716.601503 369.15756 
L 743.390533 369.062485 
L 747.163636 369.014948 
L 747.163636 369.014948 
" clip-path="url(#p0d7ca1ac18)" style="fill: none; stroke: #cab2d6; stroke-width: 1.5; stroke-linecap: square"/>
   </g>
   <g id="line2d_70">
    <path d="M 138.436364 274.877817 
L 149.881443 272.29028 
L 161.452292 268.818425 
L 176.922014 269.140674 
L 184.468219 269.381698 
L 195.913298 266.718037 
L 207.484147 264.393603 
L 219.054996 264.492211 
L 230.374305 261.590986 
L 241.819384 262.059438 
L 253.390233 261.217551 
L 264.961082 250.567804 
L 268.859955 246.798763 
L 272.381518 243.029722 
L 276.280391 239.260681 
L 287.72547 240.719909 
L 299.296319 243.410263 
L 310.867168 241.124238 
L 322.186476 241.175461 
L 333.631555 237.182799 
L 345.202404 237.041268 
L 360.672126 234.078346 
L 379.663411 230.053178 
L 391.23426 228.230236 
L 402.805109 221.124064 
L 414.124418 220.773468 
L 425.569497 233.134133 
L 437.140346 230.525599 
L 441.039219 243.859392 
L 444.812322 257.193185 
L 448.711195 270.526978 
L 460.030503 267.824123 
L 471.475582 267.453097 
L 483.046431 266.033984 
L 494.61728 263.536848 
L 498.516153 259.861888 
L 502.037716 256.186928 
L 505.936589 252.511968 
L 517.381668 248.889956 
L 528.952517 254.212997 
L 540.523366 245.217983 
L 544.422239 247.64956 
L 548.069572 250.081138 
L 551.968445 252.512716 
L 563.413524 250.967446 
L 574.984373 252.048965 
L 586.555222 252.427762 
L 597.87453 253.841673 
L 609.319609 248.425661 
L 620.890458 249.494374 
L 632.461307 251.604202 
L 643.780616 251.938458 
L 655.225695 248.175974 
L 666.796544 245.553037 
L 670.695417 235.238654 
L 674.46852 224.924271 
L 678.367393 214.609888 
L 682.266266 212.24833 
L 685.787829 209.886772 
L 689.686702 207.525214 
L 693.459805 217.410319 
L 697.358678 227.295424 
L 701.131781 237.180529 
L 708.929527 215.353606 
L 712.70263 204.440144 
L 724.273479 190.792284 
L 735.718557 185.684808 
L 747.163636 175.078224 
L 747.163636 175.078224 
" clip-path="url(#p0d7ca1ac18)" style="fill: none; stroke: #6a3d9a; stroke-width: 1.5; stroke-linecap: square"/>
   </g>
   <g id="line2d_71">
    <path d="M 138.436364 369.293475 
L 747.163636 369.211881 
L 747.163636 369.211881 
" clip-path="url(#p0d7ca1ac18)" style="fill: none; stroke: #ffff99; stroke-width: 1.5; stroke-linecap: square"/>
   </g>
   <g id="line2d_72">
    <path d="M 138.436364 361.943391 
L 153.780316 361.2666 
L 161.452292 361.053131 
L 176.922014 360.27296 
L 238.046281 358.043491 
L 241.819384 357.976623 
L 253.390233 357.02618 
L 264.961082 358.026076 
L 341.429301 361.086465 
L 356.773253 361.567996 
L 368.218332 362.563967 
L 379.663411 363.053496 
L 398.906236 364.426254 
L 406.703982 364.971532 
L 429.46837 366.817357 
L 448.711195 367.418861 
L 486.945304 367.885103 
L 494.61728 367.866418 
L 498.516153 366.343864 
L 502.037716 364.821311 
L 505.936589 363.298758 
L 525.179414 363.057134 
L 540.523366 363.028153 
L 571.21127 363.567169 
L 578.883246 363.704008 
L 597.87453 363.74154 
L 613.218482 363.64892 
L 685.787829 362.373858 
L 708.929527 361.988884 
L 728.172352 361.594469 
L 743.390533 360.896702 
L 747.163636 360.692146 
L 747.163636 360.692146 
" clip-path="url(#p0d7ca1ac18)" style="fill: none; stroke: #b15928; stroke-width: 1.5; stroke-linecap: square"/>
   </g>
   <g id="line2d_73">
    <path d="M 138.436364 316.08913 
L 153.780316 316.182673 
L 165.351165 315.920691 
L 180.569346 315.394069 
L 184.468219 315.284404 
L 199.812171 314.445181 
L 207.484147 314.164953 
L 230.374305 312.477819 
L 249.61713 314.306414 
L 253.390233 314.706352 
L 276.280391 292.210624 
L 287.72547 294.232544 
L 299.296319 298.003111 
L 310.867168 296.272959 
L 325.959579 297.098484 
L 337.530428 297.520443 
L 345.202404 297.934156 
L 368.218332 297.639412 
L 391.23426 296.453162 
L 402.805109 290.966786 
L 414.124418 292.290759 
L 425.569497 293.999994 
L 437.140346 294.67191 
L 441.039219 307.16479 
L 444.812322 319.65767 
L 448.711195 332.15055 
L 460.030503 331.95017 
L 475.374455 332.172016 
L 483.046431 332.183997 
L 498.516153 331.083626 
L 505.936589 330.400061 
L 517.381668 328.856532 
L 528.952517 327.91452 
L 540.523366 326.638592 
L 551.968445 326.138013 
L 567.312397 324.191178 
L 586.555222 321.173258 
L 597.87453 319.284561 
L 613.218482 319.607039 
L 624.789331 319.969226 
L 643.780616 320.344118 
L 655.225695 319.564097 
L 666.796544 317.948101 
L 670.695417 307.873265 
L 674.46852 297.798429 
L 678.367393 287.723593 
L 682.266266 285.726952 
L 685.787829 283.730312 
L 689.686702 281.733671 
L 693.459805 292.120497 
L 697.358678 302.507323 
L 701.131781 312.894148 
L 708.929527 291.877069 
L 712.70263 281.368529 
L 724.273479 268.258025 
L 735.718557 262.562804 
L 747.163636 253.643274 
L 747.163636 253.643274 
" clip-path="url(#p0d7ca1ac18)" style="fill: none; stroke: #a6cee3; stroke-width: 1.5; stroke-linecap: square"/>
   </g>
   <g id="line2d_74">
    <path d="M 138.436364 367.815209 
L 153.780316 367.554126 
L 211.38302 367.421533 
L 222.953869 367.564506 
L 257.289106 367.404507 
L 310.867168 367.003424 
L 325.959579 366.898528 
L 356.773253 366.26761 
L 375.890308 364.671209 
L 383.562284 364.041039 
L 395.133133 363.274392 
L 414.124418 362.411139 
L 433.367243 361.913172 
L 437.140346 361.841126 
L 456.13163 362.123521 
L 479.273328 362.503002 
L 486.945304 362.533061 
L 502.037716 362.522289 
L 513.608565 362.645793 
L 521.280541 362.680897 
L 540.523366 362.67319 
L 559.640421 362.905854 
L 593.975657 363.426554 
L 628.562434 363.922248 
L 739.49166 365.555618 
L 747.163636 365.568436 
L 747.163636 365.568436 
" clip-path="url(#p0d7ca1ac18)" style="fill: none; stroke: #1f78b4; stroke-width: 1.5; stroke-linecap: square"/>
   </g>
   <g id="line2d_75">
    <path d="M 138.436364 362.932578 
L 157.679189 362.215084 
L 165.351165 361.887304 
L 188.241322 360.69359 
L 203.711044 360.020371 
L 207.484147 359.826417 
L 219.054996 360.639356 
L 253.390233 359.803076 
L 272.381518 360.05606 
L 283.952367 360.195557 
L 314.766041 360.363534 
L 379.663411 360.240657 
L 391.23426 361.238869 
L 402.805109 361.583116 
L 417.897521 361.647397 
L 437.140346 361.954332 
L 471.475582 362.386754 
L 517.381668 360.529284 
L 532.85139 360.42045 
L 601.647633 361.154608 
L 632.461307 361.057622 
L 663.023441 360.700161 
L 682.266266 360.602706 
L 701.131781 360.233619 
L 716.601503 359.82625 
L 747.163636 359.448432 
L 747.163636 359.448432 
" clip-path="url(#p0d7ca1ac18)" style="fill: none; stroke: #b2df8a; stroke-width: 1.5; stroke-linecap: square"/>
   </g>
   <g id="line2d_76">
    <path d="M 138.436364 369.236549 
L 291.624343 369.067252 
L 528.952517 368.611845 
L 663.023441 368.22698 
L 678.367393 368.182151 
L 747.163636 367.836917 
L 747.163636 367.836917 
" clip-path="url(#p0d7ca1ac18)" style="fill: none; stroke: #33a02c; stroke-width: 1.5; stroke-linecap: square"/>
   </g>
   <g id="line2d_77">
    <path d="M 138.436364 368.081649 
L 176.922014 367.763611 
L 192.140195 367.68502 
L 207.484147 367.557294 
L 219.054996 367.606195 
L 230.374305 369.36 
L 747.163636 369.36 
L 747.163636 369.36 
" clip-path="url(#p0d7ca1ac18)" style="fill: none; stroke: #fb9a99; stroke-width: 1.5; stroke-linecap: square"/>
   </g>
   <g id="line2d_78">
    <path d="M 138.436364 366.623763 
L 180.569346 366.759009 
L 222.953869 366.631611 
L 268.859955 366.573969 
L 280.053494 366.503541 
L 299.296319 366.252664 
L 322.186476 366.062993 
L 333.631555 360.886199 
L 349.101277 359.881737 
L 356.773253 359.544196 
L 368.218332 358.568751 
L 391.23426 355.997683 
L 402.805109 355.541536 
L 414.124418 355.699508 
L 425.569497 365.663678 
L 441.039219 365.284996 
L 460.030503 365.255249 
L 498.516153 365.494828 
L 559.640421 365.646644 
L 578.883246 365.75563 
L 586.555222 365.686539 
L 601.647633 365.950488 
L 639.881743 365.997465 
L 666.796544 365.972112 
L 739.49166 365.912944 
L 747.163636 365.88993 
L 747.163636 365.88993 
" clip-path="url(#p0d7ca1ac18)" style="fill: none; stroke: #e31a1c; stroke-width: 1.5; stroke-linecap: square"/>
   </g>
   <g id="line2d_79">
    <path d="M 138.436364 369.351722 
L 747.163636 369.36 
L 747.163636 369.36 
" clip-path="url(#p0d7ca1ac18)" style="fill: none; stroke: #fdbf6f; stroke-width: 1.5; stroke-linecap: square"/>
   </g>
   <g id="line2d_80">
    <path d="M 138.436364 368.709365 
L 192.140195 368.680812 
L 211.38302 368.733839 
L 222.953869 368.933789 
L 264.961082 369.041764 
L 448.711195 368.824479 
L 517.381668 368.719217 
L 528.952517 367.916255 
L 551.968445 367.37921 
L 567.312397 367.34844 
L 578.883246 367.117498 
L 590.454095 366.843759 
L 613.218482 366.646934 
L 620.890458 366.705611 
L 655.225695 365.703923 
L 716.601503 365.781317 
L 724.273479 365.969493 
L 739.49166 365.663138 
L 747.163636 365.653905 
L 747.163636 365.653905 
" clip-path="url(#p0d7ca1ac18)" style="fill: none; stroke: #ff7f00; stroke-width: 1.5; stroke-linecap: square"/>
   </g>
   <g id="line2d_81">
    <path d="M 138.436364 369.206606 
L 345.202404 368.932294 
L 371.991435 368.772172 
L 395.133133 368.56808 
L 448.711195 368.240796 
L 517.381668 367.841611 
L 528.952517 368.313503 
L 574.984373 368.032711 
L 624.789331 367.829708 
L 643.780616 367.708656 
L 655.225695 366.25833 
L 678.367393 365.714806 
L 705.030654 365.55296 
L 747.163636 365.494395 
L 747.163636 365.494395 
" clip-path="url(#p0d7ca1ac18)" style="fill: none; stroke: #cab2d6; stroke-width: 1.5; stroke-linecap: square"/>
   </g>
   <g id="line2d_82">
    <path d="M 138.436364 368.768337 
L 180.569346 368.850477 
L 226.475432 368.774211 
L 329.858452 368.24773 
L 402.805109 367.851029 
L 414.124418 366.775488 
L 467.702479 366.992108 
L 521.280541 366.587336 
L 544.422239 366.42933 
L 574.984373 366.371914 
L 609.319609 368.472897 
L 624.789331 368.967205 
L 636.36018 369.121321 
L 720.374606 369.130013 
L 747.163636 369.136497 
L 747.163636 369.136497 
" clip-path="url(#p0d7ca1ac18)" style="fill: none; stroke: #6a3d9a; stroke-width: 1.5; stroke-linecap: square"/>
   </g>
   <g id="line2d_83">
    <path d="M 138.436364 369.313602 
L 578.883246 369.316047 
L 712.70263 369.317904 
L 724.273479 368.928688 
L 747.163636 368.864565 
L 747.163636 368.864565 
" clip-path="url(#p0d7ca1ac18)" style="fill: none; stroke: #ffff99; stroke-width: 1.5; stroke-linecap: square"/>
   </g>
   <g id="line2d_84">
    <path d="M 138.436364 359.171755 
L 161.452292 358.220281 
L 173.02314 361.358504 
L 195.913298 360.554598 
L 211.38302 360.829994 
L 219.054996 360.805635 
L 230.374305 358.66035 
L 241.819384 358.736656 
L 253.390233 359.306604 
L 280.053494 358.475916 
L 295.523216 358.081928 
L 306.968295 357.774892 
L 322.186476 357.320691 
L 333.631555 358.460072 
L 345.202404 358.662404 
L 356.773253 357.863417 
L 368.218332 357.624257 
L 379.663411 358.362661 
L 417.897521 357.747091 
L 425.569497 357.956714 
L 437.140346 357.788309 
L 448.711195 358.425319 
L 471.475582 358.791651 
L 486.945304 358.569443 
L 498.516153 358.470982 
L 513.608565 358.039155 
L 517.381668 357.902205 
L 528.952517 357.826262 
L 540.523366 358.669042 
L 563.413524 358.601081 
L 597.87453 358.102461 
L 617.117355 357.159856 
L 624.789331 356.896325 
L 636.36018 356.499208 
L 663.023441 355.04279 
L 674.46852 354.59444 
L 678.367393 354.457841 
L 697.358678 353.011435 
L 712.70263 352.101192 
L 728.172352 351.385088 
L 747.163636 350.186034 
L 747.163636 350.186034 
" clip-path="url(#p0d7ca1ac18)" style="fill: none; stroke: #b15928; stroke-width: 1.5; stroke-linecap: square"/>
   </g>
   <g id="line2d_85">
    <path d="M 138.436364 369.331087 
L 747.163636 369.355835 
L 747.163636 369.355835 
" clip-path="url(#p0d7ca1ac18)" style="fill: none; stroke: #a6cee3; stroke-width: 1.5; stroke-linecap: square"/>
   </g>
   <g id="line2d_86">
    <path d="M 138.436364 369.36 
L 375.890308 369.253781 
L 383.562284 369.229937 
L 410.225545 369.322243 
L 417.897521 369.288484 
L 429.46837 369.203012 
L 452.610068 369.282771 
L 490.718407 369.287671 
L 643.780616 369.36 
L 747.163636 369.36 
L 747.163636 369.36 
" clip-path="url(#p0d7ca1ac18)" style="fill: none; stroke: #1f78b4; stroke-width: 1.5; stroke-linecap: square"/>
   </g>
   <g id="line2d_87">
    <path d="M 138.436364 369.141591 
L 226.475432 369.258449 
L 341.429301 369.205934 
L 349.101277 369.133634 
L 364.319459 368.967785 
L 398.906236 368.897758 
L 421.796394 368.84624 
L 471.475582 368.758701 
L 490.718407 368.923401 
L 551.968445 369.00146 
L 563.413524 368.80174 
L 574.984373 369.36 
L 747.163636 369.36 
L 747.163636 369.36 
" clip-path="url(#p0d7ca1ac18)" style="fill: none; stroke: #b2df8a; stroke-width: 1.5; stroke-linecap: square"/>
   </g>
   <g id="line2d_88">
    <path d="M 138.436364 369.36 
L 371.991435 369.304392 
L 383.562284 369.248784 
L 398.906236 369.36 
L 747.163636 369.36 
L 747.163636 369.36 
" clip-path="url(#p0d7ca1ac18)" style="fill: none; stroke: #33a02c; stroke-width: 1.5; stroke-linecap: square"/>
   </g>
   <g id="line2d_89">
    <path d="M 138.436364 359.628011 
L 149.881443 358.61692 
L 161.452292 356.548093 
L 173.02314 355.525451 
L 184.468219 357.720522 
L 199.812171 356.887991 
L 207.484147 356.326201 
L 219.054996 356.344528 
L 230.374305 355.629015 
L 241.819384 355.554821 
L 253.390233 354.396271 
L 264.961082 354.618134 
L 287.72547 353.727628 
L 299.296319 352.652929 
L 337.530428 351.189732 
L 352.87438 350.76562 
L 356.773253 350.638075 
L 368.218332 349.901274 
L 379.663411 349.72483 
L 391.23426 348.958827 
L 402.805109 347.581142 
L 417.897521 346.772868 
L 425.569497 346.553291 
L 437.140346 343.343095 
L 448.711195 344.736814 
L 460.030503 341.550249 
L 490.718407 338.725796 
L 494.61728 338.360528 
L 498.516153 336.806152 
L 502.037716 335.251777 
L 505.936589 333.697401 
L 517.381668 332.690736 
L 528.952517 339.804759 
L 540.523366 331.573477 
L 544.422239 334.075983 
L 548.069572 336.57849 
L 551.968445 339.080996 
L 563.413524 338.610781 
L 578.883246 341.216259 
L 586.555222 342.38967 
L 597.87453 344.845602 
L 609.319609 339.382357 
L 620.890458 340.121167 
L 632.461307 342.62719 
L 643.780616 344.051578 
L 670.695417 343.653384 
L 682.266266 343.686055 
L 689.686702 343.79166 
L 705.030654 343.485197 
L 712.70263 343.442951 
L 724.273479 343.725368 
L 735.718557 345.914663 
L 747.163636 345.775976 
L 747.163636 345.775976 
" clip-path="url(#p0d7ca1ac18)" style="fill: none; stroke: #fb9a99; stroke-width: 1.5; stroke-linecap: square"/>
   </g>
   <g id="line2d_90">
    <path d="M 138.436364 359.848132 
L 176.922014 358.306553 
L 188.241322 358.139028 
L 203.711044 357.980662 
L 207.484147 357.919117 
L 219.054996 358.277461 
L 230.374305 358.185593 
L 253.390233 356.696313 
L 264.961082 358.333154 
L 287.72547 358.75409 
L 299.296319 357.95543 
L 314.766041 357.944801 
L 352.87438 357.295655 
L 364.319459 357.230279 
L 379.663411 357.199657 
L 391.23426 357.705235 
L 402.805109 357.690165 
L 414.124418 359.104809 
L 452.610068 358.407824 
L 471.475582 357.92955 
L 483.046431 358.273405 
L 494.61728 358.157479 
L 498.516153 359.565075 
L 502.037716 360.972671 
L 505.936589 362.380267 
L 532.85139 361.862135 
L 544.422239 361.837503 
L 597.87453 362.374347 
L 609.319609 362.383692 
L 620.890458 368.970414 
L 647.553719 368.949385 
L 663.023441 368.649757 
L 682.266266 368.222549 
L 747.163636 367.373079 
L 747.163636 367.373079 
" clip-path="url(#p0d7ca1ac18)" style="fill: none; stroke: #e31a1c; stroke-width: 1.5; stroke-linecap: square"/>
   </g>
   <g id="line2d_91">
    <path d="M 138.436364 364.934103 
L 184.468219 363.551238 
L 211.38302 363.70551 
L 219.054996 363.995523 
L 230.374305 363.98818 
L 245.718257 363.278312 
L 253.390233 362.824298 
L 264.961082 364.362523 
L 287.72547 364.468307 
L 299.296319 363.557841 
L 383.562284 363.813096 
L 391.23426 364.136343 
L 433.367243 364.122959 
L 471.475582 364.014068 
L 483.046431 364.66019 
L 494.61728 364.803492 
L 498.516153 366.307082 
L 502.037716 367.810672 
L 505.936589 369.314262 
L 636.36018 369.36 
L 747.163636 369.36 
L 747.163636 369.36 
" clip-path="url(#p0d7ca1ac18)" style="fill: none; stroke: #fdbf6f; stroke-width: 1.5; stroke-linecap: square"/>
   </g>
   <g id="line2d_92">
    <path d="M 138.436364 369.36 
L 310.867168 369.282832 
L 337.530428 368.850369 
L 356.773253 368.704939 
L 441.039219 368.973984 
L 505.936589 368.931373 
L 559.640421 368.936132 
L 647.553719 368.949385 
L 663.023441 368.649757 
L 682.266266 368.222549 
L 747.163636 367.373079 
L 747.163636 367.373079 
" clip-path="url(#p0d7ca1ac18)" style="fill: none; stroke: #ff7f00; stroke-width: 1.5; stroke-linecap: square"/>
   </g>
   <g id="line2d_93">
    <path d="M 138.436364 369.359869 
L 747.163636 369.36 
L 747.163636 369.36 
" clip-path="url(#p0d7ca1ac18)" style="fill: none; stroke: #cab2d6; stroke-width: 1.5; stroke-linecap: square"/>
   </g>
   <g id="line2d_94">
    <path d="M 138.436364 364.274159 
L 176.922014 363.955425 
L 192.140195 363.891882 
L 261.062209 363.297759 
L 280.053494 363.562746 
L 314.766041 363.868994 
L 333.631555 363.787692 
L 402.805109 363.365493 
L 414.124418 364.756927 
L 437.140346 364.381902 
L 460.030503 363.951954 
L 521.280541 362.527298 
L 536.624493 362.307721 
L 544.422239 362.306359 
L 609.319609 362.802104 
L 620.890458 369.36 
L 747.163636 369.36 
L 747.163636 369.36 
" clip-path="url(#p0d7ca1ac18)" style="fill: none; stroke: #6a3d9a; stroke-width: 1.5; stroke-linecap: square"/>
   </g>
   <g id="line2d_95">
    <path d="M 138.436364 255.690074 
L 149.881443 253.677244 
L 161.452292 247.99855 
L 173.02314 246.362442 
L 188.241322 241.865588 
L 195.913298 239.801934 
L 207.484147 235.97981 
L 219.054996 241.554709 
L 222.953869 240.291171 
L 226.475432 239.027633 
L 230.374305 237.764095 
L 241.819384 236.530205 
L 253.390233 231.666133 
L 264.961082 228.710333 
L 268.859955 230.796114 
L 272.381518 232.881894 
L 276.280391 234.967675 
L 287.72547 235.967048 
L 299.296319 238.360736 
L 310.867168 235.225553 
L 322.186476 236.149906 
L 333.631555 235.015335 
L 345.202404 231.814274 
L 356.773253 234.593514 
L 360.672126 230.60474 
L 364.319459 226.615967 
L 368.218332 222.627194 
L 379.663411 216.378668 
L 391.23426 215.905747 
L 402.805109 210.269301 
L 414.124418 208.278042 
L 425.569497 208.331238 
L 437.140346 203.146267 
L 448.711195 205.934017 
L 452.610068 203.757919 
L 456.13163 201.581821 
L 460.030503 199.405723 
L 471.475582 209.782202 
L 483.046431 206.59201 
L 494.61728 206.126764 
L 505.936589 203.082949 
L 517.381668 199.766919 
L 528.952517 204.618997 
L 540.523366 198.716873 
L 544.422239 204.285803 
L 548.069572 209.854732 
L 551.968445 215.423662 
L 563.413524 214.610868 
L 574.984373 217.081281 
L 586.555222 218.713464 
L 597.87453 220.76585 
L 609.319609 234.443864 
L 620.890458 233.666621 
L 632.461307 237.493563 
L 643.780616 237.240886 
L 655.225695 228.884078 
L 666.796544 229.514029 
L 678.367393 230.708543 
L 689.686702 229.726844 
L 701.131781 229.487409 
L 712.70263 219.720535 
L 735.718557 210.378306 
L 747.163636 207.40632 
L 747.163636 207.40632 
" clip-path="url(#p0d7ca1ac18)" style="fill: none; stroke: #ffff99; stroke-width: 1.5; stroke-linecap: square"/>
   </g>
   <g id="line2d_96">
    <path d="M 138.436364 283.716768 
L 149.881443 283.132331 
L 161.452292 280.132361 
L 173.02314 278.723246 
L 184.468219 276.859347 
L 203.711044 273.195442 
L 207.484147 272.41688 
L 219.054996 272.791091 
L 230.374305 271.759163 
L 241.819384 267.547301 
L 253.390233 269.050489 
L 264.961082 258.781557 
L 268.859955 261.666723 
L 272.381518 264.551889 
L 276.280391 267.437055 
L 287.72547 265.389123 
L 299.296319 267.416653 
L 310.867168 264.607093 
L 322.186476 264.509972 
L 333.631555 263.311249 
L 345.202404 261.190698 
L 356.773253 261.988611 
L 368.218332 256.841266 
L 379.663411 254.885566 
L 391.23426 253.254588 
L 402.805109 254.392293 
L 414.124418 253.554635 
L 425.569497 250.297729 
L 437.140346 245.610115 
L 448.711195 244.09008 
L 452.610068 242.241345 
L 456.13163 240.392611 
L 460.030503 238.543877 
L 471.475582 235.949113 
L 483.046431 234.139013 
L 494.61728 240.764211 
L 498.516153 244.541823 
L 502.037716 248.319435 
L 505.936589 252.097046 
L 517.381668 249.481213 
L 528.952517 230.801623 
L 540.523366 251.790839 
L 544.422239 255.04489 
L 548.069572 258.29894 
L 551.968445 261.55299 
L 563.413524 260.438524 
L 571.21127 245.723017 
L 574.984373 238.365263 
L 586.555222 243.716651 
L 597.87453 245.656158 
L 609.319609 256.608455 
L 620.890458 254.630582 
L 632.461307 251.78661 
L 655.225695 248.280596 
L 666.796544 242.773442 
L 678.367393 244.261285 
L 689.686702 244.738785 
L 701.131781 244.494829 
L 712.70263 234.794067 
L 724.273479 229.67565 
L 735.718557 227.302539 
L 747.163636 227.5077 
L 747.163636 227.5077 
" clip-path="url(#p0d7ca1ac18)" style="fill: none; stroke: #b15928; stroke-width: 1.5; stroke-linecap: square"/>
   </g>
   <g id="patch_3">
    <path d="M 108 384.48 
L 108 51.84 
" style="fill: none; stroke: #000000; stroke-width: 0.8; stroke-linejoin: miter; stroke-linecap: square"/>
   </g>
   <g id="patch_4">
    <path d="M 777.6 384.48 
L 777.6 51.84 
" style="fill: none; stroke: #000000; stroke-width: 0.8; stroke-linejoin: miter; stroke-linecap: square"/>
   </g>
   <g id="patch_5">
    <path d="M 108 384.48 
L 777.6 384.48 
" style="fill: none; stroke: #000000; stroke-width: 0.8; stroke-linejoin: miter; stroke-linecap: square"/>
   </g>
   <g id="patch_6">
    <path d="M 108 51.84 
L 777.6 51.84 
" style="fill: none; stroke: #000000; stroke-width: 0.8; stroke-linejoin: miter; stroke-linecap: square"/>
   </g>
   <g id="text_14">
    <!-- Nmero de Tarjetas de Crdito (10 Ms Usadas) -->
    <g transform="translate(254.274687 45.84) scale(0.14 -0.14)">
     <defs>
      <path id="DejaVuSans-Bold-4e" d="M 588 4666 
L 1931 4666 
L 3628 1466 
L 3628 4666 
L 4769 4666 
L 4769 0 
L 3425 0 
L 1728 3200 
L 1728 0 
L 588 0 
L 588 4666 
z
" transform="scale(0.015625)"/>
      <path id="DejaVuSans-Bold-fa" d="M 500 1363 
L 500 3500 
L 1625 3500 
L 1625 3150 
Q 1625 2866 1622 2436 
Q 1619 2006 1619 1863 
Q 1619 1441 1641 1255 
Q 1663 1069 1716 984 
Q 1784 875 1895 815 
Q 2006 756 2150 756 
Q 2500 756 2700 1025 
Q 2900 1294 2900 1772 
L 2900 3500 
L 4019 3500 
L 4019 0 
L 2900 0 
L 2900 506 
Q 2647 200 2364 54 
Q 2081 -91 1741 -91 
Q 1134 -91 817 281 
Q 500 653 500 1363 
z
M 2778 5119 
L 3663 5119 
L 2509 3944 
L 1897 3944 
L 2778 5119 
z
" transform="scale(0.015625)"/>
      <path id="DejaVuSans-Bold-6d" d="M 3781 2919 
Q 3994 3244 4286 3414 
Q 4578 3584 4928 3584 
Q 5531 3584 5847 3212 
Q 6163 2841 6163 2131 
L 6163 0 
L 5038 0 
L 5038 1825 
Q 5041 1866 5042 1909 
Q 5044 1953 5044 2034 
Q 5044 2406 4934 2573 
Q 4825 2741 4581 2741 
Q 4263 2741 4089 2478 
Q 3916 2216 3909 1719 
L 3909 0 
L 2784 0 
L 2784 1825 
Q 2784 2406 2684 2573 
Q 2584 2741 2328 2741 
Q 2006 2741 1831 2477 
Q 1656 2213 1656 1722 
L 1656 0 
L 531 0 
L 531 3500 
L 1656 3500 
L 1656 2988 
Q 1863 3284 2130 3434 
Q 2397 3584 2719 3584 
Q 3081 3584 3359 3409 
Q 3638 3234 3781 2919 
z
" transform="scale(0.015625)"/>
      <path id="DejaVuSans-Bold-65" d="M 4031 1759 
L 4031 1441 
L 1416 1441 
Q 1456 1047 1700 850 
Q 1944 653 2381 653 
Q 2734 653 3104 758 
Q 3475 863 3866 1075 
L 3866 213 
Q 3469 63 3072 -14 
Q 2675 -91 2278 -91 
Q 1328 -91 801 392 
Q 275 875 275 1747 
Q 275 2603 792 3093 
Q 1309 3584 2216 3584 
Q 3041 3584 3536 3087 
Q 4031 2591 4031 1759 
z
M 2881 2131 
Q 2881 2450 2695 2645 
Q 2509 2841 2209 2841 
Q 1884 2841 1681 2658 
Q 1478 2475 1428 2131 
L 2881 2131 
z
" transform="scale(0.015625)"/>
      <path id="DejaVuSans-Bold-72" d="M 3138 2547 
Q 2991 2616 2845 2648 
Q 2700 2681 2553 2681 
Q 2122 2681 1889 2404 
Q 1656 2128 1656 1613 
L 1656 0 
L 538 0 
L 538 3500 
L 1656 3500 
L 1656 2925 
Q 1872 3269 2151 3426 
Q 2431 3584 2822 3584 
Q 2878 3584 2943 3579 
Q 3009 3575 3134 3559 
L 3138 2547 
z
" transform="scale(0.015625)"/>
      <path id="DejaVuSans-Bold-6f" d="M 2203 2784 
Q 1831 2784 1636 2517 
Q 1441 2250 1441 1747 
Q 1441 1244 1636 976 
Q 1831 709 2203 709 
Q 2569 709 2762 976 
Q 2956 1244 2956 1747 
Q 2956 2250 2762 2517 
Q 2569 2784 2203 2784 
z
M 2203 3584 
Q 3106 3584 3614 3096 
Q 4122 2609 4122 1747 
Q 4122 884 3614 396 
Q 3106 -91 2203 -91 
Q 1297 -91 786 396 
Q 275 884 275 1747 
Q 275 2609 786 3096 
Q 1297 3584 2203 3584 
z
" transform="scale(0.015625)"/>
      <path id="DejaVuSans-Bold-20" transform="scale(0.015625)"/>
      <path id="DejaVuSans-Bold-64" d="M 2919 2988 
L 2919 4863 
L 4044 4863 
L 4044 0 
L 2919 0 
L 2919 506 
Q 2688 197 2409 53 
Q 2131 -91 1766 -91 
Q 1119 -91 703 423 
Q 288 938 288 1747 
Q 288 2556 703 3070 
Q 1119 3584 1766 3584 
Q 2128 3584 2408 3439 
Q 2688 3294 2919 2988 
z
M 2181 722 
Q 2541 722 2730 984 
Q 2919 1247 2919 1747 
Q 2919 2247 2730 2509 
Q 2541 2772 2181 2772 
Q 1825 2772 1636 2509 
Q 1447 2247 1447 1747 
Q 1447 1247 1636 984 
Q 1825 722 2181 722 
z
" transform="scale(0.015625)"/>
      <path id="DejaVuSans-Bold-54" d="M 31 4666 
L 4331 4666 
L 4331 3756 
L 2784 3756 
L 2784 0 
L 1581 0 
L 1581 3756 
L 31 3756 
L 31 4666 
z
" transform="scale(0.015625)"/>
      <path id="DejaVuSans-Bold-61" d="M 2106 1575 
Q 1756 1575 1579 1456 
Q 1403 1338 1403 1106 
Q 1403 894 1545 773 
Q 1688 653 1941 653 
Q 2256 653 2472 879 
Q 2688 1106 2688 1447 
L 2688 1575 
L 2106 1575 
z
M 3816 1997 
L 3816 0 
L 2688 0 
L 2688 519 
Q 2463 200 2181 54 
Q 1900 -91 1497 -91 
Q 953 -91 614 226 
Q 275 544 275 1050 
Q 275 1666 698 1953 
Q 1122 2241 2028 2241 
L 2688 2241 
L 2688 2328 
Q 2688 2594 2478 2717 
Q 2269 2841 1825 2841 
Q 1466 2841 1156 2769 
Q 847 2697 581 2553 
L 581 3406 
Q 941 3494 1303 3539 
Q 1666 3584 2028 3584 
Q 2975 3584 3395 3211 
Q 3816 2838 3816 1997 
z
" transform="scale(0.015625)"/>
      <path id="DejaVuSans-Bold-6a" d="M 538 3500 
L 1656 3500 
L 1656 63 
Q 1656 -641 1318 -1011 
Q 981 -1381 341 -1381 
L -213 -1381 
L -213 -647 
L -19 -647 
Q 300 -647 419 -503 
Q 538 -359 538 63 
L 538 3500 
z
M 538 4863 
L 1656 4863 
L 1656 3950 
L 538 3950 
L 538 4863 
z
" transform="scale(0.015625)"/>
      <path id="DejaVuSans-Bold-74" d="M 1759 4494 
L 1759 3500 
L 2913 3500 
L 2913 2700 
L 1759 2700 
L 1759 1216 
Q 1759 972 1856 886 
Q 1953 800 2241 800 
L 2816 800 
L 2816 0 
L 1856 0 
Q 1194 0 917 276 
Q 641 553 641 1216 
L 641 2700 
L 84 2700 
L 84 3500 
L 641 3500 
L 641 4494 
L 1759 4494 
z
" transform="scale(0.015625)"/>
      <path id="DejaVuSans-Bold-73" d="M 3272 3391 
L 3272 2541 
Q 2913 2691 2578 2766 
Q 2244 2841 1947 2841 
Q 1628 2841 1473 2761 
Q 1319 2681 1319 2516 
Q 1319 2381 1436 2309 
Q 1553 2238 1856 2203 
L 2053 2175 
Q 2913 2066 3209 1816 
Q 3506 1566 3506 1031 
Q 3506 472 3093 190 
Q 2681 -91 1863 -91 
Q 1516 -91 1145 -36 
Q 775 19 384 128 
L 384 978 
Q 719 816 1070 734 
Q 1422 653 1784 653 
Q 2113 653 2278 743 
Q 2444 834 2444 1013 
Q 2444 1163 2330 1236 
Q 2216 1309 1875 1350 
L 1678 1375 
Q 931 1469 631 1722 
Q 331 1975 331 2491 
Q 331 3047 712 3315 
Q 1094 3584 1881 3584 
Q 2191 3584 2531 3537 
Q 2872 3491 3272 3391 
z
" transform="scale(0.015625)"/>
      <path id="DejaVuSans-Bold-43" d="M 4288 256 
Q 3956 84 3597 -3 
Q 3238 -91 2847 -91 
Q 1681 -91 1000 561 
Q 319 1213 319 2328 
Q 319 3447 1000 4098 
Q 1681 4750 2847 4750 
Q 3238 4750 3597 4662 
Q 3956 4575 4288 4403 
L 4288 3438 
Q 3953 3666 3628 3772 
Q 3303 3878 2944 3878 
Q 2300 3878 1931 3465 
Q 1563 3053 1563 2328 
Q 1563 1606 1931 1193 
Q 2300 781 2944 781 
Q 3303 781 3628 887 
Q 3953 994 4288 1222 
L 4288 256 
z
" transform="scale(0.015625)"/>
      <path id="DejaVuSans-Bold-e9" d="M 4031 1759 
L 4031 1441 
L 1416 1441 
Q 1456 1047 1700 850 
Q 1944 653 2381 653 
Q 2734 653 3104 758 
Q 3475 863 3866 1075 
L 3866 213 
Q 3469 63 3072 -14 
Q 2675 -91 2278 -91 
Q 1328 -91 801 392 
Q 275 875 275 1747 
Q 275 2603 792 3093 
Q 1309 3584 2216 3584 
Q 3041 3584 3536 3087 
Q 4031 2591 4031 1759 
z
M 2881 2131 
Q 2881 2450 2695 2645 
Q 2509 2841 2209 2841 
Q 1884 2841 1681 2658 
Q 1478 2475 1428 2131 
L 2881 2131 
z
M 2700 5119 
L 3584 5119 
L 2431 3944 
L 1819 3944 
L 2700 5119 
z
" transform="scale(0.015625)"/>
      <path id="DejaVuSans-Bold-69" d="M 538 3500 
L 1656 3500 
L 1656 0 
L 538 0 
L 538 3500 
z
M 538 4863 
L 1656 4863 
L 1656 3950 
L 538 3950 
L 538 4863 
z
" transform="scale(0.015625)"/>
      <path id="DejaVuSans-Bold-28" d="M 2413 -844 
L 1484 -844 
Q 1006 -72 778 623 
Q 550 1319 550 2003 
Q 550 2688 779 3389 
Q 1009 4091 1484 4856 
L 2413 4856 
Q 2013 4116 1813 3408 
Q 1613 2700 1613 2009 
Q 1613 1319 1811 609 
Q 2009 -100 2413 -844 
z
" transform="scale(0.015625)"/>
      <path id="DejaVuSans-Bold-31" d="M 750 831 
L 1813 831 
L 1813 3847 
L 722 3622 
L 722 4441 
L 1806 4666 
L 2950 4666 
L 2950 831 
L 4013 831 
L 4013 0 
L 750 0 
L 750 831 
z
" transform="scale(0.015625)"/>
      <path id="DejaVuSans-Bold-30" d="M 2944 2338 
Q 2944 3213 2780 3570 
Q 2616 3928 2228 3928 
Q 1841 3928 1675 3570 
Q 1509 3213 1509 2338 
Q 1509 1453 1675 1090 
Q 1841 728 2228 728 
Q 2613 728 2778 1090 
Q 2944 1453 2944 2338 
z
M 4147 2328 
Q 4147 1169 3647 539 
Q 3147 -91 2228 -91 
Q 1306 -91 806 539 
Q 306 1169 306 2328 
Q 306 3491 806 4120 
Q 1306 4750 2228 4750 
Q 3147 4750 3647 4120 
Q 4147 3491 4147 2328 
z
" transform="scale(0.015625)"/>
      <path id="DejaVuSans-Bold-4d" d="M 588 4666 
L 2119 4666 
L 3181 2169 
L 4250 4666 
L 5778 4666 
L 5778 0 
L 4641 0 
L 4641 3413 
L 3566 897 
L 2803 897 
L 1728 3413 
L 1728 0 
L 588 0 
L 588 4666 
z
" transform="scale(0.015625)"/>
      <path id="DejaVuSans-Bold-e1" d="M 2106 1575 
Q 1756 1575 1579 1456 
Q 1403 1338 1403 1106 
Q 1403 894 1545 773 
Q 1688 653 1941 653 
Q 2256 653 2472 879 
Q 2688 1106 2688 1447 
L 2688 1575 
L 2106 1575 
z
M 3816 1997 
L 3816 0 
L 2688 0 
L 2688 519 
Q 2463 200 2181 54 
Q 1900 -91 1497 -91 
Q 953 -91 614 226 
Q 275 544 275 1050 
Q 275 1666 698 1953 
Q 1122 2241 2028 2241 
L 2688 2241 
L 2688 2328 
Q 2688 2594 2478 2717 
Q 2269 2841 1825 2841 
Q 1466 2841 1156 2769 
Q 847 2697 581 2553 
L 581 3406 
Q 941 3494 1303 3539 
Q 1666 3584 2028 3584 
Q 2975 3584 3395 3211 
Q 3816 2838 3816 1997 
z
M 2603 5119 
L 3488 5119 
L 2334 3944 
L 1722 3944 
L 2603 5119 
z
" transform="scale(0.015625)"/>
      <path id="DejaVuSans-Bold-55" d="M 588 4666 
L 1791 4666 
L 1791 1869 
Q 1791 1291 1980 1042 
Q 2169 794 2597 794 
Q 3028 794 3217 1042 
Q 3406 1291 3406 1869 
L 3406 4666 
L 4609 4666 
L 4609 1869 
Q 4609 878 4112 393 
Q 3616 -91 2597 -91 
Q 1581 -91 1084 393 
Q 588 878 588 1869 
L 588 4666 
z
" transform="scale(0.015625)"/>
      <path id="DejaVuSans-Bold-29" d="M 513 -844 
Q 913 -100 1113 609 
Q 1313 1319 1313 2009 
Q 1313 2700 1113 3408 
Q 913 4116 513 4856 
L 1441 4856 
Q 1916 4091 2145 3389 
Q 2375 2688 2375 2003 
Q 2375 1319 2147 623 
Q 1919 -72 1441 -844 
L 513 -844 
z
" transform="scale(0.015625)"/>
     </defs>
     <use xlink:href="#DejaVuSans-Bold-4e"/>
     <use xlink:href="#DejaVuSans-Bold-fa" transform="translate(83.691406 0)"/>
     <use xlink:href="#DejaVuSans-Bold-6d" transform="translate(154.882812 0)"/>
     <use xlink:href="#DejaVuSans-Bold-65" transform="translate(259.082031 0)"/>
     <use xlink:href="#DejaVuSans-Bold-72" transform="translate(326.904297 0)"/>
     <use xlink:href="#DejaVuSans-Bold-6f" transform="translate(376.220703 0)"/>
     <use xlink:href="#DejaVuSans-Bold-20" transform="translate(444.921875 0)"/>
     <use xlink:href="#DejaVuSans-Bold-64" transform="translate(479.736328 0)"/>
     <use xlink:href="#DejaVuSans-Bold-65" transform="translate(551.318359 0)"/>
     <use xlink:href="#DejaVuSans-Bold-20" transform="translate(619.140625 0)"/>
     <use xlink:href="#DejaVuSans-Bold-54" transform="translate(653.955078 0)"/>
     <use xlink:href="#DejaVuSans-Bold-61" transform="translate(709.292969 0)"/>
     <use xlink:href="#DejaVuSans-Bold-72" transform="translate(776.773438 0)"/>
     <use xlink:href="#DejaVuSans-Bold-6a" transform="translate(826.089844 0)"/>
     <use xlink:href="#DejaVuSans-Bold-65" transform="translate(860.367188 0)"/>
     <use xlink:href="#DejaVuSans-Bold-74" transform="translate(928.189453 0)"/>
     <use xlink:href="#DejaVuSans-Bold-61" transform="translate(975.992188 0)"/>
     <use xlink:href="#DejaVuSans-Bold-73" transform="translate(1043.472656 0)"/>
     <use xlink:href="#DejaVuSans-Bold-20" transform="translate(1102.994141 0)"/>
     <use xlink:href="#DejaVuSans-Bold-64" transform="translate(1137.808594 0)"/>
     <use xlink:href="#DejaVuSans-Bold-65" transform="translate(1209.390625 0)"/>
     <use xlink:href="#DejaVuSans-Bold-20" transform="translate(1277.212891 0)"/>
     <use xlink:href="#DejaVuSans-Bold-43" transform="translate(1312.027344 0)"/>
     <use xlink:href="#DejaVuSans-Bold-72" transform="translate(1385.416016 0)"/>
     <use xlink:href="#DejaVuSans-Bold-e9" transform="translate(1434.732422 0)"/>
     <use xlink:href="#DejaVuSans-Bold-64" transform="translate(1502.554688 0)"/>
     <use xlink:href="#DejaVuSans-Bold-69" transform="translate(1574.136719 0)"/>
     <use xlink:href="#DejaVuSans-Bold-74" transform="translate(1608.414062 0)"/>
     <use xlink:href="#DejaVuSans-Bold-6f" transform="translate(1656.216797 0)"/>
     <use xlink:href="#DejaVuSans-Bold-20" transform="translate(1724.917969 0)"/>
     <use xlink:href="#DejaVuSans-Bold-28" transform="translate(1759.732422 0)"/>
     <use xlink:href="#DejaVuSans-Bold-31" transform="translate(1805.435547 0)"/>
     <use xlink:href="#DejaVuSans-Bold-30" transform="translate(1875.015625 0)"/>
     <use xlink:href="#DejaVuSans-Bold-20" transform="translate(1944.595703 0)"/>
     <use xlink:href="#DejaVuSans-Bold-4d" transform="translate(1979.410156 0)"/>
     <use xlink:href="#DejaVuSans-Bold-e1" transform="translate(2078.921875 0)"/>
     <use xlink:href="#DejaVuSans-Bold-73" transform="translate(2146.402344 0)"/>
     <use xlink:href="#DejaVuSans-Bold-20" transform="translate(2205.923828 0)"/>
     <use xlink:href="#DejaVuSans-Bold-55" transform="translate(2240.738281 0)"/>
     <use xlink:href="#DejaVuSans-Bold-73" transform="translate(2321.939453 0)"/>
     <use xlink:href="#DejaVuSans-Bold-61" transform="translate(2381.460938 0)"/>
     <use xlink:href="#DejaVuSans-Bold-64" transform="translate(2448.941406 0)"/>
     <use xlink:href="#DejaVuSans-Bold-61" transform="translate(2520.523438 0)"/>
     <use xlink:href="#DejaVuSans-Bold-73" transform="translate(2588.003906 0)"/>
     <use xlink:href="#DejaVuSans-Bold-29" transform="translate(2647.525391 0)"/>
    </g>
   </g>
  </g>
 </g>
 <defs>
  <clipPath id="p0d7ca1ac18">
   <rect x="108" y="51.84" width="669.6" height="332.64"/>
  </clipPath>
 </defs>
</svg>
