<?xml version="1.0" encoding="utf-8" standalone="no"?>
<!DOCTYPE svg PUBLIC "-//W3C//DTD SVG 1.1//EN"
  "http://www.w3.org/Graphics/SVG/1.1/DTD/svg11.dtd">
<svg xmlns:xlink="http://www.w3.org/1999/xlink" width="864pt" height="432pt" viewBox="0 0 864 432" xmlns="http://www.w3.org/2000/svg" version="1.1">
 <metadata>
  <rdf:RDF xmlns:dc="http://purl.org/dc/elements/1.1/" xmlns:cc="http://creativecommons.org/ns#" xmlns:rdf="http://www.w3.org/1999/02/22-rdf-syntax-ns#">
   <cc:Work>
    <dc:type rdf:resource="http://purl.org/dc/dcmitype/StillImage"/>
    <dc:date>2025-02-23T06:36:05.290632</dc:date>
    <dc:format>image/svg+xml</dc:format>
    <dc:creator>
     <cc:Agent>
      <dc:title>Matplotlib v3.10.0, https://matplotlib.org/</dc:title>
     </cc:Agent>
    </dc:creator>
   </cc:Work>
  </rdf:RDF>
 </metadata>
 <defs>
  <style type="text/css">*{stroke-linejoin: round; stroke-linecap: butt}</style>
 </defs>
 <g id="figure_1">
  <g id="patch_1">
   <path d="M 0 432 
L 864 432 
L 864 0 
L 0 0 
z
" style="fill: #ffffff"/>
  </g>
  <g id="axes_1">
   <g id="patch_2">
    <path d="M 108 384.48 
L 777.6 384.48 
L 777.6 51.84 
L 108 51.84 
z
" style="fill: #ffffff"/>
   </g>
   <g id="matplotlib.axis_1">
    <g id="xtick_1">
     <g id="line2d_1">
      <path d="M 176.677083 384.48 
L 176.677083 51.84 
" clip-path="url(#pbfed9d7d3e)" style="fill: none; stroke-dasharray: 2.96,1.28; stroke-dashoffset: 0; stroke: #b0b0b0; stroke-opacity: 0.5; stroke-width: 0.8"/>
     </g>
     <g id="line2d_2">
      <defs>
       <path id="mf42fb77b12" d="M 0 0 
L 0 3.5 
" style="stroke: #000000; stroke-width: 0.8"/>
      </defs>
      <g>
       <use xlink:href="#mf42fb77b12" x="176.677083" y="384.48" style="stroke: #000000; stroke-width: 0.8"/>
      </g>
     </g>
     <g id="text_1">
      <!-- 2012 -->
      <g transform="translate(163.952083 399.078438) scale(0.1 -0.1)">
       <defs>
        <path id="DejaVuSans-32" d="M 1228 531 
L 3431 531 
L 3431 0 
L 469 0 
L 469 531 
Q 828 903 1448 1529 
Q 2069 2156 2228 2338 
Q 2531 2678 2651 2914 
Q 2772 3150 2772 3378 
Q 2772 3750 2511 3984 
Q 2250 4219 1831 4219 
Q 1534 4219 1204 4116 
Q 875 4013 500 3803 
L 500 4441 
Q 881 4594 1212 4672 
Q 1544 4750 1819 4750 
Q 2544 4750 2975 4387 
Q 3406 4025 3406 3419 
Q 3406 3131 3298 2873 
Q 3191 2616 2906 2266 
Q 2828 2175 2409 1742 
Q 1991 1309 1228 531 
z
" transform="scale(0.015625)"/>
        <path id="DejaVuSans-30" d="M 2034 4250 
Q 1547 4250 1301 3770 
Q 1056 3291 1056 2328 
Q 1056 1369 1301 889 
Q 1547 409 2034 409 
Q 2525 409 2770 889 
Q 3016 1369 3016 2328 
Q 3016 3291 2770 3770 
Q 2525 4250 2034 4250 
z
M 2034 4750 
Q 2819 4750 3233 4129 
Q 3647 3509 3647 2328 
Q 3647 1150 3233 529 
Q 2819 -91 2034 -91 
Q 1250 -91 836 529 
Q 422 1150 422 2328 
Q 422 3509 836 4129 
Q 1250 4750 2034 4750 
z
" transform="scale(0.015625)"/>
        <path id="DejaVuSans-31" d="M 794 531 
L 1825 531 
L 1825 4091 
L 703 3866 
L 703 4441 
L 1819 4666 
L 2450 4666 
L 2450 531 
L 3481 531 
L 3481 0 
L 794 0 
L 794 531 
z
" transform="scale(0.015625)"/>
       </defs>
       <use xlink:href="#DejaVuSans-32"/>
       <use xlink:href="#DejaVuSans-30" transform="translate(63.623047 0)"/>
       <use xlink:href="#DejaVuSans-31" transform="translate(127.246094 0)"/>
       <use xlink:href="#DejaVuSans-32" transform="translate(190.869141 0)"/>
      </g>
     </g>
    </g>
    <g id="xtick_2">
     <g id="line2d_3">
      <path d="M 268.029914 384.48 
L 268.029914 51.84 
" clip-path="url(#pbfed9d7d3e)" style="fill: none; stroke-dasharray: 2.96,1.28; stroke-dashoffset: 0; stroke: #b0b0b0; stroke-opacity: 0.5; stroke-width: 0.8"/>
     </g>
     <g id="line2d_4">
      <g>
       <use xlink:href="#mf42fb77b12" x="268.029914" y="384.48" style="stroke: #000000; stroke-width: 0.8"/>
      </g>
     </g>
     <g id="text_2">
      <!-- 2014 -->
      <g transform="translate(255.304914 399.078438) scale(0.1 -0.1)">
       <defs>
        <path id="DejaVuSans-34" d="M 2419 4116 
L 825 1625 
L 2419 1625 
L 2419 4116 
z
M 2253 4666 
L 3047 4666 
L 3047 1625 
L 3713 1625 
L 3713 1100 
L 3047 1100 
L 3047 0 
L 2419 0 
L 2419 1100 
L 313 1100 
L 313 1709 
L 2253 4666 
z
" transform="scale(0.015625)"/>
       </defs>
       <use xlink:href="#DejaVuSans-32"/>
       <use xlink:href="#DejaVuSans-30" transform="translate(63.623047 0)"/>
       <use xlink:href="#DejaVuSans-31" transform="translate(127.246094 0)"/>
       <use xlink:href="#DejaVuSans-34" transform="translate(190.869141 0)"/>
      </g>
     </g>
    </g>
    <g id="xtick_3">
     <g id="line2d_5">
      <path d="M 359.257774 384.48 
L 359.257774 51.84 
" clip-path="url(#pbfed9d7d3e)" style="fill: none; stroke-dasharray: 2.96,1.28; stroke-dashoffset: 0; stroke: #b0b0b0; stroke-opacity: 0.5; stroke-width: 0.8"/>
     </g>
     <g id="line2d_6">
      <g>
       <use xlink:href="#mf42fb77b12" x="359.257774" y="384.48" style="stroke: #000000; stroke-width: 0.8"/>
      </g>
     </g>
     <g id="text_3">
      <!-- 2016 -->
      <g transform="translate(346.532774 399.078438) scale(0.1 -0.1)">
       <defs>
        <path id="DejaVuSans-36" d="M 2113 2584 
Q 1688 2584 1439 2293 
Q 1191 2003 1191 1497 
Q 1191 994 1439 701 
Q 1688 409 2113 409 
Q 2538 409 2786 701 
Q 3034 994 3034 1497 
Q 3034 2003 2786 2293 
Q 2538 2584 2113 2584 
z
M 3366 4563 
L 3366 3988 
Q 3128 4100 2886 4159 
Q 2644 4219 2406 4219 
Q 1781 4219 1451 3797 
Q 1122 3375 1075 2522 
Q 1259 2794 1537 2939 
Q 1816 3084 2150 3084 
Q 2853 3084 3261 2657 
Q 3669 2231 3669 1497 
Q 3669 778 3244 343 
Q 2819 -91 2113 -91 
Q 1303 -91 875 529 
Q 447 1150 447 2328 
Q 447 3434 972 4092 
Q 1497 4750 2381 4750 
Q 2619 4750 2861 4703 
Q 3103 4656 3366 4563 
z
" transform="scale(0.015625)"/>
       </defs>
       <use xlink:href="#DejaVuSans-32"/>
       <use xlink:href="#DejaVuSans-30" transform="translate(63.623047 0)"/>
       <use xlink:href="#DejaVuSans-31" transform="translate(127.246094 0)"/>
       <use xlink:href="#DejaVuSans-36" transform="translate(190.869141 0)"/>
      </g>
     </g>
    </g>
    <g id="xtick_4">
     <g id="line2d_7">
      <path d="M 450.610605 384.48 
L 450.610605 51.84 
" clip-path="url(#pbfed9d7d3e)" style="fill: none; stroke-dasharray: 2.96,1.28; stroke-dashoffset: 0; stroke: #b0b0b0; stroke-opacity: 0.5; stroke-width: 0.8"/>
     </g>
     <g id="line2d_8">
      <g>
       <use xlink:href="#mf42fb77b12" x="450.610605" y="384.48" style="stroke: #000000; stroke-width: 0.8"/>
      </g>
     </g>
     <g id="text_4">
      <!-- 2018 -->
      <g transform="translate(437.885605 399.078438) scale(0.1 -0.1)">
       <defs>
        <path id="DejaVuSans-38" d="M 2034 2216 
Q 1584 2216 1326 1975 
Q 1069 1734 1069 1313 
Q 1069 891 1326 650 
Q 1584 409 2034 409 
Q 2484 409 2743 651 
Q 3003 894 3003 1313 
Q 3003 1734 2745 1975 
Q 2488 2216 2034 2216 
z
M 1403 2484 
Q 997 2584 770 2862 
Q 544 3141 544 3541 
Q 544 4100 942 4425 
Q 1341 4750 2034 4750 
Q 2731 4750 3128 4425 
Q 3525 4100 3525 3541 
Q 3525 3141 3298 2862 
Q 3072 2584 2669 2484 
Q 3125 2378 3379 2068 
Q 3634 1759 3634 1313 
Q 3634 634 3220 271 
Q 2806 -91 2034 -91 
Q 1263 -91 848 271 
Q 434 634 434 1313 
Q 434 1759 690 2068 
Q 947 2378 1403 2484 
z
M 1172 3481 
Q 1172 3119 1398 2916 
Q 1625 2713 2034 2713 
Q 2441 2713 2670 2916 
Q 2900 3119 2900 3481 
Q 2900 3844 2670 4047 
Q 2441 4250 2034 4250 
Q 1625 4250 1398 4047 
Q 1172 3844 1172 3481 
z
" transform="scale(0.015625)"/>
       </defs>
       <use xlink:href="#DejaVuSans-32"/>
       <use xlink:href="#DejaVuSans-30" transform="translate(63.623047 0)"/>
       <use xlink:href="#DejaVuSans-31" transform="translate(127.246094 0)"/>
       <use xlink:href="#DejaVuSans-38" transform="translate(190.869141 0)"/>
      </g>
     </g>
    </g>
    <g id="xtick_5">
     <g id="line2d_9">
      <path d="M 541.838465 384.48 
L 541.838465 51.84 
" clip-path="url(#pbfed9d7d3e)" style="fill: none; stroke-dasharray: 2.96,1.28; stroke-dashoffset: 0; stroke: #b0b0b0; stroke-opacity: 0.5; stroke-width: 0.8"/>
     </g>
     <g id="line2d_10">
      <g>
       <use xlink:href="#mf42fb77b12" x="541.838465" y="384.48" style="stroke: #000000; stroke-width: 0.8"/>
      </g>
     </g>
     <g id="text_5">
      <!-- 2020 -->
      <g transform="translate(529.113465 399.078438) scale(0.1 -0.1)">
       <use xlink:href="#DejaVuSans-32"/>
       <use xlink:href="#DejaVuSans-30" transform="translate(63.623047 0)"/>
       <use xlink:href="#DejaVuSans-32" transform="translate(127.246094 0)"/>
       <use xlink:href="#DejaVuSans-30" transform="translate(190.869141 0)"/>
      </g>
     </g>
    </g>
    <g id="xtick_6">
     <g id="line2d_11">
      <path d="M 633.191295 384.48 
L 633.191295 51.84 
" clip-path="url(#pbfed9d7d3e)" style="fill: none; stroke-dasharray: 2.96,1.28; stroke-dashoffset: 0; stroke: #b0b0b0; stroke-opacity: 0.5; stroke-width: 0.8"/>
     </g>
     <g id="line2d_12">
      <g>
       <use xlink:href="#mf42fb77b12" x="633.191295" y="384.48" style="stroke: #000000; stroke-width: 0.8"/>
      </g>
     </g>
     <g id="text_6">
      <!-- 2022 -->
      <g transform="translate(620.466295 399.078438) scale(0.1 -0.1)">
       <use xlink:href="#DejaVuSans-32"/>
       <use xlink:href="#DejaVuSans-30" transform="translate(63.623047 0)"/>
       <use xlink:href="#DejaVuSans-32" transform="translate(127.246094 0)"/>
       <use xlink:href="#DejaVuSans-32" transform="translate(190.869141 0)"/>
      </g>
     </g>
    </g>
    <g id="xtick_7">
     <g id="line2d_13">
      <path d="M 724.419156 384.48 
L 724.419156 51.84 
" clip-path="url(#pbfed9d7d3e)" style="fill: none; stroke-dasharray: 2.96,1.28; stroke-dashoffset: 0; stroke: #b0b0b0; stroke-opacity: 0.5; stroke-width: 0.8"/>
     </g>
     <g id="line2d_14">
      <g>
       <use xlink:href="#mf42fb77b12" x="724.419156" y="384.48" style="stroke: #000000; stroke-width: 0.8"/>
      </g>
     </g>
     <g id="text_7">
      <!-- 2024 -->
      <g transform="translate(711.694156 399.078438) scale(0.1 -0.1)">
       <use xlink:href="#DejaVuSans-32"/>
       <use xlink:href="#DejaVuSans-30" transform="translate(63.623047 0)"/>
       <use xlink:href="#DejaVuSans-32" transform="translate(127.246094 0)"/>
       <use xlink:href="#DejaVuSans-34" transform="translate(190.869141 0)"/>
      </g>
     </g>
    </g>
   </g>
   <g id="matplotlib.axis_2">
    <g id="ytick_1">
     <g id="line2d_15">
      <path d="M 108 369.36 
L 777.6 369.36 
" clip-path="url(#pbfed9d7d3e)" style="fill: none; stroke-dasharray: 2.96,1.28; stroke-dashoffset: 0; stroke: #b0b0b0; stroke-opacity: 0.5; stroke-width: 0.8"/>
     </g>
     <g id="line2d_16">
      <defs>
       <path id="m345125bf3c" d="M 0 0 
L -3.5 0 
" style="stroke: #000000; stroke-width: 0.8"/>
      </defs>
      <g>
       <use xlink:href="#m345125bf3c" x="108" y="369.36" style="stroke: #000000; stroke-width: 0.8"/>
      </g>
     </g>
     <g id="text_8">
      <!-- 0 -->
      <g transform="translate(94.6375 373.159219) scale(0.1 -0.1)">
       <use xlink:href="#DejaVuSans-30"/>
      </g>
     </g>
    </g>
    <g id="ytick_2">
     <g id="line2d_17">
      <path d="M 108 311.296097 
L 777.6 311.296097 
" clip-path="url(#pbfed9d7d3e)" style="fill: none; stroke-dasharray: 2.96,1.28; stroke-dashoffset: 0; stroke: #b0b0b0; stroke-opacity: 0.5; stroke-width: 0.8"/>
     </g>
     <g id="line2d_18">
      <g>
       <use xlink:href="#m345125bf3c" x="108" y="311.296097" style="stroke: #000000; stroke-width: 0.8"/>
      </g>
     </g>
     <g id="text_9">
      <!-- 1 -->
      <g transform="translate(94.6375 315.095316) scale(0.1 -0.1)">
       <use xlink:href="#DejaVuSans-31"/>
      </g>
     </g>
    </g>
    <g id="ytick_3">
     <g id="line2d_19">
      <path d="M 108 253.232194 
L 777.6 253.232194 
" clip-path="url(#pbfed9d7d3e)" style="fill: none; stroke-dasharray: 2.96,1.28; stroke-dashoffset: 0; stroke: #b0b0b0; stroke-opacity: 0.5; stroke-width: 0.8"/>
     </g>
     <g id="line2d_20">
      <g>
       <use xlink:href="#m345125bf3c" x="108" y="253.232194" style="stroke: #000000; stroke-width: 0.8"/>
      </g>
     </g>
     <g id="text_10">
      <!-- 2 -->
      <g transform="translate(94.6375 257.031413) scale(0.1 -0.1)">
       <use xlink:href="#DejaVuSans-32"/>
      </g>
     </g>
    </g>
    <g id="ytick_4">
     <g id="line2d_21">
      <path d="M 108 195.168291 
L 777.6 195.168291 
" clip-path="url(#pbfed9d7d3e)" style="fill: none; stroke-dasharray: 2.96,1.28; stroke-dashoffset: 0; stroke: #b0b0b0; stroke-opacity: 0.5; stroke-width: 0.8"/>
     </g>
     <g id="line2d_22">
      <g>
       <use xlink:href="#m345125bf3c" x="108" y="195.168291" style="stroke: #000000; stroke-width: 0.8"/>
      </g>
     </g>
     <g id="text_11">
      <!-- 3 -->
      <g transform="translate(94.6375 198.96751) scale(0.1 -0.1)">
       <defs>
        <path id="DejaVuSans-33" d="M 2597 2516 
Q 3050 2419 3304 2112 
Q 3559 1806 3559 1356 
Q 3559 666 3084 287 
Q 2609 -91 1734 -91 
Q 1441 -91 1130 -33 
Q 819 25 488 141 
L 488 750 
Q 750 597 1062 519 
Q 1375 441 1716 441 
Q 2309 441 2620 675 
Q 2931 909 2931 1356 
Q 2931 1769 2642 2001 
Q 2353 2234 1838 2234 
L 1294 2234 
L 1294 2753 
L 1863 2753 
Q 2328 2753 2575 2939 
Q 2822 3125 2822 3475 
Q 2822 3834 2567 4026 
Q 2313 4219 1838 4219 
Q 1578 4219 1281 4162 
Q 984 4106 628 3988 
L 628 4550 
Q 988 4650 1302 4700 
Q 1616 4750 1894 4750 
Q 2613 4750 3031 4423 
Q 3450 4097 3450 3541 
Q 3450 3153 3228 2886 
Q 3006 2619 2597 2516 
z
" transform="scale(0.015625)"/>
       </defs>
       <use xlink:href="#DejaVuSans-33"/>
      </g>
     </g>
    </g>
    <g id="ytick_5">
     <g id="line2d_23">
      <path d="M 108 137.104388 
L 777.6 137.104388 
" clip-path="url(#pbfed9d7d3e)" style="fill: none; stroke-dasharray: 2.96,1.28; stroke-dashoffset: 0; stroke: #b0b0b0; stroke-opacity: 0.5; stroke-width: 0.8"/>
     </g>
     <g id="line2d_24">
      <g>
       <use xlink:href="#m345125bf3c" x="108" y="137.104388" style="stroke: #000000; stroke-width: 0.8"/>
      </g>
     </g>
     <g id="text_12">
      <!-- 4 -->
      <g transform="translate(94.6375 140.903607) scale(0.1 -0.1)">
       <use xlink:href="#DejaVuSans-34"/>
      </g>
     </g>
    </g>
    <g id="ytick_6">
     <g id="line2d_25">
      <path d="M 108 79.040485 
L 777.6 79.040485 
" clip-path="url(#pbfed9d7d3e)" style="fill: none; stroke-dasharray: 2.96,1.28; stroke-dashoffset: 0; stroke: #b0b0b0; stroke-opacity: 0.5; stroke-width: 0.8"/>
     </g>
     <g id="line2d_26">
      <g>
       <use xlink:href="#m345125bf3c" x="108" y="79.040485" style="stroke: #000000; stroke-width: 0.8"/>
      </g>
     </g>
     <g id="text_13">
      <!-- 5 -->
      <g transform="translate(94.6375 82.839704) scale(0.1 -0.1)">
       <defs>
        <path id="DejaVuSans-35" d="M 691 4666 
L 3169 4666 
L 3169 4134 
L 1269 4134 
L 1269 2991 
Q 1406 3038 1543 3061 
Q 1681 3084 1819 3084 
Q 2600 3084 3056 2656 
Q 3513 2228 3513 1497 
Q 3513 744 3044 326 
Q 2575 -91 1722 -91 
Q 1428 -91 1123 -41 
Q 819 9 494 109 
L 494 744 
Q 775 591 1075 516 
Q 1375 441 1709 441 
Q 2250 441 2565 725 
Q 2881 1009 2881 1497 
Q 2881 1984 2565 2268 
Q 2250 2553 1709 2553 
Q 1456 2553 1204 2497 
Q 953 2441 691 2322 
L 691 4666 
z
" transform="scale(0.015625)"/>
       </defs>
       <use xlink:href="#DejaVuSans-35"/>
      </g>
     </g>
    </g>
    <g id="text_14">
     <!-- 1e6 -->
     <g transform="translate(108 48.84) scale(0.1 -0.1)">
      <defs>
       <path id="DejaVuSans-65" d="M 3597 1894 
L 3597 1613 
L 953 1613 
Q 991 1019 1311 708 
Q 1631 397 2203 397 
Q 2534 397 2845 478 
Q 3156 559 3463 722 
L 3463 178 
Q 3153 47 2828 -22 
Q 2503 -91 2169 -91 
Q 1331 -91 842 396 
Q 353 884 353 1716 
Q 353 2575 817 3079 
Q 1281 3584 2069 3584 
Q 2775 3584 3186 3129 
Q 3597 2675 3597 1894 
z
M 3022 2063 
Q 3016 2534 2758 2815 
Q 2500 3097 2075 3097 
Q 1594 3097 1305 2825 
Q 1016 2553 972 2059 
L 3022 2063 
z
" transform="scale(0.015625)"/>
      </defs>
      <use xlink:href="#DejaVuSans-31"/>
      <use xlink:href="#DejaVuSans-65" transform="translate(63.623047 0)"/>
      <use xlink:href="#DejaVuSans-36" transform="translate(125.146484 0)"/>
     </g>
    </g>
   </g>
   <g id="line2d_27">
    <path d="M 138.436364 368.4783 
L 153.682664 368.466977 
L 184.175264 368.425384 
L 199.421564 368.385978 
L 290.649424 368.417623 
L 389.750374 368.21049 
L 408.870734 368.180219 
L 431.490245 368.292089 
L 442.987455 368.35743 
L 461.857875 368.274321 
L 560.833855 368.227173 
L 572.331065 368.22638 
L 610.196876 368.268515 
L 701.424736 368.236696 
L 747.163636 368.174625 
L 747.163636 368.174625 
" clip-path="url(#pbfed9d7d3e)" style="fill: none; stroke: #a6cee3; stroke-width: 1.5; stroke-linecap: square"/>
   </g>
   <g id="line2d_28">
    <path d="M 138.436364 305.558203 
L 142.310423 304.921435 
L 153.682664 301.276009 
L 165.179873 298.452071 
L 176.677083 293.351622 
L 180.551143 291.324747 
L 184.175264 289.297871 
L 188.049323 287.270996 
L 199.421564 283.149388 
L 210.918773 277.545699 
L 222.415983 284.201912 
L 252.783614 278.589126 
L 256.532704 277.869753 
L 268.029914 278.749073 
L 279.277184 281.045617 
L 294.523484 282.151521 
L 309.769784 283.339508 
L 313.643844 283.60426 
L 332.514264 283.703879 
L 336.263355 283.692169 
L 347.760564 283.272135 
L 359.257774 283.974592 
L 370.630014 283.427108 
L 385.876314 283.579816 
L 393.499464 283.771194 
L 404.996674 295.565599 
L 419.993035 296.937184 
L 431.490245 298.139378 
L 439.113395 299.068942 
L 450.610605 299.824934 
L 461.857875 299.568466 
L 473.230115 297.953419 
L 484.727325 293.400454 
L 500.098595 288.362268 
L 503.597745 287.115481 
L 511.220895 284.737145 
L 518.844045 282.474047 
L 530.341255 280.574022 
L 541.838465 280.071536 
L 553.210705 281.203957 
L 572.331065 281.932407 
L 576.080155 282.105689 
L 587.577365 282.202946 
L 598.824636 281.747087 
L 614.070936 280.355798 
L 629.317236 278.607378 
L 633.191295 278.152525 
L 655.810806 273.643108 
L 671.182076 267.359877 
L 678.805226 264.125795 
L 682.679286 262.260163 
L 686.178436 260.394531 
L 690.052496 258.528899 
L 705.298796 251.823932 
L 712.921946 248.249673 
L 731.917336 243.932467 
L 747.163636 240.749152 
L 747.163636 240.749152 
" clip-path="url(#pbfed9d7d3e)" style="fill: none; stroke: #1f78b4; stroke-width: 1.5; stroke-linecap: square"/>
   </g>
   <g id="line2d_29">
    <path d="M 138.436364 368.384836 
L 214.792833 368.022304 
L 229.789194 367.813623 
L 241.286404 367.668289 
L 252.783614 367.453743 
L 264.155854 367.264512 
L 401.122614 365.586446 
L 419.993035 365.412061 
L 454.484664 365.064123 
L 461.857875 365.114367 
L 473.230115 364.412143 
L 503.597745 363.906522 
L 518.844045 363.558545 
L 606.447786 361.610346 
L 617.944995 361.27735 
L 644.438566 360.501248 
L 655.810806 360.038015 
L 667.308016 360.387733 
L 693.801586 359.261352 
L 716.796006 358.324781 
L 747.163636 357.170935 
L 747.163636 357.170935 
" clip-path="url(#pbfed9d7d3e)" style="fill: none; stroke: #b2df8a; stroke-width: 1.5; stroke-linecap: square"/>
   </g>
   <g id="line2d_30">
    <path d="M 138.436364 358.072532 
L 142.310423 357.806503 
L 153.682664 356.685056 
L 176.677083 355.145376 
L 188.049323 355.560823 
L 199.421564 354.49448 
L 210.918773 353.855022 
L 222.415983 354.26414 
L 226.290043 359.296093 
L 229.789194 364.328047 
L 233.663254 369.36 
L 747.163636 369.36 
L 747.163636 369.36 
" clip-path="url(#pbfed9d7d3e)" style="fill: none; stroke: #33a02c; stroke-width: 1.5; stroke-linecap: square"/>
   </g>
   <g id="line2d_31">
    <path d="M 138.436364 347.258111 
L 153.682664 347.986561 
L 172.803023 348.511014 
L 180.551143 348.562574 
L 191.798414 348.411299 
L 218.541923 347.685635 
L 229.789194 347.427193 
L 237.412344 347.335433 
L 248.909554 347.253098 
L 260.406764 347.06381 
L 279.277184 347.06381 
L 290.649424 345.372931 
L 306.020694 344.267955 
L 317.517904 343.537492 
L 324.891114 342.974543 
L 328.640205 329.164837 
L 332.514264 315.355132 
L 336.263355 301.545426 
L 347.760564 294.857509 
L 359.257774 290.805578 
L 363.131834 288.203464 
L 366.755955 285.601349 
L 370.630014 282.999235 
L 385.876314 269.366333 
L 393.499464 262.423362 
L 404.996674 258.772884 
L 416.243945 260.037109 
L 427.616185 272.837819 
L 439.113395 258.701523 
L 450.610605 259.686636 
L 465.606965 259.689926 
L 473.230115 259.587346 
L 484.727325 257.26299 
L 500.098595 257.355099 
L 518.844045 257.158301 
L 530.341255 255.872128 
L 541.838465 257.045425 
L 553.210705 260.800127 
L 572.331065 268.263758 
L 576.080155 269.821806 
L 587.577365 265.147662 
L 591.451425 269.057433 
L 594.950576 272.967205 
L 598.824636 276.876977 
L 610.196876 279.66236 
L 621.694086 281.311607 
L 633.191295 284.354156 
L 644.438566 284.108429 
L 667.308016 286.634035 
L 678.805226 288.276547 
L 690.052496 290.844074 
L 701.424736 290.753669 
L 720.545096 292.38031 
L 731.917336 293.121476 
L 739.540486 293.47915 
L 747.163636 293.73885 
L 747.163636 293.73885 
" clip-path="url(#pbfed9d7d3e)" style="fill: none; stroke: #fb9a99; stroke-width: 1.5; stroke-linecap: square"/>
   </g>
   <g id="line2d_32">
    <path d="M 138.436364 369.295162 
L 404.996674 369.165254 
L 416.243945 368.636466 
L 427.616185 369.36 
L 587.577365 369.36 
L 598.824636 366.5727 
L 610.196876 369.137441 
L 621.694086 369.039603 
L 633.191295 369.337181 
L 644.438566 368.853683 
L 705.298796 368.760084 
L 716.796006 368.844315 
L 728.293216 368.777426 
L 739.540486 368.792193 
L 747.163636 368.729136 
L 747.163636 368.729136 
" clip-path="url(#pbfed9d7d3e)" style="fill: none; stroke: #e31a1c; stroke-width: 1.5; stroke-linecap: square"/>
   </g>
   <g id="line2d_33">
    <path d="M 138.436364 345.296673 
L 142.310423 345.487955 
L 153.682664 343.780006 
L 169.053933 343.204225 
L 176.677083 342.761391 
L 195.672473 342.622579 
L 199.421564 342.570883 
L 210.918773 340.933249 
L 222.415983 345.79343 
L 233.663254 346.914585 
L 245.035494 346.959469 
L 256.532704 346.024756 
L 268.029914 346.733891 
L 279.277184 346.44479 
L 290.649424 346.802348 
L 302.146634 346.275476 
L 313.643844 346.678962 
L 324.891114 345.858519 
L 336.263355 345.744656 
L 355.383714 344.96449 
L 378.253164 344.310071 
L 382.002255 344.240104 
L 393.499464 343.48928 
L 404.996674 341.900071 
L 416.243945 341.224323 
L 431.490245 339.848267 
L 439.113395 339.011101 
L 461.857875 337.919964 
L 473.230115 336.777383 
L 484.727325 336.116499 
L 507.471805 335.808122 
L 518.844045 335.94794 
L 530.341255 317.962646 
L 541.838465 319.329122 
L 553.210705 319.821388 
L 564.582945 323.314454 
L 576.080155 324.458487 
L 587.577365 322.449186 
L 598.824636 322.292936 
L 614.070936 324.357843 
L 621.694086 325.523031 
L 633.191295 323.38924 
L 637.065355 324.631459 
L 640.564506 325.873679 
L 644.438566 327.115898 
L 655.810806 327.885244 
L 667.308016 329.55104 
L 686.178436 331.169281 
L 690.052496 331.455826 
L 701.424736 331.834577 
L 712.921946 331.752939 
L 724.419156 334.432182 
L 735.791396 331.712352 
L 747.163636 331.619857 
L 747.163636 331.619857 
" clip-path="url(#pbfed9d7d3e)" style="fill: none; stroke: #fdbf6f; stroke-width: 1.5; stroke-linecap: square"/>
   </g>
   <g id="line2d_34">
    <path d="M 138.436364 368.148497 
L 176.677083 367.892028 
L 321.017055 366.418676 
L 344.011474 366.005435 
L 359.257774 365.692568 
L 370.630014 365.050439 
L 382.002255 363.866226 
L 397.373524 363.022383 
L 408.870734 362.581407 
L 446.736545 360.59386 
L 480.978235 359.012161 
L 500.098595 358.048745 
L 507.471805 357.586673 
L 518.844045 357.208561 
L 530.341255 360.985037 
L 545.712525 360.007996 
L 560.833855 359.326403 
L 576.080155 358.737906 
L 598.824636 358.303414 
L 617.944995 357.421403 
L 637.065355 356.585245 
L 644.438566 356.14454 
L 655.810806 344.537798 
L 667.308016 342.039134 
L 678.805226 340.188056 
L 693.801586 339.172461 
L 701.424736 338.868206 
L 716.796006 338.897277 
L 747.163636 338.424133 
L 747.163636 338.424133 
" clip-path="url(#pbfed9d7d3e)" style="fill: none; stroke: #ff7f00; stroke-width: 1.5; stroke-linecap: square"/>
   </g>
   <g id="line2d_35">
    <path d="M 138.436364 364.47191 
L 153.682664 365.023149 
L 176.677083 365.261617 
L 191.798414 365.377687 
L 199.421564 365.547582 
L 214.792833 365.274333 
L 226.290043 364.81739 
L 252.783614 363.431772 
L 279.277184 362.372648 
L 290.649424 361.38771 
L 336.263355 359.759192 
L 351.634624 359.59549 
L 363.131834 359.168004 
L 404.996674 356.672689 
L 408.870734 353.795855 
L 412.369885 350.919021 
L 416.243945 348.042186 
L 427.616185 348.543452 
L 439.113395 349.662344 
L 450.610605 350.148629 
L 461.857875 350.057584 
L 477.104175 349.31365 
L 492.350475 348.471956 
L 507.471805 347.666687 
L 530.341255 345.459214 
L 541.838465 344.786079 
L 560.833855 344.926303 
L 564.582945 344.923458 
L 583.703305 343.579298 
L 587.577365 343.290585 
L 610.196876 339.811454 
L 621.694086 337.905042 
L 633.191295 335.661453 
L 637.065355 334.434446 
L 640.564506 333.20744 
L 644.438566 331.980433 
L 655.810806 329.634652 
L 682.679286 322.477598 
L 686.178436 321.342062 
L 701.424736 316.778897 
L 724.419156 308.507346 
L 735.791396 303.786634 
L 747.163636 298.598683 
L 747.163636 298.598683 
" clip-path="url(#pbfed9d7d3e)" style="fill: none; stroke: #cab2d6; stroke-width: 1.5; stroke-linecap: square"/>
   </g>
   <g id="line2d_36">
    <path d="M 138.436364 367.903583 
L 172.803023 368.063065 
L 195.672473 368.167406 
L 218.541923 368.29985 
L 309.769784 367.78401 
L 340.137414 367.890867 
L 347.760564 368.086659 
L 359.257774 366.785679 
L 370.630014 367.917693 
L 389.750374 367.715553 
L 404.996674 367.599038 
L 419.993035 367.452794 
L 454.484664 367.494929 
L 564.582945 367.504103 
L 583.703305 367.395872 
L 594.950576 367.300473 
L 602.573726 367.135049 
L 621.694086 366.650971 
L 655.810806 366.525553 
L 712.921946 366.447282 
L 724.419156 364.556431 
L 747.163636 364.330214 
L 747.163636 364.330214 
" clip-path="url(#pbfed9d7d3e)" style="fill: none; stroke: #6a3d9a; stroke-width: 1.5; stroke-linecap: square"/>
   </g>
   <g id="line2d_37">
    <path d="M 138.436364 262.460213 
L 142.310423 261.775078 
L 157.556723 256.393677 
L 165.179873 253.50643 
L 169.053933 263.951507 
L 172.803023 274.396584 
L 176.677083 284.84166 
L 191.798414 280.332263 
L 199.421564 278.258375 
L 210.918773 284.250454 
L 222.415983 281.486496 
L 226.290043 275.357541 
L 229.789194 269.228586 
L 233.663254 263.099632 
L 245.035494 261.59897 
L 256.532704 266.884179 
L 268.029914 263.807431 
L 271.903973 262.377569 
L 275.403124 260.947706 
L 290.649424 255.316108 
L 302.146634 252.391951 
L 317.517904 246.908454 
L 321.017055 245.528101 
L 324.891114 244.147748 
L 336.263355 254.536135 
L 347.760564 257.40066 
L 359.257774 251.206461 
L 370.630014 247.24058 
L 382.002255 252.120909 
L 393.499464 249.180321 
L 416.243945 240.308505 
L 427.616185 242.899665 
L 439.113395 241.251114 
L 450.610605 246.6132 
L 461.857875 245.872769 
L 473.230115 247.599183 
L 484.727325 246.066238 
L 496.224535 247.030563 
L 507.471805 245.40489 
L 518.844045 243.42224 
L 530.341255 244.108323 
L 541.838465 255.033917 
L 553.210705 255.396178 
L 568.457005 254.653889 
L 579.954215 253.836794 
L 591.451425 252.742057 
L 598.824636 251.835177 
L 610.196876 246.477911 
L 621.694086 242.332903 
L 633.191295 240.169151 
L 637.065355 238.351596 
L 640.564506 236.534041 
L 644.438566 234.716486 
L 655.810806 228.209671 
L 671.182076 222.247805 
L 678.805226 219.506879 
L 682.679286 216.511169 
L 686.178436 213.515459 
L 690.052496 210.519748 
L 701.424736 203.53948 
L 712.921946 197.45177 
L 724.419156 192.840451 
L 728.293216 190.278846 
L 731.917336 187.717241 
L 735.791396 185.155636 
L 747.163636 178.412617 
L 747.163636 178.412617 
" clip-path="url(#pbfed9d7d3e)" style="fill: none; stroke: #ffff99; stroke-width: 1.5; stroke-linecap: square"/>
   </g>
   <g id="line2d_38">
    <path d="M 138.436364 328.556618 
L 142.310423 328.658772 
L 157.556723 327.227477 
L 165.179873 326.320364 
L 176.677083 326.067902 
L 188.049323 326.188153 
L 207.169683 324.576996 
L 210.918773 324.212935 
L 233.663254 322.922755 
L 245.035494 320.964434 
L 256.532704 320.318647 
L 268.029914 321.107852 
L 283.026274 322.965432 
L 306.020694 325.052694 
L 313.643844 325.405219 
L 324.891114 325.438432 
L 374.379105 322.558907 
L 385.876314 322.081099 
L 397.373524 321.737864 
L 404.996674 321.386849 
L 408.870734 325.098661 
L 412.369885 328.810473 
L 416.243945 332.522286 
L 427.616185 330.67655 
L 442.987455 329.051748 
L 450.610605 328.113203 
L 461.857875 326.080212 
L 488.601385 320.802997 
L 500.098595 318.75216 
L 507.471805 317.298511 
L 522.718105 314.6789 
L 530.341255 313.457119 
L 541.838465 312.653921 
L 553.210705 313.424429 
L 564.582945 314.613056 
L 576.080155 315.232133 
L 587.577365 316.639079 
L 602.573726 316.878128 
L 610.196876 316.878128 
L 617.944995 351.866043 
L 621.694086 369.36 
L 747.163636 369.36 
L 747.163636 369.36 
" clip-path="url(#pbfed9d7d3e)" style="fill: none; stroke: #b15928; stroke-width: 1.5; stroke-linecap: square"/>
   </g>
   <g id="line2d_39">
    <path d="M 138.436364 369.125906 
L 191.798414 369.255911 
L 241.286404 369.306155 
L 359.257774 369.211124 
L 389.750374 369.067281 
L 427.616185 369.079087 
L 541.838465 369.167054 
L 576.080155 369.318368 
L 747.163636 369.326671 
L 747.163636 369.326671 
" clip-path="url(#pbfed9d7d3e)" style="fill: none; stroke: #a6cee3; stroke-width: 1.5; stroke-linecap: square"/>
   </g>
   <g id="line2d_40">
    <path d="M 138.436364 369.36 
L 370.630014 369.36 
L 382.002255 368.084917 
L 393.499464 368.787548 
L 404.996674 368.678446 
L 416.243945 369.24753 
L 427.616185 367.867932 
L 439.113395 368.575092 
L 450.610605 368.810948 
L 465.606965 368.482925 
L 473.230115 368.240876 
L 484.727325 368.707768 
L 503.597745 368.812593 
L 515.094955 368.879212 
L 522.718105 368.884534 
L 534.215315 368.857321 
L 549.336645 369.066042 
L 568.457005 369.36 
L 747.163636 369.36 
L 747.163636 369.36 
" clip-path="url(#pbfed9d7d3e)" style="fill: none; stroke: #1f78b4; stroke-width: 1.5; stroke-linecap: square"/>
   </g>
   <g id="line2d_41">
    <path d="M 138.436364 367.520613 
L 161.430783 367.972079 
L 180.551143 368.209773 
L 222.415983 368.51668 
L 279.277184 368.642911 
L 347.760564 368.067498 
L 359.257774 366.510282 
L 385.876314 365.608143 
L 393.499464 365.516634 
L 404.996674 365.732806 
L 439.113395 364.892331 
L 473.230115 364.547896 
L 484.727325 365.742793 
L 530.341255 366.365761 
L 553.210705 366.490656 
L 564.582945 364.892331 
L 576.080155 369.36 
L 747.163636 369.36 
L 747.163636 369.36 
" clip-path="url(#pbfed9d7d3e)" style="fill: none; stroke: #b2df8a; stroke-width: 1.5; stroke-linecap: square"/>
   </g>
   <g id="line2d_42">
    <path d="M 138.436364 369.36 
L 370.630014 369.36 
L 382.002255 367.989924 
L 393.499464 369.30031 
L 431.490245 369.323052 
L 747.163636 369.36 
L 747.163636 369.36 
" clip-path="url(#pbfed9d7d3e)" style="fill: none; stroke: #33a02c; stroke-width: 1.5; stroke-linecap: square"/>
   </g>
   <g id="line2d_43">
    <path d="M 138.436364 293.098541 
L 142.310423 291.476332 
L 153.682664 283.384721 
L 165.179873 266.828205 
L 176.677083 258.644156 
L 180.551143 264.499765 
L 184.175264 270.355375 
L 188.049323 276.210984 
L 199.421564 271.796327 
L 210.918773 265.052437 
L 222.415983 265.199106 
L 226.290043 263.290391 
L 229.789194 261.381676 
L 233.663254 259.47296 
L 245.035494 258.879199 
L 256.532704 249.607497 
L 268.029914 251.383033 
L 271.903973 250.155117 
L 275.403124 248.927201 
L 283.026274 246.551497 
L 290.649424 244.255921 
L 302.146634 235.655206 
L 313.643844 231.935284 
L 317.517904 230.515795 
L 321.017055 229.096307 
L 324.891114 227.676819 
L 336.263355 224.621845 
L 347.760564 222.59286 
L 359.257774 219.530686 
L 363.131834 217.565184 
L 366.755955 215.599682 
L 370.630014 213.63418 
L 382.002255 212.221892 
L 393.499464 206.091679 
L 404.996674 195.065402 
L 408.870734 193.20186 
L 412.369885 191.338319 
L 416.243945 189.474777 
L 427.616185 186.833741 
L 435.364305 169.702296 
L 439.113395 161.136573 
L 450.610605 172.218417 
L 454.484664 163.709617 
L 457.983815 155.200817 
L 461.857875 146.692016 
L 477.104175 135.70079 
L 488.601385 126.945218 
L 496.224535 121.080377 
L 500.098595 108.706088 
L 503.597745 96.331799 
L 507.471805 83.957511 
L 518.844045 75.901318 
L 526.592165 113.856298 
L 530.341255 132.833788 
L 534.215315 110.875859 
L 537.964405 88.917929 
L 541.838465 66.96 
L 545.712525 86.420891 
L 549.336645 105.881783 
L 553.210705 125.342674 
L 564.582945 122.058405 
L 576.080155 139.434493 
L 587.577365 153.520447 
L 591.451425 160.071933 
L 594.950576 166.623418 
L 598.824636 173.174904 
L 602.573726 157.9754 
L 606.447786 142.775896 
L 610.196876 127.576392 
L 621.694086 133.463143 
L 633.191295 153.476957 
L 637.065355 157.227131 
L 640.564506 160.977304 
L 644.438566 164.727477 
L 655.810806 162.977373 
L 667.308016 161.472647 
L 678.805226 161.046168 
L 690.052496 162.362709 
L 701.424736 160.120048 
L 712.921946 159.71302 
L 724.419156 162.437495 
L 728.293216 168.868459 
L 731.917336 175.299424 
L 735.791396 181.730388 
L 747.163636 180.620496 
L 747.163636 180.620496 
" clip-path="url(#pbfed9d7d3e)" style="fill: none; stroke: #fb9a99; stroke-width: 1.5; stroke-linecap: square"/>
   </g>
   <g id="line2d_44">
    <path d="M 138.436364 365.178838 
L 142.310423 364.962472 
L 165.179873 365.56053 
L 176.677083 366.822666 
L 188.049323 367.048012 
L 199.421564 366.625655 
L 210.918773 365.136432 
L 222.415983 366.62879 
L 233.663254 365.439583 
L 245.035494 365.572317 
L 256.532704 366.265078 
L 268.029914 362.40348 
L 271.903973 363.680286 
L 275.403124 364.957092 
L 279.277184 366.233898 
L 290.649424 367.26308 
L 302.146634 367.011896 
L 306.020694 355.23913 
L 309.769784 343.466364 
L 313.643844 331.693598 
L 324.891114 330.260929 
L 328.640205 343.293953 
L 332.514264 356.326976 
L 336.263355 369.36 
L 747.163636 369.36 
L 747.163636 369.36 
" clip-path="url(#pbfed9d7d3e)" style="fill: none; stroke: #e31a1c; stroke-width: 1.5; stroke-linecap: square"/>
   </g>
   <g id="line2d_45">
    <path d="M 138.436364 369.36 
L 747.163636 369.36 
L 747.163636 369.36 
" clip-path="url(#pbfed9d7d3e)" style="fill: none; stroke: #fdbf6f; stroke-width: 1.5; stroke-linecap: square"/>
   </g>
   <g id="line2d_46">
    <path d="M 138.436364 369.36 
L 747.163636 369.36 
L 747.163636 369.36 
" clip-path="url(#pbfed9d7d3e)" style="fill: none; stroke: #ff7f00; stroke-width: 1.5; stroke-linecap: square"/>
   </g>
   <g id="line2d_47">
    <path d="M 138.436364 369.36 
L 701.424736 369.33782 
L 712.921946 367.739901 
L 735.791396 367.739901 
L 747.163636 366.598597 
L 747.163636 366.598597 
" clip-path="url(#pbfed9d7d3e)" style="fill: none; stroke: #cab2d6; stroke-width: 1.5; stroke-linecap: square"/>
   </g>
   <g id="line2d_48">
    <path d="M 138.436364 368.98003 
L 298.397544 369.05021 
L 366.755955 369.076726 
L 518.844045 369.155731 
L 568.457005 369.249446 
L 583.703305 369.359923 
L 747.163636 369.36 
L 747.163636 369.36 
" clip-path="url(#pbfed9d7d3e)" style="fill: none; stroke: #6a3d9a; stroke-width: 1.5; stroke-linecap: square"/>
   </g>
   <g id="line2d_49">
    <path d="M 138.436364 317.19897 
L 142.310423 317.088668 
L 153.682664 317.73881 
L 165.179873 319.672338 
L 176.677083 322.931639 
L 188.049323 324.61195 
L 199.421564 329.153128 
L 210.918773 342.153462 
L 222.415983 340.947648 
L 226.290043 342.920679 
L 229.789194 344.89371 
L 233.663254 346.866741 
L 245.035494 348.382499 
L 256.532704 348.242797 
L 268.029914 338.293547 
L 271.903973 335.704091 
L 275.403124 333.114634 
L 279.277184 330.525178 
L 290.649424 313.583002 
L 302.146634 314.325872 
L 313.643844 299.46308 
L 317.517904 298.040282 
L 321.017055 296.617484 
L 324.891114 295.194686 
L 336.263355 294.102214 
L 347.760564 294.412798 
L 359.257774 295.167396 
L 370.630014 291.187929 
L 393.499464 297.056331 
L 397.373524 281.983232 
L 401.122614 266.910134 
L 404.996674 251.837035 
L 408.870734 254.714469 
L 412.369885 257.591903 
L 423.867095 266.001395 
L 427.616185 268.767424 
L 439.113395 273.519083 
L 442.987455 293.123083 
L 446.736545 312.727082 
L 450.610605 332.331081 
L 461.857875 332.615362 
L 473.230115 328.077726 
L 484.727325 319.890426 
L 496.224535 318.158902 
L 507.471805 314.841943 
L 518.844045 311.552275 
L 530.341255 311.092002 
L 541.838465 313.707433 
L 556.959795 316.232845 
L 564.582945 317.283298 
L 576.080155 319.326857 
L 587.577365 318.220101 
L 591.451425 314.418464 
L 594.950576 310.616827 
L 598.824636 306.81519 
L 610.196876 299.41181 
L 629.317236 293.777443 
L 637.065355 291.513493 
L 640.564506 290.32597 
L 644.438566 289.138447 
L 655.810806 289.132931 
L 667.308016 291.313753 
L 690.052496 293.699193 
L 701.424736 296.546879 
L 709.172856 244.648627 
L 712.921946 218.699501 
L 716.796006 240.310305 
L 720.545096 261.921109 
L 724.419156 283.531913 
L 735.791396 282.88752 
L 739.540486 291.501029 
L 743.414546 300.114538 
L 747.163636 308.728047 
L 747.163636 308.728047 
" clip-path="url(#pbfed9d7d3e)" style="fill: none; stroke: #ffff99; stroke-width: 1.5; stroke-linecap: square"/>
   </g>
   <g id="line2d_50">
    <path d="M 138.436364 213.489194 
L 142.310423 211.522338 
L 153.682664 206.513165 
L 165.179873 210.127469 
L 176.677083 206.152066 
L 188.049323 202.926616 
L 199.421564 203.189239 
L 210.918773 201.772305 
L 222.415983 220.63628 
L 237.412344 222.606659 
L 245.035494 223.659668 
L 256.532704 224.633225 
L 268.029914 224.91768 
L 279.277184 224.429885 
L 302.146634 222.579911 
L 313.643844 220.727383 
L 317.517904 222.418494 
L 321.017055 224.109605 
L 324.891114 225.800716 
L 336.263355 218.790255 
L 347.760564 217.262768 
L 359.257774 217.889974 
L 374.379105 221.015244 
L 382.002255 222.608943 
L 393.499464 225.819587 
L 404.996674 227.786676 
L 416.243945 229.262486 
L 427.616185 230.960333 
L 439.113395 231.50892 
L 450.610605 230.354494 
L 461.857875 228.33567 
L 473.230115 225.823071 
L 484.727325 224.139856 
L 511.220895 221.185681 
L 518.844045 220.043448 
L 530.341255 215.067429 
L 541.838465 210.681921 
L 553.210705 209.349354 
L 564.582945 209.732112 
L 576.080155 207.917847 
L 587.577365 205.78754 
L 591.451425 204.428264 
L 594.950576 203.068988 
L 598.824636 201.709712 
L 610.196876 194.816598 
L 621.694086 184.869264 
L 633.191295 175.854785 
L 637.065355 171.966807 
L 640.564506 168.078829 
L 644.438566 164.190851 
L 655.810806 158.746373 
L 667.308016 155.579509 
L 678.805226 150.575562 
L 682.679286 148.8134 
L 686.178436 147.051238 
L 690.052496 145.289076 
L 701.424736 143.169802 
L 712.921946 146.492276 
L 724.419156 147.981557 
L 735.791396 147.461595 
L 747.163636 144.013412 
L 747.163636 144.013412 
" clip-path="url(#pbfed9d7d3e)" style="fill: none; stroke: #b15928; stroke-width: 1.5; stroke-linecap: square"/>
   </g>
   <g id="line2d_51">
    <path d="M 138.436364 356.348847 
L 146.059514 356.428743 
L 157.556723 356.570516 
L 176.677083 356.513071 
L 191.798414 355.253123 
L 203.295623 354.472977 
L 210.918773 353.841551 
L 229.789194 354.164464 
L 241.286404 354.316688 
L 256.532704 354.352397 
L 268.029914 354.407964 
L 279.277184 354.903249 
L 294.523484 354.993636 
L 309.769784 355.448973 
L 317.517904 355.642655 
L 374.379105 356.404143 
L 382.002255 356.464878 
L 393.499464 348.763398 
L 404.996674 357.802845 
L 416.243945 358.915639 
L 427.616185 358.148731 
L 439.113395 358.335407 
L 450.610605 358.064713 
L 461.857875 356.19192 
L 473.230115 353.759274 
L 484.727325 353.087359 
L 511.220895 352.908948 
L 518.844045 353.144958 
L 530.341255 352.47734 
L 541.838465 350.890569 
L 560.833855 349.939812 
L 579.954215 348.827365 
L 594.950576 347.677158 
L 602.573726 347.089648 
L 648.187656 343.356565 
L 655.810806 342.931227 
L 678.805226 333.797892 
L 682.679286 332.343488 
L 686.178436 330.889084 
L 690.052496 329.43468 
L 701.424736 326.648135 
L 712.921946 324.116839 
L 724.419156 322.706119 
L 735.791396 321.737032 
L 747.163636 320.069959 
L 747.163636 320.069959 
" clip-path="url(#pbfed9d7d3e)" style="fill: none; stroke: #a6cee3; stroke-width: 1.5; stroke-linecap: square"/>
   </g>
   <g id="line2d_52">
    <path d="M 138.436364 369.36 
L 747.163636 369.359942 
L 747.163636 369.359942 
" clip-path="url(#pbfed9d7d3e)" style="fill: none; stroke: #1f78b4; stroke-width: 1.5; stroke-linecap: square"/>
   </g>
   <g id="line2d_53">
    <path d="M 138.436364 368.062214 
L 172.803023 367.940667 
L 180.551143 368.059523 
L 191.798414 368.249915 
L 222.415983 368.299579 
L 233.663254 369.36 
L 747.163636 369.36 
L 747.163636 369.36 
" clip-path="url(#pbfed9d7d3e)" style="fill: none; stroke: #b2df8a; stroke-width: 1.5; stroke-linecap: square"/>
   </g>
   <g id="line2d_54">
    <path d="M 138.436364 369.36 
L 416.243945 369.36 
L 419.993035 347.046313 
L 423.867095 324.732626 
L 427.616185 302.418939 
L 439.113395 291.168419 
L 450.610605 292.587791 
L 461.857875 292.590927 
L 473.230115 291.664285 
L 484.727325 288.702039 
L 507.471805 288.132548 
L 518.844045 288.0728 
L 530.341255 286.834181 
L 541.838465 287.948544 
L 553.210705 291.15611 
L 568.457005 295.827409 
L 576.080155 298.390582 
L 587.577365 294.545822 
L 591.451425 297.79384 
L 594.950576 301.041857 
L 598.824636 304.289874 
L 610.196876 306.69401 
L 621.694086 307.84623 
L 633.191295 310.977036 
L 644.438566 311.161795 
L 659.684866 312.947609 
L 667.308016 313.7468 
L 678.805226 315.337867 
L 690.052496 317.767725 
L 701.424736 317.99191 
L 724.419156 320.069785 
L 747.163636 321.509305 
L 747.163636 321.509305 
" clip-path="url(#pbfed9d7d3e)" style="fill: none; stroke: #33a02c; stroke-width: 1.5; stroke-linecap: square"/>
   </g>
   <g id="line2d_55">
    <path d="M 138.436364 369.36 
L 397.373524 369.256104 
L 404.996674 369.165254 
L 416.243945 368.636466 
L 427.616185 369.36 
L 587.577365 369.36 
L 598.824636 366.5727 
L 610.196876 369.137441 
L 621.694086 369.039603 
L 633.191295 369.337181 
L 644.438566 368.853683 
L 705.298796 368.760084 
L 716.796006 368.844315 
L 728.293216 368.777426 
L 739.540486 368.792193 
L 747.163636 368.729136 
L 747.163636 368.729136 
" clip-path="url(#pbfed9d7d3e)" style="fill: none; stroke: #fb9a99; stroke-width: 1.5; stroke-linecap: square"/>
   </g>
   <g id="line2d_56">
    <path d="M 138.436364 350.567173 
L 142.310423 350.694894 
L 153.682664 348.853281 
L 165.179873 348.690354 
L 176.677083 348.119586 
L 199.421564 348.043115 
L 210.918773 346.674665 
L 222.415983 349.343805 
L 233.663254 350.046552 
L 252.783614 349.138568 
L 256.532704 348.923016 
L 268.029914 349.280689 
L 279.277184 349.04826 
L 290.649424 349.227503 
L 302.146634 348.99368 
L 313.643844 349.104117 
L 324.891114 348.222591 
L 336.263355 348.174979 
L 347.760564 347.703442 
L 363.131834 347.562288 
L 385.876314 346.878876 
L 393.499464 346.499487 
L 404.996674 345.22179 
L 419.993035 344.668751 
L 427.616185 344.274304 
L 439.113395 343.150825 
L 461.857875 342.419452 
L 473.230115 341.593784 
L 488.601385 341.150911 
L 507.471805 340.971861 
L 518.844045 341.076028 
L 530.341255 329.516724 
L 541.838465 333.249827 
L 553.210705 335.673356 
L 564.582945 338.947057 
L 576.080155 341.487933 
L 591.451425 342.534206 
L 598.824636 343.143567 
L 610.196876 345.722301 
L 629.317236 347.348555 
L 633.191295 347.639978 
L 637.065355 349.915096 
L 640.564506 352.190214 
L 644.438566 354.465331 
L 655.810806 357.144284 
L 667.308016 358.760841 
L 697.675646 360.779471 
L 701.424736 360.989624 
L 716.796006 361.285692 
L 724.419156 361.565908 
L 739.540486 361.266956 
L 747.163636 361.279189 
L 747.163636 361.279189 
" clip-path="url(#pbfed9d7d3e)" style="fill: none; stroke: #e31a1c; stroke-width: 1.5; stroke-linecap: square"/>
   </g>
   <g id="line2d_57">
    <path d="M 138.436364 369.36 
L 271.903973 369.268046 
L 283.026274 369.065829 
L 290.649424 368.801832 
L 385.876314 368.801309 
L 404.996674 368.748761 
L 473.230115 368.673394 
L 488.601385 368.805993 
L 507.471805 368.660388 
L 530.341255 368.283379 
L 568.457005 368.241031 
L 576.080155 368.069936 
L 587.577365 361.273382 
L 591.451425 358.52396 
L 594.950576 355.774537 
L 598.824636 353.025114 
L 610.196876 346.910811 
L 621.694086 341.645577 
L 644.438566 333.812001 
L 655.810806 331.439568 
L 682.679286 324.29494 
L 686.178436 323.172585 
L 697.675646 319.76135 
L 701.424736 318.61691 
L 724.419156 310.354997 
L 735.791396 305.640266 
L 747.163636 300.387341 
L 747.163636 300.387341 
" clip-path="url(#pbfed9d7d3e)" style="fill: none; stroke: #fdbf6f; stroke-width: 1.5; stroke-linecap: square"/>
   </g>
   <g id="line2d_58">
    <path d="M 138.436364 368.269308 
L 161.430783 368.427436 
L 176.677083 368.376223 
L 203.295623 368.558718 
L 214.792833 368.658588 
L 237.412344 368.483835 
L 286.900334 368.192451 
L 317.517904 368.164 
L 340.137414 368.265747 
L 347.760564 368.457977 
L 359.257774 367.537258 
L 370.630014 368.315605 
L 385.876314 368.141645 
L 404.996674 368.052459 
L 427.616185 367.857248 
L 572.331065 367.781726 
L 583.703305 367.747275 
L 594.950576 367.649902 
L 602.573726 367.483084 
L 621.694086 366.996393 
L 655.810806 366.867259 
L 712.921946 366.784169 
L 724.419156 368.008156 
L 739.540486 368.120413 
L 747.163636 368.295108 
L 747.163636 368.295108 
" clip-path="url(#pbfed9d7d3e)" style="fill: none; stroke: #ff7f00; stroke-width: 1.5; stroke-linecap: square"/>
   </g>
   <g id="line2d_59">
    <path d="M 138.436364 343.709381 
L 142.310423 343.310094 
L 165.179873 342.655947 
L 176.677083 348.876449 
L 199.421564 348.726702 
L 210.918773 352.41736 
L 222.415983 349.945811 
L 233.663254 348.72734 
L 245.035494 346.616021 
L 256.532704 347.34002 
L 268.029914 346.801419 
L 286.900334 344.808782 
L 321.017055 340.976777 
L 324.891114 340.49655 
L 347.760564 343.011936 
L 359.257774 343.211908 
L 370.630014 341.159988 
L 389.750374 339.341311 
L 393.499464 338.946476 
L 404.996674 335.523493 
L 416.243945 334.083682 
L 427.616185 334.158469 
L 439.113395 333.857639 
L 450.610605 334.12183 
L 461.857875 331.928408 
L 484.727325 332.343449 
L 496.224535 333.54183 
L 507.471805 333.811943 
L 530.341255 336.411116 
L 541.838465 340.592065 
L 556.959795 340.930287 
L 564.582945 341.004145 
L 579.954215 341.631583 
L 594.950576 341.884626 
L 598.824636 341.927593 
L 610.196876 341.424179 
L 625.568145 341.356593 
L 633.191295 341.442411 
L 644.438566 340.938997 
L 655.810806 339.984775 
L 667.308016 339.598476 
L 678.805226 338.766652 
L 693.801586 337.036348 
L 705.298796 336.101422 
L 724.419156 334.722443 
L 735.791396 332.943307 
L 747.163636 331.859022 
L 747.163636 331.859022 
" clip-path="url(#pbfed9d7d3e)" style="fill: none; stroke: #cab2d6; stroke-width: 1.5; stroke-linecap: square"/>
   </g>
   <g id="line2d_60">
    <path d="M 138.436364 369.36 
L 747.163636 369.36 
L 747.163636 369.36 
" clip-path="url(#pbfed9d7d3e)" style="fill: none; stroke: #6a3d9a; stroke-width: 1.5; stroke-linecap: square"/>
   </g>
   <g id="line2d_61">
    <path d="M 138.436364 369.36 
L 461.857875 369.24933 
L 500.098595 369.229705 
L 511.220895 369.36 
L 541.838465 369.359942 
L 553.210705 367.66105 
L 564.582945 368.139845 
L 576.080155 369.36 
L 598.824636 369.36 
L 610.196876 367.483026 
L 640.564506 367.316576 
L 659.684866 367.176894 
L 693.801586 366.995967 
L 712.921946 367.12332 
L 724.419156 367.587657 
L 735.791396 369.359942 
L 747.163636 369.359942 
L 747.163636 369.359942 
" clip-path="url(#pbfed9d7d3e)" style="fill: none; stroke: #ffff99; stroke-width: 1.5; stroke-linecap: square"/>
   </g>
   <g id="line2d_62">
    <path d="M 138.436364 365.178838 
L 142.310423 364.962472 
L 165.179873 365.56053 
L 176.677083 366.822666 
L 188.049323 367.048012 
L 199.421564 366.625655 
L 210.918773 365.136432 
L 222.415983 366.62879 
L 233.663254 365.439583 
L 245.035494 365.572317 
L 256.532704 366.265078 
L 268.029914 362.40348 
L 271.903973 363.680286 
L 275.403124 364.957092 
L 279.277184 366.233898 
L 290.649424 367.26308 
L 302.146634 367.011896 
L 306.020694 355.23913 
L 309.769784 343.466364 
L 313.643844 331.693598 
L 324.891114 330.260929 
L 328.640205 343.293953 
L 332.514264 356.326976 
L 336.263355 369.36 
L 747.163636 369.36 
L 747.163636 369.36 
" clip-path="url(#pbfed9d7d3e)" style="fill: none; stroke: #b15928; stroke-width: 1.5; stroke-linecap: square"/>
   </g>
   <g id="line2d_63">
    <path d="M 138.436364 369.36 
L 747.163636 369.36 
L 747.163636 369.36 
" clip-path="url(#pbfed9d7d3e)" style="fill: none; stroke: #a6cee3; stroke-width: 1.5; stroke-linecap: square"/>
   </g>
   <g id="line2d_64">
    <path d="M 138.436364 369.36 
L 747.163636 369.36 
L 747.163636 369.36 
" clip-path="url(#pbfed9d7d3e)" style="fill: none; stroke: #1f78b4; stroke-width: 1.5; stroke-linecap: square"/>
   </g>
   <g id="line2d_65">
    <path d="M 138.436364 369.36 
L 701.424736 369.33782 
L 712.921946 367.739901 
L 735.791396 367.739901 
L 747.163636 366.598597 
L 747.163636 366.598597 
" clip-path="url(#pbfed9d7d3e)" style="fill: none; stroke: #b2df8a; stroke-width: 1.5; stroke-linecap: square"/>
   </g>
   <g id="line2d_66">
    <path d="M 138.436364 368.85827 
L 153.682664 368.831444 
L 184.175264 368.773264 
L 199.421564 368.719033 
L 309.769784 368.686285 
L 366.755955 368.536925 
L 435.364305 368.527964 
L 442.987455 368.552873 
L 465.606965 368.487822 
L 556.959795 368.429855 
L 587.577365 368.251212 
L 747.163636 368.174625 
L 747.163636 368.174625 
" clip-path="url(#pbfed9d7d3e)" style="fill: none; stroke: #33a02c; stroke-width: 1.5; stroke-linecap: square"/>
   </g>
   <g id="line2d_67">
    <path d="M 138.436364 310.626175 
L 142.310423 310.005975 
L 153.682664 305.443894 
L 165.179873 302.88136 
L 176.677083 297.724647 
L 188.049323 294.46401 
L 199.421564 291.074588 
L 210.918773 286.70255 
L 222.415983 284.131713 
L 226.290043 282.709786 
L 229.789194 281.287859 
L 233.663254 279.865932 
L 245.035494 278.260523 
L 256.532704 270.654268 
L 268.029914 278.656287 
L 271.903973 279.944841 
L 275.403124 281.233395 
L 279.277184 282.521949 
L 290.649424 286.725544 
L 309.769784 292.576546 
L 317.517904 294.950818 
L 321.017055 296.143451 
L 328.640205 298.591541 
L 336.263355 301.102456 
L 355.383714 306.058152 
L 359.257774 307.001749 
L 363.131834 309.658618 
L 366.755955 312.315486 
L 370.630014 314.972355 
L 382.002255 318.889985 
L 393.499464 325.970123 
L 404.996674 331.828887 
L 408.870734 334.239739 
L 412.369885 336.650591 
L 416.243945 339.061443 
L 427.616185 347.901788 
L 439.113395 351.23123 
L 450.610605 353.825351 
L 473.230115 356.495246 
L 484.727325 357.631382 
L 496.224535 357.407081 
L 500.098595 345.222313 
L 503.597745 333.037545 
L 507.471805 320.852777 
L 518.844045 319.267052 
L 530.341255 318.745115 
L 541.838465 318.687167 
L 556.959795 320.453065 
L 564.582945 321.206502 
L 576.080155 323.897996 
L 587.577365 324.491816 
L 610.196876 324.250154 
L 625.568145 321.978191 
L 633.191295 321.00473 
L 644.438566 318.978822 
L 655.810806 316.77071 
L 671.182076 315.001561 
L 690.052496 313.055549 
L 716.796006 309.339227 
L 724.419156 308.368631 
L 735.791396 304.903552 
L 747.163636 299.992449 
L 747.163636 299.992449 
" clip-path="url(#pbfed9d7d3e)" style="fill: none; stroke: #fb9a99; stroke-width: 1.5; stroke-linecap: square"/>
   </g>
   <g id="line2d_68">
    <path d="M 138.436364 357.438842 
L 142.310423 356.997266 
L 153.682664 355.033313 
L 165.179873 354.656942 
L 176.677083 353.885796 
L 195.672473 353.525509 
L 210.918773 353.245061 
L 222.415983 355.050093 
L 237.412344 354.749612 
L 252.783614 354.16336 
L 260.406764 353.710481 
L 279.277184 352.348438 
L 313.643844 350.50067 
L 324.891114 350.218131 
L 336.263355 348.547342 
L 347.760564 347.693861 
L 359.257774 344.612061 
L 363.131834 342.1697 
L 366.755955 339.727339 
L 370.630014 337.284977 
L 382.002255 329.111961 
L 393.499464 322.155499 
L 404.996674 317.66234 
L 408.870734 316.357992 
L 412.369885 315.053644 
L 416.243945 313.749297 
L 427.616185 310.917288 
L 439.113395 309.187564 
L 450.610605 310.142367 
L 465.606965 312.61798 
L 477.104175 314.069094 
L 484.727325 314.899833 
L 496.224535 314.3754 
L 507.471805 314.770525 
L 518.844045 316.055537 
L 530.341255 315.613322 
L 541.838465 315.846449 
L 553.210705 316.602035 
L 568.457005 318.776141 
L 583.703305 320.707036 
L 591.451425 321.516738 
L 610.196876 323.498691 
L 633.191295 326.326925 
L 644.438566 328.548392 
L 659.684866 330.122485 
L 671.182076 331.249215 
L 720.545096 336.964465 
L 735.791396 338.862806 
L 747.163636 339.016675 
L 747.163636 339.016675 
" clip-path="url(#pbfed9d7d3e)" style="fill: none; stroke: #e31a1c; stroke-width: 1.5; stroke-linecap: square"/>
   </g>
   <g id="line2d_69">
    <path d="M 138.436364 318.569356 
L 142.310423 317.922292 
L 153.682664 314.068068 
L 165.179873 311.236407 
L 180.551143 304.514253 
L 188.049323 301.145656 
L 199.421564 297.720698 
L 210.918773 293.064148 
L 222.415983 299.569976 
L 245.035494 295.038204 
L 256.532704 292.877356 
L 268.029914 293.701109 
L 279.277184 295.502367 
L 302.146634 297.001054 
L 313.643844 297.375276 
L 328.640205 297.258916 
L 340.137414 296.937378 
L 347.760564 296.607846 
L 359.257774 296.95861 
L 370.630014 296.413332 
L 382.002255 296.379248 
L 393.499464 304.367796 
L 404.996674 307.122754 
L 416.243945 307.012839 
L 427.616185 308.885864 
L 446.736545 310.777993 
L 450.610605 311.120222 
L 461.857875 312.736546 
L 473.230115 313.554144 
L 496.224535 305.984005 
L 507.471805 302.437752 
L 518.844045 298.689088 
L 530.341255 297.456682 
L 541.838465 298.540967 
L 553.210705 300.193698 
L 587.577365 303.362478 
L 602.573726 303.693461 
L 614.070936 303.631352 
L 621.694086 303.499625 
L 633.191295 302.917302 
L 644.438566 301.592748 
L 655.810806 300.07188 
L 667.308016 300.048945 
L 678.805226 299.687904 
L 690.052496 298.45422 
L 701.424736 296.322926 
L 712.921946 293.492833 
L 728.293216 291.717588 
L 735.791396 290.747224 
L 747.163636 290.039193 
L 747.163636 290.039193 
" clip-path="url(#pbfed9d7d3e)" style="fill: none; stroke: #fdbf6f; stroke-width: 1.5; stroke-linecap: square"/>
   </g>
   <g id="line2d_70">
    <path d="M 138.436364 368.384836 
L 214.792833 368.029814 
L 229.789194 367.846139 
L 241.286404 367.717333 
L 248.909554 367.599115 
L 268.029914 367.272835 
L 294.523484 367.01718 
L 324.891114 366.567707 
L 359.257774 366.035842 
L 397.373524 365.632646 
L 419.993035 365.440609 
L 454.484664 365.09151 
L 461.857875 365.141832 
L 473.230115 364.476419 
L 503.597745 363.970799 
L 518.844045 363.622822 
L 606.447786 361.674449 
L 617.944995 361.341452 
L 644.438566 360.565351 
L 655.810806 360.102117 
L 667.308016 360.38785 
L 693.801586 359.26141 
L 716.796006 358.324839 
L 747.163636 357.170993 
L 747.163636 357.170993 
" clip-path="url(#pbfed9d7d3e)" style="fill: none; stroke: #ff7f00; stroke-width: 1.5; stroke-linecap: square"/>
   </g>
   <g id="line2d_71">
    <path d="M 138.436364 359.370318 
L 146.059514 358.809131 
L 157.556723 357.917095 
L 172.803023 356.830719 
L 176.677083 356.538735 
L 188.049323 356.675534 
L 199.421564 355.595313 
L 210.918773 354.93321 
L 222.415983 355.324561 
L 226.290043 360.003041 
L 229.789194 364.68152 
L 233.663254 369.36 
L 747.163636 369.36 
L 747.163636 369.36 
" clip-path="url(#pbfed9d7d3e)" style="fill: none; stroke: #cab2d6; stroke-width: 1.5; stroke-linecap: square"/>
   </g>
   <g id="line2d_72">
    <path d="M 138.436364 347.258111 
L 153.682664 347.986561 
L 172.803023 348.511014 
L 180.551143 348.562574 
L 191.798414 348.411299 
L 218.541923 347.685635 
L 229.789194 347.427193 
L 237.412344 347.335433 
L 248.909554 347.253098 
L 260.406764 347.06381 
L 279.277184 347.06381 
L 290.649424 345.372931 
L 306.020694 344.267955 
L 317.517904 343.537492 
L 324.891114 342.974543 
L 328.640205 329.164837 
L 332.514264 315.355132 
L 336.263355 301.545426 
L 347.760564 294.857509 
L 359.257774 290.805578 
L 363.131834 288.203464 
L 366.755955 285.601349 
L 370.630014 282.999235 
L 385.876314 269.366333 
L 393.499464 262.423362 
L 404.996674 258.772884 
L 416.243945 260.037109 
L 419.993035 286.6177 
L 423.867095 313.19829 
L 427.616185 339.77888 
L 439.113395 336.893104 
L 450.610605 336.458844 
L 461.857875 336.510289 
L 477.104175 337.495691 
L 492.350475 338.24309 
L 496.224535 338.404159 
L 518.844045 338.445501 
L 541.838465 338.456881 
L 553.210705 339.004017 
L 568.457005 340.238301 
L 576.080155 340.791224 
L 587.577365 339.961839 
L 598.824636 341.947102 
L 625.568145 342.795958 
L 633.191295 342.73712 
L 648.187656 342.254086 
L 659.684866 342.181739 
L 690.052496 342.436349 
L 705.298796 342.106101 
L 731.917336 341.89589 
L 739.540486 341.773724 
L 747.163636 341.589545 
L 747.163636 341.589545 
" clip-path="url(#pbfed9d7d3e)" style="fill: none; stroke: #6a3d9a; stroke-width: 1.5; stroke-linecap: square"/>
   </g>
   <g id="line2d_73">
    <path d="M 138.436364 369.295162 
L 401.122614 369.307936 
L 412.369885 369.36 
L 747.163636 369.36 
L 747.163636 369.36 
" clip-path="url(#pbfed9d7d3e)" style="fill: none; stroke: #ffff99; stroke-width: 1.5; stroke-linecap: square"/>
   </g>
   <g id="line2d_74">
    <path d="M 138.436364 364.089501 
L 153.682664 364.286725 
L 176.677083 364.001805 
L 199.421564 363.887767 
L 210.918773 363.618583 
L 222.415983 365.809625 
L 241.286404 366.575875 
L 245.035494 366.749795 
L 256.532704 366.46174 
L 268.029914 366.813201 
L 283.026274 366.815969 
L 290.649424 366.934845 
L 302.146634 366.641796 
L 317.517904 366.955206 
L 332.514264 366.951761 
L 351.634624 366.761195 
L 363.131834 366.507185 
L 374.379105 366.471069 
L 385.876314 366.470953 
L 401.122614 366.142118 
L 439.113395 365.220276 
L 461.857875 364.860512 
L 484.727325 364.279931 
L 515.094955 364.220028 
L 518.844045 364.231912 
L 530.341255 357.805922 
L 541.838465 355.439295 
L 553.210705 353.508032 
L 564.582945 353.727397 
L 576.080155 352.330554 
L 587.577365 349.579661 
L 610.196876 347.412948 
L 621.694086 348.117321 
L 637.065355 344.076364 
L 644.438566 342.010566 
L 655.810806 340.100961 
L 671.182076 340.227733 
L 686.178436 340.432041 
L 693.801586 340.372758 
L 712.921946 339.967356 
L 724.419156 342.226274 
L 735.791396 339.811512 
L 747.163636 339.700668 
L 747.163636 339.700668 
" clip-path="url(#pbfed9d7d3e)" style="fill: none; stroke: #b15928; stroke-width: 1.5; stroke-linecap: square"/>
   </g>
   <g id="line2d_75">
    <path d="M 138.436364 368.148497 
L 176.677083 367.892028 
L 321.017055 366.418676 
L 344.011474 366.005435 
L 359.257774 365.692568 
L 370.630014 365.050439 
L 382.002255 363.866226 
L 397.373524 363.022383 
L 408.870734 362.581407 
L 446.736545 360.59386 
L 480.978235 359.012161 
L 500.098595 358.048745 
L 507.471805 357.586673 
L 518.844045 357.208561 
L 530.341255 360.985037 
L 545.712525 360.007996 
L 560.833855 359.326403 
L 576.080155 358.737906 
L 598.824636 358.303414 
L 617.944995 357.421403 
L 637.065355 356.585245 
L 644.438566 356.14454 
L 655.810806 344.537798 
L 667.308016 342.039134 
L 678.805226 340.188056 
L 693.801586 339.172461 
L 701.424736 338.868206 
L 716.796006 338.897277 
L 747.163636 338.424133 
L 747.163636 338.424133 
" clip-path="url(#pbfed9d7d3e)" style="fill: none; stroke: #a6cee3; stroke-width: 1.5; stroke-linecap: square"/>
   </g>
   <g id="line2d_76">
    <path d="M 138.436364 364.47191 
L 153.682664 365.023149 
L 176.677083 365.261617 
L 191.798414 365.378229 
L 199.421564 365.549208 
L 214.792833 365.301507 
L 226.290043 364.863783 
L 252.783614 363.485017 
L 336.263355 360.329379 
L 347.760564 360.309057 
L 363.131834 359.74454 
L 404.996674 357.283928 
L 408.870734 354.414797 
L 412.369885 351.545666 
L 416.243945 348.676535 
L 427.616185 349.185987 
L 439.113395 350.309814 
L 450.610605 350.824667 
L 461.857875 350.746455 
L 473.230115 350.241937 
L 484.727325 349.369759 
L 507.471805 348.366299 
L 537.964405 346.090136 
L 541.838465 345.867287 
L 560.833855 345.966015 
L 564.582945 345.956879 
L 576.080155 345.446788 
L 587.577365 351.377203 
L 591.451425 353.548348 
L 594.950576 355.719492 
L 598.824636 357.890637 
L 610.196876 362.260643 
L 621.694086 365.619465 
L 633.191295 367.410621 
L 655.810806 367.555084 
L 747.163636 367.571341 
L 747.163636 367.571341 
" clip-path="url(#pbfed9d7d3e)" style="fill: none; stroke: #1f78b4; stroke-width: 1.5; stroke-linecap: square"/>
   </g>
   <g id="line2d_77">
    <path d="M 138.436364 368.994275 
L 176.677083 369.046107 
L 252.783614 368.976159 
L 347.760564 368.988681 
L 359.257774 368.608421 
L 370.630014 368.962088 
L 435.364305 368.989804 
L 712.921946 369.023113 
L 724.419156 365.908275 
L 739.540486 365.624768 
L 747.163636 365.395106 
L 747.163636 365.395106 
" clip-path="url(#pbfed9d7d3e)" style="fill: none; stroke: #b2df8a; stroke-width: 1.5; stroke-linecap: square"/>
   </g>
   <g id="line2d_78">
    <path d="M 138.436364 288.110832 
L 142.310423 287.824984 
L 157.556723 282.871823 
L 165.179873 280.210483 
L 169.053933 288.58206 
L 172.803023 296.953636 
L 176.677083 305.325212 
L 191.798414 300.891433 
L 199.421564 298.891673 
L 210.918773 301.193094 
L 222.415983 300.900684 
L 226.290043 295.177887 
L 229.789194 289.455089 
L 233.663254 283.732291 
L 245.035494 284.342949 
L 256.532704 288.904159 
L 268.029914 286.366012 
L 290.649424 280.279521 
L 302.146634 278.515134 
L 324.891114 273.011198 
L 336.263355 282.129495 
L 347.760564 283.748723 
L 359.257774 277.354552 
L 370.630014 275.440592 
L 382.002255 281.349929 
L 393.499464 279.593845 
L 404.996674 278.500908 
L 416.243945 275.584823 
L 427.616185 278.101196 
L 439.113395 276.753475 
L 450.610605 281.851369 
L 473.230115 284.783074 
L 484.727325 283.082789 
L 496.224535 282.848733 
L 507.471805 280.952947 
L 518.844045 277.664962 
L 530.341255 277.057207 
L 541.838465 283.801852 
L 553.210705 283.862819 
L 564.582945 283.257967 
L 591.451425 280.260399 
L 598.824636 279.267584 
L 610.196876 274.413732 
L 621.694086 270.379219 
L 633.191295 268.08674 
L 637.065355 266.43699 
L 640.564506 264.78724 
L 644.438566 263.13749 
L 655.810806 257.584897 
L 667.308016 253.379793 
L 678.805226 250.100227 
L 682.679286 247.569628 
L 686.178436 245.039029 
L 690.052496 242.50843 
L 701.424736 236.533074 
L 712.921946 231.240317 
L 724.419156 227.478008 
L 728.293216 225.509448 
L 731.917336 223.540888 
L 747.163636 215.913595 
L 747.163636 215.913595 
" clip-path="url(#pbfed9d7d3e)" style="fill: none; stroke: #33a02c; stroke-width: 1.5; stroke-linecap: square"/>
   </g>
   <g id="line2d_79">
    <path d="M 138.436364 369.126951 
L 191.798414 369.256027 
L 241.286404 369.306155 
L 359.257774 369.211124 
L 389.750374 369.067281 
L 427.616185 369.079087 
L 541.838465 369.167054 
L 576.080155 369.318368 
L 747.163636 369.326671 
L 747.163636 369.326671 
" clip-path="url(#pbfed9d7d3e)" style="fill: none; stroke: #fb9a99; stroke-width: 1.5; stroke-linecap: square"/>
   </g>
   <g id="line2d_80">
    <path d="M 138.436364 369.36 
L 370.630014 369.36 
L 382.002255 368.084917 
L 393.499464 368.787548 
L 404.996674 368.678446 
L 416.243945 369.24753 
L 427.616185 367.867932 
L 439.113395 368.575092 
L 450.610605 368.810948 
L 465.606965 368.482925 
L 473.230115 368.240876 
L 484.727325 368.707768 
L 503.597745 368.812593 
L 515.094955 368.879212 
L 522.718105 368.884534 
L 534.215315 368.857321 
L 549.336645 369.066042 
L 568.457005 369.36 
L 747.163636 369.36 
L 747.163636 369.36 
" clip-path="url(#pbfed9d7d3e)" style="fill: none; stroke: #e31a1c; stroke-width: 1.5; stroke-linecap: square"/>
   </g>
   <g id="line2d_81">
    <path d="M 138.436364 367.520613 
L 161.430783 367.972079 
L 180.551143 368.209773 
L 222.415983 368.51668 
L 279.277184 368.642911 
L 347.760564 368.067498 
L 359.257774 366.510282 
L 385.876314 365.608143 
L 393.499464 365.516634 
L 404.996674 365.732806 
L 439.113395 364.892331 
L 473.230115 364.547896 
L 484.727325 365.742793 
L 530.341255 366.365761 
L 553.210705 366.490656 
L 564.582945 364.892331 
L 576.080155 369.36 
L 747.163636 369.36 
L 747.163636 369.36 
" clip-path="url(#pbfed9d7d3e)" style="fill: none; stroke: #fdbf6f; stroke-width: 1.5; stroke-linecap: square"/>
   </g>
   <g id="line2d_82">
    <path d="M 138.436364 369.36 
L 370.630014 369.36 
L 382.002255 368.024937 
L 393.499464 369.36 
L 747.163636 369.36 
L 747.163636 369.36 
" clip-path="url(#pbfed9d7d3e)" style="fill: none; stroke: #ff7f00; stroke-width: 1.5; stroke-linecap: square"/>
   </g>
   <g id="line2d_83">
    <path d="M 138.436364 293.098541 
L 142.310423 291.476332 
L 153.682664 283.384721 
L 165.179873 266.828205 
L 176.677083 258.644156 
L 180.551143 264.499765 
L 184.175264 270.355375 
L 188.049323 276.210984 
L 199.421564 271.796327 
L 210.918773 265.052437 
L 222.415983 265.199106 
L 226.290043 263.290391 
L 229.789194 261.381676 
L 233.663254 259.47296 
L 245.035494 258.879199 
L 256.532704 249.607497 
L 268.029914 251.383033 
L 271.903973 250.155117 
L 275.403124 248.927201 
L 283.026274 246.551671 
L 290.649424 244.256444 
L 302.146634 235.655786 
L 313.643844 231.935864 
L 317.517904 230.516357 
L 321.017055 229.096849 
L 324.891114 227.677341 
L 336.263355 224.622367 
L 347.760564 222.593382 
L 359.257774 219.531208 
L 363.131834 217.565706 
L 366.755955 215.600204 
L 370.630014 213.634703 
L 382.002255 212.222647 
L 393.499464 206.092434 
L 404.996674 195.067028 
L 408.870734 193.203738 
L 412.369885 191.340448 
L 416.243945 189.477158 
L 427.616185 186.841289 
L 435.364305 169.714141 
L 439.113395 161.150567 
L 450.610605 172.304294 
L 454.484664 163.803758 
L 457.983815 155.303222 
L 461.857875 146.802686 
L 477.104175 135.846047 
L 488.601385 127.122197 
L 496.224535 121.27582 
L 500.098595 108.836384 
L 503.597745 96.396947 
L 507.471805 83.957511 
L 518.844045 75.901318 
L 526.592165 113.856298 
L 530.341255 132.833788 
L 534.215315 110.875878 
L 537.964405 88.917968 
L 541.838465 66.960058 
L 545.712525 86.987247 
L 549.336645 107.014435 
L 553.210705 127.041624 
L 564.582945 123.27856 
L 576.080155 139.434493 
L 587.577365 153.520447 
L 591.451425 160.071933 
L 594.950576 166.623418 
L 598.824636 173.174904 
L 602.573726 158.601058 
L 606.447786 144.027212 
L 610.196876 129.453366 
L 621.694086 135.365955 
L 633.191295 155.421285 
L 637.065355 159.221006 
L 640.564506 163.020727 
L 644.438566 166.820449 
L 655.810806 165.131196 
L 667.308016 163.71432 
L 678.805226 163.472658 
L 690.052496 164.740367 
L 701.424736 162.45683 
L 712.921946 161.9497 
L 724.419156 164.209837 
L 728.293216 170.05004 
L 731.917336 175.890243 
L 735.791396 181.730446 
L 747.163636 180.620555 
L 747.163636 180.620555 
" clip-path="url(#pbfed9d7d3e)" style="fill: none; stroke: #cab2d6; stroke-width: 1.5; stroke-linecap: square"/>
   </g>
   <g id="line2d_84">
    <path d="M 138.436364 292.772493 
L 142.310423 293.237933 
L 157.556723 287.999891 
L 165.179873 285.190102 
L 176.677083 281.500663 
L 188.049323 279.701379 
L 199.421564 279.277919 
L 210.918773 277.800309 
L 222.415983 280.668085 
L 233.663254 279.93288 
L 256.532704 268.014393 
L 268.029914 281.113784 
L 283.026274 283.537506 
L 290.649424 284.482477 
L 302.146634 278.090919 
L 313.643844 278.563327 
L 347.760564 273.62505 
L 359.257774 272.403734 
L 382.002255 272.042576 
L 393.499464 276.088643 
L 404.996674 275.968044 
L 408.870734 279.741772 
L 412.369885 283.5155 
L 416.243945 287.289228 
L 442.987455 283.733395 
L 450.610605 282.564336 
L 465.606965 279.298203 
L 473.230115 277.883805 
L 484.727325 280.635627 
L 496.224535 279.707882 
L 500.098595 290.972667 
L 503.597745 302.237451 
L 507.471805 313.502235 
L 518.844045 311.431154 
L 530.341255 309.62885 
L 541.838465 308.809394 
L 553.210705 309.856925 
L 564.582945 311.163944 
L 576.080155 311.951232 
L 587.577365 313.319334 
L 610.196876 313.529641 
L 617.944995 348.671348 
L 621.694086 366.242201 
L 637.065355 366.469056 
L 644.438566 366.469056 
L 655.810806 365.283624 
L 674.931166 361.400078 
L 678.805226 360.664002 
L 690.052496 359.44344 
L 701.424736 357.732645 
L 712.921946 357.038724 
L 739.540486 354.04371 
L 747.163636 353.458968 
L 747.163636 353.458968 
" clip-path="url(#pbfed9d7d3e)" style="fill: none; stroke: #6a3d9a; stroke-width: 1.5; stroke-linecap: square"/>
   </g>
   <g id="line2d_85">
    <path d="M 138.436364 333.57692 
L 142.310423 333.940206 
L 169.053933 327.085105 
L 176.677083 324.793748 
L 188.049323 322.873343 
L 199.421564 323.332918 
L 210.918773 322.94749 
L 222.415983 326.428886 
L 233.663254 326.370125 
L 245.035494 322.505856 
L 256.532704 317.055746 
L 268.029914 329.365932 
L 290.649424 330.212504 
L 302.146634 322.926181 
L 332.514264 323.573458 
L 336.263355 323.703714 
L 359.257774 323.689721 
L 382.002255 323.675495 
L 393.499464 327.555848 
L 408.870734 327.743085 
L 423.867095 327.767007 
L 427.616185 327.794142 
L 461.857875 326.351951 
L 473.230115 326.577297 
L 484.727325 331.74812 
L 496.224535 332.89494 
L 500.098595 344.927948 
L 503.597745 356.960957 
L 507.471805 368.993965 
L 534.215315 369.144235 
L 568.457005 369.298414 
L 587.577365 369.36 
L 747.163636 369.36 
L 747.163636 369.36 
" clip-path="url(#pbfed9d7d3e)" style="fill: none; stroke: #ffff99; stroke-width: 1.5; stroke-linecap: square"/>
   </g>
   <g id="line2d_86">
    <path d="M 138.436364 369.36 
L 290.649424 369.283762 
L 313.643844 368.742432 
L 324.891114 366.859536 
L 344.011474 364.90706 
L 347.760564 364.532625 
L 359.257774 364.117642 
L 397.373524 365.407261 
L 423.867095 365.972862 
L 435.364305 366.18464 
L 450.610605 366.330574 
L 488.601385 366.112989 
L 515.094955 365.816418 
L 522.718105 365.758064 
L 549.336645 365.836953 
L 568.457005 366.028545 
L 583.703305 366.053203 
L 610.196876 366.011513 
L 637.065355 366.469056 
L 644.438566 366.469056 
L 655.810806 365.283624 
L 674.931166 361.400078 
L 678.805226 360.664002 
L 690.052496 359.44344 
L 701.424736 357.732645 
L 712.921946 357.038724 
L 739.540486 354.04371 
L 747.163636 353.458968 
L 747.163636 353.458968 
" clip-path="url(#pbfed9d7d3e)" style="fill: none; stroke: #b15928; stroke-width: 1.5; stroke-linecap: square"/>
   </g>
   <g id="line2d_87">
    <path d="M 138.436364 369.358955 
L 747.163636 369.36 
L 747.163636 369.36 
" clip-path="url(#pbfed9d7d3e)" style="fill: none; stroke: #a6cee3; stroke-width: 1.5; stroke-linecap: square"/>
   </g>
   <g id="line2d_88">
    <path d="M 138.436364 328.556618 
L 142.310423 328.658772 
L 157.556723 327.227477 
L 165.179873 326.320364 
L 176.677083 326.067902 
L 188.049323 326.188153 
L 207.169683 324.576996 
L 210.918773 324.212935 
L 233.663254 322.922755 
L 245.035494 320.964434 
L 256.532704 320.318647 
L 268.029914 321.107852 
L 283.026274 322.965432 
L 306.020694 325.052694 
L 313.643844 325.405219 
L 324.891114 325.438432 
L 374.379105 322.558907 
L 385.876314 322.081099 
L 397.373524 321.737864 
L 404.996674 321.386849 
L 408.870734 325.098661 
L 412.369885 328.810473 
L 416.243945 332.522286 
L 427.616185 330.67655 
L 442.987455 329.051748 
L 450.610605 328.113203 
L 461.857875 326.080212 
L 488.601385 320.802997 
L 500.098595 318.75216 
L 507.471805 317.298511 
L 522.718105 314.6789 
L 530.341255 313.457119 
L 541.838465 312.653921 
L 553.210705 313.424429 
L 564.582945 314.613056 
L 576.080155 315.232133 
L 587.577365 316.639079 
L 602.573726 316.878128 
L 610.196876 316.878128 
L 617.944995 351.866043 
L 621.694086 369.36 
L 747.163636 369.36 
L 747.163636 369.36 
" clip-path="url(#pbfed9d7d3e)" style="fill: none; stroke: #1f78b4; stroke-width: 1.5; stroke-linecap: square"/>
   </g>
   <g id="patch_3">
    <path d="M 108 384.48 
L 108 51.84 
" style="fill: none; stroke: #000000; stroke-width: 0.8; stroke-linejoin: miter; stroke-linecap: square"/>
   </g>
   <g id="patch_4">
    <path d="M 777.6 384.48 
L 777.6 51.84 
" style="fill: none; stroke: #000000; stroke-width: 0.8; stroke-linejoin: miter; stroke-linecap: square"/>
   </g>
   <g id="patch_5">
    <path d="M 108 384.48 
L 777.6 384.48 
" style="fill: none; stroke: #000000; stroke-width: 0.8; stroke-linejoin: miter; stroke-linecap: square"/>
   </g>
   <g id="patch_6">
    <path d="M 108 51.84 
L 777.6 51.84 
" style="fill: none; stroke: #000000; stroke-width: 0.8; stroke-linejoin: miter; stroke-linecap: square"/>
   </g>
   <g id="text_15">
    <!-- Nmero de Tarjetas de Crdito (Menos 10 Ms Usadas) -->
    <g transform="translate(226.165312 45.84) scale(0.14 -0.14)">
     <defs>
      <path id="DejaVuSans-Bold-4e" d="M 588 4666 
L 1931 4666 
L 3628 1466 
L 3628 4666 
L 4769 4666 
L 4769 0 
L 3425 0 
L 1728 3200 
L 1728 0 
L 588 0 
L 588 4666 
z
" transform="scale(0.015625)"/>
      <path id="DejaVuSans-Bold-fa" d="M 500 1363 
L 500 3500 
L 1625 3500 
L 1625 3150 
Q 1625 2866 1622 2436 
Q 1619 2006 1619 1863 
Q 1619 1441 1641 1255 
Q 1663 1069 1716 984 
Q 1784 875 1895 815 
Q 2006 756 2150 756 
Q 2500 756 2700 1025 
Q 2900 1294 2900 1772 
L 2900 3500 
L 4019 3500 
L 4019 0 
L 2900 0 
L 2900 506 
Q 2647 200 2364 54 
Q 2081 -91 1741 -91 
Q 1134 -91 817 281 
Q 500 653 500 1363 
z
M 2778 5119 
L 3663 5119 
L 2509 3944 
L 1897 3944 
L 2778 5119 
z
" transform="scale(0.015625)"/>
      <path id="DejaVuSans-Bold-6d" d="M 3781 2919 
Q 3994 3244 4286 3414 
Q 4578 3584 4928 3584 
Q 5531 3584 5847 3212 
Q 6163 2841 6163 2131 
L 6163 0 
L 5038 0 
L 5038 1825 
Q 5041 1866 5042 1909 
Q 5044 1953 5044 2034 
Q 5044 2406 4934 2573 
Q 4825 2741 4581 2741 
Q 4263 2741 4089 2478 
Q 3916 2216 3909 1719 
L 3909 0 
L 2784 0 
L 2784 1825 
Q 2784 2406 2684 2573 
Q 2584 2741 2328 2741 
Q 2006 2741 1831 2477 
Q 1656 2213 1656 1722 
L 1656 0 
L 531 0 
L 531 3500 
L 1656 3500 
L 1656 2988 
Q 1863 3284 2130 3434 
Q 2397 3584 2719 3584 
Q 3081 3584 3359 3409 
Q 3638 3234 3781 2919 
z
" transform="scale(0.015625)"/>
      <path id="DejaVuSans-Bold-65" d="M 4031 1759 
L 4031 1441 
L 1416 1441 
Q 1456 1047 1700 850 
Q 1944 653 2381 653 
Q 2734 653 3104 758 
Q 3475 863 3866 1075 
L 3866 213 
Q 3469 63 3072 -14 
Q 2675 -91 2278 -91 
Q 1328 -91 801 392 
Q 275 875 275 1747 
Q 275 2603 792 3093 
Q 1309 3584 2216 3584 
Q 3041 3584 3536 3087 
Q 4031 2591 4031 1759 
z
M 2881 2131 
Q 2881 2450 2695 2645 
Q 2509 2841 2209 2841 
Q 1884 2841 1681 2658 
Q 1478 2475 1428 2131 
L 2881 2131 
z
" transform="scale(0.015625)"/>
      <path id="DejaVuSans-Bold-72" d="M 3138 2547 
Q 2991 2616 2845 2648 
Q 2700 2681 2553 2681 
Q 2122 2681 1889 2404 
Q 1656 2128 1656 1613 
L 1656 0 
L 538 0 
L 538 3500 
L 1656 3500 
L 1656 2925 
Q 1872 3269 2151 3426 
Q 2431 3584 2822 3584 
Q 2878 3584 2943 3579 
Q 3009 3575 3134 3559 
L 3138 2547 
z
" transform="scale(0.015625)"/>
      <path id="DejaVuSans-Bold-6f" d="M 2203 2784 
Q 1831 2784 1636 2517 
Q 1441 2250 1441 1747 
Q 1441 1244 1636 976 
Q 1831 709 2203 709 
Q 2569 709 2762 976 
Q 2956 1244 2956 1747 
Q 2956 2250 2762 2517 
Q 2569 2784 2203 2784 
z
M 2203 3584 
Q 3106 3584 3614 3096 
Q 4122 2609 4122 1747 
Q 4122 884 3614 396 
Q 3106 -91 2203 -91 
Q 1297 -91 786 396 
Q 275 884 275 1747 
Q 275 2609 786 3096 
Q 1297 3584 2203 3584 
z
" transform="scale(0.015625)"/>
      <path id="DejaVuSans-Bold-20" transform="scale(0.015625)"/>
      <path id="DejaVuSans-Bold-64" d="M 2919 2988 
L 2919 4863 
L 4044 4863 
L 4044 0 
L 2919 0 
L 2919 506 
Q 2688 197 2409 53 
Q 2131 -91 1766 -91 
Q 1119 -91 703 423 
Q 288 938 288 1747 
Q 288 2556 703 3070 
Q 1119 3584 1766 3584 
Q 2128 3584 2408 3439 
Q 2688 3294 2919 2988 
z
M 2181 722 
Q 2541 722 2730 984 
Q 2919 1247 2919 1747 
Q 2919 2247 2730 2509 
Q 2541 2772 2181 2772 
Q 1825 2772 1636 2509 
Q 1447 2247 1447 1747 
Q 1447 1247 1636 984 
Q 1825 722 2181 722 
z
" transform="scale(0.015625)"/>
      <path id="DejaVuSans-Bold-54" d="M 31 4666 
L 4331 4666 
L 4331 3756 
L 2784 3756 
L 2784 0 
L 1581 0 
L 1581 3756 
L 31 3756 
L 31 4666 
z
" transform="scale(0.015625)"/>
      <path id="DejaVuSans-Bold-61" d="M 2106 1575 
Q 1756 1575 1579 1456 
Q 1403 1338 1403 1106 
Q 1403 894 1545 773 
Q 1688 653 1941 653 
Q 2256 653 2472 879 
Q 2688 1106 2688 1447 
L 2688 1575 
L 2106 1575 
z
M 3816 1997 
L 3816 0 
L 2688 0 
L 2688 519 
Q 2463 200 2181 54 
Q 1900 -91 1497 -91 
Q 953 -91 614 226 
Q 275 544 275 1050 
Q 275 1666 698 1953 
Q 1122 2241 2028 2241 
L 2688 2241 
L 2688 2328 
Q 2688 2594 2478 2717 
Q 2269 2841 1825 2841 
Q 1466 2841 1156 2769 
Q 847 2697 581 2553 
L 581 3406 
Q 941 3494 1303 3539 
Q 1666 3584 2028 3584 
Q 2975 3584 3395 3211 
Q 3816 2838 3816 1997 
z
" transform="scale(0.015625)"/>
      <path id="DejaVuSans-Bold-6a" d="M 538 3500 
L 1656 3500 
L 1656 63 
Q 1656 -641 1318 -1011 
Q 981 -1381 341 -1381 
L -213 -1381 
L -213 -647 
L -19 -647 
Q 300 -647 419 -503 
Q 538 -359 538 63 
L 538 3500 
z
M 538 4863 
L 1656 4863 
L 1656 3950 
L 538 3950 
L 538 4863 
z
" transform="scale(0.015625)"/>
      <path id="DejaVuSans-Bold-74" d="M 1759 4494 
L 1759 3500 
L 2913 3500 
L 2913 2700 
L 1759 2700 
L 1759 1216 
Q 1759 972 1856 886 
Q 1953 800 2241 800 
L 2816 800 
L 2816 0 
L 1856 0 
Q 1194 0 917 276 
Q 641 553 641 1216 
L 641 2700 
L 84 2700 
L 84 3500 
L 641 3500 
L 641 4494 
L 1759 4494 
z
" transform="scale(0.015625)"/>
      <path id="DejaVuSans-Bold-73" d="M 3272 3391 
L 3272 2541 
Q 2913 2691 2578 2766 
Q 2244 2841 1947 2841 
Q 1628 2841 1473 2761 
Q 1319 2681 1319 2516 
Q 1319 2381 1436 2309 
Q 1553 2238 1856 2203 
L 2053 2175 
Q 2913 2066 3209 1816 
Q 3506 1566 3506 1031 
Q 3506 472 3093 190 
Q 2681 -91 1863 -91 
Q 1516 -91 1145 -36 
Q 775 19 384 128 
L 384 978 
Q 719 816 1070 734 
Q 1422 653 1784 653 
Q 2113 653 2278 743 
Q 2444 834 2444 1013 
Q 2444 1163 2330 1236 
Q 2216 1309 1875 1350 
L 1678 1375 
Q 931 1469 631 1722 
Q 331 1975 331 2491 
Q 331 3047 712 3315 
Q 1094 3584 1881 3584 
Q 2191 3584 2531 3537 
Q 2872 3491 3272 3391 
z
" transform="scale(0.015625)"/>
      <path id="DejaVuSans-Bold-43" d="M 4288 256 
Q 3956 84 3597 -3 
Q 3238 -91 2847 -91 
Q 1681 -91 1000 561 
Q 319 1213 319 2328 
Q 319 3447 1000 4098 
Q 1681 4750 2847 4750 
Q 3238 4750 3597 4662 
Q 3956 4575 4288 4403 
L 4288 3438 
Q 3953 3666 3628 3772 
Q 3303 3878 2944 3878 
Q 2300 3878 1931 3465 
Q 1563 3053 1563 2328 
Q 1563 1606 1931 1193 
Q 2300 781 2944 781 
Q 3303 781 3628 887 
Q 3953 994 4288 1222 
L 4288 256 
z
" transform="scale(0.015625)"/>
      <path id="DejaVuSans-Bold-e9" d="M 4031 1759 
L 4031 1441 
L 1416 1441 
Q 1456 1047 1700 850 
Q 1944 653 2381 653 
Q 2734 653 3104 758 
Q 3475 863 3866 1075 
L 3866 213 
Q 3469 63 3072 -14 
Q 2675 -91 2278 -91 
Q 1328 -91 801 392 
Q 275 875 275 1747 
Q 275 2603 792 3093 
Q 1309 3584 2216 3584 
Q 3041 3584 3536 3087 
Q 4031 2591 4031 1759 
z
M 2881 2131 
Q 2881 2450 2695 2645 
Q 2509 2841 2209 2841 
Q 1884 2841 1681 2658 
Q 1478 2475 1428 2131 
L 2881 2131 
z
M 2700 5119 
L 3584 5119 
L 2431 3944 
L 1819 3944 
L 2700 5119 
z
" transform="scale(0.015625)"/>
      <path id="DejaVuSans-Bold-69" d="M 538 3500 
L 1656 3500 
L 1656 0 
L 538 0 
L 538 3500 
z
M 538 4863 
L 1656 4863 
L 1656 3950 
L 538 3950 
L 538 4863 
z
" transform="scale(0.015625)"/>
      <path id="DejaVuSans-Bold-28" d="M 2413 -844 
L 1484 -844 
Q 1006 -72 778 623 
Q 550 1319 550 2003 
Q 550 2688 779 3389 
Q 1009 4091 1484 4856 
L 2413 4856 
Q 2013 4116 1813 3408 
Q 1613 2700 1613 2009 
Q 1613 1319 1811 609 
Q 2009 -100 2413 -844 
z
" transform="scale(0.015625)"/>
      <path id="DejaVuSans-Bold-4d" d="M 588 4666 
L 2119 4666 
L 3181 2169 
L 4250 4666 
L 5778 4666 
L 5778 0 
L 4641 0 
L 4641 3413 
L 3566 897 
L 2803 897 
L 1728 3413 
L 1728 0 
L 588 0 
L 588 4666 
z
" transform="scale(0.015625)"/>
      <path id="DejaVuSans-Bold-6e" d="M 4056 2131 
L 4056 0 
L 2931 0 
L 2931 347 
L 2931 1631 
Q 2931 2084 2911 2256 
Q 2891 2428 2841 2509 
Q 2775 2619 2662 2680 
Q 2550 2741 2406 2741 
Q 2056 2741 1856 2470 
Q 1656 2200 1656 1722 
L 1656 0 
L 538 0 
L 538 3500 
L 1656 3500 
L 1656 2988 
Q 1909 3294 2193 3439 
Q 2478 3584 2822 3584 
Q 3428 3584 3742 3212 
Q 4056 2841 4056 2131 
z
" transform="scale(0.015625)"/>
      <path id="DejaVuSans-Bold-31" d="M 750 831 
L 1813 831 
L 1813 3847 
L 722 3622 
L 722 4441 
L 1806 4666 
L 2950 4666 
L 2950 831 
L 4013 831 
L 4013 0 
L 750 0 
L 750 831 
z
" transform="scale(0.015625)"/>
      <path id="DejaVuSans-Bold-30" d="M 2944 2338 
Q 2944 3213 2780 3570 
Q 2616 3928 2228 3928 
Q 1841 3928 1675 3570 
Q 1509 3213 1509 2338 
Q 1509 1453 1675 1090 
Q 1841 728 2228 728 
Q 2613 728 2778 1090 
Q 2944 1453 2944 2338 
z
M 4147 2328 
Q 4147 1169 3647 539 
Q 3147 -91 2228 -91 
Q 1306 -91 806 539 
Q 306 1169 306 2328 
Q 306 3491 806 4120 
Q 1306 4750 2228 4750 
Q 3147 4750 3647 4120 
Q 4147 3491 4147 2328 
z
" transform="scale(0.015625)"/>
      <path id="DejaVuSans-Bold-e1" d="M 2106 1575 
Q 1756 1575 1579 1456 
Q 1403 1338 1403 1106 
Q 1403 894 1545 773 
Q 1688 653 1941 653 
Q 2256 653 2472 879 
Q 2688 1106 2688 1447 
L 2688 1575 
L 2106 1575 
z
M 3816 1997 
L 3816 0 
L 2688 0 
L 2688 519 
Q 2463 200 2181 54 
Q 1900 -91 1497 -91 
Q 953 -91 614 226 
Q 275 544 275 1050 
Q 275 1666 698 1953 
Q 1122 2241 2028 2241 
L 2688 2241 
L 2688 2328 
Q 2688 2594 2478 2717 
Q 2269 2841 1825 2841 
Q 1466 2841 1156 2769 
Q 847 2697 581 2553 
L 581 3406 
Q 941 3494 1303 3539 
Q 1666 3584 2028 3584 
Q 2975 3584 3395 3211 
Q 3816 2838 3816 1997 
z
M 2603 5119 
L 3488 5119 
L 2334 3944 
L 1722 3944 
L 2603 5119 
z
" transform="scale(0.015625)"/>
      <path id="DejaVuSans-Bold-55" d="M 588 4666 
L 1791 4666 
L 1791 1869 
Q 1791 1291 1980 1042 
Q 2169 794 2597 794 
Q 3028 794 3217 1042 
Q 3406 1291 3406 1869 
L 3406 4666 
L 4609 4666 
L 4609 1869 
Q 4609 878 4112 393 
Q 3616 -91 2597 -91 
Q 1581 -91 1084 393 
Q 588 878 588 1869 
L 588 4666 
z
" transform="scale(0.015625)"/>
      <path id="DejaVuSans-Bold-29" d="M 513 -844 
Q 913 -100 1113 609 
Q 1313 1319 1313 2009 
Q 1313 2700 1113 3408 
Q 913 4116 513 4856 
L 1441 4856 
Q 1916 4091 2145 3389 
Q 2375 2688 2375 2003 
Q 2375 1319 2147 623 
Q 1919 -72 1441 -844 
L 513 -844 
z
" transform="scale(0.015625)"/>
     </defs>
     <use xlink:href="#DejaVuSans-Bold-4e"/>
     <use xlink:href="#DejaVuSans-Bold-fa" transform="translate(83.691406 0)"/>
     <use xlink:href="#DejaVuSans-Bold-6d" transform="translate(154.882812 0)"/>
     <use xlink:href="#DejaVuSans-Bold-65" transform="translate(259.082031 0)"/>
     <use xlink:href="#DejaVuSans-Bold-72" transform="translate(326.904297 0)"/>
     <use xlink:href="#DejaVuSans-Bold-6f" transform="translate(376.220703 0)"/>
     <use xlink:href="#DejaVuSans-Bold-20" transform="translate(444.921875 0)"/>
     <use xlink:href="#DejaVuSans-Bold-64" transform="translate(479.736328 0)"/>
     <use xlink:href="#DejaVuSans-Bold-65" transform="translate(551.318359 0)"/>
     <use xlink:href="#DejaVuSans-Bold-20" transform="translate(619.140625 0)"/>
     <use xlink:href="#DejaVuSans-Bold-54" transform="translate(653.955078 0)"/>
     <use xlink:href="#DejaVuSans-Bold-61" transform="translate(709.292969 0)"/>
     <use xlink:href="#DejaVuSans-Bold-72" transform="translate(776.773438 0)"/>
     <use xlink:href="#DejaVuSans-Bold-6a" transform="translate(826.089844 0)"/>
     <use xlink:href="#DejaVuSans-Bold-65" transform="translate(860.367188 0)"/>
     <use xlink:href="#DejaVuSans-Bold-74" transform="translate(928.189453 0)"/>
     <use xlink:href="#DejaVuSans-Bold-61" transform="translate(975.992188 0)"/>
     <use xlink:href="#DejaVuSans-Bold-73" transform="translate(1043.472656 0)"/>
     <use xlink:href="#DejaVuSans-Bold-20" transform="translate(1102.994141 0)"/>
     <use xlink:href="#DejaVuSans-Bold-64" transform="translate(1137.808594 0)"/>
     <use xlink:href="#DejaVuSans-Bold-65" transform="translate(1209.390625 0)"/>
     <use xlink:href="#DejaVuSans-Bold-20" transform="translate(1277.212891 0)"/>
     <use xlink:href="#DejaVuSans-Bold-43" transform="translate(1312.027344 0)"/>
     <use xlink:href="#DejaVuSans-Bold-72" transform="translate(1385.416016 0)"/>
     <use xlink:href="#DejaVuSans-Bold-e9" transform="translate(1434.732422 0)"/>
     <use xlink:href="#DejaVuSans-Bold-64" transform="translate(1502.554688 0)"/>
     <use xlink:href="#DejaVuSans-Bold-69" transform="translate(1574.136719 0)"/>
     <use xlink:href="#DejaVuSans-Bold-74" transform="translate(1608.414062 0)"/>
     <use xlink:href="#DejaVuSans-Bold-6f" transform="translate(1656.216797 0)"/>
     <use xlink:href="#DejaVuSans-Bold-20" transform="translate(1724.917969 0)"/>
     <use xlink:href="#DejaVuSans-Bold-28" transform="translate(1759.732422 0)"/>
     <use xlink:href="#DejaVuSans-Bold-4d" transform="translate(1805.435547 0)"/>
     <use xlink:href="#DejaVuSans-Bold-65" transform="translate(1904.947266 0)"/>
     <use xlink:href="#DejaVuSans-Bold-6e" transform="translate(1972.769531 0)"/>
     <use xlink:href="#DejaVuSans-Bold-6f" transform="translate(2043.960938 0)"/>
     <use xlink:href="#DejaVuSans-Bold-73" transform="translate(2112.662109 0)"/>
     <use xlink:href="#DejaVuSans-Bold-20" transform="translate(2172.183594 0)"/>
     <use xlink:href="#DejaVuSans-Bold-31" transform="translate(2206.998047 0)"/>
     <use xlink:href="#DejaVuSans-Bold-30" transform="translate(2276.578125 0)"/>
     <use xlink:href="#DejaVuSans-Bold-20" transform="translate(2346.158203 0)"/>
     <use xlink:href="#DejaVuSans-Bold-4d" transform="translate(2380.972656 0)"/>
     <use xlink:href="#DejaVuSans-Bold-e1" transform="translate(2480.484375 0)"/>
     <use xlink:href="#DejaVuSans-Bold-73" transform="translate(2547.964844 0)"/>
     <use xlink:href="#DejaVuSans-Bold-20" transform="translate(2607.486328 0)"/>
     <use xlink:href="#DejaVuSans-Bold-55" transform="translate(2642.300781 0)"/>
     <use xlink:href="#DejaVuSans-Bold-73" transform="translate(2723.501953 0)"/>
     <use xlink:href="#DejaVuSans-Bold-61" transform="translate(2783.023438 0)"/>
     <use xlink:href="#DejaVuSans-Bold-64" transform="translate(2850.503906 0)"/>
     <use xlink:href="#DejaVuSans-Bold-61" transform="translate(2922.085938 0)"/>
     <use xlink:href="#DejaVuSans-Bold-73" transform="translate(2989.566406 0)"/>
     <use xlink:href="#DejaVuSans-Bold-29" transform="translate(3049.087891 0)"/>
    </g>
   </g>
  </g>
 </g>
 <defs>
  <clipPath id="pbfed9d7d3e">
   <rect x="108" y="51.84" width="669.6" height="332.64"/>
  </clipPath>
 </defs>
</svg>
