<?xml version="1.0" encoding="utf-8" standalone="no"?>
<!DOCTYPE svg PUBLIC "-//W3C//DTD SVG 1.1//EN"
  "http://www.w3.org/Graphics/SVG/1.1/DTD/svg11.dtd">
<svg xmlns:xlink="http://www.w3.org/1999/xlink" width="864pt" height="432pt" viewBox="0 0 864 432" xmlns="http://www.w3.org/2000/svg" version="1.1">
 <metadata>
  <rdf:RDF xmlns:dc="http://purl.org/dc/elements/1.1/" xmlns:cc="http://creativecommons.org/ns#" xmlns:rdf="http://www.w3.org/1999/02/22-rdf-syntax-ns#">
   <cc:Work>
    <dc:type rdf:resource="http://purl.org/dc/dcmitype/StillImage"/>
    <dc:date>2025-03-03T22:47:25.191353</dc:date>
    <dc:format>image/svg+xml</dc:format>
    <dc:creator>
     <cc:Agent>
      <dc:title>Matplotlib v3.8.4, https://matplotlib.org/</dc:title>
     </cc:Agent>
    </dc:creator>
   </cc:Work>
  </rdf:RDF>
 </metadata>
 <defs>
  <style type="text/css">*{stroke-linejoin: round; stroke-linecap: butt}</style>
 </defs>
 <g id="figure_1">
  <g id="patch_1">
   <path d="M 0 432 
L 864 432 
L 864 0 
L 0 0 
z
" style="fill: #ffffff"/>
  </g>
  <g id="axes_1">
   <g id="patch_2">
    <path d="M 108 384.48 
L 777.6 384.48 
L 777.6 51.84 
L 108 51.84 
z
" style="fill: #ffffff"/>
   </g>
   <g id="matplotlib.axis_1">
    <g id="xtick_1">
     <g id="line2d_1">
      <path d="M 173.464612 384.48 
L 173.464612 51.84 
" clip-path="url(#p22b82b26fa)" style="fill: none; stroke-dasharray: 2.96,1.28; stroke-dashoffset: 0; stroke: #b0b0b0; stroke-opacity: 0.5; stroke-width: 0.8"/>
     </g>
     <g id="line2d_2">
      <defs>
       <path id="me369ec0e86" d="M 0 0 
L 0 3.5 
" style="stroke: #000000; stroke-width: 0.8"/>
      </defs>
      <g>
       <use xlink:href="#me369ec0e86" x="173.464612" y="384.48" style="stroke: #000000; stroke-width: 0.8"/>
      </g>
     </g>
     <g id="text_1">
      <!-- 2012 -->
      <g transform="translate(160.739612 399.078438) scale(0.1 -0.1)">
       <defs>
        <path id="DejaVuSans-32" d="M 1228 531 
L 3431 531 
L 3431 0 
L 469 0 
L 469 531 
Q 828 903 1448 1529 
Q 2069 2156 2228 2338 
Q 2531 2678 2651 2914 
Q 2772 3150 2772 3378 
Q 2772 3750 2511 3984 
Q 2250 4219 1831 4219 
Q 1534 4219 1204 4116 
Q 875 4013 500 3803 
L 500 4441 
Q 881 4594 1212 4672 
Q 1544 4750 1819 4750 
Q 2544 4750 2975 4387 
Q 3406 4025 3406 3419 
Q 3406 3131 3298 2873 
Q 3191 2616 2906 2266 
Q 2828 2175 2409 1742 
Q 1991 1309 1228 531 
z
" transform="scale(0.015625)"/>
        <path id="DejaVuSans-30" d="M 2034 4250 
Q 1547 4250 1301 3770 
Q 1056 3291 1056 2328 
Q 1056 1369 1301 889 
Q 1547 409 2034 409 
Q 2525 409 2770 889 
Q 3016 1369 3016 2328 
Q 3016 3291 2770 3770 
Q 2525 4250 2034 4250 
z
M 2034 4750 
Q 2819 4750 3233 4129 
Q 3647 3509 3647 2328 
Q 3647 1150 3233 529 
Q 2819 -91 2034 -91 
Q 1250 -91 836 529 
Q 422 1150 422 2328 
Q 422 3509 836 4129 
Q 1250 4750 2034 4750 
z
" transform="scale(0.015625)"/>
        <path id="DejaVuSans-31" d="M 794 531 
L 1825 531 
L 1825 4091 
L 703 3866 
L 703 4441 
L 1819 4666 
L 2450 4666 
L 2450 531 
L 3481 531 
L 3481 0 
L 794 0 
L 794 531 
z
" transform="scale(0.015625)"/>
       </defs>
       <use xlink:href="#DejaVuSans-32"/>
       <use xlink:href="#DejaVuSans-30" x="63.623047"/>
       <use xlink:href="#DejaVuSans-31" x="127.246094"/>
       <use xlink:href="#DejaVuSans-32" x="190.869141"/>
      </g>
     </g>
    </g>
    <g id="xtick_2">
     <g id="line2d_3">
      <path d="M 266.576066 384.48 
L 266.576066 51.84 
" clip-path="url(#p22b82b26fa)" style="fill: none; stroke-dasharray: 2.96,1.28; stroke-dashoffset: 0; stroke: #b0b0b0; stroke-opacity: 0.5; stroke-width: 0.8"/>
     </g>
     <g id="line2d_4">
      <g>
       <use xlink:href="#me369ec0e86" x="266.576066" y="384.48" style="stroke: #000000; stroke-width: 0.8"/>
      </g>
     </g>
     <g id="text_2">
      <!-- 2014 -->
      <g transform="translate(253.851066 399.078438) scale(0.1 -0.1)">
       <defs>
        <path id="DejaVuSans-34" d="M 2419 4116 
L 825 1625 
L 2419 1625 
L 2419 4116 
z
M 2253 4666 
L 3047 4666 
L 3047 1625 
L 3713 1625 
L 3713 1100 
L 3047 1100 
L 3047 0 
L 2419 0 
L 2419 1100 
L 313 1100 
L 313 1709 
L 2253 4666 
z
" transform="scale(0.015625)"/>
       </defs>
       <use xlink:href="#DejaVuSans-32"/>
       <use xlink:href="#DejaVuSans-30" x="63.623047"/>
       <use xlink:href="#DejaVuSans-31" x="127.246094"/>
       <use xlink:href="#DejaVuSans-34" x="190.869141"/>
      </g>
     </g>
    </g>
    <g id="xtick_3">
     <g id="line2d_5">
      <path d="M 359.560144 384.48 
L 359.560144 51.84 
" clip-path="url(#p22b82b26fa)" style="fill: none; stroke-dasharray: 2.96,1.28; stroke-dashoffset: 0; stroke: #b0b0b0; stroke-opacity: 0.5; stroke-width: 0.8"/>
     </g>
     <g id="line2d_6">
      <g>
       <use xlink:href="#me369ec0e86" x="359.560144" y="384.48" style="stroke: #000000; stroke-width: 0.8"/>
      </g>
     </g>
     <g id="text_3">
      <!-- 2016 -->
      <g transform="translate(346.835144 399.078438) scale(0.1 -0.1)">
       <defs>
        <path id="DejaVuSans-36" d="M 2113 2584 
Q 1688 2584 1439 2293 
Q 1191 2003 1191 1497 
Q 1191 994 1439 701 
Q 1688 409 2113 409 
Q 2538 409 2786 701 
Q 3034 994 3034 1497 
Q 3034 2003 2786 2293 
Q 2538 2584 2113 2584 
z
M 3366 4563 
L 3366 3988 
Q 3128 4100 2886 4159 
Q 2644 4219 2406 4219 
Q 1781 4219 1451 3797 
Q 1122 3375 1075 2522 
Q 1259 2794 1537 2939 
Q 1816 3084 2150 3084 
Q 2853 3084 3261 2657 
Q 3669 2231 3669 1497 
Q 3669 778 3244 343 
Q 2819 -91 2113 -91 
Q 1303 -91 875 529 
Q 447 1150 447 2328 
Q 447 3434 972 4092 
Q 1497 4750 2381 4750 
Q 2619 4750 2861 4703 
Q 3103 4656 3366 4563 
z
" transform="scale(0.015625)"/>
       </defs>
       <use xlink:href="#DejaVuSans-32"/>
       <use xlink:href="#DejaVuSans-30" x="63.623047"/>
       <use xlink:href="#DejaVuSans-31" x="127.246094"/>
       <use xlink:href="#DejaVuSans-36" x="190.869141"/>
      </g>
     </g>
    </g>
    <g id="xtick_4">
     <g id="line2d_7">
      <path d="M 452.671597 384.48 
L 452.671597 51.84 
" clip-path="url(#p22b82b26fa)" style="fill: none; stroke-dasharray: 2.96,1.28; stroke-dashoffset: 0; stroke: #b0b0b0; stroke-opacity: 0.5; stroke-width: 0.8"/>
     </g>
     <g id="line2d_8">
      <g>
       <use xlink:href="#me369ec0e86" x="452.671597" y="384.48" style="stroke: #000000; stroke-width: 0.8"/>
      </g>
     </g>
     <g id="text_4">
      <!-- 2018 -->
      <g transform="translate(439.946597 399.078438) scale(0.1 -0.1)">
       <defs>
        <path id="DejaVuSans-38" d="M 2034 2216 
Q 1584 2216 1326 1975 
Q 1069 1734 1069 1313 
Q 1069 891 1326 650 
Q 1584 409 2034 409 
Q 2484 409 2743 651 
Q 3003 894 3003 1313 
Q 3003 1734 2745 1975 
Q 2488 2216 2034 2216 
z
M 1403 2484 
Q 997 2584 770 2862 
Q 544 3141 544 3541 
Q 544 4100 942 4425 
Q 1341 4750 2034 4750 
Q 2731 4750 3128 4425 
Q 3525 4100 3525 3541 
Q 3525 3141 3298 2862 
Q 3072 2584 2669 2484 
Q 3125 2378 3379 2068 
Q 3634 1759 3634 1313 
Q 3634 634 3220 271 
Q 2806 -91 2034 -91 
Q 1263 -91 848 271 
Q 434 634 434 1313 
Q 434 1759 690 2068 
Q 947 2378 1403 2484 
z
M 1172 3481 
Q 1172 3119 1398 2916 
Q 1625 2713 2034 2713 
Q 2441 2713 2670 2916 
Q 2900 3119 2900 3481 
Q 2900 3844 2670 4047 
Q 2441 4250 2034 4250 
Q 1625 4250 1398 4047 
Q 1172 3844 1172 3481 
z
" transform="scale(0.015625)"/>
       </defs>
       <use xlink:href="#DejaVuSans-32"/>
       <use xlink:href="#DejaVuSans-30" x="63.623047"/>
       <use xlink:href="#DejaVuSans-31" x="127.246094"/>
       <use xlink:href="#DejaVuSans-38" x="190.869141"/>
      </g>
     </g>
    </g>
    <g id="xtick_5">
     <g id="line2d_9">
      <path d="M 545.655675 384.48 
L 545.655675 51.84 
" clip-path="url(#p22b82b26fa)" style="fill: none; stroke-dasharray: 2.96,1.28; stroke-dashoffset: 0; stroke: #b0b0b0; stroke-opacity: 0.5; stroke-width: 0.8"/>
     </g>
     <g id="line2d_10">
      <g>
       <use xlink:href="#me369ec0e86" x="545.655675" y="384.48" style="stroke: #000000; stroke-width: 0.8"/>
      </g>
     </g>
     <g id="text_5">
      <!-- 2020 -->
      <g transform="translate(532.930675 399.078438) scale(0.1 -0.1)">
       <use xlink:href="#DejaVuSans-32"/>
       <use xlink:href="#DejaVuSans-30" x="63.623047"/>
       <use xlink:href="#DejaVuSans-32" x="127.246094"/>
       <use xlink:href="#DejaVuSans-30" x="190.869141"/>
      </g>
     </g>
    </g>
    <g id="xtick_6">
     <g id="line2d_11">
      <path d="M 638.767129 384.48 
L 638.767129 51.84 
" clip-path="url(#p22b82b26fa)" style="fill: none; stroke-dasharray: 2.96,1.28; stroke-dashoffset: 0; stroke: #b0b0b0; stroke-opacity: 0.5; stroke-width: 0.8"/>
     </g>
     <g id="line2d_12">
      <g>
       <use xlink:href="#me369ec0e86" x="638.767129" y="384.48" style="stroke: #000000; stroke-width: 0.8"/>
      </g>
     </g>
     <g id="text_6">
      <!-- 2022 -->
      <g transform="translate(626.042129 399.078438) scale(0.1 -0.1)">
       <use xlink:href="#DejaVuSans-32"/>
       <use xlink:href="#DejaVuSans-30" x="63.623047"/>
       <use xlink:href="#DejaVuSans-32" x="127.246094"/>
       <use xlink:href="#DejaVuSans-32" x="190.869141"/>
      </g>
     </g>
    </g>
    <g id="xtick_7">
     <g id="line2d_13">
      <path d="M 731.751207 384.48 
L 731.751207 51.84 
" clip-path="url(#p22b82b26fa)" style="fill: none; stroke-dasharray: 2.96,1.28; stroke-dashoffset: 0; stroke: #b0b0b0; stroke-opacity: 0.5; stroke-width: 0.8"/>
     </g>
     <g id="line2d_14">
      <g>
       <use xlink:href="#me369ec0e86" x="731.751207" y="384.48" style="stroke: #000000; stroke-width: 0.8"/>
      </g>
     </g>
     <g id="text_7">
      <!-- 2024 -->
      <g transform="translate(719.026207 399.078438) scale(0.1 -0.1)">
       <use xlink:href="#DejaVuSans-32"/>
       <use xlink:href="#DejaVuSans-30" x="63.623047"/>
       <use xlink:href="#DejaVuSans-32" x="127.246094"/>
       <use xlink:href="#DejaVuSans-34" x="190.869141"/>
      </g>
     </g>
    </g>
   </g>
   <g id="matplotlib.axis_2">
    <g id="ytick_1">
     <g id="line2d_15">
      <path d="M 108 358.917061 
L 777.6 358.917061 
" clip-path="url(#p22b82b26fa)" style="fill: none; stroke-dasharray: 2.96,1.28; stroke-dashoffset: 0; stroke: #b0b0b0; stroke-opacity: 0.5; stroke-width: 0.8"/>
     </g>
     <g id="line2d_16">
      <defs>
       <path id="md67c81519e" d="M 0 0 
L -3.5 0 
" style="stroke: #000000; stroke-width: 0.8"/>
      </defs>
      <g>
       <use xlink:href="#md67c81519e" x="108" y="358.917061" style="stroke: #000000; stroke-width: 0.8"/>
      </g>
     </g>
     <g id="text_8">
      <!-- 1.0 -->
      <g transform="translate(85.096875 362.71628) scale(0.1 -0.1)">
       <defs>
        <path id="DejaVuSans-2e" d="M 684 794 
L 1344 794 
L 1344 0 
L 684 0 
L 684 794 
z
" transform="scale(0.015625)"/>
       </defs>
       <use xlink:href="#DejaVuSans-31"/>
       <use xlink:href="#DejaVuSans-2e" x="63.623047"/>
       <use xlink:href="#DejaVuSans-30" x="95.410156"/>
      </g>
     </g>
    </g>
    <g id="ytick_2">
     <g id="line2d_17">
      <path d="M 108 311.079986 
L 777.6 311.079986 
" clip-path="url(#p22b82b26fa)" style="fill: none; stroke-dasharray: 2.96,1.28; stroke-dashoffset: 0; stroke: #b0b0b0; stroke-opacity: 0.5; stroke-width: 0.8"/>
     </g>
     <g id="line2d_18">
      <g>
       <use xlink:href="#md67c81519e" x="108" y="311.079986" style="stroke: #000000; stroke-width: 0.8"/>
      </g>
     </g>
     <g id="text_9">
      <!-- 1.5 -->
      <g transform="translate(85.096875 314.879205) scale(0.1 -0.1)">
       <defs>
        <path id="DejaVuSans-35" d="M 691 4666 
L 3169 4666 
L 3169 4134 
L 1269 4134 
L 1269 2991 
Q 1406 3038 1543 3061 
Q 1681 3084 1819 3084 
Q 2600 3084 3056 2656 
Q 3513 2228 3513 1497 
Q 3513 744 3044 326 
Q 2575 -91 1722 -91 
Q 1428 -91 1123 -41 
Q 819 9 494 109 
L 494 744 
Q 775 591 1075 516 
Q 1375 441 1709 441 
Q 2250 441 2565 725 
Q 2881 1009 2881 1497 
Q 2881 1984 2565 2268 
Q 2250 2553 1709 2553 
Q 1456 2553 1204 2497 
Q 953 2441 691 2322 
L 691 4666 
z
" transform="scale(0.015625)"/>
       </defs>
       <use xlink:href="#DejaVuSans-31"/>
       <use xlink:href="#DejaVuSans-2e" x="63.623047"/>
       <use xlink:href="#DejaVuSans-35" x="95.410156"/>
      </g>
     </g>
    </g>
    <g id="ytick_3">
     <g id="line2d_19">
      <path d="M 108 263.242911 
L 777.6 263.242911 
" clip-path="url(#p22b82b26fa)" style="fill: none; stroke-dasharray: 2.96,1.28; stroke-dashoffset: 0; stroke: #b0b0b0; stroke-opacity: 0.5; stroke-width: 0.8"/>
     </g>
     <g id="line2d_20">
      <g>
       <use xlink:href="#md67c81519e" x="108" y="263.242911" style="stroke: #000000; stroke-width: 0.8"/>
      </g>
     </g>
     <g id="text_10">
      <!-- 2.0 -->
      <g transform="translate(85.096875 267.04213) scale(0.1 -0.1)">
       <use xlink:href="#DejaVuSans-32"/>
       <use xlink:href="#DejaVuSans-2e" x="63.623047"/>
       <use xlink:href="#DejaVuSans-30" x="95.410156"/>
      </g>
     </g>
    </g>
    <g id="ytick_4">
     <g id="line2d_21">
      <path d="M 108 215.405836 
L 777.6 215.405836 
" clip-path="url(#p22b82b26fa)" style="fill: none; stroke-dasharray: 2.96,1.28; stroke-dashoffset: 0; stroke: #b0b0b0; stroke-opacity: 0.5; stroke-width: 0.8"/>
     </g>
     <g id="line2d_22">
      <g>
       <use xlink:href="#md67c81519e" x="108" y="215.405836" style="stroke: #000000; stroke-width: 0.8"/>
      </g>
     </g>
     <g id="text_11">
      <!-- 2.5 -->
      <g transform="translate(85.096875 219.205055) scale(0.1 -0.1)">
       <use xlink:href="#DejaVuSans-32"/>
       <use xlink:href="#DejaVuSans-2e" x="63.623047"/>
       <use xlink:href="#DejaVuSans-35" x="95.410156"/>
      </g>
     </g>
    </g>
    <g id="ytick_5">
     <g id="line2d_23">
      <path d="M 108 167.568761 
L 777.6 167.568761 
" clip-path="url(#p22b82b26fa)" style="fill: none; stroke-dasharray: 2.96,1.28; stroke-dashoffset: 0; stroke: #b0b0b0; stroke-opacity: 0.5; stroke-width: 0.8"/>
     </g>
     <g id="line2d_24">
      <g>
       <use xlink:href="#md67c81519e" x="108" y="167.568761" style="stroke: #000000; stroke-width: 0.8"/>
      </g>
     </g>
     <g id="text_12">
      <!-- 3.0 -->
      <g transform="translate(85.096875 171.36798) scale(0.1 -0.1)">
       <defs>
        <path id="DejaVuSans-33" d="M 2597 2516 
Q 3050 2419 3304 2112 
Q 3559 1806 3559 1356 
Q 3559 666 3084 287 
Q 2609 -91 1734 -91 
Q 1441 -91 1130 -33 
Q 819 25 488 141 
L 488 750 
Q 750 597 1062 519 
Q 1375 441 1716 441 
Q 2309 441 2620 675 
Q 2931 909 2931 1356 
Q 2931 1769 2642 2001 
Q 2353 2234 1838 2234 
L 1294 2234 
L 1294 2753 
L 1863 2753 
Q 2328 2753 2575 2939 
Q 2822 3125 2822 3475 
Q 2822 3834 2567 4026 
Q 2313 4219 1838 4219 
Q 1578 4219 1281 4162 
Q 984 4106 628 3988 
L 628 4550 
Q 988 4650 1302 4700 
Q 1616 4750 1894 4750 
Q 2613 4750 3031 4423 
Q 3450 4097 3450 3541 
Q 3450 3153 3228 2886 
Q 3006 2619 2597 2516 
z
" transform="scale(0.015625)"/>
       </defs>
       <use xlink:href="#DejaVuSans-33"/>
       <use xlink:href="#DejaVuSans-2e" x="63.623047"/>
       <use xlink:href="#DejaVuSans-30" x="95.410156"/>
      </g>
     </g>
    </g>
    <g id="ytick_6">
     <g id="line2d_25">
      <path d="M 108 119.731686 
L 777.6 119.731686 
" clip-path="url(#p22b82b26fa)" style="fill: none; stroke-dasharray: 2.96,1.28; stroke-dashoffset: 0; stroke: #b0b0b0; stroke-opacity: 0.5; stroke-width: 0.8"/>
     </g>
     <g id="line2d_26">
      <g>
       <use xlink:href="#md67c81519e" x="108" y="119.731686" style="stroke: #000000; stroke-width: 0.8"/>
      </g>
     </g>
     <g id="text_13">
      <!-- 3.5 -->
      <g transform="translate(85.096875 123.530905) scale(0.1 -0.1)">
       <use xlink:href="#DejaVuSans-33"/>
       <use xlink:href="#DejaVuSans-2e" x="63.623047"/>
       <use xlink:href="#DejaVuSans-35" x="95.410156"/>
      </g>
     </g>
    </g>
    <g id="ytick_7">
     <g id="line2d_27">
      <path d="M 108 71.894611 
L 777.6 71.894611 
" clip-path="url(#p22b82b26fa)" style="fill: none; stroke-dasharray: 2.96,1.28; stroke-dashoffset: 0; stroke: #b0b0b0; stroke-opacity: 0.5; stroke-width: 0.8"/>
     </g>
     <g id="line2d_28">
      <g>
       <use xlink:href="#md67c81519e" x="108" y="71.894611" style="stroke: #000000; stroke-width: 0.8"/>
      </g>
     </g>
     <g id="text_14">
      <!-- 4.0 -->
      <g transform="translate(85.096875 75.69383) scale(0.1 -0.1)">
       <use xlink:href="#DejaVuSans-34"/>
       <use xlink:href="#DejaVuSans-2e" x="63.623047"/>
       <use xlink:href="#DejaVuSans-30" x="95.410156"/>
      </g>
     </g>
    </g>
    <g id="text_15">
     <!-- 1e7 -->
     <g transform="translate(108 48.84) scale(0.1 -0.1)">
      <defs>
       <path id="DejaVuSans-65" d="M 3597 1894 
L 3597 1613 
L 953 1613 
Q 991 1019 1311 708 
Q 1631 397 2203 397 
Q 2534 397 2845 478 
Q 3156 559 3463 722 
L 3463 178 
Q 3153 47 2828 -22 
Q 2503 -91 2169 -91 
Q 1331 -91 842 396 
Q 353 884 353 1716 
Q 353 2575 817 3079 
Q 1281 3584 2069 3584 
Q 2775 3584 3186 3129 
Q 3597 2675 3597 1894 
z
M 3022 2063 
Q 3016 2534 2758 2815 
Q 2500 3097 2075 3097 
Q 1594 3097 1305 2825 
Q 1016 2553 972 2059 
L 3022 2063 
z
" transform="scale(0.015625)"/>
       <path id="DejaVuSans-37" d="M 525 4666 
L 3525 4666 
L 3525 4397 
L 1831 0 
L 1172 0 
L 2766 4134 
L 525 4134 
L 525 4666 
z
" transform="scale(0.015625)"/>
      </defs>
      <use xlink:href="#DejaVuSans-31"/>
      <use xlink:href="#DejaVuSans-65" x="63.623047"/>
      <use xlink:href="#DejaVuSans-37" x="125.146484"/>
     </g>
    </g>
   </g>
   <g id="line2d_29">
    <path d="M 138.436364 232.227103 
L 150.02753 224.415547 
L 161.746071 218.751571 
L 173.464612 217.843843 
L 185.055778 217.428703 
L 196.646944 213.540793 
L 208.365485 211.874551 
L 220.084027 214.524323 
L 224.032666 213.030639 
L 227.599178 211.536955 
L 231.547817 210.043271 
L 243.138983 209.375724 
L 254.857524 206.916468 
L 266.576066 194.29191 
L 270.524705 189.268162 
L 274.091217 184.244415 
L 278.039856 179.220667 
L 289.631022 178.304243 
L 301.349563 181.448784 
L 313.068105 170.148308 
L 324.531895 169.884994 
L 336.123061 170.867214 
L 347.841602 171.042623 
L 359.560144 167.803823 
L 371.15131 162.991078 
L 382.742476 159.21349 
L 394.461017 155.832337 
L 406.179558 139.422546 
L 417.643349 141.416883 
L 429.234515 146.791598 
L 440.953056 141.350198 
L 444.901695 161.812373 
L 448.722958 182.274548 
L 452.671597 202.736723 
L 456.620236 200.837559 
L 460.186749 198.938395 
L 464.135388 197.039231 
L 479.675193 193.55291 
L 487.445095 191.862246 
L 499.163636 189.859537 
L 503.112275 186.992189 
L 506.678788 184.124841 
L 510.627427 181.257493 
L 522.218593 176.211332 
L 533.937134 181.018231 
L 545.655675 170.773702 
L 549.604314 174.887588 
L 553.298202 179.001475 
L 557.246841 183.115361 
L 568.838007 184.25352 
L 580.556549 189.766121 
L 603.73888 190.149171 
L 615.330046 181.269185 
L 627.048588 186.486602 
L 638.767129 186.588935 
L 650.230919 183.638919 
L 661.822085 176.561605 
L 673.540627 170.503107 
L 677.489266 155.867086 
L 681.310529 141.231065 
L 685.259168 126.595044 
L 689.207807 122.503197 
L 692.774319 118.411351 
L 696.722958 114.319505 
L 700.544222 126.576907 
L 704.492861 138.834309 
L 708.314124 151.091711 
L 716.211402 112.395498 
L 720.032666 93.047391 
L 731.751207 83.878736 
L 735.699846 80.094469 
L 739.393734 76.310203 
L 743.342373 72.525936 
L 747.163636 66.96 
L 747.163636 66.96 
" clip-path="url(#p22b82b26fa)" style="fill: none; stroke: #a6cee3; stroke-width: 1.5; stroke-linecap: square"/>
   </g>
   <g id="line2d_30">
    <path d="M 138.436364 304.699114 
L 150.02753 302.044874 
L 161.746071 294.556601 
L 173.464612 292.39913 
L 188.877042 286.469304 
L 196.646944 283.748044 
L 208.365485 278.707958 
L 220.084027 286.059359 
L 224.032666 284.393181 
L 227.599178 282.727003 
L 231.547817 281.060825 
L 243.138983 279.433742 
L 254.857524 273.01968 
L 266.576066 269.121983 
L 270.524705 271.87242 
L 274.091217 274.622857 
L 278.039856 277.373294 
L 289.631022 278.691129 
L 301.349563 281.847592 
L 313.068105 277.713349 
L 324.531895 278.932257 
L 336.123061 277.436143 
L 347.841602 273.215028 
L 359.560144 276.879903 
L 363.508783 271.620063 
L 367.202671 266.360224 
L 371.15131 261.100384 
L 382.742476 252.860697 
L 394.461017 252.237074 
L 406.179558 244.804513 
L 417.643349 242.178716 
L 429.234515 242.248865 
L 440.953056 235.411645 
L 452.671597 239.087743 
L 456.620236 236.218207 
L 460.186749 233.348672 
L 464.135388 230.479136 
L 475.726554 244.162195 
L 487.445095 239.955412 
L 499.163636 239.341911 
L 503.112275 238.003991 
L 506.678788 236.666071 
L 510.627427 235.328151 
L 522.218593 230.955431 
L 533.937134 237.353678 
L 545.655675 229.570777 
L 549.604314 236.914307 
L 553.298202 244.257837 
L 557.246841 251.601367 
L 568.838007 250.529568 
L 580.556549 253.787205 
L 592.27509 255.939501 
L 603.73888 258.645902 
L 615.330046 276.682565 
L 627.048588 275.657646 
L 638.767129 280.704085 
L 650.230919 280.37089 
L 661.822085 269.351093 
L 673.540627 270.181784 
L 685.259168 271.756944 
L 696.722958 270.462416 
L 708.314124 270.146681 
L 720.032666 257.267487 
L 735.699846 249.032634 
L 739.393734 246.990444 
L 743.342373 244.948253 
L 747.163636 243.641906 
L 747.163636 243.641906 
" clip-path="url(#p22b82b26fa)" style="fill: none; stroke: #1f78b4; stroke-width: 1.5; stroke-linecap: square"/>
   </g>
   <g id="line2d_31">
    <path d="M 138.436364 330.001243 
L 150.02753 326.589158 
L 161.746071 322.010959 
L 177.413251 322.435896 
L 185.055778 322.753725 
L 196.646944 319.241259 
L 208.365485 316.176118 
L 220.084027 316.306148 
L 224.032666 315.030905 
L 227.599178 313.755661 
L 231.547817 312.480417 
L 243.138983 313.098146 
L 254.857524 311.987982 
L 266.576066 297.944576 
L 270.524705 292.974489 
L 274.091217 288.004402 
L 278.039856 283.034315 
L 289.631022 284.958542 
L 301.349563 288.506206 
L 313.068105 285.491715 
L 324.531895 285.559261 
L 336.123061 280.294293 
L 347.841602 280.107662 
L 363.508783 276.200572 
L 382.742476 270.892739 
L 394.461017 268.488897 
L 406.179558 259.118265 
L 417.643349 258.655948 
L 429.234515 274.955475 
L 440.953056 271.515702 
L 444.901695 289.098455 
L 448.722958 306.681208 
L 452.671597 324.263961 
L 464.135388 320.699812 
L 475.726554 320.210553 
L 487.445095 318.339224 
L 499.163636 315.046349 
L 503.112275 310.200323 
L 506.678788 305.354297 
L 510.627427 300.50827 
L 522.218593 295.732063 
L 533.937134 302.751351 
L 545.655675 290.889976 
L 549.604314 294.096402 
L 553.298202 297.302829 
L 557.246841 300.509256 
L 568.838007 298.471568 
L 580.556549 299.897726 
L 592.27509 300.397231 
L 603.73888 302.2617 
L 615.330046 295.119816 
L 627.048588 296.529087 
L 638.767129 299.311233 
L 650.230919 299.752004 
L 661.822085 294.790563 
L 673.540627 291.331799 
L 677.489266 277.730625 
L 681.310529 264.12945 
L 685.259168 250.528276 
L 689.207807 247.414181 
L 692.774319 244.300086 
L 696.722958 241.185992 
L 700.544222 254.221094 
L 704.492861 267.256196 
L 708.314124 280.291299 
L 716.211402 251.508987 
L 720.032666 237.117831 
L 731.751207 219.12093 
L 735.699846 216.875921 
L 739.393734 214.630911 
L 743.342373 212.385901 
L 747.163636 207.723738 
L 747.163636 207.723738 
" clip-path="url(#p22b82b26fa)" style="fill: none; stroke: #b2df8a; stroke-width: 1.5; stroke-linecap: square"/>
   </g>
   <g id="line2d_32">
    <path d="M 138.436364 341.656823 
L 150.02753 340.886148 
L 161.746071 336.930204 
L 173.464612 335.072059 
L 185.055778 332.614209 
L 204.544222 327.78276 
L 208.365485 326.7561 
L 220.084027 327.249559 
L 231.547817 325.888795 
L 243.138983 320.334776 
L 254.857524 322.316973 
L 266.576066 308.775732 
L 270.524705 312.580288 
L 274.091217 316.384844 
L 278.039856 320.1894 
L 289.631022 317.488872 
L 301.349563 320.162496 
L 313.068105 316.457639 
L 324.531895 316.329569 
L 336.123061 314.74886 
L 347.841602 311.952573 
L 359.560144 313.004749 
L 363.508783 310.742215 
L 367.202671 308.479681 
L 371.15131 306.217147 
L 382.742476 303.63824 
L 394.461017 301.487533 
L 406.179558 302.987781 
L 417.643349 301.883194 
L 429.234515 297.588439 
L 440.953056 291.407066 
L 452.671597 289.402654 
L 456.620236 286.9648 
L 460.186749 284.526946 
L 464.135388 282.089092 
L 475.726554 278.667479 
L 487.445095 276.280571 
L 499.163636 285.016961 
L 503.112275 289.99835 
L 506.678788 294.979739 
L 510.627427 299.961129 
L 522.218593 296.511731 
L 530.115871 280.090367 
L 533.937134 271.879685 
L 537.885773 281.105572 
L 541.707036 290.331459 
L 545.655675 299.557346 
L 549.604314 303.848334 
L 553.298202 308.139323 
L 557.246841 312.430312 
L 568.838007 310.960709 
L 576.735285 291.555944 
L 580.556549 281.853562 
L 592.27509 288.910229 
L 603.73888 291.467781 
L 615.330046 305.910147 
L 627.048588 303.302003 
L 638.767129 299.551768 
L 661.822085 294.928525 
L 673.540627 287.666455 
L 685.259168 289.628416 
L 696.722958 290.258077 
L 708.314124 289.936382 
L 720.032666 277.144365 
L 731.751207 270.394908 
L 743.342373 267.265579 
L 747.163636 267.355758 
L 747.163636 267.355758 
" clip-path="url(#p22b82b26fa)" style="fill: none; stroke: #33a02c; stroke-width: 1.5; stroke-linecap: square"/>
   </g>
   <g id="line2d_33">
    <path d="M 138.436364 369.36 
L 150.02753 365.592132 
L 165.69471 365.012216 
L 188.877042 363.937699 
L 196.646944 363.73392 
L 208.365485 365.376291 
L 220.084027 367.423498 
L 235.369081 366.780698 
L 254.857524 366.218807 
L 270.524705 365.318386 
L 278.039856 364.996723 
L 289.631022 361.922512 
L 301.349563 362.572551 
L 313.068105 354.208726 
L 324.531895 354.153436 
L 336.123061 360.645415 
L 347.841602 361.300792 
L 359.560144 361.150211 
L 371.15131 359.426497 
L 382.742476 358.947333 
L 394.461017 357.303335 
L 406.179558 350.284048 
L 417.643349 350.875266 
L 429.234515 340.192071 
L 440.953056 338.438421 
L 452.671597 347.365632 
L 467.956651 345.05322 
L 475.726554 343.851789 
L 487.445095 342.733693 
L 499.163636 344.176727 
L 514.44869 344.568104 
L 522.218593 344.615641 
L 533.937134 342.700226 
L 545.655675 344.452096 
L 557.246841 347.00187 
L 568.838007 349.962353 
L 580.556549 353.919072 
L 592.27509 353.361512 
L 607.560144 351.106916 
L 615.330046 349.939965 
L 627.048588 345.062459 
L 638.767129 342.345265 
L 650.230919 338.954478 
L 665.770724 336.299801 
L 673.540627 334.831534 
L 700.544222 328.674979 
L 708.314124 327.307508 
L 720.032666 312.550995 
L 731.751207 321.601387 
L 743.342373 317.206796 
L 747.163636 316.351198 
L 747.163636 316.351198 
" clip-path="url(#p22b82b26fa)" style="fill: none; stroke: #fb9a99; stroke-width: 1.5; stroke-linecap: square"/>
   </g>
   <g id="patch_3">
    <path d="M 108 384.48 
L 108 51.84 
" style="fill: none; stroke: #000000; stroke-width: 0.8; stroke-linejoin: miter; stroke-linecap: square"/>
   </g>
   <g id="patch_4">
    <path d="M 777.6 384.48 
L 777.6 51.84 
" style="fill: none; stroke: #000000; stroke-width: 0.8; stroke-linejoin: miter; stroke-linecap: square"/>
   </g>
   <g id="patch_5">
    <path d="M 108 384.48 
L 777.6 384.48 
" style="fill: none; stroke: #000000; stroke-width: 0.8; stroke-linejoin: miter; stroke-linecap: square"/>
   </g>
   <g id="patch_6">
    <path d="M 108 51.84 
L 777.6 51.84 
" style="fill: none; stroke: #000000; stroke-width: 0.8; stroke-linejoin: miter; stroke-linecap: square"/>
   </g>
   <g id="text_16">
    <!-- Número de Tarjetas de Crédito -->
    <g transform="translate(322.055469 45.84) scale(0.14 -0.14)">
     <defs>
      <path id="DejaVuSans-Bold-4e" d="M 588 4666 
L 1931 4666 
L 3628 1466 
L 3628 4666 
L 4769 4666 
L 4769 0 
L 3425 0 
L 1728 3200 
L 1728 0 
L 588 0 
L 588 4666 
z
" transform="scale(0.015625)"/>
      <path id="DejaVuSans-Bold-fa" d="M 500 1363 
L 500 3500 
L 1625 3500 
L 1625 3150 
Q 1625 2866 1622 2436 
Q 1619 2006 1619 1863 
Q 1619 1441 1641 1255 
Q 1663 1069 1716 984 
Q 1784 875 1895 815 
Q 2006 756 2150 756 
Q 2500 756 2700 1025 
Q 2900 1294 2900 1772 
L 2900 3500 
L 4019 3500 
L 4019 0 
L 2900 0 
L 2900 506 
Q 2647 200 2364 54 
Q 2081 -91 1741 -91 
Q 1134 -91 817 281 
Q 500 653 500 1363 
z
M 2782 5119 
L 3666 5119 
L 2513 3944 
L 1901 3944 
L 2782 5119 
z
" transform="scale(0.015625)"/>
      <path id="DejaVuSans-Bold-6d" d="M 3781 2919 
Q 3994 3244 4286 3414 
Q 4578 3584 4928 3584 
Q 5531 3584 5847 3212 
Q 6163 2841 6163 2131 
L 6163 0 
L 5038 0 
L 5038 1825 
Q 5041 1866 5042 1909 
Q 5044 1953 5044 2034 
Q 5044 2406 4934 2573 
Q 4825 2741 4581 2741 
Q 4263 2741 4089 2478 
Q 3916 2216 3909 1719 
L 3909 0 
L 2784 0 
L 2784 1825 
Q 2784 2406 2684 2573 
Q 2584 2741 2328 2741 
Q 2006 2741 1831 2477 
Q 1656 2213 1656 1722 
L 1656 0 
L 531 0 
L 531 3500 
L 1656 3500 
L 1656 2988 
Q 1863 3284 2130 3434 
Q 2397 3584 2719 3584 
Q 3081 3584 3359 3409 
Q 3638 3234 3781 2919 
z
" transform="scale(0.015625)"/>
      <path id="DejaVuSans-Bold-65" d="M 4031 1759 
L 4031 1441 
L 1416 1441 
Q 1456 1047 1700 850 
Q 1944 653 2381 653 
Q 2734 653 3104 758 
Q 3475 863 3866 1075 
L 3866 213 
Q 3469 63 3072 -14 
Q 2675 -91 2278 -91 
Q 1328 -91 801 392 
Q 275 875 275 1747 
Q 275 2603 792 3093 
Q 1309 3584 2216 3584 
Q 3041 3584 3536 3087 
Q 4031 2591 4031 1759 
z
M 2881 2131 
Q 2881 2450 2695 2645 
Q 2509 2841 2209 2841 
Q 1884 2841 1681 2658 
Q 1478 2475 1428 2131 
L 2881 2131 
z
" transform="scale(0.015625)"/>
      <path id="DejaVuSans-Bold-72" d="M 3138 2547 
Q 2991 2616 2845 2648 
Q 2700 2681 2553 2681 
Q 2122 2681 1889 2404 
Q 1656 2128 1656 1613 
L 1656 0 
L 538 0 
L 538 3500 
L 1656 3500 
L 1656 2925 
Q 1872 3269 2151 3426 
Q 2431 3584 2822 3584 
Q 2878 3584 2943 3579 
Q 3009 3575 3134 3559 
L 3138 2547 
z
" transform="scale(0.015625)"/>
      <path id="DejaVuSans-Bold-6f" d="M 2203 2784 
Q 1831 2784 1636 2517 
Q 1441 2250 1441 1747 
Q 1441 1244 1636 976 
Q 1831 709 2203 709 
Q 2569 709 2762 976 
Q 2956 1244 2956 1747 
Q 2956 2250 2762 2517 
Q 2569 2784 2203 2784 
z
M 2203 3584 
Q 3106 3584 3614 3096 
Q 4122 2609 4122 1747 
Q 4122 884 3614 396 
Q 3106 -91 2203 -91 
Q 1297 -91 786 396 
Q 275 884 275 1747 
Q 275 2609 786 3096 
Q 1297 3584 2203 3584 
z
" transform="scale(0.015625)"/>
      <path id="DejaVuSans-Bold-20" transform="scale(0.015625)"/>
      <path id="DejaVuSans-Bold-64" d="M 2919 2988 
L 2919 4863 
L 4044 4863 
L 4044 0 
L 2919 0 
L 2919 506 
Q 2688 197 2409 53 
Q 2131 -91 1766 -91 
Q 1119 -91 703 423 
Q 288 938 288 1747 
Q 288 2556 703 3070 
Q 1119 3584 1766 3584 
Q 2128 3584 2408 3439 
Q 2688 3294 2919 2988 
z
M 2181 722 
Q 2541 722 2730 984 
Q 2919 1247 2919 1747 
Q 2919 2247 2730 2509 
Q 2541 2772 2181 2772 
Q 1825 2772 1636 2509 
Q 1447 2247 1447 1747 
Q 1447 1247 1636 984 
Q 1825 722 2181 722 
z
" transform="scale(0.015625)"/>
      <path id="DejaVuSans-Bold-54" d="M 31 4666 
L 4331 4666 
L 4331 3756 
L 2784 3756 
L 2784 0 
L 1581 0 
L 1581 3756 
L 31 3756 
L 31 4666 
z
" transform="scale(0.015625)"/>
      <path id="DejaVuSans-Bold-61" d="M 2106 1575 
Q 1756 1575 1579 1456 
Q 1403 1338 1403 1106 
Q 1403 894 1545 773 
Q 1688 653 1941 653 
Q 2256 653 2472 879 
Q 2688 1106 2688 1447 
L 2688 1575 
L 2106 1575 
z
M 3816 1997 
L 3816 0 
L 2688 0 
L 2688 519 
Q 2463 200 2181 54 
Q 1900 -91 1497 -91 
Q 953 -91 614 226 
Q 275 544 275 1050 
Q 275 1666 698 1953 
Q 1122 2241 2028 2241 
L 2688 2241 
L 2688 2328 
Q 2688 2594 2478 2717 
Q 2269 2841 1825 2841 
Q 1466 2841 1156 2769 
Q 847 2697 581 2553 
L 581 3406 
Q 941 3494 1303 3539 
Q 1666 3584 2028 3584 
Q 2975 3584 3395 3211 
Q 3816 2838 3816 1997 
z
" transform="scale(0.015625)"/>
      <path id="DejaVuSans-Bold-6a" d="M 538 3500 
L 1656 3500 
L 1656 63 
Q 1656 -641 1318 -1011 
Q 981 -1381 341 -1381 
L -213 -1381 
L -213 -647 
L -19 -647 
Q 300 -647 419 -503 
Q 538 -359 538 63 
L 538 3500 
z
M 538 4863 
L 1656 4863 
L 1656 3950 
L 538 3950 
L 538 4863 
z
" transform="scale(0.015625)"/>
      <path id="DejaVuSans-Bold-74" d="M 1759 4494 
L 1759 3500 
L 2913 3500 
L 2913 2700 
L 1759 2700 
L 1759 1216 
Q 1759 972 1856 886 
Q 1953 800 2241 800 
L 2816 800 
L 2816 0 
L 1856 0 
Q 1194 0 917 276 
Q 641 553 641 1216 
L 641 2700 
L 84 2700 
L 84 3500 
L 641 3500 
L 641 4494 
L 1759 4494 
z
" transform="scale(0.015625)"/>
      <path id="DejaVuSans-Bold-73" d="M 3272 3391 
L 3272 2541 
Q 2913 2691 2578 2766 
Q 2244 2841 1947 2841 
Q 1628 2841 1473 2761 
Q 1319 2681 1319 2516 
Q 1319 2381 1436 2309 
Q 1553 2238 1856 2203 
L 2053 2175 
Q 2913 2066 3209 1816 
Q 3506 1566 3506 1031 
Q 3506 472 3093 190 
Q 2681 -91 1863 -91 
Q 1516 -91 1145 -36 
Q 775 19 384 128 
L 384 978 
Q 719 816 1070 734 
Q 1422 653 1784 653 
Q 2113 653 2278 743 
Q 2444 834 2444 1013 
Q 2444 1163 2330 1236 
Q 2216 1309 1875 1350 
L 1678 1375 
Q 931 1469 631 1722 
Q 331 1975 331 2491 
Q 331 3047 712 3315 
Q 1094 3584 1881 3584 
Q 2191 3584 2531 3537 
Q 2872 3491 3272 3391 
z
" transform="scale(0.015625)"/>
      <path id="DejaVuSans-Bold-43" d="M 4288 256 
Q 3956 84 3597 -3 
Q 3238 -91 2847 -91 
Q 1681 -91 1000 561 
Q 319 1213 319 2328 
Q 319 3447 1000 4098 
Q 1681 4750 2847 4750 
Q 3238 4750 3597 4662 
Q 3956 4575 4288 4403 
L 4288 3438 
Q 3953 3666 3628 3772 
Q 3303 3878 2944 3878 
Q 2300 3878 1931 3465 
Q 1563 3053 1563 2328 
Q 1563 1606 1931 1193 
Q 2300 781 2944 781 
Q 3303 781 3628 887 
Q 3953 994 4288 1222 
L 4288 256 
z
" transform="scale(0.015625)"/>
      <path id="DejaVuSans-Bold-e9" d="M 4031 1759 
L 4031 1441 
L 1416 1441 
Q 1456 1047 1700 850 
Q 1944 653 2381 653 
Q 2734 653 3104 758 
Q 3475 863 3866 1075 
L 3866 213 
Q 3469 63 3072 -14 
Q 2675 -91 2278 -91 
Q 1328 -91 801 392 
Q 275 875 275 1747 
Q 275 2603 792 3093 
Q 1309 3584 2216 3584 
Q 3041 3584 3536 3087 
Q 4031 2591 4031 1759 
z
M 2881 2131 
Q 2881 2450 2695 2645 
Q 2509 2841 2209 2841 
Q 1884 2841 1681 2658 
Q 1478 2475 1428 2131 
L 2881 2131 
z
M 2702 5119 
L 3586 5119 
L 2433 3944 
L 1821 3944 
L 2702 5119 
z
" transform="scale(0.015625)"/>
      <path id="DejaVuSans-Bold-69" d="M 538 3500 
L 1656 3500 
L 1656 0 
L 538 0 
L 538 3500 
z
M 538 4863 
L 1656 4863 
L 1656 3950 
L 538 3950 
L 538 4863 
z
" transform="scale(0.015625)"/>
     </defs>
     <use xlink:href="#DejaVuSans-Bold-4e"/>
     <use xlink:href="#DejaVuSans-Bold-fa" x="83.691406"/>
     <use xlink:href="#DejaVuSans-Bold-6d" x="154.882812"/>
     <use xlink:href="#DejaVuSans-Bold-65" x="259.082031"/>
     <use xlink:href="#DejaVuSans-Bold-72" x="326.904297"/>
     <use xlink:href="#DejaVuSans-Bold-6f" x="376.220703"/>
     <use xlink:href="#DejaVuSans-Bold-20" x="444.921875"/>
     <use xlink:href="#DejaVuSans-Bold-64" x="479.736328"/>
     <use xlink:href="#DejaVuSans-Bold-65" x="551.318359"/>
     <use xlink:href="#DejaVuSans-Bold-20" x="619.140625"/>
     <use xlink:href="#DejaVuSans-Bold-54" x="653.955078"/>
     <use xlink:href="#DejaVuSans-Bold-61" x="709.292969"/>
     <use xlink:href="#DejaVuSans-Bold-72" x="776.773438"/>
     <use xlink:href="#DejaVuSans-Bold-6a" x="826.089844"/>
     <use xlink:href="#DejaVuSans-Bold-65" x="860.367188"/>
     <use xlink:href="#DejaVuSans-Bold-74" x="928.189453"/>
     <use xlink:href="#DejaVuSans-Bold-61" x="975.992188"/>
     <use xlink:href="#DejaVuSans-Bold-73" x="1043.472656"/>
     <use xlink:href="#DejaVuSans-Bold-20" x="1102.994141"/>
     <use xlink:href="#DejaVuSans-Bold-64" x="1137.808594"/>
     <use xlink:href="#DejaVuSans-Bold-65" x="1209.390625"/>
     <use xlink:href="#DejaVuSans-Bold-20" x="1277.212891"/>
     <use xlink:href="#DejaVuSans-Bold-43" x="1312.027344"/>
     <use xlink:href="#DejaVuSans-Bold-72" x="1385.416016"/>
     <use xlink:href="#DejaVuSans-Bold-e9" x="1434.732422"/>
     <use xlink:href="#DejaVuSans-Bold-64" x="1502.554688"/>
     <use xlink:href="#DejaVuSans-Bold-69" x="1574.136719"/>
     <use xlink:href="#DejaVuSans-Bold-74" x="1608.414062"/>
     <use xlink:href="#DejaVuSans-Bold-6f" x="1656.216797"/>
    </g>
   </g>
   <g id="legend_1">
    <g id="patch_7">
     <path d="M 113.6 116.9525 
L 375.20375 116.9525 
Q 376.80375 116.9525 376.80375 115.3525 
L 376.80375 57.44 
Q 376.80375 55.84 375.20375 55.84 
L 113.6 55.84 
Q 112 55.84 112 57.44 
L 112 115.3525 
Q 112 116.9525 113.6 116.9525 
z
" style="fill: #ffffff; opacity: 0.8; stroke: #cccccc; stroke-linejoin: miter"/>
    </g>
    <g id="line2d_34">
     <path d="M 115.2 62.31875 
L 123.2 62.31875 
L 131.2 62.31875 
" style="fill: none; stroke: #a6cee3; stroke-width: 1.5; stroke-linecap: square"/>
    </g>
    <g id="text_17">
     <!--  Tarjetas vigentes al cierre del trimestre (todas las marcas) -->
     <g transform="translate(137.6 65.11875) scale(0.08 -0.08)">
      <defs>
       <path id="DejaVuSans-20" transform="scale(0.015625)"/>
       <path id="DejaVuSans-54" d="M -19 4666 
L 3928 4666 
L 3928 4134 
L 2272 4134 
L 2272 0 
L 1638 0 
L 1638 4134 
L -19 4134 
L -19 4666 
z
" transform="scale(0.015625)"/>
       <path id="DejaVuSans-61" d="M 2194 1759 
Q 1497 1759 1228 1600 
Q 959 1441 959 1056 
Q 959 750 1161 570 
Q 1363 391 1709 391 
Q 2188 391 2477 730 
Q 2766 1069 2766 1631 
L 2766 1759 
L 2194 1759 
z
M 3341 1997 
L 3341 0 
L 2766 0 
L 2766 531 
Q 2569 213 2275 61 
Q 1981 -91 1556 -91 
Q 1019 -91 701 211 
Q 384 513 384 1019 
Q 384 1609 779 1909 
Q 1175 2209 1959 2209 
L 2766 2209 
L 2766 2266 
Q 2766 2663 2505 2880 
Q 2244 3097 1772 3097 
Q 1472 3097 1187 3025 
Q 903 2953 641 2809 
L 641 3341 
Q 956 3463 1253 3523 
Q 1550 3584 1831 3584 
Q 2591 3584 2966 3190 
Q 3341 2797 3341 1997 
z
" transform="scale(0.015625)"/>
       <path id="DejaVuSans-72" d="M 2631 2963 
Q 2534 3019 2420 3045 
Q 2306 3072 2169 3072 
Q 1681 3072 1420 2755 
Q 1159 2438 1159 1844 
L 1159 0 
L 581 0 
L 581 3500 
L 1159 3500 
L 1159 2956 
Q 1341 3275 1631 3429 
Q 1922 3584 2338 3584 
Q 2397 3584 2469 3576 
Q 2541 3569 2628 3553 
L 2631 2963 
z
" transform="scale(0.015625)"/>
       <path id="DejaVuSans-6a" d="M 603 3500 
L 1178 3500 
L 1178 -63 
Q 1178 -731 923 -1031 
Q 669 -1331 103 -1331 
L -116 -1331 
L -116 -844 
L 38 -844 
Q 366 -844 484 -692 
Q 603 -541 603 -63 
L 603 3500 
z
M 603 4863 
L 1178 4863 
L 1178 4134 
L 603 4134 
L 603 4863 
z
" transform="scale(0.015625)"/>
       <path id="DejaVuSans-74" d="M 1172 4494 
L 1172 3500 
L 2356 3500 
L 2356 3053 
L 1172 3053 
L 1172 1153 
Q 1172 725 1289 603 
Q 1406 481 1766 481 
L 2356 481 
L 2356 0 
L 1766 0 
Q 1100 0 847 248 
Q 594 497 594 1153 
L 594 3053 
L 172 3053 
L 172 3500 
L 594 3500 
L 594 4494 
L 1172 4494 
z
" transform="scale(0.015625)"/>
       <path id="DejaVuSans-73" d="M 2834 3397 
L 2834 2853 
Q 2591 2978 2328 3040 
Q 2066 3103 1784 3103 
Q 1356 3103 1142 2972 
Q 928 2841 928 2578 
Q 928 2378 1081 2264 
Q 1234 2150 1697 2047 
L 1894 2003 
Q 2506 1872 2764 1633 
Q 3022 1394 3022 966 
Q 3022 478 2636 193 
Q 2250 -91 1575 -91 
Q 1294 -91 989 -36 
Q 684 19 347 128 
L 347 722 
Q 666 556 975 473 
Q 1284 391 1588 391 
Q 1994 391 2212 530 
Q 2431 669 2431 922 
Q 2431 1156 2273 1281 
Q 2116 1406 1581 1522 
L 1381 1569 
Q 847 1681 609 1914 
Q 372 2147 372 2553 
Q 372 3047 722 3315 
Q 1072 3584 1716 3584 
Q 2034 3584 2315 3537 
Q 2597 3491 2834 3397 
z
" transform="scale(0.015625)"/>
       <path id="DejaVuSans-76" d="M 191 3500 
L 800 3500 
L 1894 563 
L 2988 3500 
L 3597 3500 
L 2284 0 
L 1503 0 
L 191 3500 
z
" transform="scale(0.015625)"/>
       <path id="DejaVuSans-69" d="M 603 3500 
L 1178 3500 
L 1178 0 
L 603 0 
L 603 3500 
z
M 603 4863 
L 1178 4863 
L 1178 4134 
L 603 4134 
L 603 4863 
z
" transform="scale(0.015625)"/>
       <path id="DejaVuSans-67" d="M 2906 1791 
Q 2906 2416 2648 2759 
Q 2391 3103 1925 3103 
Q 1463 3103 1205 2759 
Q 947 2416 947 1791 
Q 947 1169 1205 825 
Q 1463 481 1925 481 
Q 2391 481 2648 825 
Q 2906 1169 2906 1791 
z
M 3481 434 
Q 3481 -459 3084 -895 
Q 2688 -1331 1869 -1331 
Q 1566 -1331 1297 -1286 
Q 1028 -1241 775 -1147 
L 775 -588 
Q 1028 -725 1275 -790 
Q 1522 -856 1778 -856 
Q 2344 -856 2625 -561 
Q 2906 -266 2906 331 
L 2906 616 
Q 2728 306 2450 153 
Q 2172 0 1784 0 
Q 1141 0 747 490 
Q 353 981 353 1791 
Q 353 2603 747 3093 
Q 1141 3584 1784 3584 
Q 2172 3584 2450 3431 
Q 2728 3278 2906 2969 
L 2906 3500 
L 3481 3500 
L 3481 434 
z
" transform="scale(0.015625)"/>
       <path id="DejaVuSans-6e" d="M 3513 2113 
L 3513 0 
L 2938 0 
L 2938 2094 
Q 2938 2591 2744 2837 
Q 2550 3084 2163 3084 
Q 1697 3084 1428 2787 
Q 1159 2491 1159 1978 
L 1159 0 
L 581 0 
L 581 3500 
L 1159 3500 
L 1159 2956 
Q 1366 3272 1645 3428 
Q 1925 3584 2291 3584 
Q 2894 3584 3203 3211 
Q 3513 2838 3513 2113 
z
" transform="scale(0.015625)"/>
       <path id="DejaVuSans-a0" transform="scale(0.015625)"/>
       <path id="DejaVuSans-6c" d="M 603 4863 
L 1178 4863 
L 1178 0 
L 603 0 
L 603 4863 
z
" transform="scale(0.015625)"/>
       <path id="DejaVuSans-63" d="M 3122 3366 
L 3122 2828 
Q 2878 2963 2633 3030 
Q 2388 3097 2138 3097 
Q 1578 3097 1268 2742 
Q 959 2388 959 1747 
Q 959 1106 1268 751 
Q 1578 397 2138 397 
Q 2388 397 2633 464 
Q 2878 531 3122 666 
L 3122 134 
Q 2881 22 2623 -34 
Q 2366 -91 2075 -91 
Q 1284 -91 818 406 
Q 353 903 353 1747 
Q 353 2603 823 3093 
Q 1294 3584 2113 3584 
Q 2378 3584 2631 3529 
Q 2884 3475 3122 3366 
z
" transform="scale(0.015625)"/>
       <path id="DejaVuSans-64" d="M 2906 2969 
L 2906 4863 
L 3481 4863 
L 3481 0 
L 2906 0 
L 2906 525 
Q 2725 213 2448 61 
Q 2172 -91 1784 -91 
Q 1150 -91 751 415 
Q 353 922 353 1747 
Q 353 2572 751 3078 
Q 1150 3584 1784 3584 
Q 2172 3584 2448 3432 
Q 2725 3281 2906 2969 
z
M 947 1747 
Q 947 1113 1208 752 
Q 1469 391 1925 391 
Q 2381 391 2643 752 
Q 2906 1113 2906 1747 
Q 2906 2381 2643 2742 
Q 2381 3103 1925 3103 
Q 1469 3103 1208 2742 
Q 947 2381 947 1747 
z
" transform="scale(0.015625)"/>
       <path id="DejaVuSans-6d" d="M 3328 2828 
Q 3544 3216 3844 3400 
Q 4144 3584 4550 3584 
Q 5097 3584 5394 3201 
Q 5691 2819 5691 2113 
L 5691 0 
L 5113 0 
L 5113 2094 
Q 5113 2597 4934 2840 
Q 4756 3084 4391 3084 
Q 3944 3084 3684 2787 
Q 3425 2491 3425 1978 
L 3425 0 
L 2847 0 
L 2847 2094 
Q 2847 2600 2669 2842 
Q 2491 3084 2119 3084 
Q 1678 3084 1418 2786 
Q 1159 2488 1159 1978 
L 1159 0 
L 581 0 
L 581 3500 
L 1159 3500 
L 1159 2956 
Q 1356 3278 1631 3431 
Q 1906 3584 2284 3584 
Q 2666 3584 2933 3390 
Q 3200 3197 3328 2828 
z
" transform="scale(0.015625)"/>
       <path id="DejaVuSans-28" d="M 1984 4856 
Q 1566 4138 1362 3434 
Q 1159 2731 1159 2009 
Q 1159 1288 1364 580 
Q 1569 -128 1984 -844 
L 1484 -844 
Q 1016 -109 783 600 
Q 550 1309 550 2009 
Q 550 2706 781 3412 
Q 1013 4119 1484 4856 
L 1984 4856 
z
" transform="scale(0.015625)"/>
       <path id="DejaVuSans-6f" d="M 1959 3097 
Q 1497 3097 1228 2736 
Q 959 2375 959 1747 
Q 959 1119 1226 758 
Q 1494 397 1959 397 
Q 2419 397 2687 759 
Q 2956 1122 2956 1747 
Q 2956 2369 2687 2733 
Q 2419 3097 1959 3097 
z
M 1959 3584 
Q 2709 3584 3137 3096 
Q 3566 2609 3566 1747 
Q 3566 888 3137 398 
Q 2709 -91 1959 -91 
Q 1206 -91 779 398 
Q 353 888 353 1747 
Q 353 2609 779 3096 
Q 1206 3584 1959 3584 
z
" transform="scale(0.015625)"/>
       <path id="DejaVuSans-29" d="M 513 4856 
L 1013 4856 
Q 1481 4119 1714 3412 
Q 1947 2706 1947 2009 
Q 1947 1309 1714 600 
Q 1481 -109 1013 -844 
L 513 -844 
Q 928 -128 1133 580 
Q 1338 1288 1338 2009 
Q 1338 2731 1133 3434 
Q 928 4138 513 4856 
z
" transform="scale(0.015625)"/>
      </defs>
      <use xlink:href="#DejaVuSans-20"/>
      <use xlink:href="#DejaVuSans-54" x="31.787109"/>
      <use xlink:href="#DejaVuSans-61" x="76.371094"/>
      <use xlink:href="#DejaVuSans-72" x="137.650391"/>
      <use xlink:href="#DejaVuSans-6a" x="178.763672"/>
      <use xlink:href="#DejaVuSans-65" x="206.546875"/>
      <use xlink:href="#DejaVuSans-74" x="268.070312"/>
      <use xlink:href="#DejaVuSans-61" x="307.279297"/>
      <use xlink:href="#DejaVuSans-73" x="368.558594"/>
      <use xlink:href="#DejaVuSans-20" x="420.658203"/>
      <use xlink:href="#DejaVuSans-76" x="452.445312"/>
      <use xlink:href="#DejaVuSans-69" x="511.625"/>
      <use xlink:href="#DejaVuSans-67" x="539.408203"/>
      <use xlink:href="#DejaVuSans-65" x="602.884766"/>
      <use xlink:href="#DejaVuSans-6e" x="664.408203"/>
      <use xlink:href="#DejaVuSans-74" x="727.787109"/>
      <use xlink:href="#DejaVuSans-65" x="766.996094"/>
      <use xlink:href="#DejaVuSans-73" x="828.519531"/>
      <use xlink:href="#DejaVuSans-a0" x="880.619141"/>
      <use xlink:href="#DejaVuSans-61" x="912.40625"/>
      <use xlink:href="#DejaVuSans-6c" x="973.685547"/>
      <use xlink:href="#DejaVuSans-20" x="1001.46875"/>
      <use xlink:href="#DejaVuSans-63" x="1033.255859"/>
      <use xlink:href="#DejaVuSans-69" x="1088.236328"/>
      <use xlink:href="#DejaVuSans-65" x="1116.019531"/>
      <use xlink:href="#DejaVuSans-72" x="1177.542969"/>
      <use xlink:href="#DejaVuSans-72" x="1216.90625"/>
      <use xlink:href="#DejaVuSans-65" x="1255.769531"/>
      <use xlink:href="#DejaVuSans-20" x="1317.292969"/>
      <use xlink:href="#DejaVuSans-64" x="1349.080078"/>
      <use xlink:href="#DejaVuSans-65" x="1412.556641"/>
      <use xlink:href="#DejaVuSans-6c" x="1474.080078"/>
      <use xlink:href="#DejaVuSans-20" x="1501.863281"/>
      <use xlink:href="#DejaVuSans-74" x="1533.650391"/>
      <use xlink:href="#DejaVuSans-72" x="1572.859375"/>
      <use xlink:href="#DejaVuSans-69" x="1613.972656"/>
      <use xlink:href="#DejaVuSans-6d" x="1641.755859"/>
      <use xlink:href="#DejaVuSans-65" x="1739.167969"/>
      <use xlink:href="#DejaVuSans-73" x="1800.691406"/>
      <use xlink:href="#DejaVuSans-74" x="1852.791016"/>
      <use xlink:href="#DejaVuSans-72" x="1892"/>
      <use xlink:href="#DejaVuSans-65" x="1930.863281"/>
      <use xlink:href="#DejaVuSans-20" x="1992.386719"/>
      <use xlink:href="#DejaVuSans-28" x="2024.173828"/>
      <use xlink:href="#DejaVuSans-74" x="2063.1875"/>
      <use xlink:href="#DejaVuSans-6f" x="2102.396484"/>
      <use xlink:href="#DejaVuSans-64" x="2163.578125"/>
      <use xlink:href="#DejaVuSans-61" x="2227.054688"/>
      <use xlink:href="#DejaVuSans-73" x="2288.333984"/>
      <use xlink:href="#DejaVuSans-20" x="2340.433594"/>
      <use xlink:href="#DejaVuSans-6c" x="2372.220703"/>
      <use xlink:href="#DejaVuSans-61" x="2400.003906"/>
      <use xlink:href="#DejaVuSans-73" x="2461.283203"/>
      <use xlink:href="#DejaVuSans-20" x="2513.382812"/>
      <use xlink:href="#DejaVuSans-6d" x="2545.169922"/>
      <use xlink:href="#DejaVuSans-61" x="2642.582031"/>
      <use xlink:href="#DejaVuSans-72" x="2703.861328"/>
      <use xlink:href="#DejaVuSans-63" x="2742.724609"/>
      <use xlink:href="#DejaVuSans-61" x="2797.705078"/>
      <use xlink:href="#DejaVuSans-73" x="2858.984375"/>
      <use xlink:href="#DejaVuSans-29" x="2911.083984"/>
     </g>
    </g>
    <g id="line2d_35">
     <path d="M 115.2 74.06125 
L 123.2 74.06125 
L 131.2 74.06125 
" style="fill: none; stroke: #1f78b4; stroke-width: 1.5; stroke-linecap: square"/>
    </g>
    <g id="text_18">
     <!--  Tarjetas utilizadas durante el trimestre -->
     <g transform="translate(137.6 76.86125) scale(0.08 -0.08)">
      <defs>
       <path id="DejaVuSans-75" d="M 544 1381 
L 544 3500 
L 1119 3500 
L 1119 1403 
Q 1119 906 1312 657 
Q 1506 409 1894 409 
Q 2359 409 2629 706 
Q 2900 1003 2900 1516 
L 2900 3500 
L 3475 3500 
L 3475 0 
L 2900 0 
L 2900 538 
Q 2691 219 2414 64 
Q 2138 -91 1772 -91 
Q 1169 -91 856 284 
Q 544 659 544 1381 
z
M 1991 3584 
L 1991 3584 
z
" transform="scale(0.015625)"/>
       <path id="DejaVuSans-7a" d="M 353 3500 
L 3084 3500 
L 3084 2975 
L 922 459 
L 3084 459 
L 3084 0 
L 275 0 
L 275 525 
L 2438 3041 
L 353 3041 
L 353 3500 
z
" transform="scale(0.015625)"/>
      </defs>
      <use xlink:href="#DejaVuSans-20"/>
      <use xlink:href="#DejaVuSans-54" x="31.787109"/>
      <use xlink:href="#DejaVuSans-61" x="76.371094"/>
      <use xlink:href="#DejaVuSans-72" x="137.650391"/>
      <use xlink:href="#DejaVuSans-6a" x="178.763672"/>
      <use xlink:href="#DejaVuSans-65" x="206.546875"/>
      <use xlink:href="#DejaVuSans-74" x="268.070312"/>
      <use xlink:href="#DejaVuSans-61" x="307.279297"/>
      <use xlink:href="#DejaVuSans-73" x="368.558594"/>
      <use xlink:href="#DejaVuSans-20" x="420.658203"/>
      <use xlink:href="#DejaVuSans-75" x="452.445312"/>
      <use xlink:href="#DejaVuSans-74" x="515.824219"/>
      <use xlink:href="#DejaVuSans-69" x="555.033203"/>
      <use xlink:href="#DejaVuSans-6c" x="582.816406"/>
      <use xlink:href="#DejaVuSans-69" x="610.599609"/>
      <use xlink:href="#DejaVuSans-7a" x="638.382812"/>
      <use xlink:href="#DejaVuSans-61" x="690.873047"/>
      <use xlink:href="#DejaVuSans-64" x="752.152344"/>
      <use xlink:href="#DejaVuSans-61" x="815.628906"/>
      <use xlink:href="#DejaVuSans-73" x="876.908203"/>
      <use xlink:href="#DejaVuSans-20" x="929.007812"/>
      <use xlink:href="#DejaVuSans-64" x="960.794922"/>
      <use xlink:href="#DejaVuSans-75" x="1024.271484"/>
      <use xlink:href="#DejaVuSans-72" x="1087.650391"/>
      <use xlink:href="#DejaVuSans-61" x="1128.763672"/>
      <use xlink:href="#DejaVuSans-6e" x="1190.042969"/>
      <use xlink:href="#DejaVuSans-74" x="1253.421875"/>
      <use xlink:href="#DejaVuSans-65" x="1292.630859"/>
      <use xlink:href="#DejaVuSans-20" x="1354.154297"/>
      <use xlink:href="#DejaVuSans-65" x="1385.941406"/>
      <use xlink:href="#DejaVuSans-6c" x="1447.464844"/>
      <use xlink:href="#DejaVuSans-20" x="1475.248047"/>
      <use xlink:href="#DejaVuSans-74" x="1507.035156"/>
      <use xlink:href="#DejaVuSans-72" x="1546.244141"/>
      <use xlink:href="#DejaVuSans-69" x="1587.357422"/>
      <use xlink:href="#DejaVuSans-6d" x="1615.140625"/>
      <use xlink:href="#DejaVuSans-65" x="1712.552734"/>
      <use xlink:href="#DejaVuSans-73" x="1774.076172"/>
      <use xlink:href="#DejaVuSans-74" x="1826.175781"/>
      <use xlink:href="#DejaVuSans-72" x="1865.384766"/>
      <use xlink:href="#DejaVuSans-65" x="1904.248047"/>
     </g>
    </g>
    <g id="line2d_36">
     <path d="M 115.2 85.80375 
L 123.2 85.80375 
L 131.2 85.80375 
" style="fill: none; stroke: #b2df8a; stroke-width: 1.5; stroke-linecap: square"/>
    </g>
    <g id="text_19">
     <!--  Tarjetas vigentes al cierre del trimestre (visa) -->
     <g transform="translate(137.6 88.60375) scale(0.08 -0.08)">
      <use xlink:href="#DejaVuSans-20"/>
      <use xlink:href="#DejaVuSans-54" x="31.787109"/>
      <use xlink:href="#DejaVuSans-61" x="76.371094"/>
      <use xlink:href="#DejaVuSans-72" x="137.650391"/>
      <use xlink:href="#DejaVuSans-6a" x="178.763672"/>
      <use xlink:href="#DejaVuSans-65" x="206.546875"/>
      <use xlink:href="#DejaVuSans-74" x="268.070312"/>
      <use xlink:href="#DejaVuSans-61" x="307.279297"/>
      <use xlink:href="#DejaVuSans-73" x="368.558594"/>
      <use xlink:href="#DejaVuSans-20" x="420.658203"/>
      <use xlink:href="#DejaVuSans-76" x="452.445312"/>
      <use xlink:href="#DejaVuSans-69" x="511.625"/>
      <use xlink:href="#DejaVuSans-67" x="539.408203"/>
      <use xlink:href="#DejaVuSans-65" x="602.884766"/>
      <use xlink:href="#DejaVuSans-6e" x="664.408203"/>
      <use xlink:href="#DejaVuSans-74" x="727.787109"/>
      <use xlink:href="#DejaVuSans-65" x="766.996094"/>
      <use xlink:href="#DejaVuSans-73" x="828.519531"/>
      <use xlink:href="#DejaVuSans-a0" x="880.619141"/>
      <use xlink:href="#DejaVuSans-61" x="912.40625"/>
      <use xlink:href="#DejaVuSans-6c" x="973.685547"/>
      <use xlink:href="#DejaVuSans-20" x="1001.46875"/>
      <use xlink:href="#DejaVuSans-63" x="1033.255859"/>
      <use xlink:href="#DejaVuSans-69" x="1088.236328"/>
      <use xlink:href="#DejaVuSans-65" x="1116.019531"/>
      <use xlink:href="#DejaVuSans-72" x="1177.542969"/>
      <use xlink:href="#DejaVuSans-72" x="1216.90625"/>
      <use xlink:href="#DejaVuSans-65" x="1255.769531"/>
      <use xlink:href="#DejaVuSans-20" x="1317.292969"/>
      <use xlink:href="#DejaVuSans-64" x="1349.080078"/>
      <use xlink:href="#DejaVuSans-65" x="1412.556641"/>
      <use xlink:href="#DejaVuSans-6c" x="1474.080078"/>
      <use xlink:href="#DejaVuSans-20" x="1501.863281"/>
      <use xlink:href="#DejaVuSans-74" x="1533.650391"/>
      <use xlink:href="#DejaVuSans-72" x="1572.859375"/>
      <use xlink:href="#DejaVuSans-69" x="1613.972656"/>
      <use xlink:href="#DejaVuSans-6d" x="1641.755859"/>
      <use xlink:href="#DejaVuSans-65" x="1739.167969"/>
      <use xlink:href="#DejaVuSans-73" x="1800.691406"/>
      <use xlink:href="#DejaVuSans-74" x="1852.791016"/>
      <use xlink:href="#DejaVuSans-72" x="1892"/>
      <use xlink:href="#DejaVuSans-65" x="1930.863281"/>
      <use xlink:href="#DejaVuSans-20" x="1992.386719"/>
      <use xlink:href="#DejaVuSans-28" x="2024.173828"/>
      <use xlink:href="#DejaVuSans-76" x="2063.1875"/>
      <use xlink:href="#DejaVuSans-69" x="2122.367188"/>
      <use xlink:href="#DejaVuSans-73" x="2150.150391"/>
      <use xlink:href="#DejaVuSans-61" x="2202.25"/>
      <use xlink:href="#DejaVuSans-29" x="2263.529297"/>
     </g>
    </g>
    <g id="line2d_37">
     <path d="M 115.2 97.54625 
L 123.2 97.54625 
L 131.2 97.54625 
" style="fill: none; stroke: #33a02c; stroke-width: 1.5; stroke-linecap: square"/>
    </g>
    <g id="text_20">
     <!--  Cuentas con tarjetas -->
     <g transform="translate(137.6 100.34625) scale(0.08 -0.08)">
      <defs>
       <path id="DejaVuSans-43" d="M 4122 4306 
L 4122 3641 
Q 3803 3938 3442 4084 
Q 3081 4231 2675 4231 
Q 1875 4231 1450 3742 
Q 1025 3253 1025 2328 
Q 1025 1406 1450 917 
Q 1875 428 2675 428 
Q 3081 428 3442 575 
Q 3803 722 4122 1019 
L 4122 359 
Q 3791 134 3420 21 
Q 3050 -91 2638 -91 
Q 1578 -91 968 557 
Q 359 1206 359 2328 
Q 359 3453 968 4101 
Q 1578 4750 2638 4750 
Q 3056 4750 3426 4639 
Q 3797 4528 4122 4306 
z
" transform="scale(0.015625)"/>
      </defs>
      <use xlink:href="#DejaVuSans-20"/>
      <use xlink:href="#DejaVuSans-43" x="31.787109"/>
      <use xlink:href="#DejaVuSans-75" x="101.611328"/>
      <use xlink:href="#DejaVuSans-65" x="164.990234"/>
      <use xlink:href="#DejaVuSans-6e" x="226.513672"/>
      <use xlink:href="#DejaVuSans-74" x="289.892578"/>
      <use xlink:href="#DejaVuSans-61" x="329.101562"/>
      <use xlink:href="#DejaVuSans-73" x="390.380859"/>
      <use xlink:href="#DejaVuSans-20" x="442.480469"/>
      <use xlink:href="#DejaVuSans-63" x="474.267578"/>
      <use xlink:href="#DejaVuSans-6f" x="529.248047"/>
      <use xlink:href="#DejaVuSans-6e" x="590.429688"/>
      <use xlink:href="#DejaVuSans-20" x="653.808594"/>
      <use xlink:href="#DejaVuSans-74" x="685.595703"/>
      <use xlink:href="#DejaVuSans-61" x="724.804688"/>
      <use xlink:href="#DejaVuSans-72" x="786.083984"/>
      <use xlink:href="#DejaVuSans-6a" x="827.197266"/>
      <use xlink:href="#DejaVuSans-65" x="854.980469"/>
      <use xlink:href="#DejaVuSans-74" x="916.503906"/>
      <use xlink:href="#DejaVuSans-61" x="955.712891"/>
      <use xlink:href="#DejaVuSans-73" x="1016.992188"/>
     </g>
    </g>
    <g id="line2d_38">
     <path d="M 115.2 109.28875 
L 123.2 109.28875 
L 131.2 109.28875 
" style="fill: none; stroke: #fb9a99; stroke-width: 1.5; stroke-linecap: square"/>
    </g>
    <g id="text_21">
     <!--  Tarjetas vigentes al cierre del trimestre (mastercard) -->
     <g transform="translate(137.6 112.08875) scale(0.08 -0.08)">
      <use xlink:href="#DejaVuSans-20"/>
      <use xlink:href="#DejaVuSans-54" x="31.787109"/>
      <use xlink:href="#DejaVuSans-61" x="76.371094"/>
      <use xlink:href="#DejaVuSans-72" x="137.650391"/>
      <use xlink:href="#DejaVuSans-6a" x="178.763672"/>
      <use xlink:href="#DejaVuSans-65" x="206.546875"/>
      <use xlink:href="#DejaVuSans-74" x="268.070312"/>
      <use xlink:href="#DejaVuSans-61" x="307.279297"/>
      <use xlink:href="#DejaVuSans-73" x="368.558594"/>
      <use xlink:href="#DejaVuSans-20" x="420.658203"/>
      <use xlink:href="#DejaVuSans-76" x="452.445312"/>
      <use xlink:href="#DejaVuSans-69" x="511.625"/>
      <use xlink:href="#DejaVuSans-67" x="539.408203"/>
      <use xlink:href="#DejaVuSans-65" x="602.884766"/>
      <use xlink:href="#DejaVuSans-6e" x="664.408203"/>
      <use xlink:href="#DejaVuSans-74" x="727.787109"/>
      <use xlink:href="#DejaVuSans-65" x="766.996094"/>
      <use xlink:href="#DejaVuSans-73" x="828.519531"/>
      <use xlink:href="#DejaVuSans-a0" x="880.619141"/>
      <use xlink:href="#DejaVuSans-61" x="912.40625"/>
      <use xlink:href="#DejaVuSans-6c" x="973.685547"/>
      <use xlink:href="#DejaVuSans-20" x="1001.46875"/>
      <use xlink:href="#DejaVuSans-63" x="1033.255859"/>
      <use xlink:href="#DejaVuSans-69" x="1088.236328"/>
      <use xlink:href="#DejaVuSans-65" x="1116.019531"/>
      <use xlink:href="#DejaVuSans-72" x="1177.542969"/>
      <use xlink:href="#DejaVuSans-72" x="1216.90625"/>
      <use xlink:href="#DejaVuSans-65" x="1255.769531"/>
      <use xlink:href="#DejaVuSans-20" x="1317.292969"/>
      <use xlink:href="#DejaVuSans-64" x="1349.080078"/>
      <use xlink:href="#DejaVuSans-65" x="1412.556641"/>
      <use xlink:href="#DejaVuSans-6c" x="1474.080078"/>
      <use xlink:href="#DejaVuSans-20" x="1501.863281"/>
      <use xlink:href="#DejaVuSans-74" x="1533.650391"/>
      <use xlink:href="#DejaVuSans-72" x="1572.859375"/>
      <use xlink:href="#DejaVuSans-69" x="1613.972656"/>
      <use xlink:href="#DejaVuSans-6d" x="1641.755859"/>
      <use xlink:href="#DejaVuSans-65" x="1739.167969"/>
      <use xlink:href="#DejaVuSans-73" x="1800.691406"/>
      <use xlink:href="#DejaVuSans-74" x="1852.791016"/>
      <use xlink:href="#DejaVuSans-72" x="1892"/>
      <use xlink:href="#DejaVuSans-65" x="1930.863281"/>
      <use xlink:href="#DejaVuSans-20" x="1992.386719"/>
      <use xlink:href="#DejaVuSans-28" x="2024.173828"/>
      <use xlink:href="#DejaVuSans-6d" x="2063.1875"/>
      <use xlink:href="#DejaVuSans-61" x="2160.599609"/>
      <use xlink:href="#DejaVuSans-73" x="2221.878906"/>
      <use xlink:href="#DejaVuSans-74" x="2273.978516"/>
      <use xlink:href="#DejaVuSans-65" x="2313.1875"/>
      <use xlink:href="#DejaVuSans-72" x="2374.710938"/>
      <use xlink:href="#DejaVuSans-63" x="2413.574219"/>
      <use xlink:href="#DejaVuSans-61" x="2468.554688"/>
      <use xlink:href="#DejaVuSans-72" x="2529.833984"/>
      <use xlink:href="#DejaVuSans-64" x="2569.197266"/>
      <use xlink:href="#DejaVuSans-29" x="2632.673828"/>
     </g>
    </g>
   </g>
  </g>
 </g>
 <defs>
  <clipPath id="p22b82b26fa">
   <rect x="108" y="51.84" width="669.6" height="332.64"/>
  </clipPath>
 </defs>
</svg>
