<?xml version="1.0" encoding="utf-8" standalone="no"?>
<!DOCTYPE svg PUBLIC "-//W3C//DTD SVG 1.1//EN"
  "http://www.w3.org/Graphics/SVG/1.1/DTD/svg11.dtd">
<svg xmlns:xlink="http://www.w3.org/1999/xlink" width="864pt" height="432pt" viewBox="0 0 864 432" xmlns="http://www.w3.org/2000/svg" version="1.1">
 <metadata>
  <rdf:RDF xmlns:dc="http://purl.org/dc/elements/1.1/" xmlns:cc="http://creativecommons.org/ns#" xmlns:rdf="http://www.w3.org/1999/02/22-rdf-syntax-ns#">
   <cc:Work>
    <dc:type rdf:resource="http://purl.org/dc/dcmitype/StillImage"/>
    <dc:date>2025-03-03T14:16:34.619689</dc:date>
    <dc:format>image/svg+xml</dc:format>
    <dc:creator>
     <cc:Agent>
      <dc:title>Matplotlib v3.10.0, https://matplotlib.org/</dc:title>
     </cc:Agent>
    </dc:creator>
   </cc:Work>
  </rdf:RDF>
 </metadata>
 <defs>
  <style type="text/css">*{stroke-linejoin: round; stroke-linecap: butt}</style>
 </defs>
 <g id="figure_1">
  <g id="patch_1">
   <path d="M 0 432 
L 864 432 
L 864 0 
L 0 0 
z
" style="fill: #ffffff"/>
  </g>
  <g id="axes_1">
   <g id="patch_2">
    <path d="M 108 384.48 
L 777.6 384.48 
L 777.6 51.84 
L 108 51.84 
z
" style="fill: #ffffff"/>
   </g>
   <g id="matplotlib.axis_1">
    <g id="xtick_1">
     <g id="line2d_1">
      <path d="M 173.464612 384.48 
L 173.464612 51.84 
" clip-path="url(#pcb97860b3d)" style="fill: none; stroke-dasharray: 2.96,1.28; stroke-dashoffset: 0; stroke: #b0b0b0; stroke-opacity: 0.5; stroke-width: 0.8"/>
     </g>
     <g id="line2d_2">
      <defs>
       <path id="md46888bcf7" d="M 0 0 
L 0 3.5 
" style="stroke: #000000; stroke-width: 0.8"/>
      </defs>
      <g>
       <use xlink:href="#md46888bcf7" x="173.464612" y="384.48" style="stroke: #000000; stroke-width: 0.8"/>
      </g>
     </g>
     <g id="text_1">
      <!-- 2012 -->
      <g transform="translate(160.739612 399.078438) scale(0.1 -0.1)">
       <defs>
        <path id="DejaVuSans-32" d="M 1228 531 
L 3431 531 
L 3431 0 
L 469 0 
L 469 531 
Q 828 903 1448 1529 
Q 2069 2156 2228 2338 
Q 2531 2678 2651 2914 
Q 2772 3150 2772 3378 
Q 2772 3750 2511 3984 
Q 2250 4219 1831 4219 
Q 1534 4219 1204 4116 
Q 875 4013 500 3803 
L 500 4441 
Q 881 4594 1212 4672 
Q 1544 4750 1819 4750 
Q 2544 4750 2975 4387 
Q 3406 4025 3406 3419 
Q 3406 3131 3298 2873 
Q 3191 2616 2906 2266 
Q 2828 2175 2409 1742 
Q 1991 1309 1228 531 
z
" transform="scale(0.015625)"/>
        <path id="DejaVuSans-30" d="M 2034 4250 
Q 1547 4250 1301 3770 
Q 1056 3291 1056 2328 
Q 1056 1369 1301 889 
Q 1547 409 2034 409 
Q 2525 409 2770 889 
Q 3016 1369 3016 2328 
Q 3016 3291 2770 3770 
Q 2525 4250 2034 4250 
z
M 2034 4750 
Q 2819 4750 3233 4129 
Q 3647 3509 3647 2328 
Q 3647 1150 3233 529 
Q 2819 -91 2034 -91 
Q 1250 -91 836 529 
Q 422 1150 422 2328 
Q 422 3509 836 4129 
Q 1250 4750 2034 4750 
z
" transform="scale(0.015625)"/>
        <path id="DejaVuSans-31" d="M 794 531 
L 1825 531 
L 1825 4091 
L 703 3866 
L 703 4441 
L 1819 4666 
L 2450 4666 
L 2450 531 
L 3481 531 
L 3481 0 
L 794 0 
L 794 531 
z
" transform="scale(0.015625)"/>
       </defs>
       <use xlink:href="#DejaVuSans-32"/>
       <use xlink:href="#DejaVuSans-30" transform="translate(63.623047 0)"/>
       <use xlink:href="#DejaVuSans-31" transform="translate(127.246094 0)"/>
       <use xlink:href="#DejaVuSans-32" transform="translate(190.869141 0)"/>
      </g>
     </g>
    </g>
    <g id="xtick_2">
     <g id="line2d_3">
      <path d="M 266.576066 384.48 
L 266.576066 51.84 
" clip-path="url(#pcb97860b3d)" style="fill: none; stroke-dasharray: 2.96,1.28; stroke-dashoffset: 0; stroke: #b0b0b0; stroke-opacity: 0.5; stroke-width: 0.8"/>
     </g>
     <g id="line2d_4">
      <g>
       <use xlink:href="#md46888bcf7" x="266.576066" y="384.48" style="stroke: #000000; stroke-width: 0.8"/>
      </g>
     </g>
     <g id="text_2">
      <!-- 2014 -->
      <g transform="translate(253.851066 399.078438) scale(0.1 -0.1)">
       <defs>
        <path id="DejaVuSans-34" d="M 2419 4116 
L 825 1625 
L 2419 1625 
L 2419 4116 
z
M 2253 4666 
L 3047 4666 
L 3047 1625 
L 3713 1625 
L 3713 1100 
L 3047 1100 
L 3047 0 
L 2419 0 
L 2419 1100 
L 313 1100 
L 313 1709 
L 2253 4666 
z
" transform="scale(0.015625)"/>
       </defs>
       <use xlink:href="#DejaVuSans-32"/>
       <use xlink:href="#DejaVuSans-30" transform="translate(63.623047 0)"/>
       <use xlink:href="#DejaVuSans-31" transform="translate(127.246094 0)"/>
       <use xlink:href="#DejaVuSans-34" transform="translate(190.869141 0)"/>
      </g>
     </g>
    </g>
    <g id="xtick_3">
     <g id="line2d_5">
      <path d="M 359.560144 384.48 
L 359.560144 51.84 
" clip-path="url(#pcb97860b3d)" style="fill: none; stroke-dasharray: 2.96,1.28; stroke-dashoffset: 0; stroke: #b0b0b0; stroke-opacity: 0.5; stroke-width: 0.8"/>
     </g>
     <g id="line2d_6">
      <g>
       <use xlink:href="#md46888bcf7" x="359.560144" y="384.48" style="stroke: #000000; stroke-width: 0.8"/>
      </g>
     </g>
     <g id="text_3">
      <!-- 2016 -->
      <g transform="translate(346.835144 399.078438) scale(0.1 -0.1)">
       <defs>
        <path id="DejaVuSans-36" d="M 2113 2584 
Q 1688 2584 1439 2293 
Q 1191 2003 1191 1497 
Q 1191 994 1439 701 
Q 1688 409 2113 409 
Q 2538 409 2786 701 
Q 3034 994 3034 1497 
Q 3034 2003 2786 2293 
Q 2538 2584 2113 2584 
z
M 3366 4563 
L 3366 3988 
Q 3128 4100 2886 4159 
Q 2644 4219 2406 4219 
Q 1781 4219 1451 3797 
Q 1122 3375 1075 2522 
Q 1259 2794 1537 2939 
Q 1816 3084 2150 3084 
Q 2853 3084 3261 2657 
Q 3669 2231 3669 1497 
Q 3669 778 3244 343 
Q 2819 -91 2113 -91 
Q 1303 -91 875 529 
Q 447 1150 447 2328 
Q 447 3434 972 4092 
Q 1497 4750 2381 4750 
Q 2619 4750 2861 4703 
Q 3103 4656 3366 4563 
z
" transform="scale(0.015625)"/>
       </defs>
       <use xlink:href="#DejaVuSans-32"/>
       <use xlink:href="#DejaVuSans-30" transform="translate(63.623047 0)"/>
       <use xlink:href="#DejaVuSans-31" transform="translate(127.246094 0)"/>
       <use xlink:href="#DejaVuSans-36" transform="translate(190.869141 0)"/>
      </g>
     </g>
    </g>
    <g id="xtick_4">
     <g id="line2d_7">
      <path d="M 452.671597 384.48 
L 452.671597 51.84 
" clip-path="url(#pcb97860b3d)" style="fill: none; stroke-dasharray: 2.96,1.28; stroke-dashoffset: 0; stroke: #b0b0b0; stroke-opacity: 0.5; stroke-width: 0.8"/>
     </g>
     <g id="line2d_8">
      <g>
       <use xlink:href="#md46888bcf7" x="452.671597" y="384.48" style="stroke: #000000; stroke-width: 0.8"/>
      </g>
     </g>
     <g id="text_4">
      <!-- 2018 -->
      <g transform="translate(439.946597 399.078438) scale(0.1 -0.1)">
       <defs>
        <path id="DejaVuSans-38" d="M 2034 2216 
Q 1584 2216 1326 1975 
Q 1069 1734 1069 1313 
Q 1069 891 1326 650 
Q 1584 409 2034 409 
Q 2484 409 2743 651 
Q 3003 894 3003 1313 
Q 3003 1734 2745 1975 
Q 2488 2216 2034 2216 
z
M 1403 2484 
Q 997 2584 770 2862 
Q 544 3141 544 3541 
Q 544 4100 942 4425 
Q 1341 4750 2034 4750 
Q 2731 4750 3128 4425 
Q 3525 4100 3525 3541 
Q 3525 3141 3298 2862 
Q 3072 2584 2669 2484 
Q 3125 2378 3379 2068 
Q 3634 1759 3634 1313 
Q 3634 634 3220 271 
Q 2806 -91 2034 -91 
Q 1263 -91 848 271 
Q 434 634 434 1313 
Q 434 1759 690 2068 
Q 947 2378 1403 2484 
z
M 1172 3481 
Q 1172 3119 1398 2916 
Q 1625 2713 2034 2713 
Q 2441 2713 2670 2916 
Q 2900 3119 2900 3481 
Q 2900 3844 2670 4047 
Q 2441 4250 2034 4250 
Q 1625 4250 1398 4047 
Q 1172 3844 1172 3481 
z
" transform="scale(0.015625)"/>
       </defs>
       <use xlink:href="#DejaVuSans-32"/>
       <use xlink:href="#DejaVuSans-30" transform="translate(63.623047 0)"/>
       <use xlink:href="#DejaVuSans-31" transform="translate(127.246094 0)"/>
       <use xlink:href="#DejaVuSans-38" transform="translate(190.869141 0)"/>
      </g>
     </g>
    </g>
    <g id="xtick_5">
     <g id="line2d_9">
      <path d="M 545.655675 384.48 
L 545.655675 51.84 
" clip-path="url(#pcb97860b3d)" style="fill: none; stroke-dasharray: 2.96,1.28; stroke-dashoffset: 0; stroke: #b0b0b0; stroke-opacity: 0.5; stroke-width: 0.8"/>
     </g>
     <g id="line2d_10">
      <g>
       <use xlink:href="#md46888bcf7" x="545.655675" y="384.48" style="stroke: #000000; stroke-width: 0.8"/>
      </g>
     </g>
     <g id="text_5">
      <!-- 2020 -->
      <g transform="translate(532.930675 399.078438) scale(0.1 -0.1)">
       <use xlink:href="#DejaVuSans-32"/>
       <use xlink:href="#DejaVuSans-30" transform="translate(63.623047 0)"/>
       <use xlink:href="#DejaVuSans-32" transform="translate(127.246094 0)"/>
       <use xlink:href="#DejaVuSans-30" transform="translate(190.869141 0)"/>
      </g>
     </g>
    </g>
    <g id="xtick_6">
     <g id="line2d_11">
      <path d="M 638.767129 384.48 
L 638.767129 51.84 
" clip-path="url(#pcb97860b3d)" style="fill: none; stroke-dasharray: 2.96,1.28; stroke-dashoffset: 0; stroke: #b0b0b0; stroke-opacity: 0.5; stroke-width: 0.8"/>
     </g>
     <g id="line2d_12">
      <g>
       <use xlink:href="#md46888bcf7" x="638.767129" y="384.48" style="stroke: #000000; stroke-width: 0.8"/>
      </g>
     </g>
     <g id="text_6">
      <!-- 2022 -->
      <g transform="translate(626.042129 399.078438) scale(0.1 -0.1)">
       <use xlink:href="#DejaVuSans-32"/>
       <use xlink:href="#DejaVuSans-30" transform="translate(63.623047 0)"/>
       <use xlink:href="#DejaVuSans-32" transform="translate(127.246094 0)"/>
       <use xlink:href="#DejaVuSans-32" transform="translate(190.869141 0)"/>
      </g>
     </g>
    </g>
    <g id="xtick_7">
     <g id="line2d_13">
      <path d="M 731.751207 384.48 
L 731.751207 51.84 
" clip-path="url(#pcb97860b3d)" style="fill: none; stroke-dasharray: 2.96,1.28; stroke-dashoffset: 0; stroke: #b0b0b0; stroke-opacity: 0.5; stroke-width: 0.8"/>
     </g>
     <g id="line2d_14">
      <g>
       <use xlink:href="#md46888bcf7" x="731.751207" y="384.48" style="stroke: #000000; stroke-width: 0.8"/>
      </g>
     </g>
     <g id="text_7">
      <!-- 2024 -->
      <g transform="translate(719.026207 399.078438) scale(0.1 -0.1)">
       <use xlink:href="#DejaVuSans-32"/>
       <use xlink:href="#DejaVuSans-30" transform="translate(63.623047 0)"/>
       <use xlink:href="#DejaVuSans-32" transform="translate(127.246094 0)"/>
       <use xlink:href="#DejaVuSans-34" transform="translate(190.869141 0)"/>
      </g>
     </g>
    </g>
   </g>
   <g id="matplotlib.axis_2">
    <g id="ytick_1">
     <g id="line2d_15">
      <path d="M 108 369.36 
L 777.6 369.36 
" clip-path="url(#pcb97860b3d)" style="fill: none; stroke-dasharray: 2.96,1.28; stroke-dashoffset: 0; stroke: #b0b0b0; stroke-opacity: 0.5; stroke-width: 0.8"/>
     </g>
     <g id="line2d_16">
      <defs>
       <path id="me33be13363" d="M 0 0 
L -3.5 0 
" style="stroke: #000000; stroke-width: 0.8"/>
      </defs>
      <g>
       <use xlink:href="#me33be13363" x="108" y="369.36" style="stroke: #000000; stroke-width: 0.8"/>
      </g>
     </g>
     <g id="text_8">
      <!-- 0.00 -->
      <g transform="translate(78.734375 373.159219) scale(0.1 -0.1)">
       <defs>
        <path id="DejaVuSans-2e" d="M 684 794 
L 1344 794 
L 1344 0 
L 684 0 
L 684 794 
z
" transform="scale(0.015625)"/>
       </defs>
       <use xlink:href="#DejaVuSans-30"/>
       <use xlink:href="#DejaVuSans-2e" transform="translate(63.623047 0)"/>
       <use xlink:href="#DejaVuSans-30" transform="translate(95.410156 0)"/>
       <use xlink:href="#DejaVuSans-30" transform="translate(159.033203 0)"/>
      </g>
     </g>
    </g>
    <g id="ytick_2">
     <g id="line2d_17">
      <path d="M 108 323.459441 
L 777.6 323.459441 
" clip-path="url(#pcb97860b3d)" style="fill: none; stroke-dasharray: 2.96,1.28; stroke-dashoffset: 0; stroke: #b0b0b0; stroke-opacity: 0.5; stroke-width: 0.8"/>
     </g>
     <g id="line2d_18">
      <g>
       <use xlink:href="#me33be13363" x="108" y="323.459441" style="stroke: #000000; stroke-width: 0.8"/>
      </g>
     </g>
     <g id="text_9">
      <!-- 0.25 -->
      <g transform="translate(78.734375 327.25866) scale(0.1 -0.1)">
       <defs>
        <path id="DejaVuSans-35" d="M 691 4666 
L 3169 4666 
L 3169 4134 
L 1269 4134 
L 1269 2991 
Q 1406 3038 1543 3061 
Q 1681 3084 1819 3084 
Q 2600 3084 3056 2656 
Q 3513 2228 3513 1497 
Q 3513 744 3044 326 
Q 2575 -91 1722 -91 
Q 1428 -91 1123 -41 
Q 819 9 494 109 
L 494 744 
Q 775 591 1075 516 
Q 1375 441 1709 441 
Q 2250 441 2565 725 
Q 2881 1009 2881 1497 
Q 2881 1984 2565 2268 
Q 2250 2553 1709 2553 
Q 1456 2553 1204 2497 
Q 953 2441 691 2322 
L 691 4666 
z
" transform="scale(0.015625)"/>
       </defs>
       <use xlink:href="#DejaVuSans-30"/>
       <use xlink:href="#DejaVuSans-2e" transform="translate(63.623047 0)"/>
       <use xlink:href="#DejaVuSans-32" transform="translate(95.410156 0)"/>
       <use xlink:href="#DejaVuSans-35" transform="translate(159.033203 0)"/>
      </g>
     </g>
    </g>
    <g id="ytick_3">
     <g id="line2d_19">
      <path d="M 108 277.558882 
L 777.6 277.558882 
" clip-path="url(#pcb97860b3d)" style="fill: none; stroke-dasharray: 2.96,1.28; stroke-dashoffset: 0; stroke: #b0b0b0; stroke-opacity: 0.5; stroke-width: 0.8"/>
     </g>
     <g id="line2d_20">
      <g>
       <use xlink:href="#me33be13363" x="108" y="277.558882" style="stroke: #000000; stroke-width: 0.8"/>
      </g>
     </g>
     <g id="text_10">
      <!-- 0.50 -->
      <g transform="translate(78.734375 281.358101) scale(0.1 -0.1)">
       <use xlink:href="#DejaVuSans-30"/>
       <use xlink:href="#DejaVuSans-2e" transform="translate(63.623047 0)"/>
       <use xlink:href="#DejaVuSans-35" transform="translate(95.410156 0)"/>
       <use xlink:href="#DejaVuSans-30" transform="translate(159.033203 0)"/>
      </g>
     </g>
    </g>
    <g id="ytick_4">
     <g id="line2d_21">
      <path d="M 108 231.658323 
L 777.6 231.658323 
" clip-path="url(#pcb97860b3d)" style="fill: none; stroke-dasharray: 2.96,1.28; stroke-dashoffset: 0; stroke: #b0b0b0; stroke-opacity: 0.5; stroke-width: 0.8"/>
     </g>
     <g id="line2d_22">
      <g>
       <use xlink:href="#me33be13363" x="108" y="231.658323" style="stroke: #000000; stroke-width: 0.8"/>
      </g>
     </g>
     <g id="text_11">
      <!-- 0.75 -->
      <g transform="translate(78.734375 235.457542) scale(0.1 -0.1)">
       <defs>
        <path id="DejaVuSans-37" d="M 525 4666 
L 3525 4666 
L 3525 4397 
L 1831 0 
L 1172 0 
L 2766 4134 
L 525 4134 
L 525 4666 
z
" transform="scale(0.015625)"/>
       </defs>
       <use xlink:href="#DejaVuSans-30"/>
       <use xlink:href="#DejaVuSans-2e" transform="translate(63.623047 0)"/>
       <use xlink:href="#DejaVuSans-37" transform="translate(95.410156 0)"/>
       <use xlink:href="#DejaVuSans-35" transform="translate(159.033203 0)"/>
      </g>
     </g>
    </g>
    <g id="ytick_5">
     <g id="line2d_23">
      <path d="M 108 185.757764 
L 777.6 185.757764 
" clip-path="url(#pcb97860b3d)" style="fill: none; stroke-dasharray: 2.96,1.28; stroke-dashoffset: 0; stroke: #b0b0b0; stroke-opacity: 0.5; stroke-width: 0.8"/>
     </g>
     <g id="line2d_24">
      <g>
       <use xlink:href="#me33be13363" x="108" y="185.757764" style="stroke: #000000; stroke-width: 0.8"/>
      </g>
     </g>
     <g id="text_12">
      <!-- 1.00 -->
      <g transform="translate(78.734375 189.556983) scale(0.1 -0.1)">
       <use xlink:href="#DejaVuSans-31"/>
       <use xlink:href="#DejaVuSans-2e" transform="translate(63.623047 0)"/>
       <use xlink:href="#DejaVuSans-30" transform="translate(95.410156 0)"/>
       <use xlink:href="#DejaVuSans-30" transform="translate(159.033203 0)"/>
      </g>
     </g>
    </g>
    <g id="ytick_6">
     <g id="line2d_25">
      <path d="M 108 139.857205 
L 777.6 139.857205 
" clip-path="url(#pcb97860b3d)" style="fill: none; stroke-dasharray: 2.96,1.28; stroke-dashoffset: 0; stroke: #b0b0b0; stroke-opacity: 0.5; stroke-width: 0.8"/>
     </g>
     <g id="line2d_26">
      <g>
       <use xlink:href="#me33be13363" x="108" y="139.857205" style="stroke: #000000; stroke-width: 0.8"/>
      </g>
     </g>
     <g id="text_13">
      <!-- 1.25 -->
      <g transform="translate(78.734375 143.656424) scale(0.1 -0.1)">
       <use xlink:href="#DejaVuSans-31"/>
       <use xlink:href="#DejaVuSans-2e" transform="translate(63.623047 0)"/>
       <use xlink:href="#DejaVuSans-32" transform="translate(95.410156 0)"/>
       <use xlink:href="#DejaVuSans-35" transform="translate(159.033203 0)"/>
      </g>
     </g>
    </g>
    <g id="ytick_7">
     <g id="line2d_27">
      <path d="M 108 93.956646 
L 777.6 93.956646 
" clip-path="url(#pcb97860b3d)" style="fill: none; stroke-dasharray: 2.96,1.28; stroke-dashoffset: 0; stroke: #b0b0b0; stroke-opacity: 0.5; stroke-width: 0.8"/>
     </g>
     <g id="line2d_28">
      <g>
       <use xlink:href="#me33be13363" x="108" y="93.956646" style="stroke: #000000; stroke-width: 0.8"/>
      </g>
     </g>
     <g id="text_14">
      <!-- 1.50 -->
      <g transform="translate(78.734375 97.755865) scale(0.1 -0.1)">
       <use xlink:href="#DejaVuSans-31"/>
       <use xlink:href="#DejaVuSans-2e" transform="translate(63.623047 0)"/>
       <use xlink:href="#DejaVuSans-35" transform="translate(95.410156 0)"/>
       <use xlink:href="#DejaVuSans-30" transform="translate(159.033203 0)"/>
      </g>
     </g>
    </g>
    <g id="text_15">
     <!-- 1e7 -->
     <g transform="translate(108 48.84) scale(0.1 -0.1)">
      <defs>
       <path id="DejaVuSans-65" d="M 3597 1894 
L 3597 1613 
L 953 1613 
Q 991 1019 1311 708 
Q 1631 397 2203 397 
Q 2534 397 2845 478 
Q 3156 559 3463 722 
L 3463 178 
Q 3153 47 2828 -22 
Q 2503 -91 2169 -91 
Q 1331 -91 842 396 
Q 353 884 353 1716 
Q 353 2575 817 3079 
Q 1281 3584 2069 3584 
Q 2775 3584 3186 3129 
Q 3597 2675 3597 1894 
z
M 3022 2063 
Q 3016 2534 2758 2815 
Q 2500 3097 2075 3097 
Q 1594 3097 1305 2825 
Q 1016 2553 972 2059 
L 3022 2063 
z
" transform="scale(0.015625)"/>
      </defs>
      <use xlink:href="#DejaVuSans-31"/>
      <use xlink:href="#DejaVuSans-65" transform="translate(63.623047 0)"/>
      <use xlink:href="#DejaVuSans-37" transform="translate(125.146484 0)"/>
     </g>
    </g>
   </g>
   <g id="line2d_29">
    <path d="M 138.436364 369.072883 
L 317.016744 369.039779 
L 437.131793 369.0382 
L 456.620236 369.019418 
L 747.163636 368.993255 
L 747.163636 368.993255 
" clip-path="url(#pcb97860b3d)" style="fill: none; stroke: #a6cee3; stroke-width: 1.5; stroke-linecap: square"/>
   </g>
   <g id="line2d_30">
    <path d="M 138.436364 262.779306 
L 150.02753 255.084683 
L 161.746071 250.960848 
L 173.464612 245.197336 
L 185.055778 243.07785 
L 196.646944 240.413377 
L 220.084027 236.446578 
L 224.032666 234.927581 
L 227.599178 233.408585 
L 231.547817 231.889589 
L 243.138983 229.33704 
L 254.857524 224.064884 
L 266.576066 233.411578 
L 278.039856 235.592478 
L 289.631022 236.937144 
L 301.349563 237.504567 
L 317.016744 239.980107 
L 324.531895 241.280586 
L 336.123061 244.805437 
L 347.841602 247.08238 
L 371.15131 247.563509 
L 382.742476 246.681521 
L 394.461017 248.016989 
L 413.69471 249.282938 
L 429.234515 250.002665 
L 440.953056 249.806303 
L 452.671597 249.100921 
L 464.135388 248.062706 
L 475.726554 248.568218 
L 491.393734 253.996662 
L 499.163636 256.548856 
L 510.627427 258.563744 
L 522.218593 259.339206 
L 537.885773 261.645887 
L 545.655675 262.682456 
L 561.068105 267.759027 
L 568.838007 269.989072 
L 580.556549 276.062322 
L 592.27509 279.550067 
L 615.330046 283.402941 
L 627.048588 279.18367 
L 638.767129 277.538704 
L 658.000822 273.107532 
L 673.540627 269.552301 
L 696.722958 264.611197 
L 716.211402 260.0599 
L 731.751207 256.10755 
L 735.699846 253.59439 
L 739.393734 251.08123 
L 743.342373 248.568071 
L 747.163636 244.922501 
L 747.163636 244.922501 
" clip-path="url(#pcb97860b3d)" style="fill: none; stroke: #1f78b4; stroke-width: 1.5; stroke-linecap: square"/>
   </g>
   <g id="line2d_31">
    <path d="M 138.436364 218.026335 
L 150.02753 218.60571 
L 165.69471 218.760603 
L 181.107139 218.46925 
L 196.646944 218.035662 
L 208.365485 221.082761 
L 220.084027 218.576297 
L 231.547817 218.303739 
L 247.087622 222.383613 
L 254.857524 224.378293 
L 258.806163 213.615028 
L 262.627427 202.851763 
L 266.576066 192.088498 
L 270.524705 182.008692 
L 274.091217 171.928887 
L 278.039856 161.849081 
L 289.631022 161.608434 
L 301.349563 171.384977 
L 313.068105 162.307003 
L 336.123061 163.245229 
L 347.841602 164.913825 
L 359.560144 164.836087 
L 371.15131 163.148232 
L 390.639753 162.175942 
L 394.461017 162.001985 
L 398.409656 152.607897 
L 402.230919 143.213809 
L 406.179558 133.819721 
L 410.128197 135.846384 
L 413.69471 137.873046 
L 417.643349 139.899709 
L 429.234515 146.848944 
L 440.953056 150.051774 
L 444.901695 187.864673 
L 448.722958 225.677572 
L 452.671597 263.490471 
L 464.135388 263.07329 
L 475.726554 262.184692 
L 499.163636 257.174113 
L 503.112275 255.959597 
L 506.678788 254.74508 
L 510.627427 253.530564 
L 522.218593 248.584356 
L 545.655675 243.653204 
L 557.246841 243.018932 
L 568.838007 240.0808 
L 580.556549 236.256366 
L 592.27509 231.24979 
L 596.223729 228.454531 
L 599.790241 225.659273 
L 603.73888 222.864015 
L 615.330046 220.970543 
L 627.048588 220.975225 
L 650.230919 219.955774 
L 661.822085 217.98014 
L 673.540627 214.580359 
L 677.489266 189.211738 
L 681.310529 163.843118 
L 685.259168 138.474497 
L 689.207807 133.546962 
L 692.774319 128.619426 
L 696.722958 123.691891 
L 700.544222 150.276522 
L 704.492861 176.861153 
L 708.314124 203.445783 
L 716.211402 133.850217 
L 720.032666 99.052435 
L 731.751207 86.376004 
L 735.699846 81.504051 
L 739.393734 76.632098 
L 747.163636 66.96 
L 747.163636 66.96 
" clip-path="url(#pcb97860b3d)" style="fill: none; stroke: #b2df8a; stroke-width: 1.5; stroke-linecap: square"/>
   </g>
   <g id="line2d_32">
    <path d="M 138.436364 315.541411 
L 150.02753 313.336458 
L 161.746071 314.360316 
L 173.464612 312.859423 
L 185.055778 311.754266 
L 196.646944 311.794291 
L 208.365485 311.271906 
L 220.084027 317.807595 
L 247.087622 318.639638 
L 258.806163 318.677845 
L 270.524705 318.42363 
L 293.579661 317.457068 
L 305.298202 316.782207 
L 313.068105 316.202563 
L 324.531895 317.122061 
L 336.123061 313.996398 
L 355.611505 312.283402 
L 359.560144 311.980941 
L 371.15131 310.530392 
L 382.742476 308.826251 
L 398.409656 307.528948 
L 417.643349 306.341801 
L 448.722958 305.734077 
L 467.956651 305.579992 
L 479.675193 305.305574 
L 487.445095 305.202255 
L 503.112275 304.519861 
L 518.397329 304.21442 
L 522.218593 304.151353 
L 537.885773 301.99481 
L 545.655675 301.111487 
L 557.246841 300.986013 
L 568.838007 301.665415 
L 584.505187 301.51775 
L 592.27509 301.345653 
L 603.73888 300.363822 
L 615.330046 298.60763 
L 630.997227 295.196857 
L 638.767129 293.650755 
L 650.230919 290.664979 
L 661.822085 288.955605 
L 673.540627 287.523783 
L 692.774319 284.526538 
L 696.722958 283.965829 
L 708.314124 283.219009 
L 720.032666 284.433152 
L 731.751207 284.949808 
L 743.342373 284.800026 
L 747.163636 284.360347 
L 747.163636 284.360347 
" clip-path="url(#pcb97860b3d)" style="fill: none; stroke: #33a02c; stroke-width: 1.5; stroke-linecap: square"/>
   </g>
   <g id="line2d_33">
    <path d="M 138.436364 348.984063 
L 150.02753 347.831353 
L 161.746071 346.938403 
L 173.464612 345.325604 
L 185.055778 343.402867 
L 196.646944 342.099585 
L 208.365485 340.327658 
L 220.084027 342.4324 
L 254.857524 340.430126 
L 266.576066 340.708173 
L 278.039856 341.434357 
L 320.583256 342.269355 
L 340.0717 342.226943 
L 347.841602 342.138398 
L 359.560144 342.36052 
L 374.972573 342.193411 
L 394.461017 342.296204 
L 406.179558 346.02568 
L 433.183154 346.839527 
L 444.901695 347.213146 
L 452.671597 347.372512 
L 464.135388 347.291415 
L 475.726554 346.780726 
L 491.393734 344.941423 
L 514.44869 342.601645 
L 522.218593 341.886037 
L 533.937134 341.285235 
L 545.655675 341.126346 
L 561.068105 341.524677 
L 592.27509 341.800313 
L 607.560144 341.553723 
L 627.048588 340.951024 
L 642.715768 340.271788 
L 658.000822 339.321181 
L 661.822085 339.09363 
L 685.259168 336.084188 
L 704.492861 333.277705 
L 720.032666 331.064044 
L 747.163636 329.193008 
L 747.163636 329.193008 
" clip-path="url(#pcb97860b3d)" style="fill: none; stroke: #fb9a99; stroke-width: 1.5; stroke-linecap: square"/>
   </g>
   <g id="line2d_34">
    <path d="M 138.436364 369.047601 
L 227.599178 368.871024 
L 289.631022 368.612684 
L 471.90529 367.869468 
L 483.623832 367.746516 
L 646.28228 366.604296 
L 665.770724 366.449182 
L 677.489266 366.475058 
L 747.163636 365.589844 
L 747.163636 365.589844 
" clip-path="url(#pcb97860b3d)" style="fill: none; stroke: #e31a1c; stroke-width: 1.5; stroke-linecap: square"/>
   </g>
   <g id="line2d_35">
    <path d="M 138.436364 365.706701 
L 157.924807 365.195748 
L 173.464612 364.865234 
L 185.055778 364.996601 
L 204.544222 364.524615 
L 208.365485 364.457214 
L 220.084027 364.586581 
L 224.032666 366.17772 
L 227.599178 367.76886 
L 231.547817 369.36 
L 747.163636 369.36 
L 747.163636 369.36 
" clip-path="url(#pcb97860b3d)" style="fill: none; stroke: #fdbf6f; stroke-width: 1.5; stroke-linecap: square"/>
   </g>
   <g id="line2d_36">
    <path d="M 138.436364 362.435791 
L 165.69471 362.74543 
L 185.055778 362.77237 
L 235.369081 362.395673 
L 278.039856 362.309784 
L 293.579661 361.682311 
L 324.531895 361.016729 
L 336.123061 347.916544 
L 347.841602 345.801777 
L 359.560144 344.520527 
L 371.15131 342.052105 
L 394.461017 335.545866 
L 406.179558 334.391559 
L 417.643349 334.791316 
L 429.234515 338.838992 
L 440.953056 334.368994 
L 456.620236 334.686247 
L 475.726554 334.649098 
L 487.445095 333.91412 
L 510.627427 333.909071 
L 522.218593 333.881016 
L 533.937134 333.474319 
L 545.655675 333.845324 
L 561.068105 335.490828 
L 576.735285 337.392641 
L 580.556549 337.885307 
L 592.27509 336.407309 
L 596.223729 337.643607 
L 599.790241 338.879905 
L 603.73888 340.116203 
L 615.330046 340.996961 
L 627.048588 341.518465 
L 638.767129 342.480541 
L 650.230919 342.40284 
L 681.310529 343.547704 
L 689.207807 343.991453 
L 696.722958 344.5327 
L 708.314124 344.504113 
L 735.699846 345.180791 
L 747.163636 345.36593 
L 747.163636 345.36593 
" clip-path="url(#pcb97860b3d)" style="fill: none; stroke: #ff7f00; stroke-width: 1.5; stroke-linecap: square"/>
   </g>
   <g id="line2d_37">
    <path d="M 138.436364 369.339051 
L 410.128197 369.242684 
L 417.643349 369.131213 
L 433.183154 369.36 
L 592.27509 369.36 
L 603.73888 368.478636 
L 615.330046 369.289625 
L 634.81849 369.321419 
L 642.715768 369.301823 
L 658.000822 369.192689 
L 747.163636 369.180455 
L 747.163636 369.180455 
" clip-path="url(#pcb97860b3d)" style="fill: none; stroke: #cab2d6; stroke-width: 1.5; stroke-linecap: square"/>
   </g>
   <g id="line2d_38">
    <path d="M 138.436364 361.811488 
L 150.02753 361.271422 
L 200.595583 360.716478 
L 208.365485 360.371257 
L 220.084027 361.908081 
L 235.369081 362.267329 
L 247.087622 362.17827 
L 254.857524 361.981228 
L 270.524705 362.17499 
L 281.86112 362.151733 
L 293.579661 362.171575 
L 305.298202 362.103036 
L 313.068105 362.188093 
L 328.353159 361.916661 
L 344.020339 361.781016 
L 371.15131 361.48328 
L 386.691115 361.33777 
L 398.409656 361.011986 
L 410.128197 360.605747 
L 429.234515 360.160537 
L 444.901695 359.707951 
L 467.956651 359.298004 
L 483.623832 358.917825 
L 495.214997 358.806574 
L 518.397329 358.780129 
L 522.218593 358.794866 
L 533.937134 353.107787 
L 549.604314 353.591763 
L 557.246841 353.695535 
L 568.838007 354.800067 
L 580.556549 355.161819 
L 592.27509 354.526463 
L 603.73888 354.477056 
L 627.048588 355.498435 
L 638.767129 354.823715 
L 650.230919 356.002111 
L 665.770724 356.420963 
L 677.489266 356.882282 
L 696.722958 357.374428 
L 716.211402 357.476982 
L 720.032666 357.468377 
L 731.751207 358.315573 
L 743.342373 357.455543 
L 747.163636 357.445794 
L 747.163636 357.445794 
" clip-path="url(#pcb97860b3d)" style="fill: none; stroke: #6a3d9a; stroke-width: 1.5; stroke-linecap: square"/>
   </g>
   <g id="line2d_39">
    <path d="M 138.436364 368.971828 
L 278.039856 368.577138 
L 363.508783 368.13265 
L 378.921212 367.747648 
L 390.639753 367.471161 
L 402.230919 367.316672 
L 421.464612 367.018741 
L 448.722958 366.588084 
L 522.218593 365.517627 
L 533.937134 366.711776 
L 561.068105 366.235782 
L 592.27509 365.943658 
L 615.330046 365.682484 
L 650.230919 365.181176 
L 661.822085 361.511041 
L 677.489266 360.525838 
L 685.259168 360.135622 
L 704.492861 359.766379 
L 712.262763 359.72606 
L 735.699846 359.675937 
L 747.163636 359.6123 
L 747.163636 359.6123 
" clip-path="url(#pcb97860b3d)" style="fill: none; stroke: #ffff99; stroke-width: 1.5; stroke-linecap: square"/>
   </g>
   <g id="line2d_40">
    <path d="M 138.436364 367.86276 
L 161.746071 368.043205 
L 212.314124 368.068083 
L 235.369081 367.726668 
L 254.857524 367.439355 
L 278.039856 367.150549 
L 293.579661 366.795389 
L 344.020339 366.312943 
L 359.560144 366.202501 
L 406.179558 365.348181 
L 417.643349 362.619154 
L 433.183154 362.895592 
L 444.901695 363.182715 
L 456.620236 363.27563 
L 471.90529 363.15056 
L 506.678788 362.566411 
L 518.397329 362.270891 
L 541.707036 361.660499 
L 549.604314 361.604929 
L 568.838007 361.63299 
L 592.27509 361.116664 
L 627.048588 359.413716 
L 638.767129 358.704277 
L 654.052183 357.293061 
L 665.770724 356.476705 
L 692.774319 354.176383 
L 708.314124 352.733477 
L 735.699846 349.620379 
L 747.163636 348.078408 
L 747.163636 348.078408 
" clip-path="url(#pcb97860b3d)" style="fill: none; stroke: #b15928; stroke-width: 1.5; stroke-linecap: square"/>
   </g>
   <g id="line2d_41">
    <path d="M 138.436364 368.909073 
L 169.515973 368.9499 
L 347.841602 368.95736 
L 359.560144 368.545981 
L 371.15131 368.903932 
L 421.464612 368.756928 
L 522.218593 368.786555 
L 603.73888 368.693322 
L 634.81849 368.487938 
L 712.262763 368.444363 
L 720.032666 368.438978 
L 731.751207 367.841077 
L 747.163636 367.786927 
L 747.163636 367.786927 
" clip-path="url(#pcb97860b3d)" style="fill: none; stroke: #a6cee3; stroke-width: 1.5; stroke-linecap: square"/>
   </g>
   <g id="line2d_42">
    <path d="M 138.436364 335.340874 
L 161.746071 332.726268 
L 173.464612 342.634693 
L 196.646944 340.553011 
L 208.365485 342.44775 
L 220.084027 341.573766 
L 224.032666 339.635747 
L 227.599178 337.697727 
L 231.547817 335.759708 
L 243.138983 335.285188 
L 254.857524 336.956409 
L 266.576066 335.983519 
L 293.579661 332.990288 
L 301.349563 332.373862 
L 324.531895 329.766986 
L 336.123061 333.051868 
L 347.841602 333.957652 
L 359.560144 331.999001 
L 371.15131 330.744961 
L 382.742476 332.288157 
L 394.461017 331.358321 
L 417.643349 328.552989 
L 429.234515 329.372333 
L 440.953056 328.851049 
L 452.671597 330.546579 
L 464.135388 330.31245 
L 475.726554 330.858354 
L 487.445095 330.373626 
L 499.163636 330.678552 
L 518.397329 329.746551 
L 522.218593 329.537575 
L 533.937134 329.754519 
L 545.655675 333.209271 
L 561.068105 333.271744 
L 580.556549 332.932123 
L 599.790241 332.341187 
L 603.73888 332.197806 
L 615.330046 330.5038 
L 627.048588 329.193119 
L 638.767129 328.508925 
L 650.230919 326.784753 
L 661.822085 324.727251 
L 681.310529 322.408716 
L 685.259168 321.975366 
L 700.544222 318.397833 
L 712.262763 316.2847 
L 720.032666 315.001382 
L 731.751207 313.54325 
L 747.163636 310.402525 
L 747.163636 310.402525 
" clip-path="url(#pcb97860b3d)" style="fill: none; stroke: #1f78b4; stroke-width: 1.5; stroke-linecap: square"/>
   </g>
   <g id="line2d_43">
    <path d="M 138.436364 356.489979 
L 169.515973 355.697338 
L 181.107139 355.696077 
L 188.877042 355.615677 
L 235.369081 354.469797 
L 243.138983 354.056974 
L 254.857524 353.852772 
L 270.524705 354.259077 
L 281.86112 354.689704 
L 309.119466 355.405447 
L 320.583256 355.468184 
L 328.353159 355.400771 
L 390.639753 354.383553 
L 406.179558 354.190545 
L 417.643349 357.71165 
L 433.183154 357.00622 
L 452.671597 356.317466 
L 475.726554 354.9634 
L 499.163636 353.587264 
L 530.115871 351.876275 
L 533.937134 351.683107 
L 545.655675 351.42913 
L 565.016744 351.923339 
L 572.786646 352.113875 
L 584.505187 352.392675 
L 592.27509 352.689266 
L 615.330046 352.764855 
L 627.048588 369.36 
L 747.163636 369.36 
L 747.163636 369.36 
" clip-path="url(#pcb97860b3d)" style="fill: none; stroke: #b2df8a; stroke-width: 1.5; stroke-linecap: square"/>
   </g>
   <g id="line2d_44">
    <path d="M 138.436364 369.286504 
L 747.163636 369.349461 
L 747.163636 369.349461 
" clip-path="url(#pcb97860b3d)" style="fill: none; stroke: #33a02c; stroke-width: 1.5; stroke-linecap: square"/>
   </g>
   <g id="line2d_45">
    <path d="M 138.436364 369.36 
L 371.15131 369.36 
L 382.742476 368.956809 
L 398.409656 369.167487 
L 410.128197 369.204471 
L 417.643349 369.324436 
L 429.234515 368.888197 
L 448.722958 369.161526 
L 460.186749 369.14275 
L 483.623832 369.104548 
L 495.214997 369.176967 
L 592.27509 369.36 
L 747.163636 369.36 
L 747.163636 369.36 
" clip-path="url(#pcb97860b3d)" style="fill: none; stroke: #fb9a99; stroke-width: 1.5; stroke-linecap: square"/>
   </g>
   <g id="line2d_46">
    <path d="M 138.436364 368.807302 
L 188.877042 369.028298 
L 270.524705 369.133251 
L 328.353159 369.027056 
L 347.841602 368.951301 
L 359.560144 368.458899 
L 394.461017 368.1447 
L 413.69471 368.147118 
L 452.671597 367.907927 
L 479.675193 367.964323 
L 491.393734 368.235687 
L 553.298202 368.447179 
L 557.246841 368.452693 
L 568.838007 367.947291 
L 580.556549 369.36 
L 747.163636 369.36 
L 747.163636 369.36 
" clip-path="url(#pcb97860b3d)" style="fill: none; stroke: #e31a1c; stroke-width: 1.5; stroke-linecap: square"/>
   </g>
   <g id="line2d_47">
    <path d="M 138.436364 369.36 
L 371.15131 369.36 
L 382.742476 368.926772 
L 394.461017 369.341126 
L 541.707036 369.346303 
L 747.163636 369.36 
L 747.163636 369.36 
" clip-path="url(#pcb97860b3d)" style="fill: none; stroke: #fdbf6f; stroke-width: 1.5; stroke-linecap: square"/>
   </g>
   <g id="line2d_48">
    <path d="M 138.436364 344.732624 
L 150.02753 342.173999 
L 161.746071 336.938709 
L 173.464612 334.350854 
L 185.055778 339.905611 
L 196.646944 338.509665 
L 208.365485 336.377199 
L 220.084027 336.423577 
L 231.547817 334.612928 
L 243.138983 334.425176 
L 254.857524 331.493398 
L 266.576066 332.054835 
L 289.631022 329.801191 
L 301.349563 327.081583 
L 317.016744 325.456464 
L 324.531895 324.558759 
L 336.123061 323.592755 
L 347.841602 322.951175 
L 359.560144 321.982894 
L 371.15131 320.118376 
L 382.742476 319.6718 
L 394.461017 317.733383 
L 406.179558 314.246795 
L 417.643349 312.478999 
L 429.234515 311.643884 
L 440.953056 303.518255 
L 452.671597 307.022414 
L 456.620236 304.33187 
L 460.186749 301.641326 
L 464.135388 298.950783 
L 483.623832 294.554617 
L 499.163636 290.852198 
L 503.112275 286.939359 
L 506.678788 283.02652 
L 510.627427 279.113681 
L 522.218593 276.566255 
L 533.937134 294.568711 
L 545.655675 273.738946 
L 549.604314 279.89262 
L 553.298202 286.046293 
L 557.246841 292.199967 
L 568.838007 291.161458 
L 580.556549 296.655901 
L 592.27509 301.109982 
L 596.223729 303.181608 
L 599.790241 305.253235 
L 603.73888 307.324862 
L 615.330046 292.906285 
L 627.048588 294.767718 
L 638.767129 301.09623 
L 650.230919 304.653725 
L 673.540627 303.624524 
L 685.259168 303.489668 
L 696.722958 303.905968 
L 708.314124 303.196823 
L 720.032666 303.068118 
L 731.751207 303.929616 
L 735.699846 305.963133 
L 739.393734 307.99665 
L 743.342373 310.030168 
L 747.163636 309.913182 
L 747.163636 309.913182 
" clip-path="url(#pcb97860b3d)" style="fill: none; stroke: #ff7f00; stroke-width: 1.5; stroke-linecap: square"/>
   </g>
   <g id="line2d_49">
    <path d="M 138.436364 367.96947 
L 165.69471 368.291612 
L 173.464612 368.557677 
L 188.877042 368.584415 
L 196.646944 368.49538 
L 208.365485 368.024477 
L 220.084027 368.496372 
L 231.547817 368.120336 
L 247.087622 368.235326 
L 254.857524 368.381363 
L 266.576066 367.160298 
L 278.039856 368.371504 
L 289.631022 368.696939 
L 301.349563 368.617513 
L 313.068105 357.449613 
L 324.531895 356.996593 
L 336.123061 369.36 
L 747.163636 369.36 
L 747.163636 369.36 
" clip-path="url(#pcb97860b3d)" style="fill: none; stroke: #cab2d6; stroke-width: 1.5; stroke-linecap: square"/>
   </g>
   <g id="line2d_50">
    <path d="M 138.436364 369.36 
L 747.163636 369.36 
L 747.163636 369.36 
" clip-path="url(#pcb97860b3d)" style="fill: none; stroke: #6a3d9a; stroke-width: 1.5; stroke-linecap: square"/>
   </g>
   <g id="line2d_51">
    <path d="M 138.436364 369.36 
L 747.163636 369.36 
L 747.163636 369.36 
" clip-path="url(#pcb97860b3d)" style="fill: none; stroke: #ffff99; stroke-width: 1.5; stroke-linecap: square"/>
   </g>
   <g id="line2d_52">
    <path d="M 138.436364 369.36 
L 708.314124 369.352986 
L 720.032666 368.847713 
L 743.342373 368.847713 
L 747.163636 368.727417 
L 747.163636 368.727417 
" clip-path="url(#pcb97860b3d)" style="fill: none; stroke: #b15928; stroke-width: 1.5; stroke-linecap: square"/>
   </g>
   <g id="patch_3">
    <path d="M 108 384.48 
L 108 51.84 
" style="fill: none; stroke: #000000; stroke-width: 0.8; stroke-linejoin: miter; stroke-linecap: square"/>
   </g>
   <g id="patch_4">
    <path d="M 777.6 384.48 
L 777.6 51.84 
" style="fill: none; stroke: #000000; stroke-width: 0.8; stroke-linejoin: miter; stroke-linecap: square"/>
   </g>
   <g id="patch_5">
    <path d="M 108 384.48 
L 777.6 384.48 
" style="fill: none; stroke: #000000; stroke-width: 0.8; stroke-linejoin: miter; stroke-linecap: square"/>
   </g>
   <g id="patch_6">
    <path d="M 108 51.84 
L 777.6 51.84 
" style="fill: none; stroke: #000000; stroke-width: 0.8; stroke-linejoin: miter; stroke-linecap: square"/>
   </g>
   <g id="text_16">
    <!-- Número de Tarjetas de Crédito (Todas las Marcas) -->
    <g transform="translate(246.317656 45.84) scale(0.14 -0.14)">
     <defs>
      <path id="DejaVuSans-Bold-4e" d="M 588 4666 
L 1931 4666 
L 3628 1466 
L 3628 4666 
L 4769 4666 
L 4769 0 
L 3425 0 
L 1728 3200 
L 1728 0 
L 588 0 
L 588 4666 
z
" transform="scale(0.015625)"/>
      <path id="DejaVuSans-Bold-fa" d="M 500 1363 
L 500 3500 
L 1625 3500 
L 1625 3150 
Q 1625 2866 1622 2436 
Q 1619 2006 1619 1863 
Q 1619 1441 1641 1255 
Q 1663 1069 1716 984 
Q 1784 875 1895 815 
Q 2006 756 2150 756 
Q 2500 756 2700 1025 
Q 2900 1294 2900 1772 
L 2900 3500 
L 4019 3500 
L 4019 0 
L 2900 0 
L 2900 506 
Q 2647 200 2364 54 
Q 2081 -91 1741 -91 
Q 1134 -91 817 281 
Q 500 653 500 1363 
z
M 2778 5119 
L 3663 5119 
L 2509 3944 
L 1897 3944 
L 2778 5119 
z
" transform="scale(0.015625)"/>
      <path id="DejaVuSans-Bold-6d" d="M 3781 2919 
Q 3994 3244 4286 3414 
Q 4578 3584 4928 3584 
Q 5531 3584 5847 3212 
Q 6163 2841 6163 2131 
L 6163 0 
L 5038 0 
L 5038 1825 
Q 5041 1866 5042 1909 
Q 5044 1953 5044 2034 
Q 5044 2406 4934 2573 
Q 4825 2741 4581 2741 
Q 4263 2741 4089 2478 
Q 3916 2216 3909 1719 
L 3909 0 
L 2784 0 
L 2784 1825 
Q 2784 2406 2684 2573 
Q 2584 2741 2328 2741 
Q 2006 2741 1831 2477 
Q 1656 2213 1656 1722 
L 1656 0 
L 531 0 
L 531 3500 
L 1656 3500 
L 1656 2988 
Q 1863 3284 2130 3434 
Q 2397 3584 2719 3584 
Q 3081 3584 3359 3409 
Q 3638 3234 3781 2919 
z
" transform="scale(0.015625)"/>
      <path id="DejaVuSans-Bold-65" d="M 4031 1759 
L 4031 1441 
L 1416 1441 
Q 1456 1047 1700 850 
Q 1944 653 2381 653 
Q 2734 653 3104 758 
Q 3475 863 3866 1075 
L 3866 213 
Q 3469 63 3072 -14 
Q 2675 -91 2278 -91 
Q 1328 -91 801 392 
Q 275 875 275 1747 
Q 275 2603 792 3093 
Q 1309 3584 2216 3584 
Q 3041 3584 3536 3087 
Q 4031 2591 4031 1759 
z
M 2881 2131 
Q 2881 2450 2695 2645 
Q 2509 2841 2209 2841 
Q 1884 2841 1681 2658 
Q 1478 2475 1428 2131 
L 2881 2131 
z
" transform="scale(0.015625)"/>
      <path id="DejaVuSans-Bold-72" d="M 3138 2547 
Q 2991 2616 2845 2648 
Q 2700 2681 2553 2681 
Q 2122 2681 1889 2404 
Q 1656 2128 1656 1613 
L 1656 0 
L 538 0 
L 538 3500 
L 1656 3500 
L 1656 2925 
Q 1872 3269 2151 3426 
Q 2431 3584 2822 3584 
Q 2878 3584 2943 3579 
Q 3009 3575 3134 3559 
L 3138 2547 
z
" transform="scale(0.015625)"/>
      <path id="DejaVuSans-Bold-6f" d="M 2203 2784 
Q 1831 2784 1636 2517 
Q 1441 2250 1441 1747 
Q 1441 1244 1636 976 
Q 1831 709 2203 709 
Q 2569 709 2762 976 
Q 2956 1244 2956 1747 
Q 2956 2250 2762 2517 
Q 2569 2784 2203 2784 
z
M 2203 3584 
Q 3106 3584 3614 3096 
Q 4122 2609 4122 1747 
Q 4122 884 3614 396 
Q 3106 -91 2203 -91 
Q 1297 -91 786 396 
Q 275 884 275 1747 
Q 275 2609 786 3096 
Q 1297 3584 2203 3584 
z
" transform="scale(0.015625)"/>
      <path id="DejaVuSans-Bold-20" transform="scale(0.015625)"/>
      <path id="DejaVuSans-Bold-64" d="M 2919 2988 
L 2919 4863 
L 4044 4863 
L 4044 0 
L 2919 0 
L 2919 506 
Q 2688 197 2409 53 
Q 2131 -91 1766 -91 
Q 1119 -91 703 423 
Q 288 938 288 1747 
Q 288 2556 703 3070 
Q 1119 3584 1766 3584 
Q 2128 3584 2408 3439 
Q 2688 3294 2919 2988 
z
M 2181 722 
Q 2541 722 2730 984 
Q 2919 1247 2919 1747 
Q 2919 2247 2730 2509 
Q 2541 2772 2181 2772 
Q 1825 2772 1636 2509 
Q 1447 2247 1447 1747 
Q 1447 1247 1636 984 
Q 1825 722 2181 722 
z
" transform="scale(0.015625)"/>
      <path id="DejaVuSans-Bold-54" d="M 31 4666 
L 4331 4666 
L 4331 3756 
L 2784 3756 
L 2784 0 
L 1581 0 
L 1581 3756 
L 31 3756 
L 31 4666 
z
" transform="scale(0.015625)"/>
      <path id="DejaVuSans-Bold-61" d="M 2106 1575 
Q 1756 1575 1579 1456 
Q 1403 1338 1403 1106 
Q 1403 894 1545 773 
Q 1688 653 1941 653 
Q 2256 653 2472 879 
Q 2688 1106 2688 1447 
L 2688 1575 
L 2106 1575 
z
M 3816 1997 
L 3816 0 
L 2688 0 
L 2688 519 
Q 2463 200 2181 54 
Q 1900 -91 1497 -91 
Q 953 -91 614 226 
Q 275 544 275 1050 
Q 275 1666 698 1953 
Q 1122 2241 2028 2241 
L 2688 2241 
L 2688 2328 
Q 2688 2594 2478 2717 
Q 2269 2841 1825 2841 
Q 1466 2841 1156 2769 
Q 847 2697 581 2553 
L 581 3406 
Q 941 3494 1303 3539 
Q 1666 3584 2028 3584 
Q 2975 3584 3395 3211 
Q 3816 2838 3816 1997 
z
" transform="scale(0.015625)"/>
      <path id="DejaVuSans-Bold-6a" d="M 538 3500 
L 1656 3500 
L 1656 63 
Q 1656 -641 1318 -1011 
Q 981 -1381 341 -1381 
L -213 -1381 
L -213 -647 
L -19 -647 
Q 300 -647 419 -503 
Q 538 -359 538 63 
L 538 3500 
z
M 538 4863 
L 1656 4863 
L 1656 3950 
L 538 3950 
L 538 4863 
z
" transform="scale(0.015625)"/>
      <path id="DejaVuSans-Bold-74" d="M 1759 4494 
L 1759 3500 
L 2913 3500 
L 2913 2700 
L 1759 2700 
L 1759 1216 
Q 1759 972 1856 886 
Q 1953 800 2241 800 
L 2816 800 
L 2816 0 
L 1856 0 
Q 1194 0 917 276 
Q 641 553 641 1216 
L 641 2700 
L 84 2700 
L 84 3500 
L 641 3500 
L 641 4494 
L 1759 4494 
z
" transform="scale(0.015625)"/>
      <path id="DejaVuSans-Bold-73" d="M 3272 3391 
L 3272 2541 
Q 2913 2691 2578 2766 
Q 2244 2841 1947 2841 
Q 1628 2841 1473 2761 
Q 1319 2681 1319 2516 
Q 1319 2381 1436 2309 
Q 1553 2238 1856 2203 
L 2053 2175 
Q 2913 2066 3209 1816 
Q 3506 1566 3506 1031 
Q 3506 472 3093 190 
Q 2681 -91 1863 -91 
Q 1516 -91 1145 -36 
Q 775 19 384 128 
L 384 978 
Q 719 816 1070 734 
Q 1422 653 1784 653 
Q 2113 653 2278 743 
Q 2444 834 2444 1013 
Q 2444 1163 2330 1236 
Q 2216 1309 1875 1350 
L 1678 1375 
Q 931 1469 631 1722 
Q 331 1975 331 2491 
Q 331 3047 712 3315 
Q 1094 3584 1881 3584 
Q 2191 3584 2531 3537 
Q 2872 3491 3272 3391 
z
" transform="scale(0.015625)"/>
      <path id="DejaVuSans-Bold-43" d="M 4288 256 
Q 3956 84 3597 -3 
Q 3238 -91 2847 -91 
Q 1681 -91 1000 561 
Q 319 1213 319 2328 
Q 319 3447 1000 4098 
Q 1681 4750 2847 4750 
Q 3238 4750 3597 4662 
Q 3956 4575 4288 4403 
L 4288 3438 
Q 3953 3666 3628 3772 
Q 3303 3878 2944 3878 
Q 2300 3878 1931 3465 
Q 1563 3053 1563 2328 
Q 1563 1606 1931 1193 
Q 2300 781 2944 781 
Q 3303 781 3628 887 
Q 3953 994 4288 1222 
L 4288 256 
z
" transform="scale(0.015625)"/>
      <path id="DejaVuSans-Bold-e9" d="M 4031 1759 
L 4031 1441 
L 1416 1441 
Q 1456 1047 1700 850 
Q 1944 653 2381 653 
Q 2734 653 3104 758 
Q 3475 863 3866 1075 
L 3866 213 
Q 3469 63 3072 -14 
Q 2675 -91 2278 -91 
Q 1328 -91 801 392 
Q 275 875 275 1747 
Q 275 2603 792 3093 
Q 1309 3584 2216 3584 
Q 3041 3584 3536 3087 
Q 4031 2591 4031 1759 
z
M 2881 2131 
Q 2881 2450 2695 2645 
Q 2509 2841 2209 2841 
Q 1884 2841 1681 2658 
Q 1478 2475 1428 2131 
L 2881 2131 
z
M 2700 5119 
L 3584 5119 
L 2431 3944 
L 1819 3944 
L 2700 5119 
z
" transform="scale(0.015625)"/>
      <path id="DejaVuSans-Bold-69" d="M 538 3500 
L 1656 3500 
L 1656 0 
L 538 0 
L 538 3500 
z
M 538 4863 
L 1656 4863 
L 1656 3950 
L 538 3950 
L 538 4863 
z
" transform="scale(0.015625)"/>
      <path id="DejaVuSans-Bold-28" d="M 2413 -844 
L 1484 -844 
Q 1006 -72 778 623 
Q 550 1319 550 2003 
Q 550 2688 779 3389 
Q 1009 4091 1484 4856 
L 2413 4856 
Q 2013 4116 1813 3408 
Q 1613 2700 1613 2009 
Q 1613 1319 1811 609 
Q 2009 -100 2413 -844 
z
" transform="scale(0.015625)"/>
      <path id="DejaVuSans-Bold-6c" d="M 538 4863 
L 1656 4863 
L 1656 0 
L 538 0 
L 538 4863 
z
" transform="scale(0.015625)"/>
      <path id="DejaVuSans-Bold-4d" d="M 588 4666 
L 2119 4666 
L 3181 2169 
L 4250 4666 
L 5778 4666 
L 5778 0 
L 4641 0 
L 4641 3413 
L 3566 897 
L 2803 897 
L 1728 3413 
L 1728 0 
L 588 0 
L 588 4666 
z
" transform="scale(0.015625)"/>
      <path id="DejaVuSans-Bold-63" d="M 3366 3391 
L 3366 2478 
Q 3138 2634 2908 2709 
Q 2678 2784 2431 2784 
Q 1963 2784 1702 2511 
Q 1441 2238 1441 1747 
Q 1441 1256 1702 982 
Q 1963 709 2431 709 
Q 2694 709 2930 787 
Q 3166 866 3366 1019 
L 3366 103 
Q 3103 6 2833 -42 
Q 2563 -91 2291 -91 
Q 1344 -91 809 395 
Q 275 881 275 1747 
Q 275 2613 809 3098 
Q 1344 3584 2291 3584 
Q 2566 3584 2833 3536 
Q 3100 3488 3366 3391 
z
" transform="scale(0.015625)"/>
      <path id="DejaVuSans-Bold-29" d="M 513 -844 
Q 913 -100 1113 609 
Q 1313 1319 1313 2009 
Q 1313 2700 1113 3408 
Q 913 4116 513 4856 
L 1441 4856 
Q 1916 4091 2145 3389 
Q 2375 2688 2375 2003 
Q 2375 1319 2147 623 
Q 1919 -72 1441 -844 
L 513 -844 
z
" transform="scale(0.015625)"/>
     </defs>
     <use xlink:href="#DejaVuSans-Bold-4e"/>
     <use xlink:href="#DejaVuSans-Bold-fa" transform="translate(83.691406 0)"/>
     <use xlink:href="#DejaVuSans-Bold-6d" transform="translate(154.882812 0)"/>
     <use xlink:href="#DejaVuSans-Bold-65" transform="translate(259.082031 0)"/>
     <use xlink:href="#DejaVuSans-Bold-72" transform="translate(326.904297 0)"/>
     <use xlink:href="#DejaVuSans-Bold-6f" transform="translate(376.220703 0)"/>
     <use xlink:href="#DejaVuSans-Bold-20" transform="translate(444.921875 0)"/>
     <use xlink:href="#DejaVuSans-Bold-64" transform="translate(479.736328 0)"/>
     <use xlink:href="#DejaVuSans-Bold-65" transform="translate(551.318359 0)"/>
     <use xlink:href="#DejaVuSans-Bold-20" transform="translate(619.140625 0)"/>
     <use xlink:href="#DejaVuSans-Bold-54" transform="translate(653.955078 0)"/>
     <use xlink:href="#DejaVuSans-Bold-61" transform="translate(709.292969 0)"/>
     <use xlink:href="#DejaVuSans-Bold-72" transform="translate(776.773438 0)"/>
     <use xlink:href="#DejaVuSans-Bold-6a" transform="translate(826.089844 0)"/>
     <use xlink:href="#DejaVuSans-Bold-65" transform="translate(860.367188 0)"/>
     <use xlink:href="#DejaVuSans-Bold-74" transform="translate(928.189453 0)"/>
     <use xlink:href="#DejaVuSans-Bold-61" transform="translate(975.992188 0)"/>
     <use xlink:href="#DejaVuSans-Bold-73" transform="translate(1043.472656 0)"/>
     <use xlink:href="#DejaVuSans-Bold-20" transform="translate(1102.994141 0)"/>
     <use xlink:href="#DejaVuSans-Bold-64" transform="translate(1137.808594 0)"/>
     <use xlink:href="#DejaVuSans-Bold-65" transform="translate(1209.390625 0)"/>
     <use xlink:href="#DejaVuSans-Bold-20" transform="translate(1277.212891 0)"/>
     <use xlink:href="#DejaVuSans-Bold-43" transform="translate(1312.027344 0)"/>
     <use xlink:href="#DejaVuSans-Bold-72" transform="translate(1385.416016 0)"/>
     <use xlink:href="#DejaVuSans-Bold-e9" transform="translate(1434.732422 0)"/>
     <use xlink:href="#DejaVuSans-Bold-64" transform="translate(1502.554688 0)"/>
     <use xlink:href="#DejaVuSans-Bold-69" transform="translate(1574.136719 0)"/>
     <use xlink:href="#DejaVuSans-Bold-74" transform="translate(1608.414062 0)"/>
     <use xlink:href="#DejaVuSans-Bold-6f" transform="translate(1656.216797 0)"/>
     <use xlink:href="#DejaVuSans-Bold-20" transform="translate(1724.917969 0)"/>
     <use xlink:href="#DejaVuSans-Bold-28" transform="translate(1759.732422 0)"/>
     <use xlink:href="#DejaVuSans-Bold-54" transform="translate(1805.435547 0)"/>
     <use xlink:href="#DejaVuSans-Bold-6f" transform="translate(1860.398438 0)"/>
     <use xlink:href="#DejaVuSans-Bold-64" transform="translate(1929.099609 0)"/>
     <use xlink:href="#DejaVuSans-Bold-61" transform="translate(2000.681641 0)"/>
     <use xlink:href="#DejaVuSans-Bold-73" transform="translate(2068.162109 0)"/>
     <use xlink:href="#DejaVuSans-Bold-20" transform="translate(2127.683594 0)"/>
     <use xlink:href="#DejaVuSans-Bold-6c" transform="translate(2162.498047 0)"/>
     <use xlink:href="#DejaVuSans-Bold-61" transform="translate(2196.775391 0)"/>
     <use xlink:href="#DejaVuSans-Bold-73" transform="translate(2264.255859 0)"/>
     <use xlink:href="#DejaVuSans-Bold-20" transform="translate(2323.777344 0)"/>
     <use xlink:href="#DejaVuSans-Bold-4d" transform="translate(2358.591797 0)"/>
     <use xlink:href="#DejaVuSans-Bold-61" transform="translate(2458.103516 0)"/>
     <use xlink:href="#DejaVuSans-Bold-72" transform="translate(2525.583984 0)"/>
     <use xlink:href="#DejaVuSans-Bold-63" transform="translate(2574.900391 0)"/>
     <use xlink:href="#DejaVuSans-Bold-61" transform="translate(2634.177734 0)"/>
     <use xlink:href="#DejaVuSans-Bold-73" transform="translate(2701.658203 0)"/>
     <use xlink:href="#DejaVuSans-Bold-29" transform="translate(2761.179688 0)"/>
    </g>
   </g>
   <g id="legend_1">
    <g id="patch_7">
     <path d="M 113.6 340.06 
L 149.6525 340.06 
Q 151.2525 340.06 151.2525 338.46 
L 151.2525 57.44 
Q 151.2525 55.84 149.6525 55.84 
L 113.6 55.84 
Q 112 55.84 112 57.44 
L 112 338.46 
Q 112 340.06 113.6 340.06 
z
" style="fill: #ffffff; opacity: 0.8; stroke: #cccccc; stroke-linejoin: miter"/>
    </g>
    <g id="line2d_53">
     <path d="M 115.2 62.31875 
L 123.2 62.31875 
L 131.2 62.31875 
" style="fill: none; stroke: #a6cee3; stroke-width: 1.5; stroke-linecap: square"/>
    </g>
    <g id="text_17">
     <!--  B -->
     <g transform="translate(137.6 65.11875) scale(0.08 -0.08)">
      <defs>
       <path id="DejaVuSans-20" transform="scale(0.015625)"/>
       <path id="DejaVuSans-42" d="M 1259 2228 
L 1259 519 
L 2272 519 
Q 2781 519 3026 730 
Q 3272 941 3272 1375 
Q 3272 1813 3026 2020 
Q 2781 2228 2272 2228 
L 1259 2228 
z
M 1259 4147 
L 1259 2741 
L 2194 2741 
Q 2656 2741 2882 2914 
Q 3109 3088 3109 3444 
Q 3109 3797 2882 3972 
Q 2656 4147 2194 4147 
L 1259 4147 
z
M 628 4666 
L 2241 4666 
Q 2963 4666 3353 4366 
Q 3744 4066 3744 3513 
Q 3744 3084 3544 2831 
Q 3344 2578 2956 2516 
Q 3422 2416 3680 2098 
Q 3938 1781 3938 1306 
Q 3938 681 3513 340 
Q 3088 0 2303 0 
L 628 0 
L 628 4666 
z
" transform="scale(0.015625)"/>
      </defs>
      <use xlink:href="#DejaVuSans-20"/>
      <use xlink:href="#DejaVuSans-42" transform="translate(31.787109 0)"/>
     </g>
    </g>
    <g id="line2d_54">
     <path d="M 115.2 74.06125 
L 123.2 74.06125 
L 131.2 74.06125 
" style="fill: none; stroke: #1f78b4; stroke-width: 1.5; stroke-linecap: square"/>
    </g>
    <g id="text_18">
     <!--  C -->
     <g transform="translate(137.6 76.86125) scale(0.08 -0.08)">
      <defs>
       <path id="DejaVuSans-43" d="M 4122 4306 
L 4122 3641 
Q 3803 3938 3442 4084 
Q 3081 4231 2675 4231 
Q 1875 4231 1450 3742 
Q 1025 3253 1025 2328 
Q 1025 1406 1450 917 
Q 1875 428 2675 428 
Q 3081 428 3442 575 
Q 3803 722 4122 1019 
L 4122 359 
Q 3791 134 3420 21 
Q 3050 -91 2638 -91 
Q 1578 -91 968 557 
Q 359 1206 359 2328 
Q 359 3453 968 4101 
Q 1578 4750 2638 4750 
Q 3056 4750 3426 4639 
Q 3797 4528 4122 4306 
z
" transform="scale(0.015625)"/>
      </defs>
      <use xlink:href="#DejaVuSans-20"/>
      <use xlink:href="#DejaVuSans-43" transform="translate(31.787109 0)"/>
     </g>
    </g>
    <g id="line2d_55">
     <path d="M 115.2 85.80375 
L 123.2 85.80375 
L 131.2 85.80375 
" style="fill: none; stroke: #b2df8a; stroke-width: 1.5; stroke-linecap: square"/>
    </g>
    <g id="text_19">
     <!--  D -->
     <g transform="translate(137.6 88.60375) scale(0.08 -0.08)">
      <defs>
       <path id="DejaVuSans-44" d="M 1259 4147 
L 1259 519 
L 2022 519 
Q 2988 519 3436 956 
Q 3884 1394 3884 2338 
Q 3884 3275 3436 3711 
Q 2988 4147 2022 4147 
L 1259 4147 
z
M 628 4666 
L 1925 4666 
Q 3281 4666 3915 4102 
Q 4550 3538 4550 2338 
Q 4550 1131 3912 565 
Q 3275 0 1925 0 
L 628 0 
L 628 4666 
z
" transform="scale(0.015625)"/>
      </defs>
      <use xlink:href="#DejaVuSans-20"/>
      <use xlink:href="#DejaVuSans-44" transform="translate(31.787109 0)"/>
     </g>
    </g>
    <g id="line2d_56">
     <path d="M 115.2 97.54625 
L 123.2 97.54625 
L 131.2 97.54625 
" style="fill: none; stroke: #33a02c; stroke-width: 1.5; stroke-linecap: square"/>
    </g>
    <g id="text_20">
     <!--  E -->
     <g transform="translate(137.6 100.34625) scale(0.08 -0.08)">
      <defs>
       <path id="DejaVuSans-45" d="M 628 4666 
L 3578 4666 
L 3578 4134 
L 1259 4134 
L 1259 2753 
L 3481 2753 
L 3481 2222 
L 1259 2222 
L 1259 531 
L 3634 531 
L 3634 0 
L 628 0 
L 628 4666 
z
" transform="scale(0.015625)"/>
      </defs>
      <use xlink:href="#DejaVuSans-20"/>
      <use xlink:href="#DejaVuSans-45" transform="translate(31.787109 0)"/>
     </g>
    </g>
    <g id="line2d_57">
     <path d="M 115.2 109.28875 
L 123.2 109.28875 
L 131.2 109.28875 
" style="fill: none; stroke: #fb9a99; stroke-width: 1.5; stroke-linecap: square"/>
    </g>
    <g id="text_21">
     <!--  F -->
     <g transform="translate(137.6 112.08875) scale(0.08 -0.08)">
      <defs>
       <path id="DejaVuSans-46" d="M 628 4666 
L 3309 4666 
L 3309 4134 
L 1259 4134 
L 1259 2759 
L 3109 2759 
L 3109 2228 
L 1259 2228 
L 1259 0 
L 628 0 
L 628 4666 
z
" transform="scale(0.015625)"/>
      </defs>
      <use xlink:href="#DejaVuSans-20"/>
      <use xlink:href="#DejaVuSans-46" transform="translate(31.787109 0)"/>
     </g>
    </g>
    <g id="line2d_58">
     <path d="M 115.2 121.03125 
L 123.2 121.03125 
L 131.2 121.03125 
" style="fill: none; stroke: #e31a1c; stroke-width: 1.5; stroke-linecap: square"/>
    </g>
    <g id="text_22">
     <!--  G -->
     <g transform="translate(137.6 123.83125) scale(0.08 -0.08)">
      <defs>
       <path id="DejaVuSans-47" d="M 3809 666 
L 3809 1919 
L 2778 1919 
L 2778 2438 
L 4434 2438 
L 4434 434 
Q 4069 175 3628 42 
Q 3188 -91 2688 -91 
Q 1594 -91 976 548 
Q 359 1188 359 2328 
Q 359 3472 976 4111 
Q 1594 4750 2688 4750 
Q 3144 4750 3555 4637 
Q 3966 4525 4313 4306 
L 4313 3634 
Q 3963 3931 3569 4081 
Q 3175 4231 2741 4231 
Q 1884 4231 1454 3753 
Q 1025 3275 1025 2328 
Q 1025 1384 1454 906 
Q 1884 428 2741 428 
Q 3075 428 3337 486 
Q 3600 544 3809 666 
z
" transform="scale(0.015625)"/>
      </defs>
      <use xlink:href="#DejaVuSans-20"/>
      <use xlink:href="#DejaVuSans-47" transform="translate(31.787109 0)"/>
     </g>
    </g>
    <g id="line2d_59">
     <path d="M 115.2 132.77375 
L 123.2 132.77375 
L 131.2 132.77375 
" style="fill: none; stroke: #fdbf6f; stroke-width: 1.5; stroke-linecap: square"/>
    </g>
    <g id="text_23">
     <!--  H -->
     <g transform="translate(137.6 135.57375) scale(0.08 -0.08)">
      <defs>
       <path id="DejaVuSans-48" d="M 628 4666 
L 1259 4666 
L 1259 2753 
L 3553 2753 
L 3553 4666 
L 4184 4666 
L 4184 0 
L 3553 0 
L 3553 2222 
L 1259 2222 
L 1259 0 
L 628 0 
L 628 4666 
z
" transform="scale(0.015625)"/>
      </defs>
      <use xlink:href="#DejaVuSans-20"/>
      <use xlink:href="#DejaVuSans-48" transform="translate(31.787109 0)"/>
     </g>
    </g>
    <g id="line2d_60">
     <path d="M 115.2 144.51625 
L 123.2 144.51625 
L 131.2 144.51625 
" style="fill: none; stroke: #ff7f00; stroke-width: 1.5; stroke-linecap: square"/>
    </g>
    <g id="text_24">
     <!--  I -->
     <g transform="translate(137.6 147.31625) scale(0.08 -0.08)">
      <defs>
       <path id="DejaVuSans-49" d="M 628 4666 
L 1259 4666 
L 1259 0 
L 628 0 
L 628 4666 
z
" transform="scale(0.015625)"/>
      </defs>
      <use xlink:href="#DejaVuSans-20"/>
      <use xlink:href="#DejaVuSans-49" transform="translate(31.787109 0)"/>
     </g>
    </g>
    <g id="line2d_61">
     <path d="M 115.2 156.25875 
L 123.2 156.25875 
L 131.2 156.25875 
" style="fill: none; stroke: #cab2d6; stroke-width: 1.5; stroke-linecap: square"/>
    </g>
    <g id="text_25">
     <!--  J -->
     <g transform="translate(137.6 159.05875) scale(0.08 -0.08)">
      <defs>
       <path id="DejaVuSans-4a" d="M 628 4666 
L 1259 4666 
L 1259 325 
Q 1259 -519 939 -900 
Q 619 -1281 -91 -1281 
L -331 -1281 
L -331 -750 
L -134 -750 
Q 284 -750 456 -515 
Q 628 -281 628 325 
L 628 4666 
z
" transform="scale(0.015625)"/>
      </defs>
      <use xlink:href="#DejaVuSans-20"/>
      <use xlink:href="#DejaVuSans-4a" transform="translate(31.787109 0)"/>
     </g>
    </g>
    <g id="line2d_62">
     <path d="M 115.2 168.00125 
L 123.2 168.00125 
L 131.2 168.00125 
" style="fill: none; stroke: #6a3d9a; stroke-width: 1.5; stroke-linecap: square"/>
    </g>
    <g id="text_26">
     <!--  K -->
     <g transform="translate(137.6 170.80125) scale(0.08 -0.08)">
      <defs>
       <path id="DejaVuSans-4b" d="M 628 4666 
L 1259 4666 
L 1259 2694 
L 3353 4666 
L 4166 4666 
L 1850 2491 
L 4331 0 
L 3500 0 
L 1259 2247 
L 1259 0 
L 628 0 
L 628 4666 
z
" transform="scale(0.015625)"/>
      </defs>
      <use xlink:href="#DejaVuSans-20"/>
      <use xlink:href="#DejaVuSans-4b" transform="translate(31.787109 0)"/>
     </g>
    </g>
    <g id="line2d_63">
     <path d="M 115.2 179.74375 
L 123.2 179.74375 
L 131.2 179.74375 
" style="fill: none; stroke: #ffff99; stroke-width: 1.5; stroke-linecap: square"/>
    </g>
    <g id="text_27">
     <!--  L -->
     <g transform="translate(137.6 182.54375) scale(0.08 -0.08)">
      <defs>
       <path id="DejaVuSans-4c" d="M 628 4666 
L 1259 4666 
L 1259 531 
L 3531 531 
L 3531 0 
L 628 0 
L 628 4666 
z
" transform="scale(0.015625)"/>
      </defs>
      <use xlink:href="#DejaVuSans-20"/>
      <use xlink:href="#DejaVuSans-4c" transform="translate(31.787109 0)"/>
     </g>
    </g>
    <g id="line2d_64">
     <path d="M 115.2 191.48625 
L 123.2 191.48625 
L 131.2 191.48625 
" style="fill: none; stroke: #b15928; stroke-width: 1.5; stroke-linecap: square"/>
    </g>
    <g id="text_28">
     <!--  M -->
     <g transform="translate(137.6 194.28625) scale(0.08 -0.08)">
      <defs>
       <path id="DejaVuSans-4d" d="M 628 4666 
L 1569 4666 
L 2759 1491 
L 3956 4666 
L 4897 4666 
L 4897 0 
L 4281 0 
L 4281 4097 
L 3078 897 
L 2444 897 
L 1241 4097 
L 1241 0 
L 628 0 
L 628 4666 
z
" transform="scale(0.015625)"/>
      </defs>
      <use xlink:href="#DejaVuSans-20"/>
      <use xlink:href="#DejaVuSans-4d" transform="translate(31.787109 0)"/>
     </g>
    </g>
    <g id="line2d_65">
     <path d="M 115.2 203.22875 
L 123.2 203.22875 
L 131.2 203.22875 
" style="fill: none; stroke: #a6cee3; stroke-width: 1.5; stroke-linecap: square"/>
    </g>
    <g id="text_29">
     <!--  N -->
     <g transform="translate(137.6 206.02875) scale(0.08 -0.08)">
      <defs>
       <path id="DejaVuSans-4e" d="M 628 4666 
L 1478 4666 
L 3547 763 
L 3547 4666 
L 4159 4666 
L 4159 0 
L 3309 0 
L 1241 3903 
L 1241 0 
L 628 0 
L 628 4666 
z
" transform="scale(0.015625)"/>
      </defs>
      <use xlink:href="#DejaVuSans-20"/>
      <use xlink:href="#DejaVuSans-4e" transform="translate(31.787109 0)"/>
     </g>
    </g>
    <g id="line2d_66">
     <path d="M 115.2 214.97125 
L 123.2 214.97125 
L 131.2 214.97125 
" style="fill: none; stroke: #1f78b4; stroke-width: 1.5; stroke-linecap: square"/>
    </g>
    <g id="text_30">
     <!--  O -->
     <g transform="translate(137.6 217.77125) scale(0.08 -0.08)">
      <defs>
       <path id="DejaVuSans-4f" d="M 2522 4238 
Q 1834 4238 1429 3725 
Q 1025 3213 1025 2328 
Q 1025 1447 1429 934 
Q 1834 422 2522 422 
Q 3209 422 3611 934 
Q 4013 1447 4013 2328 
Q 4013 3213 3611 3725 
Q 3209 4238 2522 4238 
z
M 2522 4750 
Q 3503 4750 4090 4092 
Q 4678 3434 4678 2328 
Q 4678 1225 4090 567 
Q 3503 -91 2522 -91 
Q 1538 -91 948 565 
Q 359 1222 359 2328 
Q 359 3434 948 4092 
Q 1538 4750 2522 4750 
z
" transform="scale(0.015625)"/>
      </defs>
      <use xlink:href="#DejaVuSans-20"/>
      <use xlink:href="#DejaVuSans-4f" transform="translate(31.787109 0)"/>
     </g>
    </g>
    <g id="line2d_67">
     <path d="M 115.2 226.71375 
L 123.2 226.71375 
L 131.2 226.71375 
" style="fill: none; stroke: #b2df8a; stroke-width: 1.5; stroke-linecap: square"/>
    </g>
    <g id="text_31">
     <!--  P -->
     <g transform="translate(137.6 229.51375) scale(0.08 -0.08)">
      <defs>
       <path id="DejaVuSans-50" d="M 1259 4147 
L 1259 2394 
L 2053 2394 
Q 2494 2394 2734 2622 
Q 2975 2850 2975 3272 
Q 2975 3691 2734 3919 
Q 2494 4147 2053 4147 
L 1259 4147 
z
M 628 4666 
L 2053 4666 
Q 2838 4666 3239 4311 
Q 3641 3956 3641 3272 
Q 3641 2581 3239 2228 
Q 2838 1875 2053 1875 
L 1259 1875 
L 1259 0 
L 628 0 
L 628 4666 
z
" transform="scale(0.015625)"/>
      </defs>
      <use xlink:href="#DejaVuSans-20"/>
      <use xlink:href="#DejaVuSans-50" transform="translate(31.787109 0)"/>
     </g>
    </g>
    <g id="line2d_68">
     <path d="M 115.2 238.45625 
L 123.2 238.45625 
L 131.2 238.45625 
" style="fill: none; stroke: #33a02c; stroke-width: 1.5; stroke-linecap: square"/>
    </g>
    <g id="text_32">
     <!--  Q -->
     <g transform="translate(137.6 241.25625) scale(0.08 -0.08)">
      <defs>
       <path id="DejaVuSans-51" d="M 2522 4238 
Q 1834 4238 1429 3725 
Q 1025 3213 1025 2328 
Q 1025 1447 1429 934 
Q 1834 422 2522 422 
Q 3209 422 3611 934 
Q 4013 1447 4013 2328 
Q 4013 3213 3611 3725 
Q 3209 4238 2522 4238 
z
M 3406 84 
L 4238 -825 
L 3475 -825 
L 2784 -78 
Q 2681 -84 2626 -87 
Q 2572 -91 2522 -91 
Q 1538 -91 948 567 
Q 359 1225 359 2328 
Q 359 3434 948 4092 
Q 1538 4750 2522 4750 
Q 3503 4750 4090 4092 
Q 4678 3434 4678 2328 
Q 4678 1516 4351 937 
Q 4025 359 3406 84 
z
" transform="scale(0.015625)"/>
      </defs>
      <use xlink:href="#DejaVuSans-20"/>
      <use xlink:href="#DejaVuSans-51" transform="translate(31.787109 0)"/>
     </g>
    </g>
    <g id="line2d_69">
     <path d="M 115.2 250.19875 
L 123.2 250.19875 
L 131.2 250.19875 
" style="fill: none; stroke: #fb9a99; stroke-width: 1.5; stroke-linecap: square"/>
    </g>
    <g id="text_33">
     <!--  R -->
     <g transform="translate(137.6 252.99875) scale(0.08 -0.08)">
      <defs>
       <path id="DejaVuSans-52" d="M 2841 2188 
Q 3044 2119 3236 1894 
Q 3428 1669 3622 1275 
L 4263 0 
L 3584 0 
L 2988 1197 
Q 2756 1666 2539 1819 
Q 2322 1972 1947 1972 
L 1259 1972 
L 1259 0 
L 628 0 
L 628 4666 
L 2053 4666 
Q 2853 4666 3247 4331 
Q 3641 3997 3641 3322 
Q 3641 2881 3436 2590 
Q 3231 2300 2841 2188 
z
M 1259 4147 
L 1259 2491 
L 2053 2491 
Q 2509 2491 2742 2702 
Q 2975 2913 2975 3322 
Q 2975 3731 2742 3939 
Q 2509 4147 2053 4147 
L 1259 4147 
z
" transform="scale(0.015625)"/>
      </defs>
      <use xlink:href="#DejaVuSans-20"/>
      <use xlink:href="#DejaVuSans-52" transform="translate(31.787109 0)"/>
     </g>
    </g>
    <g id="line2d_70">
     <path d="M 115.2 261.94125 
L 123.2 261.94125 
L 131.2 261.94125 
" style="fill: none; stroke: #e31a1c; stroke-width: 1.5; stroke-linecap: square"/>
    </g>
    <g id="text_34">
     <!--  S -->
     <g transform="translate(137.6 264.74125) scale(0.08 -0.08)">
      <defs>
       <path id="DejaVuSans-53" d="M 3425 4513 
L 3425 3897 
Q 3066 4069 2747 4153 
Q 2428 4238 2131 4238 
Q 1616 4238 1336 4038 
Q 1056 3838 1056 3469 
Q 1056 3159 1242 3001 
Q 1428 2844 1947 2747 
L 2328 2669 
Q 3034 2534 3370 2195 
Q 3706 1856 3706 1288 
Q 3706 609 3251 259 
Q 2797 -91 1919 -91 
Q 1588 -91 1214 -16 
Q 841 59 441 206 
L 441 856 
Q 825 641 1194 531 
Q 1563 422 1919 422 
Q 2459 422 2753 634 
Q 3047 847 3047 1241 
Q 3047 1584 2836 1778 
Q 2625 1972 2144 2069 
L 1759 2144 
Q 1053 2284 737 2584 
Q 422 2884 422 3419 
Q 422 4038 858 4394 
Q 1294 4750 2059 4750 
Q 2388 4750 2728 4690 
Q 3069 4631 3425 4513 
z
" transform="scale(0.015625)"/>
      </defs>
      <use xlink:href="#DejaVuSans-20"/>
      <use xlink:href="#DejaVuSans-53" transform="translate(31.787109 0)"/>
     </g>
    </g>
    <g id="line2d_71">
     <path d="M 115.2 273.68375 
L 123.2 273.68375 
L 131.2 273.68375 
" style="fill: none; stroke: #fdbf6f; stroke-width: 1.5; stroke-linecap: square"/>
    </g>
    <g id="text_35">
     <!--  T -->
     <g transform="translate(137.6 276.48375) scale(0.08 -0.08)">
      <defs>
       <path id="DejaVuSans-54" d="M -19 4666 
L 3928 4666 
L 3928 4134 
L 2272 4134 
L 2272 0 
L 1638 0 
L 1638 4134 
L -19 4134 
L -19 4666 
z
" transform="scale(0.015625)"/>
      </defs>
      <use xlink:href="#DejaVuSans-20"/>
      <use xlink:href="#DejaVuSans-54" transform="translate(31.787109 0)"/>
     </g>
    </g>
    <g id="line2d_72">
     <path d="M 115.2 285.42625 
L 123.2 285.42625 
L 131.2 285.42625 
" style="fill: none; stroke: #ff7f00; stroke-width: 1.5; stroke-linecap: square"/>
    </g>
    <g id="text_36">
     <!--  U -->
     <g transform="translate(137.6 288.22625) scale(0.08 -0.08)">
      <defs>
       <path id="DejaVuSans-55" d="M 556 4666 
L 1191 4666 
L 1191 1831 
Q 1191 1081 1462 751 
Q 1734 422 2344 422 
Q 2950 422 3222 751 
Q 3494 1081 3494 1831 
L 3494 4666 
L 4128 4666 
L 4128 1753 
Q 4128 841 3676 375 
Q 3225 -91 2344 -91 
Q 1459 -91 1007 375 
Q 556 841 556 1753 
L 556 4666 
z
" transform="scale(0.015625)"/>
      </defs>
      <use xlink:href="#DejaVuSans-20"/>
      <use xlink:href="#DejaVuSans-55" transform="translate(31.787109 0)"/>
     </g>
    </g>
    <g id="line2d_73">
     <path d="M 115.2 297.16875 
L 123.2 297.16875 
L 131.2 297.16875 
" style="fill: none; stroke: #cab2d6; stroke-width: 1.5; stroke-linecap: square"/>
    </g>
    <g id="text_37">
     <!--  V -->
     <g transform="translate(137.6 299.96875) scale(0.08 -0.08)">
      <defs>
       <path id="DejaVuSans-56" d="M 1831 0 
L 50 4666 
L 709 4666 
L 2188 738 
L 3669 4666 
L 4325 4666 
L 2547 0 
L 1831 0 
z
" transform="scale(0.015625)"/>
      </defs>
      <use xlink:href="#DejaVuSans-20"/>
      <use xlink:href="#DejaVuSans-56" transform="translate(31.787109 0)"/>
     </g>
    </g>
    <g id="line2d_74">
     <path d="M 115.2 308.91125 
L 123.2 308.91125 
L 131.2 308.91125 
" style="fill: none; stroke: #6a3d9a; stroke-width: 1.5; stroke-linecap: square"/>
    </g>
    <g id="text_38">
     <!--  W -->
     <g transform="translate(137.6 311.71125) scale(0.08 -0.08)">
      <defs>
       <path id="DejaVuSans-57" d="M 213 4666 
L 850 4666 
L 1831 722 
L 2809 4666 
L 3519 4666 
L 4500 722 
L 5478 4666 
L 6119 4666 
L 4947 0 
L 4153 0 
L 3169 4050 
L 2175 0 
L 1381 0 
L 213 4666 
z
" transform="scale(0.015625)"/>
      </defs>
      <use xlink:href="#DejaVuSans-20"/>
      <use xlink:href="#DejaVuSans-57" transform="translate(31.787109 0)"/>
     </g>
    </g>
    <g id="line2d_75">
     <path d="M 115.2 320.65375 
L 123.2 320.65375 
L 131.2 320.65375 
" style="fill: none; stroke: #ffff99; stroke-width: 1.5; stroke-linecap: square"/>
    </g>
    <g id="text_39">
     <!--  X -->
     <g transform="translate(137.6 323.45375) scale(0.08 -0.08)">
      <defs>
       <path id="DejaVuSans-58" d="M 403 4666 
L 1081 4666 
L 2241 2931 
L 3406 4666 
L 4084 4666 
L 2584 2425 
L 4184 0 
L 3506 0 
L 2194 1984 
L 872 0 
L 191 0 
L 1856 2491 
L 403 4666 
z
" transform="scale(0.015625)"/>
      </defs>
      <use xlink:href="#DejaVuSans-20"/>
      <use xlink:href="#DejaVuSans-58" transform="translate(31.787109 0)"/>
     </g>
    </g>
    <g id="line2d_76">
     <path d="M 115.2 332.39625 
L 123.2 332.39625 
L 131.2 332.39625 
" style="fill: none; stroke: #b15928; stroke-width: 1.5; stroke-linecap: square"/>
    </g>
    <g id="text_40">
     <!--  Y -->
     <g transform="translate(137.6 335.19625) scale(0.08 -0.08)">
      <defs>
       <path id="DejaVuSans-59" d="M -13 4666 
L 666 4666 
L 1959 2747 
L 3244 4666 
L 3922 4666 
L 2272 2222 
L 2272 0 
L 1638 0 
L 1638 2222 
L -13 4666 
z
" transform="scale(0.015625)"/>
      </defs>
      <use xlink:href="#DejaVuSans-20"/>
      <use xlink:href="#DejaVuSans-59" transform="translate(31.787109 0)"/>
     </g>
    </g>
   </g>
  </g>
 </g>
 <defs>
  <clipPath id="pcb97860b3d">
   <rect x="108" y="51.84" width="669.6" height="332.64"/>
  </clipPath>
 </defs>
</svg>
