<?xml version="1.0" encoding="utf-8" standalone="no"?>
<!DOCTYPE svg PUBLIC "-//W3C//DTD SVG 1.1//EN"
  "http://www.w3.org/Graphics/SVG/1.1/DTD/svg11.dtd">
<svg xmlns:xlink="http://www.w3.org/1999/xlink" width="864pt" height="432pt" viewBox="0 0 864 432" xmlns="http://www.w3.org/2000/svg" version="1.1">
 <metadata>
  <rdf:RDF xmlns:dc="http://purl.org/dc/elements/1.1/" xmlns:cc="http://creativecommons.org/ns#" xmlns:rdf="http://www.w3.org/1999/02/22-rdf-syntax-ns#">
   <cc:Work>
    <dc:type rdf:resource="http://purl.org/dc/dcmitype/StillImage"/>
    <dc:date>2025-02-23T20:21:44.476254</dc:date>
    <dc:format>image/svg+xml</dc:format>
    <dc:creator>
     <cc:Agent>
      <dc:title>Matplotlib v3.10.0, https://matplotlib.org/</dc:title>
     </cc:Agent>
    </dc:creator>
   </cc:Work>
  </rdf:RDF>
 </metadata>
 <defs>
  <style type="text/css">*{stroke-linejoin: round; stroke-linecap: butt}</style>
 </defs>
 <g id="figure_1">
  <g id="patch_1">
   <path d="M 0 432 
L 864 432 
L 864 0 
L 0 0 
z
" style="fill: #ffffff"/>
  </g>
  <g id="axes_1">
   <g id="patch_2">
    <path d="M 108 384.48 
L 777.6 384.48 
L 777.6 51.84 
L 108 51.84 
z
" style="fill: #ffffff"/>
   </g>
   <g id="matplotlib.axis_1">
    <g id="xtick_1">
     <g id="line2d_1">
      <path d="M 173.464612 384.48 
L 173.464612 51.84 
" clip-path="url(#p866f539afd)" style="fill: none; stroke-dasharray: 2.96,1.28; stroke-dashoffset: 0; stroke: #b0b0b0; stroke-opacity: 0.5; stroke-width: 0.8"/>
     </g>
     <g id="line2d_2">
      <defs>
       <path id="m40833d9b80" d="M 0 0 
L 0 3.5 
" style="stroke: #000000; stroke-width: 0.8"/>
      </defs>
      <g>
       <use xlink:href="#m40833d9b80" x="173.464612" y="384.48" style="stroke: #000000; stroke-width: 0.8"/>
      </g>
     </g>
     <g id="text_1">
      <!-- 2012 -->
      <g transform="translate(160.739612 399.078438) scale(0.1 -0.1)">
       <defs>
        <path id="DejaVuSans-32" d="M 1228 531 
L 3431 531 
L 3431 0 
L 469 0 
L 469 531 
Q 828 903 1448 1529 
Q 2069 2156 2228 2338 
Q 2531 2678 2651 2914 
Q 2772 3150 2772 3378 
Q 2772 3750 2511 3984 
Q 2250 4219 1831 4219 
Q 1534 4219 1204 4116 
Q 875 4013 500 3803 
L 500 4441 
Q 881 4594 1212 4672 
Q 1544 4750 1819 4750 
Q 2544 4750 2975 4387 
Q 3406 4025 3406 3419 
Q 3406 3131 3298 2873 
Q 3191 2616 2906 2266 
Q 2828 2175 2409 1742 
Q 1991 1309 1228 531 
z
" transform="scale(0.015625)"/>
        <path id="DejaVuSans-30" d="M 2034 4250 
Q 1547 4250 1301 3770 
Q 1056 3291 1056 2328 
Q 1056 1369 1301 889 
Q 1547 409 2034 409 
Q 2525 409 2770 889 
Q 3016 1369 3016 2328 
Q 3016 3291 2770 3770 
Q 2525 4250 2034 4250 
z
M 2034 4750 
Q 2819 4750 3233 4129 
Q 3647 3509 3647 2328 
Q 3647 1150 3233 529 
Q 2819 -91 2034 -91 
Q 1250 -91 836 529 
Q 422 1150 422 2328 
Q 422 3509 836 4129 
Q 1250 4750 2034 4750 
z
" transform="scale(0.015625)"/>
        <path id="DejaVuSans-31" d="M 794 531 
L 1825 531 
L 1825 4091 
L 703 3866 
L 703 4441 
L 1819 4666 
L 2450 4666 
L 2450 531 
L 3481 531 
L 3481 0 
L 794 0 
L 794 531 
z
" transform="scale(0.015625)"/>
       </defs>
       <use xlink:href="#DejaVuSans-32"/>
       <use xlink:href="#DejaVuSans-30" transform="translate(63.623047 0)"/>
       <use xlink:href="#DejaVuSans-31" transform="translate(127.246094 0)"/>
       <use xlink:href="#DejaVuSans-32" transform="translate(190.869141 0)"/>
      </g>
     </g>
    </g>
    <g id="xtick_2">
     <g id="line2d_3">
      <path d="M 266.576066 384.48 
L 266.576066 51.84 
" clip-path="url(#p866f539afd)" style="fill: none; stroke-dasharray: 2.96,1.28; stroke-dashoffset: 0; stroke: #b0b0b0; stroke-opacity: 0.5; stroke-width: 0.8"/>
     </g>
     <g id="line2d_4">
      <g>
       <use xlink:href="#m40833d9b80" x="266.576066" y="384.48" style="stroke: #000000; stroke-width: 0.8"/>
      </g>
     </g>
     <g id="text_2">
      <!-- 2014 -->
      <g transform="translate(253.851066 399.078438) scale(0.1 -0.1)">
       <defs>
        <path id="DejaVuSans-34" d="M 2419 4116 
L 825 1625 
L 2419 1625 
L 2419 4116 
z
M 2253 4666 
L 3047 4666 
L 3047 1625 
L 3713 1625 
L 3713 1100 
L 3047 1100 
L 3047 0 
L 2419 0 
L 2419 1100 
L 313 1100 
L 313 1709 
L 2253 4666 
z
" transform="scale(0.015625)"/>
       </defs>
       <use xlink:href="#DejaVuSans-32"/>
       <use xlink:href="#DejaVuSans-30" transform="translate(63.623047 0)"/>
       <use xlink:href="#DejaVuSans-31" transform="translate(127.246094 0)"/>
       <use xlink:href="#DejaVuSans-34" transform="translate(190.869141 0)"/>
      </g>
     </g>
    </g>
    <g id="xtick_3">
     <g id="line2d_5">
      <path d="M 359.560144 384.48 
L 359.560144 51.84 
" clip-path="url(#p866f539afd)" style="fill: none; stroke-dasharray: 2.96,1.28; stroke-dashoffset: 0; stroke: #b0b0b0; stroke-opacity: 0.5; stroke-width: 0.8"/>
     </g>
     <g id="line2d_6">
      <g>
       <use xlink:href="#m40833d9b80" x="359.560144" y="384.48" style="stroke: #000000; stroke-width: 0.8"/>
      </g>
     </g>
     <g id="text_3">
      <!-- 2016 -->
      <g transform="translate(346.835144 399.078438) scale(0.1 -0.1)">
       <defs>
        <path id="DejaVuSans-36" d="M 2113 2584 
Q 1688 2584 1439 2293 
Q 1191 2003 1191 1497 
Q 1191 994 1439 701 
Q 1688 409 2113 409 
Q 2538 409 2786 701 
Q 3034 994 3034 1497 
Q 3034 2003 2786 2293 
Q 2538 2584 2113 2584 
z
M 3366 4563 
L 3366 3988 
Q 3128 4100 2886 4159 
Q 2644 4219 2406 4219 
Q 1781 4219 1451 3797 
Q 1122 3375 1075 2522 
Q 1259 2794 1537 2939 
Q 1816 3084 2150 3084 
Q 2853 3084 3261 2657 
Q 3669 2231 3669 1497 
Q 3669 778 3244 343 
Q 2819 -91 2113 -91 
Q 1303 -91 875 529 
Q 447 1150 447 2328 
Q 447 3434 972 4092 
Q 1497 4750 2381 4750 
Q 2619 4750 2861 4703 
Q 3103 4656 3366 4563 
z
" transform="scale(0.015625)"/>
       </defs>
       <use xlink:href="#DejaVuSans-32"/>
       <use xlink:href="#DejaVuSans-30" transform="translate(63.623047 0)"/>
       <use xlink:href="#DejaVuSans-31" transform="translate(127.246094 0)"/>
       <use xlink:href="#DejaVuSans-36" transform="translate(190.869141 0)"/>
      </g>
     </g>
    </g>
    <g id="xtick_4">
     <g id="line2d_7">
      <path d="M 452.671597 384.48 
L 452.671597 51.84 
" clip-path="url(#p866f539afd)" style="fill: none; stroke-dasharray: 2.96,1.28; stroke-dashoffset: 0; stroke: #b0b0b0; stroke-opacity: 0.5; stroke-width: 0.8"/>
     </g>
     <g id="line2d_8">
      <g>
       <use xlink:href="#m40833d9b80" x="452.671597" y="384.48" style="stroke: #000000; stroke-width: 0.8"/>
      </g>
     </g>
     <g id="text_4">
      <!-- 2018 -->
      <g transform="translate(439.946597 399.078438) scale(0.1 -0.1)">
       <defs>
        <path id="DejaVuSans-38" d="M 2034 2216 
Q 1584 2216 1326 1975 
Q 1069 1734 1069 1313 
Q 1069 891 1326 650 
Q 1584 409 2034 409 
Q 2484 409 2743 651 
Q 3003 894 3003 1313 
Q 3003 1734 2745 1975 
Q 2488 2216 2034 2216 
z
M 1403 2484 
Q 997 2584 770 2862 
Q 544 3141 544 3541 
Q 544 4100 942 4425 
Q 1341 4750 2034 4750 
Q 2731 4750 3128 4425 
Q 3525 4100 3525 3541 
Q 3525 3141 3298 2862 
Q 3072 2584 2669 2484 
Q 3125 2378 3379 2068 
Q 3634 1759 3634 1313 
Q 3634 634 3220 271 
Q 2806 -91 2034 -91 
Q 1263 -91 848 271 
Q 434 634 434 1313 
Q 434 1759 690 2068 
Q 947 2378 1403 2484 
z
M 1172 3481 
Q 1172 3119 1398 2916 
Q 1625 2713 2034 2713 
Q 2441 2713 2670 2916 
Q 2900 3119 2900 3481 
Q 2900 3844 2670 4047 
Q 2441 4250 2034 4250 
Q 1625 4250 1398 4047 
Q 1172 3844 1172 3481 
z
" transform="scale(0.015625)"/>
       </defs>
       <use xlink:href="#DejaVuSans-32"/>
       <use xlink:href="#DejaVuSans-30" transform="translate(63.623047 0)"/>
       <use xlink:href="#DejaVuSans-31" transform="translate(127.246094 0)"/>
       <use xlink:href="#DejaVuSans-38" transform="translate(190.869141 0)"/>
      </g>
     </g>
    </g>
    <g id="xtick_5">
     <g id="line2d_9">
      <path d="M 545.655675 384.48 
L 545.655675 51.84 
" clip-path="url(#p866f539afd)" style="fill: none; stroke-dasharray: 2.96,1.28; stroke-dashoffset: 0; stroke: #b0b0b0; stroke-opacity: 0.5; stroke-width: 0.8"/>
     </g>
     <g id="line2d_10">
      <g>
       <use xlink:href="#m40833d9b80" x="545.655675" y="384.48" style="stroke: #000000; stroke-width: 0.8"/>
      </g>
     </g>
     <g id="text_5">
      <!-- 2020 -->
      <g transform="translate(532.930675 399.078438) scale(0.1 -0.1)">
       <use xlink:href="#DejaVuSans-32"/>
       <use xlink:href="#DejaVuSans-30" transform="translate(63.623047 0)"/>
       <use xlink:href="#DejaVuSans-32" transform="translate(127.246094 0)"/>
       <use xlink:href="#DejaVuSans-30" transform="translate(190.869141 0)"/>
      </g>
     </g>
    </g>
    <g id="xtick_6">
     <g id="line2d_11">
      <path d="M 638.767129 384.48 
L 638.767129 51.84 
" clip-path="url(#p866f539afd)" style="fill: none; stroke-dasharray: 2.96,1.28; stroke-dashoffset: 0; stroke: #b0b0b0; stroke-opacity: 0.5; stroke-width: 0.8"/>
     </g>
     <g id="line2d_12">
      <g>
       <use xlink:href="#m40833d9b80" x="638.767129" y="384.48" style="stroke: #000000; stroke-width: 0.8"/>
      </g>
     </g>
     <g id="text_6">
      <!-- 2022 -->
      <g transform="translate(626.042129 399.078438) scale(0.1 -0.1)">
       <use xlink:href="#DejaVuSans-32"/>
       <use xlink:href="#DejaVuSans-30" transform="translate(63.623047 0)"/>
       <use xlink:href="#DejaVuSans-32" transform="translate(127.246094 0)"/>
       <use xlink:href="#DejaVuSans-32" transform="translate(190.869141 0)"/>
      </g>
     </g>
    </g>
    <g id="xtick_7">
     <g id="line2d_13">
      <path d="M 731.751207 384.48 
L 731.751207 51.84 
" clip-path="url(#p866f539afd)" style="fill: none; stroke-dasharray: 2.96,1.28; stroke-dashoffset: 0; stroke: #b0b0b0; stroke-opacity: 0.5; stroke-width: 0.8"/>
     </g>
     <g id="line2d_14">
      <g>
       <use xlink:href="#m40833d9b80" x="731.751207" y="384.48" style="stroke: #000000; stroke-width: 0.8"/>
      </g>
     </g>
     <g id="text_7">
      <!-- 2024 -->
      <g transform="translate(719.026207 399.078438) scale(0.1 -0.1)">
       <use xlink:href="#DejaVuSans-32"/>
       <use xlink:href="#DejaVuSans-30" transform="translate(63.623047 0)"/>
       <use xlink:href="#DejaVuSans-32" transform="translate(127.246094 0)"/>
       <use xlink:href="#DejaVuSans-34" transform="translate(190.869141 0)"/>
      </g>
     </g>
    </g>
   </g>
   <g id="matplotlib.axis_2">
    <g id="ytick_1">
     <g id="line2d_15">
      <path d="M 108 369.36 
L 777.6 369.36 
" clip-path="url(#p866f539afd)" style="fill: none; stroke-dasharray: 2.96,1.28; stroke-dashoffset: 0; stroke: #b0b0b0; stroke-opacity: 0.5; stroke-width: 0.8"/>
     </g>
     <g id="line2d_16">
      <defs>
       <path id="ma7c183b92d" d="M 0 0 
L -3.5 0 
" style="stroke: #000000; stroke-width: 0.8"/>
      </defs>
      <g>
       <use xlink:href="#ma7c183b92d" x="108" y="369.36" style="stroke: #000000; stroke-width: 0.8"/>
      </g>
     </g>
     <g id="text_8">
      <!-- 0.0 -->
      <g transform="translate(85.096875 373.159219) scale(0.1 -0.1)">
       <defs>
        <path id="DejaVuSans-2e" d="M 684 794 
L 1344 794 
L 1344 0 
L 684 0 
L 684 794 
z
" transform="scale(0.015625)"/>
       </defs>
       <use xlink:href="#DejaVuSans-30"/>
       <use xlink:href="#DejaVuSans-2e" transform="translate(63.623047 0)"/>
       <use xlink:href="#DejaVuSans-30" transform="translate(95.410156 0)"/>
      </g>
     </g>
    </g>
    <g id="ytick_2">
     <g id="line2d_17">
      <path d="M 108 332.0412 
L 777.6 332.0412 
" clip-path="url(#p866f539afd)" style="fill: none; stroke-dasharray: 2.96,1.28; stroke-dashoffset: 0; stroke: #b0b0b0; stroke-opacity: 0.5; stroke-width: 0.8"/>
     </g>
     <g id="line2d_18">
      <g>
       <use xlink:href="#ma7c183b92d" x="108" y="332.0412" style="stroke: #000000; stroke-width: 0.8"/>
      </g>
     </g>
     <g id="text_9">
      <!-- 0.5 -->
      <g transform="translate(85.096875 335.840419) scale(0.1 -0.1)">
       <defs>
        <path id="DejaVuSans-35" d="M 691 4666 
L 3169 4666 
L 3169 4134 
L 1269 4134 
L 1269 2991 
Q 1406 3038 1543 3061 
Q 1681 3084 1819 3084 
Q 2600 3084 3056 2656 
Q 3513 2228 3513 1497 
Q 3513 744 3044 326 
Q 2575 -91 1722 -91 
Q 1428 -91 1123 -41 
Q 819 9 494 109 
L 494 744 
Q 775 591 1075 516 
Q 1375 441 1709 441 
Q 2250 441 2565 725 
Q 2881 1009 2881 1497 
Q 2881 1984 2565 2268 
Q 2250 2553 1709 2553 
Q 1456 2553 1204 2497 
Q 953 2441 691 2322 
L 691 4666 
z
" transform="scale(0.015625)"/>
       </defs>
       <use xlink:href="#DejaVuSans-30"/>
       <use xlink:href="#DejaVuSans-2e" transform="translate(63.623047 0)"/>
       <use xlink:href="#DejaVuSans-35" transform="translate(95.410156 0)"/>
      </g>
     </g>
    </g>
    <g id="ytick_3">
     <g id="line2d_19">
      <path d="M 108 294.722401 
L 777.6 294.722401 
" clip-path="url(#p866f539afd)" style="fill: none; stroke-dasharray: 2.96,1.28; stroke-dashoffset: 0; stroke: #b0b0b0; stroke-opacity: 0.5; stroke-width: 0.8"/>
     </g>
     <g id="line2d_20">
      <g>
       <use xlink:href="#ma7c183b92d" x="108" y="294.722401" style="stroke: #000000; stroke-width: 0.8"/>
      </g>
     </g>
     <g id="text_10">
      <!-- 1.0 -->
      <g transform="translate(85.096875 298.52162) scale(0.1 -0.1)">
       <use xlink:href="#DejaVuSans-31"/>
       <use xlink:href="#DejaVuSans-2e" transform="translate(63.623047 0)"/>
       <use xlink:href="#DejaVuSans-30" transform="translate(95.410156 0)"/>
      </g>
     </g>
    </g>
    <g id="ytick_4">
     <g id="line2d_21">
      <path d="M 108 257.403601 
L 777.6 257.403601 
" clip-path="url(#p866f539afd)" style="fill: none; stroke-dasharray: 2.96,1.28; stroke-dashoffset: 0; stroke: #b0b0b0; stroke-opacity: 0.5; stroke-width: 0.8"/>
     </g>
     <g id="line2d_22">
      <g>
       <use xlink:href="#ma7c183b92d" x="108" y="257.403601" style="stroke: #000000; stroke-width: 0.8"/>
      </g>
     </g>
     <g id="text_11">
      <!-- 1.5 -->
      <g transform="translate(85.096875 261.20282) scale(0.1 -0.1)">
       <use xlink:href="#DejaVuSans-31"/>
       <use xlink:href="#DejaVuSans-2e" transform="translate(63.623047 0)"/>
       <use xlink:href="#DejaVuSans-35" transform="translate(95.410156 0)"/>
      </g>
     </g>
    </g>
    <g id="ytick_5">
     <g id="line2d_23">
      <path d="M 108 220.084802 
L 777.6 220.084802 
" clip-path="url(#p866f539afd)" style="fill: none; stroke-dasharray: 2.96,1.28; stroke-dashoffset: 0; stroke: #b0b0b0; stroke-opacity: 0.5; stroke-width: 0.8"/>
     </g>
     <g id="line2d_24">
      <g>
       <use xlink:href="#ma7c183b92d" x="108" y="220.084802" style="stroke: #000000; stroke-width: 0.8"/>
      </g>
     </g>
     <g id="text_12">
      <!-- 2.0 -->
      <g transform="translate(85.096875 223.88402) scale(0.1 -0.1)">
       <use xlink:href="#DejaVuSans-32"/>
       <use xlink:href="#DejaVuSans-2e" transform="translate(63.623047 0)"/>
       <use xlink:href="#DejaVuSans-30" transform="translate(95.410156 0)"/>
      </g>
     </g>
    </g>
    <g id="ytick_6">
     <g id="line2d_25">
      <path d="M 108 182.766002 
L 777.6 182.766002 
" clip-path="url(#p866f539afd)" style="fill: none; stroke-dasharray: 2.96,1.28; stroke-dashoffset: 0; stroke: #b0b0b0; stroke-opacity: 0.5; stroke-width: 0.8"/>
     </g>
     <g id="line2d_26">
      <g>
       <use xlink:href="#ma7c183b92d" x="108" y="182.766002" style="stroke: #000000; stroke-width: 0.8"/>
      </g>
     </g>
     <g id="text_13">
      <!-- 2.5 -->
      <g transform="translate(85.096875 186.565221) scale(0.1 -0.1)">
       <use xlink:href="#DejaVuSans-32"/>
       <use xlink:href="#DejaVuSans-2e" transform="translate(63.623047 0)"/>
       <use xlink:href="#DejaVuSans-35" transform="translate(95.410156 0)"/>
      </g>
     </g>
    </g>
    <g id="ytick_7">
     <g id="line2d_27">
      <path d="M 108 145.447203 
L 777.6 145.447203 
" clip-path="url(#p866f539afd)" style="fill: none; stroke-dasharray: 2.96,1.28; stroke-dashoffset: 0; stroke: #b0b0b0; stroke-opacity: 0.5; stroke-width: 0.8"/>
     </g>
     <g id="line2d_28">
      <g>
       <use xlink:href="#ma7c183b92d" x="108" y="145.447203" style="stroke: #000000; stroke-width: 0.8"/>
      </g>
     </g>
     <g id="text_14">
      <!-- 3.0 -->
      <g transform="translate(85.096875 149.246421) scale(0.1 -0.1)">
       <defs>
        <path id="DejaVuSans-33" d="M 2597 2516 
Q 3050 2419 3304 2112 
Q 3559 1806 3559 1356 
Q 3559 666 3084 287 
Q 2609 -91 1734 -91 
Q 1441 -91 1130 -33 
Q 819 25 488 141 
L 488 750 
Q 750 597 1062 519 
Q 1375 441 1716 441 
Q 2309 441 2620 675 
Q 2931 909 2931 1356 
Q 2931 1769 2642 2001 
Q 2353 2234 1838 2234 
L 1294 2234 
L 1294 2753 
L 1863 2753 
Q 2328 2753 2575 2939 
Q 2822 3125 2822 3475 
Q 2822 3834 2567 4026 
Q 2313 4219 1838 4219 
Q 1578 4219 1281 4162 
Q 984 4106 628 3988 
L 628 4550 
Q 988 4650 1302 4700 
Q 1616 4750 1894 4750 
Q 2613 4750 3031 4423 
Q 3450 4097 3450 3541 
Q 3450 3153 3228 2886 
Q 3006 2619 2597 2516 
z
" transform="scale(0.015625)"/>
       </defs>
       <use xlink:href="#DejaVuSans-33"/>
       <use xlink:href="#DejaVuSans-2e" transform="translate(63.623047 0)"/>
       <use xlink:href="#DejaVuSans-30" transform="translate(95.410156 0)"/>
      </g>
     </g>
    </g>
    <g id="ytick_8">
     <g id="line2d_29">
      <path d="M 108 108.128403 
L 777.6 108.128403 
" clip-path="url(#p866f539afd)" style="fill: none; stroke-dasharray: 2.96,1.28; stroke-dashoffset: 0; stroke: #b0b0b0; stroke-opacity: 0.5; stroke-width: 0.8"/>
     </g>
     <g id="line2d_30">
      <g>
       <use xlink:href="#ma7c183b92d" x="108" y="108.128403" style="stroke: #000000; stroke-width: 0.8"/>
      </g>
     </g>
     <g id="text_15">
      <!-- 3.5 -->
      <g transform="translate(85.096875 111.927622) scale(0.1 -0.1)">
       <use xlink:href="#DejaVuSans-33"/>
       <use xlink:href="#DejaVuSans-2e" transform="translate(63.623047 0)"/>
       <use xlink:href="#DejaVuSans-35" transform="translate(95.410156 0)"/>
      </g>
     </g>
    </g>
    <g id="ytick_9">
     <g id="line2d_31">
      <path d="M 108 70.809603 
L 777.6 70.809603 
" clip-path="url(#p866f539afd)" style="fill: none; stroke-dasharray: 2.96,1.28; stroke-dashoffset: 0; stroke: #b0b0b0; stroke-opacity: 0.5; stroke-width: 0.8"/>
     </g>
     <g id="line2d_32">
      <g>
       <use xlink:href="#ma7c183b92d" x="108" y="70.809603" style="stroke: #000000; stroke-width: 0.8"/>
      </g>
     </g>
     <g id="text_16">
      <!-- 4.0 -->
      <g transform="translate(85.096875 74.608822) scale(0.1 -0.1)">
       <use xlink:href="#DejaVuSans-34"/>
       <use xlink:href="#DejaVuSans-2e" transform="translate(63.623047 0)"/>
       <use xlink:href="#DejaVuSans-30" transform="translate(95.410156 0)"/>
      </g>
     </g>
    </g>
    <g id="text_17">
     <!-- 1e7 -->
     <g transform="translate(108 48.84) scale(0.1 -0.1)">
      <defs>
       <path id="DejaVuSans-65" d="M 3597 1894 
L 3597 1613 
L 953 1613 
Q 991 1019 1311 708 
Q 1631 397 2203 397 
Q 2534 397 2845 478 
Q 3156 559 3463 722 
L 3463 178 
Q 3153 47 2828 -22 
Q 2503 -91 2169 -91 
Q 1331 -91 842 396 
Q 353 884 353 1716 
Q 353 2575 817 3079 
Q 1281 3584 2069 3584 
Q 2775 3584 3186 3129 
Q 3597 2675 3597 1894 
z
M 3022 2063 
Q 3016 2534 2758 2815 
Q 2500 3097 2075 3097 
Q 1594 3097 1305 2825 
Q 1016 2553 972 2059 
L 3022 2063 
z
" transform="scale(0.015625)"/>
       <path id="DejaVuSans-37" d="M 525 4666 
L 3525 4666 
L 3525 4397 
L 1831 0 
L 1172 0 
L 2766 4134 
L 525 4134 
L 525 4666 
z
" transform="scale(0.015625)"/>
      </defs>
      <use xlink:href="#DejaVuSans-31"/>
      <use xlink:href="#DejaVuSans-65" transform="translate(63.623047 0)"/>
      <use xlink:href="#DejaVuSans-37" transform="translate(125.146484 0)"/>
     </g>
    </g>
   </g>
   <g id="line2d_33">
    <path d="M 138.436364 195.888658 
L 150.02753 189.794685 
L 161.746071 185.376086 
L 173.464612 184.667947 
L 185.055778 184.344087 
L 196.646944 181.311039 
L 208.365485 180.011166 
L 220.084027 182.078314 
L 231.547817 178.582542 
L 243.138983 178.061773 
L 254.857524 176.143251 
L 266.576066 166.294544 
L 270.524705 162.375403 
L 274.091217 158.456262 
L 278.039856 154.537122 
L 289.631022 153.822198 
L 301.349563 156.275327 
L 313.068105 147.459567 
L 324.531895 147.254149 
L 336.123061 148.020401 
L 347.841602 148.157241 
L 359.560144 145.63058 
L 371.15131 141.876047 
L 382.742476 138.929064 
L 394.461017 136.291349 
L 406.179558 123.489694 
L 417.643349 125.045522 
L 429.234515 129.238461 
L 440.953056 124.9935 
L 444.901695 140.956512 
L 448.722958 156.919524 
L 452.671597 172.882536 
L 456.620236 171.400955 
L 460.186749 169.919374 
L 464.135388 168.437792 
L 479.675193 165.718033 
L 487.445095 164.399107 
L 499.163636 162.836748 
L 503.112275 160.599864 
L 506.678788 158.36298 
L 510.627427 156.126096 
L 522.218593 152.189471 
L 533.937134 155.939443 
L 545.655675 147.94745 
L 549.604314 151.156787 
L 553.298202 154.366124 
L 557.246841 157.575462 
L 568.838007 158.463365 
L 580.556549 162.763872 
L 603.73888 163.062698 
L 615.330046 156.135217 
L 627.048588 160.205444 
L 638.767129 160.285277 
L 650.230919 157.983901 
L 661.822085 152.462726 
L 673.540627 147.736353 
L 677.489266 136.318457 
L 681.310529 124.900561 
L 685.259168 113.482665 
L 689.207807 110.290522 
L 692.774319 107.098379 
L 696.722958 103.906236 
L 700.544222 113.468517 
L 704.492861 123.030797 
L 708.314124 132.593078 
L 716.211402 102.405274 
L 720.032666 87.311372 
L 731.751207 80.158694 
L 735.699846 77.206501 
L 739.393734 74.254308 
L 743.342373 71.302114 
L 747.163636 66.96 
L 747.163636 66.96 
" clip-path="url(#p866f539afd)" style="fill: none; stroke: #a6cee3; stroke-width: 1.5; stroke-linecap: square"/>
   </g>
   <g id="line2d_34">
    <path d="M 138.436364 369.243282 
L 650.230919 369.218666 
L 747.163636 369.210911 
L 747.163636 369.210911 
" clip-path="url(#p866f539afd)" style="fill: none; stroke: #1f78b4; stroke-width: 1.5; stroke-linecap: square"/>
   </g>
   <g id="line2d_35">
    <path d="M 138.436364 326.033038 
L 150.02753 322.905036 
L 161.746071 321.228623 
L 173.464612 318.885652 
L 188.877042 317.662991 
L 200.595583 316.664743 
L 220.084027 315.328312 
L 231.547817 313.475814 
L 243.138983 312.438157 
L 254.857524 310.294931 
L 266.576066 314.09453 
L 281.86112 315.163316 
L 293.579661 315.604625 
L 301.349563 315.758404 
L 324.531895 317.293423 
L 336.123061 318.726338 
L 347.841602 319.651956 
L 371.15131 319.847544 
L 382.742476 319.489 
L 398.409656 320.146674 
L 417.643349 320.631664 
L 433.183154 320.812496 
L 444.901695 320.663696 
L 460.186749 320.19116 
L 464.135388 320.050476 
L 475.726554 320.255976 
L 499.163636 323.500248 
L 510.627427 324.319336 
L 522.218593 324.634576 
L 545.655675 325.993667 
L 561.068105 328.057384 
L 568.838007 328.963937 
L 580.556549 331.432822 
L 592.27509 332.850653 
L 615.330046 334.416915 
L 627.048588 332.701706 
L 638.767129 332.032998 
L 723.981305 324.132807 
L 731.751207 323.320849 
L 743.342373 320.255916 
L 747.163636 318.773927 
L 747.163636 318.773927 
" clip-path="url(#p866f539afd)" style="fill: none; stroke: #b2df8a; stroke-width: 1.5; stroke-linecap: square"/>
   </g>
   <g id="line2d_36">
    <path d="M 138.436364 307.840153 
L 157.924807 308.129926 
L 169.515973 308.120243 
L 188.877042 307.934241 
L 196.646944 307.843945 
L 208.365485 309.082645 
L 220.084027 308.063722 
L 231.547817 307.952923 
L 254.857524 310.422338 
L 274.091217 289.100714 
L 278.039856 285.003093 
L 289.631022 284.905265 
L 301.349563 288.879605 
L 313.068105 285.189246 
L 336.123061 285.570652 
L 347.841602 286.248966 
L 359.560144 286.217364 
L 371.15131 285.531221 
L 394.461017 285.065251 
L 406.179558 273.608656 
L 417.643349 276.08028 
L 429.234515 278.905268 
L 440.953056 280.207276 
L 444.901695 295.578897 
L 448.722958 310.950518 
L 452.671597 326.322139 
L 467.956651 326.032137 
L 475.726554 325.791317 
L 499.163636 323.754427 
L 510.627427 322.273258 
L 522.218593 320.262536 
L 545.655675 318.257935 
L 557.246841 318.000092 
L 572.786646 316.287455 
L 580.556549 315.250987 
L 592.27509 313.215725 
L 603.73888 309.806757 
L 615.330046 309.037027 
L 630.997227 308.97353 
L 650.230919 308.624505 
L 661.822085 307.821374 
L 673.540627 306.439302 
L 677.489266 296.126503 
L 681.310529 285.813704 
L 685.259168 275.500905 
L 689.207807 273.497774 
L 692.774319 271.494643 
L 696.722958 269.491511 
L 700.544222 280.29864 
L 704.492861 291.105769 
L 708.314124 301.912898 
L 716.211402 273.621053 
L 720.032666 259.475131 
L 731.751207 254.321934 
L 735.699846 252.341398 
L 739.393734 250.360862 
L 747.163636 246.428981 
L 747.163636 246.428981 
" clip-path="url(#p866f539afd)" style="fill: none; stroke: #33a02c; stroke-width: 1.5; stroke-linecap: square"/>
   </g>
   <g id="line2d_37">
    <path d="M 138.436364 347.481779 
L 150.02753 346.585426 
L 161.746071 347.001643 
L 181.107139 346.091992 
L 185.055778 345.942237 
L 200.595583 345.887722 
L 208.365485 345.746149 
L 220.084027 348.403024 
L 254.857524 348.780951 
L 278.039856 348.543387 
L 305.298202 347.986185 
L 313.068105 347.750549 
L 324.531895 348.124342 
L 336.123061 346.853704 
L 371.15131 345.44471 
L 386.691115 344.609326 
L 402.230919 344.125053 
L 421.464612 343.706144 
L 456.620236 343.485996 
L 471.90529 343.387006 
L 522.218593 342.851516 
L 541.707036 341.7953 
L 545.655675 341.615756 
L 561.068105 341.656812 
L 572.786646 341.832589 
L 592.27509 341.710949 
L 603.73888 341.311817 
L 619.278685 340.240467 
L 654.052183 337.137433 
L 696.722958 334.645739 
L 708.314124 334.342143 
L 723.981305 334.905724 
L 735.699846 335.025448 
L 743.342373 334.984855 
L 747.163636 334.806118 
L 747.163636 334.806118 
" clip-path="url(#p866f539afd)" style="fill: none; stroke: #fb9a99; stroke-width: 1.5; stroke-linecap: square"/>
   </g>
   <g id="line2d_38">
    <path d="M 138.436364 361.076816 
L 157.924807 360.366219 
L 165.69471 360.026675 
L 181.107139 359.068503 
L 188.877042 358.631358 
L 200.595583 358.038046 
L 208.365485 357.557833 
L 220.084027 358.413448 
L 258.806163 357.637165 
L 270.524705 357.810921 
L 281.86112 358.041004 
L 328.353159 358.350934 
L 394.461017 358.358082 
L 406.179558 359.874181 
L 460.186749 360.399714 
L 467.956651 360.319523 
L 475.726554 360.18112 
L 499.163636 359.108503 
L 526.167232 358.109929 
L 537.885773 357.925575 
L 549.604314 357.931036 
L 568.838007 358.077168 
L 596.223729 358.136961 
L 619.278685 357.919054 
L 642.715768 357.53512 
L 665.770724 356.856242 
L 689.207807 355.59297 
L 700.544222 354.90262 
L 723.981305 353.676284 
L 747.163636 353.031398 
L 747.163636 353.031398 
" clip-path="url(#p866f539afd)" style="fill: none; stroke: #e31a1c; stroke-width: 1.5; stroke-linecap: square"/>
   </g>
   <g id="line2d_39">
    <path d="M 138.436364 369.233004 
L 281.86112 369.068334 
L 537.885773 368.567286 
L 665.770724 368.1767 
L 685.259168 368.148318 
L 747.163636 367.827364 
L 747.163636 367.827364 
" clip-path="url(#p866f539afd)" style="fill: none; stroke: #fdbf6f; stroke-width: 1.5; stroke-linecap: square"/>
   </g>
   <g id="line2d_40">
    <path d="M 138.436364 367.874869 
L 173.464612 367.532797 
L 188.877042 367.540509 
L 208.365485 367.36693 
L 220.084027 367.419519 
L 231.547817 369.36 
L 747.163636 369.36 
L 747.163636 369.36 
" clip-path="url(#p866f539afd)" style="fill: none; stroke: #ff7f00; stroke-width: 1.5; stroke-linecap: square"/>
   </g>
   <g id="line2d_41">
    <path d="M 138.436364 366.545185 
L 177.413251 366.686618 
L 224.032666 366.553258 
L 270.524705 366.493961 
L 281.86112 366.42151 
L 301.349563 366.163428 
L 324.531895 365.968311 
L 336.123061 360.642851 
L 351.790241 359.609543 
L 359.560144 359.262309 
L 371.15131 358.258851 
L 394.461017 355.613949 
L 406.179558 355.144702 
L 417.643349 355.30721 
L 429.234515 356.952663 
L 440.953056 355.135529 
L 460.186749 355.266836 
L 475.726554 355.249396 
L 491.393734 354.956876 
L 522.218593 354.937157 
L 537.885773 354.822101 
L 549.604314 355.083529 
L 576.735285 356.364696 
L 580.556549 356.564973 
L 592.27509 355.964141 
L 603.73888 357.471872 
L 623.227324 357.97125 
L 630.997227 358.172284 
L 638.767129 358.433018 
L 654.052183 358.454073 
L 685.259168 358.937218 
L 700.544222 359.263384 
L 716.211402 359.346097 
L 747.163636 359.60598 
L 747.163636 359.60598 
" clip-path="url(#p866f539afd)" style="fill: none; stroke: #cab2d6; stroke-width: 1.5; stroke-linecap: square"/>
   </g>
   <g id="line2d_42">
    <path d="M 138.436364 369.351484 
L 596.223729 369.24057 
L 603.73888 369.00171 
L 615.330046 369.331391 
L 747.163636 369.287012 
L 747.163636 369.287012 
" clip-path="url(#p866f539afd)" style="fill: none; stroke: #6a3d9a; stroke-width: 1.5; stroke-linecap: square"/>
   </g>
   <g id="line2d_43">
    <path d="M 138.436364 366.291395 
L 153.976168 366.056664 
L 204.544222 365.776084 
L 208.365485 365.705915 
L 220.084027 366.330661 
L 239.31772 366.478625 
L 251.036261 366.400448 
L 258.806163 366.390782 
L 274.091217 366.426777 
L 309.119466 366.427203 
L 320.583256 366.374183 
L 340.0717 366.301699 
L 413.69471 365.772285 
L 437.131793 365.512641 
L 452.671597 365.391138 
L 522.218593 365.065084 
L 533.937134 362.753184 
L 565.016744 363.291456 
L 572.786646 363.490146 
L 580.556549 363.588185 
L 596.223729 363.323206 
L 607.560144 363.373331 
L 627.048588 363.725025 
L 638.767129 363.45074 
L 654.052183 363.962744 
L 669.719363 364.171425 
L 685.259168 364.377149 
L 712.262763 364.532838 
L 720.032666 364.525842 
L 731.751207 364.870242 
L 747.163636 364.516662 
L 747.163636 364.516662 
" clip-path="url(#p866f539afd)" style="fill: none; stroke: #ffff99; stroke-width: 1.5; stroke-linecap: square"/>
   </g>
   <g id="line2d_44">
    <path d="M 138.436364 369.202201 
L 347.841602 368.920011 
L 374.972573 368.755291 
L 398.409656 368.545338 
L 452.671597 368.208655 
L 522.218593 367.798007 
L 533.937134 368.28345 
L 580.556549 367.994595 
L 630.997227 367.785761 
L 650.230919 367.661233 
L 661.822085 366.169258 
L 685.259168 365.610125 
L 712.262763 365.443631 
L 747.163636 365.397385 
L 747.163636 365.397385 
" clip-path="url(#p866f539afd)" style="fill: none; stroke: #b15928; stroke-width: 1.5; stroke-linecap: square"/>
   </g>
   <g id="line2d_45">
    <path d="M 138.436364 368.751345 
L 181.107139 368.835845 
L 227.599178 368.751194 
L 344.020339 368.121317 
L 371.15131 367.996804 
L 406.179558 367.729124 
L 417.643349 366.619725 
L 471.90529 366.835751 
L 518.397329 366.47815 
L 549.604314 366.207425 
L 576.735285 366.153126 
L 599.790241 365.860268 
L 638.767129 365.028258 
L 658.000822 364.354061 
L 677.489266 363.73386 
L 708.314124 362.601021 
L 743.342373 360.930945 
L 747.163636 360.708651 
L 747.163636 360.708651 
" clip-path="url(#p866f539afd)" style="fill: none; stroke: #a6cee3; stroke-width: 1.5; stroke-linecap: square"/>
   </g>
   <g id="line2d_46">
    <path d="M 138.436364 369.17669 
L 216.135388 369.223724 
L 464.135388 369.121048 
L 627.048588 369.011771 
L 727.802568 368.82355 
L 735.699846 368.736371 
L 747.163636 368.720517 
L 747.163636 368.720517 
" clip-path="url(#p866f539afd)" style="fill: none; stroke: #1f78b4; stroke-width: 1.5; stroke-linecap: square"/>
   </g>
   <g id="line2d_47">
    <path d="M 138.436364 355.530616 
L 161.746071 354.467732 
L 173.464612 358.495684 
L 196.646944 357.649443 
L 208.365485 358.419688 
L 220.084027 358.064398 
L 231.547817 355.700879 
L 243.138983 355.507978 
L 254.857524 356.187359 
L 270.524705 355.608062 
L 289.631022 354.700355 
L 309.119466 353.972849 
L 324.531895 353.26473 
L 336.123061 354.600094 
L 347.841602 354.968311 
L 363.508783 354.002155 
L 371.15131 353.662295 
L 382.742476 354.289631 
L 398.409656 353.718139 
L 417.643349 352.771219 
L 429.234515 353.104297 
L 440.953056 352.892386 
L 452.671597 353.581649 
L 467.956651 353.560444 
L 475.726554 353.708391 
L 491.393734 353.55266 
L 499.163636 353.635298 
L 526.167232 353.200868 
L 533.937134 353.259662 
L 545.655675 354.664081 
L 568.838007 354.647138 
L 599.790241 354.311189 
L 603.73888 354.252902 
L 619.278685 353.386653 
L 630.997227 352.938731 
L 638.767129 352.753306 
L 654.052183 351.773595 
L 665.770724 351.019255 
L 685.259168 350.097297 
L 700.544222 348.642966 
L 720.032666 347.262248 
L 731.751207 346.669491 
L 747.163636 345.39273 
L 747.163636 345.39273 
" clip-path="url(#p866f539afd)" style="fill: none; stroke: #b2df8a; stroke-width: 1.5; stroke-linecap: square"/>
   </g>
   <g id="line2d_48">
    <path d="M 138.436364 364.128106 
L 177.413251 363.800218 
L 192.825681 363.73485 
L 262.627427 363.123665 
L 281.86112 363.396262 
L 317.016744 363.711305 
L 336.123061 363.627668 
L 406.179558 363.193345 
L 417.643349 364.624737 
L 440.953056 364.238943 
L 464.135388 363.796648 
L 526.167232 362.331079 
L 541.707036 362.105196 
L 549.604314 362.103795 
L 615.330046 362.613776 
L 627.048588 369.36 
L 747.163636 369.36 
L 747.163636 369.36 
" clip-path="url(#p866f539afd)" style="fill: none; stroke: #33a02c; stroke-width: 1.5; stroke-linecap: square"/>
   </g>
   <g id="line2d_49">
    <path d="M 138.436364 369.330123 
L 747.163636 369.355716 
L 747.163636 369.355716 
" clip-path="url(#p866f539afd)" style="fill: none; stroke: #fb9a99; stroke-width: 1.5; stroke-linecap: square"/>
   </g>
   <g id="line2d_50">
    <path d="M 138.436364 369.36 
L 378.921212 369.250731 
L 386.691115 369.226202 
L 413.69471 369.321159 
L 421.464612 369.28643 
L 433.183154 369.198504 
L 456.620236 369.280553 
L 495.214997 369.285594 
L 650.230919 369.36 
L 747.163636 369.36 
L 747.163636 369.36 
" clip-path="url(#p866f539afd)" style="fill: none; stroke: #e31a1c; stroke-width: 1.5; stroke-linecap: square"/>
   </g>
   <g id="line2d_51">
    <path d="M 138.436364 369.135318 
L 224.032666 369.253564 
L 340.0717 369.209162 
L 351.790241 369.127133 
L 367.202671 368.956522 
L 402.230919 368.884484 
L 425.413251 368.831486 
L 475.726554 368.741433 
L 495.214997 368.910863 
L 557.246841 368.991163 
L 568.838007 368.785708 
L 580.556549 369.36 
L 747.163636 369.36 
L 747.163636 369.36 
" clip-path="url(#p866f539afd)" style="fill: none; stroke: #fdbf6f; stroke-width: 1.5; stroke-linecap: square"/>
   </g>
   <g id="line2d_52">
    <path d="M 138.436364 369.36 
L 374.972573 369.301295 
L 382.742476 369.183885 
L 402.230919 369.350043 
L 747.163636 369.36 
L 747.163636 369.36 
" clip-path="url(#p866f539afd)" style="fill: none; stroke: #ff7f00; stroke-width: 1.5; stroke-linecap: square"/>
   </g>
   <g id="line2d_53">
    <path d="M 138.436364 359.34853 
L 150.02753 358.308403 
L 161.746071 356.180164 
L 173.464612 355.128155 
L 185.055778 357.386263 
L 200.595583 356.529824 
L 208.365485 355.9519 
L 220.084027 355.970754 
L 231.547817 355.234693 
L 243.138983 355.158368 
L 254.857524 353.966547 
L 266.576066 354.194782 
L 289.631022 353.278635 
L 301.349563 352.173066 
L 340.0717 350.667857 
L 355.611505 350.231565 
L 359.560144 350.100357 
L 371.15131 349.342397 
L 382.742476 349.160856 
L 394.461017 348.372855 
L 406.179558 346.955494 
L 421.464612 346.123691 
L 429.234515 345.897365 
L 440.953056 342.594151 
L 452.671597 344.018654 
L 464.135388 340.737391 
L 495.214997 337.822116 
L 499.163636 337.445172 
L 503.112275 335.854532 
L 506.678788 334.263893 
L 510.627427 332.673254 
L 522.218593 331.63768 
L 533.937134 338.956001 
L 545.655675 330.488328 
L 549.604314 332.989907 
L 553.298202 335.491485 
L 557.246841 337.993064 
L 568.838007 337.570891 
L 580.556549 339.804481 
L 592.27509 341.615144 
L 603.73888 344.141605 
L 615.330046 338.280195 
L 627.048588 339.0369 
L 638.767129 341.609554 
L 650.230919 343.05574 
L 677.489266 342.619077 
L 689.207807 342.638941 
L 696.722958 342.751763 
L 712.262763 342.446042 
L 720.032666 342.411162 
L 731.751207 342.761376 
L 743.342373 345.24136 
L 747.163636 345.193803 
L 747.163636 345.193803 
" clip-path="url(#p866f539afd)" style="fill: none; stroke: #cab2d6; stroke-width: 1.5; stroke-linecap: square"/>
   </g>
   <g id="line2d_54">
    <path d="M 138.436364 368.794725 
L 169.515973 368.979761 
L 181.107139 369.053152 
L 196.646944 369.008517 
L 208.365485 368.817086 
L 220.084027 369.00892 
L 239.31772 368.867429 
L 258.806163 368.796705 
L 266.576066 368.465782 
L 281.86112 369.002257 
L 297.5283 369.068928 
L 301.349563 369.058166 
L 313.068105 364.518214 
L 324.531895 364.334053 
L 336.123061 369.36 
L 747.163636 369.36 
L 747.163636 369.36 
" clip-path="url(#p866f539afd)" style="fill: none; stroke: #6a3d9a; stroke-width: 1.5; stroke-linecap: square"/>
   </g>
   <g id="line2d_55">
    <path d="M 138.436364 369.36 
L 747.163636 369.36 
L 747.163636 369.36 
" clip-path="url(#p866f539afd)" style="fill: none; stroke: #ffff99; stroke-width: 1.5; stroke-linecap: square"/>
   </g>
   <g id="line2d_56">
    <path d="M 138.436364 369.36 
L 747.163636 369.36 
L 747.163636 369.36 
" clip-path="url(#p866f539afd)" style="fill: none; stroke: #b15928; stroke-width: 1.5; stroke-linecap: square"/>
   </g>
   <g id="line2d_57">
    <path d="M 138.436364 369.36 
L 712.262763 369.288681 
L 723.981305 369.151746 
L 747.163636 369.102844 
L 747.163636 369.102844 
" clip-path="url(#p866f539afd)" style="fill: none; stroke: #a6cee3; stroke-width: 1.5; stroke-linecap: square"/>
   </g>
   <g id="line2d_58">
    <path d="M 138.436364 302.869177 
L 150.02753 299.929777 
L 169.515973 299.330233 
L 192.825681 298.559629 
L 196.646944 298.480143 
L 208.365485 299.761394 
L 220.084027 301.358467 
L 239.31772 300.772266 
L 254.857524 300.41866 
L 274.091217 299.590753 
L 278.039856 299.465284 
L 289.631022 297.067022 
L 301.349563 297.574132 
L 313.068105 291.04932 
L 324.531895 291.006187 
L 336.123061 296.070729 
L 347.841602 296.582004 
L 359.560144 296.464532 
L 371.15131 295.119824 
L 382.742476 294.746016 
L 394.461017 293.463496 
L 406.179558 287.987589 
L 417.643349 288.448812 
L 429.234515 280.114606 
L 440.953056 278.746544 
L 452.671597 285.710866 
L 471.90529 283.438268 
L 475.726554 282.969636 
L 487.445095 282.097384 
L 499.163636 283.223128 
L 514.44869 283.52845 
L 522.218593 283.565535 
L 533.937134 282.071276 
L 545.655675 283.43795 
L 557.246841 285.427086 
L 568.838007 287.736628 
L 580.556549 290.823355 
L 592.27509 290.38839 
L 611.508783 288.174345 
L 615.330046 287.719162 
L 627.048588 283.914108 
L 638.767129 281.794363 
L 650.230919 279.149131 
L 669.719363 276.505443 
L 673.540627 275.932729 
L 700.544222 271.129859 
L 708.314124 270.063064 
L 720.032666 258.551169 
L 731.751207 265.611588 
L 743.342373 262.183266 
L 747.163636 261.515795 
L 747.163636 261.515795 
" clip-path="url(#p866f539afd)" style="fill: none; stroke: #1f78b4; stroke-width: 1.5; stroke-linecap: square"/>
   </g>
   <g id="line2d_59">
    <path d="M 138.436364 369.311717 
L 747.163636 369.36 
L 747.163636 369.36 
" clip-path="url(#p866f539afd)" style="fill: none; stroke: #b2df8a; stroke-width: 1.5; stroke-linecap: square"/>
   </g>
   <g id="line2d_60">
    <path d="M 138.436364 338.215633 
L 150.02753 336.041104 
L 165.69471 334.64819 
L 173.464612 333.822658 
L 185.055778 333.62704 
L 196.646944 332.920499 
L 208.365485 332.703609 
L 220.084027 331.80242 
L 231.547817 330.505815 
L 251.036261 329.861312 
L 254.857524 329.706342 
L 266.576066 330.894931 
L 281.86112 331.210653 
L 289.631022 331.182062 
L 301.349563 331.901016 
L 324.531895 332.470725 
L 336.123061 333.369265 
L 347.841602 333.895034 
L 359.560144 333.643968 
L 394.461017 330.983063 
L 410.128197 330.325476 
L 421.464612 329.566728 
L 429.234515 328.940463 
L 448.722958 328.123105 
L 464.135388 327.394487 
L 475.726554 327.409116 
L 487.445095 328.286399 
L 499.163636 329.724084 
L 514.44869 330.770107 
L 526.167232 331.370116 
L 541.707036 332.320984 
L 545.655675 332.533234 
L 565.016744 334.761318 
L 568.838007 335.16565 
L 580.556549 337.276685 
L 592.27509 338.618184 
L 615.330046 340.21551 
L 627.048588 338.729782 
L 638.767129 338.248772 
L 673.540627 335.724991 
L 716.211402 332.510347 
L 731.751207 331.160917 
L 743.342373 328.541399 
L 747.163636 327.26984 
L 747.163636 327.26984 
" clip-path="url(#p866f539afd)" style="fill: none; stroke: #33a02c; stroke-width: 1.5; stroke-linecap: square"/>
   </g>
   <g id="line2d_61">
    <path d="M 138.436364 362.64084 
L 157.924807 362.890107 
L 169.515973 363.252263 
L 177.413251 363.463916 
L 185.055778 363.607912 
L 196.646944 364.191652 
L 208.365485 365.862766 
L 220.084027 365.707766 
L 231.547817 366.468629 
L 247.087622 366.657484 
L 254.857524 366.645513 
L 270.524705 365.033739 
L 278.039856 364.368021 
L 289.631022 362.190208 
L 301.349563 362.285699 
L 313.068105 360.375178 
L 324.531895 359.826502 
L 340.0717 359.699379 
L 359.560144 359.822994 
L 371.15131 359.311458 
L 394.461017 360.065805 
L 406.179558 354.253141 
L 429.234515 356.429439 
L 440.953056 357.040236 
L 452.671597 364.600159 
L 464.135388 364.636701 
L 475.726554 364.053416 
L 487.445095 363.000989 
L 503.112275 362.636287 
L 522.218593 361.92917 
L 533.937134 361.870005 
L 561.068105 362.530829 
L 584.505187 362.881123 
L 592.27509 362.786279 
L 607.560144 361.003027 
L 615.330046 360.368588 
L 650.230919 359.04801 
L 665.770724 359.140744 
L 681.310529 359.430358 
L 700.544222 359.756283 
L 708.314124 360.000318 
L 720.032666 349.993513 
L 731.751207 358.327324 
L 743.342373 358.244491 
L 747.163636 359.351705 
L 747.163636 359.351705 
" clip-path="url(#p866f539afd)" style="fill: none; stroke: #fb9a99; stroke-width: 1.5; stroke-linecap: square"/>
   </g>
   <g id="line2d_62">
    <path d="M 138.436364 349.070933 
L 150.02753 348.427034 
L 161.746071 348.891631 
L 185.055778 347.966005 
L 200.595583 347.939051 
L 208.365485 347.817626 
L 220.084027 350.242475 
L 258.806163 350.768446 
L 278.039856 350.730119 
L 309.119466 350.333562 
L 313.068105 350.254185 
L 324.531895 350.906331 
L 336.123061 350.005179 
L 351.790241 349.835705 
L 363.508783 349.989222 
L 417.643349 351.351321 
L 437.131793 351.61658 
L 444.901695 351.590621 
L 464.135388 351.232184 
L 483.623832 350.76496 
L 506.678788 350.434564 
L 522.218593 350.16627 
L 545.655675 348.962903 
L 561.068105 348.80801 
L 572.786646 348.763073 
L 592.27509 348.33376 
L 603.73888 347.80958 
L 619.278685 346.497289 
L 646.28228 343.486535 
L 650.230919 342.98676 
L 661.822085 342.286905 
L 677.489266 341.665415 
L 700.544222 340.466245 
L 708.314124 340.284632 
L 723.981305 340.775529 
L 735.699846 340.880875 
L 743.342373 340.836316 
L 747.163636 340.688568 
L 747.163636 340.688568 
" clip-path="url(#p866f539afd)" style="fill: none; stroke: #e31a1c; stroke-width: 1.5; stroke-linecap: square"/>
   </g>
   <g id="line2d_63">
    <path d="M 138.436364 367.688819 
L 173.464612 367.708606 
L 212.314124 367.371642 
L 382.742476 367.702411 
L 394.461017 366.712433 
L 406.179558 367.874398 
L 421.464612 367.984581 
L 437.131793 367.934857 
L 452.671597 367.90806 
L 487.445095 367.268251 
L 537.885773 367.121847 
L 553.298202 366.941279 
L 599.790241 366.572803 
L 661.822085 365.962743 
L 700.544222 364.108446 
L 723.981305 363.483822 
L 747.163636 363.166928 
L 747.163636 363.166928 
" clip-path="url(#p866f539afd)" style="fill: none; stroke: #fdbf6f; stroke-width: 1.5; stroke-linecap: square"/>
   </g>
   <g id="line2d_64">
    <path d="M 138.436364 369.36 
L 747.163636 369.359993 
L 747.163636 369.359993 
" clip-path="url(#p866f539afd)" style="fill: none; stroke: #ff7f00; stroke-width: 1.5; stroke-linecap: square"/>
   </g>
   <g id="line2d_65">
    <path d="M 138.436364 369.189931 
L 185.055778 369.216711 
L 227.599178 369.314563 
L 239.31772 369.36 
L 747.163636 369.36 
L 747.163636 369.36 
" clip-path="url(#p866f539afd)" style="fill: none; stroke: #cab2d6; stroke-width: 1.5; stroke-linecap: square"/>
   </g>
   <g id="line2d_66">
    <path d="M 138.436364 369.36 
L 417.643349 369.36 
L 429.234515 360.755136 
L 440.953056 359.30895 
L 456.620236 359.491536 
L 471.90529 359.412395 
L 479.675193 359.245764 
L 491.393734 358.97747 
L 541.707036 358.847307 
L 549.604314 359.032492 
L 580.556549 360.237315 
L 592.27509 359.743095 
L 603.73888 360.995633 
L 619.278685 361.35404 
L 630.997227 361.586929 
L 638.767129 361.855227 
L 658.000822 361.99777 
L 692.774319 362.624014 
L 700.544222 362.737734 
L 716.211402 362.851432 
L 747.163636 363.152028 
L 747.163636 363.152028 
" clip-path="url(#p866f539afd)" style="fill: none; stroke: #6a3d9a; stroke-width: 1.5; stroke-linecap: square"/>
   </g>
   <g id="line2d_67">
    <path d="M 138.436364 369.36 
L 592.27509 369.36 
L 603.73888 369.00171 
L 615.330046 369.331391 
L 747.163636 369.287012 
L 747.163636 369.287012 
" clip-path="url(#p866f539afd)" style="fill: none; stroke: #ffff99; stroke-width: 1.5; stroke-linecap: square"/>
   </g>
   <g id="line2d_68">
    <path d="M 138.436364 366.960715 
L 153.976168 366.717005 
L 200.595583 366.561209 
L 208.365485 366.443939 
L 224.032666 366.817152 
L 239.31772 366.836508 
L 274.091217 366.759009 
L 398.409656 366.366674 
L 413.69471 366.226689 
L 437.131793 366.039109 
L 452.671597 365.942038 
L 522.218593 365.724268 
L 533.937134 364.23839 
L 553.298202 364.925944 
L 565.016744 365.310331 
L 580.556549 365.777216 
L 607.560144 366.100531 
L 619.278685 366.366226 
L 638.767129 366.568024 
L 650.230919 367.445381 
L 669.719363 367.928277 
L 685.259168 368.101991 
L 723.981305 368.322097 
L 743.342373 368.318903 
L 747.163636 368.319689 
L 747.163636 368.319689 
" clip-path="url(#p866f539afd)" style="fill: none; stroke: #b15928; stroke-width: 1.5; stroke-linecap: square"/>
   </g>
   <g id="line2d_69">
    <path d="M 138.436364 369.36 
L 518.397329 369.252007 
L 580.556549 369.19417 
L 596.223729 367.967093 
L 603.73888 367.26025 
L 623.227324 366.023085 
L 630.997227 365.6246 
L 654.052183 364.688868 
L 673.540627 364.092086 
L 700.544222 363.131507 
L 720.032666 362.297895 
L 743.342373 361.169218 
L 747.163636 360.94414 
L 747.163636 360.94414 
" clip-path="url(#p866f539afd)" style="fill: none; stroke: #a6cee3; stroke-width: 1.5; stroke-linecap: square"/>
   </g>
   <g id="line2d_70">
    <path d="M 138.436364 369.224421 
L 208.365485 369.27154 
L 727.802568 369.133783 
L 739.393734 369.188363 
L 747.163636 369.200659 
L 747.163636 369.200659 
" clip-path="url(#p866f539afd)" style="fill: none; stroke: #1f78b4; stroke-width: 1.5; stroke-linecap: square"/>
   </g>
   <g id="line2d_71">
    <path d="M 138.436364 366.011444 
L 161.746071 365.927357 
L 173.464612 366.726965 
L 196.646944 366.707716 
L 208.365485 367.182127 
L 227.599178 366.760007 
L 239.31772 366.526866 
L 243.138983 366.4364 
L 262.627427 366.48331 
L 278.039856 366.310061 
L 328.353159 365.704201 
L 355.611505 365.990254 
L 363.508783 365.910902 
L 378.921212 365.646879 
L 394.461017 365.450527 
L 410.128197 364.948831 
L 421.464612 364.828649 
L 452.671597 364.830349 
L 467.956651 364.559011 
L 495.214997 364.704445 
L 506.678788 364.778941 
L 518.397329 364.902376 
L 533.937134 365.124622 
L 545.655675 365.662058 
L 611.508783 365.790591 
L 634.81849 365.765849 
L 650.230919 365.706654 
L 747.163636 364.632397 
L 747.163636 364.632397 
" clip-path="url(#p866f539afd)" style="fill: none; stroke: #b2df8a; stroke-width: 1.5; stroke-linecap: square"/>
   </g>
   <g id="line2d_72">
    <path d="M 138.436364 369.36 
L 747.163636 369.36 
L 747.163636 369.36 
" clip-path="url(#p866f539afd)" style="fill: none; stroke: #33a02c; stroke-width: 1.5; stroke-linecap: square"/>
   </g>
   <g id="line2d_73">
    <path d="M 138.436364 369.36 
L 549.604314 369.287198 
L 561.068105 369.162126 
L 603.73888 369.36 
L 619.278685 369.117619 
L 731.751207 369.132176 
L 747.163636 369.359993 
L 747.163636 369.359993 
" clip-path="url(#p866f539afd)" style="fill: none; stroke: #fb9a99; stroke-width: 1.5; stroke-linecap: square"/>
   </g>
   <g id="line2d_74">
    <path d="M 138.436364 368.794725 
L 169.515973 368.979761 
L 181.107139 369.053152 
L 196.646944 369.008517 
L 208.365485 368.817086 
L 220.084027 369.00892 
L 239.31772 368.867429 
L 258.806163 368.796705 
L 266.576066 368.465782 
L 281.86112 369.002257 
L 297.5283 369.068928 
L 301.349563 369.058166 
L 313.068105 364.518214 
L 324.531895 364.334053 
L 336.123061 369.36 
L 747.163636 369.36 
L 747.163636 369.36 
" clip-path="url(#p866f539afd)" style="fill: none; stroke: #e31a1c; stroke-width: 1.5; stroke-linecap: square"/>
   </g>
   <g id="line2d_75">
    <path d="M 138.436364 369.36 
L 747.163636 369.36 
L 747.163636 369.36 
" clip-path="url(#p866f539afd)" style="fill: none; stroke: #fdbf6f; stroke-width: 1.5; stroke-linecap: square"/>
   </g>
   <g id="line2d_76">
    <path d="M 138.436364 369.36 
L 747.163636 369.36 
L 747.163636 369.36 
" clip-path="url(#p866f539afd)" style="fill: none; stroke: #ff7f00; stroke-width: 1.5; stroke-linecap: square"/>
   </g>
   <g id="line2d_77">
    <path d="M 138.436364 369.36 
L 712.262763 369.288681 
L 723.981305 369.151746 
L 747.163636 369.102844 
L 747.163636 369.102844 
" clip-path="url(#p866f539afd)" style="fill: none; stroke: #cab2d6; stroke-width: 1.5; stroke-linecap: square"/>
   </g>
   <g id="line2d_78">
    <path d="M 138.436364 272.164508 
L 150.02753 269.502662 
L 161.746071 265.931104 
L 177.413251 266.262607 
L 185.055778 266.510553 
L 196.646944 263.770397 
L 208.365485 261.37921 
L 220.084027 261.48065 
L 231.547817 258.496109 
L 243.138983 258.978014 
L 254.857524 258.111949 
L 266.576066 247.156366 
L 270.524705 243.279087 
L 274.091217 239.401808 
L 278.039856 235.524529 
L 289.631022 237.025663 
L 301.349563 239.793278 
L 313.068105 237.441604 
L 324.531895 237.494298 
L 336.123061 233.386976 
L 347.841602 233.24138 
L 363.508783 230.19337 
L 382.742476 226.052608 
L 394.461017 224.177316 
L 406.179558 216.86707 
L 417.643349 216.506406 
L 429.234515 229.222041 
L 440.953056 226.538595 
L 444.901695 240.255304 
L 448.722958 253.972013 
L 452.671597 267.688722 
L 464.135388 264.908248 
L 475.726554 264.526566 
L 487.445095 263.066699 
L 499.163636 260.497852 
L 503.112275 256.717356 
L 506.678788 252.936859 
L 510.627427 249.156363 
L 522.218593 245.430335 
L 533.937134 250.906242 
L 545.655675 241.652911 
L 549.604314 244.154318 
L 553.298202 246.655725 
L 557.246841 249.157132 
L 568.838007 247.567485 
L 580.556549 248.680063 
L 592.27509 249.069739 
L 603.73888 250.524254 
L 615.330046 244.952706 
L 627.048588 246.052111 
L 638.767129 248.222527 
L 650.230919 248.566383 
L 661.822085 244.695848 
L 673.540627 241.997587 
L 677.489266 231.386999 
L 681.310529 220.776411 
L 685.259168 210.165823 
L 689.207807 207.736446 
L 692.774319 205.30707 
L 696.722958 202.877693 
L 700.544222 213.046675 
L 704.492861 223.215657 
L 708.314124 233.38464 
L 716.211402 210.930898 
L 720.032666 199.704027 
L 731.751207 185.664232 
L 743.342373 180.410081 
L 747.163636 176.773021 
L 747.163636 176.773021 
" clip-path="url(#p866f539afd)" style="fill: none; stroke: #6a3d9a; stroke-width: 1.5; stroke-linecap: square"/>
   </g>
   <g id="line2d_79">
    <path d="M 138.436364 369.291565 
L 747.163636 369.210911 
L 747.163636 369.210911 
" clip-path="url(#p866f539afd)" style="fill: none; stroke: #ffff99; stroke-width: 1.5; stroke-linecap: square"/>
   </g>
   <g id="line2d_80">
    <path d="M 138.436364 361.730403 
L 153.976168 361.034176 
L 161.746071 360.814577 
L 177.413251 360.012001 
L 239.31772 357.718507 
L 243.138983 357.649719 
L 254.857524 356.671981 
L 266.576066 357.700592 
L 344.020339 360.848868 
L 359.560144 361.344228 
L 371.15131 362.368801 
L 382.742476 362.872388 
L 402.230919 364.284569 
L 410.128197 364.845505 
L 433.183154 366.744338 
L 452.671597 367.363116 
L 487.445095 367.852358 
L 499.163636 367.823525 
L 503.112275 366.257248 
L 506.678788 364.69097 
L 510.627427 363.124693 
L 530.115871 362.87613 
L 545.655675 362.846317 
L 576.735285 363.400812 
L 584.505187 363.541581 
L 603.73888 363.580191 
L 619.278685 363.484911 
L 689.207807 362.224058 
L 731.751207 361.519932 
L 747.163636 360.864087 
L 747.163636 360.864087 
" clip-path="url(#p866f539afd)" style="fill: none; stroke: #b15928; stroke-width: 1.5; stroke-linecap: square"/>
   </g>
   <g id="line2d_81">
    <path d="M 138.436364 314.559313 
L 153.976168 314.655544 
L 165.69471 314.386037 
L 181.107139 313.844293 
L 185.055778 313.731478 
L 196.646944 313.012292 
L 208.365485 312.579879 
L 231.547817 310.844294 
L 251.036261 312.725403 
L 254.857524 313.136825 
L 278.039856 289.995072 
L 289.631022 292.075057 
L 301.349563 295.953906 
L 313.068105 294.174068 
L 328.353159 295.0233 
L 340.0717 295.457377 
L 347.841602 295.882971 
L 371.15131 295.579763 
L 394.461017 294.359446 
L 406.179558 288.715515 
L 417.643349 290.077509 
L 429.234515 291.835829 
L 440.953056 292.52704 
L 444.901695 305.378687 
L 448.722958 318.230334 
L 452.671597 331.08198 
L 464.135388 330.875846 
L 479.675193 331.104063 
L 487.445095 331.116388 
L 503.112275 329.984417 
L 510.627427 329.281221 
L 522.218593 327.693366 
L 533.937134 326.724301 
L 545.655675 325.411732 
L 557.246841 324.896777 
L 572.786646 322.894034 
L 588.326451 320.420445 
L 603.73888 317.84651 
L 619.278685 318.178249 
L 630.997227 318.550838 
L 650.230919 318.936495 
L 661.822085 318.134074 
L 673.540627 316.47167 
L 677.489266 306.107508 
L 681.310529 295.743346 
L 685.259168 285.379184 
L 689.207807 283.325205 
L 692.774319 281.271225 
L 696.722958 279.217246 
L 700.544222 289.902357 
L 704.492861 300.587468 
L 708.314124 311.272579 
L 716.211402 289.651938 
L 720.032666 278.841617 
L 731.751207 265.35461 
L 735.699846 263.401685 
L 739.393734 261.44876 
L 743.342373 259.495835 
L 747.163636 256.437276 
L 747.163636 256.437276 
" clip-path="url(#p866f539afd)" style="fill: none; stroke: #a6cee3; stroke-width: 1.5; stroke-linecap: square"/>
   </g>
   <g id="line2d_82">
    <path d="M 138.436364 367.770846 
L 153.976168 367.502265 
L 212.314124 367.365865 
L 224.032666 367.512943 
L 258.806163 367.34835 
L 313.068105 366.935748 
L 328.353159 366.82784 
L 359.560144 366.178804 
L 378.921212 364.536558 
L 386.691115 363.88829 
L 398.409656 363.099627 
L 417.643349 362.211584 
L 437.131793 361.699316 
L 440.953056 361.625201 
L 460.186749 361.915706 
L 483.623832 362.306085 
L 491.393734 362.337007 
L 506.678788 362.325926 
L 518.397329 362.452977 
L 526.167232 362.489089 
L 545.655675 362.48116 
L 565.016744 362.720505 
L 596.223729 363.210041 
L 638.767129 363.828361 
L 658.000822 364.218813 
L 747.163636 365.446365 
L 747.163636 365.446365 
" clip-path="url(#p866f539afd)" style="fill: none; stroke: #1f78b4; stroke-width: 1.5; stroke-linecap: square"/>
   </g>
   <g id="line2d_83">
    <path d="M 138.436364 362.747997 
L 157.924807 362.009898 
L 165.69471 361.672705 
L 188.877042 360.44471 
L 204.544222 359.752158 
L 208.365485 359.552634 
L 220.084027 360.388919 
L 254.857524 359.528623 
L 274.091217 359.788872 
L 285.809759 359.932376 
L 317.016744 360.105177 
L 382.742476 359.97877 
L 394.461017 361.005649 
L 406.179558 361.359782 
L 421.464612 361.425909 
L 440.953056 361.741658 
L 475.726554 362.186498 
L 522.218593 360.275686 
L 537.885773 360.163727 
L 607.560144 360.918968 
L 638.767129 360.819197 
L 669.719363 360.45147 
L 689.207807 360.351217 
L 708.314124 359.97153 
L 723.981305 359.552463 
L 747.163636 359.22447 
L 747.163636 359.22447 
" clip-path="url(#p866f539afd)" style="fill: none; stroke: #b2df8a; stroke-width: 1.5; stroke-linecap: square"/>
   </g>
   <g id="line2d_84">
    <path d="M 138.436364 369.233004 
L 289.631022 369.064771 
L 533.937134 368.590359 
L 665.770724 368.182199 
L 685.259168 368.148326 
L 747.163636 367.827372 
L 747.163636 367.827372 
" clip-path="url(#p866f539afd)" style="fill: none; stroke: #33a02c; stroke-width: 1.5; stroke-linecap: square"/>
   </g>
   <g id="line2d_85">
    <path d="M 138.436364 368.044938 
L 177.413251 367.717766 
L 192.825681 367.636919 
L 208.365485 367.505524 
L 220.084027 367.55583 
L 231.547817 369.36 
L 747.163636 369.36 
L 747.163636 369.36 
" clip-path="url(#p866f539afd)" style="fill: none; stroke: #fb9a99; stroke-width: 1.5; stroke-linecap: square"/>
   </g>
   <g id="line2d_86">
    <path d="M 138.436364 366.545185 
L 177.413251 366.686618 
L 224.032666 366.553258 
L 270.524705 366.493961 
L 281.86112 366.42151 
L 301.349563 366.163428 
L 324.531895 365.968311 
L 336.123061 360.642851 
L 351.790241 359.609543 
L 359.560144 359.262309 
L 371.15131 358.258851 
L 394.461017 355.613949 
L 406.179558 355.144702 
L 417.643349 355.30721 
L 429.234515 365.557528 
L 444.901695 365.167972 
L 464.135388 365.13737 
L 503.112275 365.383829 
L 565.016744 365.540005 
L 584.505187 365.652121 
L 592.27509 365.581046 
L 607.560144 365.852575 
L 642.715768 365.919346 
L 669.719363 365.87061 
L 735.699846 365.833523 
L 747.163636 365.813953 
L 747.163636 365.813953 
" clip-path="url(#p866f539afd)" style="fill: none; stroke: #e31a1c; stroke-width: 1.5; stroke-linecap: square"/>
   </g>
   <g id="line2d_87">
    <path d="M 138.436364 369.351484 
L 747.163636 369.36 
L 747.163636 369.36 
" clip-path="url(#p866f539afd)" style="fill: none; stroke: #fdbf6f; stroke-width: 1.5; stroke-linecap: square"/>
   </g>
   <g id="line2d_88">
    <path d="M 138.436364 368.69068 
L 192.825681 368.661307 
L 212.314124 368.715858 
L 224.032666 368.921549 
L 266.576066 369.032625 
L 452.671597 368.8091 
L 522.218593 368.700816 
L 533.937134 367.874794 
L 557.246841 367.322326 
L 572.786646 367.290673 
L 584.505187 367.053099 
L 596.223729 366.771498 
L 619.278685 366.569022 
L 627.048588 366.629383 
L 661.822085 365.598929 
L 723.981305 365.678545 
L 731.751207 365.872125 
L 747.163636 365.556973 
L 747.163636 365.556973 
" clip-path="url(#p866f539afd)" style="fill: none; stroke: #ff7f00; stroke-width: 1.5; stroke-linecap: square"/>
   </g>
   <g id="line2d_89">
    <path d="M 138.436364 369.202201 
L 347.841602 368.920011 
L 374.972573 368.755291 
L 398.409656 368.545338 
L 452.671597 368.208655 
L 522.218593 367.798007 
L 533.937134 368.28345 
L 580.556549 367.994595 
L 630.997227 367.785761 
L 650.230919 367.661233 
L 661.822085 366.169258 
L 685.259168 365.610125 
L 712.262763 365.443631 
L 747.163636 365.397385 
L 747.163636 365.397385 
" clip-path="url(#p866f539afd)" style="fill: none; stroke: #cab2d6; stroke-width: 1.5; stroke-linecap: square"/>
   </g>
   <g id="line2d_90">
    <path d="M 138.436364 368.751345 
L 181.107139 368.835845 
L 227.599178 368.757388 
L 328.353159 368.232407 
L 406.179558 367.807695 
L 417.643349 366.701267 
L 471.90529 366.924107 
L 526.167232 366.507712 
L 549.604314 366.345168 
L 580.556549 366.286103 
L 615.330046 368.447421 
L 630.997227 368.955924 
L 642.715768 369.114467 
L 723.981305 369.124322 
L 747.163636 369.124511 
L 747.163636 369.124511 
" clip-path="url(#p866f539afd)" style="fill: none; stroke: #6a3d9a; stroke-width: 1.5; stroke-linecap: square"/>
   </g>
   <g id="line2d_91">
    <path d="M 138.436364 369.312269 
L 572.786646 369.314561 
L 720.032666 369.316695 
L 731.751207 368.916302 
L 747.163636 368.879859 
L 747.163636 368.879859 
" clip-path="url(#p866f539afd)" style="fill: none; stroke: #ffff99; stroke-width: 1.5; stroke-linecap: square"/>
   </g>
   <g id="line2d_92">
    <path d="M 138.436364 358.879172 
L 161.746071 357.900374 
L 173.464612 361.128719 
L 196.646944 360.301727 
L 212.314124 360.585032 
L 220.084027 360.559973 
L 231.547817 358.353081 
L 243.138983 358.431578 
L 254.857524 359.017893 
L 281.86112 358.16335 
L 297.5283 357.758048 
L 309.119466 357.442194 
L 324.531895 356.97495 
L 336.123061 358.147052 
L 347.841602 358.355194 
L 359.560144 357.533262 
L 371.15131 357.287234 
L 382.742476 358.046843 
L 421.464612 357.413595 
L 429.234515 357.629238 
L 440.953056 357.455997 
L 452.671597 358.1113 
L 475.726554 358.488153 
L 491.393734 358.259563 
L 503.112275 358.158275 
L 518.397329 357.714047 
L 522.218593 357.573163 
L 533.937134 357.49504 
L 545.655675 358.362023 
L 568.838007 358.29211 
L 603.73888 357.77917 
L 623.227324 356.809496 
L 630.997227 356.538397 
L 642.715768 356.129876 
L 669.719363 354.631633 
L 681.310529 354.170408 
L 685.259168 354.029885 
L 704.492861 352.541942 
L 720.032666 351.605559 
L 735.699846 350.868891 
L 747.163636 350.120333 
L 747.163636 350.120333 
" clip-path="url(#p866f539afd)" style="fill: none; stroke: #b15928; stroke-width: 1.5; stroke-linecap: square"/>
   </g>
   <g id="line2d_93">
    <path d="M 138.436364 369.330257 
L 747.163636 369.355716 
L 747.163636 369.355716 
" clip-path="url(#p866f539afd)" style="fill: none; stroke: #a6cee3; stroke-width: 1.5; stroke-linecap: square"/>
   </g>
   <g id="line2d_94">
    <path d="M 138.436364 369.36 
L 378.921212 369.250731 
L 386.691115 369.226202 
L 413.69471 369.321159 
L 421.464612 369.28643 
L 433.183154 369.198504 
L 456.620236 369.280553 
L 495.214997 369.285594 
L 650.230919 369.36 
L 747.163636 369.36 
L 747.163636 369.36 
" clip-path="url(#p866f539afd)" style="fill: none; stroke: #1f78b4; stroke-width: 1.5; stroke-linecap: square"/>
   </g>
   <g id="line2d_95">
    <path d="M 138.436364 369.135318 
L 224.032666 369.253564 
L 340.0717 369.209162 
L 351.790241 369.127133 
L 367.202671 368.956522 
L 402.230919 368.884484 
L 425.413251 368.831486 
L 475.726554 368.741433 
L 495.214997 368.910863 
L 557.246841 368.991163 
L 568.838007 368.785708 
L 580.556549 369.36 
L 747.163636 369.36 
L 747.163636 369.36 
" clip-path="url(#p866f539afd)" style="fill: none; stroke: #b2df8a; stroke-width: 1.5; stroke-linecap: square"/>
   </g>
   <g id="line2d_96">
    <path d="M 138.436364 369.36 
L 374.972573 369.302795 
L 382.742476 369.188386 
L 402.230919 369.36 
L 747.163636 369.36 
L 747.163636 369.36 
" clip-path="url(#p866f539afd)" style="fill: none; stroke: #33a02c; stroke-width: 1.5; stroke-linecap: square"/>
   </g>
   <g id="line2d_97">
    <path d="M 138.436364 359.34853 
L 150.02753 358.308403 
L 161.746071 356.180164 
L 173.464612 355.128155 
L 185.055778 357.386263 
L 200.595583 356.529824 
L 208.365485 355.9519 
L 220.084027 355.970754 
L 231.547817 355.234693 
L 243.138983 355.158368 
L 254.857524 353.966547 
L 266.576066 354.194782 
L 289.631022 353.278702 
L 301.349563 352.17314 
L 340.0717 350.667924 
L 355.611505 350.231632 
L 359.560144 350.100424 
L 371.15131 349.342465 
L 382.742476 349.160953 
L 394.461017 348.372952 
L 406.179558 346.955703 
L 421.464612 346.124218 
L 429.234515 345.898335 
L 440.953056 342.59595 
L 452.671597 344.029693 
L 464.135388 340.751617 
L 495.214997 337.846053 
L 499.163636 337.470295 
L 503.112275 335.871281 
L 506.678788 334.272268 
L 510.627427 332.673254 
L 522.218593 331.63768 
L 533.937134 338.956001 
L 545.655675 330.488335 
L 549.604314 333.062708 
L 553.298202 335.637081 
L 557.246841 338.211453 
L 568.838007 337.727735 
L 584.505187 340.408035 
L 592.27509 341.615144 
L 603.73888 344.141605 
L 615.330046 338.521468 
L 627.048588 339.281495 
L 638.767129 341.859486 
L 650.230919 343.324778 
L 677.489266 342.91515 
L 689.207807 342.948759 
L 696.722958 343.057397 
L 712.262763 342.742132 
L 720.032666 342.698673 
L 731.751207 342.9892 
L 743.342373 345.241367 
L 747.163636 345.193811 
L 747.163636 345.193811 
" clip-path="url(#p866f539afd)" style="fill: none; stroke: #fb9a99; stroke-width: 1.5; stroke-linecap: square"/>
   </g>
   <g id="line2d_98">
    <path d="M 138.436364 359.574973 
L 177.413251 357.989123 
L 188.877042 357.816788 
L 204.544222 357.653874 
L 208.365485 357.590561 
L 220.084027 357.959196 
L 231.547817 357.86469 
L 254.857524 356.332641 
L 266.576066 358.016488 
L 289.631022 358.449513 
L 301.349563 357.627917 
L 317.016744 357.616983 
L 355.611505 356.949195 
L 367.202671 356.881942 
L 382.742476 356.85044 
L 394.461017 357.370537 
L 406.179558 357.355035 
L 417.643349 358.810304 
L 456.620236 358.093303 
L 475.726554 357.601294 
L 487.445095 357.955024 
L 499.163636 357.835768 
L 503.112275 359.283787 
L 506.678788 360.731806 
L 510.627427 362.179826 
L 537.885773 361.646814 
L 549.604314 361.621474 
L 603.73888 362.173735 
L 615.330046 362.183349 
L 627.048588 368.959226 
L 654.052183 368.937593 
L 669.719363 368.62936 
L 689.207807 368.189884 
L 747.163636 367.391185 
L 747.163636 367.391185 
" clip-path="url(#p866f539afd)" style="fill: none; stroke: #e31a1c; stroke-width: 1.5; stroke-linecap: square"/>
   </g>
   <g id="line2d_99">
    <path d="M 138.436364 364.807002 
L 185.055778 363.384424 
L 212.314124 363.543126 
L 220.084027 363.841468 
L 231.547817 363.833914 
L 247.087622 363.10366 
L 254.857524 362.636608 
L 266.576066 364.219007 
L 289.631022 364.327829 
L 301.349563 363.391216 
L 386.691115 363.653801 
L 394.461017 363.986332 
L 437.131793 363.972564 
L 471.90529 363.850889 
L 475.726554 363.860545 
L 487.445095 364.525223 
L 499.163636 364.672639 
L 503.112275 366.219409 
L 506.678788 367.766179 
L 510.627427 369.312948 
L 638.767129 369.36 
L 747.163636 369.36 
L 747.163636 369.36 
" clip-path="url(#p866f539afd)" style="fill: none; stroke: #fdbf6f; stroke-width: 1.5; stroke-linecap: square"/>
   </g>
   <g id="line2d_100">
    <path d="M 138.436364 369.36 
L 313.068105 369.280615 
L 340.0717 368.835733 
L 359.560144 368.686127 
L 444.901695 368.962898 
L 510.627427 368.919063 
L 565.016744 368.92396 
L 654.052183 368.937593 
L 669.719363 368.62936 
L 689.207807 368.189884 
L 747.163636 367.391185 
L 747.163636 367.391185 
" clip-path="url(#p866f539afd)" style="fill: none; stroke: #ff7f00; stroke-width: 1.5; stroke-linecap: square"/>
   </g>
   <g id="line2d_101">
    <path d="M 138.436364 369.359866 
L 747.163636 369.36 
L 747.163636 369.36 
" clip-path="url(#p866f539afd)" style="fill: none; stroke: #cab2d6; stroke-width: 1.5; stroke-linecap: square"/>
   </g>
   <g id="line2d_102">
    <path d="M 138.436364 364.128106 
L 177.413251 363.800218 
L 192.825681 363.73485 
L 262.627427 363.123665 
L 281.86112 363.396262 
L 317.016744 363.711305 
L 336.123061 363.627668 
L 406.179558 363.193345 
L 417.643349 364.624737 
L 440.953056 364.238943 
L 464.135388 363.796648 
L 526.167232 362.331079 
L 541.707036 362.105196 
L 549.604314 362.103795 
L 615.330046 362.613776 
L 627.048588 369.36 
L 747.163636 369.36 
L 747.163636 369.36 
" clip-path="url(#p866f539afd)" style="fill: none; stroke: #6a3d9a; stroke-width: 1.5; stroke-linecap: square"/>
   </g>
   <g id="line2d_103">
    <path d="M 138.436364 252.425736 
L 150.02753 250.355103 
L 161.746071 244.51333 
L 173.464612 242.830237 
L 188.877042 238.204243 
L 196.646944 236.081326 
L 208.365485 232.14944 
L 220.084027 237.884436 
L 224.032666 236.584612 
L 227.599178 235.284789 
L 231.547817 233.984965 
L 243.138983 232.71564 
L 254.857524 227.711884 
L 266.576066 224.6712 
L 270.524705 226.816879 
L 274.091217 228.962558 
L 278.039856 231.108238 
L 289.631022 232.136311 
L 301.349563 234.59874 
L 313.068105 231.373522 
L 324.531895 232.32442 
L 336.123061 231.157267 
L 347.841602 227.864279 
L 359.560144 230.723332 
L 363.508783 226.62001 
L 367.202671 222.516689 
L 371.15131 218.413367 
L 382.742476 211.985398 
L 394.461017 211.498895 
L 406.179558 205.700584 
L 417.643349 203.65214 
L 429.234515 203.706864 
L 440.953056 198.372993 
L 452.671597 201.240801 
L 456.620236 199.00221 
L 460.186749 196.76362 
L 464.135388 194.525029 
L 475.726554 205.199497 
L 487.445095 201.917689 
L 499.163636 201.439083 
L 510.627427 198.307857 
L 522.218593 194.896597 
L 533.937134 199.888017 
L 545.655675 193.816397 
L 549.604314 199.545253 
L 553.298202 205.27411 
L 557.246841 211.002966 
L 568.838007 210.166831 
L 580.556549 212.708189 
L 592.27509 214.387244 
L 603.73888 216.49857 
L 615.330046 230.569384 
L 627.048588 229.769821 
L 638.767129 233.706664 
L 650.230919 233.446731 
L 661.822085 224.849935 
L 673.540627 225.497976 
L 685.259168 226.726794 
L 696.722958 225.716903 
L 708.314124 225.470591 
L 720.032666 215.423236 
L 735.699846 208.999038 
L 743.342373 205.812719 
L 747.163636 204.793608 
L 747.163636 204.793608 
" clip-path="url(#p866f539afd)" style="fill: none; stroke: #ffff99; stroke-width: 1.5; stroke-linecap: square"/>
   </g>
   <g id="line2d_104">
    <path d="M 138.436364 281.257293 
L 150.02753 280.656072 
L 161.746071 277.569949 
L 173.464612 276.120368 
L 185.055778 274.202943 
L 204.544222 270.433818 
L 208.365485 269.632897 
L 220.084027 270.017856 
L 231.547817 268.956292 
L 243.138983 264.623475 
L 254.857524 266.169832 
L 266.576066 255.605999 
L 270.524705 258.574021 
L 274.091217 261.542042 
L 278.039856 264.510064 
L 289.631022 262.40332 
L 301.349563 264.489075 
L 313.068105 261.598831 
L 324.531895 261.498922 
L 336.123061 260.265774 
L 347.841602 258.084326 
L 359.560144 258.905153 
L 371.15131 253.609989 
L 382.742476 251.598125 
L 394.461017 249.920309 
L 406.179558 251.090686 
L 417.643349 250.228972 
L 429.234515 246.878535 
L 440.953056 242.056305 
L 452.671597 240.492617 
L 456.620236 238.590791 
L 460.186749 236.688966 
L 464.135388 234.78714 
L 475.726554 232.11786 
L 487.445095 230.255779 
L 499.163636 237.071237 
L 503.112275 240.957333 
L 506.678788 244.843429 
L 510.627427 248.729525 
L 522.218593 246.038571 
L 533.937134 226.822547 
L 537.885773 234.019873 
L 541.707036 241.217199 
L 545.655675 248.414525 
L 549.604314 251.762024 
L 553.298202 255.109523 
L 557.246841 258.457021 
L 568.838007 257.310551 
L 576.735285 242.172448 
L 580.556549 234.603397 
L 592.27509 240.108465 
L 603.73888 242.10367 
L 615.330046 253.370491 
L 627.048588 251.335818 
L 638.767129 248.410174 
L 661.822085 244.803476 
L 673.540627 239.138169 
L 685.259168 240.668739 
L 696.722958 241.159952 
L 708.314124 240.90899 
L 720.032666 230.929645 
L 731.751207 225.664238 
L 743.342373 223.222977 
L 747.163636 223.293328 
L 747.163636 223.293328 
" clip-path="url(#p866f539afd)" style="fill: none; stroke: #b15928; stroke-width: 1.5; stroke-linecap: square"/>
   </g>
   <g id="patch_3">
    <path d="M 108 384.48 
L 108 51.84 
" style="fill: none; stroke: #000000; stroke-width: 0.8; stroke-linejoin: miter; stroke-linecap: square"/>
   </g>
   <g id="patch_4">
    <path d="M 777.6 384.48 
L 777.6 51.84 
" style="fill: none; stroke: #000000; stroke-width: 0.8; stroke-linejoin: miter; stroke-linecap: square"/>
   </g>
   <g id="patch_5">
    <path d="M 108 384.48 
L 777.6 384.48 
" style="fill: none; stroke: #000000; stroke-width: 0.8; stroke-linejoin: miter; stroke-linecap: square"/>
   </g>
   <g id="patch_6">
    <path d="M 108 51.84 
L 777.6 51.84 
" style="fill: none; stroke: #000000; stroke-width: 0.8; stroke-linejoin: miter; stroke-linecap: square"/>
   </g>
   <g id="text_18">
    <!-- Nmero de Tarjetas de Crdito (10 Ms Usadas) -->
    <g transform="translate(254.274687 45.84) scale(0.14 -0.14)">
     <defs>
      <path id="DejaVuSans-Bold-4e" d="M 588 4666 
L 1931 4666 
L 3628 1466 
L 3628 4666 
L 4769 4666 
L 4769 0 
L 3425 0 
L 1728 3200 
L 1728 0 
L 588 0 
L 588 4666 
z
" transform="scale(0.015625)"/>
      <path id="DejaVuSans-Bold-fa" d="M 500 1363 
L 500 3500 
L 1625 3500 
L 1625 3150 
Q 1625 2866 1622 2436 
Q 1619 2006 1619 1863 
Q 1619 1441 1641 1255 
Q 1663 1069 1716 984 
Q 1784 875 1895 815 
Q 2006 756 2150 756 
Q 2500 756 2700 1025 
Q 2900 1294 2900 1772 
L 2900 3500 
L 4019 3500 
L 4019 0 
L 2900 0 
L 2900 506 
Q 2647 200 2364 54 
Q 2081 -91 1741 -91 
Q 1134 -91 817 281 
Q 500 653 500 1363 
z
M 2778 5119 
L 3663 5119 
L 2509 3944 
L 1897 3944 
L 2778 5119 
z
" transform="scale(0.015625)"/>
      <path id="DejaVuSans-Bold-6d" d="M 3781 2919 
Q 3994 3244 4286 3414 
Q 4578 3584 4928 3584 
Q 5531 3584 5847 3212 
Q 6163 2841 6163 2131 
L 6163 0 
L 5038 0 
L 5038 1825 
Q 5041 1866 5042 1909 
Q 5044 1953 5044 2034 
Q 5044 2406 4934 2573 
Q 4825 2741 4581 2741 
Q 4263 2741 4089 2478 
Q 3916 2216 3909 1719 
L 3909 0 
L 2784 0 
L 2784 1825 
Q 2784 2406 2684 2573 
Q 2584 2741 2328 2741 
Q 2006 2741 1831 2477 
Q 1656 2213 1656 1722 
L 1656 0 
L 531 0 
L 531 3500 
L 1656 3500 
L 1656 2988 
Q 1863 3284 2130 3434 
Q 2397 3584 2719 3584 
Q 3081 3584 3359 3409 
Q 3638 3234 3781 2919 
z
" transform="scale(0.015625)"/>
      <path id="DejaVuSans-Bold-65" d="M 4031 1759 
L 4031 1441 
L 1416 1441 
Q 1456 1047 1700 850 
Q 1944 653 2381 653 
Q 2734 653 3104 758 
Q 3475 863 3866 1075 
L 3866 213 
Q 3469 63 3072 -14 
Q 2675 -91 2278 -91 
Q 1328 -91 801 392 
Q 275 875 275 1747 
Q 275 2603 792 3093 
Q 1309 3584 2216 3584 
Q 3041 3584 3536 3087 
Q 4031 2591 4031 1759 
z
M 2881 2131 
Q 2881 2450 2695 2645 
Q 2509 2841 2209 2841 
Q 1884 2841 1681 2658 
Q 1478 2475 1428 2131 
L 2881 2131 
z
" transform="scale(0.015625)"/>
      <path id="DejaVuSans-Bold-72" d="M 3138 2547 
Q 2991 2616 2845 2648 
Q 2700 2681 2553 2681 
Q 2122 2681 1889 2404 
Q 1656 2128 1656 1613 
L 1656 0 
L 538 0 
L 538 3500 
L 1656 3500 
L 1656 2925 
Q 1872 3269 2151 3426 
Q 2431 3584 2822 3584 
Q 2878 3584 2943 3579 
Q 3009 3575 3134 3559 
L 3138 2547 
z
" transform="scale(0.015625)"/>
      <path id="DejaVuSans-Bold-6f" d="M 2203 2784 
Q 1831 2784 1636 2517 
Q 1441 2250 1441 1747 
Q 1441 1244 1636 976 
Q 1831 709 2203 709 
Q 2569 709 2762 976 
Q 2956 1244 2956 1747 
Q 2956 2250 2762 2517 
Q 2569 2784 2203 2784 
z
M 2203 3584 
Q 3106 3584 3614 3096 
Q 4122 2609 4122 1747 
Q 4122 884 3614 396 
Q 3106 -91 2203 -91 
Q 1297 -91 786 396 
Q 275 884 275 1747 
Q 275 2609 786 3096 
Q 1297 3584 2203 3584 
z
" transform="scale(0.015625)"/>
      <path id="DejaVuSans-Bold-20" transform="scale(0.015625)"/>
      <path id="DejaVuSans-Bold-64" d="M 2919 2988 
L 2919 4863 
L 4044 4863 
L 4044 0 
L 2919 0 
L 2919 506 
Q 2688 197 2409 53 
Q 2131 -91 1766 -91 
Q 1119 -91 703 423 
Q 288 938 288 1747 
Q 288 2556 703 3070 
Q 1119 3584 1766 3584 
Q 2128 3584 2408 3439 
Q 2688 3294 2919 2988 
z
M 2181 722 
Q 2541 722 2730 984 
Q 2919 1247 2919 1747 
Q 2919 2247 2730 2509 
Q 2541 2772 2181 2772 
Q 1825 2772 1636 2509 
Q 1447 2247 1447 1747 
Q 1447 1247 1636 984 
Q 1825 722 2181 722 
z
" transform="scale(0.015625)"/>
      <path id="DejaVuSans-Bold-54" d="M 31 4666 
L 4331 4666 
L 4331 3756 
L 2784 3756 
L 2784 0 
L 1581 0 
L 1581 3756 
L 31 3756 
L 31 4666 
z
" transform="scale(0.015625)"/>
      <path id="DejaVuSans-Bold-61" d="M 2106 1575 
Q 1756 1575 1579 1456 
Q 1403 1338 1403 1106 
Q 1403 894 1545 773 
Q 1688 653 1941 653 
Q 2256 653 2472 879 
Q 2688 1106 2688 1447 
L 2688 1575 
L 2106 1575 
z
M 3816 1997 
L 3816 0 
L 2688 0 
L 2688 519 
Q 2463 200 2181 54 
Q 1900 -91 1497 -91 
Q 953 -91 614 226 
Q 275 544 275 1050 
Q 275 1666 698 1953 
Q 1122 2241 2028 2241 
L 2688 2241 
L 2688 2328 
Q 2688 2594 2478 2717 
Q 2269 2841 1825 2841 
Q 1466 2841 1156 2769 
Q 847 2697 581 2553 
L 581 3406 
Q 941 3494 1303 3539 
Q 1666 3584 2028 3584 
Q 2975 3584 3395 3211 
Q 3816 2838 3816 1997 
z
" transform="scale(0.015625)"/>
      <path id="DejaVuSans-Bold-6a" d="M 538 3500 
L 1656 3500 
L 1656 63 
Q 1656 -641 1318 -1011 
Q 981 -1381 341 -1381 
L -213 -1381 
L -213 -647 
L -19 -647 
Q 300 -647 419 -503 
Q 538 -359 538 63 
L 538 3500 
z
M 538 4863 
L 1656 4863 
L 1656 3950 
L 538 3950 
L 538 4863 
z
" transform="scale(0.015625)"/>
      <path id="DejaVuSans-Bold-74" d="M 1759 4494 
L 1759 3500 
L 2913 3500 
L 2913 2700 
L 1759 2700 
L 1759 1216 
Q 1759 972 1856 886 
Q 1953 800 2241 800 
L 2816 800 
L 2816 0 
L 1856 0 
Q 1194 0 917 276 
Q 641 553 641 1216 
L 641 2700 
L 84 2700 
L 84 3500 
L 641 3500 
L 641 4494 
L 1759 4494 
z
" transform="scale(0.015625)"/>
      <path id="DejaVuSans-Bold-73" d="M 3272 3391 
L 3272 2541 
Q 2913 2691 2578 2766 
Q 2244 2841 1947 2841 
Q 1628 2841 1473 2761 
Q 1319 2681 1319 2516 
Q 1319 2381 1436 2309 
Q 1553 2238 1856 2203 
L 2053 2175 
Q 2913 2066 3209 1816 
Q 3506 1566 3506 1031 
Q 3506 472 3093 190 
Q 2681 -91 1863 -91 
Q 1516 -91 1145 -36 
Q 775 19 384 128 
L 384 978 
Q 719 816 1070 734 
Q 1422 653 1784 653 
Q 2113 653 2278 743 
Q 2444 834 2444 1013 
Q 2444 1163 2330 1236 
Q 2216 1309 1875 1350 
L 1678 1375 
Q 931 1469 631 1722 
Q 331 1975 331 2491 
Q 331 3047 712 3315 
Q 1094 3584 1881 3584 
Q 2191 3584 2531 3537 
Q 2872 3491 3272 3391 
z
" transform="scale(0.015625)"/>
      <path id="DejaVuSans-Bold-43" d="M 4288 256 
Q 3956 84 3597 -3 
Q 3238 -91 2847 -91 
Q 1681 -91 1000 561 
Q 319 1213 319 2328 
Q 319 3447 1000 4098 
Q 1681 4750 2847 4750 
Q 3238 4750 3597 4662 
Q 3956 4575 4288 4403 
L 4288 3438 
Q 3953 3666 3628 3772 
Q 3303 3878 2944 3878 
Q 2300 3878 1931 3465 
Q 1563 3053 1563 2328 
Q 1563 1606 1931 1193 
Q 2300 781 2944 781 
Q 3303 781 3628 887 
Q 3953 994 4288 1222 
L 4288 256 
z
" transform="scale(0.015625)"/>
      <path id="DejaVuSans-Bold-e9" d="M 4031 1759 
L 4031 1441 
L 1416 1441 
Q 1456 1047 1700 850 
Q 1944 653 2381 653 
Q 2734 653 3104 758 
Q 3475 863 3866 1075 
L 3866 213 
Q 3469 63 3072 -14 
Q 2675 -91 2278 -91 
Q 1328 -91 801 392 
Q 275 875 275 1747 
Q 275 2603 792 3093 
Q 1309 3584 2216 3584 
Q 3041 3584 3536 3087 
Q 4031 2591 4031 1759 
z
M 2881 2131 
Q 2881 2450 2695 2645 
Q 2509 2841 2209 2841 
Q 1884 2841 1681 2658 
Q 1478 2475 1428 2131 
L 2881 2131 
z
M 2700 5119 
L 3584 5119 
L 2431 3944 
L 1819 3944 
L 2700 5119 
z
" transform="scale(0.015625)"/>
      <path id="DejaVuSans-Bold-69" d="M 538 3500 
L 1656 3500 
L 1656 0 
L 538 0 
L 538 3500 
z
M 538 4863 
L 1656 4863 
L 1656 3950 
L 538 3950 
L 538 4863 
z
" transform="scale(0.015625)"/>
      <path id="DejaVuSans-Bold-28" d="M 2413 -844 
L 1484 -844 
Q 1006 -72 778 623 
Q 550 1319 550 2003 
Q 550 2688 779 3389 
Q 1009 4091 1484 4856 
L 2413 4856 
Q 2013 4116 1813 3408 
Q 1613 2700 1613 2009 
Q 1613 1319 1811 609 
Q 2009 -100 2413 -844 
z
" transform="scale(0.015625)"/>
      <path id="DejaVuSans-Bold-31" d="M 750 831 
L 1813 831 
L 1813 3847 
L 722 3622 
L 722 4441 
L 1806 4666 
L 2950 4666 
L 2950 831 
L 4013 831 
L 4013 0 
L 750 0 
L 750 831 
z
" transform="scale(0.015625)"/>
      <path id="DejaVuSans-Bold-30" d="M 2944 2338 
Q 2944 3213 2780 3570 
Q 2616 3928 2228 3928 
Q 1841 3928 1675 3570 
Q 1509 3213 1509 2338 
Q 1509 1453 1675 1090 
Q 1841 728 2228 728 
Q 2613 728 2778 1090 
Q 2944 1453 2944 2338 
z
M 4147 2328 
Q 4147 1169 3647 539 
Q 3147 -91 2228 -91 
Q 1306 -91 806 539 
Q 306 1169 306 2328 
Q 306 3491 806 4120 
Q 1306 4750 2228 4750 
Q 3147 4750 3647 4120 
Q 4147 3491 4147 2328 
z
" transform="scale(0.015625)"/>
      <path id="DejaVuSans-Bold-4d" d="M 588 4666 
L 2119 4666 
L 3181 2169 
L 4250 4666 
L 5778 4666 
L 5778 0 
L 4641 0 
L 4641 3413 
L 3566 897 
L 2803 897 
L 1728 3413 
L 1728 0 
L 588 0 
L 588 4666 
z
" transform="scale(0.015625)"/>
      <path id="DejaVuSans-Bold-e1" d="M 2106 1575 
Q 1756 1575 1579 1456 
Q 1403 1338 1403 1106 
Q 1403 894 1545 773 
Q 1688 653 1941 653 
Q 2256 653 2472 879 
Q 2688 1106 2688 1447 
L 2688 1575 
L 2106 1575 
z
M 3816 1997 
L 3816 0 
L 2688 0 
L 2688 519 
Q 2463 200 2181 54 
Q 1900 -91 1497 -91 
Q 953 -91 614 226 
Q 275 544 275 1050 
Q 275 1666 698 1953 
Q 1122 2241 2028 2241 
L 2688 2241 
L 2688 2328 
Q 2688 2594 2478 2717 
Q 2269 2841 1825 2841 
Q 1466 2841 1156 2769 
Q 847 2697 581 2553 
L 581 3406 
Q 941 3494 1303 3539 
Q 1666 3584 2028 3584 
Q 2975 3584 3395 3211 
Q 3816 2838 3816 1997 
z
M 2603 5119 
L 3488 5119 
L 2334 3944 
L 1722 3944 
L 2603 5119 
z
" transform="scale(0.015625)"/>
      <path id="DejaVuSans-Bold-55" d="M 588 4666 
L 1791 4666 
L 1791 1869 
Q 1791 1291 1980 1042 
Q 2169 794 2597 794 
Q 3028 794 3217 1042 
Q 3406 1291 3406 1869 
L 3406 4666 
L 4609 4666 
L 4609 1869 
Q 4609 878 4112 393 
Q 3616 -91 2597 -91 
Q 1581 -91 1084 393 
Q 588 878 588 1869 
L 588 4666 
z
" transform="scale(0.015625)"/>
      <path id="DejaVuSans-Bold-29" d="M 513 -844 
Q 913 -100 1113 609 
Q 1313 1319 1313 2009 
Q 1313 2700 1113 3408 
Q 913 4116 513 4856 
L 1441 4856 
Q 1916 4091 2145 3389 
Q 2375 2688 2375 2003 
Q 2375 1319 2147 623 
Q 1919 -72 1441 -844 
L 513 -844 
z
" transform="scale(0.015625)"/>
     </defs>
     <use xlink:href="#DejaVuSans-Bold-4e"/>
     <use xlink:href="#DejaVuSans-Bold-fa" transform="translate(83.691406 0)"/>
     <use xlink:href="#DejaVuSans-Bold-6d" transform="translate(154.882812 0)"/>
     <use xlink:href="#DejaVuSans-Bold-65" transform="translate(259.082031 0)"/>
     <use xlink:href="#DejaVuSans-Bold-72" transform="translate(326.904297 0)"/>
     <use xlink:href="#DejaVuSans-Bold-6f" transform="translate(376.220703 0)"/>
     <use xlink:href="#DejaVuSans-Bold-20" transform="translate(444.921875 0)"/>
     <use xlink:href="#DejaVuSans-Bold-64" transform="translate(479.736328 0)"/>
     <use xlink:href="#DejaVuSans-Bold-65" transform="translate(551.318359 0)"/>
     <use xlink:href="#DejaVuSans-Bold-20" transform="translate(619.140625 0)"/>
     <use xlink:href="#DejaVuSans-Bold-54" transform="translate(653.955078 0)"/>
     <use xlink:href="#DejaVuSans-Bold-61" transform="translate(709.292969 0)"/>
     <use xlink:href="#DejaVuSans-Bold-72" transform="translate(776.773438 0)"/>
     <use xlink:href="#DejaVuSans-Bold-6a" transform="translate(826.089844 0)"/>
     <use xlink:href="#DejaVuSans-Bold-65" transform="translate(860.367188 0)"/>
     <use xlink:href="#DejaVuSans-Bold-74" transform="translate(928.189453 0)"/>
     <use xlink:href="#DejaVuSans-Bold-61" transform="translate(975.992188 0)"/>
     <use xlink:href="#DejaVuSans-Bold-73" transform="translate(1043.472656 0)"/>
     <use xlink:href="#DejaVuSans-Bold-20" transform="translate(1102.994141 0)"/>
     <use xlink:href="#DejaVuSans-Bold-64" transform="translate(1137.808594 0)"/>
     <use xlink:href="#DejaVuSans-Bold-65" transform="translate(1209.390625 0)"/>
     <use xlink:href="#DejaVuSans-Bold-20" transform="translate(1277.212891 0)"/>
     <use xlink:href="#DejaVuSans-Bold-43" transform="translate(1312.027344 0)"/>
     <use xlink:href="#DejaVuSans-Bold-72" transform="translate(1385.416016 0)"/>
     <use xlink:href="#DejaVuSans-Bold-e9" transform="translate(1434.732422 0)"/>
     <use xlink:href="#DejaVuSans-Bold-64" transform="translate(1502.554688 0)"/>
     <use xlink:href="#DejaVuSans-Bold-69" transform="translate(1574.136719 0)"/>
     <use xlink:href="#DejaVuSans-Bold-74" transform="translate(1608.414062 0)"/>
     <use xlink:href="#DejaVuSans-Bold-6f" transform="translate(1656.216797 0)"/>
     <use xlink:href="#DejaVuSans-Bold-20" transform="translate(1724.917969 0)"/>
     <use xlink:href="#DejaVuSans-Bold-28" transform="translate(1759.732422 0)"/>
     <use xlink:href="#DejaVuSans-Bold-31" transform="translate(1805.435547 0)"/>
     <use xlink:href="#DejaVuSans-Bold-30" transform="translate(1875.015625 0)"/>
     <use xlink:href="#DejaVuSans-Bold-20" transform="translate(1944.595703 0)"/>
     <use xlink:href="#DejaVuSans-Bold-4d" transform="translate(1979.410156 0)"/>
     <use xlink:href="#DejaVuSans-Bold-e1" transform="translate(2078.921875 0)"/>
     <use xlink:href="#DejaVuSans-Bold-73" transform="translate(2146.402344 0)"/>
     <use xlink:href="#DejaVuSans-Bold-20" transform="translate(2205.923828 0)"/>
     <use xlink:href="#DejaVuSans-Bold-55" transform="translate(2240.738281 0)"/>
     <use xlink:href="#DejaVuSans-Bold-73" transform="translate(2321.939453 0)"/>
     <use xlink:href="#DejaVuSans-Bold-61" transform="translate(2381.460938 0)"/>
     <use xlink:href="#DejaVuSans-Bold-64" transform="translate(2448.941406 0)"/>
     <use xlink:href="#DejaVuSans-Bold-61" transform="translate(2520.523438 0)"/>
     <use xlink:href="#DejaVuSans-Bold-73" transform="translate(2588.003906 0)"/>
     <use xlink:href="#DejaVuSans-Bold-29" transform="translate(2647.525391 0)"/>
    </g>
   </g>
  </g>
 </g>
 <defs>
  <clipPath id="p866f539afd">
   <rect x="108" y="51.84" width="669.6" height="332.64"/>
  </clipPath>
 </defs>
</svg>
