<?xml version="1.0" encoding="utf-8" standalone="no"?>
<!DOCTYPE svg PUBLIC "-//W3C//DTD SVG 1.1//EN"
  "http://www.w3.org/Graphics/SVG/1.1/DTD/svg11.dtd">
<svg xmlns:xlink="http://www.w3.org/1999/xlink" width="864pt" height="432pt" viewBox="0 0 864 432" xmlns="http://www.w3.org/2000/svg" version="1.1">
 <metadata>
  <rdf:RDF xmlns:dc="http://purl.org/dc/elements/1.1/" xmlns:cc="http://creativecommons.org/ns#" xmlns:rdf="http://www.w3.org/1999/02/22-rdf-syntax-ns#">
   <cc:Work>
    <dc:type rdf:resource="http://purl.org/dc/dcmitype/StillImage"/>
    <dc:date>2025-03-02T13:17:24.340320</dc:date>
    <dc:format>image/svg+xml</dc:format>
    <dc:creator>
     <cc:Agent>
      <dc:title>Matplotlib v3.10.0, https://matplotlib.org/</dc:title>
     </cc:Agent>
    </dc:creator>
   </cc:Work>
  </rdf:RDF>
 </metadata>
 <defs>
  <style type="text/css">*{stroke-linejoin: round; stroke-linecap: butt}</style>
 </defs>
 <g id="figure_1">
  <g id="patch_1">
   <path d="M 0 432 
L 864 432 
L 864 0 
L 0 0 
z
" style="fill: #ffffff"/>
  </g>
  <g id="axes_1">
   <g id="patch_2">
    <path d="M 108 384.48 
L 777.6 384.48 
L 777.6 51.84 
L 108 51.84 
z
" style="fill: #ffffff"/>
   </g>
   <g id="matplotlib.axis_1">
    <g id="xtick_1">
     <g id="line2d_1">
      <path d="M 173.464612 384.48 
L 173.464612 51.84 
" clip-path="url(#p5d978a46d1)" style="fill: none; stroke-dasharray: 2.96,1.28; stroke-dashoffset: 0; stroke: #b0b0b0; stroke-opacity: 0.5; stroke-width: 0.8"/>
     </g>
     <g id="line2d_2">
      <defs>
       <path id="me913999b20" d="M 0 0 
L 0 3.5 
" style="stroke: #000000; stroke-width: 0.8"/>
      </defs>
      <g>
       <use xlink:href="#me913999b20" x="173.464612" y="384.48" style="stroke: #000000; stroke-width: 0.8"/>
      </g>
     </g>
     <g id="text_1">
      <!-- 2012 -->
      <g transform="translate(160.739612 399.078438) scale(0.1 -0.1)">
       <defs>
        <path id="DejaVuSans-32" d="M 1228 531 
L 3431 531 
L 3431 0 
L 469 0 
L 469 531 
Q 828 903 1448 1529 
Q 2069 2156 2228 2338 
Q 2531 2678 2651 2914 
Q 2772 3150 2772 3378 
Q 2772 3750 2511 3984 
Q 2250 4219 1831 4219 
Q 1534 4219 1204 4116 
Q 875 4013 500 3803 
L 500 4441 
Q 881 4594 1212 4672 
Q 1544 4750 1819 4750 
Q 2544 4750 2975 4387 
Q 3406 4025 3406 3419 
Q 3406 3131 3298 2873 
Q 3191 2616 2906 2266 
Q 2828 2175 2409 1742 
Q 1991 1309 1228 531 
z
" transform="scale(0.015625)"/>
        <path id="DejaVuSans-30" d="M 2034 4250 
Q 1547 4250 1301 3770 
Q 1056 3291 1056 2328 
Q 1056 1369 1301 889 
Q 1547 409 2034 409 
Q 2525 409 2770 889 
Q 3016 1369 3016 2328 
Q 3016 3291 2770 3770 
Q 2525 4250 2034 4250 
z
M 2034 4750 
Q 2819 4750 3233 4129 
Q 3647 3509 3647 2328 
Q 3647 1150 3233 529 
Q 2819 -91 2034 -91 
Q 1250 -91 836 529 
Q 422 1150 422 2328 
Q 422 3509 836 4129 
Q 1250 4750 2034 4750 
z
" transform="scale(0.015625)"/>
        <path id="DejaVuSans-31" d="M 794 531 
L 1825 531 
L 1825 4091 
L 703 3866 
L 703 4441 
L 1819 4666 
L 2450 4666 
L 2450 531 
L 3481 531 
L 3481 0 
L 794 0 
L 794 531 
z
" transform="scale(0.015625)"/>
       </defs>
       <use xlink:href="#DejaVuSans-32"/>
       <use xlink:href="#DejaVuSans-30" transform="translate(63.623047 0)"/>
       <use xlink:href="#DejaVuSans-31" transform="translate(127.246094 0)"/>
       <use xlink:href="#DejaVuSans-32" transform="translate(190.869141 0)"/>
      </g>
     </g>
    </g>
    <g id="xtick_2">
     <g id="line2d_3">
      <path d="M 266.576066 384.48 
L 266.576066 51.84 
" clip-path="url(#p5d978a46d1)" style="fill: none; stroke-dasharray: 2.96,1.28; stroke-dashoffset: 0; stroke: #b0b0b0; stroke-opacity: 0.5; stroke-width: 0.8"/>
     </g>
     <g id="line2d_4">
      <g>
       <use xlink:href="#me913999b20" x="266.576066" y="384.48" style="stroke: #000000; stroke-width: 0.8"/>
      </g>
     </g>
     <g id="text_2">
      <!-- 2014 -->
      <g transform="translate(253.851066 399.078438) scale(0.1 -0.1)">
       <defs>
        <path id="DejaVuSans-34" d="M 2419 4116 
L 825 1625 
L 2419 1625 
L 2419 4116 
z
M 2253 4666 
L 3047 4666 
L 3047 1625 
L 3713 1625 
L 3713 1100 
L 3047 1100 
L 3047 0 
L 2419 0 
L 2419 1100 
L 313 1100 
L 313 1709 
L 2253 4666 
z
" transform="scale(0.015625)"/>
       </defs>
       <use xlink:href="#DejaVuSans-32"/>
       <use xlink:href="#DejaVuSans-30" transform="translate(63.623047 0)"/>
       <use xlink:href="#DejaVuSans-31" transform="translate(127.246094 0)"/>
       <use xlink:href="#DejaVuSans-34" transform="translate(190.869141 0)"/>
      </g>
     </g>
    </g>
    <g id="xtick_3">
     <g id="line2d_5">
      <path d="M 359.560144 384.48 
L 359.560144 51.84 
" clip-path="url(#p5d978a46d1)" style="fill: none; stroke-dasharray: 2.96,1.28; stroke-dashoffset: 0; stroke: #b0b0b0; stroke-opacity: 0.5; stroke-width: 0.8"/>
     </g>
     <g id="line2d_6">
      <g>
       <use xlink:href="#me913999b20" x="359.560144" y="384.48" style="stroke: #000000; stroke-width: 0.8"/>
      </g>
     </g>
     <g id="text_3">
      <!-- 2016 -->
      <g transform="translate(346.835144 399.078438) scale(0.1 -0.1)">
       <defs>
        <path id="DejaVuSans-36" d="M 2113 2584 
Q 1688 2584 1439 2293 
Q 1191 2003 1191 1497 
Q 1191 994 1439 701 
Q 1688 409 2113 409 
Q 2538 409 2786 701 
Q 3034 994 3034 1497 
Q 3034 2003 2786 2293 
Q 2538 2584 2113 2584 
z
M 3366 4563 
L 3366 3988 
Q 3128 4100 2886 4159 
Q 2644 4219 2406 4219 
Q 1781 4219 1451 3797 
Q 1122 3375 1075 2522 
Q 1259 2794 1537 2939 
Q 1816 3084 2150 3084 
Q 2853 3084 3261 2657 
Q 3669 2231 3669 1497 
Q 3669 778 3244 343 
Q 2819 -91 2113 -91 
Q 1303 -91 875 529 
Q 447 1150 447 2328 
Q 447 3434 972 4092 
Q 1497 4750 2381 4750 
Q 2619 4750 2861 4703 
Q 3103 4656 3366 4563 
z
" transform="scale(0.015625)"/>
       </defs>
       <use xlink:href="#DejaVuSans-32"/>
       <use xlink:href="#DejaVuSans-30" transform="translate(63.623047 0)"/>
       <use xlink:href="#DejaVuSans-31" transform="translate(127.246094 0)"/>
       <use xlink:href="#DejaVuSans-36" transform="translate(190.869141 0)"/>
      </g>
     </g>
    </g>
    <g id="xtick_4">
     <g id="line2d_7">
      <path d="M 452.671597 384.48 
L 452.671597 51.84 
" clip-path="url(#p5d978a46d1)" style="fill: none; stroke-dasharray: 2.96,1.28; stroke-dashoffset: 0; stroke: #b0b0b0; stroke-opacity: 0.5; stroke-width: 0.8"/>
     </g>
     <g id="line2d_8">
      <g>
       <use xlink:href="#me913999b20" x="452.671597" y="384.48" style="stroke: #000000; stroke-width: 0.8"/>
      </g>
     </g>
     <g id="text_4">
      <!-- 2018 -->
      <g transform="translate(439.946597 399.078438) scale(0.1 -0.1)">
       <defs>
        <path id="DejaVuSans-38" d="M 2034 2216 
Q 1584 2216 1326 1975 
Q 1069 1734 1069 1313 
Q 1069 891 1326 650 
Q 1584 409 2034 409 
Q 2484 409 2743 651 
Q 3003 894 3003 1313 
Q 3003 1734 2745 1975 
Q 2488 2216 2034 2216 
z
M 1403 2484 
Q 997 2584 770 2862 
Q 544 3141 544 3541 
Q 544 4100 942 4425 
Q 1341 4750 2034 4750 
Q 2731 4750 3128 4425 
Q 3525 4100 3525 3541 
Q 3525 3141 3298 2862 
Q 3072 2584 2669 2484 
Q 3125 2378 3379 2068 
Q 3634 1759 3634 1313 
Q 3634 634 3220 271 
Q 2806 -91 2034 -91 
Q 1263 -91 848 271 
Q 434 634 434 1313 
Q 434 1759 690 2068 
Q 947 2378 1403 2484 
z
M 1172 3481 
Q 1172 3119 1398 2916 
Q 1625 2713 2034 2713 
Q 2441 2713 2670 2916 
Q 2900 3119 2900 3481 
Q 2900 3844 2670 4047 
Q 2441 4250 2034 4250 
Q 1625 4250 1398 4047 
Q 1172 3844 1172 3481 
z
" transform="scale(0.015625)"/>
       </defs>
       <use xlink:href="#DejaVuSans-32"/>
       <use xlink:href="#DejaVuSans-30" transform="translate(63.623047 0)"/>
       <use xlink:href="#DejaVuSans-31" transform="translate(127.246094 0)"/>
       <use xlink:href="#DejaVuSans-38" transform="translate(190.869141 0)"/>
      </g>
     </g>
    </g>
    <g id="xtick_5">
     <g id="line2d_9">
      <path d="M 545.655675 384.48 
L 545.655675 51.84 
" clip-path="url(#p5d978a46d1)" style="fill: none; stroke-dasharray: 2.96,1.28; stroke-dashoffset: 0; stroke: #b0b0b0; stroke-opacity: 0.5; stroke-width: 0.8"/>
     </g>
     <g id="line2d_10">
      <g>
       <use xlink:href="#me913999b20" x="545.655675" y="384.48" style="stroke: #000000; stroke-width: 0.8"/>
      </g>
     </g>
     <g id="text_5">
      <!-- 2020 -->
      <g transform="translate(532.930675 399.078438) scale(0.1 -0.1)">
       <use xlink:href="#DejaVuSans-32"/>
       <use xlink:href="#DejaVuSans-30" transform="translate(63.623047 0)"/>
       <use xlink:href="#DejaVuSans-32" transform="translate(127.246094 0)"/>
       <use xlink:href="#DejaVuSans-30" transform="translate(190.869141 0)"/>
      </g>
     </g>
    </g>
    <g id="xtick_6">
     <g id="line2d_11">
      <path d="M 638.767129 384.48 
L 638.767129 51.84 
" clip-path="url(#p5d978a46d1)" style="fill: none; stroke-dasharray: 2.96,1.28; stroke-dashoffset: 0; stroke: #b0b0b0; stroke-opacity: 0.5; stroke-width: 0.8"/>
     </g>
     <g id="line2d_12">
      <g>
       <use xlink:href="#me913999b20" x="638.767129" y="384.48" style="stroke: #000000; stroke-width: 0.8"/>
      </g>
     </g>
     <g id="text_6">
      <!-- 2022 -->
      <g transform="translate(626.042129 399.078438) scale(0.1 -0.1)">
       <use xlink:href="#DejaVuSans-32"/>
       <use xlink:href="#DejaVuSans-30" transform="translate(63.623047 0)"/>
       <use xlink:href="#DejaVuSans-32" transform="translate(127.246094 0)"/>
       <use xlink:href="#DejaVuSans-32" transform="translate(190.869141 0)"/>
      </g>
     </g>
    </g>
    <g id="xtick_7">
     <g id="line2d_13">
      <path d="M 731.751207 384.48 
L 731.751207 51.84 
" clip-path="url(#p5d978a46d1)" style="fill: none; stroke-dasharray: 2.96,1.28; stroke-dashoffset: 0; stroke: #b0b0b0; stroke-opacity: 0.5; stroke-width: 0.8"/>
     </g>
     <g id="line2d_14">
      <g>
       <use xlink:href="#me913999b20" x="731.751207" y="384.48" style="stroke: #000000; stroke-width: 0.8"/>
      </g>
     </g>
     <g id="text_7">
      <!-- 2024 -->
      <g transform="translate(719.026207 399.078438) scale(0.1 -0.1)">
       <use xlink:href="#DejaVuSans-32"/>
       <use xlink:href="#DejaVuSans-30" transform="translate(63.623047 0)"/>
       <use xlink:href="#DejaVuSans-32" transform="translate(127.246094 0)"/>
       <use xlink:href="#DejaVuSans-34" transform="translate(190.869141 0)"/>
      </g>
     </g>
    </g>
   </g>
   <g id="matplotlib.axis_2">
    <g id="ytick_1">
     <g id="line2d_15">
      <path d="M 108 369.36 
L 777.6 369.36 
" clip-path="url(#p5d978a46d1)" style="fill: none; stroke-dasharray: 2.96,1.28; stroke-dashoffset: 0; stroke: #b0b0b0; stroke-opacity: 0.5; stroke-width: 0.8"/>
     </g>
     <g id="line2d_16">
      <defs>
       <path id="m01325ffdbe" d="M 0 0 
L -3.5 0 
" style="stroke: #000000; stroke-width: 0.8"/>
      </defs>
      <g>
       <use xlink:href="#m01325ffdbe" x="108" y="369.36" style="stroke: #000000; stroke-width: 0.8"/>
      </g>
     </g>
     <g id="text_8">
      <!-- 0.0 -->
      <g transform="translate(85.096875 373.159219) scale(0.1 -0.1)">
       <defs>
        <path id="DejaVuSans-2e" d="M 684 794 
L 1344 794 
L 1344 0 
L 684 0 
L 684 794 
z
" transform="scale(0.015625)"/>
       </defs>
       <use xlink:href="#DejaVuSans-30"/>
       <use xlink:href="#DejaVuSans-2e" transform="translate(63.623047 0)"/>
       <use xlink:href="#DejaVuSans-30" transform="translate(95.410156 0)"/>
      </g>
     </g>
    </g>
    <g id="ytick_2">
     <g id="line2d_17">
      <path d="M 108 328.622435 
L 777.6 328.622435 
" clip-path="url(#p5d978a46d1)" style="fill: none; stroke-dasharray: 2.96,1.28; stroke-dashoffset: 0; stroke: #b0b0b0; stroke-opacity: 0.5; stroke-width: 0.8"/>
     </g>
     <g id="line2d_18">
      <g>
       <use xlink:href="#m01325ffdbe" x="108" y="328.622435" style="stroke: #000000; stroke-width: 0.8"/>
      </g>
     </g>
     <g id="text_9">
      <!-- 0.2 -->
      <g transform="translate(85.096875 332.421653) scale(0.1 -0.1)">
       <use xlink:href="#DejaVuSans-30"/>
       <use xlink:href="#DejaVuSans-2e" transform="translate(63.623047 0)"/>
       <use xlink:href="#DejaVuSans-32" transform="translate(95.410156 0)"/>
      </g>
     </g>
    </g>
    <g id="ytick_3">
     <g id="line2d_19">
      <path d="M 108 287.884869 
L 777.6 287.884869 
" clip-path="url(#p5d978a46d1)" style="fill: none; stroke-dasharray: 2.96,1.28; stroke-dashoffset: 0; stroke: #b0b0b0; stroke-opacity: 0.5; stroke-width: 0.8"/>
     </g>
     <g id="line2d_20">
      <g>
       <use xlink:href="#m01325ffdbe" x="108" y="287.884869" style="stroke: #000000; stroke-width: 0.8"/>
      </g>
     </g>
     <g id="text_10">
      <!-- 0.4 -->
      <g transform="translate(85.096875 291.684088) scale(0.1 -0.1)">
       <use xlink:href="#DejaVuSans-30"/>
       <use xlink:href="#DejaVuSans-2e" transform="translate(63.623047 0)"/>
       <use xlink:href="#DejaVuSans-34" transform="translate(95.410156 0)"/>
      </g>
     </g>
    </g>
    <g id="ytick_4">
     <g id="line2d_21">
      <path d="M 108 247.147304 
L 777.6 247.147304 
" clip-path="url(#p5d978a46d1)" style="fill: none; stroke-dasharray: 2.96,1.28; stroke-dashoffset: 0; stroke: #b0b0b0; stroke-opacity: 0.5; stroke-width: 0.8"/>
     </g>
     <g id="line2d_22">
      <g>
       <use xlink:href="#m01325ffdbe" x="108" y="247.147304" style="stroke: #000000; stroke-width: 0.8"/>
      </g>
     </g>
     <g id="text_11">
      <!-- 0.6 -->
      <g transform="translate(85.096875 250.946522) scale(0.1 -0.1)">
       <use xlink:href="#DejaVuSans-30"/>
       <use xlink:href="#DejaVuSans-2e" transform="translate(63.623047 0)"/>
       <use xlink:href="#DejaVuSans-36" transform="translate(95.410156 0)"/>
      </g>
     </g>
    </g>
    <g id="ytick_5">
     <g id="line2d_23">
      <path d="M 108 206.409738 
L 777.6 206.409738 
" clip-path="url(#p5d978a46d1)" style="fill: none; stroke-dasharray: 2.96,1.28; stroke-dashoffset: 0; stroke: #b0b0b0; stroke-opacity: 0.5; stroke-width: 0.8"/>
     </g>
     <g id="line2d_24">
      <g>
       <use xlink:href="#m01325ffdbe" x="108" y="206.409738" style="stroke: #000000; stroke-width: 0.8"/>
      </g>
     </g>
     <g id="text_12">
      <!-- 0.8 -->
      <g transform="translate(85.096875 210.208957) scale(0.1 -0.1)">
       <use xlink:href="#DejaVuSans-30"/>
       <use xlink:href="#DejaVuSans-2e" transform="translate(63.623047 0)"/>
       <use xlink:href="#DejaVuSans-38" transform="translate(95.410156 0)"/>
      </g>
     </g>
    </g>
    <g id="ytick_6">
     <g id="line2d_25">
      <path d="M 108 165.672173 
L 777.6 165.672173 
" clip-path="url(#p5d978a46d1)" style="fill: none; stroke-dasharray: 2.96,1.28; stroke-dashoffset: 0; stroke: #b0b0b0; stroke-opacity: 0.5; stroke-width: 0.8"/>
     </g>
     <g id="line2d_26">
      <g>
       <use xlink:href="#m01325ffdbe" x="108" y="165.672173" style="stroke: #000000; stroke-width: 0.8"/>
      </g>
     </g>
     <g id="text_13">
      <!-- 1.0 -->
      <g transform="translate(85.096875 169.471391) scale(0.1 -0.1)">
       <use xlink:href="#DejaVuSans-31"/>
       <use xlink:href="#DejaVuSans-2e" transform="translate(63.623047 0)"/>
       <use xlink:href="#DejaVuSans-30" transform="translate(95.410156 0)"/>
      </g>
     </g>
    </g>
    <g id="ytick_7">
     <g id="line2d_27">
      <path d="M 108 124.934607 
L 777.6 124.934607 
" clip-path="url(#p5d978a46d1)" style="fill: none; stroke-dasharray: 2.96,1.28; stroke-dashoffset: 0; stroke: #b0b0b0; stroke-opacity: 0.5; stroke-width: 0.8"/>
     </g>
     <g id="line2d_28">
      <g>
       <use xlink:href="#m01325ffdbe" x="108" y="124.934607" style="stroke: #000000; stroke-width: 0.8"/>
      </g>
     </g>
     <g id="text_14">
      <!-- 1.2 -->
      <g transform="translate(85.096875 128.733826) scale(0.1 -0.1)">
       <use xlink:href="#DejaVuSans-31"/>
       <use xlink:href="#DejaVuSans-2e" transform="translate(63.623047 0)"/>
       <use xlink:href="#DejaVuSans-32" transform="translate(95.410156 0)"/>
      </g>
     </g>
    </g>
    <g id="ytick_8">
     <g id="line2d_29">
      <path d="M 108 84.197042 
L 777.6 84.197042 
" clip-path="url(#p5d978a46d1)" style="fill: none; stroke-dasharray: 2.96,1.28; stroke-dashoffset: 0; stroke: #b0b0b0; stroke-opacity: 0.5; stroke-width: 0.8"/>
     </g>
     <g id="line2d_30">
      <g>
       <use xlink:href="#m01325ffdbe" x="108" y="84.197042" style="stroke: #000000; stroke-width: 0.8"/>
      </g>
     </g>
     <g id="text_15">
      <!-- 1.4 -->
      <g transform="translate(85.096875 87.99626) scale(0.1 -0.1)">
       <use xlink:href="#DejaVuSans-31"/>
       <use xlink:href="#DejaVuSans-2e" transform="translate(63.623047 0)"/>
       <use xlink:href="#DejaVuSans-34" transform="translate(95.410156 0)"/>
      </g>
     </g>
    </g>
    <g id="text_16">
     <!-- 1e7 -->
     <g transform="translate(108 48.84) scale(0.1 -0.1)">
      <defs>
       <path id="DejaVuSans-65" d="M 3597 1894 
L 3597 1613 
L 953 1613 
Q 991 1019 1311 708 
Q 1631 397 2203 397 
Q 2534 397 2845 478 
Q 3156 559 3463 722 
L 3463 178 
Q 3153 47 2828 -22 
Q 2503 -91 2169 -91 
Q 1331 -91 842 396 
Q 353 884 353 1716 
Q 353 2575 817 3079 
Q 1281 3584 2069 3584 
Q 2775 3584 3186 3129 
Q 3597 2675 3597 1894 
z
M 3022 2063 
Q 3016 2534 2758 2815 
Q 2500 3097 2075 3097 
Q 1594 3097 1305 2825 
Q 1016 2553 972 2059 
L 3022 2063 
z
" transform="scale(0.015625)"/>
       <path id="DejaVuSans-37" d="M 525 4666 
L 3525 4666 
L 3525 4397 
L 1831 0 
L 1172 0 
L 2766 4134 
L 525 4134 
L 525 4666 
z
" transform="scale(0.015625)"/>
      </defs>
      <use xlink:href="#DejaVuSans-31"/>
      <use xlink:href="#DejaVuSans-65" transform="translate(63.623047 0)"/>
      <use xlink:href="#DejaVuSans-37" transform="translate(125.146484 0)"/>
     </g>
    </g>
   </g>
   <g id="line2d_31">
    <path d="M 138.436364 187.904923 
L 150.02753 179.883228 
L 161.746071 179.050145 
L 188.877042 176.360983 
L 196.646944 175.927142 
L 208.365485 179.423708 
L 220.084027 183.782159 
L 235.369081 182.413655 
L 254.857524 181.217404 
L 266.576066 179.642836 
L 278.039856 178.615617 
L 289.631022 172.0707 
L 301.349563 173.454616 
L 313.068105 155.648247 
L 324.531895 155.530535 
L 336.123061 169.351793 
L 347.841602 170.747075 
L 359.560144 170.426491 
L 371.15131 166.756749 
L 382.742476 165.736619 
L 394.461017 162.23659 
L 406.179558 147.292707 
L 417.643349 148.551396 
L 421.464612 140.969979 
L 425.413251 133.388562 
L 429.234515 125.807145 
L 440.953056 122.073669 
L 452.671597 141.079475 
L 456.620236 139.864755 
L 460.186749 138.650036 
L 467.956651 136.156408 
L 475.726554 133.598591 
L 487.445095 131.218193 
L 499.163636 134.290376 
L 510.627427 135.073006 
L 522.218593 135.224814 
L 533.937134 131.146943 
L 545.655675 134.87663 
L 557.246841 140.305033 
L 568.838007 146.607827 
L 580.556549 155.031582 
L 592.27509 153.84455 
L 603.73888 150.286776 
L 615.330046 146.560164 
L 627.048588 136.176077 
L 638.767129 130.391241 
L 642.715768 127.984941 
L 646.28228 125.578641 
L 650.230919 123.172341 
L 665.770724 117.520601 
L 673.540627 114.394699 
L 689.207807 106.620973 
L 692.774319 104.682089 
L 696.722958 102.743205 
L 708.314124 98.37624 
L 716.211402 77.43208 
L 720.032666 66.96 
L 731.751207 86.228054 
L 735.699846 83.109396 
L 739.393734 79.990739 
L 743.342373 76.872081 
L 747.163636 75.050535 
L 747.163636 75.050535 
" clip-path="url(#p5d978a46d1)" style="fill: none; stroke: #a6cee3; stroke-width: 1.5; stroke-linecap: square"/>
   </g>
   <g id="line2d_32">
    <path d="M 138.436364 369.228234 
L 747.163636 369.36 
L 747.163636 369.36 
" clip-path="url(#p5d978a46d1)" style="fill: none; stroke: #1f78b4; stroke-width: 1.5; stroke-linecap: square"/>
   </g>
   <g id="line2d_33">
    <path d="M 138.436364 284.366264 
L 150.02753 278.431921 
L 161.746071 275.757072 
L 173.464612 272.377728 
L 185.055778 271.843882 
L 196.646944 269.915712 
L 208.365485 269.323816 
L 220.084027 266.864448 
L 231.547817 263.325983 
L 247.087622 261.990036 
L 254.857524 261.144201 
L 266.576066 264.387889 
L 278.039856 265.288515 
L 289.631022 265.171476 
L 301.349563 267.13352 
L 317.016744 268.123728 
L 324.531895 268.688269 
L 336.123061 271.140406 
L 347.841602 272.575244 
L 359.560144 271.890079 
L 382.742476 266.991773 
L 394.461017 264.628404 
L 406.179558 263.441882 
L 417.643349 261.617735 
L 429.234515 259.0541 
L 440.953056 257.85004 
L 464.135388 254.835093 
L 475.726554 254.875016 
L 487.445095 257.269142 
L 499.163636 261.192618 
L 510.627427 263.587641 
L 522.218593 264.966444 
L 533.937134 267.121156 
L 545.655675 268.858858 
L 561.068105 273.835922 
L 568.838007 276.042785 
L 580.556549 281.80385 
L 592.27509 285.464834 
L 615.330046 289.823977 
L 627.048588 285.769388 
L 638.767129 284.456701 
L 661.822085 280.04576 
L 685.259168 275.213714 
L 696.722958 272.903527 
L 716.211402 268.7964 
L 727.802568 266.051455 
L 731.751207 265.113772 
L 735.699846 262.730862 
L 739.393734 260.347952 
L 743.342373 257.965042 
L 747.163636 254.494928 
L 747.163636 254.494928 
" clip-path="url(#p5d978a46d1)" style="fill: none; stroke: #b2df8a; stroke-width: 1.5; stroke-linecap: square"/>
   </g>
   <g id="line2d_34">
    <path d="M 138.436364 351.023248 
L 150.02753 351.251317 
L 161.746071 351.929597 
L 173.464612 353.072958 
L 185.055778 353.662411 
L 196.646944 355.255453 
L 208.365485 359.815962 
L 220.084027 359.392964 
L 231.547817 361.469378 
L 243.138983 362.001105 
L 254.857524 361.952098 
L 266.576066 358.461907 
L 278.039856 355.736767 
L 289.631022 349.793462 
L 301.349563 350.05406 
L 313.068105 344.840202 
L 324.531895 343.342852 
L 336.123061 342.959613 
L 355.611505 343.245041 
L 359.560144 343.333279 
L 371.15131 341.937284 
L 394.461017 343.995916 
L 406.179558 328.133013 
L 429.234515 334.072184 
L 440.953056 335.739063 
L 452.671597 356.370277 
L 464.135388 356.470003 
L 475.726554 354.878203 
L 487.445095 352.006103 
L 499.163636 351.398685 
L 522.218593 349.081084 
L 533.937134 348.919621 
L 549.604314 350.071 
L 561.068105 350.723025 
L 572.786646 351.330484 
L 580.556549 351.808403 
L 592.27509 351.420154 
L 596.223729 350.086542 
L 599.790241 348.75293 
L 603.73888 347.419318 
L 615.330046 344.822216 
L 650.230919 341.218327 
L 661.822085 341.216392 
L 677.489266 342.121594 
L 696.722958 342.818234 
L 708.314124 343.8172 
L 716.211402 325.611324 
L 720.032666 316.508386 
L 723.981305 324.089443 
L 727.802568 331.670501 
L 731.751207 339.251558 
L 743.342373 339.025505 
L 747.163636 342.047119 
L 747.163636 342.047119 
" clip-path="url(#p5d978a46d1)" style="fill: none; stroke: #33a02c; stroke-width: 1.5; stroke-linecap: square"/>
   </g>
   <g id="line2d_35">
    <path d="M 138.436364 313.990642 
L 150.02753 312.233427 
L 161.746071 313.501322 
L 177.413251 311.729591 
L 185.055778 310.975267 
L 196.646944 311.067395 
L 208.365485 310.570336 
L 220.084027 317.187807 
L 254.857524 318.589933 
L 270.524705 318.63268 
L 285.809759 318.308518 
L 301.349563 317.869632 
L 313.068105 317.219766 
L 324.531895 318.999488 
L 336.123061 316.540223 
L 347.841602 316.004381 
L 359.560144 316.224405 
L 382.742476 317.879816 
L 394.461017 319.006108 
L 413.69471 320.041304 
L 433.183154 320.873627 
L 440.953056 321.001923 
L 456.620236 320.360883 
L 487.445095 318.41686 
L 518.397329 317.180189 
L 522.218593 316.979842 
L 541.707036 314.208635 
L 545.655675 313.695824 
L 557.246841 313.22836 
L 568.838007 313.362631 
L 588.326451 312.227982 
L 592.27509 311.978878 
L 603.73888 310.548378 
L 615.330046 308.130278 
L 630.997227 303.586668 
L 638.767129 301.478485 
L 642.715768 300.114585 
L 646.28228 298.750684 
L 650.230919 297.386784 
L 661.822085 295.476864 
L 673.540627 294.365931 
L 689.207807 291.992383 
L 696.722958 290.756053 
L 708.314124 290.012612 
L 720.032666 291.178135 
L 731.751207 291.700573 
L 743.342373 291.518171 
L 747.163636 291.114964 
L 747.163636 291.114964 
" clip-path="url(#p5d978a46d1)" style="fill: none; stroke: #fb9a99; stroke-width: 1.5; stroke-linecap: square"/>
   </g>
   <g id="line2d_36">
    <path d="M 138.436364 364.799307 
L 165.69471 364.867943 
L 173.464612 364.853305 
L 200.595583 364.137641 
L 208.365485 363.916137 
L 305.298202 364.430904 
L 324.531895 364.585618 
L 382.742476 364.836399 
L 394.461017 362.134724 
L 406.179558 365.305757 
L 417.643349 365.696124 
L 429.234515 365.427094 
L 448.722958 365.429273 
L 452.671597 365.39762 
L 467.956651 364.456188 
L 475.726554 363.887275 
L 491.393734 363.639604 
L 518.397329 363.630377 
L 522.218593 363.671773 
L 537.885773 363.252027 
L 545.655675 362.880935 
L 580.556549 362.267121 
L 661.822085 360.088802 
L 696.722958 355.354221 
L 716.211402 353.784718 
L 720.032666 353.488726 
L 739.393734 352.767209 
L 747.163636 352.458955 
L 747.163636 352.458955 
" clip-path="url(#p5d978a46d1)" style="fill: none; stroke: #e31a1c; stroke-width: 1.5; stroke-linecap: square"/>
   </g>
   <g id="line2d_37">
    <path d="M 138.436364 369.36 
L 747.163636 369.35998 
L 747.163636 369.35998 
" clip-path="url(#p5d978a46d1)" style="fill: none; stroke: #fdbf6f; stroke-width: 1.5; stroke-linecap: square"/>
   </g>
   <g id="line2d_38">
    <path d="M 138.436364 368.895877 
L 165.69471 368.852987 
L 220.084027 368.988005 
L 235.369081 369.36 
L 747.163636 369.36 
L 747.163636 369.36 
" clip-path="url(#p5d978a46d1)" style="fill: none; stroke: #ff7f00; stroke-width: 1.5; stroke-linecap: square"/>
   </g>
   <g id="line2d_39">
    <path d="M 138.436364 369.36 
L 417.643349 369.36 
L 421.464612 361.532372 
L 425.413251 353.704744 
L 429.234515 345.877116 
L 440.953056 341.93044 
L 452.671597 342.428355 
L 467.956651 342.3211 
L 475.726554 342.104389 
L 487.445095 341.065235 
L 518.397329 340.851485 
L 522.218593 340.844499 
L 533.937134 340.409992 
L 545.655675 340.800909 
L 565.016744 342.718861 
L 576.735285 344.01439 
L 580.556549 344.46397 
L 592.27509 343.115231 
L 603.73888 346.533438 
L 615.330046 347.376808 
L 627.048588 347.781006 
L 638.767129 348.879291 
L 650.230919 348.944104 
L 689.207807 350.693199 
L 696.722958 351.261461 
L 712.262763 351.469032 
L 739.393734 352.249964 
L 747.163636 352.418292 
L 747.163636 352.418292 
" clip-path="url(#p5d978a46d1)" style="fill: none; stroke: #cab2d6; stroke-width: 1.5; stroke-linecap: square"/>
   </g>
   <g id="line2d_40">
    <path d="M 138.436364 369.36 
L 406.179558 369.291683 
L 417.643349 369.106185 
L 433.183154 369.36 
L 592.27509 369.36 
L 603.73888 368.382217 
L 615.330046 369.281926 
L 634.81849 369.317198 
L 642.715768 369.295458 
L 654.052183 369.178385 
L 747.163636 369.160814 
L 747.163636 369.160814 
" clip-path="url(#p5d978a46d1)" style="fill: none; stroke: #6a3d9a; stroke-width: 1.5; stroke-linecap: square"/>
   </g>
   <g id="line2d_41">
    <path d="M 138.436364 362.812292 
L 150.02753 362.166255 
L 169.515973 361.975617 
L 177.413251 361.905161 
L 196.646944 361.88205 
L 208.365485 361.401998 
L 220.084027 362.338331 
L 231.547817 362.584854 
L 258.806163 362.232542 
L 270.524705 362.289011 
L 285.809759 362.276572 
L 297.5283 362.242849 
L 309.119466 362.241334 
L 313.068105 362.254248 
L 328.353159 361.939442 
L 344.020339 361.81803 
L 355.611505 361.752463 
L 371.15131 361.645629 
L 394.461017 361.340545 
L 410.128197 360.850724 
L 429.234515 360.559953 
L 444.901695 360.121324 
L 471.90529 359.716176 
L 483.623832 359.526732 
L 499.163636 359.432235 
L 522.218593 359.437999 
L 533.937134 355.383002 
L 545.655675 356.692573 
L 557.246841 357.542745 
L 572.786646 358.98827 
L 580.556549 359.582495 
L 603.73888 360.163291 
L 615.330046 361.067909 
L 638.767129 361.740629 
L 650.230919 364.134959 
L 661.822085 365.074734 
L 677.489266 365.736835 
L 708.314124 366.423677 
L 747.163636 366.520965 
L 747.163636 366.520965 
" clip-path="url(#p5d978a46d1)" style="fill: none; stroke: #ffff99; stroke-width: 1.5; stroke-linecap: square"/>
   </g>
   <g id="line2d_42">
    <path d="M 138.436364 369.36 
L 281.86112 369.256805 
L 297.5283 369.161031 
L 576.735285 368.937456 
L 580.556549 368.907446 
L 592.27509 366.523219 
L 603.73888 363.629732 
L 615.330046 361.484838 
L 627.048588 359.637797 
L 650.230919 356.889783 
L 665.770724 355.699601 
L 692.774319 353.157482 
L 708.314124 351.559354 
L 735.699846 348.109772 
L 747.163636 346.392914 
L 747.163636 346.392914 
" clip-path="url(#p5d978a46d1)" style="fill: none; stroke: #b15928; stroke-width: 1.5; stroke-linecap: square"/>
   </g>
   <g id="line2d_43">
    <path d="M 138.436364 368.990001 
L 161.746071 369.01978 
L 204.544222 369.09875 
L 224.032666 369.090915 
L 289.631022 368.945068 
L 340.0717 368.976137 
L 347.841602 369.043571 
L 359.560144 368.720583 
L 374.972573 368.97374 
L 421.464612 368.845165 
L 491.393734 368.84173 
L 599.790241 368.760099 
L 685.259168 368.484916 
L 720.032666 368.4564 
L 731.751207 368.885774 
L 747.163636 368.925154 
L 747.163636 368.925154 
" clip-path="url(#p5d978a46d1)" style="fill: none; stroke: #a6cee3; stroke-width: 1.5; stroke-linecap: square"/>
   </g>
   <g id="line2d_44">
    <path d="M 138.436364 360.221709 
L 161.746071 359.992234 
L 173.464612 362.174382 
L 196.646944 362.121851 
L 208.365485 363.416532 
L 220.084027 362.549514 
L 231.547817 362.122075 
L 243.138983 361.381426 
L 254.857524 361.635404 
L 270.524705 361.309856 
L 324.531895 359.234719 
L 347.841602 360.117115 
L 359.560144 360.187265 
L 374.972573 359.347127 
L 394.461017 358.690954 
L 406.179558 357.490173 
L 417.643349 356.985089 
L 437.131793 356.94097 
L 444.901695 356.936686 
L 452.671597 356.998471 
L 464.135388 356.22902 
L 491.393734 356.514746 
L 499.163636 356.795007 
L 510.627427 356.889763 
L 533.937134 357.801551 
L 545.655675 359.268225 
L 603.73888 359.736728 
L 623.227324 359.534289 
L 650.230919 359.389929 
L 665.770724 359.010017 
L 681.310529 358.725139 
L 689.207807 358.464711 
L 700.544222 358.020882 
L 727.802568 357.308443 
L 735.699846 357.001126 
L 747.163636 356.458257 
L 747.163636 356.458257 
" clip-path="url(#p5d978a46d1)" style="fill: none; stroke: #1f78b4; stroke-width: 1.5; stroke-linecap: square"/>
   </g>
   <g id="line2d_45">
    <path d="M 138.436364 369.36 
L 747.163636 369.36 
L 747.163636 369.36 
" clip-path="url(#p5d978a46d1)" style="fill: none; stroke: #b2df8a; stroke-width: 1.5; stroke-linecap: square"/>
   </g>
   <g id="line2d_46">
    <path d="M 138.436364 369.36 
L 545.655675 369.35998 
L 557.246841 368.764009 
L 572.786646 369.074647 
L 580.556549 369.36 
L 603.73888 369.36 
L 615.330046 368.701559 
L 677.489266 368.552011 
L 700.544222 368.530699 
L 723.981305 368.629671 
L 731.751207 368.738263 
L 743.342373 369.35998 
L 747.163636 369.35998 
L 747.163636 369.35998 
" clip-path="url(#p5d978a46d1)" style="fill: none; stroke: #33a02c; stroke-width: 1.5; stroke-linecap: square"/>
   </g>
   <g id="line2d_47">
    <path d="M 138.436364 367.81735 
L 165.69471 368.174734 
L 173.464612 368.469905 
L 188.877042 368.499568 
L 196.646944 368.400793 
L 208.365485 367.878375 
L 220.084027 368.401893 
L 231.547817 367.98472 
L 247.087622 368.11229 
L 254.857524 368.274303 
L 266.576066 366.919657 
L 278.039856 368.263365 
L 289.631022 368.624402 
L 301.349563 368.536286 
L 313.068105 356.146648 
L 324.531895 355.644069 
L 336.123061 369.36 
L 747.163636 369.36 
L 747.163636 369.36 
" clip-path="url(#p5d978a46d1)" style="fill: none; stroke: #fb9a99; stroke-width: 1.5; stroke-linecap: square"/>
   </g>
   <g id="line2d_48">
    <path d="M 138.436364 369.36 
L 747.163636 369.36 
L 747.163636 369.36 
" clip-path="url(#p5d978a46d1)" style="fill: none; stroke: #e31a1c; stroke-width: 1.5; stroke-linecap: square"/>
   </g>
   <g id="line2d_49">
    <path d="M 138.436364 369.36 
L 747.163636 369.36 
L 747.163636 369.36 
" clip-path="url(#p5d978a46d1)" style="fill: none; stroke: #fdbf6f; stroke-width: 1.5; stroke-linecap: square"/>
   </g>
   <g id="line2d_50">
    <path d="M 138.436364 369.36 
L 708.314124 369.352219 
L 720.032666 368.79167 
L 743.342373 368.79167 
L 747.163636 368.658214 
L 747.163636 368.658214 
" clip-path="url(#p5d978a46d1)" style="fill: none; stroke: #ff7f00; stroke-width: 1.5; stroke-linecap: square"/>
   </g>
   <g id="patch_3">
    <path d="M 108 384.48 
L 108 51.84 
" style="fill: none; stroke: #000000; stroke-width: 0.8; stroke-linejoin: miter; stroke-linecap: square"/>
   </g>
   <g id="patch_4">
    <path d="M 777.6 384.48 
L 777.6 51.84 
" style="fill: none; stroke: #000000; stroke-width: 0.8; stroke-linejoin: miter; stroke-linecap: square"/>
   </g>
   <g id="patch_5">
    <path d="M 108 384.48 
L 777.6 384.48 
" style="fill: none; stroke: #000000; stroke-width: 0.8; stroke-linejoin: miter; stroke-linecap: square"/>
   </g>
   <g id="patch_6">
    <path d="M 108 51.84 
L 777.6 51.84 
" style="fill: none; stroke: #000000; stroke-width: 0.8; stroke-linejoin: miter; stroke-linecap: square"/>
   </g>
   <g id="text_17">
    <!-- Número de Tarjetas de Crédito MasterCard -->
    <g transform="translate(273.893281 45.84) scale(0.14 -0.14)">
     <defs>
      <path id="DejaVuSans-Bold-4e" d="M 588 4666 
L 1931 4666 
L 3628 1466 
L 3628 4666 
L 4769 4666 
L 4769 0 
L 3425 0 
L 1728 3200 
L 1728 0 
L 588 0 
L 588 4666 
z
" transform="scale(0.015625)"/>
      <path id="DejaVuSans-Bold-fa" d="M 500 1363 
L 500 3500 
L 1625 3500 
L 1625 3150 
Q 1625 2866 1622 2436 
Q 1619 2006 1619 1863 
Q 1619 1441 1641 1255 
Q 1663 1069 1716 984 
Q 1784 875 1895 815 
Q 2006 756 2150 756 
Q 2500 756 2700 1025 
Q 2900 1294 2900 1772 
L 2900 3500 
L 4019 3500 
L 4019 0 
L 2900 0 
L 2900 506 
Q 2647 200 2364 54 
Q 2081 -91 1741 -91 
Q 1134 -91 817 281 
Q 500 653 500 1363 
z
M 2778 5119 
L 3663 5119 
L 2509 3944 
L 1897 3944 
L 2778 5119 
z
" transform="scale(0.015625)"/>
      <path id="DejaVuSans-Bold-6d" d="M 3781 2919 
Q 3994 3244 4286 3414 
Q 4578 3584 4928 3584 
Q 5531 3584 5847 3212 
Q 6163 2841 6163 2131 
L 6163 0 
L 5038 0 
L 5038 1825 
Q 5041 1866 5042 1909 
Q 5044 1953 5044 2034 
Q 5044 2406 4934 2573 
Q 4825 2741 4581 2741 
Q 4263 2741 4089 2478 
Q 3916 2216 3909 1719 
L 3909 0 
L 2784 0 
L 2784 1825 
Q 2784 2406 2684 2573 
Q 2584 2741 2328 2741 
Q 2006 2741 1831 2477 
Q 1656 2213 1656 1722 
L 1656 0 
L 531 0 
L 531 3500 
L 1656 3500 
L 1656 2988 
Q 1863 3284 2130 3434 
Q 2397 3584 2719 3584 
Q 3081 3584 3359 3409 
Q 3638 3234 3781 2919 
z
" transform="scale(0.015625)"/>
      <path id="DejaVuSans-Bold-65" d="M 4031 1759 
L 4031 1441 
L 1416 1441 
Q 1456 1047 1700 850 
Q 1944 653 2381 653 
Q 2734 653 3104 758 
Q 3475 863 3866 1075 
L 3866 213 
Q 3469 63 3072 -14 
Q 2675 -91 2278 -91 
Q 1328 -91 801 392 
Q 275 875 275 1747 
Q 275 2603 792 3093 
Q 1309 3584 2216 3584 
Q 3041 3584 3536 3087 
Q 4031 2591 4031 1759 
z
M 2881 2131 
Q 2881 2450 2695 2645 
Q 2509 2841 2209 2841 
Q 1884 2841 1681 2658 
Q 1478 2475 1428 2131 
L 2881 2131 
z
" transform="scale(0.015625)"/>
      <path id="DejaVuSans-Bold-72" d="M 3138 2547 
Q 2991 2616 2845 2648 
Q 2700 2681 2553 2681 
Q 2122 2681 1889 2404 
Q 1656 2128 1656 1613 
L 1656 0 
L 538 0 
L 538 3500 
L 1656 3500 
L 1656 2925 
Q 1872 3269 2151 3426 
Q 2431 3584 2822 3584 
Q 2878 3584 2943 3579 
Q 3009 3575 3134 3559 
L 3138 2547 
z
" transform="scale(0.015625)"/>
      <path id="DejaVuSans-Bold-6f" d="M 2203 2784 
Q 1831 2784 1636 2517 
Q 1441 2250 1441 1747 
Q 1441 1244 1636 976 
Q 1831 709 2203 709 
Q 2569 709 2762 976 
Q 2956 1244 2956 1747 
Q 2956 2250 2762 2517 
Q 2569 2784 2203 2784 
z
M 2203 3584 
Q 3106 3584 3614 3096 
Q 4122 2609 4122 1747 
Q 4122 884 3614 396 
Q 3106 -91 2203 -91 
Q 1297 -91 786 396 
Q 275 884 275 1747 
Q 275 2609 786 3096 
Q 1297 3584 2203 3584 
z
" transform="scale(0.015625)"/>
      <path id="DejaVuSans-Bold-20" transform="scale(0.015625)"/>
      <path id="DejaVuSans-Bold-64" d="M 2919 2988 
L 2919 4863 
L 4044 4863 
L 4044 0 
L 2919 0 
L 2919 506 
Q 2688 197 2409 53 
Q 2131 -91 1766 -91 
Q 1119 -91 703 423 
Q 288 938 288 1747 
Q 288 2556 703 3070 
Q 1119 3584 1766 3584 
Q 2128 3584 2408 3439 
Q 2688 3294 2919 2988 
z
M 2181 722 
Q 2541 722 2730 984 
Q 2919 1247 2919 1747 
Q 2919 2247 2730 2509 
Q 2541 2772 2181 2772 
Q 1825 2772 1636 2509 
Q 1447 2247 1447 1747 
Q 1447 1247 1636 984 
Q 1825 722 2181 722 
z
" transform="scale(0.015625)"/>
      <path id="DejaVuSans-Bold-54" d="M 31 4666 
L 4331 4666 
L 4331 3756 
L 2784 3756 
L 2784 0 
L 1581 0 
L 1581 3756 
L 31 3756 
L 31 4666 
z
" transform="scale(0.015625)"/>
      <path id="DejaVuSans-Bold-61" d="M 2106 1575 
Q 1756 1575 1579 1456 
Q 1403 1338 1403 1106 
Q 1403 894 1545 773 
Q 1688 653 1941 653 
Q 2256 653 2472 879 
Q 2688 1106 2688 1447 
L 2688 1575 
L 2106 1575 
z
M 3816 1997 
L 3816 0 
L 2688 0 
L 2688 519 
Q 2463 200 2181 54 
Q 1900 -91 1497 -91 
Q 953 -91 614 226 
Q 275 544 275 1050 
Q 275 1666 698 1953 
Q 1122 2241 2028 2241 
L 2688 2241 
L 2688 2328 
Q 2688 2594 2478 2717 
Q 2269 2841 1825 2841 
Q 1466 2841 1156 2769 
Q 847 2697 581 2553 
L 581 3406 
Q 941 3494 1303 3539 
Q 1666 3584 2028 3584 
Q 2975 3584 3395 3211 
Q 3816 2838 3816 1997 
z
" transform="scale(0.015625)"/>
      <path id="DejaVuSans-Bold-6a" d="M 538 3500 
L 1656 3500 
L 1656 63 
Q 1656 -641 1318 -1011 
Q 981 -1381 341 -1381 
L -213 -1381 
L -213 -647 
L -19 -647 
Q 300 -647 419 -503 
Q 538 -359 538 63 
L 538 3500 
z
M 538 4863 
L 1656 4863 
L 1656 3950 
L 538 3950 
L 538 4863 
z
" transform="scale(0.015625)"/>
      <path id="DejaVuSans-Bold-74" d="M 1759 4494 
L 1759 3500 
L 2913 3500 
L 2913 2700 
L 1759 2700 
L 1759 1216 
Q 1759 972 1856 886 
Q 1953 800 2241 800 
L 2816 800 
L 2816 0 
L 1856 0 
Q 1194 0 917 276 
Q 641 553 641 1216 
L 641 2700 
L 84 2700 
L 84 3500 
L 641 3500 
L 641 4494 
L 1759 4494 
z
" transform="scale(0.015625)"/>
      <path id="DejaVuSans-Bold-73" d="M 3272 3391 
L 3272 2541 
Q 2913 2691 2578 2766 
Q 2244 2841 1947 2841 
Q 1628 2841 1473 2761 
Q 1319 2681 1319 2516 
Q 1319 2381 1436 2309 
Q 1553 2238 1856 2203 
L 2053 2175 
Q 2913 2066 3209 1816 
Q 3506 1566 3506 1031 
Q 3506 472 3093 190 
Q 2681 -91 1863 -91 
Q 1516 -91 1145 -36 
Q 775 19 384 128 
L 384 978 
Q 719 816 1070 734 
Q 1422 653 1784 653 
Q 2113 653 2278 743 
Q 2444 834 2444 1013 
Q 2444 1163 2330 1236 
Q 2216 1309 1875 1350 
L 1678 1375 
Q 931 1469 631 1722 
Q 331 1975 331 2491 
Q 331 3047 712 3315 
Q 1094 3584 1881 3584 
Q 2191 3584 2531 3537 
Q 2872 3491 3272 3391 
z
" transform="scale(0.015625)"/>
      <path id="DejaVuSans-Bold-43" d="M 4288 256 
Q 3956 84 3597 -3 
Q 3238 -91 2847 -91 
Q 1681 -91 1000 561 
Q 319 1213 319 2328 
Q 319 3447 1000 4098 
Q 1681 4750 2847 4750 
Q 3238 4750 3597 4662 
Q 3956 4575 4288 4403 
L 4288 3438 
Q 3953 3666 3628 3772 
Q 3303 3878 2944 3878 
Q 2300 3878 1931 3465 
Q 1563 3053 1563 2328 
Q 1563 1606 1931 1193 
Q 2300 781 2944 781 
Q 3303 781 3628 887 
Q 3953 994 4288 1222 
L 4288 256 
z
" transform="scale(0.015625)"/>
      <path id="DejaVuSans-Bold-e9" d="M 4031 1759 
L 4031 1441 
L 1416 1441 
Q 1456 1047 1700 850 
Q 1944 653 2381 653 
Q 2734 653 3104 758 
Q 3475 863 3866 1075 
L 3866 213 
Q 3469 63 3072 -14 
Q 2675 -91 2278 -91 
Q 1328 -91 801 392 
Q 275 875 275 1747 
Q 275 2603 792 3093 
Q 1309 3584 2216 3584 
Q 3041 3584 3536 3087 
Q 4031 2591 4031 1759 
z
M 2881 2131 
Q 2881 2450 2695 2645 
Q 2509 2841 2209 2841 
Q 1884 2841 1681 2658 
Q 1478 2475 1428 2131 
L 2881 2131 
z
M 2700 5119 
L 3584 5119 
L 2431 3944 
L 1819 3944 
L 2700 5119 
z
" transform="scale(0.015625)"/>
      <path id="DejaVuSans-Bold-69" d="M 538 3500 
L 1656 3500 
L 1656 0 
L 538 0 
L 538 3500 
z
M 538 4863 
L 1656 4863 
L 1656 3950 
L 538 3950 
L 538 4863 
z
" transform="scale(0.015625)"/>
      <path id="DejaVuSans-Bold-4d" d="M 588 4666 
L 2119 4666 
L 3181 2169 
L 4250 4666 
L 5778 4666 
L 5778 0 
L 4641 0 
L 4641 3413 
L 3566 897 
L 2803 897 
L 1728 3413 
L 1728 0 
L 588 0 
L 588 4666 
z
" transform="scale(0.015625)"/>
     </defs>
     <use xlink:href="#DejaVuSans-Bold-4e"/>
     <use xlink:href="#DejaVuSans-Bold-fa" transform="translate(83.691406 0)"/>
     <use xlink:href="#DejaVuSans-Bold-6d" transform="translate(154.882812 0)"/>
     <use xlink:href="#DejaVuSans-Bold-65" transform="translate(259.082031 0)"/>
     <use xlink:href="#DejaVuSans-Bold-72" transform="translate(326.904297 0)"/>
     <use xlink:href="#DejaVuSans-Bold-6f" transform="translate(376.220703 0)"/>
     <use xlink:href="#DejaVuSans-Bold-20" transform="translate(444.921875 0)"/>
     <use xlink:href="#DejaVuSans-Bold-64" transform="translate(479.736328 0)"/>
     <use xlink:href="#DejaVuSans-Bold-65" transform="translate(551.318359 0)"/>
     <use xlink:href="#DejaVuSans-Bold-20" transform="translate(619.140625 0)"/>
     <use xlink:href="#DejaVuSans-Bold-54" transform="translate(653.955078 0)"/>
     <use xlink:href="#DejaVuSans-Bold-61" transform="translate(709.292969 0)"/>
     <use xlink:href="#DejaVuSans-Bold-72" transform="translate(776.773438 0)"/>
     <use xlink:href="#DejaVuSans-Bold-6a" transform="translate(826.089844 0)"/>
     <use xlink:href="#DejaVuSans-Bold-65" transform="translate(860.367188 0)"/>
     <use xlink:href="#DejaVuSans-Bold-74" transform="translate(928.189453 0)"/>
     <use xlink:href="#DejaVuSans-Bold-61" transform="translate(975.992188 0)"/>
     <use xlink:href="#DejaVuSans-Bold-73" transform="translate(1043.472656 0)"/>
     <use xlink:href="#DejaVuSans-Bold-20" transform="translate(1102.994141 0)"/>
     <use xlink:href="#DejaVuSans-Bold-64" transform="translate(1137.808594 0)"/>
     <use xlink:href="#DejaVuSans-Bold-65" transform="translate(1209.390625 0)"/>
     <use xlink:href="#DejaVuSans-Bold-20" transform="translate(1277.212891 0)"/>
     <use xlink:href="#DejaVuSans-Bold-43" transform="translate(1312.027344 0)"/>
     <use xlink:href="#DejaVuSans-Bold-72" transform="translate(1385.416016 0)"/>
     <use xlink:href="#DejaVuSans-Bold-e9" transform="translate(1434.732422 0)"/>
     <use xlink:href="#DejaVuSans-Bold-64" transform="translate(1502.554688 0)"/>
     <use xlink:href="#DejaVuSans-Bold-69" transform="translate(1574.136719 0)"/>
     <use xlink:href="#DejaVuSans-Bold-74" transform="translate(1608.414062 0)"/>
     <use xlink:href="#DejaVuSans-Bold-6f" transform="translate(1656.216797 0)"/>
     <use xlink:href="#DejaVuSans-Bold-20" transform="translate(1724.917969 0)"/>
     <use xlink:href="#DejaVuSans-Bold-4d" transform="translate(1759.732422 0)"/>
     <use xlink:href="#DejaVuSans-Bold-61" transform="translate(1859.244141 0)"/>
     <use xlink:href="#DejaVuSans-Bold-73" transform="translate(1926.724609 0)"/>
     <use xlink:href="#DejaVuSans-Bold-74" transform="translate(1986.246094 0)"/>
     <use xlink:href="#DejaVuSans-Bold-65" transform="translate(2034.048828 0)"/>
     <use xlink:href="#DejaVuSans-Bold-72" transform="translate(2101.871094 0)"/>
     <use xlink:href="#DejaVuSans-Bold-43" transform="translate(2151.1875 0)"/>
     <use xlink:href="#DejaVuSans-Bold-61" transform="translate(2224.576172 0)"/>
     <use xlink:href="#DejaVuSans-Bold-72" transform="translate(2292.056641 0)"/>
     <use xlink:href="#DejaVuSans-Bold-64" transform="translate(2341.373047 0)"/>
    </g>
   </g>
   <g id="legend_1">
    <g id="patch_7">
     <path d="M 113.6 293.09 
L 301.13125 293.09 
Q 302.73125 293.09 302.73125 291.49 
L 302.73125 57.44 
Q 302.73125 55.84 301.13125 55.84 
L 113.6 55.84 
Q 112 55.84 112 57.44 
L 112 291.49 
Q 112 293.09 113.6 293.09 
z
" style="fill: #ffffff; opacity: 0.8; stroke: #cccccc; stroke-linejoin: miter"/>
    </g>
    <g id="line2d_51">
     <path d="M 115.2 62.31875 
L 123.2 62.31875 
L 131.2 62.31875 
" style="fill: none; stroke: #a6cee3; stroke-width: 1.5; stroke-linecap: square"/>
    </g>
    <g id="text_18">
     <!--  Tarjetas vigentes al cierre del trimestre  -->
     <g transform="translate(137.6 65.11875) scale(0.08 -0.08)">
      <defs>
       <path id="DejaVuSans-20" transform="scale(0.015625)"/>
       <path id="DejaVuSans-54" d="M -19 4666 
L 3928 4666 
L 3928 4134 
L 2272 4134 
L 2272 0 
L 1638 0 
L 1638 4134 
L -19 4134 
L -19 4666 
z
" transform="scale(0.015625)"/>
       <path id="DejaVuSans-61" d="M 2194 1759 
Q 1497 1759 1228 1600 
Q 959 1441 959 1056 
Q 959 750 1161 570 
Q 1363 391 1709 391 
Q 2188 391 2477 730 
Q 2766 1069 2766 1631 
L 2766 1759 
L 2194 1759 
z
M 3341 1997 
L 3341 0 
L 2766 0 
L 2766 531 
Q 2569 213 2275 61 
Q 1981 -91 1556 -91 
Q 1019 -91 701 211 
Q 384 513 384 1019 
Q 384 1609 779 1909 
Q 1175 2209 1959 2209 
L 2766 2209 
L 2766 2266 
Q 2766 2663 2505 2880 
Q 2244 3097 1772 3097 
Q 1472 3097 1187 3025 
Q 903 2953 641 2809 
L 641 3341 
Q 956 3463 1253 3523 
Q 1550 3584 1831 3584 
Q 2591 3584 2966 3190 
Q 3341 2797 3341 1997 
z
" transform="scale(0.015625)"/>
       <path id="DejaVuSans-72" d="M 2631 2963 
Q 2534 3019 2420 3045 
Q 2306 3072 2169 3072 
Q 1681 3072 1420 2755 
Q 1159 2438 1159 1844 
L 1159 0 
L 581 0 
L 581 3500 
L 1159 3500 
L 1159 2956 
Q 1341 3275 1631 3429 
Q 1922 3584 2338 3584 
Q 2397 3584 2469 3576 
Q 2541 3569 2628 3553 
L 2631 2963 
z
" transform="scale(0.015625)"/>
       <path id="DejaVuSans-6a" d="M 603 3500 
L 1178 3500 
L 1178 -63 
Q 1178 -731 923 -1031 
Q 669 -1331 103 -1331 
L -116 -1331 
L -116 -844 
L 38 -844 
Q 366 -844 484 -692 
Q 603 -541 603 -63 
L 603 3500 
z
M 603 4863 
L 1178 4863 
L 1178 4134 
L 603 4134 
L 603 4863 
z
" transform="scale(0.015625)"/>
       <path id="DejaVuSans-74" d="M 1172 4494 
L 1172 3500 
L 2356 3500 
L 2356 3053 
L 1172 3053 
L 1172 1153 
Q 1172 725 1289 603 
Q 1406 481 1766 481 
L 2356 481 
L 2356 0 
L 1766 0 
Q 1100 0 847 248 
Q 594 497 594 1153 
L 594 3053 
L 172 3053 
L 172 3500 
L 594 3500 
L 594 4494 
L 1172 4494 
z
" transform="scale(0.015625)"/>
       <path id="DejaVuSans-73" d="M 2834 3397 
L 2834 2853 
Q 2591 2978 2328 3040 
Q 2066 3103 1784 3103 
Q 1356 3103 1142 2972 
Q 928 2841 928 2578 
Q 928 2378 1081 2264 
Q 1234 2150 1697 2047 
L 1894 2003 
Q 2506 1872 2764 1633 
Q 3022 1394 3022 966 
Q 3022 478 2636 193 
Q 2250 -91 1575 -91 
Q 1294 -91 989 -36 
Q 684 19 347 128 
L 347 722 
Q 666 556 975 473 
Q 1284 391 1588 391 
Q 1994 391 2212 530 
Q 2431 669 2431 922 
Q 2431 1156 2273 1281 
Q 2116 1406 1581 1522 
L 1381 1569 
Q 847 1681 609 1914 
Q 372 2147 372 2553 
Q 372 3047 722 3315 
Q 1072 3584 1716 3584 
Q 2034 3584 2315 3537 
Q 2597 3491 2834 3397 
z
" transform="scale(0.015625)"/>
       <path id="DejaVuSans-76" d="M 191 3500 
L 800 3500 
L 1894 563 
L 2988 3500 
L 3597 3500 
L 2284 0 
L 1503 0 
L 191 3500 
z
" transform="scale(0.015625)"/>
       <path id="DejaVuSans-69" d="M 603 3500 
L 1178 3500 
L 1178 0 
L 603 0 
L 603 3500 
z
M 603 4863 
L 1178 4863 
L 1178 4134 
L 603 4134 
L 603 4863 
z
" transform="scale(0.015625)"/>
       <path id="DejaVuSans-67" d="M 2906 1791 
Q 2906 2416 2648 2759 
Q 2391 3103 1925 3103 
Q 1463 3103 1205 2759 
Q 947 2416 947 1791 
Q 947 1169 1205 825 
Q 1463 481 1925 481 
Q 2391 481 2648 825 
Q 2906 1169 2906 1791 
z
M 3481 434 
Q 3481 -459 3084 -895 
Q 2688 -1331 1869 -1331 
Q 1566 -1331 1297 -1286 
Q 1028 -1241 775 -1147 
L 775 -588 
Q 1028 -725 1275 -790 
Q 1522 -856 1778 -856 
Q 2344 -856 2625 -561 
Q 2906 -266 2906 331 
L 2906 616 
Q 2728 306 2450 153 
Q 2172 0 1784 0 
Q 1141 0 747 490 
Q 353 981 353 1791 
Q 353 2603 747 3093 
Q 1141 3584 1784 3584 
Q 2172 3584 2450 3431 
Q 2728 3278 2906 2969 
L 2906 3500 
L 3481 3500 
L 3481 434 
z
" transform="scale(0.015625)"/>
       <path id="DejaVuSans-6e" d="M 3513 2113 
L 3513 0 
L 2938 0 
L 2938 2094 
Q 2938 2591 2744 2837 
Q 2550 3084 2163 3084 
Q 1697 3084 1428 2787 
Q 1159 2491 1159 1978 
L 1159 0 
L 581 0 
L 581 3500 
L 1159 3500 
L 1159 2956 
Q 1366 3272 1645 3428 
Q 1925 3584 2291 3584 
Q 2894 3584 3203 3211 
Q 3513 2838 3513 2113 
z
" transform="scale(0.015625)"/>
       <path id="DejaVuSans-a0" transform="scale(0.015625)"/>
       <path id="DejaVuSans-6c" d="M 603 4863 
L 1178 4863 
L 1178 0 
L 603 0 
L 603 4863 
z
" transform="scale(0.015625)"/>
       <path id="DejaVuSans-63" d="M 3122 3366 
L 3122 2828 
Q 2878 2963 2633 3030 
Q 2388 3097 2138 3097 
Q 1578 3097 1268 2742 
Q 959 2388 959 1747 
Q 959 1106 1268 751 
Q 1578 397 2138 397 
Q 2388 397 2633 464 
Q 2878 531 3122 666 
L 3122 134 
Q 2881 22 2623 -34 
Q 2366 -91 2075 -91 
Q 1284 -91 818 406 
Q 353 903 353 1747 
Q 353 2603 823 3093 
Q 1294 3584 2113 3584 
Q 2378 3584 2631 3529 
Q 2884 3475 3122 3366 
z
" transform="scale(0.015625)"/>
       <path id="DejaVuSans-64" d="M 2906 2969 
L 2906 4863 
L 3481 4863 
L 3481 0 
L 2906 0 
L 2906 525 
Q 2725 213 2448 61 
Q 2172 -91 1784 -91 
Q 1150 -91 751 415 
Q 353 922 353 1747 
Q 353 2572 751 3078 
Q 1150 3584 1784 3584 
Q 2172 3584 2448 3432 
Q 2725 3281 2906 2969 
z
M 947 1747 
Q 947 1113 1208 752 
Q 1469 391 1925 391 
Q 2381 391 2643 752 
Q 2906 1113 2906 1747 
Q 2906 2381 2643 2742 
Q 2381 3103 1925 3103 
Q 1469 3103 1208 2742 
Q 947 2381 947 1747 
z
" transform="scale(0.015625)"/>
       <path id="DejaVuSans-6d" d="M 3328 2828 
Q 3544 3216 3844 3400 
Q 4144 3584 4550 3584 
Q 5097 3584 5394 3201 
Q 5691 2819 5691 2113 
L 5691 0 
L 5113 0 
L 5113 2094 
Q 5113 2597 4934 2840 
Q 4756 3084 4391 3084 
Q 3944 3084 3684 2787 
Q 3425 2491 3425 1978 
L 3425 0 
L 2847 0 
L 2847 2094 
Q 2847 2600 2669 2842 
Q 2491 3084 2119 3084 
Q 1678 3084 1418 2786 
Q 1159 2488 1159 1978 
L 1159 0 
L 581 0 
L 581 3500 
L 1159 3500 
L 1159 2956 
Q 1356 3278 1631 3431 
Q 1906 3584 2284 3584 
Q 2666 3584 2933 3390 
Q 3200 3197 3328 2828 
z
" transform="scale(0.015625)"/>
      </defs>
      <use xlink:href="#DejaVuSans-20"/>
      <use xlink:href="#DejaVuSans-54" transform="translate(31.787109 0)"/>
      <use xlink:href="#DejaVuSans-61" transform="translate(76.371094 0)"/>
      <use xlink:href="#DejaVuSans-72" transform="translate(137.650391 0)"/>
      <use xlink:href="#DejaVuSans-6a" transform="translate(178.763672 0)"/>
      <use xlink:href="#DejaVuSans-65" transform="translate(206.546875 0)"/>
      <use xlink:href="#DejaVuSans-74" transform="translate(268.070312 0)"/>
      <use xlink:href="#DejaVuSans-61" transform="translate(307.279297 0)"/>
      <use xlink:href="#DejaVuSans-73" transform="translate(368.558594 0)"/>
      <use xlink:href="#DejaVuSans-20" transform="translate(420.658203 0)"/>
      <use xlink:href="#DejaVuSans-76" transform="translate(452.445312 0)"/>
      <use xlink:href="#DejaVuSans-69" transform="translate(511.625 0)"/>
      <use xlink:href="#DejaVuSans-67" transform="translate(539.408203 0)"/>
      <use xlink:href="#DejaVuSans-65" transform="translate(602.884766 0)"/>
      <use xlink:href="#DejaVuSans-6e" transform="translate(664.408203 0)"/>
      <use xlink:href="#DejaVuSans-74" transform="translate(727.787109 0)"/>
      <use xlink:href="#DejaVuSans-65" transform="translate(766.996094 0)"/>
      <use xlink:href="#DejaVuSans-73" transform="translate(828.519531 0)"/>
      <use xlink:href="#DejaVuSans-a0" transform="translate(880.619141 0)"/>
      <use xlink:href="#DejaVuSans-61" transform="translate(912.40625 0)"/>
      <use xlink:href="#DejaVuSans-6c" transform="translate(973.685547 0)"/>
      <use xlink:href="#DejaVuSans-20" transform="translate(1001.46875 0)"/>
      <use xlink:href="#DejaVuSans-63" transform="translate(1033.255859 0)"/>
      <use xlink:href="#DejaVuSans-69" transform="translate(1088.236328 0)"/>
      <use xlink:href="#DejaVuSans-65" transform="translate(1116.019531 0)"/>
      <use xlink:href="#DejaVuSans-72" transform="translate(1177.542969 0)"/>
      <use xlink:href="#DejaVuSans-72" transform="translate(1216.90625 0)"/>
      <use xlink:href="#DejaVuSans-65" transform="translate(1255.769531 0)"/>
      <use xlink:href="#DejaVuSans-20" transform="translate(1317.292969 0)"/>
      <use xlink:href="#DejaVuSans-64" transform="translate(1349.080078 0)"/>
      <use xlink:href="#DejaVuSans-65" transform="translate(1412.556641 0)"/>
      <use xlink:href="#DejaVuSans-6c" transform="translate(1474.080078 0)"/>
      <use xlink:href="#DejaVuSans-20" transform="translate(1501.863281 0)"/>
      <use xlink:href="#DejaVuSans-74" transform="translate(1533.650391 0)"/>
      <use xlink:href="#DejaVuSans-72" transform="translate(1572.859375 0)"/>
      <use xlink:href="#DejaVuSans-69" transform="translate(1613.972656 0)"/>
      <use xlink:href="#DejaVuSans-6d" transform="translate(1641.755859 0)"/>
      <use xlink:href="#DejaVuSans-65" transform="translate(1739.167969 0)"/>
      <use xlink:href="#DejaVuSans-73" transform="translate(1800.691406 0)"/>
      <use xlink:href="#DejaVuSans-74" transform="translate(1852.791016 0)"/>
      <use xlink:href="#DejaVuSans-72" transform="translate(1892 0)"/>
      <use xlink:href="#DejaVuSans-65" transform="translate(1930.863281 0)"/>
      <use xlink:href="#DejaVuSans-20" transform="translate(1992.386719 0)"/>
     </g>
    </g>
    <g id="line2d_52">
     <path d="M 115.2 74.06125 
L 123.2 74.06125 
L 131.2 74.06125 
" style="fill: none; stroke: #1f78b4; stroke-width: 1.5; stroke-linecap: square"/>
    </g>
    <g id="text_19">
     <!--   B -->
     <g transform="translate(137.6 76.86125) scale(0.08 -0.08)">
      <defs>
       <path id="DejaVuSans-42" d="M 1259 2228 
L 1259 519 
L 2272 519 
Q 2781 519 3026 730 
Q 3272 941 3272 1375 
Q 3272 1813 3026 2020 
Q 2781 2228 2272 2228 
L 1259 2228 
z
M 1259 4147 
L 1259 2741 
L 2194 2741 
Q 2656 2741 2882 2914 
Q 3109 3088 3109 3444 
Q 3109 3797 2882 3972 
Q 2656 4147 2194 4147 
L 1259 4147 
z
M 628 4666 
L 2241 4666 
Q 2963 4666 3353 4366 
Q 3744 4066 3744 3513 
Q 3744 3084 3544 2831 
Q 3344 2578 2956 2516 
Q 3422 2416 3680 2098 
Q 3938 1781 3938 1306 
Q 3938 681 3513 340 
Q 3088 0 2303 0 
L 628 0 
L 628 4666 
z
" transform="scale(0.015625)"/>
      </defs>
      <use xlink:href="#DejaVuSans-20"/>
      <use xlink:href="#DejaVuSans-20" transform="translate(31.787109 0)"/>
      <use xlink:href="#DejaVuSans-42" transform="translate(63.574219 0)"/>
     </g>
    </g>
    <g id="line2d_53">
     <path d="M 115.2 85.80375 
L 123.2 85.80375 
L 131.2 85.80375 
" style="fill: none; stroke: #b2df8a; stroke-width: 1.5; stroke-linecap: square"/>
    </g>
    <g id="text_20">
     <!--   C -->
     <g transform="translate(137.6 88.60375) scale(0.08 -0.08)">
      <defs>
       <path id="DejaVuSans-43" d="M 4122 4306 
L 4122 3641 
Q 3803 3938 3442 4084 
Q 3081 4231 2675 4231 
Q 1875 4231 1450 3742 
Q 1025 3253 1025 2328 
Q 1025 1406 1450 917 
Q 1875 428 2675 428 
Q 3081 428 3442 575 
Q 3803 722 4122 1019 
L 4122 359 
Q 3791 134 3420 21 
Q 3050 -91 2638 -91 
Q 1578 -91 968 557 
Q 359 1206 359 2328 
Q 359 3453 968 4101 
Q 1578 4750 2638 4750 
Q 3056 4750 3426 4639 
Q 3797 4528 4122 4306 
z
" transform="scale(0.015625)"/>
      </defs>
      <use xlink:href="#DejaVuSans-20"/>
      <use xlink:href="#DejaVuSans-20" transform="translate(31.787109 0)"/>
      <use xlink:href="#DejaVuSans-43" transform="translate(63.574219 0)"/>
     </g>
    </g>
    <g id="line2d_54">
     <path d="M 115.2 97.54625 
L 123.2 97.54625 
L 131.2 97.54625 
" style="fill: none; stroke: #33a02c; stroke-width: 1.5; stroke-linecap: square"/>
    </g>
    <g id="text_21">
     <!--   D -->
     <g transform="translate(137.6 100.34625) scale(0.08 -0.08)">
      <defs>
       <path id="DejaVuSans-44" d="M 1259 4147 
L 1259 519 
L 2022 519 
Q 2988 519 3436 956 
Q 3884 1394 3884 2338 
Q 3884 3275 3436 3711 
Q 2988 4147 2022 4147 
L 1259 4147 
z
M 628 4666 
L 1925 4666 
Q 3281 4666 3915 4102 
Q 4550 3538 4550 2338 
Q 4550 1131 3912 565 
Q 3275 0 1925 0 
L 628 0 
L 628 4666 
z
" transform="scale(0.015625)"/>
      </defs>
      <use xlink:href="#DejaVuSans-20"/>
      <use xlink:href="#DejaVuSans-20" transform="translate(31.787109 0)"/>
      <use xlink:href="#DejaVuSans-44" transform="translate(63.574219 0)"/>
     </g>
    </g>
    <g id="line2d_55">
     <path d="M 115.2 109.28875 
L 123.2 109.28875 
L 131.2 109.28875 
" style="fill: none; stroke: #fb9a99; stroke-width: 1.5; stroke-linecap: square"/>
    </g>
    <g id="text_22">
     <!--   E -->
     <g transform="translate(137.6 112.08875) scale(0.08 -0.08)">
      <defs>
       <path id="DejaVuSans-45" d="M 628 4666 
L 3578 4666 
L 3578 4134 
L 1259 4134 
L 1259 2753 
L 3481 2753 
L 3481 2222 
L 1259 2222 
L 1259 531 
L 3634 531 
L 3634 0 
L 628 0 
L 628 4666 
z
" transform="scale(0.015625)"/>
      </defs>
      <use xlink:href="#DejaVuSans-20"/>
      <use xlink:href="#DejaVuSans-20" transform="translate(31.787109 0)"/>
      <use xlink:href="#DejaVuSans-45" transform="translate(63.574219 0)"/>
     </g>
    </g>
    <g id="line2d_56">
     <path d="M 115.2 121.03125 
L 123.2 121.03125 
L 131.2 121.03125 
" style="fill: none; stroke: #e31a1c; stroke-width: 1.5; stroke-linecap: square"/>
    </g>
    <g id="text_23">
     <!--   F -->
     <g transform="translate(137.6 123.83125) scale(0.08 -0.08)">
      <defs>
       <path id="DejaVuSans-46" d="M 628 4666 
L 3309 4666 
L 3309 4134 
L 1259 4134 
L 1259 2759 
L 3109 2759 
L 3109 2228 
L 1259 2228 
L 1259 0 
L 628 0 
L 628 4666 
z
" transform="scale(0.015625)"/>
      </defs>
      <use xlink:href="#DejaVuSans-20"/>
      <use xlink:href="#DejaVuSans-20" transform="translate(31.787109 0)"/>
      <use xlink:href="#DejaVuSans-46" transform="translate(63.574219 0)"/>
     </g>
    </g>
    <g id="line2d_57">
     <path d="M 115.2 132.77375 
L 123.2 132.77375 
L 131.2 132.77375 
" style="fill: none; stroke: #fdbf6f; stroke-width: 1.5; stroke-linecap: square"/>
    </g>
    <g id="text_24">
     <!--   G -->
     <g transform="translate(137.6 135.57375) scale(0.08 -0.08)">
      <defs>
       <path id="DejaVuSans-47" d="M 3809 666 
L 3809 1919 
L 2778 1919 
L 2778 2438 
L 4434 2438 
L 4434 434 
Q 4069 175 3628 42 
Q 3188 -91 2688 -91 
Q 1594 -91 976 548 
Q 359 1188 359 2328 
Q 359 3472 976 4111 
Q 1594 4750 2688 4750 
Q 3144 4750 3555 4637 
Q 3966 4525 4313 4306 
L 4313 3634 
Q 3963 3931 3569 4081 
Q 3175 4231 2741 4231 
Q 1884 4231 1454 3753 
Q 1025 3275 1025 2328 
Q 1025 1384 1454 906 
Q 1884 428 2741 428 
Q 3075 428 3337 486 
Q 3600 544 3809 666 
z
" transform="scale(0.015625)"/>
      </defs>
      <use xlink:href="#DejaVuSans-20"/>
      <use xlink:href="#DejaVuSans-20" transform="translate(31.787109 0)"/>
      <use xlink:href="#DejaVuSans-47" transform="translate(63.574219 0)"/>
     </g>
    </g>
    <g id="line2d_58">
     <path d="M 115.2 144.51625 
L 123.2 144.51625 
L 131.2 144.51625 
" style="fill: none; stroke: #ff7f00; stroke-width: 1.5; stroke-linecap: square"/>
    </g>
    <g id="text_25">
     <!--   H -->
     <g transform="translate(137.6 147.31625) scale(0.08 -0.08)">
      <defs>
       <path id="DejaVuSans-48" d="M 628 4666 
L 1259 4666 
L 1259 2753 
L 3553 2753 
L 3553 4666 
L 4184 4666 
L 4184 0 
L 3553 0 
L 3553 2222 
L 1259 2222 
L 1259 0 
L 628 0 
L 628 4666 
z
" transform="scale(0.015625)"/>
      </defs>
      <use xlink:href="#DejaVuSans-20"/>
      <use xlink:href="#DejaVuSans-20" transform="translate(31.787109 0)"/>
      <use xlink:href="#DejaVuSans-48" transform="translate(63.574219 0)"/>
     </g>
    </g>
    <g id="line2d_59">
     <path d="M 115.2 156.25875 
L 123.2 156.25875 
L 131.2 156.25875 
" style="fill: none; stroke: #cab2d6; stroke-width: 1.5; stroke-linecap: square"/>
    </g>
    <g id="text_26">
     <!--   I -->
     <g transform="translate(137.6 159.05875) scale(0.08 -0.08)">
      <defs>
       <path id="DejaVuSans-49" d="M 628 4666 
L 1259 4666 
L 1259 0 
L 628 0 
L 628 4666 
z
" transform="scale(0.015625)"/>
      </defs>
      <use xlink:href="#DejaVuSans-20"/>
      <use xlink:href="#DejaVuSans-20" transform="translate(31.787109 0)"/>
      <use xlink:href="#DejaVuSans-49" transform="translate(63.574219 0)"/>
     </g>
    </g>
    <g id="line2d_60">
     <path d="M 115.2 168.00125 
L 123.2 168.00125 
L 131.2 168.00125 
" style="fill: none; stroke: #6a3d9a; stroke-width: 1.5; stroke-linecap: square"/>
    </g>
    <g id="text_27">
     <!--   J -->
     <g transform="translate(137.6 170.80125) scale(0.08 -0.08)">
      <defs>
       <path id="DejaVuSans-4a" d="M 628 4666 
L 1259 4666 
L 1259 325 
Q 1259 -519 939 -900 
Q 619 -1281 -91 -1281 
L -331 -1281 
L -331 -750 
L -134 -750 
Q 284 -750 456 -515 
Q 628 -281 628 325 
L 628 4666 
z
" transform="scale(0.015625)"/>
      </defs>
      <use xlink:href="#DejaVuSans-20"/>
      <use xlink:href="#DejaVuSans-20" transform="translate(31.787109 0)"/>
      <use xlink:href="#DejaVuSans-4a" transform="translate(63.574219 0)"/>
     </g>
    </g>
    <g id="line2d_61">
     <path d="M 115.2 179.74375 
L 123.2 179.74375 
L 131.2 179.74375 
" style="fill: none; stroke: #ffff99; stroke-width: 1.5; stroke-linecap: square"/>
    </g>
    <g id="text_28">
     <!--   K -->
     <g transform="translate(137.6 182.54375) scale(0.08 -0.08)">
      <defs>
       <path id="DejaVuSans-4b" d="M 628 4666 
L 1259 4666 
L 1259 2694 
L 3353 4666 
L 4166 4666 
L 1850 2491 
L 4331 0 
L 3500 0 
L 1259 2247 
L 1259 0 
L 628 0 
L 628 4666 
z
" transform="scale(0.015625)"/>
      </defs>
      <use xlink:href="#DejaVuSans-20"/>
      <use xlink:href="#DejaVuSans-20" transform="translate(31.787109 0)"/>
      <use xlink:href="#DejaVuSans-4b" transform="translate(63.574219 0)"/>
     </g>
    </g>
    <g id="line2d_62">
     <path d="M 115.2 191.48625 
L 123.2 191.48625 
L 131.2 191.48625 
" style="fill: none; stroke: #b15928; stroke-width: 1.5; stroke-linecap: square"/>
    </g>
    <g id="text_29">
     <!--   M -->
     <g transform="translate(137.6 194.28625) scale(0.08 -0.08)">
      <defs>
       <path id="DejaVuSans-4d" d="M 628 4666 
L 1569 4666 
L 2759 1491 
L 3956 4666 
L 4897 4666 
L 4897 0 
L 4281 0 
L 4281 4097 
L 3078 897 
L 2444 897 
L 1241 4097 
L 1241 0 
L 628 0 
L 628 4666 
z
" transform="scale(0.015625)"/>
      </defs>
      <use xlink:href="#DejaVuSans-20"/>
      <use xlink:href="#DejaVuSans-20" transform="translate(31.787109 0)"/>
      <use xlink:href="#DejaVuSans-4d" transform="translate(63.574219 0)"/>
     </g>
    </g>
    <g id="line2d_63">
     <path d="M 115.2 203.22875 
L 123.2 203.22875 
L 131.2 203.22875 
" style="fill: none; stroke: #a6cee3; stroke-width: 1.5; stroke-linecap: square"/>
    </g>
    <g id="text_30">
     <!--   N -->
     <g transform="translate(137.6 206.02875) scale(0.08 -0.08)">
      <defs>
       <path id="DejaVuSans-4e" d="M 628 4666 
L 1478 4666 
L 3547 763 
L 3547 4666 
L 4159 4666 
L 4159 0 
L 3309 0 
L 1241 3903 
L 1241 0 
L 628 0 
L 628 4666 
z
" transform="scale(0.015625)"/>
      </defs>
      <use xlink:href="#DejaVuSans-20"/>
      <use xlink:href="#DejaVuSans-20" transform="translate(31.787109 0)"/>
      <use xlink:href="#DejaVuSans-4e" transform="translate(63.574219 0)"/>
     </g>
    </g>
    <g id="line2d_64">
     <path d="M 115.2 214.97125 
L 123.2 214.97125 
L 131.2 214.97125 
" style="fill: none; stroke: #1f78b4; stroke-width: 1.5; stroke-linecap: square"/>
    </g>
    <g id="text_31">
     <!--   O -->
     <g transform="translate(137.6 217.77125) scale(0.08 -0.08)">
      <defs>
       <path id="DejaVuSans-4f" d="M 2522 4238 
Q 1834 4238 1429 3725 
Q 1025 3213 1025 2328 
Q 1025 1447 1429 934 
Q 1834 422 2522 422 
Q 3209 422 3611 934 
Q 4013 1447 4013 2328 
Q 4013 3213 3611 3725 
Q 3209 4238 2522 4238 
z
M 2522 4750 
Q 3503 4750 4090 4092 
Q 4678 3434 4678 2328 
Q 4678 1225 4090 567 
Q 3503 -91 2522 -91 
Q 1538 -91 948 565 
Q 359 1222 359 2328 
Q 359 3434 948 4092 
Q 1538 4750 2522 4750 
z
" transform="scale(0.015625)"/>
      </defs>
      <use xlink:href="#DejaVuSans-20"/>
      <use xlink:href="#DejaVuSans-20" transform="translate(31.787109 0)"/>
      <use xlink:href="#DejaVuSans-4f" transform="translate(63.574219 0)"/>
     </g>
    </g>
    <g id="line2d_65">
     <path d="M 115.2 226.71375 
L 123.2 226.71375 
L 131.2 226.71375 
" style="fill: none; stroke: #b2df8a; stroke-width: 1.5; stroke-linecap: square"/>
    </g>
    <g id="text_32">
     <!--   T -->
     <g transform="translate(137.6 229.51375) scale(0.08 -0.08)">
      <use xlink:href="#DejaVuSans-20"/>
      <use xlink:href="#DejaVuSans-20" transform="translate(31.787109 0)"/>
      <use xlink:href="#DejaVuSans-54" transform="translate(63.574219 0)"/>
     </g>
    </g>
    <g id="line2d_66">
     <path d="M 115.2 238.45625 
L 123.2 238.45625 
L 131.2 238.45625 
" style="fill: none; stroke: #33a02c; stroke-width: 1.5; stroke-linecap: square"/>
    </g>
    <g id="text_33">
     <!--   U -->
     <g transform="translate(137.6 241.25625) scale(0.08 -0.08)">
      <defs>
       <path id="DejaVuSans-55" d="M 556 4666 
L 1191 4666 
L 1191 1831 
Q 1191 1081 1462 751 
Q 1734 422 2344 422 
Q 2950 422 3222 751 
Q 3494 1081 3494 1831 
L 3494 4666 
L 4128 4666 
L 4128 1753 
Q 4128 841 3676 375 
Q 3225 -91 2344 -91 
Q 1459 -91 1007 375 
Q 556 841 556 1753 
L 556 4666 
z
" transform="scale(0.015625)"/>
      </defs>
      <use xlink:href="#DejaVuSans-20"/>
      <use xlink:href="#DejaVuSans-20" transform="translate(31.787109 0)"/>
      <use xlink:href="#DejaVuSans-55" transform="translate(63.574219 0)"/>
     </g>
    </g>
    <g id="line2d_67">
     <path d="M 115.2 250.19875 
L 123.2 250.19875 
L 131.2 250.19875 
" style="fill: none; stroke: #fb9a99; stroke-width: 1.5; stroke-linecap: square"/>
    </g>
    <g id="text_34">
     <!--   V -->
     <g transform="translate(137.6 252.99875) scale(0.08 -0.08)">
      <defs>
       <path id="DejaVuSans-56" d="M 1831 0 
L 50 4666 
L 709 4666 
L 2188 738 
L 3669 4666 
L 4325 4666 
L 2547 0 
L 1831 0 
z
" transform="scale(0.015625)"/>
      </defs>
      <use xlink:href="#DejaVuSans-20"/>
      <use xlink:href="#DejaVuSans-20" transform="translate(31.787109 0)"/>
      <use xlink:href="#DejaVuSans-56" transform="translate(63.574219 0)"/>
     </g>
    </g>
    <g id="line2d_68">
     <path d="M 115.2 261.94125 
L 123.2 261.94125 
L 131.2 261.94125 
" style="fill: none; stroke: #e31a1c; stroke-width: 1.5; stroke-linecap: square"/>
    </g>
    <g id="text_35">
     <!--   W -->
     <g transform="translate(137.6 264.74125) scale(0.08 -0.08)">
      <defs>
       <path id="DejaVuSans-57" d="M 213 4666 
L 850 4666 
L 1831 722 
L 2809 4666 
L 3519 4666 
L 4500 722 
L 5478 4666 
L 6119 4666 
L 4947 0 
L 4153 0 
L 3169 4050 
L 2175 0 
L 1381 0 
L 213 4666 
z
" transform="scale(0.015625)"/>
      </defs>
      <use xlink:href="#DejaVuSans-20"/>
      <use xlink:href="#DejaVuSans-20" transform="translate(31.787109 0)"/>
      <use xlink:href="#DejaVuSans-57" transform="translate(63.574219 0)"/>
     </g>
    </g>
    <g id="line2d_69">
     <path d="M 115.2 273.68375 
L 123.2 273.68375 
L 131.2 273.68375 
" style="fill: none; stroke: #fdbf6f; stroke-width: 1.5; stroke-linecap: square"/>
    </g>
    <g id="text_36">
     <!--   X -->
     <g transform="translate(137.6 276.48375) scale(0.08 -0.08)">
      <defs>
       <path id="DejaVuSans-58" d="M 403 4666 
L 1081 4666 
L 2241 2931 
L 3406 4666 
L 4084 4666 
L 2584 2425 
L 4184 0 
L 3506 0 
L 2194 1984 
L 872 0 
L 191 0 
L 1856 2491 
L 403 4666 
z
" transform="scale(0.015625)"/>
      </defs>
      <use xlink:href="#DejaVuSans-20"/>
      <use xlink:href="#DejaVuSans-20" transform="translate(31.787109 0)"/>
      <use xlink:href="#DejaVuSans-58" transform="translate(63.574219 0)"/>
     </g>
    </g>
    <g id="line2d_70">
     <path d="M 115.2 285.42625 
L 123.2 285.42625 
L 131.2 285.42625 
" style="fill: none; stroke: #ff7f00; stroke-width: 1.5; stroke-linecap: square"/>
    </g>
    <g id="text_37">
     <!--   Y -->
     <g transform="translate(137.6 288.22625) scale(0.08 -0.08)">
      <defs>
       <path id="DejaVuSans-59" d="M -13 4666 
L 666 4666 
L 1959 2747 
L 3244 4666 
L 3922 4666 
L 2272 2222 
L 2272 0 
L 1638 0 
L 1638 2222 
L -13 4666 
z
" transform="scale(0.015625)"/>
      </defs>
      <use xlink:href="#DejaVuSans-20"/>
      <use xlink:href="#DejaVuSans-20" transform="translate(31.787109 0)"/>
      <use xlink:href="#DejaVuSans-59" transform="translate(63.574219 0)"/>
     </g>
    </g>
   </g>
  </g>
 </g>
 <defs>
  <clipPath id="p5d978a46d1">
   <rect x="108" y="51.84" width="669.6" height="332.64"/>
  </clipPath>
 </defs>
</svg>
