<?xml version="1.0" encoding="utf-8" standalone="no"?>
<!DOCTYPE svg PUBLIC "-//W3C//DTD SVG 1.1//EN"
  "http://www.w3.org/Graphics/SVG/1.1/DTD/svg11.dtd">
<svg xmlns:xlink="http://www.w3.org/1999/xlink" width="864pt" height="432pt" viewBox="0 0 864 432" xmlns="http://www.w3.org/2000/svg" version="1.1">
 <metadata>
  <rdf:RDF xmlns:dc="http://purl.org/dc/elements/1.1/" xmlns:cc="http://creativecommons.org/ns#" xmlns:rdf="http://www.w3.org/1999/02/22-rdf-syntax-ns#">
   <cc:Work>
    <dc:type rdf:resource="http://purl.org/dc/dcmitype/StillImage"/>
    <dc:date>2025-02-23T20:14:41.353652</dc:date>
    <dc:format>image/svg+xml</dc:format>
    <dc:creator>
     <cc:Agent>
      <dc:title>Matplotlib v3.10.0, https://matplotlib.org/</dc:title>
     </cc:Agent>
    </dc:creator>
   </cc:Work>
  </rdf:RDF>
 </metadata>
 <defs>
  <style type="text/css">*{stroke-linejoin: round; stroke-linecap: butt}</style>
 </defs>
 <g id="figure_1">
  <g id="patch_1">
   <path d="M 0 432 
L 864 432 
L 864 0 
L 0 0 
z
" style="fill: #ffffff"/>
  </g>
  <g id="axes_1">
   <g id="patch_2">
    <path d="M 108 384.48 
L 777.6 384.48 
L 777.6 51.84 
L 108 51.84 
z
" style="fill: #ffffff"/>
   </g>
   <g id="matplotlib.axis_1">
    <g id="xtick_1">
     <g id="line2d_1">
      <path d="M 173.02314 384.48 
L 173.02314 51.84 
" clip-path="url(#pa34fd54c7b)" style="fill: none; stroke-dasharray: 2.96,1.28; stroke-dashoffset: 0; stroke: #b0b0b0; stroke-opacity: 0.5; stroke-width: 0.8"/>
     </g>
     <g id="line2d_2">
      <defs>
       <path id="m9096cb350f" d="M 0 0 
L 0 3.5 
" style="stroke: #000000; stroke-width: 0.8"/>
      </defs>
      <g>
       <use xlink:href="#m9096cb350f" x="173.02314" y="384.48" style="stroke: #000000; stroke-width: 0.8"/>
      </g>
     </g>
     <g id="text_1">
      <!-- 2012 -->
      <g transform="translate(160.29814 399.078438) scale(0.1 -0.1)">
       <defs>
        <path id="DejaVuSans-32" d="M 1228 531 
L 3431 531 
L 3431 0 
L 469 0 
L 469 531 
Q 828 903 1448 1529 
Q 2069 2156 2228 2338 
Q 2531 2678 2651 2914 
Q 2772 3150 2772 3378 
Q 2772 3750 2511 3984 
Q 2250 4219 1831 4219 
Q 1534 4219 1204 4116 
Q 875 4013 500 3803 
L 500 4441 
Q 881 4594 1212 4672 
Q 1544 4750 1819 4750 
Q 2544 4750 2975 4387 
Q 3406 4025 3406 3419 
Q 3406 3131 3298 2873 
Q 3191 2616 2906 2266 
Q 2828 2175 2409 1742 
Q 1991 1309 1228 531 
z
" transform="scale(0.015625)"/>
        <path id="DejaVuSans-30" d="M 2034 4250 
Q 1547 4250 1301 3770 
Q 1056 3291 1056 2328 
Q 1056 1369 1301 889 
Q 1547 409 2034 409 
Q 2525 409 2770 889 
Q 3016 1369 3016 2328 
Q 3016 3291 2770 3770 
Q 2525 4250 2034 4250 
z
M 2034 4750 
Q 2819 4750 3233 4129 
Q 3647 3509 3647 2328 
Q 3647 1150 3233 529 
Q 2819 -91 2034 -91 
Q 1250 -91 836 529 
Q 422 1150 422 2328 
Q 422 3509 836 4129 
Q 1250 4750 2034 4750 
z
" transform="scale(0.015625)"/>
        <path id="DejaVuSans-31" d="M 794 531 
L 1825 531 
L 1825 4091 
L 703 3866 
L 703 4441 
L 1819 4666 
L 2450 4666 
L 2450 531 
L 3481 531 
L 3481 0 
L 794 0 
L 794 531 
z
" transform="scale(0.015625)"/>
       </defs>
       <use xlink:href="#DejaVuSans-32"/>
       <use xlink:href="#DejaVuSans-30" transform="translate(63.623047 0)"/>
       <use xlink:href="#DejaVuSans-31" transform="translate(127.246094 0)"/>
       <use xlink:href="#DejaVuSans-32" transform="translate(190.869141 0)"/>
      </g>
     </g>
    </g>
    <g id="xtick_2">
     <g id="line2d_3">
      <path d="M 264.961082 384.48 
L 264.961082 51.84 
" clip-path="url(#pa34fd54c7b)" style="fill: none; stroke-dasharray: 2.96,1.28; stroke-dashoffset: 0; stroke: #b0b0b0; stroke-opacity: 0.5; stroke-width: 0.8"/>
     </g>
     <g id="line2d_4">
      <g>
       <use xlink:href="#m9096cb350f" x="264.961082" y="384.48" style="stroke: #000000; stroke-width: 0.8"/>
      </g>
     </g>
     <g id="text_2">
      <!-- 2014 -->
      <g transform="translate(252.236082 399.078438) scale(0.1 -0.1)">
       <defs>
        <path id="DejaVuSans-34" d="M 2419 4116 
L 825 1625 
L 2419 1625 
L 2419 4116 
z
M 2253 4666 
L 3047 4666 
L 3047 1625 
L 3713 1625 
L 3713 1100 
L 3047 1100 
L 3047 0 
L 2419 0 
L 2419 1100 
L 313 1100 
L 313 1709 
L 2253 4666 
z
" transform="scale(0.015625)"/>
       </defs>
       <use xlink:href="#DejaVuSans-32"/>
       <use xlink:href="#DejaVuSans-30" transform="translate(63.623047 0)"/>
       <use xlink:href="#DejaVuSans-31" transform="translate(127.246094 0)"/>
       <use xlink:href="#DejaVuSans-34" transform="translate(190.869141 0)"/>
      </g>
     </g>
    </g>
    <g id="xtick_3">
     <g id="line2d_5">
      <path d="M 356.773253 384.48 
L 356.773253 51.84 
" clip-path="url(#pa34fd54c7b)" style="fill: none; stroke-dasharray: 2.96,1.28; stroke-dashoffset: 0; stroke: #b0b0b0; stroke-opacity: 0.5; stroke-width: 0.8"/>
     </g>
     <g id="line2d_6">
      <g>
       <use xlink:href="#m9096cb350f" x="356.773253" y="384.48" style="stroke: #000000; stroke-width: 0.8"/>
      </g>
     </g>
     <g id="text_3">
      <!-- 2016 -->
      <g transform="translate(344.048253 399.078438) scale(0.1 -0.1)">
       <defs>
        <path id="DejaVuSans-36" d="M 2113 2584 
Q 1688 2584 1439 2293 
Q 1191 2003 1191 1497 
Q 1191 994 1439 701 
Q 1688 409 2113 409 
Q 2538 409 2786 701 
Q 3034 994 3034 1497 
Q 3034 2003 2786 2293 
Q 2538 2584 2113 2584 
z
M 3366 4563 
L 3366 3988 
Q 3128 4100 2886 4159 
Q 2644 4219 2406 4219 
Q 1781 4219 1451 3797 
Q 1122 3375 1075 2522 
Q 1259 2794 1537 2939 
Q 1816 3084 2150 3084 
Q 2853 3084 3261 2657 
Q 3669 2231 3669 1497 
Q 3669 778 3244 343 
Q 2819 -91 2113 -91 
Q 1303 -91 875 529 
Q 447 1150 447 2328 
Q 447 3434 972 4092 
Q 1497 4750 2381 4750 
Q 2619 4750 2861 4703 
Q 3103 4656 3366 4563 
z
" transform="scale(0.015625)"/>
       </defs>
       <use xlink:href="#DejaVuSans-32"/>
       <use xlink:href="#DejaVuSans-30" transform="translate(63.623047 0)"/>
       <use xlink:href="#DejaVuSans-31" transform="translate(127.246094 0)"/>
       <use xlink:href="#DejaVuSans-36" transform="translate(190.869141 0)"/>
      </g>
     </g>
    </g>
    <g id="xtick_4">
     <g id="line2d_7">
      <path d="M 448.711195 384.48 
L 448.711195 51.84 
" clip-path="url(#pa34fd54c7b)" style="fill: none; stroke-dasharray: 2.96,1.28; stroke-dashoffset: 0; stroke: #b0b0b0; stroke-opacity: 0.5; stroke-width: 0.8"/>
     </g>
     <g id="line2d_8">
      <g>
       <use xlink:href="#m9096cb350f" x="448.711195" y="384.48" style="stroke: #000000; stroke-width: 0.8"/>
      </g>
     </g>
     <g id="text_4">
      <!-- 2018 -->
      <g transform="translate(435.986195 399.078438) scale(0.1 -0.1)">
       <defs>
        <path id="DejaVuSans-38" d="M 2034 2216 
Q 1584 2216 1326 1975 
Q 1069 1734 1069 1313 
Q 1069 891 1326 650 
Q 1584 409 2034 409 
Q 2484 409 2743 651 
Q 3003 894 3003 1313 
Q 3003 1734 2745 1975 
Q 2488 2216 2034 2216 
z
M 1403 2484 
Q 997 2584 770 2862 
Q 544 3141 544 3541 
Q 544 4100 942 4425 
Q 1341 4750 2034 4750 
Q 2731 4750 3128 4425 
Q 3525 4100 3525 3541 
Q 3525 3141 3298 2862 
Q 3072 2584 2669 2484 
Q 3125 2378 3379 2068 
Q 3634 1759 3634 1313 
Q 3634 634 3220 271 
Q 2806 -91 2034 -91 
Q 1263 -91 848 271 
Q 434 634 434 1313 
Q 434 1759 690 2068 
Q 947 2378 1403 2484 
z
M 1172 3481 
Q 1172 3119 1398 2916 
Q 1625 2713 2034 2713 
Q 2441 2713 2670 2916 
Q 2900 3119 2900 3481 
Q 2900 3844 2670 4047 
Q 2441 4250 2034 4250 
Q 1625 4250 1398 4047 
Q 1172 3844 1172 3481 
z
" transform="scale(0.015625)"/>
       </defs>
       <use xlink:href="#DejaVuSans-32"/>
       <use xlink:href="#DejaVuSans-30" transform="translate(63.623047 0)"/>
       <use xlink:href="#DejaVuSans-31" transform="translate(127.246094 0)"/>
       <use xlink:href="#DejaVuSans-38" transform="translate(190.869141 0)"/>
      </g>
     </g>
    </g>
    <g id="xtick_5">
     <g id="line2d_9">
      <path d="M 540.523366 384.48 
L 540.523366 51.84 
" clip-path="url(#pa34fd54c7b)" style="fill: none; stroke-dasharray: 2.96,1.28; stroke-dashoffset: 0; stroke: #b0b0b0; stroke-opacity: 0.5; stroke-width: 0.8"/>
     </g>
     <g id="line2d_10">
      <g>
       <use xlink:href="#m9096cb350f" x="540.523366" y="384.48" style="stroke: #000000; stroke-width: 0.8"/>
      </g>
     </g>
     <g id="text_5">
      <!-- 2020 -->
      <g transform="translate(527.798366 399.078438) scale(0.1 -0.1)">
       <use xlink:href="#DejaVuSans-32"/>
       <use xlink:href="#DejaVuSans-30" transform="translate(63.623047 0)"/>
       <use xlink:href="#DejaVuSans-32" transform="translate(127.246094 0)"/>
       <use xlink:href="#DejaVuSans-30" transform="translate(190.869141 0)"/>
      </g>
     </g>
    </g>
    <g id="xtick_6">
     <g id="line2d_11">
      <path d="M 632.461307 384.48 
L 632.461307 51.84 
" clip-path="url(#pa34fd54c7b)" style="fill: none; stroke-dasharray: 2.96,1.28; stroke-dashoffset: 0; stroke: #b0b0b0; stroke-opacity: 0.5; stroke-width: 0.8"/>
     </g>
     <g id="line2d_12">
      <g>
       <use xlink:href="#m9096cb350f" x="632.461307" y="384.48" style="stroke: #000000; stroke-width: 0.8"/>
      </g>
     </g>
     <g id="text_6">
      <!-- 2022 -->
      <g transform="translate(619.736307 399.078438) scale(0.1 -0.1)">
       <use xlink:href="#DejaVuSans-32"/>
       <use xlink:href="#DejaVuSans-30" transform="translate(63.623047 0)"/>
       <use xlink:href="#DejaVuSans-32" transform="translate(127.246094 0)"/>
       <use xlink:href="#DejaVuSans-32" transform="translate(190.869141 0)"/>
      </g>
     </g>
    </g>
    <g id="xtick_7">
     <g id="line2d_13">
      <path d="M 724.273479 384.48 
L 724.273479 51.84 
" clip-path="url(#pa34fd54c7b)" style="fill: none; stroke-dasharray: 2.96,1.28; stroke-dashoffset: 0; stroke: #b0b0b0; stroke-opacity: 0.5; stroke-width: 0.8"/>
     </g>
     <g id="line2d_14">
      <g>
       <use xlink:href="#m9096cb350f" x="724.273479" y="384.48" style="stroke: #000000; stroke-width: 0.8"/>
      </g>
     </g>
     <g id="text_7">
      <!-- 2024 -->
      <g transform="translate(711.548479 399.078438) scale(0.1 -0.1)">
       <use xlink:href="#DejaVuSans-32"/>
       <use xlink:href="#DejaVuSans-30" transform="translate(63.623047 0)"/>
       <use xlink:href="#DejaVuSans-32" transform="translate(127.246094 0)"/>
       <use xlink:href="#DejaVuSans-34" transform="translate(190.869141 0)"/>
      </g>
     </g>
    </g>
   </g>
   <g id="matplotlib.axis_2">
    <g id="ytick_1">
     <g id="line2d_15">
      <path d="M 108 356.634567 
L 777.6 356.634567 
" clip-path="url(#pa34fd54c7b)" style="fill: none; stroke-dasharray: 2.96,1.28; stroke-dashoffset: 0; stroke: #b0b0b0; stroke-opacity: 0.5; stroke-width: 0.8"/>
     </g>
     <g id="line2d_16">
      <defs>
       <path id="mb834ee6520" d="M 0 0 
L -3.5 0 
" style="stroke: #000000; stroke-width: 0.8"/>
      </defs>
      <g>
       <use xlink:href="#mb834ee6520" x="108" y="356.634567" style="stroke: #000000; stroke-width: 0.8"/>
      </g>
     </g>
     <g id="text_8">
      <!-- 0.2 -->
      <g transform="translate(85.096875 360.433786) scale(0.1 -0.1)">
       <defs>
        <path id="DejaVuSans-2e" d="M 684 794 
L 1344 794 
L 1344 0 
L 684 0 
L 684 794 
z
" transform="scale(0.015625)"/>
       </defs>
       <use xlink:href="#DejaVuSans-30"/>
       <use xlink:href="#DejaVuSans-2e" transform="translate(63.623047 0)"/>
       <use xlink:href="#DejaVuSans-32" transform="translate(95.410156 0)"/>
      </g>
     </g>
    </g>
    <g id="ytick_2">
     <g id="line2d_17">
      <path d="M 108 317.993962 
L 777.6 317.993962 
" clip-path="url(#pa34fd54c7b)" style="fill: none; stroke-dasharray: 2.96,1.28; stroke-dashoffset: 0; stroke: #b0b0b0; stroke-opacity: 0.5; stroke-width: 0.8"/>
     </g>
     <g id="line2d_18">
      <g>
       <use xlink:href="#mb834ee6520" x="108" y="317.993962" style="stroke: #000000; stroke-width: 0.8"/>
      </g>
     </g>
     <g id="text_9">
      <!-- 0.4 -->
      <g transform="translate(85.096875 321.793181) scale(0.1 -0.1)">
       <use xlink:href="#DejaVuSans-30"/>
       <use xlink:href="#DejaVuSans-2e" transform="translate(63.623047 0)"/>
       <use xlink:href="#DejaVuSans-34" transform="translate(95.410156 0)"/>
      </g>
     </g>
    </g>
    <g id="ytick_3">
     <g id="line2d_19">
      <path d="M 108 279.353358 
L 777.6 279.353358 
" clip-path="url(#pa34fd54c7b)" style="fill: none; stroke-dasharray: 2.96,1.28; stroke-dashoffset: 0; stroke: #b0b0b0; stroke-opacity: 0.5; stroke-width: 0.8"/>
     </g>
     <g id="line2d_20">
      <g>
       <use xlink:href="#mb834ee6520" x="108" y="279.353358" style="stroke: #000000; stroke-width: 0.8"/>
      </g>
     </g>
     <g id="text_10">
      <!-- 0.6 -->
      <g transform="translate(85.096875 283.152576) scale(0.1 -0.1)">
       <use xlink:href="#DejaVuSans-30"/>
       <use xlink:href="#DejaVuSans-2e" transform="translate(63.623047 0)"/>
       <use xlink:href="#DejaVuSans-36" transform="translate(95.410156 0)"/>
      </g>
     </g>
    </g>
    <g id="ytick_4">
     <g id="line2d_21">
      <path d="M 108 240.712753 
L 777.6 240.712753 
" clip-path="url(#pa34fd54c7b)" style="fill: none; stroke-dasharray: 2.96,1.28; stroke-dashoffset: 0; stroke: #b0b0b0; stroke-opacity: 0.5; stroke-width: 0.8"/>
     </g>
     <g id="line2d_22">
      <g>
       <use xlink:href="#mb834ee6520" x="108" y="240.712753" style="stroke: #000000; stroke-width: 0.8"/>
      </g>
     </g>
     <g id="text_11">
      <!-- 0.8 -->
      <g transform="translate(85.096875 244.511972) scale(0.1 -0.1)">
       <use xlink:href="#DejaVuSans-30"/>
       <use xlink:href="#DejaVuSans-2e" transform="translate(63.623047 0)"/>
       <use xlink:href="#DejaVuSans-38" transform="translate(95.410156 0)"/>
      </g>
     </g>
    </g>
    <g id="ytick_5">
     <g id="line2d_23">
      <path d="M 108 202.072148 
L 777.6 202.072148 
" clip-path="url(#pa34fd54c7b)" style="fill: none; stroke-dasharray: 2.96,1.28; stroke-dashoffset: 0; stroke: #b0b0b0; stroke-opacity: 0.5; stroke-width: 0.8"/>
     </g>
     <g id="line2d_24">
      <g>
       <use xlink:href="#mb834ee6520" x="108" y="202.072148" style="stroke: #000000; stroke-width: 0.8"/>
      </g>
     </g>
     <g id="text_12">
      <!-- 1.0 -->
      <g transform="translate(85.096875 205.871367) scale(0.1 -0.1)">
       <use xlink:href="#DejaVuSans-31"/>
       <use xlink:href="#DejaVuSans-2e" transform="translate(63.623047 0)"/>
       <use xlink:href="#DejaVuSans-30" transform="translate(95.410156 0)"/>
      </g>
     </g>
    </g>
    <g id="ytick_6">
     <g id="line2d_25">
      <path d="M 108 163.431544 
L 777.6 163.431544 
" clip-path="url(#pa34fd54c7b)" style="fill: none; stroke-dasharray: 2.96,1.28; stroke-dashoffset: 0; stroke: #b0b0b0; stroke-opacity: 0.5; stroke-width: 0.8"/>
     </g>
     <g id="line2d_26">
      <g>
       <use xlink:href="#mb834ee6520" x="108" y="163.431544" style="stroke: #000000; stroke-width: 0.8"/>
      </g>
     </g>
     <g id="text_13">
      <!-- 1.2 -->
      <g transform="translate(85.096875 167.230763) scale(0.1 -0.1)">
       <use xlink:href="#DejaVuSans-31"/>
       <use xlink:href="#DejaVuSans-2e" transform="translate(63.623047 0)"/>
       <use xlink:href="#DejaVuSans-32" transform="translate(95.410156 0)"/>
      </g>
     </g>
    </g>
    <g id="ytick_7">
     <g id="line2d_27">
      <path d="M 108 124.790939 
L 777.6 124.790939 
" clip-path="url(#pa34fd54c7b)" style="fill: none; stroke-dasharray: 2.96,1.28; stroke-dashoffset: 0; stroke: #b0b0b0; stroke-opacity: 0.5; stroke-width: 0.8"/>
     </g>
     <g id="line2d_28">
      <g>
       <use xlink:href="#mb834ee6520" x="108" y="124.790939" style="stroke: #000000; stroke-width: 0.8"/>
      </g>
     </g>
     <g id="text_14">
      <!-- 1.4 -->
      <g transform="translate(85.096875 128.590158) scale(0.1 -0.1)">
       <use xlink:href="#DejaVuSans-31"/>
       <use xlink:href="#DejaVuSans-2e" transform="translate(63.623047 0)"/>
       <use xlink:href="#DejaVuSans-34" transform="translate(95.410156 0)"/>
      </g>
     </g>
    </g>
    <g id="ytick_8">
     <g id="line2d_29">
      <path d="M 108 86.150335 
L 777.6 86.150335 
" clip-path="url(#pa34fd54c7b)" style="fill: none; stroke-dasharray: 2.96,1.28; stroke-dashoffset: 0; stroke: #b0b0b0; stroke-opacity: 0.5; stroke-width: 0.8"/>
     </g>
     <g id="line2d_30">
      <g>
       <use xlink:href="#mb834ee6520" x="108" y="86.150335" style="stroke: #000000; stroke-width: 0.8"/>
      </g>
     </g>
     <g id="text_15">
      <!-- 1.6 -->
      <g transform="translate(85.096875 89.949553) scale(0.1 -0.1)">
       <use xlink:href="#DejaVuSans-31"/>
       <use xlink:href="#DejaVuSans-2e" transform="translate(63.623047 0)"/>
       <use xlink:href="#DejaVuSans-36" transform="translate(95.410156 0)"/>
      </g>
     </g>
    </g>
    <g id="text_16">
     <!-- 1e7 -->
     <g transform="translate(108 48.84) scale(0.1 -0.1)">
      <defs>
       <path id="DejaVuSans-65" d="M 3597 1894 
L 3597 1613 
L 953 1613 
Q 991 1019 1311 708 
Q 1631 397 2203 397 
Q 2534 397 2845 478 
Q 3156 559 3463 722 
L 3463 178 
Q 3153 47 2828 -22 
Q 2503 -91 2169 -91 
Q 1331 -91 842 396 
Q 353 884 353 1716 
Q 353 2575 817 3079 
Q 1281 3584 2069 3584 
Q 2775 3584 3186 3129 
Q 3597 2675 3597 1894 
z
M 3022 2063 
Q 3016 2534 2758 2815 
Q 2500 3097 2075 3097 
Q 1594 3097 1305 2825 
Q 1016 2553 972 2059 
L 3022 2063 
z
" transform="scale(0.015625)"/>
       <path id="DejaVuSans-37" d="M 525 4666 
L 3525 4666 
L 3525 4397 
L 1831 0 
L 1172 0 
L 2766 4134 
L 525 4134 
L 525 4666 
z
" transform="scale(0.015625)"/>
      </defs>
      <use xlink:href="#DejaVuSans-31"/>
      <use xlink:href="#DejaVuSans-65" transform="translate(63.623047 0)"/>
      <use xlink:href="#DejaVuSans-37" transform="translate(125.146484 0)"/>
     </g>
    </g>
   </g>
   <g id="line2d_31">
    <path d="M 138.436364 236.028082 
L 149.881443 236.637754 
L 161.452292 236.848384 
L 176.922014 236.599815 
L 195.913298 236.037897 
L 207.484147 239.244333 
L 219.054996 236.606802 
L 230.374305 236.319993 
L 245.718257 240.613208 
L 253.390233 242.712192 
L 257.289106 231.386103 
L 261.062209 220.060013 
L 264.961082 208.733924 
L 268.859955 198.127033 
L 272.381518 187.520142 
L 276.280391 176.913251 
L 287.72547 176.66002 
L 299.296319 186.947791 
L 310.867168 177.395118 
L 333.631555 178.382405 
L 345.202404 180.138254 
L 356.773253 180.056451 
L 368.218332 178.280336 
L 387.461157 177.257204 
L 391.23426 177.07415 
L 395.133133 167.188834 
L 398.906236 157.303518 
L 402.805109 147.418201 
L 406.703982 149.55084 
L 410.225545 151.68348 
L 414.124418 153.816119 
L 425.569497 161.128738 
L 437.140346 164.499049 
L 441.039219 204.28923 
L 444.812322 244.079412 
L 448.711195 283.869594 
L 460.030503 283.430598 
L 471.475582 282.495534 
L 494.61728 277.222947 
L 498.516153 275.944922 
L 502.037716 274.666896 
L 505.936589 273.388871 
L 517.381668 268.18402 
L 540.523366 262.995012 
L 551.968445 262.327573 
L 563.413524 259.235803 
L 574.984373 255.211384 
L 586.555222 249.943008 
L 590.454095 247.001582 
L 593.975657 244.060156 
L 597.87453 241.118731 
L 609.319609 239.126247 
L 620.890458 239.131174 
L 643.780616 238.058414 
L 655.225695 235.979472 
L 666.796544 232.401913 
L 670.695417 205.706735 
L 674.46852 179.011558 
L 678.367393 152.316381 
L 682.266266 147.131179 
L 685.787829 141.945977 
L 689.686702 136.760775 
L 693.459805 164.735548 
L 697.358678 192.710322 
L 701.131781 220.685096 
L 708.929527 147.450292 
L 712.70263 110.83289 
L 724.273479 97.493593 
L 728.172352 92.36688 
L 731.819684 87.240167 
L 747.163636 66.96 
L 747.163636 66.96 
" clip-path="url(#pa34fd54c7b)" style="fill: none; stroke: #a6cee3; stroke-width: 1.5; stroke-linecap: square"/>
   </g>
   <g id="line2d_32">
    <path d="M 138.436364 253.420952 
L 149.881443 253.814294 
L 161.452292 253.381558 
L 176.922014 251.862113 
L 184.468219 251.27806 
L 195.913298 249.416414 
L 207.484147 248.297092 
L 226.475432 244.556559 
L 230.374305 243.804446 
L 245.718257 247.6088 
L 253.390233 249.738773 
L 257.289106 239.516195 
L 261.062209 229.293617 
L 264.961082 219.071039 
L 268.859955 209.325769 
L 272.381518 199.580499 
L 276.280391 189.835229 
L 287.72547 195.219373 
L 299.296319 205.25996 
L 310.867168 200.652763 
L 322.186476 202.564642 
L 333.631555 203.423835 
L 345.202404 205.07634 
L 364.319459 204.442131 
L 368.218332 204.291472 
L 391.23426 201.132622 
L 402.805109 186.523034 
L 414.124418 190.048622 
L 425.569497 194.600118 
L 437.140346 196.389352 
L 441.039219 229.656459 
L 444.812322 262.923566 
L 448.711195 296.190673 
L 460.030503 295.657085 
L 471.475582 296.231883 
L 483.046431 296.279739 
L 494.61728 294.259705 
L 505.936589 291.529321 
L 517.381668 287.419082 
L 528.952517 284.910611 
L 540.523366 281.512962 
L 551.968445 280.179977 
L 563.413524 276.563912 
L 578.883246 270.226144 
L 597.87453 261.930019 
L 609.319609 262.400952 
L 620.890458 263.564324 
L 643.780616 264.751498 
L 655.225695 262.674392 
L 666.796544 258.371181 
L 670.695417 231.543048 
L 674.46852 204.714915 
L 678.367393 177.886782 
L 682.266266 172.569957 
L 685.787829 167.253132 
L 689.686702 161.936307 
L 693.459805 189.595233 
L 697.358678 217.254158 
L 701.131781 244.913083 
L 708.929527 188.947011 
L 712.70263 160.963974 
L 716.601503 149.326719 
L 720.374606 137.689463 
L 724.273479 126.052207 
L 728.172352 120.996966 
L 731.819684 115.941726 
L 735.718557 110.886485 
L 739.49166 102.969257 
L 743.390533 95.052029 
L 747.163636 87.134801 
L 747.163636 87.134801 
" clip-path="url(#pa34fd54c7b)" style="fill: none; stroke: #1f78b4; stroke-width: 1.5; stroke-linecap: square"/>
   </g>
   <g id="line2d_33">
    <path d="M 138.436364 283.121242 
L 149.881443 275.024258 
L 161.452292 270.684782 
L 173.02314 264.619888 
L 184.468219 262.389572 
L 195.913298 259.585771 
L 219.054996 255.411543 
L 222.953869 253.813116 
L 226.475432 252.214689 
L 230.374305 250.616263 
L 241.819384 247.930238 
L 253.390233 242.382394 
L 264.961082 252.217839 
L 276.280391 254.512781 
L 287.72547 255.927762 
L 299.296319 256.524856 
L 314.766041 259.129844 
L 322.186476 260.498327 
L 333.631555 264.207497 
L 345.202404 266.603504 
L 368.218332 267.109792 
L 379.663411 266.181684 
L 391.23426 267.586984 
L 406.703982 268.698739 
L 417.897521 269.318515 
L 425.569497 269.676495 
L 437.140346 269.469864 
L 448.711195 268.727597 
L 460.030503 267.635092 
L 471.475582 268.167038 
L 486.945304 273.879343 
L 494.61728 276.564994 
L 505.936589 278.685242 
L 517.381668 279.501255 
L 532.85139 281.928554 
L 540.523366 283.019327 
L 555.741548 288.361359 
L 563.413524 290.708015 
L 574.984373 297.098843 
L 586.555222 300.768966 
L 609.319609 304.823312 
L 620.890458 300.38341 
L 632.461307 298.652427 
L 643.780616 295.849225 
L 666.796544 290.248405 
L 689.686702 285.048925 
L 708.929527 280.259634 
L 724.273479 276.100611 
L 728.172352 273.456035 
L 731.819684 270.811459 
L 735.718557 268.166883 
L 747.163636 256.658282 
L 747.163636 256.658282 
" clip-path="url(#pa34fd54c7b)" style="fill: none; stroke: #b2df8a; stroke-width: 1.5; stroke-linecap: square"/>
   </g>
   <g id="line2d_34">
    <path d="M 138.436364 314.656477 
L 149.881443 309.027603 
L 161.452292 306.490442 
L 173.02314 303.285049 
L 184.468219 302.778683 
L 195.913298 300.949766 
L 207.484147 300.388337 
L 219.054996 298.055565 
L 230.374305 294.699242 
L 245.718257 293.432062 
L 253.390233 292.629767 
L 264.961082 295.706487 
L 276.280391 296.560753 
L 287.72547 296.449739 
L 299.296319 298.310786 
L 314.766041 299.250023 
L 322.186476 299.785505 
L 333.631555 302.111418 
L 345.202404 303.472398 
L 356.773253 302.822502 
L 379.663411 298.176336 
L 391.23426 295.934621 
L 402.805109 294.809175 
L 414.124418 293.078926 
L 425.569497 290.647253 
L 437.140346 289.505172 
L 460.030503 286.645419 
L 471.475582 286.683287 
L 483.046431 288.954176 
L 494.61728 292.675692 
L 505.936589 294.947431 
L 517.381668 296.255261 
L 532.85139 298.848477 
L 540.523366 299.947312 
L 555.741548 304.668183 
L 563.413524 306.761448 
L 574.984373 312.225963 
L 586.555222 315.698498 
L 609.319609 319.833255 
L 620.890458 315.987375 
L 632.461307 314.742259 
L 655.225695 310.55837 
L 678.367393 305.975053 
L 693.459805 303.035089 
L 705.030654 300.712886 
L 716.601503 298.173837 
L 724.273479 296.395004 
L 728.172352 294.134754 
L 731.819684 291.874504 
L 735.718557 289.614254 
L 747.163636 279.739783 
L 747.163636 279.739783 
" clip-path="url(#pa34fd54c7b)" style="fill: none; stroke: #33a02c; stroke-width: 1.5; stroke-linecap: square"/>
   </g>
   <g id="line2d_35">
    <path d="M 138.436364 338.642342 
L 149.881443 336.32209 
L 161.452292 337.399487 
L 173.02314 335.82011 
L 184.468219 334.657163 
L 195.913298 334.699281 
L 207.484147 334.14958 
L 219.054996 341.027028 
L 245.718257 341.902579 
L 253.390233 342.005311 
L 268.859955 341.675275 
L 291.624343 340.658171 
L 303.195192 339.948021 
L 310.867168 339.338066 
L 322.186476 340.305646 
L 333.631555 337.016539 
L 349.101277 335.532244 
L 356.773253 334.895691 
L 368.218332 333.369291 
L 379.663411 331.576038 
L 395.133133 330.210898 
L 414.124418 328.961673 
L 441.039219 328.334362 
L 463.803606 328.160028 
L 475.374455 327.871261 
L 483.046431 327.762539 
L 498.516153 327.044461 
L 513.608565 326.723049 
L 517.381668 326.656684 
L 528.952517 324.852129 
L 540.523366 323.45786 
L 551.968445 323.325825 
L 563.413524 324.040753 
L 578.883246 323.885367 
L 586.555222 323.704271 
L 597.87453 322.671098 
L 609.319609 320.823073 
L 624.789331 317.233947 
L 632.461307 315.606997 
L 643.780616 312.465091 
L 655.225695 310.666332 
L 666.796544 309.159638 
L 685.787829 306.005663 
L 689.686702 305.415634 
L 701.131781 304.629761 
L 712.70263 305.907394 
L 724.273479 306.451067 
L 735.718557 306.293452 
L 747.163636 304.905443 
L 747.163636 304.905443 
" clip-path="url(#pa34fd54c7b)" style="fill: none; stroke: #fb9a99; stroke-width: 1.5; stroke-linecap: square"/>
   </g>
   <g id="line2d_36">
    <path d="M 138.436364 369.36 
L 149.881443 366.667581 
L 161.452292 361.158532 
L 173.02314 358.435354 
L 176.922014 360.383762 
L 180.569346 362.332169 
L 184.468219 364.280577 
L 195.913298 362.811635 
L 207.484147 360.567659 
L 219.054996 360.616462 
L 230.374305 358.711132 
L 241.819384 358.513563 
L 253.390233 355.428478 
L 264.961082 356.019273 
L 287.72547 353.647783 
L 299.296319 350.785964 
L 314.766041 349.075866 
L 322.186476 348.131219 
L 333.631555 347.114701 
L 345.202404 346.439572 
L 356.773253 345.420658 
L 368.218332 343.458642 
L 379.663411 342.988715 
L 391.23426 340.948935 
L 402.805109 337.280029 
L 414.124418 335.419793 
L 425.569497 334.541009 
L 437.140346 325.990481 
L 448.711195 329.677877 
L 452.610068 326.846641 
L 456.13163 324.015405 
L 460.030503 321.184169 
L 479.273328 316.558123 
L 494.61728 312.6621 
L 498.516153 308.544654 
L 502.037716 304.427207 
L 505.936589 300.309761 
L 517.381668 297.629127 
L 528.952517 316.572954 
L 540.523366 294.653975 
L 544.422239 301.129431 
L 548.069572 307.604888 
L 551.968445 314.080345 
L 563.413524 312.987531 
L 574.984373 318.769286 
L 586.555222 323.456275 
L 590.454095 325.63623 
L 593.975657 327.816185 
L 597.87453 329.99614 
L 609.319609 314.823597 
L 620.890458 316.782367 
L 632.461307 323.441805 
L 636.36018 324.689645 
L 639.881743 325.937485 
L 643.780616 327.185326 
L 666.796544 326.102307 
L 678.367393 325.960399 
L 689.686702 326.398468 
L 701.131781 325.65224 
L 712.70263 325.516805 
L 724.273479 326.423352 
L 728.172352 328.563205 
L 731.819684 330.703057 
L 735.718557 332.842909 
L 747.163636 332.473602 
L 747.163636 332.473602 
" clip-path="url(#pa34fd54c7b)" style="fill: none; stroke: #e31a1c; stroke-width: 1.5; stroke-linecap: square"/>
   </g>
   <g id="line2d_37">
    <path d="M 138.436364 369.36 
L 149.881443 366.667581 
L 161.452292 361.158532 
L 173.02314 358.435354 
L 176.922014 360.383762 
L 180.569346 362.332169 
L 184.468219 364.280577 
L 195.913298 362.811635 
L 207.484147 360.567659 
L 219.054996 360.616462 
L 230.374305 358.711132 
L 241.819384 358.513563 
L 253.390233 355.428478 
L 264.961082 356.019273 
L 287.72547 353.647957 
L 299.296319 350.786157 
L 314.766041 349.076053 
L 322.186476 348.131393 
L 333.631555 347.114874 
L 345.202404 346.439746 
L 356.773253 345.420832 
L 368.218332 343.458816 
L 379.663411 342.988966 
L 391.23426 340.949186 
L 402.805109 337.28057 
L 414.124418 335.420585 
L 425.569497 334.543521 
L 437.140346 325.995137 
L 448.711195 329.706451 
L 452.610068 326.877965 
L 456.13163 324.04948 
L 460.030503 321.220994 
L 479.273328 316.610197 
L 494.61728 312.727132 
L 498.516153 308.588008 
L 502.037716 304.448885 
L 505.936589 300.309761 
L 517.381668 297.629127 
L 528.952517 316.572954 
L 540.523366 294.653994 
L 544.422239 301.317882 
L 548.069572 307.98177 
L 551.968445 314.645657 
L 563.413524 313.393528 
L 574.984373 318.769286 
L 586.555222 323.456275 
L 590.454095 325.63623 
L 593.975657 327.816185 
L 597.87453 329.99614 
L 609.319609 315.448145 
L 620.890458 317.415512 
L 632.461307 324.088764 
L 636.36018 325.353091 
L 639.881743 326.617418 
L 643.780616 327.881745 
L 666.796544 326.848206 
L 678.367393 326.767795 
L 689.686702 327.189615 
L 701.131781 326.429786 
L 712.70263 326.261042 
L 724.273479 327.013085 
L 728.172352 328.956366 
L 731.819684 330.899647 
L 735.718557 332.842928 
L 747.163636 332.473621 
L 747.163636 332.473621 
" clip-path="url(#pa34fd54c7b)" style="fill: none; stroke: #fdbf6f; stroke-width: 1.5; stroke-linecap: square"/>
   </g>
   <g id="line2d_38">
    <path d="M 138.436364 342.755944 
L 149.881443 341.089181 
L 161.452292 342.291812 
L 176.922014 340.611281 
L 184.468219 339.895785 
L 195.913298 339.983171 
L 207.484147 339.511698 
L 219.054996 345.788536 
L 253.390233 347.118487 
L 268.859955 347.159034 
L 283.952367 346.851558 
L 299.296319 346.435263 
L 310.867168 345.818849 
L 322.186476 347.506961 
L 333.631555 345.174285 
L 345.202404 344.666026 
L 356.773253 344.874724 
L 379.663411 346.444924 
L 391.23426 347.51324 
L 410.225545 348.495149 
L 429.46837 349.284628 
L 437.140346 349.40632 
L 452.610068 348.798278 
L 483.046431 346.954323 
L 513.608565 345.78131 
L 517.381668 345.591275 
L 536.624493 342.962716 
L 540.523366 342.476302 
L 551.968445 342.032901 
L 563.413524 342.16026 
L 582.656349 341.084016 
L 586.555222 340.847735 
L 597.87453 339.490871 
L 609.319609 337.197242 
L 624.789331 332.887513 
L 632.461307 330.887849 
L 636.36018 329.594155 
L 639.881743 328.300461 
L 643.780616 327.006767 
L 655.225695 325.195161 
L 666.796544 324.141412 
L 682.266266 321.890043 
L 689.686702 320.717352 
L 701.131781 320.01218 
L 712.70263 321.117707 
L 724.273479 321.613254 
L 735.718557 321.440241 
L 747.163636 320.292885 
L 747.163636 320.292885 
" clip-path="url(#pa34fd54c7b)" style="fill: none; stroke: #ff7f00; stroke-width: 1.5; stroke-linecap: square"/>
   </g>
   <g id="patch_3">
    <path d="M 108 384.48 
L 108 51.84 
" style="fill: none; stroke: #000000; stroke-width: 0.8; stroke-linejoin: miter; stroke-linecap: square"/>
   </g>
   <g id="patch_4">
    <path d="M 777.6 384.48 
L 777.6 51.84 
" style="fill: none; stroke: #000000; stroke-width: 0.8; stroke-linejoin: miter; stroke-linecap: square"/>
   </g>
   <g id="patch_5">
    <path d="M 108 384.48 
L 777.6 384.48 
" style="fill: none; stroke: #000000; stroke-width: 0.8; stroke-linejoin: miter; stroke-linecap: square"/>
   </g>
   <g id="patch_6">
    <path d="M 108 51.84 
L 777.6 51.84 
" style="fill: none; stroke: #000000; stroke-width: 0.8; stroke-linejoin: miter; stroke-linecap: square"/>
   </g>
   <g id="text_17">
    <!-- Número de Tarjetas de Crédito Desglosadas (8 Más Usadas) -->
    <g transform="translate(206.973281 45.84) scale(0.14 -0.14)">
     <defs>
      <path id="DejaVuSans-Bold-4e" d="M 588 4666 
L 1931 4666 
L 3628 1466 
L 3628 4666 
L 4769 4666 
L 4769 0 
L 3425 0 
L 1728 3200 
L 1728 0 
L 588 0 
L 588 4666 
z
" transform="scale(0.015625)"/>
      <path id="DejaVuSans-Bold-fa" d="M 500 1363 
L 500 3500 
L 1625 3500 
L 1625 3150 
Q 1625 2866 1622 2436 
Q 1619 2006 1619 1863 
Q 1619 1441 1641 1255 
Q 1663 1069 1716 984 
Q 1784 875 1895 815 
Q 2006 756 2150 756 
Q 2500 756 2700 1025 
Q 2900 1294 2900 1772 
L 2900 3500 
L 4019 3500 
L 4019 0 
L 2900 0 
L 2900 506 
Q 2647 200 2364 54 
Q 2081 -91 1741 -91 
Q 1134 -91 817 281 
Q 500 653 500 1363 
z
M 2778 5119 
L 3663 5119 
L 2509 3944 
L 1897 3944 
L 2778 5119 
z
" transform="scale(0.015625)"/>
      <path id="DejaVuSans-Bold-6d" d="M 3781 2919 
Q 3994 3244 4286 3414 
Q 4578 3584 4928 3584 
Q 5531 3584 5847 3212 
Q 6163 2841 6163 2131 
L 6163 0 
L 5038 0 
L 5038 1825 
Q 5041 1866 5042 1909 
Q 5044 1953 5044 2034 
Q 5044 2406 4934 2573 
Q 4825 2741 4581 2741 
Q 4263 2741 4089 2478 
Q 3916 2216 3909 1719 
L 3909 0 
L 2784 0 
L 2784 1825 
Q 2784 2406 2684 2573 
Q 2584 2741 2328 2741 
Q 2006 2741 1831 2477 
Q 1656 2213 1656 1722 
L 1656 0 
L 531 0 
L 531 3500 
L 1656 3500 
L 1656 2988 
Q 1863 3284 2130 3434 
Q 2397 3584 2719 3584 
Q 3081 3584 3359 3409 
Q 3638 3234 3781 2919 
z
" transform="scale(0.015625)"/>
      <path id="DejaVuSans-Bold-65" d="M 4031 1759 
L 4031 1441 
L 1416 1441 
Q 1456 1047 1700 850 
Q 1944 653 2381 653 
Q 2734 653 3104 758 
Q 3475 863 3866 1075 
L 3866 213 
Q 3469 63 3072 -14 
Q 2675 -91 2278 -91 
Q 1328 -91 801 392 
Q 275 875 275 1747 
Q 275 2603 792 3093 
Q 1309 3584 2216 3584 
Q 3041 3584 3536 3087 
Q 4031 2591 4031 1759 
z
M 2881 2131 
Q 2881 2450 2695 2645 
Q 2509 2841 2209 2841 
Q 1884 2841 1681 2658 
Q 1478 2475 1428 2131 
L 2881 2131 
z
" transform="scale(0.015625)"/>
      <path id="DejaVuSans-Bold-72" d="M 3138 2547 
Q 2991 2616 2845 2648 
Q 2700 2681 2553 2681 
Q 2122 2681 1889 2404 
Q 1656 2128 1656 1613 
L 1656 0 
L 538 0 
L 538 3500 
L 1656 3500 
L 1656 2925 
Q 1872 3269 2151 3426 
Q 2431 3584 2822 3584 
Q 2878 3584 2943 3579 
Q 3009 3575 3134 3559 
L 3138 2547 
z
" transform="scale(0.015625)"/>
      <path id="DejaVuSans-Bold-6f" d="M 2203 2784 
Q 1831 2784 1636 2517 
Q 1441 2250 1441 1747 
Q 1441 1244 1636 976 
Q 1831 709 2203 709 
Q 2569 709 2762 976 
Q 2956 1244 2956 1747 
Q 2956 2250 2762 2517 
Q 2569 2784 2203 2784 
z
M 2203 3584 
Q 3106 3584 3614 3096 
Q 4122 2609 4122 1747 
Q 4122 884 3614 396 
Q 3106 -91 2203 -91 
Q 1297 -91 786 396 
Q 275 884 275 1747 
Q 275 2609 786 3096 
Q 1297 3584 2203 3584 
z
" transform="scale(0.015625)"/>
      <path id="DejaVuSans-Bold-20" transform="scale(0.015625)"/>
      <path id="DejaVuSans-Bold-64" d="M 2919 2988 
L 2919 4863 
L 4044 4863 
L 4044 0 
L 2919 0 
L 2919 506 
Q 2688 197 2409 53 
Q 2131 -91 1766 -91 
Q 1119 -91 703 423 
Q 288 938 288 1747 
Q 288 2556 703 3070 
Q 1119 3584 1766 3584 
Q 2128 3584 2408 3439 
Q 2688 3294 2919 2988 
z
M 2181 722 
Q 2541 722 2730 984 
Q 2919 1247 2919 1747 
Q 2919 2247 2730 2509 
Q 2541 2772 2181 2772 
Q 1825 2772 1636 2509 
Q 1447 2247 1447 1747 
Q 1447 1247 1636 984 
Q 1825 722 2181 722 
z
" transform="scale(0.015625)"/>
      <path id="DejaVuSans-Bold-54" d="M 31 4666 
L 4331 4666 
L 4331 3756 
L 2784 3756 
L 2784 0 
L 1581 0 
L 1581 3756 
L 31 3756 
L 31 4666 
z
" transform="scale(0.015625)"/>
      <path id="DejaVuSans-Bold-61" d="M 2106 1575 
Q 1756 1575 1579 1456 
Q 1403 1338 1403 1106 
Q 1403 894 1545 773 
Q 1688 653 1941 653 
Q 2256 653 2472 879 
Q 2688 1106 2688 1447 
L 2688 1575 
L 2106 1575 
z
M 3816 1997 
L 3816 0 
L 2688 0 
L 2688 519 
Q 2463 200 2181 54 
Q 1900 -91 1497 -91 
Q 953 -91 614 226 
Q 275 544 275 1050 
Q 275 1666 698 1953 
Q 1122 2241 2028 2241 
L 2688 2241 
L 2688 2328 
Q 2688 2594 2478 2717 
Q 2269 2841 1825 2841 
Q 1466 2841 1156 2769 
Q 847 2697 581 2553 
L 581 3406 
Q 941 3494 1303 3539 
Q 1666 3584 2028 3584 
Q 2975 3584 3395 3211 
Q 3816 2838 3816 1997 
z
" transform="scale(0.015625)"/>
      <path id="DejaVuSans-Bold-6a" d="M 538 3500 
L 1656 3500 
L 1656 63 
Q 1656 -641 1318 -1011 
Q 981 -1381 341 -1381 
L -213 -1381 
L -213 -647 
L -19 -647 
Q 300 -647 419 -503 
Q 538 -359 538 63 
L 538 3500 
z
M 538 4863 
L 1656 4863 
L 1656 3950 
L 538 3950 
L 538 4863 
z
" transform="scale(0.015625)"/>
      <path id="DejaVuSans-Bold-74" d="M 1759 4494 
L 1759 3500 
L 2913 3500 
L 2913 2700 
L 1759 2700 
L 1759 1216 
Q 1759 972 1856 886 
Q 1953 800 2241 800 
L 2816 800 
L 2816 0 
L 1856 0 
Q 1194 0 917 276 
Q 641 553 641 1216 
L 641 2700 
L 84 2700 
L 84 3500 
L 641 3500 
L 641 4494 
L 1759 4494 
z
" transform="scale(0.015625)"/>
      <path id="DejaVuSans-Bold-73" d="M 3272 3391 
L 3272 2541 
Q 2913 2691 2578 2766 
Q 2244 2841 1947 2841 
Q 1628 2841 1473 2761 
Q 1319 2681 1319 2516 
Q 1319 2381 1436 2309 
Q 1553 2238 1856 2203 
L 2053 2175 
Q 2913 2066 3209 1816 
Q 3506 1566 3506 1031 
Q 3506 472 3093 190 
Q 2681 -91 1863 -91 
Q 1516 -91 1145 -36 
Q 775 19 384 128 
L 384 978 
Q 719 816 1070 734 
Q 1422 653 1784 653 
Q 2113 653 2278 743 
Q 2444 834 2444 1013 
Q 2444 1163 2330 1236 
Q 2216 1309 1875 1350 
L 1678 1375 
Q 931 1469 631 1722 
Q 331 1975 331 2491 
Q 331 3047 712 3315 
Q 1094 3584 1881 3584 
Q 2191 3584 2531 3537 
Q 2872 3491 3272 3391 
z
" transform="scale(0.015625)"/>
      <path id="DejaVuSans-Bold-43" d="M 4288 256 
Q 3956 84 3597 -3 
Q 3238 -91 2847 -91 
Q 1681 -91 1000 561 
Q 319 1213 319 2328 
Q 319 3447 1000 4098 
Q 1681 4750 2847 4750 
Q 3238 4750 3597 4662 
Q 3956 4575 4288 4403 
L 4288 3438 
Q 3953 3666 3628 3772 
Q 3303 3878 2944 3878 
Q 2300 3878 1931 3465 
Q 1563 3053 1563 2328 
Q 1563 1606 1931 1193 
Q 2300 781 2944 781 
Q 3303 781 3628 887 
Q 3953 994 4288 1222 
L 4288 256 
z
" transform="scale(0.015625)"/>
      <path id="DejaVuSans-Bold-e9" d="M 4031 1759 
L 4031 1441 
L 1416 1441 
Q 1456 1047 1700 850 
Q 1944 653 2381 653 
Q 2734 653 3104 758 
Q 3475 863 3866 1075 
L 3866 213 
Q 3469 63 3072 -14 
Q 2675 -91 2278 -91 
Q 1328 -91 801 392 
Q 275 875 275 1747 
Q 275 2603 792 3093 
Q 1309 3584 2216 3584 
Q 3041 3584 3536 3087 
Q 4031 2591 4031 1759 
z
M 2881 2131 
Q 2881 2450 2695 2645 
Q 2509 2841 2209 2841 
Q 1884 2841 1681 2658 
Q 1478 2475 1428 2131 
L 2881 2131 
z
M 2700 5119 
L 3584 5119 
L 2431 3944 
L 1819 3944 
L 2700 5119 
z
" transform="scale(0.015625)"/>
      <path id="DejaVuSans-Bold-69" d="M 538 3500 
L 1656 3500 
L 1656 0 
L 538 0 
L 538 3500 
z
M 538 4863 
L 1656 4863 
L 1656 3950 
L 538 3950 
L 538 4863 
z
" transform="scale(0.015625)"/>
      <path id="DejaVuSans-Bold-44" d="M 1791 3756 
L 1791 909 
L 2222 909 
Q 2959 909 3348 1275 
Q 3738 1641 3738 2338 
Q 3738 3031 3350 3393 
Q 2963 3756 2222 3756 
L 1791 3756 
z
M 588 4666 
L 1856 4666 
Q 2919 4666 3439 4514 
Q 3959 4363 4331 4000 
Q 4659 3684 4818 3271 
Q 4978 2859 4978 2338 
Q 4978 1809 4818 1395 
Q 4659 981 4331 666 
Q 3956 303 3431 151 
Q 2906 0 1856 0 
L 588 0 
L 588 4666 
z
" transform="scale(0.015625)"/>
      <path id="DejaVuSans-Bold-67" d="M 2919 594 
Q 2688 288 2409 144 
Q 2131 0 1766 0 
Q 1125 0 706 504 
Q 288 1009 288 1791 
Q 288 2575 706 3076 
Q 1125 3578 1766 3578 
Q 2131 3578 2409 3434 
Q 2688 3291 2919 2981 
L 2919 3500 
L 4044 3500 
L 4044 353 
Q 4044 -491 3511 -936 
Q 2978 -1381 1966 -1381 
Q 1638 -1381 1331 -1331 
Q 1025 -1281 716 -1178 
L 716 -306 
Q 1009 -475 1290 -558 
Q 1572 -641 1856 -641 
Q 2406 -641 2662 -400 
Q 2919 -159 2919 353 
L 2919 594 
z
M 2181 2772 
Q 1834 2772 1640 2515 
Q 1447 2259 1447 1791 
Q 1447 1309 1634 1061 
Q 1822 813 2181 813 
Q 2531 813 2725 1069 
Q 2919 1325 2919 1791 
Q 2919 2259 2725 2515 
Q 2531 2772 2181 2772 
z
" transform="scale(0.015625)"/>
      <path id="DejaVuSans-Bold-6c" d="M 538 4863 
L 1656 4863 
L 1656 0 
L 538 0 
L 538 4863 
z
" transform="scale(0.015625)"/>
      <path id="DejaVuSans-Bold-28" d="M 2413 -844 
L 1484 -844 
Q 1006 -72 778 623 
Q 550 1319 550 2003 
Q 550 2688 779 3389 
Q 1009 4091 1484 4856 
L 2413 4856 
Q 2013 4116 1813 3408 
Q 1613 2700 1613 2009 
Q 1613 1319 1811 609 
Q 2009 -100 2413 -844 
z
" transform="scale(0.015625)"/>
      <path id="DejaVuSans-Bold-38" d="M 2228 2088 
Q 1891 2088 1709 1903 
Q 1528 1719 1528 1375 
Q 1528 1031 1709 848 
Q 1891 666 2228 666 
Q 2563 666 2741 848 
Q 2919 1031 2919 1375 
Q 2919 1722 2741 1905 
Q 2563 2088 2228 2088 
z
M 1350 2484 
Q 925 2613 709 2878 
Q 494 3144 494 3541 
Q 494 4131 934 4440 
Q 1375 4750 2228 4750 
Q 3075 4750 3515 4442 
Q 3956 4134 3956 3541 
Q 3956 3144 3739 2878 
Q 3522 2613 3097 2484 
Q 3572 2353 3814 2058 
Q 4056 1763 4056 1313 
Q 4056 619 3595 264 
Q 3134 -91 2228 -91 
Q 1319 -91 855 264 
Q 391 619 391 1313 
Q 391 1763 633 2058 
Q 875 2353 1350 2484 
z
M 1631 3419 
Q 1631 3141 1786 2991 
Q 1941 2841 2228 2841 
Q 2509 2841 2662 2991 
Q 2816 3141 2816 3419 
Q 2816 3697 2662 3845 
Q 2509 3994 2228 3994 
Q 1941 3994 1786 3844 
Q 1631 3694 1631 3419 
z
" transform="scale(0.015625)"/>
      <path id="DejaVuSans-Bold-4d" d="M 588 4666 
L 2119 4666 
L 3181 2169 
L 4250 4666 
L 5778 4666 
L 5778 0 
L 4641 0 
L 4641 3413 
L 3566 897 
L 2803 897 
L 1728 3413 
L 1728 0 
L 588 0 
L 588 4666 
z
" transform="scale(0.015625)"/>
      <path id="DejaVuSans-Bold-e1" d="M 2106 1575 
Q 1756 1575 1579 1456 
Q 1403 1338 1403 1106 
Q 1403 894 1545 773 
Q 1688 653 1941 653 
Q 2256 653 2472 879 
Q 2688 1106 2688 1447 
L 2688 1575 
L 2106 1575 
z
M 3816 1997 
L 3816 0 
L 2688 0 
L 2688 519 
Q 2463 200 2181 54 
Q 1900 -91 1497 -91 
Q 953 -91 614 226 
Q 275 544 275 1050 
Q 275 1666 698 1953 
Q 1122 2241 2028 2241 
L 2688 2241 
L 2688 2328 
Q 2688 2594 2478 2717 
Q 2269 2841 1825 2841 
Q 1466 2841 1156 2769 
Q 847 2697 581 2553 
L 581 3406 
Q 941 3494 1303 3539 
Q 1666 3584 2028 3584 
Q 2975 3584 3395 3211 
Q 3816 2838 3816 1997 
z
M 2603 5119 
L 3488 5119 
L 2334 3944 
L 1722 3944 
L 2603 5119 
z
" transform="scale(0.015625)"/>
      <path id="DejaVuSans-Bold-55" d="M 588 4666 
L 1791 4666 
L 1791 1869 
Q 1791 1291 1980 1042 
Q 2169 794 2597 794 
Q 3028 794 3217 1042 
Q 3406 1291 3406 1869 
L 3406 4666 
L 4609 4666 
L 4609 1869 
Q 4609 878 4112 393 
Q 3616 -91 2597 -91 
Q 1581 -91 1084 393 
Q 588 878 588 1869 
L 588 4666 
z
" transform="scale(0.015625)"/>
      <path id="DejaVuSans-Bold-29" d="M 513 -844 
Q 913 -100 1113 609 
Q 1313 1319 1313 2009 
Q 1313 2700 1113 3408 
Q 913 4116 513 4856 
L 1441 4856 
Q 1916 4091 2145 3389 
Q 2375 2688 2375 2003 
Q 2375 1319 2147 623 
Q 1919 -72 1441 -844 
L 513 -844 
z
" transform="scale(0.015625)"/>
     </defs>
     <use xlink:href="#DejaVuSans-Bold-4e"/>
     <use xlink:href="#DejaVuSans-Bold-fa" transform="translate(83.691406 0)"/>
     <use xlink:href="#DejaVuSans-Bold-6d" transform="translate(154.882812 0)"/>
     <use xlink:href="#DejaVuSans-Bold-65" transform="translate(259.082031 0)"/>
     <use xlink:href="#DejaVuSans-Bold-72" transform="translate(326.904297 0)"/>
     <use xlink:href="#DejaVuSans-Bold-6f" transform="translate(376.220703 0)"/>
     <use xlink:href="#DejaVuSans-Bold-20" transform="translate(444.921875 0)"/>
     <use xlink:href="#DejaVuSans-Bold-64" transform="translate(479.736328 0)"/>
     <use xlink:href="#DejaVuSans-Bold-65" transform="translate(551.318359 0)"/>
     <use xlink:href="#DejaVuSans-Bold-20" transform="translate(619.140625 0)"/>
     <use xlink:href="#DejaVuSans-Bold-54" transform="translate(653.955078 0)"/>
     <use xlink:href="#DejaVuSans-Bold-61" transform="translate(709.292969 0)"/>
     <use xlink:href="#DejaVuSans-Bold-72" transform="translate(776.773438 0)"/>
     <use xlink:href="#DejaVuSans-Bold-6a" transform="translate(826.089844 0)"/>
     <use xlink:href="#DejaVuSans-Bold-65" transform="translate(860.367188 0)"/>
     <use xlink:href="#DejaVuSans-Bold-74" transform="translate(928.189453 0)"/>
     <use xlink:href="#DejaVuSans-Bold-61" transform="translate(975.992188 0)"/>
     <use xlink:href="#DejaVuSans-Bold-73" transform="translate(1043.472656 0)"/>
     <use xlink:href="#DejaVuSans-Bold-20" transform="translate(1102.994141 0)"/>
     <use xlink:href="#DejaVuSans-Bold-64" transform="translate(1137.808594 0)"/>
     <use xlink:href="#DejaVuSans-Bold-65" transform="translate(1209.390625 0)"/>
     <use xlink:href="#DejaVuSans-Bold-20" transform="translate(1277.212891 0)"/>
     <use xlink:href="#DejaVuSans-Bold-43" transform="translate(1312.027344 0)"/>
     <use xlink:href="#DejaVuSans-Bold-72" transform="translate(1385.416016 0)"/>
     <use xlink:href="#DejaVuSans-Bold-e9" transform="translate(1434.732422 0)"/>
     <use xlink:href="#DejaVuSans-Bold-64" transform="translate(1502.554688 0)"/>
     <use xlink:href="#DejaVuSans-Bold-69" transform="translate(1574.136719 0)"/>
     <use xlink:href="#DejaVuSans-Bold-74" transform="translate(1608.414062 0)"/>
     <use xlink:href="#DejaVuSans-Bold-6f" transform="translate(1656.216797 0)"/>
     <use xlink:href="#DejaVuSans-Bold-20" transform="translate(1724.917969 0)"/>
     <use xlink:href="#DejaVuSans-Bold-44" transform="translate(1759.732422 0)"/>
     <use xlink:href="#DejaVuSans-Bold-65" transform="translate(1842.740234 0)"/>
     <use xlink:href="#DejaVuSans-Bold-73" transform="translate(1910.5625 0)"/>
     <use xlink:href="#DejaVuSans-Bold-67" transform="translate(1970.083984 0)"/>
     <use xlink:href="#DejaVuSans-Bold-6c" transform="translate(2041.666016 0)"/>
     <use xlink:href="#DejaVuSans-Bold-6f" transform="translate(2075.943359 0)"/>
     <use xlink:href="#DejaVuSans-Bold-73" transform="translate(2144.644531 0)"/>
     <use xlink:href="#DejaVuSans-Bold-61" transform="translate(2204.166016 0)"/>
     <use xlink:href="#DejaVuSans-Bold-64" transform="translate(2271.646484 0)"/>
     <use xlink:href="#DejaVuSans-Bold-61" transform="translate(2343.228516 0)"/>
     <use xlink:href="#DejaVuSans-Bold-73" transform="translate(2410.708984 0)"/>
     <use xlink:href="#DejaVuSans-Bold-20" transform="translate(2470.230469 0)"/>
     <use xlink:href="#DejaVuSans-Bold-28" transform="translate(2505.044922 0)"/>
     <use xlink:href="#DejaVuSans-Bold-38" transform="translate(2550.748047 0)"/>
     <use xlink:href="#DejaVuSans-Bold-20" transform="translate(2620.328125 0)"/>
     <use xlink:href="#DejaVuSans-Bold-4d" transform="translate(2655.142578 0)"/>
     <use xlink:href="#DejaVuSans-Bold-e1" transform="translate(2754.654297 0)"/>
     <use xlink:href="#DejaVuSans-Bold-73" transform="translate(2822.134766 0)"/>
     <use xlink:href="#DejaVuSans-Bold-20" transform="translate(2881.65625 0)"/>
     <use xlink:href="#DejaVuSans-Bold-55" transform="translate(2916.470703 0)"/>
     <use xlink:href="#DejaVuSans-Bold-73" transform="translate(2997.671875 0)"/>
     <use xlink:href="#DejaVuSans-Bold-61" transform="translate(3057.193359 0)"/>
     <use xlink:href="#DejaVuSans-Bold-64" transform="translate(3124.673828 0)"/>
     <use xlink:href="#DejaVuSans-Bold-61" transform="translate(3196.255859 0)"/>
     <use xlink:href="#DejaVuSans-Bold-73" transform="translate(3263.736328 0)"/>
     <use xlink:href="#DejaVuSans-Bold-29" transform="translate(3323.257812 0)"/>
    </g>
   </g>
   <g id="legend_1">
    <g id="patch_7">
     <path d="M 113.6 152.18 
L 224.5175 152.18 
Q 226.1175 152.18 226.1175 150.58 
L 226.1175 57.44 
Q 226.1175 55.84 224.5175 55.84 
L 113.6 55.84 
Q 112 55.84 112 57.44 
L 112 150.58 
Q 112 152.18 113.6 152.18 
z
" style="fill: #ffffff; opacity: 0.8; stroke: #cccccc; stroke-linejoin: miter"/>
    </g>
    <g id="line2d_39">
     <path d="M 115.2 62.31875 
L 123.2 62.31875 
L 131.2 62.31875 
" style="fill: none; stroke: #a6cee3; stroke-width: 1.5; stroke-linecap: square"/>
    </g>
    <g id="text_18">
     <!--  (todas las marcas) D -->
     <g transform="translate(137.6 65.11875) scale(0.08 -0.08)">
      <defs>
       <path id="DejaVuSans-20" transform="scale(0.015625)"/>
       <path id="DejaVuSans-28" d="M 1984 4856 
Q 1566 4138 1362 3434 
Q 1159 2731 1159 2009 
Q 1159 1288 1364 580 
Q 1569 -128 1984 -844 
L 1484 -844 
Q 1016 -109 783 600 
Q 550 1309 550 2009 
Q 550 2706 781 3412 
Q 1013 4119 1484 4856 
L 1984 4856 
z
" transform="scale(0.015625)"/>
       <path id="DejaVuSans-74" d="M 1172 4494 
L 1172 3500 
L 2356 3500 
L 2356 3053 
L 1172 3053 
L 1172 1153 
Q 1172 725 1289 603 
Q 1406 481 1766 481 
L 2356 481 
L 2356 0 
L 1766 0 
Q 1100 0 847 248 
Q 594 497 594 1153 
L 594 3053 
L 172 3053 
L 172 3500 
L 594 3500 
L 594 4494 
L 1172 4494 
z
" transform="scale(0.015625)"/>
       <path id="DejaVuSans-6f" d="M 1959 3097 
Q 1497 3097 1228 2736 
Q 959 2375 959 1747 
Q 959 1119 1226 758 
Q 1494 397 1959 397 
Q 2419 397 2687 759 
Q 2956 1122 2956 1747 
Q 2956 2369 2687 2733 
Q 2419 3097 1959 3097 
z
M 1959 3584 
Q 2709 3584 3137 3096 
Q 3566 2609 3566 1747 
Q 3566 888 3137 398 
Q 2709 -91 1959 -91 
Q 1206 -91 779 398 
Q 353 888 353 1747 
Q 353 2609 779 3096 
Q 1206 3584 1959 3584 
z
" transform="scale(0.015625)"/>
       <path id="DejaVuSans-64" d="M 2906 2969 
L 2906 4863 
L 3481 4863 
L 3481 0 
L 2906 0 
L 2906 525 
Q 2725 213 2448 61 
Q 2172 -91 1784 -91 
Q 1150 -91 751 415 
Q 353 922 353 1747 
Q 353 2572 751 3078 
Q 1150 3584 1784 3584 
Q 2172 3584 2448 3432 
Q 2725 3281 2906 2969 
z
M 947 1747 
Q 947 1113 1208 752 
Q 1469 391 1925 391 
Q 2381 391 2643 752 
Q 2906 1113 2906 1747 
Q 2906 2381 2643 2742 
Q 2381 3103 1925 3103 
Q 1469 3103 1208 2742 
Q 947 2381 947 1747 
z
" transform="scale(0.015625)"/>
       <path id="DejaVuSans-61" d="M 2194 1759 
Q 1497 1759 1228 1600 
Q 959 1441 959 1056 
Q 959 750 1161 570 
Q 1363 391 1709 391 
Q 2188 391 2477 730 
Q 2766 1069 2766 1631 
L 2766 1759 
L 2194 1759 
z
M 3341 1997 
L 3341 0 
L 2766 0 
L 2766 531 
Q 2569 213 2275 61 
Q 1981 -91 1556 -91 
Q 1019 -91 701 211 
Q 384 513 384 1019 
Q 384 1609 779 1909 
Q 1175 2209 1959 2209 
L 2766 2209 
L 2766 2266 
Q 2766 2663 2505 2880 
Q 2244 3097 1772 3097 
Q 1472 3097 1187 3025 
Q 903 2953 641 2809 
L 641 3341 
Q 956 3463 1253 3523 
Q 1550 3584 1831 3584 
Q 2591 3584 2966 3190 
Q 3341 2797 3341 1997 
z
" transform="scale(0.015625)"/>
       <path id="DejaVuSans-73" d="M 2834 3397 
L 2834 2853 
Q 2591 2978 2328 3040 
Q 2066 3103 1784 3103 
Q 1356 3103 1142 2972 
Q 928 2841 928 2578 
Q 928 2378 1081 2264 
Q 1234 2150 1697 2047 
L 1894 2003 
Q 2506 1872 2764 1633 
Q 3022 1394 3022 966 
Q 3022 478 2636 193 
Q 2250 -91 1575 -91 
Q 1294 -91 989 -36 
Q 684 19 347 128 
L 347 722 
Q 666 556 975 473 
Q 1284 391 1588 391 
Q 1994 391 2212 530 
Q 2431 669 2431 922 
Q 2431 1156 2273 1281 
Q 2116 1406 1581 1522 
L 1381 1569 
Q 847 1681 609 1914 
Q 372 2147 372 2553 
Q 372 3047 722 3315 
Q 1072 3584 1716 3584 
Q 2034 3584 2315 3537 
Q 2597 3491 2834 3397 
z
" transform="scale(0.015625)"/>
       <path id="DejaVuSans-6c" d="M 603 4863 
L 1178 4863 
L 1178 0 
L 603 0 
L 603 4863 
z
" transform="scale(0.015625)"/>
       <path id="DejaVuSans-6d" d="M 3328 2828 
Q 3544 3216 3844 3400 
Q 4144 3584 4550 3584 
Q 5097 3584 5394 3201 
Q 5691 2819 5691 2113 
L 5691 0 
L 5113 0 
L 5113 2094 
Q 5113 2597 4934 2840 
Q 4756 3084 4391 3084 
Q 3944 3084 3684 2787 
Q 3425 2491 3425 1978 
L 3425 0 
L 2847 0 
L 2847 2094 
Q 2847 2600 2669 2842 
Q 2491 3084 2119 3084 
Q 1678 3084 1418 2786 
Q 1159 2488 1159 1978 
L 1159 0 
L 581 0 
L 581 3500 
L 1159 3500 
L 1159 2956 
Q 1356 3278 1631 3431 
Q 1906 3584 2284 3584 
Q 2666 3584 2933 3390 
Q 3200 3197 3328 2828 
z
" transform="scale(0.015625)"/>
       <path id="DejaVuSans-72" d="M 2631 2963 
Q 2534 3019 2420 3045 
Q 2306 3072 2169 3072 
Q 1681 3072 1420 2755 
Q 1159 2438 1159 1844 
L 1159 0 
L 581 0 
L 581 3500 
L 1159 3500 
L 1159 2956 
Q 1341 3275 1631 3429 
Q 1922 3584 2338 3584 
Q 2397 3584 2469 3576 
Q 2541 3569 2628 3553 
L 2631 2963 
z
" transform="scale(0.015625)"/>
       <path id="DejaVuSans-63" d="M 3122 3366 
L 3122 2828 
Q 2878 2963 2633 3030 
Q 2388 3097 2138 3097 
Q 1578 3097 1268 2742 
Q 959 2388 959 1747 
Q 959 1106 1268 751 
Q 1578 397 2138 397 
Q 2388 397 2633 464 
Q 2878 531 3122 666 
L 3122 134 
Q 2881 22 2623 -34 
Q 2366 -91 2075 -91 
Q 1284 -91 818 406 
Q 353 903 353 1747 
Q 353 2603 823 3093 
Q 1294 3584 2113 3584 
Q 2378 3584 2631 3529 
Q 2884 3475 3122 3366 
z
" transform="scale(0.015625)"/>
       <path id="DejaVuSans-29" d="M 513 4856 
L 1013 4856 
Q 1481 4119 1714 3412 
Q 1947 2706 1947 2009 
Q 1947 1309 1714 600 
Q 1481 -109 1013 -844 
L 513 -844 
Q 928 -128 1133 580 
Q 1338 1288 1338 2009 
Q 1338 2731 1133 3434 
Q 928 4138 513 4856 
z
" transform="scale(0.015625)"/>
       <path id="DejaVuSans-44" d="M 1259 4147 
L 1259 519 
L 2022 519 
Q 2988 519 3436 956 
Q 3884 1394 3884 2338 
Q 3884 3275 3436 3711 
Q 2988 4147 2022 4147 
L 1259 4147 
z
M 628 4666 
L 1925 4666 
Q 3281 4666 3915 4102 
Q 4550 3538 4550 2338 
Q 4550 1131 3912 565 
Q 3275 0 1925 0 
L 628 0 
L 628 4666 
z
" transform="scale(0.015625)"/>
      </defs>
      <use xlink:href="#DejaVuSans-20"/>
      <use xlink:href="#DejaVuSans-28" transform="translate(31.787109 0)"/>
      <use xlink:href="#DejaVuSans-74" transform="translate(70.800781 0)"/>
      <use xlink:href="#DejaVuSans-6f" transform="translate(110.009766 0)"/>
      <use xlink:href="#DejaVuSans-64" transform="translate(171.191406 0)"/>
      <use xlink:href="#DejaVuSans-61" transform="translate(234.667969 0)"/>
      <use xlink:href="#DejaVuSans-73" transform="translate(295.947266 0)"/>
      <use xlink:href="#DejaVuSans-20" transform="translate(348.046875 0)"/>
      <use xlink:href="#DejaVuSans-6c" transform="translate(379.833984 0)"/>
      <use xlink:href="#DejaVuSans-61" transform="translate(407.617188 0)"/>
      <use xlink:href="#DejaVuSans-73" transform="translate(468.896484 0)"/>
      <use xlink:href="#DejaVuSans-20" transform="translate(520.996094 0)"/>
      <use xlink:href="#DejaVuSans-6d" transform="translate(552.783203 0)"/>
      <use xlink:href="#DejaVuSans-61" transform="translate(650.195312 0)"/>
      <use xlink:href="#DejaVuSans-72" transform="translate(711.474609 0)"/>
      <use xlink:href="#DejaVuSans-63" transform="translate(750.337891 0)"/>
      <use xlink:href="#DejaVuSans-61" transform="translate(805.318359 0)"/>
      <use xlink:href="#DejaVuSans-73" transform="translate(866.597656 0)"/>
      <use xlink:href="#DejaVuSans-29" transform="translate(918.697266 0)"/>
      <use xlink:href="#DejaVuSans-20" transform="translate(957.710938 0)"/>
      <use xlink:href="#DejaVuSans-44" transform="translate(989.498047 0)"/>
     </g>
    </g>
    <g id="line2d_40">
     <path d="M 115.2 74.06125 
L 123.2 74.06125 
L 131.2 74.06125 
" style="fill: none; stroke: #1f78b4; stroke-width: 1.5; stroke-linecap: square"/>
    </g>
    <g id="text_19">
     <!--  (visa) D -->
     <g transform="translate(137.6 76.86125) scale(0.08 -0.08)">
      <defs>
       <path id="DejaVuSans-76" d="M 191 3500 
L 800 3500 
L 1894 563 
L 2988 3500 
L 3597 3500 
L 2284 0 
L 1503 0 
L 191 3500 
z
" transform="scale(0.015625)"/>
       <path id="DejaVuSans-69" d="M 603 3500 
L 1178 3500 
L 1178 0 
L 603 0 
L 603 3500 
z
M 603 4863 
L 1178 4863 
L 1178 4134 
L 603 4134 
L 603 4863 
z
" transform="scale(0.015625)"/>
      </defs>
      <use xlink:href="#DejaVuSans-20"/>
      <use xlink:href="#DejaVuSans-28" transform="translate(31.787109 0)"/>
      <use xlink:href="#DejaVuSans-76" transform="translate(70.800781 0)"/>
      <use xlink:href="#DejaVuSans-69" transform="translate(129.980469 0)"/>
      <use xlink:href="#DejaVuSans-73" transform="translate(157.763672 0)"/>
      <use xlink:href="#DejaVuSans-61" transform="translate(209.863281 0)"/>
      <use xlink:href="#DejaVuSans-29" transform="translate(271.142578 0)"/>
      <use xlink:href="#DejaVuSans-20" transform="translate(310.15625 0)"/>
      <use xlink:href="#DejaVuSans-44" transform="translate(341.943359 0)"/>
     </g>
    </g>
    <g id="line2d_41">
     <path d="M 115.2 85.80375 
L 123.2 85.80375 
L 131.2 85.80375 
" style="fill: none; stroke: #b2df8a; stroke-width: 1.5; stroke-linecap: square"/>
    </g>
    <g id="text_20">
     <!--  (todas las marcas) C -->
     <g transform="translate(137.6 88.60375) scale(0.08 -0.08)">
      <defs>
       <path id="DejaVuSans-43" d="M 4122 4306 
L 4122 3641 
Q 3803 3938 3442 4084 
Q 3081 4231 2675 4231 
Q 1875 4231 1450 3742 
Q 1025 3253 1025 2328 
Q 1025 1406 1450 917 
Q 1875 428 2675 428 
Q 3081 428 3442 575 
Q 3803 722 4122 1019 
L 4122 359 
Q 3791 134 3420 21 
Q 3050 -91 2638 -91 
Q 1578 -91 968 557 
Q 359 1206 359 2328 
Q 359 3453 968 4101 
Q 1578 4750 2638 4750 
Q 3056 4750 3426 4639 
Q 3797 4528 4122 4306 
z
" transform="scale(0.015625)"/>
      </defs>
      <use xlink:href="#DejaVuSans-20"/>
      <use xlink:href="#DejaVuSans-28" transform="translate(31.787109 0)"/>
      <use xlink:href="#DejaVuSans-74" transform="translate(70.800781 0)"/>
      <use xlink:href="#DejaVuSans-6f" transform="translate(110.009766 0)"/>
      <use xlink:href="#DejaVuSans-64" transform="translate(171.191406 0)"/>
      <use xlink:href="#DejaVuSans-61" transform="translate(234.667969 0)"/>
      <use xlink:href="#DejaVuSans-73" transform="translate(295.947266 0)"/>
      <use xlink:href="#DejaVuSans-20" transform="translate(348.046875 0)"/>
      <use xlink:href="#DejaVuSans-6c" transform="translate(379.833984 0)"/>
      <use xlink:href="#DejaVuSans-61" transform="translate(407.617188 0)"/>
      <use xlink:href="#DejaVuSans-73" transform="translate(468.896484 0)"/>
      <use xlink:href="#DejaVuSans-20" transform="translate(520.996094 0)"/>
      <use xlink:href="#DejaVuSans-6d" transform="translate(552.783203 0)"/>
      <use xlink:href="#DejaVuSans-61" transform="translate(650.195312 0)"/>
      <use xlink:href="#DejaVuSans-72" transform="translate(711.474609 0)"/>
      <use xlink:href="#DejaVuSans-63" transform="translate(750.337891 0)"/>
      <use xlink:href="#DejaVuSans-61" transform="translate(805.318359 0)"/>
      <use xlink:href="#DejaVuSans-73" transform="translate(866.597656 0)"/>
      <use xlink:href="#DejaVuSans-29" transform="translate(918.697266 0)"/>
      <use xlink:href="#DejaVuSans-20" transform="translate(957.710938 0)"/>
      <use xlink:href="#DejaVuSans-43" transform="translate(989.498047 0)"/>
     </g>
    </g>
    <g id="line2d_42">
     <path d="M 115.2 97.54625 
L 123.2 97.54625 
L 131.2 97.54625 
" style="fill: none; stroke: #33a02c; stroke-width: 1.5; stroke-linecap: square"/>
    </g>
    <g id="text_21">
     <!--  (mastercard) C -->
     <g transform="translate(137.6 100.34625) scale(0.08 -0.08)">
      <use xlink:href="#DejaVuSans-20"/>
      <use xlink:href="#DejaVuSans-28" transform="translate(31.787109 0)"/>
      <use xlink:href="#DejaVuSans-6d" transform="translate(70.800781 0)"/>
      <use xlink:href="#DejaVuSans-61" transform="translate(168.212891 0)"/>
      <use xlink:href="#DejaVuSans-73" transform="translate(229.492188 0)"/>
      <use xlink:href="#DejaVuSans-74" transform="translate(281.591797 0)"/>
      <use xlink:href="#DejaVuSans-65" transform="translate(320.800781 0)"/>
      <use xlink:href="#DejaVuSans-72" transform="translate(382.324219 0)"/>
      <use xlink:href="#DejaVuSans-63" transform="translate(421.1875 0)"/>
      <use xlink:href="#DejaVuSans-61" transform="translate(476.167969 0)"/>
      <use xlink:href="#DejaVuSans-72" transform="translate(537.447266 0)"/>
      <use xlink:href="#DejaVuSans-64" transform="translate(576.810547 0)"/>
      <use xlink:href="#DejaVuSans-29" transform="translate(640.287109 0)"/>
      <use xlink:href="#DejaVuSans-20" transform="translate(679.300781 0)"/>
      <use xlink:href="#DejaVuSans-43" transform="translate(711.087891 0)"/>
     </g>
    </g>
    <g id="line2d_43">
     <path d="M 115.2 109.28875 
L 123.2 109.28875 
L 131.2 109.28875 
" style="fill: none; stroke: #fb9a99; stroke-width: 1.5; stroke-linecap: square"/>
    </g>
    <g id="text_22">
     <!--  (todas las marcas) E -->
     <g transform="translate(137.6 112.08875) scale(0.08 -0.08)">
      <defs>
       <path id="DejaVuSans-45" d="M 628 4666 
L 3578 4666 
L 3578 4134 
L 1259 4134 
L 1259 2753 
L 3481 2753 
L 3481 2222 
L 1259 2222 
L 1259 531 
L 3634 531 
L 3634 0 
L 628 0 
L 628 4666 
z
" transform="scale(0.015625)"/>
      </defs>
      <use xlink:href="#DejaVuSans-20"/>
      <use xlink:href="#DejaVuSans-28" transform="translate(31.787109 0)"/>
      <use xlink:href="#DejaVuSans-74" transform="translate(70.800781 0)"/>
      <use xlink:href="#DejaVuSans-6f" transform="translate(110.009766 0)"/>
      <use xlink:href="#DejaVuSans-64" transform="translate(171.191406 0)"/>
      <use xlink:href="#DejaVuSans-61" transform="translate(234.667969 0)"/>
      <use xlink:href="#DejaVuSans-73" transform="translate(295.947266 0)"/>
      <use xlink:href="#DejaVuSans-20" transform="translate(348.046875 0)"/>
      <use xlink:href="#DejaVuSans-6c" transform="translate(379.833984 0)"/>
      <use xlink:href="#DejaVuSans-61" transform="translate(407.617188 0)"/>
      <use xlink:href="#DejaVuSans-73" transform="translate(468.896484 0)"/>
      <use xlink:href="#DejaVuSans-20" transform="translate(520.996094 0)"/>
      <use xlink:href="#DejaVuSans-6d" transform="translate(552.783203 0)"/>
      <use xlink:href="#DejaVuSans-61" transform="translate(650.195312 0)"/>
      <use xlink:href="#DejaVuSans-72" transform="translate(711.474609 0)"/>
      <use xlink:href="#DejaVuSans-63" transform="translate(750.337891 0)"/>
      <use xlink:href="#DejaVuSans-61" transform="translate(805.318359 0)"/>
      <use xlink:href="#DejaVuSans-73" transform="translate(866.597656 0)"/>
      <use xlink:href="#DejaVuSans-29" transform="translate(918.697266 0)"/>
      <use xlink:href="#DejaVuSans-20" transform="translate(957.710938 0)"/>
      <use xlink:href="#DejaVuSans-45" transform="translate(989.498047 0)"/>
     </g>
    </g>
    <g id="line2d_44">
     <path d="M 115.2 121.03125 
L 123.2 121.03125 
L 131.2 121.03125 
" style="fill: none; stroke: #e31a1c; stroke-width: 1.5; stroke-linecap: square"/>
    </g>
    <g id="text_23">
     <!--  (todas las marcas) U -->
     <g transform="translate(137.6 123.83125) scale(0.08 -0.08)">
      <defs>
       <path id="DejaVuSans-55" d="M 556 4666 
L 1191 4666 
L 1191 1831 
Q 1191 1081 1462 751 
Q 1734 422 2344 422 
Q 2950 422 3222 751 
Q 3494 1081 3494 1831 
L 3494 4666 
L 4128 4666 
L 4128 1753 
Q 4128 841 3676 375 
Q 3225 -91 2344 -91 
Q 1459 -91 1007 375 
Q 556 841 556 1753 
L 556 4666 
z
" transform="scale(0.015625)"/>
      </defs>
      <use xlink:href="#DejaVuSans-20"/>
      <use xlink:href="#DejaVuSans-28" transform="translate(31.787109 0)"/>
      <use xlink:href="#DejaVuSans-74" transform="translate(70.800781 0)"/>
      <use xlink:href="#DejaVuSans-6f" transform="translate(110.009766 0)"/>
      <use xlink:href="#DejaVuSans-64" transform="translate(171.191406 0)"/>
      <use xlink:href="#DejaVuSans-61" transform="translate(234.667969 0)"/>
      <use xlink:href="#DejaVuSans-73" transform="translate(295.947266 0)"/>
      <use xlink:href="#DejaVuSans-20" transform="translate(348.046875 0)"/>
      <use xlink:href="#DejaVuSans-6c" transform="translate(379.833984 0)"/>
      <use xlink:href="#DejaVuSans-61" transform="translate(407.617188 0)"/>
      <use xlink:href="#DejaVuSans-73" transform="translate(468.896484 0)"/>
      <use xlink:href="#DejaVuSans-20" transform="translate(520.996094 0)"/>
      <use xlink:href="#DejaVuSans-6d" transform="translate(552.783203 0)"/>
      <use xlink:href="#DejaVuSans-61" transform="translate(650.195312 0)"/>
      <use xlink:href="#DejaVuSans-72" transform="translate(711.474609 0)"/>
      <use xlink:href="#DejaVuSans-63" transform="translate(750.337891 0)"/>
      <use xlink:href="#DejaVuSans-61" transform="translate(805.318359 0)"/>
      <use xlink:href="#DejaVuSans-73" transform="translate(866.597656 0)"/>
      <use xlink:href="#DejaVuSans-29" transform="translate(918.697266 0)"/>
      <use xlink:href="#DejaVuSans-20" transform="translate(957.710938 0)"/>
      <use xlink:href="#DejaVuSans-55" transform="translate(989.498047 0)"/>
     </g>
    </g>
    <g id="line2d_45">
     <path d="M 115.2 132.77375 
L 123.2 132.77375 
L 131.2 132.77375 
" style="fill: none; stroke: #fdbf6f; stroke-width: 1.5; stroke-linecap: square"/>
    </g>
    <g id="text_24">
     <!--  (visa) U -->
     <g transform="translate(137.6 135.57375) scale(0.08 -0.08)">
      <use xlink:href="#DejaVuSans-20"/>
      <use xlink:href="#DejaVuSans-28" transform="translate(31.787109 0)"/>
      <use xlink:href="#DejaVuSans-76" transform="translate(70.800781 0)"/>
      <use xlink:href="#DejaVuSans-69" transform="translate(129.980469 0)"/>
      <use xlink:href="#DejaVuSans-73" transform="translate(157.763672 0)"/>
      <use xlink:href="#DejaVuSans-61" transform="translate(209.863281 0)"/>
      <use xlink:href="#DejaVuSans-29" transform="translate(271.142578 0)"/>
      <use xlink:href="#DejaVuSans-20" transform="translate(310.15625 0)"/>
      <use xlink:href="#DejaVuSans-55" transform="translate(341.943359 0)"/>
     </g>
    </g>
    <g id="line2d_46">
     <path d="M 115.2 144.51625 
L 123.2 144.51625 
L 131.2 144.51625 
" style="fill: none; stroke: #ff7f00; stroke-width: 1.5; stroke-linecap: square"/>
    </g>
    <g id="text_25">
     <!--  (mastercard) E -->
     <g transform="translate(137.6 147.31625) scale(0.08 -0.08)">
      <use xlink:href="#DejaVuSans-20"/>
      <use xlink:href="#DejaVuSans-28" transform="translate(31.787109 0)"/>
      <use xlink:href="#DejaVuSans-6d" transform="translate(70.800781 0)"/>
      <use xlink:href="#DejaVuSans-61" transform="translate(168.212891 0)"/>
      <use xlink:href="#DejaVuSans-73" transform="translate(229.492188 0)"/>
      <use xlink:href="#DejaVuSans-74" transform="translate(281.591797 0)"/>
      <use xlink:href="#DejaVuSans-65" transform="translate(320.800781 0)"/>
      <use xlink:href="#DejaVuSans-72" transform="translate(382.324219 0)"/>
      <use xlink:href="#DejaVuSans-63" transform="translate(421.1875 0)"/>
      <use xlink:href="#DejaVuSans-61" transform="translate(476.167969 0)"/>
      <use xlink:href="#DejaVuSans-72" transform="translate(537.447266 0)"/>
      <use xlink:href="#DejaVuSans-64" transform="translate(576.810547 0)"/>
      <use xlink:href="#DejaVuSans-29" transform="translate(640.287109 0)"/>
      <use xlink:href="#DejaVuSans-20" transform="translate(679.300781 0)"/>
      <use xlink:href="#DejaVuSans-45" transform="translate(711.087891 0)"/>
     </g>
    </g>
   </g>
  </g>
 </g>
 <defs>
  <clipPath id="pa34fd54c7b">
   <rect x="108" y="51.84" width="669.6" height="332.64"/>
  </clipPath>
 </defs>
</svg>
