<?xml version="1.0" encoding="utf-8" standalone="no"?>
<!DOCTYPE svg PUBLIC "-//W3C//DTD SVG 1.1//EN"
  "http://www.w3.org/Graphics/SVG/1.1/DTD/svg11.dtd">
<svg xmlns:xlink="http://www.w3.org/1999/xlink" width="864pt" height="432pt" viewBox="0 0 864 432" xmlns="http://www.w3.org/2000/svg" version="1.1">
 <metadata>
  <rdf:RDF xmlns:dc="http://purl.org/dc/elements/1.1/" xmlns:cc="http://creativecommons.org/ns#" xmlns:rdf="http://www.w3.org/1999/02/22-rdf-syntax-ns#">
   <cc:Work>
    <dc:type rdf:resource="http://purl.org/dc/dcmitype/StillImage"/>
    <dc:date>2025-02-23T20:30:00.488157</dc:date>
    <dc:format>image/svg+xml</dc:format>
    <dc:creator>
     <cc:Agent>
      <dc:title>Matplotlib v3.10.0, https://matplotlib.org/</dc:title>
     </cc:Agent>
    </dc:creator>
   </cc:Work>
  </rdf:RDF>
 </metadata>
 <defs>
  <style type="text/css">*{stroke-linejoin: round; stroke-linecap: butt}</style>
 </defs>
 <g id="figure_1">
  <g id="patch_1">
   <path d="M 0 432 
L 864 432 
L 864 0 
L 0 0 
z
" style="fill: #ffffff"/>
  </g>
  <g id="axes_1">
   <g id="patch_2">
    <path d="M 108 384.48 
L 777.6 384.48 
L 777.6 51.84 
L 108 51.84 
z
" style="fill: #ffffff"/>
   </g>
   <g id="matplotlib.axis_1">
    <g id="xtick_1">
     <g id="line2d_1">
      <path d="M 173.464612 384.48 
L 173.464612 51.84 
" clip-path="url(#p413f44eab0)" style="fill: none; stroke-dasharray: 2.96,1.28; stroke-dashoffset: 0; stroke: #b0b0b0; stroke-opacity: 0.5; stroke-width: 0.8"/>
     </g>
     <g id="line2d_2">
      <defs>
       <path id="mac18da1a8d" d="M 0 0 
L 0 3.5 
" style="stroke: #000000; stroke-width: 0.8"/>
      </defs>
      <g>
       <use xlink:href="#mac18da1a8d" x="173.464612" y="384.48" style="stroke: #000000; stroke-width: 0.8"/>
      </g>
     </g>
     <g id="text_1">
      <!-- 2012 -->
      <g transform="translate(160.739612 399.078438) scale(0.1 -0.1)">
       <defs>
        <path id="DejaVuSans-32" d="M 1228 531 
L 3431 531 
L 3431 0 
L 469 0 
L 469 531 
Q 828 903 1448 1529 
Q 2069 2156 2228 2338 
Q 2531 2678 2651 2914 
Q 2772 3150 2772 3378 
Q 2772 3750 2511 3984 
Q 2250 4219 1831 4219 
Q 1534 4219 1204 4116 
Q 875 4013 500 3803 
L 500 4441 
Q 881 4594 1212 4672 
Q 1544 4750 1819 4750 
Q 2544 4750 2975 4387 
Q 3406 4025 3406 3419 
Q 3406 3131 3298 2873 
Q 3191 2616 2906 2266 
Q 2828 2175 2409 1742 
Q 1991 1309 1228 531 
z
" transform="scale(0.015625)"/>
        <path id="DejaVuSans-30" d="M 2034 4250 
Q 1547 4250 1301 3770 
Q 1056 3291 1056 2328 
Q 1056 1369 1301 889 
Q 1547 409 2034 409 
Q 2525 409 2770 889 
Q 3016 1369 3016 2328 
Q 3016 3291 2770 3770 
Q 2525 4250 2034 4250 
z
M 2034 4750 
Q 2819 4750 3233 4129 
Q 3647 3509 3647 2328 
Q 3647 1150 3233 529 
Q 2819 -91 2034 -91 
Q 1250 -91 836 529 
Q 422 1150 422 2328 
Q 422 3509 836 4129 
Q 1250 4750 2034 4750 
z
" transform="scale(0.015625)"/>
        <path id="DejaVuSans-31" d="M 794 531 
L 1825 531 
L 1825 4091 
L 703 3866 
L 703 4441 
L 1819 4666 
L 2450 4666 
L 2450 531 
L 3481 531 
L 3481 0 
L 794 0 
L 794 531 
z
" transform="scale(0.015625)"/>
       </defs>
       <use xlink:href="#DejaVuSans-32"/>
       <use xlink:href="#DejaVuSans-30" transform="translate(63.623047 0)"/>
       <use xlink:href="#DejaVuSans-31" transform="translate(127.246094 0)"/>
       <use xlink:href="#DejaVuSans-32" transform="translate(190.869141 0)"/>
      </g>
     </g>
    </g>
    <g id="xtick_2">
     <g id="line2d_3">
      <path d="M 266.576066 384.48 
L 266.576066 51.84 
" clip-path="url(#p413f44eab0)" style="fill: none; stroke-dasharray: 2.96,1.28; stroke-dashoffset: 0; stroke: #b0b0b0; stroke-opacity: 0.5; stroke-width: 0.8"/>
     </g>
     <g id="line2d_4">
      <g>
       <use xlink:href="#mac18da1a8d" x="266.576066" y="384.48" style="stroke: #000000; stroke-width: 0.8"/>
      </g>
     </g>
     <g id="text_2">
      <!-- 2014 -->
      <g transform="translate(253.851066 399.078438) scale(0.1 -0.1)">
       <defs>
        <path id="DejaVuSans-34" d="M 2419 4116 
L 825 1625 
L 2419 1625 
L 2419 4116 
z
M 2253 4666 
L 3047 4666 
L 3047 1625 
L 3713 1625 
L 3713 1100 
L 3047 1100 
L 3047 0 
L 2419 0 
L 2419 1100 
L 313 1100 
L 313 1709 
L 2253 4666 
z
" transform="scale(0.015625)"/>
       </defs>
       <use xlink:href="#DejaVuSans-32"/>
       <use xlink:href="#DejaVuSans-30" transform="translate(63.623047 0)"/>
       <use xlink:href="#DejaVuSans-31" transform="translate(127.246094 0)"/>
       <use xlink:href="#DejaVuSans-34" transform="translate(190.869141 0)"/>
      </g>
     </g>
    </g>
    <g id="xtick_3">
     <g id="line2d_5">
      <path d="M 359.560144 384.48 
L 359.560144 51.84 
" clip-path="url(#p413f44eab0)" style="fill: none; stroke-dasharray: 2.96,1.28; stroke-dashoffset: 0; stroke: #b0b0b0; stroke-opacity: 0.5; stroke-width: 0.8"/>
     </g>
     <g id="line2d_6">
      <g>
       <use xlink:href="#mac18da1a8d" x="359.560144" y="384.48" style="stroke: #000000; stroke-width: 0.8"/>
      </g>
     </g>
     <g id="text_3">
      <!-- 2016 -->
      <g transform="translate(346.835144 399.078438) scale(0.1 -0.1)">
       <defs>
        <path id="DejaVuSans-36" d="M 2113 2584 
Q 1688 2584 1439 2293 
Q 1191 2003 1191 1497 
Q 1191 994 1439 701 
Q 1688 409 2113 409 
Q 2538 409 2786 701 
Q 3034 994 3034 1497 
Q 3034 2003 2786 2293 
Q 2538 2584 2113 2584 
z
M 3366 4563 
L 3366 3988 
Q 3128 4100 2886 4159 
Q 2644 4219 2406 4219 
Q 1781 4219 1451 3797 
Q 1122 3375 1075 2522 
Q 1259 2794 1537 2939 
Q 1816 3084 2150 3084 
Q 2853 3084 3261 2657 
Q 3669 2231 3669 1497 
Q 3669 778 3244 343 
Q 2819 -91 2113 -91 
Q 1303 -91 875 529 
Q 447 1150 447 2328 
Q 447 3434 972 4092 
Q 1497 4750 2381 4750 
Q 2619 4750 2861 4703 
Q 3103 4656 3366 4563 
z
" transform="scale(0.015625)"/>
       </defs>
       <use xlink:href="#DejaVuSans-32"/>
       <use xlink:href="#DejaVuSans-30" transform="translate(63.623047 0)"/>
       <use xlink:href="#DejaVuSans-31" transform="translate(127.246094 0)"/>
       <use xlink:href="#DejaVuSans-36" transform="translate(190.869141 0)"/>
      </g>
     </g>
    </g>
    <g id="xtick_4">
     <g id="line2d_7">
      <path d="M 452.671597 384.48 
L 452.671597 51.84 
" clip-path="url(#p413f44eab0)" style="fill: none; stroke-dasharray: 2.96,1.28; stroke-dashoffset: 0; stroke: #b0b0b0; stroke-opacity: 0.5; stroke-width: 0.8"/>
     </g>
     <g id="line2d_8">
      <g>
       <use xlink:href="#mac18da1a8d" x="452.671597" y="384.48" style="stroke: #000000; stroke-width: 0.8"/>
      </g>
     </g>
     <g id="text_4">
      <!-- 2018 -->
      <g transform="translate(439.946597 399.078438) scale(0.1 -0.1)">
       <defs>
        <path id="DejaVuSans-38" d="M 2034 2216 
Q 1584 2216 1326 1975 
Q 1069 1734 1069 1313 
Q 1069 891 1326 650 
Q 1584 409 2034 409 
Q 2484 409 2743 651 
Q 3003 894 3003 1313 
Q 3003 1734 2745 1975 
Q 2488 2216 2034 2216 
z
M 1403 2484 
Q 997 2584 770 2862 
Q 544 3141 544 3541 
Q 544 4100 942 4425 
Q 1341 4750 2034 4750 
Q 2731 4750 3128 4425 
Q 3525 4100 3525 3541 
Q 3525 3141 3298 2862 
Q 3072 2584 2669 2484 
Q 3125 2378 3379 2068 
Q 3634 1759 3634 1313 
Q 3634 634 3220 271 
Q 2806 -91 2034 -91 
Q 1263 -91 848 271 
Q 434 634 434 1313 
Q 434 1759 690 2068 
Q 947 2378 1403 2484 
z
M 1172 3481 
Q 1172 3119 1398 2916 
Q 1625 2713 2034 2713 
Q 2441 2713 2670 2916 
Q 2900 3119 2900 3481 
Q 2900 3844 2670 4047 
Q 2441 4250 2034 4250 
Q 1625 4250 1398 4047 
Q 1172 3844 1172 3481 
z
" transform="scale(0.015625)"/>
       </defs>
       <use xlink:href="#DejaVuSans-32"/>
       <use xlink:href="#DejaVuSans-30" transform="translate(63.623047 0)"/>
       <use xlink:href="#DejaVuSans-31" transform="translate(127.246094 0)"/>
       <use xlink:href="#DejaVuSans-38" transform="translate(190.869141 0)"/>
      </g>
     </g>
    </g>
    <g id="xtick_5">
     <g id="line2d_9">
      <path d="M 545.655675 384.48 
L 545.655675 51.84 
" clip-path="url(#p413f44eab0)" style="fill: none; stroke-dasharray: 2.96,1.28; stroke-dashoffset: 0; stroke: #b0b0b0; stroke-opacity: 0.5; stroke-width: 0.8"/>
     </g>
     <g id="line2d_10">
      <g>
       <use xlink:href="#mac18da1a8d" x="545.655675" y="384.48" style="stroke: #000000; stroke-width: 0.8"/>
      </g>
     </g>
     <g id="text_5">
      <!-- 2020 -->
      <g transform="translate(532.930675 399.078438) scale(0.1 -0.1)">
       <use xlink:href="#DejaVuSans-32"/>
       <use xlink:href="#DejaVuSans-30" transform="translate(63.623047 0)"/>
       <use xlink:href="#DejaVuSans-32" transform="translate(127.246094 0)"/>
       <use xlink:href="#DejaVuSans-30" transform="translate(190.869141 0)"/>
      </g>
     </g>
    </g>
    <g id="xtick_6">
     <g id="line2d_11">
      <path d="M 638.767129 384.48 
L 638.767129 51.84 
" clip-path="url(#p413f44eab0)" style="fill: none; stroke-dasharray: 2.96,1.28; stroke-dashoffset: 0; stroke: #b0b0b0; stroke-opacity: 0.5; stroke-width: 0.8"/>
     </g>
     <g id="line2d_12">
      <g>
       <use xlink:href="#mac18da1a8d" x="638.767129" y="384.48" style="stroke: #000000; stroke-width: 0.8"/>
      </g>
     </g>
     <g id="text_6">
      <!-- 2022 -->
      <g transform="translate(626.042129 399.078438) scale(0.1 -0.1)">
       <use xlink:href="#DejaVuSans-32"/>
       <use xlink:href="#DejaVuSans-30" transform="translate(63.623047 0)"/>
       <use xlink:href="#DejaVuSans-32" transform="translate(127.246094 0)"/>
       <use xlink:href="#DejaVuSans-32" transform="translate(190.869141 0)"/>
      </g>
     </g>
    </g>
    <g id="xtick_7">
     <g id="line2d_13">
      <path d="M 731.751207 384.48 
L 731.751207 51.84 
" clip-path="url(#p413f44eab0)" style="fill: none; stroke-dasharray: 2.96,1.28; stroke-dashoffset: 0; stroke: #b0b0b0; stroke-opacity: 0.5; stroke-width: 0.8"/>
     </g>
     <g id="line2d_14">
      <g>
       <use xlink:href="#mac18da1a8d" x="731.751207" y="384.48" style="stroke: #000000; stroke-width: 0.8"/>
      </g>
     </g>
     <g id="text_7">
      <!-- 2024 -->
      <g transform="translate(719.026207 399.078438) scale(0.1 -0.1)">
       <use xlink:href="#DejaVuSans-32"/>
       <use xlink:href="#DejaVuSans-30" transform="translate(63.623047 0)"/>
       <use xlink:href="#DejaVuSans-32" transform="translate(127.246094 0)"/>
       <use xlink:href="#DejaVuSans-34" transform="translate(190.869141 0)"/>
      </g>
     </g>
    </g>
   </g>
   <g id="matplotlib.axis_2">
    <g id="ytick_1">
     <g id="line2d_15">
      <path d="M 108 369.36 
L 777.6 369.36 
" clip-path="url(#p413f44eab0)" style="fill: none; stroke-dasharray: 2.96,1.28; stroke-dashoffset: 0; stroke: #b0b0b0; stroke-opacity: 0.5; stroke-width: 0.8"/>
     </g>
     <g id="line2d_16">
      <defs>
       <path id="m98332b6c77" d="M 0 0 
L -3.5 0 
" style="stroke: #000000; stroke-width: 0.8"/>
      </defs>
      <g>
       <use xlink:href="#m98332b6c77" x="108" y="369.36" style="stroke: #000000; stroke-width: 0.8"/>
      </g>
     </g>
     <g id="text_8">
      <!-- 0.0 -->
      <g transform="translate(85.096875 373.159219) scale(0.1 -0.1)">
       <defs>
        <path id="DejaVuSans-2e" d="M 684 794 
L 1344 794 
L 1344 0 
L 684 0 
L 684 794 
z
" transform="scale(0.015625)"/>
       </defs>
       <use xlink:href="#DejaVuSans-30"/>
       <use xlink:href="#DejaVuSans-2e" transform="translate(63.623047 0)"/>
       <use xlink:href="#DejaVuSans-30" transform="translate(95.410156 0)"/>
      </g>
     </g>
    </g>
    <g id="ytick_2">
     <g id="line2d_17">
      <path d="M 108 310.762035 
L 777.6 310.762035 
" clip-path="url(#p413f44eab0)" style="fill: none; stroke-dasharray: 2.96,1.28; stroke-dashoffset: 0; stroke: #b0b0b0; stroke-opacity: 0.5; stroke-width: 0.8"/>
     </g>
     <g id="line2d_18">
      <g>
       <use xlink:href="#m98332b6c77" x="108" y="310.762035" style="stroke: #000000; stroke-width: 0.8"/>
      </g>
     </g>
     <g id="text_9">
      <!-- 0.5 -->
      <g transform="translate(85.096875 314.561254) scale(0.1 -0.1)">
       <defs>
        <path id="DejaVuSans-35" d="M 691 4666 
L 3169 4666 
L 3169 4134 
L 1269 4134 
L 1269 2991 
Q 1406 3038 1543 3061 
Q 1681 3084 1819 3084 
Q 2600 3084 3056 2656 
Q 3513 2228 3513 1497 
Q 3513 744 3044 326 
Q 2575 -91 1722 -91 
Q 1428 -91 1123 -41 
Q 819 9 494 109 
L 494 744 
Q 775 591 1075 516 
Q 1375 441 1709 441 
Q 2250 441 2565 725 
Q 2881 1009 2881 1497 
Q 2881 1984 2565 2268 
Q 2250 2553 1709 2553 
Q 1456 2553 1204 2497 
Q 953 2441 691 2322 
L 691 4666 
z
" transform="scale(0.015625)"/>
       </defs>
       <use xlink:href="#DejaVuSans-30"/>
       <use xlink:href="#DejaVuSans-2e" transform="translate(63.623047 0)"/>
       <use xlink:href="#DejaVuSans-35" transform="translate(95.410156 0)"/>
      </g>
     </g>
    </g>
    <g id="ytick_3">
     <g id="line2d_19">
      <path d="M 108 252.164071 
L 777.6 252.164071 
" clip-path="url(#p413f44eab0)" style="fill: none; stroke-dasharray: 2.96,1.28; stroke-dashoffset: 0; stroke: #b0b0b0; stroke-opacity: 0.5; stroke-width: 0.8"/>
     </g>
     <g id="line2d_20">
      <g>
       <use xlink:href="#m98332b6c77" x="108" y="252.164071" style="stroke: #000000; stroke-width: 0.8"/>
      </g>
     </g>
     <g id="text_10">
      <!-- 1.0 -->
      <g transform="translate(85.096875 255.963289) scale(0.1 -0.1)">
       <use xlink:href="#DejaVuSans-31"/>
       <use xlink:href="#DejaVuSans-2e" transform="translate(63.623047 0)"/>
       <use xlink:href="#DejaVuSans-30" transform="translate(95.410156 0)"/>
      </g>
     </g>
    </g>
    <g id="ytick_4">
     <g id="line2d_21">
      <path d="M 108 193.566106 
L 777.6 193.566106 
" clip-path="url(#p413f44eab0)" style="fill: none; stroke-dasharray: 2.96,1.28; stroke-dashoffset: 0; stroke: #b0b0b0; stroke-opacity: 0.5; stroke-width: 0.8"/>
     </g>
     <g id="line2d_22">
      <g>
       <use xlink:href="#m98332b6c77" x="108" y="193.566106" style="stroke: #000000; stroke-width: 0.8"/>
      </g>
     </g>
     <g id="text_11">
      <!-- 1.5 -->
      <g transform="translate(85.096875 197.365325) scale(0.1 -0.1)">
       <use xlink:href="#DejaVuSans-31"/>
       <use xlink:href="#DejaVuSans-2e" transform="translate(63.623047 0)"/>
       <use xlink:href="#DejaVuSans-35" transform="translate(95.410156 0)"/>
      </g>
     </g>
    </g>
    <g id="ytick_5">
     <g id="line2d_23">
      <path d="M 108 134.968141 
L 777.6 134.968141 
" clip-path="url(#p413f44eab0)" style="fill: none; stroke-dasharray: 2.96,1.28; stroke-dashoffset: 0; stroke: #b0b0b0; stroke-opacity: 0.5; stroke-width: 0.8"/>
     </g>
     <g id="line2d_24">
      <g>
       <use xlink:href="#m98332b6c77" x="108" y="134.968141" style="stroke: #000000; stroke-width: 0.8"/>
      </g>
     </g>
     <g id="text_12">
      <!-- 2.0 -->
      <g transform="translate(85.096875 138.76736) scale(0.1 -0.1)">
       <use xlink:href="#DejaVuSans-32"/>
       <use xlink:href="#DejaVuSans-2e" transform="translate(63.623047 0)"/>
       <use xlink:href="#DejaVuSans-30" transform="translate(95.410156 0)"/>
      </g>
     </g>
    </g>
    <g id="ytick_6">
     <g id="line2d_25">
      <path d="M 108 76.370177 
L 777.6 76.370177 
" clip-path="url(#p413f44eab0)" style="fill: none; stroke-dasharray: 2.96,1.28; stroke-dashoffset: 0; stroke: #b0b0b0; stroke-opacity: 0.5; stroke-width: 0.8"/>
     </g>
     <g id="line2d_26">
      <g>
       <use xlink:href="#m98332b6c77" x="108" y="76.370177" style="stroke: #000000; stroke-width: 0.8"/>
      </g>
     </g>
     <g id="text_13">
      <!-- 2.5 -->
      <g transform="translate(85.096875 80.169396) scale(0.1 -0.1)">
       <use xlink:href="#DejaVuSans-32"/>
       <use xlink:href="#DejaVuSans-2e" transform="translate(63.623047 0)"/>
       <use xlink:href="#DejaVuSans-35" transform="translate(95.410156 0)"/>
      </g>
     </g>
    </g>
    <g id="text_14">
     <!-- 1e7 -->
     <g transform="translate(108 48.84) scale(0.1 -0.1)">
      <defs>
       <path id="DejaVuSans-65" d="M 3597 1894 
L 3597 1613 
L 953 1613 
Q 991 1019 1311 708 
Q 1631 397 2203 397 
Q 2534 397 2845 478 
Q 3156 559 3463 722 
L 3463 178 
Q 3153 47 2828 -22 
Q 2503 -91 2169 -91 
Q 1331 -91 842 396 
Q 353 884 353 1716 
Q 353 2575 817 3079 
Q 1281 3584 2069 3584 
Q 2775 3584 3186 3129 
Q 3597 2675 3597 1894 
z
M 3022 2063 
Q 3016 2534 2758 2815 
Q 2500 3097 2075 3097 
Q 1594 3097 1305 2825 
Q 1016 2553 972 2059 
L 3022 2063 
z
" transform="scale(0.015625)"/>
       <path id="DejaVuSans-37" d="M 525 4666 
L 3525 4666 
L 3525 4397 
L 1831 0 
L 1172 0 
L 2766 4134 
L 525 4134 
L 525 4666 
z
" transform="scale(0.015625)"/>
      </defs>
      <use xlink:href="#DejaVuSans-31"/>
      <use xlink:href="#DejaVuSans-65" transform="translate(63.623047 0)"/>
      <use xlink:href="#DejaVuSans-37" transform="translate(125.146484 0)"/>
     </g>
    </g>
   </g>
   <g id="line2d_27">
    <path d="M 138.436364 216.743675 
L 150.02753 212.564047 
L 161.746071 206.955987 
L 177.413251 207.476513 
L 185.055778 207.865838 
L 196.646944 203.563247 
L 208.365485 199.808606 
L 220.084027 199.967887 
L 224.032666 198.405778 
L 227.599178 196.84367 
L 231.547817 195.281562 
L 243.138983 196.038249 
L 254.857524 194.678354 
L 266.576066 177.475902 
L 270.524705 171.3878 
L 274.091217 165.299698 
L 278.039856 159.211596 
L 289.631022 161.568676 
L 301.349563 165.914383 
L 313.068105 162.221785 
L 324.531895 162.304526 
L 336.123061 155.85521 
L 347.841602 155.626596 
L 363.508783 150.840611 
L 382.742476 144.338788 
L 394.461017 141.394205 
L 406.179558 129.915661 
L 417.643349 129.349347 
L 429.234515 149.315431 
L 440.953056 145.101886 
L 444.901695 166.639857 
L 448.722958 188.177828 
L 452.671597 209.715799 
L 456.620236 208.260499 
L 460.186749 206.805199 
L 464.135388 205.349899 
L 475.726554 204.750582 
L 487.445095 202.4583 
L 499.163636 198.424698 
L 503.112275 192.488564 
L 506.678788 186.55243 
L 510.627427 180.616296 
L 522.218593 174.765687 
L 533.937134 183.363954 
L 545.655675 168.834378 
L 549.604314 172.762086 
L 553.298202 176.689795 
L 557.246841 180.617503 
L 568.838007 178.121441 
L 580.556549 179.86841 
L 592.27509 180.480278 
L 603.73888 182.764157 
L 615.330046 174.015716 
L 627.048588 175.742 
L 638.767129 179.149987 
L 650.230919 179.689909 
L 661.822085 173.612397 
L 673.540627 169.375589 
L 677.489266 152.714848 
L 681.310529 136.054106 
L 685.259168 119.393365 
L 689.207807 115.578759 
L 692.774319 111.764152 
L 696.722958 107.949546 
L 700.544222 123.916878 
L 704.492861 139.88421 
L 708.314124 155.851542 
L 716.211402 120.594686 
L 720.032666 102.966258 
L 723.981305 95.617831 
L 727.802568 88.269404 
L 731.751207 80.920977 
L 735.699846 78.170955 
L 739.393734 75.420933 
L 743.342373 72.670911 
L 747.163636 66.96 
L 747.163636 66.96 
" clip-path="url(#p413f44eab0)" style="fill: none; stroke: #a6cee3; stroke-width: 1.5; stroke-linecap: square"/>
   </g>
   <g id="line2d_28">
    <path d="M 138.436364 369.252543 
L 561.068105 369.17226 
L 642.715768 369.13925 
L 747.163636 369.125901 
L 747.163636 369.125901 
" clip-path="url(#p413f44eab0)" style="fill: none; stroke: #1f78b4; stroke-width: 1.5; stroke-linecap: square"/>
   </g>
   <g id="line2d_29">
    <path d="M 138.436364 357.380009 
L 150.02753 356.459201 
L 161.746071 355.94198 
L 173.464612 354.901151 
L 196.646944 353.558906 
L 208.365485 352.676456 
L 220.084027 352.15756 
L 231.547817 351.296556 
L 243.138983 350.972521 
L 254.857524 349.437278 
L 266.576066 351.052402 
L 340.0717 355.789376 
L 359.560144 356.773638 
L 371.15131 358.382421 
L 382.742476 359.173154 
L 398.409656 360.996383 
L 410.128197 362.271342 
L 425.413251 364.434107 
L 429.234515 365.028884 
L 448.722958 366.049961 
L 456.620236 366.319383 
L 479.675193 366.839823 
L 491.393734 366.97761 
L 499.163636 366.947428 
L 503.112275 364.48806 
L 506.678788 362.028691 
L 510.627427 359.569323 
L 526.167232 359.214145 
L 545.655675 359.132217 
L 572.786646 359.821802 
L 580.556549 360.183969 
L 599.790241 360.290973 
L 615.330046 360.255048 
L 685.259168 358.234954 
L 708.314124 357.673714 
L 735.699846 356.816399 
L 747.163636 356.01972 
L 747.163636 356.01972 
" clip-path="url(#p413f44eab0)" style="fill: none; stroke: #b2df8a; stroke-width: 1.5; stroke-linecap: square"/>
   </g>
   <g id="line2d_30">
    <path d="M 138.436364 283.311983 
L 150.02753 283.550582 
L 161.746071 283.288087 
L 177.413251 282.366399 
L 185.055778 282.012116 
L 196.646944 280.882851 
L 208.365485 280.203877 
L 231.547817 277.478661 
L 247.087622 279.786362 
L 254.857524 281.078393 
L 270.524705 256.564079 
L 274.091217 250.65265 
L 278.039856 244.74122 
L 289.631022 248.007213 
L 301.349563 254.09778 
L 313.068105 251.303079 
L 324.531895 252.462815 
L 336.123061 252.983997 
L 347.841602 253.986397 
L 371.15131 253.5103 
L 394.461017 251.594159 
L 406.179558 242.73206 
L 417.643349 244.870663 
L 429.234515 247.631577 
L 440.953056 248.716917 
L 444.901695 268.896567 
L 448.722958 289.076218 
L 452.671597 309.255868 
L 464.135388 308.932197 
L 475.726554 309.280866 
L 487.445095 309.309896 
L 499.163636 308.084554 
L 510.627427 306.428317 
L 522.218593 303.935068 
L 533.937134 302.413443 
L 545.655675 300.352447 
L 557.246841 299.543865 
L 568.838007 297.350379 
L 584.505187 293.505923 
L 603.73888 288.473538 
L 615.330046 288.759203 
L 627.048588 289.464898 
L 650.230919 290.185032 
L 661.822085 288.92507 
L 673.540627 286.314765 
L 677.489266 270.040962 
L 681.310529 253.767159 
L 685.259168 237.493355 
L 689.207807 234.268198 
L 692.774319 231.04304 
L 696.722958 227.817882 
L 700.544222 244.59564 
L 704.492861 261.373397 
L 708.314124 278.151155 
L 716.211402 244.202432 
L 720.032666 227.22807 
L 723.981305 220.168973 
L 727.802568 213.109875 
L 731.751207 206.050777 
L 735.699846 202.984295 
L 739.393734 199.917813 
L 743.342373 196.851331 
L 747.163636 192.048782 
L 747.163636 192.048782 
" clip-path="url(#p413f44eab0)" style="fill: none; stroke: #33a02c; stroke-width: 1.5; stroke-linecap: square"/>
   </g>
   <g id="line2d_31">
    <path d="M 138.436364 366.864711 
L 150.02753 366.468308 
L 208.365485 366.107368 
L 220.084027 366.471695 
L 254.857524 366.258375 
L 305.298202 365.638385 
L 332.301798 365.271593 
L 340.0717 365.10176 
L 347.841602 364.986916 
L 359.560144 364.364887 
L 374.972573 362.336112 
L 386.691115 360.768323 
L 394.461017 359.832264 
L 417.643349 358.13556 
L 433.183154 357.447573 
L 440.953056 357.214822 
L 456.620236 357.539255 
L 471.90529 358.011742 
L 487.445095 358.367784 
L 503.112275 358.288516 
L 514.44869 358.42814 
L 522.218593 358.60105 
L 541.707036 358.543163 
L 557.246841 358.711355 
L 592.27509 359.630921 
L 623.227324 360.288379 
L 642.715768 360.823683 
L 654.052183 361.204956 
L 735.699846 363.015977 
L 747.163636 363.214812 
L 747.163636 363.214812 
" clip-path="url(#p413f44eab0)" style="fill: none; stroke: #fb9a99; stroke-width: 1.5; stroke-linecap: square"/>
   </g>
   <g id="line2d_32">
    <path d="M 138.436364 358.977835 
L 153.976168 358.009387 
L 161.746071 357.628359 
L 188.877042 355.361216 
L 200.595583 354.587062 
L 208.365485 353.960478 
L 220.084027 355.273612 
L 254.857524 353.922776 
L 270.524705 354.210231 
L 281.86112 354.504678 
L 313.068105 354.830635 
L 344.020339 354.708993 
L 351.790241 354.699336 
L 363.508783 354.709849 
L 382.742476 354.629597 
L 394.461017 356.242002 
L 406.179558 356.798061 
L 417.643349 356.775876 
L 437.131793 357.316431 
L 475.726554 358.09617 
L 522.218593 355.095814 
L 533.937134 354.847066 
L 553.298202 355.288308 
L 565.016744 355.537771 
L 599.790241 356.083373 
L 619.278685 356.093358 
L 638.767129 355.949235 
L 665.770724 355.373373 
L 685.259168 355.297414 
L 700.544222 354.905015 
L 716.211402 354.237412 
L 723.981305 353.960209 
L 747.163636 353.445195 
L 747.163636 353.445195 
" clip-path="url(#p413f44eab0)" style="fill: none; stroke: #e31a1c; stroke-width: 1.5; stroke-linecap: square"/>
   </g>
   <g id="line2d_33">
    <path d="M 138.436364 369.160591 
L 251.036261 368.986727 
L 297.5283 368.877821 
L 514.44869 368.240232 
L 727.802568 367.104389 
L 747.163636 366.953468 
L 747.163636 366.953468 
" clip-path="url(#p413f44eab0)" style="fill: none; stroke: #fdbf6f; stroke-width: 1.5; stroke-linecap: square"/>
   </g>
   <g id="line2d_34">
    <path d="M 138.436364 367.29509 
L 173.464612 366.772162 
L 188.877042 366.727096 
L 208.365485 366.448103 
L 220.084027 366.527093 
L 231.547817 369.36 
L 747.163636 369.36 
L 747.163636 369.36 
" clip-path="url(#p413f44eab0)" style="fill: none; stroke: #ff7f00; stroke-width: 1.5; stroke-linecap: square"/>
   </g>
   <g id="line2d_35">
    <path d="M 138.436364 364.940178 
L 173.464612 365.165874 
L 204.544222 365.035396 
L 239.31772 364.915813 
L 278.039856 364.859747 
L 293.579661 364.459222 
L 324.531895 364.034371 
L 336.123061 355.672336 
L 347.841602 354.32245 
L 359.560144 353.50461 
L 371.15131 351.928981 
L 394.461017 347.775955 
L 406.179558 347.039145 
L 417.643349 347.294315 
L 429.234515 363.38936 
L 440.953056 362.806896 
L 464.135388 362.729629 
L 499.163636 363.111887 
L 557.246841 363.232962 
L 580.556549 363.593691 
L 592.27509 363.426288 
L 607.560144 363.852643 
L 638.767129 363.986449 
L 665.770724 363.874352 
L 716.211402 363.855924 
L 747.163636 363.791998 
L 747.163636 363.791998 
" clip-path="url(#p413f44eab0)" style="fill: none; stroke: #cab2d6; stroke-width: 1.5; stroke-linecap: square"/>
   </g>
   <g id="line2d_36">
    <path d="M 138.436364 369.346628 
L 747.163636 369.36 
L 747.163636 369.36 
" clip-path="url(#p413f44eab0)" style="fill: none; stroke: #6a3d9a; stroke-width: 1.5; stroke-linecap: square"/>
   </g>
   <g id="line2d_37">
    <path d="M 138.436364 368.309034 
L 169.515973 368.284794 
L 208.365485 368.201155 
L 220.084027 368.643394 
L 251.036261 368.794397 
L 262.627427 368.822309 
L 285.809759 368.858511 
L 324.531895 368.882837 
L 406.179558 368.689546 
L 491.393734 368.330582 
L 522.218593 368.324949 
L 533.937134 367.02793 
L 557.246841 366.160446 
L 572.786646 366.110743 
L 584.505187 365.737704 
L 592.27509 365.367545 
L 619.278685 364.977607 
L 627.048588 365.072387 
L 658.000822 363.582846 
L 661.822085 363.454368 
L 723.981305 363.579381 
L 731.751207 363.88334 
L 743.342373 363.395946 
L 747.163636 363.388488 
L 747.163636 363.388488 
" clip-path="url(#p413f44eab0)" style="fill: none; stroke: #ffff99; stroke-width: 1.5; stroke-linecap: square"/>
   </g>
   <g id="line2d_38">
    <path d="M 138.436364 369.112224 
L 320.583256 368.766324 
L 367.202671 368.533362 
L 378.921212 368.330813 
L 394.461017 368.105922 
L 425.413251 367.816869 
L 460.186749 367.477685 
L 522.218593 366.907359 
L 533.937134 367.669601 
L 568.838007 367.303879 
L 650.230919 366.692597 
L 661.822085 364.349897 
L 681.310529 363.596488 
L 689.207807 363.413854 
L 708.314124 363.20555 
L 743.342373 363.148897 
L 747.163636 363.137904 
L 747.163636 363.137904 
" clip-path="url(#p413f44eab0)" style="fill: none; stroke: #b15928; stroke-width: 1.5; stroke-linecap: square"/>
   </g>
   <g id="line2d_39">
    <path d="M 138.436364 368.404291 
L 169.515973 368.528346 
L 220.084027 368.491191 
L 313.068105 367.688763 
L 394.461017 367.08191 
L 406.179558 366.922571 
L 417.643349 365.185258 
L 437.131793 365.439308 
L 448.722958 365.584197 
L 460.186749 365.608312 
L 475.726554 365.501219 
L 503.112275 365.191208 
L 526.167232 364.881338 
L 545.655675 364.618241 
L 572.786646 364.602005 
L 580.556549 364.533368 
L 596.223729 366.168583 
L 603.73888 367.045029 
L 619.278685 368.15305 
L 630.997227 368.725521 
L 638.767129 368.966538 
L 704.492861 368.988633 
L 747.163636 368.990235 
L 747.163636 368.990235 
" clip-path="url(#p413f44eab0)" style="fill: none; stroke: #a6cee3; stroke-width: 1.5; stroke-linecap: square"/>
   </g>
   <g id="line2d_40">
    <path d="M 138.436364 369.285053 
L 425.413251 369.278268 
L 487.445095 369.28612 
L 720.032666 369.292003 
L 731.751207 368.663305 
L 747.163636 368.606082 
L 747.163636 368.606082 
" clip-path="url(#p413f44eab0)" style="fill: none; stroke: #1f78b4; stroke-width: 1.5; stroke-linecap: square"/>
   </g>
   <g id="line2d_41">
    <path d="M 138.436364 352.903008 
L 161.746071 351.3661 
L 173.464612 356.435246 
L 196.646944 355.136704 
L 208.365485 355.601221 
L 220.084027 355.542201 
L 231.547817 352.076941 
L 243.138983 352.200195 
L 254.857524 353.120828 
L 274.091217 352.188523 
L 293.579661 351.261327 
L 305.298202 350.835289 
L 324.531895 349.913 
L 336.123061 351.753433 
L 347.841602 352.080257 
L 359.560144 350.78966 
L 371.15131 350.403347 
L 382.742476 351.596086 
L 402.230919 351.094573 
L 406.179558 351.02104 
L 417.643349 350.432459 
L 429.234515 350.940363 
L 440.953056 350.668339 
L 452.671597 351.697296 
L 475.726554 352.28903 
L 491.393734 351.930098 
L 503.112275 351.771055 
L 514.44869 351.294744 
L 522.218593 350.852313 
L 533.937134 350.729644 
L 545.655675 352.090981 
L 565.016744 352.021897 
L 576.735285 351.807816 
L 603.73888 351.175786 
L 619.278685 349.924645 
L 630.997227 349.227525 
L 638.767129 348.919049 
L 654.052183 347.546517 
L 665.770724 346.516443 
L 681.310529 345.509308 
L 685.259168 345.288659 
L 700.544222 343.354313 
L 716.211402 341.838079 
L 720.032666 341.481983 
L 731.751207 340.7226 
L 747.163636 339.149882 
L 747.163636 339.149882 
" clip-path="url(#p413f44eab0)" style="fill: none; stroke: #b2df8a; stroke-width: 1.5; stroke-linecap: square"/>
   </g>
   <g id="line2d_42">
    <path d="M 138.436364 369.313297 
L 747.163636 369.353273 
L 747.163636 369.353273 
" clip-path="url(#p413f44eab0)" style="fill: none; stroke: #33a02c; stroke-width: 1.5; stroke-linecap: square"/>
   </g>
   <g id="line2d_43">
    <path d="M 138.436364 369.36 
L 374.972573 369.274213 
L 382.742476 369.102638 
L 402.230919 369.229776 
L 413.69471 369.299011 
L 417.643349 369.337299 
L 429.234515 369.058842 
L 452.671597 369.24918 
L 487.445095 369.228354 
L 615.330046 369.36 
L 747.163636 369.36 
L 747.163636 369.36 
" clip-path="url(#p413f44eab0)" style="fill: none; stroke: #fb9a99; stroke-width: 1.5; stroke-linecap: square"/>
   </g>
   <g id="line2d_44">
    <path d="M 138.436364 369.007205 
L 204.544222 369.170693 
L 301.349563 369.180374 
L 347.841602 369.099122 
L 363.508783 368.755636 
L 394.461017 368.584257 
L 417.643349 368.564755 
L 475.726554 368.388727 
L 491.393734 368.642335 
L 557.246841 368.780853 
L 568.838007 368.458248 
L 580.556549 369.36 
L 747.163636 369.36 
L 747.163636 369.36 
" clip-path="url(#p413f44eab0)" style="fill: none; stroke: #e31a1c; stroke-width: 1.5; stroke-linecap: square"/>
   </g>
   <g id="line2d_45">
    <path d="M 138.436364 369.36 
L 374.972573 369.270177 
L 382.742476 369.090531 
L 398.409656 369.36 
L 747.163636 369.36 
L 747.163636 369.36 
" clip-path="url(#p413f44eab0)" style="fill: none; stroke: #fdbf6f; stroke-width: 1.5; stroke-linecap: square"/>
   </g>
   <g id="line2d_46">
    <path d="M 138.436364 353.639994 
L 150.02753 352.006787 
L 161.746071 348.665027 
L 173.464612 347.013162 
L 185.055778 350.558843 
L 196.646944 349.667791 
L 208.365485 348.306607 
L 220.084027 348.336211 
L 231.547817 347.180448 
L 243.138983 347.060603 
L 254.857524 345.189207 
L 266.576066 345.54758 
L 289.631022 344.109153 
L 301.349563 342.3732 
L 320.583256 341.049347 
L 328.353159 340.557296 
L 340.0717 340.009709 
L 351.790241 339.530667 
L 359.560144 339.118622 
L 371.15131 337.928474 
L 382.742476 337.643465 
L 394.461017 336.406145 
L 406.179558 334.180782 
L 417.643349 333.052525 
L 429.234515 332.520503 
L 440.953056 327.335098 
L 452.671597 329.586362 
L 456.620236 327.870617 
L 460.186749 326.154873 
L 464.135388 324.439128 
L 491.393734 320.466827 
L 499.163636 319.286797 
L 503.112275 316.776027 
L 506.678788 314.265256 
L 510.627427 311.754486 
L 522.218593 310.128427 
L 533.937134 321.619652 
L 545.655675 308.323727 
L 549.604314 312.366006 
L 553.298202 316.408285 
L 557.246841 320.450564 
L 568.838007 319.691029 
L 584.505187 323.899637 
L 592.27509 325.795038 
L 596.223729 327.117387 
L 599.790241 328.439737 
L 603.73888 329.762086 
L 615.330046 320.937349 
L 627.048588 322.130744 
L 638.767129 326.178703 
L 650.230919 328.479505 
L 673.540627 327.852565 
L 689.207807 327.88908 
L 696.722958 328.059662 
L 708.314124 327.598754 
L 720.032666 327.496395 
L 731.751207 327.95258 
L 743.342373 331.488932 
L 747.163636 331.414259 
L 747.163636 331.414259 
" clip-path="url(#p413f44eab0)" style="fill: none; stroke: #ff7f00; stroke-width: 1.5; stroke-linecap: square"/>
   </g>
   <g id="patch_3">
    <path d="M 108 384.48 
L 108 51.84 
" style="fill: none; stroke: #000000; stroke-width: 0.8; stroke-linejoin: miter; stroke-linecap: square"/>
   </g>
   <g id="patch_4">
    <path d="M 777.6 384.48 
L 777.6 51.84 
" style="fill: none; stroke: #000000; stroke-width: 0.8; stroke-linejoin: miter; stroke-linecap: square"/>
   </g>
   <g id="patch_5">
    <path d="M 108 384.48 
L 777.6 384.48 
" style="fill: none; stroke: #000000; stroke-width: 0.8; stroke-linejoin: miter; stroke-linecap: square"/>
   </g>
   <g id="patch_6">
    <path d="M 108 51.84 
L 777.6 51.84 
" style="fill: none; stroke: #000000; stroke-width: 0.8; stroke-linejoin: miter; stroke-linecap: square"/>
   </g>
   <g id="text_15">
    <!-- Número de Tarjetas de Crédito Visa -->
    <g transform="translate(303.034063 45.84) scale(0.14 -0.14)">
     <defs>
      <path id="DejaVuSans-Bold-4e" d="M 588 4666 
L 1931 4666 
L 3628 1466 
L 3628 4666 
L 4769 4666 
L 4769 0 
L 3425 0 
L 1728 3200 
L 1728 0 
L 588 0 
L 588 4666 
z
" transform="scale(0.015625)"/>
      <path id="DejaVuSans-Bold-fa" d="M 500 1363 
L 500 3500 
L 1625 3500 
L 1625 3150 
Q 1625 2866 1622 2436 
Q 1619 2006 1619 1863 
Q 1619 1441 1641 1255 
Q 1663 1069 1716 984 
Q 1784 875 1895 815 
Q 2006 756 2150 756 
Q 2500 756 2700 1025 
Q 2900 1294 2900 1772 
L 2900 3500 
L 4019 3500 
L 4019 0 
L 2900 0 
L 2900 506 
Q 2647 200 2364 54 
Q 2081 -91 1741 -91 
Q 1134 -91 817 281 
Q 500 653 500 1363 
z
M 2778 5119 
L 3663 5119 
L 2509 3944 
L 1897 3944 
L 2778 5119 
z
" transform="scale(0.015625)"/>
      <path id="DejaVuSans-Bold-6d" d="M 3781 2919 
Q 3994 3244 4286 3414 
Q 4578 3584 4928 3584 
Q 5531 3584 5847 3212 
Q 6163 2841 6163 2131 
L 6163 0 
L 5038 0 
L 5038 1825 
Q 5041 1866 5042 1909 
Q 5044 1953 5044 2034 
Q 5044 2406 4934 2573 
Q 4825 2741 4581 2741 
Q 4263 2741 4089 2478 
Q 3916 2216 3909 1719 
L 3909 0 
L 2784 0 
L 2784 1825 
Q 2784 2406 2684 2573 
Q 2584 2741 2328 2741 
Q 2006 2741 1831 2477 
Q 1656 2213 1656 1722 
L 1656 0 
L 531 0 
L 531 3500 
L 1656 3500 
L 1656 2988 
Q 1863 3284 2130 3434 
Q 2397 3584 2719 3584 
Q 3081 3584 3359 3409 
Q 3638 3234 3781 2919 
z
" transform="scale(0.015625)"/>
      <path id="DejaVuSans-Bold-65" d="M 4031 1759 
L 4031 1441 
L 1416 1441 
Q 1456 1047 1700 850 
Q 1944 653 2381 653 
Q 2734 653 3104 758 
Q 3475 863 3866 1075 
L 3866 213 
Q 3469 63 3072 -14 
Q 2675 -91 2278 -91 
Q 1328 -91 801 392 
Q 275 875 275 1747 
Q 275 2603 792 3093 
Q 1309 3584 2216 3584 
Q 3041 3584 3536 3087 
Q 4031 2591 4031 1759 
z
M 2881 2131 
Q 2881 2450 2695 2645 
Q 2509 2841 2209 2841 
Q 1884 2841 1681 2658 
Q 1478 2475 1428 2131 
L 2881 2131 
z
" transform="scale(0.015625)"/>
      <path id="DejaVuSans-Bold-72" d="M 3138 2547 
Q 2991 2616 2845 2648 
Q 2700 2681 2553 2681 
Q 2122 2681 1889 2404 
Q 1656 2128 1656 1613 
L 1656 0 
L 538 0 
L 538 3500 
L 1656 3500 
L 1656 2925 
Q 1872 3269 2151 3426 
Q 2431 3584 2822 3584 
Q 2878 3584 2943 3579 
Q 3009 3575 3134 3559 
L 3138 2547 
z
" transform="scale(0.015625)"/>
      <path id="DejaVuSans-Bold-6f" d="M 2203 2784 
Q 1831 2784 1636 2517 
Q 1441 2250 1441 1747 
Q 1441 1244 1636 976 
Q 1831 709 2203 709 
Q 2569 709 2762 976 
Q 2956 1244 2956 1747 
Q 2956 2250 2762 2517 
Q 2569 2784 2203 2784 
z
M 2203 3584 
Q 3106 3584 3614 3096 
Q 4122 2609 4122 1747 
Q 4122 884 3614 396 
Q 3106 -91 2203 -91 
Q 1297 -91 786 396 
Q 275 884 275 1747 
Q 275 2609 786 3096 
Q 1297 3584 2203 3584 
z
" transform="scale(0.015625)"/>
      <path id="DejaVuSans-Bold-20" transform="scale(0.015625)"/>
      <path id="DejaVuSans-Bold-64" d="M 2919 2988 
L 2919 4863 
L 4044 4863 
L 4044 0 
L 2919 0 
L 2919 506 
Q 2688 197 2409 53 
Q 2131 -91 1766 -91 
Q 1119 -91 703 423 
Q 288 938 288 1747 
Q 288 2556 703 3070 
Q 1119 3584 1766 3584 
Q 2128 3584 2408 3439 
Q 2688 3294 2919 2988 
z
M 2181 722 
Q 2541 722 2730 984 
Q 2919 1247 2919 1747 
Q 2919 2247 2730 2509 
Q 2541 2772 2181 2772 
Q 1825 2772 1636 2509 
Q 1447 2247 1447 1747 
Q 1447 1247 1636 984 
Q 1825 722 2181 722 
z
" transform="scale(0.015625)"/>
      <path id="DejaVuSans-Bold-54" d="M 31 4666 
L 4331 4666 
L 4331 3756 
L 2784 3756 
L 2784 0 
L 1581 0 
L 1581 3756 
L 31 3756 
L 31 4666 
z
" transform="scale(0.015625)"/>
      <path id="DejaVuSans-Bold-61" d="M 2106 1575 
Q 1756 1575 1579 1456 
Q 1403 1338 1403 1106 
Q 1403 894 1545 773 
Q 1688 653 1941 653 
Q 2256 653 2472 879 
Q 2688 1106 2688 1447 
L 2688 1575 
L 2106 1575 
z
M 3816 1997 
L 3816 0 
L 2688 0 
L 2688 519 
Q 2463 200 2181 54 
Q 1900 -91 1497 -91 
Q 953 -91 614 226 
Q 275 544 275 1050 
Q 275 1666 698 1953 
Q 1122 2241 2028 2241 
L 2688 2241 
L 2688 2328 
Q 2688 2594 2478 2717 
Q 2269 2841 1825 2841 
Q 1466 2841 1156 2769 
Q 847 2697 581 2553 
L 581 3406 
Q 941 3494 1303 3539 
Q 1666 3584 2028 3584 
Q 2975 3584 3395 3211 
Q 3816 2838 3816 1997 
z
" transform="scale(0.015625)"/>
      <path id="DejaVuSans-Bold-6a" d="M 538 3500 
L 1656 3500 
L 1656 63 
Q 1656 -641 1318 -1011 
Q 981 -1381 341 -1381 
L -213 -1381 
L -213 -647 
L -19 -647 
Q 300 -647 419 -503 
Q 538 -359 538 63 
L 538 3500 
z
M 538 4863 
L 1656 4863 
L 1656 3950 
L 538 3950 
L 538 4863 
z
" transform="scale(0.015625)"/>
      <path id="DejaVuSans-Bold-74" d="M 1759 4494 
L 1759 3500 
L 2913 3500 
L 2913 2700 
L 1759 2700 
L 1759 1216 
Q 1759 972 1856 886 
Q 1953 800 2241 800 
L 2816 800 
L 2816 0 
L 1856 0 
Q 1194 0 917 276 
Q 641 553 641 1216 
L 641 2700 
L 84 2700 
L 84 3500 
L 641 3500 
L 641 4494 
L 1759 4494 
z
" transform="scale(0.015625)"/>
      <path id="DejaVuSans-Bold-73" d="M 3272 3391 
L 3272 2541 
Q 2913 2691 2578 2766 
Q 2244 2841 1947 2841 
Q 1628 2841 1473 2761 
Q 1319 2681 1319 2516 
Q 1319 2381 1436 2309 
Q 1553 2238 1856 2203 
L 2053 2175 
Q 2913 2066 3209 1816 
Q 3506 1566 3506 1031 
Q 3506 472 3093 190 
Q 2681 -91 1863 -91 
Q 1516 -91 1145 -36 
Q 775 19 384 128 
L 384 978 
Q 719 816 1070 734 
Q 1422 653 1784 653 
Q 2113 653 2278 743 
Q 2444 834 2444 1013 
Q 2444 1163 2330 1236 
Q 2216 1309 1875 1350 
L 1678 1375 
Q 931 1469 631 1722 
Q 331 1975 331 2491 
Q 331 3047 712 3315 
Q 1094 3584 1881 3584 
Q 2191 3584 2531 3537 
Q 2872 3491 3272 3391 
z
" transform="scale(0.015625)"/>
      <path id="DejaVuSans-Bold-43" d="M 4288 256 
Q 3956 84 3597 -3 
Q 3238 -91 2847 -91 
Q 1681 -91 1000 561 
Q 319 1213 319 2328 
Q 319 3447 1000 4098 
Q 1681 4750 2847 4750 
Q 3238 4750 3597 4662 
Q 3956 4575 4288 4403 
L 4288 3438 
Q 3953 3666 3628 3772 
Q 3303 3878 2944 3878 
Q 2300 3878 1931 3465 
Q 1563 3053 1563 2328 
Q 1563 1606 1931 1193 
Q 2300 781 2944 781 
Q 3303 781 3628 887 
Q 3953 994 4288 1222 
L 4288 256 
z
" transform="scale(0.015625)"/>
      <path id="DejaVuSans-Bold-e9" d="M 4031 1759 
L 4031 1441 
L 1416 1441 
Q 1456 1047 1700 850 
Q 1944 653 2381 653 
Q 2734 653 3104 758 
Q 3475 863 3866 1075 
L 3866 213 
Q 3469 63 3072 -14 
Q 2675 -91 2278 -91 
Q 1328 -91 801 392 
Q 275 875 275 1747 
Q 275 2603 792 3093 
Q 1309 3584 2216 3584 
Q 3041 3584 3536 3087 
Q 4031 2591 4031 1759 
z
M 2881 2131 
Q 2881 2450 2695 2645 
Q 2509 2841 2209 2841 
Q 1884 2841 1681 2658 
Q 1478 2475 1428 2131 
L 2881 2131 
z
M 2700 5119 
L 3584 5119 
L 2431 3944 
L 1819 3944 
L 2700 5119 
z
" transform="scale(0.015625)"/>
      <path id="DejaVuSans-Bold-69" d="M 538 3500 
L 1656 3500 
L 1656 0 
L 538 0 
L 538 3500 
z
M 538 4863 
L 1656 4863 
L 1656 3950 
L 538 3950 
L 538 4863 
z
" transform="scale(0.015625)"/>
      <path id="DejaVuSans-Bold-56" d="M 31 4666 
L 1241 4666 
L 2478 1222 
L 3713 4666 
L 4922 4666 
L 3194 0 
L 1759 0 
L 31 4666 
z
" transform="scale(0.015625)"/>
     </defs>
     <use xlink:href="#DejaVuSans-Bold-4e"/>
     <use xlink:href="#DejaVuSans-Bold-fa" transform="translate(83.691406 0)"/>
     <use xlink:href="#DejaVuSans-Bold-6d" transform="translate(154.882812 0)"/>
     <use xlink:href="#DejaVuSans-Bold-65" transform="translate(259.082031 0)"/>
     <use xlink:href="#DejaVuSans-Bold-72" transform="translate(326.904297 0)"/>
     <use xlink:href="#DejaVuSans-Bold-6f" transform="translate(376.220703 0)"/>
     <use xlink:href="#DejaVuSans-Bold-20" transform="translate(444.921875 0)"/>
     <use xlink:href="#DejaVuSans-Bold-64" transform="translate(479.736328 0)"/>
     <use xlink:href="#DejaVuSans-Bold-65" transform="translate(551.318359 0)"/>
     <use xlink:href="#DejaVuSans-Bold-20" transform="translate(619.140625 0)"/>
     <use xlink:href="#DejaVuSans-Bold-54" transform="translate(653.955078 0)"/>
     <use xlink:href="#DejaVuSans-Bold-61" transform="translate(709.292969 0)"/>
     <use xlink:href="#DejaVuSans-Bold-72" transform="translate(776.773438 0)"/>
     <use xlink:href="#DejaVuSans-Bold-6a" transform="translate(826.089844 0)"/>
     <use xlink:href="#DejaVuSans-Bold-65" transform="translate(860.367188 0)"/>
     <use xlink:href="#DejaVuSans-Bold-74" transform="translate(928.189453 0)"/>
     <use xlink:href="#DejaVuSans-Bold-61" transform="translate(975.992188 0)"/>
     <use xlink:href="#DejaVuSans-Bold-73" transform="translate(1043.472656 0)"/>
     <use xlink:href="#DejaVuSans-Bold-20" transform="translate(1102.994141 0)"/>
     <use xlink:href="#DejaVuSans-Bold-64" transform="translate(1137.808594 0)"/>
     <use xlink:href="#DejaVuSans-Bold-65" transform="translate(1209.390625 0)"/>
     <use xlink:href="#DejaVuSans-Bold-20" transform="translate(1277.212891 0)"/>
     <use xlink:href="#DejaVuSans-Bold-43" transform="translate(1312.027344 0)"/>
     <use xlink:href="#DejaVuSans-Bold-72" transform="translate(1385.416016 0)"/>
     <use xlink:href="#DejaVuSans-Bold-e9" transform="translate(1434.732422 0)"/>
     <use xlink:href="#DejaVuSans-Bold-64" transform="translate(1502.554688 0)"/>
     <use xlink:href="#DejaVuSans-Bold-69" transform="translate(1574.136719 0)"/>
     <use xlink:href="#DejaVuSans-Bold-74" transform="translate(1608.414062 0)"/>
     <use xlink:href="#DejaVuSans-Bold-6f" transform="translate(1656.216797 0)"/>
     <use xlink:href="#DejaVuSans-Bold-20" transform="translate(1724.917969 0)"/>
     <use xlink:href="#DejaVuSans-Bold-56" transform="translate(1759.732422 0)"/>
     <use xlink:href="#DejaVuSans-Bold-69" transform="translate(1835.375 0)"/>
     <use xlink:href="#DejaVuSans-Bold-73" transform="translate(1869.652344 0)"/>
     <use xlink:href="#DejaVuSans-Bold-61" transform="translate(1929.173828 0)"/>
    </g>
   </g>
   <g id="legend_1">
    <g id="patch_7">
     <path d="M 349.034375 293.09 
L 536.565625 293.09 
Q 538.165625 293.09 538.165625 291.49 
L 538.165625 57.44 
Q 538.165625 55.84 536.565625 55.84 
L 349.034375 55.84 
Q 347.434375 55.84 347.434375 57.44 
L 347.434375 291.49 
Q 347.434375 293.09 349.034375 293.09 
z
" style="fill: #ffffff; opacity: 0.8; stroke: #cccccc; stroke-linejoin: miter"/>
    </g>
    <g id="line2d_47">
     <path d="M 350.634375 62.31875 
L 358.634375 62.31875 
L 366.634375 62.31875 
" style="fill: none; stroke: #a6cee3; stroke-width: 1.5; stroke-linecap: square"/>
    </g>
    <g id="text_16">
     <!--  Tarjetas vigentes al cierre del trimestre  -->
     <g transform="translate(373.034375 65.11875) scale(0.08 -0.08)">
      <defs>
       <path id="DejaVuSans-20" transform="scale(0.015625)"/>
       <path id="DejaVuSans-54" d="M -19 4666 
L 3928 4666 
L 3928 4134 
L 2272 4134 
L 2272 0 
L 1638 0 
L 1638 4134 
L -19 4134 
L -19 4666 
z
" transform="scale(0.015625)"/>
       <path id="DejaVuSans-61" d="M 2194 1759 
Q 1497 1759 1228 1600 
Q 959 1441 959 1056 
Q 959 750 1161 570 
Q 1363 391 1709 391 
Q 2188 391 2477 730 
Q 2766 1069 2766 1631 
L 2766 1759 
L 2194 1759 
z
M 3341 1997 
L 3341 0 
L 2766 0 
L 2766 531 
Q 2569 213 2275 61 
Q 1981 -91 1556 -91 
Q 1019 -91 701 211 
Q 384 513 384 1019 
Q 384 1609 779 1909 
Q 1175 2209 1959 2209 
L 2766 2209 
L 2766 2266 
Q 2766 2663 2505 2880 
Q 2244 3097 1772 3097 
Q 1472 3097 1187 3025 
Q 903 2953 641 2809 
L 641 3341 
Q 956 3463 1253 3523 
Q 1550 3584 1831 3584 
Q 2591 3584 2966 3190 
Q 3341 2797 3341 1997 
z
" transform="scale(0.015625)"/>
       <path id="DejaVuSans-72" d="M 2631 2963 
Q 2534 3019 2420 3045 
Q 2306 3072 2169 3072 
Q 1681 3072 1420 2755 
Q 1159 2438 1159 1844 
L 1159 0 
L 581 0 
L 581 3500 
L 1159 3500 
L 1159 2956 
Q 1341 3275 1631 3429 
Q 1922 3584 2338 3584 
Q 2397 3584 2469 3576 
Q 2541 3569 2628 3553 
L 2631 2963 
z
" transform="scale(0.015625)"/>
       <path id="DejaVuSans-6a" d="M 603 3500 
L 1178 3500 
L 1178 -63 
Q 1178 -731 923 -1031 
Q 669 -1331 103 -1331 
L -116 -1331 
L -116 -844 
L 38 -844 
Q 366 -844 484 -692 
Q 603 -541 603 -63 
L 603 3500 
z
M 603 4863 
L 1178 4863 
L 1178 4134 
L 603 4134 
L 603 4863 
z
" transform="scale(0.015625)"/>
       <path id="DejaVuSans-74" d="M 1172 4494 
L 1172 3500 
L 2356 3500 
L 2356 3053 
L 1172 3053 
L 1172 1153 
Q 1172 725 1289 603 
Q 1406 481 1766 481 
L 2356 481 
L 2356 0 
L 1766 0 
Q 1100 0 847 248 
Q 594 497 594 1153 
L 594 3053 
L 172 3053 
L 172 3500 
L 594 3500 
L 594 4494 
L 1172 4494 
z
" transform="scale(0.015625)"/>
       <path id="DejaVuSans-73" d="M 2834 3397 
L 2834 2853 
Q 2591 2978 2328 3040 
Q 2066 3103 1784 3103 
Q 1356 3103 1142 2972 
Q 928 2841 928 2578 
Q 928 2378 1081 2264 
Q 1234 2150 1697 2047 
L 1894 2003 
Q 2506 1872 2764 1633 
Q 3022 1394 3022 966 
Q 3022 478 2636 193 
Q 2250 -91 1575 -91 
Q 1294 -91 989 -36 
Q 684 19 347 128 
L 347 722 
Q 666 556 975 473 
Q 1284 391 1588 391 
Q 1994 391 2212 530 
Q 2431 669 2431 922 
Q 2431 1156 2273 1281 
Q 2116 1406 1581 1522 
L 1381 1569 
Q 847 1681 609 1914 
Q 372 2147 372 2553 
Q 372 3047 722 3315 
Q 1072 3584 1716 3584 
Q 2034 3584 2315 3537 
Q 2597 3491 2834 3397 
z
" transform="scale(0.015625)"/>
       <path id="DejaVuSans-76" d="M 191 3500 
L 800 3500 
L 1894 563 
L 2988 3500 
L 3597 3500 
L 2284 0 
L 1503 0 
L 191 3500 
z
" transform="scale(0.015625)"/>
       <path id="DejaVuSans-69" d="M 603 3500 
L 1178 3500 
L 1178 0 
L 603 0 
L 603 3500 
z
M 603 4863 
L 1178 4863 
L 1178 4134 
L 603 4134 
L 603 4863 
z
" transform="scale(0.015625)"/>
       <path id="DejaVuSans-67" d="M 2906 1791 
Q 2906 2416 2648 2759 
Q 2391 3103 1925 3103 
Q 1463 3103 1205 2759 
Q 947 2416 947 1791 
Q 947 1169 1205 825 
Q 1463 481 1925 481 
Q 2391 481 2648 825 
Q 2906 1169 2906 1791 
z
M 3481 434 
Q 3481 -459 3084 -895 
Q 2688 -1331 1869 -1331 
Q 1566 -1331 1297 -1286 
Q 1028 -1241 775 -1147 
L 775 -588 
Q 1028 -725 1275 -790 
Q 1522 -856 1778 -856 
Q 2344 -856 2625 -561 
Q 2906 -266 2906 331 
L 2906 616 
Q 2728 306 2450 153 
Q 2172 0 1784 0 
Q 1141 0 747 490 
Q 353 981 353 1791 
Q 353 2603 747 3093 
Q 1141 3584 1784 3584 
Q 2172 3584 2450 3431 
Q 2728 3278 2906 2969 
L 2906 3500 
L 3481 3500 
L 3481 434 
z
" transform="scale(0.015625)"/>
       <path id="DejaVuSans-6e" d="M 3513 2113 
L 3513 0 
L 2938 0 
L 2938 2094 
Q 2938 2591 2744 2837 
Q 2550 3084 2163 3084 
Q 1697 3084 1428 2787 
Q 1159 2491 1159 1978 
L 1159 0 
L 581 0 
L 581 3500 
L 1159 3500 
L 1159 2956 
Q 1366 3272 1645 3428 
Q 1925 3584 2291 3584 
Q 2894 3584 3203 3211 
Q 3513 2838 3513 2113 
z
" transform="scale(0.015625)"/>
       <path id="DejaVuSans-a0" transform="scale(0.015625)"/>
       <path id="DejaVuSans-6c" d="M 603 4863 
L 1178 4863 
L 1178 0 
L 603 0 
L 603 4863 
z
" transform="scale(0.015625)"/>
       <path id="DejaVuSans-63" d="M 3122 3366 
L 3122 2828 
Q 2878 2963 2633 3030 
Q 2388 3097 2138 3097 
Q 1578 3097 1268 2742 
Q 959 2388 959 1747 
Q 959 1106 1268 751 
Q 1578 397 2138 397 
Q 2388 397 2633 464 
Q 2878 531 3122 666 
L 3122 134 
Q 2881 22 2623 -34 
Q 2366 -91 2075 -91 
Q 1284 -91 818 406 
Q 353 903 353 1747 
Q 353 2603 823 3093 
Q 1294 3584 2113 3584 
Q 2378 3584 2631 3529 
Q 2884 3475 3122 3366 
z
" transform="scale(0.015625)"/>
       <path id="DejaVuSans-64" d="M 2906 2969 
L 2906 4863 
L 3481 4863 
L 3481 0 
L 2906 0 
L 2906 525 
Q 2725 213 2448 61 
Q 2172 -91 1784 -91 
Q 1150 -91 751 415 
Q 353 922 353 1747 
Q 353 2572 751 3078 
Q 1150 3584 1784 3584 
Q 2172 3584 2448 3432 
Q 2725 3281 2906 2969 
z
M 947 1747 
Q 947 1113 1208 752 
Q 1469 391 1925 391 
Q 2381 391 2643 752 
Q 2906 1113 2906 1747 
Q 2906 2381 2643 2742 
Q 2381 3103 1925 3103 
Q 1469 3103 1208 2742 
Q 947 2381 947 1747 
z
" transform="scale(0.015625)"/>
       <path id="DejaVuSans-6d" d="M 3328 2828 
Q 3544 3216 3844 3400 
Q 4144 3584 4550 3584 
Q 5097 3584 5394 3201 
Q 5691 2819 5691 2113 
L 5691 0 
L 5113 0 
L 5113 2094 
Q 5113 2597 4934 2840 
Q 4756 3084 4391 3084 
Q 3944 3084 3684 2787 
Q 3425 2491 3425 1978 
L 3425 0 
L 2847 0 
L 2847 2094 
Q 2847 2600 2669 2842 
Q 2491 3084 2119 3084 
Q 1678 3084 1418 2786 
Q 1159 2488 1159 1978 
L 1159 0 
L 581 0 
L 581 3500 
L 1159 3500 
L 1159 2956 
Q 1356 3278 1631 3431 
Q 1906 3584 2284 3584 
Q 2666 3584 2933 3390 
Q 3200 3197 3328 2828 
z
" transform="scale(0.015625)"/>
      </defs>
      <use xlink:href="#DejaVuSans-20"/>
      <use xlink:href="#DejaVuSans-54" transform="translate(31.787109 0)"/>
      <use xlink:href="#DejaVuSans-61" transform="translate(76.371094 0)"/>
      <use xlink:href="#DejaVuSans-72" transform="translate(137.650391 0)"/>
      <use xlink:href="#DejaVuSans-6a" transform="translate(178.763672 0)"/>
      <use xlink:href="#DejaVuSans-65" transform="translate(206.546875 0)"/>
      <use xlink:href="#DejaVuSans-74" transform="translate(268.070312 0)"/>
      <use xlink:href="#DejaVuSans-61" transform="translate(307.279297 0)"/>
      <use xlink:href="#DejaVuSans-73" transform="translate(368.558594 0)"/>
      <use xlink:href="#DejaVuSans-20" transform="translate(420.658203 0)"/>
      <use xlink:href="#DejaVuSans-76" transform="translate(452.445312 0)"/>
      <use xlink:href="#DejaVuSans-69" transform="translate(511.625 0)"/>
      <use xlink:href="#DejaVuSans-67" transform="translate(539.408203 0)"/>
      <use xlink:href="#DejaVuSans-65" transform="translate(602.884766 0)"/>
      <use xlink:href="#DejaVuSans-6e" transform="translate(664.408203 0)"/>
      <use xlink:href="#DejaVuSans-74" transform="translate(727.787109 0)"/>
      <use xlink:href="#DejaVuSans-65" transform="translate(766.996094 0)"/>
      <use xlink:href="#DejaVuSans-73" transform="translate(828.519531 0)"/>
      <use xlink:href="#DejaVuSans-a0" transform="translate(880.619141 0)"/>
      <use xlink:href="#DejaVuSans-61" transform="translate(912.40625 0)"/>
      <use xlink:href="#DejaVuSans-6c" transform="translate(973.685547 0)"/>
      <use xlink:href="#DejaVuSans-20" transform="translate(1001.46875 0)"/>
      <use xlink:href="#DejaVuSans-63" transform="translate(1033.255859 0)"/>
      <use xlink:href="#DejaVuSans-69" transform="translate(1088.236328 0)"/>
      <use xlink:href="#DejaVuSans-65" transform="translate(1116.019531 0)"/>
      <use xlink:href="#DejaVuSans-72" transform="translate(1177.542969 0)"/>
      <use xlink:href="#DejaVuSans-72" transform="translate(1216.90625 0)"/>
      <use xlink:href="#DejaVuSans-65" transform="translate(1255.769531 0)"/>
      <use xlink:href="#DejaVuSans-20" transform="translate(1317.292969 0)"/>
      <use xlink:href="#DejaVuSans-64" transform="translate(1349.080078 0)"/>
      <use xlink:href="#DejaVuSans-65" transform="translate(1412.556641 0)"/>
      <use xlink:href="#DejaVuSans-6c" transform="translate(1474.080078 0)"/>
      <use xlink:href="#DejaVuSans-20" transform="translate(1501.863281 0)"/>
      <use xlink:href="#DejaVuSans-74" transform="translate(1533.650391 0)"/>
      <use xlink:href="#DejaVuSans-72" transform="translate(1572.859375 0)"/>
      <use xlink:href="#DejaVuSans-69" transform="translate(1613.972656 0)"/>
      <use xlink:href="#DejaVuSans-6d" transform="translate(1641.755859 0)"/>
      <use xlink:href="#DejaVuSans-65" transform="translate(1739.167969 0)"/>
      <use xlink:href="#DejaVuSans-73" transform="translate(1800.691406 0)"/>
      <use xlink:href="#DejaVuSans-74" transform="translate(1852.791016 0)"/>
      <use xlink:href="#DejaVuSans-72" transform="translate(1892 0)"/>
      <use xlink:href="#DejaVuSans-65" transform="translate(1930.863281 0)"/>
      <use xlink:href="#DejaVuSans-20" transform="translate(1992.386719 0)"/>
     </g>
    </g>
    <g id="line2d_48">
     <path d="M 350.634375 74.06125 
L 358.634375 74.06125 
L 366.634375 74.06125 
" style="fill: none; stroke: #1f78b4; stroke-width: 1.5; stroke-linecap: square"/>
    </g>
    <g id="text_17">
     <!--   B -->
     <g transform="translate(373.034375 76.86125) scale(0.08 -0.08)">
      <defs>
       <path id="DejaVuSans-42" d="M 1259 2228 
L 1259 519 
L 2272 519 
Q 2781 519 3026 730 
Q 3272 941 3272 1375 
Q 3272 1813 3026 2020 
Q 2781 2228 2272 2228 
L 1259 2228 
z
M 1259 4147 
L 1259 2741 
L 2194 2741 
Q 2656 2741 2882 2914 
Q 3109 3088 3109 3444 
Q 3109 3797 2882 3972 
Q 2656 4147 2194 4147 
L 1259 4147 
z
M 628 4666 
L 2241 4666 
Q 2963 4666 3353 4366 
Q 3744 4066 3744 3513 
Q 3744 3084 3544 2831 
Q 3344 2578 2956 2516 
Q 3422 2416 3680 2098 
Q 3938 1781 3938 1306 
Q 3938 681 3513 340 
Q 3088 0 2303 0 
L 628 0 
L 628 4666 
z
" transform="scale(0.015625)"/>
      </defs>
      <use xlink:href="#DejaVuSans-20"/>
      <use xlink:href="#DejaVuSans-20" transform="translate(31.787109 0)"/>
      <use xlink:href="#DejaVuSans-42" transform="translate(63.574219 0)"/>
     </g>
    </g>
    <g id="line2d_49">
     <path d="M 350.634375 85.80375 
L 358.634375 85.80375 
L 366.634375 85.80375 
" style="fill: none; stroke: #b2df8a; stroke-width: 1.5; stroke-linecap: square"/>
    </g>
    <g id="text_18">
     <!--   C -->
     <g transform="translate(373.034375 88.60375) scale(0.08 -0.08)">
      <defs>
       <path id="DejaVuSans-43" d="M 4122 4306 
L 4122 3641 
Q 3803 3938 3442 4084 
Q 3081 4231 2675 4231 
Q 1875 4231 1450 3742 
Q 1025 3253 1025 2328 
Q 1025 1406 1450 917 
Q 1875 428 2675 428 
Q 3081 428 3442 575 
Q 3803 722 4122 1019 
L 4122 359 
Q 3791 134 3420 21 
Q 3050 -91 2638 -91 
Q 1578 -91 968 557 
Q 359 1206 359 2328 
Q 359 3453 968 4101 
Q 1578 4750 2638 4750 
Q 3056 4750 3426 4639 
Q 3797 4528 4122 4306 
z
" transform="scale(0.015625)"/>
      </defs>
      <use xlink:href="#DejaVuSans-20"/>
      <use xlink:href="#DejaVuSans-20" transform="translate(31.787109 0)"/>
      <use xlink:href="#DejaVuSans-43" transform="translate(63.574219 0)"/>
     </g>
    </g>
    <g id="line2d_50">
     <path d="M 350.634375 97.54625 
L 358.634375 97.54625 
L 366.634375 97.54625 
" style="fill: none; stroke: #33a02c; stroke-width: 1.5; stroke-linecap: square"/>
    </g>
    <g id="text_19">
     <!--   D -->
     <g transform="translate(373.034375 100.34625) scale(0.08 -0.08)">
      <defs>
       <path id="DejaVuSans-44" d="M 1259 4147 
L 1259 519 
L 2022 519 
Q 2988 519 3436 956 
Q 3884 1394 3884 2338 
Q 3884 3275 3436 3711 
Q 2988 4147 2022 4147 
L 1259 4147 
z
M 628 4666 
L 1925 4666 
Q 3281 4666 3915 4102 
Q 4550 3538 4550 2338 
Q 4550 1131 3912 565 
Q 3275 0 1925 0 
L 628 0 
L 628 4666 
z
" transform="scale(0.015625)"/>
      </defs>
      <use xlink:href="#DejaVuSans-20"/>
      <use xlink:href="#DejaVuSans-20" transform="translate(31.787109 0)"/>
      <use xlink:href="#DejaVuSans-44" transform="translate(63.574219 0)"/>
     </g>
    </g>
    <g id="line2d_51">
     <path d="M 350.634375 109.28875 
L 358.634375 109.28875 
L 366.634375 109.28875 
" style="fill: none; stroke: #fb9a99; stroke-width: 1.5; stroke-linecap: square"/>
    </g>
    <g id="text_20">
     <!--   E -->
     <g transform="translate(373.034375 112.08875) scale(0.08 -0.08)">
      <defs>
       <path id="DejaVuSans-45" d="M 628 4666 
L 3578 4666 
L 3578 4134 
L 1259 4134 
L 1259 2753 
L 3481 2753 
L 3481 2222 
L 1259 2222 
L 1259 531 
L 3634 531 
L 3634 0 
L 628 0 
L 628 4666 
z
" transform="scale(0.015625)"/>
      </defs>
      <use xlink:href="#DejaVuSans-20"/>
      <use xlink:href="#DejaVuSans-20" transform="translate(31.787109 0)"/>
      <use xlink:href="#DejaVuSans-45" transform="translate(63.574219 0)"/>
     </g>
    </g>
    <g id="line2d_52">
     <path d="M 350.634375 121.03125 
L 358.634375 121.03125 
L 366.634375 121.03125 
" style="fill: none; stroke: #e31a1c; stroke-width: 1.5; stroke-linecap: square"/>
    </g>
    <g id="text_21">
     <!--   F -->
     <g transform="translate(373.034375 123.83125) scale(0.08 -0.08)">
      <defs>
       <path id="DejaVuSans-46" d="M 628 4666 
L 3309 4666 
L 3309 4134 
L 1259 4134 
L 1259 2759 
L 3109 2759 
L 3109 2228 
L 1259 2228 
L 1259 0 
L 628 0 
L 628 4666 
z
" transform="scale(0.015625)"/>
      </defs>
      <use xlink:href="#DejaVuSans-20"/>
      <use xlink:href="#DejaVuSans-20" transform="translate(31.787109 0)"/>
      <use xlink:href="#DejaVuSans-46" transform="translate(63.574219 0)"/>
     </g>
    </g>
    <g id="line2d_53">
     <path d="M 350.634375 132.77375 
L 358.634375 132.77375 
L 366.634375 132.77375 
" style="fill: none; stroke: #fdbf6f; stroke-width: 1.5; stroke-linecap: square"/>
    </g>
    <g id="text_22">
     <!--   G -->
     <g transform="translate(373.034375 135.57375) scale(0.08 -0.08)">
      <defs>
       <path id="DejaVuSans-47" d="M 3809 666 
L 3809 1919 
L 2778 1919 
L 2778 2438 
L 4434 2438 
L 4434 434 
Q 4069 175 3628 42 
Q 3188 -91 2688 -91 
Q 1594 -91 976 548 
Q 359 1188 359 2328 
Q 359 3472 976 4111 
Q 1594 4750 2688 4750 
Q 3144 4750 3555 4637 
Q 3966 4525 4313 4306 
L 4313 3634 
Q 3963 3931 3569 4081 
Q 3175 4231 2741 4231 
Q 1884 4231 1454 3753 
Q 1025 3275 1025 2328 
Q 1025 1384 1454 906 
Q 1884 428 2741 428 
Q 3075 428 3337 486 
Q 3600 544 3809 666 
z
" transform="scale(0.015625)"/>
      </defs>
      <use xlink:href="#DejaVuSans-20"/>
      <use xlink:href="#DejaVuSans-20" transform="translate(31.787109 0)"/>
      <use xlink:href="#DejaVuSans-47" transform="translate(63.574219 0)"/>
     </g>
    </g>
    <g id="line2d_54">
     <path d="M 350.634375 144.51625 
L 358.634375 144.51625 
L 366.634375 144.51625 
" style="fill: none; stroke: #ff7f00; stroke-width: 1.5; stroke-linecap: square"/>
    </g>
    <g id="text_23">
     <!--   H -->
     <g transform="translate(373.034375 147.31625) scale(0.08 -0.08)">
      <defs>
       <path id="DejaVuSans-48" d="M 628 4666 
L 1259 4666 
L 1259 2753 
L 3553 2753 
L 3553 4666 
L 4184 4666 
L 4184 0 
L 3553 0 
L 3553 2222 
L 1259 2222 
L 1259 0 
L 628 0 
L 628 4666 
z
" transform="scale(0.015625)"/>
      </defs>
      <use xlink:href="#DejaVuSans-20"/>
      <use xlink:href="#DejaVuSans-20" transform="translate(31.787109 0)"/>
      <use xlink:href="#DejaVuSans-48" transform="translate(63.574219 0)"/>
     </g>
    </g>
    <g id="line2d_55">
     <path d="M 350.634375 156.25875 
L 358.634375 156.25875 
L 366.634375 156.25875 
" style="fill: none; stroke: #cab2d6; stroke-width: 1.5; stroke-linecap: square"/>
    </g>
    <g id="text_24">
     <!--   I -->
     <g transform="translate(373.034375 159.05875) scale(0.08 -0.08)">
      <defs>
       <path id="DejaVuSans-49" d="M 628 4666 
L 1259 4666 
L 1259 0 
L 628 0 
L 628 4666 
z
" transform="scale(0.015625)"/>
      </defs>
      <use xlink:href="#DejaVuSans-20"/>
      <use xlink:href="#DejaVuSans-20" transform="translate(31.787109 0)"/>
      <use xlink:href="#DejaVuSans-49" transform="translate(63.574219 0)"/>
     </g>
    </g>
    <g id="line2d_56">
     <path d="M 350.634375 168.00125 
L 358.634375 168.00125 
L 366.634375 168.00125 
" style="fill: none; stroke: #6a3d9a; stroke-width: 1.5; stroke-linecap: square"/>
    </g>
    <g id="text_25">
     <!--   J -->
     <g transform="translate(373.034375 170.80125) scale(0.08 -0.08)">
      <defs>
       <path id="DejaVuSans-4a" d="M 628 4666 
L 1259 4666 
L 1259 325 
Q 1259 -519 939 -900 
Q 619 -1281 -91 -1281 
L -331 -1281 
L -331 -750 
L -134 -750 
Q 284 -750 456 -515 
Q 628 -281 628 325 
L 628 4666 
z
" transform="scale(0.015625)"/>
      </defs>
      <use xlink:href="#DejaVuSans-20"/>
      <use xlink:href="#DejaVuSans-20" transform="translate(31.787109 0)"/>
      <use xlink:href="#DejaVuSans-4a" transform="translate(63.574219 0)"/>
     </g>
    </g>
    <g id="line2d_57">
     <path d="M 350.634375 179.74375 
L 358.634375 179.74375 
L 366.634375 179.74375 
" style="fill: none; stroke: #ffff99; stroke-width: 1.5; stroke-linecap: square"/>
    </g>
    <g id="text_26">
     <!--   K -->
     <g transform="translate(373.034375 182.54375) scale(0.08 -0.08)">
      <defs>
       <path id="DejaVuSans-4b" d="M 628 4666 
L 1259 4666 
L 1259 2694 
L 3353 4666 
L 4166 4666 
L 1850 2491 
L 4331 0 
L 3500 0 
L 1259 2247 
L 1259 0 
L 628 0 
L 628 4666 
z
" transform="scale(0.015625)"/>
      </defs>
      <use xlink:href="#DejaVuSans-20"/>
      <use xlink:href="#DejaVuSans-20" transform="translate(31.787109 0)"/>
      <use xlink:href="#DejaVuSans-4b" transform="translate(63.574219 0)"/>
     </g>
    </g>
    <g id="line2d_58">
     <path d="M 350.634375 191.48625 
L 358.634375 191.48625 
L 366.634375 191.48625 
" style="fill: none; stroke: #b15928; stroke-width: 1.5; stroke-linecap: square"/>
    </g>
    <g id="text_27">
     <!--   L -->
     <g transform="translate(373.034375 194.28625) scale(0.08 -0.08)">
      <defs>
       <path id="DejaVuSans-4c" d="M 628 4666 
L 1259 4666 
L 1259 531 
L 3531 531 
L 3531 0 
L 628 0 
L 628 4666 
z
" transform="scale(0.015625)"/>
      </defs>
      <use xlink:href="#DejaVuSans-20"/>
      <use xlink:href="#DejaVuSans-20" transform="translate(31.787109 0)"/>
      <use xlink:href="#DejaVuSans-4c" transform="translate(63.574219 0)"/>
     </g>
    </g>
    <g id="line2d_59">
     <path d="M 350.634375 203.22875 
L 358.634375 203.22875 
L 366.634375 203.22875 
" style="fill: none; stroke: #a6cee3; stroke-width: 1.5; stroke-linecap: square"/>
    </g>
    <g id="text_28">
     <!--   M -->
     <g transform="translate(373.034375 206.02875) scale(0.08 -0.08)">
      <defs>
       <path id="DejaVuSans-4d" d="M 628 4666 
L 1569 4666 
L 2759 1491 
L 3956 4666 
L 4897 4666 
L 4897 0 
L 4281 0 
L 4281 4097 
L 3078 897 
L 2444 897 
L 1241 4097 
L 1241 0 
L 628 0 
L 628 4666 
z
" transform="scale(0.015625)"/>
      </defs>
      <use xlink:href="#DejaVuSans-20"/>
      <use xlink:href="#DejaVuSans-20" transform="translate(31.787109 0)"/>
      <use xlink:href="#DejaVuSans-4d" transform="translate(63.574219 0)"/>
     </g>
    </g>
    <g id="line2d_60">
     <path d="M 350.634375 214.97125 
L 358.634375 214.97125 
L 366.634375 214.97125 
" style="fill: none; stroke: #1f78b4; stroke-width: 1.5; stroke-linecap: square"/>
    </g>
    <g id="text_29">
     <!--   N -->
     <g transform="translate(373.034375 217.77125) scale(0.08 -0.08)">
      <defs>
       <path id="DejaVuSans-4e" d="M 628 4666 
L 1478 4666 
L 3547 763 
L 3547 4666 
L 4159 4666 
L 4159 0 
L 3309 0 
L 1241 3903 
L 1241 0 
L 628 0 
L 628 4666 
z
" transform="scale(0.015625)"/>
      </defs>
      <use xlink:href="#DejaVuSans-20"/>
      <use xlink:href="#DejaVuSans-20" transform="translate(31.787109 0)"/>
      <use xlink:href="#DejaVuSans-4e" transform="translate(63.574219 0)"/>
     </g>
    </g>
    <g id="line2d_61">
     <path d="M 350.634375 226.71375 
L 358.634375 226.71375 
L 366.634375 226.71375 
" style="fill: none; stroke: #b2df8a; stroke-width: 1.5; stroke-linecap: square"/>
    </g>
    <g id="text_30">
     <!--   O -->
     <g transform="translate(373.034375 229.51375) scale(0.08 -0.08)">
      <defs>
       <path id="DejaVuSans-4f" d="M 2522 4238 
Q 1834 4238 1429 3725 
Q 1025 3213 1025 2328 
Q 1025 1447 1429 934 
Q 1834 422 2522 422 
Q 3209 422 3611 934 
Q 4013 1447 4013 2328 
Q 4013 3213 3611 3725 
Q 3209 4238 2522 4238 
z
M 2522 4750 
Q 3503 4750 4090 4092 
Q 4678 3434 4678 2328 
Q 4678 1225 4090 567 
Q 3503 -91 2522 -91 
Q 1538 -91 948 565 
Q 359 1222 359 2328 
Q 359 3434 948 4092 
Q 1538 4750 2522 4750 
z
" transform="scale(0.015625)"/>
      </defs>
      <use xlink:href="#DejaVuSans-20"/>
      <use xlink:href="#DejaVuSans-20" transform="translate(31.787109 0)"/>
      <use xlink:href="#DejaVuSans-4f" transform="translate(63.574219 0)"/>
     </g>
    </g>
    <g id="line2d_62">
     <path d="M 350.634375 238.45625 
L 358.634375 238.45625 
L 366.634375 238.45625 
" style="fill: none; stroke: #33a02c; stroke-width: 1.5; stroke-linecap: square"/>
    </g>
    <g id="text_31">
     <!--   Q -->
     <g transform="translate(373.034375 241.25625) scale(0.08 -0.08)">
      <defs>
       <path id="DejaVuSans-51" d="M 2522 4238 
Q 1834 4238 1429 3725 
Q 1025 3213 1025 2328 
Q 1025 1447 1429 934 
Q 1834 422 2522 422 
Q 3209 422 3611 934 
Q 4013 1447 4013 2328 
Q 4013 3213 3611 3725 
Q 3209 4238 2522 4238 
z
M 3406 84 
L 4238 -825 
L 3475 -825 
L 2784 -78 
Q 2681 -84 2626 -87 
Q 2572 -91 2522 -91 
Q 1538 -91 948 567 
Q 359 1225 359 2328 
Q 359 3434 948 4092 
Q 1538 4750 2522 4750 
Q 3503 4750 4090 4092 
Q 4678 3434 4678 2328 
Q 4678 1516 4351 937 
Q 4025 359 3406 84 
z
" transform="scale(0.015625)"/>
      </defs>
      <use xlink:href="#DejaVuSans-20"/>
      <use xlink:href="#DejaVuSans-20" transform="translate(31.787109 0)"/>
      <use xlink:href="#DejaVuSans-51" transform="translate(63.574219 0)"/>
     </g>
    </g>
    <g id="line2d_63">
     <path d="M 350.634375 250.19875 
L 358.634375 250.19875 
L 366.634375 250.19875 
" style="fill: none; stroke: #fb9a99; stroke-width: 1.5; stroke-linecap: square"/>
    </g>
    <g id="text_32">
     <!--   R -->
     <g transform="translate(373.034375 252.99875) scale(0.08 -0.08)">
      <defs>
       <path id="DejaVuSans-52" d="M 2841 2188 
Q 3044 2119 3236 1894 
Q 3428 1669 3622 1275 
L 4263 0 
L 3584 0 
L 2988 1197 
Q 2756 1666 2539 1819 
Q 2322 1972 1947 1972 
L 1259 1972 
L 1259 0 
L 628 0 
L 628 4666 
L 2053 4666 
Q 2853 4666 3247 4331 
Q 3641 3997 3641 3322 
Q 3641 2881 3436 2590 
Q 3231 2300 2841 2188 
z
M 1259 4147 
L 1259 2491 
L 2053 2491 
Q 2509 2491 2742 2702 
Q 2975 2913 2975 3322 
Q 2975 3731 2742 3939 
Q 2509 4147 2053 4147 
L 1259 4147 
z
" transform="scale(0.015625)"/>
      </defs>
      <use xlink:href="#DejaVuSans-20"/>
      <use xlink:href="#DejaVuSans-20" transform="translate(31.787109 0)"/>
      <use xlink:href="#DejaVuSans-52" transform="translate(63.574219 0)"/>
     </g>
    </g>
    <g id="line2d_64">
     <path d="M 350.634375 261.94125 
L 358.634375 261.94125 
L 366.634375 261.94125 
" style="fill: none; stroke: #e31a1c; stroke-width: 1.5; stroke-linecap: square"/>
    </g>
    <g id="text_33">
     <!--   S -->
     <g transform="translate(373.034375 264.74125) scale(0.08 -0.08)">
      <defs>
       <path id="DejaVuSans-53" d="M 3425 4513 
L 3425 3897 
Q 3066 4069 2747 4153 
Q 2428 4238 2131 4238 
Q 1616 4238 1336 4038 
Q 1056 3838 1056 3469 
Q 1056 3159 1242 3001 
Q 1428 2844 1947 2747 
L 2328 2669 
Q 3034 2534 3370 2195 
Q 3706 1856 3706 1288 
Q 3706 609 3251 259 
Q 2797 -91 1919 -91 
Q 1588 -91 1214 -16 
Q 841 59 441 206 
L 441 856 
Q 825 641 1194 531 
Q 1563 422 1919 422 
Q 2459 422 2753 634 
Q 3047 847 3047 1241 
Q 3047 1584 2836 1778 
Q 2625 1972 2144 2069 
L 1759 2144 
Q 1053 2284 737 2584 
Q 422 2884 422 3419 
Q 422 4038 858 4394 
Q 1294 4750 2059 4750 
Q 2388 4750 2728 4690 
Q 3069 4631 3425 4513 
z
" transform="scale(0.015625)"/>
      </defs>
      <use xlink:href="#DejaVuSans-20"/>
      <use xlink:href="#DejaVuSans-20" transform="translate(31.787109 0)"/>
      <use xlink:href="#DejaVuSans-53" transform="translate(63.574219 0)"/>
     </g>
    </g>
    <g id="line2d_65">
     <path d="M 350.634375 273.68375 
L 358.634375 273.68375 
L 366.634375 273.68375 
" style="fill: none; stroke: #fdbf6f; stroke-width: 1.5; stroke-linecap: square"/>
    </g>
    <g id="text_34">
     <!--   T -->
     <g transform="translate(373.034375 276.48375) scale(0.08 -0.08)">
      <use xlink:href="#DejaVuSans-20"/>
      <use xlink:href="#DejaVuSans-20" transform="translate(31.787109 0)"/>
      <use xlink:href="#DejaVuSans-54" transform="translate(63.574219 0)"/>
     </g>
    </g>
    <g id="line2d_66">
     <path d="M 350.634375 285.42625 
L 358.634375 285.42625 
L 366.634375 285.42625 
" style="fill: none; stroke: #ff7f00; stroke-width: 1.5; stroke-linecap: square"/>
    </g>
    <g id="text_35">
     <!--   U -->
     <g transform="translate(373.034375 288.22625) scale(0.08 -0.08)">
      <defs>
       <path id="DejaVuSans-55" d="M 556 4666 
L 1191 4666 
L 1191 1831 
Q 1191 1081 1462 751 
Q 1734 422 2344 422 
Q 2950 422 3222 751 
Q 3494 1081 3494 1831 
L 3494 4666 
L 4128 4666 
L 4128 1753 
Q 4128 841 3676 375 
Q 3225 -91 2344 -91 
Q 1459 -91 1007 375 
Q 556 841 556 1753 
L 556 4666 
z
" transform="scale(0.015625)"/>
      </defs>
      <use xlink:href="#DejaVuSans-20"/>
      <use xlink:href="#DejaVuSans-20" transform="translate(31.787109 0)"/>
      <use xlink:href="#DejaVuSans-55" transform="translate(63.574219 0)"/>
     </g>
    </g>
   </g>
  </g>
 </g>
 <defs>
  <clipPath id="p413f44eab0">
   <rect x="108" y="51.84" width="669.6" height="332.64"/>
  </clipPath>
 </defs>
</svg>
