<?xml version="1.0" encoding="utf-8" standalone="no"?>
<!DOCTYPE svg PUBLIC "-//W3C//DTD SVG 1.1//EN"
  "http://www.w3.org/Graphics/SVG/1.1/DTD/svg11.dtd">
<svg xmlns:xlink="http://www.w3.org/1999/xlink" width="864pt" height="432pt" viewBox="0 0 864 432" xmlns="http://www.w3.org/2000/svg" version="1.1">
 <metadata>
  <rdf:RDF xmlns:dc="http://purl.org/dc/elements/1.1/" xmlns:cc="http://creativecommons.org/ns#" xmlns:rdf="http://www.w3.org/1999/02/22-rdf-syntax-ns#">
   <cc:Work>
    <dc:type rdf:resource="http://purl.org/dc/dcmitype/StillImage"/>
    <dc:date>2025-02-23T06:33:32.919995</dc:date>
    <dc:format>image/svg+xml</dc:format>
    <dc:creator>
     <cc:Agent>
      <dc:title>Matplotlib v3.10.0, https://matplotlib.org/</dc:title>
     </cc:Agent>
    </dc:creator>
   </cc:Work>
  </rdf:RDF>
 </metadata>
 <defs>
  <style type="text/css">*{stroke-linejoin: round; stroke-linecap: butt}</style>
 </defs>
 <g id="figure_1">
  <g id="patch_1">
   <path d="M 0 432 
L 864 432 
L 864 0 
L 0 0 
z
" style="fill: #ffffff"/>
  </g>
  <g id="axes_1">
   <g id="patch_2">
    <path d="M 108 384.48 
L 777.6 384.48 
L 777.6 51.84 
L 108 51.84 
z
" style="fill: #ffffff"/>
   </g>
   <g id="matplotlib.axis_1">
    <g id="xtick_1">
     <g id="line2d_1">
      <path d="M 175.060537 384.48 
L 175.060537 51.84 
" clip-path="url(#pf71c723ace)" style="fill: none; stroke-dasharray: 2.96,1.28; stroke-dashoffset: 0; stroke: #b0b0b0; stroke-opacity: 0.5; stroke-width: 0.8"/>
     </g>
     <g id="line2d_2">
      <defs>
       <path id="m6868112b8a" d="M 0 0 
L 0 3.5 
" style="stroke: #000000; stroke-width: 0.8"/>
      </defs>
      <g>
       <use xlink:href="#m6868112b8a" x="175.060537" y="384.48" style="stroke: #000000; stroke-width: 0.8"/>
      </g>
     </g>
     <g id="text_1">
      <!-- 2012 -->
      <g transform="translate(162.335537 399.078438) scale(0.1 -0.1)">
       <defs>
        <path id="DejaVuSans-32" d="M 1228 531 
L 3431 531 
L 3431 0 
L 469 0 
L 469 531 
Q 828 903 1448 1529 
Q 2069 2156 2228 2338 
Q 2531 2678 2651 2914 
Q 2772 3150 2772 3378 
Q 2772 3750 2511 3984 
Q 2250 4219 1831 4219 
Q 1534 4219 1204 4116 
Q 875 4013 500 3803 
L 500 4441 
Q 881 4594 1212 4672 
Q 1544 4750 1819 4750 
Q 2544 4750 2975 4387 
Q 3406 4025 3406 3419 
Q 3406 3131 3298 2873 
Q 3191 2616 2906 2266 
Q 2828 2175 2409 1742 
Q 1991 1309 1228 531 
z
" transform="scale(0.015625)"/>
        <path id="DejaVuSans-30" d="M 2034 4250 
Q 1547 4250 1301 3770 
Q 1056 3291 1056 2328 
Q 1056 1369 1301 889 
Q 1547 409 2034 409 
Q 2525 409 2770 889 
Q 3016 1369 3016 2328 
Q 3016 3291 2770 3770 
Q 2525 4250 2034 4250 
z
M 2034 4750 
Q 2819 4750 3233 4129 
Q 3647 3509 3647 2328 
Q 3647 1150 3233 529 
Q 2819 -91 2034 -91 
Q 1250 -91 836 529 
Q 422 1150 422 2328 
Q 422 3509 836 4129 
Q 1250 4750 2034 4750 
z
" transform="scale(0.015625)"/>
        <path id="DejaVuSans-31" d="M 794 531 
L 1825 531 
L 1825 4091 
L 703 3866 
L 703 4441 
L 1819 4666 
L 2450 4666 
L 2450 531 
L 3481 531 
L 3481 0 
L 794 0 
L 794 531 
z
" transform="scale(0.015625)"/>
       </defs>
       <use xlink:href="#DejaVuSans-32"/>
       <use xlink:href="#DejaVuSans-30" transform="translate(63.623047 0)"/>
       <use xlink:href="#DejaVuSans-31" transform="translate(127.246094 0)"/>
       <use xlink:href="#DejaVuSans-32" transform="translate(190.869141 0)"/>
      </g>
     </g>
    </g>
    <g id="xtick_2">
     <g id="line2d_3">
      <path d="M 262.551618 384.48 
L 262.551618 51.84 
" clip-path="url(#pf71c723ace)" style="fill: none; stroke-dasharray: 2.96,1.28; stroke-dashoffset: 0; stroke: #b0b0b0; stroke-opacity: 0.5; stroke-width: 0.8"/>
     </g>
     <g id="line2d_4">
      <g>
       <use xlink:href="#m6868112b8a" x="262.551618" y="384.48" style="stroke: #000000; stroke-width: 0.8"/>
      </g>
     </g>
     <g id="text_2">
      <!-- 2014 -->
      <g transform="translate(249.826618 399.078438) scale(0.1 -0.1)">
       <defs>
        <path id="DejaVuSans-34" d="M 2419 4116 
L 825 1625 
L 2419 1625 
L 2419 4116 
z
M 2253 4666 
L 3047 4666 
L 3047 1625 
L 3713 1625 
L 3713 1100 
L 3047 1100 
L 3047 0 
L 2419 0 
L 2419 1100 
L 313 1100 
L 313 1709 
L 2253 4666 
z
" transform="scale(0.015625)"/>
       </defs>
       <use xlink:href="#DejaVuSans-32"/>
       <use xlink:href="#DejaVuSans-30" transform="translate(63.623047 0)"/>
       <use xlink:href="#DejaVuSans-31" transform="translate(127.246094 0)"/>
       <use xlink:href="#DejaVuSans-34" transform="translate(190.869141 0)"/>
      </g>
     </g>
    </g>
    <g id="xtick_3">
     <g id="line2d_5">
      <path d="M 349.923011 384.48 
L 349.923011 51.84 
" clip-path="url(#pf71c723ace)" style="fill: none; stroke-dasharray: 2.96,1.28; stroke-dashoffset: 0; stroke: #b0b0b0; stroke-opacity: 0.5; stroke-width: 0.8"/>
     </g>
     <g id="line2d_6">
      <g>
       <use xlink:href="#m6868112b8a" x="349.923011" y="384.48" style="stroke: #000000; stroke-width: 0.8"/>
      </g>
     </g>
     <g id="text_3">
      <!-- 2016 -->
      <g transform="translate(337.198011 399.078438) scale(0.1 -0.1)">
       <defs>
        <path id="DejaVuSans-36" d="M 2113 2584 
Q 1688 2584 1439 2293 
Q 1191 2003 1191 1497 
Q 1191 994 1439 701 
Q 1688 409 2113 409 
Q 2538 409 2786 701 
Q 3034 994 3034 1497 
Q 3034 2003 2786 2293 
Q 2538 2584 2113 2584 
z
M 3366 4563 
L 3366 3988 
Q 3128 4100 2886 4159 
Q 2644 4219 2406 4219 
Q 1781 4219 1451 3797 
Q 1122 3375 1075 2522 
Q 1259 2794 1537 2939 
Q 1816 3084 2150 3084 
Q 2853 3084 3261 2657 
Q 3669 2231 3669 1497 
Q 3669 778 3244 343 
Q 2819 -91 2113 -91 
Q 1303 -91 875 529 
Q 447 1150 447 2328 
Q 447 3434 972 4092 
Q 1497 4750 2381 4750 
Q 2619 4750 2861 4703 
Q 3103 4656 3366 4563 
z
" transform="scale(0.015625)"/>
       </defs>
       <use xlink:href="#DejaVuSans-32"/>
       <use xlink:href="#DejaVuSans-30" transform="translate(63.623047 0)"/>
       <use xlink:href="#DejaVuSans-31" transform="translate(127.246094 0)"/>
       <use xlink:href="#DejaVuSans-36" transform="translate(190.869141 0)"/>
      </g>
     </g>
    </g>
    <g id="xtick_4">
     <g id="line2d_7">
      <path d="M 437.414092 384.48 
L 437.414092 51.84 
" clip-path="url(#pf71c723ace)" style="fill: none; stroke-dasharray: 2.96,1.28; stroke-dashoffset: 0; stroke: #b0b0b0; stroke-opacity: 0.5; stroke-width: 0.8"/>
     </g>
     <g id="line2d_8">
      <g>
       <use xlink:href="#m6868112b8a" x="437.414092" y="384.48" style="stroke: #000000; stroke-width: 0.8"/>
      </g>
     </g>
     <g id="text_4">
      <!-- 2018 -->
      <g transform="translate(424.689092 399.078438) scale(0.1 -0.1)">
       <defs>
        <path id="DejaVuSans-38" d="M 2034 2216 
Q 1584 2216 1326 1975 
Q 1069 1734 1069 1313 
Q 1069 891 1326 650 
Q 1584 409 2034 409 
Q 2484 409 2743 651 
Q 3003 894 3003 1313 
Q 3003 1734 2745 1975 
Q 2488 2216 2034 2216 
z
M 1403 2484 
Q 997 2584 770 2862 
Q 544 3141 544 3541 
Q 544 4100 942 4425 
Q 1341 4750 2034 4750 
Q 2731 4750 3128 4425 
Q 3525 4100 3525 3541 
Q 3525 3141 3298 2862 
Q 3072 2584 2669 2484 
Q 3125 2378 3379 2068 
Q 3634 1759 3634 1313 
Q 3634 634 3220 271 
Q 2806 -91 2034 -91 
Q 1263 -91 848 271 
Q 434 634 434 1313 
Q 434 1759 690 2068 
Q 947 2378 1403 2484 
z
M 1172 3481 
Q 1172 3119 1398 2916 
Q 1625 2713 2034 2713 
Q 2441 2713 2670 2916 
Q 2900 3119 2900 3481 
Q 2900 3844 2670 4047 
Q 2441 4250 2034 4250 
Q 1625 4250 1398 4047 
Q 1172 3844 1172 3481 
z
" transform="scale(0.015625)"/>
       </defs>
       <use xlink:href="#DejaVuSans-32"/>
       <use xlink:href="#DejaVuSans-30" transform="translate(63.623047 0)"/>
       <use xlink:href="#DejaVuSans-31" transform="translate(127.246094 0)"/>
       <use xlink:href="#DejaVuSans-38" transform="translate(190.869141 0)"/>
      </g>
     </g>
    </g>
    <g id="xtick_5">
     <g id="line2d_9">
      <path d="M 524.785486 384.48 
L 524.785486 51.84 
" clip-path="url(#pf71c723ace)" style="fill: none; stroke-dasharray: 2.96,1.28; stroke-dashoffset: 0; stroke: #b0b0b0; stroke-opacity: 0.5; stroke-width: 0.8"/>
     </g>
     <g id="line2d_10">
      <g>
       <use xlink:href="#m6868112b8a" x="524.785486" y="384.48" style="stroke: #000000; stroke-width: 0.8"/>
      </g>
     </g>
     <g id="text_5">
      <!-- 2020 -->
      <g transform="translate(512.060486 399.078438) scale(0.1 -0.1)">
       <use xlink:href="#DejaVuSans-32"/>
       <use xlink:href="#DejaVuSans-30" transform="translate(63.623047 0)"/>
       <use xlink:href="#DejaVuSans-32" transform="translate(127.246094 0)"/>
       <use xlink:href="#DejaVuSans-30" transform="translate(190.869141 0)"/>
      </g>
     </g>
    </g>
    <g id="xtick_6">
     <g id="line2d_11">
      <path d="M 612.276567 384.48 
L 612.276567 51.84 
" clip-path="url(#pf71c723ace)" style="fill: none; stroke-dasharray: 2.96,1.28; stroke-dashoffset: 0; stroke: #b0b0b0; stroke-opacity: 0.5; stroke-width: 0.8"/>
     </g>
     <g id="line2d_12">
      <g>
       <use xlink:href="#m6868112b8a" x="612.276567" y="384.48" style="stroke: #000000; stroke-width: 0.8"/>
      </g>
     </g>
     <g id="text_6">
      <!-- 2022 -->
      <g transform="translate(599.551567 399.078438) scale(0.1 -0.1)">
       <use xlink:href="#DejaVuSans-32"/>
       <use xlink:href="#DejaVuSans-30" transform="translate(63.623047 0)"/>
       <use xlink:href="#DejaVuSans-32" transform="translate(127.246094 0)"/>
       <use xlink:href="#DejaVuSans-32" transform="translate(190.869141 0)"/>
      </g>
     </g>
    </g>
    <g id="xtick_7">
     <g id="line2d_13">
      <path d="M 699.647961 384.48 
L 699.647961 51.84 
" clip-path="url(#pf71c723ace)" style="fill: none; stroke-dasharray: 2.96,1.28; stroke-dashoffset: 0; stroke: #b0b0b0; stroke-opacity: 0.5; stroke-width: 0.8"/>
     </g>
     <g id="line2d_14">
      <g>
       <use xlink:href="#m6868112b8a" x="699.647961" y="384.48" style="stroke: #000000; stroke-width: 0.8"/>
      </g>
     </g>
     <g id="text_7">
      <!-- 2024 -->
      <g transform="translate(686.922961 399.078438) scale(0.1 -0.1)">
       <use xlink:href="#DejaVuSans-32"/>
       <use xlink:href="#DejaVuSans-30" transform="translate(63.623047 0)"/>
       <use xlink:href="#DejaVuSans-32" transform="translate(127.246094 0)"/>
       <use xlink:href="#DejaVuSans-34" transform="translate(190.869141 0)"/>
      </g>
     </g>
    </g>
   </g>
   <g id="matplotlib.axis_2">
    <g id="ytick_1">
     <g id="line2d_15">
      <path d="M 108 369.428987 
L 777.6 369.428987 
" clip-path="url(#pf71c723ace)" style="fill: none; stroke-dasharray: 2.96,1.28; stroke-dashoffset: 0; stroke: #b0b0b0; stroke-opacity: 0.5; stroke-width: 0.8"/>
     </g>
     <g id="line2d_16">
      <defs>
       <path id="m85b089fc17" d="M 0 0 
L -3.5 0 
" style="stroke: #000000; stroke-width: 0.8"/>
      </defs>
      <g>
       <use xlink:href="#m85b089fc17" x="108" y="369.428987" style="stroke: #000000; stroke-width: 0.8"/>
      </g>
     </g>
     <g id="text_8">
      <!-- 0 -->
      <g transform="translate(94.6375 373.228206) scale(0.1 -0.1)">
       <use xlink:href="#DejaVuSans-30"/>
      </g>
     </g>
    </g>
    <g id="ytick_2">
     <g id="line2d_17">
      <path d="M 108 318.24114 
L 777.6 318.24114 
" clip-path="url(#pf71c723ace)" style="fill: none; stroke-dasharray: 2.96,1.28; stroke-dashoffset: 0; stroke: #b0b0b0; stroke-opacity: 0.5; stroke-width: 0.8"/>
     </g>
     <g id="line2d_18">
      <g>
       <use xlink:href="#m85b089fc17" x="108" y="318.24114" style="stroke: #000000; stroke-width: 0.8"/>
      </g>
     </g>
     <g id="text_9">
      <!-- 2000 -->
      <g transform="translate(75.55 322.040359) scale(0.1 -0.1)">
       <use xlink:href="#DejaVuSans-32"/>
       <use xlink:href="#DejaVuSans-30" transform="translate(63.623047 0)"/>
       <use xlink:href="#DejaVuSans-30" transform="translate(127.246094 0)"/>
       <use xlink:href="#DejaVuSans-30" transform="translate(190.869141 0)"/>
      </g>
     </g>
    </g>
    <g id="ytick_3">
     <g id="line2d_19">
      <path d="M 108 267.053293 
L 777.6 267.053293 
" clip-path="url(#pf71c723ace)" style="fill: none; stroke-dasharray: 2.96,1.28; stroke-dashoffset: 0; stroke: #b0b0b0; stroke-opacity: 0.5; stroke-width: 0.8"/>
     </g>
     <g id="line2d_20">
      <g>
       <use xlink:href="#m85b089fc17" x="108" y="267.053293" style="stroke: #000000; stroke-width: 0.8"/>
      </g>
     </g>
     <g id="text_10">
      <!-- 4000 -->
      <g transform="translate(75.55 270.852512) scale(0.1 -0.1)">
       <use xlink:href="#DejaVuSans-34"/>
       <use xlink:href="#DejaVuSans-30" transform="translate(63.623047 0)"/>
       <use xlink:href="#DejaVuSans-30" transform="translate(127.246094 0)"/>
       <use xlink:href="#DejaVuSans-30" transform="translate(190.869141 0)"/>
      </g>
     </g>
    </g>
    <g id="ytick_4">
     <g id="line2d_21">
      <path d="M 108 215.865446 
L 777.6 215.865446 
" clip-path="url(#pf71c723ace)" style="fill: none; stroke-dasharray: 2.96,1.28; stroke-dashoffset: 0; stroke: #b0b0b0; stroke-opacity: 0.5; stroke-width: 0.8"/>
     </g>
     <g id="line2d_22">
      <g>
       <use xlink:href="#m85b089fc17" x="108" y="215.865446" style="stroke: #000000; stroke-width: 0.8"/>
      </g>
     </g>
     <g id="text_11">
      <!-- 6000 -->
      <g transform="translate(75.55 219.664665) scale(0.1 -0.1)">
       <use xlink:href="#DejaVuSans-36"/>
       <use xlink:href="#DejaVuSans-30" transform="translate(63.623047 0)"/>
       <use xlink:href="#DejaVuSans-30" transform="translate(127.246094 0)"/>
       <use xlink:href="#DejaVuSans-30" transform="translate(190.869141 0)"/>
      </g>
     </g>
    </g>
    <g id="ytick_5">
     <g id="line2d_23">
      <path d="M 108 164.6776 
L 777.6 164.6776 
" clip-path="url(#pf71c723ace)" style="fill: none; stroke-dasharray: 2.96,1.28; stroke-dashoffset: 0; stroke: #b0b0b0; stroke-opacity: 0.5; stroke-width: 0.8"/>
     </g>
     <g id="line2d_24">
      <g>
       <use xlink:href="#m85b089fc17" x="108" y="164.6776" style="stroke: #000000; stroke-width: 0.8"/>
      </g>
     </g>
     <g id="text_12">
      <!-- 8000 -->
      <g transform="translate(75.55 168.476818) scale(0.1 -0.1)">
       <use xlink:href="#DejaVuSans-38"/>
       <use xlink:href="#DejaVuSans-30" transform="translate(63.623047 0)"/>
       <use xlink:href="#DejaVuSans-30" transform="translate(127.246094 0)"/>
       <use xlink:href="#DejaVuSans-30" transform="translate(190.869141 0)"/>
      </g>
     </g>
    </g>
    <g id="ytick_6">
     <g id="line2d_25">
      <path d="M 108 113.489753 
L 777.6 113.489753 
" clip-path="url(#pf71c723ace)" style="fill: none; stroke-dasharray: 2.96,1.28; stroke-dashoffset: 0; stroke: #b0b0b0; stroke-opacity: 0.5; stroke-width: 0.8"/>
     </g>
     <g id="line2d_26">
      <g>
       <use xlink:href="#m85b089fc17" x="108" y="113.489753" style="stroke: #000000; stroke-width: 0.8"/>
      </g>
     </g>
     <g id="text_13">
      <!-- 10000 -->
      <g transform="translate(69.1875 117.288972) scale(0.1 -0.1)">
       <use xlink:href="#DejaVuSans-31"/>
       <use xlink:href="#DejaVuSans-30" transform="translate(63.623047 0)"/>
       <use xlink:href="#DejaVuSans-30" transform="translate(127.246094 0)"/>
       <use xlink:href="#DejaVuSans-30" transform="translate(190.869141 0)"/>
       <use xlink:href="#DejaVuSans-30" transform="translate(254.492188 0)"/>
      </g>
     </g>
    </g>
    <g id="ytick_7">
     <g id="line2d_27">
      <path d="M 108 62.301906 
L 777.6 62.301906 
" clip-path="url(#pf71c723ace)" style="fill: none; stroke-dasharray: 2.96,1.28; stroke-dashoffset: 0; stroke: #b0b0b0; stroke-opacity: 0.5; stroke-width: 0.8"/>
     </g>
     <g id="line2d_28">
      <g>
       <use xlink:href="#m85b089fc17" x="108" y="62.301906" style="stroke: #000000; stroke-width: 0.8"/>
      </g>
     </g>
     <g id="text_14">
      <!-- 12000 -->
      <g transform="translate(69.1875 66.101125) scale(0.1 -0.1)">
       <use xlink:href="#DejaVuSans-31"/>
       <use xlink:href="#DejaVuSans-32" transform="translate(63.623047 0)"/>
       <use xlink:href="#DejaVuSans-30" transform="translate(127.246094 0)"/>
       <use xlink:href="#DejaVuSans-30" transform="translate(190.869141 0)"/>
       <use xlink:href="#DejaVuSans-30" transform="translate(254.492188 0)"/>
      </g>
     </g>
    </g>
   </g>
   <g id="line2d_29">
    <path d="M 138.436364 368.840327 
L 142.146656 368.737951 
L 149.447553 368.865921 
L 153.038158 368.737951 
L 156.74845 368.814733 
L 160.458742 368.712357 
L 167.75964 368.840327 
L 171.350245 368.712357 
L 178.770829 368.865921 
L 182.241747 368.712357 
L 189.542645 368.865921 
L 193.252937 368.737951 
L 200.553834 368.865921 
L 211.565023 368.712357 
L 218.865921 368.865921 
L 222.576213 368.737951 
L 240.529239 368.814733 
L 244.239531 368.712357 
L 251.540428 368.840327 
L 255.25072 368.737951 
L 258.841326 368.814733 
L 262.551618 368.712357 
L 266.26191 368.840327 
L 280.624331 368.814733 
L 284.214936 368.840327 
L 287.925228 368.737951 
L 295.226125 368.865921 
L 306.237315 368.737951 
L 309.947607 368.840327 
L 324.310028 368.814733 
L 331.610925 368.814733 
L 335.321217 368.840327 
L 338.911822 368.712357 
L 342.622114 368.840327 
L 375.416309 368.814733 
L 379.126601 368.712357 
L 386.427498 368.840327 
L 390.018103 368.712357 
L 397.438687 368.865921 
L 408.090816 368.840327 
L 411.801108 368.712357 
L 419.102006 368.840327 
L 422.812298 368.737951 
L 426.402903 368.814733 
L 430.113195 368.686763 
L 437.414092 368.840327 
L 441.124384 368.712357 
L 466.497994 368.814733 
L 688.636771 368.814733 
L 692.347063 368.686763 
L 699.647961 368.840327 
L 703.358253 368.712357 
L 710.539463 368.814733 
L 714.130068 368.712357 
L 721.430966 368.814733 
L 725.141258 368.712357 
L 732.442155 368.865921 
L 736.152447 368.737951 
L 739.743052 368.814733 
L 743.453344 368.712357 
L 747.163636 368.840327 
L 747.163636 368.840327 
" clip-path="url(#pf71c723ace)" style="fill: none; stroke: #a6cee3; stroke-width: 1.5; stroke-linecap: square"/>
   </g>
   <g id="line2d_30">
    <path d="M 138.436364 369.173738 
L 747.163636 369.174614 
L 747.163636 369.174614 
" clip-path="url(#pf71c723ace)" style="fill: none; stroke: #1f78b4; stroke-width: 1.5; stroke-linecap: square"/>
   </g>
   <g id="line2d_31">
    <path d="M 138.436364 369.173738 
L 747.163636 369.174614 
L 747.163636 369.174614 
" clip-path="url(#pf71c723ace)" style="fill: none; stroke: #b2df8a; stroke-width: 1.5; stroke-linecap: square"/>
   </g>
   <g id="line2d_32">
    <path d="M 138.436364 369.320689 
L 287.925228 369.356659 
L 386.427498 369.306196 
L 415.391713 369.25005 
L 659.672556 369.152467 
L 728.85155 369.156962 
L 747.163636 369.182245 
L 747.163636 369.182245 
" clip-path="url(#pf71c723ace)" style="fill: none; stroke: #33a02c; stroke-width: 1.5; stroke-linecap: square"/>
   </g>
   <g id="line2d_33">
    <path d="M 138.436364 367.227909 
L 142.146656 367.125534 
L 149.447553 367.253503 
L 153.038158 367.125534 
L 156.74845 367.202315 
L 160.458742 367.09994 
L 167.75964 367.227909 
L 171.350245 367.09994 
L 178.770829 367.253503 
L 182.241747 367.09994 
L 189.542645 367.253503 
L 193.252937 367.125534 
L 200.553834 367.253503 
L 211.565023 367.09994 
L 218.865921 367.279097 
L 222.576213 367.125534 
L 262.551618 367.09994 
L 266.26191 367.253503 
L 276.914039 367.125534 
L 284.214936 367.227909 
L 287.925228 367.125534 
L 295.226125 367.279097 
L 306.237315 367.151128 
L 313.298838 367.202315 
L 317.00913 367.074346 
L 320.599735 367.202315 
L 426.402903 367.202315 
L 430.113195 367.074346 
L 437.414092 367.253503 
L 441.124384 367.09994 
L 448.185908 367.202315 
L 451.776513 367.253503 
L 455.486805 367.125534 
L 462.787702 367.253503 
L 473.798892 367.09994 
L 481.099789 367.253503 
L 484.810081 367.125534 
L 531.966696 367.202315 
L 539.267594 367.202315 
L 688.636771 367.202315 
L 692.347063 367.074346 
L 699.647961 367.253503 
L 703.358253 367.09994 
L 721.430966 367.202315 
L 725.141258 367.09994 
L 732.442155 367.253503 
L 736.152447 367.125534 
L 739.743052 367.202315 
L 743.453344 367.09994 
L 747.163636 367.253503 
L 747.163636 367.253503 
" clip-path="url(#pf71c723ace)" style="fill: none; stroke: #fb9a99; stroke-width: 1.5; stroke-linecap: square"/>
   </g>
   <g id="line2d_34">
    <path d="M 138.436364 369.175628 
L 747.163636 369.178696 
L 747.163636 369.178696 
" clip-path="url(#pf71c723ace)" style="fill: none; stroke: #e31a1c; stroke-width: 1.5; stroke-linecap: square"/>
   </g>
   <g id="line2d_35">
    <path d="M 138.436364 369.175628 
L 747.163636 369.178696 
L 747.163636 369.178696 
" clip-path="url(#pf71c723ace)" style="fill: none; stroke: #fdbf6f; stroke-width: 1.5; stroke-linecap: square"/>
   </g>
   <g id="line2d_36">
    <path d="M 138.436364 369.319881 
L 225.927444 369.324271 
L 349.923011 369.34555 
L 747.163636 369.184356 
L 747.163636 369.184356 
" clip-path="url(#pf71c723ace)" style="fill: none; stroke: #ff7f00; stroke-width: 1.5; stroke-linecap: square"/>
   </g>
   <g id="line2d_37">
    <path d="M 138.436364 364.898862 
L 149.447553 365.103614 
L 153.038158 364.796487 
L 167.75964 365.07802 
L 171.350245 364.770893 
L 178.770829 364.924456 
L 189.542645 365.103614 
L 193.252937 364.796487 
L 207.854731 365.052426 
L 211.565023 364.770893 
L 222.576213 364.975644 
L 229.637736 365.052426 
L 233.228342 364.770893 
L 240.529239 364.873268 
L 251.540428 365.07802 
L 255.25072 364.822081 
L 273.323433 365.07802 
L 276.914039 364.796487 
L 295.226125 365.103614 
L 298.936417 364.873268 
L 306.237315 364.975644 
L 309.947607 365.07802 
L 313.298838 365.052426 
L 317.00913 364.745299 
L 320.599735 364.873268 
L 327.900633 364.924456 
L 335.321217 365.07802 
L 338.911822 364.770893 
L 342.622114 364.898862 
L 346.212719 364.898862 
L 349.923011 365.052426 
L 357.104222 365.07802 
L 360.814514 364.796487 
L 375.416309 365.052426 
L 379.126601 364.770893 
L 386.427498 364.898862 
L 400.789919 365.103614 
L 404.500211 364.873268 
L 419.102006 365.07802 
L 422.812298 364.796487 
L 430.113195 364.924456 
L 437.414092 365.07802 
L 441.124384 364.770893 
L 448.185908 364.873268 
L 462.787702 365.103614 
L 466.497994 364.873268 
L 473.798892 364.95005 
L 481.099789 365.103614 
L 484.810081 364.796487 
L 491.871605 364.873268 
L 502.763107 365.052426 
L 506.473399 364.770893 
L 517.484589 364.975644 
L 521.075194 365.052426 
L 524.785486 364.770893 
L 528.495778 364.898862 
L 535.676989 364.924456 
L 539.267594 365.052426 
L 546.568491 365.103614 
L 550.278783 364.873268 
L 557.57968 364.95005 
L 561.289972 365.07802 
L 564.880578 365.07802 
L 568.59087 364.873268 
L 586.663583 365.07802 
L 590.254188 364.770893 
L 601.265377 364.975644 
L 608.566275 365.103614 
L 612.276567 364.873268 
L 630.34928 365.103614 
L 633.939885 364.796487 
L 648.661366 365.07802 
L 652.251972 364.770893 
L 659.672556 364.924456 
L 663.023787 364.924456 
L 670.324685 365.07802 
L 674.034977 364.770893 
L 685.046166 364.975644 
L 688.636771 365.052426 
L 692.347063 364.745299 
L 710.539463 365.052426 
L 714.130068 364.770893 
L 721.430966 364.873268 
L 732.442155 365.103614 
L 736.152447 364.822081 
L 747.163636 365.07802 
L 747.163636 365.07802 
" clip-path="url(#pf71c723ace)" style="fill: none; stroke: #cab2d6; stroke-width: 1.5; stroke-linecap: square"/>
   </g>
   <g id="line2d_38">
    <path d="M 138.436364 369.178584 
L 747.163636 369.18406 
L 747.163636 369.18406 
" clip-path="url(#pf71c723ace)" style="fill: none; stroke: #6a3d9a; stroke-width: 1.5; stroke-linecap: square"/>
   </g>
   <g id="line2d_39">
    <path d="M 138.436364 369.178584 
L 747.163636 369.18406 
L 747.163636 369.18406 
" clip-path="url(#pf71c723ace)" style="fill: none; stroke: #ffff99; stroke-width: 1.5; stroke-linecap: square"/>
   </g>
   <g id="line2d_40">
    <path d="M 138.436364 369.313884 
L 269.613141 369.339481 
L 393.728395 369.267964 
L 481.099789 369.211701 
L 608.566275 369.280266 
L 681.335874 369.138496 
L 739.743052 369.171256 
L 747.163636 369.185308 
L 747.163636 369.185308 
" clip-path="url(#pf71c723ace)" style="fill: none; stroke: #b15928; stroke-width: 1.5; stroke-linecap: square"/>
   </g>
   <g id="line2d_41">
    <path d="M 138.436364 361.315713 
L 142.146656 360.675865 
L 145.737261 361.469277 
L 153.038158 360.138393 
L 156.74845 360.931804 
L 160.458742 360.291956 
L 167.75964 360.419926 
L 171.350245 361.187743 
L 175.060537 360.573489 
L 178.770829 361.341307 
L 182.241747 360.650271 
L 185.952039 361.469277 
L 193.252937 360.138393 
L 196.843542 360.573489 
L 200.553834 360.266362 
L 204.264126 361.110962 
L 207.854731 360.394332 
L 211.565023 361.187743 
L 215.155629 360.573489 
L 218.865921 361.341307 
L 222.576213 360.675865 
L 225.927444 361.392495 
L 233.228342 360.138393 
L 236.938634 360.957398 
L 240.529239 360.215174 
L 244.239531 361.008586 
L 247.949823 360.394332 
L 251.540428 361.136556 
L 255.25072 360.496708 
L 258.841326 361.290119 
L 262.551618 360.650271 
L 266.26191 361.494871 
L 269.613141 360.752647 
L 273.323433 361.494871 
L 280.624331 360.215174 
L 284.214936 360.957398 
L 287.925228 360.31755 
L 291.63552 361.110962 
L 295.226125 360.44552 
L 298.936417 360.931804 
L 302.527022 360.573489 
L 309.947607 360.778241 
L 313.298838 360.752647 
L 317.00913 360.087205 
L 320.599735 360.215174 
L 327.900633 360.266362 
L 331.610925 361.110962 
L 335.321217 360.419926 
L 338.911822 361.187743 
L 342.622114 360.599083 
L 346.212719 361.315713 
L 349.923011 360.752647 
L 353.633304 361.494871 
L 357.104222 360.778241 
L 360.814514 360.138393 
L 364.405119 360.931804 
L 368.115411 360.266362 
L 371.706017 361.03418 
L 375.416309 360.394332 
L 379.126601 361.187743 
L 382.717206 360.573489 
L 386.427498 361.315713 
L 390.018103 360.650271 
L 393.728395 360.931804 
L 397.438687 360.803835 
L 400.789919 360.803835 
L 404.500211 360.931804 
L 408.090816 360.240768 
L 415.391713 360.394332 
L 419.102006 361.136556 
L 422.812298 360.496708 
L 426.402903 361.290119 
L 430.113195 360.624677 
L 433.7038 361.392495 
L 441.124384 360.112799 
L 444.475616 360.829429 
L 448.185908 360.215174 
L 451.776513 360.982992 
L 455.486805 360.31755 
L 459.07741 361.110962 
L 462.787702 360.44552 
L 466.497994 361.290119 
L 470.0886 360.573489 
L 473.798892 361.366901 
L 477.389497 360.752647 
L 481.099789 361.520465 
L 484.810081 360.855022 
L 488.161313 360.138393 
L 491.871605 360.931804 
L 495.46221 360.291956 
L 499.172502 361.110962 
L 502.763107 360.394332 
L 506.473399 361.187743 
L 510.183691 360.573489 
L 513.774297 361.315713 
L 517.484589 360.675865 
L 521.075194 361.469277 
L 528.495778 360.240768 
L 531.966696 360.931804 
L 535.676989 360.266362 
L 539.267594 361.110962 
L 542.977886 360.394332 
L 546.568491 361.16215 
L 550.278783 360.215174 
L 557.57968 360.291956 
L 561.289972 360.419926 
L 564.880578 360.419926 
L 568.59087 360.573489 
L 586.663583 360.778241 
L 590.254188 360.112799 
L 601.265377 360.31755 
L 626.638988 360.778241 
L 630.34928 360.803835 
L 633.939885 360.138393 
L 659.672556 360.624677 
L 663.023787 360.624677 
L 670.324685 360.778241 
L 674.034977 360.112799 
L 685.046166 360.31755 
L 710.539463 360.752647 
L 714.130068 360.138393 
L 747.163636 360.778241 
L 747.163636 360.778241 
" clip-path="url(#pf71c723ace)" style="fill: none; stroke: #a6cee3; stroke-width: 1.5; stroke-linecap: square"/>
   </g>
   <g id="line2d_42">
    <path d="M 138.436364 369.183234 
L 528.495778 369.189479 
L 717.84036 369.199211 
L 747.163636 369.194007 
L 747.163636 369.194007 
" clip-path="url(#pf71c723ace)" style="fill: none; stroke: #1f78b4; stroke-width: 1.5; stroke-linecap: square"/>
   </g>
   <g id="line2d_43">
    <path d="M 138.436364 369.183234 
L 528.495778 369.189479 
L 717.84036 369.199211 
L 747.163636 369.194007 
L 747.163636 369.194007 
" clip-path="url(#pf71c723ace)" style="fill: none; stroke: #b2df8a; stroke-width: 1.5; stroke-linecap: square"/>
   </g>
   <g id="line2d_44">
    <path d="M 138.436364 369.308507 
L 229.637736 369.324537 
L 291.63552 369.351959 
L 513.774297 369.24504 
L 619.33809 369.238312 
L 655.962264 369.1487 
L 743.453344 369.171512 
L 747.163636 369.185845 
L 747.163636 369.185845 
" clip-path="url(#pf71c723ace)" style="fill: none; stroke: #33a02c; stroke-width: 1.5; stroke-linecap: square"/>
   </g>
   <g id="line2d_45">
    <path d="M 138.436364 329.246527 
L 153.038158 332.368986 
L 156.74845 323.846209 
L 196.843542 332.445768 
L 200.553834 323.897397 
L 207.854731 325.458626 
L 247.949823 334.058185 
L 251.540428 325.48422 
L 298.936417 335.670602 
L 302.527022 322.438543 
L 320.599735 326.380008 
L 327.900633 327.864455 
L 331.610925 314.709179 
L 338.911822 316.21922 
L 349.923011 318.650643 
L 360.814514 320.902908 
L 375.416309 324.025367 
L 393.728395 327.966831 
L 397.438687 319.41846 
L 448.185908 330.295878 
L 451.776513 317.089413 
L 462.787702 319.41846 
L 470.0886 320.97969 
L 488.161313 324.844372 
L 491.871605 318.650643 
L 510.183691 322.592107 
L 524.785486 325.714566 
L 531.966696 327.250201 
L 546.568491 330.347066 
L 553.989075 331.933889 
L 557.57968 318.727425 
L 568.59087 321.158847 
L 575.652393 322.592107 
L 579.362685 323.487894 
L 590.254188 325.714566 
L 604.975669 328.862618 
L 619.33809 331.933889 
L 623.048382 323.564676 
L 630.34928 324.972342 
L 681.335874 335.875353 
L 685.046166 318.036389 
L 699.647961 321.184441 
L 714.130068 324.281306 
L 728.85155 327.429359 
L 747.163636 331.396417 
L 747.163636 331.396417 
" clip-path="url(#pf71c723ace)" style="fill: none; stroke: #fb9a99; stroke-width: 1.5; stroke-linecap: square"/>
   </g>
   <g id="line2d_46">
    <path d="M 138.436364 366.937895 
L 153.038158 366.8697 
L 167.75964 366.744023 
L 193.252937 366.747231 
L 196.843542 366.73199 
L 204.264126 366.867568 
L 327.900633 366.895135 
L 331.610925 366.747398 
L 360.814514 366.737601 
L 382.717206 366.799614 
L 411.801108 366.947939 
L 419.102006 366.898343 
L 499.172502 366.858025 
L 510.183691 366.748041 
L 553.989075 366.577169 
L 557.57968 366.806984 
L 564.880578 366.785773 
L 575.652393 366.787059 
L 582.953291 366.889572 
L 619.33809 367.052876 
L 626.638988 367.233621 
L 641.360469 367.214158 
L 648.661366 367.258159 
L 659.672556 367.167601 
L 663.023787 367.246073 
L 670.324685 367.169211 
L 681.335874 367.167805 
L 685.046166 366.975574 
L 692.347063 367.041637 
L 699.647961 366.942272 
L 714.130068 367.00476 
L 728.85155 366.983919 
L 732.442155 366.935331 
L 739.743052 366.979712 
L 747.163636 366.964056 
L 747.163636 366.964056 
" clip-path="url(#pf71c723ace)" style="fill: none; stroke: #e31a1c; stroke-width: 1.5; stroke-linecap: square"/>
   </g>
   <g id="line2d_47">
    <path d="M 138.436364 366.908889 
L 156.74845 366.79679 
L 160.458742 366.694378 
L 167.75964 366.685814 
L 196.843542 366.727102 
L 204.264126 366.841263 
L 244.239531 366.839271 
L 269.613141 366.874587 
L 302.527022 366.803014 
L 306.237315 366.884517 
L 313.298838 366.857692 
L 327.900633 366.890513 
L 331.610925 366.726141 
L 386.427498 366.762919 
L 397.438687 366.923329 
L 433.7038 366.850912 
L 437.414092 366.959015 
L 448.185908 366.889532 
L 451.776513 366.719523 
L 481.099789 366.907524 
L 491.871605 366.843766 
L 502.763107 366.729856 
L 553.989075 366.478774 
L 557.57968 366.7984 
L 564.880578 366.752252 
L 575.652393 366.716746 
L 579.362685 366.874093 
L 597.674772 366.87633 
L 604.975669 366.999235 
L 619.33809 366.982155 
L 623.048382 367.178992 
L 633.939885 367.177634 
L 637.650177 367.102347 
L 652.251972 367.163436 
L 681.335874 367.111108 
L 685.046166 366.869217 
L 688.636771 367.031368 
L 714.130068 366.970919 
L 747.163636 366.872203 
L 747.163636 366.872203 
" clip-path="url(#pf71c723ace)" style="fill: none; stroke: #fdbf6f; stroke-width: 1.5; stroke-linecap: square"/>
   </g>
   <g id="line2d_48">
    <path d="M 138.436364 369.275423 
L 747.163636 369.211438 
L 747.163636 369.211438 
" clip-path="url(#pf71c723ace)" style="fill: none; stroke: #ff7f00; stroke-width: 1.5; stroke-linecap: square"/>
   </g>
   <g id="line2d_49">
    <path d="M 138.436364 273.349398 
L 178.770829 281.974551 
L 182.241747 273.400586 
L 196.843542 276.548639 
L 211.565023 279.671097 
L 218.865921 281.257921 
L 229.637736 283.53578 
L 233.228342 270.354909 
L 247.949823 273.502962 
L 262.551618 276.625421 
L 266.26191 268.153832 
L 287.925228 272.70955 
L 338.911822 283.612562 
L 342.622114 272.811926 
L 346.212719 273.528556 
L 349.923011 274.398749 
L 360.814514 276.651014 
L 375.416309 279.773473 
L 408.090816 286.786208 
L 411.801108 275.908791 
L 419.102006 277.47002 
L 481.099789 290.753266 
L 484.810081 272.888708 
L 561.289972 289.294413 
L 564.880578 271.378666 
L 568.59087 272.24886 
L 575.652393 273.682119 
L 579.362685 274.577907 
L 590.254188 276.804578 
L 604.975669 279.952631 
L 652.251972 290.06223 
L 655.962264 272.24886 
L 674.034977 276.087948 
L 681.335874 277.649177 
L 747.163636 291.802617 
L 747.163636 291.802617 
" clip-path="url(#pf71c723ace)" style="fill: none; stroke: #cab2d6; stroke-width: 1.5; stroke-linecap: square"/>
   </g>
   <g id="line2d_50">
    <path d="M 138.436364 367.075764 
L 145.737261 367.001565 
L 160.458742 366.786722 
L 164.049348 366.913049 
L 171.350245 366.83313 
L 175.060537 366.867493 
L 178.770829 366.767079 
L 185.952039 366.825645 
L 211.565023 366.681036 
L 229.637736 366.5731 
L 233.228342 366.116526 
L 236.938634 366.356017 
L 251.540428 366.494648 
L 262.551618 366.563534 
L 266.26191 366.218696 
L 273.323433 366.111499 
L 317.00913 366.084262 
L 327.900633 366.158642 
L 338.911822 366.151954 
L 342.622114 366.953817 
L 386.427498 366.985457 
L 390.018103 367.137781 
L 400.789919 367.142179 
L 408.090816 367.09316 
L 411.801108 366.831612 
L 419.102006 366.754437 
L 433.7038 366.825877 
L 444.475616 366.887315 
L 451.776513 366.874859 
L 462.787702 366.913988 
L 481.099789 367.036002 
L 488.161313 366.824665 
L 531.966696 366.528238 
L 535.676989 366.623767 
L 546.568491 366.372523 
L 572.301162 366.429658 
L 579.362685 366.692082 
L 623.048382 366.963197 
L 626.638988 367.083752 
L 637.650177 366.975887 
L 648.661366 367.174321 
L 652.251972 367.058405 
L 655.962264 367.132627 
L 659.672556 367.067521 
L 663.023787 367.179586 
L 670.324685 367.088135 
L 685.046166 367.166607 
L 692.347063 367.272778 
L 699.647961 367.119603 
L 714.130068 367.210365 
L 725.141258 367.217475 
L 739.743052 367.225124 
L 747.163636 367.209973 
L 747.163636 367.209973 
" clip-path="url(#pf71c723ace)" style="fill: none; stroke: #6a3d9a; stroke-width: 1.5; stroke-linecap: square"/>
   </g>
   <g id="line2d_51">
    <path d="M 138.436364 367.04434 
L 145.737261 366.94149 
L 149.447553 366.860697 
L 153.038158 366.956159 
L 160.458742 366.754374 
L 164.049348 366.865913 
L 171.350245 366.75873 
L 175.060537 366.86241 
L 178.770829 366.748132 
L 185.952039 366.778509 
L 207.854731 366.592034 
L 218.865921 366.657462 
L 225.927444 366.557598 
L 229.637736 366.525965 
L 233.228342 366.040882 
L 240.529239 366.408828 
L 247.949823 366.525835 
L 255.25072 366.420359 
L 262.551618 366.555571 
L 266.26191 366.185282 
L 273.323433 366.038272 
L 291.63552 365.962695 
L 295.226125 366.032439 
L 302.527022 365.926173 
L 306.237315 366.050262 
L 309.947607 365.920828 
L 317.00913 366.010324 
L 338.911822 366.077305 
L 342.622114 366.934604 
L 379.126601 366.819655 
L 393.728395 367.112412 
L 408.090816 367.073946 
L 411.801108 366.742033 
L 433.7038 366.735765 
L 437.414092 366.86997 
L 459.07741 366.889966 
L 473.798892 366.987495 
L 481.099789 367.025338 
L 488.161313 366.77753 
L 517.484589 366.474303 
L 524.785486 366.55271 
L 531.966696 366.478685 
L 535.676989 366.556085 
L 542.977886 366.348739 
L 575.652393 366.510248 
L 579.362685 366.628168 
L 597.674772 366.685311 
L 604.975669 366.764537 
L 608.566275 366.730487 
L 612.276567 366.845386 
L 623.048382 366.900936 
L 626.638988 367.00441 
L 630.34928 366.92288 
L 633.939885 367.037009 
L 637.650177 366.946686 
L 648.661366 367.094429 
L 652.251972 366.961984 
L 655.962264 367.119297 
L 659.672556 367.038195 
L 663.023787 367.13533 
L 670.324685 367.01082 
L 681.335874 367.06842 
L 692.347063 367.19493 
L 695.937668 367.060122 
L 706.829171 367.088194 
L 747.163636 367.177448 
L 747.163636 367.177448 
" clip-path="url(#pf71c723ace)" style="fill: none; stroke: #ffff99; stroke-width: 1.5; stroke-linecap: square"/>
   </g>
   <g id="line2d_52">
    <path d="M 138.436364 369.262626 
L 747.163636 369.237032 
L 747.163636 369.237032 
" clip-path="url(#pf71c723ace)" style="fill: none; stroke: #b15928; stroke-width: 1.5; stroke-linecap: square"/>
   </g>
   <g id="line2d_53">
    <path d="M 138.436364 198.819893 
L 160.458742 203.529175 
L 164.049348 185.715805 
L 171.350245 187.225846 
L 189.542645 191.141716 
L 200.553834 193.470763 
L 207.854731 195.031993 
L 273.323433 209.031869 
L 276.914039 177.218622 
L 397.438687 202.966109 
L 400.789919 185.050363 
L 408.090816 186.637186 
L 422.812298 189.759645 
L 437.414092 192.907697 
L 441.124384 175.043139 
L 623.048382 213.945902 
L 626.638988 177.474561 
L 641.360469 180.59702 
L 648.661366 182.158249 
L 747.163636 203.29883 
L 747.163636 203.29883 
" clip-path="url(#pf71c723ace)" style="fill: none; stroke: #a6cee3; stroke-width: 1.5; stroke-linecap: square"/>
   </g>
   <g id="line2d_54">
    <path d="M 138.436364 366.801923 
L 142.146656 366.807667 
L 149.447553 366.609224 
L 153.038158 366.669199 
L 160.458742 366.445716 
L 164.049348 366.86956 
L 171.350245 366.777413 
L 175.060537 366.800003 
L 178.770829 366.652726 
L 182.241747 366.744968 
L 193.252937 366.69573 
L 200.553834 366.377189 
L 211.565023 366.475923 
L 225.927444 366.298394 
L 229.637736 366.260313 
L 233.228342 366.04619 
L 236.938634 366.448655 
L 247.949823 366.730839 
L 255.25072 366.676631 
L 258.841326 366.789742 
L 262.551618 366.733112 
L 266.26191 366.80414 
L 273.323433 366.651608 
L 280.624331 366.569878 
L 284.214936 366.49559 
L 298.936417 366.572944 
L 313.298838 366.425537 
L 342.622114 366.569008 
L 375.416309 366.494791 
L 382.717206 366.523406 
L 397.438687 366.907712 
L 400.789919 366.313463 
L 404.500211 366.204592 
L 411.801108 366.212582 
L 419.102006 366.108182 
L 433.7038 366.220423 
L 437.414092 366.284973 
L 441.124384 366.68035 
L 470.0886 366.771139 
L 477.389497 367.102038 
L 481.099789 366.944781 
L 499.172502 366.83807 
L 502.763107 366.672219 
L 506.473399 366.698658 
L 513.774297 366.547995 
L 517.484589 366.490444 
L 521.075194 366.570384 
L 531.966696 366.445275 
L 535.676989 366.702402 
L 550.278783 366.355025 
L 561.289972 366.494532 
L 568.59087 366.256512 
L 575.652393 366.440508 
L 579.362685 366.633091 
L 593.96448 366.628662 
L 597.674772 366.612614 
L 604.975669 366.743283 
L 615.986859 366.744801 
L 623.048382 366.8334 
L 626.638988 367.225322 
L 630.34928 367.135361 
L 633.939885 367.161132 
L 637.650177 367.066695 
L 648.661366 367.361566 
L 652.251972 367.178152 
L 747.163636 367.412279 
L 747.163636 367.412279 
" clip-path="url(#pf71c723ace)" style="fill: none; stroke: #1f78b4; stroke-width: 1.5; stroke-linecap: square"/>
   </g>
   <g id="line2d_55">
    <path d="M 138.436364 366.760831 
L 142.146656 366.747842 
L 149.447553 366.512536 
L 153.038158 366.664365 
L 160.458742 366.403415 
L 164.049348 366.81336 
L 171.350245 366.688705 
L 175.060537 366.793942 
L 178.770829 366.630136 
L 182.241747 366.7064 
L 196.843542 366.494208 
L 200.553834 366.354598 
L 211.565023 366.402643 
L 229.637736 366.204113 
L 233.228342 365.97291 
L 236.938634 366.357743 
L 240.529239 366.549783 
L 247.949823 366.690067 
L 255.25072 366.6028 
L 262.551618 366.725399 
L 266.26191 366.778244 
L 273.323433 366.594857 
L 306.237315 366.491985 
L 309.947607 366.296645 
L 317.00913 366.397518 
L 342.622114 366.492973 
L 346.212719 366.478165 
L 349.923011 366.593045 
L 379.126601 366.416752 
L 386.427498 366.558245 
L 393.728395 366.879517 
L 397.438687 366.881265 
L 400.789919 366.259432 
L 404.500211 366.127099 
L 433.7038 366.100274 
L 437.414092 366.271465 
L 441.124384 366.65074 
L 470.0886 366.70527 
L 477.389497 366.998099 
L 495.46221 366.782779 
L 531.966696 366.395723 
L 535.676989 366.63472 
L 546.568491 366.32967 
L 572.301162 366.271129 
L 582.953291 366.571416 
L 586.663583 366.470735 
L 590.254188 366.6185 
L 601.265377 366.640392 
L 623.048382 366.765114 
L 626.638988 367.145981 
L 630.34928 367.03949 
L 633.939885 367.14901 
L 637.650177 367.037493 
L 648.661366 367.281674 
L 652.251972 367.08173 
L 655.962264 367.172247 
L 659.672556 367.077556 
L 663.023787 367.175492 
L 674.034977 367.085248 
L 692.347063 367.287063 
L 695.937668 367.133152 
L 710.539463 367.205773 
L 728.85155 367.314852 
L 732.442155 367.235044 
L 736.152447 367.355623 
L 739.743052 367.29933 
L 743.453344 367.434649 
L 747.163636 367.378669 
L 747.163636 367.378669 
" clip-path="url(#pf71c723ace)" style="fill: none; stroke: #b2df8a; stroke-width: 1.5; stroke-linecap: square"/>
   </g>
   <g id="line2d_56">
    <path d="M 138.436364 369.211438 
L 747.163636 369.230634 
L 747.163636 369.230634 
" clip-path="url(#pf71c723ace)" style="fill: none; stroke: #33a02c; stroke-width: 1.5; stroke-linecap: square"/>
   </g>
   <g id="line2d_57">
    <path d="M 138.436364 110.316106 
L 185.952039 120.502488 
L 189.542645 84.005553 
L 200.553834 86.3346 
L 207.854731 87.895829 
L 400.789919 129.153234 
L 404.500211 83.416893 
L 422.812298 87.281575 
L 437.414092 90.429628 
L 455.486805 94.268716 
L 470.0886 97.391175 
L 641.360469 134.016079 
L 644.951074 81.267003 
L 652.251972 82.777045 
L 670.324685 86.667321 
L 685.046166 89.78978 
L 699.647961 92.937832 
L 714.130068 96.034697 
L 728.85155 99.18275 
L 747.163636 103.149808 
L 747.163636 103.149808 
" clip-path="url(#pf71c723ace)" style="fill: none; stroke: #fb9a99; stroke-width: 1.5; stroke-linecap: square"/>
   </g>
   <g id="line2d_58">
    <path d="M 138.436364 366.853717 
L 142.146656 366.881218 
L 149.447553 366.666865 
L 153.038158 366.745778 
L 160.458742 366.5375 
L 164.049348 366.704809 
L 167.75964 366.599717 
L 175.060537 366.654578 
L 178.770829 366.519151 
L 182.241747 366.607014 
L 185.952039 366.572331 
L 189.542645 366.7367 
L 193.252937 366.779573 
L 196.843542 366.535717 
L 200.553834 366.4082 
L 211.565023 366.497007 
L 229.637736 366.198187 
L 233.228342 365.938815 
L 236.938634 366.463609 
L 247.949823 366.81593 
L 251.540428 366.715069 
L 255.25072 366.731926 
L 258.841326 366.87284 
L 262.551618 366.800629 
L 266.26191 366.886871 
L 269.613141 366.745264 
L 291.63552 366.493477 
L 295.226125 366.604937 
L 306.237315 366.472997 
L 309.947607 366.292902 
L 317.00913 366.433299 
L 327.900633 366.608068 
L 331.610925 366.515947 
L 349.923011 366.604356 
L 368.115411 366.598334 
L 371.706017 366.433635 
L 382.717206 366.475413 
L 397.438687 366.934082 
L 400.789919 366.901296 
L 404.500211 366.717162 
L 415.391713 366.670287 
L 426.402903 366.632012 
L 430.113195 366.742985 
L 441.124384 366.816889 
L 470.0886 366.906972 
L 477.389497 367.258104 
L 481.099789 367.096125 
L 499.172502 366.988602 
L 502.763107 366.806919 
L 506.473399 366.835265 
L 513.774297 366.672624 
L 517.484589 366.611412 
L 521.075194 366.688656 
L 531.966696 366.55253 
L 535.676989 366.85688 
L 550.278783 366.531885 
L 561.289972 366.660649 
L 568.59087 366.407113 
L 575.652393 366.579852 
L 579.362685 366.821492 
L 593.96448 366.765761 
L 597.674772 366.741873 
L 604.975669 366.864333 
L 615.986859 366.884825 
L 626.638988 367.187032 
L 630.34928 367.089185 
L 633.939885 367.112915 
L 637.650177 367.004038 
L 648.661366 367.34285 
L 652.251972 367.121549 
L 674.034977 367.147324 
L 681.335874 367.120276 
L 692.347063 367.355063 
L 699.647961 367.169842 
L 714.130068 367.314825 
L 728.85155 367.36624 
L 732.442155 367.296133 
L 736.152447 367.449833 
L 747.163636 367.413897 
L 747.163636 367.413897 
" clip-path="url(#pf71c723ace)" style="fill: none; stroke: #e31a1c; stroke-width: 1.5; stroke-linecap: square"/>
   </g>
   <g id="line2d_59">
    <path d="M 138.436364 366.812624 
L 142.146656 366.821392 
L 149.447553 366.570177 
L 153.038158 366.740943 
L 160.458742 366.495199 
L 164.049348 366.64317 
L 167.75964 366.520554 
L 171.350245 366.51567 
L 175.060537 366.64793 
L 178.770829 366.494375 
L 182.241747 366.564713 
L 185.952039 366.510692 
L 189.542645 366.663971 
L 193.252937 366.690314 
L 200.553834 366.38561 
L 211.565023 366.423727 
L 215.155629 366.367688 
L 218.865921 366.430968 
L 225.927444 366.212594 
L 229.637736 366.141987 
L 233.228342 365.865535 
L 236.938634 366.372698 
L 240.529239 366.600519 
L 247.949823 366.775158 
L 251.540428 366.658318 
L 255.25072 366.658095 
L 258.841326 366.781928 
L 269.613141 366.704491 
L 284.214936 366.536482 
L 287.925228 366.555143 
L 291.63552 366.452704 
L 295.226125 366.547636 
L 317.00913 366.375997 
L 327.900633 366.600905 
L 331.610925 366.490602 
L 357.104222 366.556543 
L 364.405119 366.404664 
L 368.115411 366.506321 
L 375.416309 366.416403 
L 382.717206 366.415356 
L 397.438687 366.907635 
L 426.402903 366.570017 
L 430.113195 366.663928 
L 433.7038 366.637797 
L 437.414092 366.781773 
L 470.0886 366.844978 
L 477.389497 367.160278 
L 491.871605 366.934956 
L 499.172502 366.890776 
L 513.774297 366.610061 
L 517.484589 366.531218 
L 524.785486 366.598185 
L 531.966696 366.505893 
L 535.676989 366.79318 
L 546.568491 366.510925 
L 575.652393 366.533783 
L 579.362685 366.755517 
L 608.566275 366.756691 
L 612.276567 366.891397 
L 619.33809 366.923458 
L 623.048382 366.928818 
L 626.638988 367.105131 
L 630.34928 366.990222 
L 633.939885 367.100403 
L 637.650177 366.973894 
L 648.661366 367.312137 
L 652.251972 367.073774 
L 685.046166 367.133988 
L 688.636771 367.324571 
L 692.347063 367.323782 
L 699.647961 367.103297 
L 706.829171 367.103584 
L 714.130068 367.282975 
L 743.453344 367.411989 
L 747.163636 367.327447 
L 747.163636 367.327447 
" clip-path="url(#pf71c723ace)" style="fill: none; stroke: #fdbf6f; stroke-width: 1.5; stroke-linecap: square"/>
   </g>
   <g id="line2d_60">
    <path d="M 138.436364 369.211438 
L 747.163636 369.224235 
L 747.163636 369.224235 
" clip-path="url(#pf71c723ace)" style="fill: none; stroke: #ff7f00; stroke-width: 1.5; stroke-linecap: square"/>
   </g>
   <g id="line2d_61">
    <path d="M 138.436364 91.68373 
L 280.624331 122.114905 
L 284.214936 66.96 
L 506.473399 114.487916 
L 510.183691 78.042169 
L 524.785486 81.164627 
L 531.966696 82.700263 
L 546.568491 85.797128 
L 553.989075 87.383951 
L 728.85155 124.802267 
L 732.442155 88.305332 
L 743.453344 90.659973 
L 747.163636 91.504573 
L 747.163636 91.504573 
" clip-path="url(#pf71c723ace)" style="fill: none; stroke: #cab2d6; stroke-width: 1.5; stroke-linecap: square"/>
   </g>
   <g id="line2d_62">
    <path d="M 138.436364 358.136294 
L 142.146656 358.286497 
L 145.737261 357.367838 
L 149.447553 357.061494 
L 153.038158 357.676872 
L 156.74845 356.596451 
L 160.458742 356.716852 
L 164.049348 357.474765 
L 167.75964 356.882641 
L 171.350245 356.965251 
L 175.060537 356.81397 
L 178.770829 356.180772 
L 182.241747 356.498029 
L 185.952039 356.554746 
L 189.542645 356.264027 
L 193.252937 356.288198 
L 196.843542 354.678009 
L 200.553834 353.543783 
L 204.264126 354.017344 
L 207.854731 353.469434 
L 211.565023 353.662129 
L 215.155629 353.614604 
L 218.865921 353.324273 
L 222.576213 352.891562 
L 225.927444 352.848024 
L 229.637736 352.257942 
L 233.228342 350.758754 
L 236.938634 354.197183 
L 240.529239 355.101154 
L 247.949823 356.262418 
L 251.540428 355.430579 
L 258.841326 356.34908 
L 262.551618 356.109036 
L 266.26191 356.415665 
L 269.613141 355.737565 
L 273.323433 355.643564 
L 276.914039 355.318125 
L 280.624331 354.620385 
L 284.214936 354.48999 
L 287.925228 354.497196 
L 291.63552 354.133266 
L 295.226125 354.887162 
L 298.936417 354.821591 
L 302.527022 354.560687 
L 306.237315 353.918733 
L 309.947607 353.500484 
L 313.298838 354.061758 
L 320.599735 354.868389 
L 324.310028 354.716139 
L 327.900633 354.932359 
L 331.610925 354.666369 
L 338.911822 355.030201 
L 342.622114 354.914275 
L 346.212719 354.972449 
L 349.923011 355.548404 
L 360.814514 354.80851 
L 364.405119 354.501215 
L 368.115411 355.200777 
L 371.706017 353.904125 
L 375.416309 353.367662 
L 379.126601 353.502613 
L 382.717206 353.454766 
L 386.427498 354.45933 
L 390.018103 354.790519 
L 397.438687 354.737956 
L 400.789919 354.45483 
L 404.500211 353.862231 
L 411.801108 353.860929 
L 419.102006 353.53241 
L 426.402903 353.376731 
L 430.113195 353.82319 
L 433.7038 353.589986 
L 441.124384 353.439187 
L 444.475616 353.771325 
L 455.486805 353.738675 
L 459.07741 353.522797 
L 462.787702 353.067403 
L 466.497994 353.285093 
L 470.0886 353.360771 
L 473.798892 354.303007 
L 477.389497 355.04096 
L 481.099789 353.772254 
L 484.810081 354.120379 
L 488.161313 354.163264 
L 495.46221 353.313645 
L 499.172502 353.218876 
L 502.763107 352.149808 
L 506.473399 352.248292 
L 510.183691 351.73961 
L 513.774297 351.454025 
L 517.484589 351.021232 
L 521.075194 351.3384 
L 524.785486 351.153443 
L 528.495778 350.697292 
L 531.966696 350.480561 
L 535.676989 352.035832 
L 539.267594 352.199684 
L 542.977886 350.411672 
L 546.568491 349.928758 
L 550.278783 349.643477 
L 553.989075 349.594476 
L 557.57968 349.845138 
L 561.289972 350.490654 
L 564.880578 349.434075 
L 568.59087 348.737187 
L 572.301162 347.324205 
L 575.652393 348.999853 
L 579.362685 350.150468 
L 582.953291 350.760952 
L 586.663583 350.466724 
L 590.254188 350.300813 
L 593.96448 349.664257 
L 597.674772 349.589388 
L 601.265377 349.793701 
L 604.975669 349.50832 
L 608.566275 349.691605 
L 612.276567 349.434526 
L 615.986859 350.585673 
L 619.33809 350.83543 
L 623.048382 350.305287 
L 626.638988 350.870732 
L 630.34928 350.605308 
L 633.939885 350.589135 
L 637.650177 350.351991 
L 641.360469 350.895374 
L 644.951074 351.567244 
L 648.661366 352.10965 
L 652.251972 350.508956 
L 655.962264 350.58697 
L 659.672556 349.99082 
L 663.023787 350.626662 
L 666.734079 350.272319 
L 670.324685 351.321898 
L 677.625582 350.800846 
L 681.335874 350.819499 
L 688.636771 352.05656 
L 692.347063 352.120825 
L 695.937668 350.727168 
L 699.647961 349.998024 
L 703.358253 350.088384 
L 706.829171 350.510525 
L 710.539463 351.322829 
L 714.130068 351.974755 
L 717.84036 351.910803 
L 721.430966 351.706642 
L 725.141258 351.924149 
L 728.85155 351.920983 
L 732.442155 351.333521 
L 736.152447 352.252873 
L 739.743052 352.819094 
L 743.453344 352.871422 
L 747.163636 352.470225 
L 747.163636 352.470225 
" clip-path="url(#pf71c723ace)" style="fill: none; stroke: #6a3d9a; stroke-width: 1.5; stroke-linecap: square"/>
   </g>
   <g id="line2d_63">
    <path d="M 138.436364 358.047902 
L 142.146656 358.1573 
L 145.737261 357.198118 
L 149.447553 356.853162 
L 153.038158 357.666511 
L 156.74845 356.545792 
L 160.458742 356.625602 
L 164.049348 357.341582 
L 167.75964 356.710857 
L 175.060537 356.799286 
L 178.770829 356.125571 
L 182.241747 356.403293 
L 185.952039 356.416673 
L 189.542645 356.085532 
L 193.252937 356.069774 
L 196.843542 354.663173 
L 200.553834 353.488181 
L 204.264126 353.916602 
L 207.854731 353.330023 
L 211.565023 353.479456 
L 218.865921 353.306246 
L 222.576213 352.831754 
L 225.927444 352.748719 
L 229.637736 352.11456 
L 233.228342 350.570744 
L 236.938634 353.96449 
L 240.529239 355.085664 
L 247.949823 356.15818 
L 251.540428 355.285007 
L 258.841326 356.113197 
L 262.551618 356.088886 
L 266.26191 356.34738 
L 269.613141 355.629596 
L 273.323433 355.492844 
L 276.914039 355.121924 
L 280.624331 354.3796 
L 284.214936 354.472479 
L 287.925228 354.434341 
L 291.63552 354.024759 
L 295.226125 354.73397 
L 298.936417 354.618801 
L 306.237315 353.89624 
L 309.947607 353.429859 
L 313.298838 353.950512 
L 320.599735 354.661554 
L 324.310028 354.468014 
L 327.900633 354.91285 
L 331.610925 354.597225 
L 338.911822 354.871621 
L 342.622114 354.70492 
L 346.212719 354.71931 
L 349.923011 355.520841 
L 357.104222 355.031891 
L 364.405119 354.288998 
L 368.115411 354.943352 
L 371.706017 353.881025 
L 375.416309 353.296721 
L 379.126601 353.383565 
L 382.717206 353.285502 
L 386.427498 354.24367 
L 393.728395 354.778575 
L 397.438687 354.661225 
L 400.789919 354.331889 
L 404.500211 353.684714 
L 415.391713 353.633771 
L 426.402903 353.196292 
L 430.113195 353.592447 
L 433.7038 353.306892 
L 437.414092 353.500781 
L 441.124384 353.355953 
L 444.475616 353.639865 
L 455.486805 353.450086 
L 459.07741 353.492013 
L 462.787702 352.984934 
L 466.497994 353.145152 
L 470.0886 353.171443 
L 473.798892 354.058833 
L 477.389497 354.738912 
L 481.099789 353.736815 
L 484.810081 354.031539 
L 488.161313 354.024622 
L 495.46221 353.063738 
L 499.172502 352.912244 
L 502.763107 352.11777 
L 506.473399 352.160846 
L 510.183691 351.594797 
L 513.774297 351.257198 
L 517.484589 350.767918 
L 521.075194 351.027224 
L 524.785486 351.113392 
L 528.495778 350.596495 
L 531.966696 350.329887 
L 535.676989 351.828818 
L 539.267594 351.934749 
L 542.977886 350.095488 
L 546.568491 349.892101 
L 550.278783 349.545502 
L 553.989075 349.44229 
L 557.57968 349.63651 
L 561.289972 350.219551 
L 564.880578 349.109269 
L 568.59087 348.690186 
L 572.301162 347.222101 
L 575.652393 348.845429 
L 579.362685 349.927474 
L 582.953291 350.482802 
L 586.663583 350.131645 
L 590.254188 350.260013 
L 593.96448 349.560676 
L 597.674772 349.426506 
L 601.265377 349.571192 
L 604.975669 349.22279 
L 612.276567 349.383981 
L 615.986859 350.476251 
L 619.33809 350.668034 
L 623.048382 350.072477 
L 626.638988 350.57127 
L 630.34928 350.242618 
L 633.939885 350.543064 
L 637.650177 350.240025 
L 641.360469 350.716761 
L 644.951074 351.318671 
L 648.661366 351.797426 
L 652.251972 350.129794 
L 655.962264 350.532579 
L 659.672556 349.870573 
L 663.023787 350.443933 
L 666.734079 350.015772 
L 670.324685 351.001009 
L 674.034977 350.698676 
L 681.335874 350.699861 
L 688.636771 351.796806 
L 692.347063 351.792677 
L 695.937668 350.329534 
L 699.647961 349.938972 
L 703.358253 349.959981 
L 706.829171 350.314528 
L 710.539463 351.055033 
L 714.130068 351.634831 
L 717.84036 351.496142 
L 725.141258 351.79343 
L 728.85155 351.714499 
L 732.442155 351.056743 
L 736.152447 351.904972 
L 743.453344 352.804972 
L 747.163636 352.324909 
L 747.163636 352.324909 
" clip-path="url(#pf71c723ace)" style="fill: none; stroke: #ffff99; stroke-width: 1.5; stroke-linecap: square"/>
   </g>
   <g id="line2d_64">
    <path d="M 138.436364 369.326611 
L 747.163636 369.326611 
L 747.163636 369.326611 
" clip-path="url(#pf71c723ace)" style="fill: none; stroke: #b15928; stroke-width: 1.5; stroke-linecap: square"/>
   </g>
   <g id="patch_3">
    <path d="M 108 384.48 
L 108 51.84 
" style="fill: none; stroke: #000000; stroke-width: 0.8; stroke-linejoin: miter; stroke-linecap: square"/>
   </g>
   <g id="patch_4">
    <path d="M 777.6 384.48 
L 777.6 51.84 
" style="fill: none; stroke: #000000; stroke-width: 0.8; stroke-linejoin: miter; stroke-linecap: square"/>
   </g>
   <g id="patch_5">
    <path d="M 108 384.48 
L 777.6 384.48 
" style="fill: none; stroke: #000000; stroke-width: 0.8; stroke-linejoin: miter; stroke-linecap: square"/>
   </g>
   <g id="patch_6">
    <path d="M 108 51.84 
L 777.6 51.84 
" style="fill: none; stroke: #000000; stroke-width: 0.8; stroke-linejoin: miter; stroke-linecap: square"/>
   </g>
   <g id="text_15">
    <!-- Precio de Ttulos Gubernamentales -->
    <g transform="translate(304.108125 45.84) scale(0.14 -0.14)">
     <defs>
      <path id="DejaVuSans-Bold-50" d="M 588 4666 
L 2584 4666 
Q 3475 4666 3951 4270 
Q 4428 3875 4428 3144 
Q 4428 2409 3951 2014 
Q 3475 1619 2584 1619 
L 1791 1619 
L 1791 0 
L 588 0 
L 588 4666 
z
M 1791 3794 
L 1791 2491 
L 2456 2491 
Q 2806 2491 2997 2661 
Q 3188 2831 3188 3144 
Q 3188 3456 2997 3625 
Q 2806 3794 2456 3794 
L 1791 3794 
z
" transform="scale(0.015625)"/>
      <path id="DejaVuSans-Bold-72" d="M 3138 2547 
Q 2991 2616 2845 2648 
Q 2700 2681 2553 2681 
Q 2122 2681 1889 2404 
Q 1656 2128 1656 1613 
L 1656 0 
L 538 0 
L 538 3500 
L 1656 3500 
L 1656 2925 
Q 1872 3269 2151 3426 
Q 2431 3584 2822 3584 
Q 2878 3584 2943 3579 
Q 3009 3575 3134 3559 
L 3138 2547 
z
" transform="scale(0.015625)"/>
      <path id="DejaVuSans-Bold-65" d="M 4031 1759 
L 4031 1441 
L 1416 1441 
Q 1456 1047 1700 850 
Q 1944 653 2381 653 
Q 2734 653 3104 758 
Q 3475 863 3866 1075 
L 3866 213 
Q 3469 63 3072 -14 
Q 2675 -91 2278 -91 
Q 1328 -91 801 392 
Q 275 875 275 1747 
Q 275 2603 792 3093 
Q 1309 3584 2216 3584 
Q 3041 3584 3536 3087 
Q 4031 2591 4031 1759 
z
M 2881 2131 
Q 2881 2450 2695 2645 
Q 2509 2841 2209 2841 
Q 1884 2841 1681 2658 
Q 1478 2475 1428 2131 
L 2881 2131 
z
" transform="scale(0.015625)"/>
      <path id="DejaVuSans-Bold-63" d="M 3366 3391 
L 3366 2478 
Q 3138 2634 2908 2709 
Q 2678 2784 2431 2784 
Q 1963 2784 1702 2511 
Q 1441 2238 1441 1747 
Q 1441 1256 1702 982 
Q 1963 709 2431 709 
Q 2694 709 2930 787 
Q 3166 866 3366 1019 
L 3366 103 
Q 3103 6 2833 -42 
Q 2563 -91 2291 -91 
Q 1344 -91 809 395 
Q 275 881 275 1747 
Q 275 2613 809 3098 
Q 1344 3584 2291 3584 
Q 2566 3584 2833 3536 
Q 3100 3488 3366 3391 
z
" transform="scale(0.015625)"/>
      <path id="DejaVuSans-Bold-69" d="M 538 3500 
L 1656 3500 
L 1656 0 
L 538 0 
L 538 3500 
z
M 538 4863 
L 1656 4863 
L 1656 3950 
L 538 3950 
L 538 4863 
z
" transform="scale(0.015625)"/>
      <path id="DejaVuSans-Bold-6f" d="M 2203 2784 
Q 1831 2784 1636 2517 
Q 1441 2250 1441 1747 
Q 1441 1244 1636 976 
Q 1831 709 2203 709 
Q 2569 709 2762 976 
Q 2956 1244 2956 1747 
Q 2956 2250 2762 2517 
Q 2569 2784 2203 2784 
z
M 2203 3584 
Q 3106 3584 3614 3096 
Q 4122 2609 4122 1747 
Q 4122 884 3614 396 
Q 3106 -91 2203 -91 
Q 1297 -91 786 396 
Q 275 884 275 1747 
Q 275 2609 786 3096 
Q 1297 3584 2203 3584 
z
" transform="scale(0.015625)"/>
      <path id="DejaVuSans-Bold-20" transform="scale(0.015625)"/>
      <path id="DejaVuSans-Bold-64" d="M 2919 2988 
L 2919 4863 
L 4044 4863 
L 4044 0 
L 2919 0 
L 2919 506 
Q 2688 197 2409 53 
Q 2131 -91 1766 -91 
Q 1119 -91 703 423 
Q 288 938 288 1747 
Q 288 2556 703 3070 
Q 1119 3584 1766 3584 
Q 2128 3584 2408 3439 
Q 2688 3294 2919 2988 
z
M 2181 722 
Q 2541 722 2730 984 
Q 2919 1247 2919 1747 
Q 2919 2247 2730 2509 
Q 2541 2772 2181 2772 
Q 1825 2772 1636 2509 
Q 1447 2247 1447 1747 
Q 1447 1247 1636 984 
Q 1825 722 2181 722 
z
" transform="scale(0.015625)"/>
      <path id="DejaVuSans-Bold-54" d="M 31 4666 
L 4331 4666 
L 4331 3756 
L 2784 3756 
L 2784 0 
L 1581 0 
L 1581 3756 
L 31 3756 
L 31 4666 
z
" transform="scale(0.015625)"/>
      <path id="DejaVuSans-Bold-ed" d="M 538 3500 
L 1656 3500 
L 1656 0 
L 538 0 
L 538 3500 
z
M 1594 5119 
L 2478 5119 
L 1325 3944 
L 713 3944 
L 1594 5119 
z
" transform="scale(0.015625)"/>
      <path id="DejaVuSans-Bold-74" d="M 1759 4494 
L 1759 3500 
L 2913 3500 
L 2913 2700 
L 1759 2700 
L 1759 1216 
Q 1759 972 1856 886 
Q 1953 800 2241 800 
L 2816 800 
L 2816 0 
L 1856 0 
Q 1194 0 917 276 
Q 641 553 641 1216 
L 641 2700 
L 84 2700 
L 84 3500 
L 641 3500 
L 641 4494 
L 1759 4494 
z
" transform="scale(0.015625)"/>
      <path id="DejaVuSans-Bold-75" d="M 500 1363 
L 500 3500 
L 1625 3500 
L 1625 3150 
Q 1625 2866 1622 2436 
Q 1619 2006 1619 1863 
Q 1619 1441 1641 1255 
Q 1663 1069 1716 984 
Q 1784 875 1895 815 
Q 2006 756 2150 756 
Q 2500 756 2700 1025 
Q 2900 1294 2900 1772 
L 2900 3500 
L 4019 3500 
L 4019 0 
L 2900 0 
L 2900 506 
Q 2647 200 2364 54 
Q 2081 -91 1741 -91 
Q 1134 -91 817 281 
Q 500 653 500 1363 
z
" transform="scale(0.015625)"/>
      <path id="DejaVuSans-Bold-6c" d="M 538 4863 
L 1656 4863 
L 1656 0 
L 538 0 
L 538 4863 
z
" transform="scale(0.015625)"/>
      <path id="DejaVuSans-Bold-73" d="M 3272 3391 
L 3272 2541 
Q 2913 2691 2578 2766 
Q 2244 2841 1947 2841 
Q 1628 2841 1473 2761 
Q 1319 2681 1319 2516 
Q 1319 2381 1436 2309 
Q 1553 2238 1856 2203 
L 2053 2175 
Q 2913 2066 3209 1816 
Q 3506 1566 3506 1031 
Q 3506 472 3093 190 
Q 2681 -91 1863 -91 
Q 1516 -91 1145 -36 
Q 775 19 384 128 
L 384 978 
Q 719 816 1070 734 
Q 1422 653 1784 653 
Q 2113 653 2278 743 
Q 2444 834 2444 1013 
Q 2444 1163 2330 1236 
Q 2216 1309 1875 1350 
L 1678 1375 
Q 931 1469 631 1722 
Q 331 1975 331 2491 
Q 331 3047 712 3315 
Q 1094 3584 1881 3584 
Q 2191 3584 2531 3537 
Q 2872 3491 3272 3391 
z
" transform="scale(0.015625)"/>
      <path id="DejaVuSans-Bold-47" d="M 4781 347 
Q 4331 128 3847 18 
Q 3363 -91 2847 -91 
Q 1681 -91 1000 561 
Q 319 1213 319 2328 
Q 319 3456 1012 4103 
Q 1706 4750 2913 4750 
Q 3378 4750 3804 4662 
Q 4231 4575 4609 4403 
L 4609 3438 
Q 4219 3659 3833 3768 
Q 3447 3878 3059 3878 
Q 2341 3878 1952 3476 
Q 1563 3075 1563 2328 
Q 1563 1588 1938 1184 
Q 2313 781 3003 781 
Q 3191 781 3352 804 
Q 3513 828 3641 878 
L 3641 1784 
L 2906 1784 
L 2906 2591 
L 4781 2591 
L 4781 347 
z
" transform="scale(0.015625)"/>
      <path id="DejaVuSans-Bold-62" d="M 2400 722 
Q 2759 722 2948 984 
Q 3138 1247 3138 1747 
Q 3138 2247 2948 2509 
Q 2759 2772 2400 2772 
Q 2041 2772 1848 2508 
Q 1656 2244 1656 1747 
Q 1656 1250 1848 986 
Q 2041 722 2400 722 
z
M 1656 2988 
Q 1888 3294 2169 3439 
Q 2450 3584 2816 3584 
Q 3463 3584 3878 3070 
Q 4294 2556 4294 1747 
Q 4294 938 3878 423 
Q 3463 -91 2816 -91 
Q 2450 -91 2169 54 
Q 1888 200 1656 506 
L 1656 0 
L 538 0 
L 538 4863 
L 1656 4863 
L 1656 2988 
z
" transform="scale(0.015625)"/>
      <path id="DejaVuSans-Bold-6e" d="M 4056 2131 
L 4056 0 
L 2931 0 
L 2931 347 
L 2931 1631 
Q 2931 2084 2911 2256 
Q 2891 2428 2841 2509 
Q 2775 2619 2662 2680 
Q 2550 2741 2406 2741 
Q 2056 2741 1856 2470 
Q 1656 2200 1656 1722 
L 1656 0 
L 538 0 
L 538 3500 
L 1656 3500 
L 1656 2988 
Q 1909 3294 2193 3439 
Q 2478 3584 2822 3584 
Q 3428 3584 3742 3212 
Q 4056 2841 4056 2131 
z
" transform="scale(0.015625)"/>
      <path id="DejaVuSans-Bold-61" d="M 2106 1575 
Q 1756 1575 1579 1456 
Q 1403 1338 1403 1106 
Q 1403 894 1545 773 
Q 1688 653 1941 653 
Q 2256 653 2472 879 
Q 2688 1106 2688 1447 
L 2688 1575 
L 2106 1575 
z
M 3816 1997 
L 3816 0 
L 2688 0 
L 2688 519 
Q 2463 200 2181 54 
Q 1900 -91 1497 -91 
Q 953 -91 614 226 
Q 275 544 275 1050 
Q 275 1666 698 1953 
Q 1122 2241 2028 2241 
L 2688 2241 
L 2688 2328 
Q 2688 2594 2478 2717 
Q 2269 2841 1825 2841 
Q 1466 2841 1156 2769 
Q 847 2697 581 2553 
L 581 3406 
Q 941 3494 1303 3539 
Q 1666 3584 2028 3584 
Q 2975 3584 3395 3211 
Q 3816 2838 3816 1997 
z
" transform="scale(0.015625)"/>
      <path id="DejaVuSans-Bold-6d" d="M 3781 2919 
Q 3994 3244 4286 3414 
Q 4578 3584 4928 3584 
Q 5531 3584 5847 3212 
Q 6163 2841 6163 2131 
L 6163 0 
L 5038 0 
L 5038 1825 
Q 5041 1866 5042 1909 
Q 5044 1953 5044 2034 
Q 5044 2406 4934 2573 
Q 4825 2741 4581 2741 
Q 4263 2741 4089 2478 
Q 3916 2216 3909 1719 
L 3909 0 
L 2784 0 
L 2784 1825 
Q 2784 2406 2684 2573 
Q 2584 2741 2328 2741 
Q 2006 2741 1831 2477 
Q 1656 2213 1656 1722 
L 1656 0 
L 531 0 
L 531 3500 
L 1656 3500 
L 1656 2988 
Q 1863 3284 2130 3434 
Q 2397 3584 2719 3584 
Q 3081 3584 3359 3409 
Q 3638 3234 3781 2919 
z
" transform="scale(0.015625)"/>
     </defs>
     <use xlink:href="#DejaVuSans-Bold-50"/>
     <use xlink:href="#DejaVuSans-Bold-72" transform="translate(73.291016 0)"/>
     <use xlink:href="#DejaVuSans-Bold-65" transform="translate(122.607422 0)"/>
     <use xlink:href="#DejaVuSans-Bold-63" transform="translate(190.429688 0)"/>
     <use xlink:href="#DejaVuSans-Bold-69" transform="translate(249.707031 0)"/>
     <use xlink:href="#DejaVuSans-Bold-6f" transform="translate(283.984375 0)"/>
     <use xlink:href="#DejaVuSans-Bold-20" transform="translate(352.685547 0)"/>
     <use xlink:href="#DejaVuSans-Bold-64" transform="translate(387.5 0)"/>
     <use xlink:href="#DejaVuSans-Bold-65" transform="translate(459.082031 0)"/>
     <use xlink:href="#DejaVuSans-Bold-20" transform="translate(526.904297 0)"/>
     <use xlink:href="#DejaVuSans-Bold-54" transform="translate(561.71875 0)"/>
     <use xlink:href="#DejaVuSans-Bold-ed" transform="translate(629.931641 0)"/>
     <use xlink:href="#DejaVuSans-Bold-74" transform="translate(664.208984 0)"/>
     <use xlink:href="#DejaVuSans-Bold-75" transform="translate(712.011719 0)"/>
     <use xlink:href="#DejaVuSans-Bold-6c" transform="translate(783.203125 0)"/>
     <use xlink:href="#DejaVuSans-Bold-6f" transform="translate(817.480469 0)"/>
     <use xlink:href="#DejaVuSans-Bold-73" transform="translate(886.181641 0)"/>
     <use xlink:href="#DejaVuSans-Bold-20" transform="translate(945.703125 0)"/>
     <use xlink:href="#DejaVuSans-Bold-47" transform="translate(980.517578 0)"/>
     <use xlink:href="#DejaVuSans-Bold-75" transform="translate(1062.597656 0)"/>
     <use xlink:href="#DejaVuSans-Bold-62" transform="translate(1133.789062 0)"/>
     <use xlink:href="#DejaVuSans-Bold-65" transform="translate(1205.371094 0)"/>
     <use xlink:href="#DejaVuSans-Bold-72" transform="translate(1273.193359 0)"/>
     <use xlink:href="#DejaVuSans-Bold-6e" transform="translate(1322.509766 0)"/>
     <use xlink:href="#DejaVuSans-Bold-61" transform="translate(1393.701172 0)"/>
     <use xlink:href="#DejaVuSans-Bold-6d" transform="translate(1461.181641 0)"/>
     <use xlink:href="#DejaVuSans-Bold-65" transform="translate(1565.380859 0)"/>
     <use xlink:href="#DejaVuSans-Bold-6e" transform="translate(1633.203125 0)"/>
     <use xlink:href="#DejaVuSans-Bold-74" transform="translate(1704.394531 0)"/>
     <use xlink:href="#DejaVuSans-Bold-61" transform="translate(1752.197266 0)"/>
     <use xlink:href="#DejaVuSans-Bold-6c" transform="translate(1819.677734 0)"/>
     <use xlink:href="#DejaVuSans-Bold-65" transform="translate(1853.955078 0)"/>
     <use xlink:href="#DejaVuSans-Bold-73" transform="translate(1921.777344 0)"/>
    </g>
   </g>
  </g>
 </g>
 <defs>
  <clipPath id="pf71c723ace">
   <rect x="108" y="51.84" width="669.6" height="332.64"/>
  </clipPath>
 </defs>
</svg>
