<?xml version="1.0" encoding="utf-8" standalone="no"?>
<!DOCTYPE svg PUBLIC "-//W3C//DTD SVG 1.1//EN"
  "http://www.w3.org/Graphics/SVG/1.1/DTD/svg11.dtd">
<svg xmlns:xlink="http://www.w3.org/1999/xlink" width="864pt" height="432pt" viewBox="0 0 864 432" xmlns="http://www.w3.org/2000/svg" version="1.1">
 <metadata>
  <rdf:RDF xmlns:dc="http://purl.org/dc/elements/1.1/" xmlns:cc="http://creativecommons.org/ns#" xmlns:rdf="http://www.w3.org/1999/02/22-rdf-syntax-ns#">
   <cc:Work>
    <dc:type rdf:resource="http://purl.org/dc/dcmitype/StillImage"/>
    <dc:date>2025-02-23T20:14:44.405042</dc:date>
    <dc:format>image/svg+xml</dc:format>
    <dc:creator>
     <cc:Agent>
      <dc:title>Matplotlib v3.10.0, https://matplotlib.org/</dc:title>
     </cc:Agent>
    </dc:creator>
   </cc:Work>
  </rdf:RDF>
 </metadata>
 <defs>
  <style type="text/css">*{stroke-linejoin: round; stroke-linecap: butt}</style>
 </defs>
 <g id="figure_1">
  <g id="patch_1">
   <path d="M 0 432 
L 864 432 
L 864 0 
L 0 0 
z
" style="fill: #ffffff"/>
  </g>
  <g id="axes_1">
   <g id="patch_2">
    <path d="M 108 384.48 
L 777.6 384.48 
L 777.6 51.84 
L 108 51.84 
z
" style="fill: #ffffff"/>
   </g>
   <g id="matplotlib.axis_1">
    <g id="xtick_1">
     <g id="line2d_1">
      <path d="M 171.963301 384.48 
L 171.963301 51.84 
" clip-path="url(#p24506a97bc)" style="fill: none; stroke-dasharray: 2.96,1.28; stroke-dashoffset: 0; stroke: #b0b0b0; stroke-opacity: 0.5; stroke-width: 0.8"/>
     </g>
     <g id="line2d_2">
      <defs>
       <path id="m252ae0661c" d="M 0 0 
L 0 3.5 
" style="stroke: #000000; stroke-width: 0.8"/>
      </defs>
      <g>
       <use xlink:href="#m252ae0661c" x="171.963301" y="384.48" style="stroke: #000000; stroke-width: 0.8"/>
      </g>
     </g>
     <g id="text_1">
      <!-- 2012 -->
      <g transform="translate(159.238301 399.078438) scale(0.1 -0.1)">
       <defs>
        <path id="DejaVuSans-32" d="M 1228 531 
L 3431 531 
L 3431 0 
L 469 0 
L 469 531 
Q 828 903 1448 1529 
Q 2069 2156 2228 2338 
Q 2531 2678 2651 2914 
Q 2772 3150 2772 3378 
Q 2772 3750 2511 3984 
Q 2250 4219 1831 4219 
Q 1534 4219 1204 4116 
Q 875 4013 500 3803 
L 500 4441 
Q 881 4594 1212 4672 
Q 1544 4750 1819 4750 
Q 2544 4750 2975 4387 
Q 3406 4025 3406 3419 
Q 3406 3131 3298 2873 
Q 3191 2616 2906 2266 
Q 2828 2175 2409 1742 
Q 1991 1309 1228 531 
z
" transform="scale(0.015625)"/>
        <path id="DejaVuSans-30" d="M 2034 4250 
Q 1547 4250 1301 3770 
Q 1056 3291 1056 2328 
Q 1056 1369 1301 889 
Q 1547 409 2034 409 
Q 2525 409 2770 889 
Q 3016 1369 3016 2328 
Q 3016 3291 2770 3770 
Q 2525 4250 2034 4250 
z
M 2034 4750 
Q 2819 4750 3233 4129 
Q 3647 3509 3647 2328 
Q 3647 1150 3233 529 
Q 2819 -91 2034 -91 
Q 1250 -91 836 529 
Q 422 1150 422 2328 
Q 422 3509 836 4129 
Q 1250 4750 2034 4750 
z
" transform="scale(0.015625)"/>
        <path id="DejaVuSans-31" d="M 794 531 
L 1825 531 
L 1825 4091 
L 703 3866 
L 703 4441 
L 1819 4666 
L 2450 4666 
L 2450 531 
L 3481 531 
L 3481 0 
L 794 0 
L 794 531 
z
" transform="scale(0.015625)"/>
       </defs>
       <use xlink:href="#DejaVuSans-32"/>
       <use xlink:href="#DejaVuSans-30" transform="translate(63.623047 0)"/>
       <use xlink:href="#DejaVuSans-31" transform="translate(127.246094 0)"/>
       <use xlink:href="#DejaVuSans-32" transform="translate(190.869141 0)"/>
      </g>
     </g>
    </g>
    <g id="xtick_2">
     <g id="line2d_3">
      <path d="M 261.083998 384.48 
L 261.083998 51.84 
" clip-path="url(#p24506a97bc)" style="fill: none; stroke-dasharray: 2.96,1.28; stroke-dashoffset: 0; stroke: #b0b0b0; stroke-opacity: 0.5; stroke-width: 0.8"/>
     </g>
     <g id="line2d_4">
      <g>
       <use xlink:href="#m252ae0661c" x="261.083998" y="384.48" style="stroke: #000000; stroke-width: 0.8"/>
      </g>
     </g>
     <g id="text_2">
      <!-- 2014 -->
      <g transform="translate(248.358998 399.078438) scale(0.1 -0.1)">
       <defs>
        <path id="DejaVuSans-34" d="M 2419 4116 
L 825 1625 
L 2419 1625 
L 2419 4116 
z
M 2253 4666 
L 3047 4666 
L 3047 1625 
L 3713 1625 
L 3713 1100 
L 3047 1100 
L 3047 0 
L 2419 0 
L 2419 1100 
L 313 1100 
L 313 1709 
L 2253 4666 
z
" transform="scale(0.015625)"/>
       </defs>
       <use xlink:href="#DejaVuSans-32"/>
       <use xlink:href="#DejaVuSans-30" transform="translate(63.623047 0)"/>
       <use xlink:href="#DejaVuSans-31" transform="translate(127.246094 0)"/>
       <use xlink:href="#DejaVuSans-34" transform="translate(190.869141 0)"/>
      </g>
     </g>
    </g>
    <g id="xtick_3">
     <g id="line2d_5">
      <path d="M 350.082778 384.48 
L 350.082778 51.84 
" clip-path="url(#p24506a97bc)" style="fill: none; stroke-dasharray: 2.96,1.28; stroke-dashoffset: 0; stroke: #b0b0b0; stroke-opacity: 0.5; stroke-width: 0.8"/>
     </g>
     <g id="line2d_6">
      <g>
       <use xlink:href="#m252ae0661c" x="350.082778" y="384.48" style="stroke: #000000; stroke-width: 0.8"/>
      </g>
     </g>
     <g id="text_3">
      <!-- 2016 -->
      <g transform="translate(337.357778 399.078438) scale(0.1 -0.1)">
       <defs>
        <path id="DejaVuSans-36" d="M 2113 2584 
Q 1688 2584 1439 2293 
Q 1191 2003 1191 1497 
Q 1191 994 1439 701 
Q 1688 409 2113 409 
Q 2538 409 2786 701 
Q 3034 994 3034 1497 
Q 3034 2003 2786 2293 
Q 2538 2584 2113 2584 
z
M 3366 4563 
L 3366 3988 
Q 3128 4100 2886 4159 
Q 2644 4219 2406 4219 
Q 1781 4219 1451 3797 
Q 1122 3375 1075 2522 
Q 1259 2794 1537 2939 
Q 1816 3084 2150 3084 
Q 2853 3084 3261 2657 
Q 3669 2231 3669 1497 
Q 3669 778 3244 343 
Q 2819 -91 2113 -91 
Q 1303 -91 875 529 
Q 447 1150 447 2328 
Q 447 3434 972 4092 
Q 1497 4750 2381 4750 
Q 2619 4750 2861 4703 
Q 3103 4656 3366 4563 
z
" transform="scale(0.015625)"/>
       </defs>
       <use xlink:href="#DejaVuSans-32"/>
       <use xlink:href="#DejaVuSans-30" transform="translate(63.623047 0)"/>
       <use xlink:href="#DejaVuSans-31" transform="translate(127.246094 0)"/>
       <use xlink:href="#DejaVuSans-36" transform="translate(190.869141 0)"/>
      </g>
     </g>
    </g>
    <g id="xtick_4">
     <g id="line2d_7">
      <path d="M 439.203474 384.48 
L 439.203474 51.84 
" clip-path="url(#p24506a97bc)" style="fill: none; stroke-dasharray: 2.96,1.28; stroke-dashoffset: 0; stroke: #b0b0b0; stroke-opacity: 0.5; stroke-width: 0.8"/>
     </g>
     <g id="line2d_8">
      <g>
       <use xlink:href="#m252ae0661c" x="439.203474" y="384.48" style="stroke: #000000; stroke-width: 0.8"/>
      </g>
     </g>
     <g id="text_4">
      <!-- 2018 -->
      <g transform="translate(426.478474 399.078438) scale(0.1 -0.1)">
       <defs>
        <path id="DejaVuSans-38" d="M 2034 2216 
Q 1584 2216 1326 1975 
Q 1069 1734 1069 1313 
Q 1069 891 1326 650 
Q 1584 409 2034 409 
Q 2484 409 2743 651 
Q 3003 894 3003 1313 
Q 3003 1734 2745 1975 
Q 2488 2216 2034 2216 
z
M 1403 2484 
Q 997 2584 770 2862 
Q 544 3141 544 3541 
Q 544 4100 942 4425 
Q 1341 4750 2034 4750 
Q 2731 4750 3128 4425 
Q 3525 4100 3525 3541 
Q 3525 3141 3298 2862 
Q 3072 2584 2669 2484 
Q 3125 2378 3379 2068 
Q 3634 1759 3634 1313 
Q 3634 634 3220 271 
Q 2806 -91 2034 -91 
Q 1263 -91 848 271 
Q 434 634 434 1313 
Q 434 1759 690 2068 
Q 947 2378 1403 2484 
z
M 1172 3481 
Q 1172 3119 1398 2916 
Q 1625 2713 2034 2713 
Q 2441 2713 2670 2916 
Q 2900 3119 2900 3481 
Q 2900 3844 2670 4047 
Q 2441 4250 2034 4250 
Q 1625 4250 1398 4047 
Q 1172 3844 1172 3481 
z
" transform="scale(0.015625)"/>
       </defs>
       <use xlink:href="#DejaVuSans-32"/>
       <use xlink:href="#DejaVuSans-30" transform="translate(63.623047 0)"/>
       <use xlink:href="#DejaVuSans-31" transform="translate(127.246094 0)"/>
       <use xlink:href="#DejaVuSans-38" transform="translate(190.869141 0)"/>
      </g>
     </g>
    </g>
    <g id="xtick_5">
     <g id="line2d_9">
      <path d="M 528.202254 384.48 
L 528.202254 51.84 
" clip-path="url(#p24506a97bc)" style="fill: none; stroke-dasharray: 2.96,1.28; stroke-dashoffset: 0; stroke: #b0b0b0; stroke-opacity: 0.5; stroke-width: 0.8"/>
     </g>
     <g id="line2d_10">
      <g>
       <use xlink:href="#m252ae0661c" x="528.202254" y="384.48" style="stroke: #000000; stroke-width: 0.8"/>
      </g>
     </g>
     <g id="text_5">
      <!-- 2020 -->
      <g transform="translate(515.477254 399.078438) scale(0.1 -0.1)">
       <use xlink:href="#DejaVuSans-32"/>
       <use xlink:href="#DejaVuSans-30" transform="translate(63.623047 0)"/>
       <use xlink:href="#DejaVuSans-32" transform="translate(127.246094 0)"/>
       <use xlink:href="#DejaVuSans-30" transform="translate(190.869141 0)"/>
      </g>
     </g>
    </g>
    <g id="xtick_6">
     <g id="line2d_11">
      <path d="M 617.32295 384.48 
L 617.32295 51.84 
" clip-path="url(#p24506a97bc)" style="fill: none; stroke-dasharray: 2.96,1.28; stroke-dashoffset: 0; stroke: #b0b0b0; stroke-opacity: 0.5; stroke-width: 0.8"/>
     </g>
     <g id="line2d_12">
      <g>
       <use xlink:href="#m252ae0661c" x="617.32295" y="384.48" style="stroke: #000000; stroke-width: 0.8"/>
      </g>
     </g>
     <g id="text_6">
      <!-- 2022 -->
      <g transform="translate(604.59795 399.078438) scale(0.1 -0.1)">
       <use xlink:href="#DejaVuSans-32"/>
       <use xlink:href="#DejaVuSans-30" transform="translate(63.623047 0)"/>
       <use xlink:href="#DejaVuSans-32" transform="translate(127.246094 0)"/>
       <use xlink:href="#DejaVuSans-32" transform="translate(190.869141 0)"/>
      </g>
     </g>
    </g>
    <g id="xtick_7">
     <g id="line2d_13">
      <path d="M 706.32173 384.48 
L 706.32173 51.84 
" clip-path="url(#p24506a97bc)" style="fill: none; stroke-dasharray: 2.96,1.28; stroke-dashoffset: 0; stroke: #b0b0b0; stroke-opacity: 0.5; stroke-width: 0.8"/>
     </g>
     <g id="line2d_14">
      <g>
       <use xlink:href="#m252ae0661c" x="706.32173" y="384.48" style="stroke: #000000; stroke-width: 0.8"/>
      </g>
     </g>
     <g id="text_7">
      <!-- 2024 -->
      <g transform="translate(693.59673 399.078438) scale(0.1 -0.1)">
       <use xlink:href="#DejaVuSans-32"/>
       <use xlink:href="#DejaVuSans-30" transform="translate(63.623047 0)"/>
       <use xlink:href="#DejaVuSans-32" transform="translate(127.246094 0)"/>
       <use xlink:href="#DejaVuSans-34" transform="translate(190.869141 0)"/>
      </g>
     </g>
    </g>
   </g>
   <g id="matplotlib.axis_2">
    <g id="ytick_1">
     <g id="line2d_15">
      <path d="M 108 369.428987 
L 777.6 369.428987 
" clip-path="url(#p24506a97bc)" style="fill: none; stroke-dasharray: 2.96,1.28; stroke-dashoffset: 0; stroke: #b0b0b0; stroke-opacity: 0.5; stroke-width: 0.8"/>
     </g>
     <g id="line2d_16">
      <defs>
       <path id="m15a9f5474f" d="M 0 0 
L -3.5 0 
" style="stroke: #000000; stroke-width: 0.8"/>
      </defs>
      <g>
       <use xlink:href="#m15a9f5474f" x="108" y="369.428987" style="stroke: #000000; stroke-width: 0.8"/>
      </g>
     </g>
     <g id="text_8">
      <!-- 0 -->
      <g transform="translate(94.6375 373.228206) scale(0.1 -0.1)">
       <use xlink:href="#DejaVuSans-30"/>
      </g>
     </g>
    </g>
    <g id="ytick_2">
     <g id="line2d_17">
      <path d="M 108 318.24114 
L 777.6 318.24114 
" clip-path="url(#p24506a97bc)" style="fill: none; stroke-dasharray: 2.96,1.28; stroke-dashoffset: 0; stroke: #b0b0b0; stroke-opacity: 0.5; stroke-width: 0.8"/>
     </g>
     <g id="line2d_18">
      <g>
       <use xlink:href="#m15a9f5474f" x="108" y="318.24114" style="stroke: #000000; stroke-width: 0.8"/>
      </g>
     </g>
     <g id="text_9">
      <!-- 2000 -->
      <g transform="translate(75.55 322.040359) scale(0.1 -0.1)">
       <use xlink:href="#DejaVuSans-32"/>
       <use xlink:href="#DejaVuSans-30" transform="translate(63.623047 0)"/>
       <use xlink:href="#DejaVuSans-30" transform="translate(127.246094 0)"/>
       <use xlink:href="#DejaVuSans-30" transform="translate(190.869141 0)"/>
      </g>
     </g>
    </g>
    <g id="ytick_3">
     <g id="line2d_19">
      <path d="M 108 267.053293 
L 777.6 267.053293 
" clip-path="url(#p24506a97bc)" style="fill: none; stroke-dasharray: 2.96,1.28; stroke-dashoffset: 0; stroke: #b0b0b0; stroke-opacity: 0.5; stroke-width: 0.8"/>
     </g>
     <g id="line2d_20">
      <g>
       <use xlink:href="#m15a9f5474f" x="108" y="267.053293" style="stroke: #000000; stroke-width: 0.8"/>
      </g>
     </g>
     <g id="text_10">
      <!-- 4000 -->
      <g transform="translate(75.55 270.852512) scale(0.1 -0.1)">
       <use xlink:href="#DejaVuSans-34"/>
       <use xlink:href="#DejaVuSans-30" transform="translate(63.623047 0)"/>
       <use xlink:href="#DejaVuSans-30" transform="translate(127.246094 0)"/>
       <use xlink:href="#DejaVuSans-30" transform="translate(190.869141 0)"/>
      </g>
     </g>
    </g>
    <g id="ytick_4">
     <g id="line2d_21">
      <path d="M 108 215.865446 
L 777.6 215.865446 
" clip-path="url(#p24506a97bc)" style="fill: none; stroke-dasharray: 2.96,1.28; stroke-dashoffset: 0; stroke: #b0b0b0; stroke-opacity: 0.5; stroke-width: 0.8"/>
     </g>
     <g id="line2d_22">
      <g>
       <use xlink:href="#m15a9f5474f" x="108" y="215.865446" style="stroke: #000000; stroke-width: 0.8"/>
      </g>
     </g>
     <g id="text_11">
      <!-- 6000 -->
      <g transform="translate(75.55 219.664665) scale(0.1 -0.1)">
       <use xlink:href="#DejaVuSans-36"/>
       <use xlink:href="#DejaVuSans-30" transform="translate(63.623047 0)"/>
       <use xlink:href="#DejaVuSans-30" transform="translate(127.246094 0)"/>
       <use xlink:href="#DejaVuSans-30" transform="translate(190.869141 0)"/>
      </g>
     </g>
    </g>
    <g id="ytick_5">
     <g id="line2d_23">
      <path d="M 108 164.6776 
L 777.6 164.6776 
" clip-path="url(#p24506a97bc)" style="fill: none; stroke-dasharray: 2.96,1.28; stroke-dashoffset: 0; stroke: #b0b0b0; stroke-opacity: 0.5; stroke-width: 0.8"/>
     </g>
     <g id="line2d_24">
      <g>
       <use xlink:href="#m15a9f5474f" x="108" y="164.6776" style="stroke: #000000; stroke-width: 0.8"/>
      </g>
     </g>
     <g id="text_12">
      <!-- 8000 -->
      <g transform="translate(75.55 168.476818) scale(0.1 -0.1)">
       <use xlink:href="#DejaVuSans-38"/>
       <use xlink:href="#DejaVuSans-30" transform="translate(63.623047 0)"/>
       <use xlink:href="#DejaVuSans-30" transform="translate(127.246094 0)"/>
       <use xlink:href="#DejaVuSans-30" transform="translate(190.869141 0)"/>
      </g>
     </g>
    </g>
    <g id="ytick_6">
     <g id="line2d_25">
      <path d="M 108 113.489753 
L 777.6 113.489753 
" clip-path="url(#p24506a97bc)" style="fill: none; stroke-dasharray: 2.96,1.28; stroke-dashoffset: 0; stroke: #b0b0b0; stroke-opacity: 0.5; stroke-width: 0.8"/>
     </g>
     <g id="line2d_26">
      <g>
       <use xlink:href="#m15a9f5474f" x="108" y="113.489753" style="stroke: #000000; stroke-width: 0.8"/>
      </g>
     </g>
     <g id="text_13">
      <!-- 10000 -->
      <g transform="translate(69.1875 117.288972) scale(0.1 -0.1)">
       <use xlink:href="#DejaVuSans-31"/>
       <use xlink:href="#DejaVuSans-30" transform="translate(63.623047 0)"/>
       <use xlink:href="#DejaVuSans-30" transform="translate(127.246094 0)"/>
       <use xlink:href="#DejaVuSans-30" transform="translate(190.869141 0)"/>
       <use xlink:href="#DejaVuSans-30" transform="translate(254.492188 0)"/>
      </g>
     </g>
    </g>
    <g id="ytick_7">
     <g id="line2d_27">
      <path d="M 108 62.301906 
L 777.6 62.301906 
" clip-path="url(#p24506a97bc)" style="fill: none; stroke-dasharray: 2.96,1.28; stroke-dashoffset: 0; stroke: #b0b0b0; stroke-opacity: 0.5; stroke-width: 0.8"/>
     </g>
     <g id="line2d_28">
      <g>
       <use xlink:href="#m15a9f5474f" x="108" y="62.301906" style="stroke: #000000; stroke-width: 0.8"/>
      </g>
     </g>
     <g id="text_14">
      <!-- 12000 -->
      <g transform="translate(69.1875 66.101125) scale(0.1 -0.1)">
       <use xlink:href="#DejaVuSans-31"/>
       <use xlink:href="#DejaVuSans-32" transform="translate(63.623047 0)"/>
       <use xlink:href="#DejaVuSans-30" transform="translate(127.246094 0)"/>
       <use xlink:href="#DejaVuSans-30" transform="translate(190.869141 0)"/>
       <use xlink:href="#DejaVuSans-30" transform="translate(254.492188 0)"/>
      </g>
     </g>
    </g>
   </g>
   <g id="line2d_29">
    <path d="M 138.436364 368.737951 
L 145.873248 368.865921 
L 149.530732 368.737951 
L 153.310132 368.814733 
L 157.089533 368.712357 
L 164.526417 368.840327 
L 168.183901 368.712357 
L 175.742702 368.865921 
L 179.27827 368.712357 
L 186.715154 368.865921 
L 190.494554 368.737951 
L 197.931439 368.865921 
L 209.147723 368.712357 
L 216.584608 368.865921 
L 220.364008 368.737951 
L 238.651428 368.814733 
L 242.430829 368.712357 
L 249.867713 368.840327 
L 253.647113 368.737951 
L 257.304597 368.814733 
L 261.083998 368.712357 
L 264.863398 368.840327 
L 279.493334 368.814733 
L 283.150818 368.840327 
L 286.930219 368.737951 
L 294.367103 368.865921 
L 305.583388 368.737951 
L 309.362788 368.840327 
L 323.992724 368.814733 
L 331.429609 368.814733 
L 335.209009 368.840327 
L 338.866493 368.712357 
L 342.645893 368.840327 
L 376.050915 368.814733 
L 379.830315 368.712357 
L 387.2672 368.840327 
L 390.924684 368.712357 
L 398.483484 368.865921 
L 409.33402 368.840327 
L 413.113421 368.712357 
L 420.550305 368.840327 
L 424.329705 368.737951 
L 427.987189 368.814733 
L 431.76659 368.686763 
L 439.203474 368.840327 
L 442.982874 368.712357 
L 468.829095 368.814733 
L 695.105446 368.814733 
L 698.884846 368.686763 
L 706.32173 368.840327 
L 710.101131 368.712357 
L 717.416099 368.814733 
L 721.073583 368.712357 
L 728.510467 368.814733 
L 732.289868 368.712357 
L 739.726752 368.865921 
L 743.506152 368.737951 
L 747.163636 368.814733 
L 747.163636 368.814733 
" clip-path="url(#p24506a97bc)" style="fill: none; stroke: #a6cee3; stroke-width: 1.5; stroke-linecap: square"/>
   </g>
   <g id="line2d_30">
    <path d="M 138.436364 369.173871 
L 747.163636 369.174751 
L 747.163636 369.174751 
" clip-path="url(#p24506a97bc)" style="fill: none; stroke: #1f78b4; stroke-width: 1.5; stroke-linecap: square"/>
   </g>
   <g id="line2d_31">
    <path d="M 138.436364 369.173871 
L 747.163636 369.174751 
L 747.163636 369.174751 
" clip-path="url(#p24506a97bc)" style="fill: none; stroke: #b2df8a; stroke-width: 1.5; stroke-linecap: square"/>
   </g>
   <g id="line2d_32">
    <path d="M 138.436364 369.318834 
L 379.830315 369.319993 
L 439.203474 369.245549 
L 546.733507 369.290137 
L 580.016612 369.325367 
L 654.385456 369.192717 
L 680.231677 369.142749 
L 747.163636 369.171831 
L 747.163636 369.171831 
" clip-path="url(#p24506a97bc)" style="fill: none; stroke: #33a02c; stroke-width: 1.5; stroke-linecap: square"/>
   </g>
   <g id="line2d_33">
    <path d="M 138.436364 367.125534 
L 145.873248 367.253503 
L 149.530732 367.125534 
L 153.310132 367.202315 
L 157.089533 367.09994 
L 164.526417 367.227909 
L 168.183901 367.09994 
L 175.742702 367.253503 
L 179.27827 367.09994 
L 186.715154 367.253503 
L 190.494554 367.125534 
L 197.931439 367.253503 
L 209.147723 367.09994 
L 216.584608 367.279097 
L 220.364008 367.125534 
L 261.083998 367.09994 
L 264.863398 367.253503 
L 275.713934 367.125534 
L 283.150818 367.227909 
L 286.930219 367.125534 
L 294.367103 367.279097 
L 305.583388 367.151128 
L 312.77644 367.202315 
L 316.55584 367.074346 
L 320.213324 367.202315 
L 427.987189 367.202315 
L 431.76659 367.074346 
L 439.203474 367.253503 
L 442.982874 367.09994 
L 450.175926 367.202315 
L 453.83341 367.253503 
L 457.612811 367.125534 
L 465.049695 367.253503 
L 476.26598 367.09994 
L 483.702864 367.253503 
L 487.482264 367.125534 
L 535.517222 367.202315 
L 542.954107 367.202315 
L 695.105446 367.202315 
L 698.884846 367.074346 
L 706.32173 367.253503 
L 710.101131 367.09994 
L 728.510467 367.202315 
L 732.289868 367.09994 
L 739.726752 367.253503 
L 743.506152 367.125534 
L 747.163636 367.202315 
L 747.163636 367.202315 
" clip-path="url(#p24506a97bc)" style="fill: none; stroke: #fb9a99; stroke-width: 1.5; stroke-linecap: square"/>
   </g>
   <g id="line2d_34">
    <path d="M 138.436364 369.17585 
L 747.163636 369.179175 
L 747.163636 369.179175 
" clip-path="url(#p24506a97bc)" style="fill: none; stroke: #e31a1c; stroke-width: 1.5; stroke-linecap: square"/>
   </g>
   <g id="line2d_35">
    <path d="M 138.436364 369.17585 
L 747.163636 369.179175 
L 747.163636 369.179175 
" clip-path="url(#p24506a97bc)" style="fill: none; stroke: #fdbf6f; stroke-width: 1.5; stroke-linecap: square"/>
   </g>
   <g id="line2d_36">
    <path d="M 138.436364 369.315644 
L 665.601741 369.146429 
L 695.105446 369.136961 
L 747.163636 369.169208 
L 747.163636 369.169208 
" clip-path="url(#p24506a97bc)" style="fill: none; stroke: #ff7f00; stroke-width: 1.5; stroke-linecap: square"/>
   </g>
   <g id="line2d_37">
    <path d="M 138.436364 364.975644 
L 145.873248 365.103614 
L 149.530732 364.796487 
L 164.526417 365.07802 
L 168.183901 364.770893 
L 175.742702 364.924456 
L 186.715154 365.103614 
L 190.494554 364.796487 
L 205.368323 365.052426 
L 209.147723 364.770893 
L 220.364008 364.975644 
L 227.55706 365.052426 
L 231.214544 364.770893 
L 238.651428 364.873268 
L 249.867713 365.07802 
L 253.647113 364.822081 
L 272.05645 365.07802 
L 275.713934 364.796487 
L 294.367103 365.103614 
L 298.146503 364.873268 
L 305.583388 364.975644 
L 309.362788 365.07802 
L 312.77644 365.052426 
L 316.55584 364.745299 
L 320.213324 364.873268 
L 327.650208 364.924456 
L 335.209009 365.07802 
L 338.866493 364.770893 
L 342.645893 364.898862 
L 346.303377 364.898862 
L 350.082778 365.052426 
L 357.397746 365.07802 
L 361.177146 364.796487 
L 376.050915 365.052426 
L 379.830315 364.770893 
L 387.2672 364.898862 
L 401.897136 365.103614 
L 405.676536 364.873268 
L 420.550305 365.07802 
L 424.329705 364.796487 
L 431.76659 364.924456 
L 439.203474 365.07802 
L 442.982874 364.770893 
L 450.175926 364.873268 
L 465.049695 365.103614 
L 468.829095 364.873268 
L 476.26598 364.95005 
L 483.702864 365.103614 
L 487.482264 364.796487 
L 494.675316 364.873268 
L 505.769685 365.052426 
L 509.549085 364.770893 
L 520.76537 364.975644 
L 524.422854 365.052426 
L 528.202254 364.770893 
L 531.981654 364.898862 
L 539.296623 364.924456 
L 542.954107 365.052426 
L 550.390991 365.103614 
L 554.170391 364.873268 
L 561.607276 364.95005 
L 565.386676 365.07802 
L 569.04416 365.07802 
L 572.82356 364.873268 
L 591.232897 365.07802 
L 594.890381 364.770893 
L 606.106666 364.975644 
L 613.54355 365.103614 
L 617.32295 364.873268 
L 635.732287 365.103614 
L 639.389771 364.796487 
L 654.385456 365.07802 
L 658.04294 364.770893 
L 665.601741 364.924456 
L 669.015392 364.924456 
L 676.452277 365.07802 
L 680.231677 364.770893 
L 691.447962 364.975644 
L 695.105446 365.052426 
L 698.884846 364.745299 
L 717.416099 365.052426 
L 721.073583 364.770893 
L 728.510467 364.873268 
L 739.726752 365.103614 
L 743.506152 364.822081 
L 747.163636 364.873268 
L 747.163636 364.873268 
" clip-path="url(#p24506a97bc)" style="fill: none; stroke: #cab2d6; stroke-width: 1.5; stroke-linecap: square"/>
   </g>
   <g id="line2d_38">
    <path d="M 138.436364 369.178602 
L 747.163636 369.185187 
L 747.163636 369.185187 
" clip-path="url(#p24506a97bc)" style="fill: none; stroke: #6a3d9a; stroke-width: 1.5; stroke-linecap: square"/>
   </g>
   <g id="line2d_39">
    <path d="M 138.436364 369.178602 
L 747.163636 369.185187 
L 747.163636 369.185187 
" clip-path="url(#p24506a97bc)" style="fill: none; stroke: #ffff99; stroke-width: 1.5; stroke-linecap: square"/>
   </g>
   <g id="line2d_40">
    <path d="M 138.436364 369.311521 
L 646.948572 369.178423 
L 691.447962 369.133889 
L 747.163636 369.171256 
L 747.163636 369.171256 
" clip-path="url(#p24506a97bc)" style="fill: none; stroke: #b15928; stroke-width: 1.5; stroke-linecap: square"/>
   </g>
   <g id="line2d_41">
    <path d="M 138.436364 360.675865 
L 142.093848 361.469277 
L 149.530732 360.138393 
L 153.310132 360.931804 
L 157.089533 360.291956 
L 164.526417 360.419926 
L 168.183901 361.187743 
L 171.963301 360.573489 
L 175.742702 361.341307 
L 179.27827 360.650271 
L 183.05767 361.469277 
L 190.494554 360.138393 
L 194.152038 360.573489 
L 197.931439 360.266362 
L 201.710839 361.110962 
L 205.368323 360.394332 
L 209.147723 361.187743 
L 212.805207 360.573489 
L 216.584608 361.341307 
L 220.364008 360.675865 
L 223.77766 361.392495 
L 231.214544 360.138393 
L 234.993944 360.957398 
L 238.651428 360.215174 
L 242.430829 361.008586 
L 246.210229 360.394332 
L 249.867713 361.136556 
L 253.647113 360.496708 
L 257.304597 361.290119 
L 261.083998 360.650271 
L 264.863398 361.494871 
L 268.27705 360.752647 
L 272.05645 361.494871 
L 279.493334 360.215174 
L 283.150818 360.957398 
L 286.930219 360.31755 
L 290.709619 361.110962 
L 294.367103 360.44552 
L 298.146503 360.931804 
L 301.803987 360.573489 
L 309.362788 360.778241 
L 312.77644 360.752647 
L 316.55584 360.087205 
L 320.213324 360.215174 
L 327.650208 360.266362 
L 331.429609 361.110962 
L 335.209009 360.419926 
L 338.866493 361.187743 
L 342.645893 360.599083 
L 346.303377 361.315713 
L 350.082778 360.752647 
L 353.862178 361.494871 
L 357.397746 360.778241 
L 361.177146 360.138393 
L 364.83463 360.931804 
L 368.614031 360.266362 
L 372.271515 361.03418 
L 376.050915 360.394332 
L 379.830315 361.187743 
L 383.487799 360.573489 
L 387.2672 361.315713 
L 390.924684 360.650271 
L 394.704084 360.931804 
L 398.483484 360.803835 
L 401.897136 360.803835 
L 405.676536 360.931804 
L 409.33402 360.240768 
L 416.770905 360.394332 
L 420.550305 361.136556 
L 424.329705 360.496708 
L 427.987189 361.290119 
L 431.76659 360.624677 
L 435.424074 361.392495 
L 442.982874 360.112799 
L 446.396526 360.829429 
L 450.175926 360.215174 
L 453.83341 360.982992 
L 457.612811 360.31755 
L 461.270295 361.110962 
L 465.049695 360.44552 
L 468.829095 361.290119 
L 472.486579 360.573489 
L 476.26598 361.366901 
L 479.923464 360.752647 
L 483.702864 361.520465 
L 487.482264 360.855022 
L 490.895916 360.138393 
L 494.675316 360.931804 
L 498.3328 360.291956 
L 502.112201 361.110962 
L 505.769685 360.394332 
L 509.549085 361.187743 
L 513.328485 360.573489 
L 516.985969 361.315713 
L 520.76537 360.675865 
L 524.422854 361.469277 
L 531.981654 360.240768 
L 535.517222 360.931804 
L 539.296623 360.266362 
L 542.954107 361.110962 
L 546.733507 360.394332 
L 550.390991 361.16215 
L 554.170391 360.215174 
L 561.607276 360.291956 
L 565.386676 360.419926 
L 569.04416 360.419926 
L 572.82356 360.573489 
L 591.232897 360.778241 
L 594.890381 360.112799 
L 606.106666 360.31755 
L 631.952887 360.778241 
L 635.732287 360.803835 
L 639.389771 360.138393 
L 665.601741 360.624677 
L 669.015392 360.624677 
L 676.452277 360.778241 
L 680.231677 360.112799 
L 691.447962 360.31755 
L 717.416099 360.752647 
L 721.073583 360.138393 
L 747.163636 360.573489 
L 747.163636 360.573489 
" clip-path="url(#p24506a97bc)" style="fill: none; stroke: #a6cee3; stroke-width: 1.5; stroke-linecap: square"/>
   </g>
   <g id="line2d_42">
    <path d="M 138.436364 369.184329 
L 476.26598 369.190759 
L 747.163636 369.195577 
L 747.163636 369.195577 
" clip-path="url(#p24506a97bc)" style="fill: none; stroke: #1f78b4; stroke-width: 1.5; stroke-linecap: square"/>
   </g>
   <g id="line2d_43">
    <path d="M 138.436364 369.184329 
L 476.26598 369.190759 
L 747.163636 369.195577 
L 747.163636 369.195577 
" clip-path="url(#p24506a97bc)" style="fill: none; stroke: #b2df8a; stroke-width: 1.5; stroke-linecap: square"/>
   </g>
   <g id="line2d_44">
    <path d="M 138.436364 369.304755 
L 379.830315 369.306231 
L 431.76659 369.242989 
L 747.163636 369.171954 
L 747.163636 369.171954 
" clip-path="url(#p24506a97bc)" style="fill: none; stroke: #33a02c; stroke-width: 1.5; stroke-linecap: square"/>
   </g>
   <g id="line2d_45">
    <path d="M 138.436364 330.039939 
L 149.530732 332.368986 
L 153.310132 323.846209 
L 194.152038 332.445768 
L 197.931439 323.897397 
L 205.368323 325.458626 
L 246.210229 334.058185 
L 249.867713 325.48422 
L 298.146503 335.670602 
L 301.803987 322.438543 
L 320.213324 326.380008 
L 327.650208 327.864455 
L 331.429609 314.709179 
L 338.866493 316.21922 
L 350.082778 318.650643 
L 361.177146 320.902908 
L 376.050915 324.025367 
L 394.704084 327.966831 
L 398.483484 319.41846 
L 450.175926 330.295878 
L 453.83341 317.089413 
L 465.049695 319.41846 
L 472.486579 320.97969 
L 490.895916 324.844372 
L 494.675316 318.650643 
L 513.328485 322.592107 
L 528.202254 325.714566 
L 535.517222 327.250201 
L 550.390991 330.347066 
L 557.949792 331.933889 
L 561.607276 318.727425 
L 572.82356 321.158847 
L 580.016612 322.592107 
L 583.796013 323.487894 
L 594.890381 325.714566 
L 609.886066 328.862618 
L 624.516002 331.933889 
L 628.295403 323.564676 
L 635.732287 324.972342 
L 687.668561 335.875353 
L 691.447962 318.036389 
L 706.32173 321.184441 
L 721.073583 324.281306 
L 736.069268 327.429359 
L 747.163636 329.758406 
L 747.163636 329.758406 
" clip-path="url(#p24506a97bc)" style="fill: none; stroke: #fb9a99; stroke-width: 1.5; stroke-linecap: square"/>
   </g>
   <g id="line2d_46">
    <path d="M 138.436364 366.942934 
L 164.526417 366.744023 
L 190.494554 366.747231 
L 194.152038 366.73199 
L 201.710839 366.867568 
L 327.650208 366.895135 
L 331.429609 366.747398 
L 361.177146 366.737601 
L 383.487799 366.799614 
L 413.113421 366.947939 
L 420.550305 366.898343 
L 502.112201 366.858025 
L 513.328485 366.748041 
L 557.949792 366.577169 
L 561.607276 366.806984 
L 569.04416 366.785773 
L 580.016612 366.787059 
L 587.453497 366.889572 
L 624.516002 367.052876 
L 631.952887 367.233621 
L 646.948572 367.214158 
L 654.385456 367.258159 
L 665.601741 367.167601 
L 669.015392 367.246073 
L 676.452277 367.169211 
L 687.668561 367.167805 
L 691.447962 366.975574 
L 698.884846 367.041637 
L 706.32173 366.942272 
L 721.073583 367.00476 
L 736.069268 366.983919 
L 739.726752 366.935331 
L 747.163636 366.979712 
L 747.163636 366.979712 
" clip-path="url(#p24506a97bc)" style="fill: none; stroke: #e31a1c; stroke-width: 1.5; stroke-linecap: square"/>
   </g>
   <g id="line2d_47">
    <path d="M 138.436364 366.900704 
L 145.873248 366.80518 
L 149.530732 366.866287 
L 164.526417 366.685814 
L 194.152038 366.727102 
L 201.710839 366.841263 
L 242.430829 366.839271 
L 268.27705 366.874587 
L 301.803987 366.803014 
L 305.583388 366.884517 
L 312.77644 366.857692 
L 327.650208 366.890513 
L 331.429609 366.726141 
L 387.2672 366.762919 
L 398.483484 366.923329 
L 435.424074 366.850912 
L 439.203474 366.959015 
L 450.175926 366.889532 
L 453.83341 366.719523 
L 483.702864 366.907524 
L 494.675316 366.843766 
L 505.769685 366.729856 
L 557.949792 366.478774 
L 561.607276 366.7984 
L 569.04416 366.752252 
L 580.016612 366.716746 
L 583.796013 366.874093 
L 602.449182 366.87633 
L 609.886066 366.999235 
L 624.516002 366.982155 
L 628.295403 367.178992 
L 639.389771 367.177634 
L 643.169171 367.102347 
L 658.04294 367.163436 
L 687.668561 367.111108 
L 691.447962 366.869217 
L 695.105446 367.031368 
L 721.073583 366.970919 
L 747.163636 366.926533 
L 747.163636 366.926533 
" clip-path="url(#p24506a97bc)" style="fill: none; stroke: #fdbf6f; stroke-width: 1.5; stroke-linecap: square"/>
   </g>
   <g id="line2d_48">
    <path d="M 138.436364 369.275423 
L 747.163636 369.211438 
L 747.163636 369.211438 
" clip-path="url(#p24506a97bc)" style="fill: none; stroke: #ff7f00; stroke-width: 1.5; stroke-linecap: square"/>
   </g>
   <g id="line2d_49">
    <path d="M 138.436364 274.14281 
L 153.310132 277.265269 
L 175.742702 281.974551 
L 179.27827 273.400586 
L 194.152038 276.548639 
L 209.147723 279.671097 
L 216.584608 281.257921 
L 227.55706 283.53578 
L 231.214544 270.354909 
L 246.210229 273.502962 
L 261.083998 276.625421 
L 264.863398 268.153832 
L 286.930219 272.70955 
L 338.866493 283.612562 
L 342.645893 272.811926 
L 346.303377 273.528556 
L 350.082778 274.398749 
L 361.177146 276.651014 
L 376.050915 279.773473 
L 409.33402 286.786208 
L 413.113421 275.908791 
L 420.550305 277.47002 
L 483.702864 290.753266 
L 487.482264 272.888708 
L 565.386676 289.294413 
L 569.04416 271.378666 
L 572.82356 272.24886 
L 580.016612 273.682119 
L 583.796013 274.577907 
L 594.890381 276.804578 
L 609.886066 279.952631 
L 658.04294 290.06223 
L 661.82234 272.24886 
L 680.231677 276.087948 
L 687.668561 277.649177 
L 747.163636 290.164606 
L 747.163636 290.164606 
" clip-path="url(#p24506a97bc)" style="fill: none; stroke: #cab2d6; stroke-width: 1.5; stroke-linecap: square"/>
   </g>
   <g id="line2d_50">
    <path d="M 138.436364 367.067185 
L 157.089533 366.786722 
L 160.747017 366.913049 
L 168.183901 366.83313 
L 171.963301 366.867493 
L 175.742702 366.767079 
L 183.05767 366.825645 
L 209.147723 366.681036 
L 227.55706 366.5731 
L 231.214544 366.116526 
L 234.993944 366.356017 
L 249.867713 366.494648 
L 261.083998 366.563534 
L 264.863398 366.218696 
L 272.05645 366.111499 
L 316.55584 366.084262 
L 327.650208 366.158642 
L 338.866493 366.151954 
L 342.645893 366.953817 
L 387.2672 366.985457 
L 390.924684 367.137781 
L 401.897136 367.142179 
L 409.33402 367.09316 
L 413.113421 366.831612 
L 420.550305 366.754437 
L 435.424074 366.825877 
L 446.396526 366.887315 
L 453.83341 366.874859 
L 465.049695 366.913988 
L 483.702864 367.036002 
L 490.895916 366.824665 
L 535.517222 366.528238 
L 539.296623 366.623767 
L 550.390991 366.372523 
L 576.602961 366.429658 
L 583.796013 366.692082 
L 628.295403 366.963197 
L 631.952887 367.083752 
L 643.169171 366.975887 
L 654.385456 367.174321 
L 658.04294 367.058405 
L 661.82234 367.132627 
L 665.601741 367.067521 
L 669.015392 367.179586 
L 676.452277 367.088135 
L 691.447962 367.166607 
L 698.884846 367.272778 
L 706.32173 367.119603 
L 721.073583 367.210365 
L 732.289868 367.217475 
L 747.163636 367.225124 
L 747.163636 367.225124 
" clip-path="url(#p24506a97bc)" style="fill: none; stroke: #6a3d9a; stroke-width: 1.5; stroke-linecap: square"/>
   </g>
   <g id="line2d_51">
    <path d="M 138.436364 367.021436 
L 145.873248 366.860697 
L 149.530732 366.956159 
L 157.089533 366.754374 
L 160.747017 366.865913 
L 168.183901 366.75873 
L 171.963301 366.86241 
L 175.742702 366.748132 
L 183.05767 366.778509 
L 205.368323 366.592034 
L 216.584608 366.657462 
L 223.77766 366.557598 
L 227.55706 366.525965 
L 231.214544 366.040882 
L 238.651428 366.408828 
L 246.210229 366.525835 
L 253.647113 366.420359 
L 261.083998 366.555571 
L 264.863398 366.185282 
L 272.05645 366.038272 
L 290.709619 365.962695 
L 294.367103 366.032439 
L 301.803987 365.926173 
L 305.583388 366.050262 
L 309.362788 365.920828 
L 316.55584 366.010324 
L 338.866493 366.077305 
L 342.645893 366.934604 
L 379.830315 366.819655 
L 394.704084 367.112412 
L 409.33402 367.073946 
L 413.113421 366.742033 
L 435.424074 366.735765 
L 439.203474 366.86997 
L 461.270295 366.889966 
L 476.26598 366.987495 
L 483.702864 367.025338 
L 490.895916 366.77753 
L 520.76537 366.474303 
L 528.202254 366.55271 
L 535.517222 366.478685 
L 539.296623 366.556085 
L 546.733507 366.348739 
L 580.016612 366.510248 
L 583.796013 366.628168 
L 602.449182 366.685311 
L 609.886066 366.764537 
L 613.54355 366.730487 
L 617.32295 366.845386 
L 628.295403 366.900936 
L 631.952887 367.00441 
L 635.732287 366.92288 
L 639.389771 367.037009 
L 643.169171 366.946686 
L 654.385456 367.094429 
L 658.04294 366.961984 
L 661.82234 367.119297 
L 665.601741 367.038195 
L 669.015392 367.13533 
L 676.452277 367.01082 
L 687.668561 367.06842 
L 698.884846 367.19493 
L 702.54233 367.060122 
L 713.636699 367.088194 
L 747.163636 367.12968 
L 747.163636 367.12968 
" clip-path="url(#p24506a97bc)" style="fill: none; stroke: #ffff99; stroke-width: 1.5; stroke-linecap: square"/>
   </g>
   <g id="line2d_52">
    <path d="M 138.436364 369.262626 
L 747.163636 369.237032 
L 747.163636 369.237032 
" clip-path="url(#p24506a97bc)" style="fill: none; stroke: #b15928; stroke-width: 1.5; stroke-linecap: square"/>
   </g>
   <g id="line2d_53">
    <path d="M 138.436364 199.613305 
L 153.310132 202.735764 
L 157.089533 203.529175 
L 160.747017 185.715805 
L 168.183901 187.225846 
L 186.715154 191.141716 
L 197.931439 193.470763 
L 205.368323 195.031993 
L 272.05645 209.031869 
L 275.713934 177.218622 
L 398.483484 202.966109 
L 401.897136 185.050363 
L 409.33402 186.637186 
L 424.329705 189.759645 
L 439.203474 192.907697 
L 442.982874 175.043139 
L 628.295403 213.945902 
L 631.952887 177.474561 
L 646.948572 180.59702 
L 654.385456 182.158249 
L 747.163636 201.660819 
L 747.163636 201.660819 
" clip-path="url(#p24506a97bc)" style="fill: none; stroke: #a6cee3; stroke-width: 1.5; stroke-linecap: square"/>
   </g>
   <g id="line2d_54">
    <path d="M 138.436364 366.807667 
L 145.873248 366.609224 
L 149.530732 366.669199 
L 157.089533 366.445716 
L 160.747017 366.86956 
L 168.183901 366.777413 
L 171.963301 366.800003 
L 175.742702 366.652726 
L 179.27827 366.744968 
L 190.494554 366.69573 
L 197.931439 366.377189 
L 209.147723 366.475923 
L 223.77766 366.298394 
L 227.55706 366.260313 
L 231.214544 366.04619 
L 234.993944 366.448655 
L 246.210229 366.730839 
L 253.647113 366.676631 
L 257.304597 366.789742 
L 261.083998 366.733112 
L 264.863398 366.80414 
L 272.05645 366.651608 
L 279.493334 366.569878 
L 283.150818 366.49559 
L 298.146503 366.572944 
L 312.77644 366.425537 
L 342.645893 366.569008 
L 376.050915 366.494791 
L 383.487799 366.523406 
L 398.483484 366.907712 
L 401.897136 366.313463 
L 405.676536 366.204592 
L 413.113421 366.212582 
L 420.550305 366.108182 
L 435.424074 366.220423 
L 439.203474 366.284973 
L 442.982874 366.68035 
L 472.486579 366.771139 
L 479.923464 367.102038 
L 483.702864 366.944781 
L 502.112201 366.83807 
L 505.769685 366.672219 
L 509.549085 366.698658 
L 516.985969 366.547995 
L 520.76537 366.490444 
L 524.422854 366.570384 
L 535.517222 366.445275 
L 539.296623 366.702402 
L 554.170391 366.355025 
L 565.386676 366.494532 
L 572.82356 366.256512 
L 580.016612 366.440508 
L 583.796013 366.633091 
L 598.669781 366.628662 
L 602.449182 366.612614 
L 609.886066 366.743283 
L 621.102351 366.744801 
L 628.295403 366.8334 
L 631.952887 367.225322 
L 635.732287 367.135361 
L 639.389771 367.161132 
L 643.169171 367.066695 
L 654.385456 367.361566 
L 658.04294 367.178152 
L 747.163636 367.397956 
L 747.163636 367.397956 
" clip-path="url(#p24506a97bc)" style="fill: none; stroke: #1f78b4; stroke-width: 1.5; stroke-linecap: square"/>
   </g>
   <g id="line2d_55">
    <path d="M 138.436364 366.747842 
L 145.873248 366.512536 
L 149.530732 366.664365 
L 157.089533 366.403415 
L 160.747017 366.81336 
L 168.183901 366.688705 
L 171.963301 366.793942 
L 175.742702 366.630136 
L 179.27827 366.7064 
L 194.152038 366.494208 
L 197.931439 366.354598 
L 209.147723 366.402643 
L 227.55706 366.204113 
L 231.214544 365.97291 
L 234.993944 366.357743 
L 238.651428 366.549783 
L 246.210229 366.690067 
L 253.647113 366.6028 
L 261.083998 366.725399 
L 264.863398 366.778244 
L 272.05645 366.594857 
L 305.583388 366.491985 
L 309.362788 366.296645 
L 316.55584 366.397518 
L 342.645893 366.492973 
L 346.303377 366.478165 
L 350.082778 366.593045 
L 379.830315 366.416752 
L 387.2672 366.558245 
L 394.704084 366.879517 
L 398.483484 366.881265 
L 401.897136 366.259432 
L 405.676536 366.127099 
L 435.424074 366.100274 
L 439.203474 366.271465 
L 442.982874 366.65074 
L 472.486579 366.70527 
L 479.923464 366.998099 
L 498.3328 366.782779 
L 535.517222 366.395723 
L 539.296623 366.63472 
L 550.390991 366.32967 
L 576.602961 366.271129 
L 587.453497 366.571416 
L 591.232897 366.470735 
L 594.890381 366.6185 
L 606.106666 366.640392 
L 628.295403 366.765114 
L 631.952887 367.145981 
L 635.732287 367.03949 
L 639.389771 367.14901 
L 643.169171 367.037493 
L 654.385456 367.281674 
L 658.04294 367.08173 
L 661.82234 367.172247 
L 665.601741 367.077556 
L 669.015392 367.175492 
L 680.231677 367.085248 
L 698.884846 367.287063 
L 702.54233 367.133152 
L 717.416099 367.205773 
L 736.069268 367.314852 
L 739.726752 367.235044 
L 743.506152 367.355623 
L 747.163636 367.29933 
L 747.163636 367.29933 
" clip-path="url(#p24506a97bc)" style="fill: none; stroke: #b2df8a; stroke-width: 1.5; stroke-linecap: square"/>
   </g>
   <g id="line2d_56">
    <path d="M 138.436364 369.211438 
L 747.163636 369.230634 
L 747.163636 369.230634 
" clip-path="url(#p24506a97bc)" style="fill: none; stroke: #33a02c; stroke-width: 1.5; stroke-linecap: square"/>
   </g>
   <g id="line2d_57">
    <path d="M 138.436364 111.109518 
L 153.310132 114.231977 
L 183.05767 120.502488 
L 186.715154 84.005553 
L 197.931439 86.3346 
L 205.368323 87.895829 
L 401.897136 129.153234 
L 405.676536 83.416893 
L 424.329705 87.281575 
L 439.203474 90.429628 
L 457.612811 94.268716 
L 472.486579 97.391175 
L 646.948572 134.016079 
L 650.606056 81.267003 
L 658.04294 82.777045 
L 676.452277 86.667321 
L 691.447962 89.78978 
L 706.32173 92.937832 
L 721.073583 96.034697 
L 736.069268 99.18275 
L 747.163636 101.511797 
L 747.163636 101.511797 
" clip-path="url(#p24506a97bc)" style="fill: none; stroke: #fb9a99; stroke-width: 1.5; stroke-linecap: square"/>
   </g>
   <g id="line2d_58">
    <path d="M 138.436364 366.881218 
L 145.873248 366.666865 
L 149.530732 366.745778 
L 157.089533 366.5375 
L 160.747017 366.704809 
L 164.526417 366.599717 
L 171.963301 366.654578 
L 175.742702 366.519151 
L 179.27827 366.607014 
L 183.05767 366.572331 
L 186.715154 366.7367 
L 190.494554 366.779573 
L 194.152038 366.535717 
L 197.931439 366.4082 
L 209.147723 366.497007 
L 227.55706 366.198187 
L 231.214544 365.938815 
L 234.993944 366.463609 
L 246.210229 366.81593 
L 249.867713 366.715069 
L 253.647113 366.731926 
L 257.304597 366.87284 
L 261.083998 366.800629 
L 264.863398 366.886871 
L 268.27705 366.745264 
L 290.709619 366.493477 
L 294.367103 366.604937 
L 305.583388 366.472997 
L 309.362788 366.292902 
L 316.55584 366.433299 
L 327.650208 366.608068 
L 331.429609 366.515947 
L 350.082778 366.604356 
L 368.614031 366.598334 
L 372.271515 366.433635 
L 383.487799 366.475413 
L 398.483484 366.934082 
L 401.897136 366.901296 
L 405.676536 366.717162 
L 416.770905 366.670287 
L 427.987189 366.632012 
L 431.76659 366.742985 
L 442.982874 366.816889 
L 472.486579 366.906972 
L 479.923464 367.258104 
L 483.702864 367.096125 
L 502.112201 366.988602 
L 505.769685 366.806919 
L 509.549085 366.835265 
L 516.985969 366.672624 
L 520.76537 366.611412 
L 524.422854 366.688656 
L 535.517222 366.55253 
L 539.296623 366.85688 
L 554.170391 366.531885 
L 565.386676 366.660649 
L 572.82356 366.407113 
L 580.016612 366.579852 
L 583.796013 366.821492 
L 598.669781 366.765761 
L 602.449182 366.741873 
L 609.886066 366.864333 
L 621.102351 366.884825 
L 631.952887 367.187032 
L 635.732287 367.089185 
L 639.389771 367.112915 
L 643.169171 367.004038 
L 654.385456 367.34285 
L 658.04294 367.121549 
L 680.231677 367.147324 
L 687.668561 367.120276 
L 698.884846 367.355063 
L 706.32173 367.169842 
L 721.073583 367.314825 
L 736.069268 367.36624 
L 739.726752 367.296133 
L 743.506152 367.449833 
L 747.163636 367.416651 
L 747.163636 367.416651 
" clip-path="url(#p24506a97bc)" style="fill: none; stroke: #e31a1c; stroke-width: 1.5; stroke-linecap: square"/>
   </g>
   <g id="line2d_59">
    <path d="M 138.436364 366.821392 
L 145.873248 366.570177 
L 149.530732 366.740943 
L 157.089533 366.495199 
L 160.747017 366.64317 
L 164.526417 366.520554 
L 168.183901 366.51567 
L 171.963301 366.64793 
L 175.742702 366.494375 
L 179.27827 366.564713 
L 183.05767 366.510692 
L 186.715154 366.663971 
L 190.494554 366.690314 
L 197.931439 366.38561 
L 209.147723 366.423727 
L 212.805207 366.367688 
L 216.584608 366.430968 
L 223.77766 366.212594 
L 227.55706 366.141987 
L 231.214544 365.865535 
L 234.993944 366.372698 
L 238.651428 366.600519 
L 246.210229 366.775158 
L 249.867713 366.658318 
L 253.647113 366.658095 
L 257.304597 366.781928 
L 268.27705 366.704491 
L 283.150818 366.536482 
L 286.930219 366.555143 
L 290.709619 366.452704 
L 294.367103 366.547636 
L 316.55584 366.375997 
L 327.650208 366.600905 
L 331.429609 366.490602 
L 357.397746 366.556543 
L 364.83463 366.404664 
L 368.614031 366.506321 
L 376.050915 366.416403 
L 383.487799 366.415356 
L 398.483484 366.907635 
L 427.987189 366.570017 
L 431.76659 366.663928 
L 435.424074 366.637797 
L 439.203474 366.781773 
L 472.486579 366.844978 
L 479.923464 367.160278 
L 494.675316 366.934956 
L 502.112201 366.890776 
L 516.985969 366.610061 
L 520.76537 366.531218 
L 528.202254 366.598185 
L 535.517222 366.505893 
L 539.296623 366.79318 
L 550.390991 366.510925 
L 580.016612 366.533783 
L 583.796013 366.755517 
L 613.54355 366.756691 
L 617.32295 366.891397 
L 624.516002 366.923458 
L 628.295403 366.928818 
L 631.952887 367.105131 
L 635.732287 366.990222 
L 639.389771 367.100403 
L 643.169171 366.973894 
L 654.385456 367.312137 
L 658.04294 367.073774 
L 691.447962 367.133988 
L 695.105446 367.324571 
L 698.884846 367.323782 
L 706.32173 367.103297 
L 713.636699 367.103584 
L 721.073583 367.282975 
L 747.163636 367.3666 
L 747.163636 367.3666 
" clip-path="url(#p24506a97bc)" style="fill: none; stroke: #fdbf6f; stroke-width: 1.5; stroke-linecap: square"/>
   </g>
   <g id="line2d_60">
    <path d="M 138.436364 369.211438 
L 747.163636 369.224235 
L 747.163636 369.224235 
" clip-path="url(#p24506a97bc)" style="fill: none; stroke: #ff7f00; stroke-width: 1.5; stroke-linecap: square"/>
   </g>
   <g id="line2d_61">
    <path d="M 138.436364 92.477142 
L 153.310132 95.5996 
L 279.493334 122.114905 
L 283.150818 66.96 
L 509.549085 114.487916 
L 513.328485 78.042169 
L 528.202254 81.164627 
L 535.517222 82.700263 
L 550.390991 85.797128 
L 557.949792 87.383951 
L 736.069268 124.802267 
L 739.726752 88.305332 
L 747.163636 89.866561 
L 747.163636 89.866561 
" clip-path="url(#p24506a97bc)" style="fill: none; stroke: #cab2d6; stroke-width: 1.5; stroke-linecap: square"/>
   </g>
   <g id="line2d_62">
    <path d="M 138.436364 358.286497 
L 142.093848 357.367838 
L 145.873248 357.061494 
L 149.530732 357.676872 
L 153.310132 356.596451 
L 157.089533 356.716852 
L 160.747017 357.474765 
L 164.526417 356.882641 
L 168.183901 356.965251 
L 171.963301 356.81397 
L 175.742702 356.180772 
L 179.27827 356.498029 
L 183.05767 356.554746 
L 186.715154 356.264027 
L 190.494554 356.288198 
L 194.152038 354.678009 
L 197.931439 353.543783 
L 201.710839 354.017344 
L 205.368323 353.469434 
L 209.147723 353.662129 
L 212.805207 353.614604 
L 216.584608 353.324273 
L 220.364008 352.891562 
L 223.77766 352.848024 
L 227.55706 352.257942 
L 231.214544 350.758754 
L 234.993944 354.197183 
L 238.651428 355.101154 
L 246.210229 356.262418 
L 249.867713 355.430579 
L 257.304597 356.34908 
L 261.083998 356.109036 
L 264.863398 356.415665 
L 268.27705 355.737565 
L 272.05645 355.643564 
L 275.713934 355.318125 
L 279.493334 354.620385 
L 283.150818 354.48999 
L 286.930219 354.497196 
L 290.709619 354.133266 
L 294.367103 354.887162 
L 298.146503 354.821591 
L 301.803987 354.560687 
L 305.583388 353.918733 
L 309.362788 353.500484 
L 312.77644 354.061758 
L 320.213324 354.868389 
L 323.992724 354.716139 
L 327.650208 354.932359 
L 331.429609 354.666369 
L 338.866493 355.030201 
L 342.645893 354.914275 
L 346.303377 354.972449 
L 350.082778 355.548404 
L 361.177146 354.80851 
L 364.83463 354.501215 
L 368.614031 355.200777 
L 372.271515 353.904125 
L 376.050915 353.367662 
L 379.830315 353.502613 
L 383.487799 353.454766 
L 387.2672 354.45933 
L 390.924684 354.790519 
L 398.483484 354.737956 
L 401.897136 354.45483 
L 405.676536 353.862231 
L 413.113421 353.860929 
L 420.550305 353.53241 
L 427.987189 353.376731 
L 431.76659 353.82319 
L 435.424074 353.589986 
L 442.982874 353.439187 
L 446.396526 353.771325 
L 457.612811 353.738675 
L 461.270295 353.522797 
L 465.049695 353.067403 
L 468.829095 353.285093 
L 472.486579 353.360771 
L 476.26598 354.303007 
L 479.923464 355.04096 
L 483.702864 353.772254 
L 487.482264 354.120379 
L 490.895916 354.163264 
L 498.3328 353.313645 
L 502.112201 353.218876 
L 505.769685 352.149808 
L 509.549085 352.248292 
L 513.328485 351.73961 
L 516.985969 351.454025 
L 520.76537 351.021232 
L 524.422854 351.3384 
L 528.202254 351.153443 
L 531.981654 350.697292 
L 535.517222 350.480561 
L 539.296623 352.035832 
L 542.954107 352.199684 
L 546.733507 350.411672 
L 550.390991 349.928758 
L 554.170391 349.643477 
L 557.949792 349.594476 
L 561.607276 349.845138 
L 565.386676 350.490654 
L 569.04416 349.434075 
L 572.82356 348.737187 
L 576.602961 347.324205 
L 580.016612 348.999853 
L 583.796013 350.150468 
L 587.453497 350.760952 
L 591.232897 350.466724 
L 594.890381 350.300813 
L 598.669781 349.664257 
L 602.449182 349.589388 
L 606.106666 349.793701 
L 609.886066 349.50832 
L 613.54355 349.691605 
L 617.32295 349.434526 
L 621.102351 350.585673 
L 624.516002 350.83543 
L 628.295403 350.305287 
L 631.952887 350.870732 
L 635.732287 350.605308 
L 639.389771 350.589135 
L 643.169171 350.351991 
L 646.948572 350.895374 
L 650.606056 351.567244 
L 654.385456 352.10965 
L 658.04294 350.508956 
L 661.82234 350.58697 
L 665.601741 349.99082 
L 669.015392 350.626662 
L 672.794793 350.272319 
L 676.452277 351.321898 
L 683.889161 350.800846 
L 687.668561 350.819499 
L 695.105446 352.05656 
L 698.884846 352.120825 
L 702.54233 350.727168 
L 706.32173 349.998024 
L 710.101131 350.088384 
L 713.636699 350.510525 
L 717.416099 351.322829 
L 721.073583 351.974755 
L 724.852983 351.910803 
L 728.510467 351.706642 
L 732.289868 351.924149 
L 736.069268 351.920983 
L 739.726752 351.333521 
L 743.506152 352.252873 
L 747.163636 352.819094 
L 747.163636 352.819094 
" clip-path="url(#p24506a97bc)" style="fill: none; stroke: #6a3d9a; stroke-width: 1.5; stroke-linecap: square"/>
   </g>
   <g id="line2d_63">
    <path d="M 138.436364 358.1573 
L 142.093848 357.198118 
L 145.873248 356.853162 
L 149.530732 357.666511 
L 153.310132 356.545792 
L 157.089533 356.625602 
L 160.747017 357.341582 
L 164.526417 356.710857 
L 171.963301 356.799286 
L 175.742702 356.125571 
L 179.27827 356.403293 
L 183.05767 356.416673 
L 186.715154 356.085532 
L 190.494554 356.069774 
L 194.152038 354.663173 
L 197.931439 353.488181 
L 201.710839 353.916602 
L 205.368323 353.330023 
L 209.147723 353.479456 
L 216.584608 353.306246 
L 220.364008 352.831754 
L 223.77766 352.748719 
L 227.55706 352.11456 
L 231.214544 350.570744 
L 234.993944 353.96449 
L 238.651428 355.085664 
L 246.210229 356.15818 
L 249.867713 355.285007 
L 257.304597 356.113197 
L 261.083998 356.088886 
L 264.863398 356.34738 
L 268.27705 355.629596 
L 272.05645 355.492844 
L 275.713934 355.121924 
L 279.493334 354.3796 
L 283.150818 354.472479 
L 286.930219 354.434341 
L 290.709619 354.024759 
L 294.367103 354.73397 
L 298.146503 354.618801 
L 305.583388 353.89624 
L 309.362788 353.429859 
L 312.77644 353.950512 
L 320.213324 354.661554 
L 323.992724 354.468014 
L 327.650208 354.91285 
L 331.429609 354.597225 
L 338.866493 354.871621 
L 342.645893 354.70492 
L 346.303377 354.71931 
L 350.082778 355.520841 
L 357.397746 355.031891 
L 364.83463 354.288998 
L 368.614031 354.943352 
L 372.271515 353.881025 
L 376.050915 353.296721 
L 379.830315 353.383565 
L 383.487799 353.285502 
L 387.2672 354.24367 
L 394.704084 354.778575 
L 398.483484 354.661225 
L 401.897136 354.331889 
L 405.676536 353.684714 
L 416.770905 353.633771 
L 427.987189 353.196292 
L 431.76659 353.592447 
L 435.424074 353.306892 
L 439.203474 353.500781 
L 442.982874 353.355953 
L 446.396526 353.639865 
L 457.612811 353.450086 
L 461.270295 353.492013 
L 465.049695 352.984934 
L 468.829095 353.145152 
L 472.486579 353.171443 
L 476.26598 354.058833 
L 479.923464 354.738912 
L 483.702864 353.736815 
L 487.482264 354.031539 
L 490.895916 354.024622 
L 498.3328 353.063738 
L 502.112201 352.912244 
L 505.769685 352.11777 
L 509.549085 352.160846 
L 513.328485 351.594797 
L 516.985969 351.257198 
L 520.76537 350.767918 
L 524.422854 351.027224 
L 528.202254 351.113392 
L 531.981654 350.596495 
L 535.517222 350.329887 
L 539.296623 351.828818 
L 542.954107 351.934749 
L 546.733507 350.095488 
L 550.390991 349.892101 
L 554.170391 349.545502 
L 557.949792 349.44229 
L 561.607276 349.63651 
L 565.386676 350.219551 
L 569.04416 349.109269 
L 572.82356 348.690186 
L 576.602961 347.222101 
L 580.016612 348.845429 
L 583.796013 349.927474 
L 587.453497 350.482802 
L 591.232897 350.131645 
L 594.890381 350.260013 
L 598.669781 349.560676 
L 602.449182 349.426506 
L 606.106666 349.571192 
L 609.886066 349.22279 
L 617.32295 349.383981 
L 621.102351 350.476251 
L 624.516002 350.668034 
L 628.295403 350.072477 
L 631.952887 350.57127 
L 635.732287 350.242618 
L 639.389771 350.543064 
L 643.169171 350.240025 
L 646.948572 350.716761 
L 650.606056 351.318671 
L 654.385456 351.797426 
L 658.04294 350.129794 
L 661.82234 350.532579 
L 665.601741 349.870573 
L 669.015392 350.443933 
L 672.794793 350.015772 
L 676.452277 351.001009 
L 680.231677 350.698676 
L 687.668561 350.699861 
L 695.105446 351.796806 
L 698.884846 351.792677 
L 702.54233 350.329534 
L 706.32173 349.938972 
L 710.101131 349.959981 
L 713.636699 350.314528 
L 717.416099 351.055033 
L 721.073583 351.634831 
L 724.852983 351.496142 
L 732.289868 351.79343 
L 736.069268 351.714499 
L 739.726752 351.056743 
L 743.506152 351.904972 
L 747.163636 352.395487 
L 747.163636 352.395487 
" clip-path="url(#p24506a97bc)" style="fill: none; stroke: #ffff99; stroke-width: 1.5; stroke-linecap: square"/>
   </g>
   <g id="patch_3">
    <path d="M 108 384.48 
L 108 51.84 
" style="fill: none; stroke: #000000; stroke-width: 0.8; stroke-linejoin: miter; stroke-linecap: square"/>
   </g>
   <g id="patch_4">
    <path d="M 777.6 384.48 
L 777.6 51.84 
" style="fill: none; stroke: #000000; stroke-width: 0.8; stroke-linejoin: miter; stroke-linecap: square"/>
   </g>
   <g id="patch_5">
    <path d="M 108 384.48 
L 777.6 384.48 
" style="fill: none; stroke: #000000; stroke-width: 0.8; stroke-linejoin: miter; stroke-linecap: square"/>
   </g>
   <g id="patch_6">
    <path d="M 108 51.84 
L 777.6 51.84 
" style="fill: none; stroke: #000000; stroke-width: 0.8; stroke-linejoin: miter; stroke-linecap: square"/>
   </g>
   <g id="text_15">
    <!-- Precio de Ttulos Gubernamentales -->
    <g transform="translate(304.108125 45.84) scale(0.14 -0.14)">
     <defs>
      <path id="DejaVuSans-Bold-50" d="M 588 4666 
L 2584 4666 
Q 3475 4666 3951 4270 
Q 4428 3875 4428 3144 
Q 4428 2409 3951 2014 
Q 3475 1619 2584 1619 
L 1791 1619 
L 1791 0 
L 588 0 
L 588 4666 
z
M 1791 3794 
L 1791 2491 
L 2456 2491 
Q 2806 2491 2997 2661 
Q 3188 2831 3188 3144 
Q 3188 3456 2997 3625 
Q 2806 3794 2456 3794 
L 1791 3794 
z
" transform="scale(0.015625)"/>
      <path id="DejaVuSans-Bold-72" d="M 3138 2547 
Q 2991 2616 2845 2648 
Q 2700 2681 2553 2681 
Q 2122 2681 1889 2404 
Q 1656 2128 1656 1613 
L 1656 0 
L 538 0 
L 538 3500 
L 1656 3500 
L 1656 2925 
Q 1872 3269 2151 3426 
Q 2431 3584 2822 3584 
Q 2878 3584 2943 3579 
Q 3009 3575 3134 3559 
L 3138 2547 
z
" transform="scale(0.015625)"/>
      <path id="DejaVuSans-Bold-65" d="M 4031 1759 
L 4031 1441 
L 1416 1441 
Q 1456 1047 1700 850 
Q 1944 653 2381 653 
Q 2734 653 3104 758 
Q 3475 863 3866 1075 
L 3866 213 
Q 3469 63 3072 -14 
Q 2675 -91 2278 -91 
Q 1328 -91 801 392 
Q 275 875 275 1747 
Q 275 2603 792 3093 
Q 1309 3584 2216 3584 
Q 3041 3584 3536 3087 
Q 4031 2591 4031 1759 
z
M 2881 2131 
Q 2881 2450 2695 2645 
Q 2509 2841 2209 2841 
Q 1884 2841 1681 2658 
Q 1478 2475 1428 2131 
L 2881 2131 
z
" transform="scale(0.015625)"/>
      <path id="DejaVuSans-Bold-63" d="M 3366 3391 
L 3366 2478 
Q 3138 2634 2908 2709 
Q 2678 2784 2431 2784 
Q 1963 2784 1702 2511 
Q 1441 2238 1441 1747 
Q 1441 1256 1702 982 
Q 1963 709 2431 709 
Q 2694 709 2930 787 
Q 3166 866 3366 1019 
L 3366 103 
Q 3103 6 2833 -42 
Q 2563 -91 2291 -91 
Q 1344 -91 809 395 
Q 275 881 275 1747 
Q 275 2613 809 3098 
Q 1344 3584 2291 3584 
Q 2566 3584 2833 3536 
Q 3100 3488 3366 3391 
z
" transform="scale(0.015625)"/>
      <path id="DejaVuSans-Bold-69" d="M 538 3500 
L 1656 3500 
L 1656 0 
L 538 0 
L 538 3500 
z
M 538 4863 
L 1656 4863 
L 1656 3950 
L 538 3950 
L 538 4863 
z
" transform="scale(0.015625)"/>
      <path id="DejaVuSans-Bold-6f" d="M 2203 2784 
Q 1831 2784 1636 2517 
Q 1441 2250 1441 1747 
Q 1441 1244 1636 976 
Q 1831 709 2203 709 
Q 2569 709 2762 976 
Q 2956 1244 2956 1747 
Q 2956 2250 2762 2517 
Q 2569 2784 2203 2784 
z
M 2203 3584 
Q 3106 3584 3614 3096 
Q 4122 2609 4122 1747 
Q 4122 884 3614 396 
Q 3106 -91 2203 -91 
Q 1297 -91 786 396 
Q 275 884 275 1747 
Q 275 2609 786 3096 
Q 1297 3584 2203 3584 
z
" transform="scale(0.015625)"/>
      <path id="DejaVuSans-Bold-20" transform="scale(0.015625)"/>
      <path id="DejaVuSans-Bold-64" d="M 2919 2988 
L 2919 4863 
L 4044 4863 
L 4044 0 
L 2919 0 
L 2919 506 
Q 2688 197 2409 53 
Q 2131 -91 1766 -91 
Q 1119 -91 703 423 
Q 288 938 288 1747 
Q 288 2556 703 3070 
Q 1119 3584 1766 3584 
Q 2128 3584 2408 3439 
Q 2688 3294 2919 2988 
z
M 2181 722 
Q 2541 722 2730 984 
Q 2919 1247 2919 1747 
Q 2919 2247 2730 2509 
Q 2541 2772 2181 2772 
Q 1825 2772 1636 2509 
Q 1447 2247 1447 1747 
Q 1447 1247 1636 984 
Q 1825 722 2181 722 
z
" transform="scale(0.015625)"/>
      <path id="DejaVuSans-Bold-54" d="M 31 4666 
L 4331 4666 
L 4331 3756 
L 2784 3756 
L 2784 0 
L 1581 0 
L 1581 3756 
L 31 3756 
L 31 4666 
z
" transform="scale(0.015625)"/>
      <path id="DejaVuSans-Bold-ed" d="M 538 3500 
L 1656 3500 
L 1656 0 
L 538 0 
L 538 3500 
z
M 1594 5119 
L 2478 5119 
L 1325 3944 
L 713 3944 
L 1594 5119 
z
" transform="scale(0.015625)"/>
      <path id="DejaVuSans-Bold-74" d="M 1759 4494 
L 1759 3500 
L 2913 3500 
L 2913 2700 
L 1759 2700 
L 1759 1216 
Q 1759 972 1856 886 
Q 1953 800 2241 800 
L 2816 800 
L 2816 0 
L 1856 0 
Q 1194 0 917 276 
Q 641 553 641 1216 
L 641 2700 
L 84 2700 
L 84 3500 
L 641 3500 
L 641 4494 
L 1759 4494 
z
" transform="scale(0.015625)"/>
      <path id="DejaVuSans-Bold-75" d="M 500 1363 
L 500 3500 
L 1625 3500 
L 1625 3150 
Q 1625 2866 1622 2436 
Q 1619 2006 1619 1863 
Q 1619 1441 1641 1255 
Q 1663 1069 1716 984 
Q 1784 875 1895 815 
Q 2006 756 2150 756 
Q 2500 756 2700 1025 
Q 2900 1294 2900 1772 
L 2900 3500 
L 4019 3500 
L 4019 0 
L 2900 0 
L 2900 506 
Q 2647 200 2364 54 
Q 2081 -91 1741 -91 
Q 1134 -91 817 281 
Q 500 653 500 1363 
z
" transform="scale(0.015625)"/>
      <path id="DejaVuSans-Bold-6c" d="M 538 4863 
L 1656 4863 
L 1656 0 
L 538 0 
L 538 4863 
z
" transform="scale(0.015625)"/>
      <path id="DejaVuSans-Bold-73" d="M 3272 3391 
L 3272 2541 
Q 2913 2691 2578 2766 
Q 2244 2841 1947 2841 
Q 1628 2841 1473 2761 
Q 1319 2681 1319 2516 
Q 1319 2381 1436 2309 
Q 1553 2238 1856 2203 
L 2053 2175 
Q 2913 2066 3209 1816 
Q 3506 1566 3506 1031 
Q 3506 472 3093 190 
Q 2681 -91 1863 -91 
Q 1516 -91 1145 -36 
Q 775 19 384 128 
L 384 978 
Q 719 816 1070 734 
Q 1422 653 1784 653 
Q 2113 653 2278 743 
Q 2444 834 2444 1013 
Q 2444 1163 2330 1236 
Q 2216 1309 1875 1350 
L 1678 1375 
Q 931 1469 631 1722 
Q 331 1975 331 2491 
Q 331 3047 712 3315 
Q 1094 3584 1881 3584 
Q 2191 3584 2531 3537 
Q 2872 3491 3272 3391 
z
" transform="scale(0.015625)"/>
      <path id="DejaVuSans-Bold-47" d="M 4781 347 
Q 4331 128 3847 18 
Q 3363 -91 2847 -91 
Q 1681 -91 1000 561 
Q 319 1213 319 2328 
Q 319 3456 1012 4103 
Q 1706 4750 2913 4750 
Q 3378 4750 3804 4662 
Q 4231 4575 4609 4403 
L 4609 3438 
Q 4219 3659 3833 3768 
Q 3447 3878 3059 3878 
Q 2341 3878 1952 3476 
Q 1563 3075 1563 2328 
Q 1563 1588 1938 1184 
Q 2313 781 3003 781 
Q 3191 781 3352 804 
Q 3513 828 3641 878 
L 3641 1784 
L 2906 1784 
L 2906 2591 
L 4781 2591 
L 4781 347 
z
" transform="scale(0.015625)"/>
      <path id="DejaVuSans-Bold-62" d="M 2400 722 
Q 2759 722 2948 984 
Q 3138 1247 3138 1747 
Q 3138 2247 2948 2509 
Q 2759 2772 2400 2772 
Q 2041 2772 1848 2508 
Q 1656 2244 1656 1747 
Q 1656 1250 1848 986 
Q 2041 722 2400 722 
z
M 1656 2988 
Q 1888 3294 2169 3439 
Q 2450 3584 2816 3584 
Q 3463 3584 3878 3070 
Q 4294 2556 4294 1747 
Q 4294 938 3878 423 
Q 3463 -91 2816 -91 
Q 2450 -91 2169 54 
Q 1888 200 1656 506 
L 1656 0 
L 538 0 
L 538 4863 
L 1656 4863 
L 1656 2988 
z
" transform="scale(0.015625)"/>
      <path id="DejaVuSans-Bold-6e" d="M 4056 2131 
L 4056 0 
L 2931 0 
L 2931 347 
L 2931 1631 
Q 2931 2084 2911 2256 
Q 2891 2428 2841 2509 
Q 2775 2619 2662 2680 
Q 2550 2741 2406 2741 
Q 2056 2741 1856 2470 
Q 1656 2200 1656 1722 
L 1656 0 
L 538 0 
L 538 3500 
L 1656 3500 
L 1656 2988 
Q 1909 3294 2193 3439 
Q 2478 3584 2822 3584 
Q 3428 3584 3742 3212 
Q 4056 2841 4056 2131 
z
" transform="scale(0.015625)"/>
      <path id="DejaVuSans-Bold-61" d="M 2106 1575 
Q 1756 1575 1579 1456 
Q 1403 1338 1403 1106 
Q 1403 894 1545 773 
Q 1688 653 1941 653 
Q 2256 653 2472 879 
Q 2688 1106 2688 1447 
L 2688 1575 
L 2106 1575 
z
M 3816 1997 
L 3816 0 
L 2688 0 
L 2688 519 
Q 2463 200 2181 54 
Q 1900 -91 1497 -91 
Q 953 -91 614 226 
Q 275 544 275 1050 
Q 275 1666 698 1953 
Q 1122 2241 2028 2241 
L 2688 2241 
L 2688 2328 
Q 2688 2594 2478 2717 
Q 2269 2841 1825 2841 
Q 1466 2841 1156 2769 
Q 847 2697 581 2553 
L 581 3406 
Q 941 3494 1303 3539 
Q 1666 3584 2028 3584 
Q 2975 3584 3395 3211 
Q 3816 2838 3816 1997 
z
" transform="scale(0.015625)"/>
      <path id="DejaVuSans-Bold-6d" d="M 3781 2919 
Q 3994 3244 4286 3414 
Q 4578 3584 4928 3584 
Q 5531 3584 5847 3212 
Q 6163 2841 6163 2131 
L 6163 0 
L 5038 0 
L 5038 1825 
Q 5041 1866 5042 1909 
Q 5044 1953 5044 2034 
Q 5044 2406 4934 2573 
Q 4825 2741 4581 2741 
Q 4263 2741 4089 2478 
Q 3916 2216 3909 1719 
L 3909 0 
L 2784 0 
L 2784 1825 
Q 2784 2406 2684 2573 
Q 2584 2741 2328 2741 
Q 2006 2741 1831 2477 
Q 1656 2213 1656 1722 
L 1656 0 
L 531 0 
L 531 3500 
L 1656 3500 
L 1656 2988 
Q 1863 3284 2130 3434 
Q 2397 3584 2719 3584 
Q 3081 3584 3359 3409 
Q 3638 3234 3781 2919 
z
" transform="scale(0.015625)"/>
     </defs>
     <use xlink:href="#DejaVuSans-Bold-50"/>
     <use xlink:href="#DejaVuSans-Bold-72" transform="translate(73.291016 0)"/>
     <use xlink:href="#DejaVuSans-Bold-65" transform="translate(122.607422 0)"/>
     <use xlink:href="#DejaVuSans-Bold-63" transform="translate(190.429688 0)"/>
     <use xlink:href="#DejaVuSans-Bold-69" transform="translate(249.707031 0)"/>
     <use xlink:href="#DejaVuSans-Bold-6f" transform="translate(283.984375 0)"/>
     <use xlink:href="#DejaVuSans-Bold-20" transform="translate(352.685547 0)"/>
     <use xlink:href="#DejaVuSans-Bold-64" transform="translate(387.5 0)"/>
     <use xlink:href="#DejaVuSans-Bold-65" transform="translate(459.082031 0)"/>
     <use xlink:href="#DejaVuSans-Bold-20" transform="translate(526.904297 0)"/>
     <use xlink:href="#DejaVuSans-Bold-54" transform="translate(561.71875 0)"/>
     <use xlink:href="#DejaVuSans-Bold-ed" transform="translate(629.931641 0)"/>
     <use xlink:href="#DejaVuSans-Bold-74" transform="translate(664.208984 0)"/>
     <use xlink:href="#DejaVuSans-Bold-75" transform="translate(712.011719 0)"/>
     <use xlink:href="#DejaVuSans-Bold-6c" transform="translate(783.203125 0)"/>
     <use xlink:href="#DejaVuSans-Bold-6f" transform="translate(817.480469 0)"/>
     <use xlink:href="#DejaVuSans-Bold-73" transform="translate(886.181641 0)"/>
     <use xlink:href="#DejaVuSans-Bold-20" transform="translate(945.703125 0)"/>
     <use xlink:href="#DejaVuSans-Bold-47" transform="translate(980.517578 0)"/>
     <use xlink:href="#DejaVuSans-Bold-75" transform="translate(1062.597656 0)"/>
     <use xlink:href="#DejaVuSans-Bold-62" transform="translate(1133.789062 0)"/>
     <use xlink:href="#DejaVuSans-Bold-65" transform="translate(1205.371094 0)"/>
     <use xlink:href="#DejaVuSans-Bold-72" transform="translate(1273.193359 0)"/>
     <use xlink:href="#DejaVuSans-Bold-6e" transform="translate(1322.509766 0)"/>
     <use xlink:href="#DejaVuSans-Bold-61" transform="translate(1393.701172 0)"/>
     <use xlink:href="#DejaVuSans-Bold-6d" transform="translate(1461.181641 0)"/>
     <use xlink:href="#DejaVuSans-Bold-65" transform="translate(1565.380859 0)"/>
     <use xlink:href="#DejaVuSans-Bold-6e" transform="translate(1633.203125 0)"/>
     <use xlink:href="#DejaVuSans-Bold-74" transform="translate(1704.394531 0)"/>
     <use xlink:href="#DejaVuSans-Bold-61" transform="translate(1752.197266 0)"/>
     <use xlink:href="#DejaVuSans-Bold-6c" transform="translate(1819.677734 0)"/>
     <use xlink:href="#DejaVuSans-Bold-65" transform="translate(1853.955078 0)"/>
     <use xlink:href="#DejaVuSans-Bold-73" transform="translate(1921.777344 0)"/>
    </g>
   </g>
  </g>
 </g>
 <defs>
  <clipPath id="p24506a97bc">
   <rect x="108" y="51.84" width="669.6" height="332.64"/>
  </clipPath>
 </defs>
</svg>
