<?xml version="1.0" encoding="utf-8" standalone="no"?>
<!DOCTYPE svg PUBLIC "-//W3C//DTD SVG 1.1//EN"
  "http://www.w3.org/Graphics/SVG/1.1/DTD/svg11.dtd">
<svg xmlns:xlink="http://www.w3.org/1999/xlink" width="864pt" height="432pt" viewBox="0 0 864 432" xmlns="http://www.w3.org/2000/svg" version="1.1">
 <metadata>
  <rdf:RDF xmlns:dc="http://purl.org/dc/elements/1.1/" xmlns:cc="http://creativecommons.org/ns#" xmlns:rdf="http://www.w3.org/1999/02/22-rdf-syntax-ns#">
   <cc:Work>
    <dc:type rdf:resource="http://purl.org/dc/dcmitype/StillImage"/>
    <dc:date>2025-03-03T22:47:28.364865</dc:date>
    <dc:format>image/svg+xml</dc:format>
    <dc:creator>
     <cc:Agent>
      <dc:title>Matplotlib v3.8.4, https://matplotlib.org/</dc:title>
     </cc:Agent>
    </dc:creator>
   </cc:Work>
  </rdf:RDF>
 </metadata>
 <defs>
  <style type="text/css">*{stroke-linejoin: round; stroke-linecap: butt}</style>
 </defs>
 <g id="figure_1">
  <g id="patch_1">
   <path d="M 0 432 
L 864 432 
L 864 0 
L 0 0 
z
" style="fill: #ffffff"/>
  </g>
  <g id="axes_1">
   <g id="patch_2">
    <path d="M 108 384.48 
L 777.6 384.48 
L 777.6 51.84 
L 108 51.84 
z
" style="fill: #ffffff"/>
   </g>
   <g id="matplotlib.axis_1">
    <g id="xtick_1">
     <g id="line2d_1">
      <path d="M 173.464612 384.48 
L 173.464612 51.84 
" clip-path="url(#p4b5185494d)" style="fill: none; stroke-dasharray: 2.96,1.28; stroke-dashoffset: 0; stroke: #b0b0b0; stroke-opacity: 0.5; stroke-width: 0.8"/>
     </g>
     <g id="line2d_2">
      <defs>
       <path id="m33988348ef" d="M 0 0 
L 0 3.5 
" style="stroke: #000000; stroke-width: 0.8"/>
      </defs>
      <g>
       <use xlink:href="#m33988348ef" x="173.464612" y="384.48" style="stroke: #000000; stroke-width: 0.8"/>
      </g>
     </g>
     <g id="text_1">
      <!-- 2012 -->
      <g transform="translate(160.739612 399.078438) scale(0.1 -0.1)">
       <defs>
        <path id="DejaVuSans-32" d="M 1228 531 
L 3431 531 
L 3431 0 
L 469 0 
L 469 531 
Q 828 903 1448 1529 
Q 2069 2156 2228 2338 
Q 2531 2678 2651 2914 
Q 2772 3150 2772 3378 
Q 2772 3750 2511 3984 
Q 2250 4219 1831 4219 
Q 1534 4219 1204 4116 
Q 875 4013 500 3803 
L 500 4441 
Q 881 4594 1212 4672 
Q 1544 4750 1819 4750 
Q 2544 4750 2975 4387 
Q 3406 4025 3406 3419 
Q 3406 3131 3298 2873 
Q 3191 2616 2906 2266 
Q 2828 2175 2409 1742 
Q 1991 1309 1228 531 
z
" transform="scale(0.015625)"/>
        <path id="DejaVuSans-30" d="M 2034 4250 
Q 1547 4250 1301 3770 
Q 1056 3291 1056 2328 
Q 1056 1369 1301 889 
Q 1547 409 2034 409 
Q 2525 409 2770 889 
Q 3016 1369 3016 2328 
Q 3016 3291 2770 3770 
Q 2525 4250 2034 4250 
z
M 2034 4750 
Q 2819 4750 3233 4129 
Q 3647 3509 3647 2328 
Q 3647 1150 3233 529 
Q 2819 -91 2034 -91 
Q 1250 -91 836 529 
Q 422 1150 422 2328 
Q 422 3509 836 4129 
Q 1250 4750 2034 4750 
z
" transform="scale(0.015625)"/>
        <path id="DejaVuSans-31" d="M 794 531 
L 1825 531 
L 1825 4091 
L 703 3866 
L 703 4441 
L 1819 4666 
L 2450 4666 
L 2450 531 
L 3481 531 
L 3481 0 
L 794 0 
L 794 531 
z
" transform="scale(0.015625)"/>
       </defs>
       <use xlink:href="#DejaVuSans-32"/>
       <use xlink:href="#DejaVuSans-30" x="63.623047"/>
       <use xlink:href="#DejaVuSans-31" x="127.246094"/>
       <use xlink:href="#DejaVuSans-32" x="190.869141"/>
      </g>
     </g>
    </g>
    <g id="xtick_2">
     <g id="line2d_3">
      <path d="M 266.576066 384.48 
L 266.576066 51.84 
" clip-path="url(#p4b5185494d)" style="fill: none; stroke-dasharray: 2.96,1.28; stroke-dashoffset: 0; stroke: #b0b0b0; stroke-opacity: 0.5; stroke-width: 0.8"/>
     </g>
     <g id="line2d_4">
      <g>
       <use xlink:href="#m33988348ef" x="266.576066" y="384.48" style="stroke: #000000; stroke-width: 0.8"/>
      </g>
     </g>
     <g id="text_2">
      <!-- 2014 -->
      <g transform="translate(253.851066 399.078438) scale(0.1 -0.1)">
       <defs>
        <path id="DejaVuSans-34" d="M 2419 4116 
L 825 1625 
L 2419 1625 
L 2419 4116 
z
M 2253 4666 
L 3047 4666 
L 3047 1625 
L 3713 1625 
L 3713 1100 
L 3047 1100 
L 3047 0 
L 2419 0 
L 2419 1100 
L 313 1100 
L 313 1709 
L 2253 4666 
z
" transform="scale(0.015625)"/>
       </defs>
       <use xlink:href="#DejaVuSans-32"/>
       <use xlink:href="#DejaVuSans-30" x="63.623047"/>
       <use xlink:href="#DejaVuSans-31" x="127.246094"/>
       <use xlink:href="#DejaVuSans-34" x="190.869141"/>
      </g>
     </g>
    </g>
    <g id="xtick_3">
     <g id="line2d_5">
      <path d="M 359.560144 384.48 
L 359.560144 51.84 
" clip-path="url(#p4b5185494d)" style="fill: none; stroke-dasharray: 2.96,1.28; stroke-dashoffset: 0; stroke: #b0b0b0; stroke-opacity: 0.5; stroke-width: 0.8"/>
     </g>
     <g id="line2d_6">
      <g>
       <use xlink:href="#m33988348ef" x="359.560144" y="384.48" style="stroke: #000000; stroke-width: 0.8"/>
      </g>
     </g>
     <g id="text_3">
      <!-- 2016 -->
      <g transform="translate(346.835144 399.078438) scale(0.1 -0.1)">
       <defs>
        <path id="DejaVuSans-36" d="M 2113 2584 
Q 1688 2584 1439 2293 
Q 1191 2003 1191 1497 
Q 1191 994 1439 701 
Q 1688 409 2113 409 
Q 2538 409 2786 701 
Q 3034 994 3034 1497 
Q 3034 2003 2786 2293 
Q 2538 2584 2113 2584 
z
M 3366 4563 
L 3366 3988 
Q 3128 4100 2886 4159 
Q 2644 4219 2406 4219 
Q 1781 4219 1451 3797 
Q 1122 3375 1075 2522 
Q 1259 2794 1537 2939 
Q 1816 3084 2150 3084 
Q 2853 3084 3261 2657 
Q 3669 2231 3669 1497 
Q 3669 778 3244 343 
Q 2819 -91 2113 -91 
Q 1303 -91 875 529 
Q 447 1150 447 2328 
Q 447 3434 972 4092 
Q 1497 4750 2381 4750 
Q 2619 4750 2861 4703 
Q 3103 4656 3366 4563 
z
" transform="scale(0.015625)"/>
       </defs>
       <use xlink:href="#DejaVuSans-32"/>
       <use xlink:href="#DejaVuSans-30" x="63.623047"/>
       <use xlink:href="#DejaVuSans-31" x="127.246094"/>
       <use xlink:href="#DejaVuSans-36" x="190.869141"/>
      </g>
     </g>
    </g>
    <g id="xtick_4">
     <g id="line2d_7">
      <path d="M 452.671597 384.48 
L 452.671597 51.84 
" clip-path="url(#p4b5185494d)" style="fill: none; stroke-dasharray: 2.96,1.28; stroke-dashoffset: 0; stroke: #b0b0b0; stroke-opacity: 0.5; stroke-width: 0.8"/>
     </g>
     <g id="line2d_8">
      <g>
       <use xlink:href="#m33988348ef" x="452.671597" y="384.48" style="stroke: #000000; stroke-width: 0.8"/>
      </g>
     </g>
     <g id="text_4">
      <!-- 2018 -->
      <g transform="translate(439.946597 399.078438) scale(0.1 -0.1)">
       <defs>
        <path id="DejaVuSans-38" d="M 2034 2216 
Q 1584 2216 1326 1975 
Q 1069 1734 1069 1313 
Q 1069 891 1326 650 
Q 1584 409 2034 409 
Q 2484 409 2743 651 
Q 3003 894 3003 1313 
Q 3003 1734 2745 1975 
Q 2488 2216 2034 2216 
z
M 1403 2484 
Q 997 2584 770 2862 
Q 544 3141 544 3541 
Q 544 4100 942 4425 
Q 1341 4750 2034 4750 
Q 2731 4750 3128 4425 
Q 3525 4100 3525 3541 
Q 3525 3141 3298 2862 
Q 3072 2584 2669 2484 
Q 3125 2378 3379 2068 
Q 3634 1759 3634 1313 
Q 3634 634 3220 271 
Q 2806 -91 2034 -91 
Q 1263 -91 848 271 
Q 434 634 434 1313 
Q 434 1759 690 2068 
Q 947 2378 1403 2484 
z
M 1172 3481 
Q 1172 3119 1398 2916 
Q 1625 2713 2034 2713 
Q 2441 2713 2670 2916 
Q 2900 3119 2900 3481 
Q 2900 3844 2670 4047 
Q 2441 4250 2034 4250 
Q 1625 4250 1398 4047 
Q 1172 3844 1172 3481 
z
" transform="scale(0.015625)"/>
       </defs>
       <use xlink:href="#DejaVuSans-32"/>
       <use xlink:href="#DejaVuSans-30" x="63.623047"/>
       <use xlink:href="#DejaVuSans-31" x="127.246094"/>
       <use xlink:href="#DejaVuSans-38" x="190.869141"/>
      </g>
     </g>
    </g>
    <g id="xtick_5">
     <g id="line2d_9">
      <path d="M 545.655675 384.48 
L 545.655675 51.84 
" clip-path="url(#p4b5185494d)" style="fill: none; stroke-dasharray: 2.96,1.28; stroke-dashoffset: 0; stroke: #b0b0b0; stroke-opacity: 0.5; stroke-width: 0.8"/>
     </g>
     <g id="line2d_10">
      <g>
       <use xlink:href="#m33988348ef" x="545.655675" y="384.48" style="stroke: #000000; stroke-width: 0.8"/>
      </g>
     </g>
     <g id="text_5">
      <!-- 2020 -->
      <g transform="translate(532.930675 399.078438) scale(0.1 -0.1)">
       <use xlink:href="#DejaVuSans-32"/>
       <use xlink:href="#DejaVuSans-30" x="63.623047"/>
       <use xlink:href="#DejaVuSans-32" x="127.246094"/>
       <use xlink:href="#DejaVuSans-30" x="190.869141"/>
      </g>
     </g>
    </g>
    <g id="xtick_6">
     <g id="line2d_11">
      <path d="M 638.767129 384.48 
L 638.767129 51.84 
" clip-path="url(#p4b5185494d)" style="fill: none; stroke-dasharray: 2.96,1.28; stroke-dashoffset: 0; stroke: #b0b0b0; stroke-opacity: 0.5; stroke-width: 0.8"/>
     </g>
     <g id="line2d_12">
      <g>
       <use xlink:href="#m33988348ef" x="638.767129" y="384.48" style="stroke: #000000; stroke-width: 0.8"/>
      </g>
     </g>
     <g id="text_6">
      <!-- 2022 -->
      <g transform="translate(626.042129 399.078438) scale(0.1 -0.1)">
       <use xlink:href="#DejaVuSans-32"/>
       <use xlink:href="#DejaVuSans-30" x="63.623047"/>
       <use xlink:href="#DejaVuSans-32" x="127.246094"/>
       <use xlink:href="#DejaVuSans-32" x="190.869141"/>
      </g>
     </g>
    </g>
    <g id="xtick_7">
     <g id="line2d_13">
      <path d="M 731.751207 384.48 
L 731.751207 51.84 
" clip-path="url(#p4b5185494d)" style="fill: none; stroke-dasharray: 2.96,1.28; stroke-dashoffset: 0; stroke: #b0b0b0; stroke-opacity: 0.5; stroke-width: 0.8"/>
     </g>
     <g id="line2d_14">
      <g>
       <use xlink:href="#m33988348ef" x="731.751207" y="384.48" style="stroke: #000000; stroke-width: 0.8"/>
      </g>
     </g>
     <g id="text_7">
      <!-- 2024 -->
      <g transform="translate(719.026207 399.078438) scale(0.1 -0.1)">
       <use xlink:href="#DejaVuSans-32"/>
       <use xlink:href="#DejaVuSans-30" x="63.623047"/>
       <use xlink:href="#DejaVuSans-32" x="127.246094"/>
       <use xlink:href="#DejaVuSans-34" x="190.869141"/>
      </g>
     </g>
    </g>
   </g>
   <g id="matplotlib.axis_2">
    <g id="ytick_1">
     <g id="line2d_15">
      <path d="M 108 369.428987 
L 777.6 369.428987 
" clip-path="url(#p4b5185494d)" style="fill: none; stroke-dasharray: 2.96,1.28; stroke-dashoffset: 0; stroke: #b0b0b0; stroke-opacity: 0.5; stroke-width: 0.8"/>
     </g>
     <g id="line2d_16">
      <defs>
       <path id="ma58d9dad38" d="M 0 0 
L -3.5 0 
" style="stroke: #000000; stroke-width: 0.8"/>
      </defs>
      <g>
       <use xlink:href="#ma58d9dad38" x="108" y="369.428987" style="stroke: #000000; stroke-width: 0.8"/>
      </g>
     </g>
     <g id="text_8">
      <!-- 0 -->
      <g transform="translate(94.6375 373.228206) scale(0.1 -0.1)">
       <use xlink:href="#DejaVuSans-30"/>
      </g>
     </g>
    </g>
    <g id="ytick_2">
     <g id="line2d_17">
      <path d="M 108 318.24114 
L 777.6 318.24114 
" clip-path="url(#p4b5185494d)" style="fill: none; stroke-dasharray: 2.96,1.28; stroke-dashoffset: 0; stroke: #b0b0b0; stroke-opacity: 0.5; stroke-width: 0.8"/>
     </g>
     <g id="line2d_18">
      <g>
       <use xlink:href="#ma58d9dad38" x="108" y="318.24114" style="stroke: #000000; stroke-width: 0.8"/>
      </g>
     </g>
     <g id="text_9">
      <!-- 2000 -->
      <g transform="translate(75.55 322.040359) scale(0.1 -0.1)">
       <use xlink:href="#DejaVuSans-32"/>
       <use xlink:href="#DejaVuSans-30" x="63.623047"/>
       <use xlink:href="#DejaVuSans-30" x="127.246094"/>
       <use xlink:href="#DejaVuSans-30" x="190.869141"/>
      </g>
     </g>
    </g>
    <g id="ytick_3">
     <g id="line2d_19">
      <path d="M 108 267.053293 
L 777.6 267.053293 
" clip-path="url(#p4b5185494d)" style="fill: none; stroke-dasharray: 2.96,1.28; stroke-dashoffset: 0; stroke: #b0b0b0; stroke-opacity: 0.5; stroke-width: 0.8"/>
     </g>
     <g id="line2d_20">
      <g>
       <use xlink:href="#ma58d9dad38" x="108" y="267.053293" style="stroke: #000000; stroke-width: 0.8"/>
      </g>
     </g>
     <g id="text_10">
      <!-- 4000 -->
      <g transform="translate(75.55 270.852512) scale(0.1 -0.1)">
       <use xlink:href="#DejaVuSans-34"/>
       <use xlink:href="#DejaVuSans-30" x="63.623047"/>
       <use xlink:href="#DejaVuSans-30" x="127.246094"/>
       <use xlink:href="#DejaVuSans-30" x="190.869141"/>
      </g>
     </g>
    </g>
    <g id="ytick_4">
     <g id="line2d_21">
      <path d="M 108 215.865446 
L 777.6 215.865446 
" clip-path="url(#p4b5185494d)" style="fill: none; stroke-dasharray: 2.96,1.28; stroke-dashoffset: 0; stroke: #b0b0b0; stroke-opacity: 0.5; stroke-width: 0.8"/>
     </g>
     <g id="line2d_22">
      <g>
       <use xlink:href="#ma58d9dad38" x="108" y="215.865446" style="stroke: #000000; stroke-width: 0.8"/>
      </g>
     </g>
     <g id="text_11">
      <!-- 6000 -->
      <g transform="translate(75.55 219.664665) scale(0.1 -0.1)">
       <use xlink:href="#DejaVuSans-36"/>
       <use xlink:href="#DejaVuSans-30" x="63.623047"/>
       <use xlink:href="#DejaVuSans-30" x="127.246094"/>
       <use xlink:href="#DejaVuSans-30" x="190.869141"/>
      </g>
     </g>
    </g>
    <g id="ytick_5">
     <g id="line2d_23">
      <path d="M 108 164.6776 
L 777.6 164.6776 
" clip-path="url(#p4b5185494d)" style="fill: none; stroke-dasharray: 2.96,1.28; stroke-dashoffset: 0; stroke: #b0b0b0; stroke-opacity: 0.5; stroke-width: 0.8"/>
     </g>
     <g id="line2d_24">
      <g>
       <use xlink:href="#ma58d9dad38" x="108" y="164.6776" style="stroke: #000000; stroke-width: 0.8"/>
      </g>
     </g>
     <g id="text_12">
      <!-- 8000 -->
      <g transform="translate(75.55 168.476818) scale(0.1 -0.1)">
       <use xlink:href="#DejaVuSans-38"/>
       <use xlink:href="#DejaVuSans-30" x="63.623047"/>
       <use xlink:href="#DejaVuSans-30" x="127.246094"/>
       <use xlink:href="#DejaVuSans-30" x="190.869141"/>
      </g>
     </g>
    </g>
    <g id="ytick_6">
     <g id="line2d_25">
      <path d="M 108 113.489753 
L 777.6 113.489753 
" clip-path="url(#p4b5185494d)" style="fill: none; stroke-dasharray: 2.96,1.28; stroke-dashoffset: 0; stroke: #b0b0b0; stroke-opacity: 0.5; stroke-width: 0.8"/>
     </g>
     <g id="line2d_26">
      <g>
       <use xlink:href="#ma58d9dad38" x="108" y="113.489753" style="stroke: #000000; stroke-width: 0.8"/>
      </g>
     </g>
     <g id="text_13">
      <!-- 10000 -->
      <g transform="translate(69.1875 117.288972) scale(0.1 -0.1)">
       <use xlink:href="#DejaVuSans-31"/>
       <use xlink:href="#DejaVuSans-30" x="63.623047"/>
       <use xlink:href="#DejaVuSans-30" x="127.246094"/>
       <use xlink:href="#DejaVuSans-30" x="190.869141"/>
       <use xlink:href="#DejaVuSans-30" x="254.492188"/>
      </g>
     </g>
    </g>
    <g id="ytick_7">
     <g id="line2d_27">
      <path d="M 108 62.301906 
L 777.6 62.301906 
" clip-path="url(#p4b5185494d)" style="fill: none; stroke-dasharray: 2.96,1.28; stroke-dashoffset: 0; stroke: #b0b0b0; stroke-opacity: 0.5; stroke-width: 0.8"/>
     </g>
     <g id="line2d_28">
      <g>
       <use xlink:href="#ma58d9dad38" x="108" y="62.301906" style="stroke: #000000; stroke-width: 0.8"/>
      </g>
     </g>
     <g id="text_14">
      <!-- 12000 -->
      <g transform="translate(69.1875 66.101125) scale(0.1 -0.1)">
       <use xlink:href="#DejaVuSans-31"/>
       <use xlink:href="#DejaVuSans-32" x="63.623047"/>
       <use xlink:href="#DejaVuSans-30" x="127.246094"/>
       <use xlink:href="#DejaVuSans-30" x="190.869141"/>
       <use xlink:href="#DejaVuSans-30" x="254.492188"/>
      </g>
     </g>
    </g>
   </g>
   <g id="line2d_29">
    <path d="M 138.436364 368.737951 
L 146.206266 368.865921 
L 150.02753 368.737951 
L 153.976168 368.814733 
L 157.924807 368.712357 
L 165.69471 368.840327 
L 169.515973 368.712357 
L 177.413251 368.865921 
L 181.107139 368.712357 
L 188.877042 368.865921 
L 192.825681 368.737951 
L 200.595583 368.865921 
L 212.314124 368.712357 
L 220.084027 368.865921 
L 224.032666 368.737951 
L 243.138983 368.814733 
L 247.087622 368.712357 
L 254.857524 368.840327 
L 258.806163 368.737951 
L 262.627427 368.814733 
L 266.576066 368.712357 
L 270.524705 368.840327 
L 285.809759 368.814733 
L 289.631022 368.840327 
L 293.579661 368.737951 
L 301.349563 368.865921 
L 313.068105 368.737951 
L 317.016744 368.840327 
L 332.301798 368.814733 
L 340.0717 368.814733 
L 344.020339 368.840327 
L 347.841602 368.712357 
L 351.790241 368.840327 
L 386.691115 368.814733 
L 390.639753 368.712357 
L 398.409656 368.840327 
L 402.230919 368.712357 
L 410.128197 368.865921 
L 421.464612 368.840327 
L 425.413251 368.712357 
L 433.183154 368.840327 
L 437.131793 368.737951 
L 440.953056 368.814733 
L 444.901695 368.686763 
L 452.671597 368.840327 
L 456.620236 368.712357 
L 483.623832 368.814733 
L 720.032666 368.814733 
L 723.981305 368.686763 
L 731.751207 368.840327 
L 735.699846 368.712357 
L 743.342373 368.814733 
L 747.163636 368.712357 
L 747.163636 368.712357 
" clip-path="url(#p4b5185494d)" style="fill: none; stroke: #a6cee3; stroke-width: 1.5; stroke-linecap: square"/>
   </g>
   <g id="line2d_30">
    <path d="M 138.436364 369.173871 
L 747.163636 369.175209 
L 747.163636 369.175209 
" clip-path="url(#p4b5185494d)" style="fill: none; stroke: #1f78b4; stroke-width: 1.5; stroke-linecap: square"/>
   </g>
   <g id="line2d_31">
    <path d="M 138.436364 369.173871 
L 747.163636 369.175209 
L 747.163636 369.175209 
" clip-path="url(#p4b5185494d)" style="fill: none; stroke: #b2df8a; stroke-width: 1.5; stroke-linecap: square"/>
   </g>
   <g id="line2d_32">
    <path d="M 138.436364 369.318834 
L 390.639753 369.319993 
L 452.671597 369.245549 
L 565.016744 369.290137 
L 599.790241 369.325367 
L 677.489266 369.192717 
L 704.492861 369.142749 
L 747.163636 369.148735 
L 747.163636 369.148735 
" clip-path="url(#p4b5185494d)" style="fill: none; stroke: #33a02c; stroke-width: 1.5; stroke-linecap: square"/>
   </g>
   <g id="line2d_33">
    <path d="M 138.436364 367.125534 
L 146.206266 367.253503 
L 150.02753 367.125534 
L 153.976168 367.202315 
L 157.924807 367.09994 
L 165.69471 367.227909 
L 169.515973 367.09994 
L 177.413251 367.253503 
L 181.107139 367.09994 
L 188.877042 367.253503 
L 192.825681 367.125534 
L 200.595583 367.253503 
L 212.314124 367.09994 
L 220.084027 367.279097 
L 224.032666 367.125534 
L 266.576066 367.09994 
L 270.524705 367.253503 
L 281.86112 367.125534 
L 289.631022 367.227909 
L 293.579661 367.125534 
L 301.349563 367.279097 
L 313.068105 367.151128 
L 320.583256 367.202315 
L 324.531895 367.074346 
L 328.353159 367.202315 
L 440.953056 367.202315 
L 444.901695 367.074346 
L 452.671597 367.253503 
L 456.620236 367.09994 
L 464.135388 367.202315 
L 467.956651 367.253503 
L 471.90529 367.125534 
L 479.675193 367.253503 
L 491.393734 367.09994 
L 499.163636 367.253503 
L 503.112275 367.125534 
L 553.298202 367.202315 
L 561.068105 367.202315 
L 720.032666 367.202315 
L 723.981305 367.074346 
L 731.751207 367.253503 
L 735.699846 367.09994 
L 747.163636 367.09994 
L 747.163636 367.09994 
" clip-path="url(#p4b5185494d)" style="fill: none; stroke: #fb9a99; stroke-width: 1.5; stroke-linecap: square"/>
   </g>
   <g id="line2d_34">
    <path d="M 138.436364 369.17585 
L 747.163636 369.180049 
L 747.163636 369.180049 
" clip-path="url(#p4b5185494d)" style="fill: none; stroke: #e31a1c; stroke-width: 1.5; stroke-linecap: square"/>
   </g>
   <g id="line2d_35">
    <path d="M 138.436364 369.17585 
L 747.163636 369.180049 
L 747.163636 369.180049 
" clip-path="url(#p4b5185494d)" style="fill: none; stroke: #fdbf6f; stroke-width: 1.5; stroke-linecap: square"/>
   </g>
   <g id="line2d_36">
    <path d="M 138.436364 369.315644 
L 689.207807 369.146429 
L 720.032666 369.136961 
L 747.163636 369.144238 
L 747.163636 369.144238 
" clip-path="url(#p4b5185494d)" style="fill: none; stroke: #ff7f00; stroke-width: 1.5; stroke-linecap: square"/>
   </g>
   <g id="line2d_37">
    <path d="M 138.436364 364.975644 
L 146.206266 365.103614 
L 150.02753 364.796487 
L 165.69471 365.07802 
L 169.515973 364.770893 
L 177.413251 364.924456 
L 188.877042 365.103614 
L 192.825681 364.796487 
L 208.365485 365.052426 
L 212.314124 364.770893 
L 224.032666 364.975644 
L 231.547817 365.052426 
L 235.369081 364.770893 
L 243.138983 364.873268 
L 254.857524 365.07802 
L 258.806163 364.822081 
L 278.039856 365.07802 
L 281.86112 364.796487 
L 301.349563 365.103614 
L 305.298202 364.873268 
L 313.068105 364.975644 
L 317.016744 365.07802 
L 320.583256 365.052426 
L 324.531895 364.745299 
L 328.353159 364.873268 
L 336.123061 364.924456 
L 344.020339 365.07802 
L 347.841602 364.770893 
L 351.790241 364.898862 
L 355.611505 364.898862 
L 359.560144 365.052426 
L 367.202671 365.07802 
L 371.15131 364.796487 
L 386.691115 365.052426 
L 390.639753 364.770893 
L 398.409656 364.898862 
L 413.69471 365.103614 
L 417.643349 364.873268 
L 433.183154 365.07802 
L 437.131793 364.796487 
L 444.901695 364.924456 
L 452.671597 365.07802 
L 456.620236 364.770893 
L 464.135388 364.873268 
L 479.675193 365.103614 
L 483.623832 364.873268 
L 491.393734 364.95005 
L 499.163636 365.103614 
L 503.112275 364.796487 
L 510.627427 364.873268 
L 522.218593 365.052426 
L 526.167232 364.770893 
L 537.885773 364.975644 
L 541.707036 365.052426 
L 545.655675 364.770893 
L 549.604314 364.898862 
L 557.246841 364.924456 
L 561.068105 365.052426 
L 568.838007 365.103614 
L 572.786646 364.873268 
L 580.556549 364.95005 
L 584.505187 365.07802 
L 588.326451 365.07802 
L 592.27509 364.873268 
L 611.508783 365.07802 
L 615.330046 364.770893 
L 627.048588 364.975644 
L 634.81849 365.103614 
L 638.767129 364.873268 
L 658.000822 365.103614 
L 661.822085 364.796487 
L 677.489266 365.07802 
L 681.310529 364.770893 
L 689.207807 364.924456 
L 692.774319 364.924456 
L 700.544222 365.07802 
L 704.492861 364.770893 
L 716.211402 364.975644 
L 720.032666 365.052426 
L 723.981305 364.745299 
L 743.342373 365.052426 
L 747.163636 364.770893 
L 747.163636 364.770893 
" clip-path="url(#p4b5185494d)" style="fill: none; stroke: #cab2d6; stroke-width: 1.5; stroke-linecap: square"/>
   </g>
   <g id="line2d_38">
    <path d="M 138.436364 369.178602 
L 747.163636 369.186798 
L 747.163636 369.186798 
" clip-path="url(#p4b5185494d)" style="fill: none; stroke: #6a3d9a; stroke-width: 1.5; stroke-linecap: square"/>
   </g>
   <g id="line2d_39">
    <path d="M 138.436364 369.178602 
L 747.163636 369.186798 
L 747.163636 369.186798 
" clip-path="url(#p4b5185494d)" style="fill: none; stroke: #ffff99; stroke-width: 1.5; stroke-linecap: square"/>
   </g>
   <g id="line2d_40">
    <path d="M 138.436364 369.311521 
L 669.719363 369.178423 
L 716.211402 369.133889 
L 747.163636 369.141567 
L 747.163636 369.141567 
" clip-path="url(#p4b5185494d)" style="fill: none; stroke: #b15928; stroke-width: 1.5; stroke-linecap: square"/>
   </g>
   <g id="line2d_41">
    <path d="M 138.436364 360.675865 
L 142.257627 361.469277 
L 150.02753 360.138393 
L 153.976168 360.931804 
L 157.924807 360.291956 
L 165.69471 360.419926 
L 169.515973 361.187743 
L 173.464612 360.573489 
L 177.413251 361.341307 
L 181.107139 360.650271 
L 185.055778 361.469277 
L 192.825681 360.138393 
L 196.646944 360.573489 
L 200.595583 360.266362 
L 204.544222 361.110962 
L 208.365485 360.394332 
L 212.314124 361.187743 
L 216.135388 360.573489 
L 220.084027 361.341307 
L 224.032666 360.675865 
L 227.599178 361.392495 
L 235.369081 360.138393 
L 239.31772 360.957398 
L 243.138983 360.215174 
L 247.087622 361.008586 
L 251.036261 360.394332 
L 254.857524 361.136556 
L 258.806163 360.496708 
L 262.627427 361.290119 
L 266.576066 360.650271 
L 270.524705 361.494871 
L 274.091217 360.752647 
L 278.039856 361.494871 
L 285.809759 360.215174 
L 289.631022 360.957398 
L 293.579661 360.31755 
L 297.5283 361.110962 
L 301.349563 360.44552 
L 305.298202 360.931804 
L 309.119466 360.573489 
L 317.016744 360.778241 
L 320.583256 360.752647 
L 324.531895 360.087205 
L 328.353159 360.215174 
L 336.123061 360.266362 
L 340.0717 361.110962 
L 344.020339 360.419926 
L 347.841602 361.187743 
L 351.790241 360.599083 
L 355.611505 361.315713 
L 359.560144 360.752647 
L 363.508783 361.494871 
L 367.202671 360.778241 
L 371.15131 360.138393 
L 374.972573 360.931804 
L 378.921212 360.266362 
L 382.742476 361.03418 
L 386.691115 360.394332 
L 390.639753 361.187743 
L 394.461017 360.573489 
L 398.409656 361.315713 
L 402.230919 360.650271 
L 406.179558 360.931804 
L 410.128197 360.803835 
L 413.69471 360.803835 
L 417.643349 360.931804 
L 421.464612 360.240768 
L 429.234515 360.394332 
L 433.183154 361.136556 
L 437.131793 360.496708 
L 440.953056 361.290119 
L 444.901695 360.624677 
L 448.722958 361.392495 
L 456.620236 360.112799 
L 460.186749 360.829429 
L 464.135388 360.215174 
L 467.956651 360.982992 
L 471.90529 360.31755 
L 475.726554 361.110962 
L 479.675193 360.44552 
L 483.623832 361.290119 
L 487.445095 360.573489 
L 491.393734 361.366901 
L 495.214997 360.752647 
L 499.163636 361.520465 
L 503.112275 360.855022 
L 506.678788 360.138393 
L 510.627427 360.931804 
L 514.44869 360.291956 
L 518.397329 361.110962 
L 522.218593 360.394332 
L 526.167232 361.187743 
L 530.115871 360.573489 
L 533.937134 361.315713 
L 537.885773 360.675865 
L 541.707036 361.469277 
L 549.604314 360.240768 
L 553.298202 360.931804 
L 557.246841 360.266362 
L 561.068105 361.110962 
L 565.016744 360.394332 
L 568.838007 361.16215 
L 572.786646 360.215174 
L 580.556549 360.291956 
L 584.505187 360.419926 
L 588.326451 360.419926 
L 592.27509 360.573489 
L 611.508783 360.778241 
L 615.330046 360.112799 
L 627.048588 360.31755 
L 654.052183 360.778241 
L 658.000822 360.803835 
L 661.822085 360.138393 
L 689.207807 360.624677 
L 692.774319 360.624677 
L 700.544222 360.778241 
L 704.492861 360.112799 
L 716.211402 360.31755 
L 743.342373 360.752647 
L 747.163636 360.138393 
L 747.163636 360.138393 
" clip-path="url(#p4b5185494d)" style="fill: none; stroke: #a6cee3; stroke-width: 1.5; stroke-linecap: square"/>
   </g>
   <g id="line2d_42">
    <path d="M 138.436364 369.184329 
L 491.393734 369.190759 
L 747.163636 369.199352 
L 747.163636 369.199352 
" clip-path="url(#p4b5185494d)" style="fill: none; stroke: #1f78b4; stroke-width: 1.5; stroke-linecap: square"/>
   </g>
   <g id="line2d_43">
    <path d="M 138.436364 369.184329 
L 491.393734 369.190759 
L 747.163636 369.199352 
L 747.163636 369.199352 
" clip-path="url(#p4b5185494d)" style="fill: none; stroke: #b2df8a; stroke-width: 1.5; stroke-linecap: square"/>
   </g>
   <g id="line2d_44">
    <path d="M 138.436364 369.304755 
L 390.639753 369.306231 
L 444.901695 369.242989 
L 747.163636 369.13824 
L 747.163636 369.13824 
" clip-path="url(#p4b5185494d)" style="fill: none; stroke: #33a02c; stroke-width: 1.5; stroke-linecap: square"/>
   </g>
   <g id="line2d_45">
    <path d="M 138.436364 330.039939 
L 150.02753 332.368986 
L 153.976168 323.846209 
L 196.646944 332.445768 
L 200.595583 323.897397 
L 208.365485 325.458626 
L 251.036261 334.058185 
L 254.857524 325.48422 
L 305.298202 335.670602 
L 309.119466 322.438543 
L 328.353159 326.380008 
L 336.123061 327.864455 
L 340.0717 314.709179 
L 347.841602 316.21922 
L 359.560144 318.650643 
L 371.15131 320.902908 
L 386.691115 324.025367 
L 406.179558 327.966831 
L 410.128197 319.41846 
L 464.135388 330.295878 
L 467.956651 317.089413 
L 479.675193 319.41846 
L 487.445095 320.97969 
L 506.678788 324.844372 
L 510.627427 318.650643 
L 530.115871 322.592107 
L 545.655675 325.714566 
L 553.298202 327.250201 
L 568.838007 330.347066 
L 576.735285 331.933889 
L 580.556549 318.727425 
L 592.27509 321.158847 
L 599.790241 322.592107 
L 603.73888 323.487894 
L 615.330046 325.714566 
L 630.997227 328.862618 
L 646.28228 331.933889 
L 650.230919 323.564676 
L 658.000822 324.972342 
L 712.262763 335.875353 
L 716.211402 318.036389 
L 731.751207 321.184441 
L 747.163636 324.281306 
L 747.163636 324.281306 
" clip-path="url(#p4b5185494d)" style="fill: none; stroke: #fb9a99; stroke-width: 1.5; stroke-linecap: square"/>
   </g>
   <g id="line2d_46">
    <path d="M 138.436364 366.942934 
L 165.69471 366.744023 
L 192.825681 366.747231 
L 196.646944 366.73199 
L 204.544222 366.867568 
L 336.123061 366.895135 
L 340.0717 366.747398 
L 371.15131 366.737601 
L 394.461017 366.799614 
L 425.413251 366.947939 
L 433.183154 366.898343 
L 518.397329 366.858025 
L 530.115871 366.748041 
L 576.735285 366.577169 
L 580.556549 366.806984 
L 588.326451 366.785773 
L 599.790241 366.787059 
L 607.560144 366.889572 
L 646.28228 367.052876 
L 654.052183 367.233621 
L 669.719363 367.214158 
L 677.489266 367.258159 
L 689.207807 367.167601 
L 692.774319 367.246073 
L 700.544222 367.169211 
L 712.262763 367.167805 
L 716.211402 366.975574 
L 723.981305 367.041637 
L 731.751207 366.942272 
L 747.163636 367.00476 
L 747.163636 367.00476 
" clip-path="url(#p4b5185494d)" style="fill: none; stroke: #e31a1c; stroke-width: 1.5; stroke-linecap: square"/>
   </g>
   <g id="line2d_47">
    <path d="M 138.436364 366.900704 
L 146.206266 366.80518 
L 150.02753 366.866287 
L 165.69471 366.685814 
L 196.646944 366.727102 
L 204.544222 366.841263 
L 247.087622 366.839271 
L 274.091217 366.874587 
L 309.119466 366.803014 
L 313.068105 366.884517 
L 320.583256 366.857692 
L 336.123061 366.890513 
L 340.0717 366.726141 
L 398.409656 366.762919 
L 410.128197 366.923329 
L 448.722958 366.850912 
L 452.671597 366.959015 
L 464.135388 366.889532 
L 467.956651 366.719523 
L 499.163636 366.907524 
L 510.627427 366.843766 
L 522.218593 366.729856 
L 576.735285 366.478774 
L 580.556549 366.7984 
L 588.326451 366.752252 
L 599.790241 366.716746 
L 603.73888 366.874093 
L 623.227324 366.87633 
L 630.997227 366.999235 
L 646.28228 366.982155 
L 650.230919 367.178992 
L 661.822085 367.177634 
L 665.770724 367.102347 
L 681.310529 367.163436 
L 712.262763 367.111108 
L 716.211402 366.869217 
L 720.032666 367.031368 
L 747.163636 366.970919 
L 747.163636 366.970919 
" clip-path="url(#p4b5185494d)" style="fill: none; stroke: #fdbf6f; stroke-width: 1.5; stroke-linecap: square"/>
   </g>
   <g id="line2d_48">
    <path d="M 138.436364 369.275423 
L 747.163636 369.211438 
L 747.163636 369.211438 
" clip-path="url(#p4b5185494d)" style="fill: none; stroke: #ff7f00; stroke-width: 1.5; stroke-linecap: square"/>
   </g>
   <g id="line2d_49">
    <path d="M 138.436364 274.14281 
L 153.976168 277.265269 
L 177.413251 281.974551 
L 181.107139 273.400586 
L 196.646944 276.548639 
L 212.314124 279.671097 
L 220.084027 281.257921 
L 231.547817 283.53578 
L 235.369081 270.354909 
L 251.036261 273.502962 
L 266.576066 276.625421 
L 270.524705 268.153832 
L 293.579661 272.70955 
L 347.841602 283.612562 
L 351.790241 272.811926 
L 355.611505 273.528556 
L 359.560144 274.398749 
L 371.15131 276.651014 
L 386.691115 279.773473 
L 421.464612 286.786208 
L 425.413251 275.908791 
L 433.183154 277.47002 
L 499.163636 290.753266 
L 503.112275 272.888708 
L 584.505187 289.294413 
L 588.326451 271.378666 
L 592.27509 272.24886 
L 599.790241 273.682119 
L 603.73888 274.577907 
L 615.330046 276.804578 
L 630.997227 279.952631 
L 681.310529 290.06223 
L 685.259168 272.24886 
L 704.492861 276.087948 
L 712.262763 277.649177 
L 747.163636 284.687506 
L 747.163636 284.687506 
" clip-path="url(#p4b5185494d)" style="fill: none; stroke: #cab2d6; stroke-width: 1.5; stroke-linecap: square"/>
   </g>
   <g id="line2d_50">
    <path d="M 138.436364 367.067185 
L 157.924807 366.786722 
L 161.746071 366.913049 
L 169.515973 366.83313 
L 173.464612 366.867493 
L 177.413251 366.767079 
L 185.055778 366.825645 
L 212.314124 366.681036 
L 231.547817 366.5731 
L 235.369081 366.116526 
L 239.31772 366.356017 
L 254.857524 366.494648 
L 266.576066 366.563534 
L 270.524705 366.218696 
L 278.039856 366.111499 
L 324.531895 366.084262 
L 336.123061 366.158642 
L 347.841602 366.151954 
L 351.790241 366.953817 
L 398.409656 366.985457 
L 402.230919 367.137781 
L 413.69471 367.142179 
L 421.464612 367.09316 
L 425.413251 366.831612 
L 433.183154 366.754437 
L 448.722958 366.825877 
L 460.186749 366.887315 
L 467.956651 366.874859 
L 479.675193 366.913988 
L 499.163636 367.036002 
L 506.678788 366.824665 
L 553.298202 366.528238 
L 557.246841 366.623767 
L 568.838007 366.372523 
L 596.223729 366.429658 
L 603.73888 366.692082 
L 650.230919 366.963197 
L 654.052183 367.083752 
L 665.770724 366.975887 
L 677.489266 367.174321 
L 681.310529 367.058405 
L 685.259168 367.132627 
L 689.207807 367.067521 
L 692.774319 367.179586 
L 700.544222 367.088135 
L 716.211402 367.166607 
L 723.981305 367.272778 
L 731.751207 367.119603 
L 747.163636 367.210365 
L 747.163636 367.210365 
" clip-path="url(#p4b5185494d)" style="fill: none; stroke: #6a3d9a; stroke-width: 1.5; stroke-linecap: square"/>
   </g>
   <g id="line2d_51">
    <path d="M 138.436364 367.021436 
L 146.206266 366.860697 
L 150.02753 366.956159 
L 157.924807 366.754374 
L 161.746071 366.865913 
L 169.515973 366.75873 
L 173.464612 366.86241 
L 177.413251 366.748132 
L 185.055778 366.778509 
L 208.365485 366.592034 
L 220.084027 366.657462 
L 227.599178 366.557598 
L 231.547817 366.525965 
L 235.369081 366.040882 
L 243.138983 366.408828 
L 251.036261 366.525835 
L 258.806163 366.420359 
L 266.576066 366.555571 
L 270.524705 366.185282 
L 278.039856 366.038272 
L 297.5283 365.962695 
L 301.349563 366.032439 
L 309.119466 365.926173 
L 313.068105 366.050262 
L 317.016744 365.920828 
L 324.531895 366.010324 
L 347.841602 366.077305 
L 351.790241 366.934604 
L 390.639753 366.819655 
L 406.179558 367.112412 
L 421.464612 367.073946 
L 425.413251 366.742033 
L 448.722958 366.735765 
L 452.671597 366.86997 
L 475.726554 366.889966 
L 491.393734 366.987495 
L 499.163636 367.025338 
L 506.678788 366.77753 
L 537.885773 366.474303 
L 545.655675 366.55271 
L 553.298202 366.478685 
L 557.246841 366.556085 
L 565.016744 366.348739 
L 599.790241 366.510248 
L 603.73888 366.628168 
L 623.227324 366.685311 
L 630.997227 366.764537 
L 634.81849 366.730487 
L 638.767129 366.845386 
L 650.230919 366.900936 
L 654.052183 367.00441 
L 658.000822 366.92288 
L 661.822085 367.037009 
L 665.770724 366.946686 
L 677.489266 367.094429 
L 681.310529 366.961984 
L 685.259168 367.119297 
L 689.207807 367.038195 
L 692.774319 367.13533 
L 700.544222 367.01082 
L 712.262763 367.06842 
L 723.981305 367.19493 
L 727.802568 367.060122 
L 739.393734 367.088194 
L 747.163636 367.131983 
L 747.163636 367.131983 
" clip-path="url(#p4b5185494d)" style="fill: none; stroke: #ffff99; stroke-width: 1.5; stroke-linecap: square"/>
   </g>
   <g id="line2d_52">
    <path d="M 138.436364 369.262626 
L 747.163636 369.237032 
L 747.163636 369.237032 
" clip-path="url(#p4b5185494d)" style="fill: none; stroke: #b15928; stroke-width: 1.5; stroke-linecap: square"/>
   </g>
   <g id="line2d_53">
    <path d="M 138.436364 199.613305 
L 153.976168 202.735764 
L 157.924807 203.529175 
L 161.746071 185.715805 
L 169.515973 187.225846 
L 188.877042 191.141716 
L 200.595583 193.470763 
L 208.365485 195.031993 
L 278.039856 209.031869 
L 281.86112 177.218622 
L 410.128197 202.966109 
L 413.69471 185.050363 
L 421.464612 186.637186 
L 437.131793 189.759645 
L 452.671597 192.907697 
L 456.620236 175.043139 
L 650.230919 213.945902 
L 654.052183 177.474561 
L 669.719363 180.59702 
L 677.489266 182.158249 
L 747.163636 196.183719 
L 747.163636 196.183719 
" clip-path="url(#p4b5185494d)" style="fill: none; stroke: #a6cee3; stroke-width: 1.5; stroke-linecap: square"/>
   </g>
   <g id="line2d_54">
    <path d="M 138.436364 366.807667 
L 146.206266 366.609224 
L 150.02753 366.669199 
L 157.924807 366.445716 
L 161.746071 366.86956 
L 169.515973 366.777413 
L 173.464612 366.800003 
L 177.413251 366.652726 
L 181.107139 366.744968 
L 192.825681 366.69573 
L 200.595583 366.377189 
L 212.314124 366.475923 
L 227.599178 366.298394 
L 231.547817 366.260313 
L 235.369081 366.04619 
L 239.31772 366.448655 
L 251.036261 366.730839 
L 258.806163 366.676631 
L 262.627427 366.789742 
L 266.576066 366.733112 
L 270.524705 366.80414 
L 278.039856 366.651608 
L 285.809759 366.569878 
L 289.631022 366.49559 
L 305.298202 366.572944 
L 320.583256 366.425537 
L 351.790241 366.569008 
L 386.691115 366.494791 
L 394.461017 366.523406 
L 410.128197 366.907712 
L 413.69471 366.313463 
L 417.643349 366.204592 
L 425.413251 366.212582 
L 433.183154 366.108182 
L 448.722958 366.220423 
L 452.671597 366.284973 
L 456.620236 366.68035 
L 487.445095 366.771139 
L 495.214997 367.102038 
L 499.163636 366.944781 
L 518.397329 366.83807 
L 522.218593 366.672219 
L 526.167232 366.698658 
L 533.937134 366.547995 
L 537.885773 366.490444 
L 541.707036 366.570384 
L 553.298202 366.445275 
L 557.246841 366.702402 
L 572.786646 366.355025 
L 584.505187 366.494532 
L 592.27509 366.256512 
L 599.790241 366.440508 
L 603.73888 366.633091 
L 619.278685 366.628662 
L 623.227324 366.612614 
L 630.997227 366.743283 
L 642.715768 366.744801 
L 650.230919 366.8334 
L 654.052183 367.225322 
L 658.000822 367.135361 
L 661.822085 367.161132 
L 665.770724 367.066695 
L 677.489266 367.361566 
L 681.310529 367.178152 
L 747.163636 367.322359 
L 747.163636 367.322359 
" clip-path="url(#p4b5185494d)" style="fill: none; stroke: #1f78b4; stroke-width: 1.5; stroke-linecap: square"/>
   </g>
   <g id="line2d_55">
    <path d="M 138.436364 366.747842 
L 146.206266 366.512536 
L 150.02753 366.664365 
L 157.924807 366.403415 
L 161.746071 366.81336 
L 169.515973 366.688705 
L 173.464612 366.793942 
L 177.413251 366.630136 
L 181.107139 366.7064 
L 196.646944 366.494208 
L 200.595583 366.354598 
L 212.314124 366.402643 
L 231.547817 366.204113 
L 235.369081 365.97291 
L 239.31772 366.357743 
L 243.138983 366.549783 
L 251.036261 366.690067 
L 258.806163 366.6028 
L 266.576066 366.725399 
L 270.524705 366.778244 
L 278.039856 366.594857 
L 313.068105 366.491985 
L 317.016744 366.296645 
L 324.531895 366.397518 
L 351.790241 366.492973 
L 355.611505 366.478165 
L 359.560144 366.593045 
L 390.639753 366.416752 
L 398.409656 366.558245 
L 406.179558 366.879517 
L 410.128197 366.881265 
L 413.69471 366.259432 
L 417.643349 366.127099 
L 448.722958 366.100274 
L 452.671597 366.271465 
L 456.620236 366.65074 
L 487.445095 366.70527 
L 495.214997 366.998099 
L 514.44869 366.782779 
L 553.298202 366.395723 
L 557.246841 366.63472 
L 568.838007 366.32967 
L 596.223729 366.271129 
L 607.560144 366.571416 
L 611.508783 366.470735 
L 615.330046 366.6185 
L 627.048588 366.640392 
L 650.230919 366.765114 
L 654.052183 367.145981 
L 658.000822 367.03949 
L 661.822085 367.14901 
L 665.770724 367.037493 
L 677.489266 367.281674 
L 681.310529 367.08173 
L 685.259168 367.172247 
L 689.207807 367.077556 
L 692.774319 367.175492 
L 704.492861 367.085248 
L 723.981305 367.287063 
L 727.802568 367.133152 
L 743.342373 367.205773 
L 747.163636 367.241365 
L 747.163636 367.241365 
" clip-path="url(#p4b5185494d)" style="fill: none; stroke: #b2df8a; stroke-width: 1.5; stroke-linecap: square"/>
   </g>
   <g id="line2d_56">
    <path d="M 138.436364 369.211438 
L 747.163636 369.230634 
L 747.163636 369.230634 
" clip-path="url(#p4b5185494d)" style="fill: none; stroke: #33a02c; stroke-width: 1.5; stroke-linecap: square"/>
   </g>
   <g id="line2d_57">
    <path d="M 138.436364 111.109518 
L 153.976168 114.231977 
L 185.055778 120.502488 
L 188.877042 84.005553 
L 200.595583 86.3346 
L 208.365485 87.895829 
L 413.69471 129.153234 
L 417.643349 83.416893 
L 437.131793 87.281575 
L 452.671597 90.429628 
L 471.90529 94.268716 
L 487.445095 97.391175 
L 669.719363 134.016079 
L 673.540627 81.267003 
L 681.310529 82.777045 
L 700.544222 86.667321 
L 716.211402 89.78978 
L 731.751207 92.937832 
L 747.163636 96.034697 
L 747.163636 96.034697 
" clip-path="url(#p4b5185494d)" style="fill: none; stroke: #fb9a99; stroke-width: 1.5; stroke-linecap: square"/>
   </g>
   <g id="line2d_58">
    <path d="M 138.436364 366.881218 
L 146.206266 366.666865 
L 150.02753 366.745778 
L 157.924807 366.5375 
L 161.746071 366.704809 
L 165.69471 366.599717 
L 173.464612 366.654578 
L 177.413251 366.519151 
L 181.107139 366.607014 
L 185.055778 366.572331 
L 188.877042 366.7367 
L 192.825681 366.779573 
L 196.646944 366.535717 
L 200.595583 366.4082 
L 212.314124 366.497007 
L 231.547817 366.198187 
L 235.369081 365.938815 
L 239.31772 366.463609 
L 251.036261 366.81593 
L 254.857524 366.715069 
L 258.806163 366.731926 
L 262.627427 366.87284 
L 266.576066 366.800629 
L 270.524705 366.886871 
L 274.091217 366.745264 
L 297.5283 366.493477 
L 301.349563 366.604937 
L 313.068105 366.472997 
L 317.016744 366.292902 
L 324.531895 366.433299 
L 336.123061 366.608068 
L 340.0717 366.515947 
L 359.560144 366.604356 
L 378.921212 366.598334 
L 382.742476 366.433635 
L 394.461017 366.475413 
L 410.128197 366.934082 
L 413.69471 366.901296 
L 417.643349 366.717162 
L 429.234515 366.670287 
L 440.953056 366.632012 
L 444.901695 366.742985 
L 456.620236 366.816889 
L 487.445095 366.906972 
L 495.214997 367.258104 
L 499.163636 367.096125 
L 518.397329 366.988602 
L 522.218593 366.806919 
L 526.167232 366.835265 
L 533.937134 366.672624 
L 537.885773 366.611412 
L 541.707036 366.688656 
L 553.298202 366.55253 
L 557.246841 366.85688 
L 572.786646 366.531885 
L 584.505187 366.660649 
L 592.27509 366.407113 
L 599.790241 366.579852 
L 603.73888 366.821492 
L 619.278685 366.765761 
L 623.227324 366.741873 
L 630.997227 366.864333 
L 642.715768 366.884825 
L 654.052183 367.187032 
L 658.000822 367.089185 
L 661.822085 367.112915 
L 665.770724 367.004038 
L 677.489266 367.34285 
L 681.310529 367.121549 
L 704.492861 367.147324 
L 712.262763 367.120276 
L 723.981305 367.355063 
L 731.751207 367.169842 
L 747.163636 367.314825 
L 747.163636 367.314825 
" clip-path="url(#p4b5185494d)" style="fill: none; stroke: #e31a1c; stroke-width: 1.5; stroke-linecap: square"/>
   </g>
   <g id="line2d_59">
    <path d="M 138.436364 366.821392 
L 146.206266 366.570177 
L 150.02753 366.740943 
L 157.924807 366.495199 
L 161.746071 366.64317 
L 165.69471 366.520554 
L 169.515973 366.51567 
L 173.464612 366.64793 
L 177.413251 366.494375 
L 181.107139 366.564713 
L 185.055778 366.510692 
L 188.877042 366.663971 
L 192.825681 366.690314 
L 200.595583 366.38561 
L 212.314124 366.423727 
L 216.135388 366.367688 
L 220.084027 366.430968 
L 227.599178 366.212594 
L 231.547817 366.141987 
L 235.369081 365.865535 
L 239.31772 366.372698 
L 243.138983 366.600519 
L 251.036261 366.775158 
L 254.857524 366.658318 
L 258.806163 366.658095 
L 262.627427 366.781928 
L 274.091217 366.704491 
L 289.631022 366.536482 
L 293.579661 366.555143 
L 297.5283 366.452704 
L 301.349563 366.547636 
L 324.531895 366.375997 
L 336.123061 366.600905 
L 340.0717 366.490602 
L 367.202671 366.556543 
L 374.972573 366.404664 
L 378.921212 366.506321 
L 386.691115 366.416403 
L 394.461017 366.415356 
L 410.128197 366.907635 
L 440.953056 366.570017 
L 444.901695 366.663928 
L 448.722958 366.637797 
L 452.671597 366.781773 
L 487.445095 366.844978 
L 495.214997 367.160278 
L 510.627427 366.934956 
L 518.397329 366.890776 
L 533.937134 366.610061 
L 537.885773 366.531218 
L 545.655675 366.598185 
L 553.298202 366.505893 
L 557.246841 366.79318 
L 568.838007 366.510925 
L 599.790241 366.533783 
L 603.73888 366.755517 
L 634.81849 366.756691 
L 638.767129 366.891397 
L 646.28228 366.923458 
L 650.230919 366.928818 
L 654.052183 367.105131 
L 658.000822 366.990222 
L 661.822085 367.100403 
L 665.770724 366.973894 
L 677.489266 367.312137 
L 681.310529 367.073774 
L 716.211402 367.133988 
L 720.032666 367.324571 
L 723.981305 367.323782 
L 731.751207 367.103297 
L 739.393734 367.103584 
L 747.163636 367.282975 
L 747.163636 367.282975 
" clip-path="url(#p4b5185494d)" style="fill: none; stroke: #fdbf6f; stroke-width: 1.5; stroke-linecap: square"/>
   </g>
   <g id="line2d_60">
    <path d="M 138.436364 369.211438 
L 747.163636 369.224235 
L 747.163636 369.224235 
" clip-path="url(#p4b5185494d)" style="fill: none; stroke: #ff7f00; stroke-width: 1.5; stroke-linecap: square"/>
   </g>
   <g id="line2d_61">
    <path d="M 138.436364 92.477142 
L 153.976168 95.5996 
L 285.809759 122.114905 
L 289.631022 66.96 
L 526.167232 114.487916 
L 530.115871 78.042169 
L 545.655675 81.164627 
L 553.298202 82.700263 
L 568.838007 85.797128 
L 576.735285 87.383951 
L 747.163636 121.654214 
L 747.163636 121.654214 
" clip-path="url(#p4b5185494d)" style="fill: none; stroke: #cab2d6; stroke-width: 1.5; stroke-linecap: square"/>
   </g>
   <g id="line2d_62">
    <path d="M 138.436364 358.286497 
L 142.257627 357.367838 
L 146.206266 357.061494 
L 150.02753 357.676872 
L 153.976168 356.596451 
L 157.924807 356.716852 
L 161.746071 357.474765 
L 165.69471 356.882641 
L 169.515973 356.965251 
L 173.464612 356.81397 
L 177.413251 356.180772 
L 181.107139 356.498029 
L 185.055778 356.554746 
L 188.877042 356.264027 
L 192.825681 356.288198 
L 196.646944 354.678009 
L 200.595583 353.543783 
L 204.544222 354.017344 
L 208.365485 353.469434 
L 212.314124 353.662129 
L 216.135388 353.614604 
L 220.084027 353.324273 
L 224.032666 352.891562 
L 227.599178 352.848024 
L 231.547817 352.257942 
L 235.369081 350.758754 
L 239.31772 354.197183 
L 243.138983 355.101154 
L 251.036261 356.262418 
L 254.857524 355.430579 
L 262.627427 356.34908 
L 266.576066 356.109036 
L 270.524705 356.415665 
L 274.091217 355.737565 
L 278.039856 355.643564 
L 281.86112 355.318125 
L 285.809759 354.620385 
L 289.631022 354.48999 
L 293.579661 354.497196 
L 297.5283 354.133266 
L 301.349563 354.887162 
L 305.298202 354.821591 
L 309.119466 354.560687 
L 313.068105 353.918733 
L 317.016744 353.500484 
L 320.583256 354.061758 
L 328.353159 354.868389 
L 332.301798 354.716139 
L 336.123061 354.932359 
L 340.0717 354.666369 
L 347.841602 355.030201 
L 351.790241 354.914275 
L 355.611505 354.972449 
L 359.560144 355.548404 
L 371.15131 354.80851 
L 374.972573 354.501215 
L 378.921212 355.200777 
L 382.742476 353.904125 
L 386.691115 353.367662 
L 390.639753 353.502613 
L 394.461017 353.454766 
L 398.409656 354.45933 
L 402.230919 354.790519 
L 410.128197 354.737956 
L 413.69471 354.45483 
L 417.643349 353.862231 
L 425.413251 353.860929 
L 433.183154 353.53241 
L 440.953056 353.376731 
L 444.901695 353.82319 
L 448.722958 353.589986 
L 456.620236 353.439187 
L 460.186749 353.771325 
L 471.90529 353.738675 
L 475.726554 353.522797 
L 479.675193 353.067403 
L 483.623832 353.285093 
L 487.445095 353.360771 
L 491.393734 354.303007 
L 495.214997 355.04096 
L 499.163636 353.772254 
L 503.112275 354.120379 
L 506.678788 354.163264 
L 514.44869 353.313645 
L 518.397329 353.218876 
L 522.218593 352.149808 
L 526.167232 352.248292 
L 530.115871 351.73961 
L 533.937134 351.454025 
L 537.885773 351.021232 
L 541.707036 351.3384 
L 545.655675 351.153443 
L 549.604314 350.697292 
L 553.298202 350.480561 
L 557.246841 352.035832 
L 561.068105 352.199684 
L 565.016744 350.411672 
L 568.838007 349.928758 
L 572.786646 349.643477 
L 576.735285 349.594476 
L 580.556549 349.845138 
L 584.505187 350.490654 
L 588.326451 349.434075 
L 592.27509 348.737187 
L 596.223729 347.324205 
L 599.790241 348.999853 
L 603.73888 350.150468 
L 607.560144 350.760952 
L 611.508783 350.466724 
L 615.330046 350.300813 
L 619.278685 349.664257 
L 623.227324 349.589388 
L 627.048588 349.793701 
L 630.997227 349.50832 
L 634.81849 349.691605 
L 638.767129 349.434526 
L 642.715768 350.585673 
L 646.28228 350.83543 
L 650.230919 350.305287 
L 654.052183 350.870732 
L 658.000822 350.605308 
L 661.822085 350.589135 
L 665.770724 350.351991 
L 669.719363 350.895374 
L 673.540627 351.567244 
L 677.489266 352.10965 
L 681.310529 350.508956 
L 685.259168 350.58697 
L 689.207807 349.99082 
L 692.774319 350.626662 
L 696.722958 350.272319 
L 700.544222 351.321898 
L 708.314124 350.800846 
L 712.262763 350.819499 
L 720.032666 352.05656 
L 723.981305 352.120825 
L 727.802568 350.727168 
L 731.751207 349.998024 
L 735.699846 350.088384 
L 739.393734 350.510525 
L 743.342373 351.322829 
L 747.163636 351.974755 
L 747.163636 351.974755 
" clip-path="url(#p4b5185494d)" style="fill: none; stroke: #6a3d9a; stroke-width: 1.5; stroke-linecap: square"/>
   </g>
   <g id="line2d_63">
    <path d="M 138.436364 358.1573 
L 142.257627 357.198118 
L 146.206266 356.853162 
L 150.02753 357.666511 
L 153.976168 356.545792 
L 157.924807 356.625602 
L 161.746071 357.341582 
L 165.69471 356.710857 
L 173.464612 356.799286 
L 177.413251 356.125571 
L 181.107139 356.403293 
L 185.055778 356.416673 
L 188.877042 356.085532 
L 192.825681 356.069774 
L 196.646944 354.663173 
L 200.595583 353.488181 
L 204.544222 353.916602 
L 208.365485 353.330023 
L 212.314124 353.479456 
L 220.084027 353.306246 
L 224.032666 352.831754 
L 227.599178 352.748719 
L 231.547817 352.11456 
L 235.369081 350.570744 
L 239.31772 353.96449 
L 243.138983 355.085664 
L 251.036261 356.15818 
L 254.857524 355.285007 
L 262.627427 356.113197 
L 266.576066 356.088886 
L 270.524705 356.34738 
L 274.091217 355.629596 
L 278.039856 355.492844 
L 281.86112 355.121924 
L 285.809759 354.3796 
L 289.631022 354.472479 
L 293.579661 354.434341 
L 297.5283 354.024759 
L 301.349563 354.73397 
L 305.298202 354.618801 
L 313.068105 353.89624 
L 317.016744 353.429859 
L 320.583256 353.950512 
L 328.353159 354.661554 
L 332.301798 354.468014 
L 336.123061 354.91285 
L 340.0717 354.597225 
L 347.841602 354.871621 
L 351.790241 354.70492 
L 355.611505 354.71931 
L 359.560144 355.520841 
L 367.202671 355.031891 
L 374.972573 354.288998 
L 378.921212 354.943352 
L 382.742476 353.881025 
L 386.691115 353.296721 
L 390.639753 353.383565 
L 394.461017 353.285502 
L 398.409656 354.24367 
L 406.179558 354.778575 
L 410.128197 354.661225 
L 413.69471 354.331889 
L 417.643349 353.684714 
L 429.234515 353.633771 
L 440.953056 353.196292 
L 444.901695 353.592447 
L 448.722958 353.306892 
L 452.671597 353.500781 
L 456.620236 353.355953 
L 460.186749 353.639865 
L 471.90529 353.450086 
L 475.726554 353.492013 
L 479.675193 352.984934 
L 483.623832 353.145152 
L 487.445095 353.171443 
L 491.393734 354.058833 
L 495.214997 354.738912 
L 499.163636 353.736815 
L 503.112275 354.031539 
L 506.678788 354.024622 
L 514.44869 353.063738 
L 518.397329 352.912244 
L 522.218593 352.11777 
L 526.167232 352.160846 
L 530.115871 351.594797 
L 533.937134 351.257198 
L 537.885773 350.767918 
L 541.707036 351.027224 
L 545.655675 351.113392 
L 549.604314 350.596495 
L 553.298202 350.329887 
L 557.246841 351.828818 
L 561.068105 351.934749 
L 565.016744 350.095488 
L 568.838007 349.892101 
L 572.786646 349.545502 
L 576.735285 349.44229 
L 580.556549 349.63651 
L 584.505187 350.219551 
L 588.326451 349.109269 
L 592.27509 348.690186 
L 596.223729 347.222101 
L 599.790241 348.845429 
L 603.73888 349.927474 
L 607.560144 350.482802 
L 611.508783 350.131645 
L 615.330046 350.260013 
L 619.278685 349.560676 
L 623.227324 349.426506 
L 627.048588 349.571192 
L 630.997227 349.22279 
L 638.767129 349.383981 
L 642.715768 350.476251 
L 646.28228 350.668034 
L 650.230919 350.072477 
L 654.052183 350.57127 
L 658.000822 350.242618 
L 661.822085 350.543064 
L 665.770724 350.240025 
L 669.719363 350.716761 
L 673.540627 351.318671 
L 677.489266 351.797426 
L 681.310529 350.129794 
L 685.259168 350.532579 
L 689.207807 349.870573 
L 692.774319 350.443933 
L 696.722958 350.015772 
L 700.544222 351.001009 
L 704.492861 350.698676 
L 712.262763 350.699861 
L 720.032666 351.796806 
L 723.981305 351.792677 
L 727.802568 350.329534 
L 731.751207 349.938972 
L 735.699846 349.959981 
L 739.393734 350.314528 
L 743.342373 351.055033 
L 747.163636 351.634831 
L 747.163636 351.634831 
" clip-path="url(#p4b5185494d)" style="fill: none; stroke: #ffff99; stroke-width: 1.5; stroke-linecap: square"/>
   </g>
   <g id="patch_3">
    <path d="M 108 384.48 
L 108 51.84 
" style="fill: none; stroke: #000000; stroke-width: 0.8; stroke-linejoin: miter; stroke-linecap: square"/>
   </g>
   <g id="patch_4">
    <path d="M 777.6 384.48 
L 777.6 51.84 
" style="fill: none; stroke: #000000; stroke-width: 0.8; stroke-linejoin: miter; stroke-linecap: square"/>
   </g>
   <g id="patch_5">
    <path d="M 108 384.48 
L 777.6 384.48 
" style="fill: none; stroke: #000000; stroke-width: 0.8; stroke-linejoin: miter; stroke-linecap: square"/>
   </g>
   <g id="patch_6">
    <path d="M 108 51.84 
L 777.6 51.84 
" style="fill: none; stroke: #000000; stroke-width: 0.8; stroke-linejoin: miter; stroke-linecap: square"/>
   </g>
   <g id="text_15">
    <!-- Precio de Ttulos Gubernamentales -->
    <g transform="translate(304.108125 45.84) scale(0.14 -0.14)">
     <defs>
      <path id="DejaVuSans-Bold-50" d="M 588 4666 
L 2584 4666 
Q 3475 4666 3951 4270 
Q 4428 3875 4428 3144 
Q 4428 2409 3951 2014 
Q 3475 1619 2584 1619 
L 1791 1619 
L 1791 0 
L 588 0 
L 588 4666 
z
M 1791 3794 
L 1791 2491 
L 2456 2491 
Q 2806 2491 2997 2661 
Q 3188 2831 3188 3144 
Q 3188 3456 2997 3625 
Q 2806 3794 2456 3794 
L 1791 3794 
z
" transform="scale(0.015625)"/>
      <path id="DejaVuSans-Bold-72" d="M 3138 2547 
Q 2991 2616 2845 2648 
Q 2700 2681 2553 2681 
Q 2122 2681 1889 2404 
Q 1656 2128 1656 1613 
L 1656 0 
L 538 0 
L 538 3500 
L 1656 3500 
L 1656 2925 
Q 1872 3269 2151 3426 
Q 2431 3584 2822 3584 
Q 2878 3584 2943 3579 
Q 3009 3575 3134 3559 
L 3138 2547 
z
" transform="scale(0.015625)"/>
      <path id="DejaVuSans-Bold-65" d="M 4031 1759 
L 4031 1441 
L 1416 1441 
Q 1456 1047 1700 850 
Q 1944 653 2381 653 
Q 2734 653 3104 758 
Q 3475 863 3866 1075 
L 3866 213 
Q 3469 63 3072 -14 
Q 2675 -91 2278 -91 
Q 1328 -91 801 392 
Q 275 875 275 1747 
Q 275 2603 792 3093 
Q 1309 3584 2216 3584 
Q 3041 3584 3536 3087 
Q 4031 2591 4031 1759 
z
M 2881 2131 
Q 2881 2450 2695 2645 
Q 2509 2841 2209 2841 
Q 1884 2841 1681 2658 
Q 1478 2475 1428 2131 
L 2881 2131 
z
" transform="scale(0.015625)"/>
      <path id="DejaVuSans-Bold-63" d="M 3366 3391 
L 3366 2478 
Q 3138 2634 2908 2709 
Q 2678 2784 2431 2784 
Q 1963 2784 1702 2511 
Q 1441 2238 1441 1747 
Q 1441 1256 1702 982 
Q 1963 709 2431 709 
Q 2694 709 2930 787 
Q 3166 866 3366 1019 
L 3366 103 
Q 3103 6 2833 -42 
Q 2563 -91 2291 -91 
Q 1344 -91 809 395 
Q 275 881 275 1747 
Q 275 2613 809 3098 
Q 1344 3584 2291 3584 
Q 2566 3584 2833 3536 
Q 3100 3488 3366 3391 
z
" transform="scale(0.015625)"/>
      <path id="DejaVuSans-Bold-69" d="M 538 3500 
L 1656 3500 
L 1656 0 
L 538 0 
L 538 3500 
z
M 538 4863 
L 1656 4863 
L 1656 3950 
L 538 3950 
L 538 4863 
z
" transform="scale(0.015625)"/>
      <path id="DejaVuSans-Bold-6f" d="M 2203 2784 
Q 1831 2784 1636 2517 
Q 1441 2250 1441 1747 
Q 1441 1244 1636 976 
Q 1831 709 2203 709 
Q 2569 709 2762 976 
Q 2956 1244 2956 1747 
Q 2956 2250 2762 2517 
Q 2569 2784 2203 2784 
z
M 2203 3584 
Q 3106 3584 3614 3096 
Q 4122 2609 4122 1747 
Q 4122 884 3614 396 
Q 3106 -91 2203 -91 
Q 1297 -91 786 396 
Q 275 884 275 1747 
Q 275 2609 786 3096 
Q 1297 3584 2203 3584 
z
" transform="scale(0.015625)"/>
      <path id="DejaVuSans-Bold-20" transform="scale(0.015625)"/>
      <path id="DejaVuSans-Bold-64" d="M 2919 2988 
L 2919 4863 
L 4044 4863 
L 4044 0 
L 2919 0 
L 2919 506 
Q 2688 197 2409 53 
Q 2131 -91 1766 -91 
Q 1119 -91 703 423 
Q 288 938 288 1747 
Q 288 2556 703 3070 
Q 1119 3584 1766 3584 
Q 2128 3584 2408 3439 
Q 2688 3294 2919 2988 
z
M 2181 722 
Q 2541 722 2730 984 
Q 2919 1247 2919 1747 
Q 2919 2247 2730 2509 
Q 2541 2772 2181 2772 
Q 1825 2772 1636 2509 
Q 1447 2247 1447 1747 
Q 1447 1247 1636 984 
Q 1825 722 2181 722 
z
" transform="scale(0.015625)"/>
      <path id="DejaVuSans-Bold-54" d="M 31 4666 
L 4331 4666 
L 4331 3756 
L 2784 3756 
L 2784 0 
L 1581 0 
L 1581 3756 
L 31 3756 
L 31 4666 
z
" transform="scale(0.015625)"/>
      <path id="DejaVuSans-Bold-ed" d="M 538 3500 
L 1656 3500 
L 1656 0 
L 538 0 
L 538 3500 
z
M 1590 5119 
L 2474 5119 
L 1321 3944 
L 709 3944 
L 1590 5119 
z
" transform="scale(0.015625)"/>
      <path id="DejaVuSans-Bold-74" d="M 1759 4494 
L 1759 3500 
L 2913 3500 
L 2913 2700 
L 1759 2700 
L 1759 1216 
Q 1759 972 1856 886 
Q 1953 800 2241 800 
L 2816 800 
L 2816 0 
L 1856 0 
Q 1194 0 917 276 
Q 641 553 641 1216 
L 641 2700 
L 84 2700 
L 84 3500 
L 641 3500 
L 641 4494 
L 1759 4494 
z
" transform="scale(0.015625)"/>
      <path id="DejaVuSans-Bold-75" d="M 500 1363 
L 500 3500 
L 1625 3500 
L 1625 3150 
Q 1625 2866 1622 2436 
Q 1619 2006 1619 1863 
Q 1619 1441 1641 1255 
Q 1663 1069 1716 984 
Q 1784 875 1895 815 
Q 2006 756 2150 756 
Q 2500 756 2700 1025 
Q 2900 1294 2900 1772 
L 2900 3500 
L 4019 3500 
L 4019 0 
L 2900 0 
L 2900 506 
Q 2647 200 2364 54 
Q 2081 -91 1741 -91 
Q 1134 -91 817 281 
Q 500 653 500 1363 
z
" transform="scale(0.015625)"/>
      <path id="DejaVuSans-Bold-6c" d="M 538 4863 
L 1656 4863 
L 1656 0 
L 538 0 
L 538 4863 
z
" transform="scale(0.015625)"/>
      <path id="DejaVuSans-Bold-73" d="M 3272 3391 
L 3272 2541 
Q 2913 2691 2578 2766 
Q 2244 2841 1947 2841 
Q 1628 2841 1473 2761 
Q 1319 2681 1319 2516 
Q 1319 2381 1436 2309 
Q 1553 2238 1856 2203 
L 2053 2175 
Q 2913 2066 3209 1816 
Q 3506 1566 3506 1031 
Q 3506 472 3093 190 
Q 2681 -91 1863 -91 
Q 1516 -91 1145 -36 
Q 775 19 384 128 
L 384 978 
Q 719 816 1070 734 
Q 1422 653 1784 653 
Q 2113 653 2278 743 
Q 2444 834 2444 1013 
Q 2444 1163 2330 1236 
Q 2216 1309 1875 1350 
L 1678 1375 
Q 931 1469 631 1722 
Q 331 1975 331 2491 
Q 331 3047 712 3315 
Q 1094 3584 1881 3584 
Q 2191 3584 2531 3537 
Q 2872 3491 3272 3391 
z
" transform="scale(0.015625)"/>
      <path id="DejaVuSans-Bold-47" d="M 4781 347 
Q 4331 128 3847 18 
Q 3363 -91 2847 -91 
Q 1681 -91 1000 561 
Q 319 1213 319 2328 
Q 319 3456 1012 4103 
Q 1706 4750 2913 4750 
Q 3378 4750 3804 4662 
Q 4231 4575 4609 4403 
L 4609 3438 
Q 4219 3659 3833 3768 
Q 3447 3878 3059 3878 
Q 2341 3878 1952 3476 
Q 1563 3075 1563 2328 
Q 1563 1588 1938 1184 
Q 2313 781 3003 781 
Q 3191 781 3352 804 
Q 3513 828 3641 878 
L 3641 1784 
L 2906 1784 
L 2906 2591 
L 4781 2591 
L 4781 347 
z
" transform="scale(0.015625)"/>
      <path id="DejaVuSans-Bold-62" d="M 2400 722 
Q 2759 722 2948 984 
Q 3138 1247 3138 1747 
Q 3138 2247 2948 2509 
Q 2759 2772 2400 2772 
Q 2041 2772 1848 2508 
Q 1656 2244 1656 1747 
Q 1656 1250 1848 986 
Q 2041 722 2400 722 
z
M 1656 2988 
Q 1888 3294 2169 3439 
Q 2450 3584 2816 3584 
Q 3463 3584 3878 3070 
Q 4294 2556 4294 1747 
Q 4294 938 3878 423 
Q 3463 -91 2816 -91 
Q 2450 -91 2169 54 
Q 1888 200 1656 506 
L 1656 0 
L 538 0 
L 538 4863 
L 1656 4863 
L 1656 2988 
z
" transform="scale(0.015625)"/>
      <path id="DejaVuSans-Bold-6e" d="M 4056 2131 
L 4056 0 
L 2931 0 
L 2931 347 
L 2931 1631 
Q 2931 2084 2911 2256 
Q 2891 2428 2841 2509 
Q 2775 2619 2662 2680 
Q 2550 2741 2406 2741 
Q 2056 2741 1856 2470 
Q 1656 2200 1656 1722 
L 1656 0 
L 538 0 
L 538 3500 
L 1656 3500 
L 1656 2988 
Q 1909 3294 2193 3439 
Q 2478 3584 2822 3584 
Q 3428 3584 3742 3212 
Q 4056 2841 4056 2131 
z
" transform="scale(0.015625)"/>
      <path id="DejaVuSans-Bold-61" d="M 2106 1575 
Q 1756 1575 1579 1456 
Q 1403 1338 1403 1106 
Q 1403 894 1545 773 
Q 1688 653 1941 653 
Q 2256 653 2472 879 
Q 2688 1106 2688 1447 
L 2688 1575 
L 2106 1575 
z
M 3816 1997 
L 3816 0 
L 2688 0 
L 2688 519 
Q 2463 200 2181 54 
Q 1900 -91 1497 -91 
Q 953 -91 614 226 
Q 275 544 275 1050 
Q 275 1666 698 1953 
Q 1122 2241 2028 2241 
L 2688 2241 
L 2688 2328 
Q 2688 2594 2478 2717 
Q 2269 2841 1825 2841 
Q 1466 2841 1156 2769 
Q 847 2697 581 2553 
L 581 3406 
Q 941 3494 1303 3539 
Q 1666 3584 2028 3584 
Q 2975 3584 3395 3211 
Q 3816 2838 3816 1997 
z
" transform="scale(0.015625)"/>
      <path id="DejaVuSans-Bold-6d" d="M 3781 2919 
Q 3994 3244 4286 3414 
Q 4578 3584 4928 3584 
Q 5531 3584 5847 3212 
Q 6163 2841 6163 2131 
L 6163 0 
L 5038 0 
L 5038 1825 
Q 5041 1866 5042 1909 
Q 5044 1953 5044 2034 
Q 5044 2406 4934 2573 
Q 4825 2741 4581 2741 
Q 4263 2741 4089 2478 
Q 3916 2216 3909 1719 
L 3909 0 
L 2784 0 
L 2784 1825 
Q 2784 2406 2684 2573 
Q 2584 2741 2328 2741 
Q 2006 2741 1831 2477 
Q 1656 2213 1656 1722 
L 1656 0 
L 531 0 
L 531 3500 
L 1656 3500 
L 1656 2988 
Q 1863 3284 2130 3434 
Q 2397 3584 2719 3584 
Q 3081 3584 3359 3409 
Q 3638 3234 3781 2919 
z
" transform="scale(0.015625)"/>
     </defs>
     <use xlink:href="#DejaVuSans-Bold-50"/>
     <use xlink:href="#DejaVuSans-Bold-72" x="73.291016"/>
     <use xlink:href="#DejaVuSans-Bold-65" x="122.607422"/>
     <use xlink:href="#DejaVuSans-Bold-63" x="190.429688"/>
     <use xlink:href="#DejaVuSans-Bold-69" x="249.707031"/>
     <use xlink:href="#DejaVuSans-Bold-6f" x="283.984375"/>
     <use xlink:href="#DejaVuSans-Bold-20" x="352.685547"/>
     <use xlink:href="#DejaVuSans-Bold-64" x="387.5"/>
     <use xlink:href="#DejaVuSans-Bold-65" x="459.082031"/>
     <use xlink:href="#DejaVuSans-Bold-20" x="526.904297"/>
     <use xlink:href="#DejaVuSans-Bold-54" x="561.71875"/>
     <use xlink:href="#DejaVuSans-Bold-ed" x="629.931641"/>
     <use xlink:href="#DejaVuSans-Bold-74" x="664.208984"/>
     <use xlink:href="#DejaVuSans-Bold-75" x="712.011719"/>
     <use xlink:href="#DejaVuSans-Bold-6c" x="783.203125"/>
     <use xlink:href="#DejaVuSans-Bold-6f" x="817.480469"/>
     <use xlink:href="#DejaVuSans-Bold-73" x="886.181641"/>
     <use xlink:href="#DejaVuSans-Bold-20" x="945.703125"/>
     <use xlink:href="#DejaVuSans-Bold-47" x="980.517578"/>
     <use xlink:href="#DejaVuSans-Bold-75" x="1062.597656"/>
     <use xlink:href="#DejaVuSans-Bold-62" x="1133.789062"/>
     <use xlink:href="#DejaVuSans-Bold-65" x="1205.371094"/>
     <use xlink:href="#DejaVuSans-Bold-72" x="1273.193359"/>
     <use xlink:href="#DejaVuSans-Bold-6e" x="1322.509766"/>
     <use xlink:href="#DejaVuSans-Bold-61" x="1393.701172"/>
     <use xlink:href="#DejaVuSans-Bold-6d" x="1461.181641"/>
     <use xlink:href="#DejaVuSans-Bold-65" x="1565.380859"/>
     <use xlink:href="#DejaVuSans-Bold-6e" x="1633.203125"/>
     <use xlink:href="#DejaVuSans-Bold-74" x="1704.394531"/>
     <use xlink:href="#DejaVuSans-Bold-61" x="1752.197266"/>
     <use xlink:href="#DejaVuSans-Bold-6c" x="1819.677734"/>
     <use xlink:href="#DejaVuSans-Bold-65" x="1853.955078"/>
     <use xlink:href="#DejaVuSans-Bold-73" x="1921.777344"/>
    </g>
   </g>
  </g>
 </g>
 <defs>
  <clipPath id="p4b5185494d">
   <rect x="108" y="51.84" width="669.6" height="332.64"/>
  </clipPath>
 </defs>
</svg>
