<?xml version="1.0" encoding="utf-8" standalone="no"?>
<!DOCTYPE svg PUBLIC "-//W3C//DTD SVG 1.1//EN"
  "http://www.w3.org/Graphics/SVG/1.1/DTD/svg11.dtd">
<svg xmlns:xlink="http://www.w3.org/1999/xlink" width="864pt" height="432pt" viewBox="0 0 864 432" xmlns="http://www.w3.org/2000/svg" version="1.1">
 <metadata>
  <rdf:RDF xmlns:dc="http://purl.org/dc/elements/1.1/" xmlns:cc="http://creativecommons.org/ns#" xmlns:rdf="http://www.w3.org/1999/02/22-rdf-syntax-ns#">
   <cc:Work>
    <dc:type rdf:resource="http://purl.org/dc/dcmitype/StillImage"/>
    <dc:date>2025-03-03T22:47:28.864171</dc:date>
    <dc:format>image/svg+xml</dc:format>
    <dc:creator>
     <cc:Agent>
      <dc:title>Matplotlib v3.8.4, https://matplotlib.org/</dc:title>
     </cc:Agent>
    </dc:creator>
   </cc:Work>
  </rdf:RDF>
 </metadata>
 <defs>
  <style type="text/css">*{stroke-linejoin: round; stroke-linecap: butt}</style>
 </defs>
 <g id="figure_1">
  <g id="patch_1">
   <path d="M 0 432 
L 864 432 
L 864 0 
L 0 0 
z
" style="fill: #ffffff"/>
  </g>
  <g id="axes_1">
   <g id="patch_2">
    <path d="M 108 384.48 
L 777.6 384.48 
L 777.6 51.84 
L 108 51.84 
z
" style="fill: #ffffff"/>
   </g>
   <g id="matplotlib.axis_1">
    <g id="xtick_1">
     <g id="line2d_1">
      <path d="M 173.464612 384.48 
L 173.464612 51.84 
" clip-path="url(#pa366146001)" style="fill: none; stroke-dasharray: 2.96,1.28; stroke-dashoffset: 0; stroke: #b0b0b0; stroke-opacity: 0.5; stroke-width: 0.8"/>
     </g>
     <g id="line2d_2">
      <defs>
       <path id="mc68f187578" d="M 0 0 
L 0 3.5 
" style="stroke: #000000; stroke-width: 0.8"/>
      </defs>
      <g>
       <use xlink:href="#mc68f187578" x="173.464612" y="384.48" style="stroke: #000000; stroke-width: 0.8"/>
      </g>
     </g>
     <g id="text_1">
      <!-- 2012 -->
      <g transform="translate(160.739612 399.078438) scale(0.1 -0.1)">
       <defs>
        <path id="DejaVuSans-32" d="M 1228 531 
L 3431 531 
L 3431 0 
L 469 0 
L 469 531 
Q 828 903 1448 1529 
Q 2069 2156 2228 2338 
Q 2531 2678 2651 2914 
Q 2772 3150 2772 3378 
Q 2772 3750 2511 3984 
Q 2250 4219 1831 4219 
Q 1534 4219 1204 4116 
Q 875 4013 500 3803 
L 500 4441 
Q 881 4594 1212 4672 
Q 1544 4750 1819 4750 
Q 2544 4750 2975 4387 
Q 3406 4025 3406 3419 
Q 3406 3131 3298 2873 
Q 3191 2616 2906 2266 
Q 2828 2175 2409 1742 
Q 1991 1309 1228 531 
z
" transform="scale(0.015625)"/>
        <path id="DejaVuSans-30" d="M 2034 4250 
Q 1547 4250 1301 3770 
Q 1056 3291 1056 2328 
Q 1056 1369 1301 889 
Q 1547 409 2034 409 
Q 2525 409 2770 889 
Q 3016 1369 3016 2328 
Q 3016 3291 2770 3770 
Q 2525 4250 2034 4250 
z
M 2034 4750 
Q 2819 4750 3233 4129 
Q 3647 3509 3647 2328 
Q 3647 1150 3233 529 
Q 2819 -91 2034 -91 
Q 1250 -91 836 529 
Q 422 1150 422 2328 
Q 422 3509 836 4129 
Q 1250 4750 2034 4750 
z
" transform="scale(0.015625)"/>
        <path id="DejaVuSans-31" d="M 794 531 
L 1825 531 
L 1825 4091 
L 703 3866 
L 703 4441 
L 1819 4666 
L 2450 4666 
L 2450 531 
L 3481 531 
L 3481 0 
L 794 0 
L 794 531 
z
" transform="scale(0.015625)"/>
       </defs>
       <use xlink:href="#DejaVuSans-32"/>
       <use xlink:href="#DejaVuSans-30" x="63.623047"/>
       <use xlink:href="#DejaVuSans-31" x="127.246094"/>
       <use xlink:href="#DejaVuSans-32" x="190.869141"/>
      </g>
     </g>
    </g>
    <g id="xtick_2">
     <g id="line2d_3">
      <path d="M 266.576066 384.48 
L 266.576066 51.84 
" clip-path="url(#pa366146001)" style="fill: none; stroke-dasharray: 2.96,1.28; stroke-dashoffset: 0; stroke: #b0b0b0; stroke-opacity: 0.5; stroke-width: 0.8"/>
     </g>
     <g id="line2d_4">
      <g>
       <use xlink:href="#mc68f187578" x="266.576066" y="384.48" style="stroke: #000000; stroke-width: 0.8"/>
      </g>
     </g>
     <g id="text_2">
      <!-- 2014 -->
      <g transform="translate(253.851066 399.078438) scale(0.1 -0.1)">
       <defs>
        <path id="DejaVuSans-34" d="M 2419 4116 
L 825 1625 
L 2419 1625 
L 2419 4116 
z
M 2253 4666 
L 3047 4666 
L 3047 1625 
L 3713 1625 
L 3713 1100 
L 3047 1100 
L 3047 0 
L 2419 0 
L 2419 1100 
L 313 1100 
L 313 1709 
L 2253 4666 
z
" transform="scale(0.015625)"/>
       </defs>
       <use xlink:href="#DejaVuSans-32"/>
       <use xlink:href="#DejaVuSans-30" x="63.623047"/>
       <use xlink:href="#DejaVuSans-31" x="127.246094"/>
       <use xlink:href="#DejaVuSans-34" x="190.869141"/>
      </g>
     </g>
    </g>
    <g id="xtick_3">
     <g id="line2d_5">
      <path d="M 359.560144 384.48 
L 359.560144 51.84 
" clip-path="url(#pa366146001)" style="fill: none; stroke-dasharray: 2.96,1.28; stroke-dashoffset: 0; stroke: #b0b0b0; stroke-opacity: 0.5; stroke-width: 0.8"/>
     </g>
     <g id="line2d_6">
      <g>
       <use xlink:href="#mc68f187578" x="359.560144" y="384.48" style="stroke: #000000; stroke-width: 0.8"/>
      </g>
     </g>
     <g id="text_3">
      <!-- 2016 -->
      <g transform="translate(346.835144 399.078438) scale(0.1 -0.1)">
       <defs>
        <path id="DejaVuSans-36" d="M 2113 2584 
Q 1688 2584 1439 2293 
Q 1191 2003 1191 1497 
Q 1191 994 1439 701 
Q 1688 409 2113 409 
Q 2538 409 2786 701 
Q 3034 994 3034 1497 
Q 3034 2003 2786 2293 
Q 2538 2584 2113 2584 
z
M 3366 4563 
L 3366 3988 
Q 3128 4100 2886 4159 
Q 2644 4219 2406 4219 
Q 1781 4219 1451 3797 
Q 1122 3375 1075 2522 
Q 1259 2794 1537 2939 
Q 1816 3084 2150 3084 
Q 2853 3084 3261 2657 
Q 3669 2231 3669 1497 
Q 3669 778 3244 343 
Q 2819 -91 2113 -91 
Q 1303 -91 875 529 
Q 447 1150 447 2328 
Q 447 3434 972 4092 
Q 1497 4750 2381 4750 
Q 2619 4750 2861 4703 
Q 3103 4656 3366 4563 
z
" transform="scale(0.015625)"/>
       </defs>
       <use xlink:href="#DejaVuSans-32"/>
       <use xlink:href="#DejaVuSans-30" x="63.623047"/>
       <use xlink:href="#DejaVuSans-31" x="127.246094"/>
       <use xlink:href="#DejaVuSans-36" x="190.869141"/>
      </g>
     </g>
    </g>
    <g id="xtick_4">
     <g id="line2d_7">
      <path d="M 452.671597 384.48 
L 452.671597 51.84 
" clip-path="url(#pa366146001)" style="fill: none; stroke-dasharray: 2.96,1.28; stroke-dashoffset: 0; stroke: #b0b0b0; stroke-opacity: 0.5; stroke-width: 0.8"/>
     </g>
     <g id="line2d_8">
      <g>
       <use xlink:href="#mc68f187578" x="452.671597" y="384.48" style="stroke: #000000; stroke-width: 0.8"/>
      </g>
     </g>
     <g id="text_4">
      <!-- 2018 -->
      <g transform="translate(439.946597 399.078438) scale(0.1 -0.1)">
       <defs>
        <path id="DejaVuSans-38" d="M 2034 2216 
Q 1584 2216 1326 1975 
Q 1069 1734 1069 1313 
Q 1069 891 1326 650 
Q 1584 409 2034 409 
Q 2484 409 2743 651 
Q 3003 894 3003 1313 
Q 3003 1734 2745 1975 
Q 2488 2216 2034 2216 
z
M 1403 2484 
Q 997 2584 770 2862 
Q 544 3141 544 3541 
Q 544 4100 942 4425 
Q 1341 4750 2034 4750 
Q 2731 4750 3128 4425 
Q 3525 4100 3525 3541 
Q 3525 3141 3298 2862 
Q 3072 2584 2669 2484 
Q 3125 2378 3379 2068 
Q 3634 1759 3634 1313 
Q 3634 634 3220 271 
Q 2806 -91 2034 -91 
Q 1263 -91 848 271 
Q 434 634 434 1313 
Q 434 1759 690 2068 
Q 947 2378 1403 2484 
z
M 1172 3481 
Q 1172 3119 1398 2916 
Q 1625 2713 2034 2713 
Q 2441 2713 2670 2916 
Q 2900 3119 2900 3481 
Q 2900 3844 2670 4047 
Q 2441 4250 2034 4250 
Q 1625 4250 1398 4047 
Q 1172 3844 1172 3481 
z
" transform="scale(0.015625)"/>
       </defs>
       <use xlink:href="#DejaVuSans-32"/>
       <use xlink:href="#DejaVuSans-30" x="63.623047"/>
       <use xlink:href="#DejaVuSans-31" x="127.246094"/>
       <use xlink:href="#DejaVuSans-38" x="190.869141"/>
      </g>
     </g>
    </g>
    <g id="xtick_5">
     <g id="line2d_9">
      <path d="M 545.655675 384.48 
L 545.655675 51.84 
" clip-path="url(#pa366146001)" style="fill: none; stroke-dasharray: 2.96,1.28; stroke-dashoffset: 0; stroke: #b0b0b0; stroke-opacity: 0.5; stroke-width: 0.8"/>
     </g>
     <g id="line2d_10">
      <g>
       <use xlink:href="#mc68f187578" x="545.655675" y="384.48" style="stroke: #000000; stroke-width: 0.8"/>
      </g>
     </g>
     <g id="text_5">
      <!-- 2020 -->
      <g transform="translate(532.930675 399.078438) scale(0.1 -0.1)">
       <use xlink:href="#DejaVuSans-32"/>
       <use xlink:href="#DejaVuSans-30" x="63.623047"/>
       <use xlink:href="#DejaVuSans-32" x="127.246094"/>
       <use xlink:href="#DejaVuSans-30" x="190.869141"/>
      </g>
     </g>
    </g>
    <g id="xtick_6">
     <g id="line2d_11">
      <path d="M 638.767129 384.48 
L 638.767129 51.84 
" clip-path="url(#pa366146001)" style="fill: none; stroke-dasharray: 2.96,1.28; stroke-dashoffset: 0; stroke: #b0b0b0; stroke-opacity: 0.5; stroke-width: 0.8"/>
     </g>
     <g id="line2d_12">
      <g>
       <use xlink:href="#mc68f187578" x="638.767129" y="384.48" style="stroke: #000000; stroke-width: 0.8"/>
      </g>
     </g>
     <g id="text_6">
      <!-- 2022 -->
      <g transform="translate(626.042129 399.078438) scale(0.1 -0.1)">
       <use xlink:href="#DejaVuSans-32"/>
       <use xlink:href="#DejaVuSans-30" x="63.623047"/>
       <use xlink:href="#DejaVuSans-32" x="127.246094"/>
       <use xlink:href="#DejaVuSans-32" x="190.869141"/>
      </g>
     </g>
    </g>
    <g id="xtick_7">
     <g id="line2d_13">
      <path d="M 731.751207 384.48 
L 731.751207 51.84 
" clip-path="url(#pa366146001)" style="fill: none; stroke-dasharray: 2.96,1.28; stroke-dashoffset: 0; stroke: #b0b0b0; stroke-opacity: 0.5; stroke-width: 0.8"/>
     </g>
     <g id="line2d_14">
      <g>
       <use xlink:href="#mc68f187578" x="731.751207" y="384.48" style="stroke: #000000; stroke-width: 0.8"/>
      </g>
     </g>
     <g id="text_7">
      <!-- 2024 -->
      <g transform="translate(719.026207 399.078438) scale(0.1 -0.1)">
       <use xlink:href="#DejaVuSans-32"/>
       <use xlink:href="#DejaVuSans-30" x="63.623047"/>
       <use xlink:href="#DejaVuSans-32" x="127.246094"/>
       <use xlink:href="#DejaVuSans-34" x="190.869141"/>
      </g>
     </g>
    </g>
   </g>
   <g id="matplotlib.axis_2">
    <g id="ytick_1">
     <g id="line2d_15">
      <path d="M 108 362.117318 
L 777.6 362.117318 
" clip-path="url(#pa366146001)" style="fill: none; stroke-dasharray: 2.96,1.28; stroke-dashoffset: 0; stroke: #b0b0b0; stroke-opacity: 0.5; stroke-width: 0.8"/>
     </g>
     <g id="line2d_16">
      <defs>
       <path id="m22813b18f0" d="M 0 0 
L -3.5 0 
" style="stroke: #000000; stroke-width: 0.8"/>
      </defs>
      <g>
       <use xlink:href="#m22813b18f0" x="108" y="362.117318" style="stroke: #000000; stroke-width: 0.8"/>
      </g>
     </g>
     <g id="text_8">
      <!-- 60 -->
      <g transform="translate(88.275 365.916537) scale(0.1 -0.1)">
       <use xlink:href="#DejaVuSans-36"/>
       <use xlink:href="#DejaVuSans-30" x="63.623047"/>
      </g>
     </g>
    </g>
    <g id="ytick_2">
     <g id="line2d_17">
      <path d="M 108 311.019011 
L 777.6 311.019011 
" clip-path="url(#pa366146001)" style="fill: none; stroke-dasharray: 2.96,1.28; stroke-dashoffset: 0; stroke: #b0b0b0; stroke-opacity: 0.5; stroke-width: 0.8"/>
     </g>
     <g id="line2d_18">
      <g>
       <use xlink:href="#m22813b18f0" x="108" y="311.019011" style="stroke: #000000; stroke-width: 0.8"/>
      </g>
     </g>
     <g id="text_9">
      <!-- 80 -->
      <g transform="translate(88.275 314.81823) scale(0.1 -0.1)">
       <use xlink:href="#DejaVuSans-38"/>
       <use xlink:href="#DejaVuSans-30" x="63.623047"/>
      </g>
     </g>
    </g>
    <g id="ytick_3">
     <g id="line2d_19">
      <path d="M 108 259.920704 
L 777.6 259.920704 
" clip-path="url(#pa366146001)" style="fill: none; stroke-dasharray: 2.96,1.28; stroke-dashoffset: 0; stroke: #b0b0b0; stroke-opacity: 0.5; stroke-width: 0.8"/>
     </g>
     <g id="line2d_20">
      <g>
       <use xlink:href="#m22813b18f0" x="108" y="259.920704" style="stroke: #000000; stroke-width: 0.8"/>
      </g>
     </g>
     <g id="text_10">
      <!-- 100 -->
      <g transform="translate(81.9125 263.719923) scale(0.1 -0.1)">
       <use xlink:href="#DejaVuSans-31"/>
       <use xlink:href="#DejaVuSans-30" x="63.623047"/>
       <use xlink:href="#DejaVuSans-30" x="127.246094"/>
      </g>
     </g>
    </g>
    <g id="ytick_4">
     <g id="line2d_21">
      <path d="M 108 208.822398 
L 777.6 208.822398 
" clip-path="url(#pa366146001)" style="fill: none; stroke-dasharray: 2.96,1.28; stroke-dashoffset: 0; stroke: #b0b0b0; stroke-opacity: 0.5; stroke-width: 0.8"/>
     </g>
     <g id="line2d_22">
      <g>
       <use xlink:href="#m22813b18f0" x="108" y="208.822398" style="stroke: #000000; stroke-width: 0.8"/>
      </g>
     </g>
     <g id="text_11">
      <!-- 120 -->
      <g transform="translate(81.9125 212.621616) scale(0.1 -0.1)">
       <use xlink:href="#DejaVuSans-31"/>
       <use xlink:href="#DejaVuSans-32" x="63.623047"/>
       <use xlink:href="#DejaVuSans-30" x="127.246094"/>
      </g>
     </g>
    </g>
    <g id="ytick_5">
     <g id="line2d_23">
      <path d="M 108 157.724091 
L 777.6 157.724091 
" clip-path="url(#pa366146001)" style="fill: none; stroke-dasharray: 2.96,1.28; stroke-dashoffset: 0; stroke: #b0b0b0; stroke-opacity: 0.5; stroke-width: 0.8"/>
     </g>
     <g id="line2d_24">
      <g>
       <use xlink:href="#m22813b18f0" x="108" y="157.724091" style="stroke: #000000; stroke-width: 0.8"/>
      </g>
     </g>
     <g id="text_12">
      <!-- 140 -->
      <g transform="translate(81.9125 161.523309) scale(0.1 -0.1)">
       <use xlink:href="#DejaVuSans-31"/>
       <use xlink:href="#DejaVuSans-34" x="63.623047"/>
       <use xlink:href="#DejaVuSans-30" x="127.246094"/>
      </g>
     </g>
    </g>
    <g id="ytick_6">
     <g id="line2d_25">
      <path d="M 108 106.625784 
L 777.6 106.625784 
" clip-path="url(#pa366146001)" style="fill: none; stroke-dasharray: 2.96,1.28; stroke-dashoffset: 0; stroke: #b0b0b0; stroke-opacity: 0.5; stroke-width: 0.8"/>
     </g>
     <g id="line2d_26">
      <g>
       <use xlink:href="#m22813b18f0" x="108" y="106.625784" style="stroke: #000000; stroke-width: 0.8"/>
      </g>
     </g>
     <g id="text_13">
      <!-- 160 -->
      <g transform="translate(81.9125 110.425002) scale(0.1 -0.1)">
       <use xlink:href="#DejaVuSans-31"/>
       <use xlink:href="#DejaVuSans-36" x="63.623047"/>
       <use xlink:href="#DejaVuSans-30" x="127.246094"/>
      </g>
     </g>
    </g>
    <g id="ytick_7">
     <g id="line2d_27">
      <path d="M 108 55.527477 
L 777.6 55.527477 
" clip-path="url(#pa366146001)" style="fill: none; stroke-dasharray: 2.96,1.28; stroke-dashoffset: 0; stroke: #b0b0b0; stroke-opacity: 0.5; stroke-width: 0.8"/>
     </g>
     <g id="line2d_28">
      <g>
       <use xlink:href="#m22813b18f0" x="108" y="55.527477" style="stroke: #000000; stroke-width: 0.8"/>
      </g>
     </g>
     <g id="text_14">
      <!-- 180 -->
      <g transform="translate(81.9125 59.326695) scale(0.1 -0.1)">
       <use xlink:href="#DejaVuSans-31"/>
       <use xlink:href="#DejaVuSans-38" x="63.623047"/>
       <use xlink:href="#DejaVuSans-30" x="127.246094"/>
      </g>
     </g>
    </g>
   </g>
   <g id="line2d_29">
    <path d="M 138.436364 322.068072 
L 142.257627 323.302229 
L 146.206266 323.578618 
L 150.02753 322.609336 
L 157.924807 321.757134 
L 161.746071 320.448121 
L 165.69471 318.442377 
L 169.515973 317.118011 
L 173.464612 315.567157 
L 177.413251 314.799407 
L 181.107139 314.797488 
L 188.877042 316.175597 
L 192.825681 315.325316 
L 196.646944 314.037416 
L 200.595583 313.582527 
L 204.544222 312.597888 
L 208.365485 311.392522 
L 212.314124 309.851264 
L 216.135388 309.667006 
L 220.084027 309.150694 
L 224.032666 307.834005 
L 227.599178 306.523073 
L 231.547817 306.066262 
L 235.369081 306.77451 
L 243.138983 306.931898 
L 247.087622 306.429024 
L 254.857524 304.716942 
L 258.806163 302.634423 
L 262.627427 301.724641 
L 266.576066 299.597975 
L 270.524705 299.091261 
L 274.091217 298.388772 
L 278.039856 298.682437 
L 281.86112 299.590298 
L 289.631022 298.590306 
L 293.579661 297.922365 
L 301.349563 295.615279 
L 305.298202 293.786115 
L 309.119466 292.768847 
L 313.068105 292.94927 
L 317.016744 292.525088 
L 320.583256 291.937759 
L 324.531895 292.122019 
L 328.353159 293.265965 
L 340.0717 292.173843 
L 347.841602 290.179614 
L 351.790241 288.761197 
L 355.611505 288.310145 
L 359.560144 287.440669 
L 363.508783 285.981947 
L 367.202671 285.874462 
L 371.15131 286.319756 
L 374.972573 287.640284 
L 378.921212 287.206505 
L 386.691115 285.930123 
L 390.639753 284.749709 
L 394.461017 283.221888 
L 398.409656 281.294838 
L 402.230919 280.410006 
L 406.179558 276.548229 
L 410.128197 275.177798 
L 413.69471 273.738269 
L 417.643349 273.436927 
L 421.464612 273.596234 
L 429.234515 272.1759 
L 433.183154 270.811225 
L 440.953056 268.59627 
L 444.901695 265.855405 
L 452.671597 263.389011 
L 456.620236 262.091515 
L 460.186749 261.235475 
L 467.956651 262.813199 
L 471.90529 261.826642 
L 475.726554 260.383273 
L 487.445095 256.415361 
L 491.393734 254.473625 
L 495.214997 252.130768 
L 499.163636 251.987692 
L 503.112275 252.232964 
L 506.678788 251.195669 
L 510.627427 250.975946 
L 514.44869 251.61723 
L 518.397329 251.681102 
L 522.218593 250.585044 
L 526.167232 250.615703 
L 530.115871 250.015298 
L 533.937134 248.627979 
L 537.885773 246.382208 
L 541.707036 245.196727 
L 545.655675 243.599905 
L 549.604314 242.966286 
L 553.298202 241.387349 
L 557.246841 245.472658 
L 561.068105 244.164542 
L 565.016744 243.326529 
L 568.838007 241.088423 
L 572.786646 240.051128 
L 576.735285 239.144133 
L 580.556549 237.72871 
L 588.326451 236.497241 
L 596.223729 232.491133 
L 599.790241 230.109952 
L 603.73888 229.128865 
L 607.560144 228.441592 
L 611.508783 226.954632 
L 615.330046 225.309266 
L 619.278685 224.678202 
L 623.227324 222.92042 
L 627.048588 220.728303 
L 630.997227 217.549988 
L 634.81849 215.718114 
L 638.767129 214.519859 
L 642.715768 212.059475 
L 646.28228 209.320606 
L 650.230919 207.026292 
L 654.052183 206.681378 
L 658.000822 204.21333 
L 661.822085 201.64564 
L 665.770724 199.617038 
L 669.719363 197.307394 
L 673.540627 195.582826 
L 677.489266 193.316616 
L 681.310529 192.427506 
L 685.259168 190.64162 
L 689.207807 188.53126 
L 692.774319 187.511849 
L 700.544222 188.153132 
L 704.492861 188.104589 
L 708.314124 186.607409 
L 716.211402 183.188932 
L 720.032666 181.939578 
L 723.981305 179.405102 
L 727.802568 178.015228 
L 731.751207 174.739827 
L 735.699846 173.975907 
L 739.393734 172.836415 
L 747.163636 172.496611 
L 747.163636 172.496611 
" clip-path="url(#pa366146001)" style="fill: none; stroke: #a6cee3; stroke-width: 1.5; stroke-linecap: square"/>
   </g>
   <g id="line2d_30">
    <path d="M 138.436364 322.068072 
L 142.257627 323.302229 
L 146.206266 323.578618 
L 150.02753 322.609336 
L 157.924807 321.757134 
L 161.746071 320.448121 
L 165.69471 318.442377 
L 169.515973 317.118011 
L 173.464612 315.567157 
L 177.413251 314.799407 
L 181.107139 314.797488 
L 188.877042 316.175597 
L 192.825681 315.325316 
L 196.646944 314.037416 
L 200.595583 313.582527 
L 204.544222 312.597888 
L 208.365485 311.392522 
L 212.314124 309.851264 
L 216.135388 309.667006 
L 220.084027 309.150694 
L 224.032666 307.834005 
L 227.599178 306.523073 
L 231.547817 306.066262 
L 235.369081 306.77451 
L 243.138983 306.931898 
L 247.087622 306.429024 
L 254.857524 304.716942 
L 258.806163 302.634423 
L 262.627427 301.724641 
L 266.576066 299.597975 
L 270.524705 299.091261 
L 274.091217 298.388772 
L 278.039856 298.682437 
L 281.86112 299.590298 
L 289.631022 298.590306 
L 293.579661 297.922365 
L 301.349563 295.615279 
L 305.298202 293.786115 
L 309.119466 292.768847 
L 313.068105 292.94927 
L 317.016744 292.525088 
L 320.583256 291.937759 
L 324.531895 292.122019 
L 328.353159 293.265965 
L 340.0717 292.173843 
L 347.841602 290.179614 
L 351.790241 288.761197 
L 355.611505 288.310145 
L 359.560144 287.440669 
L 363.508783 285.981947 
L 367.202671 285.874462 
L 371.15131 286.319756 
L 374.972573 287.640284 
L 378.921212 287.206505 
L 386.691115 285.930123 
L 390.639753 284.749709 
L 394.461017 283.221888 
L 398.409656 281.294838 
L 402.230919 280.410006 
L 406.179558 276.548229 
L 410.128197 275.177798 
L 413.69471 273.738269 
L 417.643349 273.436927 
L 421.464612 273.596234 
L 429.234515 272.1759 
L 433.183154 270.811225 
L 440.953056 268.59627 
L 444.901695 265.855405 
L 452.671597 263.389011 
L 456.620236 262.091515 
L 460.186749 261.235475 
L 467.956651 262.813199 
L 471.90529 261.826642 
L 475.726554 260.383273 
L 487.445095 256.415361 
L 491.393734 254.473625 
L 495.214997 252.130768 
L 499.163636 251.987692 
L 503.112275 252.232964 
L 506.678788 251.195669 
L 510.627427 250.975946 
L 514.44869 251.61723 
L 518.397329 251.681102 
L 522.218593 250.585044 
L 526.167232 250.615703 
L 530.115871 250.015298 
L 533.937134 248.627979 
L 537.885773 246.382208 
L 541.707036 245.196727 
L 545.655675 243.599905 
L 549.604314 242.966286 
L 553.298202 241.387349 
L 557.246841 245.472658 
L 561.068105 244.164542 
L 565.016744 243.326529 
L 568.838007 241.088423 
L 572.786646 240.051128 
L 576.735285 239.144133 
L 580.556549 237.72871 
L 588.326451 236.497241 
L 596.223729 232.491133 
L 599.790241 230.109952 
L 603.73888 229.128865 
L 607.560144 228.441592 
L 611.508783 226.954632 
L 615.330046 225.309266 
L 619.278685 224.678202 
L 623.227324 222.92042 
L 627.048588 220.728303 
L 630.997227 217.549988 
L 634.81849 215.718114 
L 638.767129 214.519859 
L 642.715768 212.059475 
L 646.28228 209.320606 
L 650.230919 207.026292 
L 654.052183 206.681378 
L 658.000822 204.21333 
L 661.822085 201.64564 
L 665.770724 199.617038 
L 669.719363 197.307394 
L 673.540627 195.582826 
L 677.489266 193.316616 
L 681.310529 192.427506 
L 685.259168 190.64162 
L 689.207807 188.53126 
L 692.774319 187.511849 
L 700.544222 188.153132 
L 704.492861 188.104589 
L 708.314124 186.607409 
L 716.211402 183.188932 
L 720.032666 181.939578 
L 723.981305 179.405102 
L 727.802568 178.015228 
L 731.751207 174.739827 
L 735.699846 173.975907 
L 739.393734 172.836415 
L 747.163636 172.496611 
L 747.163636 172.496611 
" clip-path="url(#pa366146001)" style="fill: none; stroke: #a6cee3; stroke-width: 1.5; stroke-linecap: square"/>
   </g>
   <g id="line2d_31">
    <path d="M 138.436364 313.323836 
L 142.257627 313.072356 
L 146.206266 312.666017 
L 150.02753 312.080339 
L 153.976168 311.865562 
L 165.69471 310.176886 
L 173.464612 308.404513 
L 177.413251 307.30278 
L 181.107139 306.841801 
L 185.055778 306.567138 
L 188.877042 305.972075 
L 192.825681 305.541906 
L 196.646944 304.851349 
L 200.595583 304.335455 
L 204.544222 303.984691 
L 212.314124 302.998317 
L 216.135388 303.094088 
L 220.084027 302.657254 
L 224.032666 301.147838 
L 227.599178 300.459122 
L 231.547817 300.296346 
L 239.31772 299.601031 
L 247.087622 299.30427 
L 251.036261 298.62442 
L 258.806163 297.844041 
L 262.627427 297.252944 
L 266.576066 295.572136 
L 270.524705 294.779791 
L 274.091217 294.355871 
L 278.039856 293.487793 
L 281.86112 293.526163 
L 285.809759 292.937771 
L 293.579661 292.085538 
L 297.5283 291.374316 
L 301.349563 291.051331 
L 309.119466 290.138077 
L 313.068105 290.239338 
L 317.016744 289.450467 
L 324.531895 288.539788 
L 328.353159 288.279659 
L 340.0717 286.967577 
L 344.020339 286.131423 
L 347.841602 285.534855 
L 351.790241 285.331019 
L 355.611505 284.752777 
L 359.560144 284.367877 
L 363.508783 283.519484 
L 367.202671 282.535269 
L 371.15131 282.212428 
L 382.742476 280.579597 
L 386.691115 280.187591 
L 390.639753 279.145668 
L 398.409656 277.664712 
L 406.179558 275.779698 
L 410.128197 273.780609 
L 417.643349 271.122235 
L 421.464612 270.551965 
L 429.234515 269.024174 
L 433.183154 268.37624 
L 437.131793 267.577111 
L 440.953056 267.152965 
L 448.722958 265.077456 
L 452.671597 264.693455 
L 456.620236 263.331667 
L 460.186749 262.396355 
L 464.135388 262.083181 
L 471.90529 260.901252 
L 475.726554 260.052068 
L 479.675193 259.472501 
L 483.623832 258.75894 
L 487.445095 257.863002 
L 491.393734 257.106604 
L 495.214997 255.971118 
L 499.163636 255.57205 
L 506.678788 253.524833 
L 510.627427 252.113524 
L 514.44869 251.935779 
L 518.397329 251.056445 
L 522.218593 250.326217 
L 526.167232 249.825001 
L 533.937134 248.39566 
L 537.885773 247.661474 
L 541.707036 246.658121 
L 545.655675 245.892526 
L 549.604314 244.867299 
L 557.246841 243.154801 
L 561.068105 242.024828 
L 565.016744 241.383018 
L 568.838007 240.140967 
L 572.786646 239.392935 
L 576.735285 238.436485 
L 580.556549 237.704494 
L 584.505187 237.807176 
L 588.326451 236.428536 
L 592.27509 235.55722 
L 596.223729 234.469254 
L 599.790241 232.989205 
L 603.73888 231.901124 
L 607.560144 230.486376 
L 615.330046 227.36342 
L 619.278685 226.18892 
L 627.048588 223.475912 
L 630.997227 222.446496 
L 634.81849 220.049458 
L 638.767129 218.450284 
L 646.28228 214.13613 
L 650.230919 211.592915 
L 654.052183 209.845834 
L 658.000822 207.436632 
L 661.822085 205.593333 
L 669.719363 200.782148 
L 685.259168 193.364589 
L 689.207807 191.076418 
L 696.722958 188.048952 
L 704.492861 186.14715 
L 708.314124 184.663012 
L 712.262763 183.748304 
L 720.032666 181.430416 
L 723.981305 180.180878 
L 727.802568 178.765686 
L 731.751207 177.963578 
L 739.393734 174.309929 
L 743.342373 173.677835 
L 747.163636 172.921335 
L 747.163636 172.921335 
" clip-path="url(#pa366146001)" style="fill: none; stroke: #1f78b4; stroke-width: 1.5; stroke-linecap: square"/>
   </g>
   <g id="line2d_32">
    <path d="M 138.436364 313.323836 
L 142.257627 313.072356 
L 146.206266 312.666017 
L 150.02753 312.080339 
L 153.976168 311.865562 
L 165.69471 310.176886 
L 173.464612 308.404513 
L 177.413251 307.30278 
L 181.107139 306.841801 
L 185.055778 306.567138 
L 188.877042 305.972075 
L 192.825681 305.541906 
L 196.646944 304.851349 
L 200.595583 304.335455 
L 204.544222 303.984691 
L 212.314124 302.998317 
L 216.135388 303.094088 
L 220.084027 302.657254 
L 224.032666 301.147838 
L 227.599178 300.459122 
L 231.547817 300.296346 
L 239.31772 299.601031 
L 247.087622 299.30427 
L 251.036261 298.62442 
L 258.806163 297.844041 
L 262.627427 297.252944 
L 266.576066 295.572136 
L 270.524705 294.779791 
L 274.091217 294.355871 
L 278.039856 293.487793 
L 281.86112 293.526163 
L 285.809759 292.937771 
L 293.579661 292.085538 
L 297.5283 291.374316 
L 301.349563 291.051331 
L 309.119466 290.138077 
L 313.068105 290.239338 
L 317.016744 289.450467 
L 324.531895 288.539788 
L 328.353159 288.279659 
L 340.0717 286.967577 
L 344.020339 286.131423 
L 347.841602 285.534855 
L 351.790241 285.331019 
L 355.611505 284.752777 
L 359.560144 284.367877 
L 363.508783 283.519484 
L 367.202671 282.535269 
L 371.15131 282.212428 
L 382.742476 280.579597 
L 386.691115 280.187591 
L 390.639753 279.145668 
L 398.409656 277.664712 
L 406.179558 275.779698 
L 410.128197 273.780609 
L 417.643349 271.122235 
L 421.464612 270.551965 
L 429.234515 269.024174 
L 433.183154 268.37624 
L 437.131793 267.577111 
L 440.953056 267.152965 
L 448.722958 265.077456 
L 452.671597 264.693455 
L 456.620236 263.331667 
L 460.186749 262.396355 
L 464.135388 262.083181 
L 471.90529 260.901252 
L 475.726554 260.052068 
L 479.675193 259.472501 
L 483.623832 258.75894 
L 487.445095 257.863002 
L 491.393734 257.106604 
L 495.214997 255.971118 
L 499.163636 255.57205 
L 506.678788 253.524833 
L 510.627427 252.113524 
L 514.44869 251.935779 
L 518.397329 251.056445 
L 522.218593 250.326217 
L 526.167232 249.825001 
L 533.937134 248.39566 
L 537.885773 247.661474 
L 541.707036 246.658121 
L 545.655675 245.892526 
L 549.604314 244.867299 
L 557.246841 243.154801 
L 561.068105 242.024828 
L 565.016744 241.383018 
L 568.838007 240.140967 
L 572.786646 239.392935 
L 576.735285 238.436485 
L 580.556549 237.704494 
L 584.505187 237.807176 
L 588.326451 236.428536 
L 592.27509 235.55722 
L 596.223729 234.469254 
L 599.790241 232.989205 
L 603.73888 231.901124 
L 607.560144 230.486376 
L 615.330046 227.36342 
L 619.278685 226.18892 
L 627.048588 223.475912 
L 630.997227 222.446496 
L 634.81849 220.049458 
L 638.767129 218.450284 
L 646.28228 214.13613 
L 650.230919 211.592915 
L 654.052183 209.845834 
L 658.000822 207.436632 
L 661.822085 205.593333 
L 669.719363 200.782148 
L 685.259168 193.364589 
L 689.207807 191.076418 
L 696.722958 188.048952 
L 704.492861 186.14715 
L 708.314124 184.663012 
L 712.262763 183.748304 
L 720.032666 181.430416 
L 723.981305 180.180878 
L 727.802568 178.765686 
L 731.751207 177.963578 
L 739.393734 174.309929 
L 743.342373 173.677835 
L 747.163636 172.921335 
L 747.163636 172.921335 
" clip-path="url(#pa366146001)" style="fill: none; stroke: #1f78b4; stroke-width: 1.5; stroke-linecap: square"/>
   </g>
   <g id="line2d_33">
    <path d="M 138.436364 322.068072 
L 142.257627 323.302229 
L 146.206266 323.578618 
L 150.02753 322.609336 
L 157.924807 321.757134 
L 161.746071 320.448121 
L 165.69471 318.442377 
L 169.515973 317.118011 
L 173.464612 315.567157 
L 177.413251 314.799407 
L 181.107139 314.797488 
L 188.877042 316.175597 
L 192.825681 315.325316 
L 196.646944 314.037416 
L 200.595583 313.582527 
L 204.544222 312.597888 
L 208.365485 311.392522 
L 212.314124 309.851264 
L 216.135388 309.667006 
L 220.084027 309.150694 
L 224.032666 307.834005 
L 227.599178 306.523073 
L 231.547817 306.066262 
L 235.369081 306.77451 
L 243.138983 306.931898 
L 247.087622 306.429024 
L 254.857524 304.716942 
L 258.806163 302.634423 
L 262.627427 301.724641 
L 266.576066 299.597975 
L 270.524705 299.091261 
L 274.091217 298.388772 
L 278.039856 298.682437 
L 281.86112 299.590298 
L 289.631022 298.590306 
L 293.579661 297.922365 
L 301.349563 295.615279 
L 305.298202 293.786115 
L 309.119466 292.768847 
L 313.068105 292.94927 
L 317.016744 292.525088 
L 320.583256 291.937759 
L 324.531895 292.122019 
L 328.353159 293.265965 
L 340.0717 292.173843 
L 347.841602 290.179614 
L 351.790241 288.761197 
L 355.611505 288.310145 
L 359.560144 287.440669 
L 363.508783 285.981947 
L 367.202671 285.874462 
L 371.15131 286.319756 
L 374.972573 287.640284 
L 378.921212 287.206505 
L 386.691115 285.930123 
L 390.639753 284.749709 
L 394.461017 283.221888 
L 398.409656 281.294838 
L 402.230919 280.410006 
L 406.179558 276.548229 
L 410.128197 275.177798 
L 413.69471 273.738269 
L 417.643349 273.436927 
L 421.464612 273.596234 
L 429.234515 272.1759 
L 433.183154 270.811225 
L 440.953056 268.59627 
L 444.901695 265.855405 
L 452.671597 263.389011 
L 456.620236 262.091515 
L 460.186749 261.235475 
L 467.956651 262.813199 
L 471.90529 261.826642 
L 475.726554 260.383273 
L 487.445095 256.415361 
L 491.393734 254.473625 
L 495.214997 252.130768 
L 499.163636 251.987692 
L 503.112275 252.232964 
L 506.678788 251.195669 
L 510.627427 250.975946 
L 514.44869 251.61723 
L 518.397329 251.681102 
L 522.218593 250.585044 
L 526.167232 250.615703 
L 530.115871 250.015298 
L 533.937134 248.627979 
L 537.885773 246.382208 
L 541.707036 245.196727 
L 545.655675 243.599905 
L 549.604314 242.966286 
L 553.298202 241.387349 
L 557.246841 245.472658 
L 561.068105 244.164542 
L 565.016744 243.326529 
L 568.838007 241.088423 
L 572.786646 240.051128 
L 576.735285 239.144133 
L 580.556549 237.72871 
L 588.326451 236.497241 
L 596.223729 232.491133 
L 599.790241 230.109952 
L 603.73888 229.128865 
L 607.560144 228.441592 
L 611.508783 226.954632 
L 615.330046 225.309266 
L 619.278685 224.678202 
L 623.227324 222.92042 
L 627.048588 220.728303 
L 630.997227 217.549988 
L 634.81849 215.718114 
L 638.767129 214.519859 
L 642.715768 212.059475 
L 646.28228 209.320606 
L 650.230919 207.026292 
L 654.052183 206.681378 
L 658.000822 204.21333 
L 661.822085 201.64564 
L 665.770724 199.617038 
L 669.719363 197.307394 
L 673.540627 195.582826 
L 677.489266 193.316616 
L 681.310529 192.427506 
L 685.259168 190.64162 
L 689.207807 188.53126 
L 692.774319 187.511849 
L 700.544222 188.153132 
L 704.492861 188.104589 
L 708.314124 186.607409 
L 716.211402 183.188932 
L 720.032666 181.939578 
L 723.981305 179.405102 
L 727.802568 178.015228 
L 731.751207 174.739827 
L 735.699846 173.975907 
L 739.393734 172.836415 
L 747.163636 172.496611 
L 747.163636 172.496611 
" clip-path="url(#pa366146001)" style="fill: none; stroke: #b2df8a; stroke-width: 1.5; stroke-linecap: square"/>
   </g>
   <g id="line2d_34">
    <path d="M 138.436364 322.068072 
L 142.257627 323.302229 
L 146.206266 323.578618 
L 150.02753 322.609336 
L 157.924807 321.757134 
L 161.746071 320.448121 
L 165.69471 318.442377 
L 169.515973 317.118011 
L 173.464612 315.567157 
L 177.413251 314.799407 
L 181.107139 314.797488 
L 188.877042 316.175597 
L 192.825681 315.325316 
L 196.646944 314.037416 
L 200.595583 313.582527 
L 204.544222 312.597888 
L 208.365485 311.392522 
L 212.314124 309.851264 
L 216.135388 309.667006 
L 220.084027 309.150694 
L 224.032666 307.834005 
L 227.599178 306.523073 
L 231.547817 306.066262 
L 235.369081 306.77451 
L 243.138983 306.931898 
L 247.087622 306.429024 
L 254.857524 304.716942 
L 258.806163 302.634423 
L 262.627427 301.724641 
L 266.576066 299.597975 
L 270.524705 299.091261 
L 274.091217 298.388772 
L 278.039856 298.682437 
L 281.86112 299.590298 
L 289.631022 298.590306 
L 293.579661 297.922365 
L 301.349563 295.615279 
L 305.298202 293.786115 
L 309.119466 292.768847 
L 313.068105 292.94927 
L 317.016744 292.525088 
L 320.583256 291.937759 
L 324.531895 292.122019 
L 328.353159 293.265965 
L 340.0717 292.173843 
L 347.841602 290.179614 
L 351.790241 288.761197 
L 355.611505 288.310145 
L 359.560144 287.440669 
L 363.508783 285.981947 
L 367.202671 285.874462 
L 371.15131 286.319756 
L 374.972573 287.640284 
L 378.921212 287.206505 
L 386.691115 285.930123 
L 390.639753 284.749709 
L 394.461017 283.221888 
L 398.409656 281.294838 
L 402.230919 280.410006 
L 406.179558 276.548229 
L 410.128197 275.177798 
L 413.69471 273.738269 
L 417.643349 273.436927 
L 421.464612 273.596234 
L 429.234515 272.1759 
L 433.183154 270.811225 
L 440.953056 268.59627 
L 444.901695 265.855405 
L 452.671597 263.389011 
L 456.620236 262.091515 
L 460.186749 261.235475 
L 467.956651 262.813199 
L 471.90529 261.826642 
L 475.726554 260.383273 
L 487.445095 256.415361 
L 491.393734 254.473625 
L 495.214997 252.130768 
L 499.163636 251.987692 
L 503.112275 252.232964 
L 506.678788 251.195669 
L 510.627427 250.975946 
L 514.44869 251.61723 
L 518.397329 251.681102 
L 522.218593 250.585044 
L 526.167232 250.615703 
L 530.115871 250.015298 
L 533.937134 248.627979 
L 537.885773 246.382208 
L 541.707036 245.196727 
L 545.655675 243.599905 
L 549.604314 242.966286 
L 553.298202 241.387349 
L 557.246841 245.472658 
L 561.068105 244.164542 
L 565.016744 243.326529 
L 568.838007 241.088423 
L 572.786646 240.051128 
L 576.735285 239.144133 
L 580.556549 237.72871 
L 588.326451 236.497241 
L 596.223729 232.491133 
L 599.790241 230.109952 
L 603.73888 229.128865 
L 607.560144 228.441592 
L 611.508783 226.954632 
L 615.330046 225.309266 
L 619.278685 224.678202 
L 623.227324 222.92042 
L 627.048588 220.728303 
L 630.997227 217.549988 
L 634.81849 215.718114 
L 638.767129 214.519859 
L 642.715768 212.059475 
L 646.28228 209.320606 
L 650.230919 207.026292 
L 654.052183 206.681378 
L 658.000822 204.21333 
L 661.822085 201.64564 
L 665.770724 199.617038 
L 669.719363 197.307394 
L 673.540627 195.582826 
L 677.489266 193.316616 
L 681.310529 192.427506 
L 685.259168 190.64162 
L 689.207807 188.53126 
L 692.774319 187.511849 
L 700.544222 188.153132 
L 704.492861 188.104589 
L 708.314124 186.607409 
L 716.211402 183.188932 
L 720.032666 181.939578 
L 723.981305 179.405102 
L 727.802568 178.015228 
L 731.751207 174.739827 
L 735.699846 173.975907 
L 739.393734 172.836415 
L 747.163636 172.496611 
L 747.163636 172.496611 
" clip-path="url(#pa366146001)" style="fill: none; stroke: #b2df8a; stroke-width: 1.5; stroke-linecap: square"/>
   </g>
   <g id="line2d_35">
    <path d="M 138.436364 313.323836 
L 142.257627 313.072356 
L 146.206266 312.666017 
L 150.02753 312.080339 
L 153.976168 311.865562 
L 165.69471 310.176886 
L 173.464612 308.404513 
L 177.413251 307.30278 
L 181.107139 306.841801 
L 185.055778 306.567138 
L 188.877042 305.972075 
L 192.825681 305.541906 
L 196.646944 304.851349 
L 200.595583 304.335455 
L 204.544222 303.984691 
L 212.314124 302.998317 
L 216.135388 303.094088 
L 220.084027 302.657254 
L 224.032666 301.147838 
L 227.599178 300.459122 
L 231.547817 300.296346 
L 239.31772 299.601031 
L 247.087622 299.30427 
L 251.036261 298.62442 
L 258.806163 297.844041 
L 262.627427 297.252944 
L 266.576066 295.572136 
L 270.524705 294.779791 
L 274.091217 294.355871 
L 278.039856 293.487793 
L 281.86112 293.526163 
L 285.809759 292.937771 
L 293.579661 292.085538 
L 297.5283 291.374316 
L 301.349563 291.051331 
L 309.119466 290.138077 
L 313.068105 290.239338 
L 317.016744 289.450467 
L 324.531895 288.539788 
L 328.353159 288.279659 
L 340.0717 286.967577 
L 344.020339 286.131423 
L 347.841602 285.534855 
L 351.790241 285.331019 
L 355.611505 284.752777 
L 359.560144 284.367877 
L 363.508783 283.519484 
L 367.202671 282.535269 
L 371.15131 282.212428 
L 382.742476 280.579597 
L 386.691115 280.187591 
L 390.639753 279.145668 
L 398.409656 277.664712 
L 406.179558 275.779698 
L 410.128197 273.780609 
L 417.643349 271.122235 
L 421.464612 270.551965 
L 429.234515 269.024174 
L 433.183154 268.37624 
L 437.131793 267.577111 
L 440.953056 267.152965 
L 448.722958 265.077456 
L 452.671597 264.693455 
L 456.620236 263.331667 
L 460.186749 262.396355 
L 464.135388 262.083181 
L 471.90529 260.901252 
L 475.726554 260.052068 
L 479.675193 259.472501 
L 483.623832 258.75894 
L 487.445095 257.863002 
L 491.393734 257.106604 
L 495.214997 255.971118 
L 499.163636 255.57205 
L 506.678788 253.524833 
L 510.627427 252.113524 
L 514.44869 251.935779 
L 518.397329 251.056445 
L 522.218593 250.326217 
L 526.167232 249.825001 
L 533.937134 248.39566 
L 537.885773 247.661474 
L 541.707036 246.658121 
L 545.655675 245.892526 
L 549.604314 244.867299 
L 557.246841 243.154801 
L 561.068105 242.024828 
L 565.016744 241.383018 
L 568.838007 240.140967 
L 572.786646 239.392935 
L 576.735285 238.436485 
L 580.556549 237.704494 
L 584.505187 237.807176 
L 588.326451 236.428536 
L 592.27509 235.55722 
L 596.223729 234.469254 
L 599.790241 232.989205 
L 603.73888 231.901124 
L 607.560144 230.486376 
L 615.330046 227.36342 
L 619.278685 226.18892 
L 627.048588 223.475912 
L 630.997227 222.446496 
L 634.81849 220.049458 
L 638.767129 218.450284 
L 646.28228 214.13613 
L 650.230919 211.592915 
L 654.052183 209.845834 
L 658.000822 207.436632 
L 661.822085 205.593333 
L 669.719363 200.782148 
L 685.259168 193.364589 
L 689.207807 191.076418 
L 696.722958 188.048952 
L 704.492861 186.14715 
L 708.314124 184.663012 
L 712.262763 183.748304 
L 720.032666 181.430416 
L 723.981305 180.180878 
L 727.802568 178.765686 
L 731.751207 177.963578 
L 739.393734 174.309929 
L 743.342373 173.677835 
L 747.163636 172.921335 
L 747.163636 172.921335 
" clip-path="url(#pa366146001)" style="fill: none; stroke: #33a02c; stroke-width: 1.5; stroke-linecap: square"/>
   </g>
   <g id="line2d_36">
    <path d="M 138.436364 313.323836 
L 142.257627 313.072356 
L 146.206266 312.666017 
L 150.02753 312.080339 
L 153.976168 311.865562 
L 165.69471 310.176886 
L 173.464612 308.404513 
L 177.413251 307.30278 
L 181.107139 306.841801 
L 185.055778 306.567138 
L 188.877042 305.972075 
L 192.825681 305.541906 
L 196.646944 304.851349 
L 200.595583 304.335455 
L 204.544222 303.984691 
L 212.314124 302.998317 
L 216.135388 303.094088 
L 220.084027 302.657254 
L 224.032666 301.147838 
L 227.599178 300.459122 
L 231.547817 300.296346 
L 239.31772 299.601031 
L 247.087622 299.30427 
L 251.036261 298.62442 
L 258.806163 297.844041 
L 262.627427 297.252944 
L 266.576066 295.572136 
L 270.524705 294.779791 
L 274.091217 294.355871 
L 278.039856 293.487793 
L 281.86112 293.526163 
L 285.809759 292.937771 
L 293.579661 292.085538 
L 297.5283 291.374316 
L 301.349563 291.051331 
L 309.119466 290.138077 
L 313.068105 290.239338 
L 317.016744 289.450467 
L 324.531895 288.539788 
L 328.353159 288.279659 
L 340.0717 286.967577 
L 344.020339 286.131423 
L 347.841602 285.534855 
L 351.790241 285.331019 
L 355.611505 284.752777 
L 359.560144 284.367877 
L 363.508783 283.519484 
L 367.202671 282.535269 
L 371.15131 282.212428 
L 382.742476 280.579597 
L 386.691115 280.187591 
L 390.639753 279.145668 
L 398.409656 277.664712 
L 406.179558 275.779698 
L 410.128197 273.780609 
L 417.643349 271.122235 
L 421.464612 270.551965 
L 429.234515 269.024174 
L 433.183154 268.37624 
L 437.131793 267.577111 
L 440.953056 267.152965 
L 448.722958 265.077456 
L 452.671597 264.693455 
L 456.620236 263.331667 
L 460.186749 262.396355 
L 464.135388 262.083181 
L 471.90529 260.901252 
L 475.726554 260.052068 
L 479.675193 259.472501 
L 483.623832 258.75894 
L 487.445095 257.863002 
L 491.393734 257.106604 
L 495.214997 255.971118 
L 499.163636 255.57205 
L 506.678788 253.524833 
L 510.627427 252.113524 
L 514.44869 251.935779 
L 518.397329 251.056445 
L 522.218593 250.326217 
L 526.167232 249.825001 
L 533.937134 248.39566 
L 537.885773 247.661474 
L 541.707036 246.658121 
L 545.655675 245.892526 
L 549.604314 244.867299 
L 557.246841 243.154801 
L 561.068105 242.024828 
L 565.016744 241.383018 
L 568.838007 240.140967 
L 572.786646 239.392935 
L 576.735285 238.436485 
L 580.556549 237.704494 
L 584.505187 237.807176 
L 588.326451 236.428536 
L 592.27509 235.55722 
L 596.223729 234.469254 
L 599.790241 232.989205 
L 603.73888 231.901124 
L 607.560144 230.486376 
L 615.330046 227.36342 
L 619.278685 226.18892 
L 627.048588 223.475912 
L 630.997227 222.446496 
L 634.81849 220.049458 
L 638.767129 218.450284 
L 646.28228 214.13613 
L 650.230919 211.592915 
L 654.052183 209.845834 
L 658.000822 207.436632 
L 661.822085 205.593333 
L 669.719363 200.782148 
L 685.259168 193.364589 
L 689.207807 191.076418 
L 696.722958 188.048952 
L 704.492861 186.14715 
L 708.314124 184.663012 
L 712.262763 183.748304 
L 720.032666 181.430416 
L 723.981305 180.180878 
L 727.802568 178.765686 
L 731.751207 177.963578 
L 739.393734 174.309929 
L 743.342373 173.677835 
L 747.163636 172.921335 
L 747.163636 172.921335 
" clip-path="url(#pa366146001)" style="fill: none; stroke: #33a02c; stroke-width: 1.5; stroke-linecap: square"/>
   </g>
   <g id="line2d_37">
    <path d="M 138.436364 321.47918 
L 150.02753 320.17533 
L 153.976168 320.273538 
L 161.746071 318.87511 
L 165.69471 318.250101 
L 169.515973 317.222356 
L 173.464612 315.382012 
L 177.413251 313.95149 
L 188.877042 312.218189 
L 192.825681 311.378851 
L 196.646944 310.80468 
L 200.595583 309.989467 
L 208.365485 308.680027 
L 216.135388 307.088443 
L 220.084027 306.302944 
L 224.032666 306.078308 
L 227.599178 305.617624 
L 239.31772 304.810424 
L 243.138983 305.177195 
L 247.087622 304.833924 
L 251.036261 303.843631 
L 254.857524 303.578431 
L 258.806163 303.620646 
L 262.627427 303.145731 
L 266.576066 300.290779 
L 274.091217 299.684663 
L 285.809759 298.038342 
L 289.631022 298.219266 
L 293.579661 297.298201 
L 297.5283 296.640129 
L 313.068105 294.953361 
L 317.016744 294.26739 
L 320.583256 294.018543 
L 324.531895 293.393634 
L 328.353159 293.25726 
L 332.301798 292.69812 
L 336.123061 292.840081 
L 340.0717 292.218248 
L 344.020339 291.181062 
L 347.841602 290.300981 
L 359.560144 288.759186 
L 367.202671 286.926614 
L 378.921212 284.688171 
L 382.742476 284.654204 
L 386.691115 283.889781 
L 390.639753 282.510178 
L 394.461017 281.36124 
L 398.409656 280.606789 
L 402.230919 280.412605 
L 406.179558 278.473611 
L 410.128197 275.771711 
L 413.69471 273.811243 
L 417.643349 272.284785 
L 421.464612 271.070659 
L 425.413251 270.140849 
L 429.234515 269.866517 
L 433.183154 268.660071 
L 448.722958 265.788052 
L 456.620236 263.088054 
L 464.135388 261.486531 
L 467.956651 261.140883 
L 475.726554 259.996504 
L 495.214997 255.923259 
L 499.163636 255.165381 
L 506.678788 252.980539 
L 510.627427 251.99061 
L 514.44869 251.473433 
L 518.397329 250.539668 
L 522.218593 250.328155 
L 526.167232 249.538684 
L 530.115871 248.543865 
L 533.937134 247.734381 
L 541.707036 246.713544 
L 545.655675 245.08181 
L 549.604314 243.895259 
L 553.298202 243.07531 
L 561.068105 239.732618 
L 565.016744 238.655715 
L 568.838007 236.571354 
L 580.556549 233.158157 
L 584.505187 233.787083 
L 588.326451 231.875055 
L 592.27509 230.520595 
L 596.223729 229.006169 
L 599.790241 227.253324 
L 603.73888 225.911849 
L 607.560144 224.29482 
L 611.508783 222.31856 
L 615.330046 220.648891 
L 627.048588 214.785946 
L 630.997227 213.951409 
L 634.81849 211.29793 
L 646.28228 202.642302 
L 650.230919 199.475075 
L 654.052183 196.791263 
L 658.000822 193.444824 
L 661.822085 191.212743 
L 665.770724 187.670991 
L 673.540627 181.423057 
L 677.489266 179.278277 
L 681.310529 177.613545 
L 685.259168 174.517728 
L 689.207807 171.987673 
L 692.774319 170.556786 
L 696.722958 168.726736 
L 700.544222 167.609755 
L 704.492861 166.624696 
L 708.314124 165.315725 
L 712.262763 164.526034 
L 716.211402 163.472785 
L 720.032666 162.325356 
L 723.981305 161.380886 
L 727.802568 160.658748 
L 739.393734 156.890472 
L 743.342373 155.826611 
L 747.163636 155.246847 
L 747.163636 155.246847 
" clip-path="url(#pa366146001)" style="fill: none; stroke: #fb9a99; stroke-width: 1.5; stroke-linecap: square"/>
   </g>
   <g id="line2d_38">
    <path d="M 138.436364 333.047387 
L 142.257627 332.102027 
L 146.206266 331.447915 
L 150.02753 330.64324 
L 153.976168 330.649425 
L 157.924807 330.216837 
L 161.746071 329.279714 
L 165.69471 328.456467 
L 169.515973 326.81694 
L 173.464612 324.257241 
L 177.413251 322.511455 
L 185.055778 321.400207 
L 188.877042 320.380676 
L 196.646944 318.569341 
L 200.595583 318.171448 
L 208.365485 316.828194 
L 212.314124 315.720334 
L 216.135388 314.951514 
L 220.084027 313.972057 
L 227.599178 313.035977 
L 235.369081 311.829704 
L 239.31772 311.570727 
L 243.138983 311.582577 
L 251.036261 310.740743 
L 254.857524 310.077599 
L 258.806163 310.044743 
L 262.627427 309.595895 
L 266.576066 304.954889 
L 270.524705 303.942772 
L 274.091217 303.808243 
L 278.039856 303.205104 
L 285.809759 301.408089 
L 289.631022 301.000989 
L 293.579661 300.288308 
L 297.5283 299.796188 
L 301.349563 299.187474 
L 305.298202 298.837109 
L 309.119466 298.666228 
L 313.068105 297.330978 
L 320.583256 297.371568 
L 328.353159 296.859903 
L 332.301798 296.26182 
L 336.123061 296.135659 
L 344.020339 295.154742 
L 347.841602 294.174871 
L 351.790241 293.508789 
L 359.560144 291.818733 
L 363.508783 291.377936 
L 367.202671 290.531692 
L 371.15131 289.796208 
L 374.972573 288.727988 
L 378.921212 287.910006 
L 382.742476 287.776014 
L 386.691115 287.479046 
L 390.639753 286.362027 
L 394.461017 284.89931 
L 398.409656 284.136098 
L 402.230919 283.114083 
L 406.179558 280.575008 
L 413.69471 276.196108 
L 417.643349 274.488604 
L 421.464612 273.464231 
L 425.413251 272.273623 
L 433.183154 270.229218 
L 440.953056 269.285343 
L 444.901695 268.519832 
L 448.722958 267.300733 
L 452.671597 265.179192 
L 456.620236 263.580509 
L 471.90529 261.325571 
L 475.726554 260.169184 
L 487.445095 257.320836 
L 491.393734 256.579455 
L 506.678788 251.659691 
L 514.44869 249.685357 
L 518.397329 248.572372 
L 522.218593 247.826322 
L 526.167232 247.300907 
L 533.937134 245.329306 
L 537.885773 244.832254 
L 541.707036 243.891103 
L 545.655675 240.998793 
L 549.604314 239.571082 
L 553.298202 238.588704 
L 557.246841 235.711333 
L 561.068105 232.304569 
L 565.016744 231.287338 
L 568.838007 229.399608 
L 576.735285 227.556347 
L 580.556549 226.485521 
L 584.505187 226.377463 
L 588.326451 225.314166 
L 592.27509 223.55783 
L 596.223729 222.102533 
L 603.73888 219.040963 
L 607.560144 216.950117 
L 615.330046 212.04766 
L 623.227324 207.856919 
L 627.048588 206.160181 
L 630.997227 204.637637 
L 634.81849 202.412307 
L 638.767129 198.260036 
L 642.715768 195.103214 
L 646.28228 191.576823 
L 658.000822 179.189215 
L 661.822085 175.78146 
L 665.770724 171.116174 
L 669.719363 167.031069 
L 673.540627 163.274393 
L 677.489266 160.814486 
L 681.310529 158.186507 
L 685.259168 153.572729 
L 689.207807 150.704083 
L 696.722958 146.778408 
L 700.544222 144.933362 
L 708.314124 141.737671 
L 712.262763 140.996475 
L 716.211402 140.100924 
L 727.802568 135.125877 
L 731.751207 133.204494 
L 735.699846 131.446264 
L 743.342373 128.914622 
L 747.163636 127.840391 
L 747.163636 127.840391 
" clip-path="url(#pa366146001)" style="fill: none; stroke: #e31a1c; stroke-width: 1.5; stroke-linecap: square"/>
   </g>
   <g id="line2d_39">
    <path d="M 138.436364 311.576905 
L 142.257627 311.540426 
L 146.206266 311.308052 
L 150.02753 311.216412 
L 153.976168 311.393501 
L 157.924807 310.368226 
L 165.69471 309.515548 
L 169.515973 309.012345 
L 177.413251 306.628681 
L 185.055778 305.57497 
L 188.877042 305.236265 
L 192.825681 304.422685 
L 196.646944 304.16391 
L 200.595583 302.991 
L 204.544222 302.45714 
L 208.365485 301.710647 
L 220.084027 299.744431 
L 224.032666 299.736899 
L 227.599178 299.274132 
L 235.369081 299.195729 
L 239.31772 299.029826 
L 243.138983 299.700085 
L 247.087622 299.377557 
L 251.036261 297.946054 
L 258.806163 298.127532 
L 262.627427 297.630328 
L 266.576066 296.302594 
L 270.524705 296.603206 
L 278.039856 295.678743 
L 281.86112 295.595447 
L 285.809759 295.156937 
L 289.631022 295.840671 
L 293.579661 294.741421 
L 297.5283 293.941446 
L 301.349563 293.737421 
L 305.298202 293.1856 
L 309.119466 292.902842 
L 313.068105 292.92031 
L 317.016744 291.653139 
L 320.583256 291.151443 
L 324.531895 290.25281 
L 328.353159 290.176715 
L 332.301798 289.650872 
L 336.123061 290.022101 
L 340.0717 289.256409 
L 344.020339 287.783247 
L 347.841602 286.988494 
L 351.790241 286.616765 
L 355.611505 286.506321 
L 359.560144 286.14303 
L 363.508783 284.683856 
L 367.202671 283.843986 
L 371.15131 283.061418 
L 374.972573 282.585438 
L 378.921212 281.933247 
L 382.742476 281.984808 
L 386.691115 280.820676 
L 390.639753 279.216539 
L 394.461017 278.335908 
L 398.409656 277.588948 
L 402.230919 278.102624 
L 406.179558 276.676751 
L 410.128197 273.688369 
L 413.69471 271.771994 
L 421.464612 269.023965 
L 425.413251 268.317155 
L 429.234515 268.65327 
L 433.183154 267.318324 
L 437.131793 266.32671 
L 440.953056 265.638311 
L 444.901695 264.549537 
L 448.722958 264.494591 
L 452.671597 263.739017 
L 464.135388 260.578345 
L 467.956651 260.473214 
L 471.90529 259.957949 
L 475.726554 259.848849 
L 479.675193 259.078407 
L 483.623832 258.188929 
L 487.445095 257.476603 
L 495.214997 256.507268 
L 499.163636 256.207444 
L 510.627427 253.360219 
L 514.44869 253.347658 
L 518.397329 252.601748 
L 522.218593 252.950526 
L 530.115871 250.855702 
L 537.885773 249.699955 
L 541.707036 249.671971 
L 545.655675 249.361548 
L 549.604314 248.427775 
L 553.298202 247.77808 
L 557.246841 247.378414 
L 561.068105 247.51855 
L 565.016744 246.379101 
L 568.838007 244.088635 
L 576.735285 241.269126 
L 580.556549 240.152281 
L 584.505187 241.553699 
L 588.326451 238.752047 
L 592.27509 237.818827 
L 596.223729 236.242422 
L 599.790241 234.229728 
L 607.560144 231.993391 
L 611.508783 230.596802 
L 615.330046 229.66453 
L 627.048588 223.827301 
L 630.997227 223.713917 
L 634.81849 220.611663 
L 638.767129 218.927803 
L 642.715768 216.261647 
L 646.28228 214.240917 
L 650.230919 212.142429 
L 654.052183 210.77959 
L 658.000822 208.387267 
L 661.822085 207.387506 
L 665.770724 205.02342 
L 669.719363 202.792918 
L 673.540627 200.446123 
L 677.489266 198.631653 
L 681.310529 197.976578 
L 685.259168 196.471859 
L 689.207807 194.296707 
L 692.774319 193.341023 
L 696.722958 191.732535 
L 704.492861 191.044317 
L 708.314124 190.029771 
L 712.262763 189.189248 
L 716.211402 187.970702 
L 720.032666 187.336506 
L 723.981305 187.190622 
L 727.802568 187.421795 
L 731.751207 186.754457 
L 735.699846 185.69042 
L 743.342373 184.035219 
L 747.163636 183.973747 
L 747.163636 183.973747 
" clip-path="url(#pa366146001)" style="fill: none; stroke: #fdbf6f; stroke-width: 1.5; stroke-linecap: square"/>
   </g>
   <g id="line2d_40">
    <path d="M 138.436364 306.121499 
L 142.257627 306.053002 
L 146.206266 305.665365 
L 150.02753 304.932513 
L 153.976168 304.437997 
L 161.746071 303.687304 
L 165.69471 303.049367 
L 169.515973 302.281679 
L 173.464612 302.257435 
L 177.413251 301.450153 
L 181.107139 301.044801 
L 185.055778 301.022997 
L 188.877042 300.479986 
L 192.825681 300.415837 
L 196.646944 299.621524 
L 200.595583 299.373477 
L 204.544222 299.268787 
L 208.365485 298.930141 
L 212.314124 298.78332 
L 216.135388 299.616524 
L 220.084027 299.491614 
L 224.032666 296.83417 
L 227.599178 295.941879 
L 231.547817 295.896041 
L 239.31772 295.038156 
L 243.138983 294.415845 
L 247.087622 294.460878 
L 254.857524 293.603495 
L 262.627427 292.091488 
L 266.576066 291.439106 
L 270.524705 290.219438 
L 274.091217 289.688414 
L 278.039856 288.530105 
L 281.86112 288.980501 
L 285.809759 288.470213 
L 289.631022 287.542329 
L 293.579661 287.519794 
L 297.5283 286.762019 
L 301.349563 286.498229 
L 305.298202 286.064338 
L 309.119466 285.389559 
L 313.068105 286.110355 
L 317.016744 285.231354 
L 320.583256 284.611636 
L 328.353159 283.919809 
L 332.301798 283.520478 
L 336.123061 282.617024 
L 340.0717 282.368546 
L 344.020339 281.708476 
L 347.841602 281.360233 
L 351.790241 281.422295 
L 355.611505 280.703349 
L 359.560144 280.521557 
L 363.508783 279.79699 
L 367.202671 278.688916 
L 371.15131 278.749736 
L 374.972573 278.364741 
L 378.921212 277.821011 
L 382.742476 277.010674 
L 386.691115 276.944862 
L 390.639753 276.198714 
L 394.461017 275.817112 
L 398.409656 275.087768 
L 402.230919 273.601816 
L 406.179558 273.420116 
L 410.128197 272.036614 
L 413.69471 271.289585 
L 417.643349 270.103966 
L 421.464612 270.097645 
L 425.413251 269.366168 
L 429.234515 268.286371 
L 433.183154 268.127637 
L 437.131793 267.269704 
L 440.953056 267.007212 
L 444.901695 265.940655 
L 448.722958 264.455048 
L 452.671597 264.947992 
L 456.620236 263.545046 
L 460.186749 262.493381 
L 464.135388 262.605782 
L 467.956651 261.827207 
L 471.90529 261.17533 
L 475.726554 260.100736 
L 479.675193 259.814378 
L 483.623832 259.319856 
L 491.393734 257.489251 
L 495.214997 256.022791 
L 499.163636 256.011128 
L 506.678788 254.112502 
L 510.627427 252.246233 
L 514.44869 252.43497 
L 518.397329 251.614406 
L 522.218593 250.324125 
L 526.167232 250.134136 
L 533.937134 249.109637 
L 537.885773 248.150167 
L 541.707036 246.598282 
L 545.655675 246.76785 
L 553.298202 245.186401 
L 557.246841 245.041187 
L 561.068105 244.499712 
L 565.016744 244.327668 
L 572.786646 243.696528 
L 576.735285 242.955035 
L 580.556549 242.613142 
L 584.505187 242.147641 
L 588.326451 241.344896 
L 592.27509 240.995228 
L 596.223729 240.367707 
L 599.790241 239.182193 
L 603.73888 238.367702 
L 611.508783 235.88832 
L 615.330046 234.61305 
L 619.278685 234.347374 
L 623.227324 233.665423 
L 627.048588 232.858406 
L 630.997227 231.618582 
L 634.81849 229.49842 
L 638.767129 229.35459 
L 642.715768 227.731948 
L 646.28228 226.545933 
L 650.230919 224.676459 
L 654.052183 223.940761 
L 669.719363 218.37118 
L 673.540627 217.920983 
L 677.489266 216.2845 
L 681.310529 214.572398 
L 685.259168 213.713411 
L 689.207807 211.6864 
L 692.774319 210.128793 
L 696.722958 208.911011 
L 704.492861 207.225404 
L 708.314124 205.552139 
L 712.262763 204.50245 
L 720.032666 202.058013 
L 723.981305 200.479096 
L 727.802568 198.315617 
L 731.751207 198.060915 
L 735.699846 195.638675 
L 739.393734 193.117592 
L 743.342373 192.951675 
L 747.163636 192.004353 
L 747.163636 192.004353 
" clip-path="url(#pa366146001)" style="fill: none; stroke: #ff7f00; stroke-width: 1.5; stroke-linecap: square"/>
   </g>
   <g id="line2d_41">
    <path d="M 138.436364 298.156704 
L 142.257627 297.780406 
L 146.206266 297.276707 
L 153.976168 296.827974 
L 177.413251 294.754722 
L 200.595583 292.561092 
L 212.314124 291.446773 
L 224.032666 290.167841 
L 227.599178 289.736909 
L 235.369081 288.976495 
L 239.31772 288.391301 
L 247.087622 287.526054 
L 254.857524 286.877828 
L 262.627427 286.118431 
L 266.576066 285.723814 
L 274.091217 284.65684 
L 281.86112 283.904622 
L 289.631022 283.164869 
L 297.5283 282.429424 
L 328.353159 279.085237 
L 340.0717 277.990113 
L 355.611505 276.505158 
L 359.560144 276.016321 
L 367.202671 274.820396 
L 382.742476 272.843453 
L 390.639753 272.174664 
L 394.461017 271.669281 
L 398.409656 271.309321 
L 406.179558 270.18152 
L 410.128197 269.309661 
L 413.69471 268.643385 
L 421.464612 267.727695 
L 429.234515 266.659225 
L 448.722958 264.278256 
L 452.671597 263.694713 
L 460.186749 262.418717 
L 475.726554 260.160177 
L 479.675193 259.799782 
L 483.623832 259.183943 
L 491.393734 258.225312 
L 499.163636 257.141848 
L 503.112275 256.457015 
L 510.627427 254.825174 
L 518.397329 253.50691 
L 533.937134 251.25796 
L 537.885773 250.808587 
L 541.707036 250.140616 
L 545.655675 249.600019 
L 557.246841 247.279994 
L 572.786646 246.258164 
L 584.505187 245.252874 
L 592.27509 244.37984 
L 627.048588 239.302882 
L 638.767129 237.394777 
L 642.715768 236.450526 
L 646.28228 235.807954 
L 650.230919 235.233752 
L 654.052183 234.476273 
L 658.000822 233.528425 
L 661.822085 232.822558 
L 665.770724 231.957588 
L 677.489266 230.067289 
L 681.310529 229.260347 
L 685.259168 228.03578 
L 696.722958 224.993381 
L 704.492861 223.224915 
L 708.314124 222.430553 
L 716.211402 221.144824 
L 723.981305 219.328282 
L 727.802568 218.783523 
L 731.751207 217.623464 
L 739.393734 214.992783 
L 743.342373 214.148773 
L 747.163636 213.024639 
L 747.163636 213.024639 
" clip-path="url(#pa366146001)" style="fill: none; stroke: #cab2d6; stroke-width: 1.5; stroke-linecap: square"/>
   </g>
   <g id="line2d_42">
    <path d="M 138.436364 327.2665 
L 146.206266 327.092316 
L 150.02753 326.956382 
L 153.976168 324.644871 
L 157.924807 320.646819 
L 161.746071 320.457541 
L 169.515973 320.458496 
L 173.464612 319.97587 
L 177.413251 319.147155 
L 185.055778 319.136685 
L 188.877042 318.848677 
L 192.825681 318.39067 
L 196.646944 318.229721 
L 200.595583 316.473957 
L 204.544222 311.739441 
L 216.135388 311.718772 
L 224.032666 310.21374 
L 235.369081 310.04253 
L 243.138983 309.668225 
L 247.087622 307.309484 
L 251.036261 302.71152 
L 262.627427 302.72281 
L 266.576066 302.055374 
L 270.524705 301.24808 
L 281.86112 300.978005 
L 285.809759 300.65282 
L 289.631022 300.516393 
L 293.579661 298.68525 
L 297.5283 293.592026 
L 309.119466 293.58628 
L 313.068105 293.103697 
L 317.016744 291.919645 
L 320.583256 291.735341 
L 328.353159 291.626849 
L 336.123061 291.174452 
L 340.0717 288.906863 
L 344.020339 284.132084 
L 355.611505 284.076806 
L 363.508783 282.553008 
L 374.972573 282.426808 
L 378.921212 282.191815 
L 382.742476 281.780529 
L 386.691115 279.762624 
L 390.639753 274.238859 
L 402.230919 274.225351 
L 406.179558 273.456794 
L 410.128197 272.273598 
L 421.464612 272.12508 
L 425.413251 271.986113 
L 429.234515 271.699973 
L 433.183154 269.035322 
L 437.131793 262.814619 
L 448.722958 262.800546 
L 452.671597 262.318323 
L 456.620236 260.593313 
L 464.135388 260.467781 
L 471.90529 260.25237 
L 475.726554 259.978908 
L 479.675193 256.479206 
L 483.623832 250.982258 
L 495.214997 250.952866 
L 499.163636 250.392106 
L 503.112275 248.238862 
L 518.397329 247.875856 
L 522.218593 247.508472 
L 526.167232 244.725947 
L 530.115871 238.473354 
L 541.707036 238.454074 
L 545.655675 237.89639 
L 549.604314 236.166171 
L 553.298202 235.90903 
L 572.786646 235.913196 
L 576.735285 232.477137 
L 580.556549 232.603567 
L 592.27509 232.58619 
L 596.223729 232.825416 
L 615.330046 232.608939 
L 619.278685 230.788769 
L 623.227324 226.709066 
L 634.81849 226.701338 
L 638.767129 225.728639 
L 642.715768 223.791638 
L 654.052183 223.774057 
L 658.000822 223.371724 
L 661.822085 223.297869 
L 665.770724 220.17442 
L 669.719363 213.74927 
L 681.310529 213.74927 
L 685.259168 212.708099 
L 689.207807 209.858051 
L 692.774319 209.56902 
L 700.544222 209.464431 
L 704.492861 209.27005 
L 708.314124 208.904851 
L 712.262763 204.377553 
L 716.211402 193.887531 
L 727.802568 193.84019 
L 731.751207 193.000654 
L 735.699846 190.222317 
L 743.342373 190.121468 
L 747.163636 190.104547 
L 747.163636 190.104547 
" clip-path="url(#pa366146001)" style="fill: none; stroke: #6a3d9a; stroke-width: 1.5; stroke-linecap: square"/>
   </g>
   <g id="line2d_43">
    <path d="M 138.436364 307.649548 
L 142.257627 307.879677 
L 146.206266 307.522727 
L 150.02753 306.080041 
L 153.976168 305.910599 
L 157.924807 306.689804 
L 161.746071 306.133231 
L 165.69471 304.958954 
L 169.515973 303.49649 
L 173.464612 303.977212 
L 177.413251 302.806471 
L 181.107139 302.237831 
L 185.055778 302.610021 
L 188.877042 301.716169 
L 192.825681 302.138879 
L 196.646944 300.718438 
L 200.595583 301.032095 
L 204.544222 302.604311 
L 208.365485 302.223307 
L 212.314124 302.24174 
L 216.135388 304.535638 
L 220.084027 304.830891 
L 224.032666 299.505794 
L 227.599178 297.891961 
L 231.547817 298.134336 
L 235.369081 297.563095 
L 239.31772 297.273237 
L 243.138983 296.297382 
L 247.087622 297.591378 
L 251.036261 298.36264 
L 254.857524 297.668472 
L 258.806163 296.103875 
L 262.627427 294.922812 
L 266.576066 294.010661 
L 270.524705 291.997403 
L 274.091217 291.283182 
L 278.039856 288.955164 
L 281.86112 290.467822 
L 285.809759 289.811834 
L 289.631022 288.010358 
L 293.579661 288.885959 
L 297.5283 289.089059 
L 301.349563 288.911188 
L 305.298202 288.25969 
L 309.119466 287.126337 
L 313.068105 289.395163 
L 320.583256 287.232624 
L 324.531895 286.987879 
L 332.301798 286.022731 
L 336.123061 284.349413 
L 340.0717 284.833048 
L 344.020339 285.142272 
L 347.841602 284.602482 
L 351.790241 285.175555 
L 355.611505 283.964246 
L 359.560144 284.27205 
L 363.508783 283.462469 
L 367.202671 281.474982 
L 371.15131 282.142763 
L 374.972573 281.743274 
L 378.921212 281.04955 
L 382.742476 279.806829 
L 386.691115 280.635455 
L 390.639753 280.934615 
L 394.461017 280.565859 
L 398.409656 279.231429 
L 402.230919 276.332012 
L 406.179558 276.731181 
L 410.128197 274.76068 
L 413.69471 273.708773 
L 417.643349 271.392571 
L 421.464612 271.900317 
L 425.413251 270.8248 
L 429.234515 268.897216 
L 433.183154 269.840455 
L 437.131793 270.256617 
L 440.953056 270.093974 
L 444.901695 268.125411 
L 448.722958 265.149413 
L 452.671597 267.049074 
L 460.186749 263.193762 
L 464.135388 264.031343 
L 467.956651 262.7652 
L 471.90529 261.853944 
L 475.726554 260.077532 
L 479.675193 260.526354 
L 483.623832 261.18928 
L 487.445095 259.576184 
L 491.393734 258.195851 
L 495.214997 255.582274 
L 499.163636 256.170031 
L 503.112275 255.075665 
L 506.678788 253.941308 
L 510.627427 250.785964 
L 514.44869 251.830967 
L 518.397329 250.693127 
L 522.218593 248.565049 
L 526.167232 249.333099 
L 530.115871 249.966694 
L 533.937134 249.407282 
L 537.885773 247.787313 
L 541.707036 245.114091 
L 545.655675 246.075707 
L 549.604314 245.386533 
L 553.298202 244.562058 
L 557.246841 244.938127 
L 561.068105 243.999512 
L 565.016744 243.782794 
L 576.735285 242.454874 
L 580.556549 241.993445 
L 584.505187 241.350477 
L 588.326451 240.041236 
L 592.27509 239.708593 
L 596.223729 238.843029 
L 599.790241 236.909352 
L 603.73888 235.640456 
L 607.560144 233.630638 
L 615.330046 229.253009 
L 619.278685 229.564194 
L 623.227324 229.528089 
L 627.048588 228.343807 
L 630.997227 226.322453 
L 634.81849 222.444311 
L 638.767129 222.87234 
L 646.28228 218.780914 
L 650.230919 215.353038 
L 654.052183 214.486078 
L 658.000822 212.475524 
L 661.822085 210.122764 
L 669.719363 207.68356 
L 673.540627 207.365775 
L 681.310529 201.515049 
L 685.259168 201.023522 
L 692.774319 195.932269 
L 696.722958 194.287322 
L 704.492861 192.385801 
L 708.314124 189.646802 
L 712.262763 189.003271 
L 716.211402 189.134319 
L 720.032666 187.439407 
L 723.981305 184.892211 
L 727.802568 180.817387 
L 731.751207 181.500705 
L 735.699846 178.246 
L 739.393734 174.04182 
L 743.342373 174.451914 
L 747.163636 173.4689 
L 747.163636 173.4689 
" clip-path="url(#pa366146001)" style="fill: none; stroke: #ffff99; stroke-width: 1.5; stroke-linecap: square"/>
   </g>
   <g id="line2d_44">
    <path d="M 138.436364 346.992636 
L 142.257627 352.369856 
L 146.206266 354.547242 
L 150.02753 352.51577 
L 153.976168 351.461574 
L 157.924807 351.381237 
L 161.746071 347.874659 
L 165.69471 342.03959 
L 169.515973 339.505786 
L 173.464612 336.092314 
L 177.413251 336.259408 
L 181.107139 337.538494 
L 185.055778 340.975889 
L 188.877042 345.185646 
L 192.825681 343.170994 
L 196.646944 340.213536 
L 200.595583 339.934787 
L 204.544222 337.181646 
L 208.365485 334.014616 
L 212.314124 329.527247 
L 216.135388 328.561137 
L 224.032666 327.054133 
L 227.599178 324.006045 
L 231.547817 322.764225 
L 235.369081 326.618402 
L 239.31772 327.762059 
L 243.138983 328.607623 
L 247.087622 327.046011 
L 251.036261 325.71083 
L 254.857524 323.397239 
L 258.806163 316.493183 
L 262.627427 314.664983 
L 266.576066 311.251013 
L 270.524705 311.564777 
L 274.091217 310.055512 
L 281.86112 317.139771 
L 285.809759 316.913035 
L 289.631022 316.136486 
L 293.579661 314.811502 
L 297.5283 312.256827 
L 301.349563 308.825892 
L 305.298202 302.99204 
L 309.119466 300.383379 
L 313.068105 300.790152 
L 317.016744 301.421385 
L 320.583256 300.428831 
L 324.531895 302.488936 
L 328.353159 307.692821 
L 332.301798 307.553619 
L 336.123061 307.699032 
L 340.0717 307.24265 
L 344.020339 305.901243 
L 347.841602 303.623497 
L 351.790241 298.689159 
L 355.611505 298.605194 
L 359.560144 296.332793 
L 363.508783 293.103603 
L 371.15131 298.205827 
L 374.972573 304.950398 
L 378.921212 305.085287 
L 386.691115 302.548031 
L 390.639753 300.963437 
L 394.461017 297.161935 
L 398.409656 291.797578 
L 402.230919 290.911299 
L 406.179558 278.772316 
L 410.128197 279.216332 
L 413.69471 277.414851 
L 417.643349 280.135846 
L 421.464612 282.402685 
L 429.234515 281.299204 
L 433.183154 277.85692 
L 437.131793 275.802403 
L 440.953056 272.77106 
L 444.901695 265.010563 
L 448.722958 263.526227 
L 452.671597 259.614623 
L 456.620236 258.502048 
L 460.186749 257.873102 
L 464.135388 262.079575 
L 467.956651 266.590415 
L 471.90529 264.500472 
L 475.726554 261.342362 
L 479.675193 257.717272 
L 483.623832 254.472849 
L 487.445095 251.944537 
L 491.393734 246.332968 
L 495.214997 240.264677 
L 499.163636 240.910086 
L 503.112275 245.278399 
L 506.678788 243.99325 
L 510.627427 247.461635 
L 514.44869 250.629268 
L 518.397329 253.612842 
L 522.218593 251.382546 
L 526.167232 253.061484 
L 530.115871 252.992469 
L 533.937134 249.347768 
L 537.885773 242.42685 
L 541.707036 240.683712 
L 545.655675 236.515 
L 549.604314 237.090144 
L 553.298202 233.034283 
L 557.246841 252.633388 
L 561.068105 250.780445 
L 565.016744 249.337035 
L 568.838007 244.021928 
L 572.786646 242.082964 
L 576.735285 241.333498 
L 580.556549 237.800304 
L 584.505187 235.14756 
L 588.326451 236.713118 
L 592.27509 231.37595 
L 596.223729 226.379116 
L 599.790241 221.214213 
L 603.73888 220.559435 
L 607.560144 222.122746 
L 611.508783 221.115782 
L 615.330046 218.957313 
L 619.278685 220.010266 
L 623.227324 217.059892 
L 627.048588 212.231348 
L 630.997227 202.41953 
L 634.81849 202.328697 
L 638.767129 202.374619 
L 642.715768 199.404302 
L 646.28228 194.439444 
L 650.230919 192.911517 
L 654.052183 196.902285 
L 658.000822 194.251962 
L 661.822085 189.445067 
L 665.770724 188.72073 
L 669.719363 186.56349 
L 673.540627 185.110278 
L 677.489266 181.707476 
L 681.310529 183.285089 
L 685.259168 182.221521 
L 689.207807 180.666991 
L 692.774319 181.109803 
L 696.722958 187.026185 
L 700.544222 191.500231 
L 704.492861 194.153135 
L 708.314124 192.620245 
L 712.262763 188.283953 
L 716.211402 184.977605 
L 720.032666 183.517436 
L 723.981305 177.011859 
L 727.802568 175.696572 
L 731.751207 164.773999 
L 735.699846 167.527714 
L 739.393734 168.287006 
L 743.342373 169.362595 
L 747.163636 171.179506 
L 747.163636 171.179506 
" clip-path="url(#pa366146001)" style="fill: none; stroke: #b15928; stroke-width: 1.5; stroke-linecap: square"/>
   </g>
   <g id="line2d_45">
    <path d="M 138.436364 344.01817 
L 142.257627 347.621462 
L 146.206266 354.987819 
L 150.02753 350.694887 
L 153.976168 348.786552 
L 157.924807 349.843216 
L 161.746071 349.310363 
L 165.69471 347.671944 
L 169.515973 342.244147 
L 173.464612 334.719694 
L 177.413251 336.340821 
L 181.107139 339.912311 
L 185.055778 341.991072 
L 188.877042 341.571933 
L 192.825681 337.747759 
L 196.646944 330.811511 
L 200.595583 331.758473 
L 204.544222 325.047359 
L 208.365485 322.277982 
L 212.314124 325.182621 
L 216.135388 324.236989 
L 220.084027 323.934142 
L 224.032666 324.14912 
L 231.547817 311.591501 
L 235.369081 313.525657 
L 239.31772 319.045132 
L 243.138983 322.898461 
L 247.087622 320.847605 
L 251.036261 318.567039 
L 254.857524 320.903964 
L 258.806163 314.946231 
L 262.627427 312.293592 
L 266.576066 311.15956 
L 270.524705 314.335705 
L 274.091217 311.627526 
L 278.039856 313.95091 
L 281.86112 313.222186 
L 285.809759 313.394227 
L 289.631022 312.915109 
L 293.579661 309.89888 
L 297.5283 303.785581 
L 301.349563 304.31172 
L 305.298202 301.110751 
L 309.119466 294.15076 
L 313.068105 295.566592 
L 317.016744 296.302625 
L 320.583256 297.575913 
L 324.531895 293.971413 
L 328.353159 297.1352 
L 332.301798 297.573902 
L 336.123061 298.219672 
L 340.0717 297.976158 
L 344.020339 294.775575 
L 347.841602 296.228348 
L 351.790241 293.960664 
L 355.611505 292.646446 
L 359.560144 285.441376 
L 363.508783 277.75697 
L 367.202671 282.896046 
L 371.15131 282.908611 
L 374.972573 287.218232 
L 378.921212 289.258284 
L 382.742476 290.747283 
L 386.691115 292.081907 
L 390.639753 283.975181 
L 394.461017 283.865292 
L 398.409656 282.300036 
L 402.230919 280.966038 
L 406.179558 281.283941 
L 410.128197 284.702395 
L 413.69471 280.417871 
L 417.643349 276.554974 
L 421.464612 272.248266 
L 425.413251 271.240364 
L 429.234515 267.277913 
L 433.183154 259.860368 
L 437.131793 258.438749 
L 440.953056 264.737537 
L 444.901695 261.488372 
L 448.722958 260.143092 
L 452.671597 256.404426 
L 456.620236 260.585772 
L 460.186749 261.557604 
L 464.135388 261.237799 
L 467.956651 264.649721 
L 471.90529 266.682374 
L 475.726554 261.733767 
L 479.675193 257.638492 
L 483.623832 255.291931 
L 487.445095 259.064893 
L 491.393734 254.040414 
L 495.214997 237.871006 
L 499.163636 236.007099 
L 503.112275 247.12328 
L 506.678788 251.911809 
L 510.627427 251.374641 
L 514.44869 248.052614 
L 518.397329 252.202762 
L 522.218593 244.764129 
L 526.167232 248.565429 
L 530.115871 248.926923 
L 533.937134 248.929332 
L 537.885773 244.210962 
L 541.707036 242.218105 
L 545.655675 233.540396 
L 549.604314 233.535943 
L 553.298202 224.352169 
L 557.246841 228.106163 
L 561.068105 219.66597 
L 565.016744 230.04244 
L 568.838007 229.94005 
L 572.786646 227.332892 
L 576.735285 226.564612 
L 580.556549 225.01194 
L 584.505187 223.544034 
L 588.326451 227.71209 
L 592.27509 227.083644 
L 596.223729 227.508494 
L 599.790241 224.137974 
L 603.73888 217.685744 
L 607.560144 209.967631 
L 611.508783 209.443652 
L 615.330046 209.085142 
L 619.278685 202.260776 
L 623.227324 197.651622 
L 627.048588 198.584305 
L 630.997227 187.448288 
L 634.81849 180.826086 
L 638.767129 182.284091 
L 642.715768 182.034243 
L 646.28228 177.735404 
L 650.230919 172.326487 
L 654.052183 171.262938 
L 658.000822 165.662138 
L 661.822085 157.747469 
L 665.770724 156.843675 
L 669.719363 149.241306 
L 673.540627 150.759134 
L 677.489266 152.705981 
L 681.310529 151.220887 
L 685.259168 149.012772 
L 692.774319 150.353099 
L 696.722958 153.075825 
L 700.544222 152.020255 
L 704.492861 154.522371 
L 708.314124 148.746186 
L 716.211402 136.178575 
L 720.032666 144.805203 
L 723.981305 141.688192 
L 727.802568 137.37642 
L 731.751207 113.352598 
L 735.699846 128.835658 
L 739.393734 133.218107 
L 743.342373 127.775559 
L 747.163636 120.211769 
L 747.163636 120.211769 
" clip-path="url(#pa366146001)" style="fill: none; stroke: #a6cee3; stroke-width: 1.5; stroke-linecap: square"/>
   </g>
   <g id="line2d_46">
    <path d="M 138.436364 327.843142 
L 142.257627 338.549852 
L 146.206266 357.354036 
L 150.02753 347.893588 
L 153.976168 346.042941 
L 157.924807 350.464554 
L 161.746071 352.189725 
L 165.69471 351.812839 
L 169.515973 342.884766 
L 173.464612 332.858972 
L 177.413251 339.724778 
L 181.107139 348.189238 
L 185.055778 352.514194 
L 188.877042 351.134869 
L 192.825681 338.778614 
L 196.646944 330.778001 
L 200.595583 334.290407 
L 204.544222 330.559175 
L 208.365485 328.932954 
L 212.314124 335.608881 
L 216.135388 334.586797 
L 220.084027 337.10519 
L 224.032666 333.838825 
L 227.599178 322.662049 
L 231.547817 308.308867 
L 235.369081 319.780884 
L 239.31772 335.636096 
L 243.138983 342.602379 
L 247.087622 335.008846 
L 251.036261 329.873671 
L 254.857524 331.712921 
L 258.806163 315.007868 
L 262.627427 310.948202 
L 266.576066 314.969051 
L 270.524705 322.594776 
L 274.091217 318.789692 
L 278.039856 328.42892 
L 281.86112 336.793117 
L 285.809759 341.957347 
L 289.631022 337.839537 
L 293.579661 335.237401 
L 297.5283 326.722758 
L 301.349563 328.364523 
L 305.298202 322.195087 
L 309.119466 308.807236 
L 313.068105 320.123529 
L 317.016744 325.399255 
L 320.583256 327.062825 
L 324.531895 321.794696 
L 328.353159 324.281319 
L 332.301798 323.08489 
L 336.123061 322.147883 
L 340.0717 320.015617 
L 344.020339 312.327384 
L 347.841602 315.67569 
L 351.790241 308.163541 
L 355.611505 304.888903 
L 359.560144 286.93875 
L 363.508783 271.087327 
L 367.202671 285.174116 
L 371.15131 287.336395 
L 374.972573 300.844097 
L 386.691115 307.242657 
L 390.639753 291.281736 
L 394.461017 291.722472 
L 398.409656 287.723653 
L 402.230919 288.629167 
L 406.179558 293.660745 
L 410.128197 302.573966 
L 413.69471 292.596357 
L 417.643349 285.669767 
L 421.464612 277.299489 
L 425.413251 275.64139 
L 429.234515 267.353694 
L 433.183154 250.584949 
L 437.131793 248.105923 
L 440.953056 262.600131 
L 444.901695 254.128415 
L 448.722958 251.544374 
L 452.671597 247.472305 
L 456.620236 264.366858 
L 460.186749 271.647447 
L 464.135388 269.81967 
L 467.956651 278.084393 
L 471.90529 281.226749 
L 475.726554 265.679988 
L 479.675193 252.778437 
L 483.623832 250.866606 
L 487.445095 257.353695 
L 491.393734 248.154856 
L 495.214997 215.159517 
L 499.163636 211.629804 
L 503.112275 236.843747 
L 506.678788 246.748773 
L 510.627427 247.910897 
L 514.44869 248.265054 
L 518.397329 259.099192 
L 522.218593 248.533392 
L 526.167232 252.714915 
L 530.115871 251.412476 
L 533.937134 250.669531 
L 537.885773 243.62675 
L 541.707036 240.238012 
L 545.655675 220.253393 
L 549.604314 221.646999 
L 553.298202 204.575938 
L 557.246841 225.273083 
L 561.068105 197.027934 
L 565.016744 219.924964 
L 568.838007 227.093326 
L 572.786646 218.692135 
L 576.735285 216.177547 
L 580.556549 210.703247 
L 584.505187 213.75265 
L 588.326451 231.56395 
L 592.27509 232.987674 
L 596.223729 237.498363 
L 599.790241 236.885844 
L 603.73888 227.126409 
L 607.560144 216.912416 
L 611.508783 213.141021 
L 615.330046 214.361074 
L 619.278685 201.936746 
L 623.227324 190.154656 
L 627.048588 193.957848 
L 630.997227 173.440954 
L 634.81849 166.154615 
L 638.767129 177.530594 
L 642.715768 186.050122 
L 646.28228 180.882229 
L 650.230919 177.37204 
L 654.052183 178.81005 
L 658.000822 172.964525 
L 661.822085 162.266359 
L 665.770724 157.19618 
L 669.719363 142.41392 
L 673.540627 147.659523 
L 677.489266 151.51659 
L 681.310529 148.58115 
L 685.259168 143.828391 
L 689.207807 156.391852 
L 692.774319 157.5545 
L 696.722958 167.810568 
L 700.544222 165.517125 
L 704.492861 160.410107 
L 708.314124 142.528482 
L 712.262763 126.18873 
L 716.211402 116.363281 
L 720.032666 129.239444 
L 723.981305 129.625746 
L 727.802568 119.786349 
L 731.751207 66.96 
L 735.699846 95.124503 
L 739.393734 115.537072 
L 743.342373 104.464785 
L 747.163636 95.569384 
L 747.163636 95.569384 
" clip-path="url(#pa366146001)" style="fill: none; stroke: #1f78b4; stroke-width: 1.5; stroke-linecap: square"/>
   </g>
   <g id="line2d_47">
    <path d="M 138.436364 354.300969 
L 142.257627 353.368284 
L 146.206266 353.431316 
L 150.02753 352.437692 
L 153.976168 350.491976 
L 157.924807 349.399729 
L 161.746071 347.424514 
L 165.69471 344.979884 
L 169.515973 341.786201 
L 173.464612 335.857249 
L 177.413251 334.129031 
L 181.107139 334.576361 
L 185.055778 335.22105 
L 188.877042 335.41507 
L 192.825681 337.039301 
L 196.646944 330.780916 
L 200.595583 330.089584 
L 204.544222 321.473311 
L 208.365485 317.973016 
L 212.314124 318.46973 
L 216.135388 317.572661 
L 220.084027 315.467788 
L 224.032666 317.906381 
L 227.599178 315.294933 
L 231.547817 313.643834 
L 235.369081 309.61483 
L 239.31772 308.672309 
L 243.138983 310.579387 
L 247.087622 311.993865 
L 251.036261 311.498027 
L 254.857524 314.1461 
L 258.806163 314.907695 
L 262.627427 313.134742 
L 266.576066 308.777832 
L 270.524705 309.172055 
L 278.039856 304.899123 
L 281.86112 298.485419 
L 285.809759 295.536296 
L 289.631022 297.332123 
L 293.579661 294.057 
L 297.5283 289.445046 
L 301.349563 289.273682 
L 305.298202 287.928629 
L 309.119466 284.987395 
L 313.068105 280.213367 
L 317.016744 278.111142 
L 320.583256 279.14042 
L 324.531895 276.576037 
L 328.353159 280.163194 
L 332.301798 281.624194 
L 336.123061 283.259532 
L 340.0717 284.196884 
L 344.020339 283.802022 
L 347.841602 284.069693 
L 351.790241 285.080895 
L 355.611505 284.992347 
L 359.560144 284.505201 
L 363.508783 281.926893 
L 367.202671 281.471776 
L 371.15131 280.14032 
L 374.972573 278.699215 
L 378.921212 280.66351 
L 382.742476 281.759934 
L 386.691115 282.603263 
L 390.639753 279.407057 
L 394.461017 278.95291 
L 398.409656 278.909137 
L 402.230919 276.174976 
L 406.179558 273.545846 
L 410.128197 273.528925 
L 413.69471 272.803768 
L 421.464612 269.090191 
L 425.413251 268.488802 
L 429.234515 267.230534 
L 433.183154 265.659445 
L 437.131793 264.898929 
L 440.953056 266.073863 
L 444.901695 266.089887 
L 448.722958 265.519091 
L 452.671597 261.988872 
L 456.620236 258.221802 
L 460.186749 255.24934 
L 464.135388 255.872333 
L 467.956651 256.250238 
L 471.90529 257.589096 
L 475.726554 259.266554 
L 479.675193 261.586284 
L 483.623832 258.886596 
L 487.445095 260.454889 
L 491.393734 258.821217 
L 495.214997 256.319408 
L 499.163636 255.808626 
L 503.112275 255.47328 
L 506.678788 256.105711 
L 510.627427 254.188219 
L 514.44869 247.88005 
L 518.397329 246.600835 
L 522.218593 241.70238 
L 526.167232 245.194827 
L 530.115871 246.907924 
L 533.937134 247.515779 
L 537.885773 244.685513 
L 541.707036 243.826523 
L 545.655675 244.333346 
L 549.604314 243.193259 
L 553.298202 240.416279 
L 557.246841 230.407458 
L 561.068105 238.054708 
L 565.016744 238.260803 
L 568.838007 232.252427 
L 572.786646 234.351725 
L 576.735285 235.00196 
L 580.556549 236.634803 
L 584.505187 231.497515 
L 588.326451 224.583248 
L 592.27509 222.287838 
L 596.223729 219.393784 
L 599.790241 213.782958 
L 603.73888 210.017149 
L 607.560144 204.326425 
L 611.508783 206.440303 
L 615.330046 204.799534 
L 619.278685 202.523983 
L 623.227324 203.741361 
L 627.048588 202.342347 
L 630.997227 198.826358 
L 634.81849 192.743631 
L 638.767129 186.145328 
L 642.715768 178.772169 
L 646.28228 175.179257 
L 650.230919 168.228016 
L 654.052183 165.132466 
L 658.000822 159.730455 
L 661.822085 154.076802 
L 665.770724 156.557337 
L 669.719363 154.78715 
L 673.540627 153.276928 
L 677.489266 153.672115 
L 681.310529 153.365129 
L 685.259168 153.224012 
L 689.207807 144.19655 
L 692.774319 144.503446 
L 696.722958 141.106885 
L 700.544222 141.056831 
L 704.492861 149.7398 
L 708.314124 153.796788 
L 712.262763 155.852498 
L 716.211402 152.274416 
L 720.032666 157.449174 
L 723.981305 151.486442 
L 727.802568 151.664726 
L 731.751207 151.037019 
L 735.699846 156.219022 
L 739.393734 147.580301 
L 743.342373 146.710756 
L 747.163636 140.228627 
L 747.163636 140.228627 
" clip-path="url(#pa366146001)" style="fill: none; stroke: #b2df8a; stroke-width: 1.5; stroke-linecap: square"/>
   </g>
   <g id="line2d_48">
    <path d="M 138.436364 348.910537 
L 142.257627 355.268454 
L 157.924807 352.491539 
L 161.746071 347.332483 
L 165.69471 339.166733 
L 169.515973 338.250267 
L 173.464612 337.133971 
L 177.413251 336.490171 
L 181.107139 336.489246 
L 185.055778 340.678796 
L 188.877042 347.46272 
L 192.825681 346.46 
L 196.646944 345.725316 
L 200.595583 344.763651 
L 204.544222 344.221368 
L 208.365485 340.83752 
L 212.314124 332.235951 
L 220.084027 330.287235 
L 224.032666 328.964047 
L 227.599178 327.53787 
L 231.547817 329.338334 
L 235.369081 334.322264 
L 239.31772 332.891156 
L 243.138983 331.966933 
L 247.087622 330.693193 
L 251.036261 329.914286 
L 254.857524 324.864299 
L 258.806163 317.403423 
L 262.627427 316.060324 
L 266.576066 311.304825 
L 270.524705 309.934345 
L 274.091217 309.130528 
L 278.039856 313.577432 
L 281.86112 319.444905 
L 285.809759 318.983526 
L 289.631022 318.031965 
L 293.579661 317.702126 
L 297.5283 317.241367 
L 301.349563 311.482064 
L 305.298202 304.099003 
L 309.119466 304.050697 
L 313.068105 303.863731 
L 317.016744 304.433298 
L 320.583256 302.107508 
L 324.531895 307.500706 
L 328.353159 313.904998 
L 332.301798 313.425754 
L 336.123061 313.276752 
L 340.0717 312.695115 
L 344.020339 312.447661 
L 347.841602 307.974853 
L 351.790241 301.471438 
L 359.560144 302.741379 
L 363.508783 302.133667 
L 367.202671 302.968749 
L 371.15131 307.206815 
L 374.972573 315.384125 
L 378.921212 314.398004 
L 386.691115 308.706371 
L 390.639753 310.959444 
L 394.461017 304.985773 
L 398.409656 297.385996 
L 402.230919 296.763161 
L 406.179558 277.294458 
L 410.128197 275.988294 
L 413.69471 275.647854 
L 417.643349 282.242854 
L 421.464612 288.377615 
L 425.413251 288.023087 
L 429.234515 289.549429 
L 433.183154 288.446217 
L 437.131793 286.019298 
L 440.953056 277.498042 
L 444.901695 267.083044 
L 448.722958 265.516886 
L 452.671597 261.503525 
L 456.620236 257.27597 
L 460.186749 255.705115 
L 464.135388 262.574882 
L 467.956651 267.732334 
L 471.90529 263.216626 
L 475.726554 261.112057 
L 479.675193 257.773841 
L 483.623832 253.88469 
L 487.445095 246.831622 
L 491.393734 240.798482 
L 495.214997 241.9835 
L 499.163636 244.430773 
L 503.112275 243.953646 
L 506.678788 238.307171 
L 510.627427 244.651822 
L 514.44869 252.479486 
L 518.397329 254.625378 
L 522.218593 256.135032 
L 526.167232 256.289966 
L 530.115871 255.911816 
L 533.937134 249.648233 
L 537.885773 241.145732 
L 541.707036 239.58191 
L 545.655675 238.650974 
L 549.604314 239.642309 
L 553.298202 239.268649 
L 557.246841 270.245652 
L 561.068105 273.122814 
L 565.016744 263.191903 
L 568.838007 254.133701 
L 572.786646 252.674547 
L 576.735285 251.938592 
L 580.556549 246.983243 
L 584.505187 243.479703 
L 588.326451 243.176486 
L 596.223729 225.568144 
L 599.790241 219.114748 
L 603.73888 222.622946 
L 607.560144 230.850969 
L 611.508783 229.497188 
L 615.330046 226.046222 
L 619.278685 232.755643 
L 623.227324 230.996389 
L 627.048588 222.030879 
L 630.997227 213.16993 
L 634.81849 217.769076 
L 638.767129 216.801024 
L 642.715768 211.877219 
L 646.28228 206.434113 
L 650.230919 207.693009 
L 654.052183 215.31313 
L 658.000822 214.781456 
L 661.822085 212.20616 
L 665.770724 211.610686 
L 669.719363 213.363429 
L 673.540627 209.776802 
L 677.489266 202.532579 
L 681.310529 206.309429 
L 685.259168 206.067727 
L 689.207807 202.930281 
L 692.774319 203.195268 
L 696.722958 211.404918 
L 700.544222 219.849616 
L 704.492861 222.610797 
L 708.314124 224.124888 
L 712.262763 221.119241 
L 716.211402 220.018723 
L 723.981305 202.376723 
L 727.802568 203.213121 
L 731.751207 201.698163 
L 735.699846 195.311317 
L 739.393734 193.468929 
L 743.342373 199.224996 
L 747.163636 207.777907 
L 747.163636 207.777907 
" clip-path="url(#pa366146001)" style="fill: none; stroke: #33a02c; stroke-width: 1.5; stroke-linecap: square"/>
   </g>
   <g id="line2d_49">
    <path d="M 138.436364 359.755222 
L 142.257627 369.36 
L 150.02753 367.555333 
L 153.976168 366.888607 
L 157.924807 365.888424 
L 161.746071 358.342232 
L 165.69471 346.430092 
L 169.515973 345.121347 
L 177.413251 343.020486 
L 181.107139 342.237226 
L 185.055778 348.165511 
L 188.877042 358.1492 
L 192.825681 356.883503 
L 196.646944 355.839286 
L 200.595583 354.513236 
L 204.544222 353.761774 
L 208.365485 349.021762 
L 212.314124 336.703276 
L 216.135388 335.328934 
L 220.084027 334.248452 
L 224.032666 333.671604 
L 227.599178 331.904024 
L 231.547817 337.065735 
L 235.369081 345.031319 
L 239.31772 343.529037 
L 243.138983 342.550509 
L 247.087622 341.090173 
L 251.036261 340.210238 
L 254.857524 332.742797 
L 258.806163 321.82778 
L 262.627427 320.37015 
L 266.576066 316.728849 
L 270.524705 315.065841 
L 274.091217 313.922042 
L 278.039856 320.383331 
L 281.86112 329.793068 
L 285.809759 329.148946 
L 289.631022 327.870604 
L 293.579661 327.482814 
L 297.5283 326.951898 
L 301.349563 318.385537 
L 305.298202 307.498123 
L 309.119466 307.545872 
L 313.068105 307.903583 
L 317.016744 309.103778 
L 320.583256 306.041244 
L 324.531895 314.150349 
L 328.353159 323.807426 
L 332.301798 323.16701 
L 336.123061 322.970956 
L 340.0717 322.590851 
L 344.020339 322.702542 
L 347.841602 316.278008 
L 351.790241 306.709567 
L 355.611505 307.733717 
L 359.560144 309.639217 
L 363.508783 309.418027 
L 367.202671 310.725883 
L 371.15131 316.385588 
L 374.972573 327.329034 
L 378.921212 325.934891 
L 382.742476 323.921901 
L 386.691115 319.763646 
L 390.639753 323.155725 
L 394.461017 314.513727 
L 398.409656 303.224657 
L 402.230919 302.606769 
L 406.179558 275.634453 
L 410.128197 274.71056 
L 413.69471 274.757233 
L 417.643349 285.093284 
L 421.464612 296.806832 
L 425.413251 296.32308 
L 429.234515 298.876743 
L 433.183154 297.743007 
L 437.131793 294.403027 
L 440.953056 282.648153 
L 444.901695 267.289806 
L 448.722958 265.326622 
L 452.671597 260.335662 
L 456.620236 255.118473 
L 460.186749 253.032798 
L 464.135388 263.516325 
L 467.956651 271.449199 
L 471.90529 264.709983 
L 475.726554 261.709652 
L 479.675193 257.025262 
L 483.623832 251.693839 
L 487.445095 241.809221 
L 491.393734 233.334028 
L 495.214997 235.125967 
L 499.163636 239.815241 
L 503.112275 240.11653 
L 506.678788 232.19841 
L 510.627427 241.644213 
L 514.44869 253.109752 
L 518.397329 256.330658 
L 522.218593 258.703141 
L 526.167232 259.672722 
L 530.115871 259.307411 
L 533.937134 250.798327 
L 537.885773 239.463736 
L 541.707036 237.299335 
L 545.655675 237.467997 
L 549.604314 239.361937 
L 553.298202 239.18685 
L 557.246841 283.689394 
L 561.068105 288.328074 
L 565.016744 273.302587 
L 568.838007 260.553161 
L 572.786646 259.357099 
L 576.735285 258.793378 
L 580.556549 251.804959 
L 584.505187 246.808921 
L 588.326451 246.300657 
L 592.27509 234.481691 
L 596.223729 222.191505 
L 599.790241 213.084643 
L 603.73888 218.287336 
L 607.560144 230.138908 
L 611.508783 228.425069 
L 615.330046 223.493081 
L 619.278685 233.308789 
L 623.227324 231.154776 
L 627.048588 218.416778 
L 630.997227 205.836748 
L 634.81849 212.736655 
L 638.767129 212.489682 
L 642.715768 206.4187 
L 646.28228 199.164592 
L 650.230919 201.125192 
L 654.052183 212.097257 
L 658.000822 211.667489 
L 661.822085 209.619457 
L 665.770724 209.299521 
L 669.719363 212.268175 
L 673.540627 207.421868 
L 677.489266 197.485856 
L 681.310529 203.068083 
L 685.259168 204.046425 
L 689.207807 200.827963 
L 692.774319 202.425232 
L 696.722958 214.752323 
L 700.544222 227.351928 
L 704.492861 231.472522 
L 708.314124 233.847996 
L 712.262763 229.709185 
L 716.211402 228.345062 
L 723.981305 203.512061 
L 727.802568 204.894136 
L 731.751207 203.548781 
L 735.699846 195.276877 
L 739.393734 193.117872 
L 743.342373 201.561646 
L 747.163636 213.927646 
L 747.163636 213.927646 
" clip-path="url(#pa366146001)" style="fill: none; stroke: #fb9a99; stroke-width: 1.5; stroke-linecap: square"/>
   </g>
   <g id="line2d_50">
    <path d="M 138.436364 326.150881 
L 142.257627 325.544114 
L 153.976168 324.361119 
L 169.515973 324.021911 
L 173.464612 322.713559 
L 177.413251 322.995698 
L 181.107139 324.66882 
L 185.055778 325.12659 
L 188.877042 325.045466 
L 192.825681 324.608156 
L 200.595583 324.358406 
L 204.544222 324.265177 
L 208.365485 323.792321 
L 212.314124 323.167263 
L 216.135388 323.04614 
L 220.084027 322.306745 
L 224.032666 319.390084 
L 227.599178 318.698259 
L 231.547817 313.672728 
L 235.369081 312.612006 
L 239.31772 311.325195 
L 247.087622 309.615601 
L 251.036261 309.041509 
L 254.857524 308.892374 
L 258.806163 308.434009 
L 262.627427 307.323104 
L 266.576066 300.308809 
L 270.524705 299.531366 
L 274.091217 299.416783 
L 278.039856 299.779972 
L 281.86112 298.466275 
L 285.809759 298.375372 
L 297.5283 297.5554 
L 301.349563 297.486785 
L 309.119466 296.964992 
L 313.068105 295.673817 
L 317.016744 294.964927 
L 320.583256 294.132723 
L 328.353159 293.830001 
L 336.123061 293.623883 
L 344.020339 291.658146 
L 347.841602 291.142028 
L 351.790241 290.852283 
L 355.611505 290.713272 
L 359.560144 288.757536 
L 363.508783 287.366226 
L 367.202671 287.242867 
L 371.15131 288.598873 
L 374.972573 291.168448 
L 378.921212 291.009499 
L 382.742476 286.458028 
L 386.691115 286.290175 
L 390.639753 286.234158 
L 394.461017 285.669938 
L 398.409656 285.549395 
L 402.230919 284.916527 
L 406.179558 280.659752 
L 410.128197 278.578615 
L 413.69471 277.453395 
L 417.643349 276.464239 
L 421.464612 271.28923 
L 425.413251 271.19667 
L 429.234515 270.640347 
L 433.183154 269.599018 
L 437.131793 269.023129 
L 440.953056 267.057319 
L 444.901695 266.66388 
L 448.722958 265.902604 
L 452.671597 263.87111 
L 456.620236 261.649823 
L 460.186749 261.12265 
L 467.956651 260.197206 
L 471.90529 260.189173 
L 479.675193 259.52348 
L 487.445095 258.570385 
L 495.214997 258.011476 
L 499.163636 255.218568 
L 503.112275 252.922064 
L 506.678788 252.58506 
L 510.627427 251.68145 
L 514.44869 251.006379 
L 518.397329 250.639659 
L 522.218593 250.132641 
L 526.167232 248.383516 
L 530.115871 247.975357 
L 533.937134 246.960141 
L 537.885773 245.07703 
L 541.707036 244.916926 
L 545.655675 241.415923 
L 549.604314 240.297615 
L 553.298202 239.459836 
L 557.246841 238.823855 
L 561.068105 237.583856 
L 565.016744 239.560398 
L 568.838007 239.129623 
L 572.786646 237.055547 
L 576.735285 235.917034 
L 580.556549 235.71354 
L 584.505187 235.698388 
L 588.326451 235.874423 
L 592.27509 234.403049 
L 596.223729 233.460298 
L 599.790241 233.208797 
L 603.73888 232.756482 
L 607.560144 232.515255 
L 611.508783 232.003031 
L 615.330046 232.013629 
L 619.278685 231.462785 
L 623.227324 230.626193 
L 630.997227 230.309634 
L 634.81849 229.531256 
L 638.767129 226.877839 
L 642.715768 224.63531 
L 646.28228 223.425022 
L 650.230919 223.043842 
L 654.052183 222.829528 
L 658.000822 222.059669 
L 661.822085 218.252011 
L 665.770724 217.012526 
L 669.719363 215.923347 
L 673.540627 215.280944 
L 677.489266 214.328188 
L 681.310529 213.885365 
L 685.259168 210.792075 
L 689.207807 207.843988 
L 692.774319 204.995057 
L 700.544222 202.314608 
L 716.211402 200.557731 
L 720.032666 200.037811 
L 723.981305 199.723121 
L 727.802568 199.284118 
L 735.699846 195.391814 
L 739.393734 194.289449 
L 743.342373 193.763589 
L 747.163636 193.404242 
L 747.163636 193.404242 
" clip-path="url(#pa366146001)" style="fill: none; stroke: #e31a1c; stroke-width: 1.5; stroke-linecap: square"/>
   </g>
   <g id="patch_3">
    <path d="M 108 384.48 
L 108 51.84 
" style="fill: none; stroke: #000000; stroke-width: 0.8; stroke-linejoin: miter; stroke-linecap: square"/>
   </g>
   <g id="patch_4">
    <path d="M 777.6 384.48 
L 777.6 51.84 
" style="fill: none; stroke: #000000; stroke-width: 0.8; stroke-linejoin: miter; stroke-linecap: square"/>
   </g>
   <g id="patch_5">
    <path d="M 108 384.48 
L 777.6 384.48 
" style="fill: none; stroke: #000000; stroke-width: 0.8; stroke-linejoin: miter; stroke-linecap: square"/>
   </g>
   <g id="patch_6">
    <path d="M 108 51.84 
L 777.6 51.84 
" style="fill: none; stroke: #000000; stroke-width: 0.8; stroke-linejoin: miter; stroke-linecap: square"/>
   </g>
   <g id="text_15">
    <!-- Principales ndices -->
    <g transform="translate(368.738906 45.84) scale(0.14 -0.14)">
     <defs>
      <path id="DejaVuSans-Bold-50" d="M 588 4666 
L 2584 4666 
Q 3475 4666 3951 4270 
Q 4428 3875 4428 3144 
Q 4428 2409 3951 2014 
Q 3475 1619 2584 1619 
L 1791 1619 
L 1791 0 
L 588 0 
L 588 4666 
z
M 1791 3794 
L 1791 2491 
L 2456 2491 
Q 2806 2491 2997 2661 
Q 3188 2831 3188 3144 
Q 3188 3456 2997 3625 
Q 2806 3794 2456 3794 
L 1791 3794 
z
" transform="scale(0.015625)"/>
      <path id="DejaVuSans-Bold-72" d="M 3138 2547 
Q 2991 2616 2845 2648 
Q 2700 2681 2553 2681 
Q 2122 2681 1889 2404 
Q 1656 2128 1656 1613 
L 1656 0 
L 538 0 
L 538 3500 
L 1656 3500 
L 1656 2925 
Q 1872 3269 2151 3426 
Q 2431 3584 2822 3584 
Q 2878 3584 2943 3579 
Q 3009 3575 3134 3559 
L 3138 2547 
z
" transform="scale(0.015625)"/>
      <path id="DejaVuSans-Bold-69" d="M 538 3500 
L 1656 3500 
L 1656 0 
L 538 0 
L 538 3500 
z
M 538 4863 
L 1656 4863 
L 1656 3950 
L 538 3950 
L 538 4863 
z
" transform="scale(0.015625)"/>
      <path id="DejaVuSans-Bold-6e" d="M 4056 2131 
L 4056 0 
L 2931 0 
L 2931 347 
L 2931 1631 
Q 2931 2084 2911 2256 
Q 2891 2428 2841 2509 
Q 2775 2619 2662 2680 
Q 2550 2741 2406 2741 
Q 2056 2741 1856 2470 
Q 1656 2200 1656 1722 
L 1656 0 
L 538 0 
L 538 3500 
L 1656 3500 
L 1656 2988 
Q 1909 3294 2193 3439 
Q 2478 3584 2822 3584 
Q 3428 3584 3742 3212 
Q 4056 2841 4056 2131 
z
" transform="scale(0.015625)"/>
      <path id="DejaVuSans-Bold-63" d="M 3366 3391 
L 3366 2478 
Q 3138 2634 2908 2709 
Q 2678 2784 2431 2784 
Q 1963 2784 1702 2511 
Q 1441 2238 1441 1747 
Q 1441 1256 1702 982 
Q 1963 709 2431 709 
Q 2694 709 2930 787 
Q 3166 866 3366 1019 
L 3366 103 
Q 3103 6 2833 -42 
Q 2563 -91 2291 -91 
Q 1344 -91 809 395 
Q 275 881 275 1747 
Q 275 2613 809 3098 
Q 1344 3584 2291 3584 
Q 2566 3584 2833 3536 
Q 3100 3488 3366 3391 
z
" transform="scale(0.015625)"/>
      <path id="DejaVuSans-Bold-70" d="M 1656 506 
L 1656 -1331 
L 538 -1331 
L 538 3500 
L 1656 3500 
L 1656 2988 
Q 1888 3294 2169 3439 
Q 2450 3584 2816 3584 
Q 3463 3584 3878 3070 
Q 4294 2556 4294 1747 
Q 4294 938 3878 423 
Q 3463 -91 2816 -91 
Q 2450 -91 2169 54 
Q 1888 200 1656 506 
z
M 2400 2772 
Q 2041 2772 1848 2508 
Q 1656 2244 1656 1747 
Q 1656 1250 1848 986 
Q 2041 722 2400 722 
Q 2759 722 2948 984 
Q 3138 1247 3138 1747 
Q 3138 2247 2948 2509 
Q 2759 2772 2400 2772 
z
" transform="scale(0.015625)"/>
      <path id="DejaVuSans-Bold-61" d="M 2106 1575 
Q 1756 1575 1579 1456 
Q 1403 1338 1403 1106 
Q 1403 894 1545 773 
Q 1688 653 1941 653 
Q 2256 653 2472 879 
Q 2688 1106 2688 1447 
L 2688 1575 
L 2106 1575 
z
M 3816 1997 
L 3816 0 
L 2688 0 
L 2688 519 
Q 2463 200 2181 54 
Q 1900 -91 1497 -91 
Q 953 -91 614 226 
Q 275 544 275 1050 
Q 275 1666 698 1953 
Q 1122 2241 2028 2241 
L 2688 2241 
L 2688 2328 
Q 2688 2594 2478 2717 
Q 2269 2841 1825 2841 
Q 1466 2841 1156 2769 
Q 847 2697 581 2553 
L 581 3406 
Q 941 3494 1303 3539 
Q 1666 3584 2028 3584 
Q 2975 3584 3395 3211 
Q 3816 2838 3816 1997 
z
" transform="scale(0.015625)"/>
      <path id="DejaVuSans-Bold-6c" d="M 538 4863 
L 1656 4863 
L 1656 0 
L 538 0 
L 538 4863 
z
" transform="scale(0.015625)"/>
      <path id="DejaVuSans-Bold-65" d="M 4031 1759 
L 4031 1441 
L 1416 1441 
Q 1456 1047 1700 850 
Q 1944 653 2381 653 
Q 2734 653 3104 758 
Q 3475 863 3866 1075 
L 3866 213 
Q 3469 63 3072 -14 
Q 2675 -91 2278 -91 
Q 1328 -91 801 392 
Q 275 875 275 1747 
Q 275 2603 792 3093 
Q 1309 3584 2216 3584 
Q 3041 3584 3536 3087 
Q 4031 2591 4031 1759 
z
M 2881 2131 
Q 2881 2450 2695 2645 
Q 2509 2841 2209 2841 
Q 1884 2841 1681 2658 
Q 1478 2475 1428 2131 
L 2881 2131 
z
" transform="scale(0.015625)"/>
      <path id="DejaVuSans-Bold-73" d="M 3272 3391 
L 3272 2541 
Q 2913 2691 2578 2766 
Q 2244 2841 1947 2841 
Q 1628 2841 1473 2761 
Q 1319 2681 1319 2516 
Q 1319 2381 1436 2309 
Q 1553 2238 1856 2203 
L 2053 2175 
Q 2913 2066 3209 1816 
Q 3506 1566 3506 1031 
Q 3506 472 3093 190 
Q 2681 -91 1863 -91 
Q 1516 -91 1145 -36 
Q 775 19 384 128 
L 384 978 
Q 719 816 1070 734 
Q 1422 653 1784 653 
Q 2113 653 2278 743 
Q 2444 834 2444 1013 
Q 2444 1163 2330 1236 
Q 2216 1309 1875 1350 
L 1678 1375 
Q 931 1469 631 1722 
Q 331 1975 331 2491 
Q 331 3047 712 3315 
Q 1094 3584 1881 3584 
Q 2191 3584 2531 3537 
Q 2872 3491 3272 3391 
z
" transform="scale(0.015625)"/>
      <path id="DejaVuSans-Bold-20" transform="scale(0.015625)"/>
      <path id="DejaVuSans-Bold-cd" d="M 588 4666 
L 1791 4666 
L 1791 0 
L 588 0 
L 588 4666 
z
M 1271 5921 
L 2156 5921 
L 1265 5096 
L 653 5096 
L 1271 5921 
z
" transform="scale(0.015625)"/>
      <path id="DejaVuSans-Bold-64" d="M 2919 2988 
L 2919 4863 
L 4044 4863 
L 4044 0 
L 2919 0 
L 2919 506 
Q 2688 197 2409 53 
Q 2131 -91 1766 -91 
Q 1119 -91 703 423 
Q 288 938 288 1747 
Q 288 2556 703 3070 
Q 1119 3584 1766 3584 
Q 2128 3584 2408 3439 
Q 2688 3294 2919 2988 
z
M 2181 722 
Q 2541 722 2730 984 
Q 2919 1247 2919 1747 
Q 2919 2247 2730 2509 
Q 2541 2772 2181 2772 
Q 1825 2772 1636 2509 
Q 1447 2247 1447 1747 
Q 1447 1247 1636 984 
Q 1825 722 2181 722 
z
" transform="scale(0.015625)"/>
     </defs>
     <use xlink:href="#DejaVuSans-Bold-50"/>
     <use xlink:href="#DejaVuSans-Bold-72" x="73.291016"/>
     <use xlink:href="#DejaVuSans-Bold-69" x="122.607422"/>
     <use xlink:href="#DejaVuSans-Bold-6e" x="156.884766"/>
     <use xlink:href="#DejaVuSans-Bold-63" x="228.076172"/>
     <use xlink:href="#DejaVuSans-Bold-69" x="287.353516"/>
     <use xlink:href="#DejaVuSans-Bold-70" x="321.630859"/>
     <use xlink:href="#DejaVuSans-Bold-61" x="393.212891"/>
     <use xlink:href="#DejaVuSans-Bold-6c" x="460.693359"/>
     <use xlink:href="#DejaVuSans-Bold-65" x="494.970703"/>
     <use xlink:href="#DejaVuSans-Bold-73" x="562.792969"/>
     <use xlink:href="#DejaVuSans-Bold-20" x="622.314453"/>
     <use xlink:href="#DejaVuSans-Bold-cd" x="657.128906"/>
     <use xlink:href="#DejaVuSans-Bold-6e" x="694.335938"/>
     <use xlink:href="#DejaVuSans-Bold-64" x="765.527344"/>
     <use xlink:href="#DejaVuSans-Bold-69" x="837.109375"/>
     <use xlink:href="#DejaVuSans-Bold-63" x="871.386719"/>
     <use xlink:href="#DejaVuSans-Bold-65" x="930.664062"/>
     <use xlink:href="#DejaVuSans-Bold-73" x="998.486328"/>
    </g>
   </g>
  </g>
 </g>
 <defs>
  <clipPath id="pa366146001">
   <rect x="108" y="51.84" width="669.6" height="332.64"/>
  </clipPath>
 </defs>
</svg>
