<?xml version="1.0" encoding="utf-8" standalone="no"?>
<!DOCTYPE svg PUBLIC "-//W3C//DTD SVG 1.1//EN"
  "http://www.w3.org/Graphics/SVG/1.1/DTD/svg11.dtd">
<svg xmlns:xlink="http://www.w3.org/1999/xlink" width="864pt" height="432pt" viewBox="0 0 864 432" xmlns="http://www.w3.org/2000/svg" version="1.1">
 <metadata>
  <rdf:RDF xmlns:dc="http://purl.org/dc/elements/1.1/" xmlns:cc="http://creativecommons.org/ns#" xmlns:rdf="http://www.w3.org/1999/02/22-rdf-syntax-ns#">
   <cc:Work>
    <dc:type rdf:resource="http://purl.org/dc/dcmitype/StillImage"/>
    <dc:date>2025-02-23T06:43:47.639353</dc:date>
    <dc:format>image/svg+xml</dc:format>
    <dc:creator>
     <cc:Agent>
      <dc:title>Matplotlib v3.10.0, https://matplotlib.org/</dc:title>
     </cc:Agent>
    </dc:creator>
   </cc:Work>
  </rdf:RDF>
 </metadata>
 <defs>
  <style type="text/css">*{stroke-linejoin: round; stroke-linecap: butt}</style>
 </defs>
 <g id="figure_1">
  <g id="patch_1">
   <path d="M 0 432 
L 864 432 
L 864 0 
L 0 0 
z
" style="fill: #ffffff"/>
  </g>
  <g id="axes_1">
   <g id="patch_2">
    <path d="M 108 384.48 
L 777.6 384.48 
L 777.6 51.84 
L 108 51.84 
z
" style="fill: #ffffff"/>
   </g>
   <g id="matplotlib.axis_1">
    <g id="xtick_1">
     <g id="line2d_1">
      <path d="M 175.060537 384.48 
L 175.060537 51.84 
" clip-path="url(#pc920fc352d)" style="fill: none; stroke-dasharray: 2.96,1.28; stroke-dashoffset: 0; stroke: #b0b0b0; stroke-opacity: 0.5; stroke-width: 0.8"/>
     </g>
     <g id="line2d_2">
      <defs>
       <path id="m23e95950d9" d="M 0 0 
L 0 3.5 
" style="stroke: #000000; stroke-width: 0.8"/>
      </defs>
      <g>
       <use xlink:href="#m23e95950d9" x="175.060537" y="384.48" style="stroke: #000000; stroke-width: 0.8"/>
      </g>
     </g>
     <g id="text_1">
      <!-- 2012 -->
      <g transform="translate(162.335537 399.078438) scale(0.1 -0.1)">
       <defs>
        <path id="DejaVuSans-32" d="M 1228 531 
L 3431 531 
L 3431 0 
L 469 0 
L 469 531 
Q 828 903 1448 1529 
Q 2069 2156 2228 2338 
Q 2531 2678 2651 2914 
Q 2772 3150 2772 3378 
Q 2772 3750 2511 3984 
Q 2250 4219 1831 4219 
Q 1534 4219 1204 4116 
Q 875 4013 500 3803 
L 500 4441 
Q 881 4594 1212 4672 
Q 1544 4750 1819 4750 
Q 2544 4750 2975 4387 
Q 3406 4025 3406 3419 
Q 3406 3131 3298 2873 
Q 3191 2616 2906 2266 
Q 2828 2175 2409 1742 
Q 1991 1309 1228 531 
z
" transform="scale(0.015625)"/>
        <path id="DejaVuSans-30" d="M 2034 4250 
Q 1547 4250 1301 3770 
Q 1056 3291 1056 2328 
Q 1056 1369 1301 889 
Q 1547 409 2034 409 
Q 2525 409 2770 889 
Q 3016 1369 3016 2328 
Q 3016 3291 2770 3770 
Q 2525 4250 2034 4250 
z
M 2034 4750 
Q 2819 4750 3233 4129 
Q 3647 3509 3647 2328 
Q 3647 1150 3233 529 
Q 2819 -91 2034 -91 
Q 1250 -91 836 529 
Q 422 1150 422 2328 
Q 422 3509 836 4129 
Q 1250 4750 2034 4750 
z
" transform="scale(0.015625)"/>
        <path id="DejaVuSans-31" d="M 794 531 
L 1825 531 
L 1825 4091 
L 703 3866 
L 703 4441 
L 1819 4666 
L 2450 4666 
L 2450 531 
L 3481 531 
L 3481 0 
L 794 0 
L 794 531 
z
" transform="scale(0.015625)"/>
       </defs>
       <use xlink:href="#DejaVuSans-32"/>
       <use xlink:href="#DejaVuSans-30" transform="translate(63.623047 0)"/>
       <use xlink:href="#DejaVuSans-31" transform="translate(127.246094 0)"/>
       <use xlink:href="#DejaVuSans-32" transform="translate(190.869141 0)"/>
      </g>
     </g>
    </g>
    <g id="xtick_2">
     <g id="line2d_3">
      <path d="M 262.551618 384.48 
L 262.551618 51.84 
" clip-path="url(#pc920fc352d)" style="fill: none; stroke-dasharray: 2.96,1.28; stroke-dashoffset: 0; stroke: #b0b0b0; stroke-opacity: 0.5; stroke-width: 0.8"/>
     </g>
     <g id="line2d_4">
      <g>
       <use xlink:href="#m23e95950d9" x="262.551618" y="384.48" style="stroke: #000000; stroke-width: 0.8"/>
      </g>
     </g>
     <g id="text_2">
      <!-- 2014 -->
      <g transform="translate(249.826618 399.078438) scale(0.1 -0.1)">
       <defs>
        <path id="DejaVuSans-34" d="M 2419 4116 
L 825 1625 
L 2419 1625 
L 2419 4116 
z
M 2253 4666 
L 3047 4666 
L 3047 1625 
L 3713 1625 
L 3713 1100 
L 3047 1100 
L 3047 0 
L 2419 0 
L 2419 1100 
L 313 1100 
L 313 1709 
L 2253 4666 
z
" transform="scale(0.015625)"/>
       </defs>
       <use xlink:href="#DejaVuSans-32"/>
       <use xlink:href="#DejaVuSans-30" transform="translate(63.623047 0)"/>
       <use xlink:href="#DejaVuSans-31" transform="translate(127.246094 0)"/>
       <use xlink:href="#DejaVuSans-34" transform="translate(190.869141 0)"/>
      </g>
     </g>
    </g>
    <g id="xtick_3">
     <g id="line2d_5">
      <path d="M 349.923011 384.48 
L 349.923011 51.84 
" clip-path="url(#pc920fc352d)" style="fill: none; stroke-dasharray: 2.96,1.28; stroke-dashoffset: 0; stroke: #b0b0b0; stroke-opacity: 0.5; stroke-width: 0.8"/>
     </g>
     <g id="line2d_6">
      <g>
       <use xlink:href="#m23e95950d9" x="349.923011" y="384.48" style="stroke: #000000; stroke-width: 0.8"/>
      </g>
     </g>
     <g id="text_3">
      <!-- 2016 -->
      <g transform="translate(337.198011 399.078438) scale(0.1 -0.1)">
       <defs>
        <path id="DejaVuSans-36" d="M 2113 2584 
Q 1688 2584 1439 2293 
Q 1191 2003 1191 1497 
Q 1191 994 1439 701 
Q 1688 409 2113 409 
Q 2538 409 2786 701 
Q 3034 994 3034 1497 
Q 3034 2003 2786 2293 
Q 2538 2584 2113 2584 
z
M 3366 4563 
L 3366 3988 
Q 3128 4100 2886 4159 
Q 2644 4219 2406 4219 
Q 1781 4219 1451 3797 
Q 1122 3375 1075 2522 
Q 1259 2794 1537 2939 
Q 1816 3084 2150 3084 
Q 2853 3084 3261 2657 
Q 3669 2231 3669 1497 
Q 3669 778 3244 343 
Q 2819 -91 2113 -91 
Q 1303 -91 875 529 
Q 447 1150 447 2328 
Q 447 3434 972 4092 
Q 1497 4750 2381 4750 
Q 2619 4750 2861 4703 
Q 3103 4656 3366 4563 
z
" transform="scale(0.015625)"/>
       </defs>
       <use xlink:href="#DejaVuSans-32"/>
       <use xlink:href="#DejaVuSans-30" transform="translate(63.623047 0)"/>
       <use xlink:href="#DejaVuSans-31" transform="translate(127.246094 0)"/>
       <use xlink:href="#DejaVuSans-36" transform="translate(190.869141 0)"/>
      </g>
     </g>
    </g>
    <g id="xtick_4">
     <g id="line2d_7">
      <path d="M 437.414092 384.48 
L 437.414092 51.84 
" clip-path="url(#pc920fc352d)" style="fill: none; stroke-dasharray: 2.96,1.28; stroke-dashoffset: 0; stroke: #b0b0b0; stroke-opacity: 0.5; stroke-width: 0.8"/>
     </g>
     <g id="line2d_8">
      <g>
       <use xlink:href="#m23e95950d9" x="437.414092" y="384.48" style="stroke: #000000; stroke-width: 0.8"/>
      </g>
     </g>
     <g id="text_4">
      <!-- 2018 -->
      <g transform="translate(424.689092 399.078438) scale(0.1 -0.1)">
       <defs>
        <path id="DejaVuSans-38" d="M 2034 2216 
Q 1584 2216 1326 1975 
Q 1069 1734 1069 1313 
Q 1069 891 1326 650 
Q 1584 409 2034 409 
Q 2484 409 2743 651 
Q 3003 894 3003 1313 
Q 3003 1734 2745 1975 
Q 2488 2216 2034 2216 
z
M 1403 2484 
Q 997 2584 770 2862 
Q 544 3141 544 3541 
Q 544 4100 942 4425 
Q 1341 4750 2034 4750 
Q 2731 4750 3128 4425 
Q 3525 4100 3525 3541 
Q 3525 3141 3298 2862 
Q 3072 2584 2669 2484 
Q 3125 2378 3379 2068 
Q 3634 1759 3634 1313 
Q 3634 634 3220 271 
Q 2806 -91 2034 -91 
Q 1263 -91 848 271 
Q 434 634 434 1313 
Q 434 1759 690 2068 
Q 947 2378 1403 2484 
z
M 1172 3481 
Q 1172 3119 1398 2916 
Q 1625 2713 2034 2713 
Q 2441 2713 2670 2916 
Q 2900 3119 2900 3481 
Q 2900 3844 2670 4047 
Q 2441 4250 2034 4250 
Q 1625 4250 1398 4047 
Q 1172 3844 1172 3481 
z
" transform="scale(0.015625)"/>
       </defs>
       <use xlink:href="#DejaVuSans-32"/>
       <use xlink:href="#DejaVuSans-30" transform="translate(63.623047 0)"/>
       <use xlink:href="#DejaVuSans-31" transform="translate(127.246094 0)"/>
       <use xlink:href="#DejaVuSans-38" transform="translate(190.869141 0)"/>
      </g>
     </g>
    </g>
    <g id="xtick_5">
     <g id="line2d_9">
      <path d="M 524.785486 384.48 
L 524.785486 51.84 
" clip-path="url(#pc920fc352d)" style="fill: none; stroke-dasharray: 2.96,1.28; stroke-dashoffset: 0; stroke: #b0b0b0; stroke-opacity: 0.5; stroke-width: 0.8"/>
     </g>
     <g id="line2d_10">
      <g>
       <use xlink:href="#m23e95950d9" x="524.785486" y="384.48" style="stroke: #000000; stroke-width: 0.8"/>
      </g>
     </g>
     <g id="text_5">
      <!-- 2020 -->
      <g transform="translate(512.060486 399.078438) scale(0.1 -0.1)">
       <use xlink:href="#DejaVuSans-32"/>
       <use xlink:href="#DejaVuSans-30" transform="translate(63.623047 0)"/>
       <use xlink:href="#DejaVuSans-32" transform="translate(127.246094 0)"/>
       <use xlink:href="#DejaVuSans-30" transform="translate(190.869141 0)"/>
      </g>
     </g>
    </g>
    <g id="xtick_6">
     <g id="line2d_11">
      <path d="M 612.276567 384.48 
L 612.276567 51.84 
" clip-path="url(#pc920fc352d)" style="fill: none; stroke-dasharray: 2.96,1.28; stroke-dashoffset: 0; stroke: #b0b0b0; stroke-opacity: 0.5; stroke-width: 0.8"/>
     </g>
     <g id="line2d_12">
      <g>
       <use xlink:href="#m23e95950d9" x="612.276567" y="384.48" style="stroke: #000000; stroke-width: 0.8"/>
      </g>
     </g>
     <g id="text_6">
      <!-- 2022 -->
      <g transform="translate(599.551567 399.078438) scale(0.1 -0.1)">
       <use xlink:href="#DejaVuSans-32"/>
       <use xlink:href="#DejaVuSans-30" transform="translate(63.623047 0)"/>
       <use xlink:href="#DejaVuSans-32" transform="translate(127.246094 0)"/>
       <use xlink:href="#DejaVuSans-32" transform="translate(190.869141 0)"/>
      </g>
     </g>
    </g>
    <g id="xtick_7">
     <g id="line2d_13">
      <path d="M 699.647961 384.48 
L 699.647961 51.84 
" clip-path="url(#pc920fc352d)" style="fill: none; stroke-dasharray: 2.96,1.28; stroke-dashoffset: 0; stroke: #b0b0b0; stroke-opacity: 0.5; stroke-width: 0.8"/>
     </g>
     <g id="line2d_14">
      <g>
       <use xlink:href="#m23e95950d9" x="699.647961" y="384.48" style="stroke: #000000; stroke-width: 0.8"/>
      </g>
     </g>
     <g id="text_7">
      <!-- 2024 -->
      <g transform="translate(686.922961 399.078438) scale(0.1 -0.1)">
       <use xlink:href="#DejaVuSans-32"/>
       <use xlink:href="#DejaVuSans-30" transform="translate(63.623047 0)"/>
       <use xlink:href="#DejaVuSans-32" transform="translate(127.246094 0)"/>
       <use xlink:href="#DejaVuSans-34" transform="translate(190.869141 0)"/>
      </g>
     </g>
    </g>
   </g>
   <g id="matplotlib.axis_2">
    <g id="ytick_1">
     <g id="line2d_15">
      <path d="M 108 334.750058 
L 777.6 334.750058 
" clip-path="url(#pc920fc352d)" style="fill: none; stroke-dasharray: 2.96,1.28; stroke-dashoffset: 0; stroke: #b0b0b0; stroke-opacity: 0.5; stroke-width: 0.8"/>
     </g>
     <g id="line2d_16">
      <defs>
       <path id="m2318048a89" d="M 0 0 
L -3.5 0 
" style="stroke: #000000; stroke-width: 0.8"/>
      </defs>
      <g>
       <use xlink:href="#m2318048a89" x="108" y="334.750058" style="stroke: #000000; stroke-width: 0.8"/>
      </g>
     </g>
     <g id="text_8">
      <!-- 4 -->
      <g transform="translate(94.6375 338.549277) scale(0.1 -0.1)">
       <use xlink:href="#DejaVuSans-34"/>
      </g>
     </g>
    </g>
    <g id="ytick_2">
     <g id="line2d_17">
      <path d="M 108 264.830983 
L 777.6 264.830983 
" clip-path="url(#pc920fc352d)" style="fill: none; stroke-dasharray: 2.96,1.28; stroke-dashoffset: 0; stroke: #b0b0b0; stroke-opacity: 0.5; stroke-width: 0.8"/>
     </g>
     <g id="line2d_18">
      <g>
       <use xlink:href="#m2318048a89" x="108" y="264.830983" style="stroke: #000000; stroke-width: 0.8"/>
      </g>
     </g>
     <g id="text_9">
      <!-- 6 -->
      <g transform="translate(94.6375 268.630201) scale(0.1 -0.1)">
       <use xlink:href="#DejaVuSans-36"/>
      </g>
     </g>
    </g>
    <g id="ytick_3">
     <g id="line2d_19">
      <path d="M 108 194.911908 
L 777.6 194.911908 
" clip-path="url(#pc920fc352d)" style="fill: none; stroke-dasharray: 2.96,1.28; stroke-dashoffset: 0; stroke: #b0b0b0; stroke-opacity: 0.5; stroke-width: 0.8"/>
     </g>
     <g id="line2d_20">
      <g>
       <use xlink:href="#m2318048a89" x="108" y="194.911908" style="stroke: #000000; stroke-width: 0.8"/>
      </g>
     </g>
     <g id="text_10">
      <!-- 8 -->
      <g transform="translate(94.6375 198.711126) scale(0.1 -0.1)">
       <use xlink:href="#DejaVuSans-38"/>
      </g>
     </g>
    </g>
    <g id="ytick_4">
     <g id="line2d_21">
      <path d="M 108 124.992832 
L 777.6 124.992832 
" clip-path="url(#pc920fc352d)" style="fill: none; stroke-dasharray: 2.96,1.28; stroke-dashoffset: 0; stroke: #b0b0b0; stroke-opacity: 0.5; stroke-width: 0.8"/>
     </g>
     <g id="line2d_22">
      <g>
       <use xlink:href="#m2318048a89" x="108" y="124.992832" style="stroke: #000000; stroke-width: 0.8"/>
      </g>
     </g>
     <g id="text_11">
      <!-- 10 -->
      <g transform="translate(88.275 128.792051) scale(0.1 -0.1)">
       <use xlink:href="#DejaVuSans-31"/>
       <use xlink:href="#DejaVuSans-30" transform="translate(63.623047 0)"/>
      </g>
     </g>
    </g>
    <g id="ytick_5">
     <g id="line2d_23">
      <path d="M 108 55.073757 
L 777.6 55.073757 
" clip-path="url(#pc920fc352d)" style="fill: none; stroke-dasharray: 2.96,1.28; stroke-dashoffset: 0; stroke: #b0b0b0; stroke-opacity: 0.5; stroke-width: 0.8"/>
     </g>
     <g id="line2d_24">
      <g>
       <use xlink:href="#m2318048a89" x="108" y="55.073757" style="stroke: #000000; stroke-width: 0.8"/>
      </g>
     </g>
     <g id="text_12">
      <!-- 12 -->
      <g transform="translate(88.275 58.872976) scale(0.1 -0.1)">
       <use xlink:href="#DejaVuSans-31"/>
       <use xlink:href="#DejaVuSans-32" transform="translate(63.623047 0)"/>
      </g>
     </g>
    </g>
   </g>
   <g id="line2d_25">
    <path d="M 138.436364 317.96948 
L 142.146656 317.270289 
L 145.737261 317.270289 
L 149.447553 319.018266 
L 153.038158 316.920694 
L 156.74845 319.018266 
L 160.458742 322.164624 
L 167.75964 320.766243 
L 171.350245 319.717457 
L 175.060537 316.571098 
L 178.770829 316.920694 
L 182.241747 317.619884 
L 185.952039 317.270289 
L 189.542645 317.270289 
L 193.252937 316.920694 
L 196.843542 317.96948 
L 204.264126 317.270289 
L 207.854731 317.270289 
L 211.565023 316.221503 
L 215.155629 317.270289 
L 218.865921 316.920694 
L 222.576213 317.619884 
L 225.927444 317.270289 
L 229.637736 334.400462 
L 233.228342 333.701272 
L 240.529239 334.400462 
L 247.949823 334.400462 
L 255.25072 350.831445 
L 258.841326 350.831445 
L 262.551618 349.433064 
L 266.26191 351.880231 
L 269.613141 351.530636 
L 273.323433 351.880231 
L 276.914039 351.18104 
L 280.624331 351.18104 
L 284.214936 368.311214 
L 287.925228 368.660809 
L 291.63552 368.311214 
L 295.226125 369.36 
L 298.936417 367.961618 
L 302.527022 368.660809 
L 306.237315 364.116069 
L 309.947607 368.311214 
L 313.298838 367.612023 
L 317.00913 364.81526 
L 320.599735 369.36 
L 324.310028 368.660809 
L 327.900633 366.213642 
L 331.610925 366.912832 
L 335.321217 366.213642 
L 338.911822 367.961618 
L 342.622114 367.262428 
L 346.212719 367.262428 
L 349.923011 359.221734 
L 353.633304 359.571329 
L 357.104222 340.693179 
L 360.814514 343.140347 
L 364.405119 339.993988 
L 368.115411 340.693179 
L 371.706017 325.310983 
L 375.416309 322.863815 
L 379.126601 323.912601 
L 382.717206 307.132023 
L 386.427498 307.132023 
L 393.728395 273.570867 
L 397.438687 272.172486 
L 400.789919 253.643931 
L 404.500211 241.408092 
L 408.090816 239.660116 
L 411.801108 235.464971 
L 415.391713 226.375491 
L 419.102006 226.025896 
L 422.812298 227.074682 
L 426.402903 227.074682 
L 430.113195 228.473064 
L 433.7038 226.025896 
L 437.414092 218.684393 
L 441.124384 217.635607 
L 444.475616 207.846936 
L 448.185908 210.643699 
L 451.776513 208.895723 
L 455.486805 208.895723 
L 459.07741 202.952601 
L 462.787702 200.855029 
L 466.497994 202.25341 
L 470.0886 200.505434 
L 473.798892 199.456647 
L 477.389497 192.814335 
L 481.099789 184.424046 
L 488.161313 185.822428 
L 491.871605 185.123237 
L 495.46221 184.773642 
L 499.172502 183.724855 
L 502.763107 185.822428 
L 506.473399 184.424046 
L 510.183691 187.92 
L 513.774297 200.855029 
L 517.484589 202.25341 
L 521.075194 209.245318 
L 524.785486 219.383584 
L 528.495778 220.781965 
L 531.966696 228.123468 
L 535.676989 244.904046 
L 539.267594 264.481387 
L 542.977886 278.814798 
L 546.568491 297.692948 
L 550.278783 299.091329 
L 553.989075 316.920694 
L 557.57968 326.359769 
L 561.289972 325.660578 
L 564.880578 322.51422 
L 568.59087 324.262197 
L 572.301162 325.310983 
L 575.652393 333.002081 
L 579.362685 332.652486 
L 582.953291 333.351676 
L 586.663583 333.002081 
L 590.254188 326.709364 
L 593.96448 324.611792 
L 597.674772 316.221503 
L 601.265377 298.042543 
L 604.975669 303.985665 
L 608.566275 300.489711 
L 612.276567 283.009942 
L 615.986859 280.91237 
L 619.33809 263.782197 
L 623.048382 244.204855 
L 626.638988 245.603237 
L 630.34928 227.424277 
L 633.939885 203.302197 
L 637.650177 202.25341 
L 641.360469 174.28578 
L 644.951074 149.814104 
L 648.661366 150.86289 
L 652.251972 123.244855 
L 655.962264 106.114682 
L 659.672556 106.114682 
L 663.023787 87.935723 
L 666.734079 79.545434 
L 670.324685 77.098266 
L 674.034977 80.244624 
L 677.625582 80.59422 
L 681.335874 80.59422 
L 685.046166 79.195838 
L 688.636771 80.59422 
L 692.347063 80.244624 
L 695.937668 80.59422 
L 699.647961 79.545434 
L 703.358253 81.29341 
L 706.829171 81.643006 
L 710.539463 87.586127 
L 714.130068 89.334104 
L 717.84036 89.683699 
L 721.430966 87.236532 
L 725.141258 90.033295 
L 728.85155 97.724393 
L 732.442155 105.765087 
L 736.152447 106.114682 
L 739.743052 112.756994 
L 743.453344 123.244855 
L 747.163636 124.293642 
L 747.163636 124.293642 
" clip-path="url(#pc920fc352d)" style="fill: none; stroke: #a6cee3; stroke-width: 1.5; stroke-linecap: square"/>
   </g>
   <g id="line2d_26">
    <path d="M 138.436364 304.859653 
L 142.146656 305.625267 
L 145.737261 305.384046 
L 149.447553 304.247861 
L 153.038158 305.034451 
L 156.74845 306.60763 
L 160.458742 307.044624 
L 164.049348 307.331292 
L 167.75964 306.719501 
L 171.350245 306.869827 
L 175.060537 306.660069 
L 178.770829 307.069096 
L 182.241747 307.306821 
L 189.542645 308.355607 
L 193.252937 308.530405 
L 196.843542 307.831214 
L 204.264126 307.090072 
L 207.854731 306.520231 
L 211.565023 305.698682 
L 215.155629 305.167297 
L 218.865921 305.12185 
L 222.576213 305.384046 
L 225.927444 306.957225 
L 229.637736 322.472268 
L 233.228342 323.433655 
L 236.938634 323.919593 
L 244.239531 323.563006 
L 247.949823 324.108375 
L 251.540428 333.82363 
L 255.25072 342.255871 
L 258.841326 341.881803 
L 262.551618 341.916763 
L 266.26191 342.773272 
L 273.323433 341.217572 
L 276.914039 342.074081 
L 280.624331 342.493595 
L 284.214936 358.959538 
L 287.925228 358.872139 
L 291.63552 359.711168 
L 295.226125 359.945397 
L 298.936417 359.920925 
L 302.527022 359.344092 
L 306.237315 358.505064 
L 309.947607 359.396532 
L 313.298838 359.267182 
L 317.00913 359.256694 
L 320.599735 359.004985 
L 324.310028 359.221734 
L 327.900633 358.872139 
L 331.610925 358.732301 
L 335.321217 357.99815 
L 338.911822 358.435145 
L 342.622114 359.134335 
L 346.212719 358.816203 
L 349.923011 350.307052 
L 353.633304 350.237133 
L 357.104222 332.673461 
L 360.814514 332.477688 
L 364.405119 332.460208 
L 368.115411 331.254104 
L 371.706017 330.771662 
L 375.416309 314.298728 
L 379.126601 313.949133 
L 382.717206 297.255954 
L 386.427498 295.993914 
L 390.018103 279.741225 
L 393.728395 260.985434 
L 397.438687 259.237457 
L 400.789919 243.652495 
L 404.500211 235.639769 
L 408.090816 233.594636 
L 411.801108 224.627514 
L 415.391713 217.111214 
L 419.102006 216.67422 
L 422.812298 216.65674 
L 426.402903 216.849017 
L 430.113195 216.761618 
L 433.7038 216.19877 
L 437.414092 207.808481 
L 441.124384 206.79815 
L 444.475616 200.876005 
L 448.185908 200.14535 
L 451.776513 200.127871 
L 455.486805 199.98104 
L 459.07741 191.40197 
L 462.787702 191.415954 
L 470.0886 190.716763 
L 473.798892 189.056185 
L 477.389497 183.277373 
L 481.099789 174.296268 
L 484.810081 174.110983 
L 488.161313 176.208555 
L 491.871605 176.907746 
L 495.46221 177.432139 
L 499.172502 177.159454 
L 502.763107 177.827182 
L 506.473399 178.868976 
L 510.183691 185.822428 
L 513.774297 193.95052 
L 517.484589 196.22289 
L 521.075194 202.589022 
L 524.785486 210.468902 
L 528.495778 212.562978 
L 531.966696 219.64578 
L 535.676989 240.009711 
L 539.267594 256.178497 
L 542.977886 273.937942 
L 546.568491 289.851524 
L 550.278783 293.060809 
L 553.989075 307.911621 
L 557.57968 315.574751 
L 561.289972 316.833295 
L 564.880578 317.717771 
L 568.59087 317.952 
L 572.301162 319.018266 
L 575.652393 324.919436 
L 579.362685 324.699191 
L 586.663583 324.856509 
L 590.254188 316.256462 
L 593.96448 316.798335 
L 597.674772 308.565364 
L 601.265377 308.477965 
L 604.975669 299.877919 
L 608.566275 291.837225 
L 612.276567 274.794451 
L 615.986859 274.042821 
L 619.33809 256.55606 
L 623.048382 239.572717 
L 626.638988 238.523931 
L 630.34928 222.005549 
L 633.939885 193.852634 
L 637.650177 192.115145 
L 644.951074 141.249017 
L 648.661366 139.116486 
L 652.251972 114.732208 
L 655.962264 98.073988 
L 659.672556 96.588208 
L 663.023787 80.454382 
L 666.734079 71.854335 
L 670.324685 70.809045 
L 674.034977 72.672388 
L 677.625582 72.623445 
L 681.335874 72.27385 
L 685.046166 72.308809 
L 688.636771 72.455639 
L 699.647961 72.466127 
L 703.358253 72.511575 
L 706.829171 72.773771 
L 710.539463 81.34585 
L 714.130068 81.643006 
L 717.84036 81.415769 
L 725.141258 81.468208 
L 728.85155 90.113702 
L 732.442155 99.122775 
L 736.152447 100.248472 
L 739.743052 108.387052 
L 743.453344 116.427746 
L 747.163636 115.288065 
L 747.163636 115.288065 
" clip-path="url(#pc920fc352d)" style="fill: none; stroke: #1f78b4; stroke-width: 1.5; stroke-linecap: square"/>
   </g>
   <g id="line2d_27">
    <path d="M 138.436364 303.985665 
L 142.146656 304.614936 
L 145.737261 304.160462 
L 149.447553 302.762081 
L 153.038158 303.985665 
L 156.74845 305.384046 
L 164.049348 306.432832 
L 167.75964 306.345434 
L 171.350245 306.695029 
L 175.060537 306.247547 
L 178.770829 306.813891 
L 182.241747 306.782428 
L 185.952039 307.306821 
L 189.542645 307.656416 
L 193.252937 307.743815 
L 196.843542 306.810395 
L 200.553834 306.869827 
L 207.854731 306.083237 
L 211.565023 304.667376 
L 218.865921 304.33526 
L 225.927444 306.957225 
L 229.637736 322.559667 
L 236.938634 323.926585 
L 240.529239 323.283329 
L 247.949823 324.003496 
L 251.540428 333.876069 
L 255.25072 342.42018 
L 258.841326 341.916763 
L 262.551618 341.584647 
L 266.26191 342.144 
L 273.323433 341.39237 
L 276.914039 341.39237 
L 280.624331 341.927251 
L 284.214936 358.609942 
L 287.925228 358.470104 
L 291.63552 359.571329 
L 295.226125 359.473443 
L 298.936417 359.571329 
L 306.237315 358.365225 
L 309.947607 359.116855 
L 313.298838 358.959538 
L 317.00913 358.305794 
L 320.599735 358.80222 
L 324.310028 358.872139 
L 331.610925 358.172948 
L 335.321217 357.211561 
L 338.911822 358.005142 
L 342.622114 358.347746 
L 346.212719 355.603422 
L 349.923011 349.132412 
L 353.633304 349.069484 
L 357.104222 331.449877 
L 360.814514 330.729711 
L 364.405119 330.698247 
L 368.115411 327.670751 
L 371.706017 326.639445 
L 375.416309 310.802775 
L 379.126601 311.239769 
L 382.717206 294.54659 
L 386.427498 292.889508 
L 390.018103 269.288324 
L 393.728395 258.101272 
L 397.438687 252.172134 
L 400.789919 240.513128 
L 404.500211 232.143815 
L 408.090816 231.598446 
L 411.801108 221.393757 
L 415.391713 215.996005 
L 419.102006 216.370072 
L 422.812298 216.324624 
L 426.402903 216.628772 
L 430.113195 215.538035 
L 433.7038 214.052254 
L 437.414092 206.623353 
L 441.124384 204.001387 
L 444.475616 199.624453 
L 448.185908 199.369249 
L 451.776513 199.519575 
L 455.486805 197.00948 
L 459.07741 189.965133 
L 462.787702 189.40578 
L 466.497994 189.69944 
L 470.0886 188.881387 
L 473.798892 185.298035 
L 477.389497 179.354913 
L 481.099789 172.625202 
L 484.810081 173.936185 
L 488.161313 175.95335 
L 491.871605 177.781734 
L 495.46221 177.34474 
L 499.172502 176.645549 
L 502.763107 178.306127 
L 506.473399 180.578497 
L 510.183691 187.483006 
L 513.774297 197.359075 
L 517.484589 202.725364 
L 521.075194 208.161572 
L 524.785486 214.279491 
L 528.495778 215.975029 
L 531.966696 222.561406 
L 535.676989 244.337702 
L 542.977886 274.951769 
L 546.568491 291.295353 
L 550.278783 293.805447 
L 553.989075 308.261216 
L 557.57968 315.434913 
L 561.289972 317.130451 
L 564.880578 318.056879 
L 568.59087 318.70363 
L 572.301162 320.504046 
L 575.652393 326.055621 
L 579.362685 326.045133 
L 582.953291 325.489276 
L 586.663583 325.643098 
L 590.254188 314.298728 
L 593.96448 314.525965 
L 597.674772 306.695029 
L 601.265377 306.118197 
L 604.975669 294.896185 
L 608.566275 285.806705 
L 612.276567 269.900116 
L 615.986859 268.938728 
L 619.33809 250.445133 
L 623.048382 232.668208 
L 626.638988 224.998086 
L 630.34928 211.168092 
L 633.939885 184.686243 
L 637.650177 178.655723 
L 641.360469 158.099514 
L 644.951074 132.771329 
L 648.661366 121.811514 
L 652.251972 102.933364 
L 655.962264 91.344277 
L 659.672556 90.138173 
L 663.023787 75.26289 
L 666.734079 67.886428 
L 670.324685 67.575288 
L 674.034977 72.203931 
L 685.046166 72.389216 
L 692.347063 72.186451 
L 695.937668 72.424176 
L 699.647961 73.427514 
L 703.358253 66.96 
L 706.829171 67.320083 
L 710.539463 74.151177 
L 714.130068 75.948097 
L 717.84036 76.664768 
L 721.430966 75.588014 
L 725.141258 75.948097 
L 728.85155 84.209036 
L 732.442155 92.826562 
L 736.152447 92.826562 
L 739.743052 98.210331 
L 743.453344 107.177452 
L 747.163636 112.197642 
L 747.163636 112.197642 
" clip-path="url(#pc920fc352d)" style="fill: none; stroke: #b2df8a; stroke-width: 1.5; stroke-linecap: square"/>
   </g>
   <g id="patch_3">
    <path d="M 108 384.48 
L 108 51.84 
" style="fill: none; stroke: #000000; stroke-width: 0.8; stroke-linejoin: miter; stroke-linecap: square"/>
   </g>
   <g id="patch_4">
    <path d="M 777.6 384.48 
L 777.6 51.84 
" style="fill: none; stroke: #000000; stroke-width: 0.8; stroke-linejoin: miter; stroke-linecap: square"/>
   </g>
   <g id="patch_5">
    <path d="M 108 384.48 
L 777.6 384.48 
" style="fill: none; stroke: #000000; stroke-width: 0.8; stroke-linejoin: miter; stroke-linecap: square"/>
   </g>
   <g id="patch_6">
    <path d="M 108 51.84 
L 777.6 51.84 
" style="fill: none; stroke: #000000; stroke-width: 0.8; stroke-linejoin: miter; stroke-linecap: square"/>
   </g>
   <g id="text_13">
    <!-- Tasa de Interés Interbancaria -->
    <g transform="translate(326.896406 45.84) scale(0.14 -0.14)">
     <defs>
      <path id="DejaVuSans-Bold-54" d="M 31 4666 
L 4331 4666 
L 4331 3756 
L 2784 3756 
L 2784 0 
L 1581 0 
L 1581 3756 
L 31 3756 
L 31 4666 
z
" transform="scale(0.015625)"/>
      <path id="DejaVuSans-Bold-61" d="M 2106 1575 
Q 1756 1575 1579 1456 
Q 1403 1338 1403 1106 
Q 1403 894 1545 773 
Q 1688 653 1941 653 
Q 2256 653 2472 879 
Q 2688 1106 2688 1447 
L 2688 1575 
L 2106 1575 
z
M 3816 1997 
L 3816 0 
L 2688 0 
L 2688 519 
Q 2463 200 2181 54 
Q 1900 -91 1497 -91 
Q 953 -91 614 226 
Q 275 544 275 1050 
Q 275 1666 698 1953 
Q 1122 2241 2028 2241 
L 2688 2241 
L 2688 2328 
Q 2688 2594 2478 2717 
Q 2269 2841 1825 2841 
Q 1466 2841 1156 2769 
Q 847 2697 581 2553 
L 581 3406 
Q 941 3494 1303 3539 
Q 1666 3584 2028 3584 
Q 2975 3584 3395 3211 
Q 3816 2838 3816 1997 
z
" transform="scale(0.015625)"/>
      <path id="DejaVuSans-Bold-73" d="M 3272 3391 
L 3272 2541 
Q 2913 2691 2578 2766 
Q 2244 2841 1947 2841 
Q 1628 2841 1473 2761 
Q 1319 2681 1319 2516 
Q 1319 2381 1436 2309 
Q 1553 2238 1856 2203 
L 2053 2175 
Q 2913 2066 3209 1816 
Q 3506 1566 3506 1031 
Q 3506 472 3093 190 
Q 2681 -91 1863 -91 
Q 1516 -91 1145 -36 
Q 775 19 384 128 
L 384 978 
Q 719 816 1070 734 
Q 1422 653 1784 653 
Q 2113 653 2278 743 
Q 2444 834 2444 1013 
Q 2444 1163 2330 1236 
Q 2216 1309 1875 1350 
L 1678 1375 
Q 931 1469 631 1722 
Q 331 1975 331 2491 
Q 331 3047 712 3315 
Q 1094 3584 1881 3584 
Q 2191 3584 2531 3537 
Q 2872 3491 3272 3391 
z
" transform="scale(0.015625)"/>
      <path id="DejaVuSans-Bold-20" transform="scale(0.015625)"/>
      <path id="DejaVuSans-Bold-64" d="M 2919 2988 
L 2919 4863 
L 4044 4863 
L 4044 0 
L 2919 0 
L 2919 506 
Q 2688 197 2409 53 
Q 2131 -91 1766 -91 
Q 1119 -91 703 423 
Q 288 938 288 1747 
Q 288 2556 703 3070 
Q 1119 3584 1766 3584 
Q 2128 3584 2408 3439 
Q 2688 3294 2919 2988 
z
M 2181 722 
Q 2541 722 2730 984 
Q 2919 1247 2919 1747 
Q 2919 2247 2730 2509 
Q 2541 2772 2181 2772 
Q 1825 2772 1636 2509 
Q 1447 2247 1447 1747 
Q 1447 1247 1636 984 
Q 1825 722 2181 722 
z
" transform="scale(0.015625)"/>
      <path id="DejaVuSans-Bold-65" d="M 4031 1759 
L 4031 1441 
L 1416 1441 
Q 1456 1047 1700 850 
Q 1944 653 2381 653 
Q 2734 653 3104 758 
Q 3475 863 3866 1075 
L 3866 213 
Q 3469 63 3072 -14 
Q 2675 -91 2278 -91 
Q 1328 -91 801 392 
Q 275 875 275 1747 
Q 275 2603 792 3093 
Q 1309 3584 2216 3584 
Q 3041 3584 3536 3087 
Q 4031 2591 4031 1759 
z
M 2881 2131 
Q 2881 2450 2695 2645 
Q 2509 2841 2209 2841 
Q 1884 2841 1681 2658 
Q 1478 2475 1428 2131 
L 2881 2131 
z
" transform="scale(0.015625)"/>
      <path id="DejaVuSans-Bold-49" d="M 588 4666 
L 1791 4666 
L 1791 0 
L 588 0 
L 588 4666 
z
" transform="scale(0.015625)"/>
      <path id="DejaVuSans-Bold-6e" d="M 4056 2131 
L 4056 0 
L 2931 0 
L 2931 347 
L 2931 1631 
Q 2931 2084 2911 2256 
Q 2891 2428 2841 2509 
Q 2775 2619 2662 2680 
Q 2550 2741 2406 2741 
Q 2056 2741 1856 2470 
Q 1656 2200 1656 1722 
L 1656 0 
L 538 0 
L 538 3500 
L 1656 3500 
L 1656 2988 
Q 1909 3294 2193 3439 
Q 2478 3584 2822 3584 
Q 3428 3584 3742 3212 
Q 4056 2841 4056 2131 
z
" transform="scale(0.015625)"/>
      <path id="DejaVuSans-Bold-74" d="M 1759 4494 
L 1759 3500 
L 2913 3500 
L 2913 2700 
L 1759 2700 
L 1759 1216 
Q 1759 972 1856 886 
Q 1953 800 2241 800 
L 2816 800 
L 2816 0 
L 1856 0 
Q 1194 0 917 276 
Q 641 553 641 1216 
L 641 2700 
L 84 2700 
L 84 3500 
L 641 3500 
L 641 4494 
L 1759 4494 
z
" transform="scale(0.015625)"/>
      <path id="DejaVuSans-Bold-72" d="M 3138 2547 
Q 2991 2616 2845 2648 
Q 2700 2681 2553 2681 
Q 2122 2681 1889 2404 
Q 1656 2128 1656 1613 
L 1656 0 
L 538 0 
L 538 3500 
L 1656 3500 
L 1656 2925 
Q 1872 3269 2151 3426 
Q 2431 3584 2822 3584 
Q 2878 3584 2943 3579 
Q 3009 3575 3134 3559 
L 3138 2547 
z
" transform="scale(0.015625)"/>
      <path id="DejaVuSans-Bold-e9" d="M 4031 1759 
L 4031 1441 
L 1416 1441 
Q 1456 1047 1700 850 
Q 1944 653 2381 653 
Q 2734 653 3104 758 
Q 3475 863 3866 1075 
L 3866 213 
Q 3469 63 3072 -14 
Q 2675 -91 2278 -91 
Q 1328 -91 801 392 
Q 275 875 275 1747 
Q 275 2603 792 3093 
Q 1309 3584 2216 3584 
Q 3041 3584 3536 3087 
Q 4031 2591 4031 1759 
z
M 2881 2131 
Q 2881 2450 2695 2645 
Q 2509 2841 2209 2841 
Q 1884 2841 1681 2658 
Q 1478 2475 1428 2131 
L 2881 2131 
z
M 2700 5119 
L 3584 5119 
L 2431 3944 
L 1819 3944 
L 2700 5119 
z
" transform="scale(0.015625)"/>
      <path id="DejaVuSans-Bold-62" d="M 2400 722 
Q 2759 722 2948 984 
Q 3138 1247 3138 1747 
Q 3138 2247 2948 2509 
Q 2759 2772 2400 2772 
Q 2041 2772 1848 2508 
Q 1656 2244 1656 1747 
Q 1656 1250 1848 986 
Q 2041 722 2400 722 
z
M 1656 2988 
Q 1888 3294 2169 3439 
Q 2450 3584 2816 3584 
Q 3463 3584 3878 3070 
Q 4294 2556 4294 1747 
Q 4294 938 3878 423 
Q 3463 -91 2816 -91 
Q 2450 -91 2169 54 
Q 1888 200 1656 506 
L 1656 0 
L 538 0 
L 538 4863 
L 1656 4863 
L 1656 2988 
z
" transform="scale(0.015625)"/>
      <path id="DejaVuSans-Bold-63" d="M 3366 3391 
L 3366 2478 
Q 3138 2634 2908 2709 
Q 2678 2784 2431 2784 
Q 1963 2784 1702 2511 
Q 1441 2238 1441 1747 
Q 1441 1256 1702 982 
Q 1963 709 2431 709 
Q 2694 709 2930 787 
Q 3166 866 3366 1019 
L 3366 103 
Q 3103 6 2833 -42 
Q 2563 -91 2291 -91 
Q 1344 -91 809 395 
Q 275 881 275 1747 
Q 275 2613 809 3098 
Q 1344 3584 2291 3584 
Q 2566 3584 2833 3536 
Q 3100 3488 3366 3391 
z
" transform="scale(0.015625)"/>
      <path id="DejaVuSans-Bold-69" d="M 538 3500 
L 1656 3500 
L 1656 0 
L 538 0 
L 538 3500 
z
M 538 4863 
L 1656 4863 
L 1656 3950 
L 538 3950 
L 538 4863 
z
" transform="scale(0.015625)"/>
     </defs>
     <use xlink:href="#DejaVuSans-Bold-54"/>
     <use xlink:href="#DejaVuSans-Bold-61" transform="translate(55.337891 0)"/>
     <use xlink:href="#DejaVuSans-Bold-73" transform="translate(122.818359 0)"/>
     <use xlink:href="#DejaVuSans-Bold-61" transform="translate(182.339844 0)"/>
     <use xlink:href="#DejaVuSans-Bold-20" transform="translate(249.820312 0)"/>
     <use xlink:href="#DejaVuSans-Bold-64" transform="translate(284.634766 0)"/>
     <use xlink:href="#DejaVuSans-Bold-65" transform="translate(356.216797 0)"/>
     <use xlink:href="#DejaVuSans-Bold-20" transform="translate(424.039062 0)"/>
     <use xlink:href="#DejaVuSans-Bold-49" transform="translate(458.853516 0)"/>
     <use xlink:href="#DejaVuSans-Bold-6e" transform="translate(496.060547 0)"/>
     <use xlink:href="#DejaVuSans-Bold-74" transform="translate(567.251953 0)"/>
     <use xlink:href="#DejaVuSans-Bold-65" transform="translate(615.054688 0)"/>
     <use xlink:href="#DejaVuSans-Bold-72" transform="translate(682.876953 0)"/>
     <use xlink:href="#DejaVuSans-Bold-e9" transform="translate(732.193359 0)"/>
     <use xlink:href="#DejaVuSans-Bold-73" transform="translate(800.015625 0)"/>
     <use xlink:href="#DejaVuSans-Bold-20" transform="translate(859.537109 0)"/>
     <use xlink:href="#DejaVuSans-Bold-49" transform="translate(894.351562 0)"/>
     <use xlink:href="#DejaVuSans-Bold-6e" transform="translate(931.558594 0)"/>
     <use xlink:href="#DejaVuSans-Bold-74" transform="translate(1002.75 0)"/>
     <use xlink:href="#DejaVuSans-Bold-65" transform="translate(1050.552734 0)"/>
     <use xlink:href="#DejaVuSans-Bold-72" transform="translate(1118.375 0)"/>
     <use xlink:href="#DejaVuSans-Bold-62" transform="translate(1167.691406 0)"/>
     <use xlink:href="#DejaVuSans-Bold-61" transform="translate(1239.273438 0)"/>
     <use xlink:href="#DejaVuSans-Bold-6e" transform="translate(1306.753906 0)"/>
     <use xlink:href="#DejaVuSans-Bold-63" transform="translate(1377.945312 0)"/>
     <use xlink:href="#DejaVuSans-Bold-61" transform="translate(1437.222656 0)"/>
     <use xlink:href="#DejaVuSans-Bold-72" transform="translate(1504.703125 0)"/>
     <use xlink:href="#DejaVuSans-Bold-69" transform="translate(1554.019531 0)"/>
     <use xlink:href="#DejaVuSans-Bold-61" transform="translate(1588.296875 0)"/>
    </g>
   </g>
   <g id="legend_1">
    <g id="patch_7">
     <path d="M 113.6 94.1075 
L 433.4575 94.1075 
Q 435.0575 94.1075 435.0575 92.5075 
L 435.0575 57.44 
Q 435.0575 55.84 433.4575 55.84 
L 113.6 55.84 
Q 112 55.84 112 57.44 
L 112 92.5075 
Q 112 94.1075 113.6 94.1075 
z
" style="fill: #ffffff; opacity: 0.8; stroke: #cccccc; stroke-linejoin: miter"/>
    </g>
    <g id="line2d_28">
     <path d="M 115.2 62.63875 
L 123.2 62.63875 
L 131.2 62.63875 
" style="fill: none; stroke: #a6cee3; stroke-width: 1.5; stroke-linecap: square"/>
    </g>
    <g id="text_14">
     <!-- TIIE de Fondeo a Un Día Hábil Bancario, Mediana ponderada por volumen -->
     <g transform="translate(137.6 65.43875) scale(0.08 -0.08)">
      <defs>
       <path id="DejaVuSans-54" d="M -19 4666 
L 3928 4666 
L 3928 4134 
L 2272 4134 
L 2272 0 
L 1638 0 
L 1638 4134 
L -19 4134 
L -19 4666 
z
" transform="scale(0.015625)"/>
       <path id="DejaVuSans-49" d="M 628 4666 
L 1259 4666 
L 1259 0 
L 628 0 
L 628 4666 
z
" transform="scale(0.015625)"/>
       <path id="DejaVuSans-45" d="M 628 4666 
L 3578 4666 
L 3578 4134 
L 1259 4134 
L 1259 2753 
L 3481 2753 
L 3481 2222 
L 1259 2222 
L 1259 531 
L 3634 531 
L 3634 0 
L 628 0 
L 628 4666 
z
" transform="scale(0.015625)"/>
       <path id="DejaVuSans-20" transform="scale(0.015625)"/>
       <path id="DejaVuSans-64" d="M 2906 2969 
L 2906 4863 
L 3481 4863 
L 3481 0 
L 2906 0 
L 2906 525 
Q 2725 213 2448 61 
Q 2172 -91 1784 -91 
Q 1150 -91 751 415 
Q 353 922 353 1747 
Q 353 2572 751 3078 
Q 1150 3584 1784 3584 
Q 2172 3584 2448 3432 
Q 2725 3281 2906 2969 
z
M 947 1747 
Q 947 1113 1208 752 
Q 1469 391 1925 391 
Q 2381 391 2643 752 
Q 2906 1113 2906 1747 
Q 2906 2381 2643 2742 
Q 2381 3103 1925 3103 
Q 1469 3103 1208 2742 
Q 947 2381 947 1747 
z
" transform="scale(0.015625)"/>
       <path id="DejaVuSans-65" d="M 3597 1894 
L 3597 1613 
L 953 1613 
Q 991 1019 1311 708 
Q 1631 397 2203 397 
Q 2534 397 2845 478 
Q 3156 559 3463 722 
L 3463 178 
Q 3153 47 2828 -22 
Q 2503 -91 2169 -91 
Q 1331 -91 842 396 
Q 353 884 353 1716 
Q 353 2575 817 3079 
Q 1281 3584 2069 3584 
Q 2775 3584 3186 3129 
Q 3597 2675 3597 1894 
z
M 3022 2063 
Q 3016 2534 2758 2815 
Q 2500 3097 2075 3097 
Q 1594 3097 1305 2825 
Q 1016 2553 972 2059 
L 3022 2063 
z
" transform="scale(0.015625)"/>
       <path id="DejaVuSans-46" d="M 628 4666 
L 3309 4666 
L 3309 4134 
L 1259 4134 
L 1259 2759 
L 3109 2759 
L 3109 2228 
L 1259 2228 
L 1259 0 
L 628 0 
L 628 4666 
z
" transform="scale(0.015625)"/>
       <path id="DejaVuSans-6f" d="M 1959 3097 
Q 1497 3097 1228 2736 
Q 959 2375 959 1747 
Q 959 1119 1226 758 
Q 1494 397 1959 397 
Q 2419 397 2687 759 
Q 2956 1122 2956 1747 
Q 2956 2369 2687 2733 
Q 2419 3097 1959 3097 
z
M 1959 3584 
Q 2709 3584 3137 3096 
Q 3566 2609 3566 1747 
Q 3566 888 3137 398 
Q 2709 -91 1959 -91 
Q 1206 -91 779 398 
Q 353 888 353 1747 
Q 353 2609 779 3096 
Q 1206 3584 1959 3584 
z
" transform="scale(0.015625)"/>
       <path id="DejaVuSans-6e" d="M 3513 2113 
L 3513 0 
L 2938 0 
L 2938 2094 
Q 2938 2591 2744 2837 
Q 2550 3084 2163 3084 
Q 1697 3084 1428 2787 
Q 1159 2491 1159 1978 
L 1159 0 
L 581 0 
L 581 3500 
L 1159 3500 
L 1159 2956 
Q 1366 3272 1645 3428 
Q 1925 3584 2291 3584 
Q 2894 3584 3203 3211 
Q 3513 2838 3513 2113 
z
" transform="scale(0.015625)"/>
       <path id="DejaVuSans-61" d="M 2194 1759 
Q 1497 1759 1228 1600 
Q 959 1441 959 1056 
Q 959 750 1161 570 
Q 1363 391 1709 391 
Q 2188 391 2477 730 
Q 2766 1069 2766 1631 
L 2766 1759 
L 2194 1759 
z
M 3341 1997 
L 3341 0 
L 2766 0 
L 2766 531 
Q 2569 213 2275 61 
Q 1981 -91 1556 -91 
Q 1019 -91 701 211 
Q 384 513 384 1019 
Q 384 1609 779 1909 
Q 1175 2209 1959 2209 
L 2766 2209 
L 2766 2266 
Q 2766 2663 2505 2880 
Q 2244 3097 1772 3097 
Q 1472 3097 1187 3025 
Q 903 2953 641 2809 
L 641 3341 
Q 956 3463 1253 3523 
Q 1550 3584 1831 3584 
Q 2591 3584 2966 3190 
Q 3341 2797 3341 1997 
z
" transform="scale(0.015625)"/>
       <path id="DejaVuSans-55" d="M 556 4666 
L 1191 4666 
L 1191 1831 
Q 1191 1081 1462 751 
Q 1734 422 2344 422 
Q 2950 422 3222 751 
Q 3494 1081 3494 1831 
L 3494 4666 
L 4128 4666 
L 4128 1753 
Q 4128 841 3676 375 
Q 3225 -91 2344 -91 
Q 1459 -91 1007 375 
Q 556 841 556 1753 
L 556 4666 
z
" transform="scale(0.015625)"/>
       <path id="DejaVuSans-44" d="M 1259 4147 
L 1259 519 
L 2022 519 
Q 2988 519 3436 956 
Q 3884 1394 3884 2338 
Q 3884 3275 3436 3711 
Q 2988 4147 2022 4147 
L 1259 4147 
z
M 628 4666 
L 1925 4666 
Q 3281 4666 3915 4102 
Q 4550 3538 4550 2338 
Q 4550 1131 3912 565 
Q 3275 0 1925 0 
L 628 0 
L 628 4666 
z
" transform="scale(0.015625)"/>
       <path id="DejaVuSans-ed" d="M 1325 5119 
L 1947 5119 
L 928 3944 
L 450 3944 
L 1325 5119 
z
M 603 3500 
L 1178 3500 
L 1178 0 
L 603 0 
L 603 3500 
z
M 891 3584 
L 891 3584 
z
" transform="scale(0.015625)"/>
       <path id="DejaVuSans-48" d="M 628 4666 
L 1259 4666 
L 1259 2753 
L 3553 2753 
L 3553 4666 
L 4184 4666 
L 4184 0 
L 3553 0 
L 3553 2222 
L 1259 2222 
L 1259 0 
L 628 0 
L 628 4666 
z
" transform="scale(0.015625)"/>
       <path id="DejaVuSans-e1" d="M 2194 1759 
Q 1497 1759 1228 1600 
Q 959 1441 959 1056 
Q 959 750 1161 570 
Q 1363 391 1709 391 
Q 2188 391 2477 730 
Q 2766 1069 2766 1631 
L 2766 1759 
L 2194 1759 
z
M 3341 1997 
L 3341 0 
L 2766 0 
L 2766 531 
Q 2569 213 2275 61 
Q 1981 -91 1556 -91 
Q 1019 -91 701 211 
Q 384 513 384 1019 
Q 384 1609 779 1909 
Q 1175 2209 1959 2209 
L 2766 2209 
L 2766 2266 
Q 2766 2663 2505 2880 
Q 2244 3097 1772 3097 
Q 1472 3097 1187 3025 
Q 903 2953 641 2809 
L 641 3341 
Q 956 3463 1253 3523 
Q 1550 3584 1831 3584 
Q 2591 3584 2966 3190 
Q 3341 2797 3341 1997 
z
M 2291 5119 
L 2913 5119 
L 1894 3944 
L 1416 3944 
L 2291 5119 
z
" transform="scale(0.015625)"/>
       <path id="DejaVuSans-62" d="M 3116 1747 
Q 3116 2381 2855 2742 
Q 2594 3103 2138 3103 
Q 1681 3103 1420 2742 
Q 1159 2381 1159 1747 
Q 1159 1113 1420 752 
Q 1681 391 2138 391 
Q 2594 391 2855 752 
Q 3116 1113 3116 1747 
z
M 1159 2969 
Q 1341 3281 1617 3432 
Q 1894 3584 2278 3584 
Q 2916 3584 3314 3078 
Q 3713 2572 3713 1747 
Q 3713 922 3314 415 
Q 2916 -91 2278 -91 
Q 1894 -91 1617 61 
Q 1341 213 1159 525 
L 1159 0 
L 581 0 
L 581 4863 
L 1159 4863 
L 1159 2969 
z
" transform="scale(0.015625)"/>
       <path id="DejaVuSans-69" d="M 603 3500 
L 1178 3500 
L 1178 0 
L 603 0 
L 603 3500 
z
M 603 4863 
L 1178 4863 
L 1178 4134 
L 603 4134 
L 603 4863 
z
" transform="scale(0.015625)"/>
       <path id="DejaVuSans-6c" d="M 603 4863 
L 1178 4863 
L 1178 0 
L 603 0 
L 603 4863 
z
" transform="scale(0.015625)"/>
       <path id="DejaVuSans-42" d="M 1259 2228 
L 1259 519 
L 2272 519 
Q 2781 519 3026 730 
Q 3272 941 3272 1375 
Q 3272 1813 3026 2020 
Q 2781 2228 2272 2228 
L 1259 2228 
z
M 1259 4147 
L 1259 2741 
L 2194 2741 
Q 2656 2741 2882 2914 
Q 3109 3088 3109 3444 
Q 3109 3797 2882 3972 
Q 2656 4147 2194 4147 
L 1259 4147 
z
M 628 4666 
L 2241 4666 
Q 2963 4666 3353 4366 
Q 3744 4066 3744 3513 
Q 3744 3084 3544 2831 
Q 3344 2578 2956 2516 
Q 3422 2416 3680 2098 
Q 3938 1781 3938 1306 
Q 3938 681 3513 340 
Q 3088 0 2303 0 
L 628 0 
L 628 4666 
z
" transform="scale(0.015625)"/>
       <path id="DejaVuSans-63" d="M 3122 3366 
L 3122 2828 
Q 2878 2963 2633 3030 
Q 2388 3097 2138 3097 
Q 1578 3097 1268 2742 
Q 959 2388 959 1747 
Q 959 1106 1268 751 
Q 1578 397 2138 397 
Q 2388 397 2633 464 
Q 2878 531 3122 666 
L 3122 134 
Q 2881 22 2623 -34 
Q 2366 -91 2075 -91 
Q 1284 -91 818 406 
Q 353 903 353 1747 
Q 353 2603 823 3093 
Q 1294 3584 2113 3584 
Q 2378 3584 2631 3529 
Q 2884 3475 3122 3366 
z
" transform="scale(0.015625)"/>
       <path id="DejaVuSans-72" d="M 2631 2963 
Q 2534 3019 2420 3045 
Q 2306 3072 2169 3072 
Q 1681 3072 1420 2755 
Q 1159 2438 1159 1844 
L 1159 0 
L 581 0 
L 581 3500 
L 1159 3500 
L 1159 2956 
Q 1341 3275 1631 3429 
Q 1922 3584 2338 3584 
Q 2397 3584 2469 3576 
Q 2541 3569 2628 3553 
L 2631 2963 
z
" transform="scale(0.015625)"/>
       <path id="DejaVuSans-2c" d="M 750 794 
L 1409 794 
L 1409 256 
L 897 -744 
L 494 -744 
L 750 256 
L 750 794 
z
" transform="scale(0.015625)"/>
       <path id="DejaVuSans-4d" d="M 628 4666 
L 1569 4666 
L 2759 1491 
L 3956 4666 
L 4897 4666 
L 4897 0 
L 4281 0 
L 4281 4097 
L 3078 897 
L 2444 897 
L 1241 4097 
L 1241 0 
L 628 0 
L 628 4666 
z
" transform="scale(0.015625)"/>
       <path id="DejaVuSans-70" d="M 1159 525 
L 1159 -1331 
L 581 -1331 
L 581 3500 
L 1159 3500 
L 1159 2969 
Q 1341 3281 1617 3432 
Q 1894 3584 2278 3584 
Q 2916 3584 3314 3078 
Q 3713 2572 3713 1747 
Q 3713 922 3314 415 
Q 2916 -91 2278 -91 
Q 1894 -91 1617 61 
Q 1341 213 1159 525 
z
M 3116 1747 
Q 3116 2381 2855 2742 
Q 2594 3103 2138 3103 
Q 1681 3103 1420 2742 
Q 1159 2381 1159 1747 
Q 1159 1113 1420 752 
Q 1681 391 2138 391 
Q 2594 391 2855 752 
Q 3116 1113 3116 1747 
z
" transform="scale(0.015625)"/>
       <path id="DejaVuSans-76" d="M 191 3500 
L 800 3500 
L 1894 563 
L 2988 3500 
L 3597 3500 
L 2284 0 
L 1503 0 
L 191 3500 
z
" transform="scale(0.015625)"/>
       <path id="DejaVuSans-75" d="M 544 1381 
L 544 3500 
L 1119 3500 
L 1119 1403 
Q 1119 906 1312 657 
Q 1506 409 1894 409 
Q 2359 409 2629 706 
Q 2900 1003 2900 1516 
L 2900 3500 
L 3475 3500 
L 3475 0 
L 2900 0 
L 2900 538 
Q 2691 219 2414 64 
Q 2138 -91 1772 -91 
Q 1169 -91 856 284 
Q 544 659 544 1381 
z
M 1991 3584 
L 1991 3584 
z
" transform="scale(0.015625)"/>
       <path id="DejaVuSans-6d" d="M 3328 2828 
Q 3544 3216 3844 3400 
Q 4144 3584 4550 3584 
Q 5097 3584 5394 3201 
Q 5691 2819 5691 2113 
L 5691 0 
L 5113 0 
L 5113 2094 
Q 5113 2597 4934 2840 
Q 4756 3084 4391 3084 
Q 3944 3084 3684 2787 
Q 3425 2491 3425 1978 
L 3425 0 
L 2847 0 
L 2847 2094 
Q 2847 2600 2669 2842 
Q 2491 3084 2119 3084 
Q 1678 3084 1418 2786 
Q 1159 2488 1159 1978 
L 1159 0 
L 581 0 
L 581 3500 
L 1159 3500 
L 1159 2956 
Q 1356 3278 1631 3431 
Q 1906 3584 2284 3584 
Q 2666 3584 2933 3390 
Q 3200 3197 3328 2828 
z
" transform="scale(0.015625)"/>
      </defs>
      <use xlink:href="#DejaVuSans-54"/>
      <use xlink:href="#DejaVuSans-49" transform="translate(61.083984 0)"/>
      <use xlink:href="#DejaVuSans-49" transform="translate(90.576172 0)"/>
      <use xlink:href="#DejaVuSans-45" transform="translate(120.068359 0)"/>
      <use xlink:href="#DejaVuSans-20" transform="translate(183.251953 0)"/>
      <use xlink:href="#DejaVuSans-64" transform="translate(215.039062 0)"/>
      <use xlink:href="#DejaVuSans-65" transform="translate(278.515625 0)"/>
      <use xlink:href="#DejaVuSans-20" transform="translate(340.039062 0)"/>
      <use xlink:href="#DejaVuSans-46" transform="translate(371.826172 0)"/>
      <use xlink:href="#DejaVuSans-6f" transform="translate(425.720703 0)"/>
      <use xlink:href="#DejaVuSans-6e" transform="translate(486.902344 0)"/>
      <use xlink:href="#DejaVuSans-64" transform="translate(550.28125 0)"/>
      <use xlink:href="#DejaVuSans-65" transform="translate(613.757812 0)"/>
      <use xlink:href="#DejaVuSans-6f" transform="translate(675.28125 0)"/>
      <use xlink:href="#DejaVuSans-20" transform="translate(736.462891 0)"/>
      <use xlink:href="#DejaVuSans-61" transform="translate(768.25 0)"/>
      <use xlink:href="#DejaVuSans-20" transform="translate(829.529297 0)"/>
      <use xlink:href="#DejaVuSans-55" transform="translate(861.316406 0)"/>
      <use xlink:href="#DejaVuSans-6e" transform="translate(934.509766 0)"/>
      <use xlink:href="#DejaVuSans-20" transform="translate(997.888672 0)"/>
      <use xlink:href="#DejaVuSans-44" transform="translate(1029.675781 0)"/>
      <use xlink:href="#DejaVuSans-ed" transform="translate(1106.677734 0)"/>
      <use xlink:href="#DejaVuSans-61" transform="translate(1134.460938 0)"/>
      <use xlink:href="#DejaVuSans-20" transform="translate(1195.740234 0)"/>
      <use xlink:href="#DejaVuSans-48" transform="translate(1227.527344 0)"/>
      <use xlink:href="#DejaVuSans-e1" transform="translate(1302.722656 0)"/>
      <use xlink:href="#DejaVuSans-62" transform="translate(1364.001953 0)"/>
      <use xlink:href="#DejaVuSans-69" transform="translate(1427.478516 0)"/>
      <use xlink:href="#DejaVuSans-6c" transform="translate(1455.261719 0)"/>
      <use xlink:href="#DejaVuSans-20" transform="translate(1483.044922 0)"/>
      <use xlink:href="#DejaVuSans-42" transform="translate(1514.832031 0)"/>
      <use xlink:href="#DejaVuSans-61" transform="translate(1583.435547 0)"/>
      <use xlink:href="#DejaVuSans-6e" transform="translate(1644.714844 0)"/>
      <use xlink:href="#DejaVuSans-63" transform="translate(1708.09375 0)"/>
      <use xlink:href="#DejaVuSans-61" transform="translate(1763.074219 0)"/>
      <use xlink:href="#DejaVuSans-72" transform="translate(1824.353516 0)"/>
      <use xlink:href="#DejaVuSans-69" transform="translate(1865.466797 0)"/>
      <use xlink:href="#DejaVuSans-6f" transform="translate(1893.25 0)"/>
      <use xlink:href="#DejaVuSans-2c" transform="translate(1954.431641 0)"/>
      <use xlink:href="#DejaVuSans-20" transform="translate(1986.21875 0)"/>
      <use xlink:href="#DejaVuSans-4d" transform="translate(2018.005859 0)"/>
      <use xlink:href="#DejaVuSans-65" transform="translate(2104.285156 0)"/>
      <use xlink:href="#DejaVuSans-64" transform="translate(2165.808594 0)"/>
      <use xlink:href="#DejaVuSans-69" transform="translate(2229.285156 0)"/>
      <use xlink:href="#DejaVuSans-61" transform="translate(2257.068359 0)"/>
      <use xlink:href="#DejaVuSans-6e" transform="translate(2318.347656 0)"/>
      <use xlink:href="#DejaVuSans-61" transform="translate(2381.726562 0)"/>
      <use xlink:href="#DejaVuSans-20" transform="translate(2443.005859 0)"/>
      <use xlink:href="#DejaVuSans-70" transform="translate(2474.792969 0)"/>
      <use xlink:href="#DejaVuSans-6f" transform="translate(2538.269531 0)"/>
      <use xlink:href="#DejaVuSans-6e" transform="translate(2599.451172 0)"/>
      <use xlink:href="#DejaVuSans-64" transform="translate(2662.830078 0)"/>
      <use xlink:href="#DejaVuSans-65" transform="translate(2726.306641 0)"/>
      <use xlink:href="#DejaVuSans-72" transform="translate(2787.830078 0)"/>
      <use xlink:href="#DejaVuSans-61" transform="translate(2828.943359 0)"/>
      <use xlink:href="#DejaVuSans-64" transform="translate(2890.222656 0)"/>
      <use xlink:href="#DejaVuSans-61" transform="translate(2953.699219 0)"/>
      <use xlink:href="#DejaVuSans-20" transform="translate(3014.978516 0)"/>
      <use xlink:href="#DejaVuSans-70" transform="translate(3046.765625 0)"/>
      <use xlink:href="#DejaVuSans-6f" transform="translate(3110.242188 0)"/>
      <use xlink:href="#DejaVuSans-72" transform="translate(3171.423828 0)"/>
      <use xlink:href="#DejaVuSans-20" transform="translate(3212.537109 0)"/>
      <use xlink:href="#DejaVuSans-76" transform="translate(3244.324219 0)"/>
      <use xlink:href="#DejaVuSans-6f" transform="translate(3303.503906 0)"/>
      <use xlink:href="#DejaVuSans-6c" transform="translate(3364.685547 0)"/>
      <use xlink:href="#DejaVuSans-75" transform="translate(3392.46875 0)"/>
      <use xlink:href="#DejaVuSans-6d" transform="translate(3455.847656 0)"/>
      <use xlink:href="#DejaVuSans-65" transform="translate(3553.259766 0)"/>
      <use xlink:href="#DejaVuSans-6e" transform="translate(3614.783203 0)"/>
     </g>
    </g>
    <g id="line2d_29">
     <path d="M 115.2 74.70125 
L 123.2 74.70125 
L 131.2 74.70125 
" style="fill: none; stroke: #1f78b4; stroke-width: 1.5; stroke-linecap: square"/>
    </g>
    <g id="text_15">
     <!-- TIIE a 28 días, Tasa de interés en por ciento anual -->
     <g transform="translate(137.6 77.50125) scale(0.08 -0.08)">
      <defs>
       <path id="DejaVuSans-73" d="M 2834 3397 
L 2834 2853 
Q 2591 2978 2328 3040 
Q 2066 3103 1784 3103 
Q 1356 3103 1142 2972 
Q 928 2841 928 2578 
Q 928 2378 1081 2264 
Q 1234 2150 1697 2047 
L 1894 2003 
Q 2506 1872 2764 1633 
Q 3022 1394 3022 966 
Q 3022 478 2636 193 
Q 2250 -91 1575 -91 
Q 1294 -91 989 -36 
Q 684 19 347 128 
L 347 722 
Q 666 556 975 473 
Q 1284 391 1588 391 
Q 1994 391 2212 530 
Q 2431 669 2431 922 
Q 2431 1156 2273 1281 
Q 2116 1406 1581 1522 
L 1381 1569 
Q 847 1681 609 1914 
Q 372 2147 372 2553 
Q 372 3047 722 3315 
Q 1072 3584 1716 3584 
Q 2034 3584 2315 3537 
Q 2597 3491 2834 3397 
z
" transform="scale(0.015625)"/>
       <path id="DejaVuSans-74" d="M 1172 4494 
L 1172 3500 
L 2356 3500 
L 2356 3053 
L 1172 3053 
L 1172 1153 
Q 1172 725 1289 603 
Q 1406 481 1766 481 
L 2356 481 
L 2356 0 
L 1766 0 
Q 1100 0 847 248 
Q 594 497 594 1153 
L 594 3053 
L 172 3053 
L 172 3500 
L 594 3500 
L 594 4494 
L 1172 4494 
z
" transform="scale(0.015625)"/>
       <path id="DejaVuSans-e9" d="M 3597 1894 
L 3597 1613 
L 953 1613 
Q 991 1019 1311 708 
Q 1631 397 2203 397 
Q 2534 397 2845 478 
Q 3156 559 3463 722 
L 3463 178 
Q 3153 47 2828 -22 
Q 2503 -91 2169 -91 
Q 1331 -91 842 396 
Q 353 884 353 1716 
Q 353 2575 817 3079 
Q 1281 3584 2069 3584 
Q 2775 3584 3186 3129 
Q 3597 2675 3597 1894 
z
M 3022 2063 
Q 3016 2534 2758 2815 
Q 2500 3097 2075 3097 
Q 1594 3097 1305 2825 
Q 1016 2553 972 2059 
L 3022 2063 
z
M 2469 5119 
L 3091 5119 
L 2072 3944 
L 1594 3944 
L 2469 5119 
z
" transform="scale(0.015625)"/>
      </defs>
      <use xlink:href="#DejaVuSans-54"/>
      <use xlink:href="#DejaVuSans-49" transform="translate(61.083984 0)"/>
      <use xlink:href="#DejaVuSans-49" transform="translate(90.576172 0)"/>
      <use xlink:href="#DejaVuSans-45" transform="translate(120.068359 0)"/>
      <use xlink:href="#DejaVuSans-20" transform="translate(183.251953 0)"/>
      <use xlink:href="#DejaVuSans-61" transform="translate(215.039062 0)"/>
      <use xlink:href="#DejaVuSans-20" transform="translate(276.318359 0)"/>
      <use xlink:href="#DejaVuSans-32" transform="translate(308.105469 0)"/>
      <use xlink:href="#DejaVuSans-38" transform="translate(371.728516 0)"/>
      <use xlink:href="#DejaVuSans-20" transform="translate(435.351562 0)"/>
      <use xlink:href="#DejaVuSans-64" transform="translate(467.138672 0)"/>
      <use xlink:href="#DejaVuSans-ed" transform="translate(530.615234 0)"/>
      <use xlink:href="#DejaVuSans-61" transform="translate(558.398438 0)"/>
      <use xlink:href="#DejaVuSans-73" transform="translate(619.677734 0)"/>
      <use xlink:href="#DejaVuSans-2c" transform="translate(671.777344 0)"/>
      <use xlink:href="#DejaVuSans-20" transform="translate(703.564453 0)"/>
      <use xlink:href="#DejaVuSans-54" transform="translate(735.351562 0)"/>
      <use xlink:href="#DejaVuSans-61" transform="translate(779.935547 0)"/>
      <use xlink:href="#DejaVuSans-73" transform="translate(841.214844 0)"/>
      <use xlink:href="#DejaVuSans-61" transform="translate(893.314453 0)"/>
      <use xlink:href="#DejaVuSans-20" transform="translate(954.59375 0)"/>
      <use xlink:href="#DejaVuSans-64" transform="translate(986.380859 0)"/>
      <use xlink:href="#DejaVuSans-65" transform="translate(1049.857422 0)"/>
      <use xlink:href="#DejaVuSans-20" transform="translate(1111.380859 0)"/>
      <use xlink:href="#DejaVuSans-69" transform="translate(1143.167969 0)"/>
      <use xlink:href="#DejaVuSans-6e" transform="translate(1170.951172 0)"/>
      <use xlink:href="#DejaVuSans-74" transform="translate(1234.330078 0)"/>
      <use xlink:href="#DejaVuSans-65" transform="translate(1273.539062 0)"/>
      <use xlink:href="#DejaVuSans-72" transform="translate(1335.0625 0)"/>
      <use xlink:href="#DejaVuSans-e9" transform="translate(1373.925781 0)"/>
      <use xlink:href="#DejaVuSans-73" transform="translate(1435.449219 0)"/>
      <use xlink:href="#DejaVuSans-20" transform="translate(1487.548828 0)"/>
      <use xlink:href="#DejaVuSans-65" transform="translate(1519.335938 0)"/>
      <use xlink:href="#DejaVuSans-6e" transform="translate(1580.859375 0)"/>
      <use xlink:href="#DejaVuSans-20" transform="translate(1644.238281 0)"/>
      <use xlink:href="#DejaVuSans-70" transform="translate(1676.025391 0)"/>
      <use xlink:href="#DejaVuSans-6f" transform="translate(1739.501953 0)"/>
      <use xlink:href="#DejaVuSans-72" transform="translate(1800.683594 0)"/>
      <use xlink:href="#DejaVuSans-20" transform="translate(1841.796875 0)"/>
      <use xlink:href="#DejaVuSans-63" transform="translate(1873.583984 0)"/>
      <use xlink:href="#DejaVuSans-69" transform="translate(1928.564453 0)"/>
      <use xlink:href="#DejaVuSans-65" transform="translate(1956.347656 0)"/>
      <use xlink:href="#DejaVuSans-6e" transform="translate(2017.871094 0)"/>
      <use xlink:href="#DejaVuSans-74" transform="translate(2081.25 0)"/>
      <use xlink:href="#DejaVuSans-6f" transform="translate(2120.458984 0)"/>
      <use xlink:href="#DejaVuSans-20" transform="translate(2181.640625 0)"/>
      <use xlink:href="#DejaVuSans-61" transform="translate(2213.427734 0)"/>
      <use xlink:href="#DejaVuSans-6e" transform="translate(2274.707031 0)"/>
      <use xlink:href="#DejaVuSans-75" transform="translate(2338.085938 0)"/>
      <use xlink:href="#DejaVuSans-61" transform="translate(2401.464844 0)"/>
      <use xlink:href="#DejaVuSans-6c" transform="translate(2462.744141 0)"/>
     </g>
    </g>
    <g id="line2d_30">
     <path d="M 115.2 86.44375 
L 123.2 86.44375 
L 131.2 86.44375 
" style="fill: none; stroke: #b2df8a; stroke-width: 1.5; stroke-linecap: square"/>
    </g>
    <g id="text_16">
     <!-- Tasas de interés interbancarias Por ciento anual, TIIE a 91 días -->
     <g transform="translate(137.6 89.24375) scale(0.08 -0.08)">
      <defs>
       <path id="DejaVuSans-50" d="M 1259 4147 
L 1259 2394 
L 2053 2394 
Q 2494 2394 2734 2622 
Q 2975 2850 2975 3272 
Q 2975 3691 2734 3919 
Q 2494 4147 2053 4147 
L 1259 4147 
z
M 628 4666 
L 2053 4666 
Q 2838 4666 3239 4311 
Q 3641 3956 3641 3272 
Q 3641 2581 3239 2228 
Q 2838 1875 2053 1875 
L 1259 1875 
L 1259 0 
L 628 0 
L 628 4666 
z
" transform="scale(0.015625)"/>
       <path id="DejaVuSans-39" d="M 703 97 
L 703 672 
Q 941 559 1184 500 
Q 1428 441 1663 441 
Q 2288 441 2617 861 
Q 2947 1281 2994 2138 
Q 2813 1869 2534 1725 
Q 2256 1581 1919 1581 
Q 1219 1581 811 2004 
Q 403 2428 403 3163 
Q 403 3881 828 4315 
Q 1253 4750 1959 4750 
Q 2769 4750 3195 4129 
Q 3622 3509 3622 2328 
Q 3622 1225 3098 567 
Q 2575 -91 1691 -91 
Q 1453 -91 1209 -44 
Q 966 3 703 97 
z
M 1959 2075 
Q 2384 2075 2632 2365 
Q 2881 2656 2881 3163 
Q 2881 3666 2632 3958 
Q 2384 4250 1959 4250 
Q 1534 4250 1286 3958 
Q 1038 3666 1038 3163 
Q 1038 2656 1286 2365 
Q 1534 2075 1959 2075 
z
" transform="scale(0.015625)"/>
      </defs>
      <use xlink:href="#DejaVuSans-54"/>
      <use xlink:href="#DejaVuSans-61" transform="translate(44.583984 0)"/>
      <use xlink:href="#DejaVuSans-73" transform="translate(105.863281 0)"/>
      <use xlink:href="#DejaVuSans-61" transform="translate(157.962891 0)"/>
      <use xlink:href="#DejaVuSans-73" transform="translate(219.242188 0)"/>
      <use xlink:href="#DejaVuSans-20" transform="translate(271.341797 0)"/>
      <use xlink:href="#DejaVuSans-64" transform="translate(303.128906 0)"/>
      <use xlink:href="#DejaVuSans-65" transform="translate(366.605469 0)"/>
      <use xlink:href="#DejaVuSans-20" transform="translate(428.128906 0)"/>
      <use xlink:href="#DejaVuSans-69" transform="translate(459.916016 0)"/>
      <use xlink:href="#DejaVuSans-6e" transform="translate(487.699219 0)"/>
      <use xlink:href="#DejaVuSans-74" transform="translate(551.078125 0)"/>
      <use xlink:href="#DejaVuSans-65" transform="translate(590.287109 0)"/>
      <use xlink:href="#DejaVuSans-72" transform="translate(651.810547 0)"/>
      <use xlink:href="#DejaVuSans-e9" transform="translate(690.673828 0)"/>
      <use xlink:href="#DejaVuSans-73" transform="translate(752.197266 0)"/>
      <use xlink:href="#DejaVuSans-20" transform="translate(804.296875 0)"/>
      <use xlink:href="#DejaVuSans-69" transform="translate(836.083984 0)"/>
      <use xlink:href="#DejaVuSans-6e" transform="translate(863.867188 0)"/>
      <use xlink:href="#DejaVuSans-74" transform="translate(927.246094 0)"/>
      <use xlink:href="#DejaVuSans-65" transform="translate(966.455078 0)"/>
      <use xlink:href="#DejaVuSans-72" transform="translate(1027.978516 0)"/>
      <use xlink:href="#DejaVuSans-62" transform="translate(1069.091797 0)"/>
      <use xlink:href="#DejaVuSans-61" transform="translate(1132.568359 0)"/>
      <use xlink:href="#DejaVuSans-6e" transform="translate(1193.847656 0)"/>
      <use xlink:href="#DejaVuSans-63" transform="translate(1257.226562 0)"/>
      <use xlink:href="#DejaVuSans-61" transform="translate(1312.207031 0)"/>
      <use xlink:href="#DejaVuSans-72" transform="translate(1373.486328 0)"/>
      <use xlink:href="#DejaVuSans-69" transform="translate(1414.599609 0)"/>
      <use xlink:href="#DejaVuSans-61" transform="translate(1442.382812 0)"/>
      <use xlink:href="#DejaVuSans-73" transform="translate(1503.662109 0)"/>
      <use xlink:href="#DejaVuSans-20" transform="translate(1555.761719 0)"/>
      <use xlink:href="#DejaVuSans-50" transform="translate(1587.548828 0)"/>
      <use xlink:href="#DejaVuSans-6f" transform="translate(1644.226562 0)"/>
      <use xlink:href="#DejaVuSans-72" transform="translate(1705.408203 0)"/>
      <use xlink:href="#DejaVuSans-20" transform="translate(1746.521484 0)"/>
      <use xlink:href="#DejaVuSans-63" transform="translate(1778.308594 0)"/>
      <use xlink:href="#DejaVuSans-69" transform="translate(1833.289062 0)"/>
      <use xlink:href="#DejaVuSans-65" transform="translate(1861.072266 0)"/>
      <use xlink:href="#DejaVuSans-6e" transform="translate(1922.595703 0)"/>
      <use xlink:href="#DejaVuSans-74" transform="translate(1985.974609 0)"/>
      <use xlink:href="#DejaVuSans-6f" transform="translate(2025.183594 0)"/>
      <use xlink:href="#DejaVuSans-20" transform="translate(2086.365234 0)"/>
      <use xlink:href="#DejaVuSans-61" transform="translate(2118.152344 0)"/>
      <use xlink:href="#DejaVuSans-6e" transform="translate(2179.431641 0)"/>
      <use xlink:href="#DejaVuSans-75" transform="translate(2242.810547 0)"/>
      <use xlink:href="#DejaVuSans-61" transform="translate(2306.189453 0)"/>
      <use xlink:href="#DejaVuSans-6c" transform="translate(2367.46875 0)"/>
      <use xlink:href="#DejaVuSans-2c" transform="translate(2395.251953 0)"/>
      <use xlink:href="#DejaVuSans-20" transform="translate(2427.039062 0)"/>
      <use xlink:href="#DejaVuSans-54" transform="translate(2458.826172 0)"/>
      <use xlink:href="#DejaVuSans-49" transform="translate(2519.910156 0)"/>
      <use xlink:href="#DejaVuSans-49" transform="translate(2549.402344 0)"/>
      <use xlink:href="#DejaVuSans-45" transform="translate(2578.894531 0)"/>
      <use xlink:href="#DejaVuSans-20" transform="translate(2642.078125 0)"/>
      <use xlink:href="#DejaVuSans-61" transform="translate(2673.865234 0)"/>
      <use xlink:href="#DejaVuSans-20" transform="translate(2735.144531 0)"/>
      <use xlink:href="#DejaVuSans-39" transform="translate(2766.931641 0)"/>
      <use xlink:href="#DejaVuSans-31" transform="translate(2830.554688 0)"/>
      <use xlink:href="#DejaVuSans-20" transform="translate(2894.177734 0)"/>
      <use xlink:href="#DejaVuSans-64" transform="translate(2925.964844 0)"/>
      <use xlink:href="#DejaVuSans-ed" transform="translate(2989.441406 0)"/>
      <use xlink:href="#DejaVuSans-61" transform="translate(3017.224609 0)"/>
      <use xlink:href="#DejaVuSans-73" transform="translate(3078.503906 0)"/>
     </g>
    </g>
   </g>
  </g>
 </g>
 <defs>
  <clipPath id="pc920fc352d">
   <rect x="108" y="51.84" width="669.6" height="332.64"/>
  </clipPath>
 </defs>
</svg>
