<?xml version="1.0" encoding="utf-8" standalone="no"?>
<!DOCTYPE svg PUBLIC "-//W3C//DTD SVG 1.1//EN"
  "http://www.w3.org/Graphics/SVG/1.1/DTD/svg11.dtd">
<svg xmlns:xlink="http://www.w3.org/1999/xlink" width="864pt" height="432pt" viewBox="0 0 864 432" xmlns="http://www.w3.org/2000/svg" version="1.1">
 <metadata>
  <rdf:RDF xmlns:dc="http://purl.org/dc/elements/1.1/" xmlns:cc="http://creativecommons.org/ns#" xmlns:rdf="http://www.w3.org/1999/02/22-rdf-syntax-ns#">
   <cc:Work>
    <dc:type rdf:resource="http://purl.org/dc/dcmitype/StillImage"/>
    <dc:date>2025-02-23T20:21:47.717365</dc:date>
    <dc:format>image/svg+xml</dc:format>
    <dc:creator>
     <cc:Agent>
      <dc:title>Matplotlib v3.10.0, https://matplotlib.org/</dc:title>
     </cc:Agent>
    </dc:creator>
   </cc:Work>
  </rdf:RDF>
 </metadata>
 <defs>
  <style type="text/css">*{stroke-linejoin: round; stroke-linecap: butt}</style>
 </defs>
 <g id="figure_1">
  <g id="patch_1">
   <path d="M 0 432 
L 864 432 
L 864 0 
L 0 0 
z
" style="fill: #ffffff"/>
  </g>
  <g id="axes_1">
   <g id="patch_2">
    <path d="M 108 384.48 
L 777.6 384.48 
L 777.6 51.84 
L 108 51.84 
z
" style="fill: #ffffff"/>
   </g>
   <g id="matplotlib.axis_1">
    <g id="xtick_1">
     <g id="line2d_1">
      <path d="M 173.464612 384.48 
L 173.464612 51.84 
" clip-path="url(#pf80575d336)" style="fill: none; stroke-dasharray: 2.96,1.28; stroke-dashoffset: 0; stroke: #b0b0b0; stroke-opacity: 0.5; stroke-width: 0.8"/>
     </g>
     <g id="line2d_2">
      <defs>
       <path id="ma234a8a182" d="M 0 0 
L 0 3.5 
" style="stroke: #000000; stroke-width: 0.8"/>
      </defs>
      <g>
       <use xlink:href="#ma234a8a182" x="173.464612" y="384.48" style="stroke: #000000; stroke-width: 0.8"/>
      </g>
     </g>
     <g id="text_1">
      <!-- 2012 -->
      <g transform="translate(160.739612 399.078438) scale(0.1 -0.1)">
       <defs>
        <path id="DejaVuSans-32" d="M 1228 531 
L 3431 531 
L 3431 0 
L 469 0 
L 469 531 
Q 828 903 1448 1529 
Q 2069 2156 2228 2338 
Q 2531 2678 2651 2914 
Q 2772 3150 2772 3378 
Q 2772 3750 2511 3984 
Q 2250 4219 1831 4219 
Q 1534 4219 1204 4116 
Q 875 4013 500 3803 
L 500 4441 
Q 881 4594 1212 4672 
Q 1544 4750 1819 4750 
Q 2544 4750 2975 4387 
Q 3406 4025 3406 3419 
Q 3406 3131 3298 2873 
Q 3191 2616 2906 2266 
Q 2828 2175 2409 1742 
Q 1991 1309 1228 531 
z
" transform="scale(0.015625)"/>
        <path id="DejaVuSans-30" d="M 2034 4250 
Q 1547 4250 1301 3770 
Q 1056 3291 1056 2328 
Q 1056 1369 1301 889 
Q 1547 409 2034 409 
Q 2525 409 2770 889 
Q 3016 1369 3016 2328 
Q 3016 3291 2770 3770 
Q 2525 4250 2034 4250 
z
M 2034 4750 
Q 2819 4750 3233 4129 
Q 3647 3509 3647 2328 
Q 3647 1150 3233 529 
Q 2819 -91 2034 -91 
Q 1250 -91 836 529 
Q 422 1150 422 2328 
Q 422 3509 836 4129 
Q 1250 4750 2034 4750 
z
" transform="scale(0.015625)"/>
        <path id="DejaVuSans-31" d="M 794 531 
L 1825 531 
L 1825 4091 
L 703 3866 
L 703 4441 
L 1819 4666 
L 2450 4666 
L 2450 531 
L 3481 531 
L 3481 0 
L 794 0 
L 794 531 
z
" transform="scale(0.015625)"/>
       </defs>
       <use xlink:href="#DejaVuSans-32"/>
       <use xlink:href="#DejaVuSans-30" transform="translate(63.623047 0)"/>
       <use xlink:href="#DejaVuSans-31" transform="translate(127.246094 0)"/>
       <use xlink:href="#DejaVuSans-32" transform="translate(190.869141 0)"/>
      </g>
     </g>
    </g>
    <g id="xtick_2">
     <g id="line2d_3">
      <path d="M 266.576066 384.48 
L 266.576066 51.84 
" clip-path="url(#pf80575d336)" style="fill: none; stroke-dasharray: 2.96,1.28; stroke-dashoffset: 0; stroke: #b0b0b0; stroke-opacity: 0.5; stroke-width: 0.8"/>
     </g>
     <g id="line2d_4">
      <g>
       <use xlink:href="#ma234a8a182" x="266.576066" y="384.48" style="stroke: #000000; stroke-width: 0.8"/>
      </g>
     </g>
     <g id="text_2">
      <!-- 2014 -->
      <g transform="translate(253.851066 399.078438) scale(0.1 -0.1)">
       <defs>
        <path id="DejaVuSans-34" d="M 2419 4116 
L 825 1625 
L 2419 1625 
L 2419 4116 
z
M 2253 4666 
L 3047 4666 
L 3047 1625 
L 3713 1625 
L 3713 1100 
L 3047 1100 
L 3047 0 
L 2419 0 
L 2419 1100 
L 313 1100 
L 313 1709 
L 2253 4666 
z
" transform="scale(0.015625)"/>
       </defs>
       <use xlink:href="#DejaVuSans-32"/>
       <use xlink:href="#DejaVuSans-30" transform="translate(63.623047 0)"/>
       <use xlink:href="#DejaVuSans-31" transform="translate(127.246094 0)"/>
       <use xlink:href="#DejaVuSans-34" transform="translate(190.869141 0)"/>
      </g>
     </g>
    </g>
    <g id="xtick_3">
     <g id="line2d_5">
      <path d="M 359.560144 384.48 
L 359.560144 51.84 
" clip-path="url(#pf80575d336)" style="fill: none; stroke-dasharray: 2.96,1.28; stroke-dashoffset: 0; stroke: #b0b0b0; stroke-opacity: 0.5; stroke-width: 0.8"/>
     </g>
     <g id="line2d_6">
      <g>
       <use xlink:href="#ma234a8a182" x="359.560144" y="384.48" style="stroke: #000000; stroke-width: 0.8"/>
      </g>
     </g>
     <g id="text_3">
      <!-- 2016 -->
      <g transform="translate(346.835144 399.078438) scale(0.1 -0.1)">
       <defs>
        <path id="DejaVuSans-36" d="M 2113 2584 
Q 1688 2584 1439 2293 
Q 1191 2003 1191 1497 
Q 1191 994 1439 701 
Q 1688 409 2113 409 
Q 2538 409 2786 701 
Q 3034 994 3034 1497 
Q 3034 2003 2786 2293 
Q 2538 2584 2113 2584 
z
M 3366 4563 
L 3366 3988 
Q 3128 4100 2886 4159 
Q 2644 4219 2406 4219 
Q 1781 4219 1451 3797 
Q 1122 3375 1075 2522 
Q 1259 2794 1537 2939 
Q 1816 3084 2150 3084 
Q 2853 3084 3261 2657 
Q 3669 2231 3669 1497 
Q 3669 778 3244 343 
Q 2819 -91 2113 -91 
Q 1303 -91 875 529 
Q 447 1150 447 2328 
Q 447 3434 972 4092 
Q 1497 4750 2381 4750 
Q 2619 4750 2861 4703 
Q 3103 4656 3366 4563 
z
" transform="scale(0.015625)"/>
       </defs>
       <use xlink:href="#DejaVuSans-32"/>
       <use xlink:href="#DejaVuSans-30" transform="translate(63.623047 0)"/>
       <use xlink:href="#DejaVuSans-31" transform="translate(127.246094 0)"/>
       <use xlink:href="#DejaVuSans-36" transform="translate(190.869141 0)"/>
      </g>
     </g>
    </g>
    <g id="xtick_4">
     <g id="line2d_7">
      <path d="M 452.671597 384.48 
L 452.671597 51.84 
" clip-path="url(#pf80575d336)" style="fill: none; stroke-dasharray: 2.96,1.28; stroke-dashoffset: 0; stroke: #b0b0b0; stroke-opacity: 0.5; stroke-width: 0.8"/>
     </g>
     <g id="line2d_8">
      <g>
       <use xlink:href="#ma234a8a182" x="452.671597" y="384.48" style="stroke: #000000; stroke-width: 0.8"/>
      </g>
     </g>
     <g id="text_4">
      <!-- 2018 -->
      <g transform="translate(439.946597 399.078438) scale(0.1 -0.1)">
       <defs>
        <path id="DejaVuSans-38" d="M 2034 2216 
Q 1584 2216 1326 1975 
Q 1069 1734 1069 1313 
Q 1069 891 1326 650 
Q 1584 409 2034 409 
Q 2484 409 2743 651 
Q 3003 894 3003 1313 
Q 3003 1734 2745 1975 
Q 2488 2216 2034 2216 
z
M 1403 2484 
Q 997 2584 770 2862 
Q 544 3141 544 3541 
Q 544 4100 942 4425 
Q 1341 4750 2034 4750 
Q 2731 4750 3128 4425 
Q 3525 4100 3525 3541 
Q 3525 3141 3298 2862 
Q 3072 2584 2669 2484 
Q 3125 2378 3379 2068 
Q 3634 1759 3634 1313 
Q 3634 634 3220 271 
Q 2806 -91 2034 -91 
Q 1263 -91 848 271 
Q 434 634 434 1313 
Q 434 1759 690 2068 
Q 947 2378 1403 2484 
z
M 1172 3481 
Q 1172 3119 1398 2916 
Q 1625 2713 2034 2713 
Q 2441 2713 2670 2916 
Q 2900 3119 2900 3481 
Q 2900 3844 2670 4047 
Q 2441 4250 2034 4250 
Q 1625 4250 1398 4047 
Q 1172 3844 1172 3481 
z
" transform="scale(0.015625)"/>
       </defs>
       <use xlink:href="#DejaVuSans-32"/>
       <use xlink:href="#DejaVuSans-30" transform="translate(63.623047 0)"/>
       <use xlink:href="#DejaVuSans-31" transform="translate(127.246094 0)"/>
       <use xlink:href="#DejaVuSans-38" transform="translate(190.869141 0)"/>
      </g>
     </g>
    </g>
    <g id="xtick_5">
     <g id="line2d_9">
      <path d="M 545.655675 384.48 
L 545.655675 51.84 
" clip-path="url(#pf80575d336)" style="fill: none; stroke-dasharray: 2.96,1.28; stroke-dashoffset: 0; stroke: #b0b0b0; stroke-opacity: 0.5; stroke-width: 0.8"/>
     </g>
     <g id="line2d_10">
      <g>
       <use xlink:href="#ma234a8a182" x="545.655675" y="384.48" style="stroke: #000000; stroke-width: 0.8"/>
      </g>
     </g>
     <g id="text_5">
      <!-- 2020 -->
      <g transform="translate(532.930675 399.078438) scale(0.1 -0.1)">
       <use xlink:href="#DejaVuSans-32"/>
       <use xlink:href="#DejaVuSans-30" transform="translate(63.623047 0)"/>
       <use xlink:href="#DejaVuSans-32" transform="translate(127.246094 0)"/>
       <use xlink:href="#DejaVuSans-30" transform="translate(190.869141 0)"/>
      </g>
     </g>
    </g>
    <g id="xtick_6">
     <g id="line2d_11">
      <path d="M 638.767129 384.48 
L 638.767129 51.84 
" clip-path="url(#pf80575d336)" style="fill: none; stroke-dasharray: 2.96,1.28; stroke-dashoffset: 0; stroke: #b0b0b0; stroke-opacity: 0.5; stroke-width: 0.8"/>
     </g>
     <g id="line2d_12">
      <g>
       <use xlink:href="#ma234a8a182" x="638.767129" y="384.48" style="stroke: #000000; stroke-width: 0.8"/>
      </g>
     </g>
     <g id="text_6">
      <!-- 2022 -->
      <g transform="translate(626.042129 399.078438) scale(0.1 -0.1)">
       <use xlink:href="#DejaVuSans-32"/>
       <use xlink:href="#DejaVuSans-30" transform="translate(63.623047 0)"/>
       <use xlink:href="#DejaVuSans-32" transform="translate(127.246094 0)"/>
       <use xlink:href="#DejaVuSans-32" transform="translate(190.869141 0)"/>
      </g>
     </g>
    </g>
    <g id="xtick_7">
     <g id="line2d_13">
      <path d="M 731.751207 384.48 
L 731.751207 51.84 
" clip-path="url(#pf80575d336)" style="fill: none; stroke-dasharray: 2.96,1.28; stroke-dashoffset: 0; stroke: #b0b0b0; stroke-opacity: 0.5; stroke-width: 0.8"/>
     </g>
     <g id="line2d_14">
      <g>
       <use xlink:href="#ma234a8a182" x="731.751207" y="384.48" style="stroke: #000000; stroke-width: 0.8"/>
      </g>
     </g>
     <g id="text_7">
      <!-- 2024 -->
      <g transform="translate(719.026207 399.078438) scale(0.1 -0.1)">
       <use xlink:href="#DejaVuSans-32"/>
       <use xlink:href="#DejaVuSans-30" transform="translate(63.623047 0)"/>
       <use xlink:href="#DejaVuSans-32" transform="translate(127.246094 0)"/>
       <use xlink:href="#DejaVuSans-34" transform="translate(190.869141 0)"/>
      </g>
     </g>
    </g>
   </g>
   <g id="matplotlib.axis_2">
    <g id="ytick_1">
     <g id="line2d_15">
      <path d="M 108 335.721862 
L 777.6 335.721862 
" clip-path="url(#pf80575d336)" style="fill: none; stroke-dasharray: 2.96,1.28; stroke-dashoffset: 0; stroke: #b0b0b0; stroke-opacity: 0.5; stroke-width: 0.8"/>
     </g>
     <g id="line2d_16">
      <defs>
       <path id="m106fc796a3" d="M 0 0 
L -3.5 0 
" style="stroke: #000000; stroke-width: 0.8"/>
      </defs>
      <g>
       <use xlink:href="#m106fc796a3" x="108" y="335.721862" style="stroke: #000000; stroke-width: 0.8"/>
      </g>
     </g>
     <g id="text_8">
      <!-- 4 -->
      <g transform="translate(94.6375 339.52108) scale(0.1 -0.1)">
       <use xlink:href="#DejaVuSans-34"/>
      </g>
     </g>
    </g>
    <g id="ytick_2">
     <g id="line2d_17">
      <path d="M 108 267.072599 
L 777.6 267.072599 
" clip-path="url(#pf80575d336)" style="fill: none; stroke-dasharray: 2.96,1.28; stroke-dashoffset: 0; stroke: #b0b0b0; stroke-opacity: 0.5; stroke-width: 0.8"/>
     </g>
     <g id="line2d_18">
      <g>
       <use xlink:href="#m106fc796a3" x="108" y="267.072599" style="stroke: #000000; stroke-width: 0.8"/>
      </g>
     </g>
     <g id="text_9">
      <!-- 6 -->
      <g transform="translate(94.6375 270.871818) scale(0.1 -0.1)">
       <use xlink:href="#DejaVuSans-36"/>
      </g>
     </g>
    </g>
    <g id="ytick_3">
     <g id="line2d_19">
      <path d="M 108 198.423337 
L 777.6 198.423337 
" clip-path="url(#pf80575d336)" style="fill: none; stroke-dasharray: 2.96,1.28; stroke-dashoffset: 0; stroke: #b0b0b0; stroke-opacity: 0.5; stroke-width: 0.8"/>
     </g>
     <g id="line2d_20">
      <g>
       <use xlink:href="#m106fc796a3" x="108" y="198.423337" style="stroke: #000000; stroke-width: 0.8"/>
      </g>
     </g>
     <g id="text_10">
      <!-- 8 -->
      <g transform="translate(94.6375 202.222556) scale(0.1 -0.1)">
       <use xlink:href="#DejaVuSans-38"/>
      </g>
     </g>
    </g>
    <g id="ytick_4">
     <g id="line2d_21">
      <path d="M 108 129.774075 
L 777.6 129.774075 
" clip-path="url(#pf80575d336)" style="fill: none; stroke-dasharray: 2.96,1.28; stroke-dashoffset: 0; stroke: #b0b0b0; stroke-opacity: 0.5; stroke-width: 0.8"/>
     </g>
     <g id="line2d_22">
      <g>
       <use xlink:href="#m106fc796a3" x="108" y="129.774075" style="stroke: #000000; stroke-width: 0.8"/>
      </g>
     </g>
     <g id="text_11">
      <!-- 10 -->
      <g transform="translate(88.275 133.573294) scale(0.1 -0.1)">
       <use xlink:href="#DejaVuSans-31"/>
       <use xlink:href="#DejaVuSans-30" transform="translate(63.623047 0)"/>
      </g>
     </g>
    </g>
    <g id="ytick_5">
     <g id="line2d_23">
      <path d="M 108 61.124813 
L 777.6 61.124813 
" clip-path="url(#pf80575d336)" style="fill: none; stroke-dasharray: 2.96,1.28; stroke-dashoffset: 0; stroke: #b0b0b0; stroke-opacity: 0.5; stroke-width: 0.8"/>
     </g>
     <g id="line2d_24">
      <g>
       <use xlink:href="#m106fc796a3" x="108" y="61.124813" style="stroke: #000000; stroke-width: 0.8"/>
      </g>
     </g>
     <g id="text_12">
      <!-- 12 -->
      <g transform="translate(88.275 64.924031) scale(0.1 -0.1)">
       <use xlink:href="#DejaVuSans-31"/>
       <use xlink:href="#DejaVuSans-32" transform="translate(63.623047 0)"/>
      </g>
     </g>
    </g>
   </g>
   <g id="line2d_25">
    <path d="M 138.436364 298.65126 
L 146.206266 301.39723 
L 150.02753 305.516186 
L 153.976168 307.575664 
L 157.924807 299.337753 
L 161.746071 306.202679 
L 165.69471 308.948649 
L 169.515973 313.067605 
L 173.464612 307.232418 
L 177.413251 307.91891 
L 181.107139 307.232418 
L 185.055778 307.91891 
L 188.877042 312.037866 
L 192.825681 312.037866 
L 196.646944 314.783837 
L 200.595583 299.337753 
L 204.544222 310.664881 
L 208.365485 308.605403 
L 212.314124 312.724359 
L 216.135388 309.978388 
L 220.084027 303.799955 
L 224.032666 312.724359 
L 227.599178 308.605403 
L 231.547817 326.110965 
L 235.369081 323.364994 
L 239.31772 329.543428 
L 243.138983 313.410851 
L 247.087622 329.200182 
L 251.036261 326.110965 
L 254.857524 337.781339 
L 258.806163 346.362497 
L 262.627427 342.586788 
L 270.524705 345.332758 
L 278.039856 340.870556 
L 281.86112 342.586788 
L 285.809759 343.616527 
L 289.631022 352.540931 
L 293.579661 356.659886 
L 297.5283 364.897798 
L 301.349563 369.36 
L 305.298202 360.435596 
L 309.119466 354.257162 
L 313.068105 359.749103 
L 317.016744 364.211305 
L 320.583256 358.376118 
L 324.531895 359.062611 
L 328.353159 356.31664 
L 332.301798 351.511192 
L 336.123061 350.481453 
L 340.0717 362.151827 
L 347.841602 358.032872 
L 351.790241 343.616527 
L 355.611505 353.57067 
L 359.560144 346.362497 
L 363.508783 340.184064 
L 367.202671 324.73798 
L 371.15131 315.127083 
L 374.972573 320.96227 
L 378.921212 321.648763 
L 382.742476 322.678502 
L 386.691115 312.724359 
L 390.639753 311.351373 
L 394.461017 286.294393 
L 398.409656 292.472826 
L 402.230919 262.610397 
L 406.179558 257.804949 
L 410.128197 239.956141 
L 413.69471 232.404722 
L 417.643349 216.272145 
L 421.464612 224.853303 
L 425.413251 219.704608 
L 429.234515 221.42084 
L 433.183154 217.645131 
L 437.131793 221.764086 
L 440.953056 218.674869 
L 444.901695 221.764086 
L 448.722958 217.988377 
L 452.671597 212.15319 
L 456.620236 211.809943 
L 460.186749 206.318002 
L 464.135388 184.006992 
L 467.956651 202.199047 
L 471.90529 203.915278 
L 475.726554 197.736844 
L 479.675193 197.050352 
L 483.623832 193.274642 
L 487.445095 190.528672 
L 491.393734 195.677367 
L 495.214997 187.782701 
L 499.163636 179.888036 
L 503.112275 177.142066 
L 506.678788 181.947514 
L 510.627427 178.515051 
L 514.44869 179.888036 
L 518.397329 180.574529 
L 522.218593 179.888036 
L 526.167232 180.231283 
L 530.115871 188.469194 
L 533.937134 189.155687 
L 537.885773 194.990874 
L 541.707036 204.258524 
L 545.655675 201.8558 
L 549.604314 217.645131 
L 553.298202 224.510057 
L 557.246841 221.764086 
L 561.068105 240.98588 
L 565.016744 254.715732 
L 568.838007 262.953644 
L 572.786646 269.475323 
L 576.735285 275.653757 
L 580.556549 289.726856 
L 584.505187 288.010624 
L 588.326451 301.053984 
L 592.27509 312.037866 
L 596.223729 304.829694 
L 599.790241 316.500068 
L 603.73888 314.097344 
L 607.560144 316.843314 
L 611.508783 314.097344 
L 615.330046 312.381112 
L 619.278685 311.69462 
L 623.227324 304.143201 
L 627.048588 303.799955 
L 630.997227 298.308014 
L 638.767129 267.759092 
L 642.715768 269.475323 
L 646.28228 254.715732 
L 650.230919 235.837185 
L 654.052183 230.345244 
L 658.000822 216.272145 
L 661.822085 193.617889 
L 665.770724 183.320499 
L 669.719363 170.620386 
L 673.540627 138.011986 
L 677.489266 130.803814 
L 681.310529 110.895528 
L 685.259168 100.598138 
L 689.207807 97.508922 
L 692.774319 86.52504 
L 696.722958 68.332985 
L 700.544222 69.019478 
L 704.492861 66.96 
L 708.314124 69.362724 
L 712.262763 71.078956 
L 716.211402 72.108695 
L 720.032666 68.676232 
L 723.981305 70.735709 
L 727.802568 76.22765 
L 731.751207 71.422202 
L 735.699846 75.884404 
L 739.393734 75.884404 
L 743.342373 83.092577 
L 747.163636 82.062838 
L 747.163636 82.062838 
" clip-path="url(#pf80575d336)" style="fill: none; stroke: #a6cee3; stroke-width: 1.5; stroke-linecap: square"/>
   </g>
   <g id="line2d_26">
    <path d="M 138.436364 298.65126 
L 146.206266 301.39723 
L 150.02753 305.516186 
L 153.976168 307.575664 
L 157.924807 299.337753 
L 161.746071 306.202679 
L 165.69471 308.948649 
L 169.515973 313.067605 
L 173.464612 307.232418 
L 177.413251 307.91891 
L 181.107139 307.232418 
L 185.055778 307.91891 
L 188.877042 312.037866 
L 192.825681 312.037866 
L 196.646944 314.783837 
L 200.595583 299.337753 
L 204.544222 310.664881 
L 208.365485 308.605403 
L 212.314124 312.724359 
L 216.135388 309.978388 
L 220.084027 303.799955 
L 224.032666 312.724359 
L 227.599178 308.605403 
L 231.547817 326.110965 
L 235.369081 323.364994 
L 239.31772 329.543428 
L 243.138983 313.410851 
L 247.087622 329.200182 
L 251.036261 326.110965 
L 254.857524 337.781339 
L 258.806163 346.362497 
L 262.627427 342.586788 
L 270.524705 345.332758 
L 278.039856 340.870556 
L 281.86112 342.586788 
L 285.809759 343.616527 
L 289.631022 352.540931 
L 293.579661 356.659886 
L 297.5283 364.897798 
L 301.349563 369.36 
L 305.298202 360.435596 
L 309.119466 354.257162 
L 313.068105 359.749103 
L 317.016744 364.211305 
L 320.583256 358.376118 
L 324.531895 359.062611 
L 328.353159 356.31664 
L 332.301798 351.511192 
L 336.123061 350.481453 
L 340.0717 362.151827 
L 347.841602 358.032872 
L 351.790241 343.616527 
L 355.611505 353.57067 
L 359.560144 346.362497 
L 363.508783 340.184064 
L 367.202671 324.73798 
L 371.15131 315.127083 
L 374.972573 320.96227 
L 378.921212 321.648763 
L 382.742476 322.678502 
L 386.691115 312.724359 
L 390.639753 311.351373 
L 394.461017 286.294393 
L 398.409656 292.472826 
L 402.230919 262.610397 
L 406.179558 257.804949 
L 410.128197 239.956141 
L 413.69471 232.404722 
L 417.643349 216.272145 
L 421.464612 224.853303 
L 425.413251 219.704608 
L 429.234515 221.42084 
L 433.183154 217.645131 
L 437.131793 221.764086 
L 440.953056 218.674869 
L 444.901695 221.764086 
L 448.722958 217.988377 
L 452.671597 212.15319 
L 456.620236 211.809943 
L 460.186749 206.318002 
L 464.135388 184.006992 
L 467.956651 202.199047 
L 471.90529 203.915278 
L 475.726554 197.736844 
L 479.675193 197.050352 
L 483.623832 193.274642 
L 487.445095 190.528672 
L 491.393734 195.677367 
L 495.214997 187.782701 
L 499.163636 179.888036 
L 503.112275 177.142066 
L 506.678788 181.947514 
L 510.627427 178.515051 
L 514.44869 179.888036 
L 518.397329 180.574529 
L 522.218593 179.888036 
L 526.167232 180.231283 
L 530.115871 188.469194 
L 533.937134 189.155687 
L 537.885773 194.990874 
L 541.707036 204.258524 
L 545.655675 201.8558 
L 549.604314 217.645131 
L 553.298202 224.510057 
L 557.246841 221.764086 
L 561.068105 240.98588 
L 565.016744 254.715732 
L 568.838007 262.953644 
L 572.786646 269.475323 
L 576.735285 275.653757 
L 580.556549 289.726856 
L 584.505187 288.010624 
L 588.326451 301.053984 
L 592.27509 312.037866 
L 596.223729 304.829694 
L 599.790241 316.500068 
L 603.73888 314.097344 
L 607.560144 316.843314 
L 611.508783 314.097344 
L 615.330046 312.381112 
L 619.278685 311.69462 
L 623.227324 304.143201 
L 627.048588 303.799955 
L 630.997227 298.308014 
L 638.767129 267.759092 
L 642.715768 269.475323 
L 646.28228 254.715732 
L 650.230919 235.837185 
L 654.052183 230.345244 
L 658.000822 216.272145 
L 661.822085 193.617889 
L 665.770724 183.320499 
L 669.719363 170.620386 
L 673.540627 138.011986 
L 677.489266 130.803814 
L 681.310529 110.895528 
L 685.259168 100.598138 
L 689.207807 97.508922 
L 692.774319 86.52504 
L 696.722958 68.332985 
L 700.544222 69.019478 
L 704.492861 66.96 
L 708.314124 69.362724 
L 712.262763 71.078956 
L 716.211402 72.108695 
L 720.032666 68.676232 
L 723.981305 70.735709 
L 727.802568 76.22765 
L 731.751207 71.422202 
L 735.699846 75.884404 
L 739.393734 75.884404 
L 743.342373 83.092577 
L 747.163636 82.062838 
L 747.163636 82.062838 
" clip-path="url(#pf80575d336)" style="fill: none; stroke: #1f78b4; stroke-width: 1.5; stroke-linecap: square"/>
   </g>
   <g id="patch_3">
    <path d="M 108 384.48 
L 108 51.84 
" style="fill: none; stroke: #000000; stroke-width: 0.8; stroke-linejoin: miter; stroke-linecap: square"/>
   </g>
   <g id="patch_4">
    <path d="M 777.6 384.48 
L 777.6 51.84 
" style="fill: none; stroke: #000000; stroke-width: 0.8; stroke-linejoin: miter; stroke-linecap: square"/>
   </g>
   <g id="patch_5">
    <path d="M 108 384.48 
L 777.6 384.48 
" style="fill: none; stroke: #000000; stroke-width: 0.8; stroke-linejoin: miter; stroke-linecap: square"/>
   </g>
   <g id="patch_6">
    <path d="M 108 51.84 
L 777.6 51.84 
" style="fill: none; stroke: #000000; stroke-width: 0.8; stroke-linejoin: miter; stroke-linecap: square"/>
   </g>
   <g id="text_13">
    <!-- Tasa de Interés de Valores Privados -->
    <g transform="translate(301.9775 45.84) scale(0.14 -0.14)">
     <defs>
      <path id="DejaVuSans-Bold-54" d="M 31 4666 
L 4331 4666 
L 4331 3756 
L 2784 3756 
L 2784 0 
L 1581 0 
L 1581 3756 
L 31 3756 
L 31 4666 
z
" transform="scale(0.015625)"/>
      <path id="DejaVuSans-Bold-61" d="M 2106 1575 
Q 1756 1575 1579 1456 
Q 1403 1338 1403 1106 
Q 1403 894 1545 773 
Q 1688 653 1941 653 
Q 2256 653 2472 879 
Q 2688 1106 2688 1447 
L 2688 1575 
L 2106 1575 
z
M 3816 1997 
L 3816 0 
L 2688 0 
L 2688 519 
Q 2463 200 2181 54 
Q 1900 -91 1497 -91 
Q 953 -91 614 226 
Q 275 544 275 1050 
Q 275 1666 698 1953 
Q 1122 2241 2028 2241 
L 2688 2241 
L 2688 2328 
Q 2688 2594 2478 2717 
Q 2269 2841 1825 2841 
Q 1466 2841 1156 2769 
Q 847 2697 581 2553 
L 581 3406 
Q 941 3494 1303 3539 
Q 1666 3584 2028 3584 
Q 2975 3584 3395 3211 
Q 3816 2838 3816 1997 
z
" transform="scale(0.015625)"/>
      <path id="DejaVuSans-Bold-73" d="M 3272 3391 
L 3272 2541 
Q 2913 2691 2578 2766 
Q 2244 2841 1947 2841 
Q 1628 2841 1473 2761 
Q 1319 2681 1319 2516 
Q 1319 2381 1436 2309 
Q 1553 2238 1856 2203 
L 2053 2175 
Q 2913 2066 3209 1816 
Q 3506 1566 3506 1031 
Q 3506 472 3093 190 
Q 2681 -91 1863 -91 
Q 1516 -91 1145 -36 
Q 775 19 384 128 
L 384 978 
Q 719 816 1070 734 
Q 1422 653 1784 653 
Q 2113 653 2278 743 
Q 2444 834 2444 1013 
Q 2444 1163 2330 1236 
Q 2216 1309 1875 1350 
L 1678 1375 
Q 931 1469 631 1722 
Q 331 1975 331 2491 
Q 331 3047 712 3315 
Q 1094 3584 1881 3584 
Q 2191 3584 2531 3537 
Q 2872 3491 3272 3391 
z
" transform="scale(0.015625)"/>
      <path id="DejaVuSans-Bold-20" transform="scale(0.015625)"/>
      <path id="DejaVuSans-Bold-64" d="M 2919 2988 
L 2919 4863 
L 4044 4863 
L 4044 0 
L 2919 0 
L 2919 506 
Q 2688 197 2409 53 
Q 2131 -91 1766 -91 
Q 1119 -91 703 423 
Q 288 938 288 1747 
Q 288 2556 703 3070 
Q 1119 3584 1766 3584 
Q 2128 3584 2408 3439 
Q 2688 3294 2919 2988 
z
M 2181 722 
Q 2541 722 2730 984 
Q 2919 1247 2919 1747 
Q 2919 2247 2730 2509 
Q 2541 2772 2181 2772 
Q 1825 2772 1636 2509 
Q 1447 2247 1447 1747 
Q 1447 1247 1636 984 
Q 1825 722 2181 722 
z
" transform="scale(0.015625)"/>
      <path id="DejaVuSans-Bold-65" d="M 4031 1759 
L 4031 1441 
L 1416 1441 
Q 1456 1047 1700 850 
Q 1944 653 2381 653 
Q 2734 653 3104 758 
Q 3475 863 3866 1075 
L 3866 213 
Q 3469 63 3072 -14 
Q 2675 -91 2278 -91 
Q 1328 -91 801 392 
Q 275 875 275 1747 
Q 275 2603 792 3093 
Q 1309 3584 2216 3584 
Q 3041 3584 3536 3087 
Q 4031 2591 4031 1759 
z
M 2881 2131 
Q 2881 2450 2695 2645 
Q 2509 2841 2209 2841 
Q 1884 2841 1681 2658 
Q 1478 2475 1428 2131 
L 2881 2131 
z
" transform="scale(0.015625)"/>
      <path id="DejaVuSans-Bold-49" d="M 588 4666 
L 1791 4666 
L 1791 0 
L 588 0 
L 588 4666 
z
" transform="scale(0.015625)"/>
      <path id="DejaVuSans-Bold-6e" d="M 4056 2131 
L 4056 0 
L 2931 0 
L 2931 347 
L 2931 1631 
Q 2931 2084 2911 2256 
Q 2891 2428 2841 2509 
Q 2775 2619 2662 2680 
Q 2550 2741 2406 2741 
Q 2056 2741 1856 2470 
Q 1656 2200 1656 1722 
L 1656 0 
L 538 0 
L 538 3500 
L 1656 3500 
L 1656 2988 
Q 1909 3294 2193 3439 
Q 2478 3584 2822 3584 
Q 3428 3584 3742 3212 
Q 4056 2841 4056 2131 
z
" transform="scale(0.015625)"/>
      <path id="DejaVuSans-Bold-74" d="M 1759 4494 
L 1759 3500 
L 2913 3500 
L 2913 2700 
L 1759 2700 
L 1759 1216 
Q 1759 972 1856 886 
Q 1953 800 2241 800 
L 2816 800 
L 2816 0 
L 1856 0 
Q 1194 0 917 276 
Q 641 553 641 1216 
L 641 2700 
L 84 2700 
L 84 3500 
L 641 3500 
L 641 4494 
L 1759 4494 
z
" transform="scale(0.015625)"/>
      <path id="DejaVuSans-Bold-72" d="M 3138 2547 
Q 2991 2616 2845 2648 
Q 2700 2681 2553 2681 
Q 2122 2681 1889 2404 
Q 1656 2128 1656 1613 
L 1656 0 
L 538 0 
L 538 3500 
L 1656 3500 
L 1656 2925 
Q 1872 3269 2151 3426 
Q 2431 3584 2822 3584 
Q 2878 3584 2943 3579 
Q 3009 3575 3134 3559 
L 3138 2547 
z
" transform="scale(0.015625)"/>
      <path id="DejaVuSans-Bold-e9" d="M 4031 1759 
L 4031 1441 
L 1416 1441 
Q 1456 1047 1700 850 
Q 1944 653 2381 653 
Q 2734 653 3104 758 
Q 3475 863 3866 1075 
L 3866 213 
Q 3469 63 3072 -14 
Q 2675 -91 2278 -91 
Q 1328 -91 801 392 
Q 275 875 275 1747 
Q 275 2603 792 3093 
Q 1309 3584 2216 3584 
Q 3041 3584 3536 3087 
Q 4031 2591 4031 1759 
z
M 2881 2131 
Q 2881 2450 2695 2645 
Q 2509 2841 2209 2841 
Q 1884 2841 1681 2658 
Q 1478 2475 1428 2131 
L 2881 2131 
z
M 2700 5119 
L 3584 5119 
L 2431 3944 
L 1819 3944 
L 2700 5119 
z
" transform="scale(0.015625)"/>
      <path id="DejaVuSans-Bold-56" d="M 31 4666 
L 1241 4666 
L 2478 1222 
L 3713 4666 
L 4922 4666 
L 3194 0 
L 1759 0 
L 31 4666 
z
" transform="scale(0.015625)"/>
      <path id="DejaVuSans-Bold-6c" d="M 538 4863 
L 1656 4863 
L 1656 0 
L 538 0 
L 538 4863 
z
" transform="scale(0.015625)"/>
      <path id="DejaVuSans-Bold-6f" d="M 2203 2784 
Q 1831 2784 1636 2517 
Q 1441 2250 1441 1747 
Q 1441 1244 1636 976 
Q 1831 709 2203 709 
Q 2569 709 2762 976 
Q 2956 1244 2956 1747 
Q 2956 2250 2762 2517 
Q 2569 2784 2203 2784 
z
M 2203 3584 
Q 3106 3584 3614 3096 
Q 4122 2609 4122 1747 
Q 4122 884 3614 396 
Q 3106 -91 2203 -91 
Q 1297 -91 786 396 
Q 275 884 275 1747 
Q 275 2609 786 3096 
Q 1297 3584 2203 3584 
z
" transform="scale(0.015625)"/>
      <path id="DejaVuSans-Bold-50" d="M 588 4666 
L 2584 4666 
Q 3475 4666 3951 4270 
Q 4428 3875 4428 3144 
Q 4428 2409 3951 2014 
Q 3475 1619 2584 1619 
L 1791 1619 
L 1791 0 
L 588 0 
L 588 4666 
z
M 1791 3794 
L 1791 2491 
L 2456 2491 
Q 2806 2491 2997 2661 
Q 3188 2831 3188 3144 
Q 3188 3456 2997 3625 
Q 2806 3794 2456 3794 
L 1791 3794 
z
" transform="scale(0.015625)"/>
      <path id="DejaVuSans-Bold-69" d="M 538 3500 
L 1656 3500 
L 1656 0 
L 538 0 
L 538 3500 
z
M 538 4863 
L 1656 4863 
L 1656 3950 
L 538 3950 
L 538 4863 
z
" transform="scale(0.015625)"/>
      <path id="DejaVuSans-Bold-76" d="M 97 3500 
L 1216 3500 
L 2088 1081 
L 2956 3500 
L 4078 3500 
L 2700 0 
L 1472 0 
L 97 3500 
z
" transform="scale(0.015625)"/>
     </defs>
     <use xlink:href="#DejaVuSans-Bold-54"/>
     <use xlink:href="#DejaVuSans-Bold-61" transform="translate(55.337891 0)"/>
     <use xlink:href="#DejaVuSans-Bold-73" transform="translate(122.818359 0)"/>
     <use xlink:href="#DejaVuSans-Bold-61" transform="translate(182.339844 0)"/>
     <use xlink:href="#DejaVuSans-Bold-20" transform="translate(249.820312 0)"/>
     <use xlink:href="#DejaVuSans-Bold-64" transform="translate(284.634766 0)"/>
     <use xlink:href="#DejaVuSans-Bold-65" transform="translate(356.216797 0)"/>
     <use xlink:href="#DejaVuSans-Bold-20" transform="translate(424.039062 0)"/>
     <use xlink:href="#DejaVuSans-Bold-49" transform="translate(458.853516 0)"/>
     <use xlink:href="#DejaVuSans-Bold-6e" transform="translate(496.060547 0)"/>
     <use xlink:href="#DejaVuSans-Bold-74" transform="translate(567.251953 0)"/>
     <use xlink:href="#DejaVuSans-Bold-65" transform="translate(615.054688 0)"/>
     <use xlink:href="#DejaVuSans-Bold-72" transform="translate(682.876953 0)"/>
     <use xlink:href="#DejaVuSans-Bold-e9" transform="translate(732.193359 0)"/>
     <use xlink:href="#DejaVuSans-Bold-73" transform="translate(800.015625 0)"/>
     <use xlink:href="#DejaVuSans-Bold-20" transform="translate(859.537109 0)"/>
     <use xlink:href="#DejaVuSans-Bold-64" transform="translate(894.351562 0)"/>
     <use xlink:href="#DejaVuSans-Bold-65" transform="translate(965.933594 0)"/>
     <use xlink:href="#DejaVuSans-Bold-20" transform="translate(1033.755859 0)"/>
     <use xlink:href="#DejaVuSans-Bold-56" transform="translate(1068.570312 0)"/>
     <use xlink:href="#DejaVuSans-Bold-61" transform="translate(1140.462891 0)"/>
     <use xlink:href="#DejaVuSans-Bold-6c" transform="translate(1207.943359 0)"/>
     <use xlink:href="#DejaVuSans-Bold-6f" transform="translate(1242.220703 0)"/>
     <use xlink:href="#DejaVuSans-Bold-72" transform="translate(1310.921875 0)"/>
     <use xlink:href="#DejaVuSans-Bold-65" transform="translate(1360.238281 0)"/>
     <use xlink:href="#DejaVuSans-Bold-73" transform="translate(1428.060547 0)"/>
     <use xlink:href="#DejaVuSans-Bold-20" transform="translate(1487.582031 0)"/>
     <use xlink:href="#DejaVuSans-Bold-50" transform="translate(1522.396484 0)"/>
     <use xlink:href="#DejaVuSans-Bold-72" transform="translate(1595.6875 0)"/>
     <use xlink:href="#DejaVuSans-Bold-69" transform="translate(1645.003906 0)"/>
     <use xlink:href="#DejaVuSans-Bold-76" transform="translate(1679.28125 0)"/>
     <use xlink:href="#DejaVuSans-Bold-61" transform="translate(1744.466797 0)"/>
     <use xlink:href="#DejaVuSans-Bold-64" transform="translate(1811.947266 0)"/>
     <use xlink:href="#DejaVuSans-Bold-6f" transform="translate(1883.529297 0)"/>
     <use xlink:href="#DejaVuSans-Bold-73" transform="translate(1952.230469 0)"/>
    </g>
   </g>
   <g id="legend_1">
    <g id="patch_7">
     <path d="M 113.6 82.045 
L 283 82.045 
Q 284.6 82.045 284.6 80.445 
L 284.6 57.44 
Q 284.6 55.84 283 55.84 
L 113.6 55.84 
Q 112 55.84 112 57.44 
L 112 80.445 
Q 112 82.045 113.6 82.045 
z
" style="fill: #ffffff; opacity: 0.8; stroke: #cccccc; stroke-linejoin: miter"/>
    </g>
    <g id="line2d_27">
     <path d="M 115.2 62.31875 
L 123.2 62.31875 
L 131.2 62.31875 
" style="fill: none; stroke: #a6cee3; stroke-width: 1.5; stroke-linecap: square"/>
    </g>
    <g id="text_14">
     <!-- Total corto plazo -->
     <g transform="translate(137.6 65.11875) scale(0.08 -0.08)">
      <defs>
       <path id="DejaVuSans-54" d="M -19 4666 
L 3928 4666 
L 3928 4134 
L 2272 4134 
L 2272 0 
L 1638 0 
L 1638 4134 
L -19 4134 
L -19 4666 
z
" transform="scale(0.015625)"/>
       <path id="DejaVuSans-6f" d="M 1959 3097 
Q 1497 3097 1228 2736 
Q 959 2375 959 1747 
Q 959 1119 1226 758 
Q 1494 397 1959 397 
Q 2419 397 2687 759 
Q 2956 1122 2956 1747 
Q 2956 2369 2687 2733 
Q 2419 3097 1959 3097 
z
M 1959 3584 
Q 2709 3584 3137 3096 
Q 3566 2609 3566 1747 
Q 3566 888 3137 398 
Q 2709 -91 1959 -91 
Q 1206 -91 779 398 
Q 353 888 353 1747 
Q 353 2609 779 3096 
Q 1206 3584 1959 3584 
z
" transform="scale(0.015625)"/>
       <path id="DejaVuSans-74" d="M 1172 4494 
L 1172 3500 
L 2356 3500 
L 2356 3053 
L 1172 3053 
L 1172 1153 
Q 1172 725 1289 603 
Q 1406 481 1766 481 
L 2356 481 
L 2356 0 
L 1766 0 
Q 1100 0 847 248 
Q 594 497 594 1153 
L 594 3053 
L 172 3053 
L 172 3500 
L 594 3500 
L 594 4494 
L 1172 4494 
z
" transform="scale(0.015625)"/>
       <path id="DejaVuSans-61" d="M 2194 1759 
Q 1497 1759 1228 1600 
Q 959 1441 959 1056 
Q 959 750 1161 570 
Q 1363 391 1709 391 
Q 2188 391 2477 730 
Q 2766 1069 2766 1631 
L 2766 1759 
L 2194 1759 
z
M 3341 1997 
L 3341 0 
L 2766 0 
L 2766 531 
Q 2569 213 2275 61 
Q 1981 -91 1556 -91 
Q 1019 -91 701 211 
Q 384 513 384 1019 
Q 384 1609 779 1909 
Q 1175 2209 1959 2209 
L 2766 2209 
L 2766 2266 
Q 2766 2663 2505 2880 
Q 2244 3097 1772 3097 
Q 1472 3097 1187 3025 
Q 903 2953 641 2809 
L 641 3341 
Q 956 3463 1253 3523 
Q 1550 3584 1831 3584 
Q 2591 3584 2966 3190 
Q 3341 2797 3341 1997 
z
" transform="scale(0.015625)"/>
       <path id="DejaVuSans-6c" d="M 603 4863 
L 1178 4863 
L 1178 0 
L 603 0 
L 603 4863 
z
" transform="scale(0.015625)"/>
       <path id="DejaVuSans-20" transform="scale(0.015625)"/>
       <path id="DejaVuSans-63" d="M 3122 3366 
L 3122 2828 
Q 2878 2963 2633 3030 
Q 2388 3097 2138 3097 
Q 1578 3097 1268 2742 
Q 959 2388 959 1747 
Q 959 1106 1268 751 
Q 1578 397 2138 397 
Q 2388 397 2633 464 
Q 2878 531 3122 666 
L 3122 134 
Q 2881 22 2623 -34 
Q 2366 -91 2075 -91 
Q 1284 -91 818 406 
Q 353 903 353 1747 
Q 353 2603 823 3093 
Q 1294 3584 2113 3584 
Q 2378 3584 2631 3529 
Q 2884 3475 3122 3366 
z
" transform="scale(0.015625)"/>
       <path id="DejaVuSans-72" d="M 2631 2963 
Q 2534 3019 2420 3045 
Q 2306 3072 2169 3072 
Q 1681 3072 1420 2755 
Q 1159 2438 1159 1844 
L 1159 0 
L 581 0 
L 581 3500 
L 1159 3500 
L 1159 2956 
Q 1341 3275 1631 3429 
Q 1922 3584 2338 3584 
Q 2397 3584 2469 3576 
Q 2541 3569 2628 3553 
L 2631 2963 
z
" transform="scale(0.015625)"/>
       <path id="DejaVuSans-70" d="M 1159 525 
L 1159 -1331 
L 581 -1331 
L 581 3500 
L 1159 3500 
L 1159 2969 
Q 1341 3281 1617 3432 
Q 1894 3584 2278 3584 
Q 2916 3584 3314 3078 
Q 3713 2572 3713 1747 
Q 3713 922 3314 415 
Q 2916 -91 2278 -91 
Q 1894 -91 1617 61 
Q 1341 213 1159 525 
z
M 3116 1747 
Q 3116 2381 2855 2742 
Q 2594 3103 2138 3103 
Q 1681 3103 1420 2742 
Q 1159 2381 1159 1747 
Q 1159 1113 1420 752 
Q 1681 391 2138 391 
Q 2594 391 2855 752 
Q 3116 1113 3116 1747 
z
" transform="scale(0.015625)"/>
       <path id="DejaVuSans-7a" d="M 353 3500 
L 3084 3500 
L 3084 2975 
L 922 459 
L 3084 459 
L 3084 0 
L 275 0 
L 275 525 
L 2438 3041 
L 353 3041 
L 353 3500 
z
" transform="scale(0.015625)"/>
      </defs>
      <use xlink:href="#DejaVuSans-54"/>
      <use xlink:href="#DejaVuSans-6f" transform="translate(44.083984 0)"/>
      <use xlink:href="#DejaVuSans-74" transform="translate(105.265625 0)"/>
      <use xlink:href="#DejaVuSans-61" transform="translate(144.474609 0)"/>
      <use xlink:href="#DejaVuSans-6c" transform="translate(205.753906 0)"/>
      <use xlink:href="#DejaVuSans-20" transform="translate(233.537109 0)"/>
      <use xlink:href="#DejaVuSans-63" transform="translate(265.324219 0)"/>
      <use xlink:href="#DejaVuSans-6f" transform="translate(320.304688 0)"/>
      <use xlink:href="#DejaVuSans-72" transform="translate(381.486328 0)"/>
      <use xlink:href="#DejaVuSans-74" transform="translate(422.599609 0)"/>
      <use xlink:href="#DejaVuSans-6f" transform="translate(461.808594 0)"/>
      <use xlink:href="#DejaVuSans-20" transform="translate(522.990234 0)"/>
      <use xlink:href="#DejaVuSans-70" transform="translate(554.777344 0)"/>
      <use xlink:href="#DejaVuSans-6c" transform="translate(618.253906 0)"/>
      <use xlink:href="#DejaVuSans-61" transform="translate(646.037109 0)"/>
      <use xlink:href="#DejaVuSans-7a" transform="translate(707.316406 0)"/>
      <use xlink:href="#DejaVuSans-6f" transform="translate(759.806641 0)"/>
     </g>
    </g>
    <g id="line2d_28">
     <path d="M 115.2 74.38125 
L 123.2 74.38125 
L 131.2 74.38125 
" style="fill: none; stroke: #1f78b4; stroke-width: 1.5; stroke-linecap: square"/>
    </g>
    <g id="text_15">
     <!-- Certificados bursátiles a corto plazo -->
     <g transform="translate(137.6 77.18125) scale(0.08 -0.08)">
      <defs>
       <path id="DejaVuSans-43" d="M 4122 4306 
L 4122 3641 
Q 3803 3938 3442 4084 
Q 3081 4231 2675 4231 
Q 1875 4231 1450 3742 
Q 1025 3253 1025 2328 
Q 1025 1406 1450 917 
Q 1875 428 2675 428 
Q 3081 428 3442 575 
Q 3803 722 4122 1019 
L 4122 359 
Q 3791 134 3420 21 
Q 3050 -91 2638 -91 
Q 1578 -91 968 557 
Q 359 1206 359 2328 
Q 359 3453 968 4101 
Q 1578 4750 2638 4750 
Q 3056 4750 3426 4639 
Q 3797 4528 4122 4306 
z
" transform="scale(0.015625)"/>
       <path id="DejaVuSans-65" d="M 3597 1894 
L 3597 1613 
L 953 1613 
Q 991 1019 1311 708 
Q 1631 397 2203 397 
Q 2534 397 2845 478 
Q 3156 559 3463 722 
L 3463 178 
Q 3153 47 2828 -22 
Q 2503 -91 2169 -91 
Q 1331 -91 842 396 
Q 353 884 353 1716 
Q 353 2575 817 3079 
Q 1281 3584 2069 3584 
Q 2775 3584 3186 3129 
Q 3597 2675 3597 1894 
z
M 3022 2063 
Q 3016 2534 2758 2815 
Q 2500 3097 2075 3097 
Q 1594 3097 1305 2825 
Q 1016 2553 972 2059 
L 3022 2063 
z
" transform="scale(0.015625)"/>
       <path id="DejaVuSans-69" d="M 603 3500 
L 1178 3500 
L 1178 0 
L 603 0 
L 603 3500 
z
M 603 4863 
L 1178 4863 
L 1178 4134 
L 603 4134 
L 603 4863 
z
" transform="scale(0.015625)"/>
       <path id="DejaVuSans-66" d="M 2375 4863 
L 2375 4384 
L 1825 4384 
Q 1516 4384 1395 4259 
Q 1275 4134 1275 3809 
L 1275 3500 
L 2222 3500 
L 2222 3053 
L 1275 3053 
L 1275 0 
L 697 0 
L 697 3053 
L 147 3053 
L 147 3500 
L 697 3500 
L 697 3744 
Q 697 4328 969 4595 
Q 1241 4863 1831 4863 
L 2375 4863 
z
" transform="scale(0.015625)"/>
       <path id="DejaVuSans-64" d="M 2906 2969 
L 2906 4863 
L 3481 4863 
L 3481 0 
L 2906 0 
L 2906 525 
Q 2725 213 2448 61 
Q 2172 -91 1784 -91 
Q 1150 -91 751 415 
Q 353 922 353 1747 
Q 353 2572 751 3078 
Q 1150 3584 1784 3584 
Q 2172 3584 2448 3432 
Q 2725 3281 2906 2969 
z
M 947 1747 
Q 947 1113 1208 752 
Q 1469 391 1925 391 
Q 2381 391 2643 752 
Q 2906 1113 2906 1747 
Q 2906 2381 2643 2742 
Q 2381 3103 1925 3103 
Q 1469 3103 1208 2742 
Q 947 2381 947 1747 
z
" transform="scale(0.015625)"/>
       <path id="DejaVuSans-73" d="M 2834 3397 
L 2834 2853 
Q 2591 2978 2328 3040 
Q 2066 3103 1784 3103 
Q 1356 3103 1142 2972 
Q 928 2841 928 2578 
Q 928 2378 1081 2264 
Q 1234 2150 1697 2047 
L 1894 2003 
Q 2506 1872 2764 1633 
Q 3022 1394 3022 966 
Q 3022 478 2636 193 
Q 2250 -91 1575 -91 
Q 1294 -91 989 -36 
Q 684 19 347 128 
L 347 722 
Q 666 556 975 473 
Q 1284 391 1588 391 
Q 1994 391 2212 530 
Q 2431 669 2431 922 
Q 2431 1156 2273 1281 
Q 2116 1406 1581 1522 
L 1381 1569 
Q 847 1681 609 1914 
Q 372 2147 372 2553 
Q 372 3047 722 3315 
Q 1072 3584 1716 3584 
Q 2034 3584 2315 3537 
Q 2597 3491 2834 3397 
z
" transform="scale(0.015625)"/>
       <path id="DejaVuSans-62" d="M 3116 1747 
Q 3116 2381 2855 2742 
Q 2594 3103 2138 3103 
Q 1681 3103 1420 2742 
Q 1159 2381 1159 1747 
Q 1159 1113 1420 752 
Q 1681 391 2138 391 
Q 2594 391 2855 752 
Q 3116 1113 3116 1747 
z
M 1159 2969 
Q 1341 3281 1617 3432 
Q 1894 3584 2278 3584 
Q 2916 3584 3314 3078 
Q 3713 2572 3713 1747 
Q 3713 922 3314 415 
Q 2916 -91 2278 -91 
Q 1894 -91 1617 61 
Q 1341 213 1159 525 
L 1159 0 
L 581 0 
L 581 4863 
L 1159 4863 
L 1159 2969 
z
" transform="scale(0.015625)"/>
       <path id="DejaVuSans-75" d="M 544 1381 
L 544 3500 
L 1119 3500 
L 1119 1403 
Q 1119 906 1312 657 
Q 1506 409 1894 409 
Q 2359 409 2629 706 
Q 2900 1003 2900 1516 
L 2900 3500 
L 3475 3500 
L 3475 0 
L 2900 0 
L 2900 538 
Q 2691 219 2414 64 
Q 2138 -91 1772 -91 
Q 1169 -91 856 284 
Q 544 659 544 1381 
z
M 1991 3584 
L 1991 3584 
z
" transform="scale(0.015625)"/>
       <path id="DejaVuSans-e1" d="M 2194 1759 
Q 1497 1759 1228 1600 
Q 959 1441 959 1056 
Q 959 750 1161 570 
Q 1363 391 1709 391 
Q 2188 391 2477 730 
Q 2766 1069 2766 1631 
L 2766 1759 
L 2194 1759 
z
M 3341 1997 
L 3341 0 
L 2766 0 
L 2766 531 
Q 2569 213 2275 61 
Q 1981 -91 1556 -91 
Q 1019 -91 701 211 
Q 384 513 384 1019 
Q 384 1609 779 1909 
Q 1175 2209 1959 2209 
L 2766 2209 
L 2766 2266 
Q 2766 2663 2505 2880 
Q 2244 3097 1772 3097 
Q 1472 3097 1187 3025 
Q 903 2953 641 2809 
L 641 3341 
Q 956 3463 1253 3523 
Q 1550 3584 1831 3584 
Q 2591 3584 2966 3190 
Q 3341 2797 3341 1997 
z
M 2291 5119 
L 2913 5119 
L 1894 3944 
L 1416 3944 
L 2291 5119 
z
" transform="scale(0.015625)"/>
      </defs>
      <use xlink:href="#DejaVuSans-43"/>
      <use xlink:href="#DejaVuSans-65" transform="translate(69.824219 0)"/>
      <use xlink:href="#DejaVuSans-72" transform="translate(131.347656 0)"/>
      <use xlink:href="#DejaVuSans-74" transform="translate(172.460938 0)"/>
      <use xlink:href="#DejaVuSans-69" transform="translate(211.669922 0)"/>
      <use xlink:href="#DejaVuSans-66" transform="translate(239.453125 0)"/>
      <use xlink:href="#DejaVuSans-69" transform="translate(274.658203 0)"/>
      <use xlink:href="#DejaVuSans-63" transform="translate(302.441406 0)"/>
      <use xlink:href="#DejaVuSans-61" transform="translate(357.421875 0)"/>
      <use xlink:href="#DejaVuSans-64" transform="translate(418.701172 0)"/>
      <use xlink:href="#DejaVuSans-6f" transform="translate(482.177734 0)"/>
      <use xlink:href="#DejaVuSans-73" transform="translate(543.359375 0)"/>
      <use xlink:href="#DejaVuSans-20" transform="translate(595.458984 0)"/>
      <use xlink:href="#DejaVuSans-62" transform="translate(627.246094 0)"/>
      <use xlink:href="#DejaVuSans-75" transform="translate(690.722656 0)"/>
      <use xlink:href="#DejaVuSans-72" transform="translate(754.101562 0)"/>
      <use xlink:href="#DejaVuSans-73" transform="translate(795.214844 0)"/>
      <use xlink:href="#DejaVuSans-e1" transform="translate(847.314453 0)"/>
      <use xlink:href="#DejaVuSans-74" transform="translate(908.59375 0)"/>
      <use xlink:href="#DejaVuSans-69" transform="translate(947.802734 0)"/>
      <use xlink:href="#DejaVuSans-6c" transform="translate(975.585938 0)"/>
      <use xlink:href="#DejaVuSans-65" transform="translate(1003.369141 0)"/>
      <use xlink:href="#DejaVuSans-73" transform="translate(1064.892578 0)"/>
      <use xlink:href="#DejaVuSans-20" transform="translate(1116.992188 0)"/>
      <use xlink:href="#DejaVuSans-61" transform="translate(1148.779297 0)"/>
      <use xlink:href="#DejaVuSans-20" transform="translate(1210.058594 0)"/>
      <use xlink:href="#DejaVuSans-63" transform="translate(1241.845703 0)"/>
      <use xlink:href="#DejaVuSans-6f" transform="translate(1296.826172 0)"/>
      <use xlink:href="#DejaVuSans-72" transform="translate(1358.007812 0)"/>
      <use xlink:href="#DejaVuSans-74" transform="translate(1399.121094 0)"/>
      <use xlink:href="#DejaVuSans-6f" transform="translate(1438.330078 0)"/>
      <use xlink:href="#DejaVuSans-20" transform="translate(1499.511719 0)"/>
      <use xlink:href="#DejaVuSans-70" transform="translate(1531.298828 0)"/>
      <use xlink:href="#DejaVuSans-6c" transform="translate(1594.775391 0)"/>
      <use xlink:href="#DejaVuSans-61" transform="translate(1622.558594 0)"/>
      <use xlink:href="#DejaVuSans-7a" transform="translate(1683.837891 0)"/>
      <use xlink:href="#DejaVuSans-6f" transform="translate(1736.328125 0)"/>
     </g>
    </g>
   </g>
  </g>
 </g>
 <defs>
  <clipPath id="pf80575d336">
   <rect x="108" y="51.84" width="669.6" height="332.64"/>
  </clipPath>
 </defs>
</svg>
