<?xml version="1.0" encoding="utf-8" standalone="no"?>
<!DOCTYPE svg PUBLIC "-//W3C//DTD SVG 1.1//EN"
  "http://www.w3.org/Graphics/SVG/1.1/DTD/svg11.dtd">
<svg xmlns:xlink="http://www.w3.org/1999/xlink" width="864pt" height="432pt" viewBox="0 0 864 432" xmlns="http://www.w3.org/2000/svg" version="1.1">
 <metadata>
  <rdf:RDF xmlns:dc="http://purl.org/dc/elements/1.1/" xmlns:cc="http://creativecommons.org/ns#" xmlns:rdf="http://www.w3.org/1999/02/22-rdf-syntax-ns#">
   <cc:Work>
    <dc:type rdf:resource="http://purl.org/dc/dcmitype/StillImage"/>
    <dc:date>2025-02-23T20:14:45.322105</dc:date>
    <dc:format>image/svg+xml</dc:format>
    <dc:creator>
     <cc:Agent>
      <dc:title>Matplotlib v3.10.0, https://matplotlib.org/</dc:title>
     </cc:Agent>
    </dc:creator>
   </cc:Work>
  </rdf:RDF>
 </metadata>
 <defs>
  <style type="text/css">*{stroke-linejoin: round; stroke-linecap: butt}</style>
 </defs>
 <g id="figure_1">
  <g id="patch_1">
   <path d="M 0 432 
L 864 432 
L 864 0 
L 0 0 
z
" style="fill: #ffffff"/>
  </g>
  <g id="axes_1">
   <g id="patch_2">
    <path d="M 108 384.48 
L 777.6 384.48 
L 777.6 51.84 
L 108 51.84 
z
" style="fill: #ffffff"/>
   </g>
   <g id="matplotlib.axis_1">
    <g id="xtick_1">
     <g id="line2d_1">
      <path d="M 171.963301 384.48 
L 171.963301 51.84 
" clip-path="url(#p0bc3d190ee)" style="fill: none; stroke-dasharray: 2.96,1.28; stroke-dashoffset: 0; stroke: #b0b0b0; stroke-opacity: 0.5; stroke-width: 0.8"/>
     </g>
     <g id="line2d_2">
      <defs>
       <path id="mf810279f98" d="M 0 0 
L 0 3.5 
" style="stroke: #000000; stroke-width: 0.8"/>
      </defs>
      <g>
       <use xlink:href="#mf810279f98" x="171.963301" y="384.48" style="stroke: #000000; stroke-width: 0.8"/>
      </g>
     </g>
     <g id="text_1">
      <!-- 2012 -->
      <g transform="translate(159.238301 399.078438) scale(0.1 -0.1)">
       <defs>
        <path id="DejaVuSans-32" d="M 1228 531 
L 3431 531 
L 3431 0 
L 469 0 
L 469 531 
Q 828 903 1448 1529 
Q 2069 2156 2228 2338 
Q 2531 2678 2651 2914 
Q 2772 3150 2772 3378 
Q 2772 3750 2511 3984 
Q 2250 4219 1831 4219 
Q 1534 4219 1204 4116 
Q 875 4013 500 3803 
L 500 4441 
Q 881 4594 1212 4672 
Q 1544 4750 1819 4750 
Q 2544 4750 2975 4387 
Q 3406 4025 3406 3419 
Q 3406 3131 3298 2873 
Q 3191 2616 2906 2266 
Q 2828 2175 2409 1742 
Q 1991 1309 1228 531 
z
" transform="scale(0.015625)"/>
        <path id="DejaVuSans-30" d="M 2034 4250 
Q 1547 4250 1301 3770 
Q 1056 3291 1056 2328 
Q 1056 1369 1301 889 
Q 1547 409 2034 409 
Q 2525 409 2770 889 
Q 3016 1369 3016 2328 
Q 3016 3291 2770 3770 
Q 2525 4250 2034 4250 
z
M 2034 4750 
Q 2819 4750 3233 4129 
Q 3647 3509 3647 2328 
Q 3647 1150 3233 529 
Q 2819 -91 2034 -91 
Q 1250 -91 836 529 
Q 422 1150 422 2328 
Q 422 3509 836 4129 
Q 1250 4750 2034 4750 
z
" transform="scale(0.015625)"/>
        <path id="DejaVuSans-31" d="M 794 531 
L 1825 531 
L 1825 4091 
L 703 3866 
L 703 4441 
L 1819 4666 
L 2450 4666 
L 2450 531 
L 3481 531 
L 3481 0 
L 794 0 
L 794 531 
z
" transform="scale(0.015625)"/>
       </defs>
       <use xlink:href="#DejaVuSans-32"/>
       <use xlink:href="#DejaVuSans-30" transform="translate(63.623047 0)"/>
       <use xlink:href="#DejaVuSans-31" transform="translate(127.246094 0)"/>
       <use xlink:href="#DejaVuSans-32" transform="translate(190.869141 0)"/>
      </g>
     </g>
    </g>
    <g id="xtick_2">
     <g id="line2d_3">
      <path d="M 261.083998 384.48 
L 261.083998 51.84 
" clip-path="url(#p0bc3d190ee)" style="fill: none; stroke-dasharray: 2.96,1.28; stroke-dashoffset: 0; stroke: #b0b0b0; stroke-opacity: 0.5; stroke-width: 0.8"/>
     </g>
     <g id="line2d_4">
      <g>
       <use xlink:href="#mf810279f98" x="261.083998" y="384.48" style="stroke: #000000; stroke-width: 0.8"/>
      </g>
     </g>
     <g id="text_2">
      <!-- 2014 -->
      <g transform="translate(248.358998 399.078438) scale(0.1 -0.1)">
       <defs>
        <path id="DejaVuSans-34" d="M 2419 4116 
L 825 1625 
L 2419 1625 
L 2419 4116 
z
M 2253 4666 
L 3047 4666 
L 3047 1625 
L 3713 1625 
L 3713 1100 
L 3047 1100 
L 3047 0 
L 2419 0 
L 2419 1100 
L 313 1100 
L 313 1709 
L 2253 4666 
z
" transform="scale(0.015625)"/>
       </defs>
       <use xlink:href="#DejaVuSans-32"/>
       <use xlink:href="#DejaVuSans-30" transform="translate(63.623047 0)"/>
       <use xlink:href="#DejaVuSans-31" transform="translate(127.246094 0)"/>
       <use xlink:href="#DejaVuSans-34" transform="translate(190.869141 0)"/>
      </g>
     </g>
    </g>
    <g id="xtick_3">
     <g id="line2d_5">
      <path d="M 350.082778 384.48 
L 350.082778 51.84 
" clip-path="url(#p0bc3d190ee)" style="fill: none; stroke-dasharray: 2.96,1.28; stroke-dashoffset: 0; stroke: #b0b0b0; stroke-opacity: 0.5; stroke-width: 0.8"/>
     </g>
     <g id="line2d_6">
      <g>
       <use xlink:href="#mf810279f98" x="350.082778" y="384.48" style="stroke: #000000; stroke-width: 0.8"/>
      </g>
     </g>
     <g id="text_3">
      <!-- 2016 -->
      <g transform="translate(337.357778 399.078438) scale(0.1 -0.1)">
       <defs>
        <path id="DejaVuSans-36" d="M 2113 2584 
Q 1688 2584 1439 2293 
Q 1191 2003 1191 1497 
Q 1191 994 1439 701 
Q 1688 409 2113 409 
Q 2538 409 2786 701 
Q 3034 994 3034 1497 
Q 3034 2003 2786 2293 
Q 2538 2584 2113 2584 
z
M 3366 4563 
L 3366 3988 
Q 3128 4100 2886 4159 
Q 2644 4219 2406 4219 
Q 1781 4219 1451 3797 
Q 1122 3375 1075 2522 
Q 1259 2794 1537 2939 
Q 1816 3084 2150 3084 
Q 2853 3084 3261 2657 
Q 3669 2231 3669 1497 
Q 3669 778 3244 343 
Q 2819 -91 2113 -91 
Q 1303 -91 875 529 
Q 447 1150 447 2328 
Q 447 3434 972 4092 
Q 1497 4750 2381 4750 
Q 2619 4750 2861 4703 
Q 3103 4656 3366 4563 
z
" transform="scale(0.015625)"/>
       </defs>
       <use xlink:href="#DejaVuSans-32"/>
       <use xlink:href="#DejaVuSans-30" transform="translate(63.623047 0)"/>
       <use xlink:href="#DejaVuSans-31" transform="translate(127.246094 0)"/>
       <use xlink:href="#DejaVuSans-36" transform="translate(190.869141 0)"/>
      </g>
     </g>
    </g>
    <g id="xtick_4">
     <g id="line2d_7">
      <path d="M 439.203474 384.48 
L 439.203474 51.84 
" clip-path="url(#p0bc3d190ee)" style="fill: none; stroke-dasharray: 2.96,1.28; stroke-dashoffset: 0; stroke: #b0b0b0; stroke-opacity: 0.5; stroke-width: 0.8"/>
     </g>
     <g id="line2d_8">
      <g>
       <use xlink:href="#mf810279f98" x="439.203474" y="384.48" style="stroke: #000000; stroke-width: 0.8"/>
      </g>
     </g>
     <g id="text_4">
      <!-- 2018 -->
      <g transform="translate(426.478474 399.078438) scale(0.1 -0.1)">
       <defs>
        <path id="DejaVuSans-38" d="M 2034 2216 
Q 1584 2216 1326 1975 
Q 1069 1734 1069 1313 
Q 1069 891 1326 650 
Q 1584 409 2034 409 
Q 2484 409 2743 651 
Q 3003 894 3003 1313 
Q 3003 1734 2745 1975 
Q 2488 2216 2034 2216 
z
M 1403 2484 
Q 997 2584 770 2862 
Q 544 3141 544 3541 
Q 544 4100 942 4425 
Q 1341 4750 2034 4750 
Q 2731 4750 3128 4425 
Q 3525 4100 3525 3541 
Q 3525 3141 3298 2862 
Q 3072 2584 2669 2484 
Q 3125 2378 3379 2068 
Q 3634 1759 3634 1313 
Q 3634 634 3220 271 
Q 2806 -91 2034 -91 
Q 1263 -91 848 271 
Q 434 634 434 1313 
Q 434 1759 690 2068 
Q 947 2378 1403 2484 
z
M 1172 3481 
Q 1172 3119 1398 2916 
Q 1625 2713 2034 2713 
Q 2441 2713 2670 2916 
Q 2900 3119 2900 3481 
Q 2900 3844 2670 4047 
Q 2441 4250 2034 4250 
Q 1625 4250 1398 4047 
Q 1172 3844 1172 3481 
z
" transform="scale(0.015625)"/>
       </defs>
       <use xlink:href="#DejaVuSans-32"/>
       <use xlink:href="#DejaVuSans-30" transform="translate(63.623047 0)"/>
       <use xlink:href="#DejaVuSans-31" transform="translate(127.246094 0)"/>
       <use xlink:href="#DejaVuSans-38" transform="translate(190.869141 0)"/>
      </g>
     </g>
    </g>
    <g id="xtick_5">
     <g id="line2d_9">
      <path d="M 528.202254 384.48 
L 528.202254 51.84 
" clip-path="url(#p0bc3d190ee)" style="fill: none; stroke-dasharray: 2.96,1.28; stroke-dashoffset: 0; stroke: #b0b0b0; stroke-opacity: 0.5; stroke-width: 0.8"/>
     </g>
     <g id="line2d_10">
      <g>
       <use xlink:href="#mf810279f98" x="528.202254" y="384.48" style="stroke: #000000; stroke-width: 0.8"/>
      </g>
     </g>
     <g id="text_5">
      <!-- 2020 -->
      <g transform="translate(515.477254 399.078438) scale(0.1 -0.1)">
       <use xlink:href="#DejaVuSans-32"/>
       <use xlink:href="#DejaVuSans-30" transform="translate(63.623047 0)"/>
       <use xlink:href="#DejaVuSans-32" transform="translate(127.246094 0)"/>
       <use xlink:href="#DejaVuSans-30" transform="translate(190.869141 0)"/>
      </g>
     </g>
    </g>
    <g id="xtick_6">
     <g id="line2d_11">
      <path d="M 617.32295 384.48 
L 617.32295 51.84 
" clip-path="url(#p0bc3d190ee)" style="fill: none; stroke-dasharray: 2.96,1.28; stroke-dashoffset: 0; stroke: #b0b0b0; stroke-opacity: 0.5; stroke-width: 0.8"/>
     </g>
     <g id="line2d_12">
      <g>
       <use xlink:href="#mf810279f98" x="617.32295" y="384.48" style="stroke: #000000; stroke-width: 0.8"/>
      </g>
     </g>
     <g id="text_6">
      <!-- 2022 -->
      <g transform="translate(604.59795 399.078438) scale(0.1 -0.1)">
       <use xlink:href="#DejaVuSans-32"/>
       <use xlink:href="#DejaVuSans-30" transform="translate(63.623047 0)"/>
       <use xlink:href="#DejaVuSans-32" transform="translate(127.246094 0)"/>
       <use xlink:href="#DejaVuSans-32" transform="translate(190.869141 0)"/>
      </g>
     </g>
    </g>
    <g id="xtick_7">
     <g id="line2d_13">
      <path d="M 706.32173 384.48 
L 706.32173 51.84 
" clip-path="url(#p0bc3d190ee)" style="fill: none; stroke-dasharray: 2.96,1.28; stroke-dashoffset: 0; stroke: #b0b0b0; stroke-opacity: 0.5; stroke-width: 0.8"/>
     </g>
     <g id="line2d_14">
      <g>
       <use xlink:href="#mf810279f98" x="706.32173" y="384.48" style="stroke: #000000; stroke-width: 0.8"/>
      </g>
     </g>
     <g id="text_7">
      <!-- 2024 -->
      <g transform="translate(693.59673 399.078438) scale(0.1 -0.1)">
       <use xlink:href="#DejaVuSans-32"/>
       <use xlink:href="#DejaVuSans-30" transform="translate(63.623047 0)"/>
       <use xlink:href="#DejaVuSans-32" transform="translate(127.246094 0)"/>
       <use xlink:href="#DejaVuSans-34" transform="translate(190.869141 0)"/>
      </g>
     </g>
    </g>
   </g>
   <g id="matplotlib.axis_2">
    <g id="ytick_1">
     <g id="line2d_15">
      <path d="M 108 334.132318 
L 777.6 334.132318 
" clip-path="url(#p0bc3d190ee)" style="fill: none; stroke-dasharray: 2.96,1.28; stroke-dashoffset: 0; stroke: #b0b0b0; stroke-opacity: 0.5; stroke-width: 0.8"/>
     </g>
     <g id="line2d_16">
      <defs>
       <path id="maa33022d3e" d="M 0 0 
L -3.5 0 
" style="stroke: #000000; stroke-width: 0.8"/>
      </defs>
      <g>
       <use xlink:href="#maa33022d3e" x="108" y="334.132318" style="stroke: #000000; stroke-width: 0.8"/>
      </g>
     </g>
     <g id="text_8">
      <!-- 4 -->
      <g transform="translate(94.6375 337.931537) scale(0.1 -0.1)">
       <use xlink:href="#DejaVuSans-34"/>
      </g>
     </g>
    </g>
    <g id="ytick_2">
     <g id="line2d_17">
      <path d="M 108 264.374533 
L 777.6 264.374533 
" clip-path="url(#p0bc3d190ee)" style="fill: none; stroke-dasharray: 2.96,1.28; stroke-dashoffset: 0; stroke: #b0b0b0; stroke-opacity: 0.5; stroke-width: 0.8"/>
     </g>
     <g id="line2d_18">
      <g>
       <use xlink:href="#maa33022d3e" x="108" y="264.374533" style="stroke: #000000; stroke-width: 0.8"/>
      </g>
     </g>
     <g id="text_9">
      <!-- 6 -->
      <g transform="translate(94.6375 268.173752) scale(0.1 -0.1)">
       <use xlink:href="#DejaVuSans-36"/>
      </g>
     </g>
    </g>
    <g id="ytick_3">
     <g id="line2d_19">
      <path d="M 108 194.616747 
L 777.6 194.616747 
" clip-path="url(#p0bc3d190ee)" style="fill: none; stroke-dasharray: 2.96,1.28; stroke-dashoffset: 0; stroke: #b0b0b0; stroke-opacity: 0.5; stroke-width: 0.8"/>
     </g>
     <g id="line2d_20">
      <g>
       <use xlink:href="#maa33022d3e" x="108" y="194.616747" style="stroke: #000000; stroke-width: 0.8"/>
      </g>
     </g>
     <g id="text_10">
      <!-- 8 -->
      <g transform="translate(94.6375 198.415966) scale(0.1 -0.1)">
       <use xlink:href="#DejaVuSans-38"/>
      </g>
     </g>
    </g>
    <g id="ytick_4">
     <g id="line2d_21">
      <path d="M 108 124.858962 
L 777.6 124.858962 
" clip-path="url(#p0bc3d190ee)" style="fill: none; stroke-dasharray: 2.96,1.28; stroke-dashoffset: 0; stroke: #b0b0b0; stroke-opacity: 0.5; stroke-width: 0.8"/>
     </g>
     <g id="line2d_22">
      <g>
       <use xlink:href="#maa33022d3e" x="108" y="124.858962" style="stroke: #000000; stroke-width: 0.8"/>
      </g>
     </g>
     <g id="text_11">
      <!-- 10 -->
      <g transform="translate(88.275 128.658181) scale(0.1 -0.1)">
       <use xlink:href="#DejaVuSans-31"/>
       <use xlink:href="#DejaVuSans-30" transform="translate(63.623047 0)"/>
      </g>
     </g>
    </g>
    <g id="ytick_5">
     <g id="line2d_23">
      <path d="M 108 55.101176 
L 777.6 55.101176 
" clip-path="url(#p0bc3d190ee)" style="fill: none; stroke-dasharray: 2.96,1.28; stroke-dashoffset: 0; stroke: #b0b0b0; stroke-opacity: 0.5; stroke-width: 0.8"/>
     </g>
     <g id="line2d_24">
      <g>
       <use xlink:href="#maa33022d3e" x="108" y="55.101176" style="stroke: #000000; stroke-width: 0.8"/>
      </g>
     </g>
     <g id="text_12">
      <!-- 12 -->
      <g transform="translate(88.275 58.900395) scale(0.1 -0.1)">
       <use xlink:href="#DejaVuSans-31"/>
       <use xlink:href="#DejaVuSans-32" transform="translate(63.623047 0)"/>
      </g>
     </g>
    </g>
   </g>
   <g id="line2d_25">
    <path d="M 138.436364 316.692872 
L 142.093848 316.692872 
L 145.873248 318.436817 
L 149.530732 316.344083 
L 153.310132 318.436817 
L 157.089533 321.575917 
L 164.526417 320.180761 
L 168.183901 319.134394 
L 171.963301 315.995294 
L 175.742702 316.344083 
L 179.27827 317.041661 
L 183.05767 316.692872 
L 186.715154 316.692872 
L 190.494554 316.344083 
L 194.152038 317.39045 
L 201.710839 316.692872 
L 205.368323 316.692872 
L 209.147723 315.646505 
L 212.805207 316.692872 
L 216.584608 316.344083 
L 220.364008 317.041661 
L 223.77766 316.692872 
L 227.55706 333.783529 
L 231.214544 333.085952 
L 238.651428 333.783529 
L 246.210229 333.783529 
L 253.647113 350.176609 
L 257.304597 350.176609 
L 261.083998 348.781453 
L 264.863398 351.222976 
L 268.27705 350.874187 
L 272.05645 351.222976 
L 275.713934 350.525398 
L 279.493334 350.525398 
L 283.150818 367.616055 
L 286.930219 367.964844 
L 290.709619 367.616055 
L 294.367103 368.662422 
L 298.146503 367.267266 
L 301.803987 367.964844 
L 305.583388 363.430588 
L 309.362788 367.616055 
L 312.77644 366.918478 
L 316.55584 364.128166 
L 320.213324 368.662422 
L 323.992724 367.964844 
L 327.650208 365.523322 
L 331.429609 366.2209 
L 335.209009 365.523322 
L 338.866493 367.267266 
L 342.645893 366.569689 
L 346.303377 366.569689 
L 350.082778 358.547543 
L 353.862178 358.896332 
L 357.397746 340.06173 
L 361.177146 342.503253 
L 364.83463 339.364152 
L 368.614031 340.06173 
L 372.271515 324.715017 
L 376.050915 322.273495 
L 379.830315 323.319862 
L 383.487799 306.577993 
L 387.2672 306.577993 
L 394.704084 273.094256 
L 398.483484 271.6991 
L 401.897136 253.213287 
L 405.676536 241.005675 
L 409.33402 239.26173 
L 413.113421 235.076263 
L 416.770905 226.007751 
L 420.550305 225.658962 
L 424.329705 226.705329 
L 427.987189 226.705329 
L 431.76659 228.100484 
L 435.424074 225.658962 
L 439.203474 218.334394 
L 442.982874 217.288028 
L 446.396526 207.521938 
L 450.175926 210.312249 
L 453.83341 208.568304 
L 457.612811 208.568304 
L 461.270295 202.638893 
L 465.049695 200.546159 
L 468.829095 201.941315 
L 472.486579 200.19737 
L 476.26598 199.151003 
L 479.923464 192.524014 
L 483.702864 184.15308 
L 490.895916 185.548235 
L 494.675316 184.850657 
L 498.3328 184.501869 
L 502.112201 183.455502 
L 505.769685 185.548235 
L 509.549085 184.15308 
L 513.328485 187.640969 
L 516.985969 200.546159 
L 520.76537 201.941315 
L 524.422854 208.917093 
L 528.202254 219.031972 
L 531.981654 220.427128 
L 535.517222 227.751696 
L 539.296623 244.493564 
L 542.954107 264.025744 
L 546.733507 278.32609 
L 550.390991 297.160692 
L 554.170391 298.555848 
L 557.949792 316.344083 
L 561.607276 325.761384 
L 565.386676 325.063806 
L 569.04416 321.924706 
L 572.82356 323.668651 
L 576.602961 324.715017 
L 580.016612 332.388374 
L 583.796013 332.039585 
L 587.453497 332.737163 
L 591.232897 332.388374 
L 594.890381 326.110173 
L 598.669781 324.017439 
L 602.449182 315.646505 
L 606.106666 297.509481 
L 609.886066 303.438893 
L 613.54355 299.951003 
L 617.32295 282.511557 
L 621.102351 280.418824 
L 624.516002 263.328166 
L 628.295403 243.795986 
L 631.952887 245.191142 
L 635.732287 227.054118 
L 639.389771 202.987682 
L 643.169171 201.941315 
L 646.948572 174.038201 
L 650.606056 149.622976 
L 654.385456 150.669343 
L 658.04294 123.115017 
L 661.82234 106.02436 
L 665.601741 106.02436 
L 669.015392 87.887336 
L 672.794793 79.516401 
L 676.452277 77.074879 
L 680.231677 80.213979 
L 683.889161 80.562768 
L 687.668561 80.562768 
L 691.447962 79.167612 
L 695.105446 80.562768 
L 698.884846 80.213979 
L 702.54233 80.562768 
L 706.32173 79.516401 
L 710.101131 81.260346 
L 713.636699 81.609135 
L 717.416099 87.538547 
L 721.073583 89.282491 
L 724.852983 89.63128 
L 728.510467 87.189758 
L 732.289868 89.980069 
L 736.069268 97.653426 
L 739.726752 105.675571 
L 743.506152 106.02436 
L 747.163636 112.651349 
L 747.163636 112.651349 
" clip-path="url(#p0bc3d190ee)" style="fill: none; stroke: #a6cee3; stroke-width: 1.5; stroke-linecap: square"/>
   </g>
   <g id="line2d_26">
    <path d="M 138.436364 315.995294 
L 142.093848 316.344083 
L 145.873248 318.088028 
L 149.530732 316.344083 
L 153.310132 317.739239 
L 157.089533 320.878339 
L 164.526417 320.180761 
L 168.183901 319.483183 
L 171.963301 316.344083 
L 179.27827 317.041661 
L 183.05767 317.041661 
L 190.494554 316.344083 
L 194.152038 317.39045 
L 197.931439 317.39045 
L 201.710839 316.692872 
L 205.368323 316.692872 
L 209.147723 315.995294 
L 212.805207 316.692872 
L 216.584608 316.344083 
L 220.364008 316.692872 
L 223.77766 316.344083 
L 227.55706 333.43474 
L 234.993944 333.43474 
L 242.430829 334.132318 
L 246.210229 334.132318 
L 249.867713 342.503253 
L 253.647113 350.874187 
L 257.304597 350.874187 
L 261.083998 349.82782 
L 264.863398 351.920554 
L 268.27705 351.571765 
L 272.05645 351.920554 
L 275.713934 351.571765 
L 279.493334 351.571765 
L 283.150818 368.662422 
L 286.930219 369.011211 
L 290.709619 368.662422 
L 294.367103 369.36 
L 298.146503 368.313633 
L 301.803987 368.662422 
L 305.583388 365.174533 
L 309.362788 368.662422 
L 312.77644 368.313633 
L 316.55584 366.2209 
L 320.213324 369.36 
L 323.992724 369.011211 
L 327.650208 366.918478 
L 331.429609 367.267266 
L 335.209009 367.267266 
L 338.866493 368.662422 
L 342.645893 367.267266 
L 346.303377 367.616055 
L 350.082778 359.245121 
L 353.862178 359.59391 
L 357.397746 341.108097 
L 361.177146 343.549619 
L 364.83463 340.759308 
L 368.614031 341.108097 
L 372.271515 325.412595 
L 376.050915 323.668651 
L 379.830315 324.715017 
L 383.487799 307.62436 
L 387.2672 307.62436 
L 394.704084 272.745467 
L 398.483484 272.396678 
L 401.897136 254.259654 
L 405.676536 243.098408 
L 409.33402 241.354464 
L 413.113421 236.12263 
L 416.770905 227.054118 
L 420.550305 226.705329 
L 424.329705 227.402907 
L 427.987189 227.402907 
L 431.76659 228.798062 
L 435.424074 226.007751 
L 439.203474 218.683183 
L 442.982874 217.288028 
L 446.396526 208.219516 
L 450.175926 210.312249 
L 453.83341 208.917093 
L 457.612811 208.917093 
L 461.270295 202.638893 
L 465.049695 200.894948 
L 468.829095 202.638893 
L 472.486579 200.894948 
L 476.26598 199.499792 
L 479.923464 192.524014 
L 483.702864 183.455502 
L 490.895916 184.850657 
L 494.675316 184.15308 
L 498.3328 184.15308 
L 502.112201 183.455502 
L 505.769685 185.199446 
L 509.549085 183.804291 
L 513.328485 186.594602 
L 516.985969 200.19737 
L 520.76537 201.592526 
L 524.422854 207.870727 
L 528.202254 218.683183 
L 531.981654 219.031972 
L 535.517222 227.751696 
L 539.296623 244.144775 
L 542.954107 262.979377 
L 546.733507 277.977301 
L 550.390991 296.463114 
L 554.170391 297.509481 
L 557.949792 315.646505 
L 561.607276 325.412595 
L 565.386676 324.715017 
L 569.04416 321.227128 
L 572.82356 323.319862 
L 576.602961 324.715017 
L 580.016612 332.388374 
L 583.796013 332.388374 
L 587.453497 332.737163 
L 591.232897 332.388374 
L 594.890381 325.761384 
L 598.669781 323.668651 
L 602.449182 314.251349 
L 606.106666 297.85827 
L 609.886066 303.438893 
L 613.54355 299.253426 
L 617.32295 282.511557 
L 621.102351 280.070035 
L 628.295403 243.795986 
L 631.952887 244.842353 
L 635.732287 227.054118 
L 639.389771 203.336471 
L 643.169171 201.592526 
L 646.948572 172.991834 
L 650.606056 148.925398 
L 654.385456 149.971765 
L 658.04294 122.766228 
L 661.82234 105.675571 
L 665.601741 105.326782 
L 669.015392 87.887336 
L 672.794793 78.818824 
L 676.452277 77.772457 
L 680.231677 79.516401 
L 683.889161 80.213979 
L 687.668561 80.213979 
L 691.447962 79.516401 
L 695.105446 80.562768 
L 698.884846 79.516401 
L 702.54233 80.562768 
L 706.32173 78.470035 
L 710.101131 80.213979 
L 713.636699 80.562768 
L 717.416099 86.840969 
L 721.073583 88.933702 
L 724.852983 88.584913 
L 728.510467 87.887336 
L 732.289868 88.584913 
L 736.069268 96.955848 
L 739.726752 105.326782 
L 743.506152 104.977993 
L 747.163636 112.302561 
L 747.163636 112.302561 
" clip-path="url(#p0bc3d190ee)" style="fill: none; stroke: #1f78b4; stroke-width: 1.5; stroke-linecap: square"/>
   </g>
   <g id="line2d_27">
    <path d="M 138.436364 317.041661 
L 142.093848 317.39045 
L 145.873248 319.134394 
L 149.530732 316.692872 
L 153.310132 318.436817 
L 157.089533 321.575917 
L 164.526417 320.180761 
L 168.183901 318.785606 
L 171.963301 315.995294 
L 175.742702 316.344083 
L 179.27827 317.041661 
L 183.05767 316.692872 
L 186.715154 316.692872 
L 190.494554 316.344083 
L 194.152038 317.39045 
L 201.710839 316.692872 
L 205.368323 316.692872 
L 209.147723 315.995294 
L 212.805207 316.692872 
L 216.584608 316.344083 
L 220.364008 316.692872 
L 223.77766 316.344083 
L 227.55706 333.783529 
L 231.214544 333.085952 
L 234.993944 333.085952 
L 238.651428 333.783529 
L 246.210229 333.783529 
L 253.647113 350.176609 
L 257.304597 349.82782 
L 261.083998 348.432664 
L 264.863398 351.222976 
L 268.27705 350.525398 
L 272.05645 351.222976 
L 275.713934 350.525398 
L 279.493334 350.525398 
L 283.150818 367.616055 
L 286.930219 367.964844 
L 290.709619 367.616055 
L 294.367103 368.662422 
L 298.146503 366.918478 
L 301.803987 367.964844 
L 305.583388 363.779377 
L 309.362788 367.964844 
L 312.77644 366.918478 
L 316.55584 364.128166 
L 320.213324 368.662422 
L 323.992724 367.964844 
L 327.650208 365.523322 
L 331.429609 366.569689 
L 335.209009 365.523322 
L 338.866493 366.918478 
L 346.303377 366.2209 
L 350.082778 358.198754 
L 353.862178 358.896332 
L 357.397746 340.06173 
L 361.177146 342.852042 
L 364.83463 339.364152 
L 368.614031 340.06173 
L 372.271515 324.715017 
L 376.050915 322.273495 
L 379.830315 323.319862 
L 383.487799 306.577993 
L 387.2672 306.577993 
L 394.704084 272.745467 
L 398.483484 271.350311 
L 401.897136 253.213287 
L 405.676536 241.354464 
L 409.33402 239.26173 
L 413.113421 234.727474 
L 416.770905 226.007751 
L 420.550305 226.007751 
L 424.329705 226.705329 
L 427.987189 226.35654 
L 431.76659 228.100484 
L 435.424074 226.007751 
L 439.203474 218.334394 
L 442.982874 217.288028 
L 446.396526 207.521938 
L 450.175926 210.661038 
L 453.83341 208.568304 
L 457.612811 208.568304 
L 461.270295 202.290104 
L 465.049695 200.546159 
L 468.829095 201.941315 
L 476.26598 199.151003 
L 479.923464 192.175225 
L 483.702864 183.804291 
L 487.482264 184.850657 
L 490.895916 184.850657 
L 494.675316 184.501869 
L 498.3328 184.501869 
L 502.112201 183.455502 
L 505.769685 185.199446 
L 509.549085 183.804291 
L 513.328485 186.594602 
L 516.985969 199.848581 
L 520.76537 200.894948 
L 524.422854 208.917093 
L 528.202254 219.380761 
L 531.981654 220.078339 
L 535.517222 227.751696 
L 539.296623 244.144775 
L 542.954107 264.025744 
L 546.733507 278.32609 
L 550.390991 297.509481 
L 554.170391 298.555848 
L 557.949792 316.344083 
L 561.607276 325.761384 
L 565.386676 325.063806 
L 569.04416 321.924706 
L 572.82356 323.668651 
L 576.602961 324.715017 
L 580.016612 332.388374 
L 583.796013 332.039585 
L 587.453497 332.737163 
L 591.232897 332.388374 
L 594.890381 326.110173 
L 598.669781 324.017439 
L 602.449182 315.646505 
L 606.106666 297.509481 
L 609.886066 303.438893 
L 613.54355 299.951003 
L 617.32295 282.511557 
L 621.102351 280.418824 
L 624.516002 263.328166 
L 628.295403 243.795986 
L 631.952887 245.191142 
L 635.732287 227.054118 
L 639.389771 202.987682 
L 643.169171 201.941315 
L 646.948572 174.38699 
L 650.606056 149.622976 
L 654.385456 150.669343 
L 658.04294 123.463806 
L 661.82234 105.675571 
L 665.601741 106.02436 
L 669.015392 87.887336 
L 672.794793 79.516401 
L 676.452277 77.074879 
L 680.231677 80.213979 
L 683.889161 80.562768 
L 687.668561 80.562768 
L 691.447962 79.516401 
L 695.105446 80.562768 
L 698.884846 80.213979 
L 702.54233 80.562768 
L 706.32173 79.167612 
L 710.101131 81.260346 
L 713.636699 81.260346 
L 717.416099 87.538547 
L 721.073583 88.933702 
L 724.852983 89.282491 
L 728.510467 87.189758 
L 732.289868 89.980069 
L 736.069268 97.653426 
L 739.726752 105.675571 
L 743.506152 106.373149 
L 747.163636 112.651349 
L 747.163636 112.651349 
" clip-path="url(#p0bc3d190ee)" style="fill: none; stroke: #b2df8a; stroke-width: 1.5; stroke-linecap: square"/>
   </g>
   <g id="line2d_28">
    <path d="M 138.436364 305.074713 
L 142.093848 304.834048 
L 145.873248 303.700484 
L 149.530732 304.48526 
L 153.310132 306.05481 
L 157.089533 306.490796 
L 160.747017 306.776803 
L 164.526417 306.166422 
L 168.183901 306.316401 
L 171.963301 306.107128 
L 175.742702 306.515211 
L 179.27827 306.752388 
L 186.715154 307.798754 
L 190.494554 307.973149 
L 194.152038 307.275571 
L 201.710839 306.536138 
L 205.368323 305.967612 
L 209.147723 305.147958 
L 212.805207 304.617799 
L 216.584608 304.572457 
L 220.364008 304.834048 
L 223.77766 306.403599 
L 227.55706 321.882851 
L 231.214544 322.842021 
L 234.993944 323.326837 
L 242.430829 322.971073 
L 246.210229 323.515183 
L 249.867713 333.208028 
L 253.647113 341.620817 
L 257.304597 341.247612 
L 261.083998 341.282491 
L 264.863398 342.137024 
L 272.05645 340.584913 
L 275.713934 341.439446 
L 279.493334 341.857993 
L 283.150818 358.285952 
L 286.930219 358.198754 
L 290.709619 359.035848 
L 294.367103 359.269536 
L 298.146503 359.245121 
L 301.803987 358.669619 
L 305.583388 357.832526 
L 309.362788 358.721938 
L 312.77644 358.592886 
L 316.55584 358.582422 
L 320.213324 358.331294 
L 323.992724 358.547543 
L 327.650208 358.198754 
L 331.429609 358.059239 
L 335.209009 357.326782 
L 338.866493 357.762768 
L 342.645893 358.460346 
L 346.303377 358.142948 
L 350.082778 349.653426 
L 353.862178 349.583668 
L 357.397746 332.060512 
L 361.177146 331.86519 
L 364.83463 331.847751 
L 368.614031 330.644429 
L 372.271515 330.1631 
L 376.050915 313.728166 
L 379.830315 313.379377 
L 383.487799 296.724706 
L 387.2672 295.465578 
L 390.924684 279.250381 
L 394.704084 260.537855 
L 398.483484 258.79391 
L 401.897136 243.2449 
L 405.676536 235.250657 
L 409.33402 233.210242 
L 413.113421 224.263806 
L 416.770905 216.764844 
L 420.550305 216.328858 
L 424.329705 216.311419 
L 427.987189 216.503253 
L 431.76659 216.416055 
L 435.424074 215.854505 
L 439.203474 207.483571 
L 442.982874 206.475571 
L 446.396526 200.567087 
L 450.175926 199.838118 
L 453.83341 199.820678 
L 457.612811 199.674187 
L 461.270295 191.114907 
L 465.049695 191.128858 
L 472.486579 190.43128 
L 476.26598 188.774533 
L 479.923464 183.009052 
L 483.702864 174.048664 
L 487.482264 173.863806 
L 490.895916 175.95654 
L 494.675316 176.654118 
L 498.3328 177.177301 
L 502.112201 176.905246 
L 505.769685 177.571433 
L 509.549085 178.610824 
L 513.328485 185.548235 
L 516.985969 193.657578 
L 520.76537 195.924706 
L 524.422854 202.276152 
L 528.202254 210.137855 
L 531.981654 212.2271 
L 535.517222 219.293564 
L 539.296623 239.610519 
L 542.954107 255.742007 
L 546.733507 273.460484 
L 550.390991 289.337356 
L 554.170391 292.539239 
L 557.949792 307.355792 
L 561.607276 315.001246 
L 565.386676 316.256886 
L 569.04416 317.139322 
L 572.82356 317.37301 
L 576.602961 318.436817 
L 580.016612 324.324374 
L 583.796013 324.104637 
L 591.232897 324.261592 
L 594.890381 315.681384 
L 598.669781 316.222007 
L 602.449182 308.008028 
L 606.106666 307.92083 
L 609.886066 299.340623 
L 613.54355 291.318478 
L 617.32295 274.315017 
L 621.102351 273.565121 
L 624.516002 256.118699 
L 628.295403 239.174533 
L 631.952887 238.128166 
L 635.732287 221.647889 
L 639.389771 193.559917 
L 643.169171 191.826436 
L 650.606056 141.077647 
L 654.385456 138.950035 
L 658.04294 114.622007 
L 661.82234 98.002215 
L 665.601741 96.519862 
L 669.015392 80.423253 
L 672.794793 71.843045 
L 676.452277 70.800166 
L 680.231677 72.659211 
L 683.889161 72.610381 
L 687.668561 72.261592 
L 691.447962 72.296471 
L 695.105446 72.442962 
L 706.32173 72.453426 
L 710.101131 72.498768 
L 713.636699 72.76036 
L 717.416099 81.312664 
L 721.073583 81.609135 
L 724.852983 81.382422 
L 732.289868 81.43474 
L 736.069268 90.060291 
L 739.726752 99.048581 
L 743.506152 100.171682 
L 747.163636 108.291488 
L 747.163636 108.291488 
" clip-path="url(#p0bc3d190ee)" style="fill: none; stroke: #33a02c; stroke-width: 1.5; stroke-linecap: square"/>
   </g>
   <g id="line2d_29">
    <path d="M 138.436364 304.066713 
L 142.093848 303.613287 
L 145.873248 302.218131 
L 149.530732 303.438893 
L 153.310132 304.834048 
L 160.747017 305.880415 
L 164.526417 305.793218 
L 168.183901 306.142007 
L 171.963301 305.695557 
L 175.742702 306.260595 
L 179.27827 306.229204 
L 183.05767 306.752388 
L 186.715154 307.101176 
L 190.494554 307.188374 
L 194.152038 306.257107 
L 197.931439 306.316401 
L 205.368323 305.531626 
L 209.147723 304.119031 
L 216.584608 303.787682 
L 223.77766 306.403599 
L 227.55706 321.970048 
L 234.993944 323.333813 
L 238.651428 322.692042 
L 246.210229 323.410547 
L 249.867713 333.260346 
L 253.647113 341.784747 
L 257.304597 341.282491 
L 261.083998 340.951142 
L 264.863398 341.509204 
L 272.05645 340.759308 
L 275.713934 340.759308 
L 279.493334 341.292955 
L 283.150818 357.937163 
L 286.930219 357.797647 
L 290.709619 358.896332 
L 294.367103 358.798671 
L 298.146503 358.896332 
L 305.583388 357.69301 
L 309.362788 358.442907 
L 312.77644 358.285952 
L 316.55584 357.633716 
L 320.213324 358.128997 
L 323.992724 358.198754 
L 331.429609 357.501176 
L 335.209009 356.542007 
L 338.866493 357.333758 
L 342.645893 357.675571 
L 346.303377 354.937578 
L 350.082778 348.481495 
L 353.862178 348.418713 
L 357.397746 330.839751 
L 361.177146 330.121246 
L 364.83463 330.089855 
L 368.614031 327.069343 
L 372.271515 326.040415 
L 376.050915 310.240277 
L 379.830315 310.676263 
L 383.487799 294.021592 
L 387.2672 292.368332 
L 390.924684 268.821592 
L 394.704084 257.660346 
L 398.483484 251.744886 
L 401.897136 240.112775 
L 405.676536 231.762768 
L 409.33402 231.218657 
L 413.113421 221.037509 
L 416.770905 215.652208 
L 420.550305 216.025412 
L 424.329705 215.980069 
L 427.987189 216.283516 
L 431.76659 215.195294 
L 435.424074 213.712941 
L 439.203474 206.301176 
L 442.982874 203.68526 
L 446.396526 199.318422 
L 450.175926 199.063806 
L 453.83341 199.213785 
L 457.612811 196.709481 
L 461.270295 189.681384 
L 465.049695 189.123322 
L 468.829095 189.416304 
L 472.486579 188.600138 
L 476.26598 185.025052 
L 479.923464 179.09564 
L 483.702864 172.381453 
L 487.482264 173.689412 
L 490.895916 175.701924 
L 494.675316 177.52609 
L 498.3328 177.090104 
L 502.112201 176.392526 
L 505.769685 178.049273 
L 509.549085 180.316401 
L 513.328485 187.204983 
L 516.985969 197.05827 
L 520.76537 202.41218 
L 524.422854 207.835848 
L 528.202254 213.939654 
L 531.981654 215.63128 
L 535.517222 222.202464 
L 539.296623 243.928526 
L 546.733507 274.471972 
L 550.390991 290.777855 
L 554.170391 293.282159 
L 557.949792 307.704581 
L 561.607276 314.86173 
L 565.386676 316.553356 
L 569.04416 317.477647 
L 572.82356 318.122907 
L 576.602961 319.91917 
L 580.016612 325.457938 
L 583.796013 325.447474 
L 587.453497 324.8929 
L 591.232897 325.046367 
L 594.890381 313.728166 
L 598.669781 313.954879 
L 602.449182 306.142007 
L 606.106666 305.566505 
L 609.886066 294.370381 
L 613.54355 285.301869 
L 617.32295 269.431972 
L 621.102351 268.472803 
L 624.516002 250.021869 
L 628.295403 232.285952 
L 631.952887 224.633522 
L 635.732287 210.835433 
L 639.389771 184.414671 
L 643.169171 178.398062 
L 646.948572 157.889273 
L 650.606056 132.619516 
L 654.385456 121.684983 
L 658.04294 102.850381 
L 661.82234 91.288028 
L 665.601741 90.084706 
L 669.015392 75.243737 
L 672.794793 67.884291 
L 676.452277 67.573869 
L 680.231677 72.191834 
L 691.447962 72.376692 
L 698.884846 72.174394 
L 702.54233 72.411571 
L 706.32173 73.412595 
L 710.101131 66.96 
L 713.636699 67.319253 
L 717.416099 74.134588 
L 721.073583 75.927363 
L 724.852983 76.642381 
L 728.510467 75.568111 
L 732.289868 75.927363 
L 736.069268 84.169246 
L 739.726752 92.766893 
L 743.506152 92.766893 
L 747.163636 98.138242 
L 747.163636 98.138242 
" clip-path="url(#p0bc3d190ee)" style="fill: none; stroke: #fb9a99; stroke-width: 1.5; stroke-linecap: square"/>
   </g>
   <g id="line2d_30">
    <path d="M 138.436364 316.692872 
L 223.77766 316.692872 
L 227.55706 334.132318 
L 246.210229 334.132318 
L 249.867713 342.852042 
L 253.647113 351.571765 
L 279.493334 351.571765 
L 283.150818 369.011211 
L 346.303377 369.011211 
L 350.082778 360.291488 
L 353.862178 360.291488 
L 357.397746 342.852042 
L 368.614031 342.852042 
L 372.271515 325.412595 
L 379.830315 325.412595 
L 383.487799 307.973149 
L 387.2672 307.973149 
L 390.924684 290.533702 
L 394.704084 273.094256 
L 398.483484 273.094256 
L 401.897136 255.65481 
L 405.676536 246.935087 
L 409.33402 246.935087 
L 413.113421 238.215363 
L 416.770905 229.49564 
L 435.424074 229.49564 
L 439.203474 220.775917 
L 442.982874 220.775917 
L 446.396526 212.056194 
L 457.612811 212.056194 
L 461.270295 203.336471 
L 476.26598 203.336471 
L 479.923464 194.616747 
L 483.702864 185.897024 
L 509.549085 185.897024 
L 513.328485 194.616747 
L 516.985969 203.336471 
L 520.76537 203.336471 
L 524.422854 212.056194 
L 528.202254 220.775917 
L 531.981654 220.775917 
L 535.517222 229.49564 
L 539.296623 246.935087 
L 542.954107 264.374533 
L 546.733507 281.813979 
L 550.390991 299.253426 
L 554.170391 299.253426 
L 557.949792 316.692872 
L 561.607276 325.412595 
L 576.602961 325.412595 
L 580.016612 334.132318 
L 591.232897 334.132318 
L 594.890381 325.412595 
L 598.669781 325.412595 
L 602.449182 316.692872 
L 606.106666 307.973149 
L 609.886066 307.973149 
L 613.54355 299.253426 
L 617.32295 281.813979 
L 621.102351 281.813979 
L 624.516002 264.374533 
L 628.295403 246.935087 
L 631.952887 246.935087 
L 635.732287 229.49564 
L 639.389771 203.336471 
L 643.169171 203.336471 
L 646.948572 177.177301 
L 650.606056 151.018131 
L 654.385456 151.018131 
L 658.04294 124.858962 
L 661.82234 107.419516 
L 665.601741 107.419516 
L 669.015392 89.980069 
L 672.794793 81.260346 
L 713.636699 81.260346 
L 717.416099 89.980069 
L 732.289868 89.980069 
L 736.069268 98.699792 
L 739.726752 107.419516 
L 743.506152 107.419516 
L 747.163636 116.139239 
L 747.163636 116.139239 
" clip-path="url(#p0bc3d190ee)" style="fill: none; stroke: #e31a1c; stroke-width: 1.5; stroke-linecap: square"/>
   </g>
   <g id="patch_3">
    <path d="M 108 384.48 
L 108 51.84 
" style="fill: none; stroke: #000000; stroke-width: 0.8; stroke-linejoin: miter; stroke-linecap: square"/>
   </g>
   <g id="patch_4">
    <path d="M 777.6 384.48 
L 777.6 51.84 
" style="fill: none; stroke: #000000; stroke-width: 0.8; stroke-linejoin: miter; stroke-linecap: square"/>
   </g>
   <g id="patch_5">
    <path d="M 108 384.48 
L 777.6 384.48 
" style="fill: none; stroke: #000000; stroke-width: 0.8; stroke-linejoin: miter; stroke-linecap: square"/>
   </g>
   <g id="patch_6">
    <path d="M 108 51.84 
L 777.6 51.84 
" style="fill: none; stroke: #000000; stroke-width: 0.8; stroke-linejoin: miter; stroke-linecap: square"/>
   </g>
   <g id="text_13">
    <!-- Tasas de Ínterés Representativas -->
    <g transform="translate(311.516094 45.84) scale(0.14 -0.14)">
     <defs>
      <path id="DejaVuSans-Bold-54" d="M 31 4666 
L 4331 4666 
L 4331 3756 
L 2784 3756 
L 2784 0 
L 1581 0 
L 1581 3756 
L 31 3756 
L 31 4666 
z
" transform="scale(0.015625)"/>
      <path id="DejaVuSans-Bold-61" d="M 2106 1575 
Q 1756 1575 1579 1456 
Q 1403 1338 1403 1106 
Q 1403 894 1545 773 
Q 1688 653 1941 653 
Q 2256 653 2472 879 
Q 2688 1106 2688 1447 
L 2688 1575 
L 2106 1575 
z
M 3816 1997 
L 3816 0 
L 2688 0 
L 2688 519 
Q 2463 200 2181 54 
Q 1900 -91 1497 -91 
Q 953 -91 614 226 
Q 275 544 275 1050 
Q 275 1666 698 1953 
Q 1122 2241 2028 2241 
L 2688 2241 
L 2688 2328 
Q 2688 2594 2478 2717 
Q 2269 2841 1825 2841 
Q 1466 2841 1156 2769 
Q 847 2697 581 2553 
L 581 3406 
Q 941 3494 1303 3539 
Q 1666 3584 2028 3584 
Q 2975 3584 3395 3211 
Q 3816 2838 3816 1997 
z
" transform="scale(0.015625)"/>
      <path id="DejaVuSans-Bold-73" d="M 3272 3391 
L 3272 2541 
Q 2913 2691 2578 2766 
Q 2244 2841 1947 2841 
Q 1628 2841 1473 2761 
Q 1319 2681 1319 2516 
Q 1319 2381 1436 2309 
Q 1553 2238 1856 2203 
L 2053 2175 
Q 2913 2066 3209 1816 
Q 3506 1566 3506 1031 
Q 3506 472 3093 190 
Q 2681 -91 1863 -91 
Q 1516 -91 1145 -36 
Q 775 19 384 128 
L 384 978 
Q 719 816 1070 734 
Q 1422 653 1784 653 
Q 2113 653 2278 743 
Q 2444 834 2444 1013 
Q 2444 1163 2330 1236 
Q 2216 1309 1875 1350 
L 1678 1375 
Q 931 1469 631 1722 
Q 331 1975 331 2491 
Q 331 3047 712 3315 
Q 1094 3584 1881 3584 
Q 2191 3584 2531 3537 
Q 2872 3491 3272 3391 
z
" transform="scale(0.015625)"/>
      <path id="DejaVuSans-Bold-20" transform="scale(0.015625)"/>
      <path id="DejaVuSans-Bold-64" d="M 2919 2988 
L 2919 4863 
L 4044 4863 
L 4044 0 
L 2919 0 
L 2919 506 
Q 2688 197 2409 53 
Q 2131 -91 1766 -91 
Q 1119 -91 703 423 
Q 288 938 288 1747 
Q 288 2556 703 3070 
Q 1119 3584 1766 3584 
Q 2128 3584 2408 3439 
Q 2688 3294 2919 2988 
z
M 2181 722 
Q 2541 722 2730 984 
Q 2919 1247 2919 1747 
Q 2919 2247 2730 2509 
Q 2541 2772 2181 2772 
Q 1825 2772 1636 2509 
Q 1447 2247 1447 1747 
Q 1447 1247 1636 984 
Q 1825 722 2181 722 
z
" transform="scale(0.015625)"/>
      <path id="DejaVuSans-Bold-65" d="M 4031 1759 
L 4031 1441 
L 1416 1441 
Q 1456 1047 1700 850 
Q 1944 653 2381 653 
Q 2734 653 3104 758 
Q 3475 863 3866 1075 
L 3866 213 
Q 3469 63 3072 -14 
Q 2675 -91 2278 -91 
Q 1328 -91 801 392 
Q 275 875 275 1747 
Q 275 2603 792 3093 
Q 1309 3584 2216 3584 
Q 3041 3584 3536 3087 
Q 4031 2591 4031 1759 
z
M 2881 2131 
Q 2881 2450 2695 2645 
Q 2509 2841 2209 2841 
Q 1884 2841 1681 2658 
Q 1478 2475 1428 2131 
L 2881 2131 
z
" transform="scale(0.015625)"/>
      <path id="DejaVuSans-Bold-cd" d="M 588 4666 
L 1791 4666 
L 1791 0 
L 588 0 
L 588 4666 
z
M 1272 5935 
L 2156 5935 
L 1266 5110 
L 653 5110 
L 1272 5935 
z
" transform="scale(0.015625)"/>
      <path id="DejaVuSans-Bold-6e" d="M 4056 2131 
L 4056 0 
L 2931 0 
L 2931 347 
L 2931 1631 
Q 2931 2084 2911 2256 
Q 2891 2428 2841 2509 
Q 2775 2619 2662 2680 
Q 2550 2741 2406 2741 
Q 2056 2741 1856 2470 
Q 1656 2200 1656 1722 
L 1656 0 
L 538 0 
L 538 3500 
L 1656 3500 
L 1656 2988 
Q 1909 3294 2193 3439 
Q 2478 3584 2822 3584 
Q 3428 3584 3742 3212 
Q 4056 2841 4056 2131 
z
" transform="scale(0.015625)"/>
      <path id="DejaVuSans-Bold-74" d="M 1759 4494 
L 1759 3500 
L 2913 3500 
L 2913 2700 
L 1759 2700 
L 1759 1216 
Q 1759 972 1856 886 
Q 1953 800 2241 800 
L 2816 800 
L 2816 0 
L 1856 0 
Q 1194 0 917 276 
Q 641 553 641 1216 
L 641 2700 
L 84 2700 
L 84 3500 
L 641 3500 
L 641 4494 
L 1759 4494 
z
" transform="scale(0.015625)"/>
      <path id="DejaVuSans-Bold-72" d="M 3138 2547 
Q 2991 2616 2845 2648 
Q 2700 2681 2553 2681 
Q 2122 2681 1889 2404 
Q 1656 2128 1656 1613 
L 1656 0 
L 538 0 
L 538 3500 
L 1656 3500 
L 1656 2925 
Q 1872 3269 2151 3426 
Q 2431 3584 2822 3584 
Q 2878 3584 2943 3579 
Q 3009 3575 3134 3559 
L 3138 2547 
z
" transform="scale(0.015625)"/>
      <path id="DejaVuSans-Bold-e9" d="M 4031 1759 
L 4031 1441 
L 1416 1441 
Q 1456 1047 1700 850 
Q 1944 653 2381 653 
Q 2734 653 3104 758 
Q 3475 863 3866 1075 
L 3866 213 
Q 3469 63 3072 -14 
Q 2675 -91 2278 -91 
Q 1328 -91 801 392 
Q 275 875 275 1747 
Q 275 2603 792 3093 
Q 1309 3584 2216 3584 
Q 3041 3584 3536 3087 
Q 4031 2591 4031 1759 
z
M 2881 2131 
Q 2881 2450 2695 2645 
Q 2509 2841 2209 2841 
Q 1884 2841 1681 2658 
Q 1478 2475 1428 2131 
L 2881 2131 
z
M 2700 5119 
L 3584 5119 
L 2431 3944 
L 1819 3944 
L 2700 5119 
z
" transform="scale(0.015625)"/>
      <path id="DejaVuSans-Bold-52" d="M 2297 2597 
Q 2675 2597 2839 2737 
Q 3003 2878 3003 3200 
Q 3003 3519 2839 3656 
Q 2675 3794 2297 3794 
L 1791 3794 
L 1791 2597 
L 2297 2597 
z
M 1791 1766 
L 1791 0 
L 588 0 
L 588 4666 
L 2425 4666 
Q 3347 4666 3776 4356 
Q 4206 4047 4206 3378 
Q 4206 2916 3982 2619 
Q 3759 2322 3309 2181 
Q 3556 2125 3751 1926 
Q 3947 1728 4147 1325 
L 4800 0 
L 3519 0 
L 2950 1159 
Q 2778 1509 2601 1637 
Q 2425 1766 2131 1766 
L 1791 1766 
z
" transform="scale(0.015625)"/>
      <path id="DejaVuSans-Bold-70" d="M 1656 506 
L 1656 -1331 
L 538 -1331 
L 538 3500 
L 1656 3500 
L 1656 2988 
Q 1888 3294 2169 3439 
Q 2450 3584 2816 3584 
Q 3463 3584 3878 3070 
Q 4294 2556 4294 1747 
Q 4294 938 3878 423 
Q 3463 -91 2816 -91 
Q 2450 -91 2169 54 
Q 1888 200 1656 506 
z
M 2400 2772 
Q 2041 2772 1848 2508 
Q 1656 2244 1656 1747 
Q 1656 1250 1848 986 
Q 2041 722 2400 722 
Q 2759 722 2948 984 
Q 3138 1247 3138 1747 
Q 3138 2247 2948 2509 
Q 2759 2772 2400 2772 
z
" transform="scale(0.015625)"/>
      <path id="DejaVuSans-Bold-69" d="M 538 3500 
L 1656 3500 
L 1656 0 
L 538 0 
L 538 3500 
z
M 538 4863 
L 1656 4863 
L 1656 3950 
L 538 3950 
L 538 4863 
z
" transform="scale(0.015625)"/>
      <path id="DejaVuSans-Bold-76" d="M 97 3500 
L 1216 3500 
L 2088 1081 
L 2956 3500 
L 4078 3500 
L 2700 0 
L 1472 0 
L 97 3500 
z
" transform="scale(0.015625)"/>
     </defs>
     <use xlink:href="#DejaVuSans-Bold-54"/>
     <use xlink:href="#DejaVuSans-Bold-61" transform="translate(55.337891 0)"/>
     <use xlink:href="#DejaVuSans-Bold-73" transform="translate(122.818359 0)"/>
     <use xlink:href="#DejaVuSans-Bold-61" transform="translate(182.339844 0)"/>
     <use xlink:href="#DejaVuSans-Bold-73" transform="translate(249.820312 0)"/>
     <use xlink:href="#DejaVuSans-Bold-20" transform="translate(309.341797 0)"/>
     <use xlink:href="#DejaVuSans-Bold-64" transform="translate(344.15625 0)"/>
     <use xlink:href="#DejaVuSans-Bold-65" transform="translate(415.738281 0)"/>
     <use xlink:href="#DejaVuSans-Bold-20" transform="translate(483.560547 0)"/>
     <use xlink:href="#DejaVuSans-Bold-cd" transform="translate(518.375 0)"/>
     <use xlink:href="#DejaVuSans-Bold-6e" transform="translate(555.582031 0)"/>
     <use xlink:href="#DejaVuSans-Bold-74" transform="translate(626.773438 0)"/>
     <use xlink:href="#DejaVuSans-Bold-65" transform="translate(674.576172 0)"/>
     <use xlink:href="#DejaVuSans-Bold-72" transform="translate(742.398438 0)"/>
     <use xlink:href="#DejaVuSans-Bold-e9" transform="translate(791.714844 0)"/>
     <use xlink:href="#DejaVuSans-Bold-73" transform="translate(859.537109 0)"/>
     <use xlink:href="#DejaVuSans-Bold-20" transform="translate(919.058594 0)"/>
     <use xlink:href="#DejaVuSans-Bold-52" transform="translate(953.873047 0)"/>
     <use xlink:href="#DejaVuSans-Bold-65" transform="translate(1030.875 0)"/>
     <use xlink:href="#DejaVuSans-Bold-70" transform="translate(1098.697266 0)"/>
     <use xlink:href="#DejaVuSans-Bold-72" transform="translate(1170.279297 0)"/>
     <use xlink:href="#DejaVuSans-Bold-65" transform="translate(1219.595703 0)"/>
     <use xlink:href="#DejaVuSans-Bold-73" transform="translate(1287.417969 0)"/>
     <use xlink:href="#DejaVuSans-Bold-65" transform="translate(1346.939453 0)"/>
     <use xlink:href="#DejaVuSans-Bold-6e" transform="translate(1414.761719 0)"/>
     <use xlink:href="#DejaVuSans-Bold-74" transform="translate(1485.953125 0)"/>
     <use xlink:href="#DejaVuSans-Bold-61" transform="translate(1533.755859 0)"/>
     <use xlink:href="#DejaVuSans-Bold-74" transform="translate(1601.236328 0)"/>
     <use xlink:href="#DejaVuSans-Bold-69" transform="translate(1649.039062 0)"/>
     <use xlink:href="#DejaVuSans-Bold-76" transform="translate(1683.316406 0)"/>
     <use xlink:href="#DejaVuSans-Bold-61" transform="translate(1748.501953 0)"/>
     <use xlink:href="#DejaVuSans-Bold-73" transform="translate(1815.982422 0)"/>
    </g>
   </g>
   <g id="legend_1">
    <g id="patch_7">
     <path d="M 113.6 128.695 
L 295.55625 128.695 
Q 297.15625 128.695 297.15625 127.095 
L 297.15625 57.44 
Q 297.15625 55.84 295.55625 55.84 
L 113.6 55.84 
Q 112 55.84 112 57.44 
L 112 127.095 
Q 112 128.695 113.6 128.695 
z
" style="fill: #ffffff; opacity: 0.8; stroke: #cccccc; stroke-linejoin: miter"/>
    </g>
    <g id="line2d_31">
     <path d="M 115.2 62.31875 
L 123.2 62.31875 
L 131.2 62.31875 
" style="fill: none; stroke: #a6cee3; stroke-width: 1.5; stroke-linecap: square"/>
    </g>
    <g id="text_14">
     <!-- TIIE de Fondeo a Un Día Hábil Bancario -->
     <g transform="translate(137.6 65.11875) scale(0.08 -0.08)">
      <defs>
       <path id="DejaVuSans-54" d="M -19 4666 
L 3928 4666 
L 3928 4134 
L 2272 4134 
L 2272 0 
L 1638 0 
L 1638 4134 
L -19 4134 
L -19 4666 
z
" transform="scale(0.015625)"/>
       <path id="DejaVuSans-49" d="M 628 4666 
L 1259 4666 
L 1259 0 
L 628 0 
L 628 4666 
z
" transform="scale(0.015625)"/>
       <path id="DejaVuSans-45" d="M 628 4666 
L 3578 4666 
L 3578 4134 
L 1259 4134 
L 1259 2753 
L 3481 2753 
L 3481 2222 
L 1259 2222 
L 1259 531 
L 3634 531 
L 3634 0 
L 628 0 
L 628 4666 
z
" transform="scale(0.015625)"/>
       <path id="DejaVuSans-20" transform="scale(0.015625)"/>
       <path id="DejaVuSans-64" d="M 2906 2969 
L 2906 4863 
L 3481 4863 
L 3481 0 
L 2906 0 
L 2906 525 
Q 2725 213 2448 61 
Q 2172 -91 1784 -91 
Q 1150 -91 751 415 
Q 353 922 353 1747 
Q 353 2572 751 3078 
Q 1150 3584 1784 3584 
Q 2172 3584 2448 3432 
Q 2725 3281 2906 2969 
z
M 947 1747 
Q 947 1113 1208 752 
Q 1469 391 1925 391 
Q 2381 391 2643 752 
Q 2906 1113 2906 1747 
Q 2906 2381 2643 2742 
Q 2381 3103 1925 3103 
Q 1469 3103 1208 2742 
Q 947 2381 947 1747 
z
" transform="scale(0.015625)"/>
       <path id="DejaVuSans-65" d="M 3597 1894 
L 3597 1613 
L 953 1613 
Q 991 1019 1311 708 
Q 1631 397 2203 397 
Q 2534 397 2845 478 
Q 3156 559 3463 722 
L 3463 178 
Q 3153 47 2828 -22 
Q 2503 -91 2169 -91 
Q 1331 -91 842 396 
Q 353 884 353 1716 
Q 353 2575 817 3079 
Q 1281 3584 2069 3584 
Q 2775 3584 3186 3129 
Q 3597 2675 3597 1894 
z
M 3022 2063 
Q 3016 2534 2758 2815 
Q 2500 3097 2075 3097 
Q 1594 3097 1305 2825 
Q 1016 2553 972 2059 
L 3022 2063 
z
" transform="scale(0.015625)"/>
       <path id="DejaVuSans-46" d="M 628 4666 
L 3309 4666 
L 3309 4134 
L 1259 4134 
L 1259 2759 
L 3109 2759 
L 3109 2228 
L 1259 2228 
L 1259 0 
L 628 0 
L 628 4666 
z
" transform="scale(0.015625)"/>
       <path id="DejaVuSans-6f" d="M 1959 3097 
Q 1497 3097 1228 2736 
Q 959 2375 959 1747 
Q 959 1119 1226 758 
Q 1494 397 1959 397 
Q 2419 397 2687 759 
Q 2956 1122 2956 1747 
Q 2956 2369 2687 2733 
Q 2419 3097 1959 3097 
z
M 1959 3584 
Q 2709 3584 3137 3096 
Q 3566 2609 3566 1747 
Q 3566 888 3137 398 
Q 2709 -91 1959 -91 
Q 1206 -91 779 398 
Q 353 888 353 1747 
Q 353 2609 779 3096 
Q 1206 3584 1959 3584 
z
" transform="scale(0.015625)"/>
       <path id="DejaVuSans-6e" d="M 3513 2113 
L 3513 0 
L 2938 0 
L 2938 2094 
Q 2938 2591 2744 2837 
Q 2550 3084 2163 3084 
Q 1697 3084 1428 2787 
Q 1159 2491 1159 1978 
L 1159 0 
L 581 0 
L 581 3500 
L 1159 3500 
L 1159 2956 
Q 1366 3272 1645 3428 
Q 1925 3584 2291 3584 
Q 2894 3584 3203 3211 
Q 3513 2838 3513 2113 
z
" transform="scale(0.015625)"/>
       <path id="DejaVuSans-61" d="M 2194 1759 
Q 1497 1759 1228 1600 
Q 959 1441 959 1056 
Q 959 750 1161 570 
Q 1363 391 1709 391 
Q 2188 391 2477 730 
Q 2766 1069 2766 1631 
L 2766 1759 
L 2194 1759 
z
M 3341 1997 
L 3341 0 
L 2766 0 
L 2766 531 
Q 2569 213 2275 61 
Q 1981 -91 1556 -91 
Q 1019 -91 701 211 
Q 384 513 384 1019 
Q 384 1609 779 1909 
Q 1175 2209 1959 2209 
L 2766 2209 
L 2766 2266 
Q 2766 2663 2505 2880 
Q 2244 3097 1772 3097 
Q 1472 3097 1187 3025 
Q 903 2953 641 2809 
L 641 3341 
Q 956 3463 1253 3523 
Q 1550 3584 1831 3584 
Q 2591 3584 2966 3190 
Q 3341 2797 3341 1997 
z
" transform="scale(0.015625)"/>
       <path id="DejaVuSans-55" d="M 556 4666 
L 1191 4666 
L 1191 1831 
Q 1191 1081 1462 751 
Q 1734 422 2344 422 
Q 2950 422 3222 751 
Q 3494 1081 3494 1831 
L 3494 4666 
L 4128 4666 
L 4128 1753 
Q 4128 841 3676 375 
Q 3225 -91 2344 -91 
Q 1459 -91 1007 375 
Q 556 841 556 1753 
L 556 4666 
z
" transform="scale(0.015625)"/>
       <path id="DejaVuSans-44" d="M 1259 4147 
L 1259 519 
L 2022 519 
Q 2988 519 3436 956 
Q 3884 1394 3884 2338 
Q 3884 3275 3436 3711 
Q 2988 4147 2022 4147 
L 1259 4147 
z
M 628 4666 
L 1925 4666 
Q 3281 4666 3915 4102 
Q 4550 3538 4550 2338 
Q 4550 1131 3912 565 
Q 3275 0 1925 0 
L 628 0 
L 628 4666 
z
" transform="scale(0.015625)"/>
       <path id="DejaVuSans-ed" d="M 1325 5119 
L 1947 5119 
L 928 3944 
L 450 3944 
L 1325 5119 
z
M 603 3500 
L 1178 3500 
L 1178 0 
L 603 0 
L 603 3500 
z
M 891 3584 
L 891 3584 
z
" transform="scale(0.015625)"/>
       <path id="DejaVuSans-48" d="M 628 4666 
L 1259 4666 
L 1259 2753 
L 3553 2753 
L 3553 4666 
L 4184 4666 
L 4184 0 
L 3553 0 
L 3553 2222 
L 1259 2222 
L 1259 0 
L 628 0 
L 628 4666 
z
" transform="scale(0.015625)"/>
       <path id="DejaVuSans-e1" d="M 2194 1759 
Q 1497 1759 1228 1600 
Q 959 1441 959 1056 
Q 959 750 1161 570 
Q 1363 391 1709 391 
Q 2188 391 2477 730 
Q 2766 1069 2766 1631 
L 2766 1759 
L 2194 1759 
z
M 3341 1997 
L 3341 0 
L 2766 0 
L 2766 531 
Q 2569 213 2275 61 
Q 1981 -91 1556 -91 
Q 1019 -91 701 211 
Q 384 513 384 1019 
Q 384 1609 779 1909 
Q 1175 2209 1959 2209 
L 2766 2209 
L 2766 2266 
Q 2766 2663 2505 2880 
Q 2244 3097 1772 3097 
Q 1472 3097 1187 3025 
Q 903 2953 641 2809 
L 641 3341 
Q 956 3463 1253 3523 
Q 1550 3584 1831 3584 
Q 2591 3584 2966 3190 
Q 3341 2797 3341 1997 
z
M 2291 5119 
L 2913 5119 
L 1894 3944 
L 1416 3944 
L 2291 5119 
z
" transform="scale(0.015625)"/>
       <path id="DejaVuSans-62" d="M 3116 1747 
Q 3116 2381 2855 2742 
Q 2594 3103 2138 3103 
Q 1681 3103 1420 2742 
Q 1159 2381 1159 1747 
Q 1159 1113 1420 752 
Q 1681 391 2138 391 
Q 2594 391 2855 752 
Q 3116 1113 3116 1747 
z
M 1159 2969 
Q 1341 3281 1617 3432 
Q 1894 3584 2278 3584 
Q 2916 3584 3314 3078 
Q 3713 2572 3713 1747 
Q 3713 922 3314 415 
Q 2916 -91 2278 -91 
Q 1894 -91 1617 61 
Q 1341 213 1159 525 
L 1159 0 
L 581 0 
L 581 4863 
L 1159 4863 
L 1159 2969 
z
" transform="scale(0.015625)"/>
       <path id="DejaVuSans-69" d="M 603 3500 
L 1178 3500 
L 1178 0 
L 603 0 
L 603 3500 
z
M 603 4863 
L 1178 4863 
L 1178 4134 
L 603 4134 
L 603 4863 
z
" transform="scale(0.015625)"/>
       <path id="DejaVuSans-6c" d="M 603 4863 
L 1178 4863 
L 1178 0 
L 603 0 
L 603 4863 
z
" transform="scale(0.015625)"/>
       <path id="DejaVuSans-42" d="M 1259 2228 
L 1259 519 
L 2272 519 
Q 2781 519 3026 730 
Q 3272 941 3272 1375 
Q 3272 1813 3026 2020 
Q 2781 2228 2272 2228 
L 1259 2228 
z
M 1259 4147 
L 1259 2741 
L 2194 2741 
Q 2656 2741 2882 2914 
Q 3109 3088 3109 3444 
Q 3109 3797 2882 3972 
Q 2656 4147 2194 4147 
L 1259 4147 
z
M 628 4666 
L 2241 4666 
Q 2963 4666 3353 4366 
Q 3744 4066 3744 3513 
Q 3744 3084 3544 2831 
Q 3344 2578 2956 2516 
Q 3422 2416 3680 2098 
Q 3938 1781 3938 1306 
Q 3938 681 3513 340 
Q 3088 0 2303 0 
L 628 0 
L 628 4666 
z
" transform="scale(0.015625)"/>
       <path id="DejaVuSans-63" d="M 3122 3366 
L 3122 2828 
Q 2878 2963 2633 3030 
Q 2388 3097 2138 3097 
Q 1578 3097 1268 2742 
Q 959 2388 959 1747 
Q 959 1106 1268 751 
Q 1578 397 2138 397 
Q 2388 397 2633 464 
Q 2878 531 3122 666 
L 3122 134 
Q 2881 22 2623 -34 
Q 2366 -91 2075 -91 
Q 1284 -91 818 406 
Q 353 903 353 1747 
Q 353 2603 823 3093 
Q 1294 3584 2113 3584 
Q 2378 3584 2631 3529 
Q 2884 3475 3122 3366 
z
" transform="scale(0.015625)"/>
       <path id="DejaVuSans-72" d="M 2631 2963 
Q 2534 3019 2420 3045 
Q 2306 3072 2169 3072 
Q 1681 3072 1420 2755 
Q 1159 2438 1159 1844 
L 1159 0 
L 581 0 
L 581 3500 
L 1159 3500 
L 1159 2956 
Q 1341 3275 1631 3429 
Q 1922 3584 2338 3584 
Q 2397 3584 2469 3576 
Q 2541 3569 2628 3553 
L 2631 2963 
z
" transform="scale(0.015625)"/>
      </defs>
      <use xlink:href="#DejaVuSans-54"/>
      <use xlink:href="#DejaVuSans-49" transform="translate(61.083984 0)"/>
      <use xlink:href="#DejaVuSans-49" transform="translate(90.576172 0)"/>
      <use xlink:href="#DejaVuSans-45" transform="translate(120.068359 0)"/>
      <use xlink:href="#DejaVuSans-20" transform="translate(183.251953 0)"/>
      <use xlink:href="#DejaVuSans-64" transform="translate(215.039062 0)"/>
      <use xlink:href="#DejaVuSans-65" transform="translate(278.515625 0)"/>
      <use xlink:href="#DejaVuSans-20" transform="translate(340.039062 0)"/>
      <use xlink:href="#DejaVuSans-46" transform="translate(371.826172 0)"/>
      <use xlink:href="#DejaVuSans-6f" transform="translate(425.720703 0)"/>
      <use xlink:href="#DejaVuSans-6e" transform="translate(486.902344 0)"/>
      <use xlink:href="#DejaVuSans-64" transform="translate(550.28125 0)"/>
      <use xlink:href="#DejaVuSans-65" transform="translate(613.757812 0)"/>
      <use xlink:href="#DejaVuSans-6f" transform="translate(675.28125 0)"/>
      <use xlink:href="#DejaVuSans-20" transform="translate(736.462891 0)"/>
      <use xlink:href="#DejaVuSans-61" transform="translate(768.25 0)"/>
      <use xlink:href="#DejaVuSans-20" transform="translate(829.529297 0)"/>
      <use xlink:href="#DejaVuSans-55" transform="translate(861.316406 0)"/>
      <use xlink:href="#DejaVuSans-6e" transform="translate(934.509766 0)"/>
      <use xlink:href="#DejaVuSans-20" transform="translate(997.888672 0)"/>
      <use xlink:href="#DejaVuSans-44" transform="translate(1029.675781 0)"/>
      <use xlink:href="#DejaVuSans-ed" transform="translate(1106.677734 0)"/>
      <use xlink:href="#DejaVuSans-61" transform="translate(1134.460938 0)"/>
      <use xlink:href="#DejaVuSans-20" transform="translate(1195.740234 0)"/>
      <use xlink:href="#DejaVuSans-48" transform="translate(1227.527344 0)"/>
      <use xlink:href="#DejaVuSans-e1" transform="translate(1302.722656 0)"/>
      <use xlink:href="#DejaVuSans-62" transform="translate(1364.001953 0)"/>
      <use xlink:href="#DejaVuSans-69" transform="translate(1427.478516 0)"/>
      <use xlink:href="#DejaVuSans-6c" transform="translate(1455.261719 0)"/>
      <use xlink:href="#DejaVuSans-20" transform="translate(1483.044922 0)"/>
      <use xlink:href="#DejaVuSans-42" transform="translate(1514.832031 0)"/>
      <use xlink:href="#DejaVuSans-61" transform="translate(1583.435547 0)"/>
      <use xlink:href="#DejaVuSans-6e" transform="translate(1644.714844 0)"/>
      <use xlink:href="#DejaVuSans-63" transform="translate(1708.09375 0)"/>
      <use xlink:href="#DejaVuSans-61" transform="translate(1763.074219 0)"/>
      <use xlink:href="#DejaVuSans-72" transform="translate(1824.353516 0)"/>
      <use xlink:href="#DejaVuSans-69" transform="translate(1865.466797 0)"/>
      <use xlink:href="#DejaVuSans-6f" transform="translate(1893.25 0)"/>
     </g>
    </g>
    <g id="line2d_32">
     <path d="M 115.2 74.06125 
L 123.2 74.06125 
L 131.2 74.06125 
" style="fill: none; stroke: #1f78b4; stroke-width: 1.5; stroke-linecap: square"/>
    </g>
    <g id="text_15">
     <!-- Tasa de fondeo bancario -->
     <g transform="translate(137.6 76.86125) scale(0.08 -0.08)">
      <defs>
       <path id="DejaVuSans-73" d="M 2834 3397 
L 2834 2853 
Q 2591 2978 2328 3040 
Q 2066 3103 1784 3103 
Q 1356 3103 1142 2972 
Q 928 2841 928 2578 
Q 928 2378 1081 2264 
Q 1234 2150 1697 2047 
L 1894 2003 
Q 2506 1872 2764 1633 
Q 3022 1394 3022 966 
Q 3022 478 2636 193 
Q 2250 -91 1575 -91 
Q 1294 -91 989 -36 
Q 684 19 347 128 
L 347 722 
Q 666 556 975 473 
Q 1284 391 1588 391 
Q 1994 391 2212 530 
Q 2431 669 2431 922 
Q 2431 1156 2273 1281 
Q 2116 1406 1581 1522 
L 1381 1569 
Q 847 1681 609 1914 
Q 372 2147 372 2553 
Q 372 3047 722 3315 
Q 1072 3584 1716 3584 
Q 2034 3584 2315 3537 
Q 2597 3491 2834 3397 
z
" transform="scale(0.015625)"/>
       <path id="DejaVuSans-66" d="M 2375 4863 
L 2375 4384 
L 1825 4384 
Q 1516 4384 1395 4259 
Q 1275 4134 1275 3809 
L 1275 3500 
L 2222 3500 
L 2222 3053 
L 1275 3053 
L 1275 0 
L 697 0 
L 697 3053 
L 147 3053 
L 147 3500 
L 697 3500 
L 697 3744 
Q 697 4328 969 4595 
Q 1241 4863 1831 4863 
L 2375 4863 
z
" transform="scale(0.015625)"/>
      </defs>
      <use xlink:href="#DejaVuSans-54"/>
      <use xlink:href="#DejaVuSans-61" transform="translate(44.583984 0)"/>
      <use xlink:href="#DejaVuSans-73" transform="translate(105.863281 0)"/>
      <use xlink:href="#DejaVuSans-61" transform="translate(157.962891 0)"/>
      <use xlink:href="#DejaVuSans-20" transform="translate(219.242188 0)"/>
      <use xlink:href="#DejaVuSans-64" transform="translate(251.029297 0)"/>
      <use xlink:href="#DejaVuSans-65" transform="translate(314.505859 0)"/>
      <use xlink:href="#DejaVuSans-20" transform="translate(376.029297 0)"/>
      <use xlink:href="#DejaVuSans-66" transform="translate(407.816406 0)"/>
      <use xlink:href="#DejaVuSans-6f" transform="translate(443.021484 0)"/>
      <use xlink:href="#DejaVuSans-6e" transform="translate(504.203125 0)"/>
      <use xlink:href="#DejaVuSans-64" transform="translate(567.582031 0)"/>
      <use xlink:href="#DejaVuSans-65" transform="translate(631.058594 0)"/>
      <use xlink:href="#DejaVuSans-6f" transform="translate(692.582031 0)"/>
      <use xlink:href="#DejaVuSans-20" transform="translate(753.763672 0)"/>
      <use xlink:href="#DejaVuSans-62" transform="translate(785.550781 0)"/>
      <use xlink:href="#DejaVuSans-61" transform="translate(849.027344 0)"/>
      <use xlink:href="#DejaVuSans-6e" transform="translate(910.306641 0)"/>
      <use xlink:href="#DejaVuSans-63" transform="translate(973.685547 0)"/>
      <use xlink:href="#DejaVuSans-61" transform="translate(1028.666016 0)"/>
      <use xlink:href="#DejaVuSans-72" transform="translate(1089.945312 0)"/>
      <use xlink:href="#DejaVuSans-69" transform="translate(1131.058594 0)"/>
      <use xlink:href="#DejaVuSans-6f" transform="translate(1158.841797 0)"/>
     </g>
    </g>
    <g id="line2d_33">
     <path d="M 115.2 85.80375 
L 123.2 85.80375 
L 131.2 85.80375 
" style="fill: none; stroke: #b2df8a; stroke-width: 1.5; stroke-linecap: square"/>
    </g>
    <g id="text_16">
     <!-- Tasa de fondeo gubernamental -->
     <g transform="translate(137.6 88.60375) scale(0.08 -0.08)">
      <defs>
       <path id="DejaVuSans-67" d="M 2906 1791 
Q 2906 2416 2648 2759 
Q 2391 3103 1925 3103 
Q 1463 3103 1205 2759 
Q 947 2416 947 1791 
Q 947 1169 1205 825 
Q 1463 481 1925 481 
Q 2391 481 2648 825 
Q 2906 1169 2906 1791 
z
M 3481 434 
Q 3481 -459 3084 -895 
Q 2688 -1331 1869 -1331 
Q 1566 -1331 1297 -1286 
Q 1028 -1241 775 -1147 
L 775 -588 
Q 1028 -725 1275 -790 
Q 1522 -856 1778 -856 
Q 2344 -856 2625 -561 
Q 2906 -266 2906 331 
L 2906 616 
Q 2728 306 2450 153 
Q 2172 0 1784 0 
Q 1141 0 747 490 
Q 353 981 353 1791 
Q 353 2603 747 3093 
Q 1141 3584 1784 3584 
Q 2172 3584 2450 3431 
Q 2728 3278 2906 2969 
L 2906 3500 
L 3481 3500 
L 3481 434 
z
" transform="scale(0.015625)"/>
       <path id="DejaVuSans-75" d="M 544 1381 
L 544 3500 
L 1119 3500 
L 1119 1403 
Q 1119 906 1312 657 
Q 1506 409 1894 409 
Q 2359 409 2629 706 
Q 2900 1003 2900 1516 
L 2900 3500 
L 3475 3500 
L 3475 0 
L 2900 0 
L 2900 538 
Q 2691 219 2414 64 
Q 2138 -91 1772 -91 
Q 1169 -91 856 284 
Q 544 659 544 1381 
z
M 1991 3584 
L 1991 3584 
z
" transform="scale(0.015625)"/>
       <path id="DejaVuSans-6d" d="M 3328 2828 
Q 3544 3216 3844 3400 
Q 4144 3584 4550 3584 
Q 5097 3584 5394 3201 
Q 5691 2819 5691 2113 
L 5691 0 
L 5113 0 
L 5113 2094 
Q 5113 2597 4934 2840 
Q 4756 3084 4391 3084 
Q 3944 3084 3684 2787 
Q 3425 2491 3425 1978 
L 3425 0 
L 2847 0 
L 2847 2094 
Q 2847 2600 2669 2842 
Q 2491 3084 2119 3084 
Q 1678 3084 1418 2786 
Q 1159 2488 1159 1978 
L 1159 0 
L 581 0 
L 581 3500 
L 1159 3500 
L 1159 2956 
Q 1356 3278 1631 3431 
Q 1906 3584 2284 3584 
Q 2666 3584 2933 3390 
Q 3200 3197 3328 2828 
z
" transform="scale(0.015625)"/>
       <path id="DejaVuSans-74" d="M 1172 4494 
L 1172 3500 
L 2356 3500 
L 2356 3053 
L 1172 3053 
L 1172 1153 
Q 1172 725 1289 603 
Q 1406 481 1766 481 
L 2356 481 
L 2356 0 
L 1766 0 
Q 1100 0 847 248 
Q 594 497 594 1153 
L 594 3053 
L 172 3053 
L 172 3500 
L 594 3500 
L 594 4494 
L 1172 4494 
z
" transform="scale(0.015625)"/>
      </defs>
      <use xlink:href="#DejaVuSans-54"/>
      <use xlink:href="#DejaVuSans-61" transform="translate(44.583984 0)"/>
      <use xlink:href="#DejaVuSans-73" transform="translate(105.863281 0)"/>
      <use xlink:href="#DejaVuSans-61" transform="translate(157.962891 0)"/>
      <use xlink:href="#DejaVuSans-20" transform="translate(219.242188 0)"/>
      <use xlink:href="#DejaVuSans-64" transform="translate(251.029297 0)"/>
      <use xlink:href="#DejaVuSans-65" transform="translate(314.505859 0)"/>
      <use xlink:href="#DejaVuSans-20" transform="translate(376.029297 0)"/>
      <use xlink:href="#DejaVuSans-66" transform="translate(407.816406 0)"/>
      <use xlink:href="#DejaVuSans-6f" transform="translate(443.021484 0)"/>
      <use xlink:href="#DejaVuSans-6e" transform="translate(504.203125 0)"/>
      <use xlink:href="#DejaVuSans-64" transform="translate(567.582031 0)"/>
      <use xlink:href="#DejaVuSans-65" transform="translate(631.058594 0)"/>
      <use xlink:href="#DejaVuSans-6f" transform="translate(692.582031 0)"/>
      <use xlink:href="#DejaVuSans-20" transform="translate(753.763672 0)"/>
      <use xlink:href="#DejaVuSans-67" transform="translate(785.550781 0)"/>
      <use xlink:href="#DejaVuSans-75" transform="translate(849.027344 0)"/>
      <use xlink:href="#DejaVuSans-62" transform="translate(912.40625 0)"/>
      <use xlink:href="#DejaVuSans-65" transform="translate(975.882812 0)"/>
      <use xlink:href="#DejaVuSans-72" transform="translate(1037.40625 0)"/>
      <use xlink:href="#DejaVuSans-6e" transform="translate(1076.769531 0)"/>
      <use xlink:href="#DejaVuSans-61" transform="translate(1140.148438 0)"/>
      <use xlink:href="#DejaVuSans-6d" transform="translate(1201.427734 0)"/>
      <use xlink:href="#DejaVuSans-65" transform="translate(1298.839844 0)"/>
      <use xlink:href="#DejaVuSans-6e" transform="translate(1360.363281 0)"/>
      <use xlink:href="#DejaVuSans-74" transform="translate(1423.742188 0)"/>
      <use xlink:href="#DejaVuSans-61" transform="translate(1462.951172 0)"/>
      <use xlink:href="#DejaVuSans-6c" transform="translate(1524.230469 0)"/>
     </g>
    </g>
    <g id="line2d_34">
     <path d="M 115.2 97.54625 
L 123.2 97.54625 
L 131.2 97.54625 
" style="fill: none; stroke: #33a02c; stroke-width: 1.5; stroke-linecap: square"/>
    </g>
    <g id="text_17">
     <!-- TIIE a 28 días -->
     <g transform="translate(137.6 100.34625) scale(0.08 -0.08)">
      <use xlink:href="#DejaVuSans-54"/>
      <use xlink:href="#DejaVuSans-49" transform="translate(61.083984 0)"/>
      <use xlink:href="#DejaVuSans-49" transform="translate(90.576172 0)"/>
      <use xlink:href="#DejaVuSans-45" transform="translate(120.068359 0)"/>
      <use xlink:href="#DejaVuSans-20" transform="translate(183.251953 0)"/>
      <use xlink:href="#DejaVuSans-61" transform="translate(215.039062 0)"/>
      <use xlink:href="#DejaVuSans-20" transform="translate(276.318359 0)"/>
      <use xlink:href="#DejaVuSans-32" transform="translate(308.105469 0)"/>
      <use xlink:href="#DejaVuSans-38" transform="translate(371.728516 0)"/>
      <use xlink:href="#DejaVuSans-20" transform="translate(435.351562 0)"/>
      <use xlink:href="#DejaVuSans-64" transform="translate(467.138672 0)"/>
      <use xlink:href="#DejaVuSans-ed" transform="translate(530.615234 0)"/>
      <use xlink:href="#DejaVuSans-61" transform="translate(558.398438 0)"/>
      <use xlink:href="#DejaVuSans-73" transform="translate(619.677734 0)"/>
     </g>
    </g>
    <g id="line2d_35">
     <path d="M 115.2 109.28875 
L 123.2 109.28875 
L 131.2 109.28875 
" style="fill: none; stroke: #fb9a99; stroke-width: 1.5; stroke-linecap: square"/>
    </g>
    <g id="text_18">
     <!-- TIIE a 91 días -->
     <g transform="translate(137.6 112.08875) scale(0.08 -0.08)">
      <defs>
       <path id="DejaVuSans-39" d="M 703 97 
L 703 672 
Q 941 559 1184 500 
Q 1428 441 1663 441 
Q 2288 441 2617 861 
Q 2947 1281 2994 2138 
Q 2813 1869 2534 1725 
Q 2256 1581 1919 1581 
Q 1219 1581 811 2004 
Q 403 2428 403 3163 
Q 403 3881 828 4315 
Q 1253 4750 1959 4750 
Q 2769 4750 3195 4129 
Q 3622 3509 3622 2328 
Q 3622 1225 3098 567 
Q 2575 -91 1691 -91 
Q 1453 -91 1209 -44 
Q 966 3 703 97 
z
M 1959 2075 
Q 2384 2075 2632 2365 
Q 2881 2656 2881 3163 
Q 2881 3666 2632 3958 
Q 2384 4250 1959 4250 
Q 1534 4250 1286 3958 
Q 1038 3666 1038 3163 
Q 1038 2656 1286 2365 
Q 1534 2075 1959 2075 
z
" transform="scale(0.015625)"/>
      </defs>
      <use xlink:href="#DejaVuSans-54"/>
      <use xlink:href="#DejaVuSans-49" transform="translate(61.083984 0)"/>
      <use xlink:href="#DejaVuSans-49" transform="translate(90.576172 0)"/>
      <use xlink:href="#DejaVuSans-45" transform="translate(120.068359 0)"/>
      <use xlink:href="#DejaVuSans-20" transform="translate(183.251953 0)"/>
      <use xlink:href="#DejaVuSans-61" transform="translate(215.039062 0)"/>
      <use xlink:href="#DejaVuSans-20" transform="translate(276.318359 0)"/>
      <use xlink:href="#DejaVuSans-39" transform="translate(308.105469 0)"/>
      <use xlink:href="#DejaVuSans-31" transform="translate(371.728516 0)"/>
      <use xlink:href="#DejaVuSans-20" transform="translate(435.351562 0)"/>
      <use xlink:href="#DejaVuSans-64" transform="translate(467.138672 0)"/>
      <use xlink:href="#DejaVuSans-ed" transform="translate(530.615234 0)"/>
      <use xlink:href="#DejaVuSans-61" transform="translate(558.398438 0)"/>
      <use xlink:href="#DejaVuSans-73" transform="translate(619.677734 0)"/>
     </g>
    </g>
    <g id="line2d_36">
     <path d="M 115.2 121.03125 
L 123.2 121.03125 
L 131.2 121.03125 
" style="fill: none; stroke: #e31a1c; stroke-width: 1.5; stroke-linecap: square"/>
    </g>
    <g id="text_19">
     <!-- Tasa objetivo -->
     <g transform="translate(137.6 123.83125) scale(0.08 -0.08)">
      <defs>
       <path id="DejaVuSans-6a" d="M 603 3500 
L 1178 3500 
L 1178 -63 
Q 1178 -731 923 -1031 
Q 669 -1331 103 -1331 
L -116 -1331 
L -116 -844 
L 38 -844 
Q 366 -844 484 -692 
Q 603 -541 603 -63 
L 603 3500 
z
M 603 4863 
L 1178 4863 
L 1178 4134 
L 603 4134 
L 603 4863 
z
" transform="scale(0.015625)"/>
       <path id="DejaVuSans-76" d="M 191 3500 
L 800 3500 
L 1894 563 
L 2988 3500 
L 3597 3500 
L 2284 0 
L 1503 0 
L 191 3500 
z
" transform="scale(0.015625)"/>
      </defs>
      <use xlink:href="#DejaVuSans-54"/>
      <use xlink:href="#DejaVuSans-61" transform="translate(44.583984 0)"/>
      <use xlink:href="#DejaVuSans-73" transform="translate(105.863281 0)"/>
      <use xlink:href="#DejaVuSans-61" transform="translate(157.962891 0)"/>
      <use xlink:href="#DejaVuSans-20" transform="translate(219.242188 0)"/>
      <use xlink:href="#DejaVuSans-6f" transform="translate(251.029297 0)"/>
      <use xlink:href="#DejaVuSans-62" transform="translate(312.210938 0)"/>
      <use xlink:href="#DejaVuSans-6a" transform="translate(375.6875 0)"/>
      <use xlink:href="#DejaVuSans-65" transform="translate(403.470703 0)"/>
      <use xlink:href="#DejaVuSans-74" transform="translate(464.994141 0)"/>
      <use xlink:href="#DejaVuSans-69" transform="translate(504.203125 0)"/>
      <use xlink:href="#DejaVuSans-76" transform="translate(531.986328 0)"/>
      <use xlink:href="#DejaVuSans-6f" transform="translate(591.166016 0)"/>
     </g>
    </g>
   </g>
  </g>
 </g>
 <defs>
  <clipPath id="p0bc3d190ee">
   <rect x="108" y="51.84" width="669.6" height="332.64"/>
  </clipPath>
 </defs>
</svg>
