<?xml version="1.0" encoding="utf-8" standalone="no"?>
<!DOCTYPE svg PUBLIC "-//W3C//DTD SVG 1.1//EN"
  "http://www.w3.org/Graphics/SVG/1.1/DTD/svg11.dtd">
<svg xmlns:xlink="http://www.w3.org/1999/xlink" width="864pt" height="432pt" viewBox="0 0 864 432" xmlns="http://www.w3.org/2000/svg" version="1.1">
 <metadata>
  <rdf:RDF xmlns:dc="http://purl.org/dc/elements/1.1/" xmlns:cc="http://creativecommons.org/ns#" xmlns:rdf="http://www.w3.org/1999/02/22-rdf-syntax-ns#">
   <cc:Work>
    <dc:type rdf:resource="http://purl.org/dc/dcmitype/StillImage"/>
    <dc:date>2025-03-02T13:17:15.710492</dc:date>
    <dc:format>image/svg+xml</dc:format>
    <dc:creator>
     <cc:Agent>
      <dc:title>Matplotlib v3.10.0, https://matplotlib.org/</dc:title>
     </cc:Agent>
    </dc:creator>
   </cc:Work>
  </rdf:RDF>
 </metadata>
 <defs>
  <style type="text/css">*{stroke-linejoin: round; stroke-linecap: butt}</style>
 </defs>
 <g id="figure_1">
  <g id="patch_1">
   <path d="M 0 432 
L 864 432 
L 864 0 
L 0 0 
z
" style="fill: #ffffff"/>
  </g>
  <g id="axes_1">
   <g id="patch_2">
    <path d="M 108 384.48 
L 777.6 384.48 
L 777.6 51.84 
L 108 51.84 
z
" style="fill: #ffffff"/>
   </g>
   <g id="matplotlib.axis_1">
    <g id="xtick_1">
     <g id="line2d_1">
      <path d="M 173.464612 384.48 
L 173.464612 51.84 
" clip-path="url(#pff873d4e77)" style="fill: none; stroke-dasharray: 2.96,1.28; stroke-dashoffset: 0; stroke: #b0b0b0; stroke-opacity: 0.5; stroke-width: 0.8"/>
     </g>
     <g id="line2d_2">
      <defs>
       <path id="meb2893e55d" d="M 0 0 
L 0 3.5 
" style="stroke: #000000; stroke-width: 0.8"/>
      </defs>
      <g>
       <use xlink:href="#meb2893e55d" x="173.464612" y="384.48" style="stroke: #000000; stroke-width: 0.8"/>
      </g>
     </g>
     <g id="text_1">
      <!-- 2012 -->
      <g transform="translate(160.739612 399.078438) scale(0.1 -0.1)">
       <defs>
        <path id="DejaVuSans-32" d="M 1228 531 
L 3431 531 
L 3431 0 
L 469 0 
L 469 531 
Q 828 903 1448 1529 
Q 2069 2156 2228 2338 
Q 2531 2678 2651 2914 
Q 2772 3150 2772 3378 
Q 2772 3750 2511 3984 
Q 2250 4219 1831 4219 
Q 1534 4219 1204 4116 
Q 875 4013 500 3803 
L 500 4441 
Q 881 4594 1212 4672 
Q 1544 4750 1819 4750 
Q 2544 4750 2975 4387 
Q 3406 4025 3406 3419 
Q 3406 3131 3298 2873 
Q 3191 2616 2906 2266 
Q 2828 2175 2409 1742 
Q 1991 1309 1228 531 
z
" transform="scale(0.015625)"/>
        <path id="DejaVuSans-30" d="M 2034 4250 
Q 1547 4250 1301 3770 
Q 1056 3291 1056 2328 
Q 1056 1369 1301 889 
Q 1547 409 2034 409 
Q 2525 409 2770 889 
Q 3016 1369 3016 2328 
Q 3016 3291 2770 3770 
Q 2525 4250 2034 4250 
z
M 2034 4750 
Q 2819 4750 3233 4129 
Q 3647 3509 3647 2328 
Q 3647 1150 3233 529 
Q 2819 -91 2034 -91 
Q 1250 -91 836 529 
Q 422 1150 422 2328 
Q 422 3509 836 4129 
Q 1250 4750 2034 4750 
z
" transform="scale(0.015625)"/>
        <path id="DejaVuSans-31" d="M 794 531 
L 1825 531 
L 1825 4091 
L 703 3866 
L 703 4441 
L 1819 4666 
L 2450 4666 
L 2450 531 
L 3481 531 
L 3481 0 
L 794 0 
L 794 531 
z
" transform="scale(0.015625)"/>
       </defs>
       <use xlink:href="#DejaVuSans-32"/>
       <use xlink:href="#DejaVuSans-30" transform="translate(63.623047 0)"/>
       <use xlink:href="#DejaVuSans-31" transform="translate(127.246094 0)"/>
       <use xlink:href="#DejaVuSans-32" transform="translate(190.869141 0)"/>
      </g>
     </g>
    </g>
    <g id="xtick_2">
     <g id="line2d_3">
      <path d="M 266.576066 384.48 
L 266.576066 51.84 
" clip-path="url(#pff873d4e77)" style="fill: none; stroke-dasharray: 2.96,1.28; stroke-dashoffset: 0; stroke: #b0b0b0; stroke-opacity: 0.5; stroke-width: 0.8"/>
     </g>
     <g id="line2d_4">
      <g>
       <use xlink:href="#meb2893e55d" x="266.576066" y="384.48" style="stroke: #000000; stroke-width: 0.8"/>
      </g>
     </g>
     <g id="text_2">
      <!-- 2014 -->
      <g transform="translate(253.851066 399.078438) scale(0.1 -0.1)">
       <defs>
        <path id="DejaVuSans-34" d="M 2419 4116 
L 825 1625 
L 2419 1625 
L 2419 4116 
z
M 2253 4666 
L 3047 4666 
L 3047 1625 
L 3713 1625 
L 3713 1100 
L 3047 1100 
L 3047 0 
L 2419 0 
L 2419 1100 
L 313 1100 
L 313 1709 
L 2253 4666 
z
" transform="scale(0.015625)"/>
       </defs>
       <use xlink:href="#DejaVuSans-32"/>
       <use xlink:href="#DejaVuSans-30" transform="translate(63.623047 0)"/>
       <use xlink:href="#DejaVuSans-31" transform="translate(127.246094 0)"/>
       <use xlink:href="#DejaVuSans-34" transform="translate(190.869141 0)"/>
      </g>
     </g>
    </g>
    <g id="xtick_3">
     <g id="line2d_5">
      <path d="M 359.560144 384.48 
L 359.560144 51.84 
" clip-path="url(#pff873d4e77)" style="fill: none; stroke-dasharray: 2.96,1.28; stroke-dashoffset: 0; stroke: #b0b0b0; stroke-opacity: 0.5; stroke-width: 0.8"/>
     </g>
     <g id="line2d_6">
      <g>
       <use xlink:href="#meb2893e55d" x="359.560144" y="384.48" style="stroke: #000000; stroke-width: 0.8"/>
      </g>
     </g>
     <g id="text_3">
      <!-- 2016 -->
      <g transform="translate(346.835144 399.078438) scale(0.1 -0.1)">
       <defs>
        <path id="DejaVuSans-36" d="M 2113 2584 
Q 1688 2584 1439 2293 
Q 1191 2003 1191 1497 
Q 1191 994 1439 701 
Q 1688 409 2113 409 
Q 2538 409 2786 701 
Q 3034 994 3034 1497 
Q 3034 2003 2786 2293 
Q 2538 2584 2113 2584 
z
M 3366 4563 
L 3366 3988 
Q 3128 4100 2886 4159 
Q 2644 4219 2406 4219 
Q 1781 4219 1451 3797 
Q 1122 3375 1075 2522 
Q 1259 2794 1537 2939 
Q 1816 3084 2150 3084 
Q 2853 3084 3261 2657 
Q 3669 2231 3669 1497 
Q 3669 778 3244 343 
Q 2819 -91 2113 -91 
Q 1303 -91 875 529 
Q 447 1150 447 2328 
Q 447 3434 972 4092 
Q 1497 4750 2381 4750 
Q 2619 4750 2861 4703 
Q 3103 4656 3366 4563 
z
" transform="scale(0.015625)"/>
       </defs>
       <use xlink:href="#DejaVuSans-32"/>
       <use xlink:href="#DejaVuSans-30" transform="translate(63.623047 0)"/>
       <use xlink:href="#DejaVuSans-31" transform="translate(127.246094 0)"/>
       <use xlink:href="#DejaVuSans-36" transform="translate(190.869141 0)"/>
      </g>
     </g>
    </g>
    <g id="xtick_4">
     <g id="line2d_7">
      <path d="M 452.671597 384.48 
L 452.671597 51.84 
" clip-path="url(#pff873d4e77)" style="fill: none; stroke-dasharray: 2.96,1.28; stroke-dashoffset: 0; stroke: #b0b0b0; stroke-opacity: 0.5; stroke-width: 0.8"/>
     </g>
     <g id="line2d_8">
      <g>
       <use xlink:href="#meb2893e55d" x="452.671597" y="384.48" style="stroke: #000000; stroke-width: 0.8"/>
      </g>
     </g>
     <g id="text_4">
      <!-- 2018 -->
      <g transform="translate(439.946597 399.078438) scale(0.1 -0.1)">
       <defs>
        <path id="DejaVuSans-38" d="M 2034 2216 
Q 1584 2216 1326 1975 
Q 1069 1734 1069 1313 
Q 1069 891 1326 650 
Q 1584 409 2034 409 
Q 2484 409 2743 651 
Q 3003 894 3003 1313 
Q 3003 1734 2745 1975 
Q 2488 2216 2034 2216 
z
M 1403 2484 
Q 997 2584 770 2862 
Q 544 3141 544 3541 
Q 544 4100 942 4425 
Q 1341 4750 2034 4750 
Q 2731 4750 3128 4425 
Q 3525 4100 3525 3541 
Q 3525 3141 3298 2862 
Q 3072 2584 2669 2484 
Q 3125 2378 3379 2068 
Q 3634 1759 3634 1313 
Q 3634 634 3220 271 
Q 2806 -91 2034 -91 
Q 1263 -91 848 271 
Q 434 634 434 1313 
Q 434 1759 690 2068 
Q 947 2378 1403 2484 
z
M 1172 3481 
Q 1172 3119 1398 2916 
Q 1625 2713 2034 2713 
Q 2441 2713 2670 2916 
Q 2900 3119 2900 3481 
Q 2900 3844 2670 4047 
Q 2441 4250 2034 4250 
Q 1625 4250 1398 4047 
Q 1172 3844 1172 3481 
z
" transform="scale(0.015625)"/>
       </defs>
       <use xlink:href="#DejaVuSans-32"/>
       <use xlink:href="#DejaVuSans-30" transform="translate(63.623047 0)"/>
       <use xlink:href="#DejaVuSans-31" transform="translate(127.246094 0)"/>
       <use xlink:href="#DejaVuSans-38" transform="translate(190.869141 0)"/>
      </g>
     </g>
    </g>
    <g id="xtick_5">
     <g id="line2d_9">
      <path d="M 545.655675 384.48 
L 545.655675 51.84 
" clip-path="url(#pff873d4e77)" style="fill: none; stroke-dasharray: 2.96,1.28; stroke-dashoffset: 0; stroke: #b0b0b0; stroke-opacity: 0.5; stroke-width: 0.8"/>
     </g>
     <g id="line2d_10">
      <g>
       <use xlink:href="#meb2893e55d" x="545.655675" y="384.48" style="stroke: #000000; stroke-width: 0.8"/>
      </g>
     </g>
     <g id="text_5">
      <!-- 2020 -->
      <g transform="translate(532.930675 399.078438) scale(0.1 -0.1)">
       <use xlink:href="#DejaVuSans-32"/>
       <use xlink:href="#DejaVuSans-30" transform="translate(63.623047 0)"/>
       <use xlink:href="#DejaVuSans-32" transform="translate(127.246094 0)"/>
       <use xlink:href="#DejaVuSans-30" transform="translate(190.869141 0)"/>
      </g>
     </g>
    </g>
    <g id="xtick_6">
     <g id="line2d_11">
      <path d="M 638.767129 384.48 
L 638.767129 51.84 
" clip-path="url(#pff873d4e77)" style="fill: none; stroke-dasharray: 2.96,1.28; stroke-dashoffset: 0; stroke: #b0b0b0; stroke-opacity: 0.5; stroke-width: 0.8"/>
     </g>
     <g id="line2d_12">
      <g>
       <use xlink:href="#meb2893e55d" x="638.767129" y="384.48" style="stroke: #000000; stroke-width: 0.8"/>
      </g>
     </g>
     <g id="text_6">
      <!-- 2022 -->
      <g transform="translate(626.042129 399.078438) scale(0.1 -0.1)">
       <use xlink:href="#DejaVuSans-32"/>
       <use xlink:href="#DejaVuSans-30" transform="translate(63.623047 0)"/>
       <use xlink:href="#DejaVuSans-32" transform="translate(127.246094 0)"/>
       <use xlink:href="#DejaVuSans-32" transform="translate(190.869141 0)"/>
      </g>
     </g>
    </g>
    <g id="xtick_7">
     <g id="line2d_13">
      <path d="M 731.751207 384.48 
L 731.751207 51.84 
" clip-path="url(#pff873d4e77)" style="fill: none; stroke-dasharray: 2.96,1.28; stroke-dashoffset: 0; stroke: #b0b0b0; stroke-opacity: 0.5; stroke-width: 0.8"/>
     </g>
     <g id="line2d_14">
      <g>
       <use xlink:href="#meb2893e55d" x="731.751207" y="384.48" style="stroke: #000000; stroke-width: 0.8"/>
      </g>
     </g>
     <g id="text_7">
      <!-- 2024 -->
      <g transform="translate(719.026207 399.078438) scale(0.1 -0.1)">
       <use xlink:href="#DejaVuSans-32"/>
       <use xlink:href="#DejaVuSans-30" transform="translate(63.623047 0)"/>
       <use xlink:href="#DejaVuSans-32" transform="translate(127.246094 0)"/>
       <use xlink:href="#DejaVuSans-34" transform="translate(190.869141 0)"/>
      </g>
     </g>
    </g>
   </g>
   <g id="matplotlib.axis_2">
    <g id="ytick_1">
     <g id="line2d_15">
      <path d="M 108 335.382472 
L 777.6 335.382472 
" clip-path="url(#pff873d4e77)" style="fill: none; stroke-dasharray: 2.96,1.28; stroke-dashoffset: 0; stroke: #b0b0b0; stroke-opacity: 0.5; stroke-width: 0.8"/>
     </g>
     <g id="line2d_16">
      <defs>
       <path id="m5ed3dc65da" d="M 0 0 
L -3.5 0 
" style="stroke: #000000; stroke-width: 0.8"/>
      </defs>
      <g>
       <use xlink:href="#m5ed3dc65da" x="108" y="335.382472" style="stroke: #000000; stroke-width: 0.8"/>
      </g>
     </g>
     <g id="text_8">
      <!-- 4 -->
      <g transform="translate(94.6375 339.181691) scale(0.1 -0.1)">
       <use xlink:href="#DejaVuSans-34"/>
      </g>
     </g>
    </g>
    <g id="ytick_2">
     <g id="line2d_17">
      <path d="M 108 267.427416 
L 777.6 267.427416 
" clip-path="url(#pff873d4e77)" style="fill: none; stroke-dasharray: 2.96,1.28; stroke-dashoffset: 0; stroke: #b0b0b0; stroke-opacity: 0.5; stroke-width: 0.8"/>
     </g>
     <g id="line2d_18">
      <g>
       <use xlink:href="#m5ed3dc65da" x="108" y="267.427416" style="stroke: #000000; stroke-width: 0.8"/>
      </g>
     </g>
     <g id="text_9">
      <!-- 6 -->
      <g transform="translate(94.6375 271.226634) scale(0.1 -0.1)">
       <use xlink:href="#DejaVuSans-36"/>
      </g>
     </g>
    </g>
    <g id="ytick_3">
     <g id="line2d_19">
      <path d="M 108 199.47236 
L 777.6 199.47236 
" clip-path="url(#pff873d4e77)" style="fill: none; stroke-dasharray: 2.96,1.28; stroke-dashoffset: 0; stroke: #b0b0b0; stroke-opacity: 0.5; stroke-width: 0.8"/>
     </g>
     <g id="line2d_20">
      <g>
       <use xlink:href="#m5ed3dc65da" x="108" y="199.47236" style="stroke: #000000; stroke-width: 0.8"/>
      </g>
     </g>
     <g id="text_10">
      <!-- 8 -->
      <g transform="translate(94.6375 203.271578) scale(0.1 -0.1)">
       <use xlink:href="#DejaVuSans-38"/>
      </g>
     </g>
    </g>
    <g id="ytick_4">
     <g id="line2d_21">
      <path d="M 108 131.517303 
L 777.6 131.517303 
" clip-path="url(#pff873d4e77)" style="fill: none; stroke-dasharray: 2.96,1.28; stroke-dashoffset: 0; stroke: #b0b0b0; stroke-opacity: 0.5; stroke-width: 0.8"/>
     </g>
     <g id="line2d_22">
      <g>
       <use xlink:href="#m5ed3dc65da" x="108" y="131.517303" style="stroke: #000000; stroke-width: 0.8"/>
      </g>
     </g>
     <g id="text_11">
      <!-- 10 -->
      <g transform="translate(88.275 135.316522) scale(0.1 -0.1)">
       <use xlink:href="#DejaVuSans-31"/>
       <use xlink:href="#DejaVuSans-30" transform="translate(63.623047 0)"/>
      </g>
     </g>
    </g>
    <g id="ytick_5">
     <g id="line2d_23">
      <path d="M 108 63.562247 
L 777.6 63.562247 
" clip-path="url(#pff873d4e77)" style="fill: none; stroke-dasharray: 2.96,1.28; stroke-dashoffset: 0; stroke: #b0b0b0; stroke-opacity: 0.5; stroke-width: 0.8"/>
     </g>
     <g id="line2d_24">
      <g>
       <use xlink:href="#m5ed3dc65da" x="108" y="63.562247" style="stroke: #000000; stroke-width: 0.8"/>
      </g>
     </g>
     <g id="text_12">
      <!-- 12 -->
      <g transform="translate(88.275 67.361466) scale(0.1 -0.1)">
       <use xlink:href="#DejaVuSans-31"/>
       <use xlink:href="#DejaVuSans-32" transform="translate(63.623047 0)"/>
      </g>
     </g>
    </g>
   </g>
   <g id="line2d_25">
    <path d="M 138.436364 306.501573 
L 146.206266 306.501573 
L 150.02753 307.520899 
L 153.976168 307.860674 
L 157.924807 308.88 
L 165.69471 308.200449 
L 169.515973 308.200449 
L 181.107139 309.219775 
L 185.055778 310.239101 
L 188.877042 309.559551 
L 192.825681 309.559551 
L 196.646944 308.88 
L 204.544222 308.200449 
L 212.314124 306.841348 
L 220.084027 306.841348 
L 224.032666 307.520899 
L 227.599178 319.073258 
L 231.547817 324.169888 
L 235.369081 324.509663 
L 239.31772 325.189213 
L 243.138983 324.509663 
L 247.087622 324.849438 
L 251.036261 331.984719 
L 254.857524 336.062022 
L 258.806163 342.517753 
L 262.627427 342.517753 
L 266.576066 342.857528 
L 278.039856 341.838202 
L 281.86112 342.177978 
L 285.809759 354.749663 
L 289.631022 359.166742 
L 293.579661 359.166742 
L 297.5283 359.506517 
L 305.298202 359.506517 
L 309.119466 359.166742 
L 336.123061 359.166742 
L 340.0717 358.487191 
L 344.020339 358.147416 
L 347.841602 358.826966 
L 351.790241 358.487191 
L 355.611505 355.089438 
L 359.560144 350.332584 
L 363.508783 343.876854 
L 367.202671 333.34382 
L 371.15131 333.34382 
L 378.921212 331.984719 
L 382.742476 316.355056 
L 386.691115 315.33573 
L 390.639753 314.65618 
L 394.461017 297.667416 
L 398.409656 289.852584 
L 402.230919 272.86382 
L 406.179558 263.010337 
L 410.128197 252.477303 
L 413.69471 246.021573 
L 417.643349 237.866966 
L 421.464612 234.129438 
L 425.413251 226.314607 
L 429.234515 220.878202 
L 433.183154 220.538427 
L 444.901695 220.538427 
L 456.620236 206.947416 
L 460.186749 205.248539 
L 467.956651 204.568989 
L 471.90529 201.850787 
L 475.726554 196.074607 
L 479.675193 195.734831 
L 483.623832 195.734831 
L 487.445095 195.395056 
L 491.393734 190.977978 
L 495.214997 185.541573 
L 499.163636 179.425618 
L 503.112275 180.444944 
L 506.678788 181.804045 
L 510.627427 182.483596 
L 514.44869 182.14382 
L 518.397329 182.14382 
L 522.218593 183.163146 
L 526.167232 186.900674 
L 530.115871 192.676854 
L 533.937134 199.47236 
L 537.885773 203.889438 
L 545.655675 215.441798 
L 549.604314 220.198652 
L 553.298202 230.052135 
L 561.068105 267.427416 
L 565.016744 279.319551 
L 568.838007 293.590112 
L 572.786646 302.42427 
L 576.735285 310.918652 
L 580.556549 317.374382 
L 584.505187 318.393708 
L 588.326451 318.733483 
L 592.27509 319.413034 
L 596.223729 323.150562 
L 599.790241 325.868764 
L 603.73888 325.868764 
L 607.560144 325.528989 
L 611.508783 324.509663 
L 615.330046 317.714157 
L 619.278685 313.297079 
L 623.227324 309.899326 
L 627.048588 302.084494 
L 630.997227 296.987865 
L 634.81849 286.454831 
L 638.767129 276.941124 
L 642.715768 266.747865 
L 646.28228 256.214831 
L 650.230919 242.62382 
L 654.052183 233.110112 
L 658.000822 219.179326 
L 661.822085 198.113258 
L 665.770724 182.483596 
L 669.719363 169.23236 
L 673.540627 146.467416 
L 677.489266 131.517303 
L 681.310529 113.509213 
L 685.259168 105.014831 
L 689.207807 94.142022 
L 692.774319 85.987416 
L 696.722958 79.531685 
L 700.544222 79.19191 
L 704.492861 80.551011 
L 720.032666 80.551011 
L 723.981305 80.211236 
L 727.802568 80.551011 
L 735.699846 80.551011 
L 739.393734 82.589663 
L 743.342373 89.045393 
L 747.163636 89.385169 
L 747.163636 89.385169 
" clip-path="url(#pff873d4e77)" style="fill: none; stroke: #a6cee3; stroke-width: 1.5; stroke-linecap: square"/>
   </g>
   <g id="line2d_26">
    <path d="M 138.436364 305.482247 
L 142.257627 305.482247 
L 146.206266 305.142472 
L 150.02753 306.161798 
L 153.976168 306.501573 
L 157.924807 308.200449 
L 161.746071 307.860674 
L 169.515973 307.860674 
L 173.464612 308.200449 
L 177.413251 308.200449 
L 181.107139 308.540225 
L 185.055778 309.559551 
L 188.877042 308.88 
L 192.825681 308.88 
L 200.595583 308.200449 
L 212.314124 306.161798 
L 220.084027 306.161798 
L 224.032666 307.520899 
L 227.599178 318.733483 
L 231.547817 323.830112 
L 235.369081 324.509663 
L 239.31772 324.849438 
L 243.138983 324.509663 
L 247.087622 324.849438 
L 251.036261 331.644944 
L 254.857524 336.401798 
L 258.806163 342.517753 
L 262.627427 342.517753 
L 266.576066 342.177978 
L 270.524705 342.177978 
L 274.091217 341.838202 
L 278.039856 341.838202 
L 281.86112 341.498427 
L 285.809759 354.409888 
L 289.631022 358.826966 
L 293.579661 358.826966 
L 297.5283 359.166742 
L 305.298202 359.166742 
L 309.119466 358.826966 
L 317.016744 358.826966 
L 320.583256 358.147416 
L 324.531895 358.826966 
L 332.301798 358.826966 
L 336.123061 358.487191 
L 340.0717 357.467865 
L 344.020339 357.12809 
L 347.841602 358.487191 
L 351.790241 356.448539 
L 355.611505 352.371236 
L 359.560144 349.313258 
L 363.508783 342.857528 
L 367.202671 331.644944 
L 371.15131 331.305169 
L 374.972573 330.625618 
L 378.921212 328.247191 
L 382.742476 312.957303 
L 390.639753 310.918652 
L 394.461017 294.949213 
L 398.409656 281.358202 
L 402.230919 266.747865 
L 406.179558 257.913708 
L 410.128197 248.060225 
L 413.69471 240.924944 
L 417.643349 235.828315 
L 421.464612 231.751011 
L 425.413251 222.916854 
L 429.234515 220.538427 
L 433.183154 220.198652 
L 437.131793 220.198652 
L 444.901695 219.519101 
L 448.722958 214.422472 
L 456.620236 204.908764 
L 460.186749 204.229213 
L 464.135388 204.229213 
L 467.956651 203.209888 
L 475.726554 194.37573 
L 479.675193 194.715506 
L 483.623832 193.69618 
L 487.445095 193.69618 
L 491.393734 186.900674 
L 495.214997 182.483596 
L 499.163636 178.406292 
L 503.112275 180.105169 
L 506.678788 181.804045 
L 510.627427 182.483596 
L 518.397329 181.804045 
L 522.218593 184.182472 
L 526.167232 188.259775 
L 530.115871 195.734831 
L 533.937134 203.209888 
L 537.885773 209.665618 
L 541.707036 214.422472 
L 545.655675 218.499775 
L 549.604314 223.256629 
L 553.298202 234.129438 
L 557.246841 252.817079 
L 561.068105 269.805843 
L 565.016744 279.659326 
L 568.838007 294.609438 
L 572.786646 303.10382 
L 576.735285 311.258427 
L 580.556549 317.374382 
L 584.505187 318.733483 
L 588.326451 319.073258 
L 592.27509 320.43236 
L 596.223729 324.169888 
L 599.790241 327.227865 
L 607.560144 326.548315 
L 611.508783 324.849438 
L 615.330046 315.675506 
L 619.278685 311.258427 
L 623.227324 308.200449 
L 627.048588 299.366292 
L 630.997227 292.231011 
L 634.81849 280.338876 
L 638.767129 271.844494 
L 642.715768 261.311461 
L 646.28228 248.060225 
L 654.052183 220.538427 
L 658.000822 204.908764 
L 661.822085 187.580225 
L 665.770724 171.950562 
L 669.719363 158.019775 
L 673.540627 134.915056 
L 677.489266 118.266067 
L 681.310529 103.65573 
L 685.259168 99.578427 
L 689.207807 88.365843 
L 692.774319 80.211236 
L 696.722958 75.794157 
L 700.544222 77.493034 
L 704.492861 80.211236 
L 708.314124 80.551011 
L 712.262763 80.551011 
L 716.211402 80.211236 
L 723.981305 80.211236 
L 727.802568 80.551011 
L 731.751207 75.114607 
L 735.699846 75.454382 
L 739.393734 76.813483 
L 743.342373 83.608989 
L 747.163636 83.948764 
L 747.163636 83.948764 
" clip-path="url(#pff873d4e77)" style="fill: none; stroke: #1f78b4; stroke-width: 1.5; stroke-linecap: square"/>
   </g>
   <g id="line2d_27">
    <path d="M 138.436364 302.084494 
L 142.257627 302.764045 
L 146.206266 303.10382 
L 150.02753 304.802697 
L 153.976168 305.822022 
L 157.924807 307.860674 
L 161.746071 308.200449 
L 165.69471 308.200449 
L 169.515973 307.860674 
L 181.107139 307.860674 
L 185.055778 309.219775 
L 188.877042 308.200449 
L 192.825681 308.540225 
L 196.646944 307.860674 
L 200.595583 307.860674 
L 204.544222 307.181124 
L 208.365485 306.161798 
L 212.314124 304.802697 
L 216.135388 305.142472 
L 220.084027 306.161798 
L 224.032666 307.860674 
L 227.599178 320.43236 
L 231.547817 323.490337 
L 235.369081 325.868764 
L 239.31772 324.849438 
L 243.138983 324.509663 
L 247.087622 324.849438 
L 254.857524 338.780225 
L 258.806163 342.517753 
L 262.627427 341.838202 
L 266.576066 341.498427 
L 270.524705 341.498427 
L 274.091217 341.158652 
L 281.86112 341.158652 
L 285.809759 353.730337 
L 289.631022 358.487191 
L 293.579661 358.487191 
L 297.5283 359.166742 
L 301.349563 358.826966 
L 305.298202 358.826966 
L 309.119466 357.12809 
L 313.068105 357.467865 
L 317.016744 356.448539 
L 320.583256 354.409888 
L 328.353159 356.448539 
L 336.123061 355.768989 
L 340.0717 351.691685 
L 344.020339 349.313258 
L 347.841602 353.050787 
L 351.790241 351.012135 
L 355.611505 347.614382 
L 359.560144 345.915506 
L 363.508783 338.780225 
L 367.202671 327.227865 
L 371.15131 327.907416 
L 374.972573 326.88809 
L 378.921212 321.791461 
L 382.742476 306.501573 
L 386.691115 305.822022 
L 390.639753 304.123146 
L 394.461017 290.87191 
L 398.409656 271.164944 
L 402.230919 258.253483 
L 406.179558 248.060225 
L 410.128197 240.245393 
L 413.69471 233.789663 
L 417.643349 229.71236 
L 421.464612 224.61573 
L 425.413251 218.499775 
L 429.234515 218.839551 
L 433.183154 218.499775 
L 437.131793 218.839551 
L 440.953056 217.140674 
L 444.901695 214.422472 
L 448.722958 207.966742 
L 452.671597 203.209888 
L 456.620236 201.171236 
L 460.186749 201.171236 
L 464.135388 202.530337 
L 467.956651 200.831461 
L 471.90529 195.395056 
L 475.726554 192.337079 
L 479.675193 192.337079 
L 483.623832 191.997303 
L 487.445095 191.997303 
L 491.393734 183.163146 
L 495.214997 178.406292 
L 499.163636 177.726742 
L 503.112275 180.105169 
L 506.678788 181.804045 
L 510.627427 182.483596 
L 514.44869 182.483596 
L 518.397329 182.823371 
L 522.218593 186.221124 
L 526.167232 191.997303 
L 530.115871 201.511011 
L 533.937134 211.70427 
L 537.885773 215.102022 
L 545.655675 222.577079 
L 549.604314 226.994157 
L 553.298202 237.187416 
L 557.246841 263.350112 
L 561.068105 281.358202 
L 565.016744 289.852584 
L 568.838007 302.084494 
L 572.786646 308.540225 
L 576.735285 312.617528 
L 580.556549 318.053933 
L 584.505187 321.451685 
L 588.326451 322.471011 
L 592.27509 324.169888 
L 596.223729 326.88809 
L 599.790241 326.88809 
L 603.73888 324.849438 
L 607.560144 323.150562 
L 611.508783 321.791461 
L 615.330046 306.841348 
L 619.278685 302.084494 
L 623.227324 299.026517 
L 627.048588 290.19236 
L 630.997227 285.435506 
L 642.715768 254.17618 
L 646.28228 239.226067 
L 650.230919 221.557753 
L 654.052183 209.325843 
L 658.000822 191.317753 
L 661.822085 169.23236 
L 669.719363 140.011685 
L 673.540627 119.964944 
L 677.489266 110.451236 
L 681.310529 99.238652 
L 685.259168 94.142022 
L 689.207807 83.608989 
L 692.774319 70.697528 
L 696.722958 66.96 
L 700.544222 68.998652 
L 704.492861 75.454382 
L 708.314124 79.871461 
L 712.262763 81.910112 
L 716.211402 80.890787 
L 720.032666 79.531685 
L 723.981305 80.211236 
L 727.802568 82.249888 
L 731.751207 69.338427 
L 735.699846 70.017978 
L 739.393734 71.377079 
L 743.342373 78.172584 
L 747.163636 78.51236 
L 747.163636 78.51236 
" clip-path="url(#pff873d4e77)" style="fill: none; stroke: #b2df8a; stroke-width: 1.5; stroke-linecap: square"/>
   </g>
   <g id="line2d_28">
    <path d="M 138.436364 317.714157 
L 142.257627 318.733483 
L 146.206266 318.053933 
L 150.02753 318.733483 
L 153.976168 319.752809 
L 157.924807 322.471011 
L 161.746071 322.471011 
L 165.69471 321.791461 
L 169.515973 319.073258 
L 173.464612 319.413034 
L 177.413251 318.733483 
L 181.107139 318.733483 
L 185.055778 319.073258 
L 188.877042 318.393708 
L 192.825681 318.733483 
L 196.646944 319.413034 
L 208.365485 318.393708 
L 212.314124 318.393708 
L 216.135388 318.053933 
L 220.084027 318.393708 
L 224.032666 318.393708 
L 227.599178 330.285843 
L 231.547817 334.702921 
L 235.369081 334.702921 
L 239.31772 335.042697 
L 243.138983 335.042697 
L 247.087622 335.382472 
L 251.036261 341.838202 
L 254.857524 345.57573 
L 258.806163 351.35191 
L 262.627427 350.332584 
L 266.576066 352.711011 
L 274.091217 352.711011 
L 278.039856 352.371236 
L 281.86112 352.371236 
L 285.809759 365.622472 
L 289.631022 369.36 
L 293.579661 369.020225 
L 297.5283 369.36 
L 305.298202 368.680449 
L 309.119466 367.661124 
L 313.068105 369.020225 
L 320.583256 367.661124 
L 324.531895 368.680449 
L 328.353159 369.36 
L 332.301798 366.981573 
L 336.123061 366.981573 
L 340.0717 368.340674 
L 344.020339 368.340674 
L 347.841602 368.680449 
L 351.790241 367.661124 
L 355.611505 362.224719 
L 359.560144 360.186067 
L 363.508783 353.050787 
L 367.202671 343.197303 
L 371.15131 344.216629 
L 378.921212 342.177978 
L 382.742476 327.227865 
L 390.639753 325.189213 
L 394.461017 309.899326 
L 398.409656 302.084494 
L 402.230919 282.037753 
L 406.179558 275.242247 
L 410.128197 263.350112 
L 413.69471 257.573933 
L 417.643349 248.739775 
L 421.464612 246.361348 
L 425.413251 239.226067 
L 429.234515 231.751011 
L 433.183154 232.430562 
L 437.131793 232.430562 
L 440.953056 232.770337 
L 444.901695 232.770337 
L 448.722958 226.314607 
L 452.671597 223.596404 
L 456.620236 216.800899 
L 460.186749 214.422472 
L 464.135388 215.441798 
L 467.956651 214.422472 
L 471.90529 212.044045 
L 475.726554 206.60764 
L 483.623832 206.60764 
L 487.445095 205.92809 
L 491.393734 201.850787 
L 495.214997 193.356404 
L 499.163636 189.958652 
L 503.112275 189.618876 
L 506.678788 189.958652 
L 514.44869 189.279101 
L 518.397329 189.958652 
L 522.218593 189.958652 
L 526.167232 194.035955 
L 530.115871 197.433708 
L 533.937134 206.947416 
L 537.885773 207.287191 
L 541.707036 217.140674 
L 545.655675 224.275955 
L 549.604314 229.032809 
L 553.298202 236.84764 
L 557.246841 254.515955 
L 561.068105 272.86382 
L 565.016744 284.076404 
L 568.838007 300.045843 
L 576.735285 319.073258 
L 580.556549 326.88809 
L 588.326451 324.849438 
L 592.27509 324.849438 
L 596.223729 331.305169 
L 599.790241 334.702921 
L 603.73888 335.042697 
L 607.560144 334.363146 
L 611.508783 334.023371 
L 615.330046 326.208539 
L 619.278685 320.772135 
L 623.227324 314.995955 
L 627.048588 307.520899 
L 630.997227 303.783371 
L 634.81849 293.929888 
L 642.715768 274.222921 
L 646.28228 264.029663 
L 650.230919 249.079551 
L 654.052183 239.905618 
L 658.000822 229.032809 
L 661.822085 207.966742 
L 665.770724 191.657528 
L 669.719363 180.105169 
L 673.540627 156.660674 
L 677.489266 139.67191 
L 681.310529 120.98427 
L 685.259168 113.848989 
L 689.207807 102.296629 
L 692.774319 96.520449 
L 696.722958 88.026067 
L 700.544222 87.686292 
L 704.492861 88.705618 
L 708.314124 89.045393 
L 720.032666 89.045393 
L 723.981305 88.705618 
L 727.802568 87.686292 
L 731.751207 88.026067 
L 735.699846 88.705618 
L 739.393734 89.724944 
L 743.342373 96.520449 
L 747.163636 96.520449 
L 747.163636 96.520449 
" clip-path="url(#pff873d4e77)" style="fill: none; stroke: #33a02c; stroke-width: 1.5; stroke-linecap: square"/>
   </g>
   <g id="line2d_29">
    <path d="M 138.436364 318.733483 
L 142.257627 320.092584 
L 146.206266 319.073258 
L 150.02753 319.413034 
L 153.976168 320.43236 
L 157.924807 322.810787 
L 161.746071 322.810787 
L 165.69471 321.451685 
L 169.515973 318.393708 
L 173.464612 319.073258 
L 177.413251 318.393708 
L 181.107139 318.393708 
L 185.055778 319.073258 
L 188.877042 318.053933 
L 192.825681 318.733483 
L 196.646944 319.073258 
L 204.544222 318.393708 
L 208.365485 318.393708 
L 212.314124 318.053933 
L 216.135388 318.053933 
L 220.084027 318.733483 
L 224.032666 318.393708 
L 227.599178 329.946067 
L 231.547817 334.702921 
L 239.31772 334.702921 
L 243.138983 335.042697 
L 247.087622 335.042697 
L 251.036261 341.498427 
L 254.857524 344.89618 
L 258.806163 349.992809 
L 262.627427 348.293933 
L 266.576066 352.031461 
L 270.524705 351.691685 
L 274.091217 351.691685 
L 278.039856 351.35191 
L 281.86112 351.35191 
L 285.809759 364.603146 
L 289.631022 368.680449 
L 293.579661 367.661124 
L 297.5283 368.680449 
L 301.349563 368.000899 
L 305.298202 367.661124 
L 309.119466 366.641798 
L 313.068105 368.000899 
L 320.583256 366.641798 
L 324.531895 368.000899 
L 328.353159 368.680449 
L 332.301798 365.962247 
L 336.123061 365.962247 
L 347.841602 368.000899 
L 351.790241 366.981573 
L 355.611505 361.205393 
L 359.560144 359.846292 
L 363.508783 353.050787 
L 367.202671 342.517753 
L 371.15131 343.537079 
L 374.972573 342.177978 
L 378.921212 341.158652 
L 382.742476 326.208539 
L 386.691115 325.528989 
L 390.639753 324.169888 
L 394.461017 309.219775 
L 398.409656 301.404944 
L 402.230919 282.037753 
L 406.179558 275.242247 
L 410.128197 262.670562 
L 413.69471 256.894382 
L 417.643349 248.060225 
L 421.464612 246.021573 
L 429.234515 231.411236 
L 433.183154 232.090787 
L 440.953056 232.090787 
L 444.901695 232.430562 
L 448.722958 225.974831 
L 452.671597 223.256629 
L 456.620236 216.800899 
L 460.186749 214.082697 
L 464.135388 215.102022 
L 467.956651 213.742921 
L 471.90529 211.70427 
L 475.726554 205.92809 
L 479.675193 206.267865 
L 483.623832 206.267865 
L 487.445095 205.92809 
L 491.393734 201.850787 
L 495.214997 193.356404 
L 499.163636 190.638202 
L 503.112275 190.638202 
L 514.44869 189.618876 
L 518.397329 190.298427 
L 522.218593 189.958652 
L 526.167232 194.035955 
L 530.115871 197.093933 
L 533.937134 206.947416 
L 537.885773 207.626966 
L 541.707036 217.820225 
L 545.655675 224.61573 
L 549.604314 229.372584 
L 553.298202 237.187416 
L 557.246841 255.535281 
L 561.068105 274.222921 
L 565.016744 285.09573 
L 568.838007 301.065169 
L 572.786646 310.578876 
L 576.735285 319.413034 
L 580.556549 326.88809 
L 588.326451 325.528989 
L 592.27509 325.189213 
L 596.223729 331.644944 
L 599.790241 335.042697 
L 603.73888 335.042697 
L 607.560144 334.023371 
L 611.508783 334.023371 
L 615.330046 325.868764 
L 619.278685 321.451685 
L 623.227324 315.675506 
L 627.048588 308.200449 
L 630.997227 304.462921 
L 642.715768 274.222921 
L 646.28228 264.029663 
L 650.230919 249.419326 
L 654.052183 240.245393 
L 658.000822 229.032809 
L 661.822085 207.966742 
L 665.770724 191.997303 
L 669.719363 180.784719 
L 673.540627 157.340225 
L 677.489266 140.011685 
L 681.310529 121.66382 
L 685.259168 114.188764 
L 689.207807 102.636404 
L 692.774319 96.860225 
L 696.722958 88.365843 
L 700.544222 87.686292 
L 704.492861 89.045393 
L 708.314124 89.385169 
L 712.262763 89.385169 
L 716.211402 89.045393 
L 720.032666 89.045393 
L 723.981305 88.705618 
L 727.802568 88.026067 
L 731.751207 88.705618 
L 735.699846 89.045393 
L 739.393734 90.404494 
L 743.342373 97.2 
L 747.163636 97.2 
L 747.163636 97.2 
" clip-path="url(#pff873d4e77)" style="fill: none; stroke: #fb9a99; stroke-width: 1.5; stroke-linecap: square"/>
   </g>
   <g id="patch_3">
    <path d="M 108 384.48 
L 108 51.84 
" style="fill: none; stroke: #000000; stroke-width: 0.8; stroke-linejoin: miter; stroke-linecap: square"/>
   </g>
   <g id="patch_4">
    <path d="M 777.6 384.48 
L 777.6 51.84 
" style="fill: none; stroke: #000000; stroke-width: 0.8; stroke-linejoin: miter; stroke-linecap: square"/>
   </g>
   <g id="patch_5">
    <path d="M 108 384.48 
L 777.6 384.48 
" style="fill: none; stroke: #000000; stroke-width: 0.8; stroke-linejoin: miter; stroke-linecap: square"/>
   </g>
   <g id="patch_6">
    <path d="M 108 51.84 
L 777.6 51.84 
" style="fill: none; stroke: #000000; stroke-width: 0.8; stroke-linejoin: miter; stroke-linecap: square"/>
   </g>
   <g id="text_13">
    <!-- TIIE, Fondeo y Pagaré -->
    <g transform="translate(357.034688 45.84) scale(0.14 -0.14)">
     <defs>
      <path id="DejaVuSans-Bold-54" d="M 31 4666 
L 4331 4666 
L 4331 3756 
L 2784 3756 
L 2784 0 
L 1581 0 
L 1581 3756 
L 31 3756 
L 31 4666 
z
" transform="scale(0.015625)"/>
      <path id="DejaVuSans-Bold-49" d="M 588 4666 
L 1791 4666 
L 1791 0 
L 588 0 
L 588 4666 
z
" transform="scale(0.015625)"/>
      <path id="DejaVuSans-Bold-45" d="M 588 4666 
L 3834 4666 
L 3834 3756 
L 1791 3756 
L 1791 2888 
L 3713 2888 
L 3713 1978 
L 1791 1978 
L 1791 909 
L 3903 909 
L 3903 0 
L 588 0 
L 588 4666 
z
" transform="scale(0.015625)"/>
      <path id="DejaVuSans-Bold-2c" d="M 653 1209 
L 1778 1209 
L 1778 256 
L 1006 -909 
L 341 -909 
L 653 256 
L 653 1209 
z
" transform="scale(0.015625)"/>
      <path id="DejaVuSans-Bold-20" transform="scale(0.015625)"/>
      <path id="DejaVuSans-Bold-46" d="M 588 4666 
L 3834 4666 
L 3834 3756 
L 1791 3756 
L 1791 2888 
L 3713 2888 
L 3713 1978 
L 1791 1978 
L 1791 0 
L 588 0 
L 588 4666 
z
" transform="scale(0.015625)"/>
      <path id="DejaVuSans-Bold-6f" d="M 2203 2784 
Q 1831 2784 1636 2517 
Q 1441 2250 1441 1747 
Q 1441 1244 1636 976 
Q 1831 709 2203 709 
Q 2569 709 2762 976 
Q 2956 1244 2956 1747 
Q 2956 2250 2762 2517 
Q 2569 2784 2203 2784 
z
M 2203 3584 
Q 3106 3584 3614 3096 
Q 4122 2609 4122 1747 
Q 4122 884 3614 396 
Q 3106 -91 2203 -91 
Q 1297 -91 786 396 
Q 275 884 275 1747 
Q 275 2609 786 3096 
Q 1297 3584 2203 3584 
z
" transform="scale(0.015625)"/>
      <path id="DejaVuSans-Bold-6e" d="M 4056 2131 
L 4056 0 
L 2931 0 
L 2931 347 
L 2931 1631 
Q 2931 2084 2911 2256 
Q 2891 2428 2841 2509 
Q 2775 2619 2662 2680 
Q 2550 2741 2406 2741 
Q 2056 2741 1856 2470 
Q 1656 2200 1656 1722 
L 1656 0 
L 538 0 
L 538 3500 
L 1656 3500 
L 1656 2988 
Q 1909 3294 2193 3439 
Q 2478 3584 2822 3584 
Q 3428 3584 3742 3212 
Q 4056 2841 4056 2131 
z
" transform="scale(0.015625)"/>
      <path id="DejaVuSans-Bold-64" d="M 2919 2988 
L 2919 4863 
L 4044 4863 
L 4044 0 
L 2919 0 
L 2919 506 
Q 2688 197 2409 53 
Q 2131 -91 1766 -91 
Q 1119 -91 703 423 
Q 288 938 288 1747 
Q 288 2556 703 3070 
Q 1119 3584 1766 3584 
Q 2128 3584 2408 3439 
Q 2688 3294 2919 2988 
z
M 2181 722 
Q 2541 722 2730 984 
Q 2919 1247 2919 1747 
Q 2919 2247 2730 2509 
Q 2541 2772 2181 2772 
Q 1825 2772 1636 2509 
Q 1447 2247 1447 1747 
Q 1447 1247 1636 984 
Q 1825 722 2181 722 
z
" transform="scale(0.015625)"/>
      <path id="DejaVuSans-Bold-65" d="M 4031 1759 
L 4031 1441 
L 1416 1441 
Q 1456 1047 1700 850 
Q 1944 653 2381 653 
Q 2734 653 3104 758 
Q 3475 863 3866 1075 
L 3866 213 
Q 3469 63 3072 -14 
Q 2675 -91 2278 -91 
Q 1328 -91 801 392 
Q 275 875 275 1747 
Q 275 2603 792 3093 
Q 1309 3584 2216 3584 
Q 3041 3584 3536 3087 
Q 4031 2591 4031 1759 
z
M 2881 2131 
Q 2881 2450 2695 2645 
Q 2509 2841 2209 2841 
Q 1884 2841 1681 2658 
Q 1478 2475 1428 2131 
L 2881 2131 
z
" transform="scale(0.015625)"/>
      <path id="DejaVuSans-Bold-79" d="M 78 3500 
L 1197 3500 
L 2138 1125 
L 2938 3500 
L 4056 3500 
L 2584 -331 
Q 2363 -916 2067 -1148 
Q 1772 -1381 1288 -1381 
L 641 -1381 
L 641 -647 
L 991 -647 
Q 1275 -647 1404 -556 
Q 1534 -466 1606 -231 
L 1638 -134 
L 78 3500 
z
" transform="scale(0.015625)"/>
      <path id="DejaVuSans-Bold-50" d="M 588 4666 
L 2584 4666 
Q 3475 4666 3951 4270 
Q 4428 3875 4428 3144 
Q 4428 2409 3951 2014 
Q 3475 1619 2584 1619 
L 1791 1619 
L 1791 0 
L 588 0 
L 588 4666 
z
M 1791 3794 
L 1791 2491 
L 2456 2491 
Q 2806 2491 2997 2661 
Q 3188 2831 3188 3144 
Q 3188 3456 2997 3625 
Q 2806 3794 2456 3794 
L 1791 3794 
z
" transform="scale(0.015625)"/>
      <path id="DejaVuSans-Bold-61" d="M 2106 1575 
Q 1756 1575 1579 1456 
Q 1403 1338 1403 1106 
Q 1403 894 1545 773 
Q 1688 653 1941 653 
Q 2256 653 2472 879 
Q 2688 1106 2688 1447 
L 2688 1575 
L 2106 1575 
z
M 3816 1997 
L 3816 0 
L 2688 0 
L 2688 519 
Q 2463 200 2181 54 
Q 1900 -91 1497 -91 
Q 953 -91 614 226 
Q 275 544 275 1050 
Q 275 1666 698 1953 
Q 1122 2241 2028 2241 
L 2688 2241 
L 2688 2328 
Q 2688 2594 2478 2717 
Q 2269 2841 1825 2841 
Q 1466 2841 1156 2769 
Q 847 2697 581 2553 
L 581 3406 
Q 941 3494 1303 3539 
Q 1666 3584 2028 3584 
Q 2975 3584 3395 3211 
Q 3816 2838 3816 1997 
z
" transform="scale(0.015625)"/>
      <path id="DejaVuSans-Bold-67" d="M 2919 594 
Q 2688 288 2409 144 
Q 2131 0 1766 0 
Q 1125 0 706 504 
Q 288 1009 288 1791 
Q 288 2575 706 3076 
Q 1125 3578 1766 3578 
Q 2131 3578 2409 3434 
Q 2688 3291 2919 2981 
L 2919 3500 
L 4044 3500 
L 4044 353 
Q 4044 -491 3511 -936 
Q 2978 -1381 1966 -1381 
Q 1638 -1381 1331 -1331 
Q 1025 -1281 716 -1178 
L 716 -306 
Q 1009 -475 1290 -558 
Q 1572 -641 1856 -641 
Q 2406 -641 2662 -400 
Q 2919 -159 2919 353 
L 2919 594 
z
M 2181 2772 
Q 1834 2772 1640 2515 
Q 1447 2259 1447 1791 
Q 1447 1309 1634 1061 
Q 1822 813 2181 813 
Q 2531 813 2725 1069 
Q 2919 1325 2919 1791 
Q 2919 2259 2725 2515 
Q 2531 2772 2181 2772 
z
" transform="scale(0.015625)"/>
      <path id="DejaVuSans-Bold-72" d="M 3138 2547 
Q 2991 2616 2845 2648 
Q 2700 2681 2553 2681 
Q 2122 2681 1889 2404 
Q 1656 2128 1656 1613 
L 1656 0 
L 538 0 
L 538 3500 
L 1656 3500 
L 1656 2925 
Q 1872 3269 2151 3426 
Q 2431 3584 2822 3584 
Q 2878 3584 2943 3579 
Q 3009 3575 3134 3559 
L 3138 2547 
z
" transform="scale(0.015625)"/>
      <path id="DejaVuSans-Bold-e9" d="M 4031 1759 
L 4031 1441 
L 1416 1441 
Q 1456 1047 1700 850 
Q 1944 653 2381 653 
Q 2734 653 3104 758 
Q 3475 863 3866 1075 
L 3866 213 
Q 3469 63 3072 -14 
Q 2675 -91 2278 -91 
Q 1328 -91 801 392 
Q 275 875 275 1747 
Q 275 2603 792 3093 
Q 1309 3584 2216 3584 
Q 3041 3584 3536 3087 
Q 4031 2591 4031 1759 
z
M 2881 2131 
Q 2881 2450 2695 2645 
Q 2509 2841 2209 2841 
Q 1884 2841 1681 2658 
Q 1478 2475 1428 2131 
L 2881 2131 
z
M 2700 5119 
L 3584 5119 
L 2431 3944 
L 1819 3944 
L 2700 5119 
z
" transform="scale(0.015625)"/>
     </defs>
     <use xlink:href="#DejaVuSans-Bold-54"/>
     <use xlink:href="#DejaVuSans-Bold-49" transform="translate(68.212891 0)"/>
     <use xlink:href="#DejaVuSans-Bold-49" transform="translate(105.419922 0)"/>
     <use xlink:href="#DejaVuSans-Bold-45" transform="translate(142.626953 0)"/>
     <use xlink:href="#DejaVuSans-Bold-2c" transform="translate(210.9375 0)"/>
     <use xlink:href="#DejaVuSans-Bold-20" transform="translate(248.925781 0)"/>
     <use xlink:href="#DejaVuSans-Bold-46" transform="translate(283.740234 0)"/>
     <use xlink:href="#DejaVuSans-Bold-6f" transform="translate(348.050781 0)"/>
     <use xlink:href="#DejaVuSans-Bold-6e" transform="translate(416.751953 0)"/>
     <use xlink:href="#DejaVuSans-Bold-64" transform="translate(487.943359 0)"/>
     <use xlink:href="#DejaVuSans-Bold-65" transform="translate(559.525391 0)"/>
     <use xlink:href="#DejaVuSans-Bold-6f" transform="translate(627.347656 0)"/>
     <use xlink:href="#DejaVuSans-Bold-20" transform="translate(696.048828 0)"/>
     <use xlink:href="#DejaVuSans-Bold-79" transform="translate(730.863281 0)"/>
     <use xlink:href="#DejaVuSans-Bold-20" transform="translate(796.048828 0)"/>
     <use xlink:href="#DejaVuSans-Bold-50" transform="translate(830.863281 0)"/>
     <use xlink:href="#DejaVuSans-Bold-61" transform="translate(901.529297 0)"/>
     <use xlink:href="#DejaVuSans-Bold-67" transform="translate(969.009766 0)"/>
     <use xlink:href="#DejaVuSans-Bold-61" transform="translate(1040.591797 0)"/>
     <use xlink:href="#DejaVuSans-Bold-72" transform="translate(1108.072266 0)"/>
     <use xlink:href="#DejaVuSans-Bold-e9" transform="translate(1157.388672 0)"/>
    </g>
   </g>
   <g id="legend_1">
    <g id="patch_7">
     <path d="M 113.6 116.9525 
L 318.52125 116.9525 
Q 320.12125 116.9525 320.12125 115.3525 
L 320.12125 57.44 
Q 320.12125 55.84 318.52125 55.84 
L 113.6 55.84 
Q 112 55.84 112 57.44 
L 112 115.3525 
Q 112 116.9525 113.6 116.9525 
z
" style="fill: #ffffff; opacity: 0.8; stroke: #cccccc; stroke-linejoin: miter"/>
    </g>
    <g id="line2d_30">
     <path d="M 115.2 62.31875 
L 123.2 62.31875 
L 131.2 62.31875 
" style="fill: none; stroke: #a6cee3; stroke-width: 1.5; stroke-linecap: square"/>
    </g>
    <g id="text_14">
     <!-- TIIE a 28 días -->
     <g transform="translate(137.6 65.11875) scale(0.08 -0.08)">
      <defs>
       <path id="DejaVuSans-54" d="M -19 4666 
L 3928 4666 
L 3928 4134 
L 2272 4134 
L 2272 0 
L 1638 0 
L 1638 4134 
L -19 4134 
L -19 4666 
z
" transform="scale(0.015625)"/>
       <path id="DejaVuSans-49" d="M 628 4666 
L 1259 4666 
L 1259 0 
L 628 0 
L 628 4666 
z
" transform="scale(0.015625)"/>
       <path id="DejaVuSans-45" d="M 628 4666 
L 3578 4666 
L 3578 4134 
L 1259 4134 
L 1259 2753 
L 3481 2753 
L 3481 2222 
L 1259 2222 
L 1259 531 
L 3634 531 
L 3634 0 
L 628 0 
L 628 4666 
z
" transform="scale(0.015625)"/>
       <path id="DejaVuSans-20" transform="scale(0.015625)"/>
       <path id="DejaVuSans-61" d="M 2194 1759 
Q 1497 1759 1228 1600 
Q 959 1441 959 1056 
Q 959 750 1161 570 
Q 1363 391 1709 391 
Q 2188 391 2477 730 
Q 2766 1069 2766 1631 
L 2766 1759 
L 2194 1759 
z
M 3341 1997 
L 3341 0 
L 2766 0 
L 2766 531 
Q 2569 213 2275 61 
Q 1981 -91 1556 -91 
Q 1019 -91 701 211 
Q 384 513 384 1019 
Q 384 1609 779 1909 
Q 1175 2209 1959 2209 
L 2766 2209 
L 2766 2266 
Q 2766 2663 2505 2880 
Q 2244 3097 1772 3097 
Q 1472 3097 1187 3025 
Q 903 2953 641 2809 
L 641 3341 
Q 956 3463 1253 3523 
Q 1550 3584 1831 3584 
Q 2591 3584 2966 3190 
Q 3341 2797 3341 1997 
z
" transform="scale(0.015625)"/>
       <path id="DejaVuSans-64" d="M 2906 2969 
L 2906 4863 
L 3481 4863 
L 3481 0 
L 2906 0 
L 2906 525 
Q 2725 213 2448 61 
Q 2172 -91 1784 -91 
Q 1150 -91 751 415 
Q 353 922 353 1747 
Q 353 2572 751 3078 
Q 1150 3584 1784 3584 
Q 2172 3584 2448 3432 
Q 2725 3281 2906 2969 
z
M 947 1747 
Q 947 1113 1208 752 
Q 1469 391 1925 391 
Q 2381 391 2643 752 
Q 2906 1113 2906 1747 
Q 2906 2381 2643 2742 
Q 2381 3103 1925 3103 
Q 1469 3103 1208 2742 
Q 947 2381 947 1747 
z
" transform="scale(0.015625)"/>
       <path id="DejaVuSans-ed" d="M 1325 5119 
L 1947 5119 
L 928 3944 
L 450 3944 
L 1325 5119 
z
M 603 3500 
L 1178 3500 
L 1178 0 
L 603 0 
L 603 3500 
z
M 891 3584 
L 891 3584 
z
" transform="scale(0.015625)"/>
       <path id="DejaVuSans-73" d="M 2834 3397 
L 2834 2853 
Q 2591 2978 2328 3040 
Q 2066 3103 1784 3103 
Q 1356 3103 1142 2972 
Q 928 2841 928 2578 
Q 928 2378 1081 2264 
Q 1234 2150 1697 2047 
L 1894 2003 
Q 2506 1872 2764 1633 
Q 3022 1394 3022 966 
Q 3022 478 2636 193 
Q 2250 -91 1575 -91 
Q 1294 -91 989 -36 
Q 684 19 347 128 
L 347 722 
Q 666 556 975 473 
Q 1284 391 1588 391 
Q 1994 391 2212 530 
Q 2431 669 2431 922 
Q 2431 1156 2273 1281 
Q 2116 1406 1581 1522 
L 1381 1569 
Q 847 1681 609 1914 
Q 372 2147 372 2553 
Q 372 3047 722 3315 
Q 1072 3584 1716 3584 
Q 2034 3584 2315 3537 
Q 2597 3491 2834 3397 
z
" transform="scale(0.015625)"/>
      </defs>
      <use xlink:href="#DejaVuSans-54"/>
      <use xlink:href="#DejaVuSans-49" transform="translate(61.083984 0)"/>
      <use xlink:href="#DejaVuSans-49" transform="translate(90.576172 0)"/>
      <use xlink:href="#DejaVuSans-45" transform="translate(120.068359 0)"/>
      <use xlink:href="#DejaVuSans-20" transform="translate(183.251953 0)"/>
      <use xlink:href="#DejaVuSans-61" transform="translate(215.039062 0)"/>
      <use xlink:href="#DejaVuSans-20" transform="translate(276.318359 0)"/>
      <use xlink:href="#DejaVuSans-32" transform="translate(308.105469 0)"/>
      <use xlink:href="#DejaVuSans-38" transform="translate(371.728516 0)"/>
      <use xlink:href="#DejaVuSans-20" transform="translate(435.351562 0)"/>
      <use xlink:href="#DejaVuSans-64" transform="translate(467.138672 0)"/>
      <use xlink:href="#DejaVuSans-ed" transform="translate(530.615234 0)"/>
      <use xlink:href="#DejaVuSans-61" transform="translate(558.398438 0)"/>
      <use xlink:href="#DejaVuSans-73" transform="translate(619.677734 0)"/>
     </g>
    </g>
    <g id="line2d_31">
     <path d="M 115.2 74.06125 
L 123.2 74.06125 
L 131.2 74.06125 
" style="fill: none; stroke: #1f78b4; stroke-width: 1.5; stroke-linecap: square"/>
    </g>
    <g id="text_15">
     <!-- TIIE a 91 días -->
     <g transform="translate(137.6 76.86125) scale(0.08 -0.08)">
      <defs>
       <path id="DejaVuSans-39" d="M 703 97 
L 703 672 
Q 941 559 1184 500 
Q 1428 441 1663 441 
Q 2288 441 2617 861 
Q 2947 1281 2994 2138 
Q 2813 1869 2534 1725 
Q 2256 1581 1919 1581 
Q 1219 1581 811 2004 
Q 403 2428 403 3163 
Q 403 3881 828 4315 
Q 1253 4750 1959 4750 
Q 2769 4750 3195 4129 
Q 3622 3509 3622 2328 
Q 3622 1225 3098 567 
Q 2575 -91 1691 -91 
Q 1453 -91 1209 -44 
Q 966 3 703 97 
z
M 1959 2075 
Q 2384 2075 2632 2365 
Q 2881 2656 2881 3163 
Q 2881 3666 2632 3958 
Q 2384 4250 1959 4250 
Q 1534 4250 1286 3958 
Q 1038 3666 1038 3163 
Q 1038 2656 1286 2365 
Q 1534 2075 1959 2075 
z
" transform="scale(0.015625)"/>
      </defs>
      <use xlink:href="#DejaVuSans-54"/>
      <use xlink:href="#DejaVuSans-49" transform="translate(61.083984 0)"/>
      <use xlink:href="#DejaVuSans-49" transform="translate(90.576172 0)"/>
      <use xlink:href="#DejaVuSans-45" transform="translate(120.068359 0)"/>
      <use xlink:href="#DejaVuSans-20" transform="translate(183.251953 0)"/>
      <use xlink:href="#DejaVuSans-61" transform="translate(215.039062 0)"/>
      <use xlink:href="#DejaVuSans-20" transform="translate(276.318359 0)"/>
      <use xlink:href="#DejaVuSans-39" transform="translate(308.105469 0)"/>
      <use xlink:href="#DejaVuSans-31" transform="translate(371.728516 0)"/>
      <use xlink:href="#DejaVuSans-20" transform="translate(435.351562 0)"/>
      <use xlink:href="#DejaVuSans-64" transform="translate(467.138672 0)"/>
      <use xlink:href="#DejaVuSans-ed" transform="translate(530.615234 0)"/>
      <use xlink:href="#DejaVuSans-61" transform="translate(558.398438 0)"/>
      <use xlink:href="#DejaVuSans-73" transform="translate(619.677734 0)"/>
     </g>
    </g>
    <g id="line2d_32">
     <path d="M 115.2 85.80375 
L 123.2 85.80375 
L 131.2 85.80375 
" style="fill: none; stroke: #b2df8a; stroke-width: 1.5; stroke-linecap: square"/>
    </g>
    <g id="text_16">
     <!-- TIIE a 182 días -->
     <g transform="translate(137.6 88.60375) scale(0.08 -0.08)">
      <use xlink:href="#DejaVuSans-54"/>
      <use xlink:href="#DejaVuSans-49" transform="translate(61.083984 0)"/>
      <use xlink:href="#DejaVuSans-49" transform="translate(90.576172 0)"/>
      <use xlink:href="#DejaVuSans-45" transform="translate(120.068359 0)"/>
      <use xlink:href="#DejaVuSans-20" transform="translate(183.251953 0)"/>
      <use xlink:href="#DejaVuSans-61" transform="translate(215.039062 0)"/>
      <use xlink:href="#DejaVuSans-20" transform="translate(276.318359 0)"/>
      <use xlink:href="#DejaVuSans-31" transform="translate(308.105469 0)"/>
      <use xlink:href="#DejaVuSans-38" transform="translate(371.728516 0)"/>
      <use xlink:href="#DejaVuSans-32" transform="translate(435.351562 0)"/>
      <use xlink:href="#DejaVuSans-20" transform="translate(498.974609 0)"/>
      <use xlink:href="#DejaVuSans-64" transform="translate(530.761719 0)"/>
      <use xlink:href="#DejaVuSans-ed" transform="translate(594.238281 0)"/>
      <use xlink:href="#DejaVuSans-61" transform="translate(622.021484 0)"/>
      <use xlink:href="#DejaVuSans-73" transform="translate(683.300781 0)"/>
     </g>
    </g>
    <g id="line2d_33">
     <path d="M 115.2 97.54625 
L 123.2 97.54625 
L 131.2 97.54625 
" style="fill: none; stroke: #33a02c; stroke-width: 1.5; stroke-linecap: square"/>
    </g>
    <g id="text_17">
     <!-- Fondeo promedio ponderado bancario -->
     <g transform="translate(137.6 100.34625) scale(0.08 -0.08)">
      <defs>
       <path id="DejaVuSans-46" d="M 628 4666 
L 3309 4666 
L 3309 4134 
L 1259 4134 
L 1259 2759 
L 3109 2759 
L 3109 2228 
L 1259 2228 
L 1259 0 
L 628 0 
L 628 4666 
z
" transform="scale(0.015625)"/>
       <path id="DejaVuSans-6f" d="M 1959 3097 
Q 1497 3097 1228 2736 
Q 959 2375 959 1747 
Q 959 1119 1226 758 
Q 1494 397 1959 397 
Q 2419 397 2687 759 
Q 2956 1122 2956 1747 
Q 2956 2369 2687 2733 
Q 2419 3097 1959 3097 
z
M 1959 3584 
Q 2709 3584 3137 3096 
Q 3566 2609 3566 1747 
Q 3566 888 3137 398 
Q 2709 -91 1959 -91 
Q 1206 -91 779 398 
Q 353 888 353 1747 
Q 353 2609 779 3096 
Q 1206 3584 1959 3584 
z
" transform="scale(0.015625)"/>
       <path id="DejaVuSans-6e" d="M 3513 2113 
L 3513 0 
L 2938 0 
L 2938 2094 
Q 2938 2591 2744 2837 
Q 2550 3084 2163 3084 
Q 1697 3084 1428 2787 
Q 1159 2491 1159 1978 
L 1159 0 
L 581 0 
L 581 3500 
L 1159 3500 
L 1159 2956 
Q 1366 3272 1645 3428 
Q 1925 3584 2291 3584 
Q 2894 3584 3203 3211 
Q 3513 2838 3513 2113 
z
" transform="scale(0.015625)"/>
       <path id="DejaVuSans-65" d="M 3597 1894 
L 3597 1613 
L 953 1613 
Q 991 1019 1311 708 
Q 1631 397 2203 397 
Q 2534 397 2845 478 
Q 3156 559 3463 722 
L 3463 178 
Q 3153 47 2828 -22 
Q 2503 -91 2169 -91 
Q 1331 -91 842 396 
Q 353 884 353 1716 
Q 353 2575 817 3079 
Q 1281 3584 2069 3584 
Q 2775 3584 3186 3129 
Q 3597 2675 3597 1894 
z
M 3022 2063 
Q 3016 2534 2758 2815 
Q 2500 3097 2075 3097 
Q 1594 3097 1305 2825 
Q 1016 2553 972 2059 
L 3022 2063 
z
" transform="scale(0.015625)"/>
       <path id="DejaVuSans-70" d="M 1159 525 
L 1159 -1331 
L 581 -1331 
L 581 3500 
L 1159 3500 
L 1159 2969 
Q 1341 3281 1617 3432 
Q 1894 3584 2278 3584 
Q 2916 3584 3314 3078 
Q 3713 2572 3713 1747 
Q 3713 922 3314 415 
Q 2916 -91 2278 -91 
Q 1894 -91 1617 61 
Q 1341 213 1159 525 
z
M 3116 1747 
Q 3116 2381 2855 2742 
Q 2594 3103 2138 3103 
Q 1681 3103 1420 2742 
Q 1159 2381 1159 1747 
Q 1159 1113 1420 752 
Q 1681 391 2138 391 
Q 2594 391 2855 752 
Q 3116 1113 3116 1747 
z
" transform="scale(0.015625)"/>
       <path id="DejaVuSans-72" d="M 2631 2963 
Q 2534 3019 2420 3045 
Q 2306 3072 2169 3072 
Q 1681 3072 1420 2755 
Q 1159 2438 1159 1844 
L 1159 0 
L 581 0 
L 581 3500 
L 1159 3500 
L 1159 2956 
Q 1341 3275 1631 3429 
Q 1922 3584 2338 3584 
Q 2397 3584 2469 3576 
Q 2541 3569 2628 3553 
L 2631 2963 
z
" transform="scale(0.015625)"/>
       <path id="DejaVuSans-6d" d="M 3328 2828 
Q 3544 3216 3844 3400 
Q 4144 3584 4550 3584 
Q 5097 3584 5394 3201 
Q 5691 2819 5691 2113 
L 5691 0 
L 5113 0 
L 5113 2094 
Q 5113 2597 4934 2840 
Q 4756 3084 4391 3084 
Q 3944 3084 3684 2787 
Q 3425 2491 3425 1978 
L 3425 0 
L 2847 0 
L 2847 2094 
Q 2847 2600 2669 2842 
Q 2491 3084 2119 3084 
Q 1678 3084 1418 2786 
Q 1159 2488 1159 1978 
L 1159 0 
L 581 0 
L 581 3500 
L 1159 3500 
L 1159 2956 
Q 1356 3278 1631 3431 
Q 1906 3584 2284 3584 
Q 2666 3584 2933 3390 
Q 3200 3197 3328 2828 
z
" transform="scale(0.015625)"/>
       <path id="DejaVuSans-69" d="M 603 3500 
L 1178 3500 
L 1178 0 
L 603 0 
L 603 3500 
z
M 603 4863 
L 1178 4863 
L 1178 4134 
L 603 4134 
L 603 4863 
z
" transform="scale(0.015625)"/>
       <path id="DejaVuSans-62" d="M 3116 1747 
Q 3116 2381 2855 2742 
Q 2594 3103 2138 3103 
Q 1681 3103 1420 2742 
Q 1159 2381 1159 1747 
Q 1159 1113 1420 752 
Q 1681 391 2138 391 
Q 2594 391 2855 752 
Q 3116 1113 3116 1747 
z
M 1159 2969 
Q 1341 3281 1617 3432 
Q 1894 3584 2278 3584 
Q 2916 3584 3314 3078 
Q 3713 2572 3713 1747 
Q 3713 922 3314 415 
Q 2916 -91 2278 -91 
Q 1894 -91 1617 61 
Q 1341 213 1159 525 
L 1159 0 
L 581 0 
L 581 4863 
L 1159 4863 
L 1159 2969 
z
" transform="scale(0.015625)"/>
       <path id="DejaVuSans-63" d="M 3122 3366 
L 3122 2828 
Q 2878 2963 2633 3030 
Q 2388 3097 2138 3097 
Q 1578 3097 1268 2742 
Q 959 2388 959 1747 
Q 959 1106 1268 751 
Q 1578 397 2138 397 
Q 2388 397 2633 464 
Q 2878 531 3122 666 
L 3122 134 
Q 2881 22 2623 -34 
Q 2366 -91 2075 -91 
Q 1284 -91 818 406 
Q 353 903 353 1747 
Q 353 2603 823 3093 
Q 1294 3584 2113 3584 
Q 2378 3584 2631 3529 
Q 2884 3475 3122 3366 
z
" transform="scale(0.015625)"/>
      </defs>
      <use xlink:href="#DejaVuSans-46"/>
      <use xlink:href="#DejaVuSans-6f" transform="translate(53.894531 0)"/>
      <use xlink:href="#DejaVuSans-6e" transform="translate(115.076172 0)"/>
      <use xlink:href="#DejaVuSans-64" transform="translate(178.455078 0)"/>
      <use xlink:href="#DejaVuSans-65" transform="translate(241.931641 0)"/>
      <use xlink:href="#DejaVuSans-6f" transform="translate(303.455078 0)"/>
      <use xlink:href="#DejaVuSans-20" transform="translate(364.636719 0)"/>
      <use xlink:href="#DejaVuSans-70" transform="translate(396.423828 0)"/>
      <use xlink:href="#DejaVuSans-72" transform="translate(459.900391 0)"/>
      <use xlink:href="#DejaVuSans-6f" transform="translate(498.763672 0)"/>
      <use xlink:href="#DejaVuSans-6d" transform="translate(559.945312 0)"/>
      <use xlink:href="#DejaVuSans-65" transform="translate(657.357422 0)"/>
      <use xlink:href="#DejaVuSans-64" transform="translate(718.880859 0)"/>
      <use xlink:href="#DejaVuSans-69" transform="translate(782.357422 0)"/>
      <use xlink:href="#DejaVuSans-6f" transform="translate(810.140625 0)"/>
      <use xlink:href="#DejaVuSans-20" transform="translate(871.322266 0)"/>
      <use xlink:href="#DejaVuSans-70" transform="translate(903.109375 0)"/>
      <use xlink:href="#DejaVuSans-6f" transform="translate(966.585938 0)"/>
      <use xlink:href="#DejaVuSans-6e" transform="translate(1027.767578 0)"/>
      <use xlink:href="#DejaVuSans-64" transform="translate(1091.146484 0)"/>
      <use xlink:href="#DejaVuSans-65" transform="translate(1154.623047 0)"/>
      <use xlink:href="#DejaVuSans-72" transform="translate(1216.146484 0)"/>
      <use xlink:href="#DejaVuSans-61" transform="translate(1257.259766 0)"/>
      <use xlink:href="#DejaVuSans-64" transform="translate(1318.539062 0)"/>
      <use xlink:href="#DejaVuSans-6f" transform="translate(1382.015625 0)"/>
      <use xlink:href="#DejaVuSans-20" transform="translate(1443.197266 0)"/>
      <use xlink:href="#DejaVuSans-62" transform="translate(1474.984375 0)"/>
      <use xlink:href="#DejaVuSans-61" transform="translate(1538.460938 0)"/>
      <use xlink:href="#DejaVuSans-6e" transform="translate(1599.740234 0)"/>
      <use xlink:href="#DejaVuSans-63" transform="translate(1663.119141 0)"/>
      <use xlink:href="#DejaVuSans-61" transform="translate(1718.099609 0)"/>
      <use xlink:href="#DejaVuSans-72" transform="translate(1779.378906 0)"/>
      <use xlink:href="#DejaVuSans-69" transform="translate(1820.492188 0)"/>
      <use xlink:href="#DejaVuSans-6f" transform="translate(1848.275391 0)"/>
     </g>
    </g>
    <g id="line2d_34">
     <path d="M 115.2 109.28875 
L 123.2 109.28875 
L 131.2 109.28875 
" style="fill: none; stroke: #fb9a99; stroke-width: 1.5; stroke-linecap: square"/>
    </g>
    <g id="text_18">
     <!-- Fondeo promedio ponderado gubernamental -->
     <g transform="translate(137.6 112.08875) scale(0.08 -0.08)">
      <defs>
       <path id="DejaVuSans-67" d="M 2906 1791 
Q 2906 2416 2648 2759 
Q 2391 3103 1925 3103 
Q 1463 3103 1205 2759 
Q 947 2416 947 1791 
Q 947 1169 1205 825 
Q 1463 481 1925 481 
Q 2391 481 2648 825 
Q 2906 1169 2906 1791 
z
M 3481 434 
Q 3481 -459 3084 -895 
Q 2688 -1331 1869 -1331 
Q 1566 -1331 1297 -1286 
Q 1028 -1241 775 -1147 
L 775 -588 
Q 1028 -725 1275 -790 
Q 1522 -856 1778 -856 
Q 2344 -856 2625 -561 
Q 2906 -266 2906 331 
L 2906 616 
Q 2728 306 2450 153 
Q 2172 0 1784 0 
Q 1141 0 747 490 
Q 353 981 353 1791 
Q 353 2603 747 3093 
Q 1141 3584 1784 3584 
Q 2172 3584 2450 3431 
Q 2728 3278 2906 2969 
L 2906 3500 
L 3481 3500 
L 3481 434 
z
" transform="scale(0.015625)"/>
       <path id="DejaVuSans-75" d="M 544 1381 
L 544 3500 
L 1119 3500 
L 1119 1403 
Q 1119 906 1312 657 
Q 1506 409 1894 409 
Q 2359 409 2629 706 
Q 2900 1003 2900 1516 
L 2900 3500 
L 3475 3500 
L 3475 0 
L 2900 0 
L 2900 538 
Q 2691 219 2414 64 
Q 2138 -91 1772 -91 
Q 1169 -91 856 284 
Q 544 659 544 1381 
z
M 1991 3584 
L 1991 3584 
z
" transform="scale(0.015625)"/>
       <path id="DejaVuSans-74" d="M 1172 4494 
L 1172 3500 
L 2356 3500 
L 2356 3053 
L 1172 3053 
L 1172 1153 
Q 1172 725 1289 603 
Q 1406 481 1766 481 
L 2356 481 
L 2356 0 
L 1766 0 
Q 1100 0 847 248 
Q 594 497 594 1153 
L 594 3053 
L 172 3053 
L 172 3500 
L 594 3500 
L 594 4494 
L 1172 4494 
z
" transform="scale(0.015625)"/>
       <path id="DejaVuSans-6c" d="M 603 4863 
L 1178 4863 
L 1178 0 
L 603 0 
L 603 4863 
z
" transform="scale(0.015625)"/>
      </defs>
      <use xlink:href="#DejaVuSans-46"/>
      <use xlink:href="#DejaVuSans-6f" transform="translate(53.894531 0)"/>
      <use xlink:href="#DejaVuSans-6e" transform="translate(115.076172 0)"/>
      <use xlink:href="#DejaVuSans-64" transform="translate(178.455078 0)"/>
      <use xlink:href="#DejaVuSans-65" transform="translate(241.931641 0)"/>
      <use xlink:href="#DejaVuSans-6f" transform="translate(303.455078 0)"/>
      <use xlink:href="#DejaVuSans-20" transform="translate(364.636719 0)"/>
      <use xlink:href="#DejaVuSans-70" transform="translate(396.423828 0)"/>
      <use xlink:href="#DejaVuSans-72" transform="translate(459.900391 0)"/>
      <use xlink:href="#DejaVuSans-6f" transform="translate(498.763672 0)"/>
      <use xlink:href="#DejaVuSans-6d" transform="translate(559.945312 0)"/>
      <use xlink:href="#DejaVuSans-65" transform="translate(657.357422 0)"/>
      <use xlink:href="#DejaVuSans-64" transform="translate(718.880859 0)"/>
      <use xlink:href="#DejaVuSans-69" transform="translate(782.357422 0)"/>
      <use xlink:href="#DejaVuSans-6f" transform="translate(810.140625 0)"/>
      <use xlink:href="#DejaVuSans-20" transform="translate(871.322266 0)"/>
      <use xlink:href="#DejaVuSans-70" transform="translate(903.109375 0)"/>
      <use xlink:href="#DejaVuSans-6f" transform="translate(966.585938 0)"/>
      <use xlink:href="#DejaVuSans-6e" transform="translate(1027.767578 0)"/>
      <use xlink:href="#DejaVuSans-64" transform="translate(1091.146484 0)"/>
      <use xlink:href="#DejaVuSans-65" transform="translate(1154.623047 0)"/>
      <use xlink:href="#DejaVuSans-72" transform="translate(1216.146484 0)"/>
      <use xlink:href="#DejaVuSans-61" transform="translate(1257.259766 0)"/>
      <use xlink:href="#DejaVuSans-64" transform="translate(1318.539062 0)"/>
      <use xlink:href="#DejaVuSans-6f" transform="translate(1382.015625 0)"/>
      <use xlink:href="#DejaVuSans-20" transform="translate(1443.197266 0)"/>
      <use xlink:href="#DejaVuSans-67" transform="translate(1474.984375 0)"/>
      <use xlink:href="#DejaVuSans-75" transform="translate(1538.460938 0)"/>
      <use xlink:href="#DejaVuSans-62" transform="translate(1601.839844 0)"/>
      <use xlink:href="#DejaVuSans-65" transform="translate(1665.316406 0)"/>
      <use xlink:href="#DejaVuSans-72" transform="translate(1726.839844 0)"/>
      <use xlink:href="#DejaVuSans-6e" transform="translate(1766.203125 0)"/>
      <use xlink:href="#DejaVuSans-61" transform="translate(1829.582031 0)"/>
      <use xlink:href="#DejaVuSans-6d" transform="translate(1890.861328 0)"/>
      <use xlink:href="#DejaVuSans-65" transform="translate(1988.273438 0)"/>
      <use xlink:href="#DejaVuSans-6e" transform="translate(2049.796875 0)"/>
      <use xlink:href="#DejaVuSans-74" transform="translate(2113.175781 0)"/>
      <use xlink:href="#DejaVuSans-61" transform="translate(2152.384766 0)"/>
      <use xlink:href="#DejaVuSans-6c" transform="translate(2213.664062 0)"/>
     </g>
    </g>
   </g>
  </g>
 </g>
 <defs>
  <clipPath id="pff873d4e77">
   <rect x="108" y="51.84" width="669.6" height="332.64"/>
  </clipPath>
 </defs>
</svg>
