<?xml version="1.0" encoding="utf-8" standalone="no"?>
<!DOCTYPE svg PUBLIC "-//W3C//DTD SVG 1.1//EN"
  "http://www.w3.org/Graphics/SVG/1.1/DTD/svg11.dtd">
<svg xmlns:xlink="http://www.w3.org/1999/xlink" width="864pt" height="432pt" viewBox="0 0 864 432" xmlns="http://www.w3.org/2000/svg" version="1.1">
 <metadata>
  <rdf:RDF xmlns:dc="http://purl.org/dc/elements/1.1/" xmlns:cc="http://creativecommons.org/ns#" xmlns:rdf="http://www.w3.org/1999/02/22-rdf-syntax-ns#">
   <cc:Work>
    <dc:type rdf:resource="http://purl.org/dc/dcmitype/StillImage"/>
    <dc:date>2025-02-23T06:33:30.086519</dc:date>
    <dc:format>image/svg+xml</dc:format>
    <dc:creator>
     <cc:Agent>
      <dc:title>Matplotlib v3.10.0, https://matplotlib.org/</dc:title>
     </cc:Agent>
    </dc:creator>
   </cc:Work>
  </rdf:RDF>
 </metadata>
 <defs>
  <style type="text/css">*{stroke-linejoin: round; stroke-linecap: butt}</style>
 </defs>
 <g id="figure_1">
  <g id="patch_1">
   <path d="M 0 432 
L 864 432 
L 864 0 
L 0 0 
z
" style="fill: #ffffff"/>
  </g>
  <g id="axes_1">
   <g id="patch_2">
    <path d="M 108 384.48 
L 777.6 384.48 
L 777.6 51.84 
L 108 51.84 
z
" style="fill: #ffffff"/>
   </g>
   <g id="matplotlib.axis_1">
    <g id="xtick_1">
     <g id="line2d_1">
      <path d="M 175.285136 384.48 
L 175.285136 51.84 
" clip-path="url(#p0e9863e6ab)" style="fill: none; stroke-dasharray: 2.96,1.28; stroke-dashoffset: 0; stroke: #b0b0b0; stroke-opacity: 0.5; stroke-width: 0.8"/>
     </g>
     <g id="line2d_2">
      <defs>
       <path id="m6cd30422ff" d="M 0 0 
L 0 3.5 
" style="stroke: #000000; stroke-width: 0.8"/>
      </defs>
      <g>
       <use xlink:href="#m6cd30422ff" x="175.285136" y="384.48" style="stroke: #000000; stroke-width: 0.8"/>
      </g>
     </g>
     <g id="text_1">
      <!-- 2012 -->
      <g transform="translate(162.560136 399.078438) scale(0.1 -0.1)">
       <defs>
        <path id="DejaVuSans-32" d="M 1228 531 
L 3431 531 
L 3431 0 
L 469 0 
L 469 531 
Q 828 903 1448 1529 
Q 2069 2156 2228 2338 
Q 2531 2678 2651 2914 
Q 2772 3150 2772 3378 
Q 2772 3750 2511 3984 
Q 2250 4219 1831 4219 
Q 1534 4219 1204 4116 
Q 875 4013 500 3803 
L 500 4441 
Q 881 4594 1212 4672 
Q 1544 4750 1819 4750 
Q 2544 4750 2975 4387 
Q 3406 4025 3406 3419 
Q 3406 3131 3298 2873 
Q 3191 2616 2906 2266 
Q 2828 2175 2409 1742 
Q 1991 1309 1228 531 
z
" transform="scale(0.015625)"/>
        <path id="DejaVuSans-30" d="M 2034 4250 
Q 1547 4250 1301 3770 
Q 1056 3291 1056 2328 
Q 1056 1369 1301 889 
Q 1547 409 2034 409 
Q 2525 409 2770 889 
Q 3016 1369 3016 2328 
Q 3016 3291 2770 3770 
Q 2525 4250 2034 4250 
z
M 2034 4750 
Q 2819 4750 3233 4129 
Q 3647 3509 3647 2328 
Q 3647 1150 3233 529 
Q 2819 -91 2034 -91 
Q 1250 -91 836 529 
Q 422 1150 422 2328 
Q 422 3509 836 4129 
Q 1250 4750 2034 4750 
z
" transform="scale(0.015625)"/>
        <path id="DejaVuSans-31" d="M 794 531 
L 1825 531 
L 1825 4091 
L 703 3866 
L 703 4441 
L 1819 4666 
L 2450 4666 
L 2450 531 
L 3481 531 
L 3481 0 
L 794 0 
L 794 531 
z
" transform="scale(0.015625)"/>
       </defs>
       <use xlink:href="#DejaVuSans-32"/>
       <use xlink:href="#DejaVuSans-30" transform="translate(63.623047 0)"/>
       <use xlink:href="#DejaVuSans-31" transform="translate(127.246094 0)"/>
       <use xlink:href="#DejaVuSans-32" transform="translate(190.869141 0)"/>
      </g>
     </g>
    </g>
    <g id="xtick_2">
     <g id="line2d_3">
      <path d="M 263.31276 384.48 
L 263.31276 51.84 
" clip-path="url(#p0e9863e6ab)" style="fill: none; stroke-dasharray: 2.96,1.28; stroke-dashoffset: 0; stroke: #b0b0b0; stroke-opacity: 0.5; stroke-width: 0.8"/>
     </g>
     <g id="line2d_4">
      <g>
       <use xlink:href="#m6cd30422ff" x="263.31276" y="384.48" style="stroke: #000000; stroke-width: 0.8"/>
      </g>
     </g>
     <g id="text_2">
      <!-- 2014 -->
      <g transform="translate(250.58776 399.078438) scale(0.1 -0.1)">
       <defs>
        <path id="DejaVuSans-34" d="M 2419 4116 
L 825 1625 
L 2419 1625 
L 2419 4116 
z
M 2253 4666 
L 3047 4666 
L 3047 1625 
L 3713 1625 
L 3713 1100 
L 3047 1100 
L 3047 0 
L 2419 0 
L 2419 1100 
L 313 1100 
L 313 1709 
L 2253 4666 
z
" transform="scale(0.015625)"/>
       </defs>
       <use xlink:href="#DejaVuSans-32"/>
       <use xlink:href="#DejaVuSans-30" transform="translate(63.623047 0)"/>
       <use xlink:href="#DejaVuSans-31" transform="translate(127.246094 0)"/>
       <use xlink:href="#DejaVuSans-34" transform="translate(190.869141 0)"/>
      </g>
     </g>
    </g>
    <g id="xtick_3">
     <g id="line2d_5">
      <path d="M 351.219962 384.48 
L 351.219962 51.84 
" clip-path="url(#p0e9863e6ab)" style="fill: none; stroke-dasharray: 2.96,1.28; stroke-dashoffset: 0; stroke: #b0b0b0; stroke-opacity: 0.5; stroke-width: 0.8"/>
     </g>
     <g id="line2d_6">
      <g>
       <use xlink:href="#m6cd30422ff" x="351.219962" y="384.48" style="stroke: #000000; stroke-width: 0.8"/>
      </g>
     </g>
     <g id="text_3">
      <!-- 2016 -->
      <g transform="translate(338.494962 399.078438) scale(0.1 -0.1)">
       <defs>
        <path id="DejaVuSans-36" d="M 2113 2584 
Q 1688 2584 1439 2293 
Q 1191 2003 1191 1497 
Q 1191 994 1439 701 
Q 1688 409 2113 409 
Q 2538 409 2786 701 
Q 3034 994 3034 1497 
Q 3034 2003 2786 2293 
Q 2538 2584 2113 2584 
z
M 3366 4563 
L 3366 3988 
Q 3128 4100 2886 4159 
Q 2644 4219 2406 4219 
Q 1781 4219 1451 3797 
Q 1122 3375 1075 2522 
Q 1259 2794 1537 2939 
Q 1816 3084 2150 3084 
Q 2853 3084 3261 2657 
Q 3669 2231 3669 1497 
Q 3669 778 3244 343 
Q 2819 -91 2113 -91 
Q 1303 -91 875 529 
Q 447 1150 447 2328 
Q 447 3434 972 4092 
Q 1497 4750 2381 4750 
Q 2619 4750 2861 4703 
Q 3103 4656 3366 4563 
z
" transform="scale(0.015625)"/>
       </defs>
       <use xlink:href="#DejaVuSans-32"/>
       <use xlink:href="#DejaVuSans-30" transform="translate(63.623047 0)"/>
       <use xlink:href="#DejaVuSans-31" transform="translate(127.246094 0)"/>
       <use xlink:href="#DejaVuSans-36" transform="translate(190.869141 0)"/>
      </g>
     </g>
    </g>
    <g id="xtick_4">
     <g id="line2d_7">
      <path d="M 439.247586 384.48 
L 439.247586 51.84 
" clip-path="url(#p0e9863e6ab)" style="fill: none; stroke-dasharray: 2.96,1.28; stroke-dashoffset: 0; stroke: #b0b0b0; stroke-opacity: 0.5; stroke-width: 0.8"/>
     </g>
     <g id="line2d_8">
      <g>
       <use xlink:href="#m6cd30422ff" x="439.247586" y="384.48" style="stroke: #000000; stroke-width: 0.8"/>
      </g>
     </g>
     <g id="text_4">
      <!-- 2018 -->
      <g transform="translate(426.522586 399.078438) scale(0.1 -0.1)">
       <defs>
        <path id="DejaVuSans-38" d="M 2034 2216 
Q 1584 2216 1326 1975 
Q 1069 1734 1069 1313 
Q 1069 891 1326 650 
Q 1584 409 2034 409 
Q 2484 409 2743 651 
Q 3003 894 3003 1313 
Q 3003 1734 2745 1975 
Q 2488 2216 2034 2216 
z
M 1403 2484 
Q 997 2584 770 2862 
Q 544 3141 544 3541 
Q 544 4100 942 4425 
Q 1341 4750 2034 4750 
Q 2731 4750 3128 4425 
Q 3525 4100 3525 3541 
Q 3525 3141 3298 2862 
Q 3072 2584 2669 2484 
Q 3125 2378 3379 2068 
Q 3634 1759 3634 1313 
Q 3634 634 3220 271 
Q 2806 -91 2034 -91 
Q 1263 -91 848 271 
Q 434 634 434 1313 
Q 434 1759 690 2068 
Q 947 2378 1403 2484 
z
M 1172 3481 
Q 1172 3119 1398 2916 
Q 1625 2713 2034 2713 
Q 2441 2713 2670 2916 
Q 2900 3119 2900 3481 
Q 2900 3844 2670 4047 
Q 2441 4250 2034 4250 
Q 1625 4250 1398 4047 
Q 1172 3844 1172 3481 
z
" transform="scale(0.015625)"/>
       </defs>
       <use xlink:href="#DejaVuSans-32"/>
       <use xlink:href="#DejaVuSans-30" transform="translate(63.623047 0)"/>
       <use xlink:href="#DejaVuSans-31" transform="translate(127.246094 0)"/>
       <use xlink:href="#DejaVuSans-38" transform="translate(190.869141 0)"/>
      </g>
     </g>
    </g>
    <g id="xtick_5">
     <g id="line2d_9">
      <path d="M 527.154788 384.48 
L 527.154788 51.84 
" clip-path="url(#p0e9863e6ab)" style="fill: none; stroke-dasharray: 2.96,1.28; stroke-dashoffset: 0; stroke: #b0b0b0; stroke-opacity: 0.5; stroke-width: 0.8"/>
     </g>
     <g id="line2d_10">
      <g>
       <use xlink:href="#m6cd30422ff" x="527.154788" y="384.48" style="stroke: #000000; stroke-width: 0.8"/>
      </g>
     </g>
     <g id="text_5">
      <!-- 2020 -->
      <g transform="translate(514.429788 399.078438) scale(0.1 -0.1)">
       <use xlink:href="#DejaVuSans-32"/>
       <use xlink:href="#DejaVuSans-30" transform="translate(63.623047 0)"/>
       <use xlink:href="#DejaVuSans-32" transform="translate(127.246094 0)"/>
       <use xlink:href="#DejaVuSans-30" transform="translate(190.869141 0)"/>
      </g>
     </g>
    </g>
    <g id="xtick_6">
     <g id="line2d_11">
      <path d="M 615.182412 384.48 
L 615.182412 51.84 
" clip-path="url(#p0e9863e6ab)" style="fill: none; stroke-dasharray: 2.96,1.28; stroke-dashoffset: 0; stroke: #b0b0b0; stroke-opacity: 0.5; stroke-width: 0.8"/>
     </g>
     <g id="line2d_12">
      <g>
       <use xlink:href="#m6cd30422ff" x="615.182412" y="384.48" style="stroke: #000000; stroke-width: 0.8"/>
      </g>
     </g>
     <g id="text_6">
      <!-- 2022 -->
      <g transform="translate(602.457412 399.078438) scale(0.1 -0.1)">
       <use xlink:href="#DejaVuSans-32"/>
       <use xlink:href="#DejaVuSans-30" transform="translate(63.623047 0)"/>
       <use xlink:href="#DejaVuSans-32" transform="translate(127.246094 0)"/>
       <use xlink:href="#DejaVuSans-32" transform="translate(190.869141 0)"/>
      </g>
     </g>
    </g>
    <g id="xtick_7">
     <g id="line2d_13">
      <path d="M 703.089614 384.48 
L 703.089614 51.84 
" clip-path="url(#p0e9863e6ab)" style="fill: none; stroke-dasharray: 2.96,1.28; stroke-dashoffset: 0; stroke: #b0b0b0; stroke-opacity: 0.5; stroke-width: 0.8"/>
     </g>
     <g id="line2d_14">
      <g>
       <use xlink:href="#m6cd30422ff" x="703.089614" y="384.48" style="stroke: #000000; stroke-width: 0.8"/>
      </g>
     </g>
     <g id="text_7">
      <!-- 2024 -->
      <g transform="translate(690.364614 399.078438) scale(0.1 -0.1)">
       <use xlink:href="#DejaVuSans-32"/>
       <use xlink:href="#DejaVuSans-30" transform="translate(63.623047 0)"/>
       <use xlink:href="#DejaVuSans-32" transform="translate(127.246094 0)"/>
       <use xlink:href="#DejaVuSans-34" transform="translate(190.869141 0)"/>
      </g>
     </g>
    </g>
   </g>
   <g id="matplotlib.axis_2">
    <g id="ytick_1">
     <g id="line2d_15">
      <path d="M 108 335.382472 
L 777.6 335.382472 
" clip-path="url(#p0e9863e6ab)" style="fill: none; stroke-dasharray: 2.96,1.28; stroke-dashoffset: 0; stroke: #b0b0b0; stroke-opacity: 0.5; stroke-width: 0.8"/>
     </g>
     <g id="line2d_16">
      <defs>
       <path id="m0cbb333c44" d="M 0 0 
L -3.5 0 
" style="stroke: #000000; stroke-width: 0.8"/>
      </defs>
      <g>
       <use xlink:href="#m0cbb333c44" x="108" y="335.382472" style="stroke: #000000; stroke-width: 0.8"/>
      </g>
     </g>
     <g id="text_8">
      <!-- 4 -->
      <g transform="translate(94.6375 339.181691) scale(0.1 -0.1)">
       <use xlink:href="#DejaVuSans-34"/>
      </g>
     </g>
    </g>
    <g id="ytick_2">
     <g id="line2d_17">
      <path d="M 108 267.427416 
L 777.6 267.427416 
" clip-path="url(#p0e9863e6ab)" style="fill: none; stroke-dasharray: 2.96,1.28; stroke-dashoffset: 0; stroke: #b0b0b0; stroke-opacity: 0.5; stroke-width: 0.8"/>
     </g>
     <g id="line2d_18">
      <g>
       <use xlink:href="#m0cbb333c44" x="108" y="267.427416" style="stroke: #000000; stroke-width: 0.8"/>
      </g>
     </g>
     <g id="text_9">
      <!-- 6 -->
      <g transform="translate(94.6375 271.226634) scale(0.1 -0.1)">
       <use xlink:href="#DejaVuSans-36"/>
      </g>
     </g>
    </g>
    <g id="ytick_3">
     <g id="line2d_19">
      <path d="M 108 199.47236 
L 777.6 199.47236 
" clip-path="url(#p0e9863e6ab)" style="fill: none; stroke-dasharray: 2.96,1.28; stroke-dashoffset: 0; stroke: #b0b0b0; stroke-opacity: 0.5; stroke-width: 0.8"/>
     </g>
     <g id="line2d_20">
      <g>
       <use xlink:href="#m0cbb333c44" x="108" y="199.47236" style="stroke: #000000; stroke-width: 0.8"/>
      </g>
     </g>
     <g id="text_10">
      <!-- 8 -->
      <g transform="translate(94.6375 203.271578) scale(0.1 -0.1)">
       <use xlink:href="#DejaVuSans-38"/>
      </g>
     </g>
    </g>
    <g id="ytick_4">
     <g id="line2d_21">
      <path d="M 108 131.517303 
L 777.6 131.517303 
" clip-path="url(#p0e9863e6ab)" style="fill: none; stroke-dasharray: 2.96,1.28; stroke-dashoffset: 0; stroke: #b0b0b0; stroke-opacity: 0.5; stroke-width: 0.8"/>
     </g>
     <g id="line2d_22">
      <g>
       <use xlink:href="#m0cbb333c44" x="108" y="131.517303" style="stroke: #000000; stroke-width: 0.8"/>
      </g>
     </g>
     <g id="text_11">
      <!-- 10 -->
      <g transform="translate(88.275 135.316522) scale(0.1 -0.1)">
       <use xlink:href="#DejaVuSans-31"/>
       <use xlink:href="#DejaVuSans-30" transform="translate(63.623047 0)"/>
      </g>
     </g>
    </g>
    <g id="ytick_5">
     <g id="line2d_23">
      <path d="M 108 63.562247 
L 777.6 63.562247 
" clip-path="url(#p0e9863e6ab)" style="fill: none; stroke-dasharray: 2.96,1.28; stroke-dashoffset: 0; stroke: #b0b0b0; stroke-opacity: 0.5; stroke-width: 0.8"/>
     </g>
     <g id="line2d_24">
      <g>
       <use xlink:href="#m0cbb333c44" x="108" y="63.562247" style="stroke: #000000; stroke-width: 0.8"/>
      </g>
     </g>
     <g id="text_12">
      <!-- 12 -->
      <g transform="translate(88.275 67.361466) scale(0.1 -0.1)">
       <use xlink:href="#DejaVuSans-31"/>
       <use xlink:href="#DejaVuSans-32" transform="translate(63.623047 0)"/>
      </g>
     </g>
    </g>
   </g>
   <g id="line2d_25">
    <path d="M 138.436364 306.841348 
L 142.169409 306.501573 
L 149.51508 306.501573 
L 153.127704 307.520899 
L 156.86075 307.860674 
L 160.593796 308.88 
L 167.939466 308.200449 
L 171.552091 308.200449 
L 182.510386 309.219775 
L 186.243431 310.239101 
L 189.856056 309.559551 
L 193.589102 309.559551 
L 197.201726 308.88 
L 204.667818 308.200449 
L 212.013488 306.841348 
L 219.359158 306.841348 
L 223.092204 307.520899 
L 226.463987 319.073258 
L 230.197033 324.169888 
L 233.809657 324.509663 
L 237.542703 325.189213 
L 241.155328 324.509663 
L 244.888373 324.849438 
L 248.621419 331.984719 
L 252.234044 336.062022 
L 255.967089 342.517753 
L 259.579714 342.517753 
L 263.31276 342.857528 
L 274.150634 341.838202 
L 277.763259 342.177978 
L 281.496304 354.749663 
L 285.108929 359.166742 
L 288.841975 359.166742 
L 292.57502 359.506517 
L 299.920691 359.506517 
L 303.533315 359.166742 
L 329.06253 359.166742 
L 332.795576 358.487191 
L 336.528622 358.147416 
L 340.141246 358.826966 
L 343.874292 358.487191 
L 347.486917 355.089438 
L 351.219962 350.332584 
L 354.953008 343.876854 
L 358.445212 333.34382 
L 362.178257 333.34382 
L 369.523928 331.984719 
L 373.136552 316.355056 
L 376.869598 315.33573 
L 380.602644 314.65618 
L 384.215268 297.667416 
L 387.948314 289.852584 
L 391.560939 272.86382 
L 395.293984 263.010337 
L 399.02703 252.477303 
L 402.398813 246.021573 
L 406.131859 237.866966 
L 409.744483 234.129438 
L 413.477529 226.314607 
L 417.090154 220.878202 
L 420.823199 220.538427 
L 431.901915 220.538427 
L 442.980631 206.947416 
L 446.352414 205.248539 
L 453.698085 204.568989 
L 457.43113 201.850787 
L 461.043755 196.074607 
L 464.776801 195.734831 
L 468.509846 195.734831 
L 472.122471 195.395056 
L 475.855517 190.977978 
L 479.468141 185.541573 
L 483.201187 179.425618 
L 486.934233 180.444944 
L 490.306016 181.804045 
L 494.039061 182.483596 
L 497.651686 182.14382 
L 501.384732 182.14382 
L 504.997356 183.163146 
L 508.730402 186.900674 
L 512.463448 192.676854 
L 516.076072 199.47236 
L 519.809118 203.889438 
L 527.154788 215.441798 
L 530.887834 220.198652 
L 534.380038 230.052135 
L 541.725708 267.427416 
L 545.458754 279.319551 
L 549.071378 293.590112 
L 552.804424 302.42427 
L 556.53747 310.918652 
L 560.150094 317.374382 
L 563.88314 318.393708 
L 567.495765 318.733483 
L 571.22881 319.413034 
L 574.961856 323.150562 
L 578.333639 325.868764 
L 582.066685 325.868764 
L 585.679309 325.528989 
L 589.412355 324.509663 
L 593.02498 317.714157 
L 596.758025 313.297079 
L 600.491071 309.899326 
L 604.103696 302.084494 
L 607.836741 296.987865 
L 611.449366 286.454831 
L 615.182412 276.941124 
L 618.915457 266.747865 
L 622.28724 256.214831 
L 626.020286 242.62382 
L 629.632911 233.110112 
L 633.365956 219.179326 
L 636.978581 198.113258 
L 640.711627 182.483596 
L 644.444672 169.23236 
L 648.057297 146.467416 
L 651.790343 131.517303 
L 655.402967 113.509213 
L 659.136013 105.014831 
L 662.869059 94.142022 
L 666.240842 85.987416 
L 669.973887 79.531685 
L 673.586512 79.19191 
L 677.319558 80.551011 
L 692.010898 80.551011 
L 695.743944 80.211236 
L 699.356569 80.551011 
L 706.82266 80.551011 
L 710.314864 82.589663 
L 714.047909 89.045393 
L 717.660534 89.385169 
L 721.39358 89.385169 
L 725.006204 89.045393 
L 728.73925 94.821573 
L 732.472296 99.238652 
L 736.08492 106.373933 
L 739.817966 110.791011 
L 743.430591 118.605843 
L 747.163636 122.003596 
L 747.163636 122.003596 
" clip-path="url(#p0e9863e6ab)" style="fill: none; stroke: #a6cee3; stroke-width: 1.5; stroke-linecap: square"/>
   </g>
   <g id="line2d_26">
    <path d="M 138.436364 305.822022 
L 142.169409 305.482247 
L 145.782034 305.482247 
L 149.51508 305.142472 
L 153.127704 306.161798 
L 156.86075 306.501573 
L 160.593796 308.200449 
L 164.20642 307.860674 
L 171.552091 307.860674 
L 175.285136 308.200449 
L 179.018182 308.200449 
L 182.510386 308.540225 
L 186.243431 309.559551 
L 189.856056 308.88 
L 193.589102 308.88 
L 200.934772 308.200449 
L 212.013488 306.161798 
L 219.359158 306.161798 
L 223.092204 307.520899 
L 226.463987 318.733483 
L 230.197033 323.830112 
L 233.809657 324.509663 
L 237.542703 324.849438 
L 241.155328 324.509663 
L 244.888373 324.849438 
L 248.621419 331.644944 
L 252.234044 336.401798 
L 255.967089 342.517753 
L 259.579714 342.517753 
L 263.31276 342.177978 
L 267.045805 342.177978 
L 270.417588 341.838202 
L 274.150634 341.838202 
L 277.763259 341.498427 
L 281.496304 354.409888 
L 285.108929 358.826966 
L 288.841975 358.826966 
L 292.57502 359.166742 
L 299.920691 359.166742 
L 303.533315 358.826966 
L 310.999407 358.826966 
L 314.37119 358.147416 
L 318.104235 358.826966 
L 325.449906 358.826966 
L 329.06253 358.487191 
L 332.795576 357.467865 
L 336.528622 357.12809 
L 340.141246 358.487191 
L 343.874292 356.448539 
L 347.486917 352.371236 
L 351.219962 349.313258 
L 354.953008 342.857528 
L 358.445212 331.644944 
L 362.178257 331.305169 
L 365.790882 330.625618 
L 369.523928 328.247191 
L 373.136552 312.957303 
L 380.602644 310.918652 
L 384.215268 294.949213 
L 387.948314 281.358202 
L 391.560939 266.747865 
L 395.293984 257.913708 
L 399.02703 248.060225 
L 402.398813 240.924944 
L 406.131859 235.828315 
L 409.744483 231.751011 
L 413.477529 222.916854 
L 417.090154 220.538427 
L 420.823199 220.198652 
L 424.556245 220.198652 
L 431.901915 219.519101 
L 435.51454 214.422472 
L 442.980631 204.908764 
L 446.352414 204.229213 
L 450.08546 204.229213 
L 453.698085 203.209888 
L 461.043755 194.37573 
L 464.776801 194.715506 
L 468.509846 193.69618 
L 472.122471 193.69618 
L 475.855517 186.900674 
L 479.468141 182.483596 
L 483.201187 178.406292 
L 486.934233 180.105169 
L 490.306016 181.804045 
L 494.039061 182.483596 
L 501.384732 181.804045 
L 504.997356 184.182472 
L 508.730402 188.259775 
L 516.076072 203.209888 
L 519.809118 209.665618 
L 523.421743 214.422472 
L 527.154788 218.499775 
L 530.887834 223.256629 
L 534.380038 234.129438 
L 538.113083 252.817079 
L 541.725708 269.805843 
L 545.458754 279.659326 
L 549.071378 294.609438 
L 552.804424 303.10382 
L 556.53747 311.258427 
L 560.150094 317.374382 
L 563.88314 318.733483 
L 567.495765 319.073258 
L 571.22881 320.43236 
L 574.961856 324.169888 
L 578.333639 327.227865 
L 585.679309 326.548315 
L 589.412355 324.849438 
L 593.02498 315.675506 
L 596.758025 311.258427 
L 600.491071 308.200449 
L 604.103696 299.366292 
L 607.836741 292.231011 
L 611.449366 280.338876 
L 615.182412 271.844494 
L 618.915457 261.311461 
L 622.28724 248.060225 
L 629.632911 220.538427 
L 633.365956 204.908764 
L 636.978581 187.580225 
L 640.711627 171.950562 
L 644.444672 158.019775 
L 648.057297 134.915056 
L 651.790343 118.266067 
L 655.402967 103.65573 
L 659.136013 99.578427 
L 662.869059 88.365843 
L 666.240842 80.211236 
L 669.973887 75.794157 
L 673.586512 77.493034 
L 677.319558 80.211236 
L 680.932182 80.551011 
L 684.665228 80.551011 
L 688.398274 80.211236 
L 695.743944 80.211236 
L 699.356569 80.551011 
L 703.089614 75.114607 
L 706.82266 75.454382 
L 710.314864 76.813483 
L 714.047909 83.608989 
L 721.39358 84.288539 
L 725.006204 83.948764 
L 728.73925 89.724944 
L 732.472296 92.782921 
L 736.08492 101.277303 
L 739.817966 104.335281 
L 743.430591 109.771685 
L 747.163636 118.605843 
L 747.163636 118.605843 
" clip-path="url(#p0e9863e6ab)" style="fill: none; stroke: #1f78b4; stroke-width: 1.5; stroke-linecap: square"/>
   </g>
   <g id="line2d_27">
    <path d="M 142.169409 302.084494 
L 145.782034 302.764045 
L 149.51508 303.10382 
L 153.127704 304.802697 
L 156.86075 305.822022 
L 160.593796 307.860674 
L 164.20642 308.200449 
L 167.939466 308.200449 
L 171.552091 307.860674 
L 182.510386 307.860674 
L 186.243431 309.219775 
L 189.856056 308.200449 
L 193.589102 308.540225 
L 197.201726 307.860674 
L 200.934772 307.860674 
L 204.667818 307.181124 
L 208.280442 306.161798 
L 212.013488 304.802697 
L 215.626113 305.142472 
L 219.359158 306.161798 
L 223.092204 307.860674 
L 226.463987 320.43236 
L 230.197033 323.490337 
L 233.809657 325.868764 
L 237.542703 324.849438 
L 241.155328 324.509663 
L 244.888373 324.849438 
L 252.234044 338.780225 
L 255.967089 342.517753 
L 259.579714 341.838202 
L 263.31276 341.498427 
L 267.045805 341.498427 
L 270.417588 341.158652 
L 277.763259 341.158652 
L 281.496304 353.730337 
L 285.108929 358.487191 
L 288.841975 358.487191 
L 292.57502 359.166742 
L 296.187645 358.826966 
L 299.920691 358.826966 
L 303.533315 357.12809 
L 307.266361 357.467865 
L 310.999407 356.448539 
L 314.37119 354.409888 
L 321.71686 356.448539 
L 329.06253 355.768989 
L 332.795576 351.691685 
L 336.528622 349.313258 
L 340.141246 353.050787 
L 343.874292 351.012135 
L 347.486917 347.614382 
L 351.219962 345.915506 
L 354.953008 338.780225 
L 358.445212 327.227865 
L 362.178257 327.907416 
L 365.790882 326.88809 
L 369.523928 321.791461 
L 373.136552 306.501573 
L 376.869598 305.822022 
L 380.602644 304.123146 
L 384.215268 290.87191 
L 387.948314 271.164944 
L 391.560939 258.253483 
L 395.293984 248.060225 
L 399.02703 240.245393 
L 402.398813 233.789663 
L 406.131859 229.71236 
L 409.744483 224.61573 
L 413.477529 218.499775 
L 417.090154 218.839551 
L 420.823199 218.499775 
L 424.556245 218.839551 
L 428.16887 217.140674 
L 431.901915 214.422472 
L 435.51454 207.966742 
L 439.247586 203.209888 
L 442.980631 201.171236 
L 446.352414 201.171236 
L 450.08546 202.530337 
L 453.698085 200.831461 
L 457.43113 195.395056 
L 461.043755 192.337079 
L 464.776801 192.337079 
L 468.509846 191.997303 
L 472.122471 191.997303 
L 475.855517 183.163146 
L 479.468141 178.406292 
L 483.201187 177.726742 
L 486.934233 180.105169 
L 490.306016 181.804045 
L 494.039061 182.483596 
L 497.651686 182.483596 
L 501.384732 182.823371 
L 504.997356 186.221124 
L 508.730402 191.997303 
L 512.463448 201.511011 
L 516.076072 211.70427 
L 519.809118 215.102022 
L 527.154788 222.577079 
L 530.887834 226.994157 
L 534.380038 237.187416 
L 538.113083 263.350112 
L 541.725708 281.358202 
L 545.458754 289.852584 
L 549.071378 302.084494 
L 552.804424 308.540225 
L 556.53747 312.617528 
L 560.150094 318.053933 
L 563.88314 321.451685 
L 567.495765 322.471011 
L 571.22881 324.169888 
L 574.961856 326.88809 
L 578.333639 326.88809 
L 582.066685 324.849438 
L 585.679309 323.150562 
L 589.412355 321.791461 
L 593.02498 306.841348 
L 596.758025 302.084494 
L 600.491071 299.026517 
L 604.103696 290.19236 
L 607.836741 285.435506 
L 618.915457 254.17618 
L 622.28724 239.226067 
L 626.020286 221.557753 
L 629.632911 209.325843 
L 633.365956 191.317753 
L 636.978581 169.23236 
L 644.444672 140.011685 
L 648.057297 119.964944 
L 651.790343 110.451236 
L 655.402967 99.238652 
L 659.136013 94.142022 
L 662.869059 83.608989 
L 666.240842 70.697528 
L 669.973887 66.96 
L 673.586512 68.998652 
L 677.319558 75.454382 
L 680.932182 79.871461 
L 684.665228 81.910112 
L 688.398274 80.890787 
L 692.010898 79.531685 
L 695.743944 80.211236 
L 699.356569 82.249888 
L 703.089614 69.338427 
L 706.82266 70.017978 
L 710.314864 71.377079 
L 714.047909 78.172584 
L 721.39358 78.852135 
L 725.006204 78.51236 
L 728.73925 84.628315 
L 732.472296 87.686292 
L 736.08492 96.520449 
L 739.817966 99.578427 
L 743.430591 105.014831 
L 747.163636 114.188764 
L 747.163636 114.188764 
" clip-path="url(#p0e9863e6ab)" style="fill: none; stroke: #b2df8a; stroke-width: 1.5; stroke-linecap: square"/>
   </g>
   <g id="line2d_28">
    <path d="M 0 0 
" clip-path="url(#p0e9863e6ab)" style="fill: none; stroke: #33a02c; stroke-width: 1.5; stroke-linecap: square"/>
   </g>
   <g id="line2d_29">
    <path d="M 138.436364 318.053933 
L 142.169409 317.714157 
L 145.782034 318.733483 
L 149.51508 318.053933 
L 153.127704 318.733483 
L 156.86075 319.752809 
L 160.593796 322.471011 
L 164.20642 322.471011 
L 167.939466 321.791461 
L 171.552091 319.073258 
L 175.285136 319.413034 
L 179.018182 318.733483 
L 182.510386 318.733483 
L 186.243431 319.073258 
L 189.856056 318.393708 
L 193.589102 318.733483 
L 197.201726 319.413034 
L 208.280442 318.393708 
L 212.013488 318.393708 
L 215.626113 318.053933 
L 219.359158 318.393708 
L 223.092204 318.393708 
L 226.463987 330.285843 
L 230.197033 334.702921 
L 233.809657 334.702921 
L 237.542703 335.042697 
L 241.155328 335.042697 
L 244.888373 335.382472 
L 248.621419 341.838202 
L 252.234044 345.57573 
L 255.967089 351.35191 
L 259.579714 350.332584 
L 263.31276 352.711011 
L 270.417588 352.711011 
L 274.150634 352.371236 
L 277.763259 352.371236 
L 281.496304 365.622472 
L 285.108929 369.36 
L 288.841975 369.020225 
L 292.57502 369.36 
L 299.920691 368.680449 
L 303.533315 367.661124 
L 307.266361 369.020225 
L 314.37119 367.661124 
L 318.104235 368.680449 
L 321.71686 369.36 
L 325.449906 366.981573 
L 329.06253 366.981573 
L 332.795576 368.340674 
L 336.528622 368.340674 
L 340.141246 368.680449 
L 343.874292 367.661124 
L 347.486917 362.224719 
L 351.219962 360.186067 
L 354.953008 353.050787 
L 358.445212 343.197303 
L 362.178257 344.216629 
L 369.523928 342.177978 
L 373.136552 327.227865 
L 380.602644 325.189213 
L 384.215268 309.899326 
L 387.948314 302.084494 
L 391.560939 282.037753 
L 395.293984 275.242247 
L 399.02703 263.350112 
L 402.398813 257.573933 
L 406.131859 248.739775 
L 409.744483 246.361348 
L 413.477529 239.226067 
L 417.090154 231.751011 
L 420.823199 232.430562 
L 424.556245 232.430562 
L 428.16887 232.770337 
L 431.901915 232.770337 
L 435.51454 226.314607 
L 439.247586 223.596404 
L 442.980631 216.800899 
L 446.352414 214.422472 
L 450.08546 215.441798 
L 453.698085 214.422472 
L 457.43113 212.044045 
L 461.043755 206.60764 
L 468.509846 206.60764 
L 472.122471 205.92809 
L 475.855517 201.850787 
L 479.468141 193.356404 
L 483.201187 189.958652 
L 486.934233 189.618876 
L 490.306016 189.958652 
L 497.651686 189.279101 
L 501.384732 189.958652 
L 504.997356 189.958652 
L 508.730402 194.035955 
L 512.463448 197.433708 
L 516.076072 206.947416 
L 519.809118 207.287191 
L 523.421743 217.140674 
L 527.154788 224.275955 
L 530.887834 229.032809 
L 534.380038 236.84764 
L 538.113083 254.515955 
L 541.725708 272.86382 
L 545.458754 284.076404 
L 549.071378 300.045843 
L 556.53747 319.073258 
L 560.150094 326.88809 
L 567.495765 324.849438 
L 571.22881 324.849438 
L 574.961856 331.305169 
L 578.333639 334.702921 
L 582.066685 335.042697 
L 585.679309 334.363146 
L 589.412355 334.023371 
L 593.02498 326.208539 
L 596.758025 320.772135 
L 600.491071 314.995955 
L 604.103696 307.520899 
L 607.836741 303.783371 
L 611.449366 293.929888 
L 618.915457 274.222921 
L 622.28724 264.029663 
L 626.020286 249.079551 
L 629.632911 239.905618 
L 633.365956 229.032809 
L 636.978581 207.966742 
L 640.711627 191.657528 
L 644.444672 180.105169 
L 648.057297 156.660674 
L 651.790343 139.67191 
L 655.402967 120.98427 
L 659.136013 113.848989 
L 662.869059 102.296629 
L 666.240842 96.520449 
L 669.973887 88.026067 
L 673.586512 87.686292 
L 677.319558 88.705618 
L 680.932182 89.045393 
L 692.010898 89.045393 
L 695.743944 88.705618 
L 699.356569 87.686292 
L 703.089614 88.026067 
L 706.82266 88.705618 
L 710.314864 89.724944 
L 714.047909 96.520449 
L 717.660534 96.520449 
L 721.39358 96.860225 
L 725.006204 96.520449 
L 728.73925 102.296629 
L 732.472296 106.034157 
L 736.08492 113.169438 
L 739.817966 115.88764 
L 743.430591 122.003596 
L 747.163636 130.497978 
L 747.163636 130.497978 
" clip-path="url(#p0e9863e6ab)" style="fill: none; stroke: #fb9a99; stroke-width: 1.5; stroke-linecap: square"/>
   </g>
   <g id="line2d_30">
    <path d="M 138.436364 319.413034 
L 142.169409 318.733483 
L 145.782034 320.092584 
L 149.51508 319.073258 
L 153.127704 319.413034 
L 156.86075 320.43236 
L 160.593796 322.810787 
L 164.20642 322.810787 
L 167.939466 321.451685 
L 171.552091 318.393708 
L 175.285136 319.073258 
L 179.018182 318.393708 
L 182.510386 318.393708 
L 186.243431 319.073258 
L 189.856056 318.053933 
L 193.589102 318.733483 
L 197.201726 319.073258 
L 204.667818 318.393708 
L 208.280442 318.393708 
L 212.013488 318.053933 
L 215.626113 318.053933 
L 219.359158 318.733483 
L 223.092204 318.393708 
L 226.463987 329.946067 
L 230.197033 334.702921 
L 237.542703 334.702921 
L 241.155328 335.042697 
L 244.888373 335.042697 
L 248.621419 341.498427 
L 252.234044 344.89618 
L 255.967089 349.992809 
L 259.579714 348.293933 
L 263.31276 352.031461 
L 267.045805 351.691685 
L 270.417588 351.691685 
L 274.150634 351.35191 
L 277.763259 351.35191 
L 281.496304 364.603146 
L 285.108929 368.680449 
L 288.841975 367.661124 
L 292.57502 368.680449 
L 296.187645 368.000899 
L 299.920691 367.661124 
L 303.533315 366.641798 
L 307.266361 368.000899 
L 314.37119 366.641798 
L 318.104235 368.000899 
L 321.71686 368.680449 
L 325.449906 365.962247 
L 329.06253 365.962247 
L 340.141246 368.000899 
L 343.874292 366.981573 
L 347.486917 361.205393 
L 351.219962 359.846292 
L 354.953008 353.050787 
L 358.445212 342.517753 
L 362.178257 343.537079 
L 365.790882 342.177978 
L 369.523928 341.158652 
L 373.136552 326.208539 
L 376.869598 325.528989 
L 380.602644 324.169888 
L 384.215268 309.219775 
L 387.948314 301.404944 
L 391.560939 282.037753 
L 395.293984 275.242247 
L 399.02703 262.670562 
L 402.398813 256.894382 
L 406.131859 248.060225 
L 409.744483 246.021573 
L 417.090154 231.411236 
L 420.823199 232.090787 
L 428.16887 232.090787 
L 431.901915 232.430562 
L 435.51454 225.974831 
L 439.247586 223.256629 
L 442.980631 216.800899 
L 446.352414 214.082697 
L 450.08546 215.102022 
L 453.698085 213.742921 
L 457.43113 211.70427 
L 461.043755 205.92809 
L 464.776801 206.267865 
L 468.509846 206.267865 
L 472.122471 205.92809 
L 475.855517 201.850787 
L 479.468141 193.356404 
L 483.201187 190.638202 
L 486.934233 190.638202 
L 497.651686 189.618876 
L 501.384732 190.298427 
L 504.997356 189.958652 
L 508.730402 194.035955 
L 512.463448 197.093933 
L 516.076072 206.947416 
L 519.809118 207.626966 
L 523.421743 217.820225 
L 527.154788 224.61573 
L 530.887834 229.372584 
L 534.380038 237.187416 
L 538.113083 255.535281 
L 541.725708 274.222921 
L 545.458754 285.09573 
L 549.071378 301.065169 
L 552.804424 310.578876 
L 556.53747 319.413034 
L 560.150094 326.88809 
L 567.495765 325.528989 
L 571.22881 325.189213 
L 574.961856 331.644944 
L 578.333639 335.042697 
L 582.066685 335.042697 
L 585.679309 334.023371 
L 589.412355 334.023371 
L 593.02498 325.868764 
L 596.758025 321.451685 
L 600.491071 315.675506 
L 604.103696 308.200449 
L 607.836741 304.462921 
L 618.915457 274.222921 
L 622.28724 264.029663 
L 626.020286 249.419326 
L 629.632911 240.245393 
L 633.365956 229.032809 
L 636.978581 207.966742 
L 640.711627 191.997303 
L 644.444672 180.784719 
L 648.057297 157.340225 
L 651.790343 140.011685 
L 655.402967 121.66382 
L 659.136013 114.188764 
L 662.869059 102.636404 
L 666.240842 96.860225 
L 669.973887 88.365843 
L 673.586512 87.686292 
L 677.319558 89.045393 
L 680.932182 89.385169 
L 684.665228 89.385169 
L 688.398274 89.045393 
L 692.010898 89.045393 
L 695.743944 88.705618 
L 699.356569 88.026067 
L 703.089614 88.705618 
L 706.82266 89.045393 
L 710.314864 90.404494 
L 714.047909 97.2 
L 725.006204 97.2 
L 728.73925 102.97618 
L 732.472296 106.713708 
L 736.08492 113.848989 
L 739.817966 117.246742 
L 743.430591 123.022921 
L 747.163636 131.517303 
L 747.163636 131.517303 
" clip-path="url(#p0e9863e6ab)" style="fill: none; stroke: #e31a1c; stroke-width: 1.5; stroke-linecap: square"/>
   </g>
   <g id="patch_3">
    <path d="M 108 384.48 
L 108 51.84 
" style="fill: none; stroke: #000000; stroke-width: 0.8; stroke-linejoin: miter; stroke-linecap: square"/>
   </g>
   <g id="patch_4">
    <path d="M 777.6 384.48 
L 777.6 51.84 
" style="fill: none; stroke: #000000; stroke-width: 0.8; stroke-linejoin: miter; stroke-linecap: square"/>
   </g>
   <g id="patch_5">
    <path d="M 108 384.48 
L 777.6 384.48 
" style="fill: none; stroke: #000000; stroke-width: 0.8; stroke-linejoin: miter; stroke-linecap: square"/>
   </g>
   <g id="patch_6">
    <path d="M 108 51.84 
L 777.6 51.84 
" style="fill: none; stroke: #000000; stroke-width: 0.8; stroke-linejoin: miter; stroke-linecap: square"/>
   </g>
   <g id="text_13">
    <!-- TIIE, Fondeo y Pagaré -->
    <g transform="translate(357.034688 45.84) scale(0.14 -0.14)">
     <defs>
      <path id="DejaVuSans-Bold-54" d="M 31 4666 
L 4331 4666 
L 4331 3756 
L 2784 3756 
L 2784 0 
L 1581 0 
L 1581 3756 
L 31 3756 
L 31 4666 
z
" transform="scale(0.015625)"/>
      <path id="DejaVuSans-Bold-49" d="M 588 4666 
L 1791 4666 
L 1791 0 
L 588 0 
L 588 4666 
z
" transform="scale(0.015625)"/>
      <path id="DejaVuSans-Bold-45" d="M 588 4666 
L 3834 4666 
L 3834 3756 
L 1791 3756 
L 1791 2888 
L 3713 2888 
L 3713 1978 
L 1791 1978 
L 1791 909 
L 3903 909 
L 3903 0 
L 588 0 
L 588 4666 
z
" transform="scale(0.015625)"/>
      <path id="DejaVuSans-Bold-2c" d="M 653 1209 
L 1778 1209 
L 1778 256 
L 1006 -909 
L 341 -909 
L 653 256 
L 653 1209 
z
" transform="scale(0.015625)"/>
      <path id="DejaVuSans-Bold-20" transform="scale(0.015625)"/>
      <path id="DejaVuSans-Bold-46" d="M 588 4666 
L 3834 4666 
L 3834 3756 
L 1791 3756 
L 1791 2888 
L 3713 2888 
L 3713 1978 
L 1791 1978 
L 1791 0 
L 588 0 
L 588 4666 
z
" transform="scale(0.015625)"/>
      <path id="DejaVuSans-Bold-6f" d="M 2203 2784 
Q 1831 2784 1636 2517 
Q 1441 2250 1441 1747 
Q 1441 1244 1636 976 
Q 1831 709 2203 709 
Q 2569 709 2762 976 
Q 2956 1244 2956 1747 
Q 2956 2250 2762 2517 
Q 2569 2784 2203 2784 
z
M 2203 3584 
Q 3106 3584 3614 3096 
Q 4122 2609 4122 1747 
Q 4122 884 3614 396 
Q 3106 -91 2203 -91 
Q 1297 -91 786 396 
Q 275 884 275 1747 
Q 275 2609 786 3096 
Q 1297 3584 2203 3584 
z
" transform="scale(0.015625)"/>
      <path id="DejaVuSans-Bold-6e" d="M 4056 2131 
L 4056 0 
L 2931 0 
L 2931 347 
L 2931 1631 
Q 2931 2084 2911 2256 
Q 2891 2428 2841 2509 
Q 2775 2619 2662 2680 
Q 2550 2741 2406 2741 
Q 2056 2741 1856 2470 
Q 1656 2200 1656 1722 
L 1656 0 
L 538 0 
L 538 3500 
L 1656 3500 
L 1656 2988 
Q 1909 3294 2193 3439 
Q 2478 3584 2822 3584 
Q 3428 3584 3742 3212 
Q 4056 2841 4056 2131 
z
" transform="scale(0.015625)"/>
      <path id="DejaVuSans-Bold-64" d="M 2919 2988 
L 2919 4863 
L 4044 4863 
L 4044 0 
L 2919 0 
L 2919 506 
Q 2688 197 2409 53 
Q 2131 -91 1766 -91 
Q 1119 -91 703 423 
Q 288 938 288 1747 
Q 288 2556 703 3070 
Q 1119 3584 1766 3584 
Q 2128 3584 2408 3439 
Q 2688 3294 2919 2988 
z
M 2181 722 
Q 2541 722 2730 984 
Q 2919 1247 2919 1747 
Q 2919 2247 2730 2509 
Q 2541 2772 2181 2772 
Q 1825 2772 1636 2509 
Q 1447 2247 1447 1747 
Q 1447 1247 1636 984 
Q 1825 722 2181 722 
z
" transform="scale(0.015625)"/>
      <path id="DejaVuSans-Bold-65" d="M 4031 1759 
L 4031 1441 
L 1416 1441 
Q 1456 1047 1700 850 
Q 1944 653 2381 653 
Q 2734 653 3104 758 
Q 3475 863 3866 1075 
L 3866 213 
Q 3469 63 3072 -14 
Q 2675 -91 2278 -91 
Q 1328 -91 801 392 
Q 275 875 275 1747 
Q 275 2603 792 3093 
Q 1309 3584 2216 3584 
Q 3041 3584 3536 3087 
Q 4031 2591 4031 1759 
z
M 2881 2131 
Q 2881 2450 2695 2645 
Q 2509 2841 2209 2841 
Q 1884 2841 1681 2658 
Q 1478 2475 1428 2131 
L 2881 2131 
z
" transform="scale(0.015625)"/>
      <path id="DejaVuSans-Bold-79" d="M 78 3500 
L 1197 3500 
L 2138 1125 
L 2938 3500 
L 4056 3500 
L 2584 -331 
Q 2363 -916 2067 -1148 
Q 1772 -1381 1288 -1381 
L 641 -1381 
L 641 -647 
L 991 -647 
Q 1275 -647 1404 -556 
Q 1534 -466 1606 -231 
L 1638 -134 
L 78 3500 
z
" transform="scale(0.015625)"/>
      <path id="DejaVuSans-Bold-50" d="M 588 4666 
L 2584 4666 
Q 3475 4666 3951 4270 
Q 4428 3875 4428 3144 
Q 4428 2409 3951 2014 
Q 3475 1619 2584 1619 
L 1791 1619 
L 1791 0 
L 588 0 
L 588 4666 
z
M 1791 3794 
L 1791 2491 
L 2456 2491 
Q 2806 2491 2997 2661 
Q 3188 2831 3188 3144 
Q 3188 3456 2997 3625 
Q 2806 3794 2456 3794 
L 1791 3794 
z
" transform="scale(0.015625)"/>
      <path id="DejaVuSans-Bold-61" d="M 2106 1575 
Q 1756 1575 1579 1456 
Q 1403 1338 1403 1106 
Q 1403 894 1545 773 
Q 1688 653 1941 653 
Q 2256 653 2472 879 
Q 2688 1106 2688 1447 
L 2688 1575 
L 2106 1575 
z
M 3816 1997 
L 3816 0 
L 2688 0 
L 2688 519 
Q 2463 200 2181 54 
Q 1900 -91 1497 -91 
Q 953 -91 614 226 
Q 275 544 275 1050 
Q 275 1666 698 1953 
Q 1122 2241 2028 2241 
L 2688 2241 
L 2688 2328 
Q 2688 2594 2478 2717 
Q 2269 2841 1825 2841 
Q 1466 2841 1156 2769 
Q 847 2697 581 2553 
L 581 3406 
Q 941 3494 1303 3539 
Q 1666 3584 2028 3584 
Q 2975 3584 3395 3211 
Q 3816 2838 3816 1997 
z
" transform="scale(0.015625)"/>
      <path id="DejaVuSans-Bold-67" d="M 2919 594 
Q 2688 288 2409 144 
Q 2131 0 1766 0 
Q 1125 0 706 504 
Q 288 1009 288 1791 
Q 288 2575 706 3076 
Q 1125 3578 1766 3578 
Q 2131 3578 2409 3434 
Q 2688 3291 2919 2981 
L 2919 3500 
L 4044 3500 
L 4044 353 
Q 4044 -491 3511 -936 
Q 2978 -1381 1966 -1381 
Q 1638 -1381 1331 -1331 
Q 1025 -1281 716 -1178 
L 716 -306 
Q 1009 -475 1290 -558 
Q 1572 -641 1856 -641 
Q 2406 -641 2662 -400 
Q 2919 -159 2919 353 
L 2919 594 
z
M 2181 2772 
Q 1834 2772 1640 2515 
Q 1447 2259 1447 1791 
Q 1447 1309 1634 1061 
Q 1822 813 2181 813 
Q 2531 813 2725 1069 
Q 2919 1325 2919 1791 
Q 2919 2259 2725 2515 
Q 2531 2772 2181 2772 
z
" transform="scale(0.015625)"/>
      <path id="DejaVuSans-Bold-72" d="M 3138 2547 
Q 2991 2616 2845 2648 
Q 2700 2681 2553 2681 
Q 2122 2681 1889 2404 
Q 1656 2128 1656 1613 
L 1656 0 
L 538 0 
L 538 3500 
L 1656 3500 
L 1656 2925 
Q 1872 3269 2151 3426 
Q 2431 3584 2822 3584 
Q 2878 3584 2943 3579 
Q 3009 3575 3134 3559 
L 3138 2547 
z
" transform="scale(0.015625)"/>
      <path id="DejaVuSans-Bold-e9" d="M 4031 1759 
L 4031 1441 
L 1416 1441 
Q 1456 1047 1700 850 
Q 1944 653 2381 653 
Q 2734 653 3104 758 
Q 3475 863 3866 1075 
L 3866 213 
Q 3469 63 3072 -14 
Q 2675 -91 2278 -91 
Q 1328 -91 801 392 
Q 275 875 275 1747 
Q 275 2603 792 3093 
Q 1309 3584 2216 3584 
Q 3041 3584 3536 3087 
Q 4031 2591 4031 1759 
z
M 2881 2131 
Q 2881 2450 2695 2645 
Q 2509 2841 2209 2841 
Q 1884 2841 1681 2658 
Q 1478 2475 1428 2131 
L 2881 2131 
z
M 2700 5119 
L 3584 5119 
L 2431 3944 
L 1819 3944 
L 2700 5119 
z
" transform="scale(0.015625)"/>
     </defs>
     <use xlink:href="#DejaVuSans-Bold-54"/>
     <use xlink:href="#DejaVuSans-Bold-49" transform="translate(68.212891 0)"/>
     <use xlink:href="#DejaVuSans-Bold-49" transform="translate(105.419922 0)"/>
     <use xlink:href="#DejaVuSans-Bold-45" transform="translate(142.626953 0)"/>
     <use xlink:href="#DejaVuSans-Bold-2c" transform="translate(210.9375 0)"/>
     <use xlink:href="#DejaVuSans-Bold-20" transform="translate(248.925781 0)"/>
     <use xlink:href="#DejaVuSans-Bold-46" transform="translate(283.740234 0)"/>
     <use xlink:href="#DejaVuSans-Bold-6f" transform="translate(348.050781 0)"/>
     <use xlink:href="#DejaVuSans-Bold-6e" transform="translate(416.751953 0)"/>
     <use xlink:href="#DejaVuSans-Bold-64" transform="translate(487.943359 0)"/>
     <use xlink:href="#DejaVuSans-Bold-65" transform="translate(559.525391 0)"/>
     <use xlink:href="#DejaVuSans-Bold-6f" transform="translate(627.347656 0)"/>
     <use xlink:href="#DejaVuSans-Bold-20" transform="translate(696.048828 0)"/>
     <use xlink:href="#DejaVuSans-Bold-79" transform="translate(730.863281 0)"/>
     <use xlink:href="#DejaVuSans-Bold-20" transform="translate(796.048828 0)"/>
     <use xlink:href="#DejaVuSans-Bold-50" transform="translate(830.863281 0)"/>
     <use xlink:href="#DejaVuSans-Bold-61" transform="translate(901.529297 0)"/>
     <use xlink:href="#DejaVuSans-Bold-67" transform="translate(969.009766 0)"/>
     <use xlink:href="#DejaVuSans-Bold-61" transform="translate(1040.591797 0)"/>
     <use xlink:href="#DejaVuSans-Bold-72" transform="translate(1108.072266 0)"/>
     <use xlink:href="#DejaVuSans-Bold-e9" transform="translate(1157.388672 0)"/>
    </g>
   </g>
   <g id="legend_1">
    <g id="patch_7">
     <path d="M 113.6 128.695 
L 318.52125 128.695 
Q 320.12125 128.695 320.12125 127.095 
L 320.12125 57.44 
Q 320.12125 55.84 318.52125 55.84 
L 113.6 55.84 
Q 112 55.84 112 57.44 
L 112 127.095 
Q 112 128.695 113.6 128.695 
z
" style="fill: #ffffff; opacity: 0.8; stroke: #cccccc; stroke-linejoin: miter"/>
    </g>
    <g id="line2d_31">
     <path d="M 115.2 62.31875 
L 123.2 62.31875 
L 131.2 62.31875 
" style="fill: none; stroke: #a6cee3; stroke-width: 1.5; stroke-linecap: square"/>
    </g>
    <g id="text_14">
     <!-- TIIE a 28 días -->
     <g transform="translate(137.6 65.11875) scale(0.08 -0.08)">
      <defs>
       <path id="DejaVuSans-54" d="M -19 4666 
L 3928 4666 
L 3928 4134 
L 2272 4134 
L 2272 0 
L 1638 0 
L 1638 4134 
L -19 4134 
L -19 4666 
z
" transform="scale(0.015625)"/>
       <path id="DejaVuSans-49" d="M 628 4666 
L 1259 4666 
L 1259 0 
L 628 0 
L 628 4666 
z
" transform="scale(0.015625)"/>
       <path id="DejaVuSans-45" d="M 628 4666 
L 3578 4666 
L 3578 4134 
L 1259 4134 
L 1259 2753 
L 3481 2753 
L 3481 2222 
L 1259 2222 
L 1259 531 
L 3634 531 
L 3634 0 
L 628 0 
L 628 4666 
z
" transform="scale(0.015625)"/>
       <path id="DejaVuSans-20" transform="scale(0.015625)"/>
       <path id="DejaVuSans-61" d="M 2194 1759 
Q 1497 1759 1228 1600 
Q 959 1441 959 1056 
Q 959 750 1161 570 
Q 1363 391 1709 391 
Q 2188 391 2477 730 
Q 2766 1069 2766 1631 
L 2766 1759 
L 2194 1759 
z
M 3341 1997 
L 3341 0 
L 2766 0 
L 2766 531 
Q 2569 213 2275 61 
Q 1981 -91 1556 -91 
Q 1019 -91 701 211 
Q 384 513 384 1019 
Q 384 1609 779 1909 
Q 1175 2209 1959 2209 
L 2766 2209 
L 2766 2266 
Q 2766 2663 2505 2880 
Q 2244 3097 1772 3097 
Q 1472 3097 1187 3025 
Q 903 2953 641 2809 
L 641 3341 
Q 956 3463 1253 3523 
Q 1550 3584 1831 3584 
Q 2591 3584 2966 3190 
Q 3341 2797 3341 1997 
z
" transform="scale(0.015625)"/>
       <path id="DejaVuSans-64" d="M 2906 2969 
L 2906 4863 
L 3481 4863 
L 3481 0 
L 2906 0 
L 2906 525 
Q 2725 213 2448 61 
Q 2172 -91 1784 -91 
Q 1150 -91 751 415 
Q 353 922 353 1747 
Q 353 2572 751 3078 
Q 1150 3584 1784 3584 
Q 2172 3584 2448 3432 
Q 2725 3281 2906 2969 
z
M 947 1747 
Q 947 1113 1208 752 
Q 1469 391 1925 391 
Q 2381 391 2643 752 
Q 2906 1113 2906 1747 
Q 2906 2381 2643 2742 
Q 2381 3103 1925 3103 
Q 1469 3103 1208 2742 
Q 947 2381 947 1747 
z
" transform="scale(0.015625)"/>
       <path id="DejaVuSans-ed" d="M 1325 5119 
L 1947 5119 
L 928 3944 
L 450 3944 
L 1325 5119 
z
M 603 3500 
L 1178 3500 
L 1178 0 
L 603 0 
L 603 3500 
z
M 891 3584 
L 891 3584 
z
" transform="scale(0.015625)"/>
       <path id="DejaVuSans-73" d="M 2834 3397 
L 2834 2853 
Q 2591 2978 2328 3040 
Q 2066 3103 1784 3103 
Q 1356 3103 1142 2972 
Q 928 2841 928 2578 
Q 928 2378 1081 2264 
Q 1234 2150 1697 2047 
L 1894 2003 
Q 2506 1872 2764 1633 
Q 3022 1394 3022 966 
Q 3022 478 2636 193 
Q 2250 -91 1575 -91 
Q 1294 -91 989 -36 
Q 684 19 347 128 
L 347 722 
Q 666 556 975 473 
Q 1284 391 1588 391 
Q 1994 391 2212 530 
Q 2431 669 2431 922 
Q 2431 1156 2273 1281 
Q 2116 1406 1581 1522 
L 1381 1569 
Q 847 1681 609 1914 
Q 372 2147 372 2553 
Q 372 3047 722 3315 
Q 1072 3584 1716 3584 
Q 2034 3584 2315 3537 
Q 2597 3491 2834 3397 
z
" transform="scale(0.015625)"/>
      </defs>
      <use xlink:href="#DejaVuSans-54"/>
      <use xlink:href="#DejaVuSans-49" transform="translate(61.083984 0)"/>
      <use xlink:href="#DejaVuSans-49" transform="translate(90.576172 0)"/>
      <use xlink:href="#DejaVuSans-45" transform="translate(120.068359 0)"/>
      <use xlink:href="#DejaVuSans-20" transform="translate(183.251953 0)"/>
      <use xlink:href="#DejaVuSans-61" transform="translate(215.039062 0)"/>
      <use xlink:href="#DejaVuSans-20" transform="translate(276.318359 0)"/>
      <use xlink:href="#DejaVuSans-32" transform="translate(308.105469 0)"/>
      <use xlink:href="#DejaVuSans-38" transform="translate(371.728516 0)"/>
      <use xlink:href="#DejaVuSans-20" transform="translate(435.351562 0)"/>
      <use xlink:href="#DejaVuSans-64" transform="translate(467.138672 0)"/>
      <use xlink:href="#DejaVuSans-ed" transform="translate(530.615234 0)"/>
      <use xlink:href="#DejaVuSans-61" transform="translate(558.398438 0)"/>
      <use xlink:href="#DejaVuSans-73" transform="translate(619.677734 0)"/>
     </g>
    </g>
    <g id="line2d_32">
     <path d="M 115.2 74.06125 
L 123.2 74.06125 
L 131.2 74.06125 
" style="fill: none; stroke: #1f78b4; stroke-width: 1.5; stroke-linecap: square"/>
    </g>
    <g id="text_15">
     <!-- TIIE a 91 días -->
     <g transform="translate(137.6 76.86125) scale(0.08 -0.08)">
      <defs>
       <path id="DejaVuSans-39" d="M 703 97 
L 703 672 
Q 941 559 1184 500 
Q 1428 441 1663 441 
Q 2288 441 2617 861 
Q 2947 1281 2994 2138 
Q 2813 1869 2534 1725 
Q 2256 1581 1919 1581 
Q 1219 1581 811 2004 
Q 403 2428 403 3163 
Q 403 3881 828 4315 
Q 1253 4750 1959 4750 
Q 2769 4750 3195 4129 
Q 3622 3509 3622 2328 
Q 3622 1225 3098 567 
Q 2575 -91 1691 -91 
Q 1453 -91 1209 -44 
Q 966 3 703 97 
z
M 1959 2075 
Q 2384 2075 2632 2365 
Q 2881 2656 2881 3163 
Q 2881 3666 2632 3958 
Q 2384 4250 1959 4250 
Q 1534 4250 1286 3958 
Q 1038 3666 1038 3163 
Q 1038 2656 1286 2365 
Q 1534 2075 1959 2075 
z
" transform="scale(0.015625)"/>
      </defs>
      <use xlink:href="#DejaVuSans-54"/>
      <use xlink:href="#DejaVuSans-49" transform="translate(61.083984 0)"/>
      <use xlink:href="#DejaVuSans-49" transform="translate(90.576172 0)"/>
      <use xlink:href="#DejaVuSans-45" transform="translate(120.068359 0)"/>
      <use xlink:href="#DejaVuSans-20" transform="translate(183.251953 0)"/>
      <use xlink:href="#DejaVuSans-61" transform="translate(215.039062 0)"/>
      <use xlink:href="#DejaVuSans-20" transform="translate(276.318359 0)"/>
      <use xlink:href="#DejaVuSans-39" transform="translate(308.105469 0)"/>
      <use xlink:href="#DejaVuSans-31" transform="translate(371.728516 0)"/>
      <use xlink:href="#DejaVuSans-20" transform="translate(435.351562 0)"/>
      <use xlink:href="#DejaVuSans-64" transform="translate(467.138672 0)"/>
      <use xlink:href="#DejaVuSans-ed" transform="translate(530.615234 0)"/>
      <use xlink:href="#DejaVuSans-61" transform="translate(558.398438 0)"/>
      <use xlink:href="#DejaVuSans-73" transform="translate(619.677734 0)"/>
     </g>
    </g>
    <g id="line2d_33">
     <path d="M 115.2 85.80375 
L 123.2 85.80375 
L 131.2 85.80375 
" style="fill: none; stroke: #b2df8a; stroke-width: 1.5; stroke-linecap: square"/>
    </g>
    <g id="text_16">
     <!-- TIIE a 182 días -->
     <g transform="translate(137.6 88.60375) scale(0.08 -0.08)">
      <use xlink:href="#DejaVuSans-54"/>
      <use xlink:href="#DejaVuSans-49" transform="translate(61.083984 0)"/>
      <use xlink:href="#DejaVuSans-49" transform="translate(90.576172 0)"/>
      <use xlink:href="#DejaVuSans-45" transform="translate(120.068359 0)"/>
      <use xlink:href="#DejaVuSans-20" transform="translate(183.251953 0)"/>
      <use xlink:href="#DejaVuSans-61" transform="translate(215.039062 0)"/>
      <use xlink:href="#DejaVuSans-20" transform="translate(276.318359 0)"/>
      <use xlink:href="#DejaVuSans-31" transform="translate(308.105469 0)"/>
      <use xlink:href="#DejaVuSans-38" transform="translate(371.728516 0)"/>
      <use xlink:href="#DejaVuSans-32" transform="translate(435.351562 0)"/>
      <use xlink:href="#DejaVuSans-20" transform="translate(498.974609 0)"/>
      <use xlink:href="#DejaVuSans-64" transform="translate(530.761719 0)"/>
      <use xlink:href="#DejaVuSans-ed" transform="translate(594.238281 0)"/>
      <use xlink:href="#DejaVuSans-61" transform="translate(622.021484 0)"/>
      <use xlink:href="#DejaVuSans-73" transform="translate(683.300781 0)"/>
     </g>
    </g>
    <g id="line2d_34">
     <path d="M 115.2 97.54625 
L 123.2 97.54625 
L 131.2 97.54625 
" style="fill: none; stroke: #33a02c; stroke-width: 1.5; stroke-linecap: square"/>
    </g>
    <g id="text_17">
     <!-- TIIP a 28 días (Serie histórica) -->
     <g transform="translate(137.6 100.34625) scale(0.08 -0.08)">
      <defs>
       <path id="DejaVuSans-50" d="M 1259 4147 
L 1259 2394 
L 2053 2394 
Q 2494 2394 2734 2622 
Q 2975 2850 2975 3272 
Q 2975 3691 2734 3919 
Q 2494 4147 2053 4147 
L 1259 4147 
z
M 628 4666 
L 2053 4666 
Q 2838 4666 3239 4311 
Q 3641 3956 3641 3272 
Q 3641 2581 3239 2228 
Q 2838 1875 2053 1875 
L 1259 1875 
L 1259 0 
L 628 0 
L 628 4666 
z
" transform="scale(0.015625)"/>
       <path id="DejaVuSans-28" d="M 1984 4856 
Q 1566 4138 1362 3434 
Q 1159 2731 1159 2009 
Q 1159 1288 1364 580 
Q 1569 -128 1984 -844 
L 1484 -844 
Q 1016 -109 783 600 
Q 550 1309 550 2009 
Q 550 2706 781 3412 
Q 1013 4119 1484 4856 
L 1984 4856 
z
" transform="scale(0.015625)"/>
       <path id="DejaVuSans-53" d="M 3425 4513 
L 3425 3897 
Q 3066 4069 2747 4153 
Q 2428 4238 2131 4238 
Q 1616 4238 1336 4038 
Q 1056 3838 1056 3469 
Q 1056 3159 1242 3001 
Q 1428 2844 1947 2747 
L 2328 2669 
Q 3034 2534 3370 2195 
Q 3706 1856 3706 1288 
Q 3706 609 3251 259 
Q 2797 -91 1919 -91 
Q 1588 -91 1214 -16 
Q 841 59 441 206 
L 441 856 
Q 825 641 1194 531 
Q 1563 422 1919 422 
Q 2459 422 2753 634 
Q 3047 847 3047 1241 
Q 3047 1584 2836 1778 
Q 2625 1972 2144 2069 
L 1759 2144 
Q 1053 2284 737 2584 
Q 422 2884 422 3419 
Q 422 4038 858 4394 
Q 1294 4750 2059 4750 
Q 2388 4750 2728 4690 
Q 3069 4631 3425 4513 
z
" transform="scale(0.015625)"/>
       <path id="DejaVuSans-65" d="M 3597 1894 
L 3597 1613 
L 953 1613 
Q 991 1019 1311 708 
Q 1631 397 2203 397 
Q 2534 397 2845 478 
Q 3156 559 3463 722 
L 3463 178 
Q 3153 47 2828 -22 
Q 2503 -91 2169 -91 
Q 1331 -91 842 396 
Q 353 884 353 1716 
Q 353 2575 817 3079 
Q 1281 3584 2069 3584 
Q 2775 3584 3186 3129 
Q 3597 2675 3597 1894 
z
M 3022 2063 
Q 3016 2534 2758 2815 
Q 2500 3097 2075 3097 
Q 1594 3097 1305 2825 
Q 1016 2553 972 2059 
L 3022 2063 
z
" transform="scale(0.015625)"/>
       <path id="DejaVuSans-72" d="M 2631 2963 
Q 2534 3019 2420 3045 
Q 2306 3072 2169 3072 
Q 1681 3072 1420 2755 
Q 1159 2438 1159 1844 
L 1159 0 
L 581 0 
L 581 3500 
L 1159 3500 
L 1159 2956 
Q 1341 3275 1631 3429 
Q 1922 3584 2338 3584 
Q 2397 3584 2469 3576 
Q 2541 3569 2628 3553 
L 2631 2963 
z
" transform="scale(0.015625)"/>
       <path id="DejaVuSans-69" d="M 603 3500 
L 1178 3500 
L 1178 0 
L 603 0 
L 603 3500 
z
M 603 4863 
L 1178 4863 
L 1178 4134 
L 603 4134 
L 603 4863 
z
" transform="scale(0.015625)"/>
       <path id="DejaVuSans-68" d="M 3513 2113 
L 3513 0 
L 2938 0 
L 2938 2094 
Q 2938 2591 2744 2837 
Q 2550 3084 2163 3084 
Q 1697 3084 1428 2787 
Q 1159 2491 1159 1978 
L 1159 0 
L 581 0 
L 581 4863 
L 1159 4863 
L 1159 2956 
Q 1366 3272 1645 3428 
Q 1925 3584 2291 3584 
Q 2894 3584 3203 3211 
Q 3513 2838 3513 2113 
z
" transform="scale(0.015625)"/>
       <path id="DejaVuSans-74" d="M 1172 4494 
L 1172 3500 
L 2356 3500 
L 2356 3053 
L 1172 3053 
L 1172 1153 
Q 1172 725 1289 603 
Q 1406 481 1766 481 
L 2356 481 
L 2356 0 
L 1766 0 
Q 1100 0 847 248 
Q 594 497 594 1153 
L 594 3053 
L 172 3053 
L 172 3500 
L 594 3500 
L 594 4494 
L 1172 4494 
z
" transform="scale(0.015625)"/>
       <path id="DejaVuSans-f3" d="M 1959 3097 
Q 1497 3097 1228 2736 
Q 959 2375 959 1747 
Q 959 1119 1226 758 
Q 1494 397 1959 397 
Q 2419 397 2687 759 
Q 2956 1122 2956 1747 
Q 2956 2369 2687 2733 
Q 2419 3097 1959 3097 
z
M 1959 3584 
Q 2709 3584 3137 3096 
Q 3566 2609 3566 1747 
Q 3566 888 3137 398 
Q 2709 -91 1959 -91 
Q 1206 -91 779 398 
Q 353 888 353 1747 
Q 353 2609 779 3096 
Q 1206 3584 1959 3584 
z
M 2394 5119 
L 3016 5119 
L 1997 3944 
L 1519 3944 
L 2394 5119 
z
" transform="scale(0.015625)"/>
       <path id="DejaVuSans-63" d="M 3122 3366 
L 3122 2828 
Q 2878 2963 2633 3030 
Q 2388 3097 2138 3097 
Q 1578 3097 1268 2742 
Q 959 2388 959 1747 
Q 959 1106 1268 751 
Q 1578 397 2138 397 
Q 2388 397 2633 464 
Q 2878 531 3122 666 
L 3122 134 
Q 2881 22 2623 -34 
Q 2366 -91 2075 -91 
Q 1284 -91 818 406 
Q 353 903 353 1747 
Q 353 2603 823 3093 
Q 1294 3584 2113 3584 
Q 2378 3584 2631 3529 
Q 2884 3475 3122 3366 
z
" transform="scale(0.015625)"/>
       <path id="DejaVuSans-29" d="M 513 4856 
L 1013 4856 
Q 1481 4119 1714 3412 
Q 1947 2706 1947 2009 
Q 1947 1309 1714 600 
Q 1481 -109 1013 -844 
L 513 -844 
Q 928 -128 1133 580 
Q 1338 1288 1338 2009 
Q 1338 2731 1133 3434 
Q 928 4138 513 4856 
z
" transform="scale(0.015625)"/>
      </defs>
      <use xlink:href="#DejaVuSans-54"/>
      <use xlink:href="#DejaVuSans-49" transform="translate(61.083984 0)"/>
      <use xlink:href="#DejaVuSans-49" transform="translate(90.576172 0)"/>
      <use xlink:href="#DejaVuSans-50" transform="translate(120.068359 0)"/>
      <use xlink:href="#DejaVuSans-20" transform="translate(180.371094 0)"/>
      <use xlink:href="#DejaVuSans-61" transform="translate(212.158203 0)"/>
      <use xlink:href="#DejaVuSans-20" transform="translate(273.4375 0)"/>
      <use xlink:href="#DejaVuSans-32" transform="translate(305.224609 0)"/>
      <use xlink:href="#DejaVuSans-38" transform="translate(368.847656 0)"/>
      <use xlink:href="#DejaVuSans-20" transform="translate(432.470703 0)"/>
      <use xlink:href="#DejaVuSans-64" transform="translate(464.257812 0)"/>
      <use xlink:href="#DejaVuSans-ed" transform="translate(527.734375 0)"/>
      <use xlink:href="#DejaVuSans-61" transform="translate(555.517578 0)"/>
      <use xlink:href="#DejaVuSans-73" transform="translate(616.796875 0)"/>
      <use xlink:href="#DejaVuSans-20" transform="translate(668.896484 0)"/>
      <use xlink:href="#DejaVuSans-28" transform="translate(700.683594 0)"/>
      <use xlink:href="#DejaVuSans-53" transform="translate(739.697266 0)"/>
      <use xlink:href="#DejaVuSans-65" transform="translate(803.173828 0)"/>
      <use xlink:href="#DejaVuSans-72" transform="translate(864.697266 0)"/>
      <use xlink:href="#DejaVuSans-69" transform="translate(905.810547 0)"/>
      <use xlink:href="#DejaVuSans-65" transform="translate(933.59375 0)"/>
      <use xlink:href="#DejaVuSans-20" transform="translate(995.117188 0)"/>
      <use xlink:href="#DejaVuSans-68" transform="translate(1026.904297 0)"/>
      <use xlink:href="#DejaVuSans-69" transform="translate(1090.283203 0)"/>
      <use xlink:href="#DejaVuSans-73" transform="translate(1118.066406 0)"/>
      <use xlink:href="#DejaVuSans-74" transform="translate(1170.166016 0)"/>
      <use xlink:href="#DejaVuSans-f3" transform="translate(1209.375 0)"/>
      <use xlink:href="#DejaVuSans-72" transform="translate(1270.556641 0)"/>
      <use xlink:href="#DejaVuSans-69" transform="translate(1311.669922 0)"/>
      <use xlink:href="#DejaVuSans-63" transform="translate(1339.453125 0)"/>
      <use xlink:href="#DejaVuSans-61" transform="translate(1394.433594 0)"/>
      <use xlink:href="#DejaVuSans-29" transform="translate(1455.712891 0)"/>
     </g>
    </g>
    <g id="line2d_35">
     <path d="M 115.2 109.28875 
L 123.2 109.28875 
L 131.2 109.28875 
" style="fill: none; stroke: #fb9a99; stroke-width: 1.5; stroke-linecap: square"/>
    </g>
    <g id="text_18">
     <!-- Fondeo promedio ponderado bancario -->
     <g transform="translate(137.6 112.08875) scale(0.08 -0.08)">
      <defs>
       <path id="DejaVuSans-46" d="M 628 4666 
L 3309 4666 
L 3309 4134 
L 1259 4134 
L 1259 2759 
L 3109 2759 
L 3109 2228 
L 1259 2228 
L 1259 0 
L 628 0 
L 628 4666 
z
" transform="scale(0.015625)"/>
       <path id="DejaVuSans-6f" d="M 1959 3097 
Q 1497 3097 1228 2736 
Q 959 2375 959 1747 
Q 959 1119 1226 758 
Q 1494 397 1959 397 
Q 2419 397 2687 759 
Q 2956 1122 2956 1747 
Q 2956 2369 2687 2733 
Q 2419 3097 1959 3097 
z
M 1959 3584 
Q 2709 3584 3137 3096 
Q 3566 2609 3566 1747 
Q 3566 888 3137 398 
Q 2709 -91 1959 -91 
Q 1206 -91 779 398 
Q 353 888 353 1747 
Q 353 2609 779 3096 
Q 1206 3584 1959 3584 
z
" transform="scale(0.015625)"/>
       <path id="DejaVuSans-6e" d="M 3513 2113 
L 3513 0 
L 2938 0 
L 2938 2094 
Q 2938 2591 2744 2837 
Q 2550 3084 2163 3084 
Q 1697 3084 1428 2787 
Q 1159 2491 1159 1978 
L 1159 0 
L 581 0 
L 581 3500 
L 1159 3500 
L 1159 2956 
Q 1366 3272 1645 3428 
Q 1925 3584 2291 3584 
Q 2894 3584 3203 3211 
Q 3513 2838 3513 2113 
z
" transform="scale(0.015625)"/>
       <path id="DejaVuSans-70" d="M 1159 525 
L 1159 -1331 
L 581 -1331 
L 581 3500 
L 1159 3500 
L 1159 2969 
Q 1341 3281 1617 3432 
Q 1894 3584 2278 3584 
Q 2916 3584 3314 3078 
Q 3713 2572 3713 1747 
Q 3713 922 3314 415 
Q 2916 -91 2278 -91 
Q 1894 -91 1617 61 
Q 1341 213 1159 525 
z
M 3116 1747 
Q 3116 2381 2855 2742 
Q 2594 3103 2138 3103 
Q 1681 3103 1420 2742 
Q 1159 2381 1159 1747 
Q 1159 1113 1420 752 
Q 1681 391 2138 391 
Q 2594 391 2855 752 
Q 3116 1113 3116 1747 
z
" transform="scale(0.015625)"/>
       <path id="DejaVuSans-6d" d="M 3328 2828 
Q 3544 3216 3844 3400 
Q 4144 3584 4550 3584 
Q 5097 3584 5394 3201 
Q 5691 2819 5691 2113 
L 5691 0 
L 5113 0 
L 5113 2094 
Q 5113 2597 4934 2840 
Q 4756 3084 4391 3084 
Q 3944 3084 3684 2787 
Q 3425 2491 3425 1978 
L 3425 0 
L 2847 0 
L 2847 2094 
Q 2847 2600 2669 2842 
Q 2491 3084 2119 3084 
Q 1678 3084 1418 2786 
Q 1159 2488 1159 1978 
L 1159 0 
L 581 0 
L 581 3500 
L 1159 3500 
L 1159 2956 
Q 1356 3278 1631 3431 
Q 1906 3584 2284 3584 
Q 2666 3584 2933 3390 
Q 3200 3197 3328 2828 
z
" transform="scale(0.015625)"/>
       <path id="DejaVuSans-62" d="M 3116 1747 
Q 3116 2381 2855 2742 
Q 2594 3103 2138 3103 
Q 1681 3103 1420 2742 
Q 1159 2381 1159 1747 
Q 1159 1113 1420 752 
Q 1681 391 2138 391 
Q 2594 391 2855 752 
Q 3116 1113 3116 1747 
z
M 1159 2969 
Q 1341 3281 1617 3432 
Q 1894 3584 2278 3584 
Q 2916 3584 3314 3078 
Q 3713 2572 3713 1747 
Q 3713 922 3314 415 
Q 2916 -91 2278 -91 
Q 1894 -91 1617 61 
Q 1341 213 1159 525 
L 1159 0 
L 581 0 
L 581 4863 
L 1159 4863 
L 1159 2969 
z
" transform="scale(0.015625)"/>
      </defs>
      <use xlink:href="#DejaVuSans-46"/>
      <use xlink:href="#DejaVuSans-6f" transform="translate(53.894531 0)"/>
      <use xlink:href="#DejaVuSans-6e" transform="translate(115.076172 0)"/>
      <use xlink:href="#DejaVuSans-64" transform="translate(178.455078 0)"/>
      <use xlink:href="#DejaVuSans-65" transform="translate(241.931641 0)"/>
      <use xlink:href="#DejaVuSans-6f" transform="translate(303.455078 0)"/>
      <use xlink:href="#DejaVuSans-20" transform="translate(364.636719 0)"/>
      <use xlink:href="#DejaVuSans-70" transform="translate(396.423828 0)"/>
      <use xlink:href="#DejaVuSans-72" transform="translate(459.900391 0)"/>
      <use xlink:href="#DejaVuSans-6f" transform="translate(498.763672 0)"/>
      <use xlink:href="#DejaVuSans-6d" transform="translate(559.945312 0)"/>
      <use xlink:href="#DejaVuSans-65" transform="translate(657.357422 0)"/>
      <use xlink:href="#DejaVuSans-64" transform="translate(718.880859 0)"/>
      <use xlink:href="#DejaVuSans-69" transform="translate(782.357422 0)"/>
      <use xlink:href="#DejaVuSans-6f" transform="translate(810.140625 0)"/>
      <use xlink:href="#DejaVuSans-20" transform="translate(871.322266 0)"/>
      <use xlink:href="#DejaVuSans-70" transform="translate(903.109375 0)"/>
      <use xlink:href="#DejaVuSans-6f" transform="translate(966.585938 0)"/>
      <use xlink:href="#DejaVuSans-6e" transform="translate(1027.767578 0)"/>
      <use xlink:href="#DejaVuSans-64" transform="translate(1091.146484 0)"/>
      <use xlink:href="#DejaVuSans-65" transform="translate(1154.623047 0)"/>
      <use xlink:href="#DejaVuSans-72" transform="translate(1216.146484 0)"/>
      <use xlink:href="#DejaVuSans-61" transform="translate(1257.259766 0)"/>
      <use xlink:href="#DejaVuSans-64" transform="translate(1318.539062 0)"/>
      <use xlink:href="#DejaVuSans-6f" transform="translate(1382.015625 0)"/>
      <use xlink:href="#DejaVuSans-20" transform="translate(1443.197266 0)"/>
      <use xlink:href="#DejaVuSans-62" transform="translate(1474.984375 0)"/>
      <use xlink:href="#DejaVuSans-61" transform="translate(1538.460938 0)"/>
      <use xlink:href="#DejaVuSans-6e" transform="translate(1599.740234 0)"/>
      <use xlink:href="#DejaVuSans-63" transform="translate(1663.119141 0)"/>
      <use xlink:href="#DejaVuSans-61" transform="translate(1718.099609 0)"/>
      <use xlink:href="#DejaVuSans-72" transform="translate(1779.378906 0)"/>
      <use xlink:href="#DejaVuSans-69" transform="translate(1820.492188 0)"/>
      <use xlink:href="#DejaVuSans-6f" transform="translate(1848.275391 0)"/>
     </g>
    </g>
    <g id="line2d_36">
     <path d="M 115.2 121.03125 
L 123.2 121.03125 
L 131.2 121.03125 
" style="fill: none; stroke: #e31a1c; stroke-width: 1.5; stroke-linecap: square"/>
    </g>
    <g id="text_19">
     <!-- Fondeo promedio ponderado gubernamental -->
     <g transform="translate(137.6 123.83125) scale(0.08 -0.08)">
      <defs>
       <path id="DejaVuSans-67" d="M 2906 1791 
Q 2906 2416 2648 2759 
Q 2391 3103 1925 3103 
Q 1463 3103 1205 2759 
Q 947 2416 947 1791 
Q 947 1169 1205 825 
Q 1463 481 1925 481 
Q 2391 481 2648 825 
Q 2906 1169 2906 1791 
z
M 3481 434 
Q 3481 -459 3084 -895 
Q 2688 -1331 1869 -1331 
Q 1566 -1331 1297 -1286 
Q 1028 -1241 775 -1147 
L 775 -588 
Q 1028 -725 1275 -790 
Q 1522 -856 1778 -856 
Q 2344 -856 2625 -561 
Q 2906 -266 2906 331 
L 2906 616 
Q 2728 306 2450 153 
Q 2172 0 1784 0 
Q 1141 0 747 490 
Q 353 981 353 1791 
Q 353 2603 747 3093 
Q 1141 3584 1784 3584 
Q 2172 3584 2450 3431 
Q 2728 3278 2906 2969 
L 2906 3500 
L 3481 3500 
L 3481 434 
z
" transform="scale(0.015625)"/>
       <path id="DejaVuSans-75" d="M 544 1381 
L 544 3500 
L 1119 3500 
L 1119 1403 
Q 1119 906 1312 657 
Q 1506 409 1894 409 
Q 2359 409 2629 706 
Q 2900 1003 2900 1516 
L 2900 3500 
L 3475 3500 
L 3475 0 
L 2900 0 
L 2900 538 
Q 2691 219 2414 64 
Q 2138 -91 1772 -91 
Q 1169 -91 856 284 
Q 544 659 544 1381 
z
M 1991 3584 
L 1991 3584 
z
" transform="scale(0.015625)"/>
       <path id="DejaVuSans-6c" d="M 603 4863 
L 1178 4863 
L 1178 0 
L 603 0 
L 603 4863 
z
" transform="scale(0.015625)"/>
      </defs>
      <use xlink:href="#DejaVuSans-46"/>
      <use xlink:href="#DejaVuSans-6f" transform="translate(53.894531 0)"/>
      <use xlink:href="#DejaVuSans-6e" transform="translate(115.076172 0)"/>
      <use xlink:href="#DejaVuSans-64" transform="translate(178.455078 0)"/>
      <use xlink:href="#DejaVuSans-65" transform="translate(241.931641 0)"/>
      <use xlink:href="#DejaVuSans-6f" transform="translate(303.455078 0)"/>
      <use xlink:href="#DejaVuSans-20" transform="translate(364.636719 0)"/>
      <use xlink:href="#DejaVuSans-70" transform="translate(396.423828 0)"/>
      <use xlink:href="#DejaVuSans-72" transform="translate(459.900391 0)"/>
      <use xlink:href="#DejaVuSans-6f" transform="translate(498.763672 0)"/>
      <use xlink:href="#DejaVuSans-6d" transform="translate(559.945312 0)"/>
      <use xlink:href="#DejaVuSans-65" transform="translate(657.357422 0)"/>
      <use xlink:href="#DejaVuSans-64" transform="translate(718.880859 0)"/>
      <use xlink:href="#DejaVuSans-69" transform="translate(782.357422 0)"/>
      <use xlink:href="#DejaVuSans-6f" transform="translate(810.140625 0)"/>
      <use xlink:href="#DejaVuSans-20" transform="translate(871.322266 0)"/>
      <use xlink:href="#DejaVuSans-70" transform="translate(903.109375 0)"/>
      <use xlink:href="#DejaVuSans-6f" transform="translate(966.585938 0)"/>
      <use xlink:href="#DejaVuSans-6e" transform="translate(1027.767578 0)"/>
      <use xlink:href="#DejaVuSans-64" transform="translate(1091.146484 0)"/>
      <use xlink:href="#DejaVuSans-65" transform="translate(1154.623047 0)"/>
      <use xlink:href="#DejaVuSans-72" transform="translate(1216.146484 0)"/>
      <use xlink:href="#DejaVuSans-61" transform="translate(1257.259766 0)"/>
      <use xlink:href="#DejaVuSans-64" transform="translate(1318.539062 0)"/>
      <use xlink:href="#DejaVuSans-6f" transform="translate(1382.015625 0)"/>
      <use xlink:href="#DejaVuSans-20" transform="translate(1443.197266 0)"/>
      <use xlink:href="#DejaVuSans-67" transform="translate(1474.984375 0)"/>
      <use xlink:href="#DejaVuSans-75" transform="translate(1538.460938 0)"/>
      <use xlink:href="#DejaVuSans-62" transform="translate(1601.839844 0)"/>
      <use xlink:href="#DejaVuSans-65" transform="translate(1665.316406 0)"/>
      <use xlink:href="#DejaVuSans-72" transform="translate(1726.839844 0)"/>
      <use xlink:href="#DejaVuSans-6e" transform="translate(1766.203125 0)"/>
      <use xlink:href="#DejaVuSans-61" transform="translate(1829.582031 0)"/>
      <use xlink:href="#DejaVuSans-6d" transform="translate(1890.861328 0)"/>
      <use xlink:href="#DejaVuSans-65" transform="translate(1988.273438 0)"/>
      <use xlink:href="#DejaVuSans-6e" transform="translate(2049.796875 0)"/>
      <use xlink:href="#DejaVuSans-74" transform="translate(2113.175781 0)"/>
      <use xlink:href="#DejaVuSans-61" transform="translate(2152.384766 0)"/>
      <use xlink:href="#DejaVuSans-6c" transform="translate(2213.664062 0)"/>
     </g>
    </g>
   </g>
  </g>
 </g>
 <defs>
  <clipPath id="p0e9863e6ab">
   <rect x="108" y="51.84" width="669.6" height="332.64"/>
  </clipPath>
 </defs>
</svg>
