<?xml version="1.0" encoding="utf-8" standalone="no"?>
<!DOCTYPE svg PUBLIC "-//W3C//DTD SVG 1.1//EN"
  "http://www.w3.org/Graphics/SVG/1.1/DTD/svg11.dtd">
<svg xmlns:xlink="http://www.w3.org/1999/xlink" width="432pt" height="432pt" viewBox="0 0 432 432" xmlns="http://www.w3.org/2000/svg" version="1.1">
 <metadata>
  <rdf:RDF xmlns:dc="http://purl.org/dc/elements/1.1/" xmlns:cc="http://creativecommons.org/ns#" xmlns:rdf="http://www.w3.org/1999/02/22-rdf-syntax-ns#">
   <cc:Work>
    <dc:type rdf:resource="http://purl.org/dc/dcmitype/StillImage"/>
    <dc:date>2025-03-04T12:38:26.644613</dc:date>
    <dc:format>image/svg+xml</dc:format>
    <dc:creator>
     <cc:Agent>
      <dc:title>Matplotlib v3.8.4, https://matplotlib.org/</dc:title>
     </cc:Agent>
    </dc:creator>
   </cc:Work>
  </rdf:RDF>
 </metadata>
 <defs>
  <style type="text/css">*{stroke-linejoin: round; stroke-linecap: butt}</style>
 </defs>
 <g id="figure_1">
  <g id="patch_1">
   <path d="M 0 432 
L 432 432 
L 432 0 
L 0 0 
z
" style="fill: #ffffff"/>
  </g>
  <g id="axes_1">
   <g id="patch_2">
    <path d="M 54 384.48 
L 388.8 384.48 
L 388.8 51.84 
L 54 51.84 
z
" style="fill: #ffffff"/>
   </g>
   <g id="matplotlib.axis_1">
    <g id="xtick_1">
     <g id="line2d_1">
      <path d="M 154.44 384.48 
L 154.44 51.84 
" clip-path="url(#p082311b794)" style="fill: none; stroke-dasharray: 2.96,1.28; stroke-dashoffset: 0; stroke: #cccccc; stroke-opacity: 0; stroke-width: 0.8"/>
     </g>
     <g id="text_1">
      <!-- Sí -->
      <g style="fill: #262626" transform="translate(157.025156 400.928438) rotate(-90) scale(0.1 -0.1)">
       <defs>
        <path id="ArialMT-53" d="M 288 1472 
L 859 1522 
Q 900 1178 1048 958 
Q 1197 738 1509 602 
Q 1822 466 2213 466 
Q 2559 466 2825 569 
Q 3091 672 3220 851 
Q 3350 1031 3350 1244 
Q 3350 1459 3225 1620 
Q 3100 1781 2813 1891 
Q 2628 1963 1997 2114 
Q 1366 2266 1113 2400 
Q 784 2572 623 2826 
Q 463 3081 463 3397 
Q 463 3744 659 4045 
Q 856 4347 1234 4503 
Q 1613 4659 2075 4659 
Q 2584 4659 2973 4495 
Q 3363 4331 3572 4012 
Q 3781 3694 3797 3291 
L 3216 3247 
Q 3169 3681 2898 3903 
Q 2628 4125 2100 4125 
Q 1550 4125 1298 3923 
Q 1047 3722 1047 3438 
Q 1047 3191 1225 3031 
Q 1400 2872 2139 2705 
Q 2878 2538 3153 2413 
Q 3553 2228 3743 1945 
Q 3934 1663 3934 1294 
Q 3934 928 3725 604 
Q 3516 281 3123 101 
Q 2731 -78 2241 -78 
Q 1619 -78 1198 103 
Q 778 284 539 648 
Q 300 1013 288 1472 
z
" transform="scale(0.015625)"/>
        <path id="ArialMT-ed" d="M 619 0 
L 619 3319 
L 1181 3319 
L 1181 0 
L 619 0 
z
M 590 3731 
L 1005 4606 
L 1743 4606 
L 1055 3731 
L 590 3731 
z
" transform="scale(0.015625)"/>
       </defs>
       <use xlink:href="#ArialMT-53"/>
       <use xlink:href="#ArialMT-ed" x="66.699219"/>
      </g>
     </g>
    </g>
    <g id="xtick_2">
     <g id="line2d_2">
      <path d="M 288.36 384.48 
L 288.36 51.84 
" clip-path="url(#p082311b794)" style="fill: none; stroke-dasharray: 2.96,1.28; stroke-dashoffset: 0; stroke: #cccccc; stroke-opacity: 0; stroke-width: 0.8"/>
     </g>
     <g id="text_2">
      <!-- No -->
      <g style="fill: #262626" transform="translate(290.945156 404.262812) rotate(-90) scale(0.1 -0.1)">
       <defs>
        <path id="ArialMT-4e" d="M 488 0 
L 488 4581 
L 1109 4581 
L 3516 984 
L 3516 4581 
L 4097 4581 
L 4097 0 
L 3475 0 
L 1069 3600 
L 1069 0 
L 488 0 
z
" transform="scale(0.015625)"/>
        <path id="ArialMT-6f" d="M 213 1659 
Q 213 2581 725 3025 
Q 1153 3394 1769 3394 
Q 2453 3394 2887 2945 
Q 3322 2497 3322 1706 
Q 3322 1066 3130 698 
Q 2938 331 2570 128 
Q 2203 -75 1769 -75 
Q 1072 -75 642 372 
Q 213 819 213 1659 
z
M 791 1659 
Q 791 1022 1069 705 
Q 1347 388 1769 388 
Q 2188 388 2466 706 
Q 2744 1025 2744 1678 
Q 2744 2294 2464 2611 
Q 2184 2928 1769 2928 
Q 1347 2928 1069 2612 
Q 791 2297 791 1659 
z
" transform="scale(0.015625)"/>
       </defs>
       <use xlink:href="#ArialMT-4e"/>
       <use xlink:href="#ArialMT-6f" x="72.216797"/>
      </g>
     </g>
    </g>
   </g>
   <g id="matplotlib.axis_2">
    <g id="ytick_1">
     <g id="line2d_3">
      <path d="M 54 384.48 
L 388.8 384.48 
" clip-path="url(#p082311b794)" style="fill: none; stroke-dasharray: 2.96,1.28; stroke-dashoffset: 0; stroke: #cccccc; stroke-opacity: 0.7; stroke-width: 0.8"/>
     </g>
     <g id="text_3">
      <!-- 0 -->
      <g style="fill: #262626" transform="translate(41.439062 388.058906) scale(0.1 -0.1)">
       <defs>
        <path id="ArialMT-30" d="M 266 2259 
Q 266 3072 433 3567 
Q 600 4063 929 4331 
Q 1259 4600 1759 4600 
Q 2128 4600 2406 4451 
Q 2684 4303 2865 4023 
Q 3047 3744 3150 3342 
Q 3253 2941 3253 2259 
Q 3253 1453 3087 958 
Q 2922 463 2592 192 
Q 2263 -78 1759 -78 
Q 1097 -78 719 397 
Q 266 969 266 2259 
z
M 844 2259 
Q 844 1131 1108 757 
Q 1372 384 1759 384 
Q 2147 384 2411 759 
Q 2675 1134 2675 2259 
Q 2675 3391 2411 3762 
Q 2147 4134 1753 4134 
Q 1366 4134 1134 3806 
Q 844 3388 844 2259 
z
" transform="scale(0.015625)"/>
       </defs>
       <use xlink:href="#ArialMT-30"/>
      </g>
     </g>
    </g>
    <g id="ytick_2">
     <g id="line2d_4">
      <path d="M 54 340.48 
L 388.8 340.48 
" clip-path="url(#p082311b794)" style="fill: none; stroke-dasharray: 2.96,1.28; stroke-dashoffset: 0; stroke: #cccccc; stroke-opacity: 0.7; stroke-width: 0.8"/>
     </g>
     <g id="text_4">
      <!-- 5 -->
      <g style="fill: #262626" transform="translate(41.439062 344.058906) scale(0.1 -0.1)">
       <defs>
        <path id="ArialMT-35" d="M 266 1200 
L 856 1250 
Q 922 819 1161 601 
Q 1400 384 1738 384 
Q 2144 384 2425 690 
Q 2706 997 2706 1503 
Q 2706 1984 2436 2262 
Q 2166 2541 1728 2541 
Q 1456 2541 1237 2417 
Q 1019 2294 894 2097 
L 366 2166 
L 809 4519 
L 3088 4519 
L 3088 3981 
L 1259 3981 
L 1013 2750 
Q 1425 3038 1878 3038 
Q 2478 3038 2890 2622 
Q 3303 2206 3303 1553 
Q 3303 931 2941 478 
Q 2500 -78 1738 -78 
Q 1113 -78 717 272 
Q 322 622 266 1200 
z
" transform="scale(0.015625)"/>
       </defs>
       <use xlink:href="#ArialMT-35"/>
      </g>
     </g>
    </g>
    <g id="ytick_3">
     <g id="line2d_5">
      <path d="M 54 296.48 
L 388.8 296.48 
" clip-path="url(#p082311b794)" style="fill: none; stroke-dasharray: 2.96,1.28; stroke-dashoffset: 0; stroke: #cccccc; stroke-opacity: 0.7; stroke-width: 0.8"/>
     </g>
     <g id="text_5">
      <!-- 10 -->
      <g style="fill: #262626" transform="translate(35.878125 300.058906) scale(0.1 -0.1)">
       <defs>
        <path id="ArialMT-31" d="M 2384 0 
L 1822 0 
L 1822 3584 
Q 1619 3391 1289 3197 
Q 959 3003 697 2906 
L 697 3450 
Q 1169 3672 1522 3987 
Q 1875 4303 2022 4600 
L 2384 4600 
L 2384 0 
z
" transform="scale(0.015625)"/>
       </defs>
       <use xlink:href="#ArialMT-31"/>
       <use xlink:href="#ArialMT-30" x="55.615234"/>
      </g>
     </g>
    </g>
    <g id="ytick_4">
     <g id="line2d_6">
      <path d="M 54 252.48 
L 388.8 252.48 
" clip-path="url(#p082311b794)" style="fill: none; stroke-dasharray: 2.96,1.28; stroke-dashoffset: 0; stroke: #cccccc; stroke-opacity: 0.7; stroke-width: 0.8"/>
     </g>
     <g id="text_6">
      <!-- 15 -->
      <g style="fill: #262626" transform="translate(35.878125 256.058906) scale(0.1 -0.1)">
       <use xlink:href="#ArialMT-31"/>
       <use xlink:href="#ArialMT-35" x="55.615234"/>
      </g>
     </g>
    </g>
    <g id="ytick_5">
     <g id="line2d_7">
      <path d="M 54 208.48 
L 388.8 208.48 
" clip-path="url(#p082311b794)" style="fill: none; stroke-dasharray: 2.96,1.28; stroke-dashoffset: 0; stroke: #cccccc; stroke-opacity: 0.7; stroke-width: 0.8"/>
     </g>
     <g id="text_7">
      <!-- 20 -->
      <g style="fill: #262626" transform="translate(35.878125 212.058906) scale(0.1 -0.1)">
       <defs>
        <path id="ArialMT-32" d="M 3222 541 
L 3222 0 
L 194 0 
Q 188 203 259 391 
Q 375 700 629 1000 
Q 884 1300 1366 1694 
Q 2113 2306 2375 2664 
Q 2638 3022 2638 3341 
Q 2638 3675 2398 3904 
Q 2159 4134 1775 4134 
Q 1369 4134 1125 3890 
Q 881 3647 878 3216 
L 300 3275 
Q 359 3922 746 4261 
Q 1134 4600 1788 4600 
Q 2447 4600 2831 4234 
Q 3216 3869 3216 3328 
Q 3216 3053 3103 2787 
Q 2991 2522 2730 2228 
Q 2469 1934 1863 1422 
Q 1356 997 1212 845 
Q 1069 694 975 541 
L 3222 541 
z
" transform="scale(0.015625)"/>
       </defs>
       <use xlink:href="#ArialMT-32"/>
       <use xlink:href="#ArialMT-30" x="55.615234"/>
      </g>
     </g>
    </g>
    <g id="ytick_6">
     <g id="line2d_8">
      <path d="M 54 164.48 
L 388.8 164.48 
" clip-path="url(#p082311b794)" style="fill: none; stroke-dasharray: 2.96,1.28; stroke-dashoffset: 0; stroke: #cccccc; stroke-opacity: 0.7; stroke-width: 0.8"/>
     </g>
     <g id="text_8">
      <!-- 25 -->
      <g style="fill: #262626" transform="translate(35.878125 168.058906) scale(0.1 -0.1)">
       <use xlink:href="#ArialMT-32"/>
       <use xlink:href="#ArialMT-35" x="55.615234"/>
      </g>
     </g>
    </g>
    <g id="ytick_7">
     <g id="line2d_9">
      <path d="M 54 120.48 
L 388.8 120.48 
" clip-path="url(#p082311b794)" style="fill: none; stroke-dasharray: 2.96,1.28; stroke-dashoffset: 0; stroke: #cccccc; stroke-opacity: 0.7; stroke-width: 0.8"/>
     </g>
     <g id="text_9">
      <!-- 30 -->
      <g style="fill: #262626" transform="translate(35.878125 124.058906) scale(0.1 -0.1)">
       <defs>
        <path id="ArialMT-33" d="M 269 1209 
L 831 1284 
Q 928 806 1161 595 
Q 1394 384 1728 384 
Q 2125 384 2398 659 
Q 2672 934 2672 1341 
Q 2672 1728 2419 1979 
Q 2166 2231 1775 2231 
Q 1616 2231 1378 2169 
L 1441 2663 
Q 1497 2656 1531 2656 
Q 1891 2656 2178 2843 
Q 2466 3031 2466 3422 
Q 2466 3731 2256 3934 
Q 2047 4138 1716 4138 
Q 1388 4138 1169 3931 
Q 950 3725 888 3313 
L 325 3413 
Q 428 3978 793 4289 
Q 1159 4600 1703 4600 
Q 2078 4600 2393 4439 
Q 2709 4278 2876 4000 
Q 3044 3722 3044 3409 
Q 3044 3113 2884 2869 
Q 2725 2625 2413 2481 
Q 2819 2388 3044 2092 
Q 3269 1797 3269 1353 
Q 3269 753 2831 336 
Q 2394 -81 1725 -81 
Q 1122 -81 723 278 
Q 325 638 269 1209 
z
" transform="scale(0.015625)"/>
       </defs>
       <use xlink:href="#ArialMT-33"/>
       <use xlink:href="#ArialMT-30" x="55.615234"/>
      </g>
     </g>
    </g>
    <g id="ytick_8">
     <g id="line2d_10">
      <path d="M 54 76.48 
L 388.8 76.48 
" clip-path="url(#p082311b794)" style="fill: none; stroke-dasharray: 2.96,1.28; stroke-dashoffset: 0; stroke: #cccccc; stroke-opacity: 0.7; stroke-width: 0.8"/>
     </g>
     <g id="text_10">
      <!-- 35 -->
      <g style="fill: #262626" transform="translate(35.878125 80.058906) scale(0.1 -0.1)">
       <use xlink:href="#ArialMT-33"/>
       <use xlink:href="#ArialMT-35" x="55.615234"/>
      </g>
     </g>
    </g>
   </g>
   <g id="patch_3">
    <path d="M 87.48 384.48 
L 221.4 384.48 
L 221.4 67.68 
L 87.48 67.68 
z
" clip-path="url(#p082311b794)" style="fill: #4878d0; opacity: 0.8; stroke: #ffffff; stroke-linejoin: miter"/>
   </g>
   <g id="patch_4">
    <path d="M 221.4 384.48 
L 355.32 384.48 
L 355.32 278.88 
L 221.4 278.88 
z
" clip-path="url(#p082311b794)" style="fill: #ee854a; opacity: 0.8; stroke: #ffffff; stroke-linejoin: miter"/>
   </g>
   <g id="patch_5">
    <path d="M 54 384.48 
L 388.8 384.48 
" style="fill: none; stroke: #cccccc; stroke-width: 0.8; stroke-linejoin: miter; stroke-linecap: square"/>
   </g>
   <g id="text_11">
    <!-- 36 -->
    <g transform="translate(149.99125 64.748125) scale(0.08 -0.08)">
     <defs>
      <path id="ArialMT-36" d="M 3184 3459 
L 2625 3416 
Q 2550 3747 2413 3897 
Q 2184 4138 1850 4138 
Q 1581 4138 1378 3988 
Q 1113 3794 959 3422 
Q 806 3050 800 2363 
Q 1003 2672 1297 2822 
Q 1591 2972 1913 2972 
Q 2475 2972 2870 2558 
Q 3266 2144 3266 1488 
Q 3266 1056 3080 686 
Q 2894 316 2569 119 
Q 2244 -78 1831 -78 
Q 1128 -78 684 439 
Q 241 956 241 2144 
Q 241 3472 731 4075 
Q 1159 4600 1884 4600 
Q 2425 4600 2770 4297 
Q 3116 3994 3184 3459 
z
M 888 1484 
Q 888 1194 1011 928 
Q 1134 663 1356 523 
Q 1578 384 1822 384 
Q 2178 384 2434 671 
Q 2691 959 2691 1453 
Q 2691 1928 2437 2201 
Q 2184 2475 1800 2475 
Q 1419 2475 1153 2201 
Q 888 1928 888 1484 
z
" transform="scale(0.015625)"/>
     </defs>
     <use xlink:href="#ArialMT-33"/>
     <use xlink:href="#ArialMT-36" x="55.615234"/>
    </g>
   </g>
   <g id="text_12">
    <!-- 12 -->
    <g transform="translate(283.91125 275.948125) scale(0.08 -0.08)">
     <use xlink:href="#ArialMT-31"/>
     <use xlink:href="#ArialMT-32" x="55.615234"/>
    </g>
   </g>
   <g id="text_13">
    <!-- 2.4 ¿Le dieron recomendaciones sobre promoción del autocuidado, por ejemplo, activación física, alimentación saludable, higiene del sueño, manejo de estrés? -->
    <g style="fill: #262626" transform="translate(-389.37625 28.7295) scale(0.16 -0.16)">
     <defs>
      <path id="Arial-BoldMT-32" d="M 3238 816 
L 3238 0 
L 159 0 
Q 209 463 459 877 
Q 709 1291 1447 1975 
Q 2041 2528 2175 2725 
Q 2356 2997 2356 3263 
Q 2356 3556 2198 3714 
Q 2041 3872 1763 3872 
Q 1488 3872 1325 3706 
Q 1163 3541 1138 3156 
L 263 3244 
Q 341 3969 753 4284 
Q 1166 4600 1784 4600 
Q 2463 4600 2850 4234 
Q 3238 3869 3238 3325 
Q 3238 3016 3127 2736 
Q 3016 2456 2775 2150 
Q 2616 1947 2200 1565 
Q 1784 1184 1673 1059 
Q 1563 934 1494 816 
L 3238 816 
z
" transform="scale(0.015625)"/>
      <path id="Arial-BoldMT-2e" d="M 459 0 
L 459 878 
L 1338 878 
L 1338 0 
L 459 0 
z
" transform="scale(0.015625)"/>
      <path id="Arial-BoldMT-34" d="M 1994 0 
L 1994 922 
L 119 922 
L 119 1691 
L 2106 4600 
L 2844 4600 
L 2844 1694 
L 3413 1694 
L 3413 922 
L 2844 922 
L 2844 0 
L 1994 0 
z
M 1994 1694 
L 1994 3259 
L 941 1694 
L 1994 1694 
z
" transform="scale(0.015625)"/>
      <path id="Arial-BoldMT-20" transform="scale(0.015625)"/>
      <path id="Arial-BoldMT-bf" d="M 2384 3319 
L 2384 2441 
L 1506 2441 
L 1506 3319 
L 2384 3319 
z
M 1591 2138 
L 2384 2138 
Q 2391 1931 2391 1900 
Q 2391 1544 2255 1286 
Q 2119 1028 1723 706 
Q 1328 384 1250 256 
Q 1172 128 1172 -34 
Q 1172 -275 1378 -458 
Q 1584 -641 1931 -641 
Q 2266 -641 2487 -455 
Q 2709 -269 2800 131 
L 3606 28 
Q 3553 -363 3384 -622 
Q 3153 -975 2783 -1144 
Q 2413 -1313 1966 -1313 
Q 1213 -1313 764 -917 
Q 316 -522 316 -3 
Q 316 197 395 386 
Q 475 575 645 765 
Q 816 956 1188 1263 
Q 1459 1481 1526 1626 
Q 1594 1772 1591 2138 
z
" transform="scale(0.015625)"/>
      <path id="Arial-BoldMT-4c" d="M 491 0 
L 491 4544 
L 1416 4544 
L 1416 772 
L 3716 772 
L 3716 0 
L 491 0 
z
" transform="scale(0.015625)"/>
      <path id="Arial-BoldMT-65" d="M 2381 1056 
L 3256 909 
Q 3088 428 2723 176 
Q 2359 -75 1813 -75 
Q 947 -75 531 491 
Q 203 944 203 1634 
Q 203 2459 634 2926 
Q 1066 3394 1725 3394 
Q 2466 3394 2894 2905 
Q 3322 2416 3303 1406 
L 1103 1406 
Q 1113 1016 1316 798 
Q 1519 581 1822 581 
Q 2028 581 2168 693 
Q 2309 806 2381 1056 
z
M 2431 1944 
Q 2422 2325 2234 2523 
Q 2047 2722 1778 2722 
Q 1491 2722 1303 2513 
Q 1116 2303 1119 1944 
L 2431 1944 
z
" transform="scale(0.015625)"/>
      <path id="Arial-BoldMT-64" d="M 3503 0 
L 2688 0 
L 2688 488 
Q 2484 203 2207 64 
Q 1931 -75 1650 -75 
Q 1078 -75 670 386 
Q 263 847 263 1672 
Q 263 2516 659 2955 
Q 1056 3394 1663 3394 
Q 2219 3394 2625 2931 
L 2625 4581 
L 3503 4581 
L 3503 0 
z
M 1159 1731 
Q 1159 1200 1306 963 
Q 1519 619 1900 619 
Q 2203 619 2415 876 
Q 2628 1134 2628 1647 
Q 2628 2219 2422 2470 
Q 2216 2722 1894 2722 
Q 1581 2722 1370 2473 
Q 1159 2225 1159 1731 
z
" transform="scale(0.015625)"/>
      <path id="Arial-BoldMT-69" d="M 459 3769 
L 459 4581 
L 1338 4581 
L 1338 3769 
L 459 3769 
z
M 459 0 
L 459 3319 
L 1338 3319 
L 1338 0 
L 459 0 
z
" transform="scale(0.015625)"/>
      <path id="Arial-BoldMT-72" d="M 1300 0 
L 422 0 
L 422 3319 
L 1238 3319 
L 1238 2847 
Q 1447 3181 1614 3287 
Q 1781 3394 1994 3394 
Q 2294 3394 2572 3228 
L 2300 2463 
Q 2078 2606 1888 2606 
Q 1703 2606 1575 2504 
Q 1447 2403 1373 2137 
Q 1300 1872 1300 1025 
L 1300 0 
z
" transform="scale(0.015625)"/>
      <path id="Arial-BoldMT-6f" d="M 256 1706 
Q 256 2144 472 2553 
Q 688 2963 1083 3178 
Q 1478 3394 1966 3394 
Q 2719 3394 3200 2905 
Q 3681 2416 3681 1669 
Q 3681 916 3195 420 
Q 2709 -75 1972 -75 
Q 1516 -75 1102 131 
Q 688 338 472 736 
Q 256 1134 256 1706 
z
M 1156 1659 
Q 1156 1166 1390 903 
Q 1625 641 1969 641 
Q 2313 641 2545 903 
Q 2778 1166 2778 1666 
Q 2778 2153 2545 2415 
Q 2313 2678 1969 2678 
Q 1625 2678 1390 2415 
Q 1156 2153 1156 1659 
z
" transform="scale(0.015625)"/>
      <path id="Arial-BoldMT-6e" d="M 3478 0 
L 2600 0 
L 2600 1694 
Q 2600 2231 2544 2389 
Q 2488 2547 2361 2634 
Q 2234 2722 2056 2722 
Q 1828 2722 1647 2597 
Q 1466 2472 1398 2265 
Q 1331 2059 1331 1503 
L 1331 0 
L 453 0 
L 453 3319 
L 1269 3319 
L 1269 2831 
Q 1703 3394 2363 3394 
Q 2653 3394 2893 3289 
Q 3134 3184 3257 3021 
Q 3381 2859 3429 2653 
Q 3478 2447 3478 2063 
L 3478 0 
z
" transform="scale(0.015625)"/>
      <path id="Arial-BoldMT-63" d="M 3353 2338 
L 2488 2181 
Q 2444 2441 2289 2572 
Q 2134 2703 1888 2703 
Q 1559 2703 1364 2476 
Q 1169 2250 1169 1719 
Q 1169 1128 1367 884 
Q 1566 641 1900 641 
Q 2150 641 2309 783 
Q 2469 925 2534 1272 
L 3397 1125 
Q 3263 531 2881 228 
Q 2500 -75 1859 -75 
Q 1131 -75 698 384 
Q 266 844 266 1656 
Q 266 2478 700 2936 
Q 1134 3394 1875 3394 
Q 2481 3394 2839 3133 
Q 3197 2872 3353 2338 
z
" transform="scale(0.015625)"/>
      <path id="Arial-BoldMT-6d" d="M 394 3319 
L 1203 3319 
L 1203 2866 
Q 1638 3394 2238 3394 
Q 2556 3394 2790 3262 
Q 3025 3131 3175 2866 
Q 3394 3131 3647 3262 
Q 3900 3394 4188 3394 
Q 4553 3394 4806 3245 
Q 5059 3097 5184 2809 
Q 5275 2597 5275 2122 
L 5275 0 
L 4397 0 
L 4397 1897 
Q 4397 2391 4306 2534 
Q 4184 2722 3931 2722 
Q 3747 2722 3584 2609 
Q 3422 2497 3350 2280 
Q 3278 2063 3278 1594 
L 3278 0 
L 2400 0 
L 2400 1819 
Q 2400 2303 2353 2443 
Q 2306 2584 2207 2653 
Q 2109 2722 1941 2722 
Q 1738 2722 1575 2612 
Q 1413 2503 1342 2297 
Q 1272 2091 1272 1613 
L 1272 0 
L 394 0 
L 394 3319 
z
" transform="scale(0.015625)"/>
      <path id="Arial-BoldMT-61" d="M 1116 2306 
L 319 2450 
Q 453 2931 781 3162 
Q 1109 3394 1756 3394 
Q 2344 3394 2631 3255 
Q 2919 3116 3036 2902 
Q 3153 2688 3153 2116 
L 3144 1091 
Q 3144 653 3186 445 
Q 3228 238 3344 0 
L 2475 0 
Q 2441 88 2391 259 
Q 2369 338 2359 363 
Q 2134 144 1878 34 
Q 1622 -75 1331 -75 
Q 819 -75 523 203 
Q 228 481 228 906 
Q 228 1188 362 1408 
Q 497 1628 739 1745 
Q 981 1863 1438 1950 
Q 2053 2066 2291 2166 
L 2291 2253 
Q 2291 2506 2166 2614 
Q 2041 2722 1694 2722 
Q 1459 2722 1328 2630 
Q 1197 2538 1116 2306 
z
M 2291 1594 
Q 2122 1538 1756 1459 
Q 1391 1381 1278 1306 
Q 1106 1184 1106 997 
Q 1106 813 1243 678 
Q 1381 544 1594 544 
Q 1831 544 2047 700 
Q 2206 819 2256 991 
Q 2291 1103 2291 1419 
L 2291 1594 
z
" transform="scale(0.015625)"/>
      <path id="Arial-BoldMT-73" d="M 150 947 
L 1031 1081 
Q 1088 825 1259 692 
Q 1431 559 1741 559 
Q 2081 559 2253 684 
Q 2369 772 2369 919 
Q 2369 1019 2306 1084 
Q 2241 1147 2013 1200 
Q 950 1434 666 1628 
Q 272 1897 272 2375 
Q 272 2806 612 3100 
Q 953 3394 1669 3394 
Q 2350 3394 2681 3172 
Q 3013 2950 3138 2516 
L 2309 2363 
Q 2256 2556 2107 2659 
Q 1959 2763 1684 2763 
Q 1338 2763 1188 2666 
Q 1088 2597 1088 2488 
Q 1088 2394 1175 2328 
Q 1294 2241 1995 2081 
Q 2697 1922 2975 1691 
Q 3250 1456 3250 1038 
Q 3250 581 2869 253 
Q 2488 -75 1741 -75 
Q 1063 -75 667 200 
Q 272 475 150 947 
z
" transform="scale(0.015625)"/>
      <path id="Arial-BoldMT-62" d="M 422 0 
L 422 4581 
L 1300 4581 
L 1300 2931 
Q 1706 3394 2263 3394 
Q 2869 3394 3266 2955 
Q 3663 2516 3663 1694 
Q 3663 844 3258 384 
Q 2853 -75 2275 -75 
Q 1991 -75 1714 67 
Q 1438 209 1238 488 
L 1238 0 
L 422 0 
z
M 1294 1731 
Q 1294 1216 1456 969 
Q 1684 619 2063 619 
Q 2353 619 2558 867 
Q 2763 1116 2763 1650 
Q 2763 2219 2556 2470 
Q 2350 2722 2028 2722 
Q 1713 2722 1503 2476 
Q 1294 2231 1294 1731 
z
" transform="scale(0.015625)"/>
      <path id="Arial-BoldMT-70" d="M 434 3319 
L 1253 3319 
L 1253 2831 
Q 1413 3081 1684 3237 
Q 1956 3394 2288 3394 
Q 2866 3394 3269 2941 
Q 3672 2488 3672 1678 
Q 3672 847 3265 386 
Q 2859 -75 2281 -75 
Q 2006 -75 1782 34 
Q 1559 144 1313 409 
L 1313 -1263 
L 434 -1263 
L 434 3319 
z
M 1303 1716 
Q 1303 1156 1525 889 
Q 1747 622 2066 622 
Q 2372 622 2575 867 
Q 2778 1113 2778 1672 
Q 2778 2194 2568 2447 
Q 2359 2700 2050 2700 
Q 1728 2700 1515 2451 
Q 1303 2203 1303 1716 
z
" transform="scale(0.015625)"/>
      <path id="Arial-BoldMT-f3" d="M 256 1706 
Q 256 2144 472 2553 
Q 688 2963 1083 3178 
Q 1478 3394 1966 3394 
Q 2719 3394 3200 2905 
Q 3681 2416 3681 1669 
Q 3681 916 3195 420 
Q 2709 -75 1972 -75 
Q 1516 -75 1102 131 
Q 688 338 472 736 
Q 256 1134 256 1706 
z
M 1156 1659 
Q 1156 1166 1390 903 
Q 1625 641 1969 641 
Q 2313 641 2545 903 
Q 2778 1166 2778 1666 
Q 2778 2153 2545 2415 
Q 2313 2678 1969 2678 
Q 1625 2678 1390 2415 
Q 1156 2153 1156 1659 
z
M 1528 3725 
L 1960 4659 
L 2944 4659 
L 2085 3725 
L 1528 3725 
z
" transform="scale(0.015625)"/>
      <path id="Arial-BoldMT-6c" d="M 459 0 
L 459 4581 
L 1338 4581 
L 1338 0 
L 459 0 
z
" transform="scale(0.015625)"/>
      <path id="Arial-BoldMT-75" d="M 2644 0 
L 2644 497 
Q 2463 231 2167 78 
Q 1872 -75 1544 -75 
Q 1209 -75 943 72 
Q 678 219 559 484 
Q 441 750 441 1219 
L 441 3319 
L 1319 3319 
L 1319 1794 
Q 1319 1094 1367 936 
Q 1416 778 1544 686 
Q 1672 594 1869 594 
Q 2094 594 2272 717 
Q 2450 841 2515 1023 
Q 2581 1206 2581 1919 
L 2581 3319 
L 3459 3319 
L 3459 0 
L 2644 0 
z
" transform="scale(0.015625)"/>
      <path id="Arial-BoldMT-74" d="M 1981 3319 
L 1981 2619 
L 1381 2619 
L 1381 1281 
Q 1381 875 1398 808 
Q 1416 741 1477 697 
Q 1538 653 1625 653 
Q 1747 653 1978 738 
L 2053 56 
Q 1747 -75 1359 -75 
Q 1122 -75 931 4 
Q 741 84 652 211 
Q 563 338 528 553 
Q 500 706 500 1172 
L 500 2619 
L 97 2619 
L 97 3319 
L 500 3319 
L 500 3978 
L 1381 4491 
L 1381 3319 
L 1981 3319 
z
" transform="scale(0.015625)"/>
      <path id="Arial-BoldMT-2c" d="M 438 878 
L 1316 878 
L 1316 250 
Q 1316 -131 1250 -351 
Q 1184 -572 1001 -747 
Q 819 -922 538 -1022 
L 366 -659 
Q 631 -572 743 -419 
Q 856 -266 863 0 
L 438 0 
L 438 878 
z
" transform="scale(0.015625)"/>
      <path id="Arial-BoldMT-6a" d="M 441 3769 
L 441 4581 
L 1319 4581 
L 1319 3769 
L 441 3769 
z
M 1319 3319 
L 1319 103 
Q 1319 -531 1236 -792 
Q 1153 -1053 917 -1200 
Q 681 -1347 316 -1347 
Q 184 -1347 32 -1323 
Q -119 -1300 -294 -1253 
L -141 -503 
Q -78 -516 -23 -523 
Q 31 -531 78 -531 
Q 213 -531 298 -473 
Q 384 -416 412 -334 
Q 441 -253 441 153 
L 441 3319 
L 1319 3319 
z
" transform="scale(0.015625)"/>
      <path id="Arial-BoldMT-76" d="M 1372 0 
L 34 3319 
L 956 3319 
L 1581 1625 
L 1763 1059 
Q 1834 1275 1853 1344 
Q 1897 1484 1947 1625 
L 2578 3319 
L 3481 3319 
L 2163 0 
L 1372 0 
z
" transform="scale(0.015625)"/>
      <path id="Arial-BoldMT-66" d="M 75 3319 
L 563 3319 
L 563 3569 
Q 563 3988 652 4194 
Q 741 4400 980 4529 
Q 1219 4659 1584 4659 
Q 1959 4659 2319 4547 
L 2200 3934 
Q 1991 3984 1797 3984 
Q 1606 3984 1523 3895 
Q 1441 3806 1441 3553 
L 1441 3319 
L 2097 3319 
L 2097 2628 
L 1441 2628 
L 1441 0 
L 563 0 
L 563 2628 
L 75 2628 
L 75 3319 
z
" transform="scale(0.015625)"/>
      <path id="Arial-BoldMT-ed" d="M 459 0 
L 459 3319 
L 1338 3319 
L 1338 0 
L 459 0 
z
M 392 3725 
L 824 4659 
L 1808 4659 
L 949 3725 
L 392 3725 
z
" transform="scale(0.015625)"/>
      <path id="Arial-BoldMT-68" d="M 1334 4581 
L 1334 2897 
Q 1759 3394 2350 3394 
Q 2653 3394 2897 3281 
Q 3141 3169 3264 2994 
Q 3388 2819 3433 2606 
Q 3478 2394 3478 1947 
L 3478 0 
L 2600 0 
L 2600 1753 
Q 2600 2275 2550 2415 
Q 2500 2556 2373 2639 
Q 2247 2722 2056 2722 
Q 1838 2722 1666 2615 
Q 1494 2509 1414 2295 
Q 1334 2081 1334 1663 
L 1334 0 
L 456 0 
L 456 4581 
L 1334 4581 
z
" transform="scale(0.015625)"/>
      <path id="Arial-BoldMT-67" d="M 378 -219 
L 1381 -341 
Q 1406 -516 1497 -581 
Q 1622 -675 1891 -675 
Q 2234 -675 2406 -572 
Q 2522 -503 2581 -350 
Q 2622 -241 2622 53 
L 2622 538 
Q 2228 0 1628 0 
Q 959 0 569 566 
Q 263 1013 263 1678 
Q 263 2513 664 2953 
Q 1066 3394 1663 3394 
Q 2278 3394 2678 2853 
L 2678 3319 
L 3500 3319 
L 3500 341 
Q 3500 -247 3403 -537 
Q 3306 -828 3131 -993 
Q 2956 -1159 2664 -1253 
Q 2372 -1347 1925 -1347 
Q 1081 -1347 728 -1058 
Q 375 -769 375 -325 
Q 375 -281 378 -219 
z
M 1163 1728 
Q 1163 1200 1367 954 
Q 1572 709 1872 709 
Q 2194 709 2416 961 
Q 2638 1213 2638 1706 
Q 2638 2222 2425 2472 
Q 2213 2722 1888 2722 
Q 1572 2722 1367 2476 
Q 1163 2231 1163 1728 
z
" transform="scale(0.015625)"/>
      <path id="Arial-BoldMT-f1" d="M 3478 0 
L 2600 0 
L 2600 1694 
Q 2600 2231 2544 2389 
Q 2488 2547 2361 2634 
Q 2234 2722 2056 2722 
Q 1828 2722 1647 2597 
Q 1466 2472 1398 2265 
Q 1331 2059 1331 1503 
L 1331 0 
L 453 0 
L 453 3319 
L 1269 3319 
L 1269 2831 
Q 1703 3394 2363 3394 
Q 2653 3394 2893 3289 
Q 3134 3184 3257 3021 
Q 3381 2859 3429 2653 
Q 3478 2447 3478 2063 
L 3478 0 
z
M 1291 3766 
L 891 3766 
Q 887 3838 887 3878 
Q 887 4206 1046 4382 
Q 1206 4559 1456 4559 
Q 1566 4559 1659 4536 
Q 1753 4513 2001 4402 
Q 2250 4291 2391 4291 
Q 2491 4291 2558 4353 
Q 2625 4416 2644 4563 
L 3050 4563 
Q 3047 4141 2892 3959 
Q 2737 3778 2494 3778 
Q 2387 3778 2284 3800 
Q 2212 3819 1924 3928 
Q 1637 4038 1506 4038 
Q 1406 4038 1350 3977 
Q 1294 3916 1291 3766 
z
" transform="scale(0.015625)"/>
      <path id="Arial-BoldMT-e9" d="M 2381 1056 
L 3256 909 
Q 3088 428 2723 176 
Q 2359 -75 1813 -75 
Q 947 -75 531 491 
Q 203 944 203 1634 
Q 203 2459 634 2926 
Q 1066 3394 1725 3394 
Q 2466 3394 2894 2905 
Q 3322 2416 3303 1406 
L 1103 1406 
Q 1113 1016 1316 798 
Q 1519 581 1822 581 
Q 2028 581 2168 693 
Q 2309 806 2381 1056 
z
M 2431 1944 
Q 2422 2325 2234 2523 
Q 2047 2722 1778 2722 
Q 1491 2722 1303 2513 
Q 1116 2303 1119 1944 
L 2431 1944 
z
M 1312 3725 
L 1744 4659 
L 2728 4659 
L 1869 3725 
L 1312 3725 
z
" transform="scale(0.015625)"/>
      <path id="Arial-BoldMT-3f" d="M 2347 1181 
L 1550 1181 
Q 1547 1353 1547 1391 
Q 1547 1778 1675 2028 
Q 1803 2278 2187 2590 
Q 2572 2903 2647 3000 
Q 2763 3153 2763 3338 
Q 2763 3594 2558 3776 
Q 2353 3959 2006 3959 
Q 1672 3959 1447 3768 
Q 1222 3578 1138 3188 
L 331 3288 
Q 366 3847 808 4237 
Q 1250 4628 1969 4628 
Q 2725 4628 3172 4233 
Q 3619 3838 3619 3313 
Q 3619 3022 3455 2762 
Q 3291 2503 2753 2056 
Q 2475 1825 2408 1684 
Q 2341 1544 2347 1181 
z
M 1550 0 
L 1550 878 
L 2428 878 
L 2428 0 
L 1550 0 
z
" transform="scale(0.015625)"/>
     </defs>
     <use xlink:href="#Arial-BoldMT-32"/>
     <use xlink:href="#Arial-BoldMT-2e" x="55.615234"/>
     <use xlink:href="#Arial-BoldMT-34" x="83.398438"/>
     <use xlink:href="#Arial-BoldMT-20" x="139.013672"/>
     <use xlink:href="#Arial-BoldMT-bf" x="166.796875"/>
     <use xlink:href="#Arial-BoldMT-4c" x="227.880859"/>
     <use xlink:href="#Arial-BoldMT-65" x="288.964844"/>
     <use xlink:href="#Arial-BoldMT-20" x="344.580078"/>
     <use xlink:href="#Arial-BoldMT-64" x="372.363281"/>
     <use xlink:href="#Arial-BoldMT-69" x="433.447266"/>
     <use xlink:href="#Arial-BoldMT-65" x="461.230469"/>
     <use xlink:href="#Arial-BoldMT-72" x="516.845703"/>
     <use xlink:href="#Arial-BoldMT-6f" x="555.761719"/>
     <use xlink:href="#Arial-BoldMT-6e" x="616.845703"/>
     <use xlink:href="#Arial-BoldMT-20" x="677.929688"/>
     <use xlink:href="#Arial-BoldMT-72" x="705.712891"/>
     <use xlink:href="#Arial-BoldMT-65" x="744.628906"/>
     <use xlink:href="#Arial-BoldMT-63" x="800.244141"/>
     <use xlink:href="#Arial-BoldMT-6f" x="855.859375"/>
     <use xlink:href="#Arial-BoldMT-6d" x="916.943359"/>
     <use xlink:href="#Arial-BoldMT-65" x="1005.859375"/>
     <use xlink:href="#Arial-BoldMT-6e" x="1061.474609"/>
     <use xlink:href="#Arial-BoldMT-64" x="1122.558594"/>
     <use xlink:href="#Arial-BoldMT-61" x="1183.642578"/>
     <use xlink:href="#Arial-BoldMT-63" x="1239.257812"/>
     <use xlink:href="#Arial-BoldMT-69" x="1294.873047"/>
     <use xlink:href="#Arial-BoldMT-6f" x="1322.65625"/>
     <use xlink:href="#Arial-BoldMT-6e" x="1383.740234"/>
     <use xlink:href="#Arial-BoldMT-65" x="1444.824219"/>
     <use xlink:href="#Arial-BoldMT-73" x="1500.439453"/>
     <use xlink:href="#Arial-BoldMT-20" x="1556.054688"/>
     <use xlink:href="#Arial-BoldMT-73" x="1583.837891"/>
     <use xlink:href="#Arial-BoldMT-6f" x="1639.453125"/>
     <use xlink:href="#Arial-BoldMT-62" x="1700.537109"/>
     <use xlink:href="#Arial-BoldMT-72" x="1761.621094"/>
     <use xlink:href="#Arial-BoldMT-65" x="1800.537109"/>
     <use xlink:href="#Arial-BoldMT-20" x="1856.152344"/>
     <use xlink:href="#Arial-BoldMT-70" x="1883.935547"/>
     <use xlink:href="#Arial-BoldMT-72" x="1945.019531"/>
     <use xlink:href="#Arial-BoldMT-6f" x="1983.935547"/>
     <use xlink:href="#Arial-BoldMT-6d" x="2045.019531"/>
     <use xlink:href="#Arial-BoldMT-6f" x="2133.935547"/>
     <use xlink:href="#Arial-BoldMT-63" x="2195.019531"/>
     <use xlink:href="#Arial-BoldMT-69" x="2250.634766"/>
     <use xlink:href="#Arial-BoldMT-f3" x="2278.417969"/>
     <use xlink:href="#Arial-BoldMT-6e" x="2339.501953"/>
     <use xlink:href="#Arial-BoldMT-20" x="2400.585938"/>
     <use xlink:href="#Arial-BoldMT-64" x="2428.369141"/>
     <use xlink:href="#Arial-BoldMT-65" x="2489.453125"/>
     <use xlink:href="#Arial-BoldMT-6c" x="2545.068359"/>
     <use xlink:href="#Arial-BoldMT-20" x="2572.851562"/>
     <use xlink:href="#Arial-BoldMT-61" x="2600.634766"/>
     <use xlink:href="#Arial-BoldMT-75" x="2656.25"/>
     <use xlink:href="#Arial-BoldMT-74" x="2717.333984"/>
     <use xlink:href="#Arial-BoldMT-6f" x="2750.634766"/>
     <use xlink:href="#Arial-BoldMT-63" x="2811.71875"/>
     <use xlink:href="#Arial-BoldMT-75" x="2867.333984"/>
     <use xlink:href="#Arial-BoldMT-69" x="2928.417969"/>
     <use xlink:href="#Arial-BoldMT-64" x="2956.201172"/>
     <use xlink:href="#Arial-BoldMT-61" x="3017.285156"/>
     <use xlink:href="#Arial-BoldMT-64" x="3072.900391"/>
     <use xlink:href="#Arial-BoldMT-6f" x="3133.984375"/>
     <use xlink:href="#Arial-BoldMT-2c" x="3195.068359"/>
     <use xlink:href="#Arial-BoldMT-20" x="3222.851562"/>
     <use xlink:href="#Arial-BoldMT-70" x="3250.634766"/>
     <use xlink:href="#Arial-BoldMT-6f" x="3311.71875"/>
     <use xlink:href="#Arial-BoldMT-72" x="3372.802734"/>
     <use xlink:href="#Arial-BoldMT-20" x="3411.71875"/>
     <use xlink:href="#Arial-BoldMT-65" x="3439.501953"/>
     <use xlink:href="#Arial-BoldMT-6a" x="3495.117188"/>
     <use xlink:href="#Arial-BoldMT-65" x="3522.900391"/>
     <use xlink:href="#Arial-BoldMT-6d" x="3578.515625"/>
     <use xlink:href="#Arial-BoldMT-70" x="3667.431641"/>
     <use xlink:href="#Arial-BoldMT-6c" x="3728.515625"/>
     <use xlink:href="#Arial-BoldMT-6f" x="3756.298828"/>
     <use xlink:href="#Arial-BoldMT-2c" x="3817.382812"/>
     <use xlink:href="#Arial-BoldMT-20" x="3845.166016"/>
     <use xlink:href="#Arial-BoldMT-61" x="3872.949219"/>
     <use xlink:href="#Arial-BoldMT-63" x="3928.564453"/>
     <use xlink:href="#Arial-BoldMT-74" x="3984.179688"/>
     <use xlink:href="#Arial-BoldMT-69" x="4017.480469"/>
     <use xlink:href="#Arial-BoldMT-76" x="4045.263672"/>
     <use xlink:href="#Arial-BoldMT-61" x="4100.878906"/>
     <use xlink:href="#Arial-BoldMT-63" x="4156.494141"/>
     <use xlink:href="#Arial-BoldMT-69" x="4212.109375"/>
     <use xlink:href="#Arial-BoldMT-f3" x="4239.892578"/>
     <use xlink:href="#Arial-BoldMT-6e" x="4300.976562"/>
     <use xlink:href="#Arial-BoldMT-20" x="4362.060547"/>
     <use xlink:href="#Arial-BoldMT-66" x="4389.84375"/>
     <use xlink:href="#Arial-BoldMT-ed" x="4423.144531"/>
     <use xlink:href="#Arial-BoldMT-73" x="4450.927734"/>
     <use xlink:href="#Arial-BoldMT-69" x="4506.542969"/>
     <use xlink:href="#Arial-BoldMT-63" x="4534.326172"/>
     <use xlink:href="#Arial-BoldMT-61" x="4589.941406"/>
     <use xlink:href="#Arial-BoldMT-2c" x="4645.556641"/>
     <use xlink:href="#Arial-BoldMT-20" x="4673.339844"/>
     <use xlink:href="#Arial-BoldMT-61" x="4701.123047"/>
     <use xlink:href="#Arial-BoldMT-6c" x="4756.738281"/>
     <use xlink:href="#Arial-BoldMT-69" x="4784.521484"/>
     <use xlink:href="#Arial-BoldMT-6d" x="4812.304688"/>
     <use xlink:href="#Arial-BoldMT-65" x="4901.220703"/>
     <use xlink:href="#Arial-BoldMT-6e" x="4956.835938"/>
     <use xlink:href="#Arial-BoldMT-74" x="5017.919922"/>
     <use xlink:href="#Arial-BoldMT-61" x="5051.220703"/>
     <use xlink:href="#Arial-BoldMT-63" x="5106.835938"/>
     <use xlink:href="#Arial-BoldMT-69" x="5162.451172"/>
     <use xlink:href="#Arial-BoldMT-f3" x="5190.234375"/>
     <use xlink:href="#Arial-BoldMT-6e" x="5251.318359"/>
     <use xlink:href="#Arial-BoldMT-20" x="5312.402344"/>
     <use xlink:href="#Arial-BoldMT-73" x="5340.185547"/>
     <use xlink:href="#Arial-BoldMT-61" x="5395.800781"/>
     <use xlink:href="#Arial-BoldMT-6c" x="5451.416016"/>
     <use xlink:href="#Arial-BoldMT-75" x="5479.199219"/>
     <use xlink:href="#Arial-BoldMT-64" x="5540.283203"/>
     <use xlink:href="#Arial-BoldMT-61" x="5601.367188"/>
     <use xlink:href="#Arial-BoldMT-62" x="5656.982422"/>
     <use xlink:href="#Arial-BoldMT-6c" x="5718.066406"/>
     <use xlink:href="#Arial-BoldMT-65" x="5745.849609"/>
     <use xlink:href="#Arial-BoldMT-2c" x="5801.464844"/>
     <use xlink:href="#Arial-BoldMT-20" x="5829.248047"/>
     <use xlink:href="#Arial-BoldMT-68" x="5857.03125"/>
     <use xlink:href="#Arial-BoldMT-69" x="5918.115234"/>
     <use xlink:href="#Arial-BoldMT-67" x="5945.898438"/>
     <use xlink:href="#Arial-BoldMT-69" x="6006.982422"/>
     <use xlink:href="#Arial-BoldMT-65" x="6034.765625"/>
     <use xlink:href="#Arial-BoldMT-6e" x="6090.380859"/>
     <use xlink:href="#Arial-BoldMT-65" x="6151.464844"/>
     <use xlink:href="#Arial-BoldMT-20" x="6207.080078"/>
     <use xlink:href="#Arial-BoldMT-64" x="6234.863281"/>
     <use xlink:href="#Arial-BoldMT-65" x="6295.947266"/>
     <use xlink:href="#Arial-BoldMT-6c" x="6351.5625"/>
     <use xlink:href="#Arial-BoldMT-20" x="6379.345703"/>
     <use xlink:href="#Arial-BoldMT-73" x="6407.128906"/>
     <use xlink:href="#Arial-BoldMT-75" x="6462.744141"/>
     <use xlink:href="#Arial-BoldMT-65" x="6523.828125"/>
     <use xlink:href="#Arial-BoldMT-f1" x="6579.443359"/>
     <use xlink:href="#Arial-BoldMT-6f" x="6640.527344"/>
     <use xlink:href="#Arial-BoldMT-2c" x="6701.611328"/>
     <use xlink:href="#Arial-BoldMT-20" x="6729.394531"/>
     <use xlink:href="#Arial-BoldMT-6d" x="6757.177734"/>
     <use xlink:href="#Arial-BoldMT-61" x="6846.09375"/>
     <use xlink:href="#Arial-BoldMT-6e" x="6901.708984"/>
     <use xlink:href="#Arial-BoldMT-65" x="6962.792969"/>
     <use xlink:href="#Arial-BoldMT-6a" x="7018.408203"/>
     <use xlink:href="#Arial-BoldMT-6f" x="7046.191406"/>
     <use xlink:href="#Arial-BoldMT-20" x="7107.275391"/>
     <use xlink:href="#Arial-BoldMT-64" x="7135.058594"/>
     <use xlink:href="#Arial-BoldMT-65" x="7196.142578"/>
     <use xlink:href="#Arial-BoldMT-20" x="7251.757812"/>
     <use xlink:href="#Arial-BoldMT-65" x="7279.541016"/>
     <use xlink:href="#Arial-BoldMT-73" x="7335.15625"/>
     <use xlink:href="#Arial-BoldMT-74" x="7390.771484"/>
     <use xlink:href="#Arial-BoldMT-72" x="7424.072266"/>
     <use xlink:href="#Arial-BoldMT-e9" x="7462.988281"/>
     <use xlink:href="#Arial-BoldMT-73" x="7518.603516"/>
     <use xlink:href="#Arial-BoldMT-3f" x="7574.21875"/>
    </g>
    <!--  -->
    <g style="fill: #262626" transform="translate(221.4 45.84) scale(0.16 -0.16)"/>
   </g>
  </g>
 </g>
 <defs>
  <clipPath id="p082311b794">
   <rect x="54" y="51.84" width="334.8" height="332.64"/>
  </clipPath>
 </defs>
</svg>
