<?xml version="1.0" encoding="utf-8" standalone="no"?>
<!DOCTYPE svg PUBLIC "-//W3C//DTD SVG 1.1//EN"
  "http://www.w3.org/Graphics/SVG/1.1/DTD/svg11.dtd">
<svg xmlns:xlink="http://www.w3.org/1999/xlink" width="864pt" height="432pt" viewBox="0 0 864 432" xmlns="http://www.w3.org/2000/svg" version="1.1">
 <metadata>
  <rdf:RDF xmlns:dc="http://purl.org/dc/elements/1.1/" xmlns:cc="http://creativecommons.org/ns#" xmlns:rdf="http://www.w3.org/1999/02/22-rdf-syntax-ns#">
   <cc:Work>
    <dc:type rdf:resource="http://purl.org/dc/dcmitype/StillImage"/>
    <dc:date>2025-03-03T22:47:25.724449</dc:date>
    <dc:format>image/svg+xml</dc:format>
    <dc:creator>
     <cc:Agent>
      <dc:title>Matplotlib v3.8.4, https://matplotlib.org/</dc:title>
     </cc:Agent>
    </dc:creator>
   </cc:Work>
  </rdf:RDF>
 </metadata>
 <defs>
  <style type="text/css">*{stroke-linejoin: round; stroke-linecap: butt}</style>
 </defs>
 <g id="figure_1">
  <g id="patch_1">
   <path d="M 0 432 
L 864 432 
L 864 0 
L 0 0 
z
" style="fill: #ffffff"/>
  </g>
  <g id="axes_1">
   <g id="patch_2">
    <path d="M 108 384.48 
L 777.6 384.48 
L 777.6 51.84 
L 108 51.84 
z
" style="fill: #ffffff"/>
   </g>
   <g id="matplotlib.axis_1">
    <g id="xtick_1">
     <g id="line2d_1">
      <path d="M 173.464612 384.48 
L 173.464612 51.84 
" clip-path="url(#pd5a60808c4)" style="fill: none; stroke-dasharray: 2.96,1.28; stroke-dashoffset: 0; stroke: #b0b0b0; stroke-opacity: 0.5; stroke-width: 0.8"/>
     </g>
     <g id="line2d_2">
      <defs>
       <path id="m4a157d8881" d="M 0 0 
L 0 3.5 
" style="stroke: #000000; stroke-width: 0.8"/>
      </defs>
      <g>
       <use xlink:href="#m4a157d8881" x="173.464612" y="384.48" style="stroke: #000000; stroke-width: 0.8"/>
      </g>
     </g>
     <g id="text_1">
      <!-- 2012 -->
      <g transform="translate(160.739612 399.078438) scale(0.1 -0.1)">
       <defs>
        <path id="DejaVuSans-32" d="M 1228 531 
L 3431 531 
L 3431 0 
L 469 0 
L 469 531 
Q 828 903 1448 1529 
Q 2069 2156 2228 2338 
Q 2531 2678 2651 2914 
Q 2772 3150 2772 3378 
Q 2772 3750 2511 3984 
Q 2250 4219 1831 4219 
Q 1534 4219 1204 4116 
Q 875 4013 500 3803 
L 500 4441 
Q 881 4594 1212 4672 
Q 1544 4750 1819 4750 
Q 2544 4750 2975 4387 
Q 3406 4025 3406 3419 
Q 3406 3131 3298 2873 
Q 3191 2616 2906 2266 
Q 2828 2175 2409 1742 
Q 1991 1309 1228 531 
z
" transform="scale(0.015625)"/>
        <path id="DejaVuSans-30" d="M 2034 4250 
Q 1547 4250 1301 3770 
Q 1056 3291 1056 2328 
Q 1056 1369 1301 889 
Q 1547 409 2034 409 
Q 2525 409 2770 889 
Q 3016 1369 3016 2328 
Q 3016 3291 2770 3770 
Q 2525 4250 2034 4250 
z
M 2034 4750 
Q 2819 4750 3233 4129 
Q 3647 3509 3647 2328 
Q 3647 1150 3233 529 
Q 2819 -91 2034 -91 
Q 1250 -91 836 529 
Q 422 1150 422 2328 
Q 422 3509 836 4129 
Q 1250 4750 2034 4750 
z
" transform="scale(0.015625)"/>
        <path id="DejaVuSans-31" d="M 794 531 
L 1825 531 
L 1825 4091 
L 703 3866 
L 703 4441 
L 1819 4666 
L 2450 4666 
L 2450 531 
L 3481 531 
L 3481 0 
L 794 0 
L 794 531 
z
" transform="scale(0.015625)"/>
       </defs>
       <use xlink:href="#DejaVuSans-32"/>
       <use xlink:href="#DejaVuSans-30" x="63.623047"/>
       <use xlink:href="#DejaVuSans-31" x="127.246094"/>
       <use xlink:href="#DejaVuSans-32" x="190.869141"/>
      </g>
     </g>
    </g>
    <g id="xtick_2">
     <g id="line2d_3">
      <path d="M 266.576066 384.48 
L 266.576066 51.84 
" clip-path="url(#pd5a60808c4)" style="fill: none; stroke-dasharray: 2.96,1.28; stroke-dashoffset: 0; stroke: #b0b0b0; stroke-opacity: 0.5; stroke-width: 0.8"/>
     </g>
     <g id="line2d_4">
      <g>
       <use xlink:href="#m4a157d8881" x="266.576066" y="384.48" style="stroke: #000000; stroke-width: 0.8"/>
      </g>
     </g>
     <g id="text_2">
      <!-- 2014 -->
      <g transform="translate(253.851066 399.078438) scale(0.1 -0.1)">
       <defs>
        <path id="DejaVuSans-34" d="M 2419 4116 
L 825 1625 
L 2419 1625 
L 2419 4116 
z
M 2253 4666 
L 3047 4666 
L 3047 1625 
L 3713 1625 
L 3713 1100 
L 3047 1100 
L 3047 0 
L 2419 0 
L 2419 1100 
L 313 1100 
L 313 1709 
L 2253 4666 
z
" transform="scale(0.015625)"/>
       </defs>
       <use xlink:href="#DejaVuSans-32"/>
       <use xlink:href="#DejaVuSans-30" x="63.623047"/>
       <use xlink:href="#DejaVuSans-31" x="127.246094"/>
       <use xlink:href="#DejaVuSans-34" x="190.869141"/>
      </g>
     </g>
    </g>
    <g id="xtick_3">
     <g id="line2d_5">
      <path d="M 359.560144 384.48 
L 359.560144 51.84 
" clip-path="url(#pd5a60808c4)" style="fill: none; stroke-dasharray: 2.96,1.28; stroke-dashoffset: 0; stroke: #b0b0b0; stroke-opacity: 0.5; stroke-width: 0.8"/>
     </g>
     <g id="line2d_6">
      <g>
       <use xlink:href="#m4a157d8881" x="359.560144" y="384.48" style="stroke: #000000; stroke-width: 0.8"/>
      </g>
     </g>
     <g id="text_3">
      <!-- 2016 -->
      <g transform="translate(346.835144 399.078438) scale(0.1 -0.1)">
       <defs>
        <path id="DejaVuSans-36" d="M 2113 2584 
Q 1688 2584 1439 2293 
Q 1191 2003 1191 1497 
Q 1191 994 1439 701 
Q 1688 409 2113 409 
Q 2538 409 2786 701 
Q 3034 994 3034 1497 
Q 3034 2003 2786 2293 
Q 2538 2584 2113 2584 
z
M 3366 4563 
L 3366 3988 
Q 3128 4100 2886 4159 
Q 2644 4219 2406 4219 
Q 1781 4219 1451 3797 
Q 1122 3375 1075 2522 
Q 1259 2794 1537 2939 
Q 1816 3084 2150 3084 
Q 2853 3084 3261 2657 
Q 3669 2231 3669 1497 
Q 3669 778 3244 343 
Q 2819 -91 2113 -91 
Q 1303 -91 875 529 
Q 447 1150 447 2328 
Q 447 3434 972 4092 
Q 1497 4750 2381 4750 
Q 2619 4750 2861 4703 
Q 3103 4656 3366 4563 
z
" transform="scale(0.015625)"/>
       </defs>
       <use xlink:href="#DejaVuSans-32"/>
       <use xlink:href="#DejaVuSans-30" x="63.623047"/>
       <use xlink:href="#DejaVuSans-31" x="127.246094"/>
       <use xlink:href="#DejaVuSans-36" x="190.869141"/>
      </g>
     </g>
    </g>
    <g id="xtick_4">
     <g id="line2d_7">
      <path d="M 452.671597 384.48 
L 452.671597 51.84 
" clip-path="url(#pd5a60808c4)" style="fill: none; stroke-dasharray: 2.96,1.28; stroke-dashoffset: 0; stroke: #b0b0b0; stroke-opacity: 0.5; stroke-width: 0.8"/>
     </g>
     <g id="line2d_8">
      <g>
       <use xlink:href="#m4a157d8881" x="452.671597" y="384.48" style="stroke: #000000; stroke-width: 0.8"/>
      </g>
     </g>
     <g id="text_4">
      <!-- 2018 -->
      <g transform="translate(439.946597 399.078438) scale(0.1 -0.1)">
       <defs>
        <path id="DejaVuSans-38" d="M 2034 2216 
Q 1584 2216 1326 1975 
Q 1069 1734 1069 1313 
Q 1069 891 1326 650 
Q 1584 409 2034 409 
Q 2484 409 2743 651 
Q 3003 894 3003 1313 
Q 3003 1734 2745 1975 
Q 2488 2216 2034 2216 
z
M 1403 2484 
Q 997 2584 770 2862 
Q 544 3141 544 3541 
Q 544 4100 942 4425 
Q 1341 4750 2034 4750 
Q 2731 4750 3128 4425 
Q 3525 4100 3525 3541 
Q 3525 3141 3298 2862 
Q 3072 2584 2669 2484 
Q 3125 2378 3379 2068 
Q 3634 1759 3634 1313 
Q 3634 634 3220 271 
Q 2806 -91 2034 -91 
Q 1263 -91 848 271 
Q 434 634 434 1313 
Q 434 1759 690 2068 
Q 947 2378 1403 2484 
z
M 1172 3481 
Q 1172 3119 1398 2916 
Q 1625 2713 2034 2713 
Q 2441 2713 2670 2916 
Q 2900 3119 2900 3481 
Q 2900 3844 2670 4047 
Q 2441 4250 2034 4250 
Q 1625 4250 1398 4047 
Q 1172 3844 1172 3481 
z
" transform="scale(0.015625)"/>
       </defs>
       <use xlink:href="#DejaVuSans-32"/>
       <use xlink:href="#DejaVuSans-30" x="63.623047"/>
       <use xlink:href="#DejaVuSans-31" x="127.246094"/>
       <use xlink:href="#DejaVuSans-38" x="190.869141"/>
      </g>
     </g>
    </g>
    <g id="xtick_5">
     <g id="line2d_9">
      <path d="M 545.655675 384.48 
L 545.655675 51.84 
" clip-path="url(#pd5a60808c4)" style="fill: none; stroke-dasharray: 2.96,1.28; stroke-dashoffset: 0; stroke: #b0b0b0; stroke-opacity: 0.5; stroke-width: 0.8"/>
     </g>
     <g id="line2d_10">
      <g>
       <use xlink:href="#m4a157d8881" x="545.655675" y="384.48" style="stroke: #000000; stroke-width: 0.8"/>
      </g>
     </g>
     <g id="text_5">
      <!-- 2020 -->
      <g transform="translate(532.930675 399.078438) scale(0.1 -0.1)">
       <use xlink:href="#DejaVuSans-32"/>
       <use xlink:href="#DejaVuSans-30" x="63.623047"/>
       <use xlink:href="#DejaVuSans-32" x="127.246094"/>
       <use xlink:href="#DejaVuSans-30" x="190.869141"/>
      </g>
     </g>
    </g>
    <g id="xtick_6">
     <g id="line2d_11">
      <path d="M 638.767129 384.48 
L 638.767129 51.84 
" clip-path="url(#pd5a60808c4)" style="fill: none; stroke-dasharray: 2.96,1.28; stroke-dashoffset: 0; stroke: #b0b0b0; stroke-opacity: 0.5; stroke-width: 0.8"/>
     </g>
     <g id="line2d_12">
      <g>
       <use xlink:href="#m4a157d8881" x="638.767129" y="384.48" style="stroke: #000000; stroke-width: 0.8"/>
      </g>
     </g>
     <g id="text_6">
      <!-- 2022 -->
      <g transform="translate(626.042129 399.078438) scale(0.1 -0.1)">
       <use xlink:href="#DejaVuSans-32"/>
       <use xlink:href="#DejaVuSans-30" x="63.623047"/>
       <use xlink:href="#DejaVuSans-32" x="127.246094"/>
       <use xlink:href="#DejaVuSans-32" x="190.869141"/>
      </g>
     </g>
    </g>
    <g id="xtick_7">
     <g id="line2d_13">
      <path d="M 731.751207 384.48 
L 731.751207 51.84 
" clip-path="url(#pd5a60808c4)" style="fill: none; stroke-dasharray: 2.96,1.28; stroke-dashoffset: 0; stroke: #b0b0b0; stroke-opacity: 0.5; stroke-width: 0.8"/>
     </g>
     <g id="line2d_14">
      <g>
       <use xlink:href="#m4a157d8881" x="731.751207" y="384.48" style="stroke: #000000; stroke-width: 0.8"/>
      </g>
     </g>
     <g id="text_7">
      <!-- 2024 -->
      <g transform="translate(719.026207 399.078438) scale(0.1 -0.1)">
       <use xlink:href="#DejaVuSans-32"/>
       <use xlink:href="#DejaVuSans-30" x="63.623047"/>
       <use xlink:href="#DejaVuSans-32" x="127.246094"/>
       <use xlink:href="#DejaVuSans-34" x="190.869141"/>
      </g>
     </g>
    </g>
   </g>
   <g id="matplotlib.axis_2">
    <g id="ytick_1">
     <g id="line2d_15">
      <path d="M 108 356.194754 
L 777.6 356.194754 
" clip-path="url(#pd5a60808c4)" style="fill: none; stroke-dasharray: 2.96,1.28; stroke-dashoffset: 0; stroke: #b0b0b0; stroke-opacity: 0.5; stroke-width: 0.8"/>
     </g>
     <g id="line2d_16">
      <defs>
       <path id="m5daf743ba2" d="M 0 0 
L -3.5 0 
" style="stroke: #000000; stroke-width: 0.8"/>
      </defs>
      <g>
       <use xlink:href="#m5daf743ba2" x="108" y="356.194754" style="stroke: #000000; stroke-width: 0.8"/>
      </g>
     </g>
     <g id="text_8">
      <!-- 0.2 -->
      <g transform="translate(85.096875 359.993973) scale(0.1 -0.1)">
       <defs>
        <path id="DejaVuSans-2e" d="M 684 794 
L 1344 794 
L 1344 0 
L 684 0 
L 684 794 
z
" transform="scale(0.015625)"/>
       </defs>
       <use xlink:href="#DejaVuSans-30"/>
       <use xlink:href="#DejaVuSans-2e" x="63.623047"/>
       <use xlink:href="#DejaVuSans-32" x="95.410156"/>
      </g>
     </g>
    </g>
    <g id="ytick_2">
     <g id="line2d_17">
      <path d="M 108 316.218665 
L 777.6 316.218665 
" clip-path="url(#pd5a60808c4)" style="fill: none; stroke-dasharray: 2.96,1.28; stroke-dashoffset: 0; stroke: #b0b0b0; stroke-opacity: 0.5; stroke-width: 0.8"/>
     </g>
     <g id="line2d_18">
      <g>
       <use xlink:href="#m5daf743ba2" x="108" y="316.218665" style="stroke: #000000; stroke-width: 0.8"/>
      </g>
     </g>
     <g id="text_9">
      <!-- 0.4 -->
      <g transform="translate(85.096875 320.017884) scale(0.1 -0.1)">
       <use xlink:href="#DejaVuSans-30"/>
       <use xlink:href="#DejaVuSans-2e" x="63.623047"/>
       <use xlink:href="#DejaVuSans-34" x="95.410156"/>
      </g>
     </g>
    </g>
    <g id="ytick_3">
     <g id="line2d_19">
      <path d="M 108 276.242576 
L 777.6 276.242576 
" clip-path="url(#pd5a60808c4)" style="fill: none; stroke-dasharray: 2.96,1.28; stroke-dashoffset: 0; stroke: #b0b0b0; stroke-opacity: 0.5; stroke-width: 0.8"/>
     </g>
     <g id="line2d_20">
      <g>
       <use xlink:href="#m5daf743ba2" x="108" y="276.242576" style="stroke: #000000; stroke-width: 0.8"/>
      </g>
     </g>
     <g id="text_10">
      <!-- 0.6 -->
      <g transform="translate(85.096875 280.041795) scale(0.1 -0.1)">
       <use xlink:href="#DejaVuSans-30"/>
       <use xlink:href="#DejaVuSans-2e" x="63.623047"/>
       <use xlink:href="#DejaVuSans-36" x="95.410156"/>
      </g>
     </g>
    </g>
    <g id="ytick_4">
     <g id="line2d_21">
      <path d="M 108 236.266487 
L 777.6 236.266487 
" clip-path="url(#pd5a60808c4)" style="fill: none; stroke-dasharray: 2.96,1.28; stroke-dashoffset: 0; stroke: #b0b0b0; stroke-opacity: 0.5; stroke-width: 0.8"/>
     </g>
     <g id="line2d_22">
      <g>
       <use xlink:href="#m5daf743ba2" x="108" y="236.266487" style="stroke: #000000; stroke-width: 0.8"/>
      </g>
     </g>
     <g id="text_11">
      <!-- 0.8 -->
      <g transform="translate(85.096875 240.065705) scale(0.1 -0.1)">
       <use xlink:href="#DejaVuSans-30"/>
       <use xlink:href="#DejaVuSans-2e" x="63.623047"/>
       <use xlink:href="#DejaVuSans-38" x="95.410156"/>
      </g>
     </g>
    </g>
    <g id="ytick_5">
     <g id="line2d_23">
      <path d="M 108 196.290397 
L 777.6 196.290397 
" clip-path="url(#pd5a60808c4)" style="fill: none; stroke-dasharray: 2.96,1.28; stroke-dashoffset: 0; stroke: #b0b0b0; stroke-opacity: 0.5; stroke-width: 0.8"/>
     </g>
     <g id="line2d_24">
      <g>
       <use xlink:href="#m5daf743ba2" x="108" y="196.290397" style="stroke: #000000; stroke-width: 0.8"/>
      </g>
     </g>
     <g id="text_12">
      <!-- 1.0 -->
      <g transform="translate(85.096875 200.089616) scale(0.1 -0.1)">
       <use xlink:href="#DejaVuSans-31"/>
       <use xlink:href="#DejaVuSans-2e" x="63.623047"/>
       <use xlink:href="#DejaVuSans-30" x="95.410156"/>
      </g>
     </g>
    </g>
    <g id="ytick_6">
     <g id="line2d_25">
      <path d="M 108 156.314308 
L 777.6 156.314308 
" clip-path="url(#pd5a60808c4)" style="fill: none; stroke-dasharray: 2.96,1.28; stroke-dashoffset: 0; stroke: #b0b0b0; stroke-opacity: 0.5; stroke-width: 0.8"/>
     </g>
     <g id="line2d_26">
      <g>
       <use xlink:href="#m5daf743ba2" x="108" y="156.314308" style="stroke: #000000; stroke-width: 0.8"/>
      </g>
     </g>
     <g id="text_13">
      <!-- 1.2 -->
      <g transform="translate(85.096875 160.113527) scale(0.1 -0.1)">
       <use xlink:href="#DejaVuSans-31"/>
       <use xlink:href="#DejaVuSans-2e" x="63.623047"/>
       <use xlink:href="#DejaVuSans-32" x="95.410156"/>
      </g>
     </g>
    </g>
    <g id="ytick_7">
     <g id="line2d_27">
      <path d="M 108 116.338219 
L 777.6 116.338219 
" clip-path="url(#pd5a60808c4)" style="fill: none; stroke-dasharray: 2.96,1.28; stroke-dashoffset: 0; stroke: #b0b0b0; stroke-opacity: 0.5; stroke-width: 0.8"/>
     </g>
     <g id="line2d_28">
      <g>
       <use xlink:href="#m5daf743ba2" x="108" y="116.338219" style="stroke: #000000; stroke-width: 0.8"/>
      </g>
     </g>
     <g id="text_14">
      <!-- 1.4 -->
      <g transform="translate(85.096875 120.137438) scale(0.1 -0.1)">
       <use xlink:href="#DejaVuSans-31"/>
       <use xlink:href="#DejaVuSans-2e" x="63.623047"/>
       <use xlink:href="#DejaVuSans-34" x="95.410156"/>
      </g>
     </g>
    </g>
    <g id="ytick_8">
     <g id="line2d_29">
      <path d="M 108 76.36213 
L 777.6 76.36213 
" clip-path="url(#pd5a60808c4)" style="fill: none; stroke-dasharray: 2.96,1.28; stroke-dashoffset: 0; stroke: #b0b0b0; stroke-opacity: 0.5; stroke-width: 0.8"/>
     </g>
     <g id="line2d_30">
      <g>
       <use xlink:href="#m5daf743ba2" x="108" y="76.36213" style="stroke: #000000; stroke-width: 0.8"/>
      </g>
     </g>
     <g id="text_15">
      <!-- 1.6 -->
      <g transform="translate(85.096875 80.161348) scale(0.1 -0.1)">
       <use xlink:href="#DejaVuSans-31"/>
       <use xlink:href="#DejaVuSans-2e" x="63.623047"/>
       <use xlink:href="#DejaVuSans-36" x="95.410156"/>
      </g>
     </g>
    </g>
    <g id="text_16">
     <!-- 1e7 -->
     <g transform="translate(108 48.84) scale(0.1 -0.1)">
      <defs>
       <path id="DejaVuSans-65" d="M 3597 1894 
L 3597 1613 
L 953 1613 
Q 991 1019 1311 708 
Q 1631 397 2203 397 
Q 2534 397 2845 478 
Q 3156 559 3463 722 
L 3463 178 
Q 3153 47 2828 -22 
Q 2503 -91 2169 -91 
Q 1331 -91 842 396 
Q 353 884 353 1716 
Q 353 2575 817 3079 
Q 1281 3584 2069 3584 
Q 2775 3584 3186 3129 
Q 3597 2675 3597 1894 
z
M 3022 2063 
Q 3016 2534 2758 2815 
Q 2500 3097 2075 3097 
Q 1594 3097 1305 2825 
Q 1016 2553 972 2059 
L 3022 2063 
z
" transform="scale(0.015625)"/>
       <path id="DejaVuSans-37" d="M 525 4666 
L 3525 4666 
L 3525 4397 
L 1831 0 
L 1172 0 
L 2766 4134 
L 525 4134 
L 525 4666 
z
" transform="scale(0.015625)"/>
      </defs>
      <use xlink:href="#DejaVuSans-31"/>
      <use xlink:href="#DejaVuSans-65" x="63.623047"/>
      <use xlink:href="#DejaVuSans-37" x="125.146484"/>
     </g>
    </g>
   </g>
   <g id="line2d_31">
    <path d="M 138.436364 231.419906 
L 150.02753 232.050648 
L 161.746071 232.268558 
L 177.413251 232.011398 
L 196.646944 231.430059 
L 208.365485 234.747315 
L 220.084027 232.018627 
L 231.547817 231.721905 
L 247.087622 236.163502 
L 254.857524 238.335029 
L 258.806163 226.617491 
L 262.627427 214.899953 
L 266.576066 203.182415 
L 270.524705 192.208932 
L 274.091217 181.235449 
L 278.039856 170.261966 
L 289.631022 169.999982 
L 301.349563 180.643316 
L 313.068105 170.760488 
L 336.123061 171.781897 
L 347.841602 173.59843 
L 359.560144 173.513801 
L 371.15131 171.6763 
L 390.639753 170.617806 
L 394.461017 170.428426 
L 398.409656 160.201457 
L 402.230919 149.974487 
L 406.179558 139.747517 
L 410.128197 141.953864 
L 413.69471 144.160211 
L 417.643349 146.366558 
L 429.234515 153.931913 
L 440.953056 157.418708 
L 444.901695 198.584106 
L 448.722958 239.749503 
L 452.671597 280.914901 
L 464.135388 280.460733 
L 475.726554 279.493352 
L 499.163636 274.038534 
L 503.112275 272.716338 
L 506.678788 271.394143 
L 510.627427 270.071947 
L 522.218593 264.687208 
L 545.655675 259.318858 
L 557.246841 258.628351 
L 568.838007 255.429725 
L 580.556549 251.266215 
L 592.27509 245.815755 
L 596.223729 242.772669 
L 599.790241 239.729582 
L 603.73888 236.686495 
L 615.330046 234.625148 
L 627.048588 234.630245 
L 650.230919 233.520409 
L 661.822085 231.369616 
L 673.540627 227.668409 
L 677.489266 200.050602 
L 681.310529 172.432794 
L 685.259168 144.814986 
L 689.207807 139.450575 
L 692.774319 134.086163 
L 696.722958 128.721752 
L 700.544222 157.663381 
L 704.492861 186.605011 
L 708.314124 215.54664 
L 716.211402 139.780717 
L 720.032666 101.897756 
L 731.751207 88.09743 
L 735.699846 82.79353 
L 739.393734 77.489629 
L 747.163636 66.96 
L 747.163636 66.96 
" clip-path="url(#pd5a60808c4)" style="fill: none; stroke: #a6cee3; stroke-width: 1.5; stroke-linecap: square"/>
   </g>
   <g id="line2d_32">
    <path d="M 138.436364 249.413903 
L 150.02753 249.820839 
L 161.746071 249.373147 
L 177.413251 247.801187 
L 185.055778 247.196949 
L 196.646944 245.270961 
L 208.365485 244.112954 
L 224.032666 241.021249 
L 231.547817 239.465034 
L 247.087622 243.400873 
L 254.857524 245.604461 
L 258.806163 235.028574 
L 262.627427 224.452686 
L 266.576066 213.876799 
L 270.524705 203.794716 
L 274.091217 193.712633 
L 278.039856 183.63055 
L 289.631022 189.200778 
L 301.349563 199.588385 
L 313.068105 194.821956 
L 324.531895 196.799913 
L 336.123061 197.688801 
L 347.841602 199.398418 
L 367.202671 198.742291 
L 371.15131 198.586424 
L 390.639753 195.853192 
L 394.461017 195.318399 
L 406.179558 180.203879 
L 410.128197 181.419692 
L 413.69471 182.635505 
L 417.643349 183.851318 
L 429.234515 188.560121 
L 440.953056 190.411194 
L 444.901695 224.828068 
L 448.722958 259.244943 
L 452.671597 293.661817 
L 464.135388 293.109787 
L 475.726554 293.704452 
L 487.445095 293.753962 
L 499.163636 291.664112 
L 510.627427 288.839361 
L 522.218593 284.587065 
L 533.937134 281.991897 
L 545.655675 278.47682 
L 557.246841 277.097764 
L 568.838007 273.356722 
L 584.505187 266.799911 
L 603.73888 258.217057 
L 615.330046 258.704266 
L 627.048588 259.907846 
L 650.230919 261.136052 
L 661.822085 258.987157 
L 673.540627 254.53522 
L 677.489266 226.779861 
L 681.310529 199.024502 
L 685.259168 171.269143 
L 689.207807 165.76856 
L 692.774319 160.267977 
L 696.722958 154.767393 
L 700.544222 183.382258 
L 704.492861 211.997123 
L 708.314124 240.611988 
L 716.211402 182.711633 
L 720.032666 153.761455 
L 723.981305 141.721996 
L 727.802568 129.682537 
L 731.751207 117.643078 
L 735.699846 112.41312 
L 739.393734 107.183161 
L 743.342373 101.953203 
L 747.163636 93.762342 
L 747.163636 93.762342 
" clip-path="url(#pd5a60808c4)" style="fill: none; stroke: #1f78b4; stroke-width: 1.5; stroke-linecap: square"/>
   </g>
   <g id="line2d_33">
    <path d="M 138.436364 280.140684 
L 150.02753 271.763855 
L 161.746071 267.2744 
L 173.464612 260.999893 
L 185.055778 258.692493 
L 196.646944 255.791788 
L 220.084027 251.473291 
L 224.032666 249.81962 
L 227.599178 248.165949 
L 231.547817 246.512278 
L 243.138983 243.733421 
L 254.857524 237.993834 
L 266.576066 248.169207 
L 278.039856 250.543467 
L 289.631022 252.007352 
L 301.349563 252.625082 
L 317.016744 255.320104 
L 324.531895 256.735883 
L 336.123061 260.573248 
L 347.841602 263.052066 
L 371.15131 263.575852 
L 382.742476 262.615667 
L 394.461017 264.069537 
L 410.128197 265.219716 
L 421.464612 265.860912 
L 429.234515 266.231264 
L 440.953056 266.017492 
L 452.671597 265.249571 
L 464.135388 264.119307 
L 475.726554 264.669638 
L 491.393734 270.57937 
L 499.163636 273.357841 
L 510.627427 275.551369 
L 522.218593 276.395584 
L 537.885773 278.906776 
L 545.655675 280.035247 
L 561.068105 285.561908 
L 568.838007 287.98967 
L 580.556549 294.601375 
L 592.27509 298.398344 
L 615.330046 302.592815 
L 627.048588 297.999463 
L 638.767129 296.208654 
L 650.230919 293.308568 
L 673.540627 287.514174 
L 696.722958 282.134992 
L 716.211402 277.180175 
L 731.751207 272.877409 
L 735.699846 270.141432 
L 739.393734 267.405455 
L 743.342373 264.669478 
L 747.163636 260.700692 
L 747.163636 260.700692 
" clip-path="url(#pd5a60808c4)" style="fill: none; stroke: #b2df8a; stroke-width: 1.5; stroke-linecap: square"/>
   </g>
   <g id="line2d_34">
    <path d="M 138.436364 312.76583 
L 150.02753 306.942414 
L 161.746071 304.317564 
L 173.464612 301.001387 
L 185.055778 300.47752 
L 196.646944 298.585392 
L 208.365485 298.00456 
L 220.084027 295.591163 
L 231.547817 292.11884 
L 247.087622 290.807864 
L 254.857524 289.977841 
L 266.576066 293.160897 
L 278.039856 294.044688 
L 289.631022 293.929837 
L 301.349563 295.855205 
L 317.016744 296.826904 
L 324.531895 297.380893 
L 336.123061 299.787193 
L 347.841602 301.195211 
L 359.560144 300.522853 
L 382.742476 295.716108 
L 394.461017 293.396916 
L 406.179558 292.232572 
L 417.643349 290.442523 
L 429.234515 287.926807 
L 440.953056 286.745254 
L 464.135388 283.786664 
L 475.726554 283.82584 
L 487.445095 286.175215 
L 499.163636 290.025352 
L 510.627427 292.375606 
L 522.218593 293.728637 
L 533.937134 295.843072 
L 545.655675 297.548292 
L 561.068105 302.432325 
L 568.838007 304.597936 
L 580.556549 310.251314 
L 592.27509 313.843866 
L 615.330046 318.121527 
L 627.048588 314.142727 
L 638.767129 312.854577 
L 661.822085 308.526086 
L 685.259168 303.784363 
L 696.722958 301.517358 
L 716.211402 297.487002 
L 727.802568 294.793367 
L 731.751207 293.873211 
L 735.699846 291.534843 
L 739.393734 289.196475 
L 743.342373 286.858107 
L 747.163636 283.452857 
L 747.163636 283.452857 
" clip-path="url(#pd5a60808c4)" style="fill: none; stroke: #33a02c; stroke-width: 1.5; stroke-linecap: square"/>
   </g>
   <g id="line2d_35">
    <path d="M 138.436364 337.580688 
L 150.02753 335.180244 
L 161.746071 336.294877 
L 173.464612 334.660914 
L 185.055778 333.457774 
L 196.646944 333.501348 
L 208.365485 332.932648 
L 220.084027 340.047792 
L 247.087622 340.953604 
L 254.857524 341.059887 
L 270.524705 340.718445 
L 293.579661 339.666187 
L 301.349563 339.247011 
L 313.068105 338.300458 
L 324.531895 339.301479 
L 336.123061 335.898694 
L 351.790241 334.363099 
L 359.560144 333.704546 
L 371.15131 332.125391 
L 382.742476 330.270161 
L 398.409656 328.857839 
L 417.643349 327.565438 
L 444.901695 326.916447 
L 467.956651 326.736088 
L 479.675193 326.43734 
L 487.445095 326.32486 
L 503.112275 325.581965 
L 518.397329 325.249444 
L 522.218593 325.180785 
L 533.937134 323.313861 
L 545.655675 321.871404 
L 557.246841 321.734806 
L 568.838007 322.474443 
L 584.505187 322.313686 
L 592.27509 322.126332 
L 603.73888 321.057451 
L 615.330046 319.145555 
L 630.997227 315.432382 
L 638.767129 313.749202 
L 650.230919 310.498706 
L 661.822085 308.63778 
L 673.540627 307.079012 
L 692.774319 303.81603 
L 696.722958 303.205609 
L 708.314124 302.392575 
L 720.032666 303.714364 
L 731.751207 304.276828 
L 743.342373 304.113765 
L 747.163636 303.635105 
L 747.163636 303.635105 
" clip-path="url(#pd5a60808c4)" style="fill: none; stroke: #fb9a99; stroke-width: 1.5; stroke-linecap: square"/>
   </g>
   <g id="line2d_36">
    <path d="M 138.436364 369.36 
L 150.02753 366.574526 
L 161.746071 360.875075 
L 173.464612 358.05778 
L 177.413251 360.073528 
L 181.107139 362.089275 
L 185.055778 364.105023 
L 196.646944 362.585312 
L 208.365485 360.263781 
L 220.084027 360.31427 
L 231.547817 358.34309 
L 243.138983 358.138692 
L 254.857524 354.946981 
L 266.576066 355.558195 
L 289.631022 353.104743 
L 301.349563 350.144014 
L 317.016744 348.374812 
L 324.531895 347.397516 
L 336.123061 346.345865 
L 347.841602 345.647403 
L 359.560144 344.593274 
L 371.15131 342.563448 
L 382.742476 342.077279 
L 394.461017 339.967001 
L 406.179558 336.171291 
L 417.643349 334.246762 
L 429.234515 333.337606 
L 440.953056 324.491557 
L 452.671597 328.306395 
L 456.620236 325.377307 
L 460.186749 322.448219 
L 464.135388 319.519131 
L 483.623832 314.7332 
L 499.163636 310.702525 
L 503.112275 306.442772 
L 506.678788 302.18302 
L 510.627427 297.923268 
L 522.218593 295.149987 
L 533.937134 314.748545 
L 537.885773 307.189699 
L 541.707036 299.630853 
L 545.655675 292.072008 
L 549.604314 298.771268 
L 553.298202 305.470527 
L 557.246841 312.169787 
L 568.838007 311.039203 
L 580.556549 317.020785 
L 592.27509 321.869765 
L 596.223729 324.125063 
L 599.790241 326.380361 
L 603.73888 328.635658 
L 615.330046 312.938727 
L 627.048588 314.965195 
L 638.767129 321.854794 
L 642.715768 323.145762 
L 646.28228 324.43673 
L 650.230919 325.727698 
L 673.540627 324.607248 
L 685.259168 324.460436 
L 696.722958 324.913645 
L 708.314124 324.141626 
L 720.032666 324.00151 
L 731.751207 324.939389 
L 735.699846 327.153198 
L 739.393734 329.367008 
L 743.342373 331.580817 
L 747.163636 331.45346 
L 747.163636 331.45346 
" clip-path="url(#pd5a60808c4)" style="fill: none; stroke: #e31a1c; stroke-width: 1.5; stroke-linecap: square"/>
   </g>
   <g id="line2d_37">
    <path d="M 138.436364 369.36 
L 150.02753 366.574526 
L 161.746071 360.875075 
L 173.464612 358.05778 
L 177.413251 360.073528 
L 181.107139 362.089275 
L 185.055778 364.105023 
L 196.646944 362.585312 
L 208.365485 360.263781 
L 220.084027 360.31427 
L 231.547817 358.34309 
L 243.138983 358.138692 
L 254.857524 354.946981 
L 266.576066 355.558195 
L 289.631022 353.104923 
L 301.349563 350.144213 
L 317.016744 348.375005 
L 324.531895 347.397696 
L 336.123061 346.346045 
L 347.841602 345.647583 
L 359.560144 344.593454 
L 371.15131 342.563628 
L 382.742476 342.077538 
L 394.461017 339.967261 
L 406.179558 336.171851 
L 417.643349 334.247582 
L 429.234515 333.340204 
L 440.953056 324.496374 
L 452.671597 328.335958 
L 456.620236 325.409714 
L 460.186749 322.483471 
L 464.135388 319.557228 
L 483.623832 314.787075 
L 499.163636 310.769804 
L 503.112275 306.487626 
L 506.678788 302.205447 
L 510.627427 297.923268 
L 522.218593 295.149987 
L 533.937134 314.748545 
L 537.885773 307.189706 
L 541.707036 299.630867 
L 545.655675 292.072028 
L 549.604314 298.966231 
L 553.298202 305.860434 
L 557.246841 312.754637 
L 568.838007 311.459232 
L 580.556549 317.020785 
L 592.27509 321.869765 
L 596.223729 324.125063 
L 599.790241 326.380361 
L 603.73888 328.635658 
L 615.330046 313.584861 
L 627.048588 315.620223 
L 638.767129 322.524114 
L 642.715768 323.832138 
L 646.28228 325.140162 
L 650.230919 326.448187 
L 669.719363 325.541509 
L 673.540627 325.378926 
L 685.259168 325.295736 
L 696.722958 325.732135 
L 708.314124 324.946045 
L 720.032666 324.77147 
L 731.751207 325.549504 
L 735.699846 327.559948 
L 739.393734 329.570393 
L 743.342373 331.580837 
L 747.163636 331.45348 
L 747.163636 331.45348 
" clip-path="url(#pd5a60808c4)" style="fill: none; stroke: #fdbf6f; stroke-width: 1.5; stroke-linecap: square"/>
   </g>
   <g id="line2d_38">
    <path d="M 138.436364 341.836463 
L 150.02753 340.112094 
L 161.746071 341.35629 
L 177.413251 339.617676 
L 185.055778 338.877452 
L 196.646944 338.967858 
L 208.365485 338.48009 
L 220.084027 344.973866 
L 254.857524 346.349783 
L 270.524705 346.391731 
L 285.809759 346.073628 
L 301.349563 345.642946 
L 313.068105 345.005227 
L 324.531895 346.751683 
L 336.123061 344.338386 
L 347.841602 343.812561 
L 359.560144 344.028471 
L 382.742476 345.65294 
L 394.461017 346.758179 
L 413.69471 347.774024 
L 433.183154 348.590789 
L 440.953056 348.716687 
L 456.620236 348.08763 
L 487.445095 346.179945 
L 518.397329 344.96639 
L 522.218593 344.769788 
L 541.707036 342.050381 
L 545.655675 341.547156 
L 557.246841 341.08843 
L 568.838007 341.220191 
L 588.326451 340.10675 
L 592.27509 339.862303 
L 603.73888 338.458543 
L 615.330046 336.085642 
L 630.997227 331.626962 
L 638.767129 329.558187 
L 642.715768 328.21978 
L 646.28228 326.881374 
L 650.230919 325.542968 
L 661.822085 323.668749 
L 673.540627 322.578581 
L 689.207807 320.249401 
L 696.722958 319.03618 
L 708.314124 318.306636 
L 720.032666 319.450372 
L 731.751207 319.963046 
L 743.342373 319.784053 
L 747.163636 319.388383 
L 747.163636 319.388383 
" clip-path="url(#pd5a60808c4)" style="fill: none; stroke: #ff7f00; stroke-width: 1.5; stroke-linecap: square"/>
   </g>
   <g id="patch_3">
    <path d="M 108 384.48 
L 108 51.84 
" style="fill: none; stroke: #000000; stroke-width: 0.8; stroke-linejoin: miter; stroke-linecap: square"/>
   </g>
   <g id="patch_4">
    <path d="M 777.6 384.48 
L 777.6 51.84 
" style="fill: none; stroke: #000000; stroke-width: 0.8; stroke-linejoin: miter; stroke-linecap: square"/>
   </g>
   <g id="patch_5">
    <path d="M 108 384.48 
L 777.6 384.48 
" style="fill: none; stroke: #000000; stroke-width: 0.8; stroke-linejoin: miter; stroke-linecap: square"/>
   </g>
   <g id="patch_6">
    <path d="M 108 51.84 
L 777.6 51.84 
" style="fill: none; stroke: #000000; stroke-width: 0.8; stroke-linejoin: miter; stroke-linecap: square"/>
   </g>
   <g id="text_17">
    <!-- Número de Tarjetas de Crédito Desglosadas (8 Más Usadas) -->
    <g transform="translate(206.973281 45.84) scale(0.14 -0.14)">
     <defs>
      <path id="DejaVuSans-Bold-4e" d="M 588 4666 
L 1931 4666 
L 3628 1466 
L 3628 4666 
L 4769 4666 
L 4769 0 
L 3425 0 
L 1728 3200 
L 1728 0 
L 588 0 
L 588 4666 
z
" transform="scale(0.015625)"/>
      <path id="DejaVuSans-Bold-fa" d="M 500 1363 
L 500 3500 
L 1625 3500 
L 1625 3150 
Q 1625 2866 1622 2436 
Q 1619 2006 1619 1863 
Q 1619 1441 1641 1255 
Q 1663 1069 1716 984 
Q 1784 875 1895 815 
Q 2006 756 2150 756 
Q 2500 756 2700 1025 
Q 2900 1294 2900 1772 
L 2900 3500 
L 4019 3500 
L 4019 0 
L 2900 0 
L 2900 506 
Q 2647 200 2364 54 
Q 2081 -91 1741 -91 
Q 1134 -91 817 281 
Q 500 653 500 1363 
z
M 2782 5119 
L 3666 5119 
L 2513 3944 
L 1901 3944 
L 2782 5119 
z
" transform="scale(0.015625)"/>
      <path id="DejaVuSans-Bold-6d" d="M 3781 2919 
Q 3994 3244 4286 3414 
Q 4578 3584 4928 3584 
Q 5531 3584 5847 3212 
Q 6163 2841 6163 2131 
L 6163 0 
L 5038 0 
L 5038 1825 
Q 5041 1866 5042 1909 
Q 5044 1953 5044 2034 
Q 5044 2406 4934 2573 
Q 4825 2741 4581 2741 
Q 4263 2741 4089 2478 
Q 3916 2216 3909 1719 
L 3909 0 
L 2784 0 
L 2784 1825 
Q 2784 2406 2684 2573 
Q 2584 2741 2328 2741 
Q 2006 2741 1831 2477 
Q 1656 2213 1656 1722 
L 1656 0 
L 531 0 
L 531 3500 
L 1656 3500 
L 1656 2988 
Q 1863 3284 2130 3434 
Q 2397 3584 2719 3584 
Q 3081 3584 3359 3409 
Q 3638 3234 3781 2919 
z
" transform="scale(0.015625)"/>
      <path id="DejaVuSans-Bold-65" d="M 4031 1759 
L 4031 1441 
L 1416 1441 
Q 1456 1047 1700 850 
Q 1944 653 2381 653 
Q 2734 653 3104 758 
Q 3475 863 3866 1075 
L 3866 213 
Q 3469 63 3072 -14 
Q 2675 -91 2278 -91 
Q 1328 -91 801 392 
Q 275 875 275 1747 
Q 275 2603 792 3093 
Q 1309 3584 2216 3584 
Q 3041 3584 3536 3087 
Q 4031 2591 4031 1759 
z
M 2881 2131 
Q 2881 2450 2695 2645 
Q 2509 2841 2209 2841 
Q 1884 2841 1681 2658 
Q 1478 2475 1428 2131 
L 2881 2131 
z
" transform="scale(0.015625)"/>
      <path id="DejaVuSans-Bold-72" d="M 3138 2547 
Q 2991 2616 2845 2648 
Q 2700 2681 2553 2681 
Q 2122 2681 1889 2404 
Q 1656 2128 1656 1613 
L 1656 0 
L 538 0 
L 538 3500 
L 1656 3500 
L 1656 2925 
Q 1872 3269 2151 3426 
Q 2431 3584 2822 3584 
Q 2878 3584 2943 3579 
Q 3009 3575 3134 3559 
L 3138 2547 
z
" transform="scale(0.015625)"/>
      <path id="DejaVuSans-Bold-6f" d="M 2203 2784 
Q 1831 2784 1636 2517 
Q 1441 2250 1441 1747 
Q 1441 1244 1636 976 
Q 1831 709 2203 709 
Q 2569 709 2762 976 
Q 2956 1244 2956 1747 
Q 2956 2250 2762 2517 
Q 2569 2784 2203 2784 
z
M 2203 3584 
Q 3106 3584 3614 3096 
Q 4122 2609 4122 1747 
Q 4122 884 3614 396 
Q 3106 -91 2203 -91 
Q 1297 -91 786 396 
Q 275 884 275 1747 
Q 275 2609 786 3096 
Q 1297 3584 2203 3584 
z
" transform="scale(0.015625)"/>
      <path id="DejaVuSans-Bold-20" transform="scale(0.015625)"/>
      <path id="DejaVuSans-Bold-64" d="M 2919 2988 
L 2919 4863 
L 4044 4863 
L 4044 0 
L 2919 0 
L 2919 506 
Q 2688 197 2409 53 
Q 2131 -91 1766 -91 
Q 1119 -91 703 423 
Q 288 938 288 1747 
Q 288 2556 703 3070 
Q 1119 3584 1766 3584 
Q 2128 3584 2408 3439 
Q 2688 3294 2919 2988 
z
M 2181 722 
Q 2541 722 2730 984 
Q 2919 1247 2919 1747 
Q 2919 2247 2730 2509 
Q 2541 2772 2181 2772 
Q 1825 2772 1636 2509 
Q 1447 2247 1447 1747 
Q 1447 1247 1636 984 
Q 1825 722 2181 722 
z
" transform="scale(0.015625)"/>
      <path id="DejaVuSans-Bold-54" d="M 31 4666 
L 4331 4666 
L 4331 3756 
L 2784 3756 
L 2784 0 
L 1581 0 
L 1581 3756 
L 31 3756 
L 31 4666 
z
" transform="scale(0.015625)"/>
      <path id="DejaVuSans-Bold-61" d="M 2106 1575 
Q 1756 1575 1579 1456 
Q 1403 1338 1403 1106 
Q 1403 894 1545 773 
Q 1688 653 1941 653 
Q 2256 653 2472 879 
Q 2688 1106 2688 1447 
L 2688 1575 
L 2106 1575 
z
M 3816 1997 
L 3816 0 
L 2688 0 
L 2688 519 
Q 2463 200 2181 54 
Q 1900 -91 1497 -91 
Q 953 -91 614 226 
Q 275 544 275 1050 
Q 275 1666 698 1953 
Q 1122 2241 2028 2241 
L 2688 2241 
L 2688 2328 
Q 2688 2594 2478 2717 
Q 2269 2841 1825 2841 
Q 1466 2841 1156 2769 
Q 847 2697 581 2553 
L 581 3406 
Q 941 3494 1303 3539 
Q 1666 3584 2028 3584 
Q 2975 3584 3395 3211 
Q 3816 2838 3816 1997 
z
" transform="scale(0.015625)"/>
      <path id="DejaVuSans-Bold-6a" d="M 538 3500 
L 1656 3500 
L 1656 63 
Q 1656 -641 1318 -1011 
Q 981 -1381 341 -1381 
L -213 -1381 
L -213 -647 
L -19 -647 
Q 300 -647 419 -503 
Q 538 -359 538 63 
L 538 3500 
z
M 538 4863 
L 1656 4863 
L 1656 3950 
L 538 3950 
L 538 4863 
z
" transform="scale(0.015625)"/>
      <path id="DejaVuSans-Bold-74" d="M 1759 4494 
L 1759 3500 
L 2913 3500 
L 2913 2700 
L 1759 2700 
L 1759 1216 
Q 1759 972 1856 886 
Q 1953 800 2241 800 
L 2816 800 
L 2816 0 
L 1856 0 
Q 1194 0 917 276 
Q 641 553 641 1216 
L 641 2700 
L 84 2700 
L 84 3500 
L 641 3500 
L 641 4494 
L 1759 4494 
z
" transform="scale(0.015625)"/>
      <path id="DejaVuSans-Bold-73" d="M 3272 3391 
L 3272 2541 
Q 2913 2691 2578 2766 
Q 2244 2841 1947 2841 
Q 1628 2841 1473 2761 
Q 1319 2681 1319 2516 
Q 1319 2381 1436 2309 
Q 1553 2238 1856 2203 
L 2053 2175 
Q 2913 2066 3209 1816 
Q 3506 1566 3506 1031 
Q 3506 472 3093 190 
Q 2681 -91 1863 -91 
Q 1516 -91 1145 -36 
Q 775 19 384 128 
L 384 978 
Q 719 816 1070 734 
Q 1422 653 1784 653 
Q 2113 653 2278 743 
Q 2444 834 2444 1013 
Q 2444 1163 2330 1236 
Q 2216 1309 1875 1350 
L 1678 1375 
Q 931 1469 631 1722 
Q 331 1975 331 2491 
Q 331 3047 712 3315 
Q 1094 3584 1881 3584 
Q 2191 3584 2531 3537 
Q 2872 3491 3272 3391 
z
" transform="scale(0.015625)"/>
      <path id="DejaVuSans-Bold-43" d="M 4288 256 
Q 3956 84 3597 -3 
Q 3238 -91 2847 -91 
Q 1681 -91 1000 561 
Q 319 1213 319 2328 
Q 319 3447 1000 4098 
Q 1681 4750 2847 4750 
Q 3238 4750 3597 4662 
Q 3956 4575 4288 4403 
L 4288 3438 
Q 3953 3666 3628 3772 
Q 3303 3878 2944 3878 
Q 2300 3878 1931 3465 
Q 1563 3053 1563 2328 
Q 1563 1606 1931 1193 
Q 2300 781 2944 781 
Q 3303 781 3628 887 
Q 3953 994 4288 1222 
L 4288 256 
z
" transform="scale(0.015625)"/>
      <path id="DejaVuSans-Bold-e9" d="M 4031 1759 
L 4031 1441 
L 1416 1441 
Q 1456 1047 1700 850 
Q 1944 653 2381 653 
Q 2734 653 3104 758 
Q 3475 863 3866 1075 
L 3866 213 
Q 3469 63 3072 -14 
Q 2675 -91 2278 -91 
Q 1328 -91 801 392 
Q 275 875 275 1747 
Q 275 2603 792 3093 
Q 1309 3584 2216 3584 
Q 3041 3584 3536 3087 
Q 4031 2591 4031 1759 
z
M 2881 2131 
Q 2881 2450 2695 2645 
Q 2509 2841 2209 2841 
Q 1884 2841 1681 2658 
Q 1478 2475 1428 2131 
L 2881 2131 
z
M 2702 5119 
L 3586 5119 
L 2433 3944 
L 1821 3944 
L 2702 5119 
z
" transform="scale(0.015625)"/>
      <path id="DejaVuSans-Bold-69" d="M 538 3500 
L 1656 3500 
L 1656 0 
L 538 0 
L 538 3500 
z
M 538 4863 
L 1656 4863 
L 1656 3950 
L 538 3950 
L 538 4863 
z
" transform="scale(0.015625)"/>
      <path id="DejaVuSans-Bold-44" d="M 1791 3756 
L 1791 909 
L 2222 909 
Q 2959 909 3348 1275 
Q 3738 1641 3738 2338 
Q 3738 3031 3350 3393 
Q 2963 3756 2222 3756 
L 1791 3756 
z
M 588 4666 
L 1856 4666 
Q 2919 4666 3439 4514 
Q 3959 4363 4331 4000 
Q 4659 3684 4818 3271 
Q 4978 2859 4978 2338 
Q 4978 1809 4818 1395 
Q 4659 981 4331 666 
Q 3956 303 3431 151 
Q 2906 0 1856 0 
L 588 0 
L 588 4666 
z
" transform="scale(0.015625)"/>
      <path id="DejaVuSans-Bold-67" d="M 2919 594 
Q 2688 288 2409 144 
Q 2131 0 1766 0 
Q 1125 0 706 504 
Q 288 1009 288 1791 
Q 288 2575 706 3076 
Q 1125 3578 1766 3578 
Q 2131 3578 2409 3434 
Q 2688 3291 2919 2981 
L 2919 3500 
L 4044 3500 
L 4044 353 
Q 4044 -491 3511 -936 
Q 2978 -1381 1966 -1381 
Q 1638 -1381 1331 -1331 
Q 1025 -1281 716 -1178 
L 716 -306 
Q 1009 -475 1290 -558 
Q 1572 -641 1856 -641 
Q 2406 -641 2662 -400 
Q 2919 -159 2919 353 
L 2919 594 
z
M 2181 2772 
Q 1834 2772 1640 2515 
Q 1447 2259 1447 1791 
Q 1447 1309 1634 1061 
Q 1822 813 2181 813 
Q 2531 813 2725 1069 
Q 2919 1325 2919 1791 
Q 2919 2259 2725 2515 
Q 2531 2772 2181 2772 
z
" transform="scale(0.015625)"/>
      <path id="DejaVuSans-Bold-6c" d="M 538 4863 
L 1656 4863 
L 1656 0 
L 538 0 
L 538 4863 
z
" transform="scale(0.015625)"/>
      <path id="DejaVuSans-Bold-28" d="M 2413 -844 
L 1484 -844 
Q 1006 -72 778 623 
Q 550 1319 550 2003 
Q 550 2688 779 3389 
Q 1009 4091 1484 4856 
L 2413 4856 
Q 2013 4116 1813 3408 
Q 1613 2700 1613 2009 
Q 1613 1319 1811 609 
Q 2009 -100 2413 -844 
z
" transform="scale(0.015625)"/>
      <path id="DejaVuSans-Bold-38" d="M 2228 2088 
Q 1891 2088 1709 1903 
Q 1528 1719 1528 1375 
Q 1528 1031 1709 848 
Q 1891 666 2228 666 
Q 2563 666 2741 848 
Q 2919 1031 2919 1375 
Q 2919 1722 2741 1905 
Q 2563 2088 2228 2088 
z
M 1350 2484 
Q 925 2613 709 2878 
Q 494 3144 494 3541 
Q 494 4131 934 4440 
Q 1375 4750 2228 4750 
Q 3075 4750 3515 4442 
Q 3956 4134 3956 3541 
Q 3956 3144 3739 2878 
Q 3522 2613 3097 2484 
Q 3572 2353 3814 2058 
Q 4056 1763 4056 1313 
Q 4056 619 3595 264 
Q 3134 -91 2228 -91 
Q 1319 -91 855 264 
Q 391 619 391 1313 
Q 391 1763 633 2058 
Q 875 2353 1350 2484 
z
M 1631 3419 
Q 1631 3141 1786 2991 
Q 1941 2841 2228 2841 
Q 2509 2841 2662 2991 
Q 2816 3141 2816 3419 
Q 2816 3697 2662 3845 
Q 2509 3994 2228 3994 
Q 1941 3994 1786 3844 
Q 1631 3694 1631 3419 
z
" transform="scale(0.015625)"/>
      <path id="DejaVuSans-Bold-4d" d="M 588 4666 
L 2119 4666 
L 3181 2169 
L 4250 4666 
L 5778 4666 
L 5778 0 
L 4641 0 
L 4641 3413 
L 3566 897 
L 2803 897 
L 1728 3413 
L 1728 0 
L 588 0 
L 588 4666 
z
" transform="scale(0.015625)"/>
      <path id="DejaVuSans-Bold-e1" d="M 2106 1575 
Q 1756 1575 1579 1456 
Q 1403 1338 1403 1106 
Q 1403 894 1545 773 
Q 1688 653 1941 653 
Q 2256 653 2472 879 
Q 2688 1106 2688 1447 
L 2688 1575 
L 2106 1575 
z
M 3816 1997 
L 3816 0 
L 2688 0 
L 2688 519 
Q 2463 200 2181 54 
Q 1900 -91 1497 -91 
Q 953 -91 614 226 
Q 275 544 275 1050 
Q 275 1666 698 1953 
Q 1122 2241 2028 2241 
L 2688 2241 
L 2688 2328 
Q 2688 2594 2478 2717 
Q 2269 2841 1825 2841 
Q 1466 2841 1156 2769 
Q 847 2697 581 2553 
L 581 3406 
Q 941 3494 1303 3539 
Q 1666 3584 2028 3584 
Q 2975 3584 3395 3211 
Q 3816 2838 3816 1997 
z
M 2606 5119 
L 3490 5119 
L 2337 3944 
L 1725 3944 
L 2606 5119 
z
" transform="scale(0.015625)"/>
      <path id="DejaVuSans-Bold-55" d="M 588 4666 
L 1791 4666 
L 1791 1869 
Q 1791 1291 1980 1042 
Q 2169 794 2597 794 
Q 3028 794 3217 1042 
Q 3406 1291 3406 1869 
L 3406 4666 
L 4609 4666 
L 4609 1869 
Q 4609 878 4112 393 
Q 3616 -91 2597 -91 
Q 1581 -91 1084 393 
Q 588 878 588 1869 
L 588 4666 
z
" transform="scale(0.015625)"/>
      <path id="DejaVuSans-Bold-29" d="M 513 -844 
Q 913 -100 1113 609 
Q 1313 1319 1313 2009 
Q 1313 2700 1113 3408 
Q 913 4116 513 4856 
L 1441 4856 
Q 1916 4091 2145 3389 
Q 2375 2688 2375 2003 
Q 2375 1319 2147 623 
Q 1919 -72 1441 -844 
L 513 -844 
z
" transform="scale(0.015625)"/>
     </defs>
     <use xlink:href="#DejaVuSans-Bold-4e"/>
     <use xlink:href="#DejaVuSans-Bold-fa" x="83.691406"/>
     <use xlink:href="#DejaVuSans-Bold-6d" x="154.882812"/>
     <use xlink:href="#DejaVuSans-Bold-65" x="259.082031"/>
     <use xlink:href="#DejaVuSans-Bold-72" x="326.904297"/>
     <use xlink:href="#DejaVuSans-Bold-6f" x="376.220703"/>
     <use xlink:href="#DejaVuSans-Bold-20" x="444.921875"/>
     <use xlink:href="#DejaVuSans-Bold-64" x="479.736328"/>
     <use xlink:href="#DejaVuSans-Bold-65" x="551.318359"/>
     <use xlink:href="#DejaVuSans-Bold-20" x="619.140625"/>
     <use xlink:href="#DejaVuSans-Bold-54" x="653.955078"/>
     <use xlink:href="#DejaVuSans-Bold-61" x="709.292969"/>
     <use xlink:href="#DejaVuSans-Bold-72" x="776.773438"/>
     <use xlink:href="#DejaVuSans-Bold-6a" x="826.089844"/>
     <use xlink:href="#DejaVuSans-Bold-65" x="860.367188"/>
     <use xlink:href="#DejaVuSans-Bold-74" x="928.189453"/>
     <use xlink:href="#DejaVuSans-Bold-61" x="975.992188"/>
     <use xlink:href="#DejaVuSans-Bold-73" x="1043.472656"/>
     <use xlink:href="#DejaVuSans-Bold-20" x="1102.994141"/>
     <use xlink:href="#DejaVuSans-Bold-64" x="1137.808594"/>
     <use xlink:href="#DejaVuSans-Bold-65" x="1209.390625"/>
     <use xlink:href="#DejaVuSans-Bold-20" x="1277.212891"/>
     <use xlink:href="#DejaVuSans-Bold-43" x="1312.027344"/>
     <use xlink:href="#DejaVuSans-Bold-72" x="1385.416016"/>
     <use xlink:href="#DejaVuSans-Bold-e9" x="1434.732422"/>
     <use xlink:href="#DejaVuSans-Bold-64" x="1502.554688"/>
     <use xlink:href="#DejaVuSans-Bold-69" x="1574.136719"/>
     <use xlink:href="#DejaVuSans-Bold-74" x="1608.414062"/>
     <use xlink:href="#DejaVuSans-Bold-6f" x="1656.216797"/>
     <use xlink:href="#DejaVuSans-Bold-20" x="1724.917969"/>
     <use xlink:href="#DejaVuSans-Bold-44" x="1759.732422"/>
     <use xlink:href="#DejaVuSans-Bold-65" x="1842.740234"/>
     <use xlink:href="#DejaVuSans-Bold-73" x="1910.5625"/>
     <use xlink:href="#DejaVuSans-Bold-67" x="1970.083984"/>
     <use xlink:href="#DejaVuSans-Bold-6c" x="2041.666016"/>
     <use xlink:href="#DejaVuSans-Bold-6f" x="2075.943359"/>
     <use xlink:href="#DejaVuSans-Bold-73" x="2144.644531"/>
     <use xlink:href="#DejaVuSans-Bold-61" x="2204.166016"/>
     <use xlink:href="#DejaVuSans-Bold-64" x="2271.646484"/>
     <use xlink:href="#DejaVuSans-Bold-61" x="2343.228516"/>
     <use xlink:href="#DejaVuSans-Bold-73" x="2410.708984"/>
     <use xlink:href="#DejaVuSans-Bold-20" x="2470.230469"/>
     <use xlink:href="#DejaVuSans-Bold-28" x="2505.044922"/>
     <use xlink:href="#DejaVuSans-Bold-38" x="2550.748047"/>
     <use xlink:href="#DejaVuSans-Bold-20" x="2620.328125"/>
     <use xlink:href="#DejaVuSans-Bold-4d" x="2655.142578"/>
     <use xlink:href="#DejaVuSans-Bold-e1" x="2754.654297"/>
     <use xlink:href="#DejaVuSans-Bold-73" x="2822.134766"/>
     <use xlink:href="#DejaVuSans-Bold-20" x="2881.65625"/>
     <use xlink:href="#DejaVuSans-Bold-55" x="2916.470703"/>
     <use xlink:href="#DejaVuSans-Bold-73" x="2997.671875"/>
     <use xlink:href="#DejaVuSans-Bold-61" x="3057.193359"/>
     <use xlink:href="#DejaVuSans-Bold-64" x="3124.673828"/>
     <use xlink:href="#DejaVuSans-Bold-61" x="3196.255859"/>
     <use xlink:href="#DejaVuSans-Bold-73" x="3263.736328"/>
     <use xlink:href="#DejaVuSans-Bold-29" x="3323.257812"/>
    </g>
   </g>
   <g id="legend_1">
    <g id="patch_7">
     <path d="M 113.6 152.18 
L 224.5175 152.18 
Q 226.1175 152.18 226.1175 150.58 
L 226.1175 57.44 
Q 226.1175 55.84 224.5175 55.84 
L 113.6 55.84 
Q 112 55.84 112 57.44 
L 112 150.58 
Q 112 152.18 113.6 152.18 
z
" style="fill: #ffffff; opacity: 0.8; stroke: #cccccc; stroke-linejoin: miter"/>
    </g>
    <g id="line2d_39">
     <path d="M 115.2 62.31875 
L 123.2 62.31875 
L 131.2 62.31875 
" style="fill: none; stroke: #a6cee3; stroke-width: 1.5; stroke-linecap: square"/>
    </g>
    <g id="text_18">
     <!--  (todas las marcas) D -->
     <g transform="translate(137.6 65.11875) scale(0.08 -0.08)">
      <defs>
       <path id="DejaVuSans-20" transform="scale(0.015625)"/>
       <path id="DejaVuSans-28" d="M 1984 4856 
Q 1566 4138 1362 3434 
Q 1159 2731 1159 2009 
Q 1159 1288 1364 580 
Q 1569 -128 1984 -844 
L 1484 -844 
Q 1016 -109 783 600 
Q 550 1309 550 2009 
Q 550 2706 781 3412 
Q 1013 4119 1484 4856 
L 1984 4856 
z
" transform="scale(0.015625)"/>
       <path id="DejaVuSans-74" d="M 1172 4494 
L 1172 3500 
L 2356 3500 
L 2356 3053 
L 1172 3053 
L 1172 1153 
Q 1172 725 1289 603 
Q 1406 481 1766 481 
L 2356 481 
L 2356 0 
L 1766 0 
Q 1100 0 847 248 
Q 594 497 594 1153 
L 594 3053 
L 172 3053 
L 172 3500 
L 594 3500 
L 594 4494 
L 1172 4494 
z
" transform="scale(0.015625)"/>
       <path id="DejaVuSans-6f" d="M 1959 3097 
Q 1497 3097 1228 2736 
Q 959 2375 959 1747 
Q 959 1119 1226 758 
Q 1494 397 1959 397 
Q 2419 397 2687 759 
Q 2956 1122 2956 1747 
Q 2956 2369 2687 2733 
Q 2419 3097 1959 3097 
z
M 1959 3584 
Q 2709 3584 3137 3096 
Q 3566 2609 3566 1747 
Q 3566 888 3137 398 
Q 2709 -91 1959 -91 
Q 1206 -91 779 398 
Q 353 888 353 1747 
Q 353 2609 779 3096 
Q 1206 3584 1959 3584 
z
" transform="scale(0.015625)"/>
       <path id="DejaVuSans-64" d="M 2906 2969 
L 2906 4863 
L 3481 4863 
L 3481 0 
L 2906 0 
L 2906 525 
Q 2725 213 2448 61 
Q 2172 -91 1784 -91 
Q 1150 -91 751 415 
Q 353 922 353 1747 
Q 353 2572 751 3078 
Q 1150 3584 1784 3584 
Q 2172 3584 2448 3432 
Q 2725 3281 2906 2969 
z
M 947 1747 
Q 947 1113 1208 752 
Q 1469 391 1925 391 
Q 2381 391 2643 752 
Q 2906 1113 2906 1747 
Q 2906 2381 2643 2742 
Q 2381 3103 1925 3103 
Q 1469 3103 1208 2742 
Q 947 2381 947 1747 
z
" transform="scale(0.015625)"/>
       <path id="DejaVuSans-61" d="M 2194 1759 
Q 1497 1759 1228 1600 
Q 959 1441 959 1056 
Q 959 750 1161 570 
Q 1363 391 1709 391 
Q 2188 391 2477 730 
Q 2766 1069 2766 1631 
L 2766 1759 
L 2194 1759 
z
M 3341 1997 
L 3341 0 
L 2766 0 
L 2766 531 
Q 2569 213 2275 61 
Q 1981 -91 1556 -91 
Q 1019 -91 701 211 
Q 384 513 384 1019 
Q 384 1609 779 1909 
Q 1175 2209 1959 2209 
L 2766 2209 
L 2766 2266 
Q 2766 2663 2505 2880 
Q 2244 3097 1772 3097 
Q 1472 3097 1187 3025 
Q 903 2953 641 2809 
L 641 3341 
Q 956 3463 1253 3523 
Q 1550 3584 1831 3584 
Q 2591 3584 2966 3190 
Q 3341 2797 3341 1997 
z
" transform="scale(0.015625)"/>
       <path id="DejaVuSans-73" d="M 2834 3397 
L 2834 2853 
Q 2591 2978 2328 3040 
Q 2066 3103 1784 3103 
Q 1356 3103 1142 2972 
Q 928 2841 928 2578 
Q 928 2378 1081 2264 
Q 1234 2150 1697 2047 
L 1894 2003 
Q 2506 1872 2764 1633 
Q 3022 1394 3022 966 
Q 3022 478 2636 193 
Q 2250 -91 1575 -91 
Q 1294 -91 989 -36 
Q 684 19 347 128 
L 347 722 
Q 666 556 975 473 
Q 1284 391 1588 391 
Q 1994 391 2212 530 
Q 2431 669 2431 922 
Q 2431 1156 2273 1281 
Q 2116 1406 1581 1522 
L 1381 1569 
Q 847 1681 609 1914 
Q 372 2147 372 2553 
Q 372 3047 722 3315 
Q 1072 3584 1716 3584 
Q 2034 3584 2315 3537 
Q 2597 3491 2834 3397 
z
" transform="scale(0.015625)"/>
       <path id="DejaVuSans-6c" d="M 603 4863 
L 1178 4863 
L 1178 0 
L 603 0 
L 603 4863 
z
" transform="scale(0.015625)"/>
       <path id="DejaVuSans-6d" d="M 3328 2828 
Q 3544 3216 3844 3400 
Q 4144 3584 4550 3584 
Q 5097 3584 5394 3201 
Q 5691 2819 5691 2113 
L 5691 0 
L 5113 0 
L 5113 2094 
Q 5113 2597 4934 2840 
Q 4756 3084 4391 3084 
Q 3944 3084 3684 2787 
Q 3425 2491 3425 1978 
L 3425 0 
L 2847 0 
L 2847 2094 
Q 2847 2600 2669 2842 
Q 2491 3084 2119 3084 
Q 1678 3084 1418 2786 
Q 1159 2488 1159 1978 
L 1159 0 
L 581 0 
L 581 3500 
L 1159 3500 
L 1159 2956 
Q 1356 3278 1631 3431 
Q 1906 3584 2284 3584 
Q 2666 3584 2933 3390 
Q 3200 3197 3328 2828 
z
" transform="scale(0.015625)"/>
       <path id="DejaVuSans-72" d="M 2631 2963 
Q 2534 3019 2420 3045 
Q 2306 3072 2169 3072 
Q 1681 3072 1420 2755 
Q 1159 2438 1159 1844 
L 1159 0 
L 581 0 
L 581 3500 
L 1159 3500 
L 1159 2956 
Q 1341 3275 1631 3429 
Q 1922 3584 2338 3584 
Q 2397 3584 2469 3576 
Q 2541 3569 2628 3553 
L 2631 2963 
z
" transform="scale(0.015625)"/>
       <path id="DejaVuSans-63" d="M 3122 3366 
L 3122 2828 
Q 2878 2963 2633 3030 
Q 2388 3097 2138 3097 
Q 1578 3097 1268 2742 
Q 959 2388 959 1747 
Q 959 1106 1268 751 
Q 1578 397 2138 397 
Q 2388 397 2633 464 
Q 2878 531 3122 666 
L 3122 134 
Q 2881 22 2623 -34 
Q 2366 -91 2075 -91 
Q 1284 -91 818 406 
Q 353 903 353 1747 
Q 353 2603 823 3093 
Q 1294 3584 2113 3584 
Q 2378 3584 2631 3529 
Q 2884 3475 3122 3366 
z
" transform="scale(0.015625)"/>
       <path id="DejaVuSans-29" d="M 513 4856 
L 1013 4856 
Q 1481 4119 1714 3412 
Q 1947 2706 1947 2009 
Q 1947 1309 1714 600 
Q 1481 -109 1013 -844 
L 513 -844 
Q 928 -128 1133 580 
Q 1338 1288 1338 2009 
Q 1338 2731 1133 3434 
Q 928 4138 513 4856 
z
" transform="scale(0.015625)"/>
       <path id="DejaVuSans-44" d="M 1259 4147 
L 1259 519 
L 2022 519 
Q 2988 519 3436 956 
Q 3884 1394 3884 2338 
Q 3884 3275 3436 3711 
Q 2988 4147 2022 4147 
L 1259 4147 
z
M 628 4666 
L 1925 4666 
Q 3281 4666 3915 4102 
Q 4550 3538 4550 2338 
Q 4550 1131 3912 565 
Q 3275 0 1925 0 
L 628 0 
L 628 4666 
z
" transform="scale(0.015625)"/>
      </defs>
      <use xlink:href="#DejaVuSans-20"/>
      <use xlink:href="#DejaVuSans-28" x="31.787109"/>
      <use xlink:href="#DejaVuSans-74" x="70.800781"/>
      <use xlink:href="#DejaVuSans-6f" x="110.009766"/>
      <use xlink:href="#DejaVuSans-64" x="171.191406"/>
      <use xlink:href="#DejaVuSans-61" x="234.667969"/>
      <use xlink:href="#DejaVuSans-73" x="295.947266"/>
      <use xlink:href="#DejaVuSans-20" x="348.046875"/>
      <use xlink:href="#DejaVuSans-6c" x="379.833984"/>
      <use xlink:href="#DejaVuSans-61" x="407.617188"/>
      <use xlink:href="#DejaVuSans-73" x="468.896484"/>
      <use xlink:href="#DejaVuSans-20" x="520.996094"/>
      <use xlink:href="#DejaVuSans-6d" x="552.783203"/>
      <use xlink:href="#DejaVuSans-61" x="650.195312"/>
      <use xlink:href="#DejaVuSans-72" x="711.474609"/>
      <use xlink:href="#DejaVuSans-63" x="750.337891"/>
      <use xlink:href="#DejaVuSans-61" x="805.318359"/>
      <use xlink:href="#DejaVuSans-73" x="866.597656"/>
      <use xlink:href="#DejaVuSans-29" x="918.697266"/>
      <use xlink:href="#DejaVuSans-20" x="957.710938"/>
      <use xlink:href="#DejaVuSans-44" x="989.498047"/>
     </g>
    </g>
    <g id="line2d_40">
     <path d="M 115.2 74.06125 
L 123.2 74.06125 
L 131.2 74.06125 
" style="fill: none; stroke: #1f78b4; stroke-width: 1.5; stroke-linecap: square"/>
    </g>
    <g id="text_19">
     <!--  (visa) D -->
     <g transform="translate(137.6 76.86125) scale(0.08 -0.08)">
      <defs>
       <path id="DejaVuSans-76" d="M 191 3500 
L 800 3500 
L 1894 563 
L 2988 3500 
L 3597 3500 
L 2284 0 
L 1503 0 
L 191 3500 
z
" transform="scale(0.015625)"/>
       <path id="DejaVuSans-69" d="M 603 3500 
L 1178 3500 
L 1178 0 
L 603 0 
L 603 3500 
z
M 603 4863 
L 1178 4863 
L 1178 4134 
L 603 4134 
L 603 4863 
z
" transform="scale(0.015625)"/>
      </defs>
      <use xlink:href="#DejaVuSans-20"/>
      <use xlink:href="#DejaVuSans-28" x="31.787109"/>
      <use xlink:href="#DejaVuSans-76" x="70.800781"/>
      <use xlink:href="#DejaVuSans-69" x="129.980469"/>
      <use xlink:href="#DejaVuSans-73" x="157.763672"/>
      <use xlink:href="#DejaVuSans-61" x="209.863281"/>
      <use xlink:href="#DejaVuSans-29" x="271.142578"/>
      <use xlink:href="#DejaVuSans-20" x="310.15625"/>
      <use xlink:href="#DejaVuSans-44" x="341.943359"/>
     </g>
    </g>
    <g id="line2d_41">
     <path d="M 115.2 85.80375 
L 123.2 85.80375 
L 131.2 85.80375 
" style="fill: none; stroke: #b2df8a; stroke-width: 1.5; stroke-linecap: square"/>
    </g>
    <g id="text_20">
     <!--  (todas las marcas) C -->
     <g transform="translate(137.6 88.60375) scale(0.08 -0.08)">
      <defs>
       <path id="DejaVuSans-43" d="M 4122 4306 
L 4122 3641 
Q 3803 3938 3442 4084 
Q 3081 4231 2675 4231 
Q 1875 4231 1450 3742 
Q 1025 3253 1025 2328 
Q 1025 1406 1450 917 
Q 1875 428 2675 428 
Q 3081 428 3442 575 
Q 3803 722 4122 1019 
L 4122 359 
Q 3791 134 3420 21 
Q 3050 -91 2638 -91 
Q 1578 -91 968 557 
Q 359 1206 359 2328 
Q 359 3453 968 4101 
Q 1578 4750 2638 4750 
Q 3056 4750 3426 4639 
Q 3797 4528 4122 4306 
z
" transform="scale(0.015625)"/>
      </defs>
      <use xlink:href="#DejaVuSans-20"/>
      <use xlink:href="#DejaVuSans-28" x="31.787109"/>
      <use xlink:href="#DejaVuSans-74" x="70.800781"/>
      <use xlink:href="#DejaVuSans-6f" x="110.009766"/>
      <use xlink:href="#DejaVuSans-64" x="171.191406"/>
      <use xlink:href="#DejaVuSans-61" x="234.667969"/>
      <use xlink:href="#DejaVuSans-73" x="295.947266"/>
      <use xlink:href="#DejaVuSans-20" x="348.046875"/>
      <use xlink:href="#DejaVuSans-6c" x="379.833984"/>
      <use xlink:href="#DejaVuSans-61" x="407.617188"/>
      <use xlink:href="#DejaVuSans-73" x="468.896484"/>
      <use xlink:href="#DejaVuSans-20" x="520.996094"/>
      <use xlink:href="#DejaVuSans-6d" x="552.783203"/>
      <use xlink:href="#DejaVuSans-61" x="650.195312"/>
      <use xlink:href="#DejaVuSans-72" x="711.474609"/>
      <use xlink:href="#DejaVuSans-63" x="750.337891"/>
      <use xlink:href="#DejaVuSans-61" x="805.318359"/>
      <use xlink:href="#DejaVuSans-73" x="866.597656"/>
      <use xlink:href="#DejaVuSans-29" x="918.697266"/>
      <use xlink:href="#DejaVuSans-20" x="957.710938"/>
      <use xlink:href="#DejaVuSans-43" x="989.498047"/>
     </g>
    </g>
    <g id="line2d_42">
     <path d="M 115.2 97.54625 
L 123.2 97.54625 
L 131.2 97.54625 
" style="fill: none; stroke: #33a02c; stroke-width: 1.5; stroke-linecap: square"/>
    </g>
    <g id="text_21">
     <!--  (mastercard) C -->
     <g transform="translate(137.6 100.34625) scale(0.08 -0.08)">
      <use xlink:href="#DejaVuSans-20"/>
      <use xlink:href="#DejaVuSans-28" x="31.787109"/>
      <use xlink:href="#DejaVuSans-6d" x="70.800781"/>
      <use xlink:href="#DejaVuSans-61" x="168.212891"/>
      <use xlink:href="#DejaVuSans-73" x="229.492188"/>
      <use xlink:href="#DejaVuSans-74" x="281.591797"/>
      <use xlink:href="#DejaVuSans-65" x="320.800781"/>
      <use xlink:href="#DejaVuSans-72" x="382.324219"/>
      <use xlink:href="#DejaVuSans-63" x="421.1875"/>
      <use xlink:href="#DejaVuSans-61" x="476.167969"/>
      <use xlink:href="#DejaVuSans-72" x="537.447266"/>
      <use xlink:href="#DejaVuSans-64" x="576.810547"/>
      <use xlink:href="#DejaVuSans-29" x="640.287109"/>
      <use xlink:href="#DejaVuSans-20" x="679.300781"/>
      <use xlink:href="#DejaVuSans-43" x="711.087891"/>
     </g>
    </g>
    <g id="line2d_43">
     <path d="M 115.2 109.28875 
L 123.2 109.28875 
L 131.2 109.28875 
" style="fill: none; stroke: #fb9a99; stroke-width: 1.5; stroke-linecap: square"/>
    </g>
    <g id="text_22">
     <!--  (todas las marcas) E -->
     <g transform="translate(137.6 112.08875) scale(0.08 -0.08)">
      <defs>
       <path id="DejaVuSans-45" d="M 628 4666 
L 3578 4666 
L 3578 4134 
L 1259 4134 
L 1259 2753 
L 3481 2753 
L 3481 2222 
L 1259 2222 
L 1259 531 
L 3634 531 
L 3634 0 
L 628 0 
L 628 4666 
z
" transform="scale(0.015625)"/>
      </defs>
      <use xlink:href="#DejaVuSans-20"/>
      <use xlink:href="#DejaVuSans-28" x="31.787109"/>
      <use xlink:href="#DejaVuSans-74" x="70.800781"/>
      <use xlink:href="#DejaVuSans-6f" x="110.009766"/>
      <use xlink:href="#DejaVuSans-64" x="171.191406"/>
      <use xlink:href="#DejaVuSans-61" x="234.667969"/>
      <use xlink:href="#DejaVuSans-73" x="295.947266"/>
      <use xlink:href="#DejaVuSans-20" x="348.046875"/>
      <use xlink:href="#DejaVuSans-6c" x="379.833984"/>
      <use xlink:href="#DejaVuSans-61" x="407.617188"/>
      <use xlink:href="#DejaVuSans-73" x="468.896484"/>
      <use xlink:href="#DejaVuSans-20" x="520.996094"/>
      <use xlink:href="#DejaVuSans-6d" x="552.783203"/>
      <use xlink:href="#DejaVuSans-61" x="650.195312"/>
      <use xlink:href="#DejaVuSans-72" x="711.474609"/>
      <use xlink:href="#DejaVuSans-63" x="750.337891"/>
      <use xlink:href="#DejaVuSans-61" x="805.318359"/>
      <use xlink:href="#DejaVuSans-73" x="866.597656"/>
      <use xlink:href="#DejaVuSans-29" x="918.697266"/>
      <use xlink:href="#DejaVuSans-20" x="957.710938"/>
      <use xlink:href="#DejaVuSans-45" x="989.498047"/>
     </g>
    </g>
    <g id="line2d_44">
     <path d="M 115.2 121.03125 
L 123.2 121.03125 
L 131.2 121.03125 
" style="fill: none; stroke: #e31a1c; stroke-width: 1.5; stroke-linecap: square"/>
    </g>
    <g id="text_23">
     <!--  (todas las marcas) U -->
     <g transform="translate(137.6 123.83125) scale(0.08 -0.08)">
      <defs>
       <path id="DejaVuSans-55" d="M 556 4666 
L 1191 4666 
L 1191 1831 
Q 1191 1081 1462 751 
Q 1734 422 2344 422 
Q 2950 422 3222 751 
Q 3494 1081 3494 1831 
L 3494 4666 
L 4128 4666 
L 4128 1753 
Q 4128 841 3676 375 
Q 3225 -91 2344 -91 
Q 1459 -91 1007 375 
Q 556 841 556 1753 
L 556 4666 
z
" transform="scale(0.015625)"/>
      </defs>
      <use xlink:href="#DejaVuSans-20"/>
      <use xlink:href="#DejaVuSans-28" x="31.787109"/>
      <use xlink:href="#DejaVuSans-74" x="70.800781"/>
      <use xlink:href="#DejaVuSans-6f" x="110.009766"/>
      <use xlink:href="#DejaVuSans-64" x="171.191406"/>
      <use xlink:href="#DejaVuSans-61" x="234.667969"/>
      <use xlink:href="#DejaVuSans-73" x="295.947266"/>
      <use xlink:href="#DejaVuSans-20" x="348.046875"/>
      <use xlink:href="#DejaVuSans-6c" x="379.833984"/>
      <use xlink:href="#DejaVuSans-61" x="407.617188"/>
      <use xlink:href="#DejaVuSans-73" x="468.896484"/>
      <use xlink:href="#DejaVuSans-20" x="520.996094"/>
      <use xlink:href="#DejaVuSans-6d" x="552.783203"/>
      <use xlink:href="#DejaVuSans-61" x="650.195312"/>
      <use xlink:href="#DejaVuSans-72" x="711.474609"/>
      <use xlink:href="#DejaVuSans-63" x="750.337891"/>
      <use xlink:href="#DejaVuSans-61" x="805.318359"/>
      <use xlink:href="#DejaVuSans-73" x="866.597656"/>
      <use xlink:href="#DejaVuSans-29" x="918.697266"/>
      <use xlink:href="#DejaVuSans-20" x="957.710938"/>
      <use xlink:href="#DejaVuSans-55" x="989.498047"/>
     </g>
    </g>
    <g id="line2d_45">
     <path d="M 115.2 132.77375 
L 123.2 132.77375 
L 131.2 132.77375 
" style="fill: none; stroke: #fdbf6f; stroke-width: 1.5; stroke-linecap: square"/>
    </g>
    <g id="text_24">
     <!--  (visa) U -->
     <g transform="translate(137.6 135.57375) scale(0.08 -0.08)">
      <use xlink:href="#DejaVuSans-20"/>
      <use xlink:href="#DejaVuSans-28" x="31.787109"/>
      <use xlink:href="#DejaVuSans-76" x="70.800781"/>
      <use xlink:href="#DejaVuSans-69" x="129.980469"/>
      <use xlink:href="#DejaVuSans-73" x="157.763672"/>
      <use xlink:href="#DejaVuSans-61" x="209.863281"/>
      <use xlink:href="#DejaVuSans-29" x="271.142578"/>
      <use xlink:href="#DejaVuSans-20" x="310.15625"/>
      <use xlink:href="#DejaVuSans-55" x="341.943359"/>
     </g>
    </g>
    <g id="line2d_46">
     <path d="M 115.2 144.51625 
L 123.2 144.51625 
L 131.2 144.51625 
" style="fill: none; stroke: #ff7f00; stroke-width: 1.5; stroke-linecap: square"/>
    </g>
    <g id="text_25">
     <!--  (mastercard) E -->
     <g transform="translate(137.6 147.31625) scale(0.08 -0.08)">
      <use xlink:href="#DejaVuSans-20"/>
      <use xlink:href="#DejaVuSans-28" x="31.787109"/>
      <use xlink:href="#DejaVuSans-6d" x="70.800781"/>
      <use xlink:href="#DejaVuSans-61" x="168.212891"/>
      <use xlink:href="#DejaVuSans-73" x="229.492188"/>
      <use xlink:href="#DejaVuSans-74" x="281.591797"/>
      <use xlink:href="#DejaVuSans-65" x="320.800781"/>
      <use xlink:href="#DejaVuSans-72" x="382.324219"/>
      <use xlink:href="#DejaVuSans-63" x="421.1875"/>
      <use xlink:href="#DejaVuSans-61" x="476.167969"/>
      <use xlink:href="#DejaVuSans-72" x="537.447266"/>
      <use xlink:href="#DejaVuSans-64" x="576.810547"/>
      <use xlink:href="#DejaVuSans-29" x="640.287109"/>
      <use xlink:href="#DejaVuSans-20" x="679.300781"/>
      <use xlink:href="#DejaVuSans-45" x="711.087891"/>
     </g>
    </g>
   </g>
  </g>
 </g>
 <defs>
  <clipPath id="pd5a60808c4">
   <rect x="108" y="51.84" width="669.6" height="332.64"/>
  </clipPath>
 </defs>
</svg>
