<?xml version="1.0" encoding="utf-8" standalone="no"?>
<!DOCTYPE svg PUBLIC "-//W3C//DTD SVG 1.1//EN"
  "http://www.w3.org/Graphics/SVG/1.1/DTD/svg11.dtd">
<svg xmlns:xlink="http://www.w3.org/1999/xlink" width="1067.0125pt" height="406.576125pt" viewBox="0 0 1067.0125 406.576125" xmlns="http://www.w3.org/2000/svg" version="1.1">
 <metadata>
  <rdf:RDF xmlns:dc="http://purl.org/dc/elements/1.1/" xmlns:cc="http://creativecommons.org/ns#" xmlns:rdf="http://www.w3.org/1999/02/22-rdf-syntax-ns#">
   <cc:Work>
    <dc:type rdf:resource="http://purl.org/dc/dcmitype/StillImage"/>
    <dc:date>2025-03-18T21:53:23.225713</dc:date>
    <dc:format>image/svg+xml</dc:format>
    <dc:creator>
     <cc:Agent>
      <dc:title>Matplotlib v3.10.0, https://matplotlib.org/</dc:title>
     </cc:Agent>
    </dc:creator>
   </cc:Work>
  </rdf:RDF>
 </metadata>
 <defs>
  <style type="text/css">*{stroke-linejoin: round; stroke-linecap: butt}</style>
 </defs>
 <g id="figure_1">
  <g id="patch_1">
   <path d="M -0 406.576125 
L 1067.0125 406.576125 
L 1067.0125 0 
L -0 0 
z
" style="fill: #ffffff"/>
  </g>
  <g id="axes_1">
   <g id="patch_2">
    <path d="M 366.10625 374.598 
L 700.90625 374.598 
L 700.90625 41.958 
L 366.10625 41.958 
z
" style="fill: #ffffff"/>
   </g>
   <g id="matplotlib.axis_1">
    <g id="xtick_1">
     <g id="line2d_1">
      <path d="M 466.54625 374.598 
L 466.54625 41.958 
" clip-path="url(#pbe18acef8b)" style="fill: none; stroke-dasharray: 2.96,1.28; stroke-dashoffset: 0; stroke: #cccccc; stroke-opacity: 0; stroke-width: 0.8"/>
     </g>
     <g id="text_1">
      <!-- NO. -->
      <g style="fill: #262626" transform="translate(469.131406 399.376125) rotate(-90) scale(0.1 -0.1)">
       <defs>
        <path id="ArialMT-4e" d="M 488 0 
L 488 4581 
L 1109 4581 
L 3516 984 
L 3516 4581 
L 4097 4581 
L 4097 0 
L 3475 0 
L 1069 3600 
L 1069 0 
L 488 0 
z
" transform="scale(0.015625)"/>
        <path id="ArialMT-4f" d="M 309 2231 
Q 309 3372 921 4017 
Q 1534 4663 2503 4663 
Q 3138 4663 3647 4359 
Q 4156 4056 4423 3514 
Q 4691 2972 4691 2284 
Q 4691 1588 4409 1038 
Q 4128 488 3612 205 
Q 3097 -78 2500 -78 
Q 1853 -78 1343 234 
Q 834 547 571 1087 
Q 309 1628 309 2231 
z
M 934 2222 
Q 934 1394 1379 917 
Q 1825 441 2497 441 
Q 3181 441 3623 922 
Q 4066 1403 4066 2288 
Q 4066 2847 3877 3264 
Q 3688 3681 3323 3911 
Q 2959 4141 2506 4141 
Q 1863 4141 1398 3698 
Q 934 3256 934 2222 
z
" transform="scale(0.015625)"/>
        <path id="ArialMT-2e" d="M 581 0 
L 581 641 
L 1222 641 
L 1222 0 
L 581 0 
z
" transform="scale(0.015625)"/>
       </defs>
       <use xlink:href="#ArialMT-4e"/>
       <use xlink:href="#ArialMT-4f" transform="translate(72.216797 0)"/>
       <use xlink:href="#ArialMT-2e" transform="translate(150 0)"/>
      </g>
     </g>
    </g>
    <g id="xtick_2">
     <g id="line2d_2">
      <path d="M 600.46625 374.598 
L 600.46625 41.958 
" clip-path="url(#pbe18acef8b)" style="fill: none; stroke-dasharray: 2.96,1.28; stroke-dashoffset: 0; stroke: #cccccc; stroke-opacity: 0; stroke-width: 0.8"/>
     </g>
     <g id="text_2">
      <!-- SI. -->
      <g style="fill: #262626" transform="translate(603.051406 393.824562) rotate(-90) scale(0.1 -0.1)">
       <defs>
        <path id="ArialMT-53" d="M 288 1472 
L 859 1522 
Q 900 1178 1048 958 
Q 1197 738 1509 602 
Q 1822 466 2213 466 
Q 2559 466 2825 569 
Q 3091 672 3220 851 
Q 3350 1031 3350 1244 
Q 3350 1459 3225 1620 
Q 3100 1781 2813 1891 
Q 2628 1963 1997 2114 
Q 1366 2266 1113 2400 
Q 784 2572 623 2826 
Q 463 3081 463 3397 
Q 463 3744 659 4045 
Q 856 4347 1234 4503 
Q 1613 4659 2075 4659 
Q 2584 4659 2973 4495 
Q 3363 4331 3572 4012 
Q 3781 3694 3797 3291 
L 3216 3247 
Q 3169 3681 2898 3903 
Q 2628 4125 2100 4125 
Q 1550 4125 1298 3923 
Q 1047 3722 1047 3438 
Q 1047 3191 1225 3031 
Q 1400 2872 2139 2705 
Q 2878 2538 3153 2413 
Q 3553 2228 3743 1945 
Q 3934 1663 3934 1294 
Q 3934 928 3725 604 
Q 3516 281 3123 101 
Q 2731 -78 2241 -78 
Q 1619 -78 1198 103 
Q 778 284 539 648 
Q 300 1013 288 1472 
z
" transform="scale(0.015625)"/>
        <path id="ArialMT-49" d="M 597 0 
L 597 4581 
L 1203 4581 
L 1203 0 
L 597 0 
z
" transform="scale(0.015625)"/>
       </defs>
       <use xlink:href="#ArialMT-53"/>
       <use xlink:href="#ArialMT-49" transform="translate(66.699219 0)"/>
       <use xlink:href="#ArialMT-2e" transform="translate(94.482422 0)"/>
      </g>
     </g>
    </g>
   </g>
   <g id="matplotlib.axis_2">
    <g id="ytick_1">
     <g id="line2d_3">
      <path d="M 366.10625 374.598 
L 700.90625 374.598 
" clip-path="url(#pbe18acef8b)" style="fill: none; stroke-dasharray: 2.96,1.28; stroke-dashoffset: 0; stroke: #cccccc; stroke-opacity: 0.7; stroke-width: 0.8"/>
     </g>
     <g id="text_3">
      <!-- 0 -->
      <g style="fill: #262626" transform="translate(353.545312 378.176906) scale(0.1 -0.1)">
       <defs>
        <path id="ArialMT-30" d="M 266 2259 
Q 266 3072 433 3567 
Q 600 4063 929 4331 
Q 1259 4600 1759 4600 
Q 2128 4600 2406 4451 
Q 2684 4303 2865 4023 
Q 3047 3744 3150 3342 
Q 3253 2941 3253 2259 
Q 3253 1453 3087 958 
Q 2922 463 2592 192 
Q 2263 -78 1759 -78 
Q 1097 -78 719 397 
Q 266 969 266 2259 
z
M 844 2259 
Q 844 1131 1108 757 
Q 1372 384 1759 384 
Q 2147 384 2411 759 
Q 2675 1134 2675 2259 
Q 2675 3391 2411 3762 
Q 2147 4134 1753 4134 
Q 1366 4134 1134 3806 
Q 844 3388 844 2259 
z
" transform="scale(0.015625)"/>
       </defs>
       <use xlink:href="#ArialMT-30"/>
      </g>
     </g>
    </g>
    <g id="ytick_2">
     <g id="line2d_4">
      <path d="M 366.10625 332.306122 
L 700.90625 332.306122 
" clip-path="url(#pbe18acef8b)" style="fill: none; stroke-dasharray: 2.96,1.28; stroke-dashoffset: 0; stroke: #cccccc; stroke-opacity: 0.7; stroke-width: 0.8"/>
     </g>
     <g id="text_4">
      <!-- 2500 -->
      <g style="fill: #262626" transform="translate(336.8625 335.885028) scale(0.1 -0.1)">
       <defs>
        <path id="ArialMT-32" d="M 3222 541 
L 3222 0 
L 194 0 
Q 188 203 259 391 
Q 375 700 629 1000 
Q 884 1300 1366 1694 
Q 2113 2306 2375 2664 
Q 2638 3022 2638 3341 
Q 2638 3675 2398 3904 
Q 2159 4134 1775 4134 
Q 1369 4134 1125 3890 
Q 881 3647 878 3216 
L 300 3275 
Q 359 3922 746 4261 
Q 1134 4600 1788 4600 
Q 2447 4600 2831 4234 
Q 3216 3869 3216 3328 
Q 3216 3053 3103 2787 
Q 2991 2522 2730 2228 
Q 2469 1934 1863 1422 
Q 1356 997 1212 845 
Q 1069 694 975 541 
L 3222 541 
z
" transform="scale(0.015625)"/>
        <path id="ArialMT-35" d="M 266 1200 
L 856 1250 
Q 922 819 1161 601 
Q 1400 384 1738 384 
Q 2144 384 2425 690 
Q 2706 997 2706 1503 
Q 2706 1984 2436 2262 
Q 2166 2541 1728 2541 
Q 1456 2541 1237 2417 
Q 1019 2294 894 2097 
L 366 2166 
L 809 4519 
L 3088 4519 
L 3088 3981 
L 1259 3981 
L 1013 2750 
Q 1425 3038 1878 3038 
Q 2478 3038 2890 2622 
Q 3303 2206 3303 1553 
Q 3303 931 2941 478 
Q 2500 -78 1738 -78 
Q 1113 -78 717 272 
Q 322 622 266 1200 
z
" transform="scale(0.015625)"/>
       </defs>
       <use xlink:href="#ArialMT-32"/>
       <use xlink:href="#ArialMT-35" transform="translate(55.615234 0)"/>
       <use xlink:href="#ArialMT-30" transform="translate(111.230469 0)"/>
       <use xlink:href="#ArialMT-30" transform="translate(166.845703 0)"/>
      </g>
     </g>
    </g>
    <g id="ytick_3">
     <g id="line2d_5">
      <path d="M 366.10625 290.014244 
L 700.90625 290.014244 
" clip-path="url(#pbe18acef8b)" style="fill: none; stroke-dasharray: 2.96,1.28; stroke-dashoffset: 0; stroke: #cccccc; stroke-opacity: 0.7; stroke-width: 0.8"/>
     </g>
     <g id="text_5">
      <!-- 5000 -->
      <g style="fill: #262626" transform="translate(336.8625 293.59315) scale(0.1 -0.1)">
       <use xlink:href="#ArialMT-35"/>
       <use xlink:href="#ArialMT-30" transform="translate(55.615234 0)"/>
       <use xlink:href="#ArialMT-30" transform="translate(111.230469 0)"/>
       <use xlink:href="#ArialMT-30" transform="translate(166.845703 0)"/>
      </g>
     </g>
    </g>
    <g id="ytick_4">
     <g id="line2d_6">
      <path d="M 366.10625 247.722366 
L 700.90625 247.722366 
" clip-path="url(#pbe18acef8b)" style="fill: none; stroke-dasharray: 2.96,1.28; stroke-dashoffset: 0; stroke: #cccccc; stroke-opacity: 0.7; stroke-width: 0.8"/>
     </g>
     <g id="text_6">
      <!-- 7500 -->
      <g style="fill: #262626" transform="translate(336.8625 251.301272) scale(0.1 -0.1)">
       <defs>
        <path id="ArialMT-37" d="M 303 3981 
L 303 4522 
L 3269 4522 
L 3269 4084 
Q 2831 3619 2401 2847 
Q 1972 2075 1738 1259 
Q 1569 684 1522 0 
L 944 0 
Q 953 541 1156 1306 
Q 1359 2072 1739 2783 
Q 2119 3494 2547 3981 
L 303 3981 
z
" transform="scale(0.015625)"/>
       </defs>
       <use xlink:href="#ArialMT-37"/>
       <use xlink:href="#ArialMT-35" transform="translate(55.615234 0)"/>
       <use xlink:href="#ArialMT-30" transform="translate(111.230469 0)"/>
       <use xlink:href="#ArialMT-30" transform="translate(166.845703 0)"/>
      </g>
     </g>
    </g>
    <g id="ytick_5">
     <g id="line2d_7">
      <path d="M 366.10625 205.430488 
L 700.90625 205.430488 
" clip-path="url(#pbe18acef8b)" style="fill: none; stroke-dasharray: 2.96,1.28; stroke-dashoffset: 0; stroke: #cccccc; stroke-opacity: 0.7; stroke-width: 0.8"/>
     </g>
     <g id="text_7">
      <!-- 10000 -->
      <g style="fill: #262626" transform="translate(331.301562 209.009394) scale(0.1 -0.1)">
       <defs>
        <path id="ArialMT-31" d="M 2384 0 
L 1822 0 
L 1822 3584 
Q 1619 3391 1289 3197 
Q 959 3003 697 2906 
L 697 3450 
Q 1169 3672 1522 3987 
Q 1875 4303 2022 4600 
L 2384 4600 
L 2384 0 
z
" transform="scale(0.015625)"/>
       </defs>
       <use xlink:href="#ArialMT-31"/>
       <use xlink:href="#ArialMT-30" transform="translate(55.615234 0)"/>
       <use xlink:href="#ArialMT-30" transform="translate(111.230469 0)"/>
       <use xlink:href="#ArialMT-30" transform="translate(166.845703 0)"/>
       <use xlink:href="#ArialMT-30" transform="translate(222.460938 0)"/>
      </g>
     </g>
    </g>
    <g id="ytick_6">
     <g id="line2d_8">
      <path d="M 366.10625 163.13861 
L 700.90625 163.13861 
" clip-path="url(#pbe18acef8b)" style="fill: none; stroke-dasharray: 2.96,1.28; stroke-dashoffset: 0; stroke: #cccccc; stroke-opacity: 0.7; stroke-width: 0.8"/>
     </g>
     <g id="text_8">
      <!-- 12500 -->
      <g style="fill: #262626" transform="translate(331.301562 166.717516) scale(0.1 -0.1)">
       <use xlink:href="#ArialMT-31"/>
       <use xlink:href="#ArialMT-32" transform="translate(55.615234 0)"/>
       <use xlink:href="#ArialMT-35" transform="translate(111.230469 0)"/>
       <use xlink:href="#ArialMT-30" transform="translate(166.845703 0)"/>
       <use xlink:href="#ArialMT-30" transform="translate(222.460938 0)"/>
      </g>
     </g>
    </g>
    <g id="ytick_7">
     <g id="line2d_9">
      <path d="M 366.10625 120.846732 
L 700.90625 120.846732 
" clip-path="url(#pbe18acef8b)" style="fill: none; stroke-dasharray: 2.96,1.28; stroke-dashoffset: 0; stroke: #cccccc; stroke-opacity: 0.7; stroke-width: 0.8"/>
     </g>
     <g id="text_9">
      <!-- 15000 -->
      <g style="fill: #262626" transform="translate(331.301562 124.425638) scale(0.1 -0.1)">
       <use xlink:href="#ArialMT-31"/>
       <use xlink:href="#ArialMT-35" transform="translate(55.615234 0)"/>
       <use xlink:href="#ArialMT-30" transform="translate(111.230469 0)"/>
       <use xlink:href="#ArialMT-30" transform="translate(166.845703 0)"/>
       <use xlink:href="#ArialMT-30" transform="translate(222.460938 0)"/>
      </g>
     </g>
    </g>
    <g id="ytick_8">
     <g id="line2d_10">
      <path d="M 366.10625 78.554854 
L 700.90625 78.554854 
" clip-path="url(#pbe18acef8b)" style="fill: none; stroke-dasharray: 2.96,1.28; stroke-dashoffset: 0; stroke: #cccccc; stroke-opacity: 0.7; stroke-width: 0.8"/>
     </g>
     <g id="text_10">
      <!-- 17500 -->
      <g style="fill: #262626" transform="translate(331.301562 82.13376) scale(0.1 -0.1)">
       <use xlink:href="#ArialMT-31"/>
       <use xlink:href="#ArialMT-37" transform="translate(55.615234 0)"/>
       <use xlink:href="#ArialMT-35" transform="translate(111.230469 0)"/>
       <use xlink:href="#ArialMT-30" transform="translate(166.845703 0)"/>
       <use xlink:href="#ArialMT-30" transform="translate(222.460938 0)"/>
      </g>
     </g>
    </g>
   </g>
   <g id="patch_3">
    <path d="M 399.58625 374.598 
L 533.50625 374.598 
L 533.50625 57.798 
L 399.58625 57.798 
z
" clip-path="url(#pbe18acef8b)" style="fill: #001c7f; opacity: 0.8; stroke: #ffffff; stroke-linejoin: miter"/>
   </g>
   <g id="patch_4">
    <path d="M 533.50625 374.598 
L 667.42625 374.598 
L 667.42625 286.732394 
L 533.50625 286.732394 
z
" clip-path="url(#pbe18acef8b)" style="fill: #b1400d; opacity: 0.8; stroke: #ffffff; stroke-linejoin: miter"/>
   </g>
   <g id="patch_5">
    <path d="M 366.10625 374.598 
L 700.90625 374.598 
" style="fill: none; stroke: #cccccc; stroke-width: 0.8; stroke-linejoin: miter; stroke-linecap: square"/>
   </g>
   <g id="text_11">
    <!-- 18727 -->
    <g transform="translate(455.424375 54.866125) scale(0.08 -0.08)">
     <defs>
      <path id="ArialMT-38" d="M 1131 2484 
Q 781 2613 612 2850 
Q 444 3088 444 3419 
Q 444 3919 803 4259 
Q 1163 4600 1759 4600 
Q 2359 4600 2725 4251 
Q 3091 3903 3091 3403 
Q 3091 3084 2923 2848 
Q 2756 2613 2416 2484 
Q 2838 2347 3058 2040 
Q 3278 1734 3278 1309 
Q 3278 722 2862 322 
Q 2447 -78 1769 -78 
Q 1091 -78 675 323 
Q 259 725 259 1325 
Q 259 1772 486 2073 
Q 713 2375 1131 2484 
z
M 1019 3438 
Q 1019 3113 1228 2906 
Q 1438 2700 1772 2700 
Q 2097 2700 2305 2904 
Q 2513 3109 2513 3406 
Q 2513 3716 2298 3927 
Q 2084 4138 1766 4138 
Q 1444 4138 1231 3931 
Q 1019 3725 1019 3438 
z
M 838 1322 
Q 838 1081 952 856 
Q 1066 631 1291 507 
Q 1516 384 1775 384 
Q 2178 384 2440 643 
Q 2703 903 2703 1303 
Q 2703 1709 2433 1975 
Q 2163 2241 1756 2241 
Q 1359 2241 1098 1978 
Q 838 1716 838 1322 
z
" transform="scale(0.015625)"/>
     </defs>
     <use xlink:href="#ArialMT-31"/>
     <use xlink:href="#ArialMT-38" transform="translate(55.615234 0)"/>
     <use xlink:href="#ArialMT-37" transform="translate(111.230469 0)"/>
     <use xlink:href="#ArialMT-32" transform="translate(166.845703 0)"/>
     <use xlink:href="#ArialMT-37" transform="translate(222.460938 0)"/>
    </g>
   </g>
   <g id="text_12">
    <!-- 5194 -->
    <g transform="translate(591.56875 283.800519) scale(0.08 -0.08)">
     <defs>
      <path id="ArialMT-39" d="M 350 1059 
L 891 1109 
Q 959 728 1153 556 
Q 1347 384 1650 384 
Q 1909 384 2104 503 
Q 2300 622 2425 820 
Q 2550 1019 2634 1356 
Q 2719 1694 2719 2044 
Q 2719 2081 2716 2156 
Q 2547 1888 2255 1720 
Q 1963 1553 1622 1553 
Q 1053 1553 659 1965 
Q 266 2378 266 3053 
Q 266 3750 677 4175 
Q 1088 4600 1706 4600 
Q 2153 4600 2523 4359 
Q 2894 4119 3086 3673 
Q 3278 3228 3278 2384 
Q 3278 1506 3087 986 
Q 2897 466 2520 194 
Q 2144 -78 1638 -78 
Q 1100 -78 759 220 
Q 419 519 350 1059 
z
M 2653 3081 
Q 2653 3566 2395 3850 
Q 2138 4134 1775 4134 
Q 1400 4134 1122 3828 
Q 844 3522 844 3034 
Q 844 2597 1108 2323 
Q 1372 2050 1759 2050 
Q 2150 2050 2401 2323 
Q 2653 2597 2653 3081 
z
" transform="scale(0.015625)"/>
      <path id="ArialMT-34" d="M 2069 0 
L 2069 1097 
L 81 1097 
L 81 1613 
L 2172 4581 
L 2631 4581 
L 2631 1613 
L 3250 1613 
L 3250 1097 
L 2631 1097 
L 2631 0 
L 2069 0 
z
M 2069 1613 
L 2069 3678 
L 634 1613 
L 2069 1613 
z
" transform="scale(0.015625)"/>
     </defs>
     <use xlink:href="#ArialMT-35"/>
     <use xlink:href="#ArialMT-31" transform="translate(55.615234 0)"/>
     <use xlink:href="#ArialMT-39" transform="translate(111.230469 0)"/>
     <use xlink:href="#ArialMT-34" transform="translate(166.845703 0)"/>
    </g>
   </g>
   <g id="text_13">
    <!-- ¿Alguna vez un médico le ha dicho que padece de alguna enfermedad del riñón, como infección de vías urinarias en más de una ocasión? -->
    <g style="fill: #262626" transform="translate(7.2 18.8475) scale(0.16 -0.16)">
     <defs>
      <path id="Arial-BoldMT-bf" d="M 2384 3319 
L 2384 2441 
L 1506 2441 
L 1506 3319 
L 2384 3319 
z
M 1591 2138 
L 2384 2138 
Q 2391 1931 2391 1900 
Q 2391 1544 2255 1286 
Q 2119 1028 1723 706 
Q 1328 384 1250 256 
Q 1172 128 1172 -34 
Q 1172 -275 1378 -458 
Q 1584 -641 1931 -641 
Q 2266 -641 2487 -455 
Q 2709 -269 2800 131 
L 3606 28 
Q 3553 -363 3384 -622 
Q 3153 -975 2783 -1144 
Q 2413 -1313 1966 -1313 
Q 1213 -1313 764 -917 
Q 316 -522 316 -3 
Q 316 197 395 386 
Q 475 575 645 765 
Q 816 956 1188 1263 
Q 1459 1481 1526 1626 
Q 1594 1772 1591 2138 
z
" transform="scale(0.015625)"/>
      <path id="Arial-BoldMT-41" d="M 4597 0 
L 3591 0 
L 3191 1041 
L 1359 1041 
L 981 0 
L 0 0 
L 1784 4581 
L 2763 4581 
L 4597 0 
z
M 2894 1813 
L 2263 3513 
L 1644 1813 
L 2894 1813 
z
" transform="scale(0.015625)"/>
      <path id="Arial-BoldMT-6c" d="M 459 0 
L 459 4581 
L 1338 4581 
L 1338 0 
L 459 0 
z
" transform="scale(0.015625)"/>
      <path id="Arial-BoldMT-67" d="M 378 -219 
L 1381 -341 
Q 1406 -516 1497 -581 
Q 1622 -675 1891 -675 
Q 2234 -675 2406 -572 
Q 2522 -503 2581 -350 
Q 2622 -241 2622 53 
L 2622 538 
Q 2228 0 1628 0 
Q 959 0 569 566 
Q 263 1013 263 1678 
Q 263 2513 664 2953 
Q 1066 3394 1663 3394 
Q 2278 3394 2678 2853 
L 2678 3319 
L 3500 3319 
L 3500 341 
Q 3500 -247 3403 -537 
Q 3306 -828 3131 -993 
Q 2956 -1159 2664 -1253 
Q 2372 -1347 1925 -1347 
Q 1081 -1347 728 -1058 
Q 375 -769 375 -325 
Q 375 -281 378 -219 
z
M 1163 1728 
Q 1163 1200 1367 954 
Q 1572 709 1872 709 
Q 2194 709 2416 961 
Q 2638 1213 2638 1706 
Q 2638 2222 2425 2472 
Q 2213 2722 1888 2722 
Q 1572 2722 1367 2476 
Q 1163 2231 1163 1728 
z
" transform="scale(0.015625)"/>
      <path id="Arial-BoldMT-75" d="M 2644 0 
L 2644 497 
Q 2463 231 2167 78 
Q 1872 -75 1544 -75 
Q 1209 -75 943 72 
Q 678 219 559 484 
Q 441 750 441 1219 
L 441 3319 
L 1319 3319 
L 1319 1794 
Q 1319 1094 1367 936 
Q 1416 778 1544 686 
Q 1672 594 1869 594 
Q 2094 594 2272 717 
Q 2450 841 2515 1023 
Q 2581 1206 2581 1919 
L 2581 3319 
L 3459 3319 
L 3459 0 
L 2644 0 
z
" transform="scale(0.015625)"/>
      <path id="Arial-BoldMT-6e" d="M 3478 0 
L 2600 0 
L 2600 1694 
Q 2600 2231 2544 2389 
Q 2488 2547 2361 2634 
Q 2234 2722 2056 2722 
Q 1828 2722 1647 2597 
Q 1466 2472 1398 2265 
Q 1331 2059 1331 1503 
L 1331 0 
L 453 0 
L 453 3319 
L 1269 3319 
L 1269 2831 
Q 1703 3394 2363 3394 
Q 2653 3394 2893 3289 
Q 3134 3184 3257 3021 
Q 3381 2859 3429 2653 
Q 3478 2447 3478 2063 
L 3478 0 
z
" transform="scale(0.015625)"/>
      <path id="Arial-BoldMT-61" d="M 1116 2306 
L 319 2450 
Q 453 2931 781 3162 
Q 1109 3394 1756 3394 
Q 2344 3394 2631 3255 
Q 2919 3116 3036 2902 
Q 3153 2688 3153 2116 
L 3144 1091 
Q 3144 653 3186 445 
Q 3228 238 3344 0 
L 2475 0 
Q 2441 88 2391 259 
Q 2369 338 2359 363 
Q 2134 144 1878 34 
Q 1622 -75 1331 -75 
Q 819 -75 523 203 
Q 228 481 228 906 
Q 228 1188 362 1408 
Q 497 1628 739 1745 
Q 981 1863 1438 1950 
Q 2053 2066 2291 2166 
L 2291 2253 
Q 2291 2506 2166 2614 
Q 2041 2722 1694 2722 
Q 1459 2722 1328 2630 
Q 1197 2538 1116 2306 
z
M 2291 1594 
Q 2122 1538 1756 1459 
Q 1391 1381 1278 1306 
Q 1106 1184 1106 997 
Q 1106 813 1243 678 
Q 1381 544 1594 544 
Q 1831 544 2047 700 
Q 2206 819 2256 991 
Q 2291 1103 2291 1419 
L 2291 1594 
z
" transform="scale(0.015625)"/>
      <path id="Arial-BoldMT-20" transform="scale(0.015625)"/>
      <path id="Arial-BoldMT-76" d="M 1372 0 
L 34 3319 
L 956 3319 
L 1581 1625 
L 1763 1059 
Q 1834 1275 1853 1344 
Q 1897 1484 1947 1625 
L 2578 3319 
L 3481 3319 
L 2163 0 
L 1372 0 
z
" transform="scale(0.015625)"/>
      <path id="Arial-BoldMT-65" d="M 2381 1056 
L 3256 909 
Q 3088 428 2723 176 
Q 2359 -75 1813 -75 
Q 947 -75 531 491 
Q 203 944 203 1634 
Q 203 2459 634 2926 
Q 1066 3394 1725 3394 
Q 2466 3394 2894 2905 
Q 3322 2416 3303 1406 
L 1103 1406 
Q 1113 1016 1316 798 
Q 1519 581 1822 581 
Q 2028 581 2168 693 
Q 2309 806 2381 1056 
z
M 2431 1944 
Q 2422 2325 2234 2523 
Q 2047 2722 1778 2722 
Q 1491 2722 1303 2513 
Q 1116 2303 1119 1944 
L 2431 1944 
z
" transform="scale(0.015625)"/>
      <path id="Arial-BoldMT-7a" d="M 106 0 
L 106 684 
L 1350 2113 
Q 1656 2463 1803 2609 
Q 1650 2600 1400 2597 
L 228 2591 
L 228 3319 
L 2972 3319 
L 2972 2697 
L 1703 1234 
L 1256 750 
Q 1622 772 1709 772 
L 3069 772 
L 3069 0 
L 106 0 
z
" transform="scale(0.015625)"/>
      <path id="Arial-BoldMT-6d" d="M 394 3319 
L 1203 3319 
L 1203 2866 
Q 1638 3394 2238 3394 
Q 2556 3394 2790 3262 
Q 3025 3131 3175 2866 
Q 3394 3131 3647 3262 
Q 3900 3394 4188 3394 
Q 4553 3394 4806 3245 
Q 5059 3097 5184 2809 
Q 5275 2597 5275 2122 
L 5275 0 
L 4397 0 
L 4397 1897 
Q 4397 2391 4306 2534 
Q 4184 2722 3931 2722 
Q 3747 2722 3584 2609 
Q 3422 2497 3350 2280 
Q 3278 2063 3278 1594 
L 3278 0 
L 2400 0 
L 2400 1819 
Q 2400 2303 2353 2443 
Q 2306 2584 2207 2653 
Q 2109 2722 1941 2722 
Q 1738 2722 1575 2612 
Q 1413 2503 1342 2297 
Q 1272 2091 1272 1613 
L 1272 0 
L 394 0 
L 394 3319 
z
" transform="scale(0.015625)"/>
      <path id="Arial-BoldMT-e9" d="M 2381 1056 
L 3256 909 
Q 3088 428 2723 176 
Q 2359 -75 1813 -75 
Q 947 -75 531 491 
Q 203 944 203 1634 
Q 203 2459 634 2926 
Q 1066 3394 1725 3394 
Q 2466 3394 2894 2905 
Q 3322 2416 3303 1406 
L 1103 1406 
Q 1113 1016 1316 798 
Q 1519 581 1822 581 
Q 2028 581 2168 693 
Q 2309 806 2381 1056 
z
M 2431 1944 
Q 2422 2325 2234 2523 
Q 2047 2722 1778 2722 
Q 1491 2722 1303 2513 
Q 1116 2303 1119 1944 
L 2431 1944 
z
M 1309 3725 
L 1741 4659 
L 2725 4659 
L 1866 3725 
L 1309 3725 
z
" transform="scale(0.015625)"/>
      <path id="Arial-BoldMT-64" d="M 3503 0 
L 2688 0 
L 2688 488 
Q 2484 203 2207 64 
Q 1931 -75 1650 -75 
Q 1078 -75 670 386 
Q 263 847 263 1672 
Q 263 2516 659 2955 
Q 1056 3394 1663 3394 
Q 2219 3394 2625 2931 
L 2625 4581 
L 3503 4581 
L 3503 0 
z
M 1159 1731 
Q 1159 1200 1306 963 
Q 1519 619 1900 619 
Q 2203 619 2415 876 
Q 2628 1134 2628 1647 
Q 2628 2219 2422 2470 
Q 2216 2722 1894 2722 
Q 1581 2722 1370 2473 
Q 1159 2225 1159 1731 
z
" transform="scale(0.015625)"/>
      <path id="Arial-BoldMT-69" d="M 459 3769 
L 459 4581 
L 1338 4581 
L 1338 3769 
L 459 3769 
z
M 459 0 
L 459 3319 
L 1338 3319 
L 1338 0 
L 459 0 
z
" transform="scale(0.015625)"/>
      <path id="Arial-BoldMT-63" d="M 3353 2338 
L 2488 2181 
Q 2444 2441 2289 2572 
Q 2134 2703 1888 2703 
Q 1559 2703 1364 2476 
Q 1169 2250 1169 1719 
Q 1169 1128 1367 884 
Q 1566 641 1900 641 
Q 2150 641 2309 783 
Q 2469 925 2534 1272 
L 3397 1125 
Q 3263 531 2881 228 
Q 2500 -75 1859 -75 
Q 1131 -75 698 384 
Q 266 844 266 1656 
Q 266 2478 700 2936 
Q 1134 3394 1875 3394 
Q 2481 3394 2839 3133 
Q 3197 2872 3353 2338 
z
" transform="scale(0.015625)"/>
      <path id="Arial-BoldMT-6f" d="M 256 1706 
Q 256 2144 472 2553 
Q 688 2963 1083 3178 
Q 1478 3394 1966 3394 
Q 2719 3394 3200 2905 
Q 3681 2416 3681 1669 
Q 3681 916 3195 420 
Q 2709 -75 1972 -75 
Q 1516 -75 1102 131 
Q 688 338 472 736 
Q 256 1134 256 1706 
z
M 1156 1659 
Q 1156 1166 1390 903 
Q 1625 641 1969 641 
Q 2313 641 2545 903 
Q 2778 1166 2778 1666 
Q 2778 2153 2545 2415 
Q 2313 2678 1969 2678 
Q 1625 2678 1390 2415 
Q 1156 2153 1156 1659 
z
" transform="scale(0.015625)"/>
      <path id="Arial-BoldMT-68" d="M 1334 4581 
L 1334 2897 
Q 1759 3394 2350 3394 
Q 2653 3394 2897 3281 
Q 3141 3169 3264 2994 
Q 3388 2819 3433 2606 
Q 3478 2394 3478 1947 
L 3478 0 
L 2600 0 
L 2600 1753 
Q 2600 2275 2550 2415 
Q 2500 2556 2373 2639 
Q 2247 2722 2056 2722 
Q 1838 2722 1666 2615 
Q 1494 2509 1414 2295 
Q 1334 2081 1334 1663 
L 1334 0 
L 456 0 
L 456 4581 
L 1334 4581 
z
" transform="scale(0.015625)"/>
      <path id="Arial-BoldMT-71" d="M 2628 -1263 
L 2628 406 
Q 2456 184 2200 54 
Q 1944 -75 1647 -75 
Q 1081 -75 716 350 
Q 284 847 284 1697 
Q 284 2497 689 2945 
Q 1094 3394 1694 3394 
Q 2025 3394 2267 3253 
Q 2509 3113 2697 2828 
L 2697 3319 
L 3506 3319 
L 3506 -1263 
L 2628 -1263 
z
M 2656 1700 
Q 2656 2209 2448 2457 
Q 2241 2706 1928 2706 
Q 1609 2706 1395 2453 
Q 1181 2200 1181 1650 
Q 1181 1103 1387 861 
Q 1594 619 1897 619 
Q 2200 619 2428 891 
Q 2656 1163 2656 1700 
z
" transform="scale(0.015625)"/>
      <path id="Arial-BoldMT-70" d="M 434 3319 
L 1253 3319 
L 1253 2831 
Q 1413 3081 1684 3237 
Q 1956 3394 2288 3394 
Q 2866 3394 3269 2941 
Q 3672 2488 3672 1678 
Q 3672 847 3265 386 
Q 2859 -75 2281 -75 
Q 2006 -75 1782 34 
Q 1559 144 1313 409 
L 1313 -1263 
L 434 -1263 
L 434 3319 
z
M 1303 1716 
Q 1303 1156 1525 889 
Q 1747 622 2066 622 
Q 2372 622 2575 867 
Q 2778 1113 2778 1672 
Q 2778 2194 2568 2447 
Q 2359 2700 2050 2700 
Q 1728 2700 1515 2451 
Q 1303 2203 1303 1716 
z
" transform="scale(0.015625)"/>
      <path id="Arial-BoldMT-66" d="M 75 3319 
L 563 3319 
L 563 3569 
Q 563 3988 652 4194 
Q 741 4400 980 4529 
Q 1219 4659 1584 4659 
Q 1959 4659 2319 4547 
L 2200 3934 
Q 1991 3984 1797 3984 
Q 1606 3984 1523 3895 
Q 1441 3806 1441 3553 
L 1441 3319 
L 2097 3319 
L 2097 2628 
L 1441 2628 
L 1441 0 
L 563 0 
L 563 2628 
L 75 2628 
L 75 3319 
z
" transform="scale(0.015625)"/>
      <path id="Arial-BoldMT-72" d="M 1300 0 
L 422 0 
L 422 3319 
L 1238 3319 
L 1238 2847 
Q 1447 3181 1614 3287 
Q 1781 3394 1994 3394 
Q 2294 3394 2572 3228 
L 2300 2463 
Q 2078 2606 1888 2606 
Q 1703 2606 1575 2504 
Q 1447 2403 1373 2137 
Q 1300 1872 1300 1025 
L 1300 0 
z
" transform="scale(0.015625)"/>
      <path id="Arial-BoldMT-f1" d="M 3478 0 
L 2600 0 
L 2600 1694 
Q 2600 2231 2544 2389 
Q 2488 2547 2361 2634 
Q 2234 2722 2056 2722 
Q 1828 2722 1647 2597 
Q 1466 2472 1398 2265 
Q 1331 2059 1331 1503 
L 1331 0 
L 453 0 
L 453 3319 
L 1269 3319 
L 1269 2831 
Q 1703 3394 2363 3394 
Q 2653 3394 2893 3289 
Q 3134 3184 3257 3021 
Q 3381 2859 3429 2653 
Q 3478 2447 3478 2063 
L 3478 0 
z
M 1288 3766 
L 888 3766 
Q 884 3838 884 3878 
Q 884 4206 1043 4382 
Q 1203 4559 1453 4559 
Q 1563 4559 1656 4536 
Q 1750 4513 1998 4402 
Q 2247 4291 2388 4291 
Q 2488 4291 2555 4353 
Q 2622 4416 2641 4563 
L 3047 4563 
Q 3044 4141 2889 3959 
Q 2734 3778 2491 3778 
Q 2384 3778 2281 3800 
Q 2209 3819 1921 3928 
Q 1634 4038 1503 4038 
Q 1403 4038 1347 3977 
Q 1291 3916 1288 3766 
z
" transform="scale(0.015625)"/>
      <path id="Arial-BoldMT-f3" d="M 256 1706 
Q 256 2144 472 2553 
Q 688 2963 1083 3178 
Q 1478 3394 1966 3394 
Q 2719 3394 3200 2905 
Q 3681 2416 3681 1669 
Q 3681 916 3195 420 
Q 2709 -75 1972 -75 
Q 1516 -75 1102 131 
Q 688 338 472 736 
Q 256 1134 256 1706 
z
M 1156 1659 
Q 1156 1166 1390 903 
Q 1625 641 1969 641 
Q 2313 641 2545 903 
Q 2778 1166 2778 1666 
Q 2778 2153 2545 2415 
Q 2313 2678 1969 2678 
Q 1625 2678 1390 2415 
Q 1156 2153 1156 1659 
z
M 1525 3725 
L 1956 4659 
L 2941 4659 
L 2081 3725 
L 1525 3725 
z
" transform="scale(0.015625)"/>
      <path id="Arial-BoldMT-2c" d="M 438 878 
L 1316 878 
L 1316 250 
Q 1316 -131 1250 -351 
Q 1184 -572 1001 -747 
Q 819 -922 538 -1022 
L 366 -659 
Q 631 -572 743 -419 
Q 856 -266 863 0 
L 438 0 
L 438 878 
z
" transform="scale(0.015625)"/>
      <path id="Arial-BoldMT-ed" d="M 459 0 
L 459 3319 
L 1338 3319 
L 1338 0 
L 459 0 
z
M 394 3725 
L 825 4659 
L 1809 4659 
L 950 3725 
L 394 3725 
z
" transform="scale(0.015625)"/>
      <path id="Arial-BoldMT-73" d="M 150 947 
L 1031 1081 
Q 1088 825 1259 692 
Q 1431 559 1741 559 
Q 2081 559 2253 684 
Q 2369 772 2369 919 
Q 2369 1019 2306 1084 
Q 2241 1147 2013 1200 
Q 950 1434 666 1628 
Q 272 1897 272 2375 
Q 272 2806 612 3100 
Q 953 3394 1669 3394 
Q 2350 3394 2681 3172 
Q 3013 2950 3138 2516 
L 2309 2363 
Q 2256 2556 2107 2659 
Q 1959 2763 1684 2763 
Q 1338 2763 1188 2666 
Q 1088 2597 1088 2488 
Q 1088 2394 1175 2328 
Q 1294 2241 1995 2081 
Q 2697 1922 2975 1691 
Q 3250 1456 3250 1038 
Q 3250 581 2869 253 
Q 2488 -75 1741 -75 
Q 1063 -75 667 200 
Q 272 475 150 947 
z
" transform="scale(0.015625)"/>
      <path id="Arial-BoldMT-e1" d="M 1116 2306 
L 319 2450 
Q 453 2931 781 3162 
Q 1109 3394 1756 3394 
Q 2344 3394 2631 3255 
Q 2919 3116 3036 2902 
Q 3153 2688 3153 2116 
L 3144 1091 
Q 3144 653 3186 445 
Q 3228 238 3344 0 
L 2475 0 
Q 2441 88 2391 259 
Q 2369 338 2359 363 
Q 2134 144 1878 34 
Q 1622 -75 1331 -75 
Q 819 -75 523 203 
Q 228 481 228 906 
Q 228 1188 362 1408 
Q 497 1628 739 1745 
Q 981 1863 1438 1950 
Q 2053 2066 2291 2166 
L 2291 2253 
Q 2291 2506 2166 2614 
Q 2041 2722 1694 2722 
Q 1459 2722 1328 2630 
Q 1197 2538 1116 2306 
z
M 2291 1594 
Q 2122 1538 1756 1459 
Q 1391 1381 1278 1306 
Q 1106 1184 1106 997 
Q 1106 813 1243 678 
Q 1381 544 1594 544 
Q 1831 544 2047 700 
Q 2206 819 2256 991 
Q 2291 1103 2291 1419 
L 2291 1594 
z
M 1341 3725 
L 1772 4659 
L 2756 4659 
L 1897 3725 
L 1341 3725 
z
" transform="scale(0.015625)"/>
      <path id="Arial-BoldMT-3f" d="M 2347 1181 
L 1550 1181 
Q 1547 1353 1547 1391 
Q 1547 1778 1675 2028 
Q 1803 2278 2187 2590 
Q 2572 2903 2647 3000 
Q 2763 3153 2763 3338 
Q 2763 3594 2558 3776 
Q 2353 3959 2006 3959 
Q 1672 3959 1447 3768 
Q 1222 3578 1138 3188 
L 331 3288 
Q 366 3847 808 4237 
Q 1250 4628 1969 4628 
Q 2725 4628 3172 4233 
Q 3619 3838 3619 3313 
Q 3619 3022 3455 2762 
Q 3291 2503 2753 2056 
Q 2475 1825 2408 1684 
Q 2341 1544 2347 1181 
z
M 1550 0 
L 1550 878 
L 2428 878 
L 2428 0 
L 1550 0 
z
" transform="scale(0.015625)"/>
     </defs>
     <use xlink:href="#Arial-BoldMT-bf"/>
     <use xlink:href="#Arial-BoldMT-41" transform="translate(61.083984 0)"/>
     <use xlink:href="#Arial-BoldMT-6c" transform="translate(133.300781 0)"/>
     <use xlink:href="#Arial-BoldMT-67" transform="translate(161.083984 0)"/>
     <use xlink:href="#Arial-BoldMT-75" transform="translate(222.167969 0)"/>
     <use xlink:href="#Arial-BoldMT-6e" transform="translate(283.251953 0)"/>
     <use xlink:href="#Arial-BoldMT-61" transform="translate(344.335938 0)"/>
     <use xlink:href="#Arial-BoldMT-20" transform="translate(399.951172 0)"/>
     <use xlink:href="#Arial-BoldMT-76" transform="translate(427.734375 0)"/>
     <use xlink:href="#Arial-BoldMT-65" transform="translate(483.349609 0)"/>
     <use xlink:href="#Arial-BoldMT-7a" transform="translate(538.964844 0)"/>
     <use xlink:href="#Arial-BoldMT-20" transform="translate(588.964844 0)"/>
     <use xlink:href="#Arial-BoldMT-75" transform="translate(616.748047 0)"/>
     <use xlink:href="#Arial-BoldMT-6e" transform="translate(677.832031 0)"/>
     <use xlink:href="#Arial-BoldMT-20" transform="translate(738.916016 0)"/>
     <use xlink:href="#Arial-BoldMT-6d" transform="translate(766.699219 0)"/>
     <use xlink:href="#Arial-BoldMT-e9" transform="translate(855.615234 0)"/>
     <use xlink:href="#Arial-BoldMT-64" transform="translate(911.230469 0)"/>
     <use xlink:href="#Arial-BoldMT-69" transform="translate(972.314453 0)"/>
     <use xlink:href="#Arial-BoldMT-63" transform="translate(1000.097656 0)"/>
     <use xlink:href="#Arial-BoldMT-6f" transform="translate(1055.712891 0)"/>
     <use xlink:href="#Arial-BoldMT-20" transform="translate(1116.796875 0)"/>
     <use xlink:href="#Arial-BoldMT-6c" transform="translate(1144.580078 0)"/>
     <use xlink:href="#Arial-BoldMT-65" transform="translate(1172.363281 0)"/>
     <use xlink:href="#Arial-BoldMT-20" transform="translate(1227.978516 0)"/>
     <use xlink:href="#Arial-BoldMT-68" transform="translate(1255.761719 0)"/>
     <use xlink:href="#Arial-BoldMT-61" transform="translate(1316.845703 0)"/>
     <use xlink:href="#Arial-BoldMT-20" transform="translate(1372.460938 0)"/>
     <use xlink:href="#Arial-BoldMT-64" transform="translate(1400.244141 0)"/>
     <use xlink:href="#Arial-BoldMT-69" transform="translate(1461.328125 0)"/>
     <use xlink:href="#Arial-BoldMT-63" transform="translate(1489.111328 0)"/>
     <use xlink:href="#Arial-BoldMT-68" transform="translate(1544.726562 0)"/>
     <use xlink:href="#Arial-BoldMT-6f" transform="translate(1605.810547 0)"/>
     <use xlink:href="#Arial-BoldMT-20" transform="translate(1666.894531 0)"/>
     <use xlink:href="#Arial-BoldMT-71" transform="translate(1694.677734 0)"/>
     <use xlink:href="#Arial-BoldMT-75" transform="translate(1755.761719 0)"/>
     <use xlink:href="#Arial-BoldMT-65" transform="translate(1816.845703 0)"/>
     <use xlink:href="#Arial-BoldMT-20" transform="translate(1872.460938 0)"/>
     <use xlink:href="#Arial-BoldMT-70" transform="translate(1900.244141 0)"/>
     <use xlink:href="#Arial-BoldMT-61" transform="translate(1961.328125 0)"/>
     <use xlink:href="#Arial-BoldMT-64" transform="translate(2016.943359 0)"/>
     <use xlink:href="#Arial-BoldMT-65" transform="translate(2078.027344 0)"/>
     <use xlink:href="#Arial-BoldMT-63" transform="translate(2133.642578 0)"/>
     <use xlink:href="#Arial-BoldMT-65" transform="translate(2189.257812 0)"/>
     <use xlink:href="#Arial-BoldMT-20" transform="translate(2244.873047 0)"/>
     <use xlink:href="#Arial-BoldMT-64" transform="translate(2272.65625 0)"/>
     <use xlink:href="#Arial-BoldMT-65" transform="translate(2333.740234 0)"/>
     <use xlink:href="#Arial-BoldMT-20" transform="translate(2389.355469 0)"/>
     <use xlink:href="#Arial-BoldMT-61" transform="translate(2417.138672 0)"/>
     <use xlink:href="#Arial-BoldMT-6c" transform="translate(2472.753906 0)"/>
     <use xlink:href="#Arial-BoldMT-67" transform="translate(2500.537109 0)"/>
     <use xlink:href="#Arial-BoldMT-75" transform="translate(2561.621094 0)"/>
     <use xlink:href="#Arial-BoldMT-6e" transform="translate(2622.705078 0)"/>
     <use xlink:href="#Arial-BoldMT-61" transform="translate(2683.789062 0)"/>
     <use xlink:href="#Arial-BoldMT-20" transform="translate(2739.404297 0)"/>
     <use xlink:href="#Arial-BoldMT-65" transform="translate(2767.1875 0)"/>
     <use xlink:href="#Arial-BoldMT-6e" transform="translate(2822.802734 0)"/>
     <use xlink:href="#Arial-BoldMT-66" transform="translate(2883.886719 0)"/>
     <use xlink:href="#Arial-BoldMT-65" transform="translate(2917.1875 0)"/>
     <use xlink:href="#Arial-BoldMT-72" transform="translate(2972.802734 0)"/>
     <use xlink:href="#Arial-BoldMT-6d" transform="translate(3011.71875 0)"/>
     <use xlink:href="#Arial-BoldMT-65" transform="translate(3100.634766 0)"/>
     <use xlink:href="#Arial-BoldMT-64" transform="translate(3156.25 0)"/>
     <use xlink:href="#Arial-BoldMT-61" transform="translate(3217.333984 0)"/>
     <use xlink:href="#Arial-BoldMT-64" transform="translate(3272.949219 0)"/>
     <use xlink:href="#Arial-BoldMT-20" transform="translate(3334.033203 0)"/>
     <use xlink:href="#Arial-BoldMT-64" transform="translate(3361.816406 0)"/>
     <use xlink:href="#Arial-BoldMT-65" transform="translate(3422.900391 0)"/>
     <use xlink:href="#Arial-BoldMT-6c" transform="translate(3478.515625 0)"/>
     <use xlink:href="#Arial-BoldMT-20" transform="translate(3506.298828 0)"/>
     <use xlink:href="#Arial-BoldMT-72" transform="translate(3534.082031 0)"/>
     <use xlink:href="#Arial-BoldMT-69" transform="translate(3572.998047 0)"/>
     <use xlink:href="#Arial-BoldMT-f1" transform="translate(3600.78125 0)"/>
     <use xlink:href="#Arial-BoldMT-f3" transform="translate(3661.865234 0)"/>
     <use xlink:href="#Arial-BoldMT-6e" transform="translate(3722.949219 0)"/>
     <use xlink:href="#Arial-BoldMT-2c" transform="translate(3784.033203 0)"/>
     <use xlink:href="#Arial-BoldMT-20" transform="translate(3811.816406 0)"/>
     <use xlink:href="#Arial-BoldMT-63" transform="translate(3839.599609 0)"/>
     <use xlink:href="#Arial-BoldMT-6f" transform="translate(3895.214844 0)"/>
     <use xlink:href="#Arial-BoldMT-6d" transform="translate(3956.298828 0)"/>
     <use xlink:href="#Arial-BoldMT-6f" transform="translate(4045.214844 0)"/>
     <use xlink:href="#Arial-BoldMT-20" transform="translate(4106.298828 0)"/>
     <use xlink:href="#Arial-BoldMT-69" transform="translate(4134.082031 0)"/>
     <use xlink:href="#Arial-BoldMT-6e" transform="translate(4161.865234 0)"/>
     <use xlink:href="#Arial-BoldMT-66" transform="translate(4222.949219 0)"/>
     <use xlink:href="#Arial-BoldMT-65" transform="translate(4256.25 0)"/>
     <use xlink:href="#Arial-BoldMT-63" transform="translate(4311.865234 0)"/>
     <use xlink:href="#Arial-BoldMT-63" transform="translate(4367.480469 0)"/>
     <use xlink:href="#Arial-BoldMT-69" transform="translate(4423.095703 0)"/>
     <use xlink:href="#Arial-BoldMT-f3" transform="translate(4450.878906 0)"/>
     <use xlink:href="#Arial-BoldMT-6e" transform="translate(4511.962891 0)"/>
     <use xlink:href="#Arial-BoldMT-20" transform="translate(4573.046875 0)"/>
     <use xlink:href="#Arial-BoldMT-64" transform="translate(4600.830078 0)"/>
     <use xlink:href="#Arial-BoldMT-65" transform="translate(4661.914062 0)"/>
     <use xlink:href="#Arial-BoldMT-20" transform="translate(4717.529297 0)"/>
     <use xlink:href="#Arial-BoldMT-76" transform="translate(4745.3125 0)"/>
     <use xlink:href="#Arial-BoldMT-ed" transform="translate(4800.927734 0)"/>
     <use xlink:href="#Arial-BoldMT-61" transform="translate(4828.710938 0)"/>
     <use xlink:href="#Arial-BoldMT-73" transform="translate(4884.326172 0)"/>
     <use xlink:href="#Arial-BoldMT-20" transform="translate(4939.941406 0)"/>
     <use xlink:href="#Arial-BoldMT-75" transform="translate(4967.724609 0)"/>
     <use xlink:href="#Arial-BoldMT-72" transform="translate(5028.808594 0)"/>
     <use xlink:href="#Arial-BoldMT-69" transform="translate(5067.724609 0)"/>
     <use xlink:href="#Arial-BoldMT-6e" transform="translate(5095.507812 0)"/>
     <use xlink:href="#Arial-BoldMT-61" transform="translate(5156.591797 0)"/>
     <use xlink:href="#Arial-BoldMT-72" transform="translate(5212.207031 0)"/>
     <use xlink:href="#Arial-BoldMT-69" transform="translate(5251.123047 0)"/>
     <use xlink:href="#Arial-BoldMT-61" transform="translate(5278.90625 0)"/>
     <use xlink:href="#Arial-BoldMT-73" transform="translate(5334.521484 0)"/>
     <use xlink:href="#Arial-BoldMT-20" transform="translate(5390.136719 0)"/>
     <use xlink:href="#Arial-BoldMT-65" transform="translate(5417.919922 0)"/>
     <use xlink:href="#Arial-BoldMT-6e" transform="translate(5473.535156 0)"/>
     <use xlink:href="#Arial-BoldMT-20" transform="translate(5534.619141 0)"/>
     <use xlink:href="#Arial-BoldMT-6d" transform="translate(5562.402344 0)"/>
     <use xlink:href="#Arial-BoldMT-e1" transform="translate(5651.318359 0)"/>
     <use xlink:href="#Arial-BoldMT-73" transform="translate(5706.933594 0)"/>
     <use xlink:href="#Arial-BoldMT-20" transform="translate(5762.548828 0)"/>
     <use xlink:href="#Arial-BoldMT-64" transform="translate(5790.332031 0)"/>
     <use xlink:href="#Arial-BoldMT-65" transform="translate(5851.416016 0)"/>
     <use xlink:href="#Arial-BoldMT-20" transform="translate(5907.03125 0)"/>
     <use xlink:href="#Arial-BoldMT-75" transform="translate(5934.814453 0)"/>
     <use xlink:href="#Arial-BoldMT-6e" transform="translate(5995.898438 0)"/>
     <use xlink:href="#Arial-BoldMT-61" transform="translate(6056.982422 0)"/>
     <use xlink:href="#Arial-BoldMT-20" transform="translate(6112.597656 0)"/>
     <use xlink:href="#Arial-BoldMT-6f" transform="translate(6140.380859 0)"/>
     <use xlink:href="#Arial-BoldMT-63" transform="translate(6201.464844 0)"/>
     <use xlink:href="#Arial-BoldMT-61" transform="translate(6257.080078 0)"/>
     <use xlink:href="#Arial-BoldMT-73" transform="translate(6312.695312 0)"/>
     <use xlink:href="#Arial-BoldMT-69" transform="translate(6368.310547 0)"/>
     <use xlink:href="#Arial-BoldMT-f3" transform="translate(6396.09375 0)"/>
     <use xlink:href="#Arial-BoldMT-6e" transform="translate(6457.177734 0)"/>
     <use xlink:href="#Arial-BoldMT-3f" transform="translate(6518.261719 0)"/>
    </g>
    <!--  -->
    <g style="fill: #262626" transform="translate(533.50625 35.958) scale(0.16 -0.16)"/>
   </g>
  </g>
 </g>
 <defs>
  <clipPath id="pbe18acef8b">
   <rect x="366.10625" y="41.958" width="334.8" height="332.64"/>
  </clipPath>
 </defs>
</svg>
